<?xml version="1.0" encoding="UTF-8" standalone="no"?>
<svg
   width="1439"
   height="804"
   viewBox="0 0 1439 804"
   fill="#191919"
   version="1.1"
   id="svg1071"
   xmlns="http://www.w3.org/2000/svg">
  <defs
     id="defs1075" />
  <path
     id="path1069"
     style="strokeWidth:0;stroke-dasharray:none"
     d="m 1129.791,-0.44140625 c -6e-4,0.17359097 -0.02,0.34203265 -0.051,0.5078125 h 0.8282 c 0.078,-0.02022793 0.1459,-0.05350263 0.2265,-0.0703125 0,-0.01403784 -0.038,-0.05443165 -0.037,-0.06640625 0.015,-0.37918556 0.428,-0.27459114 0.9102,-0.08789062 0.4406,-0.0731543 0.8513,-0.18726202 1.2754,-0.28320313 z M 1440.1602,323.76172 c -0.071,0.95256 -0.1458,1.90483 -0.2168,2.85742 0.096,0.3859 0.1282,0.55053 0.2168,0.91797 z m 0,79.20898 c -0.01,0.0931 -0.012,0.18617 -0.018,0.2793 0.01,10e-6 0.012,-10e-6 0.018,0 z m -1.5,163.39844 v 0.37891 c 0.013,-0.0214 0.026,-0.0417 0.039,-0.0625 -0.014,-0.10534 -0.025,-0.21108 -0.039,-0.31641 z M -3.7089844,693.55078 c -0.1446667,0.80799 -0.6082411,1.36257 -1.2128906,1.58203 V 803.43945 H 963.8125 C 900.83333,802.30108 832.88793,797.85289 759.04297,788.70703 Z M 963.8125,803.43945 c 10.20459,0.18446 20.60137,0.4968 30.5293,0.5 13.529,0.004 26.7602,-0.18545 39.7891,-0.5 z m 70.3184,0 h 406.0293 v -73.85547 c -1.0795,-0.62692 -0.7776,-1.06107 0,-1.4121 v -0.36329 c -0.3444,-0.0244 -0.6911,-0.0555 -0.9356,-0.21289 -0.198,-0.0767 -0.386,-0.1584 -0.5644,-0.24609 v 1.45508 c -91.4078,36.37303 -224.1469,70.28006 -404.5293,74.63476 z m 406.0293,-98.08593 c -0.041,0.38176 -0.085,0.76309 -0.129,1.14453 0.041,-0.007 0.09,-0.0147 0.129,-0.0215 z" />
</svg>
