<svg width="32" height="32" viewBox="0 0 32 32" fill="none" xmlns="http://www.w3.org/2000/svg">
<circle cx="16" cy="16" r="16" fill="white"/>
<path d="M8.39453 15.9985C8.39453 15.4929 8.74087 15.0763 9.18706 15.0193L9.29168 15.0127H22.7491C23.2446 15.0127 23.6462 15.4541 23.6462 15.9985C23.6462 16.5041 23.2999 16.9208 22.8537 16.9777L22.7491 16.9844L9.29168 16.9844C8.7962 16.9844 8.39453 16.543 8.39453 15.9985Z" transform="rotate(45 16 16.3179)" fill="#191919"/>
<path d="M16.021 8.375C16.5266 8.375 16.9433 8.72134 17.0002 9.16752L17.0069 9.27215V22.7296C17.0069 23.225 16.5655 23.6267 16.021 23.6267C15.5154 23.6267 15.0987 23.2804 15.0418 22.8342L15.0352 22.7296L15.0352 9.27215C15.0352 8.77667 15.4765 8.375 16.021 8.375Z" transform="rotate(45 16 16.3179)" fill="#191919"/>
</svg>
