<svg width="186" height="118" viewBox="0 0 186 118" fill="none" xmlns="http://www.w3.org/2000/svg">
<path d="M185.118 0.792969L1.00098 0.792969L1.00098 117.105H185.118V0.792969Z" fill="#3D55CC" fill-opacity="0.6"/>
<path d="M185.118 0.792969L1.00098 0.792969L1.00098 117.105H185.118V0.792969Z" stroke="#191919"/>
<path d="M185.118 0.601562H1.00098V21.6983H185.118V0.601562Z" fill="#5E5E5E" stroke="#5E5E5E" stroke-width="0.297362" stroke-miterlimit="10"/>
<path d="M13.6232 15.182C15.9009 15.182 17.7474 13.3355 17.7474 11.0578C17.7474 8.78005 15.9009 6.93359 13.6232 6.93359C11.3455 6.93359 9.49902 8.78005 9.49902 11.0578C9.49902 13.3355 11.3455 15.182 13.6232 15.182Z" fill="#FF4133"/>
<path d="M30.1173 15.182C32.3951 15.182 34.2415 13.3355 34.2415 11.0578C34.2415 8.78005 32.3951 6.93359 30.1173 6.93359C27.8396 6.93359 25.9932 8.78005 25.9932 11.0578C25.9932 13.3355 27.8396 15.182 30.1173 15.182Z" fill="#E6D0B8"/>
<path d="M46.6125 15.182C48.8902 15.182 50.7366 13.3355 50.7366 11.0578C50.7366 8.78005 48.8902 6.93359 46.6125 6.93359C44.3347 6.93359 42.4883 8.78005 42.4883 11.0578C42.4883 13.3355 44.3347 15.182 46.6125 15.182Z" fill="#E6D0B8"/>
<circle cx="93.0597" cy="59.2882" r="19.1788" stroke="#FF4133" stroke-width="5"/>
<path d="M79.29 72.5627L106.337 45.5156" stroke="#FF4133" stroke-width="5"/>
</svg>
