<svg width="375" height="605" viewBox="0 0 375 605" fill="none" xmlns="http://www.w3.org/2000/svg">
<path d="M-1.69174 577.278C-1.14049 578.069 -0.437849 578.855 0.505743 579.031C3.90172 579.68 0.53308 567.992 0.120219 566.408C-1.26536 561.147 -3.22677 556.033 -5.70155 551.188C-10.5923 541.585 -17.4861 532.987 -25.9073 526.255C-29.7356 523.194 -33.8971 520.495 -38.4128 518.56C-39.7829 517.972 -50.9068 513.588 -49.1328 518.337C-48.7332 519.406 -47.6519 520.042 -46.6472 520.587C-39.7332 524.38 -32.8045 528.303 -26.8539 533.486C-16.869 542.191 -10.0731 554.133 -6.0244 566.751C-4.85631 570.38 -3.87251 574.155 -1.68894 577.285L-1.69174 577.278Z" fill="#FFBB00"/>
<path d="M-39.1792 624.187C-36.7062 615.976 -30.7109 609.688 -23.8232 604.831C-16.6596 599.778 -9.02537 595.801 0.00683798 597.575C4.32955 598.423 8.42532 600.626 11.2618 603.999C11.5837 604.381 11.9065 604.789 12.3632 604.985C12.8199 605.181 13.4573 605.062 13.6532 604.605C13.8163 604.22 13.6141 603.793 13.409 603.427C11.0315 599.252 7.33533 595.86 3.0114 593.776C1.97291 593.278 0.894138 592.854 -0.204363 592.515C-8.12368 590.069 -18.6875 594.851 -25.2296 599.059C-32.4657 603.713 -38.4625 610.453 -41.5202 618.559C-42.2057 620.374 -43.1222 623.077 -42.7471 625.017C-42.0974 628.422 -39.8333 626.383 -39.1745 624.177L-39.1792 624.187Z" fill="#FFBB00"/>
<path d="M19.6493 447.703C18.1506 450.444 18.3488 454.717 18.6253 457.716C18.6511 458.013 18.6871 458.315 18.7204 458.609C20.4493 472.273 29.2257 486.185 38.5831 495.926C48.2344 505.974 60.5531 512.895 73.8553 517.225C76.9406 518.228 80.979 519.251 84.2376 518.46C86.5596 517.899 88.24 515.576 84.9552 514.928C71.1799 512.207 57.0858 505.94 47.0035 495.993C40.59 489.662 35.657 482.343 30.8626 474.801C25.9451 467.067 24.492 459.138 23.9241 450.18C23.7135 446.832 22.0875 443.255 19.6465 447.695L19.6493 447.703Z" fill="#FFBB00"/>
<path d="M51.523 437.929C48.4825 438.459 46.6346 441.681 45.5294 444.335C42.2927 452.098 42.2913 461.883 43.7095 470.038C45.599 480.914 51.3666 491.084 59.7339 498.288C62.2206 500.427 67.0592 501.219 64.6792 496.765C63.458 494.476 61.0659 492.932 59.3994 491.049C54.4081 485.422 51.3429 478.266 49.8115 470.903C48.2921 463.596 48.2236 455.883 50.6239 448.893C51.4109 446.596 52.4688 444.385 53.8237 442.285C55.4707 439.735 55.3646 437.261 51.523 437.929Z" fill="#FFBB00"/>
<path d="M-4.96925 449.385C-5.27399 453.087 -5.18349 456.82 -4.74624 460.5C-3.85776 467.899 -1.53836 475.112 1.93124 481.708C7.81802 492.881 16.8909 502.225 27.3938 509.236C33.0257 512.996 39.0967 516.106 45.4762 518.377C48.7313 519.538 52.0643 520.475 55.4518 521.17C56.7906 521.446 64.5617 523.631 63.2345 520.215C62.3999 518.072 58.7961 517.756 56.9205 517.093C49.4351 514.418 42.0116 511.497 34.9621 507.798C26.2568 503.226 17.1602 494.846 11.4525 486.844C4.56668 477.195 0.39989 465.584 -0.218385 453.729C-0.276811 452.66 -0.302528 451.588 -0.303011 450.514C-0.29828 449.021 -0.261651 447.43 -1.03748 446.152C-3.77151 441.616 -4.80124 447.37 -4.97393 449.395L-4.96925 449.385Z" fill="#FFBB00"/>
<path d="M-10.549 475.969C-10.9523 475.003 -11.4473 474.02 -12.3193 473.443C-13.1839 472.862 -14.5108 472.846 -15.1483 473.673C-15.6116 474.28 -15.5894 475.116 -15.5165 475.881C-14.8036 483.95 -12.0144 491.303 -7.83351 497.795C-0.603935 509.004 10.8042 517.663 23.0099 523.05C24.9506 523.91 26.9465 524.69 29.0431 525.032C29.897 525.173 30.967 525.14 31.395 524.392C32.0918 523.177 31.0902 522.367 29.8351 521.745C21.7215 517.753 13.6213 513.568 6.60607 507.862C0.264845 502.705 -5.20754 496.269 -7.24274 488.242C-8.28405 484.131 -8.91588 479.884 -10.549 475.969Z" fill="#FFBB00"/>
<path d="M20.9098 537.734C25.9479 538.946 30.9056 539.395 36.0511 539.936C46.6438 541.051 58.5439 537.748 67.7663 532.615C68.534 532.183 69.8765 531.009 69.9077 530.042C69.9504 528.765 68.3429 528.249 67.2717 528.462C66.0977 528.696 65.3014 529.53 64.2718 530.06C63.0637 530.681 61.6679 531.143 60.4029 531.658C57.5943 532.81 54.7129 533.835 51.7154 534.366C48.8057 534.882 45.9071 535.496 42.9705 535.826C37.1124 536.48 31.1619 535.541 25.4737 534.163C20.1704 532.88 14.4755 531.53 9.88584 528.301C8.8103 527.544 4.40703 523.947 3.5951 526.748C3.5322 526.967 3.49076 527.221 3.47356 527.517C3.32045 530.302 8.6661 532.839 10.6953 533.914C13.9115 535.61 17.3832 536.895 20.9126 537.742L20.9098 537.734Z" fill="#FFBB00"/>
<path d="M16.4173 394.51C15.1765 396.55 15.6288 399.381 18.4169 397.513C30.0743 389.681 44.463 384.119 58.6195 384.004C67.6261 383.93 76.2987 385.608 85.0232 387.539C93.9692 389.516 100.61 394.083 107.358 400.009C109.88 402.22 113.565 403.596 112.133 398.736C111.253 395.741 108.083 392.869 105.76 390.941C105.526 390.747 105.295 390.561 105.056 390.377C94.1537 381.955 78.1031 378.346 64.6059 378.103C50.676 377.844 37.082 381.677 24.6191 388.037C21.7259 389.51 18.1544 391.654 16.4126 394.52L16.4173 394.51Z" fill="#FFBB00"/>
<path d="M79.3323 400.008C70.291 393.669 59.0262 390.573 48.0105 391.406C44.7377 391.657 40.7624 394.523 45.5946 395.982C48.0746 396.735 50.8648 396.127 53.3662 396.275C60.8751 396.709 68.1051 399.591 74.4066 403.706C80.6539 407.79 86.165 413.188 89.4187 419.822C90.4868 421.997 91.3099 424.315 91.8366 426.752C92.4757 429.717 94.3013 431.388 96.5519 428.195C98.3288 425.673 97.3467 422.085 96.2437 419.429C93.0251 411.657 86.1058 404.747 79.3267 399.993L79.3323 400.008Z" fill="#FFBB00"/>
<path d="M100.566 362.183C88.4951 358.459 75.4781 358.293 63.094 360.779C56.4594 362.116 49.9658 364.218 43.8525 367.132C40.735 368.62 37.7108 370.312 34.8357 372.222C33.6956 372.98 26.6567 376.93 30.0189 378.401C32.1287 379.326 34.8875 376.992 36.6912 376.139C43.8705 372.724 51.1841 369.532 58.7769 367.156C68.1563 364.224 80.522 363.696 90.2151 365.299C101.916 367.235 113.073 372.485 121.906 380.41C122.702 381.127 123.482 381.867 124.241 382.623C125.3 383.677 126.402 384.825 127.85 385.187C132.99 386.446 129.644 381.662 128.333 380.115C125.93 377.288 123.221 374.712 120.297 372.429C114.431 367.836 107.685 364.381 100.568 362.19L100.566 362.183Z" fill="#FFBB00"/>
<path d="M58.891 409.419C58.2492 409.275 57.5634 409.241 56.9556 409.485C56.3479 409.729 55.8379 410.303 55.8183 410.958C55.8024 411.714 56.3903 412.33 56.9419 412.848C59.6562 415.346 62.7682 417.311 65.024 420.27C67.2396 423.166 68.8211 426.488 70.9507 429.451C71.5039 430.224 72.1626 430.984 73.0593 431.331C75.5418 432.295 76.7026 429.995 76.3015 427.963C75.828 425.6 74.268 423.021 72.3032 420.568C69.1721 416.658 64.0609 410.573 58.8938 409.426L58.891 409.419Z" fill="#FFBB00"/>
<path d="M67.7268 631.034C60.9993 629.772 54.3522 627.721 48.448 624.259C38.3475 618.324 32.2623 608.81 30.3829 597.367C29.4983 591.988 29.2652 586.526 28.6022 581.123C28.4617 579.949 28.2717 578.733 27.5683 577.785C26.0132 575.698 24.982 576.109 24.3046 577.445C23.3294 579.352 23.0712 583.155 23.0072 584.262C22.7593 588.07 22.8964 591.905 23.4279 595.678C24.4872 603.192 27.1261 610.507 31.4502 616.767C39.273 628.103 52.8684 635.613 66.6201 634.848C67.4547 634.801 68.2263 634.973 69.0238 634.735C69.8287 634.494 70.5426 633.758 70.4596 632.92C70.3415 631.737 68.9049 631.268 67.7324 631.049L67.7268 631.034Z" fill="#FFBB00"/>
<path d="M71.4628 601.84C75.4873 602.05 79.5452 601.71 83.4572 600.751C85.1352 600.338 87.7476 599.916 89.1394 598.85C90.3003 597.965 90.5125 596.411 88.8405 595.86C87.1125 595.295 85.1112 595.71 83.3672 595.97C75.6721 597.114 67.121 597.632 59.7509 594.717C50.7434 591.162 42.7755 584.388 38.3526 575.719C36.0139 571.147 34.411 566.24 32.7895 561.374C32.4897 560.48 32.1713 559.559 31.5302 558.87C30.8816 558.183 29.8094 557.8 28.9734 558.231C26.3935 559.561 30.7707 571.051 31.6136 573.148C34.9716 581.499 40.8211 589.013 48.3436 594.138C55.1331 598.761 63.2671 601.415 71.4628 601.84Z" fill="#FFBB00"/>
<path d="M123.131 596.023C123.533 595.089 123.939 594.102 123.835 593.092C123.731 592.083 122.927 591.071 121.907 591.102C120.847 591.14 120.157 592.19 119.619 593.099C114.352 602.089 106.489 609.722 96.5786 613.126C90.5037 615.208 83.9921 616.097 77.5888 615.566C74.0513 615.268 70.7416 614.416 67.3441 613.444C63.6048 612.378 60.4028 609.875 56.6477 608.721C55.6361 608.408 54.5206 608.16 53.5445 608.559C48.995 610.412 57.3027 614.536 58.6259 615.294C61.3778 616.866 64.2916 618.164 67.3012 619.17C73.1747 621.135 79.4299 621.978 85.6204 621.574C94.8958 620.965 102.365 617.322 110.247 612.776C112.91 611.236 115.038 609.333 116.821 607.15C119.443 603.946 121.338 600.144 123.139 596.02L123.131 596.023Z" fill="#FFBB00"/>
<path d="M46.1232 571.697C49.5016 573.69 53.2547 574.931 57.1208 575.515C63.8879 576.541 70.9094 575.921 77.5025 574.131C84.7538 572.164 90.8805 569.058 95.7716 563.191C98.4652 559.952 100.757 556.002 102.595 552.23C103.16 551.073 104.062 549.313 103.819 547.954C103.571 546.581 102.026 546.28 100.892 546.917C99.1087 547.916 98.1977 550.702 97.22 552.397C96.0211 554.481 94.8615 556.602 93.2379 558.393C90.0777 561.866 86.2557 564.777 82.129 567.008C77.328 569.603 70.9006 570.444 65.5001 570.544C59.7511 570.646 53.8157 569.633 48.7479 566.813C47.1651 565.93 45.7792 564.547 43.9922 564.098C41.5624 563.48 39.1773 565.172 40.7834 567.555C42.0267 569.4 44.2697 570.591 46.1307 571.694L46.1232 571.697Z" fill="#FFBB00"/>
<path d="M104.166 579.224C106.88 577.818 109.161 575.986 111.204 573.902C114.187 570.844 116.633 567.238 119.061 563.586C123.238 557.313 126.945 549.988 125.697 542.562C125.594 541.944 125.44 541.303 125.007 540.851C124.574 540.399 123.787 540.233 123.335 540.666C123.088 540.895 122.994 541.236 122.91 541.558C120.078 552.025 116.608 561.537 108.759 569.386C101.668 576.484 92.4823 580.733 82.6356 582.323C80.6831 582.618 78.9593 583.092 76.9809 583.157C75.1969 583.219 72.9224 583.199 71.5722 584.581C70.222 585.963 71.557 587.689 73.4819 587.754C84.8979 588.152 94.269 584.353 104.163 579.217L104.166 579.224Z" fill="#FFBB00"/>
<path d="M32.7547 422.782C31.4756 424.103 29.1978 423.71 27.6825 422.665C26.1672 421.62 25.0581 420.066 23.555 419.008C20.7018 417.005 16.5142 417.18 13.8378 419.416C11.6619 421.234 9.9589 424.41 7.13056 424.163C6.67501 420.182 6.67848 416.039 5.03198 412.384C3.38548 408.729 -0.608296 405.704 -4.46533 406.787C-5.59085 407.105 -6.73104 407.932 -6.80823 409.094C-6.87984 410.271 -5.78591 411.26 -4.62559 411.492C-1.32496 412.159 0.705246 409.586 2.20174 414.345C3.04583 417.038 2.62247 419.966 3.05807 422.752C3.48899 425.549 5.34472 428.554 8.16764 428.65C12.7557 428.795 15.1135 421.462 19.6684 422.019C22.3275 422.338 23.7685 425.192 25.7556 426.998C27.8212 428.877 30.8815 429.677 33.5337 428.814C40.9958 426.385 37.6637 417.556 33.4563 413.502C33.2575 413.312 33.0484 413.118 32.7804 413.039C32.0574 412.815 31.3293 413.581 31.2807 414.341C31.2395 415.097 31.6489 415.805 32.0461 416.458C33.2378 418.416 34.3482 421.138 32.7547 422.782Z" fill="#FFBB00"/>
<path d="M14.3122 552.339C15.0522 550.988 16.0098 549.719 16.3809 548.225C16.9689 545.875 14.9431 543.555 12.7209 545.066C11.1992 546.104 10.6074 548.421 10.2025 550.098C9.41331 553.393 8.64541 558.274 9.80456 561.582C10.2636 562.902 12.2946 566.925 14.2821 564.853C14.6938 564.426 14.7274 563.74 14.5478 563.168C14.3682 562.596 14.0221 562.103 13.7331 561.58C12.207 558.75 12.7686 555.165 14.3048 552.341L14.3122 552.339Z" fill="#FFBB00"/>
<path d="M119.683 520.765C120.866 521.329 122.492 521.804 123.315 520.789C123.716 520.29 123.752 519.586 123.654 518.958C123.025 514.812 117.216 513.59 114.107 511.632C109.974 509.034 106.122 505.998 102.613 502.605C95.4503 495.683 89.7254 487.271 86.0247 478.025C85.2813 476.172 84.4542 474.095 82.6284 473.268C80.81 472.439 79.9052 473.348 80.4214 475.278C83.2374 485.782 88.6092 495.554 95.7951 503.702C102.744 511.581 110.321 516.328 119.679 520.775L119.683 520.765Z" fill="#FFBB00"/>
<path d="M129.118 506.221C113.286 491.561 101.888 471.452 100.294 449.684C100.164 447.9 100.084 446.064 99.3335 444.443C98.5908 442.82 96.9778 441.445 95.1937 441.575C93.3912 446.561 94.675 450.317 95.543 455.447C96.2617 459.721 97.287 463.949 98.6021 468.086C101.228 476.369 104.992 484.278 109.724 491.562C114.448 498.848 120.149 505.506 126.653 511.258C128.155 512.589 139.185 521.466 143.826 522.528C145 522.797 145.765 522.562 145.869 521.586C146.18 518.632 140.933 516.177 138.994 514.634C135.61 511.943 132.283 509.172 129.113 506.231L129.118 506.221Z" fill="#FFBB00"/>
<path d="M133.169 411.996C127.478 422.134 124.405 433.688 123.308 445.219C122.134 457.59 123.302 470.117 126.729 480.777C128.324 485.73 130.25 490.635 132.542 495.31C133.872 498.027 135.293 500.828 137.192 503.195C138.276 504.546 143.17 508.658 141.487 503.833C137.535 492.499 131.173 481.972 128.749 470.213C125.593 454.917 128.869 437.015 135.193 422.891C137.224 418.357 142.648 411.064 142.227 405.945C141.583 398.038 134.247 410.068 133.161 411.999L133.169 411.996Z" fill="#FFBB00"/>
<path d="M140.532 478.854C141.564 486.727 147.689 485.283 146.731 477.629C145.954 471.442 146.057 465.148 146.963 458.971C148.641 447.538 153.078 436.506 159.803 427.107C161.55 424.665 163.45 422.336 165.494 420.14C166.912 418.622 170.864 416.174 171.543 414.318C172.823 410.831 170.948 410.944 168.513 412.16C166.028 413.404 162.956 415.787 162.077 416.652C145.928 432.631 137.586 456.295 140.532 478.854Z" fill="#FFBB00"/>
<path d="M179.098 456.809C178.236 456.782 177.371 457.25 176.617 457.719C169.204 462.355 163.204 469.224 159.611 477.196C157.27 482.383 155.953 488.031 155.717 493.719C155.607 496.3 154.854 506.902 158.493 507.495C160.699 507.855 160.638 504.588 160.67 503.213C160.872 494.879 161.879 486.44 165.142 478.77C167.818 472.494 171.977 466.858 177.193 462.455C178.113 461.677 182.822 457.856 179.652 456.9C179.471 456.849 179.288 456.815 179.109 456.814L179.098 456.809Z" fill="#FFBB00"/>
<path d="M164.629 666.676C173.9 672.102 184.247 673.836 194.961 673.678C199.334 673.612 205.124 673.026 209.036 670.994C209.842 670.574 210.281 670.129 210.428 669.724C210.766 668.78 209.531 668.031 207.754 668.132C199.623 668.612 191.568 669.363 183.526 667.662C176.327 666.141 169.464 663.054 163.325 659.032C156.878 654.801 152.916 650.06 149.38 643.309C144.99 634.935 142.624 625.634 141.161 616.286C140.987 615.158 140.682 613.84 139.638 613.394C138.663 612.975 137.487 613.593 136.931 614.499C134.557 618.343 136.122 625.293 137.083 629.349C138.28 634.424 140.265 639.282 142.527 643.969C147.182 653.625 155.466 661.312 164.621 666.679L164.629 666.676Z" fill="#FFBB00"/>
<path d="M144.399 552.201C147.413 546.056 151.832 540.681 156.745 535.922C157.594 535.093 158.54 533.905 157.987 532.859C157.599 532.117 156.588 531.898 155.784 532.139C154.979 532.38 154.441 532.948 153.71 533.365C141.811 540.299 134.613 554.067 134.334 567.833C134.181 575.433 136.011 583 139.267 589.846C140.903 593.291 142.91 596.564 145.214 599.607C145.885 600.49 148.194 603.522 150.053 604.575C151.361 605.314 152.444 605.088 152.591 602.494C152.663 601.316 152.14 600.191 151.61 599.136C149.182 594.256 146.359 589.574 144.135 584.601C139.396 574.014 139.237 562.729 144.384 552.207L144.399 552.201Z" fill="#FFBB00"/>
<path d="M164.539 618.026C165.472 617.925 166.165 617.018 166.321 616.091C166.485 615.16 166.234 614.214 165.997 613.305C164.665 608.348 163.3 603.37 162.731 598.264C161.65 588.594 164.562 578.549 170.115 570.619C177.048 560.726 189.144 552.815 200.681 549.588C205.463 548.245 201.929 544.852 198.325 545.448C190.029 546.809 182.649 551.33 176.413 556.812C170.12 562.35 164.126 569.576 160.919 577.396C157.46 585.821 156.736 595.313 158.529 604.129C158.98 606.339 161.657 618.344 164.549 618.031L164.539 618.026Z" fill="#FFBB00"/>
<path d="M209.617 533.33C210.623 533.057 211.61 532.595 212.273 531.793C212.69 531.288 213.046 530.37 212.776 529.738C212.459 529.004 211.566 528.895 210.876 528.76C199.36 526.406 187.142 528.106 176.885 533.958C171.502 537.025 166.746 541.179 162.927 546.058C160.969 548.553 159.257 551.247 157.824 554.075C157.133 555.441 152.475 563.462 157.297 562.496C158.335 562.287 159.119 561.466 159.795 560.651C162.301 557.618 163.589 553.762 166.118 550.815C168.415 548.133 170.704 545.59 173.498 543.396C178.55 539.421 184.474 536.569 190.685 534.965C193.661 534.194 196.635 533.85 199.666 533.613C202.976 533.348 206.355 534.225 209.613 533.34L209.617 533.33Z" fill="#FFBB00"/>
<path d="M224.699 585.27C226.451 586.149 228.749 587.967 230.783 587.821C232.078 587.729 233.198 586.62 232.652 585.341C232.112 584.077 230.384 583.103 229.279 582.451C225.661 580.316 221.579 578.287 217.544 577.067C210.234 574.863 203.403 575.651 196.272 578.008C189.793 580.147 183.592 583.511 178.508 588.086C175.6 590.707 173.154 593.811 171.436 597.333C170.485 599.282 169.274 601.516 169.252 603.74C169.234 606.61 172.15 606.706 173.837 604.857C175.082 603.488 175.466 601.572 176.308 599.971C178.979 594.822 183.371 590.702 188.231 587.625C192.791 584.728 198.616 581.888 204.054 581.408C208.73 580.99 213.522 581.314 218.07 582.47C220.413 583.061 222.551 584.197 224.702 585.277L224.699 585.27Z" fill="#FFBB00"/>
<path d="M228.449 567.088C229.157 567.088 229.919 566.573 229.909 565.861C229.868 563.038 227.126 561.446 224.398 560.556C223.118 560.139 221.853 559.879 220.854 559.715C215.754 558.884 210.47 559.136 205.421 560.178C198.251 561.655 191.371 564.592 185.399 568.842C183.829 569.957 183.662 572.133 185.556 572.551C187.441 572.963 189.328 571.696 190.853 570.759C192.537 569.721 194.237 569.163 196.034 568.338C205.216 564.099 217.033 561.67 226.46 566.416C227.09 566.735 227.742 567.088 228.449 567.088Z" fill="#FFBB00"/>
<path d="M102.266 529.285C102.595 527.312 102.904 522.458 99.5969 522.961C98.3856 523.14 97.4318 524.375 97.5564 525.598C97.6071 526.099 97.8158 526.566 97.904 527.053C98.1675 528.489 97.4311 529.94 96.428 530.997C94.4611 533.078 91.5817 534.017 88.7775 534.587C85.9761 535.165 83.0789 535.463 80.4543 536.606C77.6905 537.808 74.5842 540.81 73.5357 543.707C72.2021 547.393 73.9145 551.406 70.3186 554.284C68.5797 555.675 65.8581 555.941 64.1518 554.499C62.1224 552.786 62.2005 549.526 60.4294 547.546C60.1532 547.24 59.8069 546.952 59.3958 546.901C58.312 546.76 58.3067 547.18 58.1128 548.258C57.3513 552.539 59.7272 557.234 63.7077 558.969C67.6882 560.704 72.8869 559.128 75.0485 555.355C77.1867 551.633 76.3792 546.642 78.903 543.176C82.9565 537.623 92.0657 539.853 97.8148 536.078C100.143 534.552 101.788 532.02 102.245 529.275L102.266 529.285Z" fill="#FFBB00"/>
<path d="M64.0101 475.875C64.7071 476.645 66.0683 476.913 66.758 476.135C67.1417 475.702 67.221 475.093 67.2713 474.52C68.0093 466.685 69.1129 459.463 75.0412 453.703C77.4851 451.324 80.4985 449.397 82.119 446.389C83.4267 443.957 82.2513 443.799 80.4628 444.442C78.2704 445.235 75.1486 447.237 74.5695 447.717C72.0044 449.886 69.2286 452.38 67.2916 455.157C64.1525 459.645 59.4722 470.845 64.0101 475.875Z" fill="#FFBB00"/>
<path d="M184.698 603.499C183.315 604.587 183.538 606.507 183.941 607.975C185.227 612.626 184.884 617.663 183.497 622.255C182.948 624.071 182.339 626.344 183.764 627.602C185.516 628.208 186.969 626.166 187.596 624.423C189.444 619.284 190.191 613.755 189.769 608.313C189.668 606.97 189.466 605.562 188.689 604.463C187.843 603.271 185.987 602.498 184.701 603.507L184.698 603.499Z" fill="#FFBB00"/>
<path d="M196.261 623.453C195.465 624.151 196.041 625.692 197.092 625.836C198.143 625.981 199.114 625.294 199.918 624.593C204.278 620.774 207.22 615.371 208.071 609.641C208.923 603.911 207.679 597.89 204.62 592.965C203.993 591.946 203.242 590.94 202.153 590.443C201.071 589.944 199.703 589.909 199.132 590.958C198.281 592.512 199.242 594.377 200.088 595.936C201.508 598.55 202.627 601.363 203.118 604.298C204.288 611.285 201.605 618.798 196.264 623.461L196.261 623.453Z" fill="#FFBB00"/>
<path d="M227.172 603.623C227.507 601.418 226.545 597.678 223.601 599.996C223.569 600.025 223.535 600.047 223.51 600.073C221.489 601.825 220.827 607.697 219.599 610.091C217.653 613.894 215.21 617.44 212.335 620.602C211.973 621.002 211.613 621.111 211.434 621.612C211.247 622.117 211.377 622.784 211.853 623.032C212.064 623.141 212.31 623.16 212.552 623.146C214.271 623.092 215.776 622.01 217.064 620.873C221.905 616.584 226.184 610.128 227.172 603.623Z" fill="#FFBB00"/>
<path d="M190.414 297.999C188.804 295.949 187.359 293.745 185.451 291.969C184.667 291.239 183.453 290.568 182.6 291.227C178.028 294.776 188.118 305.726 190.211 307.586C209.641 324.831 245.373 339.966 268.025 319.974C268.655 319.423 269.363 319.082 269.838 318.393C270.324 317.709 270.426 316.682 269.844 316.081C269.02 315.221 267.596 315.745 266.542 316.3C252.807 323.476 238.501 326.954 223.854 320.621C214.238 316.466 204.525 311.682 196.656 304.625C194.411 302.608 192.311 300.409 190.408 297.984L190.414 297.999Z" fill="#FFBB00"/>
<path d="M278.13 284.392C274.647 289.784 270.081 294.515 264.723 298.059C261.764 300.017 258.63 301.392 255.363 302.732C251.763 304.204 247.703 304.221 244.033 305.643C243.051 306.027 242.015 306.516 241.497 307.434C239.07 311.707 248.146 309.808 249.656 309.585C252.797 309.119 255.887 308.331 258.87 307.26C264.702 305.166 270.135 301.961 274.75 297.817C283.524 289.911 288.987 278.845 290.367 267.182C290.448 266.487 290.629 265.601 290.031 265.074C289.509 264.613 288.534 264.67 287.923 264.907C286.957 265.285 286.204 266.078 285.626 266.95C283.764 269.767 283.53 273.247 282.245 276.309C281.059 279.113 279.797 281.826 278.136 284.407L278.13 284.392Z" fill="#FFBB00"/>
<path d="M369.28 259.214C369.242 260.277 369.868 261.449 370.91 261.639C372.037 261.849 373.012 260.922 373.788 260.079C380.202 253.132 387.352 246.719 395.654 242.203C402.348 238.561 408.278 236.823 415.987 236.901C423.326 236.972 430.743 238.232 437.572 240.974C445.192 244.034 451.474 249.145 457.958 254.069C459.373 255.143 460.821 255.207 461.064 254.239C461.173 253.823 461.048 253.214 460.612 252.413C458.501 248.54 454.015 244.838 450.417 242.346C441.602 236.247 432.044 231.926 421.319 231.278C410.733 230.639 399.564 232.408 390.327 237.844C385.841 240.483 381.481 243.415 377.667 246.962C374.618 249.797 369.445 254.704 369.28 259.214Z" fill="#FFBB00"/>
<path d="M278.795 341.951C279.574 355.97 277.005 371.18 269.873 383.415C265.331 391.197 259.461 397.796 253.345 404.308C248.436 409.533 242.699 412.682 236.449 415.937C234.445 416.984 232.638 420.199 236.041 420.913C237.298 421.176 238.575 420.691 239.746 420.177C253.362 414.256 264.131 404.114 271.886 391.586C279.224 379.743 282.872 366.099 283.775 352.134C283.98 348.895 283.968 344.732 282.394 341.775C281.275 339.67 278.605 338.613 278.798 341.959L278.795 341.951Z" fill="#FFBB00"/>
<path d="M225.112 398.824C232.054 397.398 239.066 395.955 245.531 393.046C255.601 388.517 264.017 380.405 268.921 370.511C270.38 367.571 269.945 362.688 266.217 366.1C264.303 367.846 263.397 370.554 261.991 372.63C257.782 378.864 251.611 383.607 244.852 386.916C238.093 390.225 230.753 392.183 223.358 393.581C221.448 393.945 217.502 394.516 218.367 397.218C219.198 399.831 223.17 399.217 225.101 398.819L225.112 398.824Z" fill="#FFBB00"/>
<path d="M289.294 361.688C287.425 363.025 288.017 366.597 287.835 368.574C287.103 376.492 286.112 384.405 284.274 392.148C282.009 401.713 276.14 412.607 269.81 420.119C262.168 429.187 251.959 436.103 240.633 439.643C239.611 439.965 238.578 440.257 237.534 440.52C236.087 440.89 234.533 441.248 233.49 442.311C229.777 446.085 235.608 445.654 237.604 445.317C241.268 444.699 244.86 443.681 248.321 442.337C255.266 439.64 261.685 435.606 267.206 430.603C276.569 422.129 283.365 411.025 287.555 399.105C289.797 392.719 291.307 386.061 291.925 379.319C292.242 375.876 292.331 372.417 292.157 368.962C292.09 367.598 292.289 359.529 289.301 361.66L289.294 361.688Z" fill="#FFBB00"/>
<path d="M302.452 393.61C302.375 392.743 302.078 391.721 301.241 391.488C299.892 391.114 299.35 392.288 299.068 393.655C297.216 402.503 295.167 411.39 291.38 419.598C289.568 423.53 287.26 427.256 284.357 430.48C282.87 432.135 281.236 433.648 279.473 434.997C277.85 436.243 275.418 437.125 274.575 439.111C273.092 442.58 276.521 442.245 278.464 441.263C280.99 439.996 283.002 437.829 285.018 435.9C294.767 426.565 299.848 413.017 302.029 399.938C302.381 397.846 302.64 395.712 302.449 393.602L302.452 393.61Z" fill="#FFBB00"/>
<path d="M310.424 417.845C310.649 417.854 310.903 417.827 311.197 417.769C313.936 417.231 315.062 411.416 315.594 409.189C316.438 405.652 316.819 401.973 316.765 398.337C316.689 393.158 315.891 388.24 315.14 383.125C313.591 372.59 307.436 361.884 300.176 354.223C299.572 353.588 298.093 352.572 297.151 352.788C295.901 353.068 295.804 354.749 296.277 355.74C296.8 356.823 297.803 357.385 298.569 358.25C299.47 359.269 300.264 360.506 301.074 361.601C302.887 364.035 304.594 366.576 305.85 369.345C307.068 372.035 308.391 374.686 309.435 377.458C311.522 382.977 312.09 388.969 312.17 394.82C312.239 400.274 312.352 406.121 310.359 411.374C309.89 412.606 307.495 417.762 310.419 417.855L310.424 417.845Z" fill="#FFBB00"/>
<path d="M317.095 277.88C314.995 274.812 311.326 275.876 312.669 279.721C313.51 282.134 315.115 284.603 316.374 286.834C319.057 291.576 322.192 296.064 325.713 300.22C332.663 308.422 341.132 315.35 350.604 320.445C360.212 325.609 370.921 328.93 381.822 329.204C388.577 329.375 395.388 328.33 401.742 325.991C404.904 324.827 407.953 323.338 410.792 321.537C411.866 320.854 413.921 319.899 413.9 318.381C413.88 316.889 412.071 316.039 410.765 316.126C409.336 316.225 408.074 317.046 406.845 317.769C398.647 322.587 388.821 324.255 379.343 323.457C358.744 321.726 339.379 310.405 327.712 293.388C324.172 288.225 320.63 283.054 317.09 277.89L317.095 277.88Z" fill="#FFBB00"/>
<path d="M377.767 299.998C380.173 298.818 381.938 297.289 380.518 295.68C379.625 294.659 377.952 295.633 377 295.912C374.079 296.765 371.228 297.506 368.179 297.784C362.181 298.337 356.052 297.49 350.453 295.235C344.632 292.884 339.441 289.027 335.434 284.209C333.512 281.893 332.005 279.319 330.587 276.687C327.997 271.876 325.023 275.186 326.448 279.273C332.506 296.587 353.929 304.632 370.89 302.26C371.831 302.13 375.165 301.268 377.76 300.001L377.767 299.998Z" fill="#FFBB00"/>
<path d="M368.443 349.973C378.171 353.677 388.7 355.079 399.101 354.697C400.723 354.636 402.431 354.51 403.797 353.625C405.54 352.496 406.107 349.975 404.423 349.163C404.215 349.062 403.967 348.993 403.688 348.952C402.507 348.78 400.766 349.413 399.56 349.539C396.571 349.864 393.548 349.962 390.54 349.849C384.516 349.628 378.523 348.551 372.788 346.705C364.853 344.172 357.401 338.143 351.013 332.927C349.176 331.431 346.044 327.223 343.267 327.911C340.74 328.54 341.985 330.64 343.224 332.154C349.793 340.226 358.708 346.271 368.435 349.976L368.443 349.973Z" fill="#FFBB00"/>
<path d="M322.06 322.475C325.478 335.321 332.443 347.42 341.584 357.037C351.045 366.986 364.459 373.029 378.006 375.026C379.827 375.291 381.874 375.43 383.324 374.292C388.191 370.463 378.977 369.319 377.218 368.945C372.085 367.845 366.98 366.522 362.151 364.431C351.699 359.906 342.957 351.905 336.549 342.486C332.893 337.102 329.958 331.252 327.621 325.179C326.393 321.981 325.332 318.73 324.398 315.431C323.944 313.828 323.969 308.534 321.45 308.794C318.399 309.115 321.522 320.511 322.042 322.473L322.06 322.475Z" fill="#FFBB00"/>
<path d="M379.58 308.781C379.58 308.781 379.513 308.807 379.473 308.813C378.843 308.997 378.196 309.205 377.743 309.681C375.317 312.223 381.51 312.168 382.777 311.908C384.55 311.544 386.481 311.079 388.169 310.44C393.029 308.599 397.628 306.079 401.81 302.992C403.915 301.439 405.81 299.691 407.749 297.944C409.33 296.518 411.82 294.855 411.614 292.409C411.161 287.158 404.254 293.974 402.867 295.302C396.335 301.568 388.271 306.242 379.583 308.789L379.58 308.781Z" fill="#FFBB00"/>
<path d="M361.142 273.25C359.141 272.958 343.023 273.481 346.458 278.616C346.917 279.297 347.907 279.277 348.716 279.162C352.103 278.689 355.461 277.938 358.877 277.864C362.292 277.789 365.858 278.46 368.573 280.548C369.638 281.369 370.57 282.402 371.809 282.936C373.68 283.746 375.443 282.968 375.261 280.974C375.127 279.566 372.687 278.304 371.68 277.572C368.585 275.311 364.947 273.806 361.15 273.247L361.142 273.25Z" fill="#FFBB00"/>
<path d="M219.882 365.654C220.251 364.612 221.504 361.008 221.362 358.871C221.263 357.373 220.477 356.593 218.223 357.904C217.201 358.499 216.553 359.55 215.963 360.572C213.231 365.283 210.874 370.22 207.953 374.814C201.732 384.604 192.394 390.956 180.78 392.447C173.99 393.322 167.077 392.589 160.39 391.115C159.229 390.858 157.713 390.726 157.147 391.764C156.746 392.493 157.116 393.463 157.76 393.998C158.403 394.533 159.173 394.68 159.924 395.047C172.272 401.157 187.723 399.578 199.365 392.23C205.793 388.175 211.097 382.478 215.021 375.983C216.996 372.714 218.623 369.243 219.889 365.651L219.882 365.654Z" fill="#FFBB00"/>
<path d="M222.013 338.968C221.15 339.35 220.491 340.073 219.867 340.775C216.46 344.614 213.061 348.499 209.117 351.788C201.644 358.023 191.654 361.124 181.976 360.861C169.903 360.53 156.636 354.79 147.587 346.945C143.83 343.687 142.949 348.516 145.424 351.196C151.133 357.374 158.972 361.042 166.978 363.216C175.07 365.418 184.401 366.441 192.698 364.808C201.629 363.048 209.953 358.43 216.322 352.071C217.917 350.478 226.459 341.628 224.607 339.388C224.003 338.659 222.868 338.589 222.005 338.971L222.013 338.968Z" fill="#FFBB00"/>
<path d="M165.432 380.385C168.596 380.643 171.783 380.595 174.936 380.227C176.455 380.051 185.716 379.516 182.256 376.027C181.514 375.273 180.39 375.07 179.335 374.961C175.43 374.545 171.498 375.588 167.643 375.102C164.138 374.664 160.757 374.145 157.385 373.036C151.285 371.01 145.644 367.637 140.874 363.334C138.598 361.278 136.666 358.982 134.792 356.589C132.748 353.969 131.62 350.674 129.086 348.433C128.309 347.743 127.371 347.173 126.342 347.063C125.692 346.991 124.73 347.197 124.349 347.774C123.908 348.441 124.313 349.253 124.571 349.898C128.95 360.799 137.105 370.06 147.635 375.408C153.164 378.209 159.247 379.891 165.424 380.388L165.432 380.385Z" fill="#FFBB00"/>
<path d="M170.876 322.855C167.953 319.182 165.583 315.005 164.037 310.571C163.243 308.285 163.008 305.876 162.73 303.491C162.497 301.541 162.754 298.624 161.503 297.012C160.711 295.986 159.171 295.65 158.407 296.822C157.652 297.973 157.783 299.944 157.854 301.23C158.065 305.421 158.623 309.951 159.834 313.99C162.021 321.304 166.436 326.575 172.339 331.222C177.702 335.449 183.915 338.779 190.537 340.49C194.329 341.469 198.265 341.805 202.158 341.297C204.31 341.013 206.839 340.801 208.703 339.585C211.11 338.021 209.584 335.532 207.104 335.145C205.278 334.865 203.462 335.594 201.665 335.78C195.898 336.383 190.032 334.986 184.789 332.632C179.862 330.415 174.277 327.124 170.883 322.852L170.876 322.855Z" fill="#FFBB00"/>
<path d="M165.798 340.476C157.203 335.147 148.667 326.625 147.428 316.145C147.345 315.443 147.28 314.7 146.891 314.113C146.501 313.525 145.644 313.172 145.06 313.569C142.732 315.163 142.908 318.327 143.669 321.094C144.026 322.393 144.509 323.593 144.92 324.513C147.032 329.23 150.161 333.499 153.812 337.138C159 342.308 165.236 346.43 172.078 349.073C173.871 349.767 175.784 348.703 175.085 346.902C174.387 345.1 172.294 344.22 170.675 343.469C168.879 342.632 167.478 341.527 165.801 340.483L165.798 340.476Z" fill="#FFBB00"/>
<path d="M266.857 351.617C268.095 349.408 265.717 347.015 264.383 345.382C261.149 341.426 256.764 338.606 251.578 338.14C250.273 338.022 248.897 338.059 247.731 338.657C247.374 338.841 247.029 339.081 246.84 339.441C246.428 340.234 247.003 341.247 247.791 341.668C248.587 342.087 249.524 342.086 250.416 342.171C255.465 342.612 260.165 345.91 262.293 350.51C263.259 352.595 265.286 354.437 266.857 351.617Z" fill="#FFBB00"/>
<path d="M249.859 355.303C245.473 353.533 240.561 353.296 235.899 353.615C235.591 353.636 234.572 353.667 233.282 353.774C231.101 353.958 228.047 354.911 229.527 357.708C231.087 360.653 236.658 358.888 239.116 359.01C241.598 359.131 244.084 359.395 246.509 359.955C248.832 360.494 250.648 361.818 252.925 362.416C254.581 362.855 256.709 362.392 256.9 361.145C256.968 360.668 256.755 360.074 256.123 359.364C254.54 357.612 252.05 356.172 249.867 355.3L249.859 355.303Z" fill="#FFBB00"/>
<path d="M424.062 435.375C422.15 432.902 418.149 431.387 415.288 430.436C415.004 430.338 414.716 430.25 414.43 430.169C401.207 426.304 384.948 428.798 372.287 433.485C359.221 438.323 347.96 446.851 338.675 457.316C336.521 459.74 333.971 463.045 333.394 466.337C332.986 468.688 334.438 471.163 336.348 468.404C344.344 456.86 355.717 446.442 368.857 441.167C377.219 437.813 385.903 436.214 394.734 434.825C403.791 433.402 411.635 435.236 420.081 438.294C423.235 439.434 427.166 439.372 424.067 435.365L424.062 435.375Z" fill="#FFBB00"/>
<path d="M415.392 468.875C417.069 471.402 419.379 472.295 420.308 468.505C421.039 465.513 418.815 462.525 416.824 460.457C410.996 454.392 402.026 450.481 393.983 448.526C383.251 445.921 371.63 447.142 361.686 451.939C358.733 453.366 356.068 457.481 361.109 457.081C363.692 456.875 366.068 455.297 368.456 454.524C375.606 452.194 383.396 452.242 390.755 453.78C398.065 455.302 405.166 458.317 410.612 463.314C412.402 464.955 414.011 466.8 415.394 468.883L415.392 468.875Z" fill="#FFBB00"/>
<path d="M342.421 438.868C341.638 439.987 336.523 446.236 340.191 446.382C342.494 446.477 344.212 443.295 345.577 441.839C351.014 436.042 356.663 430.403 362.864 425.419C370.529 419.266 381.849 414.271 391.459 412.232C403.059 409.765 415.366 410.588 426.482 414.746C427.484 415.122 428.478 415.526 429.466 415.958C430.832 416.556 432.283 417.224 433.762 417.03C439.007 416.332 434.149 413.092 432.356 412.126C429.082 410.366 425.626 408.963 422.074 407.895C414.933 405.756 407.39 405.002 399.967 405.551C387.371 406.489 375.183 411.076 364.566 417.905C358.876 421.565 353.597 425.889 348.966 430.832C346.6 433.352 344.407 436.038 342.429 438.865L342.421 438.868Z" fill="#FFBB00"/>
<path d="M349.416 413.115C348.947 413.844 348.55 414.836 349.065 415.53C349.901 416.649 351.044 416.06 352.114 415.158C359.009 409.318 366.087 403.555 374.117 399.405C377.966 397.413 382.071 395.897 386.346 395.135C388.535 394.743 390.757 394.553 392.981 394.574C395.033 394.592 397.484 395.381 399.376 394.333C402.681 392.502 399.763 390.669 397.629 390.247C394.858 389.697 391.942 390.173 389.165 390.451C375.736 391.829 363.402 399.402 353.655 408.378C352.094 409.813 350.582 411.332 349.426 413.119L349.416 413.115Z" fill="#FFBB00"/>
<path d="M328.512 448.581C329.671 449.129 330.783 447.861 331.015 446.794C331.266 445.618 330.819 444.558 330.748 443.408C330.659 442.052 330.793 440.587 330.828 439.219C330.896 436.185 331.103 433.134 331.813 430.175C332.504 427.301 333.09 424.397 333.969 421.572C335.708 415.936 338.942 410.859 342.481 406.187C345.774 401.838 349.283 397.152 354.082 394.235C355.207 393.55 360.264 390.954 358.014 389.084C357.842 388.944 357.627 388.802 357.355 388.666C354.867 387.413 350.398 391.307 348.612 392.732C345.77 395.004 343.213 397.673 341.015 400.573C337.896 404.704 335.498 409.077 332.95 413.574C327.701 422.839 325.981 435.073 327.005 445.573C327.092 446.444 327.635 448.151 328.507 448.567L328.512 448.581Z" fill="#FFBB00"/>
<path d="M319.389 355.731C318.634 355.877 317.866 356.513 317.971 357.275C318.074 358.029 318.894 358.422 319.624 358.643C323.995 359.985 329.121 359.971 332.364 363.2C332.633 363.465 332.889 363.762 333.013 364.116C333.315 364.992 332.715 365.966 331.927 366.457C331.138 366.947 330.192 367.105 329.31 367.391C326.026 368.456 322.474 372.135 324.165 375.773C324.798 377.148 325.953 378.208 327.189 379.076C328.111 379.72 329.104 380.278 329.915 381.058C330.726 381.837 331.36 382.896 331.304 384.024C331.261 385.004 330.704 385.885 330.131 386.679C328.872 388.419 327.399 390.043 326.46 391.979C325.524 393.922 325.213 396.331 326.328 398.173C326.854 399.033 328.033 399.999 329.079 399.378C330.264 398.672 329.497 398.148 329.411 397.209C329.169 394.393 330.396 391.702 332.042 389.399C333.767 386.991 336.188 384.39 335.419 381.533C334.656 378.69 331.202 377.568 329.465 375.2C329.123 374.74 328.849 374.211 328.788 373.638C328.614 371.939 330.337 370.664 331.954 370.111C333.571 369.558 335.42 369.26 336.515 367.947C337.605 366.645 337.572 364.663 336.811 363.149C336.049 361.635 334.683 360.509 333.255 359.585C329.632 357.232 325.354 355.889 321.032 355.748C320.263 355.72 320.126 355.583 319.371 355.729L319.389 355.731Z" fill="#FFBB00"/>
<path d="M299.408 289.301C298.401 290.257 297.961 291.657 297.6 292.994C294.387 304.975 294.445 317.814 297.782 329.761C299.171 334.756 301.311 339.846 305.452 342.97C305.878 343.288 306.341 343.592 306.862 343.687C308.812 344.024 308.699 342.353 309.047 340.408C301.163 325.898 299.138 308.314 303.52 292.393C303.547 291.232 303.135 290.151 303.164 288.998C302.165 288.033 300.415 288.346 299.408 289.301Z" fill="#FFBB00"/>
<path d="M285.426 326.325C285.644 325.997 285.688 325.588 285.711 325.196C285.909 321.662 285.072 318.054 285.871 314.602C286.283 312.829 288.452 309.488 287.813 307.664C286.109 302.829 282.374 310.215 281.847 311.793C280.526 315.695 280.385 320.862 281.996 324.718C282.299 325.439 282.682 326.166 283.333 326.587C283.993 327.006 284.994 326.972 285.426 326.325Z" fill="#FFBB00"/>
<path d="M437.563 495.467C437.163 493.119 434.965 491.273 434.085 494.508C430.421 508.064 423.195 521.689 412.58 531.058C405.826 537.024 398.174 541.433 390.323 545.696C384.023 549.114 377.587 550.3 370.631 551.415C368.406 551.777 365.67 554.265 368.676 556.015C369.786 556.657 371.153 556.598 372.422 556.482C387.212 555.142 400.614 548.9 411.92 539.444C422.611 530.507 430.364 518.705 435.607 505.726C436.819 502.717 438.117 498.754 437.557 495.452L437.563 495.467Z" fill="#FFBB00"/>
<path d="M365.24 526.097C363.311 525.837 359.385 525.139 359.355 527.979C359.329 530.716 363.287 531.386 365.248 531.616C372.291 532.446 379.397 533.285 386.453 532.551C397.44 531.412 407.982 526.367 415.745 518.515C418.054 516.186 419.177 511.412 414.569 513.474C412.205 514.536 410.49 516.813 408.506 518.347C402.551 522.941 395.197 525.5 387.745 526.519C380.293 527.539 372.705 527.075 365.245 526.086L365.24 526.097Z" fill="#FFBB00"/>
<path d="M438.263 524.382C438.63 523.06 441.349 515.464 437.844 516.552C435.645 517.237 435.088 520.812 434.294 522.634C431.109 529.918 427.68 537.122 423.504 543.898C418.343 552.26 409.347 560.76 400.981 565.904C390.883 572.114 379.007 575.459 367.139 575.265C366.067 575.248 364.991 575.198 363.922 575.12C362.433 575.011 360.846 574.871 359.517 575.555C354.803 577.972 360.472 579.391 362.482 579.706C366.153 580.269 369.88 580.437 373.592 580.243C381.037 579.866 388.397 578.054 395.207 575.041C406.76 569.942 416.704 561.54 424.424 551.54C428.56 546.185 432.088 540.342 434.789 534.134C436.171 530.967 437.341 527.709 438.26 524.374L438.263 524.382Z" fill="#FFBB00"/>
<path d="M305.598 530.168C306.818 532.065 310.19 533.584 310.594 530.126C310.741 528.852 310.139 527.628 309.522 526.503C302.389 513.477 291.315 503.68 278.131 497.09C265.67 490.861 251.75 488.459 237.759 488.835C234.518 488.921 230.369 489.312 227.562 491.153C225.57 492.459 224.756 495.209 228.069 494.722C241.961 492.669 257.344 493.852 270.168 499.843C278.333 503.654 285.433 508.902 292.473 514.403C298.126 518.811 301.774 524.241 305.583 530.174L305.598 530.168Z" fill="#FFBB00"/>
<path d="M288.598 549.867C291.121 548.796 290.151 544.897 289.583 543.013C287.534 536.227 285.46 529.374 281.978 523.2C276.553 513.584 267.713 505.935 257.412 501.95C254.353 500.766 249.531 501.639 253.258 505.045C255.172 506.793 257.949 507.451 260.148 508.659C266.737 512.291 272.025 518.003 275.933 524.427C279.841 530.851 282.448 537.99 284.521 545.227C285.058 547.098 285.977 550.973 288.598 549.867Z" fill="#FFBB00"/>
<path d="M332.145 530.731C336.244 534.084 335.285 528.322 334.766 526.36C333.816 522.769 332.482 519.287 330.829 515.959C327.511 509.289 322.907 503.262 317.434 498.215C308.144 489.66 296.47 483.895 284.221 480.809C277.653 479.154 270.891 478.254 264.123 478.251C260.669 478.246 257.211 478.481 253.787 478.967C252.435 479.157 244.377 479.695 246.778 482.472C248.28 484.212 251.782 483.296 253.77 483.303C261.719 483.317 269.694 483.585 277.572 484.708C287.305 486.1 298.681 490.953 306.739 496.577C316.466 503.358 324.278 512.909 328.83 523.864C329.242 524.853 329.627 525.859 329.986 526.867C330.486 528.274 330.982 529.785 332.138 530.734L332.145 530.731Z" fill="#FFBB00"/>
<path d="M327.012 486.028C325.519 483.628 323.183 481.824 321.073 479.987C310.893 471.125 296.942 467.294 283.721 466.309C281.601 466.155 279.461 466.085 277.37 466.466C276.517 466.623 275.525 467.002 275.369 467.861C275.115 469.234 276.336 469.673 277.723 469.828C286.704 470.871 295.737 472.099 304.258 475.129C308.337 476.58 312.255 478.534 315.733 481.138C317.509 482.47 319.174 483.961 320.68 485.597C322.071 487.106 323.172 489.439 325.227 490.103C328.823 491.266 328.164 487.881 327.022 486.032L327.012 486.028Z" fill="#FFBB00"/>
<path d="M294.343 456.983C295.609 457.337 300.96 459.25 300.793 456.338C300.777 456.113 300.733 455.857 300.652 455.572C299.867 452.9 293.974 452.297 291.703 451.969C288.1 451.448 284.41 451.404 280.793 451.783C275.643 452.326 270.814 453.567 265.787 454.78C255.437 457.283 245.33 464.382 238.36 472.304C237.779 472.964 236.906 474.526 237.199 475.448C237.586 476.667 239.279 476.614 240.212 476.053C241.243 475.437 241.711 474.385 242.504 473.543C243.439 472.554 244.594 471.654 245.618 470.743C247.877 468.715 250.251 466.788 252.896 465.289C255.461 463.828 257.993 462.277 260.647 460.987C265.949 458.41 271.867 457.299 277.691 456.692C283.12 456.121 288.934 455.483 294.341 457L294.343 456.983Z" fill="#FFBB00"/>
<path d="M228.466 526.767C229.299 527.103 230.253 526.44 230.6 525.612C230.946 524.783 230.863 523.852 230.858 522.95C230.839 517.878 233.7 512.897 238.089 510.363C240.079 509.21 241.726 507.027 238.781 505.715C236.471 504.686 234.299 507.27 232.796 508.743C229.147 512.322 226.74 516.946 226.742 522.152C226.746 523.463 226.906 524.827 227.602 525.939C227.814 526.277 228.096 526.598 228.468 526.749L228.466 526.767Z" fill="#FFBB00"/>
<path d="M243.579 536.379C243.625 536.685 243.755 537.694 243.974 538.967C244.355 541.126 245.584 544.075 248.231 542.354C251.021 540.536 248.759 535.142 248.661 532.69C248.56 530.205 248.589 527.706 248.931 525.243C249.251 522.882 250.412 520.948 250.799 518.63C251.087 516.937 250.432 514.864 249.176 514.788C248.69 514.765 248.116 515.03 247.471 515.723C245.868 517.455 244.663 520.07 243.988 522.325C242.627 526.848 242.835 531.764 243.571 536.381L243.579 536.379Z" fill="#FFBB00"/>
<path d="M199.64 458.59C201.269 445.974 199.16 434.395 193.595 422.991C192.827 421.411 191.901 419.754 190.324 418.979C188.748 418.205 186.387 418.865 186.069 420.594C185.928 421.38 186.224 422.173 186.511 422.918C188.143 427.081 191.252 430.931 192.114 435.339C193.425 442.043 193.848 448.925 193.402 455.739C192.562 468.641 188.503 481.526 181.714 492.329C180.758 493.854 178.274 497.722 178.926 499.584C180.334 503.626 186.774 495.084 187.549 493.644C193.461 482.708 198.053 470.928 199.643 458.598L199.64 458.59Z" fill="#FFBB00"/>
<path d="M215.306 480.999C216.619 477.807 216.993 474.267 217.945 470.928C220.16 463.146 220.664 454.913 219.728 446.885C218.557 436.882 215.187 427.197 210.438 418.318C208.878 415.398 207.141 412.527 204.83 410.151C204.222 409.526 203.546 408.926 202.717 408.648C201.889 408.369 200.876 408.509 200.316 409.178C199.727 409.884 199.819 410.949 200.234 411.766C200.65 412.582 201.344 413.209 201.95 413.895C204.788 417.087 206.888 421.774 208.391 425.73C210.717 431.841 212.451 438.174 213.571 444.616C214.312 448.882 214.778 453.233 214.475 457.557C214.176 461.819 213.132 465.985 211.955 470.089C209.444 478.86 206.268 487.469 202.143 495.615C200.056 499.727 197.728 503.716 195.125 507.518C193.615 509.727 191.402 511.423 190.151 513.825C187.78 518.384 193.437 516.254 195.382 514.411C201.716 508.414 205.996 500.227 209.877 492.454C211.763 488.672 213.705 484.904 215.313 480.997L215.306 480.999Z" fill="#FFBB00"/>
<path d="M351.547 479.7C352.267 478.707 353.079 477.756 353.559 476.622C354.039 475.488 354.134 474.098 353.433 473.089C350.987 469.554 344.864 481.455 344.55 482.552C343.292 486.875 342.571 492.292 343.634 496.735C344.464 500.21 346.005 503.606 348.577 506.088C351.149 508.57 354.854 510.024 358.362 509.353C363.564 508.356 364.465 504.951 364.062 500.747C363.632 496.263 363.822 492.527 366.138 488.483C368.656 484.09 372.559 480.689 376.477 477.487C377.41 476.721 378.411 475.341 377.562 474.482C377.219 474.133 376.688 474.059 376.193 474.056C374.244 474.043 372.384 474.857 370.717 475.872C363.742 480.13 359.42 488.41 359.929 496.572C360.048 498.488 360.385 500.552 359.437 502.236C358.715 503.52 357.254 504.355 355.778 504.327C344.343 504.107 347.528 485.233 351.532 479.706L351.547 479.7Z" fill="#FFBB00"/>
<path d="M315.831 654.282C316.152 654 316.407 653.428 316.503 652.522C316.971 648.138 315.399 642.537 313.868 638.439C310.104 628.407 304.711 619.402 296.273 612.761C287.941 606.2 277.753 601.287 267.063 600.482C261.873 600.094 256.625 600.009 251.465 600.752C247.34 601.346 240.294 602.427 237.586 606.038C236.95 606.89 236.802 608.206 237.544 608.96C238.349 609.768 239.681 609.568 240.799 609.321C250.03 607.271 259.558 606.081 268.957 607.104C276.536 607.929 282.396 609.882 288.69 614.341C294.68 618.581 300.057 623.85 304.099 629.994C308.614 636.856 310.863 644.632 313.381 652.376C313.929 654.072 315.082 654.946 315.841 654.287L315.831 654.282Z" fill="#FFBB00"/>
<path d="M322.325 606.642C327.168 611.302 331.681 616.699 335.631 622.161C337.361 624.557 339.137 627.098 341.793 628.39C343.226 624.148 339.784 620.661 337.688 617.31C335.218 613.366 332.374 609.656 329.191 606.268C322.74 599.379 314.864 593.765 306.039 590.354C299.217 587.72 291.861 586.829 284.577 587.044C280.622 587.158 276.682 587.607 272.782 588.254C269.821 588.746 266.196 588.123 263.76 590.295C263.049 590.926 262.635 591.985 262.993 592.874C263.207 593.424 263.64 593.808 264.233 594.072C267.2 595.376 271.171 594.003 274.163 593.457C285.034 591.484 295.306 592.377 305.665 596.153C311.852 598.41 317.587 602.08 322.325 606.642Z" fill="#FFBB00"/>
<path d="M254.786 582.493C258.2 581.865 261.83 579.24 264.983 577.755C271.463 574.704 278.542 572.937 285.692 572.593C288.976 572.44 299.858 575.151 300.82 569.968C301.413 566.764 296.075 566.575 293.678 566.457C289.345 566.243 284.988 566.626 280.728 567.382C275.311 568.349 269.988 569.911 264.932 572.098C262.929 572.965 259.833 574.122 257.128 575.618C254.937 576.828 253 578.259 252.125 579.933C251.908 580.355 251.766 580.843 251.876 581.296C252.151 582.42 253.644 582.698 254.786 582.493Z" fill="#FFBB00"/>
<path d="M326.492 585.232C328.103 584.136 327.51 581.681 326.88 579.837C324.228 572.007 322.374 564.441 325.298 556.479C326.661 552.782 328.291 549.046 328.241 545.101C328.191 541.864 324.78 543.07 323.379 544.361C320.979 546.561 319.927 551.275 319.293 554.299C317.388 563.346 318.076 572.924 321.252 581.607C321.674 582.762 322.169 583.949 323.09 584.773C324.012 585.596 325.469 585.938 326.487 585.242L326.492 585.232Z" fill="#FFBB00"/>
<path d="M347.825 546.535C347.946 543.072 348.016 540.02 344.444 542.983C341.602 545.348 341.311 550.707 340.741 554.039C337.692 571.797 339.973 590.36 348.42 606.381C351.954 613.081 356.583 618.877 362.518 623.564C364.041 624.767 366.28 625.9 367.75 624.635C367.523 622.018 365.603 619.889 363.613 618.169C358.154 613.433 353.88 606.532 350.937 599.884C346.959 590.878 345.761 581.806 345.216 572.089C344.728 563.459 347.525 555.11 347.817 546.538L347.825 546.535Z" fill="#FFBB00"/>
<path d="M368.833 593.399C367.892 592.932 366.457 593.016 365.945 594.086C365.697 594.587 365.724 595.182 365.834 595.729C366.516 599.242 368.84 602.976 370.676 605.998C372.676 609.299 374.998 612.411 377.603 615.256C378.266 615.981 380.969 619.156 381.875 617.223C382.103 616.738 381.963 616.159 381.711 615.691C378.838 610.235 375.016 605.638 372.891 599.698C372.024 597.286 371.135 594.542 368.833 593.399Z" fill="#FFBB00"/>
<path d="M248.162 562.637C251.361 562.805 254.608 562.164 257.505 560.817C262.968 558.283 267.196 553.516 269.902 548.141C270.98 546.008 271.986 543.408 271.429 540.983C271.387 540.802 271.331 540.627 271.266 540.455C270.666 538.916 269.079 537.795 267.771 539.494C266.392 541.279 265.546 543.419 264.493 545.414C261.55 550.997 256.416 555.846 250.153 556.652C247.551 556.985 244.854 556.611 242.315 557.253C239.145 558.053 239.702 560.411 242.256 561.451C244.086 562.199 246.201 562.543 248.175 562.649L248.162 562.637Z" fill="#FFBB00"/>
</svg>
