<?xml version="1.0" encoding="utf-8"?>
<!-- Generator: Adobe Illustrator 20.1.0, SVG Export Plug-In . SVG Version: 6.00 Build 0)  -->
<svg version="1.1" id="Layer_1" xmlns="http://www.w3.org/2000/svg" xmlns:xlink="http://www.w3.org/1999/xlink" x="0px" y="0px"
	 viewBox="0 0 1494 869.6" style="enable-background:new 0 0 1494 869.6;" xml:space="preserve">
<style type="text/css">
	.st0{fill:#FF4133;}
	.st1{fill:#FFBB00;}
</style>
<rect class="st0" width="1493.9" height="869.6"/>
<g transform="translate(0 614)">
	<g transform="translate(295)">
		<path class="st1" d="M-7.8-519.2h-57.4v-60h57.4L-7.8-519.2L-7.8-519.2z M-50.8-527.5L-50.8-527.5l1.2,3.9h3.7l-1.9-5.6
			c1.2-1.2,1.8-2.8,1.8-4.5v-6.2c0.2-3.3-2.4-6.2-5.7-6.4c-3.3-0.2-6.2,2.4-6.4,5.7c0,0.2,0,0.4,0,0.6v6.2c-0.1,3.4,2.6,6.3,6.1,6.4
			C-51.6-527.4-51.2-527.5-50.8-527.5L-50.8-527.5z M-27.2-540v6.2c-0.1,3.4,2.5,6.2,5.9,6.4c3.4,0.1,6.2-2.5,6.4-5.9
			c0-0.2,0-0.3,0-0.5v-6.2c0.1-3.4-2.5-6.2-5.9-6.4s-6.2,2.5-6.4,5.9C-27.2-540.4-27.2-540.2-27.2-540z M-41.1-527.5H-29v-3.7h-8.5
			v-15.2h-3.6V-527.5z M-37.5-562.7l4.9,10.6h3.6v-18.9h-3.6v10.7l-4.9-10.7h-3.7v18.9h3.7L-37.5-562.7L-37.5-562.7z M-58-558.2
			c-0.1,3.4,2.6,6.1,5.9,6.2h0.2c3.4-0.1,6-2.9,5.9-6.2v-12.7h-3.7v12.6c0,1.3-1,2.4-2.3,2.5c-1.3,0-2.4-1-2.5-2.3
			c0-0.1,0-0.1,0-0.2v-12.6H-58L-58-558.2z M-23-552h3.6V-571H-23V-552z M-70-519.2h-57.4v-60H-70L-70-519.2L-70-519.2z
			 M-120.2-527.5h13.9l3.6-18.3h-13.9l-2.1,10.7h3.6l1.4-6.8h6.6l-2.1,10.5h-10.3L-120.2-527.5z M-94.8-527.5h15.7v-18.3h-15.7
			L-94.8-527.5z M-118.4-552.6h15.7v-3.8h-3.6v-14.5h-10.2v3.8h6.7v10.7h-8.5V-552.6z M-94.7-552.7h15.6v-3.8h-15.6V-552.7z
			 M-93-567.2h12.1v-3.8H-93V-567.2z M-91.2-531.2V-542h8.4v10.8H-91.2z M-23.5-533.8v-6.2c0-1.3,1.1-2.4,2.4-2.4s2.4,1.1,2.4,2.4
			l0,0v6.2c0,1.3-1.1,2.4-2.4,2.4S-23.5-532.5-23.5-533.8L-23.5-533.8z M-54.4-533.8v-6.2c-0.1-1.3,1-2.4,2.3-2.5s2.4,1,2.5,2.3
			c0,0.1,0,0.1,0,0.2v6.2c0.1,1.3-0.9,2.4-2.3,2.5s-2.4-0.9-2.5-2.3C-54.4-533.7-54.4-533.7-54.4-533.8L-54.4-533.8z"/>
	</g>
	<g transform="translate(295 246)">
		<path class="st1" d="M-7.8-519.2h-57.4v-60h57.4L-7.8-519.2L-7.8-519.2z M-50.8-527.5L-50.8-527.5l1.2,3.9h3.7l-1.9-5.6
			c1.2-1.2,1.8-2.8,1.8-4.5v-6.2c0.2-3.3-2.4-6.2-5.7-6.4c-3.3-0.2-6.2,2.4-6.4,5.7c0,0.2,0,0.4,0,0.6v6.2c-0.1,3.4,2.6,6.3,6.1,6.4
			C-51.6-527.4-51.2-527.5-50.8-527.5L-50.8-527.5z M-27.2-540v6.2c-0.1,3.4,2.5,6.2,5.9,6.4c3.4,0.1,6.2-2.5,6.4-5.9
			c0-0.2,0-0.3,0-0.5v-6.2c0.1-3.4-2.5-6.2-5.9-6.4s-6.2,2.5-6.4,5.9C-27.2-540.4-27.2-540.2-27.2-540z M-41.1-527.5H-29v-3.7h-8.5
			v-15.2h-3.6V-527.5z M-37.5-562.7l4.9,10.6h3.6v-18.9h-3.6v10.7l-4.9-10.7h-3.7v18.9h3.7L-37.5-562.7L-37.5-562.7z M-58-558.2
			c-0.1,3.4,2.6,6.1,5.9,6.2h0.2c3.4-0.1,6-2.9,5.9-6.2v-12.7h-3.7v12.6c0,1.3-1,2.4-2.3,2.5c-1.3,0-2.4-1-2.5-2.3
			c0-0.1,0-0.1,0-0.2v-12.6H-58L-58-558.2z M-23-552h3.6V-571H-23V-552z M-70-519.2h-57.4v-60H-70L-70-519.2L-70-519.2z
			 M-120.2-527.5h13.9l3.6-18.3h-13.9l-2.1,10.7h3.6l1.4-6.8h6.6l-2.1,10.5h-10.3L-120.2-527.5z M-94.8-527.5h15.7v-18.3h-15.7
			L-94.8-527.5z M-118.4-552.6h15.7v-3.8h-3.6v-14.5h-10.2v3.8h6.7v10.7h-8.5V-552.6z M-94.7-552.7h15.6v-3.8h-15.6V-552.7z
			 M-93-567.2h12.1v-3.8H-93V-567.2z M-91.2-531.2V-542h8.4v10.8H-91.2z M-23.5-533.8v-6.2c0-1.3,1.1-2.4,2.4-2.4s2.4,1.1,2.4,2.4
			l0,0v6.2c0,1.3-1.1,2.4-2.4,2.4S-23.5-532.5-23.5-533.8L-23.5-533.8z M-54.4-533.8v-6.2c-0.1-1.3,1-2.4,2.3-2.5s2.4,1,2.5,2.3
			c0,0.1,0,0.1,0,0.2v6.2c0.1,1.3-0.9,2.4-2.3,2.5s-2.4-0.9-2.5-2.3C-54.4-533.7-54.4-533.7-54.4-533.8L-54.4-533.8z"/>
	</g>
	<g transform="translate(295 491)">
		<path class="st1" d="M-7.8-519.2h-57.4v-60h57.4L-7.8-519.2L-7.8-519.2z M-50.8-527.5L-50.8-527.5l1.2,3.9h3.7l-1.9-5.6
			c1.2-1.2,1.8-2.8,1.8-4.5v-6.2c0.2-3.3-2.4-6.2-5.7-6.4c-3.3-0.2-6.2,2.4-6.4,5.7c0,0.2,0,0.4,0,0.6v6.2c-0.1,3.4,2.6,6.3,6.1,6.4
			C-51.6-527.4-51.2-527.5-50.8-527.5L-50.8-527.5z M-27.2-540v6.2c-0.1,3.4,2.5,6.2,5.9,6.4c3.4,0.1,6.2-2.5,6.4-5.9
			c0-0.2,0-0.3,0-0.5v-6.2c0.1-3.4-2.5-6.2-5.9-6.4s-6.2,2.5-6.4,5.9C-27.2-540.4-27.2-540.2-27.2-540z M-41.1-527.5H-29v-3.7h-8.5
			v-15.2h-3.6V-527.5z M-37.5-562.7l4.9,10.6h3.6v-18.9h-3.6v10.7l-4.9-10.7h-3.7v18.9h3.7L-37.5-562.7L-37.5-562.7z M-58-558.2
			c-0.1,3.4,2.6,6.1,5.9,6.2h0.2c3.4-0.1,6-2.9,5.9-6.2v-12.7h-3.7v12.6c0,1.3-1,2.4-2.3,2.5c-1.3,0-2.4-1-2.5-2.3
			c0-0.1,0-0.1,0-0.2v-12.6H-58L-58-558.2z M-23-552h3.6V-571H-23V-552z M-70-519.2h-57.4v-60H-70L-70-519.2L-70-519.2z
			 M-120.2-527.5h13.9l3.6-18.3h-13.9l-2.1,10.7h3.6l1.4-6.8h6.6l-2.1,10.5h-10.3L-120.2-527.5z M-94.8-527.5h15.7v-18.3h-15.7
			L-94.8-527.5z M-118.4-552.6h15.7v-3.8h-3.6v-14.5h-10.2v3.8h6.7v10.7h-8.5V-552.6z M-94.7-552.7h15.6v-3.8h-15.6V-552.7z
			 M-93-567.2h12.1v-3.8H-93V-567.2z M-91.2-531.2V-542h8.4v10.8H-91.2z M-23.5-533.8v-6.2c0-1.3,1.1-2.4,2.4-2.4s2.4,1.1,2.4,2.4
			l0,0v6.2c0,1.3-1.1,2.4-2.4,2.4S-23.5-532.5-23.5-533.8L-23.5-533.8z M-54.4-533.8v-6.2c-0.1-1.3,1-2.4,2.3-2.5s2.4,1,2.5,2.3
			c0,0.1,0,0.1,0,0.2v6.2c0.1,1.3-0.9,2.4-2.3,2.5s-2.4-0.9-2.5-2.3C-54.4-533.7-54.4-533.7-54.4-533.8L-54.4-533.8z"/>
	</g>
	<g transform="translate(295 736)">
		<path class="st1" d="M-7.8-519.2h-57.4v-60h57.4L-7.8-519.2L-7.8-519.2z M-50.8-527.5L-50.8-527.5l1.2,3.9h3.7l-1.9-5.6
			c1.2-1.2,1.8-2.8,1.8-4.5v-6.2c0.2-3.3-2.4-6.2-5.7-6.4c-3.3-0.2-6.2,2.4-6.4,5.7c0,0.2,0,0.4,0,0.6v6.2c-0.1,3.4,2.6,6.3,6.1,6.4
			C-51.6-527.4-51.2-527.5-50.8-527.5L-50.8-527.5z M-27.2-540v6.2c-0.1,3.4,2.5,6.2,5.9,6.4c3.4,0.1,6.2-2.5,6.4-5.9
			c0-0.2,0-0.3,0-0.5v-6.2c0.1-3.4-2.5-6.2-5.9-6.4s-6.2,2.5-6.4,5.9C-27.2-540.4-27.2-540.2-27.2-540z M-41.1-527.5H-29v-3.7h-8.5
			v-15.2h-3.6V-527.5z M-37.5-562.7l4.9,10.6h3.6v-18.9h-3.6v10.7l-4.9-10.7h-3.7v18.9h3.7L-37.5-562.7L-37.5-562.7z M-58-558.2
			c-0.1,3.4,2.6,6.1,5.9,6.2h0.2c3.4-0.1,6-2.9,5.9-6.2v-12.7h-3.7v12.6c0,1.3-1,2.4-2.3,2.5c-1.3,0-2.4-1-2.5-2.3
			c0-0.1,0-0.1,0-0.2v-12.6H-58L-58-558.2z M-23-552h3.6V-571H-23V-552z M-70-519.2h-57.4v-60H-70L-70-519.2L-70-519.2z
			 M-120.2-527.5h13.9l3.6-18.3h-13.9l-2.1,10.7h3.6l1.4-6.8h6.6l-2.1,10.5h-10.3L-120.2-527.5z M-94.8-527.5h15.7v-18.3h-15.7
			L-94.8-527.5z M-118.4-552.6h15.7v-3.8h-3.6v-14.5h-10.2v3.8h6.7v10.7h-8.5V-552.6z M-94.7-552.7h15.6v-3.8h-15.6V-552.7z
			 M-93-567.2h12.1v-3.8H-93V-567.2z M-91.2-531.2V-542h8.4v10.8H-91.2z M-23.5-533.8v-6.2c0-1.3,1.1-2.4,2.4-2.4s2.4,1.1,2.4,2.4
			l0,0v6.2c0,1.3-1.1,2.4-2.4,2.4S-23.5-532.5-23.5-533.8L-23.5-533.8z M-54.4-533.8v-6.2c-0.1-1.3,1-2.4,2.3-2.5s2.4,1,2.5,2.3
			c0,0.1,0,0.1,0,0.2v6.2c0.1,1.3-0.9,2.4-2.3,2.5s-2.4-0.9-2.5-2.3C-54.4-533.7-54.4-533.7-54.4-533.8L-54.4-533.8z"/>
	</g>
	<g transform="translate(440 123)">
		<path class="st1" d="M-7.8-519.2h-57.4v-60h57.4L-7.8-519.2L-7.8-519.2z M-50.8-527.5L-50.8-527.5l1.2,3.9h3.7l-1.9-5.6
			c1.2-1.2,1.8-2.8,1.8-4.5v-6.2c0.2-3.3-2.4-6.2-5.7-6.4c-3.3-0.2-6.2,2.4-6.4,5.7c0,0.2,0,0.4,0,0.6v6.2c-0.1,3.4,2.6,6.3,6.1,6.4
			C-51.6-527.4-51.2-527.5-50.8-527.5L-50.8-527.5z M-27.2-540v6.2c-0.1,3.4,2.5,6.2,5.9,6.4c3.4,0.1,6.2-2.5,6.4-5.9
			c0-0.2,0-0.3,0-0.5v-6.2c0.1-3.4-2.5-6.2-5.9-6.4s-6.2,2.5-6.4,5.9C-27.2-540.4-27.2-540.2-27.2-540z M-41.1-527.5H-29v-3.7h-8.5
			v-15.2h-3.6V-527.5z M-37.5-562.7l4.9,10.6h3.6v-18.9h-3.6v10.7l-4.9-10.7h-3.7v18.9h3.7L-37.5-562.7L-37.5-562.7z M-58-558.2
			c-0.1,3.4,2.6,6.1,5.9,6.2h0.2c3.4-0.1,6-2.9,5.9-6.2v-12.7h-3.7v12.6c0,1.3-1,2.4-2.3,2.5c-1.3,0-2.4-1-2.5-2.3
			c0-0.1,0-0.1,0-0.2v-12.6H-58L-58-558.2z M-23-552h3.6V-571H-23V-552z M-70-519.2h-57.4v-60H-70L-70-519.2L-70-519.2z
			 M-120.2-527.5h13.9l3.6-18.3h-13.9l-2.1,10.7h3.6l1.4-6.8h6.6l-2.1,10.5h-10.3L-120.2-527.5z M-94.8-527.5h15.7v-18.3h-15.7
			L-94.8-527.5z M-118.4-552.6h15.7v-3.8h-3.6v-14.5h-10.2v3.8h6.7v10.7h-8.5V-552.6z M-94.7-552.7h15.6v-3.8h-15.6V-552.7z
			 M-93-567.2h12.1v-3.8H-93V-567.2z M-91.2-531.2V-542h8.4v10.8H-91.2z M-23.5-533.8v-6.2c0-1.3,1.1-2.4,2.4-2.4s2.4,1.1,2.4,2.4
			l0,0v6.2c0,1.3-1.1,2.4-2.4,2.4S-23.5-532.5-23.5-533.8L-23.5-533.8z M-54.4-533.8v-6.2c-0.1-1.3,1-2.4,2.3-2.5s2.4,1,2.5,2.3
			c0,0.1,0,0.1,0,0.2v6.2c0.1,1.3-0.9,2.4-2.3,2.5s-2.4-0.9-2.5-2.3C-54.4-533.7-54.4-533.7-54.4-533.8L-54.4-533.8z"/>
	</g>
	<g transform="translate(440 369)">
		<path class="st1" d="M-7.8-519.2h-57.4v-60h57.4L-7.8-519.2L-7.8-519.2z M-50.8-527.5L-50.8-527.5l1.2,3.9h3.7l-1.9-5.6
			c1.2-1.2,1.8-2.8,1.8-4.5v-6.2c0.2-3.3-2.4-6.2-5.7-6.4c-3.3-0.2-6.2,2.4-6.4,5.7c0,0.2,0,0.4,0,0.6v6.2c-0.1,3.4,2.6,6.3,6.1,6.4
			C-51.6-527.4-51.2-527.5-50.8-527.5L-50.8-527.5z M-27.2-540v6.2c-0.1,3.4,2.5,6.2,5.9,6.4c3.4,0.1,6.2-2.5,6.4-5.9
			c0-0.2,0-0.3,0-0.5v-6.2c0.1-3.4-2.5-6.2-5.9-6.4s-6.2,2.5-6.4,5.9C-27.2-540.4-27.2-540.2-27.2-540z M-41.1-527.5H-29v-3.7h-8.5
			v-15.2h-3.6V-527.5z M-37.5-562.7l4.9,10.6h3.6v-18.9h-3.6v10.7l-4.9-10.7h-3.7v18.9h3.7L-37.5-562.7L-37.5-562.7z M-58-558.2
			c-0.1,3.4,2.6,6.1,5.9,6.2h0.2c3.4-0.1,6-2.9,5.9-6.2v-12.7h-3.7v12.6c0,1.3-1,2.4-2.3,2.5c-1.3,0-2.4-1-2.5-2.3
			c0-0.1,0-0.1,0-0.2v-12.6H-58L-58-558.2z M-23-552h3.6V-571H-23V-552z M-70-519.2h-57.4v-60H-70L-70-519.2L-70-519.2z
			 M-120.2-527.5h13.9l3.6-18.3h-13.9l-2.1,10.7h3.6l1.4-6.8h6.6l-2.1,10.5h-10.3L-120.2-527.5z M-94.8-527.5h15.7v-18.3h-15.7
			L-94.8-527.5z M-118.4-552.6h15.7v-3.8h-3.6v-14.5h-10.2v3.8h6.7v10.7h-8.5V-552.6z M-94.7-552.7h15.6v-3.8h-15.6V-552.7z
			 M-93-567.2h12.1v-3.8H-93V-567.2z M-91.2-531.2V-542h8.4v10.8H-91.2z M-23.5-533.8v-6.2c0-1.3,1.1-2.4,2.4-2.4s2.4,1.1,2.4,2.4
			l0,0v6.2c0,1.3-1.1,2.4-2.4,2.4S-23.5-532.5-23.5-533.8L-23.5-533.8z M-54.4-533.8v-6.2c-0.1-1.3,1-2.4,2.3-2.5s2.4,1,2.5,2.3
			c0,0.1,0,0.1,0,0.2v6.2c0.1,1.3-0.9,2.4-2.3,2.5s-2.4-0.9-2.5-2.3C-54.4-533.7-54.4-533.7-54.4-533.8L-54.4-533.8z"/>
	</g>
	<g transform="translate(440 614)">
		<path class="st1" d="M-7.8-519.2h-57.4v-60h57.4L-7.8-519.2L-7.8-519.2z M-50.8-527.5L-50.8-527.5l1.2,3.9h3.7l-1.9-5.6
			c1.2-1.2,1.8-2.8,1.8-4.5v-6.2c0.2-3.3-2.4-6.2-5.7-6.4c-3.3-0.2-6.2,2.4-6.4,5.7c0,0.2,0,0.4,0,0.6v6.2c-0.1,3.4,2.6,6.3,6.1,6.4
			C-51.6-527.4-51.2-527.5-50.8-527.5L-50.8-527.5z M-27.2-540v6.2c-0.1,3.4,2.5,6.2,5.9,6.4c3.4,0.1,6.2-2.5,6.4-5.9
			c0-0.2,0-0.3,0-0.5v-6.2c0.1-3.4-2.5-6.2-5.9-6.4s-6.2,2.5-6.4,5.9C-27.2-540.4-27.2-540.2-27.2-540z M-41.1-527.5H-29v-3.7h-8.5
			v-15.2h-3.6V-527.5z M-37.5-562.7l4.9,10.6h3.6v-18.9h-3.6v10.7l-4.9-10.7h-3.7v18.9h3.7L-37.5-562.7L-37.5-562.7z M-58-558.2
			c-0.1,3.4,2.6,6.1,5.9,6.2h0.2c3.4-0.1,6-2.9,5.9-6.2v-12.7h-3.7v12.6c0,1.3-1,2.4-2.3,2.5c-1.3,0-2.4-1-2.5-2.3
			c0-0.1,0-0.1,0-0.2v-12.6H-58L-58-558.2z M-23-552h3.6V-571H-23V-552z M-70-519.2h-57.4v-60H-70L-70-519.2L-70-519.2z
			 M-120.2-527.5h13.9l3.6-18.3h-13.9l-2.1,10.7h3.6l1.4-6.8h6.6l-2.1,10.5h-10.3L-120.2-527.5z M-94.8-527.5h15.7v-18.3h-15.7
			L-94.8-527.5z M-118.4-552.6h15.7v-3.8h-3.6v-14.5h-10.2v3.8h6.7v10.7h-8.5V-552.6z M-94.7-552.7h15.6v-3.8h-15.6V-552.7z
			 M-93-567.2h12.1v-3.8H-93V-567.2z M-91.2-531.2V-542h8.4v10.8H-91.2z M-23.5-533.8v-6.2c0-1.3,1.1-2.4,2.4-2.4s2.4,1.1,2.4,2.4
			l0,0v6.2c0,1.3-1.1,2.4-2.4,2.4S-23.5-532.5-23.5-533.8L-23.5-533.8z M-54.4-533.8v-6.2c-0.1-1.3,1-2.4,2.3-2.5s2.4,1,2.5,2.3
			c0,0.1,0,0.1,0,0.2v6.2c0.1,1.3-0.9,2.4-2.3,2.5s-2.4-0.9-2.5-2.3C-54.4-533.7-54.4-533.7-54.4-533.8L-54.4-533.8z"/>
	</g>
	<g transform="translate(145 123)">
		<path class="st1" d="M-7.8-519.2h-57.4v-60h57.4L-7.8-519.2L-7.8-519.2z M-50.8-527.5L-50.8-527.5l1.2,3.9h3.7l-1.9-5.6
			c1.2-1.2,1.8-2.8,1.8-4.5v-6.2c0.2-3.3-2.4-6.2-5.7-6.4c-3.3-0.2-6.2,2.4-6.4,5.7c0,0.2,0,0.4,0,0.6v6.2c-0.1,3.4,2.6,6.3,6.1,6.4
			C-51.6-527.4-51.2-527.5-50.8-527.5L-50.8-527.5z M-27.2-540v6.2c-0.1,3.4,2.5,6.2,5.9,6.4c3.4,0.1,6.2-2.5,6.4-5.9
			c0-0.2,0-0.3,0-0.5v-6.2c0.1-3.4-2.5-6.2-5.9-6.4s-6.2,2.5-6.4,5.9C-27.2-540.4-27.2-540.2-27.2-540z M-41.1-527.5H-29v-3.7h-8.5
			v-15.2h-3.6V-527.5z M-37.5-562.7l4.9,10.6h3.6v-18.9h-3.6v10.7l-4.9-10.7h-3.7v18.9h3.7L-37.5-562.7L-37.5-562.7z M-58-558.2
			c-0.1,3.4,2.6,6.1,5.9,6.2h0.2c3.4-0.1,6-2.9,5.9-6.2v-12.7h-3.7v12.6c0,1.3-1,2.4-2.3,2.5c-1.3,0-2.4-1-2.5-2.3
			c0-0.1,0-0.1,0-0.2v-12.6H-58L-58-558.2z M-23-552h3.6V-571H-23V-552z M-70-519.2h-57.4v-60H-70L-70-519.2L-70-519.2z
			 M-120.2-527.5h13.9l3.6-18.3h-13.9l-2.1,10.7h3.6l1.4-6.8h6.6l-2.1,10.5h-10.3L-120.2-527.5z M-94.8-527.5h15.7v-18.3h-15.7
			L-94.8-527.5z M-118.4-552.6h15.7v-3.8h-3.6v-14.5h-10.2v3.8h6.7v10.7h-8.5V-552.6z M-94.7-552.7h15.6v-3.8h-15.6V-552.7z
			 M-93-567.2h12.1v-3.8H-93V-567.2z M-91.2-531.2V-542h8.4v10.8H-91.2z M-23.5-533.8v-6.2c0-1.3,1.1-2.4,2.4-2.4s2.4,1.1,2.4,2.4
			l0,0v6.2c0,1.3-1.1,2.4-2.4,2.4S-23.5-532.5-23.5-533.8L-23.5-533.8z M-54.4-533.8v-6.2c-0.1-1.3,1-2.4,2.3-2.5s2.4,1,2.5,2.3
			c0,0.1,0,0.1,0,0.2v6.2c0.1,1.3-0.9,2.4-2.3,2.5s-2.4-0.9-2.5-2.3C-54.4-533.7-54.4-533.7-54.4-533.8L-54.4-533.8z"/>
	</g>
	<g transform="translate(145 369)">
		<path class="st1" d="M-7.8-519.2h-57.4v-60h57.4L-7.8-519.2L-7.8-519.2z M-50.8-527.5L-50.8-527.5l1.2,3.9h3.7l-1.9-5.6
			c1.2-1.2,1.8-2.8,1.8-4.5v-6.2c0.2-3.3-2.4-6.2-5.7-6.4c-3.3-0.2-6.2,2.4-6.4,5.7c0,0.2,0,0.4,0,0.6v6.2c-0.1,3.4,2.6,6.3,6.1,6.4
			C-51.6-527.4-51.2-527.5-50.8-527.5L-50.8-527.5z M-27.2-540v6.2c-0.1,3.4,2.5,6.2,5.9,6.4c3.4,0.1,6.2-2.5,6.4-5.9
			c0-0.2,0-0.3,0-0.5v-6.2c0.1-3.4-2.5-6.2-5.9-6.4s-6.2,2.5-6.4,5.9C-27.2-540.4-27.2-540.2-27.2-540z M-41.1-527.5H-29v-3.7h-8.5
			v-15.2h-3.6V-527.5z M-37.5-562.7l4.9,10.6h3.6v-18.9h-3.6v10.7l-4.9-10.7h-3.7v18.9h3.7L-37.5-562.7L-37.5-562.7z M-58-558.2
			c-0.1,3.4,2.6,6.1,5.9,6.2h0.2c3.4-0.1,6-2.9,5.9-6.2v-12.7h-3.7v12.6c0,1.3-1,2.4-2.3,2.5c-1.3,0-2.4-1-2.5-2.3
			c0-0.1,0-0.1,0-0.2v-12.6H-58L-58-558.2z M-23-552h3.6V-571H-23V-552z M-70-519.2h-57.4v-60H-70L-70-519.2L-70-519.2z
			 M-120.2-527.5h13.9l3.6-18.3h-13.9l-2.1,10.7h3.6l1.4-6.8h6.6l-2.1,10.5h-10.3L-120.2-527.5z M-94.8-527.5h15.7v-18.3h-15.7
			L-94.8-527.5z M-118.4-552.6h15.7v-3.8h-3.6v-14.5h-10.2v3.8h6.7v10.7h-8.5V-552.6z M-94.7-552.7h15.6v-3.8h-15.6V-552.7z
			 M-93-567.2h12.1v-3.8H-93V-567.2z M-91.2-531.2V-542h8.4v10.8H-91.2z M-23.5-533.8v-6.2c0-1.3,1.1-2.4,2.4-2.4s2.4,1.1,2.4,2.4
			l0,0v6.2c0,1.3-1.1,2.4-2.4,2.4S-23.5-532.5-23.5-533.8L-23.5-533.8z M-54.4-533.8v-6.2c-0.1-1.3,1-2.4,2.3-2.5s2.4,1,2.5,2.3
			c0,0.1,0,0.1,0,0.2v6.2c0.1,1.3-0.9,2.4-2.3,2.5s-2.4-0.9-2.5-2.3C-54.4-533.7-54.4-533.7-54.4-533.8L-54.4-533.8z"/>
	</g>
	<g transform="translate(145 614)">
		<path class="st1" d="M-7.8-519.2h-57.4v-60h57.4L-7.8-519.2L-7.8-519.2z M-50.8-527.5L-50.8-527.5l1.2,3.9h3.7l-1.9-5.6
			c1.2-1.2,1.8-2.8,1.8-4.5v-6.2c0.2-3.3-2.4-6.2-5.7-6.4c-3.3-0.2-6.2,2.4-6.4,5.7c0,0.2,0,0.4,0,0.6v6.2c-0.1,3.4,2.6,6.3,6.1,6.4
			C-51.6-527.4-51.2-527.5-50.8-527.5L-50.8-527.5z M-27.2-540v6.2c-0.1,3.4,2.5,6.2,5.9,6.4c3.4,0.1,6.2-2.5,6.4-5.9
			c0-0.2,0-0.3,0-0.5v-6.2c0.1-3.4-2.5-6.2-5.9-6.4s-6.2,2.5-6.4,5.9C-27.2-540.4-27.2-540.2-27.2-540z M-41.1-527.5H-29v-3.7h-8.5
			v-15.2h-3.6V-527.5z M-37.5-562.7l4.9,10.6h3.6v-18.9h-3.6v10.7l-4.9-10.7h-3.7v18.9h3.7L-37.5-562.7L-37.5-562.7z M-58-558.2
			c-0.1,3.4,2.6,6.1,5.9,6.2h0.2c3.4-0.1,6-2.9,5.9-6.2v-12.7h-3.7v12.6c0,1.3-1,2.4-2.3,2.5c-1.3,0-2.4-1-2.5-2.3
			c0-0.1,0-0.1,0-0.2v-12.6H-58L-58-558.2z M-23-552h3.6V-571H-23V-552z M-70-519.2h-57.4v-60H-70L-70-519.2L-70-519.2z
			 M-120.2-527.5h13.9l3.6-18.3h-13.9l-2.1,10.7h3.6l1.4-6.8h6.6l-2.1,10.5h-10.3L-120.2-527.5z M-94.8-527.5h15.7v-18.3h-15.7
			L-94.8-527.5z M-118.4-552.6h15.7v-3.8h-3.6v-14.5h-10.2v3.8h6.7v10.7h-8.5V-552.6z M-94.7-552.7h15.6v-3.8h-15.6V-552.7z
			 M-93-567.2h12.1v-3.8H-93V-567.2z M-91.2-531.2V-542h8.4v10.8H-91.2z M-23.5-533.8v-6.2c0-1.3,1.1-2.4,2.4-2.4s2.4,1.1,2.4,2.4
			l0,0v6.2c0,1.3-1.1,2.4-2.4,2.4S-23.5-532.5-23.5-533.8L-23.5-533.8z M-54.4-533.8v-6.2c-0.1-1.3,1-2.4,2.3-2.5s2.4,1,2.5,2.3
			c0,0.1,0,0.1,0,0.2v6.2c0.1,1.3-0.9,2.4-2.3,2.5s-2.4-0.9-2.5-2.3C-54.4-533.7-54.4-533.7-54.4-533.8L-54.4-533.8z"/>
	</g>
	<g transform="translate(590)">
		<path class="st1" d="M-7.8-519.2h-57.4v-60h57.4L-7.8-519.2L-7.8-519.2z M-50.8-527.5L-50.8-527.5l1.2,3.9h3.7l-1.9-5.6
			c1.2-1.2,1.8-2.8,1.8-4.5v-6.2c0.2-3.3-2.4-6.2-5.7-6.4c-3.3-0.2-6.2,2.4-6.4,5.7c0,0.2,0,0.4,0,0.6v6.2c-0.1,3.4,2.6,6.3,6.1,6.4
			C-51.6-527.4-51.2-527.5-50.8-527.5L-50.8-527.5z M-27.2-540v6.2c-0.1,3.4,2.5,6.2,5.9,6.4c3.4,0.1,6.2-2.5,6.4-5.9
			c0-0.2,0-0.3,0-0.5v-6.2c0.1-3.4-2.5-6.2-5.9-6.4s-6.2,2.5-6.4,5.9C-27.2-540.4-27.2-540.2-27.2-540z M-41.1-527.5H-29v-3.7h-8.5
			v-15.2h-3.6V-527.5z M-37.5-562.7l4.9,10.6h3.6v-18.9h-3.6v10.7l-4.9-10.7h-3.7v18.9h3.7L-37.5-562.7L-37.5-562.7z M-58-558.2
			c-0.1,3.4,2.6,6.1,5.9,6.2h0.2c3.4-0.1,6-2.9,5.9-6.2v-12.7h-3.7v12.6c0,1.3-1,2.4-2.3,2.5c-1.3,0-2.4-1-2.5-2.3
			c0-0.1,0-0.1,0-0.2v-12.6H-58L-58-558.2z M-23-552h3.6V-571H-23V-552z M-70-519.2h-57.4v-60H-70L-70-519.2L-70-519.2z
			 M-120.2-527.5h13.9l3.6-18.3h-13.9l-2.1,10.7h3.6l1.4-6.8h6.6l-2.1,10.5h-10.3L-120.2-527.5z M-94.8-527.5h15.7v-18.3h-15.7
			L-94.8-527.5z M-118.4-552.6h15.7v-3.8h-3.6v-14.5h-10.2v3.8h6.7v10.7h-8.5V-552.6z M-94.7-552.7h15.6v-3.8h-15.6V-552.7z
			 M-93-567.2h12.1v-3.8H-93V-567.2z M-91.2-531.2V-542h8.4v10.8H-91.2z M-23.5-533.8v-6.2c0-1.3,1.1-2.4,2.4-2.4s2.4,1.1,2.4,2.4
			l0,0v6.2c0,1.3-1.1,2.4-2.4,2.4S-23.5-532.5-23.5-533.8L-23.5-533.8z M-54.4-533.8v-6.2c-0.1-1.3,1-2.4,2.3-2.5s2.4,1,2.5,2.3
			c0,0.1,0,0.1,0,0.2v6.2c0.1,1.3-0.9,2.4-2.3,2.5s-2.4-0.9-2.5-2.3C-54.4-533.7-54.4-533.7-54.4-533.8L-54.4-533.8z"/>
	</g>
	<g transform="translate(590 246)">
		<path class="st1" d="M-7.8-519.2h-57.4v-60h57.4L-7.8-519.2L-7.8-519.2z M-50.8-527.5L-50.8-527.5l1.2,3.9h3.7l-1.9-5.6
			c1.2-1.2,1.8-2.8,1.8-4.5v-6.2c0.2-3.3-2.4-6.2-5.7-6.4c-3.3-0.2-6.2,2.4-6.4,5.7c0,0.2,0,0.4,0,0.6v6.2c-0.1,3.4,2.6,6.3,6.1,6.4
			C-51.6-527.4-51.2-527.5-50.8-527.5L-50.8-527.5z M-27.2-540v6.2c-0.1,3.4,2.5,6.2,5.9,6.4c3.4,0.1,6.2-2.5,6.4-5.9
			c0-0.2,0-0.3,0-0.5v-6.2c0.1-3.4-2.5-6.2-5.9-6.4s-6.2,2.5-6.4,5.9C-27.2-540.4-27.2-540.2-27.2-540z M-41.1-527.5H-29v-3.7h-8.5
			v-15.2h-3.6V-527.5z M-37.5-562.7l4.9,10.6h3.6v-18.9h-3.6v10.7l-4.9-10.7h-3.7v18.9h3.7L-37.5-562.7L-37.5-562.7z M-58-558.2
			c-0.1,3.4,2.6,6.1,5.9,6.2h0.2c3.4-0.1,6-2.9,5.9-6.2v-12.7h-3.7v12.6c0,1.3-1,2.4-2.3,2.5c-1.3,0-2.4-1-2.5-2.3
			c0-0.1,0-0.1,0-0.2v-12.6H-58L-58-558.2z M-23-552h3.6V-571H-23V-552z M-70-519.2h-57.4v-60H-70L-70-519.2L-70-519.2z
			 M-120.2-527.5h13.9l3.6-18.3h-13.9l-2.1,10.7h3.6l1.4-6.8h6.6l-2.1,10.5h-10.3L-120.2-527.5z M-94.8-527.5h15.7v-18.3h-15.7
			L-94.8-527.5z M-118.4-552.6h15.7v-3.8h-3.6v-14.5h-10.2v3.8h6.7v10.7h-8.5V-552.6z M-94.7-552.7h15.6v-3.8h-15.6V-552.7z
			 M-93-567.2h12.1v-3.8H-93V-567.2z M-91.2-531.2V-542h8.4v10.8H-91.2z M-23.5-533.8v-6.2c0-1.3,1.1-2.4,2.4-2.4s2.4,1.1,2.4,2.4
			l0,0v6.2c0,1.3-1.1,2.4-2.4,2.4S-23.5-532.5-23.5-533.8L-23.5-533.8z M-54.4-533.8v-6.2c-0.1-1.3,1-2.4,2.3-2.5s2.4,1,2.5,2.3
			c0,0.1,0,0.1,0,0.2v6.2c0.1,1.3-0.9,2.4-2.3,2.5s-2.4-0.9-2.5-2.3C-54.4-533.7-54.4-533.7-54.4-533.8L-54.4-533.8z"/>
	</g>
	<g transform="translate(590 491)">
		<path class="st1" d="M-7.8-519.2h-57.4v-60h57.4L-7.8-519.2L-7.8-519.2z M-50.8-527.5L-50.8-527.5l1.2,3.9h3.7l-1.9-5.6
			c1.2-1.2,1.8-2.8,1.8-4.5v-6.2c0.2-3.3-2.4-6.2-5.7-6.4c-3.3-0.2-6.2,2.4-6.4,5.7c0,0.2,0,0.4,0,0.6v6.2c-0.1,3.4,2.6,6.3,6.1,6.4
			C-51.6-527.4-51.2-527.5-50.8-527.5L-50.8-527.5z M-27.2-540v6.2c-0.1,3.4,2.5,6.2,5.9,6.4c3.4,0.1,6.2-2.5,6.4-5.9
			c0-0.2,0-0.3,0-0.5v-6.2c0.1-3.4-2.5-6.2-5.9-6.4s-6.2,2.5-6.4,5.9C-27.2-540.4-27.2-540.2-27.2-540z M-41.1-527.5H-29v-3.7h-8.5
			v-15.2h-3.6V-527.5z M-37.5-562.7l4.9,10.6h3.6v-18.9h-3.6v10.7l-4.9-10.7h-3.7v18.9h3.7L-37.5-562.7L-37.5-562.7z M-58-558.2
			c-0.1,3.4,2.6,6.1,5.9,6.2h0.2c3.4-0.1,6-2.9,5.9-6.2v-12.7h-3.7v12.6c0,1.3-1,2.4-2.3,2.5c-1.3,0-2.4-1-2.5-2.3
			c0-0.1,0-0.1,0-0.2v-12.6H-58L-58-558.2z M-23-552h3.6V-571H-23V-552z M-70-519.2h-57.4v-60H-70L-70-519.2L-70-519.2z
			 M-120.2-527.5h13.9l3.6-18.3h-13.9l-2.1,10.7h3.6l1.4-6.8h6.6l-2.1,10.5h-10.3L-120.2-527.5z M-94.8-527.5h15.7v-18.3h-15.7
			L-94.8-527.5z M-118.4-552.6h15.7v-3.8h-3.6v-14.5h-10.2v3.8h6.7v10.7h-8.5V-552.6z M-94.7-552.7h15.6v-3.8h-15.6V-552.7z
			 M-93-567.2h12.1v-3.8H-93V-567.2z M-91.2-531.2V-542h8.4v10.8H-91.2z M-23.5-533.8v-6.2c0-1.3,1.1-2.4,2.4-2.4s2.4,1.1,2.4,2.4
			l0,0v6.2c0,1.3-1.1,2.4-2.4,2.4S-23.5-532.5-23.5-533.8L-23.5-533.8z M-54.4-533.8v-6.2c-0.1-1.3,1-2.4,2.3-2.5s2.4,1,2.5,2.3
			c0,0.1,0,0.1,0,0.2v6.2c0.1,1.3-0.9,2.4-2.3,2.5s-2.4-0.9-2.5-2.3C-54.4-533.7-54.4-533.7-54.4-533.8L-54.4-533.8z"/>
	</g>
	<g transform="translate(590 736)">
		<path class="st1" d="M-7.8-519.2h-57.4v-60h57.4L-7.8-519.2L-7.8-519.2z M-50.8-527.5L-50.8-527.5l1.2,3.9h3.7l-1.9-5.6
			c1.2-1.2,1.8-2.8,1.8-4.5v-6.2c0.2-3.3-2.4-6.2-5.7-6.4c-3.3-0.2-6.2,2.4-6.4,5.7c0,0.2,0,0.4,0,0.6v6.2c-0.1,3.4,2.6,6.3,6.1,6.4
			C-51.6-527.4-51.2-527.5-50.8-527.5L-50.8-527.5z M-27.2-540v6.2c-0.1,3.4,2.5,6.2,5.9,6.4c3.4,0.1,6.2-2.5,6.4-5.9
			c0-0.2,0-0.3,0-0.5v-6.2c0.1-3.4-2.5-6.2-5.9-6.4s-6.2,2.5-6.4,5.9C-27.2-540.4-27.2-540.2-27.2-540z M-41.1-527.5H-29v-3.7h-8.5
			v-15.2h-3.6V-527.5z M-37.5-562.7l4.9,10.6h3.6v-18.9h-3.6v10.7l-4.9-10.7h-3.7v18.9h3.7L-37.5-562.7L-37.5-562.7z M-58-558.2
			c-0.1,3.4,2.6,6.1,5.9,6.2h0.2c3.4-0.1,6-2.9,5.9-6.2v-12.7h-3.7v12.6c0,1.3-1,2.4-2.3,2.5c-1.3,0-2.4-1-2.5-2.3
			c0-0.1,0-0.1,0-0.2v-12.6H-58L-58-558.2z M-23-552h3.6V-571H-23V-552z M-70-519.2h-57.4v-60H-70L-70-519.2L-70-519.2z
			 M-120.2-527.5h13.9l3.6-18.3h-13.9l-2.1,10.7h3.6l1.4-6.8h6.6l-2.1,10.5h-10.3L-120.2-527.5z M-94.8-527.5h15.7v-18.3h-15.7
			L-94.8-527.5z M-118.4-552.6h15.7v-3.8h-3.6v-14.5h-10.2v3.8h6.7v10.7h-8.5V-552.6z M-94.7-552.7h15.6v-3.8h-15.6V-552.7z
			 M-93-567.2h12.1v-3.8H-93V-567.2z M-91.2-531.2V-542h8.4v10.8H-91.2z M-23.5-533.8v-6.2c0-1.3,1.1-2.4,2.4-2.4s2.4,1.1,2.4,2.4
			l0,0v6.2c0,1.3-1.1,2.4-2.4,2.4S-23.5-532.5-23.5-533.8L-23.5-533.8z M-54.4-533.8v-6.2c-0.1-1.3,1-2.4,2.3-2.5s2.4,1,2.5,2.3
			c0,0.1,0,0.1,0,0.2v6.2c0.1,1.3-0.9,2.4-2.3,2.5s-2.4-0.9-2.5-2.3C-54.4-533.7-54.4-533.7-54.4-533.8L-54.4-533.8z"/>
	</g>
	<g transform="translate(735 123)">
		<path class="st1" d="M-7.8-519.2h-57.4v-60h57.4L-7.8-519.2L-7.8-519.2z M-50.8-527.5L-50.8-527.5l1.2,3.9h3.7l-1.9-5.6
			c1.2-1.2,1.8-2.8,1.8-4.5v-6.2c0.2-3.3-2.4-6.2-5.7-6.4c-3.3-0.2-6.2,2.4-6.4,5.7c0,0.2,0,0.4,0,0.6v6.2c-0.1,3.4,2.6,6.3,6.1,6.4
			C-51.6-527.4-51.2-527.5-50.8-527.5L-50.8-527.5z M-27.2-540v6.2c-0.1,3.4,2.5,6.2,5.9,6.4c3.4,0.1,6.2-2.5,6.4-5.9
			c0-0.2,0-0.3,0-0.5v-6.2c0.1-3.4-2.5-6.2-5.9-6.4s-6.2,2.5-6.4,5.9C-27.2-540.4-27.2-540.2-27.2-540z M-41.1-527.5H-29v-3.7h-8.5
			v-15.2h-3.6V-527.5z M-37.5-562.7l4.9,10.6h3.6v-18.9h-3.6v10.7l-4.9-10.7h-3.7v18.9h3.7L-37.5-562.7L-37.5-562.7z M-58-558.2
			c-0.1,3.4,2.6,6.1,5.9,6.2h0.2c3.4-0.1,6-2.9,5.9-6.2v-12.7h-3.7v12.6c0,1.3-1,2.4-2.3,2.5c-1.3,0-2.4-1-2.5-2.3
			c0-0.1,0-0.1,0-0.2v-12.6H-58L-58-558.2z M-23-552h3.6V-571H-23V-552z M-70-519.2h-57.4v-60H-70L-70-519.2L-70-519.2z
			 M-120.2-527.5h13.9l3.6-18.3h-13.9l-2.1,10.7h3.6l1.4-6.8h6.6l-2.1,10.5h-10.3L-120.2-527.5z M-94.8-527.5h15.7v-18.3h-15.7
			L-94.8-527.5z M-118.4-552.6h15.7v-3.8h-3.6v-14.5h-10.2v3.8h6.7v10.7h-8.5V-552.6z M-94.7-552.7h15.6v-3.8h-15.6V-552.7z
			 M-93-567.2h12.1v-3.8H-93V-567.2z M-91.2-531.2V-542h8.4v10.8H-91.2z M-23.5-533.8v-6.2c0-1.3,1.1-2.4,2.4-2.4s2.4,1.1,2.4,2.4
			l0,0v6.2c0,1.3-1.1,2.4-2.4,2.4S-23.5-532.5-23.5-533.8L-23.5-533.8z M-54.4-533.8v-6.2c-0.1-1.3,1-2.4,2.3-2.5s2.4,1,2.5,2.3
			c0,0.1,0,0.1,0,0.2v6.2c0.1,1.3-0.9,2.4-2.3,2.5s-2.4-0.9-2.5-2.3C-54.4-533.7-54.4-533.7-54.4-533.8L-54.4-533.8z"/>
	</g>
	<g transform="translate(735 369)">
		<path class="st1" d="M-7.8-519.2h-57.4v-60h57.4L-7.8-519.2L-7.8-519.2z M-50.8-527.5L-50.8-527.5l1.2,3.9h3.7l-1.9-5.6
			c1.2-1.2,1.8-2.8,1.8-4.5v-6.2c0.2-3.3-2.4-6.2-5.7-6.4c-3.3-0.2-6.2,2.4-6.4,5.7c0,0.2,0,0.4,0,0.6v6.2c-0.1,3.4,2.6,6.3,6.1,6.4
			C-51.6-527.4-51.2-527.5-50.8-527.5L-50.8-527.5z M-27.2-540v6.2c-0.1,3.4,2.5,6.2,5.9,6.4c3.4,0.1,6.2-2.5,6.4-5.9
			c0-0.2,0-0.3,0-0.5v-6.2c0.1-3.4-2.5-6.2-5.9-6.4s-6.2,2.5-6.4,5.9C-27.2-540.4-27.2-540.2-27.2-540z M-41.1-527.5H-29v-3.7h-8.5
			v-15.2h-3.6V-527.5z M-37.5-562.7l4.9,10.6h3.6v-18.9h-3.6v10.7l-4.9-10.7h-3.7v18.9h3.7L-37.5-562.7L-37.5-562.7z M-58-558.2
			c-0.1,3.4,2.6,6.1,5.9,6.2h0.2c3.4-0.1,6-2.9,5.9-6.2v-12.7h-3.7v12.6c0,1.3-1,2.4-2.3,2.5c-1.3,0-2.4-1-2.5-2.3
			c0-0.1,0-0.1,0-0.2v-12.6H-58L-58-558.2z M-23-552h3.6V-571H-23V-552z M-70-519.2h-57.4v-60H-70L-70-519.2L-70-519.2z
			 M-120.2-527.5h13.9l3.6-18.3h-13.9l-2.1,10.7h3.6l1.4-6.8h6.6l-2.1,10.5h-10.3L-120.2-527.5z M-94.8-527.5h15.7v-18.3h-15.7
			L-94.8-527.5z M-118.4-552.6h15.7v-3.8h-3.6v-14.5h-10.2v3.8h6.7v10.7h-8.5V-552.6z M-94.7-552.7h15.6v-3.8h-15.6V-552.7z
			 M-93-567.2h12.1v-3.8H-93V-567.2z M-91.2-531.2V-542h8.4v10.8H-91.2z M-23.5-533.8v-6.2c0-1.3,1.1-2.4,2.4-2.4s2.4,1.1,2.4,2.4
			l0,0v6.2c0,1.3-1.1,2.4-2.4,2.4S-23.5-532.5-23.5-533.8L-23.5-533.8z M-54.4-533.8v-6.2c-0.1-1.3,1-2.4,2.3-2.5s2.4,1,2.5,2.3
			c0,0.1,0,0.1,0,0.2v6.2c0.1,1.3-0.9,2.4-2.3,2.5s-2.4-0.9-2.5-2.3C-54.4-533.7-54.4-533.7-54.4-533.8L-54.4-533.8z"/>
	</g>
	<g transform="translate(735 614)">
		<path class="st1" d="M-7.8-519.2h-57.4v-60h57.4L-7.8-519.2L-7.8-519.2z M-50.8-527.5L-50.8-527.5l1.2,3.9h3.7l-1.9-5.6
			c1.2-1.2,1.8-2.8,1.8-4.5v-6.2c0.2-3.3-2.4-6.2-5.7-6.4c-3.3-0.2-6.2,2.4-6.4,5.7c0,0.2,0,0.4,0,0.6v6.2c-0.1,3.4,2.6,6.3,6.1,6.4
			C-51.6-527.4-51.2-527.5-50.8-527.5L-50.8-527.5z M-27.2-540v6.2c-0.1,3.4,2.5,6.2,5.9,6.4c3.4,0.1,6.2-2.5,6.4-5.9
			c0-0.2,0-0.3,0-0.5v-6.2c0.1-3.4-2.5-6.2-5.9-6.4s-6.2,2.5-6.4,5.9C-27.2-540.4-27.2-540.2-27.2-540z M-41.1-527.5H-29v-3.7h-8.5
			v-15.2h-3.6V-527.5z M-37.5-562.7l4.9,10.6h3.6v-18.9h-3.6v10.7l-4.9-10.7h-3.7v18.9h3.7L-37.5-562.7L-37.5-562.7z M-58-558.2
			c-0.1,3.4,2.6,6.1,5.9,6.2h0.2c3.4-0.1,6-2.9,5.9-6.2v-12.7h-3.7v12.6c0,1.3-1,2.4-2.3,2.5c-1.3,0-2.4-1-2.5-2.3
			c0-0.1,0-0.1,0-0.2v-12.6H-58L-58-558.2z M-23-552h3.6V-571H-23V-552z M-70-519.2h-57.4v-60H-70L-70-519.2L-70-519.2z
			 M-120.2-527.5h13.9l3.6-18.3h-13.9l-2.1,10.7h3.6l1.4-6.8h6.6l-2.1,10.5h-10.3L-120.2-527.5z M-94.8-527.5h15.7v-18.3h-15.7
			L-94.8-527.5z M-118.4-552.6h15.7v-3.8h-3.6v-14.5h-10.2v3.8h6.7v10.7h-8.5V-552.6z M-94.7-552.7h15.6v-3.8h-15.6V-552.7z
			 M-93-567.2h12.1v-3.8H-93V-567.2z M-91.2-531.2V-542h8.4v10.8H-91.2z M-23.5-533.8v-6.2c0-1.3,1.1-2.4,2.4-2.4s2.4,1.1,2.4,2.4
			l0,0v6.2c0,1.3-1.1,2.4-2.4,2.4S-23.5-532.5-23.5-533.8L-23.5-533.8z M-54.4-533.8v-6.2c-0.1-1.3,1-2.4,2.3-2.5s2.4,1,2.5,2.3
			c0,0.1,0,0.1,0,0.2v6.2c0.1,1.3-0.9,2.4-2.3,2.5s-2.4-0.9-2.5-2.3C-54.4-533.7-54.4-533.7-54.4-533.8L-54.4-533.8z"/>
	</g>
	<g transform="translate(885)">
		<path class="st1" d="M-7.8-519.2h-57.4v-60h57.4L-7.8-519.2L-7.8-519.2z M-50.8-527.5L-50.8-527.5l1.2,3.9h3.7l-1.9-5.6
			c1.2-1.2,1.8-2.8,1.8-4.5v-6.2c0.2-3.3-2.4-6.2-5.7-6.4c-3.3-0.2-6.2,2.4-6.4,5.7c0,0.2,0,0.4,0,0.6v6.2c-0.1,3.4,2.6,6.3,6.1,6.4
			C-51.6-527.4-51.2-527.5-50.8-527.5L-50.8-527.5z M-27.2-540v6.2c-0.1,3.4,2.5,6.2,5.9,6.4c3.4,0.1,6.2-2.5,6.4-5.9
			c0-0.2,0-0.3,0-0.5v-6.2c0.1-3.4-2.5-6.2-5.9-6.4s-6.2,2.5-6.4,5.9C-27.2-540.4-27.2-540.2-27.2-540z M-41.1-527.5H-29v-3.7h-8.5
			v-15.2h-3.6V-527.5z M-37.5-562.7l4.9,10.6h3.6v-18.9h-3.6v10.7l-4.9-10.7h-3.7v18.9h3.7L-37.5-562.7L-37.5-562.7z M-58-558.2
			c-0.1,3.4,2.6,6.1,5.9,6.2h0.2c3.4-0.1,6-2.9,5.9-6.2v-12.7h-3.7v12.6c0,1.3-1,2.4-2.3,2.5c-1.3,0-2.4-1-2.5-2.3
			c0-0.1,0-0.1,0-0.2v-12.6H-58L-58-558.2z M-23-552h3.6V-571H-23V-552z M-70-519.2h-57.4v-60H-70L-70-519.2L-70-519.2z
			 M-120.2-527.5h13.9l3.6-18.3h-13.9l-2.1,10.7h3.6l1.4-6.8h6.6l-2.1,10.5h-10.3L-120.2-527.5z M-94.8-527.5h15.7v-18.3h-15.7
			L-94.8-527.5z M-118.4-552.6h15.7v-3.8h-3.6v-14.5h-10.2v3.8h6.7v10.7h-8.5V-552.6z M-94.7-552.7h15.6v-3.8h-15.6V-552.7z
			 M-93-567.2h12.1v-3.8H-93V-567.2z M-91.2-531.2V-542h8.4v10.8H-91.2z M-23.5-533.8v-6.2c0-1.3,1.1-2.4,2.4-2.4s2.4,1.1,2.4,2.4
			l0,0v6.2c0,1.3-1.1,2.4-2.4,2.4S-23.5-532.5-23.5-533.8L-23.5-533.8z M-54.4-533.8v-6.2c-0.1-1.3,1-2.4,2.3-2.5s2.4,1,2.5,2.3
			c0,0.1,0,0.1,0,0.2v6.2c0.1,1.3-0.9,2.4-2.3,2.5s-2.4-0.9-2.5-2.3C-54.4-533.7-54.4-533.7-54.4-533.8L-54.4-533.8z"/>
	</g>
	<g transform="translate(885 246)">
		<path class="st1" d="M-7.8-519.2h-57.4v-60h57.4L-7.8-519.2L-7.8-519.2z M-50.8-527.5L-50.8-527.5l1.2,3.9h3.7l-1.9-5.6
			c1.2-1.2,1.8-2.8,1.8-4.5v-6.2c0.2-3.3-2.4-6.2-5.7-6.4c-3.3-0.2-6.2,2.4-6.4,5.7c0,0.2,0,0.4,0,0.6v6.2c-0.1,3.4,2.6,6.3,6.1,6.4
			C-51.6-527.4-51.2-527.5-50.8-527.5L-50.8-527.5z M-27.2-540v6.2c-0.1,3.4,2.5,6.2,5.9,6.4c3.4,0.1,6.2-2.5,6.4-5.9
			c0-0.2,0-0.3,0-0.5v-6.2c0.1-3.4-2.5-6.2-5.9-6.4s-6.2,2.5-6.4,5.9C-27.2-540.4-27.2-540.2-27.2-540z M-41.1-527.5H-29v-3.7h-8.5
			v-15.2h-3.6V-527.5z M-37.5-562.7l4.9,10.6h3.6v-18.9h-3.6v10.7l-4.9-10.7h-3.7v18.9h3.7L-37.5-562.7L-37.5-562.7z M-58-558.2
			c-0.1,3.4,2.6,6.1,5.9,6.2h0.2c3.4-0.1,6-2.9,5.9-6.2v-12.7h-3.7v12.6c0,1.3-1,2.4-2.3,2.5c-1.3,0-2.4-1-2.5-2.3
			c0-0.1,0-0.1,0-0.2v-12.6H-58L-58-558.2z M-23-552h3.6V-571H-23V-552z M-70-519.2h-57.4v-60H-70L-70-519.2L-70-519.2z
			 M-120.2-527.5h13.9l3.6-18.3h-13.9l-2.1,10.7h3.6l1.4-6.8h6.6l-2.1,10.5h-10.3L-120.2-527.5z M-94.8-527.5h15.7v-18.3h-15.7
			L-94.8-527.5z M-118.4-552.6h15.7v-3.8h-3.6v-14.5h-10.2v3.8h6.7v10.7h-8.5V-552.6z M-94.7-552.7h15.6v-3.8h-15.6V-552.7z
			 M-93-567.2h12.1v-3.8H-93V-567.2z M-91.2-531.2V-542h8.4v10.8H-91.2z M-23.5-533.8v-6.2c0-1.3,1.1-2.4,2.4-2.4s2.4,1.1,2.4,2.4
			l0,0v6.2c0,1.3-1.1,2.4-2.4,2.4S-23.5-532.5-23.5-533.8L-23.5-533.8z M-54.4-533.8v-6.2c-0.1-1.3,1-2.4,2.3-2.5s2.4,1,2.5,2.3
			c0,0.1,0,0.1,0,0.2v6.2c0.1,1.3-0.9,2.4-2.3,2.5s-2.4-0.9-2.5-2.3C-54.4-533.7-54.4-533.7-54.4-533.8L-54.4-533.8z"/>
	</g>
	<g transform="translate(885 491)">
		<path class="st1" d="M-7.8-519.2h-57.4v-60h57.4L-7.8-519.2L-7.8-519.2z M-50.8-527.5L-50.8-527.5l1.2,3.9h3.7l-1.9-5.6
			c1.2-1.2,1.8-2.8,1.8-4.5v-6.2c0.2-3.3-2.4-6.2-5.7-6.4c-3.3-0.2-6.2,2.4-6.4,5.7c0,0.2,0,0.4,0,0.6v6.2c-0.1,3.4,2.6,6.3,6.1,6.4
			C-51.6-527.4-51.2-527.5-50.8-527.5L-50.8-527.5z M-27.2-540v6.2c-0.1,3.4,2.5,6.2,5.9,6.4c3.4,0.1,6.2-2.5,6.4-5.9
			c0-0.2,0-0.3,0-0.5v-6.2c0.1-3.4-2.5-6.2-5.9-6.4s-6.2,2.5-6.4,5.9C-27.2-540.4-27.2-540.2-27.2-540z M-41.1-527.5H-29v-3.7h-8.5
			v-15.2h-3.6V-527.5z M-37.5-562.7l4.9,10.6h3.6v-18.9h-3.6v10.7l-4.9-10.7h-3.7v18.9h3.7L-37.5-562.7L-37.5-562.7z M-58-558.2
			c-0.1,3.4,2.6,6.1,5.9,6.2h0.2c3.4-0.1,6-2.9,5.9-6.2v-12.7h-3.7v12.6c0,1.3-1,2.4-2.3,2.5c-1.3,0-2.4-1-2.5-2.3
			c0-0.1,0-0.1,0-0.2v-12.6H-58L-58-558.2z M-23-552h3.6V-571H-23V-552z M-70-519.2h-57.4v-60H-70L-70-519.2L-70-519.2z
			 M-120.2-527.5h13.9l3.6-18.3h-13.9l-2.1,10.7h3.6l1.4-6.8h6.6l-2.1,10.5h-10.3L-120.2-527.5z M-94.8-527.5h15.7v-18.3h-15.7
			L-94.8-527.5z M-118.4-552.6h15.7v-3.8h-3.6v-14.5h-10.2v3.8h6.7v10.7h-8.5V-552.6z M-94.7-552.7h15.6v-3.8h-15.6V-552.7z
			 M-93-567.2h12.1v-3.8H-93V-567.2z M-91.2-531.2V-542h8.4v10.8H-91.2z M-23.5-533.8v-6.2c0-1.3,1.1-2.4,2.4-2.4s2.4,1.1,2.4,2.4
			l0,0v6.2c0,1.3-1.1,2.4-2.4,2.4S-23.5-532.5-23.5-533.8L-23.5-533.8z M-54.4-533.8v-6.2c-0.1-1.3,1-2.4,2.3-2.5s2.4,1,2.5,2.3
			c0,0.1,0,0.1,0,0.2v6.2c0.1,1.3-0.9,2.4-2.3,2.5s-2.4-0.9-2.5-2.3C-54.4-533.7-54.4-533.7-54.4-533.8L-54.4-533.8z"/>
	</g>
	<g transform="translate(885 736)">
		<path class="st1" d="M-7.8-519.2h-57.4v-60h57.4L-7.8-519.2L-7.8-519.2z M-50.8-527.5L-50.8-527.5l1.2,3.9h3.7l-1.9-5.6
			c1.2-1.2,1.8-2.8,1.8-4.5v-6.2c0.2-3.3-2.4-6.2-5.7-6.4c-3.3-0.2-6.2,2.4-6.4,5.7c0,0.2,0,0.4,0,0.6v6.2c-0.1,3.4,2.6,6.3,6.1,6.4
			C-51.6-527.4-51.2-527.5-50.8-527.5L-50.8-527.5z M-27.2-540v6.2c-0.1,3.4,2.5,6.2,5.9,6.4c3.4,0.1,6.2-2.5,6.4-5.9
			c0-0.2,0-0.3,0-0.5v-6.2c0.1-3.4-2.5-6.2-5.9-6.4s-6.2,2.5-6.4,5.9C-27.2-540.4-27.2-540.2-27.2-540z M-41.1-527.5H-29v-3.7h-8.5
			v-15.2h-3.6V-527.5z M-37.5-562.7l4.9,10.6h3.6v-18.9h-3.6v10.7l-4.9-10.7h-3.7v18.9h3.7L-37.5-562.7L-37.5-562.7z M-58-558.2
			c-0.1,3.4,2.6,6.1,5.9,6.2h0.2c3.4-0.1,6-2.9,5.9-6.2v-12.7h-3.7v12.6c0,1.3-1,2.4-2.3,2.5c-1.3,0-2.4-1-2.5-2.3
			c0-0.1,0-0.1,0-0.2v-12.6H-58L-58-558.2z M-23-552h3.6V-571H-23V-552z M-70-519.2h-57.4v-60H-70L-70-519.2L-70-519.2z
			 M-120.2-527.5h13.9l3.6-18.3h-13.9l-2.1,10.7h3.6l1.4-6.8h6.6l-2.1,10.5h-10.3L-120.2-527.5z M-94.8-527.5h15.7v-18.3h-15.7
			L-94.8-527.5z M-118.4-552.6h15.7v-3.8h-3.6v-14.5h-10.2v3.8h6.7v10.7h-8.5V-552.6z M-94.7-552.7h15.6v-3.8h-15.6V-552.7z
			 M-93-567.2h12.1v-3.8H-93V-567.2z M-91.2-531.2V-542h8.4v10.8H-91.2z M-23.5-533.8v-6.2c0-1.3,1.1-2.4,2.4-2.4s2.4,1.1,2.4,2.4
			l0,0v6.2c0,1.3-1.1,2.4-2.4,2.4S-23.5-532.5-23.5-533.8L-23.5-533.8z M-54.4-533.8v-6.2c-0.1-1.3,1-2.4,2.3-2.5s2.4,1,2.5,2.3
			c0,0.1,0,0.1,0,0.2v6.2c0.1,1.3-0.9,2.4-2.3,2.5s-2.4-0.9-2.5-2.3C-54.4-533.7-54.4-533.7-54.4-533.8L-54.4-533.8z"/>
	</g>
	<g transform="translate(1030 123)">
		<path class="st1" d="M-7.8-519.2h-57.4v-60h57.4L-7.8-519.2L-7.8-519.2z M-50.8-527.5L-50.8-527.5l1.2,3.9h3.7l-1.9-5.6
			c1.2-1.2,1.8-2.8,1.8-4.5v-6.2c0.2-3.3-2.4-6.2-5.7-6.4c-3.3-0.2-6.2,2.4-6.4,5.7c0,0.2,0,0.4,0,0.6v6.2c-0.1,3.4,2.6,6.3,6.1,6.4
			C-51.6-527.4-51.2-527.5-50.8-527.5L-50.8-527.5z M-27.2-540v6.2c-0.1,3.4,2.5,6.2,5.9,6.4c3.4,0.1,6.2-2.5,6.4-5.9
			c0-0.2,0-0.3,0-0.5v-6.2c0.1-3.4-2.5-6.2-5.9-6.4s-6.2,2.5-6.4,5.9C-27.2-540.4-27.2-540.2-27.2-540z M-41.1-527.5H-29v-3.7h-8.5
			v-15.2h-3.6V-527.5z M-37.5-562.7l4.9,10.6h3.6v-18.9h-3.6v10.7l-4.9-10.7h-3.7v18.9h3.7L-37.5-562.7L-37.5-562.7z M-58-558.2
			c-0.1,3.4,2.6,6.1,5.9,6.2h0.2c3.4-0.1,6-2.9,5.9-6.2v-12.7h-3.7v12.6c0,1.3-1,2.4-2.3,2.5c-1.3,0-2.4-1-2.5-2.3
			c0-0.1,0-0.1,0-0.2v-12.6H-58L-58-558.2z M-23-552h3.6V-571H-23V-552z M-70-519.2h-57.4v-60H-70L-70-519.2L-70-519.2z
			 M-120.2-527.5h13.9l3.6-18.3h-13.9l-2.1,10.7h3.6l1.4-6.8h6.6l-2.1,10.5h-10.3L-120.2-527.5z M-94.8-527.5h15.7v-18.3h-15.7
			L-94.8-527.5z M-118.4-552.6h15.7v-3.8h-3.6v-14.5h-10.2v3.8h6.7v10.7h-8.5V-552.6z M-94.7-552.7h15.6v-3.8h-15.6V-552.7z
			 M-93-567.2h12.1v-3.8H-93V-567.2z M-91.2-531.2V-542h8.4v10.8H-91.2z M-23.5-533.8v-6.2c0-1.3,1.1-2.4,2.4-2.4s2.4,1.1,2.4,2.4
			l0,0v6.2c0,1.3-1.1,2.4-2.4,2.4S-23.5-532.5-23.5-533.8L-23.5-533.8z M-54.4-533.8v-6.2c-0.1-1.3,1-2.4,2.3-2.5s2.4,1,2.5,2.3
			c0,0.1,0,0.1,0,0.2v6.2c0.1,1.3-0.9,2.4-2.3,2.5s-2.4-0.9-2.5-2.3C-54.4-533.7-54.4-533.7-54.4-533.8L-54.4-533.8z"/>
	</g>
	<g transform="translate(1030 369)">
		<path class="st1" d="M-7.8-519.2h-57.4v-60h57.4L-7.8-519.2L-7.8-519.2z M-50.8-527.5L-50.8-527.5l1.2,3.9h3.7l-1.9-5.6
			c1.2-1.2,1.8-2.8,1.8-4.5v-6.2c0.2-3.3-2.4-6.2-5.7-6.4c-3.3-0.2-6.2,2.4-6.4,5.7c0,0.2,0,0.4,0,0.6v6.2c-0.1,3.4,2.6,6.3,6.1,6.4
			C-51.6-527.4-51.2-527.5-50.8-527.5L-50.8-527.5z M-27.2-540v6.2c-0.1,3.4,2.5,6.2,5.9,6.4c3.4,0.1,6.2-2.5,6.4-5.9
			c0-0.2,0-0.3,0-0.5v-6.2c0.1-3.4-2.5-6.2-5.9-6.4s-6.2,2.5-6.4,5.9C-27.2-540.4-27.2-540.2-27.2-540z M-41.1-527.5H-29v-3.7h-8.5
			v-15.2h-3.6V-527.5z M-37.5-562.7l4.9,10.6h3.6v-18.9h-3.6v10.7l-4.9-10.7h-3.7v18.9h3.7L-37.5-562.7L-37.5-562.7z M-58-558.2
			c-0.1,3.4,2.6,6.1,5.9,6.2h0.2c3.4-0.1,6-2.9,5.9-6.2v-12.7h-3.7v12.6c0,1.3-1,2.4-2.3,2.5c-1.3,0-2.4-1-2.5-2.3
			c0-0.1,0-0.1,0-0.2v-12.6H-58L-58-558.2z M-23-552h3.6V-571H-23V-552z M-70-519.2h-57.4v-60H-70L-70-519.2L-70-519.2z
			 M-120.2-527.5h13.9l3.6-18.3h-13.9l-2.1,10.7h3.6l1.4-6.8h6.6l-2.1,10.5h-10.3L-120.2-527.5z M-94.8-527.5h15.7v-18.3h-15.7
			L-94.8-527.5z M-118.4-552.6h15.7v-3.8h-3.6v-14.5h-10.2v3.8h6.7v10.7h-8.5V-552.6z M-94.7-552.7h15.6v-3.8h-15.6V-552.7z
			 M-93-567.2h12.1v-3.8H-93V-567.2z M-91.2-531.2V-542h8.4v10.8H-91.2z M-23.5-533.8v-6.2c0-1.3,1.1-2.4,2.4-2.4s2.4,1.1,2.4,2.4
			l0,0v6.2c0,1.3-1.1,2.4-2.4,2.4S-23.5-532.5-23.5-533.8L-23.5-533.8z M-54.4-533.8v-6.2c-0.1-1.3,1-2.4,2.3-2.5s2.4,1,2.5,2.3
			c0,0.1,0,0.1,0,0.2v6.2c0.1,1.3-0.9,2.4-2.3,2.5s-2.4-0.9-2.5-2.3C-54.4-533.7-54.4-533.7-54.4-533.8L-54.4-533.8z"/>
	</g>
	<g transform="translate(1030 614)">
		<path class="st1" d="M-7.8-519.2h-57.4v-60h57.4L-7.8-519.2L-7.8-519.2z M-50.8-527.5L-50.8-527.5l1.2,3.9h3.7l-1.9-5.6
			c1.2-1.2,1.8-2.8,1.8-4.5v-6.2c0.2-3.3-2.4-6.2-5.7-6.4c-3.3-0.2-6.2,2.4-6.4,5.7c0,0.2,0,0.4,0,0.6v6.2c-0.1,3.4,2.6,6.3,6.1,6.4
			C-51.6-527.4-51.2-527.5-50.8-527.5L-50.8-527.5z M-27.2-540v6.2c-0.1,3.4,2.5,6.2,5.9,6.4c3.4,0.1,6.2-2.5,6.4-5.9
			c0-0.2,0-0.3,0-0.5v-6.2c0.1-3.4-2.5-6.2-5.9-6.4s-6.2,2.5-6.4,5.9C-27.2-540.4-27.2-540.2-27.2-540z M-41.1-527.5H-29v-3.7h-8.5
			v-15.2h-3.6V-527.5z M-37.5-562.7l4.9,10.6h3.6v-18.9h-3.6v10.7l-4.9-10.7h-3.7v18.9h3.7L-37.5-562.7L-37.5-562.7z M-58-558.2
			c-0.1,3.4,2.6,6.1,5.9,6.2h0.2c3.4-0.1,6-2.9,5.9-6.2v-12.7h-3.7v12.6c0,1.3-1,2.4-2.3,2.5c-1.3,0-2.4-1-2.5-2.3
			c0-0.1,0-0.1,0-0.2v-12.6H-58L-58-558.2z M-23-552h3.6V-571H-23V-552z M-70-519.2h-57.4v-60H-70L-70-519.2L-70-519.2z
			 M-120.2-527.5h13.9l3.6-18.3h-13.9l-2.1,10.7h3.6l1.4-6.8h6.6l-2.1,10.5h-10.3L-120.2-527.5z M-94.8-527.5h15.7v-18.3h-15.7
			L-94.8-527.5z M-118.4-552.6h15.7v-3.8h-3.6v-14.5h-10.2v3.8h6.7v10.7h-8.5V-552.6z M-94.7-552.7h15.6v-3.8h-15.6V-552.7z
			 M-93-567.2h12.1v-3.8H-93V-567.2z M-91.2-531.2V-542h8.4v10.8H-91.2z M-23.5-533.8v-6.2c0-1.3,1.1-2.4,2.4-2.4s2.4,1.1,2.4,2.4
			l0,0v6.2c0,1.3-1.1,2.4-2.4,2.4S-23.5-532.5-23.5-533.8L-23.5-533.8z M-54.4-533.8v-6.2c-0.1-1.3,1-2.4,2.3-2.5s2.4,1,2.5,2.3
			c0,0.1,0,0.1,0,0.2v6.2c0.1,1.3-0.9,2.4-2.3,2.5s-2.4-0.9-2.5-2.3C-54.4-533.7-54.4-533.7-54.4-533.8L-54.4-533.8z"/>
	</g>
	<g transform="translate(1180)">
		<path class="st1" d="M-7.8-519.2h-57.4v-60h57.4L-7.8-519.2L-7.8-519.2z M-50.8-527.5L-50.8-527.5l1.2,3.9h3.7l-1.9-5.6
			c1.2-1.2,1.8-2.8,1.8-4.5v-6.2c0.2-3.3-2.4-6.2-5.7-6.4c-3.3-0.2-6.2,2.4-6.4,5.7c0,0.2,0,0.4,0,0.6v6.2c-0.1,3.4,2.6,6.3,6.1,6.4
			C-51.6-527.4-51.2-527.5-50.8-527.5L-50.8-527.5z M-27.2-540v6.2c-0.1,3.4,2.5,6.2,5.9,6.4c3.4,0.1,6.2-2.5,6.4-5.9
			c0-0.2,0-0.3,0-0.5v-6.2c0.1-3.4-2.5-6.2-5.9-6.4s-6.2,2.5-6.4,5.9C-27.2-540.4-27.2-540.2-27.2-540z M-41.1-527.5H-29v-3.7h-8.5
			v-15.2h-3.6V-527.5z M-37.5-562.7l4.9,10.6h3.6v-18.9h-3.6v10.7l-4.9-10.7h-3.7v18.9h3.7L-37.5-562.7L-37.5-562.7z M-58-558.2
			c-0.1,3.4,2.6,6.1,5.9,6.2h0.2c3.4-0.1,6-2.9,5.9-6.2v-12.7h-3.7v12.6c0,1.3-1,2.4-2.3,2.5c-1.3,0-2.4-1-2.5-2.3
			c0-0.1,0-0.1,0-0.2v-12.6H-58L-58-558.2z M-23-552h3.6V-571H-23V-552z M-70-519.2h-57.4v-60H-70L-70-519.2L-70-519.2z
			 M-120.2-527.5h13.9l3.6-18.3h-13.9l-2.1,10.7h3.6l1.4-6.8h6.6l-2.1,10.5h-10.3L-120.2-527.5z M-94.8-527.5h15.7v-18.3h-15.7
			L-94.8-527.5z M-118.4-552.6h15.7v-3.8h-3.6v-14.5h-10.2v3.8h6.7v10.7h-8.5V-552.6z M-94.7-552.7h15.6v-3.8h-15.6V-552.7z
			 M-93-567.2h12.1v-3.8H-93V-567.2z M-91.2-531.2V-542h8.4v10.8H-91.2z M-23.5-533.8v-6.2c0-1.3,1.1-2.4,2.4-2.4s2.4,1.1,2.4,2.4
			l0,0v6.2c0,1.3-1.1,2.4-2.4,2.4S-23.5-532.5-23.5-533.8L-23.5-533.8z M-54.4-533.8v-6.2c-0.1-1.3,1-2.4,2.3-2.5s2.4,1,2.5,2.3
			c0,0.1,0,0.1,0,0.2v6.2c0.1,1.3-0.9,2.4-2.3,2.5s-2.4-0.9-2.5-2.3C-54.4-533.7-54.4-533.7-54.4-533.8L-54.4-533.8z"/>
	</g>
	<g transform="translate(1180 246)">
		<path class="st1" d="M-7.8-519.2h-57.4v-60h57.4L-7.8-519.2L-7.8-519.2z M-50.8-527.5L-50.8-527.5l1.2,3.9h3.7l-1.9-5.6
			c1.2-1.2,1.8-2.8,1.8-4.5v-6.2c0.2-3.3-2.4-6.2-5.7-6.4c-3.3-0.2-6.2,2.4-6.4,5.7c0,0.2,0,0.4,0,0.6v6.2c-0.1,3.4,2.6,6.3,6.1,6.4
			C-51.6-527.4-51.2-527.5-50.8-527.5L-50.8-527.5z M-27.2-540v6.2c-0.1,3.4,2.5,6.2,5.9,6.4c3.4,0.1,6.2-2.5,6.4-5.9
			c0-0.2,0-0.3,0-0.5v-6.2c0.1-3.4-2.5-6.2-5.9-6.4s-6.2,2.5-6.4,5.9C-27.2-540.4-27.2-540.2-27.2-540z M-41.1-527.5H-29v-3.7h-8.5
			v-15.2h-3.6V-527.5z M-37.5-562.7l4.9,10.6h3.6v-18.9h-3.6v10.7l-4.9-10.7h-3.7v18.9h3.7L-37.5-562.7L-37.5-562.7z M-58-558.2
			c-0.1,3.4,2.6,6.1,5.9,6.2h0.2c3.4-0.1,6-2.9,5.9-6.2v-12.7h-3.7v12.6c0,1.3-1,2.4-2.3,2.5c-1.3,0-2.4-1-2.5-2.3
			c0-0.1,0-0.1,0-0.2v-12.6H-58L-58-558.2z M-23-552h3.6V-571H-23V-552z M-70-519.2h-57.4v-60H-70L-70-519.2L-70-519.2z
			 M-120.2-527.5h13.9l3.6-18.3h-13.9l-2.1,10.7h3.6l1.4-6.8h6.6l-2.1,10.5h-10.3L-120.2-527.5z M-94.8-527.5h15.7v-18.3h-15.7
			L-94.8-527.5z M-118.4-552.6h15.7v-3.8h-3.6v-14.5h-10.2v3.8h6.7v10.7h-8.5V-552.6z M-94.7-552.7h15.6v-3.8h-15.6V-552.7z
			 M-93-567.2h12.1v-3.8H-93V-567.2z M-91.2-531.2V-542h8.4v10.8H-91.2z M-23.5-533.8v-6.2c0-1.3,1.1-2.4,2.4-2.4s2.4,1.1,2.4,2.4
			l0,0v6.2c0,1.3-1.1,2.4-2.4,2.4S-23.5-532.5-23.5-533.8L-23.5-533.8z M-54.4-533.8v-6.2c-0.1-1.3,1-2.4,2.3-2.5s2.4,1,2.5,2.3
			c0,0.1,0,0.1,0,0.2v6.2c0.1,1.3-0.9,2.4-2.3,2.5s-2.4-0.9-2.5-2.3C-54.4-533.7-54.4-533.7-54.4-533.8L-54.4-533.8z"/>
	</g>
	<g transform="translate(1180 491)">
		<path class="st1" d="M-7.8-519.2h-57.4v-60h57.4L-7.8-519.2L-7.8-519.2z M-50.8-527.5L-50.8-527.5l1.2,3.9h3.7l-1.9-5.6
			c1.2-1.2,1.8-2.8,1.8-4.5v-6.2c0.2-3.3-2.4-6.2-5.7-6.4c-3.3-0.2-6.2,2.4-6.4,5.7c0,0.2,0,0.4,0,0.6v6.2c-0.1,3.4,2.6,6.3,6.1,6.4
			C-51.6-527.4-51.2-527.5-50.8-527.5L-50.8-527.5z M-27.2-540v6.2c-0.1,3.4,2.5,6.2,5.9,6.4c3.4,0.1,6.2-2.5,6.4-5.9
			c0-0.2,0-0.3,0-0.5v-6.2c0.1-3.4-2.5-6.2-5.9-6.4s-6.2,2.5-6.4,5.9C-27.2-540.4-27.2-540.2-27.2-540z M-41.1-527.5H-29v-3.7h-8.5
			v-15.2h-3.6V-527.5z M-37.5-562.7l4.9,10.6h3.6v-18.9h-3.6v10.7l-4.9-10.7h-3.7v18.9h3.7L-37.5-562.7L-37.5-562.7z M-58-558.2
			c-0.1,3.4,2.6,6.1,5.9,6.2h0.2c3.4-0.1,6-2.9,5.9-6.2v-12.7h-3.7v12.6c0,1.3-1,2.4-2.3,2.5c-1.3,0-2.4-1-2.5-2.3
			c0-0.1,0-0.1,0-0.2v-12.6H-58L-58-558.2z M-23-552h3.6V-571H-23V-552z M-70-519.2h-57.4v-60H-70L-70-519.2L-70-519.2z
			 M-120.2-527.5h13.9l3.6-18.3h-13.9l-2.1,10.7h3.6l1.4-6.8h6.6l-2.1,10.5h-10.3L-120.2-527.5z M-94.8-527.5h15.7v-18.3h-15.7
			L-94.8-527.5z M-118.4-552.6h15.7v-3.8h-3.6v-14.5h-10.2v3.8h6.7v10.7h-8.5V-552.6z M-94.7-552.7h15.6v-3.8h-15.6V-552.7z
			 M-93-567.2h12.1v-3.8H-93V-567.2z M-91.2-531.2V-542h8.4v10.8H-91.2z M-23.5-533.8v-6.2c0-1.3,1.1-2.4,2.4-2.4s2.4,1.1,2.4,2.4
			l0,0v6.2c0,1.3-1.1,2.4-2.4,2.4S-23.5-532.5-23.5-533.8L-23.5-533.8z M-54.4-533.8v-6.2c-0.1-1.3,1-2.4,2.3-2.5s2.4,1,2.5,2.3
			c0,0.1,0,0.1,0,0.2v6.2c0.1,1.3-0.9,2.4-2.3,2.5s-2.4-0.9-2.5-2.3C-54.4-533.7-54.4-533.7-54.4-533.8L-54.4-533.8z"/>
	</g>
	<g transform="translate(1180 736)">
		<path class="st1" d="M-7.8-519.2h-57.4v-60h57.4L-7.8-519.2L-7.8-519.2z M-50.8-527.5L-50.8-527.5l1.2,3.9h3.7l-1.9-5.6
			c1.2-1.2,1.8-2.8,1.8-4.5v-6.2c0.2-3.3-2.4-6.2-5.7-6.4c-3.3-0.2-6.2,2.4-6.4,5.7c0,0.2,0,0.4,0,0.6v6.2c-0.1,3.4,2.6,6.3,6.1,6.4
			C-51.6-527.4-51.2-527.5-50.8-527.5L-50.8-527.5z M-27.2-540v6.2c-0.1,3.4,2.5,6.2,5.9,6.4c3.4,0.1,6.2-2.5,6.4-5.9
			c0-0.2,0-0.3,0-0.5v-6.2c0.1-3.4-2.5-6.2-5.9-6.4s-6.2,2.5-6.4,5.9C-27.2-540.4-27.2-540.2-27.2-540z M-41.1-527.5H-29v-3.7h-8.5
			v-15.2h-3.6V-527.5z M-37.5-562.7l4.9,10.6h3.6v-18.9h-3.6v10.7l-4.9-10.7h-3.7v18.9h3.7L-37.5-562.7L-37.5-562.7z M-58-558.2
			c-0.1,3.4,2.6,6.1,5.9,6.2h0.2c3.4-0.1,6-2.9,5.9-6.2v-12.7h-3.7v12.6c0,1.3-1,2.4-2.3,2.5c-1.3,0-2.4-1-2.5-2.3
			c0-0.1,0-0.1,0-0.2v-12.6H-58L-58-558.2z M-23-552h3.6V-571H-23V-552z M-70-519.2h-57.4v-60H-70L-70-519.2L-70-519.2z
			 M-120.2-527.5h13.9l3.6-18.3h-13.9l-2.1,10.7h3.6l1.4-6.8h6.6l-2.1,10.5h-10.3L-120.2-527.5z M-94.8-527.5h15.7v-18.3h-15.7
			L-94.8-527.5z M-118.4-552.6h15.7v-3.8h-3.6v-14.5h-10.2v3.8h6.7v10.7h-8.5V-552.6z M-94.7-552.7h15.6v-3.8h-15.6V-552.7z
			 M-93-567.2h12.1v-3.8H-93V-567.2z M-91.2-531.2V-542h8.4v10.8H-91.2z M-23.5-533.8v-6.2c0-1.3,1.1-2.4,2.4-2.4s2.4,1.1,2.4,2.4
			l0,0v6.2c0,1.3-1.1,2.4-2.4,2.4S-23.5-532.5-23.5-533.8L-23.5-533.8z M-54.4-533.8v-6.2c-0.1-1.3,1-2.4,2.3-2.5s2.4,1,2.5,2.3
			c0,0.1,0,0.1,0,0.2v6.2c0.1,1.3-0.9,2.4-2.3,2.5s-2.4-0.9-2.5-2.3C-54.4-533.7-54.4-533.7-54.4-533.8L-54.4-533.8z"/>
	</g>
	<g transform="translate(1325 123)">
		<path class="st1" d="M-7.8-519.2h-57.4v-60h57.4L-7.8-519.2L-7.8-519.2z M-50.8-527.5L-50.8-527.5l1.2,3.9h3.7l-1.9-5.6
			c1.2-1.2,1.8-2.8,1.8-4.5v-6.2c0.2-3.3-2.4-6.2-5.7-6.4c-3.3-0.2-6.2,2.4-6.4,5.7c0,0.2,0,0.4,0,0.6v6.2c-0.1,3.4,2.6,6.3,6.1,6.4
			C-51.6-527.4-51.2-527.5-50.8-527.5L-50.8-527.5z M-27.2-540v6.2c-0.1,3.4,2.5,6.2,5.9,6.4c3.4,0.1,6.2-2.5,6.4-5.9
			c0-0.2,0-0.3,0-0.5v-6.2c0.1-3.4-2.5-6.2-5.9-6.4s-6.2,2.5-6.4,5.9C-27.2-540.4-27.2-540.2-27.2-540z M-41.1-527.5H-29v-3.7h-8.5
			v-15.2h-3.6V-527.5z M-37.5-562.7l4.9,10.6h3.6v-18.9h-3.6v10.7l-4.9-10.7h-3.7v18.9h3.7L-37.5-562.7L-37.5-562.7z M-58-558.2
			c-0.1,3.4,2.6,6.1,5.9,6.2h0.2c3.4-0.1,6-2.9,5.9-6.2v-12.7h-3.7v12.6c0,1.3-1,2.4-2.3,2.5c-1.3,0-2.4-1-2.5-2.3
			c0-0.1,0-0.1,0-0.2v-12.6H-58L-58-558.2z M-23-552h3.6V-571H-23V-552z M-70-519.2h-57.4v-60H-70L-70-519.2L-70-519.2z
			 M-120.2-527.5h13.9l3.6-18.3h-13.9l-2.1,10.7h3.6l1.4-6.8h6.6l-2.1,10.5h-10.3L-120.2-527.5z M-94.8-527.5h15.7v-18.3h-15.7
			L-94.8-527.5z M-118.4-552.6h15.7v-3.8h-3.6v-14.5h-10.2v3.8h6.7v10.7h-8.5V-552.6z M-94.7-552.7h15.6v-3.8h-15.6V-552.7z
			 M-93-567.2h12.1v-3.8H-93V-567.2z M-91.2-531.2V-542h8.4v10.8H-91.2z M-23.5-533.8v-6.2c0-1.3,1.1-2.4,2.4-2.4s2.4,1.1,2.4,2.4
			l0,0v6.2c0,1.3-1.1,2.4-2.4,2.4S-23.5-532.5-23.5-533.8L-23.5-533.8z M-54.4-533.8v-6.2c-0.1-1.3,1-2.4,2.3-2.5s2.4,1,2.5,2.3
			c0,0.1,0,0.1,0,0.2v6.2c0.1,1.3-0.9,2.4-2.3,2.5s-2.4-0.9-2.5-2.3C-54.4-533.7-54.4-533.7-54.4-533.8L-54.4-533.8z"/>
	</g>
	<g transform="translate(1325 369)">
		<path class="st1" d="M-7.8-519.2h-57.4v-60h57.4L-7.8-519.2L-7.8-519.2z M-50.8-527.5L-50.8-527.5l1.2,3.9h3.7l-1.9-5.6
			c1.2-1.2,1.8-2.8,1.8-4.5v-6.2c0.2-3.3-2.4-6.2-5.7-6.4c-3.3-0.2-6.2,2.4-6.4,5.7c0,0.2,0,0.4,0,0.6v6.2c-0.1,3.4,2.6,6.3,6.1,6.4
			C-51.6-527.4-51.2-527.5-50.8-527.5L-50.8-527.5z M-27.2-540v6.2c-0.1,3.4,2.5,6.2,5.9,6.4c3.4,0.1,6.2-2.5,6.4-5.9
			c0-0.2,0-0.3,0-0.5v-6.2c0.1-3.4-2.5-6.2-5.9-6.4s-6.2,2.5-6.4,5.9C-27.2-540.4-27.2-540.2-27.2-540z M-41.1-527.5H-29v-3.7h-8.5
			v-15.2h-3.6V-527.5z M-37.5-562.7l4.9,10.6h3.6v-18.9h-3.6v10.7l-4.9-10.7h-3.7v18.9h3.7L-37.5-562.7L-37.5-562.7z M-58-558.2
			c-0.1,3.4,2.6,6.1,5.9,6.2h0.2c3.4-0.1,6-2.9,5.9-6.2v-12.7h-3.7v12.6c0,1.3-1,2.4-2.3,2.5c-1.3,0-2.4-1-2.5-2.3
			c0-0.1,0-0.1,0-0.2v-12.6H-58L-58-558.2z M-23-552h3.6V-571H-23V-552z M-70-519.2h-57.4v-60H-70L-70-519.2L-70-519.2z
			 M-120.2-527.5h13.9l3.6-18.3h-13.9l-2.1,10.7h3.6l1.4-6.8h6.6l-2.1,10.5h-10.3L-120.2-527.5z M-94.8-527.5h15.7v-18.3h-15.7
			L-94.8-527.5z M-118.4-552.6h15.7v-3.8h-3.6v-14.5h-10.2v3.8h6.7v10.7h-8.5V-552.6z M-94.7-552.7h15.6v-3.8h-15.6V-552.7z
			 M-93-567.2h12.1v-3.8H-93V-567.2z M-91.2-531.2V-542h8.4v10.8H-91.2z M-23.5-533.8v-6.2c0-1.3,1.1-2.4,2.4-2.4s2.4,1.1,2.4,2.4
			l0,0v6.2c0,1.3-1.1,2.4-2.4,2.4S-23.5-532.5-23.5-533.8L-23.5-533.8z M-54.4-533.8v-6.2c-0.1-1.3,1-2.4,2.3-2.5s2.4,1,2.5,2.3
			c0,0.1,0,0.1,0,0.2v6.2c0.1,1.3-0.9,2.4-2.3,2.5s-2.4-0.9-2.5-2.3C-54.4-533.7-54.4-533.7-54.4-533.8L-54.4-533.8z"/>
	</g>
	<g transform="translate(1325 614)">
		<path class="st1" d="M-7.8-519.2h-57.4v-60h57.4L-7.8-519.2L-7.8-519.2z M-50.8-527.5L-50.8-527.5l1.2,3.9h3.7l-1.9-5.6
			c1.2-1.2,1.8-2.8,1.8-4.5v-6.2c0.2-3.3-2.4-6.2-5.7-6.4c-3.3-0.2-6.2,2.4-6.4,5.7c0,0.2,0,0.4,0,0.6v6.2c-0.1,3.4,2.6,6.3,6.1,6.4
			C-51.6-527.4-51.2-527.5-50.8-527.5L-50.8-527.5z M-27.2-540v6.2c-0.1,3.4,2.5,6.2,5.9,6.4c3.4,0.1,6.2-2.5,6.4-5.9
			c0-0.2,0-0.3,0-0.5v-6.2c0.1-3.4-2.5-6.2-5.9-6.4s-6.2,2.5-6.4,5.9C-27.2-540.4-27.2-540.2-27.2-540z M-41.1-527.5H-29v-3.7h-8.5
			v-15.2h-3.6V-527.5z M-37.5-562.7l4.9,10.6h3.6v-18.9h-3.6v10.7l-4.9-10.7h-3.7v18.9h3.7L-37.5-562.7L-37.5-562.7z M-58-558.2
			c-0.1,3.4,2.6,6.1,5.9,6.2h0.2c3.4-0.1,6-2.9,5.9-6.2v-12.7h-3.7v12.6c0,1.3-1,2.4-2.3,2.5c-1.3,0-2.4-1-2.5-2.3
			c0-0.1,0-0.1,0-0.2v-12.6H-58L-58-558.2z M-23-552h3.6V-571H-23V-552z M-70-519.2h-57.4v-60H-70L-70-519.2L-70-519.2z
			 M-120.2-527.5h13.9l3.6-18.3h-13.9l-2.1,10.7h3.6l1.4-6.8h6.6l-2.1,10.5h-10.3L-120.2-527.5z M-94.8-527.5h15.7v-18.3h-15.7
			L-94.8-527.5z M-118.4-552.6h15.7v-3.8h-3.6v-14.5h-10.2v3.8h6.7v10.7h-8.5V-552.6z M-94.7-552.7h15.6v-3.8h-15.6V-552.7z
			 M-93-567.2h12.1v-3.8H-93V-567.2z M-91.2-531.2V-542h8.4v10.8H-91.2z M-23.5-533.8v-6.2c0-1.3,1.1-2.4,2.4-2.4s2.4,1.1,2.4,2.4
			l0,0v6.2c0,1.3-1.1,2.4-2.4,2.4S-23.5-532.5-23.5-533.8L-23.5-533.8z M-54.4-533.8v-6.2c-0.1-1.3,1-2.4,2.3-2.5s2.4,1,2.5,2.3
			c0,0.1,0,0.1,0,0.2v6.2c0.1,1.3-0.9,2.4-2.3,2.5s-2.4-0.9-2.5-2.3C-54.4-533.7-54.4-533.7-54.4-533.8L-54.4-533.8z"/>
	</g>
	<g transform="translate(1475)">
		<path class="st1" d="M-7.8-519.2h-57.4v-60h57.4L-7.8-519.2L-7.8-519.2z M-50.8-527.5L-50.8-527.5l1.2,3.9h3.7l-1.9-5.6
			c1.2-1.2,1.8-2.8,1.8-4.5v-6.2c0.2-3.3-2.4-6.2-5.7-6.4c-3.3-0.2-6.2,2.4-6.4,5.7c0,0.2,0,0.4,0,0.6v6.2c-0.1,3.4,2.6,6.3,6.1,6.4
			C-51.6-527.4-51.2-527.5-50.8-527.5L-50.8-527.5z M-27.2-540v6.2c-0.1,3.4,2.5,6.2,5.9,6.4c3.4,0.1,6.2-2.5,6.4-5.9
			c0-0.2,0-0.3,0-0.5v-6.2c0.1-3.4-2.5-6.2-5.9-6.4s-6.2,2.5-6.4,5.9C-27.2-540.4-27.2-540.2-27.2-540z M-41.1-527.5H-29v-3.7h-8.5
			v-15.2h-3.6V-527.5z M-37.5-562.7l4.9,10.6h3.6v-18.9h-3.6v10.7l-4.9-10.7h-3.7v18.9h3.7L-37.5-562.7L-37.5-562.7z M-58-558.2
			c-0.1,3.4,2.6,6.1,5.9,6.2h0.2c3.4-0.1,6-2.9,5.9-6.2v-12.7h-3.7v12.6c0,1.3-1,2.4-2.3,2.5c-1.3,0-2.4-1-2.5-2.3
			c0-0.1,0-0.1,0-0.2v-12.6H-58L-58-558.2z M-23-552h3.6V-571H-23V-552z M-70-519.2h-57.4v-60H-70L-70-519.2L-70-519.2z
			 M-120.2-527.5h13.9l3.6-18.3h-13.9l-2.1,10.7h3.6l1.4-6.8h6.6l-2.1,10.5h-10.3L-120.2-527.5z M-94.8-527.5h15.7v-18.3h-15.7
			L-94.8-527.5z M-118.4-552.6h15.7v-3.8h-3.6v-14.5h-10.2v3.8h6.7v10.7h-8.5V-552.6z M-94.7-552.7h15.6v-3.8h-15.6V-552.7z
			 M-93-567.2h12.1v-3.8H-93V-567.2z M-91.2-531.2V-542h8.4v10.8H-91.2z M-23.5-533.8v-6.2c0-1.3,1.1-2.4,2.4-2.4s2.4,1.1,2.4,2.4
			l0,0v6.2c0,1.3-1.1,2.4-2.4,2.4S-23.5-532.5-23.5-533.8L-23.5-533.8z M-54.4-533.8v-6.2c-0.1-1.3,1-2.4,2.3-2.5s2.4,1,2.5,2.3
			c0,0.1,0,0.1,0,0.2v6.2c0.1,1.3-0.9,2.4-2.3,2.5s-2.4-0.9-2.5-2.3C-54.4-533.7-54.4-533.7-54.4-533.8L-54.4-533.8z"/>
	</g>
	<g transform="translate(1475 246)">
		<path class="st1" d="M-7.8-519.2h-57.4v-60h57.4L-7.8-519.2L-7.8-519.2z M-50.8-527.5L-50.8-527.5l1.2,3.9h3.7l-1.9-5.6
			c1.2-1.2,1.8-2.8,1.8-4.5v-6.2c0.2-3.3-2.4-6.2-5.7-6.4c-3.3-0.2-6.2,2.4-6.4,5.7c0,0.2,0,0.4,0,0.6v6.2c-0.1,3.4,2.6,6.3,6.1,6.4
			C-51.6-527.4-51.2-527.5-50.8-527.5L-50.8-527.5z M-27.2-540v6.2c-0.1,3.4,2.5,6.2,5.9,6.4c3.4,0.1,6.2-2.5,6.4-5.9
			c0-0.2,0-0.3,0-0.5v-6.2c0.1-3.4-2.5-6.2-5.9-6.4s-6.2,2.5-6.4,5.9C-27.2-540.4-27.2-540.2-27.2-540z M-41.1-527.5H-29v-3.7h-8.5
			v-15.2h-3.6V-527.5z M-37.5-562.7l4.9,10.6h3.6v-18.9h-3.6v10.7l-4.9-10.7h-3.7v18.9h3.7L-37.5-562.7L-37.5-562.7z M-58-558.2
			c-0.1,3.4,2.6,6.1,5.9,6.2h0.2c3.4-0.1,6-2.9,5.9-6.2v-12.7h-3.7v12.6c0,1.3-1,2.4-2.3,2.5c-1.3,0-2.4-1-2.5-2.3
			c0-0.1,0-0.1,0-0.2v-12.6H-58L-58-558.2z M-23-552h3.6V-571H-23V-552z M-70-519.2h-57.4v-60H-70L-70-519.2L-70-519.2z
			 M-120.2-527.5h13.9l3.6-18.3h-13.9l-2.1,10.7h3.6l1.4-6.8h6.6l-2.1,10.5h-10.3L-120.2-527.5z M-94.8-527.5h15.7v-18.3h-15.7
			L-94.8-527.5z M-118.4-552.6h15.7v-3.8h-3.6v-14.5h-10.2v3.8h6.7v10.7h-8.5V-552.6z M-94.7-552.7h15.6v-3.8h-15.6V-552.7z
			 M-93-567.2h12.1v-3.8H-93V-567.2z M-91.2-531.2V-542h8.4v10.8H-91.2z M-23.5-533.8v-6.2c0-1.3,1.1-2.4,2.4-2.4s2.4,1.1,2.4,2.4
			l0,0v6.2c0,1.3-1.1,2.4-2.4,2.4S-23.5-532.5-23.5-533.8L-23.5-533.8z M-54.4-533.8v-6.2c-0.1-1.3,1-2.4,2.3-2.5s2.4,1,2.5,2.3
			c0,0.1,0,0.1,0,0.2v6.2c0.1,1.3-0.9,2.4-2.3,2.5s-2.4-0.9-2.5-2.3C-54.4-533.7-54.4-533.7-54.4-533.8L-54.4-533.8z"/>
	</g>
	<g transform="translate(1475 491)">
		<path class="st1" d="M-7.8-519.2h-57.4v-60h57.4L-7.8-519.2L-7.8-519.2z M-50.8-527.5L-50.8-527.5l1.2,3.9h3.7l-1.9-5.6
			c1.2-1.2,1.8-2.8,1.8-4.5v-6.2c0.2-3.3-2.4-6.2-5.7-6.4c-3.3-0.2-6.2,2.4-6.4,5.7c0,0.2,0,0.4,0,0.6v6.2c-0.1,3.4,2.6,6.3,6.1,6.4
			C-51.6-527.4-51.2-527.5-50.8-527.5L-50.8-527.5z M-27.2-540v6.2c-0.1,3.4,2.5,6.2,5.9,6.4c3.4,0.1,6.2-2.5,6.4-5.9
			c0-0.2,0-0.3,0-0.5v-6.2c0.1-3.4-2.5-6.2-5.9-6.4s-6.2,2.5-6.4,5.9C-27.2-540.4-27.2-540.2-27.2-540z M-41.1-527.5H-29v-3.7h-8.5
			v-15.2h-3.6V-527.5z M-37.5-562.7l4.9,10.6h3.6v-18.9h-3.6v10.7l-4.9-10.7h-3.7v18.9h3.7L-37.5-562.7L-37.5-562.7z M-58-558.2
			c-0.1,3.4,2.6,6.1,5.9,6.2h0.2c3.4-0.1,6-2.9,5.9-6.2v-12.7h-3.7v12.6c0,1.3-1,2.4-2.3,2.5c-1.3,0-2.4-1-2.5-2.3
			c0-0.1,0-0.1,0-0.2v-12.6H-58L-58-558.2z M-23-552h3.6V-571H-23V-552z M-70-519.2h-57.4v-60H-70L-70-519.2L-70-519.2z
			 M-120.2-527.5h13.9l3.6-18.3h-13.9l-2.1,10.7h3.6l1.4-6.8h6.6l-2.1,10.5h-10.3L-120.2-527.5z M-94.8-527.5h15.7v-18.3h-15.7
			L-94.8-527.5z M-118.4-552.6h15.7v-3.8h-3.6v-14.5h-10.2v3.8h6.7v10.7h-8.5V-552.6z M-94.7-552.7h15.6v-3.8h-15.6V-552.7z
			 M-93-567.2h12.1v-3.8H-93V-567.2z M-91.2-531.2V-542h8.4v10.8H-91.2z M-23.5-533.8v-6.2c0-1.3,1.1-2.4,2.4-2.4s2.4,1.1,2.4,2.4
			l0,0v6.2c0,1.3-1.1,2.4-2.4,2.4S-23.5-532.5-23.5-533.8L-23.5-533.8z M-54.4-533.8v-6.2c-0.1-1.3,1-2.4,2.3-2.5s2.4,1,2.5,2.3
			c0,0.1,0,0.1,0,0.2v6.2c0.1,1.3-0.9,2.4-2.3,2.5s-2.4-0.9-2.5-2.3C-54.4-533.7-54.4-533.7-54.4-533.8L-54.4-533.8z"/>
	</g>
	<g transform="translate(1475 736)">
		<path class="st1" d="M-7.8-519.2h-57.4v-60h57.4L-7.8-519.2L-7.8-519.2z M-50.8-527.5L-50.8-527.5l1.2,3.9h3.7l-1.9-5.6
			c1.2-1.2,1.8-2.8,1.8-4.5v-6.2c0.2-3.3-2.4-6.2-5.7-6.4c-3.3-0.2-6.2,2.4-6.4,5.7c0,0.2,0,0.4,0,0.6v6.2c-0.1,3.4,2.6,6.3,6.1,6.4
			C-51.6-527.4-51.2-527.5-50.8-527.5L-50.8-527.5z M-27.2-540v6.2c-0.1,3.4,2.5,6.2,5.9,6.4c3.4,0.1,6.2-2.5,6.4-5.9
			c0-0.2,0-0.3,0-0.5v-6.2c0.1-3.4-2.5-6.2-5.9-6.4s-6.2,2.5-6.4,5.9C-27.2-540.4-27.2-540.2-27.2-540z M-41.1-527.5H-29v-3.7h-8.5
			v-15.2h-3.6V-527.5z M-37.5-562.7l4.9,10.6h3.6v-18.9h-3.6v10.7l-4.9-10.7h-3.7v18.9h3.7L-37.5-562.7L-37.5-562.7z M-58-558.2
			c-0.1,3.4,2.6,6.1,5.9,6.2h0.2c3.4-0.1,6-2.9,5.9-6.2v-12.7h-3.7v12.6c0,1.3-1,2.4-2.3,2.5c-1.3,0-2.4-1-2.5-2.3
			c0-0.1,0-0.1,0-0.2v-12.6H-58L-58-558.2z M-23-552h3.6V-571H-23V-552z M-70-519.2h-57.4v-60H-70L-70-519.2L-70-519.2z
			 M-120.2-527.5h13.9l3.6-18.3h-13.9l-2.1,10.7h3.6l1.4-6.8h6.6l-2.1,10.5h-10.3L-120.2-527.5z M-94.8-527.5h15.7v-18.3h-15.7
			L-94.8-527.5z M-118.4-552.6h15.7v-3.8h-3.6v-14.5h-10.2v3.8h6.7v10.7h-8.5V-552.6z M-94.7-552.7h15.6v-3.8h-15.6V-552.7z
			 M-93-567.2h12.1v-3.8H-93V-567.2z M-91.2-531.2V-542h8.4v10.8H-91.2z M-23.5-533.8v-6.2c0-1.3,1.1-2.4,2.4-2.4s2.4,1.1,2.4,2.4
			l0,0v6.2c0,1.3-1.1,2.4-2.4,2.4S-23.5-532.5-23.5-533.8L-23.5-533.8z M-54.4-533.8v-6.2c-0.1-1.3,1-2.4,2.3-2.5s2.4,1,2.5,2.3
			c0,0.1,0,0.1,0,0.2v6.2c0.1,1.3-0.9,2.4-2.3,2.5s-2.4-0.9-2.5-2.3C-54.4-533.7-54.4-533.7-54.4-533.8L-54.4-533.8z"/>
	</g>
</g>
</svg>
