<svg xmlns="http://www.w3.org/2000/svg" xmlns:xlink="http://www.w3.org/1999/xlink" width="1440" height="810" viewBox="0 0 1440 810"><defs><style>.a{fill:#303d78;}.b{clip-path:url(#a);}.c{fill:#ff4133;}</style><clipPath id="a"><rect class="a" width="1440" height="810"/></clipPath></defs><rect class="a" width="1440" height="810"/><g class="b"><path class="c" d="M1404.557,2487a47.939,47.939,0,0,1-6.887-.682c-6.644-1.025-13.527-2.464-20.183-3.856l-.008,0c-12.8-2.682-26.03-5.455-38.3-5.455h-.4c-37.034.182-74.021,1.721-109.791,3.208h-.03c-13.732.57-27.932,1.158-42.219,1.673l-231-230.979c-3.629-4.986-7.161-10.226-10.577-15.295l-.03-.044-.067-.1c-7.762-11.5-15.786-23.4-25.6-33.378-1.449-1.471-2.8-2.835-4.138-4.172-24.458-24.452-50.388-46.7-70.247-63.35-5.377-4.516-10.613-9.313-15.562-14.258-21.948-21.946-39.927-48.1-58.3-84.786-1.5-2.99-3.018-6.1-4.488-9.1l-.032-.066-.348-.711-.026-.053c-9.544-19.518-19.412-39.7-34.231-54.729-28.823-29.23-48-59.472-60.359-95.173-12.64-36.511-27.346-75.271-55.617-112.476a713.5,713.5,0,0,0-64.428-73.252c-39.867-39.861-83.961-76.084-125.672-109.291-16.4-13.06-33.31-25.809-49.66-38.14l-.026-.02-.032-.024c-37.734-28.46-76.752-57.889-110.967-92.1a444.727,444.727,0,0,1-42.213-48.406c-14.323-19.144-30.2-37.853-45.548-55.947l-.011-.012-.016-.02,0,0c-30.879-36.382-62.808-74-83.492-116.891-3.059-6.342-8.433-12.208-13.631-17.881l0,0-.021-.023-.111-.121-.013-.014c-2.414-2.639-4.911-5.367-7.1-8.075-4.923-6.088-10.034-12.226-14.977-18.162l-.023-.028-.013-.015-.005-.006,0,0c-12.018-14.438-24.446-29.366-35.138-44.716-6.919-9.93-11.943-21.058-16.8-31.82l-.05-.111c-1.97-4.363-4.007-8.875-6.164-13.281l17.117-17.112c.925,1.4,1.85,2.828,2.633,4.035l.08.124c2.917,4.484,5.932,9.121,9.248,13.524,6.3,8.363,12.472,17.133,18.445,25.615l.016.023.171.243,0,.005c13.924,19.787,28.322,40.249,45.5,57.43l3.139,3.127c46.119,46.109,83,95.878,112.748,152.153,18.835,35.637,41.259,66.228,68.555,93.521a386.9,386.9,0,0,0,34.547,30.6c34.752,27.294,67.354,56.182,94.663,80.842l3.188,2.881.012.011c60.941,55.037,123.955,111.945,192.847,158.467a188.888,188.888,0,0,1,27.259,22.681,163.161,163.161,0,0,1,24,29.895c31.349,51.7,71.571,94.539,103.11,126.081,7.108,7.1,14.852,14.694,23.672,23.2l4.591,4.415c5.874,5.639,11.154,10.725,16.3,15.873,10.7,10.7,24.212,24.958,33.772,40.4,17.819,28.776,38.966,55.248,64.65,80.93,27.878,27.872,61.012,54.706,104.276,84.448,33.259,22.866,71.948,50.534,106.727,82.382,46.845,42.908,95.774,56.249,141.67,64.274a62.254,62.254,0,0,0,10.612,1.069c6.217,0,10.331-1.527,12.578-4.671,3.776-5.271,1.785-14.319-6.456-29.336-46.885-85.436-111.7-158.629-162.923-212.85-11.518-12.191-22.292-23.292-32.937-33.938-77.793-77.786-147.718-128.8-220.057-160.557-24.336-10.681-46.164-25.869-66.733-46.433a323.444,323.444,0,0,1-25.2-28.552,399.48,399.48,0,0,0-31.291-35.381c-22.05-22.051-45.212-39.473-70.808-53.261-11.9-6.414-24.812-16.417-37.325-28.929-4.628-4.628-9.1-9.5-13.291-14.477-9.937-11.8-19.283-24.414-28.321-36.613-14-18.9-28.485-38.45-45.511-55.471a204.189,204.189,0,0,0-27.529-23.291,253.974,253.974,0,0,1-34.017-28.528c-25.053-25.051-46.056-56.409-66.1-98.686-30.231-63.765-69.167-120.552-119.034-173.6l-1.98-2.1,0,0c-36.337-38.657-73.91-78.627-105.521-122.553-16.54-22.988-36.422-44.738-55.649-65.773l-.006-.007-.016-.018-.018-.02-.018-.019c-8.066-8.826-16.407-17.952-24.4-27.059l41.587-41.587c7.611,8.92,15.809,17.8,23.736,26.382,18.667,20.207,37.969,41.1,50.281,63.323a376.067,376.067,0,0,0,63.378,83.35,475.181,475.181,0,0,0,74.488,60.205c78.144,51.492,169.5,106.668,264.837,109.531,48.393,1.454,95.206,24.463,139.138,68.387,5.909,5.909,11.852,12.28,17.663,18.937,13.742,15.745,25.254,28.79,37.853,41.386,29.8,29.8,56.3,47.17,85.924,56.331,6.32,1.953,13.534,8.643,19.9,14.545l.024.023.086.08c1.117,1.037,2.173,2.016,3.242,2.987,6.714,6.11,13.5,12.755,19.5,18.618l.062.061c7.181,7.021,14.608,14.28,22.232,21.074,8.965,7.983,18.285,15.837,27.3,23.433l.028.024.178.15.157.132.008.007c13.209,11.134,26.868,22.646,39.589,34.713,2.1,1.992,4.257,4.1,6.428,6.273,10.062,10.057,19.76,20.905,29.14,31.4l.129.145c4.507,5.048,10.116,11.33,15.538,17.2l1.078,1.166,7.4-3.352-1.44-2.159c-3.737-5.6-7.555-11.578-10.622-16.381l-.011-.018,0-.006c-7.536-11.792-15.329-23.984-24.173-35.329l-18.8-24.129-.047-.061c-52.871-67.872-107.541-138.055-162.977-206.317-26.463-32.584-55.235-67.019-86.309-98.088-5.183-5.181-10.332-10.174-15.3-14.841C712.312,1195.2,644.632,1175.6,579.18,1156.65l-.214-.062c-12.517-3.625-25.46-7.374-38.115-11.32a25.707,25.707,0,0,0-7.578-1.268,15.834,15.834,0,0,0-6,1.108,13.282,13.282,0,0,0-3.923,2.467c-4.825,4.387-6.431,12.433-4.406,22.073a44.465,44.465,0,0,0,11.909,22.8c7.446,7.445,17.8,12.392,31.649,15.121,14.113,2.783,28.517,5.918,42.448,8.948l.439.1.018,0c19.315,4.207,39.288,8.558,58.862,12.059,45.569,8.16,87.125,31.53,127.044,71.445,7.066,7.065,14.212,14.8,21.24,22.984,5.673,6.611,12.316,14.421,18.577,22.219,5.631,7.006,11.343,14.062,16.867,20.886l1.4,1.731.007.008c17.875,22.068,36.359,44.889,53.645,67.815,5.009,6.639,8.229,14.6,11.343,22.3l.026.065c1.286,3.194,2.454,6.068,3.719,8.905l-2.229.975c-2.85-2.428-5.71-4.8-8.884-7.432-7.094-5.877-14.43-11.955-21.08-18.49-2.267-2.232-4.462-4.41-6.525-6.473-8.934-8.933-17.9-18.183-26.569-27.128l-.039-.04,0,0-.283-.291c-8.594-8.867-17.481-18.035-26.347-26.9-13.385-13.384-24.7-24.055-35.6-33.584-82.758-72.287-155.59-111.013-229.206-121.873-36.937-5.45-70.908-23.327-103.851-54.652-25.915-24.641-47.486-41.687-67.883-53.646-17.352-10.172-31.172-20.5-42.25-31.58-21.566-21.561-32.65-46.26-33.887-75.51-.829-19.626-9.477-38.625-24.353-53.5a98.8,98.8,0,0,0-8.894-7.858c-18.226-14.232-37.382-27.613-55.907-40.553l-.022-.015-.067-.047-.04-.027-.034-.025c-7.258-5.069-14.763-10.31-22.135-15.551L236.877,858c21.03,15.9,37.394,29.873,51.5,43.974,29.393,29.391,48.679,59.738,58.96,92.774,4.394,14.12,11.935,28.488,18.732,40.679,9.715,17.439,19.74,31.22,30.648,42.13,20.714,20.71,45.171,31.568,76.965,34.17,7.819.638,16.041.949,25.137.949,12.647,0,25.177-.6,37.3-1.189h.009l.809-.038h.019c6.712-.321,13.652-.653,20.488-.871,8.109-.26,16.21-.848,24.045-1.417l.344-.026c10.1-.738,20.55-1.5,31.1-1.567.467,0,.917,0,1.339,0,57.519,0,109.432,22.747,154.294,67.609a338.356,338.356,0,0,1,37.965,45.746c14.162,20.307,25.267,38.428,33.948,55.4,25.442,49.744,57.567,94.191,95.483,132.1a524.759,524.759,0,0,0,50.657,44.438,244.427,244.427,0,0,1,23.566,20.67,222.9,222.9,0,0,1,43.838,61.811l2.52,5.31.044.092c7.583,15.965,15.424,32.474,25.125,48.051,5.64,9.055,12.751,17.657,19.628,25.975l.009.012c4.214,5.1,8.572,10.369,12.544,15.694,13.308,17.844,26.24,35.353,38.16,53.365a84.3,84.3,0,0,1,10.515,24.3c17.585,66.1,55.984,128.085,117.391,189.49,20.727,20.722,44.49,41.911,72.648,64.778,27.95,22.7,56.844,44.922,84.785,66.41,25.69,19.755,52.255,40.183,78.12,61.015a624.669,624.669,0,0,1,49.431,44.49c30.444,30.439,59.251,65.1,88.065,105.97l-22.844,22.841c-.564-.807-1.12-1.589-1.592-2.247a65.669,65.669,0,0,1-5.672-8.872c-15.147-30.9-36.223-59.635-64.434-87.846-16.343-16.341-35.578-32.99-58.8-50.9-16.977-13.084-33.359-27.939-49.2-42.305l-.624-.564-.14-.128c-6.039-5.471-12.282-11.129-18.469-16.6-8.153-7.212-16.361-14.508-23.6-20.944l0,0c-58.578-52.063-119.149-105.9-185.2-149.577a124.026,124.026,0,0,1-18.813-15.521,105.461,105.461,0,0,1-15.872-19.851c-30.741-51.5-71.463-102.3-124.49-155.323-20.51-20.511-43.822-42.345-71.266-66.748-7.9-7.021-15.925-14.172-23.688-21.088l-.564-.5-6.887-6.135-.029-.026c-49.54-44.142-100.765-89.785-152.175-133.264-53.243-45.028-111.515-90.464-176.83-117.8-14.332-6-28.953-9.733-43.093-13.347l-.038-.009-.023-.006-.05-.013c-6.277-1.6-12.768-3.261-19.033-5.081l-2.572-.744-.237,2.666c-.182,2.071-.395,3.5-.551,4.545v.012l0,.014c-.267,1.795-.442,2.98.263,4.191,6.2,10.705,12.432,22.013,17.927,31.99,21.575,39.153,43.884,79.637,77.975,113.721l.339.343c14.366,14.313,30.839,26.839,46.771,38.953l.009.007c10.17,7.731,20.685,15.726,30.557,24.114,3.007,2.558,6.08,5.08,9.333,7.75l.007.005.009.008c7.548,6.2,15.353,12.6,22.042,19.283,6.1,6.1,10.5,11.683,13.427,17.057,11.545,21.2,26.708,41.052,46.355,60.7,19.74,19.734,41.681,37.043,64.3,54.506,21.063,16.259,43.812,33.078,67.434,45.94,39.8,21.674,76.235,49.294,111.385,84.44,6.3,6.3,12.669,12.965,18.93,19.809,2.929,3.207,6,6.423,9.139,9.558a268.825,268.825,0,0,0,72.172,51.816,141.207,141.207,0,0,1,37.838,27.308,186.408,186.408,0,0,1,21.568,26.163c23.961,34.83,46.353,62.28,70.468,86.386a435.245,435.245,0,0,0,47.33,41.125,121.652,121.652,0,0,1,12.917,11.31c12.724,12.721,23.908,28.432,34.723,43.624l.953,1.338.1.144c1.645,2.309,3.346,4.7,5.005,7,10.174,14.107,18.246,29.706,26.052,44.792l.032.061.03.059.057.111c1.879,3.632,3.823,7.387,5.76,11.052,19.611,37.087,39.076,74.38,57.9,110.445,9.625,18.447,17.044,32.651,24.052,46.053q-3.106,3.119-6.556,6.625l-.019.019-.479.485-.061.063-.008.008c-9.7,9.84-20.691,20.993-32.509,31.664a3.579,3.579,0,0,1-2.13.435,21.579,21.579,0,0,1-4.461-.57,38.842,38.842,0,0,1-5.983-1.866c-50.05-19.971-98.555-48.782-144.166-85.633-20.289-16.394-40.961-24.766-63.2-25.595-16-.6-32.86-3-49.167-5.319h-.006c-2.736-.391-5.958-.848-9.112-1.284-43.737-6.072-84.461-27.7-121.04-64.273-3.954-3.954-7.91-8.131-11.754-12.415-5.96-6.63-12.274-13.39-17.845-19.354l-.015-.017-.123-.131c-8.113-8.689-16.5-17.674-24.379-26.76-3.357-3.879-6.878-7.663-10.464-11.25-19.221-19.219-41.457-33.854-67.981-44.744-10.727-4.4-21.47-13.381-31.859-22.067l-.022-.018-.031-.026c-2.422-2.027-4.926-4.124-7.366-6.1-4.967-4.028-9.743-8.7-14.361-13.213l0,0-.051-.049c-5.891-5.762-11.981-11.721-18.647-16.538A572.35,572.35,0,0,1,806.24,1999.2c-13.07-13.071-25.67-26.986-37.449-41.359-1.768-2.158-3.465-4.048-5.189-5.777a56.722,56.722,0,0,0-13.3-9.932l-7.287-3.938,4.373,7.035c2.273,3.661,4.486,7.467,6.627,11.146l.007.012.058.1,0,.006c4.711,8.1,9.582,16.483,15.553,24.144l25.823,33.159c51.06,65.584,103.858,133.4,157.071,199.393,35.269,43.745,68.083,81.031,100.314,113.989.94.958,1.866,1.893,2.754,2.778,36.574,36.574,78.847,62.864,125.645,78.14,9.83,3.208,19.688,6.513,29.223,9.71l.011,0c25.4,8.519,51.656,17.329,77.493,24.346a42.906,42.906,0,0,0,11.129,1.65,21.919,21.919,0,0,0,8.8-1.64,14.134,14.134,0,0,0,6.032-4.874c5.177-7.4,2.724-19.66-6.562-32.785a31.7,31.7,0,0,0-3.444-4.026c-5.96-5.96-15.532-11.6-23.277-13.712-26.282-7.163-54.3-14.309-81.123-18.065-60.318-8.456-113.542-36.469-162.714-85.639a464.106,464.106,0,0,1-39.568-45.4c-9.13-11.891-18.567-23.668-27.693-35.057l-.043-.053-.246-.307-.015-.018c-12.16-15.183-24.734-30.884-36.441-46.657-4.843-6.525-7.991-14.264-11.035-21.749-1.113-2.74-2.375-5.846-3.7-8.811l2.417-1.461c3.036,2.576,6.088,5.1,9.04,7.536l.213.176c7.228,5.982,14.7,12.169,21.565,18.728,13.378,12.779,27.142,26.487,39.285,38.58l.022.022.128.127,0,0c25.178,25.067,51.214,50.987,78.552,74.133,69.54,58.867,143.192,94.041,218.91,104.543,25.672,3.562,53.079,18.791,83.786,46.557,12.91,11.67,25.63,23.241,39.1,35.491l.507.462.407.37,17.387,15.807c-1.158,1.179-2.31,2.375-3.53,3.639l0,0-.389.4a192.539,192.539,0,0,1-16.658,15.952c-.744.609-2.173.919-4.247.919ZM427.271,1282.491c6.691,15.234,13.434,30.618,19.956,45.5l.208.474,3.019,6.888.139.318c18.533,42.281,37.7,86,56.726,128.781,9.362,21.048,20.056,37.185,33.656,50.784a143.562,143.562,0,0,0,17.757,15.054,284.431,284.431,0,0,1,34.622,29.466c3.953,3.953,7.789,8.029,11.4,12.114,10.248,11.6,21.118,23.132,33.232,35.247,28.517,28.511,59.218,55.426,88.91,81.454l.053.047c11.812,10.354,24.027,21.06,36.1,31.868,66.808,59.813,122,97.446,178.959,122.024,16.075,6.938,33.194,17.378,49.506,30.192,48.238,37.893,89.28,73.905,125.471,110.1,64.169,64.16,113.218,129.056,149.948,198.395,26.484,49.987,57.343,92.269,94.337,129.26,5.459,5.459,11.15,10.889,16.913,16.14a447.542,447.542,0,0,0,50.582,39.847,25.592,25.592,0,0,0,7.4,3.235,32.566,32.566,0,0,0,8.517,1.2,19.967,19.967,0,0,0,5.131-.6,9.275,9.275,0,0,0,3.829-1.918c4.914-4.4,2.9-17.588-.583-24.384-9.01-17.567-18.261-32.116-28.282-44.48-39.986-49.31-64.142-93.442-76.019-138.885-7.208-27.562-24.439-55.549-49.832-80.936-2.782-2.782-5.7-5.574-8.678-8.3-51.727-47.286-105.889-96-153.675-138.969l-.011-.01c-29.974-26.958-63.948-57.513-97.12-87.539-27.371-24.782-64.405-55.781-108.205-75.69-51.3-23.318-101.083-56.79-147.956-99.49-24.683-22.486-44.829-41.606-63.4-60.174-67.345-67.339-113.841-128.351-146.329-192.01-12.891-25.265-28.206-50.243-41.488-71.345-8.209-13.033-16.477-23.643-25.276-32.436l-.006-.006c-20.9-20.9-45.47-31.792-77.327-34.279l-3.665-.288Zm1095.918,983.172q-3.013-3.015-6.053-6.012-3.022-3-6.029-5.994c-5.513-5.518-11.943-12.1-17.763-19.048-26.4-31.483-51.314-64.878-75.406-97.172-11.947-16.009-24.3-32.561-36.682-48.69a661.109,661.109,0,0,0-57.389-64.76c-17.15-17.162-36.051-34.719-61.279-56.931-16.067-14.144-31.393-28.5-45.558-42.678-17.472-17.478-33.6-35.111-47.939-52.4-13.713-16.54-28.587-32.846-44.2-48.468-38.284-38.312-83.3-74.862-137.608-111.738-42.681-28.98-84.64-57.785-124.712-85.62a67.342,67.342,0,0,1-9.036-7.613,63.874,63.874,0,0,1-6.4-7.418,434.107,434.107,0,0,0-43.77-50.509c-23.474-23.491-49.017-44.925-73.722-65.656-6.048-5.071-12.114-10.667-18.546-17.1-12.526-12.535-24.515-26.39-36.115-39.788-6.357-7.348-12.932-14.949-19.52-22.239-6.963-7.71-13.5-16.051-19.811-24.122-2.622-3.349-5.243-6.7-7.9-10.024l.525-.923c2.045,1.059,4.12,2.064,6.145,3.042,5.82,2.815,11.321,5.478,16.109,9.334,55.756,44.9,112.229,90.895,166.841,135.373l26.617,21.678c2,1.627,3.966,3.522,5.868,5.354a64.981,64.981,0,0,0,9.445,8c51.335,33.074,97.506,75.506,142.154,116.539,25.51,23.448,51.893,47.692,78.984,69.967,8.442,6.938,16.832,14.606,25.659,23.439,20.791,20.806,40.126,44.339,58.827,67.1q4.478,5.456,8.942,10.87c25.819,31.273,49.555,57.66,72.561,80.687,32.021,32.041,63.591,58.608,96.511,81.211a591.843,591.843,0,0,1,83.371,69.5,657.377,657.377,0,0,1,58.5,67.3c25.7,33.894,51.308,66.74,78.419,101.514q17.051,21.863,34.271,44.026L1565.212,2328C1557.941,2302.062,1540.509,2283,1523.189,2265.663Zm137.524-58.3c-8.961-11.3-18.226-22.982-27.531-34.354-8.506-10.391-17.674-20.476-28.029-30.837-26.119-26.113-55.313-49.243-83.548-71.611-11.023-8.73-22.417-17.755-33.47-26.838l-3.414-2.8c-59.273-48.684-120.562-99.022-178.594-151.28-2.909-2.618-5.821-5.384-8.655-8.22-26.4-26.4-45.976-58.489-65.346-91.81-24.552-42.228-51.9-84.41-78.346-125.2-14.579-22.486-29.654-45.738-44.084-68.726-15.436-24.582-26.532-44.663-34.913-63.2-14.121-31.2-34.8-60.193-63.224-88.616-7.883-7.883-16.559-15.9-25.782-23.822-7.063-6.071-14-12.5-20.613-19.119-24.992-24.989-47.078-54-69.507-91.306-33.734-56.109-63.536-99.2-93.782-135.62-6.271-7.549-12.858-14.783-19.578-21.506-42.586-42.586-92.44-67.511-148.173-74.079l-10.658-1.242c-26.195-3.037-53.282-6.177-80.226-12.141a226.055,226.055,0,0,1-112.765-61.732c-4.373-4.373-8.688-9.019-12.821-13.814Q366.6,930.289,315.462,871.141L273,821.987,296.987,798c11.479,9.42,23.176,18.888,34.5,28.062,26.777,21.682,54.469,44.1,80.928,67.147,42.289,36.831,86.291,61.392,139.423,89.678C623.061,1020.8,694.708,1062.62,764,1103.065q17.86,10.422,35.715,20.832a218.317,218.317,0,0,1,44.937,34.955c15.727,15.727,30.831,35,46.175,58.923,15.545,24.229,33.13,46.409,50.859,64.137l1.744,1.731q2.027,1.991,4.03,4c62.926,62.926,107.146,131.132,135.181,208.518l1.309,3.62c5.64,15.62,11.47,31.77,20.2,46.852,11.436,19.757,24.205,40.351,40.093,57.113,60.576,63.931,104.265,125.113,133.56,187.049,24.676,52.164,58.04,98.9,102.005,142.856a691.668,691.668,0,0,0,74.973,64.435c32.8,24.5,67.4,47.044,100.863,68.85q17.022,11.1,34,22.271c20.449,13.538,37.646,27.373,52.571,42.3a258.053,258.053,0,0,1,31.493,38.074c12.557,18.639,17.92,27.5,16.6,34.15-1.038,5.25-6.541,9.848-18.363,17.773Q1666.313,2214.44,1660.713,2207.362ZM1190.2,2189.287c-4.076-.6-6.535-.971-8.379-2.2-16.563-11.02-33.9-20.94-50.659-30.532-32.344-18.518-65.79-37.658-94.862-65.424q-4.163-3.978-8.282-8.109c-3.659-3.656-7.295-7.365-10.936-11.086-3.657-3.735-7.313-7.468-11-11.149-11.149-11.14-24.5-23.8-39-33.239-44.588-29.023-82.258-65.4-123.385-106.5l-11.974-11.975q-6.219-6.21-12.47-12.412c-10.693-10.6-22.8-20.08-34.517-29.248-11.763-9.207-23.922-18.727-34.476-29.273q-1.817-1.815-3.583-3.687c-21.55-22.857-42.453-47.022-62.667-70.386-20.527-23.725-41.749-48.257-63.688-71.473-12.187-12.9-24.793-26.235-37.746-39.178-24.526-24.505-45.253-42.434-65.237-56.412a784.294,784.294,0,0,1-105.731-88.97c-33.682-33.657-65.6-71.05-97.571-114.316a1267.581,1267.581,0,0,0-121.887-142.4c-22.079-22.193-40.552-48.852-58.419-74.632-6.942-10.023-14.128-20.384-21.416-30.337-16.269-22.208-32.441-44.989-48.078-67.021q-9.981-14.066-19.995-28.116l25.987-25.964q13.565,17.8,27.053,35.658c24.359,32.173,49.548,65.443,75.183,97.64a119.007,119.007,0,0,0,9.09,10.093c7.547,7.541,16.111,14.494,24.4,21.216,2.056,1.669,4.1,3.332,6.123,4.992,7.589,6.242,14.1,12.1,19.922,17.911,17.539,17.522,28.991,34.926,36.052,54.763,6.016,16.906,16.047,33.436,26.837,44.219.589.589,1.179,1.159,1.777,1.717,4.23,3.958,8.51,8.093,12.712,12.3,38.885,38.856,71.268,82.938,102.579,125.569q7.867,10.71,15.767,21.41c23.965,32.341,51.166,63.6,83.155,95.568,23.472,23.451,49.581,47.328,79.823,72.99,6.444,5.466,12.868,11.41,19.634,18.175,15.737,15.728,30.654,33.281,45.083,50.257,7.319,8.612,14.89,17.519,22.467,26.071,10.757,12.139,22.042,24.123,33.545,35.618,42.888,42.855,92.046,82.121,146.113,116.719,8.115,5.189,16.442,10.328,24.5,15.3,20.563,12.685,41.825,25.8,61.328,40.941a290.126,290.126,0,0,1,27.369,24.666c4.552,4.549,9.135,9.274,13.565,13.847,4.452,4.591,9.053,9.341,13.648,13.932,3.24,3.238,6.183,6.106,9,8.771,30.579,28.929,61.231,57.334,97.85,91.085,8.239,7.6,16.734,15.174,24.955,22.505,14.182,12.652,28.851,25.743,42.608,39.269l.3.3c5.792,5.787,10.42,13.064,15.777,21.492,2,3.153,4.055,6.376,6.308,9.765C1193.046,2189.709,1191.537,2189.484,1190.2,2189.287Zm531.019-17.533c-.491-.446-.965-.872-1.384-1.291a6.456,6.456,0,0,1-1.026-1.242,262.655,262.655,0,0,0-39.563-50.335,342.375,342.375,0,0,0-52.713-42.647c-27.24-18.1-55.146-35.975-82.134-53.268-33.975-21.77-69.11-44.278-103.209-67.415a343.145,343.145,0,0,1-50.7-41.35c-27.628-27.65-46.665-57.937-58.192-92.593-15.142-45.526-37.739-82.9-69.086-114.269-4.385-4.392-9-8.708-13.721-12.829-1.129-.987-2.271-2.059-3.4-3.186-7.484-7.486-13.794-16.965-19.895-26.128-1.557-2.339-3.1-4.659-4.656-6.933-10.887-15.93-21.753-32.233-32.263-48-17.012-25.521-34.6-51.914-52.775-77.459-32.321-45.448-52-92.535-58.5-139.954-7.709-56.254-36.112-108.277-86.837-159.033q-1.571-1.571-3.163-3.134c-.852-.835-1.7-1.677-2.534-2.515-27.759-27.774-49.889-58.313-73.993-102.105-22.927-41.657-47.154-75-74.06-101.917-31.149-31.173-66.39-53.7-104.742-66.959-34.873-12.057-70.315-21.673-104.591-30.97q-11.418-3.093-22.827-6.217c-5.551-1.527-10.826-.772-15.931-.042-2.306.331-4.485.641-6.7.753l-1.931.1-.786,10.174,1.056.717c3.715,2.518,7.478,5.305,11.121,8,8.107,6.007,16.5,12.218,25.155,16.087q8.982,4.009,17.992,8.109c29.61,13.406,60.223,27.267,90.185,36.1,41.505,12.234,78.677,34.575,110.485,66.4a320.65,320.65,0,0,1,25.152,28.446c31.128,39.628,59.968,82.6,85.412,120.519,3.875,5.771,4.877,12.841,5.937,20.328.23,1.613.464,3.253.728,4.892-1.594-1.115-3.2-2.2-4.78-3.274-5.515-3.745-11.221-7.611-15.68-12.076-.935-.936-1.806-1.889-2.586-2.828-20.891-25.2-40.452-50.6-58.146-75.5a358.048,358.048,0,0,0-38.452-45.567c-36.758-36.779-81.1-65.547-139.534-90.528-15.13-6.468-30.53-12.841-45.421-19-14.832-6.138-30.166-12.488-45.226-18.921C527.261,940.4,461.08,884.075,397.081,829.614q-11.855-10.1-23.728-20.139c-11.233-9.478-22.293-19.668-32.989-29.524Q333.694,773.8,327,767.7l37.172-37.2c88.046,75.117,169.326,123.01,248.44,146.4,23.987,7.092,48.049,9.518,71.317,11.869,12.744,1.288,25.929,2.618,38.929,4.7,49.8,7.975,93.072,30.055,128.61,65.617,19.076,19.088,35.988,42.21,50.265,68.727,13.607,25.266,24.6,50.969,33.566,72.779,12.475,30.35,32.384,58.249,64.573,90.455q3.441,3.444,6.968,6.858,4.125,4,8.213,8.09a617.739,617.739,0,0,1,52.38,59.2c5.976,7.76,9.266,16.926,12.753,26.638,1.949,5.436,3.967,11.058,6.5,16.406,2.173,4.593,4.306,9.33,6.367,13.913,6.483,14.411,13.182,29.312,22.579,42.727,27.146,38.778,43.268,76.918,47.922,113.373,6.276,49.234,30.336,94.269,55.806,141.946l2.259,4.225c16.617,31.13,40.024,58.541,62.663,85.052,7.7,9.023,15.667,18.353,23.249,27.689,40.325,49.684,64.008,90.069,76.795,130.949a91.084,91.084,0,0,0,22.872,37.472,113.579,113.579,0,0,0,23.486,17.84c13.139,7.605,26.476,15.58,39.371,23.3,33.138,19.823,67.4,40.324,101.783,56.548a278.811,278.811,0,0,1,79.338,56.138c15.682,15.69,30.306,33.608,44.71,54.771,7.846,11.529,15.209,23.024,23,35.2,3.248,5.069,6.52,10.186,9.865,15.353L1721.5,2172C1721.4,2171.915,1721.311,2171.833,1721.22,2171.754Zm.688-55.416c-12.106-11.792-24.622-23.981-36.7-36.048-12.346-12.338-23.029-23.35-32.653-33.656-3.736-4-7.241-7.637-10.719-11.109a275.665,275.665,0,0,0-47.961-38.921,483.561,483.561,0,0,1-82.687-65.683,417.143,417.143,0,0,1-60.259-76c-8.118-13.163-19.257-25.425-30.028-37.284-1.635-1.8-3.272-3.6-4.889-5.392-1.235-1.374-2.556-2.76-4.036-4.24-3.239-3.236-6.708-6.375-10.064-9.411-3.287-2.975-6.686-6.051-9.79-9.153a77.6,77.6,0,0,1-8.856-10.282c-36.586-52.147-79.61-114.009-121.31-177.414-35.418-53.845-54.468-113.359-58.232-181.939-1.08-19.763-9.108-39.928-25.26-63.475-38.54-56.194-81.1-107.685-126.484-153.039-8.386-8.38-17.02-16.7-25.664-24.745q-2.154-2-4.234-4.082c-6.286-6.281-12.046-12.932-18.386-20.351a67.11,67.11,0,0,1-6.331-9.372c-.7-1.168-1.4-2.336-2.115-3.485l1.457-2.759c4.109,2.69,8.282,5.332,12.337,7.9,10.321,6.533,21,13.293,30.792,20.982,16.586,13.029,33.221,26.68,49.306,39.879,17.763,14.579,36.128,29.653,54.52,43.959a341.054,341.054,0,0,1,31.6,27.724c36.941,36.916,57.728,76.862,63.537,122.128,1.523,11.865,3.4,23.984,5.22,35.709,1.86,11.983,3.785,24.376,5.32,36.474,3.405,26.81,14.622,49.624,34.286,69.735,22.832,23.347,38.52,51.095,45.382,80.253,11.459,48.7,38.741,93.307,85.859,140.4,12.331,12.322,26.483,25.309,43.263,39.7,15.794,13.551,31.042,28.5,45.783,42.96,7.1,6.963,14.446,14.17,21.773,21.136.674.64,1.341,1.3,2.006,1.959,1.3,1.3,2.583,2.63,3.87,3.964,1.311,1.359,2.625,2.717,3.948,4.042,3.326,3.324,7.333,7.06,11.842,9.59,35.421,19.886,67.406,37.644,100.087,53.569,35.281,17.2,67.776,40.289,99.34,70.594,16.124,15.483,32.525,30.035,49.891,45.436,7.3,6.481,14.669,13.014,22.079,19.68-1.6,3.358-3.715,5.511-6.431,6.563-5.536,2.15-14.164.246-27.154-6-27.77-13.351-52.356-30.917-75.155-53.7-4.261-4.261-8.534-8.781-12.707-13.442-2.464-2.748-5-5.432-7.549-7.976a169.7,169.7,0,0,0-64.741-40.947c-10.258-3.624-20.759-9.92-30.914-16.016-4.5-2.7-9.163-5.5-13.758-8.031l-.889-.494c-8.116-4.486-16.5-9.123-26.526-11.1l-6.613-1.3,4.57,4.946c12.4,13.442,25.761,27.317,39.7,41.247,49.567,49.533,103.082,96.388,154.831,141.7q9.693,8.485,19.393,16.99c-.136.21-.27.413-.4.613a23.223,23.223,0,0,1-2.307,3.17c-2.139,2.284-4.325,4.452-7.639,7.733-1.2,1.186-2.528,2.5-4.042,4.013C1740.9,2134.839,1731.25,2125.443,1721.907,2116.338ZM1855.9,2034a33.275,33.275,0,0,1-8.374-1.216,77.617,77.617,0,0,1-10.3-3.6c-54.22-22.686-106.4-55.211-159.509-99.435-2.562-2.135-5.225-4.6-8.379-7.748-2.27-2.271-4.553-4.66-6.567-6.767-2.121-2.224-4.381-4.585-6.653-6.859-1.929-1.931-3.694-3.619-5.4-5.161-3.055-2.773-6.163-5.752-9.169-8.633l-.664-.636-.028-.027c-9.586-9.206-19.5-18.727-30.283-24.617-24.591-13.439-44.9-28.333-62.094-45.531a213.939,213.939,0,0,1-41.314-57.7c-8.413-17.089-20.35-33.245-36.495-49.392-13.228-13.237-27.588-24.816-39.89-34.4a274.651,274.651,0,0,1-25.412-22.306c-35.367-35.377-51.384-73.8-48.964-117.466.366-6.605.084-13.516-.188-20.2l0-.1,0-.064c-.248-6.038-.5-12.28-.267-18.192,2.067-52.627-20.523-102.94-71.092-158.337-8.553-9.367-17.511-18.737-26.622-27.849-47.07-47.087-102-91.521-172.856-139.832a534.925,534.925,0,0,1-76.932-63.349,474.1,474.1,0,0,1-62.525-77.215,658.821,658.821,0,0,0-86.786-107.4,706.047,706.047,0,0,0-118.018-94.493c-47.7-30.624-87.416-62.039-121.4-96.041-11.62-11.624-22.782-23.781-33.175-36.131-4.018-4.782-8.44-9.576-13.52-14.658-10.407-10.409-21.894-20.289-33-29.844-7.434-6.392-15.121-13-22.4-19.7-7.239-6.66-14.51-13.442-21.541-20l-.853-.8-8.477-7.9L563.742,533.4a375.082,375.082,0,0,0,43.99,53.291,334.635,334.635,0,0,0,85.52,62.047c8.951,4.539,17.887,10.2,26.528,15.684l.034.022.007,0c5.223,3.314,10.625,6.74,16.057,9.935,3.118,1.833,6.213,3.741,9.374,5.7l.026.016c9.013,5.57,18.332,11.33,27.683,14.781C844.04,721.13,902.432,757.74,951.475,806.8a471.908,471.908,0,0,1,47.1,55.107,268.413,268.413,0,0,0,27.175,31.745,333.7,333.7,0,0,0,30.294,26.625,447.538,447.538,0,0,1,40.668,35.758c22.053,22.064,39.177,44.662,52.352,69.084a260.017,260.017,0,0,0,42.692,58.143l1.217,1.223c17.125,17.131,36.013,33.026,54.279,48.4l.14.118c7.918,6.661,16.105,13.548,24.151,20.542l2.209,1.922,1.232-2.653c17.089-36.877,11.425-57.381-26.349-95.388l-.543-.543c-4.657-4.66-9.547-9.209-14.276-13.609l-.018-.017-.073-.068c-4.2-3.906-8.544-7.945-12.689-12.037-4.772-4.706-9.881-9.517-14.388-13.762l-.035-.033c-5.419-5.1-11.021-10.381-16.357-15.718a223.014,223.014,0,0,1-17.7-19.6,296.173,296.173,0,0,0-22.737-25.736c-16.224-16.23-32.971-28.647-51.2-37.962a298.356,298.356,0,0,1-75.244-54.952,358.516,358.516,0,0,1-49.5-62.7A199.743,199.743,0,0,0,946.243,765.8c-17.553-17.561-37.926-31.01-62.285-41.117-10.7-4.44-21.609-8.662-32.154-12.744l-.022-.008-.248-.1-.155-.06c-17.844-6.909-36.3-14.054-54.206-22.422-11.784-5.5-23.381-14.544-34.594-23.288l-.78-.607-.025-.02c-2.159-1.683-4.391-3.424-6.583-5.094-6.687-5.11-13.34-10.955-19.774-16.608l-.068-.06c-11.969-10.519-24.345-21.4-37.521-28.068a239.728,239.728,0,0,1-62.288-44.939c-17.644-17.651-32.818-38.156-46.391-62.688L617.12,480a17.591,17.591,0,0,1,1.83,4.36c5.523,29.275,20.065,54.886,45.766,80.6a336.116,336.116,0,0,0,31.242,27.254c60.513,47.19,123.031,84.745,191.125,114.81a482.694,482.694,0,0,1,147.08,100.6c8.344,8.348,16.5,17.144,24.249,26.143,1.49,1.731,3.129,3.494,4.871,5.24,8.849,8.849,20.857,17.6,33.812,24.64,21.844,11.867,40.068,25.243,55.715,40.892a206.108,206.108,0,0,1,38.358,53.243c9.488,18.853,22.625,36.545,40.161,54.086,11.221,11.228,24.068,22.279,40.431,34.777a245.452,245.452,0,0,1,24.544,21.344c29.489,29.5,44.832,61.821,46.907,98.813.276,4.854.614,9.815.941,14.612l0,.07.007.107c1,14.686,2.041,29.873,1.381,44.152-2.325,50.228,19.566,98.446,70.977,156.343,8.5,9.582,17.592,19.216,27.011,28.635,53.006,53.025,113.445,96.364,171.894,138.274l.018.013.249.178c6.755,4.844,14.411,10.334,21.833,15.682,20.939,15.1,38.6,29.93,54.006,45.337a307.581,307.581,0,0,1,42.926,53.248c8.72,13.76,18.152,27.51,27.273,40.806l.074.108c2.992,4.357,5.689,8.3,8.246,12.049a370.82,370.82,0,0,0,44.018,53.224,382.451,382.451,0,0,0,72.176,56.358c32.521,19.724,55.83,37.331,75.578,57.089A266.99,266.99,0,0,1,1986,1910.816c-4.763,4.768-10.018,10.031-17.038,17.068l-.2.2c-23.849,23.9-48.51,48.609-73.107,72.584-.8.778-2.622,1.225-5,1.225a20.852,20.852,0,0,1-5.671-.806,322.8,322.8,0,0,1-139.609-82.534,391.97,391.97,0,0,1-56.124-71.862,56.513,56.513,0,0,0-8.422-10.25c-2.595-2.6-5.385-5.107-8.082-7.536l-.012-.011c-1.157-1.043-2.4-2.163-3.615-3.282-9.691-8.923-19.49-17.751-28.968-26.288l-.054-.049c-18.691-16.837-38.019-34.247-56.3-52.155l-1.065-1.06c-11.871-11.872-21.524-25.451-26.486-37.255-8.819-20.963-21.956-40.007-40.164-58.218a302.02,302.02,0,0,0-24.922-22.136c-13.868-11.115-27.359-23.445-40.406-35.369l0,0-.036-.033-.028-.026c-5.807-5.31-11.811-10.8-17.851-16.18l-1.757-1.563-1.441,1.852c-19.214,24.689-14.674,52.407,13.5,82.385,2.583,2.751,5.307,5.558,8.327,8.58,8.272,8.275,16.951,16.315,25.345,24.091l.017.015.018.016c8.338,7.729,16.96,15.721,25.046,23.813a300.889,300.889,0,0,1,20.315,22.208c7.317,8.949,14.972,17.433,22.753,25.217a293.239,293.239,0,0,0,78.334,56.3,198.432,198.432,0,0,1,52.112,37.8,252.637,252.637,0,0,1,39.208,51.512,229.584,229.584,0,0,0,35.608,46.751c23.74,23.749,52.534,40.969,88.027,52.645,8.113,2.672,16.151,5.977,24.66,9.477l.006,0,.056.023c3.631,1.5,6.664,2.746,9.879,4.032-4.192,8.294-9.416,11.993-16.938,11.993Zm-431.5-587.274c-1.059,7.893,1.37,14.551,3.73,20.171,14.3,34.067,38.6,62.328,62.737,87.792,11.171,11.79,20.888,25.369,30.284,38.5l0,0,.014.019.692.967c2.052,2.865,4.173,5.827,6.288,8.734,4.356,5.985,8.38,12.288,12.27,18.383,6.9,10.8,14.037,21.977,22.993,31.456,3.151,3.338,6.348,6.652,9.44,9.858l.809.838c18.943,19.614,36.835,38.141,48.088,62.284a106.9,106.9,0,0,0,20.613,29.167c1.128,1.129,2.266,2.21,3.38,3.212,24.947,22.453,50.645,44.63,75.5,66.076l.007.006.463.4c13.037,11.251,26.517,22.887,39.774,34.465,2.734,2.39,5.6,4.757,8.37,7.047l.015.012c5.144,4.249,10.464,8.643,15.083,13.261a65.773,65.773,0,0,1,8.064,9.549,144.771,144.771,0,0,0,17.262,21.085c21.217,21.225,47.059,32.294,81.326,34.835l6.519.483-4.9-4.329c-6.687-5.908-13.373-11.708-19.84-17.318l-.006-.005c-14.459-12.547-29.411-25.522-43.56-38.928l-9.8-9.281-.249-.234c-21.927-20.756-44.6-42.215-66.265-63.89-9.294-9.3-17.714-17.934-25.742-26.4-18.5-19.527-35.683-40.808-52.3-61.388l0,0c-6.257-7.746-12.726-15.754-19.19-23.583-3.876-4.686-7.353-9.58-11.753-15.777l0-.006-.085-.12-.02-.027c-1.111-1.567-2.26-3.186-3.5-4.922,16.91,7.1,28.627,17.564,36.944,25.885,4.979,4.981,9.71,10.245,14.286,15.335l.078.087.015.016c3.483,3.879,7.432,8.276,11.339,12.328,8.247,8.551,16.6,17.291,24.677,25.744l.145.152,2.343,2.452c19.69,20.613,40.05,41.928,60.525,62.414,14.113,14.118,27.04,26.605,39.521,38.175a323.681,323.681,0,0,0,108.531,66.492l2.267-3.665a258.349,258.349,0,0,0-27.181-22.16c-42.354-30.69-74.87-57.781-102.331-85.257-30.547-30.552-54.97-61.721-74.662-95.285a232.1,232.1,0,0,0-35.177-45.145c-4.049-4.05-8.18-7.871-12.28-11.358-39.846-33.944-83.576-66.516-118.715-92.689l-.074-.055c-5.863-4.367-11.851-8.766-17.644-13.02l-.108-.079-.485-.357c-28.65-21.048-58.275-42.812-83.954-68.5a306.35,306.35,0,0,1-31.618-36.775,19.267,19.267,0,0,0-1.982-2.289,51.8,51.8,0,0,0-4.394-3.777l-.088-.07-.018-.014c-.944-.752-1.921-1.53-2.823-2.33l-3.09-2.75ZM793.676,819.195a543.269,543.269,0,0,1,62.652,54.092c33.514,33.527,64.727,72.2,101.2,125.393,10.328,15.061,23.412,30.352,41.178,48.121,11.053,11.057,22.571,21.726,33.42,31.705,28.74,26.433,60.566,49.513,91.345,71.833l0,0,.066.048c36.309,26.328,73.854,53.552,106.941,86.642,9.278,9.284,17.994,18.824,25.906,28.356l1.978,2.383,1.6-2.657c7.613-12.656,5.471-27.349-6.194-42.492-7.247-9.408-15.446-18.434-23.376-27.161l-.007-.007-.116-.128c-5.812-6.392-11.82-13-17.457-19.774-3.158-3.794-6.426-7.584-10.064-11.792-11-12.732-22.382-25.9-29.766-39.635a248.644,248.644,0,0,0-44.513-59.748c-1.544-1.551-3.217-3.185-5.114-5-.714-.68-1.4-1.352-2.049-2-8.681-8.687-16.319-18.952-23.705-28.878l-.012-.016-.182-.244c-3.569-4.8-7.258-9.752-11.038-14.486-6.229-7.81-12.493-15.972-18.018-23.173l-.015-.02c-13.081-17.038-26.608-34.657-41.484-50.7-2.538-2.737-5.207-5.506-7.933-8.23-18.489-18.5-39.23-34.721-59.287-50.413l-.007-.006c-20.2-15.805-41.089-32.15-59.841-50.908a285.076,285.076,0,0,1-20.073-22.181,75.562,75.562,0,0,0-5.111-5.671c-18.911-18.918-43.81-22.922-67.889-26.793-6.168-.99-12.544-2.015-18.627-3.285l-8.237-1.715L786.2,776.2c30.514,26.6,61.73,52.716,91.919,77.975l.042.035c31.72,26.542,64.52,53.988,96.212,81.736,7.946,6.958,15.934,14.468,24.421,22.958,18.2,18.205,35.6,37.884,52.43,56.915l7.382,8.338c4.477,5.046,6.41,12.19,8.456,19.752.767,2.842,1.468,5.4,2.285,7.918l-2.64.4-12.88-12.884c-15.917-15.95-32.062-32.2-47.675-47.92l-.016-.015-1.611-1.622-.211-.212c-18.847-18.976-38.337-38.6-57.568-57.833-24.2-24.217-44.54-44.367-64-63.414-26.116-25.561-55.43-43.4-87.126-53.014Zm1236.7,1015.4c-9.7-2.634-19.26-2.792-28.511-2.944-3.67-.063-7.465-.124-11.178-.345-54.276-3.22-101.758-24.806-141.122-64.153-16.2-16.2-31.143-35.588-44.419-57.641a476.759,476.759,0,0,1-36.95-75.945c-12.906-33.9-34.16-64.93-66.894-97.646-3.941-3.943-8.164-8.021-12.539-12.115-2.844-2.658-5.737-5.462-8.607-8.327-14.964-14.958-29.928-32.268-48.523-56.12-5.617-7.208-8.947-15.653-12.475-24.6-1.676-4.249-3.406-8.643-5.4-12.849-2.659-5.632-5.182-11.462-7.62-17.1-5.725-13.246-11.648-26.947-19.994-39.45-27.282-40.877-44.441-81.168-52.458-123.171-13.823-72.386-51.587-144.93-112.229-215.616C1378.08,976.028,1333.8,921.438,1310.576,858.8a109.88,109.88,0,0,0-25.639-39.721,132.749,132.749,0,0,0-28-21.164c-14.533-8.318-29.273-16.982-43.529-25.36-32.411-19.052-65.929-38.75-99.417-55.771a266.874,266.874,0,0,1-68.758-50.054,336.991,336.991,0,0,1-40.293-49.156c-6.261-9.183-12.466-18.6-18.471-27.715-9.041-13.719-18.389-27.907-28.137-41.611-9.578-13.465-20.149-27.628-32.509-39.985-.495-.495-.99-.983-1.49-1.475q-2.627-2.558-5.21-5.143A599.631,599.631,0,0,1,815.746,363.266c-6.84-12.5-14.259-25.073-21.433-37.23q-4.549-7.706-9.063-15.428l17.366-17.358q11.375,11.463,22.766,22.915c17.936,18.041,36.483,36.7,54.641,55.125,41.72,42.355,66.12,83.2,74.6,124.895,8.388,41.241,28.471,77.29,61.4,110.2,14.621,14.618,31.446,28.326,51.426,41.9,24.97,16.969,50.551,33.776,75.288,50.03,35.336,23.218,71.873,47.222,107.2,72.073,18.325,12.891,37.439,29.36,58.433,50.345,4.593,4.595,9.223,9.341,14.147,14.512,11.652,12.236,19.879,28.21,27.836,43.657l2.568,4.973c5.86,11.286,11.233,22.936,16.431,34.2,7.314,15.853,14.873,32.249,23.932,47.948,7.675,13.289,18.285,25.865,28.55,38.028,3.962,4.7,8.066,9.559,11.916,14.369,4.806,6,9.87,11.984,14.767,17.777,8.7,10.29,17.706,20.933,25.453,31.888,11.151,15.768,22.025,32.055,32.542,47.808,14.646,21.932,29.789,44.609,45.934,66.271,36.713,49.255,59.44,99.955,67.552,150.692,9.132,57.115,39.625,110.923,93.215,164.491,3.449,3.444,7.05,6.949,10.7,10.415q3.67,3.482,7.2,7c23.264,23.254,37.925,44.871,46.137,68.025,9.773,27.554,29.476,51.025,48.526,73.724,5.049,6.014,10.271,12.232,15.223,18.429a323.226,323.226,0,0,0,23.863,26.729c64.134,64.108,138.773,81.876,210.958,99.061a108.017,108.017,0,0,0,11.257,1.821c1.412.182,2.955.383,4.67.616-4.068,3.827-7.66,7.939-11.16,11.944-9.99,11.436-18.89,21.63-35.656,21.628A55.709,55.709,0,0,1,2030.372,1834.6Zm107.972-90.742q-14.716-7.751-29.465-15.448c-74.441-38.935-151.419-79.193-222.322-132.477a319.743,319.743,0,0,1-33.506-29.078,236.261,236.261,0,0,1-31.647-38.44c-24.266-37.669-54.566-70.915-83.869-103.065q-8.385-9.2-16.768-18.471c-48.026-53.324-83.518-111.98-105.481-174.347-18.2-51.69-44.885-93.982-83.975-133.1-45.966-46-84.54-100.19-111.546-156.707-24.928-52.167-59.694-100.184-106.282-146.79-26.687-26.7-57.545-53.226-94.332-81.1-26.93-20.4-55.275-39.354-82.692-57.683-18.689-12.492-38.013-25.411-56.714-38.673a276.815,276.815,0,0,1-35.521-29.84c-22.515-22.527-38.368-46.807-47.11-72.166-25.014-72.551-70.691-141.356-139.652-210.34-4.433-4.435-9.046-8.955-13.707-13.432q-1.825-1.758-3.62-3.552c-3.814-3.816-7.6-7.82-11.26-11.693q-2.686-2.837-5.374-5.661l14.535-14.541q3.268,4.526,6.488,9.089c5.783,8.145,11.758,16.565,18.222,24.513,10.651,13.1,21.7,26.264,32.384,38.995,9.4,11.189,19.117,22.761,28.515,34.239,3.04,3.719,6.263,7.477,9.376,11.117,9.3,10.855,18.923,22.081,25.2,33.756,35.809,66.528,82.233,128.542,137.988,184.319a954.775,954.775,0,0,0,95.6,83.3c50.069,38.243,100.735,79.846,154.9,127.189,7.841,6.857,15.661,14.173,23.232,21.75,32.277,32.287,62.564,71.522,95.309,123.47,27.2,43.145,56.241,86.478,84.328,128.382,13.995,20.885,28.469,42.474,42.53,63.772,1.709,2.586,3.487,5.188,5.271,7.8,6.47,9.462,13.154,19.246,16.707,28.817,13.728,37.01,36.935,72.029,68.974,104.082,5.137,5.139,10.581,10.279,16.183,15.281,8.023,7.164,15.831,14.537,23.208,21.92a503.638,503.638,0,0,1,88.148,118.434,543.486,543.486,0,0,0,93.613,126.163c9.015,9.019,18.453,17.786,28.044,26.054,36.872,31.781,79.065,50.968,129.007,58.66,35.093,5.409,69.735,12.155,102.965,20.06,9.249,2.2,19.1,7.146,29.543,12.379,4.342,2.177,8.8,4.417,13.479,6.6q-6.586,6.6-12.881,12.947c-15.2,15.3-29.55,29.746-44.276,43.594-.9.841-2.977,1.321-5.3,1.321A14.414,14.414,0,0,1,2138.344,1743.856ZM2259.5,1626.9a147.627,147.627,0,0,0-32.058-9.144,181.788,181.788,0,0,0-30.21-2.323c-10.831,0-21.517.728-31.851,1.432h-.014c-9.031.614-18.145,1.38-26.959,2.123l-.82.069-.134.011c-14.06,1.189-28.6,2.418-43.087,3.072-3.75.169-7.516.254-11.193.254-7.346,0-14.656-.342-21.724-1.015a211.1,211.1,0,0,1-20.942-3.053,200.564,200.564,0,0,1-20.188-5.1,197.761,197.761,0,0,1-19.466-7.166,203.037,203.037,0,0,1-18.774-9.24c-6.114-3.409-12.207-7.22-18.111-11.327s-11.775-8.617-17.478-13.424-11.369-10.025-16.876-15.535c-16.173-16.178-31.854-35.8-46.607-58.313-10.959-16.71-21.785-35.108-35.1-59.655-24.74-45.6-52.4-83.412-84.557-115.589a414.8,414.8,0,0,0-40.8-35.82,309.356,309.356,0,0,1-30.485-26.688c-23.416-23.429-42.231-49.9-57.521-80.919-14.287-28.982-33-62.811-63.449-93.985-15.161-15.52-29.128-38.31-36.452-59.476-23.622-68.27-65.385-131.755-127.677-194.083a973.17,973.17,0,0,0-73.44-65.856c-22.943-18.733-46.466-37.433-69.217-55.519l-.269-.214c-30.813-24.492-62.675-49.819-93.491-75.541-13.256-11.066-26.538-23.242-39.479-36.191-9.835-9.84-19.563-20.218-28.914-30.846-34.974-39.745-69.2-81.2-102.3-121.3l0,0-.213-.259-15.052-18.226c-7.862-9.512-14.294-20.439-20.208-30.816A289.466,289.466,0,0,0,916.4,334.726c-15.242-15.292-26.989-34.781-38.35-53.627l-.01-.018-.016-.027-.007-.011c-4.591-7.617-9.337-15.494-14.258-23a99.938,99.938,0,0,1-6.577-12.417c-.651-1.384-1.411-2.992-2.181-4.559l19.383-19.391c6.88,9.75,13.453,19.8,19.809,29.509l.015.023c15.406,23.533,31.334,47.866,51.2,67.768,9.334,9.349,18.346,18.806,26.786,28.106,8.456,9.319,16.6,18.77,24.2,28.091s14.914,18.814,21.715,28.2,13.295,18.942,19.32,28.428c6.608,10.405,12.864,21.061,18.593,31.672,22.368,41.427,47.692,76.025,77.42,105.771a397.939,397.939,0,0,0,31.141,28.029c8,6.461,16.423,12.9,23.853,18.589,15.771,12.067,32.079,24.544,46.615,38.419,27.539,26.291,56.014,53.476,86.5,80.529,16.508,14.65,31.882,27.736,47,40.005,16.878,13.7,33.571,26.445,49.619,37.895,10.7,7.637,21.45,14.932,31.936,21.681a227.094,227.094,0,0,1,38.245,30.463,182.251,182.251,0,0,1,31.1,41.2c3.843,6.955,8.169,13.968,12.858,20.845a330.5,330.5,0,0,0,21.445,27.938c8.086,9.511,17.019,19.142,27.313,29.441,6.779,6.782,14.1,13.83,23.042,22.177,7.6,7.094,15.4,14.251,22.94,21.171l.009.008.2.179.032.03.008.007c16.862,15.468,34.3,31.462,50.659,47.835,27.321,27.337,47.409,51.552,63.219,76.209a257.9,257.9,0,0,0,34.615,43.026,283.24,283.24,0,0,0,40.087,33.176c13.791,9.5,27.873,18.989,41.492,28.166l.025.017.107.072c46.467,31.3,94.515,63.663,138.858,101.931,30.654,26.452,67.624,43.542,116.348,53.782a57.992,57.992,0,0,0,11.568,1.486,16.454,16.454,0,0,0,5.727-.85,7.679,7.679,0,0,0,3.572-2.572c3.115-4.1,1.725-10.9-4.8-23.473-8.221-15.848-16.722-32.234-27.816-46.877q-8.544-11.274-17.387-23.046l-.041-.055c-27.992-37.166-56.937-75.6-88.063-111.446-22.257-25.624-43.479-48.488-64.878-69.9-76.212-76.255-152.235-130.872-232.415-166.97a184.409,184.409,0,0,1-54.618-38.248,231.894,231.894,0,0,1-17.736-20c-13.067-16.522-27.313-33.967-42.949-49.609-19.821-19.831-39.532-34.339-60.258-44.352-15.354-7.422-29.147-17.525-43.41-31.8a338.981,338.981,0,0,1-23.454-26.466c-6.042-7.456-12.145-15.25-18.045-22.786l-.035-.045-.674-.861c-16.2-20.712-32.944-42.129-51.382-60.581a258.363,258.363,0,0,0-19.359-17.609,393.266,393.266,0,0,1-29.287-26.457c-28.676-28.7-52.2-61.2-74.038-102.295-20.343-38.275-42.307-78.463-67.146-122.858a223.382,223.382,0,0,0-36.952-48.8,231.134,231.134,0,0,0-26.667-22.875,297.717,297.717,0,0,1-34.652-29.96c-19.1-19.114-35.52-39.888-50.414-59.491-19.517-25.684-41.33-50.629-62.425-74.754l-.053-.061-.022-.024c-8.247-9.426-17.594-20.11-26.5-30.536l41.826-41.851c6.679,5.671,13.186,11.667,19.341,17.822,19.135,19.15,35.978,40.786,51.491,66.141,14.414,23.563,30.752,50.27,51.255,70.782.718.721,1.394,1.388,2.069,2.04,56.327,54.481,104.277,90.086,155.471,115.446,71.179,35.258,135.614,64.6,203.4,66.551,41.23,1.187,82.565,21.367,119.535,58.359,2.343,2.341,4.691,4.776,6.98,7.239,7.6,8.162,15.566,16.365,22.594,23.6l.008.009.182.187c10.9,11.237,22.18,22.857,32.685,34.725,3.257,3.675,6.606,7.237,9.952,10.589,19.293,19.308,40.44,33.431,64.647,43.174,13.385,5.391,26.713,16.145,39.6,26.545l.527.425c11.657,9.4,23.092,19.664,34.149,29.587l0,0,.067.06,1.19,1.067.05.044c5.775,5.175,11.746,10.525,17.684,15.682,4.821,4.188,9.819,8.235,14.654,12.149l0,0,.01.008c8.338,6.756,16.96,13.742,24.582,21.366l1.161,1.175c15.974,16.337,31.566,33.581,46.645,50.258l.042.046.584.646c6.113,6.762,12.436,13.755,18.7,20.59l3.6-2.44c-11.463-23.769-23.884-44.129-37.971-62.244-25.1-32.27-50.643-64.446-75.349-95.564l-.033-.042-.466-.587-.008-.009c-40.318-50.792-82.009-103.313-121.449-155.818a481.68,481.68,0,0,0-44.2-51.093c-81.744-81.792-177.758-114.736-260.9-136.177a56.83,56.83,0,0,0-13.465-2.095,21.857,21.857,0,0,0-5.859.724,13.3,13.3,0,0,0-4.958,2.525c-3.638,3.019-5.251,8.088-4.792,15.066.634,9.605,5.14,19.053,12.689,26.6a49.343,49.343,0,0,0,19.792,12.064,127.209,127.209,0,0,0,13.818,3.341h.008l.469.1h.008c2.3.467,4.678.95,7.022,1.509,11.685,2.788,23.221,5.47,36.008,8.434l.375.087c30.974,7.19,63,14.626,94.572,23.387,14.435,4.005,30.86,12.693,43.938,23.24a618.972,618.972,0,0,1,48.87,44.091c44.227,44.252,81.371,93.637,111.873,136.109,3.139,4.372,4.359,9.787,5.65,15.52l0,.02.006.026c.415,1.85.886,3.947,1.447,5.993l-2.718.844-40.331-40.337-.006-.006L1721.5,560.3l-.058-.059c-6.246-6.254-12.706-12.72-19.054-19.089l-1.075-1.075c-106.506-106.568-197.625-160.848-295.448-176-25.094-3.887-50.46-16.542-77.551-38.686l-1.893-1.548-.1-.08c-32.625-26.669-66.363-54.246-100.805-78.948a207.963,207.963,0,0,1-26.181-21.859c-20.473-20.485-30.818-42.507-31.628-67.327-.755-23.167-10.953-44.734-30.31-64.1a150.387,150.387,0,0,0-12.182-10.89c-14.718-11.814-30.382-22.658-45.53-33.144l-.006,0-.116-.08-.311-.215c-5.885-4.075-11.971-8.288-17.958-12.532L1095.936,0c.064.059,17.192,16.18,22.859,21.5,6,5.632,11.266,10.721,16.1,15.558,23.026,23.036,51.141,54.753,64.277,95.891,6.014,18.831,17.8,38.484,28.374,55.427a158.33,158.33,0,0,0,22.1,28.108c20.885,20.9,46.516,32.776,74.12,34.357,7.2.412,14.7.613,22.908.613,14.4,0,28.685-.628,42.5-1.235h.019l.066,0c8.253-.363,16.787-.738,25.214-.975,7.881-.222,16.4-.842,26.812-1.951a233.552,233.552,0,0,1,24.621-1.328c7.254,0,14.517.362,21.589,1.075a206.213,206.213,0,0,1,21.026,3.22,202.847,202.847,0,0,1,20.449,5.361,205.162,205.162,0,0,1,19.858,7.5,213.975,213.975,0,0,1,19.255,9.628c6.288,3.548,12.558,7.5,18.637,11.754s12.14,8.921,18.006,13.874,11.713,10.336,17.364,15.99c23.377,23.387,45.049,52.971,64.413,87.93,25.657,46.3,58.228,99.985,105.267,147.051,4.661,4.668,9.5,9.3,14.377,13.761,1.4,1.278,2.785,2.6,3.974,3.749a89.773,89.773,0,0,0,11.351,9.721,263.092,263.092,0,0,1,38.605,31.808c25.692,25.71,45.837,56.553,61.583,94.291,10.288,24.656,24.022,45.382,41.988,63.361,2.249,2.25,4.609,4.5,7.013,6.686,1.623,1.474,3.252,3.027,4.842,4.614,23.856,23.871,34.7,52.14,43.771,79.049,13.416,39.8,30.747,85.528,66.764,124.4,16.858,18.194,33.8,35.816,50.353,52.377,24.266,24.283,48.666,47.256,72.522,68.281,30.8,27.15,64.034,52.223,96.174,76.471l.073.055,1.625,1.226.005,0c9.769,7.373,19.869,15,29.723,22.553,32.912,25.241,58.485,47.4,82.922,71.856,28.933,28.944,57.174,62.162,91.568,107.707l-24.054,24.068c-.647-1.01-1.29-2.005-2-3.109l-.321-.5-.024-.036-.006-.01a114.175,114.175,0,0,1-7.058-11.861c-14.888-30.526-35.784-59.029-63.882-87.141-16.789-16.8-36.181-33.59-61.028-52.844-19.081-14.784-37.463-31.647-55.239-47.956l-.055-.051-.105-.1c-4.7-4.309-9.554-8.766-14.391-13.152-56.8-51.505-125.217-111.294-202.058-164.217a137.728,137.728,0,0,1-18.986-16.062,202.556,202.556,0,0,1-26.566-33.18A624.282,624.282,0,0,0,1949.582,868.5c-5.467-5.47-11.132-10.941-16.839-16.259-10.244-9.551-19.391-18.361-27.961-26.937-37.425-37.446-64.542-71.168-85.341-106.125a134.3,134.3,0,0,0-20.493-26.187c-10.894-10.9-23.95-20.613-39.912-29.689-59.955-34.093-111.355-79.711-157.968-123.929-12.72-12.066-27.7-21.724-40.083-25.835-35.067-11.647-69.869-21.848-103.525-31.715l-.381-.111c-12.279-3.594-24.286-7.113-36.176-10.662l-5.451-1.63,2.939,4.875c67.065,111.291,130.189,195.033,198.655,263.538a872.36,872.36,0,0,0,136.612,112c23.774,15.651,49.081,28.656,73.553,41.234l2.032,1.046c6.171,3.173,12.552,6.455,18.825,9.752a219.192,219.192,0,0,1,54.1,39.523c5.154,5.157,10.192,10.725,14.976,16.55,11.355,13.846,26.492,31.844,42.9,48.268,25.823,25.837,50.353,43.628,77.2,55.989,10.15,4.673,19.651,11.515,29.045,20.918,10.433,10.437,19.319,22.546,28.255,35.074,17.333,24.3,38.565,52.666,64.633,78.749a352,352,0,0,0,44.872,38.231,94.343,94.343,0,0,1,11.873,10.21c8.9,8.91,17.02,19.721,24.867,30.177l.028.037c2.156,2.873,4.385,5.844,6.625,8.766,10.132,13.2,18.228,27.515,26.314,42.248,25.331,46.177,49.733,91.151,75.568,138.766l.029.053.484.892,0,.01c8.99,16.565,18.285,33.694,27.615,50.866-2.327,2.344-4.782,4.861-7.3,7.448l-.09.092c-9.087,9.321-19.385,19.886-30.65,29.57a5.508,5.508,0,0,1-3.391.769,36.2,36.2,0,0,1-12.8-3.01,639.248,639.248,0,0,1-146.031-87.022c-18.09-14.324-36.946-22.1-57.646-23.768-24.709-1.994-50.309-5.709-75.066-9.3l-.419-.061c-36.1-5.239-69.569-23.07-99.481-53-1.122-1.12-2.321-2.344-3.664-3.743l-8.764-9.138-.087-.09c-19.972-20.824-40.624-42.356-60.437-63.945-1.982-2.158-3.99-4.257-5.97-6.237-16.479-16.488-33.438-27.385-51.848-33.316-17.52-5.644-32-14.351-44.258-26.615a116.915,116.915,0,0,1-11.817-13.895,64.96,64.96,0,0,0-6.6-7.639,91.624,91.624,0,0,0-11.484-9.673,577.617,577.617,0,0,1-72.834-62.05c-15.028-15.037-30.131-31.647-44.89-49.369-.757-.909-1.473-1.7-2.187-2.413a26.449,26.449,0,0,0-12.7-7.089l-5.808-1.482,3.476,4.89c4.576,6.44,9.13,13.059,13.534,19.461l.082.119.008.012c9.645,14.022,19.617,28.52,30.532,42.161,10.128,12.657,20.882,26.11,33.846,42.337l.031.039c61.757,77.279,125.616,157.191,190.009,234.878,9.037,10.9,18.586,21.4,28.383,31.2,46.478,46.5,101.076,80.148,162.278,99.995,8.452,2.741,16.982,5.613,25.232,8.391l.063.022c17.107,5.763,34.8,11.723,52.268,16.672a60.1,60.1,0,0,0,15.969,2.7c4.81,0,8.458-1.1,11.152-3.359,3.812-3.2,5.29-8.447,4.52-16.031-1.112-10.972-5.482-20.555-12.637-27.713-6.386-6.393-14.756-10.771-24.876-13.012-18.174-4.025-36.62-7.865-54.458-11.579l-.016,0-.464-.1-.521-.109c-20.87-4.347-42.449-8.843-63.7-13.653-38.073-8.612-72.532-28.142-102.421-58.047-5.008-5.011-9.962-10.394-14.724-16-33.549-39.5-69.216-81.694-104.038-125.049-6.183-7.7-10.543-16.9-14.761-25.8l0-.005c-1.785-3.771-3.4-7.166-5.141-10.529l3.315-1.508q8.774,8.765,18.022,17.9l2.33,2.31c5.48,5.432,11.146,11.049,16.75,16.656,8.653,8.658,15.71,15.833,22.207,22.582,5.529,5.743,11.159,11.484,16.735,17.063,78.831,78.873,150.418,127.56,225.29,153.221a263.6,263.6,0,0,0,50.3,11.892c36.2,4.858,67.938,20.615,97.022,48.17,13.666,12.944,27.762,25,42.686,37.768l.011.01.1.082.279.239c6.014,5.143,12.231,10.46,18.455,15.877-1.259,1.276-2.507,2.559-3.995,4.091l-.032.033c-5.061,5.21-10.291,10.6-15.994,15.443a9.118,9.118,0,0,1-5.447,1.567A8.965,8.965,0,0,1,2259.5,1626.9ZM1226.367,384.936c6.986,10.762,13.81,21.35,19.293,29.857l.094.145c12.4,19.254,25.229,39.164,37.953,58.177,3.966,5.929,8.017,11.918,11.935,17.711l.365.539.032.049c25.681,37.979,52.236,77.252,69.244,118.909a128.13,128.13,0,0,0,28.41,42.136,163,163,0,0,0,18.916,16.141c8.838,6.467,18.026,14.556,28.917,25.456,2.19,2.189,4.529,4.574,7.15,7.29,11.8,12.215,23.233,23.867,33.994,34.634,50.153,50.182,96.475,92.114,141.612,128.191,10.972,8.772,21.873,18.13,32.415,27.182l.036.03.216.186c30.846,26.5,62.742,53.9,100.532,70.19,53.66,23.134,106.063,58.975,164.917,112.8,17.436,15.943,33.273,31.059,48.418,46.213,70.545,70.583,122.333,139.367,158.323,210.281a665.442,665.442,0,0,0,45.673,76.546,190.949,190.949,0,0,0,21.959,26.353c27.79,27.807,62.771,45.185,93.324,58.517l6.661,2.907-3.934-6.115c-49.786-77.4-81.785-153.557-107.869-218.867-9.1-22.776-21.186-41.519-36.962-57.3a160.86,160.86,0,0,0-24.091-19.761,181.744,181.744,0,0,1-26.681-22.505c-2.592-2.593-5.25-5.362-7.905-8.228-10.257-11.091-21.276-22.536-32.751-34.017-45.465-45.492-94.151-87.684-144.2-130.492-46.532-39.8-96.89-80.7-155.793-105.021a217.414,217.414,0,0,1-48.094-27.471c-53.625-40.848-98.738-79.762-137.917-118.964-67.471-67.513-117.788-136.343-153.827-210.424-14.625-30.06-31.942-54.887-52.944-75.9-23.358-23.374-50.586-41.316-83.241-54.853-10.092-4.184-20.191-8.975-31.886-14.523l-.07-.033-.034-.016c-6.075-2.883-12.357-5.864-19.422-9.138l-6.925-3.208Zm472.78,1198.393c-3.547-.673-6.9-1.307-9.641-3.108-11.018-7.246-22.61-15.718-35.434-25.9-12.514-9.931-25.153-20.179-37.382-30.089-18.911-15.332-38.469-31.186-58.033-46.252a364,364,0,0,1-35.179-30.659c-34.191-34.171-54.288-70.369-61.44-110.657l-.121-.676c-5.077-28.566-10.323-58.105-14.259-86.875-2.9-21.241-12.023-40.511-27.872-58.909-27.83-32.3-46.541-66.693-57.2-105.128-11.4-41.084-35.829-79.334-76.892-120.379-12.33-12.326-26.437-25.242-44.389-40.646-17.41-14.935-34.618-30.883-51.145-47.4-4.9-4.9-9.817-9.925-14.6-14.926q-1.771-1.851-3.569-3.648c-31.847-31.83-68.811-50.208-103.936-66.307-49.266-22.573-84.416-45.812-113.962-75.349-4.488-4.483-8.9-9.181-13.107-13.958-3.5-3.968-7.137-7.85-10.818-11.526-33.538-33.522-74.6-55.169-129.22-68.121-18.644-4.422-33.756-12.9-47.545-26.685-2.68-2.678-5.353-5.608-7.945-8.717-2.686-3.215-5.383-6.182-8.02-8.814A68.034,68.034,0,0,0,721.8,566.429a169.653,169.653,0,0,1-40.7-29.713c-20.241-20.23-34.755-45.849-44.35-78.272l44.223-44.2c.6.779,1.217,1.559,1.833,2.336A48.773,48.773,0,0,1,689,425.65c3.584,7.692,6.91,15.611,10.126,23.273,5.854,13.947,11.911,28.372,19.786,42.061,14.369,24.978,29.116,44.878,45.084,60.845,19.06,19.045,39.917,32.706,63.759,41.766,9.589,3.642,19.345,10.279,28.783,16.7,3.171,2.16,6.336,4.31,9.489,6.354,5.246,3.394,10.529,7.277,15.642,11.028,9.641,7.086,19.616,14.411,29.878,18.9,25.032,10.949,44.809,23.867,60.446,39.5a148.354,148.354,0,0,1,10.839,12.084,200.847,200.847,0,0,0,14.657,16.351c26.8,26.795,58.342,43.074,88.839,58.821,20.1,10.377,40.89,21.108,59.974,34.715,1.311.934,2.661.518,4.366-.007.841-.261,1.951-.6,3.442-.946l3.59-.826-2.431-2.769c-2.528-2.882-4.913-5.733-7.243-8.514-4.379-5.235-8.524-10.179-13.079-14.734q-.983-.983-1.994-1.938c-26.686-25.251-50.8-47.938-75.688-69.914-12.872-11.371-25.867-23.176-38.426-34.593-33.744-30.665-68.638-62.379-105.289-89.259a471.589,471.589,0,0,1-54.4-46.185c-44.217-44.2-71.415-92.774-83.168-148.517-2.431-11.544-8.208-23.589-13.789-35.236-2.324-4.841-4.718-9.833-6.834-14.72L768.258,327c2.519,2.954,5.177,5.881,7.763,8.73C782.793,343.2,789.8,350.916,794.2,359c2.379,4.352,4.849,8.753,7.331,13.179,11.638,20.753,23.672,42.209,27.739,62,7.207,35.063,25.6,66.425,57.887,98.7,11.119,11.116,24.243,22.721,41.306,36.518,23.551,19.049,47.722,41.023,73.892,67.178,13.744,13.74,28.106,28.648,46.556,48.336q2.526,2.693,5.168,5.335a302.9,302.9,0,0,0,49.054,39.091,473.351,473.351,0,0,1,77.551,62.692,531.328,531.328,0,0,1,59.155,70.881c16.536,23.613,30.931,41.3,45.312,55.676l1.763,1.753c19.385,19.376,35.984,40.235,52.24,65.643,12.955,20.249,27.811,40.134,42.183,59.368,9.513,12.726,19.345,25.888,28.528,39.021,33.368,47.726,56.227,92.055,69.883,135.52,7,22.272,11.237,46.962,12.96,75.491,1.66,27.5,12.73,53.683,37.019,87.539,38.554,53.744,82.06,104.622,133,155.538q6.541,6.539,13.176,13,.673.655,1.335,1.32c6.385,6.379,12.354,13.482,18.126,20.352,2.609,3.113,5.225,6.221,7.883,9.281l-.755,1.587C1701.372,1583.748,1700.249,1583.536,1699.147,1583.329Z" transform="translate(-537 -839.25)"/></g></svg>