<?xml version="1.0" encoding="utf-8"?>
<!-- Generator: Adobe Illustrator 20.1.0, SVG Export Plug-In . SVG Version: 6.00 Build 0)  -->
<svg version="1.1" id="Layer_1" xmlns="http://www.w3.org/2000/svg" xmlns:xlink="http://www.w3.org/1999/xlink" x="0px" y="0px"
	 viewBox="0 0 1440 809.9" style="enable-background:new 0 0 1440 809.9;" xml:space="preserve">
<style type="text/css">
	.st0{fill:#303D78;}
	.st1{clip-path:url(#SVGID_2_);}
	.st2{fill:#25B89D;}
</style>
<g>
	<g id="Mask_Group_13" transform="translate(9.869 125.423)">
		<g id="pattern_01" transform="translate(0 -278.801)">
			<rect id="Mask-3" x="-9.9" y="153.4" class="st0" width="1440" height="809.9"/>
			<g id="Group_13">
				<defs>
					<rect id="SVGID_1_" x="-9.9" y="153.4" width="1440" height="809.9"/>
				</defs>
				<clipPath id="SVGID_2_">
					<use xlink:href="#SVGID_1_"  style="overflow:visible;"/>
				</clipPath>
				<g id="Mask_Group_19" class="st1">
					<path id="Combined_Shape" class="st2" d="M1264.5,1205.5c-2.4-1.4-3.5-5-3.5-7.8c0-0.2,0-0.3,0-0.5c0.2-4.4,2.4-8.5,5.2-11.9
						c8.9-11.2,22.6-16.7,33.2-26c9.7-8.5,19-17.1,27.2-27.2c17.3-21.2,30-45.7,37.3-72c4-14.5,5.4-28.9,6.4-43.8
						c0.1-1.7,0.2-3.3,0.2-5c0-13.5-3.5-26.9-3.5-40.5c0-1.3,0-2.6,0.1-3.9c0.2-4.5,0.9-9.3,3.9-12.6c14-15.4,18.3,23.6,19.4,30
						c1.9,11.4,2.9,22.9,2.9,34.5c0,1.9,0,3.8-0.1,5.7c-0.7,26.3-6.5,52.2-17.1,76.3c-20.2,45.7-57.5,82.3-102.7,103.3
						c-1.9,0.9-4.2,2.1-6.4,2.1C1266.2,1206.2,1265.3,1206,1264.5,1205.5z M-161.3,1185.3c0-0.2,0-0.5,0-0.7
						c0-5.7,4.4-12.3,7.2-16.7c9.6-15,21.1-30.5,34.1-42.8c23.4-22.3,50.7-32.4,82.2-37.1c28.6-4.3,58.4-3.5,86.4,4.1
						c16,4.2,31.1,11.5,44.4,21.4c7.3,5.6,16.2,11.7,20.5,20c0.9,1.7,1.5,3.6,1.5,5.5c0,7.2-8.7,10.5-16.7,7.4
						c-7.3-2.8-12.4-9.3-18.7-13.8c-19.9-14.3-44.4-21.5-68.6-23.9c-22.8-2.2-50.2-1.8-71.7,6.8c-18.6,7.4-35.8,17.8-50.9,30.8
						c-7.7,6.7-13.6,15.1-19.7,23.3c-4.9,6.7-10.1,17.9-18.1,21.3c-1.3,0.5-2.7,0.8-4,0.8C-157.5,1191.9-161,1189.7-161.3,1185.3z
						 M148,1174.7c-2.4-3.2-3.3-7.3-4.1-11.2c-4.5-21.3-8.8-42.7-16.4-63.1c-14.4-38.6-44.6-71-80.7-90.3
						c-29.6-15.8-65.8-17.8-98.7-16.8c-7.5,0.2-16.1,1-23.1-2.2c-3.1-1.5-4.5-3.6-4.5-5.8c0-2.6,1.8-5.2,4.7-6.9
						c6.4-3.8,17.6-4.3,24.8-5.2c17-2.1,34.1-1.6,51,1.3c34.6,5.8,66.9,20.9,93.5,43.7c29.2,25.2,50.1,59.7,60.1,96.4
						c1.8,6.4,8.6,33.1,8.6,50c0,7.3-1.3,12.8-4.7,14.1c-0.8,0.3-1.6,0.4-2.5,0.4C152.8,1178.9,149.9,1177.2,148,1174.7L148,1174.7z
						 M381.8,1142.8c-3.8-0.2-7.6-0.2-11.4,0c-9.6,0.4-19.5,0.7-27.5-5.1c-2.7-2-4.4-5-4.6-8.4c0-0.7,0.1-1.5,0.3-2.2
						c0.8-2.4,2.5-4.4,4.8-5.5c12-6.6,29.3-2.4,42.1-1.3c46.6,4.1,89.6-3.7,131.8-23.6c25.3-12.1,47.9-29.4,66.2-50.7
						c18.6-21.5,35.5-46.1,50.1-70.6c3-5,9.4-19.4,15.9-23.9l-1.2-1.3c0.6,0.3,1.1,0.6,1.7,0.9c-0.2,0.1-0.4,0.2-0.6,0.4l0.6,0.6
						c0.2-0.2,0.5-0.4,0.7-0.7c-0.2-0.1-0.5-0.2-0.7-0.3c0.6-0.4,1.3-0.7,2.1-0.9c1.6-1.3,3.2-2.5,5-3.6c1.5,3.4,2.3,7.1,2.3,10.9
						c0,13.2-9.4,25.7-15.3,37.4c-8.9,17.6-19.4,34.3-31.5,49.9c-24.5,31.6-55.5,58.3-91.4,76.1c-27.7,13.8-58.4,20.4-89.2,22.3
						c-6.8,0.4-13.6,0.6-20.4,0.6C401.6,1144,391.7,1143.6,381.8,1142.8L381.8,1142.8z M1115.3,1125.7c-0.6-0.8-0.9-1.7-0.9-2.6
						c0.1-2.1,1.1-4,2.7-5.2c2.4-1.8,5.5-2.2,8.5-2.7c44-7.6,78.2-45.6,98.7-83.2c4-7.3,8.4-13.5,11.5-21.3
						c2.8-7,6.1-16.1,13.5-19.4c6.1-2.8,10.5,2,10.5,8.1c0,1.4-0.2,2.8-0.7,4.1c-9.8,29.6-25.5,56.8-46.3,79.9
						c-14.6,16.3-31.9,30.4-51.4,40.4c-4.6,2.4-9.3,4.4-14.2,6.1c-5.1,1.8-10.4,2.8-15.8,3
						C1125.1,1132.8,1119.3,1130.9,1115.3,1125.7L1115.3,1125.7z M1251.7,1116.6c0-2.3,1.2-5.4,4.1-9.1
						c30.2-38.9,51.2-94.1,51.2-144c0-1.5,0-3-0.1-4.5c-1-41-16.4-82.5-44.5-112.7c-14.8-15.9-32-29.4-49-43
						c-3.1-2.5-6.3-5.1-8.1-8.7c-0.8-1.6-1.2-3.3-1.2-5.1c-0.1-2.3,0.8-4.4,2.4-6c9.1-8.3,48.4,25.8,55.5,32.2
						c28.3,25.5,49.7,59.7,59.2,97c3.9,16.1,5.8,32.7,5.7,49.3c-0.1,20.1-2.3,40.1-6.6,59.8c-7.4,34.3-21.2,68.3-46,93.8
						c-3.9,4.1-9.3,6.5-15,6.7C1254.9,1122.4,1251.6,1120.4,1251.7,1116.6L1251.7,1116.6z M173.9,1097c-2.5-4.3-2.7-9.6-2.7-14.6
						c0-1,0-2,0-3c0-16.3,0.8-32.6,0.8-48.9c0-5.8-0.1-11.5-0.4-17.3c-2.3-49.1-23.3-92-62.9-121.9c-23.1-17.5-50.1-29.3-77.8-37.9
						c-4.8-1.5-10.6-4.1-10.6-9.1c0,0,0-0.1,0-0.1c0.1-3.5,3.4-6.3,6.9-6.9s6.6,0.5,10.2,0.7c58.2,3.5,111.7,41.7,139.1,93.2
						c15.1,28.4,22.7,60.5,23.5,92.6c0,1.9,0.1,3.8,0.1,5.7c0,14.3-1.3,28.5-3.9,42.6c-0.8,4.6-3.8,20.5-8.8,28
						c-1.6,2.5-3.5,4.1-5.6,4.1C179.5,1104.1,176.8,1102.1,173.9,1097z M287,1098.5c-17.6-0.9-47.7-2.7-60.6-16.9
						c-1.9-2-2.9-4.7-3-7.5c0-1.8,0.5-3.5,1.6-4.9c3.1-3.7,8.8-3.4,13.6-2.8c39.7,5.1,80.3,6.4,119.6-1.6
						c31.6-6.4,55.6-16.9,80.4-38.2c23.6-20.2,44.2-44.5,58.9-72c16.4-30.7,22.8-64.4,30.4-98c1.7-7.4,6.2-11.5,9.6-9
						c1.5,1.1,2.8,3.4,3.5,7.2c0.9,5,1.4,10.1,1.4,15.1c0,15.3-3.4,32-7,45.3c-12,43.8-31.2,83.8-64.2,115.1
						c-32.6,30.9-73.6,55.6-118.4,63.2c-18,3-36.3,5.2-54.7,5.2C294.5,1098.7,290.8,1098.6,287,1098.5L287,1098.5z M-177.4,1087.1
						c-5.2-0.2-7.3-2.7-7.3-5.7c0-2.8,1.9-6.1,4.8-8.2c47.1-34.4,107.9-49.3,165.5-40.6c5.5,0.8,9.4,4.7,9.4,8.8
						c-0.1,2.2-1.2,4.2-2.9,5.5c-6.3,5.2-15.9,4-23.4,3.4c-8.3-0.7-15.8,0.4-24.2,0.7c-21.5,0.9-42.8,5-63.1,12.1
						c-11,3.9-21.2,8.9-31.7,13.8c-7.1,3.3-18.8,10.1-26.6,10.1C-177.1,1087.1-177.2,1087.1-177.4,1087.1z M1056.9,1066.3
						c-2.1-1.2-3.5-3.4-3.4-5.9c0.1-2.8,1.4-5.5,3.5-7.3c6.6-5.6,18.9-5.2,27.1-6.6c10-1.7,20.2-3.3,29.6-7.1
						c18.5-7.7,35.5-18.4,50.4-31.7c17.3-15.3,30-39.7,38.2-61c6.6-17.2,10.9-35.7,10.9-54.2c0-6-0.4-12-1.4-17.9
						c-1.1-6.8-4-13.6-4-20.5c0-0.8,0-1.6,0.1-2.4c1.1-10.6,11.3-17.6,18.4-7.8c5.5,7.6,7,18.3,8.7,27.3c1.3,7.3,2,14.7,2,22.2
						c0,9.1-1,18.2-2.8,27.1c-5.8,28.4-18.4,55.4-35.1,79.1c-18.3,26-39.6,45.8-70.1,56.7c-16.8,6-35.8,9.4-53.5,11.2
						c-3,0.4-6,0.6-9,0.6C1063.1,1068.3,1059.6,1067.8,1056.9,1066.3L1056.9,1066.3z M1443.2,1057c-3.1-1.5-4-4.9-4-8.5
						c0-1.7,0.2-3.4,0.5-5.1c2.8-16.1,4.2-32.4,4.3-48.7c0.1-12.7-1-25.3-3.3-37.8c-8.9-48.8-37.9-86.8-80.7-110.9
						c-20.1-11.3-41.5-20.2-62-30.7c-4.4-2.3-9-4.8-11.8-9c-2.3-3.5-3.2-6.1-3.2-8.1c0-3.3,2.7-4.9,6.6-5.4c9-1.1,24.5,3.4,29,4.7
						c15.5,4.6,30.5,10.7,44.8,18.3c28.3,15.1,53.6,36.3,72.2,62.5c21.4,30.4,33.1,66.7,33.2,103.9c0.1,21.4-4.1,42.5-12.4,62.2
						c-1.4,3.3-1.8,6.5-4,9.4c-1.6,2.2-4.1,3.5-6.8,3.7C1444.9,1057.6,1444,1057.4,1443.2,1057L1443.2,1057z M312.1,1042.3
						c-0.3-0.7-0.5-1.5-0.5-2.3c0-2.9,1.9-5.8,3.7-8.2c30.2-40.8,59.8-89.3,69.6-139.6c3.1-16.1,5.2-32.4,6.1-48.8
						c0-0.2,0-0.5,0-0.8c0-3-0.5-10.3-0.5-18.2c0-16.9,2.4-36.5,17.4-21.5c4.1,4.1,5.2,12.1,5.2,20.4c0,8.2-1.1,16.7-1.3,21.9
						c-2,45.8-14.7,90.4-37.1,130.3c-7.3,13.1-15.6,25.6-24.8,37.5c-6.6,8.5-18.2,28.5-28.2,32.4c-1,0.4-2.1,0.6-3.2,0.6
						C315.8,1046,313.1,1044.7,312.1,1042.3z M525.2,1016.3c0-0.3,0-0.6,0-1c0-4.4,2.7-8.5,5.4-12.2c19.4-27.2,38.6-54.9,51.7-85.6
						c15.3-35.8,21.8-74.6,21.8-113.6c0-17.2-1.3-34.5-3.7-51.6c-1.7-11.8-3.8-23.7-3.8-35.6c0-4.2,0.3-8.4,1-12.6
						c0.6-4,1.9-8.3,5.1-10.7c11.8-8.7,20.4,42,21.8,48.9c3.9,20.3,5.9,41,5.9,61.7c0,2.3,0,4.7-0.1,7
						c-0.9,45.8-11.5,90.9-31.1,132.3c-9,18.7-19.9,36.7-33.5,52.4c-3.2,3.7-24.8,27.2-35.1,27.2
						C527.6,1022.8,525.6,1021,525.2,1016.3L525.2,1016.3z M430.4,979.5c-4.3-0.7-5.9-3.1-5.9-6.4c0-8.6,11.2-23,13.3-27.1
						c7.6-14.6,13.6-30,17.7-46c4.3-16.4,6.4-33.2,6.5-50.2c0-45-15.7-89.2-49.2-121.7c-3.7-4-5.8-9.1-6.1-14.5
						c0-5,2.9-8.5,10.9-5.8c4.1,1.3,7.2,4.5,10.1,7.6c33.7,35.7,54.4,80.1,56,129c0.1,2.2,0.1,4.4,0.1,6.6
						c0.1,34.3-8.6,68.1-25.1,98.2c-5,9-11.7,19.6-20,25.8c-2.4,1.8-4.4,4.5-7.5,4.5C431,979.6,430.7,979.6,430.4,979.5L430.4,979.5
						z M720,978.8c-3.6-0.1-6.6-3.2-7.8-6.6c-0.7-2.2-1-4.5-0.9-6.9c0-1.3,0.1-2.6,0.1-3.9c0.1-3.5,0.2-7,0.2-10.6
						c0-42.5-9.7-93.4-34.5-126.9c-1.4-1.9-3-3.9-3.4-6.3c-0.1-0.5-0.1-0.9-0.1-1.4c0-6,7.8-10.4,13.9-8.7c6.6,1.8,11,7.9,14.5,13.7
						c20.6,33.5,29.7,74.9,29.7,114.9c0,9.5-0.5,19-1.6,28.4c-0.7,6.3-3.6,14.3-9.9,14.3C720.1,978.8,720.1,978.8,720,978.8
						L720,978.8z M863,966.9c-10-5.1-14.2-16.9-19.4-26.9c-2.9-5.6-6.3-10.8-10.2-15.7c-2.8-3.6-6.1-7-10.3-8.8
						c-7.7-3.2-16.8,0.2-22.6,6.2s-8.7,14.1-11.1,22c-1.4,4.7-2.9,9.8-6.9,12.8c-8.6,6.6-11.5-2.3-11.5-8.9c0-0.3,0-0.5,0-0.8
						c0.6-12.2,3.9-24.1,9.7-34.9c5.8-10.4,15.5-19,27.1-21.8c16-3.8,32.9,4,44.3,15.8c7.9,8.2,13.7,18.1,18.7,28.2
						c3.5,7,8.7,13.5,8.7,21.4c0,0.9-0.1,1.9-0.2,2.8c-0.5,3.6-2.5,6.9-5.6,8.9c-0.7,0.4-1.4,0.7-2.2,0.9c-0.8,0.2-1.6,0.3-2.3,0.3
						C867.1,968.5,865,967.9,863,966.9L863,966.9z M915.6,955c-10-11.9-13.5-27.9-19.1-42.4c-15.8-41.1-51.3-74.2-93.5-86.9
						c-4.7-1.4-10-2.9-12.7-7.1c-0.8-1.2-1.3-2.6-1.3-4c0-5.7,8.6-9.2,13.7-9c10.4,0.5,23.5,7.5,32.8,12
						c43.8,21,76.1,60.2,88.5,107.2c1.6,6.1,6.6,14.8,6.6,22c0,1.4-0.2,2.9-0.7,4.2c-0.7,2.1-1.9,4-3.3,5.6
						c-1.2,1.3-2.9,2.2-4.7,2.2C920,958.7,917.9,957.6,915.6,955L915.6,955z M66.7,952.7C51.5,946,39.2,933.9,24,927.6
						c-13.8-5.7-27.3-11-42.1-13.9c-26.8-5.3-54.4-4.9-81.1,1c-12.7,2.8-24.6,7.2-36.5,12.1c-13,5.3-24.1,15.1-38.1,18
						c-4.3,0.9-8.9,1-13-0.7c-2.5-1.1-5.6-3.9-5.8-6.8c0-0.1,0-0.2,0-0.3c0-3.2,3.1-5.2,5.3-7c39-30.9,88.4-47.8,138.4-45.4
						c26.3,1.4,52,7.8,75.9,19c12.2,5.7,23.8,12.6,34.6,20.5c4,3,24.5,16.3,24.5,24.9c0,2.5-1.8,4.7-6.4,5.9c-1,0.3-2.1,0.4-3.1,0.4
						C73.2,955.3,69.8,954.1,66.7,952.7L66.7,952.7z M976,938.1c-3.4-1.3-5.2-5.2-5.2-8.8c0-0.4,0-0.7,0.1-1.1c0.4-4,2.4-7.6,4.4-11
						c11-18.8,22.1-37.6,30.1-57.8c7.5-19.3,11.3-39.8,11.2-60.5c0-20.7-3.6-41.2-10.6-60.7c-11.3-31.6-36.8-57.4-62-78.7
						c-5.7-4.8-12.6-10-15.6-17.1c-0.5-1.1-0.8-2.3-0.8-3.6c0-4.5,4.6-6.7,9.5-5.7c7.3,1.5,15.9,8.6,21.9,12.8
						c14,9.8,26.4,21.7,37,35.1c21.8,27.5,35.6,60.4,40.1,95.1c0.9,7.5,1.4,15,1.4,22.5c-0.1,31-7.4,61.6-21.4,89.3
						c-4.1,8.1-26.4,50.4-38.4,50.4C977.1,938.4,976.6,938.3,976,938.1L976,938.1z M1581.8,927.2c-10.2-2.5-19.2-11.4-24.8-19.9
						c-6-9.1-10.2-19.2-16-28.4s-13.8-17.7-24.2-20.8c-5.7-1.7-11.9-1.8-17-5c-5.6-3.5-8.5-10.4-8.5-17c0,0,0-0.1,0-0.1
						c0-6.6,2.6-13,5.9-18.8c6.7-11.8,18-24.6,30.8-29.8c5.8-2.4,25.7-3.4,25.6,3.3c0,1.7-1.2,3.8-4.2,6.6c-3.1,2.8-7.2,4-11,5.6
						c-9,3.7-26.4,16.8-26.4,26.3c0,3.8,2.8,7.1,10.1,8.9c35.9,9.1,32,47.6,58.3,67.3c1.4,1.3,3.2,2.1,5.1,2.4c3,0.2,5.5-2,8.2-3.3
						c8.6-4,12.8,0.7,12.8,6.8c-0.1,5.8-3.2,11.1-8.3,13.9c-3.3,1.8-6.9,2.7-10.6,2.7C1585.5,927.9,1583.6,927.7,1581.8,927.2
						L1581.8,927.2z M270.9,901c-14.7-2.4-30-8.8-37.3-21.8c-2.9-5.3-4.4-11.3-4.3-17.3c0-5.8,1.2-11.5,3.5-16.9
						c4.6-10.9,13.1-19.7,22.6-26.6c5.8-4.2,12.9-3.8,12.9,2.6c0,1.2-0.2,2.4-0.6,3.5c-1.7,5.8-7.2,9.5-11.2,13.6
						c-4.3,4.3-7.4,9.7-9,15.6c-0.8,2.6-1.2,5.3-1.2,8c0,9.8,6,17.6,16.7,21.1c8.4,2.7,20.8,3.7,27.1-3.3
						c6.7-7.4,9.2-16.1,10.5-25.9c1.3-9.8,1.1-20.3,5.8-29.2c0.9-1.8,2.1-3.5,3.4-5c6.8-8,17.8-12.2,26.3-18.3c2.6-1.9,5.4-4,6.5-7
						c0.4-1.2,0.6-2.5,0.6-3.8c0-2.3-0.5-4.7-0.7-7.1c0-0.5-0.1-0.9-0.1-1.3c0-8.8,8.7-13.2,13.2-4.1c2.1,4.6,3.2,9.6,3.2,14.7
						c0,1.9-0.2,3.7-0.6,5.5c-1.9,8.5-7.9,15.8-15.4,20.1c-7.3,4.2-16.3,6-21.7,12.5s-5.5,15.7-5.8,24.1c-0.3,8.8-1.1,17.7-4.3,25.9
						s-9.1,15.7-17.2,19.1c-4,1.6-8.4,2.4-12.7,2.3C277.7,902,274.3,901.6,270.9,901L270.9,901z M1041.5,893.1
						c0-1.8,0.2-3.5,0.6-5.3c1-4.9,4.4-8.9,7.7-12.6c15.4-17.2,32.1-33.2,46.7-51c24.6-29.9,38-64.9,38-102.2
						c0-10.2-1-20.4-2.9-30.4c-5.4-28.5-17.5-55.3-32.3-80.3c-1.7-2.8-3.3-6.3-3.3-9.4c-0.1-1.7,0.5-3.3,1.7-4.5
						c2.4-2.6,6.8-2.4,9.8-0.5s4.6,4.8,7.1,7.3c30.5,31,46,74.7,46.1,118.3c0,14.9-1.8,29.7-5.4,44.1c-7.9,31.2-23.8,60.1-44.7,84.4
						c-10.6,12.2-22.3,23.4-35.2,33.2c-3.7,2.9-16.5,12.7-25.3,14.9c-1.1,0.3-2.1,0.4-3.2,0.5
						C1043.7,899.7,1041.5,897.9,1041.5,893.1L1041.5,893.1z M952.8,873.9c-3.5-7-3-15.2-4.6-22.7c-5.2-24-18.5-45.7-34.9-63.7
						c-15.4-16.9-36-35-57.7-43.1c-18.7-7-38.5-10.8-58.4-11.3c-10.2-0.2-20.2,2.1-30.2,4.1c-8.1,1.6-19.5,6.5-27.7,3.6
						c-3.7-1.3-6.4-4.6-6.4-8c0-1.5,0.6-3,1.5-4.2c3.6-4.6,11.7-6.6,17-8.1c17.2-4.7,36.1-8.4,53.9-8.9c32.3-0.8,59.3,10,85.8,27.6
						c24.1,16,45.7,36.6,61.3,61c9.1,13.9,15.4,29.4,18.6,45.7c1.2,6.3,2.8,13.4,2.8,20.2c0,2.8-0.3,5.7-1,8.4
						c-1.4,5.4-4.8,7.7-8.4,7.7C960.1,882.2,955.4,879,952.8,873.9L952.8,873.9z M535.2,812.5c-0.1,0-0.2-0.1-0.2-0.1
						c-7-3.3-10-17-11.8-23.6c-4-13.9-8.2-27.9-14.1-41.1c-5.1-11.4-13.6-20.9-20.1-31.6c-1.8-3-3.7-6.1-4.1-9.6
						c0-0.4-0.1-0.7-0.1-1.1c0-3.2,1.5-6.5,4.5-7.7c3.4-1.3,7.2,0.6,10.1,2.7c21.4,15.6,37,49.6,44.4,74.4c2,7.7,3.1,15.7,3.2,23.7
						c0,8.1-1.7,15.1-7.3,15.1C538.1,813.6,536.6,813.2,535.2,812.5z M56.3,791.7c-19.6-9.8-38.6-18.9-56.8-31.2
						c-12.8-8.6-24.5-18.8-34.9-30.3c-5.7-6.4-20-21.2-20-32c0-1.4,0.3-2.8,0.8-4.1c0.4-1,1-2,1.6-2.9c7.4-9.9,19.5,10.9,22.7,15.5
						c13.4,19.6,34,33.4,53.1,46.4c20.5,13.9,42.7,26.4,66.9,32.5c12.1,3.1,24.5,4.9,36.9,7.2c12.7,2.3,25.6,2.5,38.5,2.1
						c5.8-0.2,12,0.1,17.7-0.6c4.9-0.6,9.2-2.7,14.3-1.9c3.9,0.6,8.6,3.9,8.6,8c0,0.7-0.2,1.5-0.4,2.2c-1.6,3.8-8.6,6.5-12.3,7
						c-12.9,1.9-25.9,2.9-38.9,2.9C120.3,812.6,85.3,806.2,56.3,791.7L56.3,791.7z M1435.9,776.5c-7.6-30.9-17.5-61.6-33-89.4
						s-37-52.8-64.3-69.2c-9.1-5.5-20.8-8.7-28.6-16.4c-3.8-3.8-5.4-6.8-5.4-9.1c0-6.8,13.9-7.4,23.5-3.3
						c43.3,18.8,78.8,52,100.5,93.8c13.8,26.7,21.4,56,29,85.1c1.4,4.8,2.1,9.7,2.3,14.7c0,6.1-1.7,11.9-7.5,14.1
						c-1.1,0.4-2.3,0.7-3.5,0.7C1440.5,797.5,1437.7,783.6,1435.9,776.5L1435.9,776.5z M279.3,778c-14.1-1.7-28.6-11.7-39.3-20.3
						c-46.3-36.9-84.9-82.6-108.3-136.8c-16.6-38.4-28.7-85.3-28.7-129.9c-0.1-16,1.6-31.9,5.2-47.5c0.3-1.2,0.6-2.5,0.9-3.7
						c3.4-12.3,8.9-29.6,18.9-38.2c11.3-9.7,15.3-4.7,15.3,3.9c-0.1,4.2-0.8,8.3-2,12.3c-7.5,24.7-12.7,48.2-12.7,72.6
						c0,11.9,1.2,23.7,3.7,35.4c7.8,37,16.6,73.4,32.6,108c25.2,54.4,71.9,100.1,122.5,131.3c3.9,2.4,5.5,4.8,5.5,6.8
						c0,3.7-5.3,6.3-11.2,6.3C280.9,778.1,280.1,778.1,279.3,778L279.3,778z M1265.4,743.6c-0.7-5.4-1.1-9.7-1.3-11
						c-1-7.6-1.5-15.3-1.5-22.9c0-12.4,1.5-24.8,5.5-36.5c3.2-9.4,8.7-20.3,15.8-27.4c2.8-2.8,5.3-3.9,7.4-3.7
						c4.3,0.4,6.7,6.2,6.7,12.2c0,1.4-0.1,2.9-0.4,4.3c-2,9.8-7.2,17.7-9,27.7c-1.7,10.1-2.4,20.3-2.3,30.5c0,0.3,0,0.7,0,1
						c0,6.1,3.1,16.7,3.1,25.8c0,6.4-1.5,12-6.4,15c-1.8,1.2-3.9,1.9-6.1,2C1269.6,760.5,1266.4,750.9,1265.4,743.6L1265.4,743.6z
						 M161.1,746c-12.4-7.8-24.2-16.4-35.4-25.8c-21.9-18.6-41.4-39.7-58.2-63.1c-31.3-43.4-53.4-93.9-60.2-146.9
						c-1.4-11.3-2.2-22.6-2.2-33.9c0-20.2,2.4-40.4,7.1-60.1c3.7-15.3,8.9-30.2,15.6-44.4c3.7-7.8,16.3-29.1,20.4-7
						c0.2,1.1,0.3,2.2,0.3,3.3c0,5.1-2,10.2-3.8,15.1c-1.6,4.3-3.1,8.6-4.4,12.9c-8,25.5-12,52.1-12,78.8c0,23.6,3.1,47.1,9.2,69.8
						c10.8,40.2,34.5,86.9,62.2,118c22.5,25.1,47.6,47.7,73.3,69.4c6.4,5.4,20.3,12,20.4,21.7c0,0,0,0.1,0,0.1c0,4.1-2,5.7-5,5.7
						C180.3,759.6,164.7,748.3,161.1,746L161.1,746z M940.9,728.9c-8.2-0.4-14.5-7.7-19.6-13.2c-5.7-6.1-12-10.3-18.4-15.7
						c-16.5-13.8-35.1-25-54.9-33.3c-10.7-4.5-21.7-7.6-32.8-11c-7.6-2.3-21.2-5.2-26.8-10.7c-2.1-2-3-4-3-5.7
						c0-4.1,5.2-6.8,10.4-6.3c58,6.1,113.1,35.8,150,80.9c1.8,2.2,2.8,4.9,2.9,7.7c0,4-2.4,7.3-7.1,7.3
						C941.3,728.9,941.1,728.9,940.9,728.9L940.9,728.9z M1639.7,722.8c-4.7-4.2-6.6-10.7-8.5-16.7c-1.4-4.3-2.8-8.6-4.4-12.9
						c-17.5-47.1-49.1-88.7-89.1-119c-33.2-25.1-80.6-47.4-121.5-54.9c-33.2-6-66.9-8.4-100.5-9.7c-2.1-0.1-4.6,0.1-7.3,0.2
						c-8,0.4-17.6,0.9-22.2-4.8c-1-1.1-1.6-2.5-1.7-4c0-8.4,26.9-9.2,31.9-9.7c14.6-1.5,29.2-1.9,43.8-1.4
						c28.7,1.2,57.1,5.9,84.6,14c51.3,15,99.8,41.3,137.7,79c22.5,22.2,40.7,48.4,53.8,77.2c6.5,14.3,11.5,29.3,15,44.6
						c0.9,4.2,1.5,8.5,1.5,12.8c0,5.3-1.1,9.9-4.8,9.9C1646.3,727.4,1643.5,726.1,1639.7,722.8L1639.7,722.8z M1527.5,716.2
						c-15.2-25.7-29.8-49.3-53-68.8c-28.9-24.4-58.1-47.7-92.1-65.2c-53.3-27.4-118.2-34.8-177.3-28.4c-6.7,0.7-9.4-1.5-9.3-4.6
						c0-3.4,3.2-7.9,7.8-10.6c12.1-7.3,29.8-8.3,43.5-8.2c59.2,0.7,117.7,13,169.5,41.4c54.7,30,100,73.2,128.1,129.5
						c2.1,4.2,4.1,8.7,4.1,13.3c0,0.8-0.1,1.5-0.2,2.3c-1,6.1-4,8.5-7.6,8.5C1536.2,725.3,1530.3,720.9,1527.5,716.2L1527.5,716.2z
						 M50.6,722.2c-7.8-4.5-14.6-10.5-21-16.8c-40.2-39.2-75-89.6-83.8-146.1c-1.4-9-3.3-18.4-3.3-27.6c0-2.7,0.2-5.4,0.5-8.1
						c1.3-9.1,8.4-21.9,16.9-8.3c2.3,3.7,2.9,8.1,2.9,12.7c0,4.2-0.5,8.5-0.5,12.5c0,0.6,0,1.2,0,1.8c0.4,9.4,1.7,18.8,3.9,27.9
						c4.2,17.9,11.5,34.9,20.8,50.7c19.4,33,45.3,61.6,71.6,89.5c2.6,2.7,4.6,5.6,4.6,8.3c0,1.8-0.9,3.4-2.4,4.5
						c-1,0.8-2.3,1.3-3.6,1.2C55,724.2,52.7,723.5,50.6,722.2L50.6,722.2z M1067.6,719.3c-4-2-6.3-6.3-8.1-10.3
						c-6.8-15.2-7.8-32.4-14.9-47.2c-6.4-13.5-12.9-26.5-21.9-38.5c-16.4-21.9-37.1-40.1-60.8-53.6c-11.3-6.5-23-11.2-35.2-15.6
						c-13.2-4.8-28-5-40.3-12.2c-3.8-2.2-7.3-5.2-9.1-9.2c-0.6-1.5-1-3.1-1-4.7c-0.1-1.5,0.4-3,1.2-4.2c2.1-2.6,5.9-2.1,8.8-1.9
						c49.6,3.2,97.7,23.8,133,59.2c28.1,28.4,47.4,64.3,55.4,103.5c0.7,3.4,3.9,15.7,3.9,25.1c0,6.3-1.4,11.3-6,11.3
						C1070.9,720.7,1069.1,720.2,1067.6,719.3L1067.6,719.3z M1201.7,689.5c-1.5-0.8-2.7-2.1-3.5-3.6c-2.4-4.2-3.1-9.1-3.1-14
						c0-0.7,0-1.4,0-2.2c0.8-22,11.8-41.2,27.8-55.8c6.6-6,16.2-16.6,25.8-11.9c4.7,2.3,6.5,5,6.5,7.8c0,4.5-4.8,9-10.2,11.8
						c-19.2,10.5-31.6,30.2-32.6,52.1c-0.1,3.8,0.1,7.8-1.5,11.2c-1.3,2.8-4.2,5-7,5C1203.1,689.9,1202.4,689.8,1201.7,689.5
						L1201.7,689.5z M340.3,680.4c0-3.8,2.3-8.4,7.4-11.9c21.6-15.3,43.3-30.7,64.9-46c71.3-50.5,118-133.2,123.9-220.6
						c0.4-5.2,0.5-10.4,0.5-15.6c0-35.2-8.2-70.5-26.4-100.5c-3.2-5.2-6.7-10.5-7.2-16.5c0-0.3,0-0.7,0-1c0-5.4,3.4-12.2,9.4-12.4
						c6.4-0.2,10.6,8.4,13.6,12.9c7.8,11.9,14.4,24.7,19.5,38c9.9,26.1,15,53.8,14.9,81.8c0,0.8,0,1.6,0,2.3
						c-0.4,46.2-13.8,91.7-35,132.8c-32,61.2-80.5,112.2-140.1,147.1c-9.3,5.5-19.7,12.4-29.9,16.1c-2.1,0.8-4.4,1.3-6.7,1.3
						C343.4,688.4,340.3,684.9,340.3,680.4z M212,661.6c-16.5-30.3-25.2-64.3-25.1-98.8c0-12.4,1.1-24.8,3.4-37
						c6.5-34.5,21-73.3,45.3-99.3c8.3-8.9,20.4-19,33.3-16.5c8,1.5,11.3,4.7,11.3,8.5c0,3.9-3.4,8.3-8.6,12.2
						c-8.3,6.2-15.9,13.4-22.5,21.5c-19.9,24.2-31,54.9-35.8,86.1c-1.7,10.9-2.6,21.9-2.6,33c0,20.9,3.3,41.7,10.8,61.1
						c3.8,9.9,11,19.6,12.5,30.5c0.2,1.4,0.3,2.7,0.3,4.1c0,5.8-2.2,8.1-5.4,8.1C223.6,675.2,215.9,668.7,212,661.6L212,661.6z
						 M478.3,647.9c0-0.3-0.1-0.6-0.1-0.9c0-9.8,21.4-10.1,28-12.1c13.9-4.1,27.6-8.8,41-14.3c25.6-10.1,50-23.2,72.7-38.9
						c39.5-27.7,72.7-65.3,91.2-109.8c10.2-24.7,15.3-51.1,19.9-77.3c1.4-8.3,2.1-16.7,2-25.1c0-29.4-6.9-60.8-13-87.8
						c-0.9-3.9-5.3-16.8-5.3-25.8c0-5.9,1.9-10.2,7.8-9.2c9,1.5,13.9,11.2,16.9,19.9c10.8,30.8,15.1,61.6,16.6,94
						c0.2,4.3,0.3,8.6,0.3,12.8c0,22.5-2.8,44.9-8.5,66.6c-11.6,44.6-33.7,87.1-66.8,119.5c-40.1,39.3-90.9,69.6-145,84.9
						c-5.7,1.6-30.5,8.8-45.7,8.8C483.7,653.3,478.8,651.9,478.3,647.9z M635.9,648.8c-3.6-2.3-5.1-4.4-5.1-6.4
						c0-7,18.2-11.9,24-13.4c18.2-4.9,35.8-11.8,52.5-20.6c29.2-15.3,51.6-36.3,75.1-58.9c2.9-2.8,5.8-5.6,9.3-7.4
						c0.3-0.1,0.6-0.3,0.9-0.4c3.4-1.5,7.3-2,10.6-0.5c4,1.7,5.4,5.5,5.4,9.6c0,3.3-0.9,6.5-2.4,9.4c-5.4,9.7-12.9,18.3-21,25.8
						c-16.3,15.2-35.8,26.3-55.5,36.4c-24.7,12.6-50.5,24.1-77.9,28.2c-2.2,0.4-4.4,0.5-6.7,0.6
						C641.9,651.2,638.7,650.4,635.9,648.8L635.9,648.8z M331.8,622.8c0-3.4,2.9-7.4,9.9-11.4c11.1-6.2,21.9-12.7,31.5-21
						c35.9-30.3,56.5-74.9,56.3-121.9c0-5.9-0.3-11.8-0.9-17.6c-1.4-12.9-4.7-24.9-8.5-37.2c-0.8-2.7-3.1-6.8-3.1-10.4
						c-0.1-1.7,0.6-3.3,1.9-4.5c6.7-6.1,13.3,1.3,18.5,11.4c5.5,10.9,9.4,25,10,28.9c1.4,9.4,2.1,18.8,2.1,28.3
						c0,65.7-33,138-96.5,161.4c-2.9,1.1-6,1.7-9.2,1.7C336.8,630.4,331.8,627.2,331.8,622.8z M298.9,591.8
						c-20.6-0.9-37.6-12.9-37.6-33.3c0-1.1,0-2.1,0.1-3.2c3.6-44.4,70-35.9,80.3-74.3c0.5-2,0.8-4.1,0.8-6.1
						c0-13.3-10.5-25.8-14.4-39.2c-1.3-4.7-2-9.6-2-14.5c0-6.2,1.1-12.5,3.7-17.6c2.7-5.2,16.4-20.3,22.9-10.7
						c0.4,0.7,0.7,1.5,0.6,2.3c0,5-5.6,13.1-6.3,16.8c-0.6,3.6-1,7.2-1,10.8c0,3.6,0.3,7.2,1,10.7c1.9,9.8,6,18.5,11,27
						c3.1,5,5.6,10.4,7.4,16c0.7,2.5,1.1,5.1,1.1,7.7c0,1.8-0.2,3.7-0.5,5.5c-4.9,29.2-40.2,32.8-62.8,40.7
						c-12.7,4.4-25.1,17.4-25.1,27c0,5.9,4.8,10.6,17.2,11.2c2.1,0.1,6.3-0.8,11.1-1.6c10.7-1.9,24.4-3.8,24.4,4.7
						c0,0.1,0,0.2,0,0.2c-0.2,2.5-1.2,4.9-2.8,6.8c-6.2,8.6-17,13.1-27.6,13.1C300,591.8,299.4,591.8,298.9,591.8L298.9,591.8z
						 M557.8,554.4c-0.2-0.9-0.4-1.9-0.4-2.8c0-11,15.4-23,21.1-30.3c21.7-27.4,46.7-59.3,56.9-93.1c7.5-24.4,11.6-49.8,12.1-75.4
						c0-2,0.1-4,0.1-6c0-10.8-0.7-21.5-2-32.2c-0.6-4.6-2.9-10.9-2.9-15.8c0-0.6,0-1.1,0.1-1.7c0.1-1.1,0.4-2.1,0.9-3.1
						c3.3-7.2,14-5,18.9,2.4c3.8,5.7,4.5,12.9,4.9,19.8c0.3,6.5,0.5,13.1,0.5,19.6c0,37.6-5.7,75.2-18.5,110.5
						c-15,41.4-40,79.6-73.8,107.9c-3.7,3.1-8.2,6.2-11.9,6.2C561.2,560.5,559,558.8,557.8,554.4z M1616.9,549.7
						c-8.6-3.1-12.9-13.2-18.5-19.8c-6.1-7.2-12.9-13.7-20.2-19.7c-14.3-11.5-30.5-20.5-47.6-27.2c-35.6-14.2-73.6-20.8-111.4-26.7
						c-5.2-0.8-9.9-2.5-9.9-7c0-0.6,0.1-1.1,0.2-1.7c0.8-3.6,5.1-5.1,8.7-5.6c8.9-1.3,18-0.6,26.9,0.4
						c55.8,6.3,114.2,24.7,155.9,63.8c8.6,8.1,18.2,16.1,24.1,26.5c2,3.5,3.2,7.4,3.4,11.5c0,3.8-1.6,6.7-5.9,6.7
						C1620.7,550.9,1618.8,550.5,1616.9,549.7z M1076.9,547.7c-5.2-1.5-25.3-10.1-25.3-17.8c0-2.3,1.8-4.6,6.5-6.5
						c7.6-3.1,22.2,5.3,29.8,6.6c9.1,1.6,18.2,0.6,27.4-0.4c5.8-0.7,11.6-1.2,17.4-1.3c1.7-0.1,3.3,0.2,4.8,0.9c1.7,1.1,2.6,3,2.5,5
						c0,1.3-0.3,2.6-1,3.8c-1.6,2.9-4.6,4.7-7.6,6.1c-9.3,4.5-20.6,6.5-31.8,6.5C1092.1,550.8,1084.4,549.7,1076.9,547.7
						L1076.9,547.7z M994,485.3c-5.7-1.2-11.8-2.8-16-6.8c-2.7-2.5-4.2-6-4.3-9.7c-0.1-2.2,0.7-4.4,2.1-6.1
						c4.9-0.1,9.4-2.1,14.3-2.3c68.3,14.9,142.2,2.4,201.8-34.2c7.8,1,14.4,0.3,14.4,7.1c0,0.5,0,1-0.1,1.5
						c-0.4,2.2-1.3,4.3-2.7,6.1c-12.3,18.2-33.3,28.4-54.1,35.4C1099.3,493.1,1045.7,496.2,994,485.3L994,485.3z M1246.8,473.7
						c-0.1-0.5-0.2-1-0.2-1.5c0-3.9,3.3-9.2,5.6-11.6c30.8-32.4,74.7-60.9,118.8-69.8c21.5-4.3,42.1-8.8,64-10.3
						c15.4-1.1,30.9-0.2,46.1,2.5c9.5,1.8,34.4,5.2,37.3,16.7c0.3,1.1,0.4,2.2,0.5,3.3c0,0.1,0,0.2,0,0.2c0,12-22.1,3.2-27.4,1.5
						c-22.6-7.2-47.3-5.5-70.4-3.9c-24.7,1.6-49.9,5.4-72.8,15.5c-11.5,5-22.4,11.2-33.5,17c-11.4,5.9-21.8,13.7-31.7,21.9
						c-4.5,3.7-9.5,7.3-13.6,11.4c-3.5,3.4-5.6,7.8-10.1,10.2c-1.7,0.9-3.7,1.4-5.7,1.4C1250.7,478.1,1247.7,476.9,1246.8,473.7
						L1246.8,473.7z M823.9,457.8c-14.9-25.1-23.9-55.9-25.2-85c-0.1-2.3-0.2-4.6-0.2-6.9c0-29.5,8.4-59.7,26-83.5
						c7.3-9.9,16.9-22.5,20.9-5.4c0.3,1.5,0.5,3,0.5,4.5c0,13.7-12.3,29.7-17.2,40.9c-5.5,12.7-7.8,26.5-7.8,40.4c0,7,0.6,14,1.6,21
						c3.1,20.6,10.1,40.4,17.3,59.9c1.5,4,6.7,15.7,6.7,23.9c0,3.8-1.1,6.8-4.2,7.9c-0.6,0.2-1.2,0.3-1.8,0.3
						C833.8,475.9,826.6,462.3,823.9,457.8L823.9,457.8z M918.7,418.1c0-3.8,2.2-8.2,6.9-11.9c21-16.1,42.1-32.3,63.1-48.4
						c69.3-53.2,112.8-137.6,115.5-225.1c0.1-2.4,0.1-4.7,0.1-7.1c0-38-9.4-76.3-30.4-107.9c-3.3-5.1-7.1-10.2-7.8-16.2
						c-0.1-0.5-0.1-1-0.1-1.5c0-5.3,3.2-11.8,8.9-12.2c6.4-0.4,10.9,8,14.1,12.4c8.3,11.6,15.3,24.1,20.9,37.3
						c11.2,26.5,17.3,54.8,18.1,83.5c0.1,2.3,0.1,4.7,0.1,7c0,43.8-11.4,87.3-30.1,126.9c-29.6,62.4-76.2,115.1-134.4,152.3
						c-9.1,5.8-19.2,13.2-29.2,17.3c-2.2,1-4.7,1.5-7.1,1.6C921.8,426.1,918.7,422.6,918.7,418.1L918.7,418.1z M478.3,409.6
						c-2-1.9-2.9-4.6-3.8-7.3c0-0.2-0.1-0.3-0.1-0.5c-11.4-36.8-31.5-70.3-58.6-97.7c-4.2-4.3-21-20.8-21-30.3c0-3.5,2.3-6,8.2-6.6
						c10.3-1.1,17.5,9.4,23.7,16c7.5,8.1,15.1,16,21.8,24.8c13.4,17.5,24.3,36.8,32.4,57.3c2.8,7.4,5,15,6.6,22.7
						c0.5,2.7,0.7,5.4,0.6,8.2c0,7-1.1,15.6-5.4,15.6C481.5,411.9,480.1,411.2,478.3,409.6L478.3,409.6z M1055.4,380.8
						c-0.1-0.4-0.1-0.8-0.1-1.1c0-9.5,21.1-10.6,27.5-12.8c13.7-4.7,27.3-9.9,40.5-15.8c25.2-11.1,49.1-25.1,71.2-41.6
						c38.4-29.2,70.2-68,87-113.2c7.8-20.9,12.2-42.8,15.7-64.7c1.2-7.5,3.9-46.7,21.2-27c3.7,4.2,4.7,9.8,4.7,15.5
						c0,2.3-0.2,4.6-0.4,6.8c-5.4,57.7-27.9,115.8-67.9,158.1c-38.6,40.8-88.2,73-141.7,90.3c-5.9,1.9-32,10.6-47,10.6
						C1060.2,385.8,1056,384.4,1055.4,380.8L1055.4,380.8z M1254.3,379c-0.3-1-0.4-2-0.4-3c0-1,0.1-1.9,0.1-3.4c0-0.2,0-0.4,0-0.5
						c0-0.6,0-1.3,0-1.9c0-17.8,4.7-35.2,13.5-50.6c3.6-6.2,8-12.3,14.3-15.8s14.6-4.1,20.4,0.2c5.8,4.3,7.5,12.1,10.2,18.8
						s8.5,13.7,15.6,12.6c2.4-0.5,4.6-1.6,6.5-3.2c9.6-7.9,13.6-22.7,25.4-26.6c11.9-3.9,23.4,5.8,34,12.5
						c10.1,6.4,21.7,11,33.6,9.4c4-0.6,6-3.9,9.3,0.9c0.7,1,1,2.1,1,3.3c0,3.4-2.8,6.8-5.5,8.6c-7.5,5.1-17.8,4.4-26.2,0.8
						s-15.6-9.4-23.2-14.3c-3.5-2.3-7.3-4.4-11.5-4.4c-4.8,0-9.1,2.9-12.2,6.6s-5.3,7.9-7.8,12c-3.4,5.4-7.6,10.5-13.3,13.5
						c-15,8-31.4-6.2-36.6-19.9c-1.4-3.7-2.3-7.6-4.5-10.9s-6.5-5.6-10.1-4.1c-1.4,0.7-2.7,1.7-3.7,2.9
						c-12.9,14.4-11.7,36.1-16.4,54.9c-0.8,3.1-2.3,6.7-5.4,7.3c-0.3,0.1-0.5,0.1-0.8,0.1C1257.5,384.8,1255,381.9,1254.3,379
						L1254.3,379z M908.1,361c0-3.3,2.7-7.4,9.5-11.5c10.8-6.6,21.4-13.6,30.7-22.2c19.6-18.1,34.5-40.8,43.3-66
						c5.7-16.6,8.5-34.1,8.5-51.7c0-8-0.6-15.9-1.7-23.8c-1.9-12.8-5.7-24.7-9.9-36.9c-1-2.8-3.5-7-3.5-10.6
						c-0.1-1.6,0.6-3.1,1.7-4.2c6.5-6.3,13.4,0.8,18.9,10.7c5.9,10.7,10.3,24.6,11.1,28.5c2.3,11.8,3.4,23.7,3.3,35.7
						c0,63.6-30.3,132.6-90.5,157.4c-3.1,1.3-6.5,2-9.9,2.1C912.9,368.4,908.1,365.4,908.1,361z M219.8,364.5
						c-3.6-2.6-7-5.7-9.4-7.1c-6.5-4.1-13.9-6.8-21.6-7.8c-6.6-0.8-13.3-0.2-20,0.3c-6.5,0.5-13,1.1-19.5,0.4
						c-13.8-1.5-26.4-8.5-35.1-19.2c-6.1-7.6-10.9-17.6-12.2-27.2c-0.1-0.8-0.1-1.7-0.1-2.5c0-7.6,3-22.1,11-11.2
						c1.8,2.4,2.5,5.4,3.4,8.2c3.6,12.4,10.4,25.2,22.4,30c12.2,4.9,25.8,0.2,38.9-0.7c16.1-1,33.9,3.9,46.3,14.4
						c4.6,3.8,12.3,11,12.3,17.5c0,0.6-0.1,1.1-0.2,1.7c-1,4.7-3.9,6.4-7.3,6.4C225.5,367.6,222.4,366.5,219.8,364.5L219.8,364.5z
						 M377.1,342.5c-13.7-15.6-31.5-27.1-51.4-33.2c-2.1-0.6-5.7-1.5-9.6-2.7c-7.2-2.2-15.1-5.6-15.1-11.4c0-1.9,0.8-4,2.8-6.4
						c8.7-10.8,43.5,0,52.9,6c17.6,11.3,33.3,29.1,42.8,47.7c1.4,2.7,3,7.2,3,11.1c0,3.9-1.6,7.2-6.9,7.6c-0.1,0-0.2,0-0.3,0
						C388.8,361.3,380.8,346.8,377.1,342.5L377.1,342.5z M-112.2,329.5c-21.8-2.4-42.8-4.3-64.1-9.5c-15-3.6-29.6-9.1-43.2-16.3
						c-8.4-4.5-30.5-15-30.5-26.6c0-0.2,0-0.4,0-0.6c0.1-1.1,0.2-2.2,0.5-3.2c3.5-11.9,22.1,3.4,26.6,6.6
						c19.4,13.8,43.5,19.5,65.9,25c24.1,5.9,49.2,9.9,74.1,7.3c12.4-1.3,24.7-3.9,37.1-6.1c12.7-2.2,24.9-6.5,36.8-11.3
						c5.4-2.2,11.3-4.1,16.4-6.7c4.4-2.2,7.7-5.7,12.7-6.7c4.5-0.9,11.2,1.2,11.2,6.5c0,0.1,0,0.1,0,0.2c-0.1,4.1-5.8,9.1-9.1,10.9
						c-33.8,18.7-76.1,31.6-116,31.6C-100,330.5-106.1,330.1-112.2,329.5L-112.2,329.5z M1495.9,308.7
						c-19.6-9.8-38.6-18.9-56.8-31.2c-12.8-8.6-24.5-18.8-34.9-30.3c-5.7-6.4-20-21.2-20-32c0-1.4,0.3-2.8,0.8-4.1
						c0.4-1,1-2,1.6-2.9c7.4-9.9,19.5,10.9,22.7,15.5c13.4,19.6,34,33.4,53.1,46.4c20.5,13.9,42.7,26.4,66.9,32.5
						c12.1,3.1,24.6,4.9,36.9,7.2c12.7,2.3,25.6,2.5,38.5,2.1c5.8-0.2,12,0.1,17.7-0.6c4.8-0.6,9.2-2.7,14.3-1.9
						c3.9,0.6,8.6,3.9,8.6,8c0,0.7-0.2,1.5-0.4,2.2c-1.6,3.8-8.6,6.5-12.3,7c-12.9,1.9-25.9,2.9-38.9,2.9
						C1559.8,329.5,1524.8,323.1,1495.9,308.7L1495.9,308.7z M240,306.2c-2.4-3.4-2.8-8.7-2.8-13.4c0-1.9,0.1-3.7,0.1-5.2
						c0.6-17.8,2.6-37,7.4-54.2c8.7-31.1,27-53.8,51.6-73.9c22.4-18.3,48.4-32.8,76.4-40.6c15.9-4.6,32.6-6,49.1-4.3
						c9.1,1,19.9,1.8,27.8,6.7c3.7,2.3,5.3,5.2,5.3,8c0,5-5,9.8-11.7,11c-7.7,1.3-15.4-1.6-23.1-2.3c-24.5-2.1-49.2,4.2-71.2,14.6
						c-20.7,9.7-44.1,24.1-58.2,42.4c-12.2,15.8-21.7,33.6-28,52.5c-3.2,9.7-4,19.9-5,30.1c-0.8,8.3,0.5,20.6-4.7,27.5
						c-1.7,2.4-4.5,3.9-7.5,4.1C243.4,309.2,241.2,308.1,240,306.2z M1718.8,294.9c-14.1-1.7-28.6-11.7-39.3-20.3
						c-46.3-36.9-84.9-82.6-108.3-136.8c-16.6-38.4-28.7-85.3-28.7-129.9c-0.1-16,1.6-31.9,5.2-47.5c0.3-1.2,0.6-2.5,0.9-3.7
						c3.4-12.3,8.9-29.6,18.9-38.2c11.3-9.7,15.3-4.7,15.3,3.9c-0.1,4.2-0.8,8.3-2,12.3c-7.5,24.7-12.7,48.2-12.7,72.6
						c0,11.9,1.2,23.7,3.7,35.4c7.8,37,16.6,73.4,32.6,108c25.2,54.4,71.9,100.1,122.5,131.3c3.9,2.4,5.5,4.8,5.5,6.8
						c0,3.7-5.3,6.3-11.2,6.3C1720.4,295,1719.6,295,1718.8,294.9L1718.8,294.9z M1131.3,284.3c-0.3-1.1-0.5-2.2-0.5-3.3
						c0-10.9,14.6-23.2,19.9-30.6c20.6-28.2,44.4-61,53.4-95.2c6.2-23.3,9.3-47.2,9.3-71.3c0-1.5,0-3,0-4.5
						c-0.2-12.8-1.3-25.5-3.4-38.1c-0.8-4.7-3.5-11.3-3.5-16.2c0-0.4,0-0.7,0-1.1c0.1-1.1,0.3-2.1,0.7-3.2c3-7.3,13.8-5.5,19,1.6
						c4.1,5.6,5,12.8,5.6,19.6c1,11.1,1.5,22.2,1.5,33.3c0,33-4.5,66-14.6,97.4c-13.5,42-37,81-69.7,110.6
						c-3.6,3.3-8.1,6.7-11.9,6.7C1134.8,290.2,1132.6,288.6,1131.3,284.3z M896.1,223.1c0-0.8,0-1.5,0.1-2
						c1.5-16.2,7-31.8,15.9-45.5c2.9-4.4,7.7-15,13.6-15.9c6.5-0.9,10.1,3.2,10.1,8.8c0,1.8-0.4,3.7-1,5.4c-2,5.3-6.2,9.5-9.4,14.2
						c-6.9,10-9.4,22.4-9.4,34.6c0,2.3,0.1,4.7,0.3,7c1.1,14.4,5,28.5,7.8,42.7c0.3,1.3,0.4,2.7,0.5,4c0,2.2-0.5,4.3-2.3,5.6
						c-1.7,1.4-3.8,2.2-6,2.3C901.1,284.3,896.1,235.6,896.1,223.1z M1600.6,262.9c-12.4-7.8-24.2-16.4-35.4-25.8
						c-21.9-18.6-41.4-39.7-58.2-63.1c-31.3-43.4-53.4-93.9-60.2-146.9c-1.4-11.3-2.2-22.6-2.2-33.9c0-20.2,2.4-40.4,7.1-60.1
						c3.7-15.3,8.9-30.2,15.6-44.4c3.7-7.8,16.3-29.1,20.4-7c0.2,1.1,0.3,2.2,0.3,3.3c0,5.1-2,10.2-3.8,15.1
						c-1.6,4.3-3.1,8.6-4.4,12.9c-8,25.5-12,52.1-12,78.8c0,23.6,3.1,47.1,9.2,69.8c10.8,40.2,34.5,86.9,62.2,118
						c22.5,25.1,47.6,47.7,73.3,69.4c6.4,5.4,20.3,12,20.4,21.7c0,0.1,0,0.1,0,0.2c0,4.1-2,5.6-5,5.6
						C1619.8,276.5,1604.2,265.2,1600.6,262.9L1600.6,262.9z M-141.7,266.3c-8.9-1.5-17.3-4.8-25.5-8.5
						c-51.3-22.8-101.4-58.1-129.3-107.9c-5.8-10.3-12.5-20.8-15-32.6c-0.4-1.9-0.6-3.9-0.6-5.9c0-8,3.5-15.6,13.6-7.8
						c7.2,5.6,8.3,16.5,11.7,24.5c3.7,8.7,8.1,17,13.3,24.8c10.1,15.3,22.9,28.7,37.1,40.4c29.6,24.2,63.9,42.1,98.2,59.1
						c4.1,2,7.6,4.6,7.6,8c0,1.1-0.4,2.3-1,3.2c-1.3,2.3-4,3-6.7,3C-139.5,266.6-140.6,266.5-141.7,266.3L-141.7,266.3z
						 M-29.8,250.2c-14.3-3-28.4-7-42.2-11.9c-27-9.8-52.7-22.9-76.4-38.9c-44.4-29.8-82.7-69.5-107.5-116.9
						c-14.7-28-24.2-58.5-28-89.9c-1.1-9.3-1.6-18.6-1.6-27.9c0-6.4,0.3-12.8,0.8-19.1c0.7-8.6,5.2-32.9,16.7-13.7
						c2.8,4.7,3.1,10.3,3.1,15.8c0,0.9,0,1.8,0,2.7c0,0.4,0,0.7,0,1.1c0,4.2,0.1,8.4,0.3,12.6c2.5,50.2,20,99.4,49,140.4
						c24.1,33.9,62.5,69.6,99.3,89c29.8,15.8,61.2,28.3,92.8,39.7c7.9,2.9,23.2,4.2,26.7,13.3c0.4,0.9,0.6,2,0.6,3c0,3.8-4,5-9.3,5
						C-14.3,254.3-26.6,250.9-29.8,250.2z M176.6,252.2c-6.2-4.1-8.4-10.8-8.4-18.2c0.1-4.6,0.7-9.1,1.9-13.5c1.3-5,3-9.8,5-14.6
						c8.6-20.1,21.5-38.4,36.7-54.1c21.6-22.4,47.6-40.1,76.4-51.9c6.5-2.6,13.4,0.2,13.5,5.9c0,1-0.2,2.1-0.6,3
						c-2.8,7.7-11.6,11.5-18.4,14.9c-7.5,3.7-13.4,8.5-20.4,13c-36,23.2-71.5,59.9-76,104.4c-0.3,3-0.5,6.1-2.1,8.6
						c-1.2,1.8-3.2,3-5.4,3.1C178.1,252.9,177.3,252.6,176.6,252.2L176.6,252.2z M1490.1,239.2c-7.8-4.5-14.6-10.5-21-16.8
						c-40.2-39.2-75-89.6-83.8-146.1c-1.4-9-3.3-18.4-3.3-27.6c0-2.7,0.2-5.4,0.5-8.1c1.3-9.1,8.4-21.9,16.9-8.3
						c2.3,3.7,2.9,8.1,2.9,12.7c0,4.2-0.5,8.5-0.5,12.5c0,0.6,0,1.2,0,1.8c0.4,9.4,1.7,18.8,3.9,27.9c4.2,17.9,11.5,34.9,20.8,50.7
						c19.4,33,45.3,61.6,71.6,89.5c2.6,2.7,4.6,5.6,4.6,8.3c0,1.8-0.9,3.4-2.4,4.5c-1,0.8-2.3,1.3-3.6,1.2
						C1494.5,241.2,1492.2,240.4,1490.1,239.2L1490.1,239.2z M48.2,233.8c-56.3-18.5-108.3-48-149.1-90.7
						c-39.5-41.3-76.5-100.4-83.6-158.3c-0.2-1.3-0.3-2.5-0.4-3.8c-0.4-4.6-0.8-9.8-0.8-15.2c0-9.6,1.1-19.7,5.2-27.2
						c10.4-18.8,17.2-3.6,18.1,10.6c2.3,37.9,8.3,71.5,29.1,104.3c20.2,32,41,63.1,68.1,90c42.6,42.2,102.1,68.9,160.4,80.6
						c5.6,1.1,7.8,3.4,7.8,5.8c0,3.7-4.9,7.7-10.8,9.2c-3.5,0.8-7.1,1.2-10.6,1.2C70.2,240.3,58,237,48.2,233.8z M413.4,213
						c-4.7-5-11-15.1-11-22.6c0-0.4,0-0.8,0.1-1.2c1-10.5,11.3-7.6,16.1-0.9c3.4,4.8,4.7,13.3,10.5,15.9c12.9,5.8,23.6-6.7,32-13.8
						c10.1-8.6,27.5-11.7,40.3-12.3c16.7-0.8,32.5,16.1,42.9,27.3c2.1,2.3,3.9,5.4,4.2,7.9c0,0.2,0,0.4,0,0.7c0,2.6-1.9,4.3-7.1,3.2
						c-7.1-1.4-13.5-9.5-19.3-13.4c-18.7-12.5-44.9-8.4-61.9,5.1c-5,4-9.5,8.9-15.4,11.6c-3.1,1.4-6.4,2.1-9.8,2.1
						C426.8,222.4,419,219,413.4,213L413.4,213z M682.5,203.4c-12-5.2-23.9-12.5-32-17c-20.4-11.3-39.5-24.9-56.8-40.6
						c-13.7-12.2-26.1-26-36.7-40.9c-4.1-5.9-11.9-16.7-11.8-24.8c-0.1-3.5,1.8-6.8,5-8.2c19.8-10.2,39,33.2,48,43.8
						c19.8,23.1,43.9,42.1,71,55.9c13.2,6.7,31.4,12,42.3,21.8c2.6,2.3,4.8,5.9,4.8,9.1c0,1.4-0.4,2.7-1.3,3.8
						c-1.4,1.5-3.2,2.5-5.2,2.7c-1.5,0.3-3,0.4-4.4,0.4C698.5,209.3,690.5,206.8,682.5,203.4L682.5,203.4z M1651.5,178.6
						c-16.5-30.3-25.2-64.3-25.1-98.8c0-12.4,1.1-24.8,3.4-37c6.5-34.5,21-73.3,45.3-99.3c8.3-8.9,20.4-19,33.3-16.5
						c8,1.5,11.3,4.7,11.3,8.5c0,3.9-3.4,8.3-8.6,12.2c-8.3,6.2-15.9,13.4-22.5,21.5c-19.9,24.2-31,54.9-35.8,86.1
						c-1.7,10.9-2.6,21.9-2.6,33c0,20.9,3.3,41.7,10.8,61.1c3.8,9.9,11,19.6,12.5,30.5c0.2,1.4,0.3,2.7,0.3,4.1
						c0,5.8-2.2,8.1-5.4,8.1C1663.1,192.1,1655.4,185.6,1651.5,178.6L1651.5,178.6z M781.3,157.1c-15.9-15.3-29.2-33.1-41.4-51.5
						c-24.7-37.2-34.7-83.2-34.7-127.5c0-0.7,0-1.4,0-2.1c0.3-45.5,16.4-86.9,40.2-125.5c9.7-15.8,24.4-35.6,40.3-45.4
						c3.3-2,5.8-2.7,7.6-2.3c2.1,0.4,3.1,2.1,3.1,4.6c-0.2,3.1-1.3,6.1-3.1,8.6c-19.4,28.5-39.5,56.2-50.8,89.1
						c-8.7,25.6-12.6,52.8-12.6,79.8c0,4.1,0.1,8.3,0.3,12.4c1.4,32.6,10.1,57.3,27,84.8c21,34.1,49.7,62.9,80.5,88.5
						c3.5,2.9,7.3,6.5,7.3,10.8c0,0.3,0,0.7-0.1,1c-0.6,4.5-5.4,7.4-9.9,7.5c-0.1,0-0.3,0-0.4,0
						C815.6,189.8,793.9,169.2,781.3,157.1L781.3,157.1z M-11.4,153.4c-35.6-31-59.4-73.3-67.5-119.8c-2.4-14.1-3.7-28.4-3.7-42.7
						c0-22.9,3.3-46.1,11.7-66.1c4.7-11.2,12.6-24.9,25.4-27.1c10-1.7,14,1.6,14,6.8c0,3.3-1.6,7.5-4.3,11.6
						c-5.7,8.7-10.2,18.1-13.6,27.9c-5.6,16.5-8.3,33.8-8.2,51.2c0.1,14.1,1.6,28.2,4.4,42c6.4,31.2,19.3,61.5,40.3,85.4
						c7,8,17.1,14.6,22.3,24.3c1.9,3.5,2.7,6.3,2.7,8.4c0,3.8-2.6,5.3-6.3,5.3C0.8,160.8-6.4,157.7-11.4,153.4L-11.4,153.4z
						 M94.1,154c-1.8-1.4-3.3-3.3-4.1-5.4c-3.5-7.5-4.5-15.9-4.6-24.2c0-0.3,0-0.5,0-0.8c0-7.9,1-15.8,2.8-23.5
						C99.3,52.8,142.1,11.9,183-9.8c35.4-18.5,75.4-26.3,115.2-22.5c5.5,0.5,34.4,1.7,34.4,11.2c0,1.7-0.9,3.7-3.1,6
						c-3.1,3.2-7.8,4.2-12.3,4.7c-8.1,1-16.2,0.5-24.3,0.1c-8.5-0.5-16.9-1-25.2,0.2c-14.8,2.1-29.1,4.5-43.3,9.5
						c-25.7,9.2-49.3,23.6-69.2,42.3c-25.6,23.9-42,54.2-43.8,89.8c-0.3,5.8-0.1,11.9-2.8,17c-2,3.8-6.2,6.6-10.3,6.6
						C96.8,155.3,95.4,154.8,94.1,154L94.1,154z M1046.4,142.7c-2.1-1.8-3.1-4.5-4-7.1c-0.1-0.2-0.1-0.3-0.2-0.4
						c-12.8-36.3-34.2-69-62.2-95.4c-4.4-4.1-22.1-20.3-22.2-29.7c0-3.3,2.2-5.8,7.9-6.6c10.3-1.4,17.9,8.7,24.3,15.1
						c7.8,7.8,15.6,15.4,22.7,24c14,17,25.7,35.9,34.6,56c3.1,7.3,5.5,14.8,7.4,22.5c0.7,3.5,1,7,1,10.5c0,6.5-1.1,13.4-4.9,13.4
						C1049.6,144.8,1048.2,144.1,1046.4,142.7L1046.4,142.7z M714.4,143.1c-13.6-2.5-20.9-16.2-30.2-24.9
						c-12.3-11.3-23.9-23.5-34.7-36.3c-19.6-23.8-35.7-50.7-44.6-80.4c-7-23.9-10.6-48.6-10.5-73.5c0-15.2,1.2-30.3,3.6-45.3
						c3.1-19.5,8.1-38.6,14.9-57.1c5.7-15.7,8.5-36.3,26.4-42.5c0.6,2.7,0.8,5.5,0.8,8.2c0,9.6-3,19.2-5.7,28.6
						c-8,27.4-14.4,56.5-17.4,84.8c-0.8,7.4-1.2,14.8-1.2,22.2c0,20.6,3.1,41.1,9.3,60.7c14.3,44.5,37.9,81.1,72.7,112.4
						c9.6,8.6,24.5,18.3,27.8,31.6c0.2,0.9,0.4,1.9,0.4,2.9c0,1.5-0.4,3-1.2,4.4c-1.7,2.9-5.1,4.3-8.5,4.3
						C715.8,143.3,715.1,143.2,714.4,143.1L714.4,143.1z M500.5,138.9c-3.7-1.5-6.5-4.6-9.2-7.5c-14.7-16-29.4-32.2-46.3-45.8
						c-32.1-25.8-74.6-38.2-115.6-36.4c-51.1,2.3-106.8,27.6-144.6,61.5c-9.8,8.9-15.1,4.1-15.1-3.6c0.1-5.3,2.1-10.3,5.7-14.3
						c23.7-26.6,56.6-42.7,90.3-52.5c34.1-9.9,73.5-15,108.7-8.7c37.9,6.8,73.5,25.7,101,52.2c6.2,6,37.1,36.8,37.1,49.7
						c0.1,1.2-0.3,2.4-1,3.4c-1.6,1.9-4.1,3-6.6,2.8C503.4,139.8,501.9,139.5,500.5,138.9L500.5,138.9z M849.8,127.9
						c-1-2.6-1.5-5.3-1.4-8.1c0-10.6,5.8-23.3,10.2-30.8c8.3-14.5,20.1-26.6,34.4-35.2c5.2-3,10.4-6.2,15.8-6.2c1.8,0,3.5,0.3,5.2,1
						c4.3,1.7,7.2,4.3,7.2,7.7c-0.1,1.6-0.6,3.2-1.6,4.6c-2.1,3.1-5.5,4.9-8.7,6.8C890.1,79.5,876.9,95,870.6,118
						c-1.6,5.8-8.2,16.1-14.1,16.1C854,134.1,851.7,132.3,849.8,127.9L849.8,127.9z M796.3,95.4c-0.9-2.7-1.4-5.5-1.3-8.3
						c0-11,4.3-26.2,5.6-34.5c6.9-43.3,23.4-84.6,48.1-120.8c9.6-13.9,20.3-27,32.2-39.1c7.4-7.5,22-26.4,33.6-26
						c8.3,0.3,11.4,2.7,11.4,6.3c0,10.4-26,30.1-29.4,33.7c-11.3,11.9-21.8,24.5-31.4,37.8c-30,41.5-45.2,96.3-54.4,146.2
						c-0.7,3.8-1.9,8.3-5.5,9.6c-0.6,0.2-1.2,0.3-1.8,0.3C800.4,100.7,797.5,98.3,796.3,95.4L796.3,95.4z M16.4,72.6
						c-2.5-1.2-4.6-3.2-6-5.6C3.6,56.3,1.7,41,1.7,25.8C1.8,15,2.6,4.2,3.9-6.6c1.5-13.2,4.6-25.6,10.3-34.1
						c4.9-7.3,15.3-10.6,19.8-0.3c0.8,2,1.2,4.1,1.2,6.3c0,1.9-0.2,3.8-0.5,5.6c-2.6,15.2-7.8,29.9-9.9,45.2
						c-0.5,3.7-0.7,7.4-0.7,11.1c0,11.8,2.1,23.4,2.5,35.3c0,0.5,0,1,0,1.5c0,2.8-0.4,5.6-2.3,7.5c-1.2,1.1-2.9,1.7-4.5,1.7
						C18.5,73.3,17.4,73.1,16.4,72.6z M483,59c-4.4-2.4-7.2-6.8-9.8-11.1c-11.9-19.8-22.3-40.5-35-59.7
						c-27.1-41-67.1-67.2-116.4-72.7c-28.8-3.2-58,0.4-86.2,7.2c-4.9,1.2-11.3,1.9-13.8-2.5c-0.5-0.9-0.8-1.9-0.8-2.9
						c0.1-2.5,1.2-4.9,3.2-6.6c2.7-2.3,5.9-3,9.1-4.6c51.8-26.8,117.3-21.3,167.2,9c27.5,16.7,50.4,40.4,67.5,67.6
						c8.6,13.7,15.7,28.2,21.4,43.4c1.6,4.2,6.8,18.4,6.8,27.5c0,0.4,0,0.7,0,1.1c-0.2,4.1-1.7,7-5.3,7C489,61.7,486.4,60.9,483,59z
						 M71.3,25.5c-0.4-0.8-0.6-1.8-0.6-2.7c0-0.7,0.1-1.4,0.2-2.1C73,4.5,81.7-10.4,93-22.3c8.9-9.4,24.8-26,36.4-31.6
						c9.2-4.5,14.7-1.1,14.7,4.5c0,3.8-2.5,8.5-8.1,12.5C115.2-22,97.9-2.7,85.4,19.7c-1.5,2.8-3.1,5.7-5.8,7.3
						c-1.1,0.7-2.4,1-3.7,1C74.1,28.1,72.3,27.2,71.3,25.5z M1287.3,23.3c-12.7-5.5-19.5-20.1-19.8-33.9c0-0.5,0-1,0-1.5
						c0-13.3,4.7-26.2,9.3-38.7c1.3-3.6,3.7-5.7,6.9-3.6s4.3,6.3,4.9,10.1c1,7.1,0.6,14.3-1.1,21.3c-0.7,3.4-1.1,6.8-1.1,10.3
						c0,10,3.1,20.8,15.1,12.7c3.5-2.3,5.7-6.2,7.6-10c7.6-15.4,12.1-32.2,19.7-47.5s19.5-29.8,36-34.8c1.6-0.5,3.5-0.8,4.9,0.1
						c0.8,0.7,1.4,1.6,1.7,2.7c0.5,1.3,0.8,2.7,0.9,4.1c0.1,0.6,0.1,1.1,0.1,1.7c0,13.6-15.5,25.8-22.9,34.8
						c-7.8,9.6-13.7,20.6-17.5,32.4c-3.8,12-5.7,25.6-14.9,34.3c-5.2,4.8-12.1,7.5-19.2,7.5C1294.3,25.4,1290.7,24.7,1287.3,23.3z
						 M770.2-28.9c-2.9-2.3-2.2-5.9-2.5-9.2c-0.2-1.5-0.2-3-0.2-4.5c0-9.3,2.7-19.4,5.4-27.8c11.6-36,33.8-68.3,62.6-92.6
						c25.5-21.5,59-40.2,93.7-33.8c2.6,0.5,5.8,1.9,5.8,4.5c0,0.1,0,0.1,0,0.2c-0.2,1.2-0.8,2.3-1.7,3.1c-5.1,5.2-12.8,6.6-19.9,8.4
						c-44.7,11.5-78.3,41-102.4,79c-8.8,13.9-16,28.8-21.5,44.3c-1.8,5.2-5.6,30.1-14.8,30.1C773-27.2,771.5-27.8,770.2-28.9
						L770.2-28.9z M665.2-99.2c0-8.1,0.6-15.3,0.8-17.4c2.1-20.7,7.8-40.9,15.4-60.3c25.6-64.4,70.9-118.9,129.6-155.8
						c5.9-3.7,48.9-32,50.5-17.5c0,0.3,0.1,0.7,0.1,1c0,3.7-2.1,7.1-4.4,10c-9.9,12.8-23.9,21.5-37.1,30.8
						c-45.9,32.3-85.6,74.8-108.2,126.1c-13.5,30.6-20.6,63.5-27.2,96.3c-1,4.7-2.2,9.9-6,12.9c-1.4,1.3-3.2,2-5,2.2
						C666.7-70.9,665.2-86.2,665.2-99.2z"/>
				</g>
			</g>
		</g>
	</g>
</g>
</svg>
