<svg width="1440" height="286" viewBox="0 0 1440 286" fill="none" xmlns="http://www.w3.org/2000/svg">
<rect x="-0.424316" y="-404.322" width="1440" height="810" fill="#303D78"/>
<mask id="mask0_504_423" style="mask-type:alpha" maskUnits="userSpaceOnUse" x="-1" y="-405" width="1441" height="811">
<rect x="-0.424316" y="-404.322" width="1440" height="810" fill="white"/>
</mask>
<g mask="url(#mask0_504_423)">
<path fillRule="evenodd" clipRule="evenodd" d="M326.333 -985.524C331.252 -978.025 335.996 -970.153 340.586 -962.538L340.614 -962.491L340.622 -962.478C351.982 -943.631 363.732 -924.139 378.974 -908.845C398.651 -889.105 413.894 -869.243 426.946 -846.34C432.861 -835.963 439.295 -825.034 447.154 -815.525L462.206 -797.299L462.431 -797.026L462.434 -797.022L462.44 -797.015C495.54 -756.925 529.759 -715.479 564.727 -675.74C574.082 -665.108 583.81 -654.731 593.641 -644.894C606.587 -631.94 619.87 -619.763 633.12 -608.703C663.915 -582.999 695.789 -557.662 726.611 -533.163L727.031 -532.829C749.741 -514.774 773.217 -496.11 796.096 -477.429C823.984 -454.657 848.006 -433.117 869.536 -411.573C931.829 -349.244 973.592 -285.759 997.213 -217.49C1004.54 -196.33 1018.5 -173.539 1033.66 -158.015C1064.12 -126.841 1082.83 -93.0116 1097.11 -64.0294C1112.4 -33.0076 1131.22 -6.53857 1154.63 16.8894C1164.02 26.2861 1174.28 35.264 1185.12 43.5771C1199.35 54.4915 1213.08 66.5408 1225.92 79.3975C1258.08 111.576 1285.74 149.384 1310.48 194.986C1323.78 219.504 1334.6 237.903 1345.58 254.641C1360.34 277.162 1376.02 296.781 1392.19 312.955C1439.18 359.978 1493.08 381.439 1556.94 378.565C1571.4 377.913 1585.92 376.685 1599.96 375.498L1599.97 375.498L1599.97 375.497L1599.98 375.497L1599.98 375.497L1599.99 375.496L1599.99 375.496L1600 375.495L1600 375.495L1600.01 375.494L1600.16 375.481L1600.92 375.418L1600.94 375.416L1600.95 375.415C1609.79 374.671 1618.91 373.903 1627.94 373.29L1627.95 373.289C1657.36 371.286 1687.77 369.215 1722.07 383.324C1724.99 384.526 1729.22 383.794 1730.9 382.362C1736.61 377.51 1741.85 372.116 1746.91 366.9L1746.92 366.886C1748.27 365.499 1749.6 364.133 1750.92 362.794C1744.8 357.465 1738.73 352.279 1732.75 347.16L1732.18 346.678L1732.09 346.595L1732.06 346.568C1717.14 333.81 1703.05 321.756 1689.39 308.818C1660.31 281.266 1628.57 265.507 1592.37 260.648C1575.35 258.363 1558.43 254.362 1542.07 248.756C1467.19 223.092 1395.61 174.402 1316.78 95.5352C1311.32 90.072 1305.69 84.3325 1300.05 78.4718C1293.48 71.6519 1286.42 64.4799 1277.84 55.8906C1272.28 50.3278 1266.69 44.7861 1261.1 39.2471L1258.76 36.9242C1252.74 30.9633 1246.73 25.0023 1240.74 19.0201L1237.42 20.5286C1239.23 24.016 1240.92 27.5852 1242.57 31.0574C1246.79 39.9624 1251.15 49.1709 1257.33 56.8649C1292.17 100.243 1327.83 142.425 1361.37 181.914C1366.12 187.514 1371.08 192.898 1376.09 197.915C1405.98 227.817 1440.43 247.348 1478.51 255.962C1499.75 260.768 1521.31 265.259 1542.17 269.605L1542.74 269.723L1543.04 269.787C1560.94 273.512 1579.44 277.364 1597.67 281.402C1607.79 283.642 1616.16 288.018 1622.55 294.413C1629.7 301.57 1634.07 311.152 1635.19 322.127C1635.96 329.715 1634.48 334.956 1630.67 338.158C1625.6 342.411 1616.98 342.62 1603.55 338.814C1586.14 333.885 1568.42 327.918 1551.28 322.142C1542.99 319.35 1534.41 316.46 1525.98 313.729C1464.78 293.882 1410.18 260.238 1363.71 213.734C1353.92 203.946 1344.37 193.448 1335.32 182.533C1270.98 104.901 1207.08 24.9447 1145.28 -52.3838C1134.01 -66.5 1122.72 -80.6133 1111.44 -94.7205C1100.53 -108.348 1090.55 -122.859 1080.9 -136.893L1080.76 -137.099C1076.37 -143.475 1071.84 -150.062 1067.28 -156.473L1063.8 -161.362L1069.61 -159.881C1074.75 -158.57 1078.79 -156.318 1082.32 -152.791C1083.04 -152.066 1083.76 -151.274 1084.5 -150.378C1099.27 -132.647 1114.38 -116.036 1129.39 -101.009C1152.78 -77.6146 1177.28 -56.7391 1202.23 -38.9595C1206.37 -36.0093 1210.34 -32.6647 1213.71 -29.2866C1216.25 -26.7462 1218.47 -24.1755 1220.31 -21.6472C1223.97 -16.6121 1227.95 -11.9379 1232.13 -7.75244C1244.39 4.50928 1258.86 13.217 1276.39 18.8623C1294.8 24.793 1311.76 35.6919 1328.24 52.1787C1330.22 54.1605 1332.23 56.2578 1334.21 58.4158C1354.01 79.9968 1374.66 101.527 1394.63 122.35L1394.65 122.367L1394.73 122.45L1403.49 131.589C1404.71 132.858 1405.93 134.105 1407.16 135.332C1437.07 165.258 1470.54 183.092 1506.64 188.33L1507.06 188.391C1531.82 191.985 1557.42 195.7 1582.12 197.694C1602.82 199.363 1621.68 207.139 1639.77 221.462C1684.7 257.045 1733.83 286.322 1785.8 308.484C1792.38 311.289 1800.09 312.357 1801.99 310.724C1813.26 301.042 1823.55 290.479 1832.65 281.15L1832.73 281.062C1835.28 278.443 1837.72 275.945 1840.03 273.614C1831.23 257.414 1822.55 241.426 1813.96 225.595L1812.51 222.911L1812.35 222.627L1811.93 221.847C1785.96 173.993 1761.44 128.791 1736.33 83.0276C1728.24 68.2921 1720.15 53.9755 1710.02 40.7788C1707.82 37.9106 1705.61 34.9727 1703.39 32.0134L1703.37 31.9871L1703.37 31.9852C1695.52 21.526 1687.4 10.7112 1678.5 1.79895C1674.43 -2.26807 1670.55 -5.60669 1666.62 -8.41113C1650.98 -19.5773 1636.3 -32.0819 1621.75 -46.6414C1595.7 -72.7098 1574.46 -101.076 1557.12 -125.39C1548.19 -137.913 1539.3 -150.023 1528.87 -160.464C1519.47 -169.867 1509.97 -176.711 1499.82 -181.382C1472.98 -193.741 1448.45 -211.53 1422.62 -237.37C1406.26 -253.748 1391.09 -271.767 1379.72 -285.638C1374.94 -291.456 1369.9 -297.025 1364.74 -302.188C1349 -317.937 1331.31 -330.867 1310.64 -341.711C1304.39 -344.998 1298.1 -348.23 1291.81 -351.466L1291.79 -351.477L1289.79 -352.507C1265.31 -365.088 1240 -378.096 1216.23 -393.742C1168.33 -425.283 1122.37 -462.961 1079.62 -505.738C1011.15 -574.243 948.03 -657.984 880.966 -769.276L878.027 -774.15L883.478 -772.52C895.262 -769.003 907.344 -765.461 919.653 -761.858L920.018 -761.751C953.681 -751.884 988.488 -741.681 1023.56 -730.032C1035.94 -725.919 1050.93 -716.259 1063.64 -704.197C1110.26 -659.979 1161.65 -614.364 1221.61 -580.268C1237.57 -571.193 1250.63 -561.48 1261.52 -550.578C1269.58 -542.517 1276.48 -533.706 1282.02 -524.391C1302.81 -489.436 1329.93 -455.713 1367.36 -418.266C1375.95 -409.67 1385.1 -400.859 1395.32 -391.329C1401.04 -386 1406.7 -380.53 1412.16 -375.07C1444.82 -342.385 1472.84 -307.494 1497.8 -268.401C1505.32 -256.619 1514.76 -244.834 1524.36 -235.222C1530.72 -228.866 1537.11 -223.461 1543.35 -219.16C1620.17 -166.249 1688.6 -106.454 1745.41 -54.9424C1750.25 -50.5505 1755.08 -46.1223 1759.9 -41.6941L1759.99 -41.6157C1777.76 -25.3143 1796.13 -8.46326 1815.2 6.31226C1840.04 25.5638 1859.44 42.3571 1876.23 59.1564C1904.33 87.2736 1925.22 115.779 1940.11 146.297C1942.03 150.242 1944.53 154.09 1947.17 158.164L1947.2 158.204L1947.61 158.847L1947.66 158.926C1948.28 159.88 1948.9 160.84 1949.52 161.81L1973.58 137.741C1939.21 92.239 1910.93 58.9651 1882.01 30.0345C1857.56 5.56543 1831.98 -16.5938 1799.09 -41.8215C1789.19 -49.4072 1779.07 -57.045 1769.25 -64.4611L1769.23 -64.4717L1767.73 -65.6047L1767.66 -65.6597C1735.52 -89.9082 1702.29 -114.982 1671.48 -142.132C1647.64 -163.15 1623.24 -186.123 1598.96 -210.413C1582.38 -227.003 1565.44 -244.624 1548.61 -262.789C1512.59 -301.669 1495.26 -347.39 1481.85 -387.192C1472.78 -414.102 1461.93 -442.374 1438.07 -466.242C1436.51 -467.808 1434.88 -469.362 1433.23 -470.855C1430.84 -473.034 1428.48 -475.283 1426.22 -477.541C1408.26 -495.512 1394.52 -516.236 1384.23 -540.902C1368.48 -578.647 1348.34 -609.487 1322.65 -635.194C1310.98 -646.867 1297.99 -657.569 1284.04 -667.002C1279.98 -669.752 1276.28 -673.294 1272.69 -676.723C1271.38 -677.989 1270.05 -679.251 1268.72 -680.472C1263.87 -684.912 1259.03 -689.541 1254.34 -694.233C1207.3 -741.304 1174.73 -794.986 1149.07 -841.284C1129.71 -876.239 1108.04 -905.825 1084.66 -929.214C1032.92 -980.98 972.091 -1003.55 903.856 -996.283C893.43 -995.173 884.912 -994.553 877.044 -994.332C868.599 -994.095 860.039 -993.719 851.764 -993.355L851.716 -993.353C830.513 -992.421 808.589 -991.459 786.341 -992.732C758.734 -994.314 733.105 -1006.2 712.221 -1027.09C704.17 -1035.15 696.735 -1044.6 690.123 -1055.2C679.545 -1072.15 667.761 -1091.8 661.749 -1110.63C648.617 -1151.75 620.501 -1183.48 597.472 -1206.52C592.613 -1211.38 587.347 -1216.47 581.371 -1222.07C575.775 -1227.32 558.512 -1243.57 558.512 -1243.57L523.874 -1208.91C529.862 -1204.67 535.96 -1200.45 541.885 -1196.35L542.144 -1196.17L542.253 -1196.09C557.407 -1185.6 573.074 -1174.76 587.796 -1162.94C592.158 -1159.44 596.256 -1155.77 599.978 -1152.05C619.333 -1132.68 629.532 -1111.11 630.287 -1087.95C631.097 -1063.13 641.441 -1041.11 661.916 -1020.62C669.232 -1013.3 677.795 -1006.15 688.096 -998.76C722.55 -974.05 756.294 -946.467 788.933 -919.787L789.001 -919.732L790.894 -918.184C817.984 -896.04 843.349 -883.387 868.444 -879.499C966.267 -864.347 1057.39 -810.068 1163.89 -703.499L1164.97 -702.425C1171.25 -696.122 1177.53 -689.829 1183.82 -683.535L1183.91 -683.446L1189.43 -677.919L1229.76 -637.583L1232.48 -638.426C1231.93 -640.429 1231.47 -642.46 1231.03 -644.445L1231.02 -644.458L1231.02 -644.46C1229.73 -650.194 1228.51 -655.612 1225.37 -659.985C1194.87 -702.455 1157.73 -751.839 1113.5 -796.094C1097.53 -812.077 1081.08 -826.912 1064.63 -840.185C1051.56 -850.729 1035.13 -859.418 1020.69 -863.425C989.107 -872.189 957.063 -879.628 926.073 -886.822L926.071 -886.823L925.744 -886.898C913.741 -889.681 901.741 -892.468 889.735 -895.333C887.396 -895.892 885.06 -896.366 882.726 -896.839L882.723 -896.84L882.237 -896.938L882.231 -896.94C877.722 -897.85 873.062 -898.79 868.411 -900.28C860.967 -902.663 854.124 -906.833 848.618 -912.345C841.068 -919.896 836.564 -929.344 835.93 -938.947C835.472 -945.925 837.083 -950.994 840.723 -954.014C846.768 -959.028 856.872 -957.264 865.005 -955.167C948.146 -933.727 1044.16 -900.781 1125.9 -818.991C1141.46 -803.424 1156.33 -786.233 1170.1 -767.898C1209.55 -715.386 1251.24 -662.866 1291.57 -612.061L1291.58 -612.053L1291.59 -612.033L1292.03 -611.484C1316.85 -580.216 1342.52 -547.886 1367.41 -515.878C1381.49 -497.767 1393.91 -477.408 1405.38 -453.634L1401.78 -451.194C1395.49 -458.051 1389.25 -464.955 1383.01 -471.857L1382.49 -472.43L1382.46 -472.461L1382.45 -472.472L1382.45 -472.473C1367.37 -489.156 1351.77 -506.401 1335.8 -522.734L1334.64 -523.909C1327.02 -531.53 1318.4 -538.518 1310.06 -545.275L1310.05 -545.282C1305.2 -549.209 1300.19 -553.27 1295.39 -557.434C1289.42 -562.623 1283.43 -567.99 1277.61 -573.208L1277.6 -573.212L1276.47 -574.228L1276.39 -574.297L1276.38 -574.306L1276.38 -574.311C1265.32 -584.228 1253.9 -594.48 1242.25 -603.878L1241.72 -604.303C1228.83 -614.707 1215.5 -625.46 1202.12 -630.848C1177.92 -640.587 1156.77 -654.707 1137.47 -674.022C1134.13 -677.367 1130.78 -680.93 1127.52 -684.611C1117.02 -696.481 1105.74 -708.103 1094.82 -719.349L1094.82 -719.357L1094.81 -719.359L1094.65 -719.524C1087.19 -727.212 1079.47 -735.164 1072.05 -743.134C1069.76 -745.605 1067.41 -748.039 1065.07 -750.373C1028.1 -787.365 986.766 -807.545 945.537 -808.732C877.751 -810.681 813.316 -840.024 742.136 -875.283C690.939 -900.644 642.991 -936.249 586.664 -990.729C585.967 -991.403 585.278 -992.083 584.595 -992.769C564.108 -1013.26 547.762 -1039.98 533.341 -1063.55C517.822 -1088.91 500.978 -1110.55 481.85 -1129.69C475.674 -1135.87 469.177 -1141.85 462.509 -1147.51L420.682 -1105.66C429.437 -1095.41 438.458 -1085.09 447.2 -1075.1L447.259 -1075.03C468.353 -1050.91 490.164 -1025.97 509.678 -1000.29C524.581 -980.674 541.006 -959.893 560.092 -940.796C571.504 -929.375 582.842 -919.574 594.745 -910.836C604.23 -903.874 613.2 -896.18 621.411 -887.961C635.95 -873.413 648.384 -856.993 658.364 -839.159C683.198 -794.774 705.162 -754.586 725.51 -716.301C747.35 -675.2 770.877 -642.697 799.548 -614.006C808.703 -604.846 818.558 -595.944 828.835 -587.549C835.272 -582.289 841.605 -576.531 848.194 -569.939C866.597 -551.522 883.365 -530.088 899.576 -509.358L900.252 -508.495C906.174 -500.93 912.276 -493.136 918.331 -485.666C927.115 -474.834 934.565 -466.421 941.785 -459.2C956.051 -444.926 969.843 -434.825 985.195 -427.405C1005.93 -417.389 1025.64 -402.878 1045.45 -383.052C1061.09 -367.41 1075.33 -349.967 1088.4 -333.444C1094.07 -326.284 1100.03 -319.555 1106.14 -313.448C1122.61 -296.971 1140.98 -284.105 1160.76 -275.2C1240.94 -239.1 1316.96 -184.484 1393.17 -108.23C1414.6 -86.7958 1435.82 -63.9293 1458.05 -38.3342C1489.18 -2.48413 1518.12 35.9467 1546.12 73.1178L1546.12 73.1207L1546.15 73.1665C1551.94 80.8605 1557.73 88.5483 1563.54 96.2119C1574.63 110.848 1583.1 127.174 1591.35 143.072L1591.35 143.08L1591.36 143.089C1597.88 155.661 1599.27 162.459 1596.15 166.563C1593.25 170.387 1587.01 170.967 1575.28 168.499C1526.56 158.259 1489.59 141.168 1458.94 114.717C1414.61 76.4595 1366.55 44.0902 1320.08 12.7861L1320.02 12.7462L1319.96 12.7074C1306.34 3.52637 1292.25 -5.9646 1278.46 -15.4678C1263.48 -25.7902 1250.37 -36.6407 1238.37 -48.6445C1225.35 -61.6713 1213.71 -76.1456 1203.75 -91.6702C1187.94 -116.327 1167.85 -140.544 1140.54 -167.879C1124.17 -184.257 1106.73 -200.256 1089.86 -215.728L1089.86 -215.733L1089.84 -215.751L1089.79 -215.795C1082.06 -222.882 1074.34 -229.967 1066.69 -237.109C1057.75 -245.462 1050.43 -252.507 1043.65 -259.287C1023.3 -279.646 1007.42 -298.309 994.893 -316.666C990.142 -323.631 985.877 -330.554 982.034 -337.511C973.65 -352.683 963.476 -366.162 950.93 -378.715C939.901 -389.748 927.391 -399.712 912.686 -409.179C901.867 -416.142 891.223 -423.388 880.75 -430.86C812.809 -479.331 752.074 -537.314 697.633 -589.288C683.11 -603.152 666.796 -615.636 651.02 -627.706C643.145 -633.731 635.01 -639.962 627.166 -646.296C616.352 -655.041 605.874 -664.471 596.025 -674.326C566.286 -704.082 540.967 -738.679 518.605 -780.096C512.857 -790.742 506.667 -801.29 500.012 -811.767C475.807 -849.877 445.466 -887.051 407.988 -924.591C388.118 -944.49 372.192 -968.82 356.789 -992.351L356.788 -992.352L356.77 -992.38C350.372 -1002.16 343.769 -1012.24 336.959 -1021.89L317.576 -1002.5C318.319 -1000.99 319.041 -999.461 319.757 -997.941C321.722 -993.764 323.758 -989.449 326.333 -985.524ZM1591.71 87.4769C1555.72 16.5618 1503.93 -52.2229 1433.39 -122.804C1418.27 -137.937 1402.43 -153.055 1384.97 -169.017C1326.12 -222.838 1273.71 -258.68 1220.06 -281.813C1182.28 -298.1 1150.38 -325.501 1119.52 -352.003L1119.25 -352.24C1108.71 -361.287 1097.82 -370.636 1086.86 -379.401C1041.73 -415.47 995.408 -457.4 945.246 -507.592C934.353 -518.491 922.92 -530.143 911.251 -542.226C908.9 -544.663 906.519 -547.1 904.101 -549.516C893.212 -560.415 884.024 -568.504 875.184 -574.971C868.293 -580.022 861.926 -585.452 856.268 -591.112C843.695 -603.696 834.134 -617.87 827.858 -633.248C810.85 -674.907 784.296 -714.179 758.612 -752.162L758.582 -752.206L758.291 -752.637L758.239 -752.713L758.214 -752.75C754.227 -758.645 750.237 -764.544 746.282 -770.456C733.706 -789.25 721.378 -808.377 708.329 -828.633C702.126 -838.258 695.71 -848.21 688.943 -858.635L684.787 -865.039L691.712 -861.831C698.78 -858.556 705.189 -855.515 711.168 -852.677L711.234 -852.646L711.237 -852.645L711.238 -852.644C722.929 -847.098 733.034 -842.304 743.124 -838.121C775.778 -824.585 803.009 -806.641 826.366 -783.268C847.362 -762.259 864.683 -737.431 879.31 -707.366C915.355 -633.273 965.675 -564.446 1033.14 -496.942C1072.32 -457.74 1117.43 -418.827 1171.05 -377.978C1185.34 -367.1 1201.97 -357.603 1219.15 -350.507C1278.04 -326.19 1328.41 -285.292 1374.94 -245.486C1424.98 -202.682 1473.66 -160.494 1519.14 -114.995C1530.56 -103.568 1541.58 -92.1255 1551.89 -80.9775C1554.55 -78.0972 1557.21 -75.3291 1559.79 -72.7493C1569.07 -63.4709 1578.04 -55.8954 1586.47 -50.244C1595.22 -44.3741 1603.33 -37.7242 1610.57 -30.4824C1626.34 -14.7029 1638.43 4.03882 1647.53 26.8174C1673.61 92.1267 1705.61 168.287 1755.4 245.685L1759.33 251.801L1752.67 248.893C1722.11 235.56 1687.13 218.181 1659.34 190.376C1651.27 182.297 1643.89 173.431 1637.39 164.022C1620.31 139.301 1604.95 113.548 1591.71 87.4769ZM-514.408 -103.509C-503.716 -88.1581 -491.287 -73.2294 -479.269 -58.7922L-479.26 -58.7823L-479.13 -58.6256L-479.117 -58.6106C-474.209 -52.7159 -469.135 -46.6213 -464.248 -40.5773C-462.056 -37.8649 -459.557 -35.1349 -457.135 -32.4888L-457.024 -32.3673L-457.001 -32.3424C-451.804 -26.6696 -446.428 -20.8022 -443.369 -14.4598C-422.696 28.4053 -390.762 66.042 -359.874 102.434C-344.516 120.536 -328.632 139.257 -314.3 158.412C-301.911 174.972 -288.104 190.806 -272.086 206.819C-237.873 241.032 -198.856 270.46 -161.123 298.919L-161.12 298.922L-161.087 298.946C-144.696 311.306 -127.75 324.089 -111.401 337.105C-69.6677 370.33 -25.5627 406.57 14.27 446.396C38.8322 470.956 59.9085 494.918 78.6984 519.648C106.965 556.847 121.674 595.61 134.315 632.124C146.67 667.82 165.849 698.064 194.674 727.297C209.495 742.331 219.362 762.509 228.907 782.028L228.932 782.079L229.136 782.495C230.694 785.682 232.243 788.848 233.799 791.956C252.17 828.648 270.152 854.799 292.097 876.741C297.059 881.699 302.294 886.494 307.659 891C327.539 907.668 353.483 929.933 377.905 954.35C378.455 954.899 379.004 955.45 379.552 956.002C380.384 956.84 381.215 957.679 382.044 958.521C391.859 968.506 399.886 980.404 407.647 991.907L407.708 991.999L407.765 992.083L407.768 992.087L407.77 992.09C411.179 997.147 414.702 1002.37 418.315 1007.34L649.316 1238.32C663.408 1237.81 677.474 1237.23 691.535 1236.64C727.375 1235.15 764.436 1233.62 801.356 1233.43C813.709 1233.37 827.109 1236.18 840.062 1238.89C846.728 1240.28 853.617 1241.72 860.243 1242.75L860.249 1242.75C862.983 1243.17 869.369 1244.16 871.381 1242.51C877.46 1237.54 882.838 1231.96 888.039 1226.56L888.572 1226.01C888.971 1225.59 889.367 1225.18 889.761 1224.77C890.274 1224.24 890.783 1223.72 891.288 1223.2L891.492 1222.99L891.744 1222.73L891.962 1222.51L874.575 1206.7L873.459 1205.69L873.225 1205.48L873.071 1205.34C859.961 1193.41 847.28 1181.88 834.563 1170.38C803.852 1142.61 776.442 1127.39 750.777 1123.82C675.059 1113.32 601.406 1078.15 531.868 1019.28C504.526 996.132 478.488 970.21 453.305 945.138L453.183 945.017C440.375 932.261 427.127 919.072 413.875 906.414C407.016 899.858 399.549 893.678 392.317 887.692L392.098 887.511C389.073 885.012 386.049 882.513 383.058 879.975L380.641 881.435C381.953 884.359 383.167 887.347 384.346 890.246C387.391 897.734 390.54 905.473 395.38 911.995C407.1 927.785 419.685 943.498 431.862 958.702L432.082 958.977C441.262 970.432 450.748 982.274 459.818 994.088C472.623 1010.76 485.932 1026.04 499.386 1039.49C548.559 1088.66 601.786 1116.67 662.1 1125.13C688.918 1128.89 716.942 1136.03 743.223 1143.2C750.969 1145.31 760.54 1150.95 766.5 1156.91C767.843 1158.25 769.002 1159.61 769.944 1160.93C779.229 1174.06 781.683 1186.31 776.506 1193.72C771.987 1200.18 762.766 1201.9 750.547 1198.58C724.77 1191.58 698.474 1182.76 673.043 1174.23L672.976 1174.21C663.255 1170.95 653.533 1167.69 643.82 1164.52C597.025 1149.25 554.754 1122.96 518.176 1086.38C517.702 1085.91 517.228 1085.43 516.755 1084.96C516.309 1084.51 515.865 1084.06 515.422 1083.6C483.196 1050.65 450.383 1013.37 415.108 969.616C361.936 903.673 309.117 835.832 258.037 770.222L232.214 737.064C226.257 729.419 221.374 721.027 216.658 712.914L216.603 712.819L216.598 712.809C214.454 709.126 212.24 705.319 209.966 701.656L205.593 694.621L212.881 698.559C217.797 701.215 222.145 704.461 226.178 708.49C227.878 710.197 229.579 712.085 231.367 714.268C243.155 728.651 255.756 742.566 268.816 755.627C290.05 776.856 313.371 796.695 338.142 814.59C344.792 819.397 350.893 825.36 356.789 831.128L356.843 831.18C361.463 835.698 366.237 840.365 371.204 844.394C373.654 846.379 376.117 848.441 378.601 850.521L378.622 850.538C389.012 859.226 399.754 868.207 410.481 872.606C436.998 883.494 459.238 898.128 478.462 917.351C482.024 920.912 485.546 924.695 488.926 928.6C496.781 937.663 505.145 946.621 513.24 955.291L513.259 955.311L513.427 955.491C519.324 961.804 525.418 968.332 531.288 974.862C535.144 979.158 539.1 983.336 543.042 987.277C579.623 1023.85 620.345 1045.48 664.083 1051.55C664.938 1051.67 665.793 1051.79 666.649 1051.91C668.829 1052.21 671.012 1052.52 673.195 1052.83C689.507 1055.15 706.375 1057.55 722.368 1058.15C744.604 1058.98 765.28 1067.36 785.567 1083.75C831.187 1120.61 879.689 1149.41 929.733 1169.38C936.089 1171.92 941.342 1172.26 942.307 1171.38C954.129 1160.71 965.122 1149.56 974.827 1139.71L974.836 1139.7L974.886 1139.65L977.127 1137.38C978.793 1135.69 980.4 1134.07 981.94 1132.52C973.738 1116.84 965.743 1101.52 957.888 1086.47C937.962 1048.29 919.136 1012.23 899.988 976.022C898.02 972.3 896.083 968.556 894.139 964.8L894.102 964.729C886.298 949.646 878.227 934.049 868.056 919.947C866.049 917.159 864.03 914.321 861.995 911.466C851.173 896.264 839.981 880.549 827.273 867.842C822.949 863.519 818.601 859.714 814.356 856.532C797.728 844.081 782.245 830.628 767.026 815.407C742.901 791.291 720.51 763.837 696.558 729.021C689.829 719.241 682.572 710.437 674.99 702.858C663.527 691.396 650.795 682.206 637.152 675.551C610.777 662.68 586.494 645.246 564.981 623.735C561.896 620.65 558.816 617.435 555.841 614.177C549.601 607.354 543.233 600.69 536.911 594.369C501.761 559.221 465.326 531.601 425.527 509.929C401.912 497.07 379.159 480.25 358.092 463.988C335.467 446.524 313.523 429.211 293.788 409.482C274.145 389.838 258.981 369.984 247.433 348.782C244.506 343.414 240.115 337.834 234.006 331.725C227.335 325.06 219.522 318.645 211.964 312.442L211.839 312.339C208.693 309.757 205.587 307.208 202.615 304.678C192.752 296.298 182.231 288.298 172.058 280.565L172.053 280.561C156.119 268.444 139.642 255.915 125.278 241.604L124.938 241.261C90.8504 207.18 68.5382 166.692 46.9639 127.54C41.1642 117.011 35.1611 106.12 29.0365 95.5509C28.3311 94.3402 28.5071 93.1536 28.7728 91.3622L28.773 91.3611L28.7754 91.3457L28.7788 91.323C28.9334 90.2864 29.1472 88.853 29.328 86.7885L29.5648 84.1227L32.1367 84.8665C38.4144 86.6912 44.9192 88.3525 51.2098 89.9589L51.2424 89.9673L51.2607 89.972C65.408 93.5865 80.0345 97.3236 94.3727 103.324C159.672 130.649 217.955 176.086 271.203 221.119C322.598 264.585 373.81 310.216 423.343 354.351L423.407 354.408L429.554 359.884L429.578 359.906C437.899 367.319 446.22 374.732 454.546 382.135C481.939 406.491 505.253 428.322 525.813 448.883C578.845 501.907 619.565 552.715 650.303 604.206C654.162 610.67 659.649 617.532 666.175 624.057C672.123 630.001 678.627 635.369 684.989 639.578C751.026 683.247 811.608 737.088 870.194 789.159C878.058 796.148 885.92 803.135 893.796 810.103C900.041 815.626 906.335 821.33 912.436 826.859L913.026 827.394C928.874 841.764 945.262 856.624 962.23 869.7C985.45 887.602 1004.69 904.25 1021.03 920.596C1049.25 948.815 1070.33 977.549 1085.47 1008.44C1086.91 1011.4 1088.96 1014.27 1091.14 1017.31C1091.67 1018.06 1092.21 1018.81 1092.73 1019.56L1115.58 996.72C1086.76 955.853 1057.94 921.176 1027.51 890.75C1011.58 874.825 994.948 859.854 978.08 846.261C952.316 825.509 925.704 805.042 899.96 785.245C872.003 763.746 843.093 741.512 815.175 718.835C787 695.954 763.239 674.764 742.527 654.057C681.12 592.653 642.721 530.669 625.136 464.568C623.43 458.149 620.22 448.722 614.621 440.266C602.663 422.198 589.746 404.715 576.462 386.902C572.499 381.588 568.132 376.305 563.909 371.196C557.028 362.873 549.917 354.269 544.281 345.221C534.58 329.646 526.74 313.139 519.156 297.174L519.111 297.079L516.591 291.769C505.736 268.988 490.987 248.19 472.753 229.958C465.472 222.68 457.546 215.727 449.187 209.287C431.247 195.469 414.203 180.519 398.529 164.849C360.609 126.93 328.486 82.483 303.047 32.744C294.374 15.7899 283.273 -2.3302 269.099 -22.6545C257.199 -39.7211 244.427 -55.1146 231.133 -68.401C185.917 -113.616 133.553 -136.36 75.5009 -136.005C65.0038 -135.941 54.5339 -135.179 44.4042 -134.438L44.0544 -134.413C36.2138 -133.844 28.1174 -133.256 20.0151 -132.996C13.1582 -132.777 6.20819 -132.444 -0.533264 -132.122L-0.537476 -132.122H-0.540222H-0.543335H-0.546814H-0.548645H-0.550842H-0.553223L-0.572449 -132.12L-0.638184 -132.117L-1.30115 -132.085H-1.30243H-1.30371H-1.30481H-1.30609H-1.30756H-1.3092H-1.31104H-1.31305H-1.31525C-21.5192 -131.111 -42.4143 -130.103 -63.7436 -131.845C-95.5387 -134.448 -119.995 -145.305 -140.71 -166.015C-151.614 -176.921 -161.64 -190.702 -171.357 -208.145C-178.159 -220.345 -185.701 -234.721 -190.089 -248.824C-200.371 -281.864 -219.658 -312.211 -249.049 -341.598C-263.12 -355.665 -279.517 -369.671 -300.548 -385.572L-335.382 -350.744C-328.02 -345.509 -320.534 -340.281 -313.275 -335.211L-313.258 -335.199L-313.237 -335.185L-313.173 -335.14L-313.105 -335.093L-313.102 -335.091C-294.568 -322.145 -275.409 -308.762 -257.177 -294.525C-254.028 -292.06 -251.034 -289.415 -248.283 -286.667C-233.411 -271.796 -224.76 -252.796 -223.931 -233.17C-222.695 -203.925 -211.612 -179.222 -190.043 -157.659C-178.963 -146.58 -165.144 -136.251 -147.794 -126.08C-127.395 -114.12 -105.823 -97.0719 -79.9099 -72.4331C-46.9639 -41.1056 -12.9946 -23.2314 23.9413 -17.7815C97.561 -6.9209 170.391 31.8058 253.148 104.092C264.049 113.616 275.36 124.286 288.751 137.675C297.615 146.539 306.501 155.706 315.101 164.579L315.122 164.6L315.125 164.603L315.127 164.606L315.14 164.619L315.381 164.867C324.065 173.827 333.044 183.091 341.993 192.038C344.161 194.206 346.338 196.365 348.518 198.512C355.153 205.033 362.495 211.118 369.597 217.002C372.57 219.464 375.546 221.933 378.482 224.435L380.711 223.46C379.393 220.506 378.172 217.488 376.991 214.555L376.967 214.495C373.85 206.787 370.632 198.828 365.623 192.187C348.336 169.261 329.85 146.438 311.971 124.365L310.658 122.743C304.998 115.75 299.335 108.754 293.703 101.748C287.396 93.8931 280.774 86.1113 275.126 79.5288C268.109 71.3553 260.964 63.6222 253.886 56.5448C213.962 16.6248 172.405 -6.74182 126.842 -14.9C107.287 -18.3978 87.2947 -22.7517 67.9613 -26.9629L67.579 -27.046C53.6207 -30.0837 39.2012 -33.2217 25.0739 -36.0078C11.2214 -38.7373 0.869995 -43.6832 -6.5755 -51.1281C-12.5574 -57.1094 -16.5625 -64.7819 -18.4846 -73.9238C-20.5099 -83.5668 -18.9006 -91.6128 -14.0787 -95.9971C-11.1727 -98.6355 -5.78601 -101.174 3.4267 -98.3046C16.082 -94.3584 29.0411 -90.6047 41.5736 -86.975L41.7563 -86.9219C107.211 -67.9698 174.888 -48.3741 234.795 7.88354C239.833 12.611 244.98 17.6055 250.099 22.7245C281.166 53.7849 309.939 88.2214 336.409 120.812C391.752 188.96 446.494 259.229 499.432 327.189L518.231 351.318C527.074 362.661 534.867 374.855 542.402 386.646L542.405 386.65L542.407 386.653C545.857 392.054 549.428 397.638 553.041 403.051L554.48 405.21L547.077 408.562L545.999 407.396C540.758 401.719 535.524 395.862 530.462 390.193L530.343 390.061C520.955 379.56 511.253 368.709 501.193 358.653C499.077 356.537 496.933 354.442 494.765 352.38C482.036 340.307 468.374 328.79 455.155 317.649L455.153 317.647L455.011 317.528L454.865 317.405C445.831 309.792 436.492 301.921 427.506 293.921C419.896 287.14 412.476 279.886 405.296 272.868L405.212 272.786C398.884 266.595 392.341 260.198 385.715 254.168C384.625 253.178 383.517 252.149 382.387 251.102L382.37 251.085C376 245.178 368.787 238.487 362.465 236.534C332.838 227.371 306.341 209.998 276.541 180.203C263.937 167.6 252.425 154.557 238.688 138.817C232.87 132.152 226.928 125.782 221.025 119.88C177.093 75.9552 130.282 52.9469 81.8867 51.4926C-13.4501 48.6294 -104.803 -6.54443 -182.95 -58.0385C-210.737 -76.3528 -235.8 -96.6073 -257.438 -118.243C-283.027 -143.826 -304.346 -171.872 -320.816 -201.593C-333.117 -223.794 -352.423 -244.701 -371.097 -264.916C-379.038 -273.515 -387.23 -282.386 -394.834 -291.298L-436.421 -249.711C-428.42 -240.59 -420.076 -231.46 -411.99 -222.613L-411.976 -222.597L-411.975 -222.596C-392.746 -201.56 -372.86 -179.805 -356.319 -156.815C-324.706 -112.887 -287.132 -72.9158 -250.795 -34.2589L-248.815 -32.1578C-198.943 20.8998 -160.009 77.6859 -129.781 141.446C-109.74 183.725 -88.7369 215.083 -63.6859 240.132C-53.2251 250.594 -41.7776 260.195 -29.668 268.66C-20.179 275.297 -11.1727 282.915 -2.13916 291.951C14.8857 308.971 29.3663 328.517 43.3701 347.42L43.3718 347.422C52.4175 359.631 61.7699 372.252 71.6931 384.036C75.8896 389.021 80.3623 393.891 84.9839 398.512C97.4973 411.024 110.405 421.029 122.308 427.441C147.897 441.226 171.059 458.644 193.116 480.702C203.841 491.423 214.077 502.997 224.407 516.083C232.876 526.807 241.12 536.146 249.61 544.635C270.174 565.194 292 580.384 316.343 591.068C388.682 622.821 458.606 673.838 536.401 751.626C547.038 762.264 557.814 773.368 569.338 785.564C620.564 839.785 685.375 912.975 732.261 998.414C740.499 1013.43 742.494 1022.48 738.717 1027.75C735.398 1032.39 728.025 1033.54 715.527 1031.35C669.627 1023.33 620.697 1009.98 573.856 967.077C539.088 935.24 500.394 907.565 467.13 884.696C423.847 854.941 390.716 828.104 362.853 800.247C337.165 774.561 316.018 748.088 298.203 719.317C288.651 703.887 275.138 689.62 264.432 678.918C259.054 673.541 253.503 668.203 248.129 663.044L243.537 658.63C234.765 650.168 227.019 642.577 219.865 635.427C188.337 603.896 148.119 561.073 116.755 509.346C110.824 499.557 102.523 489.222 92.7512 479.451C84.1458 470.847 74.7236 463.004 65.4927 456.771C-3.40295 410.246 -66.4202 353.335 -127.361 298.299L-127.367 298.293L-130.555 295.412C-157.875 270.743 -190.487 241.847 -225.218 214.57C-237.398 205.006 -249.024 194.71 -259.764 183.968C-287.053 156.682 -309.481 126.092 -328.319 90.447C-358.062 34.1832 -394.94 -15.5894 -441.067 -61.7062L-444.207 -64.8335C-461.388 -82.0133 -475.786 -102.474 -489.71 -122.262L-489.715 -122.269L-489.887 -122.513C-495.867 -131.006 -502.046 -139.78 -508.347 -148.15C-511.667 -152.56 -514.685 -157.201 -517.607 -161.693L-517.675 -161.798C-518.549 -163.146 -519.424 -164.491 -520.308 -165.833L-537.424 -148.721C-535.263 -144.304 -533.224 -139.789 -531.246 -135.407L-531.244 -135.404L-531.212 -135.331C-526.35 -124.565 -521.319 -113.428 -514.408 -103.509ZM729.51 937.617C692.777 868.273 643.726 803.378 579.562 739.223C543.361 703.022 502.316 667.01 454.091 629.127C437.773 616.308 420.653 605.87 404.584 598.935C347.628 574.357 292.434 536.723 225.625 476.91C213.655 466.195 201.388 455.441 189.524 445.042L189.468 444.993C159.78 418.967 129.077 392.052 100.561 363.541C88.4394 351.418 77.5718 339.889 67.3297 328.294C63.7284 324.219 59.8964 320.145 55.9307 316.18C45.2422 305.489 33.2663 295.3 21.3086 286.713C14.9441 282.144 8.96826 277.079 3.55121 271.66C-10.0432 258.067 -20.7408 241.929 -30.1053 220.876C-49.1365 178.093 -68.3159 134.335 -86.8675 92.0101L-86.9697 91.7769L-90.6477 83.387C-97.119 68.6252 -103.614 53.8099 -110.153 38.9197L-111.632 35.5525L-107.967 35.8409C-76.1112 38.3276 -51.5399 49.2184 -30.6397 70.1196L-30.6337 70.1257C-21.8157 78.9368 -13.5534 89.5483 -5.35791 102.562C7.90247 123.63 23.2064 148.578 36.1297 173.906C68.6141 237.56 115.109 298.573 182.458 365.916C201.03 384.482 221.174 403.601 245.86 426.09C292.732 468.788 342.512 502.262 393.816 525.58C437.609 545.486 474.651 576.488 502.022 601.27C534.336 630.521 567.279 660.154 599.141 688.81C649.632 734.216 701.835 781.174 752.827 827.789C755.797 830.509 758.718 833.302 761.505 836.09C786.906 861.484 804.132 889.472 811.337 917.026C823.213 962.466 847.368 1006.6 887.356 1055.91C897.373 1068.27 906.626 1082.82 915.638 1100.39C919.124 1107.19 921.134 1120.38 916.221 1124.77C911.338 1129.14 898.069 1127.4 891.343 1122.86C873.883 1111.08 856.866 1097.67 840.761 1083.02C835.019 1077.79 829.328 1072.36 823.848 1066.88C786.848 1029.88 755.991 987.599 729.51 937.617ZM2.53925 -584.805C-4.88019 -591.185 -12.5486 -597.779 -19.8033 -604.458C-27.0834 -611.157 -34.3178 -617.904 -41.5536 -624.653L-41.5659 -624.665L-42.1978 -625.254L-50.6743 -633.154L26.3181 -710.171C39.699 -690.623 54.488 -672.704 70.309 -656.88C95.4622 -631.718 124.236 -610.842 155.829 -594.833C164.78 -590.294 173.715 -584.629 182.357 -579.15L182.391 -579.128C187.635 -575.801 193.056 -572.364 198.455 -569.188C201.574 -567.354 204.7 -565.427 207.829 -563.49L207.837 -563.485L207.84 -563.483C216.86 -557.908 226.182 -552.146 235.538 -548.692C306.612 -522.443 365.004 -485.835 414.051 -436.77C430.898 -419.92 446.74 -401.379 461.146 -381.663C469.474 -370.266 478.363 -359.88 488.321 -349.919C497.225 -341.011 507.137 -332.301 518.615 -323.293C533.966 -311.249 547.271 -299.551 559.283 -287.535C581.332 -265.475 598.458 -242.878 611.635 -218.45C623.14 -197.122 638.3 -176.471 654.327 -160.308L655.544 -159.084C672.669 -141.953 691.554 -126.061 709.823 -110.687L709.963 -110.569C717.92 -103.874 726.151 -96.9492 734.115 -90.0271L736.324 -88.1053L737.556 -90.7588C754.646 -127.637 748.979 -148.142 711.207 -186.147L710.664 -186.691C706.016 -191.341 701.131 -195.885 696.409 -200.279L696.37 -200.316L696.289 -200.392C692.089 -204.297 687.745 -208.336 683.608 -212.421C678.901 -217.063 673.981 -221.699 669.219 -226.183C663.778 -231.308 658.154 -236.606 652.828 -241.934C645.58 -249.184 639.957 -255.411 635.128 -261.531C627.684 -270.961 620.033 -279.62 612.391 -287.267C596.16 -303.504 579.414 -315.918 561.195 -325.23C533.641 -339.311 508.327 -357.797 485.951 -380.182C467.926 -398.212 451.274 -419.307 436.455 -442.878C428.297 -455.848 419.001 -467.585 408.819 -477.771C391.265 -495.331 370.892 -508.781 346.534 -518.888C335.857 -523.317 324.984 -527.526 314.459 -531.601L314.455 -531.602L314.44 -531.608L314.435 -531.61L314.109 -531.736L313.974 -531.788L313.97 -531.79L313.961 -531.793L313.957 -531.794L313.952 -531.797C296.107 -538.706 277.655 -545.851 259.747 -554.218C247.972 -559.716 236.37 -568.76 225.153 -577.507L224.277 -578.19L224.25 -578.211C222.083 -579.899 219.924 -581.582 217.766 -583.227C211.073 -588.341 204.416 -594.19 197.973 -599.851L197.923 -599.894C185.954 -610.414 173.575 -621.292 160.403 -627.962C136.749 -639.939 116.373 -654.637 98.1147 -672.901C80.4789 -690.544 65.2923 -711.064 51.7232 -735.589L79.6959 -763.572C80.491 -762.051 81.2831 -760.496 81.5259 -759.212C87.0495 -729.933 101.593 -704.324 127.292 -678.615C136.112 -669.796 146.327 -660.879 158.534 -651.361C219.049 -604.169 281.571 -566.614 349.659 -536.551C404.901 -512.166 454.388 -478.32 496.74 -435.956C505.11 -427.583 513.265 -418.787 520.989 -409.813C522.491 -408.067 524.13 -406.306 525.86 -404.573C534.703 -395.729 546.713 -386.976 559.672 -379.933C581.523 -368.062 599.747 -354.682 615.386 -339.041C630.846 -323.575 643.753 -305.663 653.744 -285.798C663.231 -266.948 676.37 -249.254 693.905 -231.712C705.134 -220.475 717.984 -209.424 734.336 -196.934C743.344 -190.052 751.605 -182.871 758.879 -175.591C788.363 -146.096 803.711 -113.775 805.787 -76.778C806.065 -71.8884 806.4 -66.9746 806.735 -62.0577L806.737 -62.035L806.738 -62.0123L806.74 -61.9896C807.744 -47.2861 808.779 -32.0848 808.121 -17.8369C805.796 32.3909 827.687 80.6088 879.098 138.505C887.608 148.093 896.694 157.726 906.108 167.141C959.116 220.168 1019.56 263.509 1078.01 305.422L1078.02 305.428C1085.38 310.708 1092.75 315.988 1100.1 321.288C1121.03 336.38 1138.7 351.211 1154.11 366.625C1170.99 383.511 1185.03 400.929 1197.03 419.874C1205.74 433.62 1215.17 447.36 1224.29 460.652L1224.3 460.661L1224.38 460.787C1227.14 464.801 1229.89 468.817 1232.63 472.837C1245.68 491.994 1260.49 509.9 1276.65 526.061C1297.84 547.265 1322.12 566.224 1348.82 582.418C1381.34 602.143 1404.65 619.749 1424.4 639.508C1433.16 648.273 1441.29 657.596 1448.58 667.245C1442.89 672.931 1437.22 678.62 1431.54 684.313L1431.35 684.502C1407.49 708.41 1382.82 733.125 1358.23 757.101C1356.74 758.55 1351.75 758.744 1347.55 757.52C1294.1 741.952 1247.13 714.181 1207.94 674.986C1187.38 654.417 1168.5 630.239 1151.82 603.124C1149.83 599.891 1147.16 596.633 1143.4 592.875C1140.8 590.28 1138.02 587.77 1135.32 585.338L1135.3 585.327C1134.08 584.228 1132.87 583.132 1131.69 582.045C1122.08 573.192 1112.21 564.303 1102.67 555.708L1102.64 555.685L1102.64 555.683L1102.62 555.668L1102.62 555.666L1102.6 555.65L1102.6 555.648C1083.92 538.819 1064.61 521.419 1046.37 503.552L1045.3 502.493C1033.43 490.622 1023.78 477.042 1018.82 465.238C1010 444.28 996.867 425.235 978.655 407.019C971.353 399.715 963.201 392.474 953.732 384.884C939.864 373.768 926.374 361.439 913.324 349.512L913.286 349.478C907.447 344.137 901.407 338.615 895.407 333.271L893.65 331.708L892.209 333.56C872.995 358.249 877.535 385.968 905.705 415.945C908.321 418.732 911.046 421.537 914.033 424.525C922.257 432.752 930.958 440.816 939.377 448.615L939.413 448.648L939.418 448.654C947.757 456.384 956.374 464.37 964.458 472.46C972.412 480.415 979.058 487.68 984.773 494.669C992.096 503.625 999.75 512.108 1007.53 519.886C1030.82 543.184 1056.44 561.601 1085.86 576.189C1104.7 585.527 1122.23 598.245 1137.97 613.993C1152.58 628.602 1165.77 645.935 1177.18 665.505C1187.51 683.223 1199.49 698.953 1212.79 712.256C1236.53 736.004 1265.32 753.224 1300.82 764.901C1308.94 767.576 1316.99 770.886 1325.51 774.391L1325.52 774.396L1325.52 774.396L1325.54 774.404C1328.79 775.745 1332.08 777.099 1335.42 778.435C1328.64 791.845 1319.03 793.664 1299.8 785.615C1245.57 762.927 1193.4 730.4 1140.29 686.18C1137.7 684.025 1135.04 681.559 1131.91 678.432C1129.7 676.216 1127.52 673.942 1125.34 671.665C1123.14 669.358 1120.94 667.053 1118.69 664.807C1116.75 662.861 1114.98 661.173 1113.3 659.646C1110.25 656.881 1107.16 653.919 1104.15 651.034L1103.46 650.376L1103.44 650.353C1093.85 641.143 1083.94 631.624 1073.15 625.733C1048.56 612.296 1028.25 597.404 1011.06 580.202C993.932 563.07 980.418 544.198 969.744 522.506C961.335 505.422 949.398 489.265 933.25 473.113C920.011 459.867 905.653 448.291 893.359 438.715C884.026 431.447 875.477 423.942 867.948 416.41C832.579 381.031 816.564 342.607 818.983 298.943C819.348 292.338 819.067 285.428 818.795 278.742L818.795 278.736L818.791 278.648L818.791 278.627V278.623V278.619V278.615V278.611V278.607V278.603V278.599V278.595C818.542 272.555 818.285 266.307 818.521 260.392C820.588 207.769 797.999 157.453 747.429 102.055C738.901 92.7163 729.945 83.3441 720.807 74.2058C673.741 27.1234 618.819 -17.3086 547.951 -65.6267C519.593 -84.963 493.708 -106.276 471.019 -128.976C447.453 -152.548 426.418 -178.527 408.494 -206.191C383.344 -245.012 354.145 -281.144 321.708 -313.593C287.025 -348.291 247.32 -380.084 203.69 -408.086C155.99 -438.707 116.279 -470.12 82.2877 -504.127C70.661 -515.758 59.4987 -527.917 49.1132 -540.258C45.0798 -545.058 40.655 -549.852 35.5927 -554.916C25.1921 -565.317 13.702 -575.203 2.59125 -584.76L2.53925 -584.805ZM893.462 204.144C892.496 203.375 891.529 202.605 890.621 201.8L887.532 199.05L886.983 203.154C885.923 211.045 888.351 217.703 890.712 223.325C905.01 257.383 929.313 285.649 953.45 311.118C964.625 322.913 974.345 336.497 983.745 349.634L983.75 349.642L984.453 350.623L984.492 350.678C986.568 353.577 988.64 356.469 990.731 359.342C995.046 365.271 999.092 371.601 1003 377.725C1009.91 388.539 1017.06 399.721 1025.99 409.181C1029.39 412.782 1032.82 416.334 1036.24 419.877C1055.19 439.492 1073.08 458.024 1084.33 482.161C1089.07 492.337 1096.58 502.966 1104.94 511.327C1106.06 512.442 1107.19 513.516 1108.32 514.54C1133.2 536.933 1158.94 559.145 1183.83 580.621L1184.27 581.008C1197.34 592.288 1210.85 603.942 1224.06 615.487C1226.78 617.861 1229.66 620.241 1232.45 622.546C1237.6 626.805 1242.94 631.213 1247.53 635.807C1250.87 639.146 1253.5 642.267 1255.6 645.355C1260.93 653.221 1266.74 660.317 1272.86 666.44C1294.07 687.662 1319.91 698.734 1354.18 701.275L1360.7 701.758L1355.81 697.429C1349.23 691.615 1342.59 685.859 1335.96 680.105C1321.49 667.548 1306.53 654.563 1292.4 641.178L1282.6 631.896L1282.32 631.634C1260.4 610.886 1237.74 589.438 1216.08 567.773C1206.82 558.501 1198.39 549.864 1190.34 541.369C1171.87 521.875 1154.67 500.577 1138.04 479.981L1137.91 479.816C1131.69 472.113 1125.26 464.153 1118.85 456.394C1114.97 451.703 1111.48 446.797 1107.08 440.6L1107.01 440.491C1105.89 438.919 1104.72 437.276 1103.48 435.543C1120.22 442.571 1131.9 452.899 1140.43 461.428C1145.4 466.401 1150.13 471.662 1154.7 476.75L1154.79 476.85C1158.47 480.946 1162.28 485.181 1166.14 489.195C1174.42 497.775 1182.66 506.399 1190.91 515.026L1193.31 517.542C1213 538.157 1233.36 559.475 1253.84 579.956C1267.97 594.095 1280.9 606.582 1293.36 618.131C1324.76 647.25 1362.29 670.241 1401.89 684.623L1404.15 680.958C1396.62 673.793 1388.23 666.956 1376.97 658.799C1334.63 628.12 1302.11 601.029 1274.64 573.541C1244.09 542.984 1219.67 511.813 1199.98 478.256C1190.86 462.715 1178.37 446.685 1164.8 433.111C1160.77 429.076 1156.64 425.254 1152.52 421.753C1112.69 387.817 1068.97 355.251 1033.82 329.073L1033.74 329.009C1027.83 324.609 1021.89 320.249 1015.96 315.892L1015.96 315.89L1015.89 315.842L1015.5 315.553C986.843 294.502 957.216 272.734 931.544 247.055C919.462 234.969 909.122 222.94 899.926 210.28C899.368 209.515 898.722 208.765 897.945 207.991C896.585 206.63 895.043 205.401 893.55 204.214L893.462 204.144ZM269.274 -467.907L269.266 -467.908C263.098 -468.9 256.722 -469.925 250.667 -471.189L242.43 -472.904L248.773 -467.373C279.186 -440.865 310.473 -414.683 340.734 -389.362C372.467 -362.809 405.28 -335.352 436.946 -307.627C444.882 -300.678 452.873 -293.166 461.368 -284.669C479.526 -266.504 496.952 -246.804 513.799 -227.753L521.18 -219.416C525.656 -214.37 527.59 -207.226 529.635 -199.663C530.342 -197.043 531.074 -194.354 531.92 -191.746L529.28 -191.342L516.4 -204.227C500.571 -220.087 484.782 -235.982 468.992 -251.877L468.986 -251.883L468.981 -251.888L468.975 -251.894L468.97 -251.899L468.925 -251.944L468.92 -251.95L468.875 -251.995L468.87 -252L467.098 -253.783L467.07 -253.811C447.841 -273.172 428.612 -292.532 409.32 -311.829C385.022 -336.138 364.685 -356.288 345.323 -375.242C319.207 -400.802 289.896 -418.639 258.197 -428.257L256.251 -424.377C278.096 -408.298 298.588 -390.604 318.904 -370.284C352.415 -336.76 383.629 -298.088 420.109 -244.891C430.43 -229.838 443.511 -214.549 461.286 -196.77C472.351 -185.701 483.863 -175.038 494.706 -165.065C523.455 -138.625 555.29 -115.539 586.078 -93.2126L586.079 -93.2119L586.121 -93.1815C622.43 -66.8533 659.978 -39.6263 693.062 -6.53992C702.318 2.72302 711.037 12.2621 718.967 21.8164L720.946 24.1997L722.546 21.5432C730.157 8.88916 728.017 -5.80518 716.351 -20.9487C709.099 -30.3644 700.894 -39.3947 692.957 -48.1299L692.852 -48.2456C687.019 -54.6606 680.986 -61.3004 675.395 -68.019C672.121 -71.9537 668.734 -75.8762 665.332 -79.8109C654.327 -92.5439 642.946 -105.714 635.565 -119.446C623.505 -141.9 609.359 -160.885 591.052 -179.195C589.383 -180.871 587.678 -182.531 585.939 -184.192C585.247 -184.851 584.564 -185.516 583.89 -186.19C575.209 -194.876 567.572 -205.14 560.186 -215.065L560.185 -215.067L560.172 -215.083L559.961 -215.367L559.955 -215.375L559.948 -215.385C556.391 -220.164 552.718 -225.098 548.952 -229.814C542.855 -237.459 536.785 -245.361 530.919 -253.006C517.839 -270.044 504.312 -287.662 489.435 -303.701C486.907 -306.428 484.236 -309.2 481.502 -311.932C463.031 -330.409 442.282 -346.646 422.215 -362.345C402.002 -378.16 381.107 -394.511 362.367 -413.259C354.949 -420.676 348.385 -427.929 342.294 -435.44C340.676 -437.425 338.961 -439.332 337.183 -441.111C318.272 -460.029 293.371 -464.033 269.292 -467.904L269.274 -467.907ZM-164.072 -434.097C-156.15 -427.413 -148.247 -420.688 -140.343 -413.958L-140.334 -413.95L-140.333 -413.949C-76.3375 -359.49 -10.1597 -303.174 65.8842 -270.669C80.9444 -264.237 96.2778 -257.886 111.11 -251.748L111.425 -251.618C126.218 -245.496 141.508 -239.168 156.531 -232.745C214.969 -207.764 259.306 -178.997 296.065 -142.217C310.023 -128.246 322.962 -112.915 334.517 -96.6511C352.211 -71.7528 371.773 -46.3563 392.664 -21.1542C393.444 -20.2157 394.315 -19.2621 395.25 -18.3267C399.683 -13.8873 405.35 -10.0394 410.835 -6.3147L410.929 -6.25098C412.51 -5.18188 414.116 -4.09155 415.709 -2.97693C415.445 -4.61707 415.211 -6.25708 414.981 -7.86975C413.922 -15.3563 412.92 -22.4268 409.044 -28.1973C383.601 -66.1128 354.761 -109.088 323.633 -148.717C315.632 -158.897 307.17 -168.467 298.481 -177.162C266.673 -208.991 229.502 -231.333 187.996 -243.566C158.047 -252.391 127.448 -266.244 97.8501 -279.644L97.8105 -279.662C91.8071 -282.384 85.8066 -285.099 79.8184 -287.772C71.1592 -291.641 62.7701 -297.852 54.6633 -303.859L54.6061 -303.901C50.9818 -306.585 47.2382 -309.357 43.5426 -311.862L42.4863 -312.579L43.2725 -322.753L45.2028 -322.856C47.4124 -322.969 49.5916 -323.279 51.8983 -323.61L51.9182 -323.613L51.9189 -323.613C57.0175 -324.341 62.2859 -325.093 67.8296 -323.567C75.4356 -321.478 83.0447 -319.412 90.6568 -317.35C124.932 -308.053 160.374 -298.438 195.247 -286.38C233.599 -273.123 268.84 -250.594 299.989 -219.421C326.896 -192.5 351.122 -159.161 374.049 -117.504C398.154 -73.7117 420.283 -43.1733 448.042 -15.3988C448.274 -15.1666 448.506 -14.9342 448.739 -14.7017C448.951 -14.4899 449.164 -14.278 449.377 -14.0663C449.775 -13.6715 450.175 -13.2771 450.577 -12.884C451.639 -11.8423 452.692 -10.7976 453.739 -9.74976C504.465 41.0067 532.868 93.0297 540.577 149.283C547.075 196.702 566.758 243.79 599.079 289.237C617.227 314.75 634.797 341.107 651.788 366.598L651.854 366.696L652.234 367.267C662.627 382.855 673.362 398.957 684.117 414.695C685.671 416.97 687.216 419.29 688.773 421.629L688.78 421.639L688.781 421.64L688.784 421.646L688.788 421.651C694.884 430.807 701.19 440.277 708.668 447.757C709.794 448.884 710.936 449.956 712.065 450.943C716.784 455.064 721.401 459.38 725.786 463.772C757.133 495.136 779.73 532.514 794.872 578.041C806.399 612.698 825.436 642.984 853.064 670.634C867.581 685.16 884.168 698.685 903.766 711.984C937.735 735.033 972.731 757.457 1006.59 779.15L1006.98 779.399L1007.51 779.745L1007.53 779.756C1034.35 796.938 1062.06 814.694 1089.11 832.667C1109.04 845.909 1126.77 860.257 1141.82 875.315C1157.37 890.874 1170.68 907.806 1181.39 925.649C1181.6 926.017 1181.93 926.408 1182.41 926.891C1182.61 927.088 1182.82 927.286 1183.03 927.486C1183.28 927.714 1183.53 927.945 1183.8 928.182C1183.89 928.261 1183.98 928.343 1184.07 928.428L1191.33 921.167C1188.45 916.719 1185.62 912.308 1182.82 907.933L1182.81 907.917L1181.46 905.814C1173.67 893.641 1166.31 882.146 1158.46 870.616C1144.06 849.454 1129.43 831.535 1113.75 815.845C1089.95 792.034 1064 773.668 1034.41 759.707C1000.06 743.496 965.825 723.016 932.714 703.208L932.63 703.158C919.734 695.441 906.397 687.465 893.258 679.861C884.353 674.707 876.453 668.702 869.773 662.021C858.998 651.239 851.304 638.632 846.9 624.548C834.113 583.669 810.43 543.284 770.105 493.599C762.524 484.263 754.559 474.933 746.856 465.91C724.217 439.399 700.811 411.989 684.193 380.858L681.935 376.634L681.933 376.63L681.932 376.629C656.463 328.954 632.405 283.921 626.128 234.687C621.475 198.233 605.353 160.093 578.207 121.314C568.825 107.921 562.133 93.0459 555.659 78.6562L555.656 78.65L555.654 78.6464L555.628 78.5881C553.568 74.0051 551.434 69.2672 549.261 64.675C546.726 59.3267 544.708 53.705 542.76 48.2684L542.757 48.26L542.756 48.2589C539.27 38.5497 535.98 29.3871 530.006 21.6299C514.873 1.98267 497.251 -17.9379 477.626 -37.5729C474.906 -40.2942 472.163 -42.9941 469.413 -45.6638C467.057 -47.9417 464.739 -50.2256 462.444 -52.5216C430.257 -84.7274 410.346 -112.626 397.872 -142.976C388.909 -164.786 377.913 -190.489 364.306 -215.755C350.029 -242.272 333.118 -265.394 314.042 -284.482C278.504 -320.044 235.232 -342.124 185.432 -350.099C172.466 -352.181 159.316 -353.509 146.602 -354.794H146.601L146.503 -354.804L146.437 -354.811C123.19 -357.159 99.1508 -359.588 75.1868 -366.673C-3.9267 -390.062 -85.2073 -437.954 -173.253 -513.072L-210.424 -475.876C-205.969 -471.83 -201.538 -467.747 -197.108 -463.664L-197.106 -463.663L-197.105 -463.662L-197.104 -463.661L-197.103 -463.66L-197.102 -463.659L-197.095 -463.652L-197.081 -463.64L-197.061 -463.621C-186.365 -453.766 -175.305 -443.576 -164.072 -434.097ZM-106.948 -240.263C-111.32 -244.636 -115.636 -249.282 -119.769 -254.077C-152.522 -292.058 -185.312 -330.01 -218.104 -367.965L-218.136 -368.002L-221.962 -372.431L-264.424 -421.585L-240.438 -445.572C-229.441 -436.548 -218.244 -427.479 -207.364 -418.668L-207.345 -418.652L-205.935 -417.51C-179.157 -395.828 -151.466 -373.406 -125.007 -350.363C-82.7179 -313.532 -38.7162 -288.971 14.4167 -260.685C85.5765 -222.807 157.164 -181.022 226.4 -140.608L226.575 -140.506L234.002 -136.172L234.003 -136.171L234.004 -136.171L234.005 -136.17L234.005 -136.17C243.435 -130.667 252.862 -125.165 262.29 -119.675C278.366 -110.316 293.067 -98.8827 307.227 -84.7197C322.954 -68.9928 338.058 -49.7192 353.403 -25.7964C368.947 -1.56689 386.533 20.6129 404.261 38.3408L406.004 40.0718C407.355 41.3988 408.701 42.7349 410.034 44.068C472.96 106.994 517.18 175.2 545.215 252.586L546.524 256.206C552.163 271.826 557.994 287.975 566.721 303.058C578.157 322.815 590.926 343.41 606.814 360.172C667.39 424.103 711.079 485.285 740.374 547.221C765.05 599.385 798.414 646.116 842.38 690.077C864.487 712.187 889.715 733.863 917.352 754.512C950.064 778.948 984.575 801.439 1017.96 823.192L1018.22 823.362L1020.84 825.076C1031.32 831.905 1041.79 838.734 1052.21 845.633C1072.66 859.171 1089.86 873.006 1104.79 887.931C1116.66 899.804 1127.25 912.616 1136.28 926.004C1148.84 944.644 1154.2 953.501 1152.88 960.155C1151.84 965.405 1146.34 970.002 1134.52 977.928C1130.77 973.221 1127.02 968.505 1123.29 963.79C1114.33 952.49 1105.06 940.808 1095.76 929.436C1087.25 919.044 1078.08 908.96 1067.73 898.599C1041.61 872.486 1012.42 849.356 984.181 826.988C973.158 818.258 961.764 809.233 950.71 800.15L947.297 797.347L947.242 797.302C887.986 748.633 826.717 698.309 768.703 646.067C765.794 643.45 762.882 640.683 760.049 637.847C733.645 611.446 714.073 579.358 694.702 546.037C670.151 503.809 642.802 461.627 616.356 420.841C601.776 398.355 586.702 375.103 572.272 352.116C556.837 327.534 545.74 307.453 537.359 288.92C523.239 257.715 502.559 228.727 474.135 200.304C466.252 192.421 457.576 184.404 448.354 176.481C441.29 170.411 434.358 163.979 427.741 157.363C402.749 132.374 380.663 103.362 358.234 66.0564C324.499 9.94812 294.697 -33.1451 264.452 -69.5637C258.181 -77.1129 251.594 -84.3462 244.874 -91.0693C202.288 -133.655 152.434 -158.58 96.702 -165.149L86.0432 -166.391L86.037 -166.391C59.8444 -169.428 32.7593 -172.568 5.81683 -178.531C-37.6716 -188.154 -75.612 -208.925 -106.948 -240.263ZM184.378 -677.143C189.264 -674.556 194.525 -670.461 200.012 -664.974C202.649 -662.341 205.347 -659.375 208.032 -656.16C210.624 -653.051 213.297 -650.121 215.977 -647.443C229.766 -633.66 244.878 -625.179 263.522 -620.757C318.144 -607.806 359.204 -586.158 392.742 -552.636C396.423 -548.96 400.061 -545.078 403.56 -541.11C407.769 -536.333 412.178 -531.635 416.666 -527.152C446.214 -497.615 481.363 -474.375 530.629 -451.803C565.753 -435.703 602.717 -417.325 634.565 -385.496C635.76 -384.298 636.953 -383.081 638.133 -381.847C642.916 -376.845 647.832 -371.822 652.733 -366.921C669.259 -350.403 686.468 -334.454 703.877 -319.519C721.829 -304.114 735.937 -291.199 748.266 -278.872C789.33 -237.828 813.761 -199.577 825.159 -158.494C835.819 -120.058 854.53 -85.6682 882.36 -53.3655C898.209 -34.9666 907.328 -15.6971 910.232 5.54395C914.168 34.3131 919.415 63.8527 924.491 92.4187L924.613 93.095C931.765 133.384 951.863 169.581 986.053 203.753C996.365 214.062 1008.2 224.378 1021.23 234.411C1040.8 249.477 1060.35 265.331 1079.27 280.664L1080.52 281.677C1092.35 291.27 1104.56 301.16 1116.65 310.752C1129.47 320.931 1141.06 329.403 1152.08 336.649C1154.82 338.447 1158.16 339.082 1161.7 339.754L1161.72 339.758C1162.82 339.964 1163.95 340.177 1165.07 340.428L1165.83 338.842C1163.17 335.781 1160.55 332.672 1157.94 329.561C1152.17 322.691 1146.2 315.587 1139.82 309.208C1139.38 308.766 1138.93 308.326 1138.48 307.889C1134.06 303.576 1129.67 299.245 1125.31 294.886C1074.36 243.969 1030.86 193.091 992.304 139.347C968.016 105.491 956.946 79.3094 955.286 51.8081C953.562 23.2786 949.323 -1.41113 942.325 -23.6833C928.67 -67.1479 905.811 -111.477 872.443 -159.203C863.26 -172.337 853.428 -185.498 843.915 -198.224C829.543 -217.458 814.686 -237.343 801.732 -257.592C785.476 -283 768.877 -303.859 749.492 -323.235L747.729 -324.988C733.348 -339.362 718.953 -357.051 702.417 -380.664C684.207 -406.661 664.306 -430.51 643.262 -451.545C619.626 -475.167 593.535 -496.259 565.711 -514.237C547.319 -526.121 530.355 -539.639 516.658 -553.328C514.901 -555.084 513.174 -556.867 511.49 -558.663C493.04 -578.351 478.677 -593.259 464.934 -606.999C438.764 -633.154 414.594 -655.128 391.043 -674.177C373.979 -687.974 360.855 -699.579 349.736 -710.695C317.449 -742.965 299.056 -774.327 291.849 -809.39C287.785 -829.173 275.758 -850.62 264.125 -871.364L264.111 -871.39L263.937 -871.7L263.932 -871.708C261.51 -876.026 259.101 -880.321 256.779 -884.569C252.377 -892.649 245.381 -900.362 238.613 -907.824L238.612 -907.825L238.596 -907.842L238.538 -907.906L238.533 -907.912C235.967 -910.738 233.332 -913.642 230.834 -916.572L217.934 -903.681C220.049 -898.795 222.443 -893.802 224.768 -888.961L224.805 -888.885C230.374 -877.261 236.131 -865.244 238.557 -853.725C250.31 -797.983 277.508 -749.404 321.724 -705.208C337.413 -689.527 355.714 -673.988 376.122 -659.023C412.747 -632.163 447.617 -600.475 481.338 -569.831L481.339 -569.83L481.343 -569.827L481.411 -569.764C493.971 -558.348 506.965 -546.543 519.838 -535.171C544.727 -513.196 568.84 -490.509 595.525 -465.258C596.199 -464.621 596.864 -463.975 597.519 -463.32C602.074 -458.764 606.219 -453.82 610.598 -448.585L610.809 -448.333C613.073 -445.631 615.39 -442.865 617.841 -440.071L620.272 -437.302L616.682 -436.477C615.192 -436.134 614.082 -435.791 613.241 -435.53C611.536 -435.005 610.185 -434.59 608.874 -435.524C589.795 -449.128 569.01 -459.857 548.914 -470.231L548.9 -470.238L548.853 -470.263C518.37 -486.003 486.851 -502.279 460.06 -529.06C454.889 -534.228 449.958 -539.73 445.403 -545.411C442.05 -549.594 438.403 -553.658 434.564 -557.495C418.927 -573.128 399.151 -586.046 374.119 -596.996C363.856 -601.485 353.882 -608.81 344.241 -615.895L344.05 -616.035C338.996 -619.743 333.779 -623.572 328.598 -626.923C325.445 -628.968 322.28 -631.118 319.109 -633.278C309.671 -639.699 299.915 -646.335 290.326 -649.978C266.484 -659.038 245.627 -672.699 226.567 -691.744C210.599 -707.711 195.852 -727.611 181.483 -752.589C173.608 -766.277 167.551 -780.703 161.698 -794.649C158.481 -802.311 155.155 -810.23 151.571 -817.922C150.16 -820.956 147.842 -823.886 145.381 -826.994C144.765 -827.771 144.149 -828.55 143.548 -829.33L99.3257 -785.128C108.921 -752.704 123.435 -727.086 143.676 -706.855C155.195 -695.342 168.89 -685.344 184.378 -677.143ZM381.695 -741.931C340.613 -782.996 306.799 -828.258 278.322 -880.306C271.491 -892.789 264.082 -905.345 256.917 -917.487L256.908 -917.502L256.888 -917.535C253.855 -922.673 250.822 -927.814 247.826 -932.964L265.191 -950.322C270.584 -944.888 275.981 -939.458 281.379 -934.027L281.441 -933.965C283.613 -931.779 285.785 -929.593 287.958 -927.407L288.191 -927.172C306.055 -909.204 324.519 -890.632 342.599 -872.282C384.318 -829.928 408.718 -789.078 417.198 -747.388C425.586 -706.147 445.669 -670.098 478.596 -637.187C493.217 -622.569 510.043 -608.861 530.022 -595.284C554.893 -578.382 580.369 -561.643 605.014 -545.45L605.015 -545.449L605.016 -545.448L605.017 -545.447L605.026 -545.442L605.31 -545.255L605.561 -545.09C640.818 -521.923 677.266 -497.974 712.506 -473.182C730.831 -460.29 749.945 -443.821 770.939 -422.836C775.532 -418.242 780.162 -413.496 785.086 -408.325C796.734 -396.093 804.96 -380.125 812.915 -364.684L812.915 -364.683L812.923 -364.668L815.491 -359.694C821.344 -348.421 826.712 -336.785 831.904 -325.529L831.908 -325.519L831.915 -325.504L831.922 -325.49L831.979 -325.367C839.275 -309.552 846.818 -293.2 855.854 -277.543C863.529 -264.254 874.139 -251.678 884.404 -239.515L884.92 -238.903C888.721 -234.394 892.637 -229.748 896.32 -225.146C901.077 -219.21 906.087 -213.283 910.938 -207.545L911.087 -207.369C919.791 -197.079 928.792 -186.436 936.54 -175.481C947.691 -159.713 958.566 -143.426 969.082 -127.673L969.099 -127.648C983.739 -105.724 998.877 -83.0552 1015.02 -61.4019C1051.73 -12.1462 1074.46 38.554 1082.57 89.2905C1091.7 146.406 1122.19 200.214 1175.78 253.781C1179.23 257.226 1182.83 260.731 1186.49 264.196C1188.94 266.518 1191.34 268.852 1193.69 271.2C1216.96 294.455 1231.62 316.071 1239.83 339.225C1249.6 366.768 1269.29 390.23 1288.33 412.92L1288.33 412.921L1288.36 412.949L1288.5 413.126L1288.52 413.14L1288.54 413.164C1293.53 419.112 1298.69 425.256 1303.58 431.379C1311.15 440.856 1319.18 449.851 1327.44 458.108C1391.57 522.214 1466.21 539.982 1538.39 557.167L1538.4 557.169C1541.71 557.959 1544.98 558.383 1549.47 558.966L1549.48 558.966L1549.66 558.99C1551.07 559.172 1552.61 559.372 1554.33 559.606C1550.27 563.423 1546.68 567.525 1543.19 571.521L1543.17 571.55L1543.16 571.553C1530.62 585.912 1519.79 598.312 1492.95 591.027C1483.25 588.392 1473.69 588.235 1464.44 588.083C1460.77 588.019 1456.97 587.959 1453.26 587.737C1398.98 584.517 1351.5 562.932 1312.14 523.584C1295.93 507.388 1280.99 487.997 1267.72 465.944C1253.2 441.818 1240.77 416.266 1230.77 389.998C1217.86 356.095 1196.61 325.069 1163.87 292.352C1159.93 288.41 1155.71 284.331 1151.34 280.238C1148.49 277.579 1145.6 274.775 1142.73 271.91C1127.76 256.953 1112.8 239.643 1094.21 215.79C1088.59 208.583 1085.26 200.138 1081.73 191.191L1081.69 191.079L1081.69 191.076C1080.02 186.864 1078.31 182.511 1076.33 178.343C1073.67 172.71 1071.15 166.881 1068.71 161.245C1062.98 147.999 1057.06 134.297 1048.71 121.795C1021.43 80.9177 1004.27 40.6266 996.257 -1.37622C982.434 -73.7621 944.67 -146.306 884.027 -216.992C840.656 -267.544 796.374 -322.134 773.152 -384.776C767.648 -399.627 759.02 -412.995 747.513 -424.496C739.529 -432.478 730.108 -439.597 719.51 -445.66C705.112 -453.901 690.512 -462.481 676.378 -470.787L676.355 -470.801L676.294 -470.837L676.288 -470.84L675.981 -471.021C643.569 -490.073 610.052 -509.771 576.563 -526.792C550.991 -539.783 528.501 -556.158 507.805 -576.846C493.494 -591.148 480.315 -607.229 467.512 -626.001C461.42 -634.937 455.38 -644.1 449.526 -652.982L449.509 -653.008L449.508 -653.009L449.042 -653.717L448.987 -653.8C439.963 -667.494 430.633 -681.651 420.904 -695.328C411.326 -708.793 400.755 -722.956 388.396 -735.313C387.901 -735.807 387.406 -736.296 386.905 -736.788C385.153 -738.493 383.417 -740.208 381.695 -741.931ZM302.711 -954.427C303.909 -953.231 305.114 -952.047 306.331 -950.875C310.992 -946.397 315.604 -941.877 320.037 -937.442C388.998 -868.458 434.676 -799.653 459.689 -727.102C468.431 -701.743 484.283 -677.464 506.799 -654.937C517.389 -644.346 529.342 -634.304 542.32 -625.097C561.021 -611.834 580.345 -598.915 599.034 -586.423C626.45 -568.094 654.795 -549.143 681.726 -528.741C718.512 -500.865 749.37 -474.337 776.058 -447.638C822.646 -401.033 857.411 -353.016 882.34 -300.849C909.346 -244.332 947.92 -190.14 993.886 -144.142C1032.98 -105.025 1059.66 -62.7328 1077.86 -11.0425C1099.82 51.324 1135.32 109.981 1183.34 163.304C1188.84 169.401 1194.35 175.456 1199.86 181.499L1200.11 181.776C1229.41 213.926 1259.71 247.172 1283.98 284.841C1292.14 297.502 1302.78 310.434 1315.63 323.281C1325.88 333.538 1337.46 343.592 1349.13 352.359C1420.02 405.632 1496.98 445.885 1571.41 484.812L1571.45 484.836L1572.67 485.471L1572.82 485.552L1572.88 485.582L1572.94 485.612C1582.27 490.496 1591.6 495.377 1600.92 500.284C1604.68 502.263 1610.92 501.996 1612.67 500.357C1627.35 486.55 1641.66 472.146 1656.81 456.901L1656.83 456.879L1656.85 456.862L1656.94 456.762C1661.15 452.531 1665.43 448.217 1669.83 443.816C1665.28 441.692 1660.93 439.514 1656.7 437.392L1656.68 437.384L1656.35 437.216L1656.3 437.192C1645.88 431.967 1636.04 427.034 1626.8 424.837C1593.57 416.932 1558.93 410.187 1523.84 404.778C1473.9 397.085 1431.7 377.897 1394.83 346.118C1385.24 337.849 1375.8 329.082 1366.79 320.063C1330.02 283.287 1298.53 240.84 1273.17 193.9C1249.25 149.605 1220.41 110.867 1185.03 75.4661C1177.65 68.0835 1169.84 60.71 1161.82 53.546C1156.22 48.5433 1150.77 43.4041 1145.64 38.2649C1113.6 6.21191 1090.39 -28.8069 1076.66 -65.817C1073.11 -75.3883 1066.42 -85.172 1059.96 -94.634L1059.93 -94.675L1059.92 -94.6791C1058.15 -97.2747 1056.38 -99.8611 1054.68 -102.432C1041.1 -123.005 1027.13 -143.849 1013.59 -164.068L1012.15 -166.204L1012.13 -166.237C984.051 -208.131 955.014 -251.453 927.826 -294.586C895.081 -346.535 864.794 -385.77 832.517 -418.056C824.946 -425.633 817.126 -432.949 809.285 -439.807C755.12 -487.15 704.454 -528.753 654.385 -566.995C619.805 -593.402 587.64 -621.43 558.788 -650.295C503.033 -706.072 456.609 -768.086 420.799 -834.614C414.518 -846.289 404.899 -857.515 395.595 -868.37L395.116 -868.93L395.112 -868.935C392.149 -872.398 389.102 -875.96 386.219 -879.487C376.821 -890.964 367.105 -902.536 357.704 -913.725L357.479 -913.993L357.473 -914.001C346.86 -926.646 335.894 -939.713 325.32 -952.721C318.895 -960.621 312.953 -968.988 307.202 -977.088L307.098 -977.233C304.944 -980.272 302.789 -983.304 300.611 -986.322L286.076 -971.781C287.641 -970.144 289.199 -968.498 290.758 -966.85L290.76 -966.849L290.761 -966.847L290.762 -966.846L291.45 -966.12L291.56 -966.003L291.562 -966.001L291.567 -965.996L291.569 -965.994C295.194 -962.16 298.938 -958.201 302.711 -954.427ZM-403.685 -66.8824C-410.627 -76.906 -417.813 -87.2664 -425.101 -97.2201C-441.37 -119.428 -457.542 -142.209 -473.179 -164.241C-479.833 -173.618 -486.49 -182.995 -493.174 -192.357L-467.187 -218.322C-458.143 -206.453 -449.139 -194.56 -440.134 -182.664L-440.116 -182.639L-440.111 -182.633C-415.759 -150.469 -390.578 -117.211 -364.952 -85.0238C-362.301 -81.6947 -359.328 -78.3929 -355.862 -74.9304C-348.316 -67.3893 -339.751 -60.4369 -331.467 -53.7151C-329.411 -52.046 -327.364 -50.3829 -325.344 -48.723C-317.755 -42.4807 -311.241 -36.6238 -305.422 -30.8124C-287.884 -13.2902 -276.431 4.11365 -269.37 23.9513C-263.354 40.8575 -253.323 57.3873 -242.533 68.1696C-241.944 68.7583 -241.355 69.3289 -240.757 69.8872C-236.526 73.8444 -232.247 77.9807 -228.044 82.1837C-189.159 121.04 -156.776 165.121 -125.465 207.752L-124.72 208.768C-119.723 215.57 -114.726 222.374 -109.698 229.162C-85.7332 261.502 -58.5313 292.763 -26.5433 324.73C-3.07086 348.182 23.0377 372.059 53.2795 397.72C59.7238 403.185 66.147 409.13 72.9133 415.895C88.6429 431.616 103.554 449.159 117.975 466.127L117.977 466.129L117.997 466.152C125.316 474.764 132.887 483.671 140.464 492.223C151.221 504.361 162.506 516.345 174.01 527.841C216.897 570.696 266.056 609.962 320.123 644.56C328.159 649.699 336.404 654.788 344.386 659.714L344.619 659.858L344.621 659.859L344.628 659.864C365.188 672.547 386.446 685.661 405.947 700.799C414.256 707.244 422.695 714.852 433.315 725.465C437.868 730.014 442.45 734.739 446.881 739.312L447.261 739.704L447.307 739.751C451.626 744.205 456.081 748.799 460.529 753.244C463.77 756.482 466.713 759.35 469.531 762.014C500.11 790.944 530.761 819.348 567.381 853.1C575.62 860.696 584.114 868.273 592.335 875.605C606.518 888.257 621.186 901.348 634.943 914.874L635.241 915.171C641.032 920.958 645.661 928.235 651.018 936.663C653.019 939.816 655.072 943.039 657.326 946.428C655.622 946.137 654.113 945.912 652.776 945.715C648.701 945.111 646.241 944.744 644.397 943.515C627.834 932.496 610.502 922.576 593.738 912.983L593.659 912.938C561.34 894.434 527.926 875.303 498.877 847.559C496.101 844.906 493.34 842.196 490.595 839.45C486.935 835.793 483.3 832.085 479.659 828.364C476.003 824.629 472.346 820.896 468.662 817.215C457.514 806.075 444.16 793.414 429.665 783.976C385.077 754.953 347.407 718.573 306.28 677.474L294.306 665.499C290.16 661.36 286.009 657.221 281.836 653.088C271.143 642.49 259.032 633.007 247.318 623.839C235.556 614.632 223.396 605.112 212.843 594.567C211.631 593.356 210.438 592.127 209.259 590.88C187.758 568.074 166.901 543.967 146.729 520.652L146.725 520.647L146.592 520.494L146.497 520.383C126 496.693 104.81 472.2 82.9048 449.021C70.7176 436.124 58.1112 422.786 45.1587 409.843C20.6324 385.338 -0.0946655 367.41 -20.0776 353.432C-57.5413 327.221 -92.1259 298.116 -125.809 264.461C-159.491 230.804 -191.406 193.411 -223.379 150.145C-261.809 98.137 -301.677 51.5608 -345.267 7.74927C-367.337 -14.4352 -385.805 -41.0831 -403.665 -66.8539L-403.685 -66.8824ZM1259.25 813.016C1241.88 797.615 1225.48 783.063 1209.35 767.581C1177.79 737.276 1145.3 714.187 1110.01 696.987C1077.33 681.062 1045.35 663.304 1009.93 643.418C1005.42 640.888 1001.41 637.152 998.086 633.828C996.763 632.502 995.449 631.144 994.138 629.785L994.128 629.775C992.844 628.443 991.561 627.113 990.268 625.821C989.603 625.16 988.936 624.502 988.262 623.862C981.268 617.211 974.259 610.342 967.457 603.674L966.489 602.726C951.748 588.265 936.501 573.316 920.707 559.765C903.927 545.374 889.775 532.387 877.444 520.064C830.326 472.976 803.045 428.365 791.585 379.67C784.723 350.512 769.035 322.764 746.203 299.417C726.54 279.306 715.323 256.492 711.918 229.682C710.382 217.586 708.458 205.196 706.598 193.215L706.598 193.212L706.597 193.208C704.78 181.483 702.901 169.364 701.377 157.499C695.568 112.234 674.782 72.2877 637.841 35.3716C628.423 25.9606 617.792 16.6345 606.238 7.64807C587.88 -6.63135 569.55 -21.6753 551.817 -36.2288L551.805 -36.239L551.718 -36.3104L551.623 -36.3884L551.608 -36.4001C535.557 -49.5713 518.961 -63.1901 502.412 -76.1897C492.615 -83.8781 481.941 -90.6383 471.62 -97.1711L471.323 -97.3593C467.361 -99.8689 463.292 -102.447 459.282 -105.072L457.826 -102.312C458.44 -101.329 459.038 -100.333 459.636 -99.3358L459.941 -98.827C461.953 -95.4606 463.856 -92.2821 466.272 -89.4554C472.612 -82.0371 478.372 -75.386 484.658 -69.1049C486.048 -67.7189 487.456 -66.3541 488.891 -65.0227C497.535 -56.9825 506.169 -48.6572 514.555 -40.2775C559.94 5.07617 602.499 56.5684 641.039 112.761C657.192 136.309 665.219 156.474 666.299 176.237C670.063 244.816 689.113 304.33 724.531 358.176C766.231 421.581 809.255 483.443 845.841 535.59C848.138 538.859 850.952 542.129 854.697 545.871C857.784 548.956 861.162 552.014 864.432 554.974L864.488 555.024C867.844 558.06 871.313 561.199 874.552 564.435C876.033 565.916 877.353 567.302 878.588 568.675C879.46 569.64 880.338 570.609 881.218 571.579C881.97 572.408 882.724 573.238 883.477 574.068L883.485 574.076C894.253 585.932 905.388 598.191 913.505 611.351C930.319 638.629 950.595 664.196 973.764 687.349C997.776 711.345 1025.59 733.442 1056.45 753.032C1073.31 763.738 1088.55 776.103 1104.41 791.953C1107.89 795.425 1111.4 799.059 1115.13 803.062C1124.76 813.368 1135.44 824.38 1147.78 836.718C1159.8 848.725 1172.25 860.852 1184.3 872.588L1184.48 872.767L1185.98 874.23C1194.86 882.876 1203.98 891.771 1213 900.678C1214.51 899.168 1215.84 897.852 1217.04 896.666C1220.35 893.384 1222.54 891.216 1224.68 888.932C1225.46 888.094 1226.13 887.069 1226.98 885.771L1226.98 885.762L1227.18 885.468L1227.39 885.15C1220.92 879.479 1214.45 873.816 1207.99 868.16L1207.84 868.023L1207.83 868.013C1156.13 822.744 1102.67 775.937 1053.16 726.458C1039.22 712.528 1025.86 698.652 1013.46 685.211L1008.89 680.264L1015.5 681.562C1025.52 683.536 1033.91 688.172 1042.02 692.657L1042.03 692.659L1042.92 693.154C1047.5 695.679 1052.14 698.464 1056.62 701.154L1056.63 701.16L1056.68 701.185C1066.83 707.281 1077.33 713.577 1087.59 717.201C1112.32 725.936 1133.5 739.329 1152.33 758.148C1154.88 760.693 1157.41 763.377 1159.88 766.125C1164.05 770.786 1168.33 775.305 1172.59 779.566C1195.39 802.346 1219.97 819.913 1247.74 833.263C1260.73 839.505 1269.36 841.41 1274.89 839.26C1277.61 838.207 1279.72 836.054 1281.33 832.696C1273.91 826.03 1266.55 819.497 1259.25 813.016ZM888.884 839.275C909.423 859.829 929.107 882.473 947.386 906.58C973.087 940.473 998.694 973.319 1025.81 1008.09C1037.17 1022.67 1048.6 1037.33 1060.08 1052.12L1027.79 1084.43C1020.52 1058.49 1003.08 1039.42 985.765 1022.09C983.756 1020.08 981.732 1018.08 979.711 1016.08C978.896 1015.27 978.083 1014.47 977.269 1013.66C976.071 1012.47 974.875 1011.28 973.682 1010.09C968.168 1004.57 961.739 997.988 955.919 991.037C929.523 959.558 904.61 926.166 880.519 893.876L880.512 893.866L880.323 893.612C868.436 877.683 856.151 861.22 843.83 845.175C827.466 823.865 808.692 802.679 786.441 780.415C769.291 763.253 750.39 745.696 725.163 723.484C709.096 709.34 693.769 694.98 679.605 680.806C662.133 663.327 646.006 645.694 631.665 628.401C617.953 611.861 603.079 595.555 587.47 579.932C549.186 541.621 504.174 505.07 449.862 468.195C407.181 439.214 365.222 410.41 325.151 382.574C322.092 380.449 318.964 377.816 316.115 374.962C313.705 372.551 311.551 370.058 309.715 367.543C297.359 350.667 283.043 334.145 265.945 317.034C242.471 293.544 216.928 272.109 192.222 251.379C186.175 246.307 180.109 240.711 173.676 234.274C161.215 221.804 149.286 208.027 137.741 194.694L137.561 194.486C131.204 187.138 124.629 179.538 118.041 172.247C111.078 164.537 104.545 156.196 98.2302 148.125L97.9265 147.737C95.406 144.517 92.8841 141.295 90.3257 138.101L90.8506 137.178C92.8958 138.238 94.9713 139.243 96.9952 140.221C102.815 143.036 108.316 145.699 113.105 149.555C168.836 194.437 225.284 240.41 279.874 284.871L279.945 284.929L306.562 306.607C308.546 308.221 310.497 310.099 312.386 311.917L312.431 311.96L312.439 311.968C315.401 314.816 318.463 317.762 321.877 319.961C373.212 353.035 419.382 395.467 464.03 436.5C489.54 459.948 515.923 484.191 543.014 506.467C551.455 513.406 559.845 521.073 568.672 529.906C589.452 550.7 608.777 574.219 627.468 596.965L627.499 597.004C630.485 600.642 633.468 604.267 636.441 607.875C662.261 639.148 685.995 665.535 709.002 688.561C741.023 720.602 772.593 747.169 805.512 769.772C834.936 789.974 862.989 813.358 888.884 839.275Z" fill="#FF4133"/>
</g>
</svg>
