<?xml version="1.0" encoding="utf-8"?>
<!-- Generator: Adobe Illustrator 20.1.0, SVG Export Plug-In . SVG Version: 6.00 Build 0)  -->
<svg version="1.1" id="Layer_1" xmlns="http://www.w3.org/2000/svg" xmlns:xlink="http://www.w3.org/1999/xlink" x="0px" y="0px"
	 viewBox="0 0 1440 809.9" style="enable-background:new 0 0 1440 809.9;" xml:space="preserve">
<style type="text/css">
	.st0{fill:#303D78;}
	.st1{clip-path:url(#SVGID_2_);}
	.st2{fill:#3D55CC;}
</style>
<g>
	<g id="Mask_Group_13" transform="translate(9.869 125.423)">
		<g id="pattern_01" transform="translate(0 -278.801)">
			<rect id="Mask-3" x="-9.9" y="153.4" class="st0" width="1440" height="809.9"/>
			<g id="Group_9">
				<defs>
					<rect id="SVGID_1_" x="-9.9" y="153.4" width="1440" height="809.9"/>
				</defs>
				<clipPath id="SVGID_2_">
					<use xlink:href="#SVGID_1_"  style="overflow:visible;"/>
				</clipPath>
				<g id="Mask_Group_15" class="st1">
					<path id="Fill_1" class="st2" d="M719.9,1069.7L719.9,1069.7c-3.4,0-6.8-0.7-9.9-1.9c-3.5-1.5-6.6-3.6-9.3-6.2
						c-3.6-9.3-5.2-18.1-4.7-26.1c0.2-3.5,0.9-7,2-10.3c1-3,2.4-5.8,4.2-8.4c1.5-2.2,3.3-4.2,5.3-6c1.9-1.7,4-3.1,6.3-4.3
						c4.3-2.3,9.1-3.5,14-3.5c3.5,0,6.9,0.6,10.1,2c3.2,1.3,6.1,3.4,8.4,6c5.5,6.2,7.7,15.3,6.4,26.3c-0.3,4.4-1.4,8.8-3.4,12.8
						c-1.8,3.8-4.3,7.3-7.4,10.3c-2.9,2.9-6.4,5.2-10.2,6.9C727.9,1068.9,723.9,1069.7,719.9,1069.7z M861.6,1053.2L861.6,1053.2
						c-4.2,0-8.5-0.8-12.5-2.1c-4.3-0.7-8.4-2.6-11.8-5.4c-3.4-2.9-6.1-6.4-8-10.3c-2.1-4.2-3.5-8.8-4.3-13.4
						c-0.8-4.8-1-9.7-0.6-14.6c0.3-4.2,1.2-8.4,2.5-12.4c1.2-3.8,3-7.3,5.3-10.5c2.1-3,4.9-5.5,8-7.3c3.3-1.8,7-2.8,10.8-2.7
						c2.4,0,4.7,0.3,7,0.9c5.7,0.4,11.2,2.1,16.2,4.9c4.4,2.5,8.2,5.8,11.1,9.9c2.9,4,5,8.4,6.2,13.1c1.3,4.7,1.8,9.6,1.6,14.5
						c-0.2,4.5-1,9-2.5,13.2c-1.4,4.1-3.5,7.9-6.2,11.3c-2.6,3.3-6,6-9.7,7.9C870.5,1052.3,866.1,1053.3,861.6,1053.2L861.6,1053.2z
						 M592.8,993.2L592.8,993.2c-1.1,0-2.2-0.1-3.3-0.2c-5.8-0.6-11.3-2.3-16.4-5c-4.3-2.4-8-5.7-10.9-9.6
						c-2.7-3.8-4.7-8.1-5.9-12.6c-1.2-4.6-1.6-9.3-1.3-14c0.3-4.7,1.2-9.4,2.8-13.8c1.5-4.3,3.7-8.3,6.5-11.9
						c2.6-3.4,5.9-6.3,9.7-8.4c3.8-2.1,8.1-3.2,12.4-3.2c4.7,0.1,9.3,1.2,13.5,3.2c5.5,2.7,10.6,6.2,15,10.4c2.7,2,5,4.5,6.6,7.5
						c1.7,3,2.8,6.2,3.4,9.6c0.6,3.5,0.7,7.1,0.4,10.7c-0.7,7.5-3.1,14.6-6.9,21.1c-1.9,3.1-4.2,6-6.8,8.5c-2.5,2.4-5.4,4.4-8.6,5.8
						C599.7,992.5,596.3,993.2,592.8,993.2z M1393.5,984.2c-3.6,0-7.2-0.5-10.6-1.6c-3.5-1.1-6.9-2.7-9.8-4.9
						c-3.2-2.3-6-5.2-8.1-8.5c-2.5-3.9-4.4-8.1-5.5-12.6c-1.2-3-1.6-6.2-1.1-9.4c0.5-3,1.7-5.9,3.4-8.4c1.7-2.4,3.7-4.5,5.9-6.3
						c2.4-1.9,5-3.5,7.8-4.8c5.6-2.7,11.8-4.1,18-4.2c3.9-0.1,7.8,0.7,11.4,2.3c3.4,1.6,6.3,4.1,8.2,7.4c5.9,6.1,9.8,12.2,11.5,18.2
						c0.8,2.6,1.1,5.4,0.9,8.1c-0.1,2.5-0.7,4.9-1.7,7.2c-1.1,2.7-2.8,5.1-4.8,7.2c-2.1,2.2-4.5,4-7.2,5.5c-2.8,1.5-5.7,2.7-8.8,3.5
						C1400,983.8,1396.8,984.3,1393.5,984.2L1393.5,984.2L1393.5,984.2z M163.6,976.7L163.6,976.7c-5.2,0-10.4-1.2-15.1-3.4
						c-4.8-4.5-8.8-9.9-11.7-15.8c-1.3-2.7-2.3-5.6-2.9-8.6c-0.6-2.8-0.7-5.7-0.3-8.5c0.5-3.7,1.9-7.1,4.1-10.1
						c2.7-3.5,6.1-6.3,10-8.4c4.6-2.6,9-5.6,13-8.9c4-3.2,6.7-5.3,10.2-5.3c3.8,0,8.4,2.5,16.6,8.9c3,2.3,5.7,5.1,7.9,8.2
						c1.9,2.7,3.4,5.7,4.3,8.8c0.9,2.9,1.2,6,1.1,9c-0.1,3-0.7,6-1.7,8.8c-2.6,7.2-7.3,13.4-13.5,17.8c-3.2,2.3-6.6,4.1-10.3,5.4
						C171.6,976.1,167.6,976.7,163.6,976.7L163.6,976.7z M368.8,976L368.8,976c-3.1,0-6.2-0.6-9.1-1.8c-3.3-1.4-6.2-3.4-8.8-5.8
						c-3.3-1.8-6.3-4.2-8.8-6.9c-2.2-2.4-3.9-5.3-5.1-8.3c-2.2-5.9-2.5-12.3-0.8-18.4c1-3.7,2.6-7.3,4.6-10.5
						c2.1-3.3,4.7-6.3,7.7-8.8c3-2.6,6.5-4.6,10.2-6.1c3.9-1.5,7.9-2.3,12.1-2.3c4.6,0,9.1,0.9,13.4,2.6c3.9,0.8,7.6,2.2,11,4.3
						c2.8,1.7,5.2,3.9,7,6.5c1.7,2.4,2.9,5.2,3.5,8.1c0.6,3,0.7,6.1,0.4,9.1c-0.3,2.3-0.7,4.6-1.4,6.9c-0.7,2.3-1.6,4.6-2.7,6.8
						c-2.2,4.5-5.1,8.7-8.5,12.3c-1.7,1.8-3.5,3.5-5.5,5c-1.9,1.5-3.9,2.8-6.1,3.9C377.9,974.8,373.4,975.9,368.8,976L368.8,976z
						 M1218.6,970.8L1218.6,970.8c-3.4,0-6.8-0.5-10.1-1.3c-3.4-0.8-6.7-2.1-9.9-3.6c-2.9-1.4-5.7-3.2-8.1-5.4
						c-2.1-1.8-3.7-4.1-4.7-6.7c-2.8-4.4-4.4-9.4-4.6-14.6c0-2.2,0.2-4.5,0.8-6.7c0.6-2.1,1.4-4.1,2.5-6c1.4-2.5,3.2-4.8,5.2-6.7
						c2.1-2,4.4-3.8,7-5.2c2.6-1.4,5.3-2.6,8.1-3.3c2.8-0.8,5.7-1.2,8.6-1.2c2.5,0,5,0.3,7.5,1c2.5,0.7,4.8,1.7,7,3.1
						c4.9,3.2,8.6,7.9,10.7,13.3c1.7,3.7,3.2,7.4,4.5,11.3c0.9,2.6,1.3,5.3,1.1,8c-0.3,2.5-1.3,5-2.8,7.1c-2.1,3-4.5,5.8-7.2,8.3
						c-0.8,2.9-2.8,5.4-5.5,6.7c-1.5,0.7-3,1.2-4.6,1.5C1222.2,970.6,1220.4,970.8,1218.6,970.8L1218.6,970.8z M-5.1,961L-5.1,961
						c-4.1,0-8.2-0.7-12.1-2c-4.2-1.3-8.2-3.1-11.9-5.3c-3.7-2.2-7.2-4.9-10.3-8c-2.9-2.9-5.4-6.2-7.3-9.8c-2-3.7-3-7.9-2.9-12.1
						c0.2-4.5,1.8-8.8,4.4-12.4c4.2-5.5,9.5-10,15.7-13.1c2.7-1.4,5.6-2.4,8.6-3.1c2.8-0.7,5.7-1,8.6-1c6.8,0,13.4,1.8,19.2,5.2
						c5.6,3.2,10.2,8.1,13.1,13.9c1.3,2.7,2.2,5.7,2.7,8.7c0.5,3.2,0.5,6.5-0.1,9.7c-1.1,7.2-4.5,14.5-10.2,21.7
						c-2.1,2.5-4.8,4.5-7.8,5.7C1.6,960.4-1.7,961.1-5.1,961z M951,958.8L951,958.8c-3.6,0-7.1-0.9-10.3-2.5
						c-4.9-2.4-9.4-5.5-13.4-9.1c-3.3-3-6.2-6.6-8.3-10.6c-1.9-3.4-3.1-7.2-3.7-11.1c-0.5-3.5-0.4-7.1,0.4-10.6
						c0.6-2.7,1.7-5.2,3.1-7.6c1.4-2.3,3.2-4.4,5.4-6.1c4.7-3.7,10.5-5.6,16.4-5.5c3.9,0,7.8,0.7,11.6,2c4.6,1.5,8.9,3.7,13,6.3
						c2.8,1.5,5.2,3.5,7.3,5.9c1.8,2.3,3.3,4.8,4.2,7.6c0.9,2.8,1.4,5.6,1.4,8.6c0,3-0.3,5.9-1.1,8.8c-1.6,6.3-4.8,12-9.4,16.6
						c-2.2,2.2-4.7,3.9-7.5,5.2C957.1,958.1,954.1,958.7,951,958.8L951,958.8z M778.1,953.5L778.1,953.5c-5,0-10.1-0.3-14.9-0.7
						c-3.9-0.3-7.5-0.5-10.7-0.5c-4.1-1.5-8-3.6-11.4-6.2c-2.9-2.2-5.3-5-7.1-8.1c-1.7-2.9-2.8-6.1-3.2-9.3c-0.5-3.3-0.4-6.7,0.2-10
						c1.7-9.4,7.4-18.9,15.6-26.1c4.1-3.6,8.8-6.5,13.9-8.6c5.2-2.1,10.8-3.2,16.4-3.3c4.3,0,8.6,0.7,12.8,2
						c2.2,0.7,4.3,1.6,6.2,2.8c1.7,1.1,3.3,2.5,4.6,4c2.6,3.1,4.5,6.8,5.6,10.7c2.3,8.1,2.4,17.7,2.4,26.2c0,3,0,5.9,0.1,8.6
						c-0.3,3.4-1.5,6.6-3.4,9.3c-1.8,2.4-4.2,4.3-6.9,5.6c-3,1.4-6.1,2.3-9.3,2.7C785.2,953.3,781.7,953.5,778.1,953.5L778.1,953.5z
						 M1061.9,941.5c-7,0.1-13.6-3.1-18-8.5c-4.4-5.6-7-12.5-7.4-19.6c-0.3-4.2,0-8.3,0.9-12.4c0.9-4.1,2.5-8,4.8-11.5
						c2.3-3.6,5.4-6.7,8.9-9c4-2.6,8.5-4.3,13.3-5c2-0.5,4.1-0.8,6.3-0.8c3.2,0,6.4,0.7,9.2,2.1c2.7,1.4,5.1,3.3,7.1,5.6
						c2,2.4,3.7,5.2,4.9,8.1c1.3,3.1,2.1,6.4,2.6,9.7c0.6,4,0.6,8.1,0,12.1c-0.5,4-1.6,7.8-3.3,11.4c-1.6,3.5-3.8,6.7-6.6,9.3
						c-2.9,2.7-6.3,4.6-10.1,5.7C1070.5,940.5,1066.3,941.4,1061.9,941.5L1061.9,941.5z M493.4,928.8c-5.2-0.1-10.3-0.8-15.3-2.1
						c-8.7-4-14.8-9.1-18.3-15.2c-1.5-2.7-2.5-5.7-2.9-8.8c-0.4-3-0.2-6.1,0.5-9.1c1.1-4.5,3-8.8,5.6-12.7c2.8-4,6.1-7.7,9.9-10.8
						c3.8-3.1,7.9-5.6,12.4-7.5c4.2-1.8,8.7-2.7,13.2-2.8c2.8,0,5.6,0.4,8.2,1.3c2.7,0.9,5.2,2.4,7.3,4.3
						c4.8,4.2,8.2,10.5,10.2,18.8c-0.3,1.6-0.7,3.2-1,4.7c-2.5,11.6-4.6,21.6-8.8,28.7c-1.9,3.4-4.7,6.3-8.1,8.2
						C502.3,927.9,497.9,928.9,493.4,928.8L493.4,928.8L493.4,928.8z M1311.8,916.8L1311.8,916.8c-6.6,0-13.2-1.7-19-4.9
						c-5.8-3.2-10.7-7.9-14.2-13.6c-1.9-3.1-3.4-6.5-4.4-10.1c-1.1-3.8-1.6-7.8-1.6-11.8c0-8.9,2.4-18.3,7.3-27.9
						c0.9-3.1,2.6-5.9,4.9-8.2c2.5-2.5,5.4-4.6,8.6-6.1c7-3.4,14.6-5.1,22.3-5.2c5.9,0,11.2,1.1,15.2,3.2c2,1,3.8,2.4,5.2,4.2
						c1.4,1.7,2.4,3.8,2.8,6c2.3,4.2,4,8.6,5.1,13.3c1.1,4.6,1.7,9.3,2.3,13.9v0c0.5,3.7,1,7.6,1.8,11.3c0.7,3.7,1.8,7.4,3.2,10.9
						c-2.4,4.1-5.3,7.9-8.6,11.3c-2.9,3-6.2,5.6-9.8,7.8c-3.3,2-6.8,3.5-10.5,4.5C1319,916.3,1315.4,916.8,1311.8,916.8z
						 M253.5,909.3L253.5,909.3c-4.3,0-8.5-0.8-12.6-2.2c-4.2-1.5-8.2-3.6-11.7-6.2c-3.6-2.6-6.6-5.9-9-9.6
						c-2.4-3.7-3.9-7.9-4.3-12.3c1-6,3-11.8,5.8-17.2c2.5-4.6,5.8-8.6,9.7-12c3.5-3.1,7.6-5.5,11.9-7.1c4-1.5,8.3-2.3,12.7-2.3
						c4.7,0,9.4,1,13.6,3.1c2,1,3.9,2.3,5.6,3.8c1.7,1.5,3.2,3.3,4.4,5.3c1.4,2.3,2.4,4.9,3,7.5c0.7,3,0.9,6.1,0.7,9.2
						c-0.4,7.1-2.9,15-7.3,23.4c-0.6,2.7-1.8,5.2-3.3,7.5c-1.4,2-3.1,3.8-5.2,5.2c-2,1.3-4.2,2.4-6.6,3
						C258.5,909,256,909.3,253.5,909.3z M96,884.5L96,884.5c-6.6,0-13.2-1-19.5-3c-3.1-1-6-2.3-8.8-3.9c-2.7-1.6-5.1-3.5-7.3-5.7
						c-2.4-2.5-4.3-5.5-5.5-8.8c-1.3-3.7-1.9-7.6-1.6-11.5c0.3-3.1,0.3-6.3,0-9.4l0,0c-0.3-3.1-0.3-6.3-0.1-9.5
						c0.3-3.4,1.2-5.8,2.6-7.3c0.7-0.8,1.6-1.4,2.6-1.7c1.2-0.4,2.5-0.7,3.8-0.6c0.3,0,0.6,0,0.9,0c4-2.7,8.3-4.7,12.8-6.2
						c4.5-1.5,9.2-2.5,13.7-3.5l0,0c3.7-0.8,7.5-1.7,11.1-2.7c3.7-1,7.2-2.4,10.6-4.1c4.7,1.2,9.1,3.7,12.6,7
						c3.8,3.5,6.9,7.7,9.2,12.4c2.4,4.8,4.2,10,5.1,15.3c0.5,2.6,0.8,5.3,0.9,8c0.1,2.6,0,5.2-0.3,7.8c-0.9,7.7-3.8,14.2-8.1,18.7
						c-2.4,2.5-5.3,4.4-8.5,5.7c-3.7,1.4-7.7,2.2-11.7,2.1c-1.1,0-2.2,0-3.3-0.1C103.7,884.2,99.9,884.5,96,884.5z M1158.2,878.5
						L1158.2,878.5c-4.5,0-9-0.8-13.2-2.4c-4.3-1.7-8.1-4.3-11.3-7.6c-2.9-3-4.8-7.4-5.5-12.7c-0.3-2.6-0.4-5.3-0.2-7.9
						c0.2-2.7,0.6-5.4,1.3-8.1c1.2-4.7,3.2-9.1,6.1-13.1c1.3-1.8,2.9-3.4,4.7-4.8c1.7-1.3,3.6-2.3,5.7-2.9
						c5.2-1.2,12.9-2.8,20.2-2.8c2.8,0,5.6,0.3,8.3,0.9c2.5,0.5,5,1.6,7.1,3c2.2,1.4,4,3.4,5.3,5.7c1.5,2.8,2.5,5.8,2.8,9
						c2.7,4.4,4.3,9.4,4.5,14.5c0.1,4.3-1,8.6-3.1,12.4c-1.5,2.6-3.5,5-5.7,7c-2.4,2.1-5,3.9-7.8,5.3
						C1171.3,876.9,1164.8,878.5,1158.2,878.5L1158.2,878.5z M646,871.8c-2.2-0.3-4.4-1-6.4-2c-2.1-1.1-4.1-2.5-5.8-4.2
						c-3.9-3.8-7-8.3-9.2-13.2c-1.5-3.3-2.7-6.7-3.6-10.2c-0.9-3.5-1.4-7-1.6-10.6c-0.3-7.5,1.3-14.1,4.5-19c1.9-3.1,4.2-6,6.8-8.4
						c2.5-2.3,5.4-4.3,8.4-5.8c3-1.5,6.2-2.6,9.5-3.4c3.3-0.7,6.7-1.1,10.2-1.1c4.3,0,8.6,0.5,12.8,1.6c4.2,1,8.3,2.5,12.2,4.5
						c3.8,1.9,7.4,4.3,10.6,7.1c3.2,2.7,5.9,5.9,8.2,9.4c3.3,5.1,5.4,10.9,5.9,16.9c0.5,6.9-0.8,13.7-3.7,20
						c-7.5,10.3-22.2,12.2-36.3,14h0c-4,0.5-8,1-11.8,1.7C653,869.5,649.4,870.5,646,871.8z M1023.9,850.8L1023.9,850.8
						c-2.3,0-4.6-0.4-6.8-1.2c-2.2-0.8-4.3-1.9-6.2-3.3c-4-3-7.3-7-9.5-11.5c-1.5-3-2.6-6.2-3.3-9.5c-1.5-7.2-0.9-14.7,1.6-21.6
						c1.4-3.9,3.4-7.5,5.9-10.8c3-2.9,6.5-5.2,10.3-6.8c3.3-1.4,6.9-2.1,10.5-2.1c5.5,0,10.8,1.6,15.4,4.6c4.6,3,8.3,7.1,10.8,12
						c1.2,2.3,2.1,4.8,2.6,7.4c0.5,2.7,0.7,5.4,0.5,8.1c-0.2,2.9-0.9,5.8-2,8.5c-1.2,3-2.8,5.9-4.7,8.5c-3.8,6-8,10.5-12.5,13.5
						C1032.9,849.3,1028.4,850.7,1023.9,850.8L1023.9,850.8z M387.1,846.3L387.1,846.3c-4.2,0-8.3-0.8-12.2-2.4
						c-1.9-0.8-3.7-1.8-5.4-2.9c-1.7-1.2-3.2-2.5-4.6-4c-2.3-2.5-4.1-5.5-5.3-8.8c-1.2-3.6-1.7-7.4-1.3-11.2c-1-1.7-2.1-3.3-3.2-4.9
						c-2.1-3-4-5.9-4.7-8.9c-0.8-3.3,0-6.6,2.5-10.2c2.6-5,6.5-9.2,11.4-12c2.2-1.3,4.6-2.2,7.1-2.8c2.5-0.6,5.1-0.9,7.6-0.9
						c8.2,0.2,16.2,2.6,23.1,7c7.3,4.5,12.9,10.8,15.9,17.5c1.1,2.4,1.8,4.9,2.2,7.5c0.4,2.6,0.4,5.3,0,7.9
						c-0.9,5.7-3.7,11.2-8.3,16.3c-4.3,6.1-10.7,10.4-18,12C391.7,846,389.4,846.3,387.1,846.3L387.1,846.3z M855.4,837.3
						L855.4,837.3c-2.6,0-5.1-0.3-7.6-1c-2.5-0.7-5-1.8-7.2-3.2c-5.1-3.5-9.1-8.3-11.5-14c-0.1-1.2-0.1-2.4,0-3.5l0,0
						c0.1-2.1,0.1-4.3-0.2-6.4c-0.2-2-1-4-2.3-5.5c-2.4-3.7-4-7.9-4.6-12.3c-0.4-3.3,0.2-6.6,1.8-9.5c1.1-1.9,2.5-3.6,4.3-4.9
						c1.9-1.5,3.9-2.6,6.1-3.5c5.1-1.9,10.5-2.9,15.9-2.8c4.4,0,8.7,0.5,12.9,1.6c4.2,1,8.3,2.6,12.1,4.7c8.1,4.6,13.3,11.2,15.1,19
						c1,5,0.8,10.2-0.6,15.1c-0.7,2.3-1.6,4.6-2.7,6.7c-1.1,2.1-2.5,4.1-4,6c-3.4,4.2-7.7,7.6-12.5,10
						C865.8,836,860.7,837.2,855.4,837.3L855.4,837.3z M189.2,820L189.2,820c-1.2,0-2.5-0.2-3.6-0.6c-3.8-1-7.4-2.8-10.6-5.2
						c-2.7-2.1-5-4.8-6.7-7.8c-3.1-5.6-4.1-12.6-3.1-20.2c1.4-9.3,5.4-18.1,11.6-25.1c3-3.4,6.5-6.2,10.5-8.3
						c3.9-2.1,8.2-3.1,12.5-3.2c6.6,0,13.1,2.5,19.4,7.5c3.4,2.1,7.7,6.9,11,12c1.6,2.5,3,5.2,4,8c0.9,2.3,1.3,4.8,1,7.2
						c-2,6.1-4.7,11.9-8.1,17.4c-4.2,6.5-8.7,9.8-13.3,9.8c-1.6,0-3.2-0.4-4.6-1.1c-2.1,1.1-4.1,2.3-6.1,3.7
						C198.8,817,194.2,820,189.2,820z M517.1,813.3c-4.5,0-9.1-0.5-13.5-1.4c-4.5-0.9-8.9-2.2-13.1-3.9c-3.8-1.5-7.4-3.4-10.7-5.8
						c-2.7-1.8-4.8-4.4-6.2-7.3c-2.7-7.9-3.8-15-3.5-21.2c0.2-5.2,1.8-10.2,4.7-14.4c2.5-3.5,5.9-6.2,9.9-7.8c2-0.9,4.1-1.5,6.3-1.9
						c2.2-0.4,4.5-0.6,6.8-0.6c3.3,0,6.6,0.4,9.9,1.2c3.4,0.8,6.6,1.9,9.7,3.4c6.4,3,12,7.5,16.3,13.1c3.5,4.6,5.9,10,6.9,15.7
						c1.1,6.6,0.7,13.4-1.3,19.9c-0.4,1.9-1.4,3.7-2.7,5.1c-1.4,1.5-3.1,2.7-5,3.5c-2.1,0.9-4.4,1.6-6.7,2
						C522.4,813.1,519.8,813.3,517.1,813.3z M1385.1,800.5L1385.1,800.5c-7.2,0-14.4-1.6-20.9-4.7c-6.2-2.9-11.5-7.5-15.3-13.3
						c-3.2-5.1-4.9-10.9-5-16.9c-0.1-6.7,1.6-14,5.1-21.4c3-7.5,7.4-13.3,13.2-17.2c2.7-1.8,5.6-3.1,8.6-4c3.1-0.9,6.2-1.3,9.4-1.3
						c6.7,0.1,13.3,1.7,19.2,4.6c6.3,3,12,7.3,16.6,12.5c2,2.3,3.8,4.7,5.4,7.3c1.6,2.6,2.9,5.4,3.9,8.2c2.1,5.9,2.9,12.3,2.2,18.6
						c-2,4.5-4.7,8.7-7.9,12.3c-3,3.4-6.5,6.2-10.3,8.6C1402,798.3,1393.6,800.6,1385.1,800.5z M0.6,793L0.6,793
						c-3.1,0-6.2-0.5-9.2-1.6c-3.2-1.2-6.2-2.9-8.7-5.2c-4.9-3.6-8.4-8.9-9.8-14.8c-0.6-2.7-0.8-5.5-0.6-8.2
						c0.2-2.8,0.8-5.6,1.8-8.3c1.4-3.9,3.3-7.6,5.7-10.9c2.4-3.4,5.3-6.5,8.5-9.2c3-2.6,6.4-4.7,10.1-6.3c3.3-1.5,6.9-2.3,10.6-2.3
						c5.9,0,14.1,2.5,19.5,14.3c2,2.3,3.6,4.9,4.8,7.7c1.1,2.5,1.8,5.2,2,8c0.2,2.6,0.1,5.3-0.4,7.9c-0.5,2.6-1.3,5.1-2.5,7.5
						c-1.4,3-3.3,5.9-5.5,8.4c-2.2,2.6-4.7,4.8-7.5,6.7c-2.7,1.9-5.7,3.4-8.9,4.5C7.1,792.5,3.9,793,0.6,793L0.6,793z M1236.8,787
						L1236.8,787c-2.9,0-5.8-0.3-8.6-1c-2.8-0.7-5.6-1.7-8.1-3c-5.6-3-10.3-7.5-13.5-13c-3.4-6.3-5.2-13.4-5.2-20.5
						c0.2-6,1.9-11.9,5.1-17c2.1-3.4,4.7-6.5,7.7-9.2c3-2.7,6.4-5,10-6.9c3.6-1.9,7.4-3.3,11.3-4.3c3.8-1,7.7-1.5,11.6-1.5
						c7.6,0,14.3,2.1,19.3,5.9c2.7,2.1,4.9,4.8,6.5,7.8c1.8,3.5,2.9,7.4,3.2,11.3c2.5,5.2,3.6,11,3.2,16.7
						c-0.5,5.2-2.2,10.3-5.1,14.7C1266.5,779,1251.5,787,1236.8,787L1236.8,787z M629.7,766l-49.6-0.9c-9-5.9-12.9-12.2-12.4-19.9
						c0.4-3.7,1.4-7.4,3.1-10.8c1.7-3.7,3.8-7.6,6.1-11.7l0,0l0.1-0.2c0.3-0.6,0.7-1.2,1-1.8c1-3,2.4-5.9,4.1-8.5
						c1.5-2.1,3.3-4,5.4-5.4c3.6-2.5,8-3.7,13.5-3.7c7.6,0,15.8,2.4,23.8,4.7c1.8,0.5,3.6,1,5.3,1.5c2.6,1.1,5,2.7,7.1,4.7
						c2,1.9,3.7,4.1,5.1,6.5c2.7,5,4.2,10.5,4.2,16.2c0,3-0.3,6-1,8.9c-0.7,2.9-1.7,5.7-3.1,8.3c-1.4,2.6-3.2,5-5.2,7.1
						C634.9,763,632.4,764.7,629.7,766L629.7,766z M1105.1,762.3L1105.1,762.3c-4.4-0.1-8.7-0.9-12.7-2.6c-4.2-1.7-8.2-4.1-11.7-7
						c-3.5-2.8-6.6-6.1-9.2-9.8c-2.4-3.4-4.2-7.2-5.2-11.3c-0.5-2.2-0.7-4.5-0.6-6.8c0.2-2.3,0.7-4.5,1.7-6.5
						c2.1-4.4,6-8.1,11.5-10.9c2.9-2.4,6.2-4.3,9.7-5.6c3.2-1.2,6.5-1.7,9.9-1.7c3.8,0,7.6,0.7,11.1,2.1c3.6,1.4,6.9,3.3,9.8,5.7
						c3,2.4,5.6,5.2,7.7,8.4c2.1,3.1,3.7,6.5,4.8,10c0.8,2.8,1.2,5.6,1.2,8.5c0,2.9-0.5,5.8-1.5,8.5c-1.1,2.9-2.6,5.6-4.6,8
						c-2.3,2.7-5.1,5.1-8.2,7C1114.7,760.9,1109.9,762.3,1105.1,762.3L1105.1,762.3z M757.8,762.3L757.8,762.3
						c-3.4,0-6.8-0.7-10-1.8c-3.4-1.2-6.7-2.9-9.6-5c-6.1-4.2-10.9-10-13.8-16.8c-1-2.4-1.6-4.8-2-7.4c-0.3-2.6-0.2-5.1,0.3-7.7
						c1-5.5,4-10.6,8.6-15.2c2.4-2.4,5.4-4.1,8.6-5c3.9-1.2,7.9-1.8,12-1.8c3,0,6,0.3,8.9,1c2.8,0.6,5.6,1.6,8.2,3
						c2.5,1.3,4.6,3.1,6.4,5.3c1.8,2.2,3,4.9,3.6,7.7c0.7,2.5,1.6,5,2.6,7.5c1.3,2.9,2.3,5.9,3.1,9c0.8,3.3,0.7,5.9-0.3,8
						c-0.5,1.1-1.3,2.1-2.3,2.8c-1.2,0.9-2.6,1.7-4.1,2.1c-1.7,4.5-4.7,8.3-8.6,11.1C766,761.2,761.9,762.4,757.8,762.3L757.8,762.3
						z M950.3,760.8c-3.8,0-7.5-0.7-11.1-2c-3.9-1.5-7.5-3.7-10.6-6.4c-2.7-3.5-4.8-7.3-6.3-11.4c-1.5-4-2.4-8.1-2.8-12.4
						c-0.7-8,0.7-16,4.1-23.3c1.1-2.3,2.5-4.4,4.1-6.4c1.5-1.9,3.3-3.6,5.3-5c2-1.4,4.2-2.5,6.5-3.2c2.4-0.8,5-1.2,7.5-1.2
						c6,0,12.5,2.1,19.2,6.1c4.2,2.4,8,5.4,11.4,8.8c2.7,2.8,5,6.1,6.7,9.6c1.4,3.1,2.3,6.5,2.5,9.9c0.2,3.3-0.1,6.5-1,9.7
						c-1.1,3.8-2.7,7.3-5,10.5c-2.3,3.3-5.1,6.2-8.2,8.6C966.2,757.9,958.4,760.7,950.3,760.8L950.3,760.8z M307.9,759.3
						c-6,0-11.8-1.9-16.7-5.3c-7.7-15.3-7.4-35.9,0.6-48.9c2.2-3.7,5.2-6.8,8.8-9.1c3.8-2.3,8.2-3.5,12.6-3.4c6.1,0,12.9,2,20.1,6
						c2.6,2.1,4.9,4.7,6.7,7.5c1.6,2.6,2.8,5.5,3.4,8.5c1.2,6,0.7,12.3-1.5,18c-2.7,7.3-7.3,13.8-13.3,18.8c-3,2.4-6.3,4.4-9.8,5.8
						C315.4,758.5,311.7,759.3,307.9,759.3L307.9,759.3L307.9,759.3z M70.9,732.3c-6,0-11.8-1.9-16.7-5.3
						c-7.7-15.3-7.4-35.8,0.6-48.9c2.2-3.7,5.2-6.8,8.8-9.1c3.8-2.3,8.2-3.5,12.6-3.4c6.1,0,12.9,2,20.1,6c2.6,2.1,4.9,4.7,6.7,7.5
						c1.6,2.6,2.8,5.5,3.4,8.5c1.2,6,0.7,12.3-1.5,18c-2.7,7.3-7.3,13.8-13.3,18.8c-3,2.4-6.3,4.4-9.8,5.8
						C78.4,731.5,74.7,732.3,70.9,732.3L70.9,732.3L70.9,732.3z M437.9,731.5L437.9,731.5c-1.4,0-2.9-0.1-4.3-0.3
						c-5.1-0.7-10-2.3-14.6-4.7c-4.1-2.2-7.8-5-11-8.4c-2.9-3.1-5.2-6.8-6.9-10.7c-1.5-3.7-2.3-7.6-2.3-11.6c0-3.2,0.7-6.3,1.9-9.2
						c1.3-3,3.2-5.8,5.5-8.1c2.7-2.6,6-4.7,9.5-6.2c4.4-1.8,9-3,13.6-3.5c1.4-0.2,2.9-0.3,4.3-0.3c8.1-0.1,15.8,3.6,21,9.8
						c2.5,3,4.5,6.4,5.9,10.1c1.4,3.7,2.3,7.6,2.7,11.6c0.8,9.6-1.8,18.3-7.1,24.1c-2.1,2.3-4.8,4.2-7.7,5.4
						C445.1,730.9,441.5,731.6,437.9,731.5L437.9,731.5z M1313.1,692.5L1313.1,692.5c-4.5,0-8.9-0.9-13-2.6c-4-1.2-7.8-3-11.3-5.3
						c-2.8-1.9-5.2-4.4-7.1-7.2c-1.7-2.6-2.8-5.5-3.3-8.5c-0.5-3-0.6-6.1-0.1-9.2c0.4-2.3,0.9-4.5,1.7-6.7c0.8-2.2,1.8-4.4,3-6.5
						c2.4-4.3,5.5-8.2,9-11.6c1.8-1.7,3.7-3.3,5.7-4.7c2-1.4,4.1-2.6,6.3-3.6c4.2-2,8.8-3.1,13.5-3.1c4.4,0,8.8,1.1,12.7,3.2
						c4.6,2.6,8.6,6.2,11.7,10.5c2.1,2.4,3.8,5.1,5,8.1c1.2,2.7,1.9,5.6,2.2,8.5c0.5,5.8-0.5,11.6-3,16.8c-1.4,3.1-3.3,6-5.5,8.6
						c-2.2,2.6-4.8,5-7.6,7C1327,690.3,1320.1,692.5,1313.1,692.5L1313.1,692.5z M843.5,691.8L843.5,691.8c-3.7,0-7.5-0.3-11.2-1
						c-3.6-0.7-7.2-1.6-10.6-2.9c-3.4-1.2-6.6-2.8-9.7-4.6c-3-1.7-5.8-3.7-8.3-6c-4.9-5.5-8-11.2-9.1-16.7c-1-5-0.5-10.2,1.7-14.9
						c1.8-3.8,4.2-7.2,7.3-10c3.3-3.1,7-5.7,10.9-7.7c4.2-2.2,8.6-3.8,13.2-5c4.5-1.2,9.2-1.7,13.9-1.8c8.4,0,15.9,2.1,21.5,5.9
						c3,2.1,5.6,4.8,7.5,7.9c2.1,3.5,3.5,7.5,4.1,11.6c0.8,4,2.9,7.6,4.9,11.1c2.2,3.9,4.3,7.5,4.5,11.3c0.1,2-0.3,3.9-1.3,5.7
						c-1.4,2.3-3.2,4.3-5.4,5.9C867.7,688,855.7,691.9,843.5,691.8L843.5,691.8z M171.7,688.8L171.7,688.8c-3.6,0-7.2-0.5-10.7-1.4
						c-3.5-0.9-7-2.2-10.2-3.9c-3.2-1.7-6.2-3.8-8.8-6.2c-2.6-2.4-4.8-5.1-6.6-8.2c-2.5-4.4-3.8-9.5-3.6-14.6
						c0.4-6.1,2.3-12,5.6-17.2c3.5-5.4,6.1-9.3,8.2-11.5c2.1-2.2,3.9-3,6.5-3c2.7,0.2,5.3,0.5,7.9,1.2c2.2,0.4,4.8,1,7.9,1.5
						c2.7,1,5.6,1.9,8.3,2.7c6.3,1.9,12.2,3.7,16.7,7.1c2.3,1.7,4.1,3.9,5.4,6.4c1.4,3.1,2.2,6.5,2.1,9.9c0.8,5.6,0.5,11.3-0.8,16.9
						c-1,4.3-3.1,8.2-5.9,11.5c-2.7,3-6.1,5.3-9.9,6.8C180,688.1,175.9,688.8,171.7,688.8L171.7,688.8z M682.9,674.5L682.9,674.5
						c-3,0-6-0.3-9-0.8c-2.9-0.5-5.7-1.3-8.5-2.5c-5.5-2.2-10.2-5.8-13.8-10.5c-4.4-5.9-7-13-7.5-20.3c-0.2-3.3,0.1-6.6,0.9-9.9
						c0.8-3.2,1.9-6.3,3.4-9.2c1.9-3.7,4.3-7.2,7.2-10.2c2.9-3.1,6.1-5.8,9.6-8.1c3.5-2.3,7.2-4.1,11.2-5.3
						c3.8-1.2,7.9-1.9,11.9-1.9c3.3,0,6.7,0.5,9.9,1.5c3.3,1,6.5,2.6,9.3,4.7c6.2,4.6,11.1,11.4,14.6,20.5c7.8,9.7,9.5,19.7,5.1,29
						c-1.8,3.6-4.2,6.8-7.1,9.4c-3.2,2.9-6.8,5.4-10.6,7.3C701.2,672.3,692.1,674.5,682.9,674.5L682.9,674.5z M535.1,673L535.1,673
						c-2.8,0-5.7-0.2-8.5-0.7c-2.7-0.5-5.4-1.3-7.9-2.3c-5-2-9.4-5.4-12.7-9.7c-2.2-3.8-3.7-8-4.5-12.3c-1-4.9-1.4-9.9-1.3-14.9
						c0.1-5.2,0.8-10.4,2.1-15.5c1.2-4.9,3.1-9.7,5.5-14.2c2.6-4.8,6.2-8.9,10.7-12c4.6-3.1,10-4.7,15.5-4.7c1.3,0,2.7,0.1,4,0.3
						c3.1,0.6,6.3,0.9,9.4,0.8c3.2,0,6.5,0.2,9.7,0.7c3.4,0.6,5.7,1.7,7.1,3.4c0.7,0.9,1.2,1.9,1.5,3c0.3,1.4,0.3,2.9,0.1,4.3
						c2.3,4.2,4,8.6,5.1,13.3c1.1,4.6,1.7,9.3,2.3,13.9v0c0.5,3.7,1,7.6,1.8,11.3c0.7,3.7,1.8,7.4,3.2,10.9c-1.4,3.8-3.7,7.2-6.5,10
						c-3,3.1-6.5,5.7-10.3,7.7c-4,2.2-8.3,3.8-12.7,4.9C544.2,672.5,539.7,673,535.1,673L535.1,673z M1168.7,667L1168.7,667
						c-2.8,0-5.5-0.6-8-1.8c-2.5-1.2-4.7-2.8-6.5-4.9c-1.9-2.2-3.5-4.6-4.7-7.2c-1.3-2.8-2.3-5.8-2.8-8.9c-0.8-4.2-1-8.5-0.5-12.8
						c0.4-4.4,1.6-8.7,3.4-12.8c3.9-8.8,11.1-15.7,20.1-19.1c2.8-1,5.8-1.5,8.7-1.5c2.2,0,4.5,0.3,6.7,0.8c2.2,0.5,4.4,1.3,6.5,2.2
						c4.3,2,8.2,4.6,11.6,7.8c3.4,3.2,6.2,6.9,8.4,11c1,2,1.8,4,2.4,6.1c0.6,2,0.9,4.1,1,6.3c-2,6-4.7,11.8-8,17.2
						c-4.2,6.4-8.6,9.7-13.2,9.7c-1.6,0-3.1-0.4-4.6-1.1c-3.3,2.8-6.9,5.1-10.8,6.9C1175.3,666.3,1172,667,1168.7,667L1168.7,667z
						 M1072.3,662.5L1072.3,662.5c-6,0-12-1.3-17.5-3.8c-2.7-1.2-5.3-2.8-7.6-4.7c-2.3-1.9-4.4-4-6.1-6.5
						c-4.5-6.4-8.5-17.6-2.4-34.6c1.1-2.7,2.4-5.4,4.1-7.8c1.3-1.9,2.8-3.6,4.6-5.1c3.1-2.4,6.9-3.6,10.7-3.5
						c6.4,0,13.3,2.7,20.7,5.5c6.4,2.4,13.1,5,19.7,5.9c3.9,8.8,6,17,6,24.2c0.2,6-1.4,11.9-4.6,17c-1.4,2.2-3.2,4.2-5.3,5.9
						c-2,1.7-4.3,3.1-6.7,4.2C1083.2,661.5,1077.8,662.6,1072.3,662.5L1072.3,662.5z M25.1,637.8L25.1,637.8c-6.1,0-13.2-2-19.4-3.8
						l-0.6-0.2c-6.6-1.9-12.7-3.6-17.9-3.6c-0.3,0-0.6,0-0.9,0c-1.6-0.9-3.1-2-4.3-3.4c-1.3-1.5-2.3-3.1-3.2-4.8
						c-1.8-3.9-2.8-8.2-2.9-12.5c-0.3-5.9,0.6-11.7,2.7-17.2c2.2-5.7,5.6-10.2,9.8-12.9c2.6-2,5.6-3.6,8.8-4.7c3-1,6.2-1.5,9.4-1.5
						c4.1,0,8.1,0.7,11.9,2.1c3.9,1.4,7.6,3.3,11,5.8c6.8,4.8,12.1,11.4,15.3,19c1.1,2.7,1.8,5.5,2.1,8.3c0.3,2.9,0.2,5.7-0.4,8.6
						c-1.2,6.1-4.5,11.6-9.7,16.5C34,636.4,30.2,637.8,25.1,637.8z M415.6,634.8L415.6,634.8c-2.7,0-5.4-0.5-7.9-1.4
						c-2.5-0.9-4.8-2.2-6.8-3.8c-4.3-3.5-7.6-8-9.6-13.1c-2.7-6.5-3.5-13.7-2.5-20.7c0.6-3.6,1.7-7.1,3.3-10.4
						c1.7-3.5,4-6.6,6.8-9.4c3.2-3.2,6.8-5.8,10.9-7.8c3.1-1.5,6.5-2.4,10-2.4c2.6,0,5.2,0.5,7.5,1.5c2.4,1,4.6,2.4,6.5,4.2
						c4.1,3.9,7.2,8.8,9,14.2c2.6,7.3,3.3,15.2,1.9,22.9c-1.3,7.9-5.4,15-11.5,20.1C427.2,632.8,421.3,634.8,415.6,634.8
						L415.6,634.8z M950.3,619.1L950.3,619.1c-3.9,0-7.7-0.4-11.5-1.2c-3.2-0.6-6.2-1.9-9-3.6c-5.5-6.2-8.8-12.7-10-19.3
						c-0.5-3-0.6-6-0.2-9c0.4-2.9,1.2-5.7,2.4-8.3c1.6-3.4,3.7-6.6,6.3-9.4c8-8.5,19.2-13.5,30.9-13.7c4,0,7.9,0.7,11.6,2.1
						c3.8,1.5,7.1,3.8,9.9,6.7c3.1,3.5,5.5,7.5,7,12c1.9,5.7,2.8,11.7,2.8,17.8c0.7,4.8-0.9,9.7-4.2,13.3c-3.4,3.9-8.9,7.2-15.7,9.4
						C964,618,957.2,619.1,950.3,619.1z M267.1,613.8c-2.8-0.1-5.5-1.1-7.7-2.8c-3.4-1.7-6.4-4.1-8.9-6.9c-2.2-2.6-4-5.5-5.1-8.7
						c-2.1-6.5-2.3-13.5-0.5-20c2.1-8.4,6.6-16.1,12.8-22.2c3-2.9,6.4-5.3,10.2-7.1c3.7-1.7,7.7-2.6,11.7-2.7c3.5,0,6.9,0.7,10.1,2
						c3.8,1.6,7.2,3.8,10.2,6.6c5.6,3.9,9.6,9.6,11.5,16.2c0.9,3,1.3,6.2,1.2,9.4c-0.1,3.1-0.6,6.2-1.5,9.2
						c-0.8,2.6-2.1,5.1-3.6,7.5c-1.5,2.3-3.4,4.3-5.5,6.1c-2.2,1.8-4.6,3.1-7.3,4.1c-2.9,1-5.9,1.5-8.9,1.5c-0.8,0-1.7,0-2.6-0.1
						c-1.7,1-3.3,2.1-4.9,3.2h0l0,0c-1.8,1.3-3.7,2.5-5.6,3.5C271,613.2,269.1,613.8,267.1,613.8L267.1,613.8z M1411.3,604.1
						L1411.3,604.1c-4.4,0-8.7-0.9-12.7-2.6c-4.6-2-8.7-4.8-12.1-8.4c-1.9-3.7-3.4-7.6-4.5-11.7c-0.9-3.6-1.4-7.2-1.4-10.9
						c0-3.3,0.4-6.7,1.3-9.9c0.8-3,2.1-5.9,3.8-8.6c1.6-2.6,3.5-4.9,5.7-7c2.2-2.1,4.7-3.9,7.5-5.3c2.8-1.5,5.8-2.6,8.9-3.4
						c3.3-0.8,6.6-1.2,10-1.2c4.4,0,8.7,0.6,13,1.8c4.7,1.3,9.3,3.2,13.6,5.7c2.2,2.8,4,5.8,5.3,9.1c1.2,3,1.9,6.2,2.1,9.5
						c0.2,3.1,0,6.3-0.6,9.4c-0.7,3.1-1.7,6.1-3.1,9c-1.7,3.5-3.9,6.8-6.4,9.7c-2.6,3-5.5,5.6-8.7,7.8c-3.2,2.2-6.7,3.9-10.3,5.2
						C1419,603.4,1415.2,604,1411.3,604.1z M159.2,577.1L159.2,577.1c-5.6,0.1-11.1-0.9-16.2-3.1c-2.3-1-4.4-2.3-6.3-4
						c-1.8-1.6-3.3-3.6-4.4-5.7c-2.9-6.2-4.3-12.9-4-19.7c0.3-5.7,2.1-11.2,5.2-16c3.6-5.5,8.5-9.9,14.4-12.9
						c2.9-1.5,5.9-2.7,9.1-3.4c3.1-0.8,6.3-1.2,9.5-1.2c4.1,0,8.1,0.7,11.9,2.1c3.9,1.5,7.4,3.8,10.3,6.7c3.4,3.5,5.9,7.7,7.5,12.4
						c1.9,5.9,2.8,12.1,2.6,18.3c0.2,2.5-0.2,5.1-1.2,7.5c-1,2.4-2.4,4.6-4.2,6.4c-4.2,4.2-9.3,7.4-15,9.3
						C172.2,575.9,165.7,577,159.2,577.1L159.2,577.1z M710.1,562.1L710.1,562.1c-4.4,0-8.7-0.9-12.7-2.6c-4.5-2-8.7-4.8-12.1-8.4
						c-1.9-3.7-3.4-7.6-4.5-11.7c-0.9-3.6-1.4-7.2-1.4-10.9c0-3.3,0.4-6.7,1.3-9.9c0.8-3,2.1-5.9,3.8-8.6c1.6-2.6,3.5-4.9,5.7-7
						c2.2-2.1,4.7-3.9,7.5-5.3c2.8-1.5,5.8-2.6,8.9-3.4c3.3-0.8,6.6-1.2,10-1.2c4.4,0,8.7,0.6,13,1.8c4.7,1.3,9.3,3.2,13.6,5.7
						c2.2,2.8,4,5.8,5.3,9.1c1.2,3,1.9,6.2,2.1,9.4c0.2,3.1,0,6.3-0.6,9.4c-0.7,3.1-1.7,6.1-3.1,9c-1.7,3.5-3.9,6.8-6.4,9.7
						c-2.6,3-5.5,5.6-8.7,7.8c-3.2,2.2-6.7,3.9-10.3,5.2C717.7,561.4,713.9,562,710.1,562.1L710.1,562.1z M839.9,551.6L839.9,551.6
						c-2.4,0-4.8-0.2-7.1-0.7c-1,0.3-2.1,0.5-3.2,0.5c-0.7,0.1-1.4-0.2-1.9-0.6c-0.7-0.7-0.7-2-0.6-3.4c0.1-2.4,0.2-5.1-3.6-5.9
						c-6.1-2.5-10.4-6-12.9-10.5c-1.1-2.1-1.8-4.4-2.1-6.7c-0.3-2.4-0.2-4.9,0.3-7.3c0.5-2.3,1.2-4.5,2.1-6.6c1-2.3,2.2-4.5,3.5-6.5
						c2.9-4.4,6.4-8.4,10.4-11.8c4-3.5,8.5-6.4,13.4-8.5c4.6-2.1,9.5-3.2,14.5-3.3c1.9,0,3.9,0.2,5.8,0.6c4.6,0.7,9.2,2,13.4,4
						c3.3,1.6,6.3,3.8,8.8,6.6c2.1,2.4,3.7,5.3,4.6,8.4c0.9,3.1,1.2,6.3,0.9,9.5c-0.2,2.5-0.7,5-1.5,7.5c-0.8,2.6-1.8,5.1-3.1,7.4
						c-4.1,7.6-10,14.2-17.1,19.1c-2.4,1.7-5,3.1-7.6,4.3C851.6,550.2,845.8,551.5,839.9,551.6L839.9,551.6z M1198.8,550.8
						L1198.8,550.8c-5.3,0-10.5-1.3-15.1-3.8c-4.7-2.5-9-5.9-12.5-9.9c-1.8-2-3.5-4.2-4.9-6.5c-1.5-2.3-2.8-4.7-3.9-7.2
						c-1.1-2.5-2-5-2.8-7.6c-0.7-2.5-1.2-5.1-1.5-7.7c-0.8-7.9,0.6-15,4-20.6c1.9-3,4.4-5.6,7.4-7.6c3.5-2.3,7.4-3.9,11.5-4.7h0.2
						c4.2-0.1,8.5-0.5,12.7-1.1l0.4-0.1c4.6-0.7,9.2-1.1,13.9-1.2c2.4,0,4.8,0.2,7.1,0.7c2.1,0.4,4.1,1.3,5.9,2.5
						c1.8,1.3,3.3,3,4.3,5c1.2,2.5,1.9,5.3,2.1,8.1c1.4,5.3,2.3,10.7,2.8,16.2c0.6,6,0.4,12.1-0.5,18.1c-0.8,5.7-2.9,11.1-6,15.9
						c-3.3,4.7-8.2,8.1-13.8,9.6C1206.4,550.1,1202.6,550.8,1198.8,550.8L1198.8,550.8z M54.1,550.8L54.1,550.8
						c-2.7,0-5.3-0.5-7.9-1.4c-2.5-0.9-4.8-2.2-6.8-3.8c-4.3-3.5-7.6-8-9.6-13.1c-2.7-6.5-3.5-13.7-2.5-20.7
						c0.6-3.6,1.7-7.1,3.3-10.4c1.7-3.5,4-6.6,6.8-9.4c3.2-3.2,6.8-5.8,10.9-7.8c3.1-1.5,6.5-2.4,10-2.4c2.6,0,5.2,0.5,7.5,1.5
						c2.4,1,4.6,2.4,6.5,4.2c4.1,3.9,7.2,8.8,9,14.2c2.6,7.3,3.3,15.2,1.9,22.9c-1.3,7.9-5.4,15-11.6,20.1
						C65.7,548.8,59.8,550.8,54.1,550.8L54.1,550.8z M1322,548.6L1322,548.6c-3.9-0.1-7.8-0.8-11.4-2.3c-3.7-0.6-7.2-1.8-10.5-3.7
						c-2.7-1.6-5-3.7-6.8-6.2c-3.2-4.6-4.6-10.6-4-17.3c0.4-4.6,1.6-9.1,3.5-13.3c1.9-4.4,4.5-8.4,7.6-12c3-3.5,6.7-6.5,10.7-8.7
						c4-2.2,8.4-3.3,12.9-3.3c5.5,0.1,10.9,1.8,15.4,4.9c3.8,6,6.3,14.9,6.7,24.3c0.2,4.6-0.1,9.1-0.9,13.6
						c-0.7,4.2-2.1,8.3-4.2,12.1c-1.8,3.5-4.4,6.4-7.6,8.6C1330,547.5,1326,548.6,1322,548.6L1322,548.6z M534.9,542.6
						c-4.5,0-9-0.8-13.2-2.4c-4.3-1.7-8.1-4.3-11.3-7.6c-2.9-3-4.8-7.4-5.5-12.7c-0.3-2.6-0.4-5.2-0.2-7.9c0.2-2.7,0.6-5.4,1.3-8
						c1.2-4.7,3.2-9.1,6.1-13.1c1.3-1.8,2.9-3.4,4.7-4.8c1.7-1.3,3.6-2.3,5.7-2.9c5.2-1.2,12.9-2.8,20.2-2.8c2.8,0,5.6,0.3,8.3,0.9
						c2.5,0.5,5,1.6,7.1,3c2.2,1.5,4,3.4,5.3,5.7c1.5,2.8,2.5,5.8,2.8,9c2.7,4.4,4.3,9.4,4.5,14.5c0.1,4.3-1,8.6-3.1,12.4
						c-1.5,2.6-3.5,5-5.7,7c-2.4,2.1-5,3.9-7.8,5.3C548.1,541,541.5,542.5,534.9,542.6L534.9,542.6z M1074.1,540.3L1074.1,540.3
						c-4.4,0-8.7-0.7-12.9-2.1c-4.3-1.4-8.4-3.4-12.1-6.1c-3.8-2.7-7.1-5.9-9.8-9.7c-2.8-3.9-4.8-8.3-5.9-13c0.1-5,1-10,2.6-14.8
						c1.3-3.9,3.4-7.4,6.2-10.5c5.1-5.5,12.1-8.3,20.3-8.3c8.5,0,17.9,3.1,27.1,8.9c2.5,0,5,0.4,7.3,1.2c1.6,0.6,2.9,1.6,3.9,2.9
						c1.7,2.5,1.8,5.8,2,9.7v0c0,3.3,0.4,6.6,1.2,9.8c0.1,4.8-0.7,9.5-2.3,14c-1.3,3.7-3.4,7-6.2,9.8c-2.7,2.7-6.1,4.8-9.7,6.2
						C1082,539.7,1078,540.4,1074.1,540.3L1074.1,540.3z M401.6,510.3L401.6,510.3c-5.6,0-11.2-1.3-16.3-3.6
						c-5.5-2.4-10.4-5.9-14.4-10.3c-4.1-4.4-7.2-9.7-9.2-15.4c-2.2-6.6-3-13.5-2.4-20.4c-0.1-2.7,0.2-5.5,0.9-8.1
						c0.5-2.2,1.4-4.3,2.6-6.2c1.1-1.7,2.4-3.3,4-4.6c1.6-1.3,3.3-2.4,5.2-3.3c4.1-1.8,8.3-3,12.7-3.5c4.6-0.7,9.3-1,14-1.3h0
						c3.4-0.2,6.5-0.4,9.5-0.8c1.4-0.3,2.9-0.4,4.3-0.4c2.1,0,4.3,0.4,6.3,1.2c1.8,0.7,3.4,1.8,4.7,3.2c3.1,3.2,5.3,8,6.6,14.5
						c1,5.5,1.4,11.1,1.3,16.7c0.9,6.6,0.6,13.2-0.8,19.7c-1.2,4.9-3.5,9.5-6.8,13.4c-2.7,3.1-6.2,5.5-10,7.1
						C409.9,509.6,405.8,510.4,401.6,510.3L401.6,510.3z M239.4,508.1L239.4,508.1c-0.5,0-1.1,0-1.6-0.1c-6.4-1.3-12.6-3.6-18.4-6.8
						c-4.6-2.6-8.8-6-12.2-10c-5.7-6.6-8.5-15.3-7.7-24c0.7-7,4-13.4,9.1-18.1c2.7-2.4,5.9-4.4,9.3-5.6c3.9-1.4,7.9-2.1,12-2.1
						c4.8,0,9.5,0.8,14.1,2.3c5.6,1.8,11,4.3,16.1,7.4c2.1,1.4,3.9,3.3,5.1,5.5c1.3,2.3,2.2,4.8,2.6,7.5c0.5,2.9,0.6,5.8,0.3,8.7
						c-0.3,3.1-0.9,6.2-1.8,9.2c-1.9,6.8-5.5,13.1-10.3,18.3C251.2,505.3,245.4,508.1,239.4,508.1L239.4,508.1z M643.7,478.8
						L643.7,478.8c-4.3,0-8.5-0.7-12.6-2.1c-7.8-2.7-14.7-7.8-19.6-14.4c-2.4-3.2-4.3-6.8-5.5-10.7c-1.1-3.4-1.7-6.9-1.7-10.4
						c0-3.7,0.6-7.3,1.8-10.8c1.4-3.8,3.3-7.4,5.9-10.6c3-3.8,6.5-7.1,10.4-9.9c10.7-4,20.2-6.1,28.3-6.1c4.8-0.1,9.5,0.8,13.9,2.6
						c3.8,1.6,7.1,4.2,9.6,7.5c3.8,5,6,11.8,6.5,20.1c0.5,8.2-0.8,17.8-3.6,28.4C667.3,473.2,655.8,478.8,643.7,478.8L643.7,478.8z
						 M950.1,463.8c-5.1-0.1-10.1-1.7-14.2-4.7c-5.1-3.4-9.9-8.7-14.5-15.7c-2.3-4.8-3.2-10.2-2.6-15.5c0.6-5,2.4-9.9,5.1-14.1
						c2.1-3.2,4.5-6.1,7.3-8.6c5.8-5.2,12.7-9,20.2-11.1c3.7-1,7.5-1.6,11.3-1.6c1.3,0,2.6,0.1,3.9,0.2c3.2,0.2,6.4,1.2,9.3,2.7
						c2.5,1.4,4.6,3.3,6.1,5.6c3,4.3,4.4,10.3,4,17.1c-0.5,10.2-4.6,21.6-11.1,30.4c-1.6,2.2-3.3,4.2-5.3,6.1
						c-1.8,1.8-3.8,3.4-6,4.8C959.7,462.3,954.9,463.8,950.1,463.8L950.1,463.8L950.1,463.8z M770.6,447.3L770.6,447.3
						c-3.8,0-7.6-0.6-11.1-1.9c-3.4-1.3-6.5-3.3-9-6c-2.6-2.9-4.4-6.3-5.4-10.1c-1.2-4.8-1.6-9.7-1-14.6c2.7-8.4,8-15.7,15.1-20.8
						c3.2-2.3,6.8-4.2,10.6-5.4c3.6-1.2,7.4-1.8,11.3-1.8c3.5,0,7.1,0.6,10.4,1.7c3.4,1.2,6.6,2.9,9.3,5.2c3,2.5,5.5,5.5,7.4,8.9
						c2.2,4,3.8,8.3,4.7,12.7c-1,4.8-3,9.3-5.8,13.3c-2.8,3.9-6.2,7.4-10.2,10.2C789.2,444.1,780.1,447.1,770.6,447.3L770.6,447.3z
						 M15.5,443.6L15.5,443.6c-8.3,0-15.8-3.5-21.7-10.1c-2.7-3.1-4.9-6.6-6.6-10.3c-1.7-3.8-2.8-7.8-3.4-11.8
						c-0.7-4.5-0.6-9.2,0.4-13.7c0.5-2.1,1.1-4.1,2.1-6.1c0.9-1.9,2-3.6,3.4-5.2c2-2.3,4.5-4.1,7.3-5.3c3.2-1.4,6.7-2,10.2-2
						c1.6,0,3.1,0.1,4.6,0.3c4.5,0.2,8.8,1.3,12.8,3.3c3.8,1.9,7.1,4.5,9.9,7.7c5.5,6.3,8.9,14.2,9.6,22.5c0.3,3.3,0,6.6-0.7,9.9
						c-0.7,3.2-2,6.2-3.8,8.9c-1.9,2.8-4.3,5.2-7.2,7c-3.3,2.1-7,3.5-10.8,4.2C19.6,443.4,17.6,443.6,15.5,443.6z M129.2,439.8
						c-8.3-0.1-16.4-2.8-23.1-7.7c-7-5.3-11.2-12.3-11.7-19.8c-0.1-11.7,4-22.1,11.9-30c2.1-2.1,4.4-4,6.9-5.6c2.4-1.6,5-3,7.7-4.1
						c5.1-2.1,10.7-3.2,16.2-3.3c2.3,0,4.7,0.2,7,0.7c2.2,0.4,4.3,1.1,6.3,2.1c2,0.9,3.8,2.1,5.4,3.5c1.6,1.4,3,3.1,4.2,4.9
						c2.7,4.3,3.8,9.7,3.3,15.8c-0.5,6.8-2.9,14.6-7.2,23.1c-0.9,3.3-2.3,6.5-4.2,9.3c-1.7,2.5-3.8,4.6-6.3,6.4
						C140.8,438.3,135,439.9,129.2,439.8L129.2,439.8L129.2,439.8z M1346.3,434.6L1346.3,434.6c-4.8,0-9.6-0.9-14.1-2.6
						c-4.9-1.9-9.4-4.6-13.3-8.2c-6.2-6.8-7.6-16.7-3.4-24.9c1.7-3.6,4.1-7,6.9-9.8c3-3.1,6.4-5.8,10.1-8c3.7-2.3,7.7-4.1,11.9-5.4
						c4-1.3,8.1-1.9,12.3-2c4.4-0.1,8.8,0.9,12.8,3c4,2.2,7.3,5.6,9.3,9.7c2.5,5.6,3.5,11.8,3.1,17.9c-0.2,2.7-0.8,5.3-1.6,7.8
						c-0.9,2.4-2,4.7-3.4,6.8c-3.3,4.9-7.8,8.8-13.1,11.4C1358.4,433.2,1352.4,434.6,1346.3,434.6L1346.3,434.6z M535.9,412.1
						c-4.6,0-9.3-0.4-13.9-1.1c-3.9-0.6-7.7-1.5-11.5-2.8c-2.9-3.2-5.3-6.8-7.1-10.7c-1.6-3.6-2.7-7.4-3.1-11.3
						c-0.7-7.6,0.5-15.2,3.7-22.2c1.7-3.8,3.8-7.4,6.4-10.6c2.5-3.2,5.3-6.1,8.5-8.5c3-2.4,6.4-4.3,10-5.7c3.4-1.3,7.1-2,10.8-2.1
						c2.8,0,5.7,0.5,8.3,1.4c2.9,1,5.6,2.4,8,4.3c5.5,4.1,10.1,10.5,13.8,18.8c0.7,2.4,0.9,5,0.5,7.5c-0.5,2.4-1.1,4.8-2,7.1
						c-1,2.5-1.7,5.2-2.1,7.9c-0.2,1.4-0.2,2.7,0,4.1c0.2,1.5,0.6,3,1.3,4.3c-0.4,6.9-3.9,12-10.4,15.4c-3.2,1.6-6.5,2.6-10,3.2
						C543.5,411.8,539.7,412.1,535.9,412.1L535.9,412.1L535.9,412.1z M1214,412.1L1214,412.1c-14.3,0-25.6-6.2-30.4-16.6
						c-1.4-3.1-2.2-6.5-2.4-9.9c-0.2-4,0.3-7.9,1.4-11.8c1.3-4.7,3.2-9.1,5.7-13.3c3-5.2,6.5-10.1,10.5-14.6c4.1-3.4,9.1-5,15.3-5
						c7.5,0,15.7,2.4,23.6,4.8c5.3,1.7,10.6,3,16.1,4c2.5,0.1,4.5,1.9,5.8,5.5c1.1,3.5,1.7,7.1,1.8,10.8c0.1,4.3-0.1,8.6-0.6,12.8
						c-0.5,3.9-1.2,7.7-2.3,11.5c-1,3.4-2.2,5.7-3.4,6.8c-6.5,4.9-13.6,8.8-21.2,11.5C1227.4,410.8,1220.7,412,1214,412.1
						L1214,412.1z M1090.3,405.3L1090.3,405.3c-7.7,0.1-15.2-1.8-22-5.5c-6-3.2-10.8-8.3-13.7-14.4c-1.2-2.7-2-5.6-2.3-8.5
						c-0.3-3.2-0.2-6.4,0.5-9.5c0.8-3.5,2-6.9,3.7-10.1c2-3.8,4.5-7.3,7.3-10.5c3.3-4.1,7.5-7.4,12.2-9.7c4.2-2,8.7-3,13.3-3
						c4.8,0,9.5,1,13.9,2.8c4.5,1.8,8.7,4.4,12.4,7.5c1.9,1.6,3.6,3.3,5.2,5.1c1.6,1.8,3,3.7,4.3,5.7c2.5,3.9,4.3,8.2,5.2,12.7
						c0.6,3.2,0.7,6.5,0.2,9.8c-0.5,3.3-1.7,6.5-3.5,9.4c-2,3.3-4.7,6.2-7.7,8.5c-3.8,2.9-8.1,5.3-12.6,7.1
						C1101.5,404.4,1095.9,405.3,1090.3,405.3L1090.3,405.3z M888.8,376.8c-5.6,0-11.1-0.9-16.4-2.8c-2.5-0.9-4.9-2.1-7.2-3.6
						c-2.2-1.4-4.2-3.1-5.9-5c-2.4-2.6-4.2-5.6-5.3-9c-1.2-3.7-1.6-7.7-1.2-11.5c0.5-6.1,2.2-12.1,5.1-17.6
						c2.6-4.9,6.1-9.2,10.3-12.8c6-5,13.2-8.4,20.9-9.8c2.4-0.4,4.9-0.7,7.4-0.7c2.5,0,5,0.2,7.4,0.7c2.4,0.5,4.7,1.2,6.8,2.2
						c2.2,1,4.2,2.2,6,3.7c1.9,1.5,3.5,3.2,4.9,5.2c3.3,4.8,5.1,10.4,5.3,16.2c0.4,6.9-0.9,14.8-3.9,23.4c-0.8,3.4-2.4,6.6-4.6,9.4
						c-2.2,2.7-4.9,5-8,6.7c-3.2,1.8-6.6,3.2-10.2,4C896.4,376.4,892.6,376.9,888.8,376.8L888.8,376.8z M271.7,369.3
						c-4,0-8-0.5-11.9-1.5c-3.8-0.9-7.5-2.3-10.9-4.2c-3.3-1.8-6.3-4-9-6.6c-2.5-2.5-4.6-5.5-6.1-8.8c-1.2-2.6-1.9-5.4-2.1-8.3
						c-0.2-3.1,0.1-6.3,0.9-9.3c1.8-6.9,6-14.1,12.6-21.2c5-6.8,13.4-10.5,23.8-10.5c6.5,0,12.9,1.4,18.8,3.9
						c5.9,2.4,11.1,6.1,15.4,10.8c5.5,6.3,7.9,13.6,6.9,21.1c-0.5,5.5-2.1,10.8-4.7,15.7c-2.2,4.2-5.2,7.8-8.9,10.7
						c-3.5,2.8-7.5,4.8-11.7,6.2C280.6,368.7,276.1,369.4,271.7,369.3L271.7,369.3L271.7,369.3z M715.6,365.6
						c-4.6,0-9.1-0.9-13.4-2.6c-3.9-0.8-7.6-2.2-11-4.3c-2.8-1.7-5.2-3.9-7-6.5c-1.7-2.4-2.9-5.2-3.5-8.1c-0.6-3-0.7-6.1-0.4-9.1
						c0.3-2.3,0.7-4.6,1.4-6.9c0.7-2.3,1.6-4.6,2.7-6.8c2.2-4.5,5.1-8.7,8.5-12.3c1.7-1.8,3.5-3.5,5.5-5c1.9-1.5,3.9-2.8,6.1-3.9
						c4.1-2.2,8.6-3.4,13.2-3.4c3.1,0,6.2,0.6,9.1,1.8c3.3,1.4,6.2,3.4,8.8,5.8c3.3,1.8,6.3,4.2,8.8,6.9c2.2,2.4,3.9,5.3,5.1,8.3
						c2.2,5.9,2.5,12.3,0.8,18.4c-1,3.7-2.6,7.3-4.6,10.5c-2.1,3.3-4.7,6.3-7.7,8.8c-3,2.6-6.5,4.6-10.2,6.1
						C723.9,364.8,719.8,365.6,715.6,365.6L715.6,365.6L715.6,365.6z M407.7,365.6L407.7,365.6c-5,0.1-10-0.8-14.7-2.7
						c-3.7-1.5-6.9-3.9-9.4-7.1c-2.6-3.4-4.2-7.5-4.8-11.8c-0.3-2.2-0.4-4.5-0.2-6.8c0.2-2.4,0.6-4.7,1.2-7c1.2-4.6,3-8.9,5.5-12.9
						c2.6-4.2,5.7-8,9.4-11.3c3.8-3.4,8.1-6.1,12.8-8c5-2,10.3-3,15.7-3c9.3,0,18.8,3,28.4,8.8c4.8,1.4,7,2.6,8,4.5
						c0.6,1.2,0.8,2.6,0.6,4c-0.3,2.1-0.7,4.1-1.4,6.1c1,6.2,0.8,12.6-0.6,18.7c-1.1,5-3.5,9.7-6.8,13.6c-4.2,4.9-10,8.6-17.3,11
						c-7.9,2.5-16.1,3.7-24.3,3.7C409.2,365.6,408.4,365.6,407.7,365.6L407.7,365.6z M1179.9,321.3L1179.9,321.3
						c-7.6,0-19-2.4-30.3-13.8c-2.7-4.9-4-10.5-3.7-16.2c0.1-2.8,0.6-5.6,1.3-8.3c0.8-2.7,1.8-5.2,3.2-7.6c1.1-1.8,2.3-3.6,3.8-5.1
						c1.4-1.5,3-2.9,4.7-4c3.5-2.3,7.7-3.6,12-3.6c3.6,0,7.2,0.8,10.6,2.3c5.4,1.3,10.7,3.3,15.7,5.9c3.8,1.9,7.2,4.5,10.1,7.6
						c4.7,5.1,6.8,11.1,6,17.4c-0.5,3.4-1.7,6.7-3.5,9.6c-2,3.1-4.4,5.8-7.3,8.1C1195.9,318.7,1188,321.4,1179.9,321.3L1179.9,321.3
						z M21.4,319.8L21.4,319.8c-10,0-18.8-3.1-25.3-8.9c-2.9-2.6-5.3-5.7-7.1-9.1c-1.7-3.3-2.8-6.8-3.2-10.5
						c-0.4-3.5-0.2-7.1,0.8-10.6c1-3.4,2.7-6.5,5-9.2c5.1-5.7,12.9-8.7,22.5-8.7c2,0,4.1,0.1,6.1,0.4c10.4,0.7,19.9,5.9,26.3,14.1
						c2,2.5,3.5,5.4,4.7,8.4c0.9,2.4,1.5,4.8,1.8,7.4c0.5,5.2-0.5,10.4-2.9,15c-1.4,2.6-3.1,4.9-5.2,7
						C37.4,318.1,29.5,319.7,21.4,319.8L21.4,319.8z M1005.8,316.1c-6.5,0.1-12.9-1.5-18.6-4.7c-7.5-3.1-13-9.7-16-19.1
						c-1.4-4.5-2.2-9.2-2.3-13.9c-0.2-4.9,0.2-9.9,1.2-14.7c0.9-4.5,2.3-8.9,4.2-13.1c1.8-4,4.1-7.7,7-11.1c2.7-3.1,5.9-5.7,9.6-7.6
						c3.7-1.9,7.8-2.9,12-2.8c0.3,0,0.6,0,0.9,0c2.6-0.5,5.2-0.7,7.8-0.7c2.9,0,5.7,0.4,8.5,1.1c2.4,0.7,4.7,1.8,6.8,3.2
						c2,1.4,3.8,3.1,5.3,5c1.6,2,2.9,4.1,4,6.4c2.4,5.1,4,10.4,5,15.9c1.1,5.9,1.7,11.9,2.1,18c1.6,3.5,2.3,7.4,2,11.2
						c-0.4,3.5-1.6,6.9-3.5,9.8c-1.8,2.7-3.9,5-6.4,7c-2.7,2.1-5.6,3.9-8.7,5.4c-3.2,1.5-6.6,2.6-10.1,3.4
						C1013,315.7,1009.4,316.1,1005.8,316.1L1005.8,316.1L1005.8,316.1z M1357.3,315.3L1357.3,315.3c-3.6,0-7.1-0.5-10.5-1.4
						c-3.5-0.9-6.9-2.2-10.2-3.9c-3.2-1.6-6.2-3.7-8.9-6.1c-2.6-2.3-4.9-5-6.7-8c-2.5-4-3.9-8.6-4.1-13.4
						c-0.1-5.4,1.2-10.8,3.8-15.5c1.1-3,2.5-5.8,4.3-8.4c1.4-2.1,3.1-3.9,5-5.5c1.7-1.3,3.6-2.3,5.7-3c2-0.6,4.1-0.9,6.2-0.9
						c2.3,0,4.6,0.3,6.9,0.8c2.5,0.6,4.9,1.3,7.2,2.2c4.9,1.8,10,4.3,15,6.6c1.2,0.6,2.3,1.1,3.5,1.6c1.1-0.2,2.2-0.3,3.3-0.3
						c1.8-0.1,3.6,0.5,4.9,1.7c2.2,2.2,2.1,6.4,2.1,10.8l0,0l0,0c-0.1,3.7-0.1,7.5,1.2,10.4c0.2,4.9-0.4,9.7-1.9,14.4
						c-1.2,3.7-3.2,7.1-5.9,9.9c-2.6,2.7-5.8,4.8-9.4,6C1365.1,314.7,1361.2,315.4,1357.3,315.3L1357.3,315.3z M621.6,301.9
						L621.6,301.9c-5.3,0-10.6-0.9-15.7-2.7c-2.4-0.9-4.6-2-6.7-3.4c-2-1.3-3.9-3-5.5-4.8c-2.4-2.8-4.1-6.1-5-9.7
						c-1-4.2-1.1-8.6-0.4-12.9c-0.5-3.9-0.2-7.9,1-11.7c1.2-3.6,3.1-6.9,5.6-9.7c6.2-7,15.1-11,24.4-11.1c6.5,0,12.8,2.1,18,6.1
						c1.5,0.7,2.7,1.8,3.4,3.3c0.7,1.5,1.3,3.1,1.7,4.7c0.5,2.2,1.3,4.3,2.5,6.1c0.7,0.9,1.6,1.6,2.6,2.1c1.3,0.6,2.7,0.9,4.2,1
						c3.3,0.2,4.3,2.1,5.4,4.7c1.7,4.1,2.3,8.6,1.9,13c-0.4,3.8-1.7,7.4-3.9,10.5c-3.1,4.5-8,8.3-14.2,10.9c-3,1.3-6.1,2.2-9.3,2.8
						C628.3,301.5,625,301.9,621.6,301.9z M140.9,301.1L140.9,301.1c-3.4,0-6.9-0.5-10.2-1.4c-3.2-0.9-6.3-2.2-9.2-3.9
						c-2.9-1.7-5.5-3.7-7.8-6.1c-2.4-2.4-4.4-5.1-6.1-8c-2-3.4-3.4-7-4.4-10.8c-1-4-1.5-8.2-1.4-12.3c0.1-4.6,0.8-9.1,2.1-13.4
						c1.5-4.9,3.5-9.7,6.1-14.1c1-2.9,2.7-5.4,5-7.5c2.4-2.3,5.2-4.1,8.2-5.5c3.3-1.5,6.7-2.7,10.2-3.4c3.6-0.8,7.2-1.2,10.9-1.2
						c5.3-0.1,10.6,0.9,15.4,3.1c2.1,1,3.9,2.4,5.5,4.1c1.5,1.7,2.6,3.6,3.1,5.8c0.7,2.6,1.7,6,3,9.9l0,0c5.1,16,12.7,40.3,5.9,47.5
						c-5.2,5.5-11.4,10-18.3,13.2C153.3,299.7,147.1,301.1,140.9,301.1L140.9,301.1z M823,292.9L823,292.9c-5.4,0-10.7-0.9-15.7-2.6
						c-2.4-0.8-4.8-1.9-7-3.2c-2.1-1.3-4.1-2.8-5.8-4.5c-3.1-4-5-8.8-5.5-13.9c-0.3-4.3,0.6-8.7,2.6-12.6c1.8-3.4,4.2-6.5,7.1-9.1
						c3-2.8,6.4-5.2,10.1-7.1c3.7-2,7.7-3.5,11.7-4.6c3.9-1.1,8-1.6,12.1-1.6c3.9-0.1,7.7,0.6,11.3,1.9c3.4,1.2,6.4,3.3,8.8,6.1
						c2.4,2.8,3.9,6.2,4.6,9.9c0.9,4.8,0.8,9.6-0.1,14.4c0.1,3.2-0.4,6.5-1.6,9.5c-1.1,2.8-2.8,5.3-4.9,7.5
						c-1.7,1.7-3.5,3.2-5.6,4.4c-2.1,1.3-4.4,2.3-6.7,3.1C833.4,292,828.2,292.9,823,292.9z M512.4,259.1L512.4,259.1
						c-4.5,0-8.9-0.9-13.1-2.5c-4.9-1.9-9.6-4.7-13.7-8c-3.7-3-7-6.6-9.6-10.7c-2.3-3.6-4-7.6-5-11.8c-1.8-8-1.2-16.4,1.6-24.1
						c1.4-4,3.4-7.9,5.8-11.4c2.4-3.4,5.2-6.5,8.4-9.2c3.1-2.6,6.6-4.7,10.3-6.2c3.7-1.5,7.6-2.2,11.5-2.3c5.2,0,10.3,1.4,14.9,3.9
						c5.6,3.2,10.6,7.6,14.4,12.8c3,3.6,5.4,7.7,7.3,12c1.7,4,2.7,8.2,3.2,12.4c0.8,8-0.5,16-4,23.3c-2.9,6.2-7.4,11.6-13,15.6
						c-2.8,1.9-5.8,3.4-9,4.5C519.3,258.6,515.9,259.1,512.4,259.1z M734.8,248.6L734.8,248.6c-4.5,0-8.9-1-12.9-3.1
						c-3.9-2-7.4-4.8-10.3-8.1c-3-3.4-5.4-7.3-7.1-11.5c-1.8-4.2-2.9-8.7-3.2-13.3c-0.4-4.2,0-8.4,0.9-12.4
						c2.1-8.6,7.6-15.9,15.2-20.2c4.7-2.7,9.9-4.4,15.2-5.2c1.3-0.2,2.6-0.4,4-0.4c5.3,0.1,10.5,1.8,14.9,4.8
						c2.4,1.6,4.6,3.3,6.7,5.3c2.1,2.1,4.1,4.3,5.9,6.6c3.6,4.7,6.5,9.8,8.7,15.3c2,4.7,3.1,9.7,3.3,14.8c0,1.8-0.2,3.6-0.6,5.4
						c-0.4,1.5-1.1,3-2.1,4.3c-2,2.5-5.1,3.8-9.1,3.9c-4.5,4.4-9.7,8-15.4,10.7C744.5,247.4,739.7,248.6,734.8,248.6L734.8,248.6z
						 M1243.6,240.4L1243.6,240.4c-4.9,0-9.8-1.3-14.1-3.6c-4.5-2.4-8.5-5.6-11.9-9.5c-7-8-11.7-17.7-13.4-28.2
						c-1.2-7.8-0.4-15.1,2.5-20.9c1.5-3.1,3.6-5.9,6.2-8.1c2.9-2.5,6.3-4.3,10-5.4c6.6-2.9,13.7-4.4,20.9-4.6
						c4.2,0,8.4,0.7,12.4,2.1c3.6,1.3,6.9,3.3,9.8,5.8c2.8,2.5,5.2,5.4,7.1,8.6c1.9,3.3,3.3,6.9,4.3,10.6c2.3,9.4,1.6,19.3-2.1,28.2
						c-4,9.8-11.3,17.9-20.7,22.8C1251,239.6,1247.3,240.3,1243.6,240.4L1243.6,240.4z M352.3,227.6L352.3,227.6
						c-3.3,0-6.7-0.3-9.9-0.8c-3.7-0.4-7.2-1.6-10.4-3.5c-2.8-1.8-5.2-4.2-7.1-7c-3.6-5.9-5.3-12.8-4.7-19.7c0.2-3.5,0.9-6.9,2-10.2
						c1.1-3.2,2.6-6.1,4.7-8.8c1.9-2.5,4.4-4.6,7.2-6.2c2.9-1.5,6.2-2.3,9.5-2.3c3.4,0,6.7,0.7,9.9,2c5.3,1,10.5,2.8,15.3,5.2
						c3.9,2,7.4,4.7,10.4,7.9c5.1,5.7,7.6,12.6,6.9,19.4c-0.7,6.7-4.2,12.7-9.6,16.7C370.3,225.1,362,227.6,352.3,227.6L352.3,227.6
						z M46.5,217.1L46.5,217.1c-3.4,0-6.8-0.7-10-2.1c-3.1-1.4-5.9-3.3-8.3-5.7c-2.5-2.4-4.5-5.2-6.2-8.3c-1.7-3.1-2.8-6.4-3.5-9.8
						c-0.6-3-0.8-6.1-0.5-9.2c0.3-3,1.1-6,2.4-8.8c1.4-2.9,3.3-5.5,5.6-7.7c2.7-2.5,5.8-4.5,9.2-5.8c4.1-1.8,7.5-3.2,10.3-4.2
						c2.4-0.9,5-1.4,7.5-1.5c2.8,0,5.5,0.9,7.8,2.4c3.3,2.2,6.3,4.8,9.1,7.6c2.7,0.7,5.1,2.5,6.4,5c1.5,2.8,2.2,6,2.3,9.2
						c0.1,3.5-0.3,7-1,10.4c-0.8,3.6-2,7-3.5,10.3c-1.4,3.1-3.3,6-5.5,8.5c-1.9,2.2-4.2,3.9-6.9,5C57.1,215.4,51.9,217,46.5,217.1
						L46.5,217.1z M908.4,216.4c-3.4,0-6.8-0.5-10-1.7c-3.1-1.1-5.9-2.9-8.2-5.3c-2.3-2.4-4-5.2-5.1-8.4c-1.3-3.9-1.8-7.9-1.7-12
						c-1-3.4-1-6.9-0.1-10.3c0.9-3.5,2.6-6.7,4.8-9.5c1.7-2.2,3.6-4.3,5.7-6.1c2.1-1.8,4.5-3.4,6.9-4.8c2.4-1.3,4.9-2.4,7.5-3.1
						c2.4-0.7,4.9-1.1,7.4-1.1c5.9,0,10.5,2.4,13.2,6.9c1.7,1.8,3.9,2.5,6.1,3.1c1.9,0.6,3.6,1.1,4.9,2.3c1.4,1.4,1.9,3.6,1.7,6.8
						c1.8,5,2.3,10.4,1.6,15.7c-0.7,4.6-2.5,8.9-5.2,12.6c-3.4,4.7-8,8.4-13.2,10.9c-2.6,1.3-5.3,2.2-8.1,2.9
						C913.9,216,911.1,216.4,908.4,216.4L908.4,216.4L908.4,216.4z M1103.3,209.6L1103.3,209.6c-4.9,0-9.8-1.3-14.1-3.6
						c-4.5-2.4-8.5-5.6-11.9-9.5c-7-8-11.7-17.7-13.4-28.2c-1.2-7.8-0.4-15.1,2.5-20.9c1.5-3.1,3.6-5.9,6.2-8.1
						c2.9-2.5,6.3-4.3,10-5.4c6.6-2.9,13.7-4.4,20.9-4.6c4.2,0,8.4,0.7,12.4,2.1c3.6,1.3,6.9,3.3,9.8,5.8c2.8,2.5,5.2,5.4,7.1,8.6
						c1.9,3.3,3.3,6.9,4.3,10.6c2.3,9.4,1.6,19.3-2.1,28.2c-4,9.8-11.3,17.9-20.7,22.8C1110.8,208.9,1107.1,209.6,1103.3,209.6
						L1103.3,209.6z M238.6,193.9L238.6,193.9c-11.4,0-21.2-4.3-28.4-12.3c-3.3-3.7-5.9-8-7.7-12.6c-1.8-4.6-2.9-9.5-3.1-14.5
						c-0.2-2.7-0.1-5.4,0.3-8c0.3-2.6,0.9-5.2,1.7-7.7c0.8-2.5,1.8-4.9,3.1-7.1c1.3-2.2,2.8-4.3,4.6-6.2c3.1-3.2,6.8-5.8,10.9-7.5
						c4.8-1.9,9.9-2.9,15.1-2.8c5.4,0.1,10.8,0.8,16,2.3c2.9,0.4,5.7,1.5,8.1,3.3c2.4,1.9,4.4,4.3,5.9,7c1.7,3,3,6.3,3.8,9.7
						c0.9,3.7,1.5,7.5,1.7,11.3c0.3,4.8,0,9.7-0.8,14.5c-0.7,4.6-2,9.2-3.9,13.5c-1.6,3.9-4,7.5-6.9,10.5c-2.7,2.8-6.1,4.8-9.9,5.7
						C245.6,193.5,242.1,193.9,238.6,193.9z M1379.8,189.4L1379.8,189.4c-2.4,0-4.8-0.1-7.2-0.4c-4.4,0-8.8-0.8-12.9-2.2
						c-3.3-1.1-6.2-3-8.7-5.4c-4.2-4.2-6.4-10-6.3-16.9c0.1-9.4,4.5-19.8,11.8-28c1.8-2,3.8-3.9,5.9-5.6c2.1-1.7,4.4-3.1,6.7-4.4
						c4.8-2.5,10.1-3.8,15.5-3.9c0.5,0,1.1,0,1.6,0c4.9,1.3,9.5,3.5,13.5,6.5c3.7,2.7,6.9,6.1,9.4,9.9c2.4,3.6,4.1,7.7,5.1,11.9
						c1,4.1,1.2,8.2,0.7,12.4c-0.5,3.5-1.5,6.9-3.2,10c-1.7,3.2-4,6-6.8,8.3c-3.1,2.5-6.7,4.5-10.6,5.7
						C1389.6,188.7,1384.7,189.4,1379.8,189.4L1379.8,189.4z M629.3,180.4c-5,0-9.9-1.1-14.3-3.3c-4.2-2.1-7.8-5.1-10.8-8.7
						c-3-3.7-5.4-7.8-7.1-12.3c-1.7-4.5-2.8-9.2-3.1-14c-0.8-11.6,2.4-22.2,8.9-29.2c2.6-2.8,5.9-5.1,9.4-6.6
						c4.1-1.7,8.5-2.5,13-2.5c1.6,0,3.1,0.1,4.7,0.3c1.4-0.2,2.8-0.2,4.2-0.2c4,0,8,0.7,11.7,2.2c3.3,1.4,6.4,3.5,8.9,6.1
						c1.8,1.9,3.4,3.9,4.7,6.2c1.3,2.3,2.5,4.7,3.3,7.3c1.7,5.3,2.6,10.8,2.4,16.4c-0.1,4.8-0.8,9.5-2.2,14
						c-1.3,4.4-3.4,8.5-6.1,12.2c-5.4,7.6-14.3,12.1-23.6,11.9c-0.3,0-0.5,0-0.8,0C631.3,180.3,630.3,180.4,629.3,180.4L629.3,180.4
						z M795,154.9L795,154.9c-6.1,0-12.2-1-17.9-3.1c-5.3-1.8-10-4.8-13.8-8.9c-1.9-2.1-3.3-4.6-4.2-7.3c-0.9-2.9-1.2-5.9-0.8-8.9
						c1.1-5.5,3.1-10.7,6-15.6c2.5-4.1,5.6-7.8,9.4-10.8c6.7-5.4,15.1-8.4,23.8-8.4c5.2,0,10.3,1.1,15,3.2c2.3,1.1,4.4,2.4,6.4,4
						c2,1.6,3.7,3.4,5.2,5.4c2.9,4.1,4.7,8.9,5.3,13.9c0.6,6.2-0.2,12.5-2.3,18.4c-0.9,3-2.5,5.7-4.6,8c-2.1,2.3-4.6,4.2-7.4,5.6
						c-3,1.5-6.1,2.6-9.4,3.3C802.1,154.5,798.6,154.9,795,154.9L795,154.9z M414,151.9L414,151.9c-6.4-0.1-12.8-0.9-19-2.4
						c-2-1.6-3.7-3.5-5.1-5.6c-1.9-2.6-3.5-5.3-4.9-8.2c-1.4-3-2.6-6-3.4-9.2c-0.8-2.8-1-5.8-0.7-8.7c0.2-1.8,0.9-3.6,1.9-5.1
						c1.1-1.6,2.7-2.7,4.5-3.4c0.7,0,1.5-1.4,2.4-3.6c0.7-1.9,1.2-4,1.3-6.1c3.1-7,6.7-12.3,10.8-15.7c3.2-2.9,7.4-4.6,11.8-4.7
						c6.6,0,13.6,4,19.6,11.4c5.8,7.3,9.7,15.9,11.5,25c0.9,4.8,1,9.7,0.2,14.4c-0.7,4.5-2.6,8.7-5.5,12.3c-2.7,3.1-6.1,5.5-9.9,7
						C424.6,151.1,419.3,152,414,151.9L414,151.9z M-26.4,121.1L-26.4,121.1c-3.3,0-6.7-0.3-9.9-0.8c-3.7-0.4-7.2-1.6-10.4-3.5
						c-2.8-1.8-5.2-4.2-7.1-7c-3.6-5.9-5.3-12.8-4.7-19.7c0.2-3.5,0.9-6.9,2-10.2c1.1-3.2,2.6-6.1,4.7-8.8c1.9-2.5,4.4-4.6,7.2-6.2
						c2.9-1.5,6.2-2.3,9.5-2.3c3.4,0,6.7,0.7,9.9,2c5.3,1,10.5,2.8,15.3,5.2c3.9,2,7.4,4.7,10.4,7.9C5.5,83.4,8,90.3,7.3,97.2
						c-0.7,6.7-4.2,12.7-9.6,16.7C-8.4,118.6-16.8,121.1-26.4,121.1z M973.3,119.6L973.3,119.6c-2.2-0.1-4.3-0.9-6-2.2
						c-3.1-0.8-6-2.4-8.4-4.6c-2.3-2.1-4.1-4.7-5.3-7.6c-1.3-3.1-2.1-6.3-2.4-9.7c-0.3-3.6-0.3-7.2,0.2-10.8c0.6-4.5,1.8-8.8,3.5-13
						c1.6-4.1,3.9-7.9,6.6-11.4c2.6-3.3,5.7-6,9.3-8.1c3.6-2,7.6-3.1,11.7-3.1c3.6,0,7.2,0.8,10.5,2.2c7.3,1.5,13.9,5.7,18.4,11.7
						c4.3,5.6,6.7,12.4,7,19.5c0.1,3.1-0.2,6.2-0.9,9.2c-0.8,3-2,5.9-3.7,8.4c-1.8,2.7-4,5-6.5,6.9c-2.9,2.1-6.1,3.7-9.5,4.7
						c-1.6-1.1-3.4-1.7-5.3-1.7c-3.6,0-6.6,2.4-9.6,4.7l0,0l0,0c-1.4,1.2-3,2.3-4.6,3.3C976.8,119.1,975,119.6,973.3,119.6
						L973.3,119.6z M1313.9,117.4c-6.4-0.1-12.8-1.2-18.9-3.3c-1.6-0.6-3.5-2.2-5.4-4.8c-2-2.8-3.7-5.8-5.1-9
						c-1.5-3.4-2.7-6.9-3.5-10.4c-0.8-3-1-6.1-0.6-9.2c0.2-1.5,0.8-2.9,1.8-4c1.1-1,2.5-1.6,4-1.5c0.2,0,0.5,0,0.7,0
						c-0.5-3.4,0.5-6.5,1.5-9.6c0.9-2.4,1.4-4.9,1.6-7.5c3.5-4.2,7.7-7.7,12.4-10.4c3.5-2,7.4-3.1,11.5-3.2c3.8,0,7.6,1.1,10.9,3.1
						c3.4,2.1,6.4,4.9,8.8,8.2c2.6,3.6,4.7,7.5,6.2,11.6c1.6,4.3,2.7,8.8,3.1,13.4c0.3,2.6,0.3,5.2,0.2,7.8c-0.1,2.5-0.5,5-1.1,7.4
						c-1.1,4.7-3.3,9-6.5,12.6c-2.5,2.7-5.5,4.8-8.9,6.2C1322.6,116.7,1318.2,117.5,1313.9,117.4L1313.9,117.4L1313.9,117.4z
						 M1193.9,117.4c-9.8,0-18.4-2.9-24.8-8.5c-3-2.6-5.4-5.6-7.3-9.1c-1.8-3.4-3-7.1-3.6-10.9c-1.2-8.6,0.8-17.3,5.7-24.5
						c2.7-4,6.2-7.5,10.1-10.3c4.7-3.3,9.9-5.7,15.3-7.3c2.5-0.4,5.1-0.6,7.7-0.6c4.9,0,9.7,0.8,14.3,2.5
						c8.2,3.1,15.2,8.9,19.6,16.5c2.1,3.6,3.6,7.5,4.3,11.5c0.7,3.6,0.8,7.3,0.3,10.9c-0.5,3.7-1.7,7.2-3.5,10.5
						c-2,3.5-4.5,6.6-7.6,9.2c-3.6,3-7.7,5.4-12.1,7C1206.4,116.3,1200.2,117.3,1193.9,117.4L1193.9,117.4z M529.3,115.9
						c-7.1,0-12.8-1.3-17.2-4c-2.6-1.5-4.8-3.6-6.6-6c-2.1-2.9-3.6-6.2-4.6-9.7c-1-5.9-1-12,0-17.9c0.8-4.3,2.6-8.3,5.4-11.7
						c4.4-5.1,11-7.7,19.1-7.7c8.5,0,18.2,3,26.5,8.2c3.9,2.4,7.4,5.3,10.4,8.8c2.8,3,4.8,6.7,6.1,10.6c1.3,4.4,1,9.2-1,13.4
						c-2.2,4.7-6.5,9.1-12.6,13c-1.1,0.2-2.3,0.4-3.4,0.6C544,114.6,536.5,115.9,529.3,115.9L529.3,115.9z M115.3,115.9L115.3,115.9
						c-3.1-0.1-6-0.8-8.8-2.2c-2.9-1.5-5.5-3.4-7.8-5.8c-4.3-4.5-6.6-9.9-6.4-14.7c-0.8-7-0.3-14.1,1.4-20.9
						c1.3-5.1,3.8-9.8,7.3-13.8c2.9-3.2,6.5-5.6,10.5-7.1c4-1.5,8.2-2.3,12.4-2.2c3.9,0,7.8,0.6,11.6,1.7c3.7,1.1,7.3,2.6,10.7,4.7
						c3.2,1.9,6.1,4.3,8.6,7.1c2.4,2.7,4.1,5.8,5.3,9.1c0.9,2.7,1.2,5.5,1,8.3c-0.2,3.1-1,6.1-2.3,8.9c-3,6.5-8.7,12.9-17,18.9
						c-0.5,0-1,0.1-1.5,0.1c-0.6,0-1.3,0-2,0H138c-0.8,0-1.6,0-2.5,0c-3.1,0-7.1,0.3-9.3,2.5c-1.3,1.8-3,3.2-5,4.2
						C119.4,115.5,117.4,115.9,115.3,115.9L115.3,115.9z M317.1,97.1L317.1,97.1c-5.2,0-10.3-0.9-15.2-2.7
						c-5.1-1.9-9.8-4.8-13.8-8.5c-4-5.3-6.4-11.6-6.8-18.2c-0.2-3,0.1-6,0.7-8.9c0.7-2.9,1.7-5.7,3-8.4c1.8-3.5,4-6.7,6.7-9.5
						c5.5-5.9,12.5-10.2,20.2-12.5c3.9-1.2,7.9-1.8,12-1.8c4.9,0,9.7,0.9,14.2,2.7c5,2,9.6,5,13.5,8.7c5.1,5.8,8.2,12,9.3,18.2
						c0.5,2.8,0.5,5.7,0.2,8.6c-0.4,2.8-1.2,5.5-2.3,8c-1.7,3.6-4,6.9-6.7,9.8c-2.9,3-6.2,5.6-9.9,7.7c-3.8,2.2-7.8,3.9-12,5
						C325.9,96.5,321.5,97.1,317.1,97.1z M718.1,75.4c-1.9,0-3.7-0.2-5.6-0.6c-3.9-1.5-7.5-3.8-10.4-6.9c-3.4-3.5-6.3-7.4-8.6-11.6
						c-2.4-4.4-4.3-9.1-5.7-13.9c-1.3-4.5-1.9-9.1-1.7-13.8c0.1-3.9,1.2-7.8,3.3-11.1c2.2-3.2,5.5-5.4,9.3-6.1
						c3.4-0.7,6.5-2.5,9.5-4.2c1.9-1.1,3.8-2.2,5.8-3.1c2-0.9,4.2-1.4,6.3-1.4c2.7,0,5.3,0.8,7.7,2.1c3.9,1,7.5,2.8,10.6,5.3
						c2.8,2.3,5.1,5.2,6.7,8.5c1.6,3.3,2.7,6.9,3.2,10.6c0.5,3.8,0.5,7.7,0,11.6c-0.6,4.4-1.7,8.7-3.4,12.8c-1.6,4-3.8,7.8-6.6,11.1
						c-2.5,3.2-5.7,5.8-9.2,7.8C726,74.4,722.1,75.4,718.1,75.4L718.1,75.4L718.1,75.4z M861.3,68.6L861.3,68.6
						c-2.3,0-4.5-0.2-6.7-0.7c-2.2-0.5-4.4-1.2-6.4-2.2c-4.3-2.1-8-5.3-10.7-9.3c-4.9-4.6-8.1-9.4-9.5-14.3c-1.3-4.4-1-9,0.6-13.3
						c1.2-2.9,2.9-5.5,5-7.8c2.2-2.4,4.8-4.5,7.7-6.2c6-3.6,12.9-5.4,19.9-5.5c3,0,5.9,0.4,8.8,1.1c6.1,1.6,11.6,5,15.7,9.7
						c2.4,2.8,4.4,5.8,5.9,9.2c2.1,3.9,3.1,8.2,3,12.6c-0.2,3.9-1.4,7.7-3.4,11c-1.5,2.4-3.3,4.6-5.4,6.4c-2.2,1.9-4.6,3.6-7.2,4.9
						c-2.7,1.4-5.5,2.4-8.3,3.2C867.3,68.3,864.3,68.6,861.3,68.6z M646.8,34.1c-4.2,0-8.4-0.8-12.3-2.2c-4-1.5-7.8-3.5-11.3-6
						c-3.5-2.5-6.5-5.5-9.2-8.8c-2.6-3.2-4.6-6.8-6.1-10.6c-1-2.6-1.6-5.2-1.9-8c-0.3-2.7-0.1-5.4,0.4-8c1.4-5.9,4.6-11.1,9.2-15
						c0.6-1.4,1.4-2.7,2.4-3.8c0.8-1,1.8-1.8,2.9-2.5c2.2-1.2,4.6-1.8,7.1-1.8c5.5,0,11.8,2.3,18,4.5c5.7,2,11.1,4,15.8,4.2
						c4.9,1.5,9.1,4.8,11.6,9.2c1.1,2.1,1.9,4.3,2.4,6.6c0.4,2.4,0.6,4.9,0.4,7.4c-0.6,7.9-3.3,15.4-7.8,21.9
						c-2,3.1-4.5,5.8-7.4,8.2c-2.5,2.1-5.5,3.5-8.7,4.3C650.6,34,648.7,34.2,646.8,34.1z M1103.3,27.4L1103.3,27.4
						c-2.2,0-4.3-0.3-6.4-0.8c-4.1-1.1-7.7-3.3-10.6-6.3c-1.5-1.5-2.7-3.3-3.8-5.2c-2.8-5.4-3.9-11.5-3.1-17.6
						c0.4-3.7,1.3-7.3,2.6-10.7c1.5-4.1,3.5-7.9,5.9-11.6c2.2-4,5.5-7.3,9.5-9.5c3.7-2,7.8-2.9,12-2.9c12.7,0,26,8.2,30.8,19.1
						c0.9,1.9,1.4,3.9,1.7,6c0.3,2.1,0.3,4.3-0.1,6.4c-1,5-3.4,9.5-6.9,13.2c-4.2,6.1-9.6,11.3-15.8,15.2c-2.5,1.5-5.2,2.7-8.1,3.5
						C1108.5,27,1105.9,27.4,1103.3,27.4L1103.3,27.4z M240.5,10.1L240.5,10.1c-6.3,0-11.6-0.9-15.7-2.7c-3.6-1.4-6.6-3.9-8.8-7.2
						c-3-4.7-3.8-11-2.6-18.8c1-6.5,3.5-14,7.4-22.2c3.9-4.3,8.5-7.8,13.6-10.5c3.9-2,8.1-3.1,12.5-3.2c3.5,0,7,0.8,10.1,2.3
						c3.1,1.5,5.9,3.7,8.1,6.3c2.4,2.7,4.3,5.7,5.7,9c1.4,3.4,2.3,7,2.7,10.7c0.4,3.8,0.1,7.7-0.9,11.4c-1,3.8-2.7,7.5-5,10.7
						c-2.6,3.5-6,6.5-9.8,8.7c-4.7,2.7-9.7,4.5-15,5.4C242,10.1,241.2,10.1,240.5,10.1z"/>
				</g>
			</g>
		</g>
	</g>
</g>
</svg>
