<?xml version="1.0" encoding="utf-8"?>
<!-- Generator: Adobe Illustrator 20.1.0, SVG Export Plug-In . SVG Version: 6.00 Build 0)  -->
<svg version="1.1" id="Layer_1" xmlns="http://www.w3.org/2000/svg" xmlns:xlink="http://www.w3.org/1999/xlink" x="0px" y="0px"
	 viewBox="0 0 1440 809.9" style="enable-background:new 0 0 1440 809.9;" xml:space="preserve">
<style type="text/css">
	.st0{fill:#25B89D;}
	.st1{clip-path:url(#SVGID_2_);}
	.st2{fill:#303D78;}
</style>
<g>
	<g id="Mask_Group_13" transform="translate(9.869 125.423)">
		<g id="pattern_01" transform="translate(-94 -637.801)">
			<rect id="Mask-3" x="84.1" y="512.4" class="st0" width="1440" height="809.9"/>
			<g id="Group_9">
				<defs>
					<rect id="SVGID_1_" x="84.1" y="512.4" width="1440" height="809.9"/>
				</defs>
				<clipPath id="SVGID_2_">
					<use xlink:href="#SVGID_1_"  style="overflow:visible;"/>
				</clipPath>
				<g id="Mask_Group_15" class="st1">
					<path id="Fill_1" class="st2" d="M813.9,1428.7L813.9,1428.7c-3.4,0-6.8-0.7-9.9-1.9c-3.5-1.5-6.6-3.6-9.3-6.2
						c-3.6-9.3-5.2-18.1-4.7-26.1c0.2-3.5,0.9-7,2-10.3c1-3,2.4-5.8,4.2-8.4c1.5-2.2,3.3-4.2,5.3-6c1.9-1.7,4-3.1,6.3-4.3
						c4.3-2.3,9.1-3.5,14-3.5c3.5,0,6.9,0.6,10.1,2c3.2,1.3,6.1,3.4,8.4,6c5.5,6.2,7.7,15.3,6.4,26.3c-0.3,4.4-1.4,8.8-3.4,12.8
						c-1.8,3.8-4.3,7.3-7.4,10.3c-2.9,2.9-6.4,5.2-10.2,6.9C821.9,1427.9,817.9,1428.7,813.9,1428.7z M955.6,1412.2L955.6,1412.2
						c-4.2,0-8.5-0.8-12.5-2.1c-4.3-0.7-8.4-2.6-11.8-5.4c-3.4-2.9-6.1-6.4-8-10.3c-2.1-4.2-3.5-8.8-4.3-13.4
						c-0.8-4.8-1-9.7-0.6-14.6c0.3-4.2,1.2-8.4,2.5-12.4c1.2-3.8,3-7.3,5.3-10.5c2.1-3,4.9-5.5,8-7.3c3.3-1.8,7-2.8,10.8-2.7
						c2.4,0,4.7,0.3,7,0.9c5.7,0.4,11.2,2.1,16.2,4.9c4.4,2.5,8.2,5.8,11.1,9.9c2.9,4,5,8.4,6.2,13.1c1.3,4.7,1.8,9.6,1.6,14.5
						c-0.2,4.5-1,9-2.5,13.2c-1.4,4.1-3.5,7.9-6.2,11.3c-2.6,3.3-6,6-9.7,7.9C964.5,1411.3,960.1,1412.3,955.6,1412.2L955.6,1412.2z
						 M686.8,1352.3L686.8,1352.3c-1.1,0-2.2-0.1-3.3-0.2c-5.8-0.6-11.3-2.3-16.4-5c-4.3-2.4-8-5.7-10.9-9.6
						c-2.7-3.8-4.7-8.1-5.9-12.6c-1.2-4.6-1.6-9.3-1.3-14c0.3-4.7,1.2-9.4,2.8-13.8c1.5-4.3,3.7-8.3,6.5-11.9
						c2.6-3.4,5.9-6.3,9.7-8.4c3.8-2.1,8.1-3.2,12.4-3.2c4.7,0.1,9.3,1.2,13.5,3.2c5.5,2.7,10.6,6.2,15,10.4c2.7,2,5,4.5,6.6,7.5
						c1.7,3,2.8,6.2,3.4,9.6c0.6,3.5,0.7,7.1,0.4,10.7c-0.7,7.5-3.1,14.6-6.9,21.1c-1.9,3.1-4.2,6-6.8,8.5c-2.5,2.4-5.4,4.4-8.6,5.8
						C693.7,1351.5,690.3,1352.2,686.8,1352.3z M1487.5,1343.3c-3.6,0-7.2-0.5-10.6-1.6c-3.5-1.1-6.9-2.7-9.8-4.9
						c-3.2-2.3-6-5.2-8.1-8.5c-2.5-3.9-4.4-8.1-5.5-12.6c-1.2-3-1.6-6.2-1.1-9.4c0.5-3,1.7-5.9,3.4-8.4c1.7-2.4,3.7-4.5,5.9-6.3
						c2.4-1.9,5-3.5,7.8-4.8c5.6-2.7,11.8-4.1,18-4.2c3.9-0.1,7.8,0.7,11.4,2.3c3.4,1.6,6.3,4.1,8.2,7.4c5.9,6.1,9.8,12.2,11.5,18.2
						c0.8,2.6,1.1,5.4,0.9,8.1c-0.1,2.5-0.7,4.9-1.7,7.2c-1.1,2.7-2.8,5.1-4.8,7.2c-2.1,2.2-4.5,4-7.2,5.5c-2.8,1.5-5.7,2.7-8.8,3.5
						C1494,1342.8,1490.8,1343.3,1487.5,1343.3L1487.5,1343.3L1487.5,1343.3z M257.6,1335.8L257.6,1335.8c-5.2,0-10.4-1.2-15.1-3.4
						c-4.8-4.5-8.8-9.9-11.7-15.8c-1.3-2.7-2.3-5.6-2.9-8.6c-0.6-2.8-0.7-5.7-0.3-8.5c0.5-3.7,1.9-7.1,4.1-10.1
						c2.7-3.5,6.1-6.3,10-8.4c4.6-2.6,9-5.6,13-8.9c4-3.2,6.7-5.3,10.2-5.3c3.8,0,8.4,2.5,16.6,8.9c3,2.3,5.7,5.1,7.9,8.2
						c1.9,2.7,3.4,5.7,4.3,8.8c0.9,2.9,1.2,6,1.1,9c-0.1,3-0.7,6-1.7,8.8c-2.6,7.2-7.3,13.4-13.5,17.8c-3.2,2.3-6.6,4.1-10.3,5.4
						C265.6,1335.1,261.6,1335.7,257.6,1335.8L257.6,1335.8z M462.8,1335L462.8,1335c-3.1,0-6.2-0.6-9.1-1.8
						c-3.3-1.4-6.2-3.4-8.8-5.8c-3.3-1.8-6.3-4.2-8.8-6.9c-2.2-2.4-3.9-5.3-5.1-8.3c-2.2-5.9-2.5-12.3-0.8-18.4
						c1-3.7,2.6-7.3,4.6-10.5c2.1-3.3,4.7-6.3,7.7-8.8c3-2.6,6.5-4.6,10.2-6.1c3.9-1.5,7.9-2.3,12.1-2.3c4.6,0,9.1,0.9,13.4,2.6
						c3.9,0.8,7.6,2.2,11,4.3c2.8,1.7,5.2,3.9,7,6.5c1.7,2.4,2.9,5.2,3.5,8.1c0.6,3,0.7,6.1,0.4,9.1c-0.3,2.3-0.7,4.6-1.4,6.9
						c-0.7,2.3-1.6,4.6-2.7,6.8c-2.2,4.5-5.1,8.7-8.5,12.3c-1.7,1.8-3.5,3.5-5.5,5c-1.9,1.5-3.9,2.8-6.1,3.9
						C471.9,1333.8,467.4,1334.9,462.8,1335L462.8,1335z M1312.6,1329.8L1312.6,1329.8c-3.4,0-6.8-0.5-10.1-1.3
						c-3.4-0.8-6.7-2.1-9.9-3.6c-2.9-1.4-5.7-3.2-8.1-5.4c-2.1-1.8-3.7-4.1-4.7-6.7c-2.8-4.4-4.4-9.4-4.6-14.6
						c0-2.2,0.2-4.5,0.8-6.7c0.6-2.1,1.4-4.1,2.5-6c1.4-2.5,3.2-4.8,5.2-6.7c2.1-2,4.4-3.8,7-5.2c2.6-1.4,5.3-2.6,8.1-3.3
						c2.8-0.8,5.7-1.2,8.6-1.2c2.5,0,5,0.3,7.5,1c2.5,0.7,4.8,1.7,7,3.1c4.9,3.2,8.6,7.9,10.7,13.3c1.7,3.7,3.2,7.4,4.5,11.3
						c0.9,2.6,1.3,5.3,1.1,8c-0.3,2.5-1.3,5-2.8,7.1c-2.1,3-4.5,5.8-7.2,8.3c-0.8,2.9-2.8,5.4-5.5,6.7c-1.5,0.7-3,1.2-4.6,1.5
						C1316.2,1329.6,1314.4,1329.8,1312.6,1329.8L1312.6,1329.8z M88.9,1320L88.9,1320c-4.1,0-8.2-0.7-12.1-2
						c-4.2-1.3-8.2-3.1-11.9-5.3c-3.7-2.2-7.2-4.9-10.3-8c-2.9-2.9-5.4-6.2-7.3-9.8c-2-3.7-3-7.9-2.9-12.1c0.2-4.5,1.8-8.8,4.4-12.4
						c4.2-5.5,9.5-10,15.7-13.1c2.7-1.4,5.6-2.4,8.6-3.1c2.8-0.7,5.7-1,8.6-1c6.8,0,13.4,1.8,19.2,5.2c5.6,3.2,10.2,8.1,13.1,13.9
						c1.3,2.7,2.2,5.7,2.7,8.7c0.5,3.2,0.5,6.5-0.1,9.7c-1.1,7.2-4.5,14.5-10.2,21.7c-2.1,2.5-4.8,4.5-7.8,5.7
						C95.6,1319.4,92.3,1320.1,88.9,1320z M1045,1317.8L1045,1317.8c-3.6,0-7.1-0.9-10.3-2.5c-4.9-2.4-9.4-5.5-13.4-9.1
						c-3.3-3-6.2-6.6-8.3-10.6c-1.9-3.4-3.1-7.2-3.7-11.1c-0.5-3.5-0.4-7.1,0.4-10.6c0.6-2.7,1.7-5.2,3.1-7.6
						c1.4-2.3,3.2-4.4,5.4-6.1c4.7-3.7,10.5-5.6,16.4-5.5c3.9,0,7.8,0.7,11.6,2c4.6,1.5,8.9,3.7,13,6.3c2.8,1.5,5.2,3.5,7.3,5.9
						c1.8,2.3,3.3,4.8,4.2,7.6c0.9,2.8,1.4,5.6,1.4,8.6c0,3-0.3,5.9-1.1,8.8c-1.6,6.3-4.8,12-9.4,16.6c-2.2,2.2-4.7,3.9-7.5,5.2
						C1051.1,1317.1,1048.1,1317.7,1045,1317.8L1045,1317.8z M872.1,1312.5L872.1,1312.5c-5,0-10.1-0.3-14.9-0.7
						c-3.9-0.3-7.5-0.5-10.7-0.5c-4.1-1.5-8-3.6-11.4-6.2c-2.9-2.2-5.3-5-7.1-8.1c-1.7-2.9-2.8-6.1-3.2-9.3c-0.5-3.3-0.4-6.7,0.2-10
						c1.7-9.4,7.4-18.9,15.6-26.1c4.1-3.6,8.8-6.5,13.9-8.6c5.2-2.1,10.8-3.2,16.4-3.3c4.3,0,8.6,0.7,12.8,2
						c2.2,0.7,4.3,1.6,6.2,2.8c1.7,1.1,3.3,2.5,4.6,4c2.6,3.1,4.5,6.8,5.6,10.7c2.3,8.1,2.4,17.7,2.4,26.2c0,3,0,5.9,0.1,8.6
						c-0.3,3.4-1.5,6.6-3.4,9.3c-1.8,2.4-4.2,4.3-6.9,5.6c-3,1.4-6.1,2.3-9.3,2.7C879.2,1312.3,875.7,1312.5,872.1,1312.5
						L872.1,1312.5z M1155.9,1300.5c-7,0.1-13.6-3.1-18-8.5c-4.4-5.6-7-12.5-7.4-19.6c-0.3-4.2,0-8.3,0.9-12.4
						c0.9-4.1,2.5-8,4.8-11.5c2.3-3.6,5.4-6.7,8.9-9c4-2.6,8.5-4.3,13.3-5c2-0.5,4.1-0.8,6.3-0.8c3.2,0,6.4,0.7,9.2,2.1
						c2.7,1.4,5.1,3.3,7.1,5.6c2,2.4,3.7,5.2,4.9,8.1c1.3,3.1,2.1,6.4,2.6,9.7c0.6,4,0.6,8.1,0,12.1c-0.5,4-1.6,7.8-3.3,11.4
						c-1.6,3.5-3.8,6.7-6.6,9.3c-2.9,2.7-6.3,4.6-10.1,5.7C1164.5,1299.5,1160.3,1300.4,1155.9,1300.5L1155.9,1300.5z M587.4,1287.8
						c-5.2-0.1-10.3-0.8-15.3-2.1c-8.7-4-14.8-9.1-18.3-15.2c-1.5-2.7-2.5-5.7-2.9-8.8c-0.4-3-0.2-6.1,0.5-9.1
						c1.1-4.5,3-8.8,5.6-12.7c2.8-4,6.1-7.7,9.9-10.8c3.8-3.1,7.9-5.6,12.4-7.5c4.2-1.8,8.7-2.7,13.2-2.8c2.8,0,5.6,0.4,8.2,1.3
						c2.7,0.9,5.2,2.4,7.3,4.3c4.8,4.2,8.2,10.5,10.2,18.8c-0.3,1.6-0.7,3.2-1,4.7c-2.5,11.6-4.6,21.6-8.8,28.7
						c-1.9,3.4-4.7,6.3-8.1,8.2C596.3,1286.9,591.9,1287.9,587.4,1287.8L587.4,1287.8L587.4,1287.8z M1405.8,1275.8L1405.8,1275.8
						c-6.6,0-13.2-1.7-19-4.9c-5.8-3.2-10.7-7.9-14.2-13.6c-1.9-3.1-3.4-6.5-4.4-10.1c-1.1-3.8-1.6-7.8-1.6-11.8
						c0-8.9,2.4-18.3,7.3-27.9c0.9-3.1,2.6-5.9,4.9-8.2c2.5-2.5,5.4-4.6,8.6-6.1c7-3.4,14.6-5.1,22.3-5.2c5.9,0,11.2,1.1,15.2,3.2
						c2,1,3.8,2.4,5.2,4.2c1.4,1.7,2.4,3.8,2.8,6c2.3,4.2,4,8.6,5.1,13.3c1.1,4.6,1.7,9.3,2.3,13.9v0c0.5,3.7,1,7.6,1.8,11.3
						c0.7,3.7,1.8,7.4,3.2,10.9c-2.4,4.1-5.3,7.9-8.6,11.3c-2.9,3-6.2,5.6-9.8,7.8c-3.3,2-6.8,3.5-10.5,4.5
						C1413,1275.3,1409.4,1275.8,1405.8,1275.8z M347.5,1268.3L347.5,1268.3c-4.3,0-8.5-0.8-12.6-2.2c-4.2-1.5-8.2-3.6-11.7-6.2
						c-3.6-2.6-6.6-5.9-9-9.6c-2.4-3.7-3.9-7.9-4.3-12.3c1-6,3-11.8,5.8-17.2c2.5-4.6,5.8-8.6,9.7-12c3.5-3.1,7.6-5.5,11.9-7.1
						c4-1.5,8.3-2.3,12.7-2.3c4.7,0,9.4,1,13.6,3.1c2,1,3.9,2.3,5.6,3.8c1.7,1.5,3.2,3.3,4.4,5.3c1.4,2.3,2.4,4.9,3,7.5
						c0.7,3,0.9,6.1,0.7,9.2c-0.4,7.1-2.9,15-7.3,23.4c-0.6,2.7-1.8,5.2-3.3,7.5c-1.4,2-3.1,3.8-5.2,5.2c-2,1.3-4.2,2.4-6.6,3
						C352.5,1268,350,1268.3,347.5,1268.3z M190,1243.5L190,1243.5c-6.6,0-13.2-1-19.5-3c-3.1-1-6-2.3-8.8-3.9
						c-2.7-1.6-5.1-3.5-7.3-5.7c-2.4-2.5-4.3-5.5-5.5-8.8c-1.3-3.7-1.9-7.6-1.6-11.5c0.3-3.1,0.3-6.3,0-9.4l0,0
						c-0.3-3.1-0.3-6.3-0.1-9.5c0.3-3.4,1.2-5.8,2.6-7.3c0.7-0.8,1.6-1.4,2.6-1.7c1.2-0.4,2.5-0.7,3.8-0.6c0.3,0,0.6,0,0.9,0
						c4-2.7,8.3-4.7,12.8-6.2c4.5-1.5,9.2-2.5,13.7-3.5l0,0c3.7-0.8,7.5-1.7,11.1-2.7c3.7-1,7.2-2.4,10.6-4.1
						c4.7,1.2,9.1,3.7,12.6,7c3.8,3.5,6.9,7.7,9.2,12.4c2.4,4.8,4.2,10,5.1,15.3c0.5,2.6,0.8,5.3,0.9,8c0.1,2.6,0,5.2-0.3,7.8
						c-0.9,7.7-3.8,14.2-8.1,18.7c-2.4,2.5-5.3,4.4-8.5,5.7c-3.7,1.4-7.7,2.2-11.7,2.1c-1.1,0-2.2,0-3.3-0.1
						C197.7,1243.2,193.9,1243.5,190,1243.5z M1252.2,1237.5L1252.2,1237.5c-4.5,0-9-0.8-13.2-2.4c-4.3-1.7-8.1-4.3-11.3-7.6
						c-2.9-3-4.8-7.4-5.5-12.7c-0.3-2.6-0.4-5.3-0.2-7.9c0.2-2.7,0.6-5.4,1.3-8.1c1.2-4.7,3.2-9.1,6.1-13.1c1.3-1.8,2.9-3.4,4.7-4.8
						c1.7-1.3,3.6-2.3,5.7-2.9c5.2-1.2,12.9-2.8,20.2-2.8c2.8,0,5.6,0.3,8.3,0.9c2.5,0.5,5,1.6,7.1,3c2.2,1.4,4,3.4,5.3,5.7
						c1.5,2.8,2.5,5.8,2.8,9c2.7,4.4,4.3,9.4,4.5,14.5c0.1,4.3-1,8.6-3.1,12.4c-1.5,2.6-3.5,5-5.7,7c-2.4,2.1-5,3.9-7.8,5.3
						C1265.3,1235.9,1258.8,1237.5,1252.2,1237.5L1252.2,1237.5z M740,1230.8c-2.2-0.3-4.4-1-6.4-2c-2.1-1.1-4.1-2.5-5.8-4.2
						c-3.9-3.8-7-8.3-9.2-13.2c-1.5-3.3-2.7-6.7-3.6-10.2c-0.9-3.5-1.4-7-1.6-10.6c-0.3-7.5,1.3-14.1,4.5-19c1.9-3.1,4.2-6,6.8-8.4
						c2.5-2.3,5.4-4.3,8.4-5.8c3-1.5,6.2-2.6,9.5-3.4c3.3-0.7,6.7-1.1,10.2-1.1c4.3,0,8.6,0.5,12.8,1.6c4.2,1,8.3,2.5,12.2,4.5
						c3.8,1.9,7.4,4.3,10.6,7.1c3.2,2.7,5.9,5.9,8.2,9.4c3.3,5.1,5.4,10.9,5.9,16.9c0.5,6.9-0.8,13.7-3.7,20
						c-7.5,10.3-22.2,12.2-36.3,14h0c-4,0.5-8,1-11.8,1.7C747,1228.5,743.4,1229.5,740,1230.8z M1117.9,1209.8L1117.9,1209.8
						c-2.3,0-4.6-0.4-6.8-1.2c-2.2-0.8-4.3-1.9-6.2-3.3c-4-3-7.3-7-9.5-11.5c-1.5-3-2.6-6.2-3.3-9.5c-1.5-7.2-0.9-14.7,1.6-21.6
						c1.4-3.9,3.4-7.5,5.9-10.8c3-2.9,6.5-5.2,10.3-6.8c3.3-1.4,6.9-2.1,10.5-2.1c5.5,0,10.8,1.6,15.4,4.6c4.6,3,8.3,7.1,10.8,12
						c1.2,2.3,2.1,4.8,2.6,7.4c0.5,2.7,0.7,5.4,0.5,8.1c-0.2,2.9-0.9,5.8-2,8.5c-1.2,3-2.8,5.9-4.7,8.5c-3.8,6-8,10.5-12.5,13.5
						C1126.9,1208.3,1122.4,1209.7,1117.9,1209.8L1117.9,1209.8z M481.1,1205.3L481.1,1205.3c-4.2,0-8.3-0.8-12.2-2.4
						c-1.9-0.8-3.7-1.8-5.4-2.9c-1.7-1.2-3.2-2.5-4.6-4c-2.3-2.5-4.1-5.5-5.3-8.8c-1.2-3.6-1.7-7.4-1.3-11.2c-1-1.7-2.1-3.3-3.2-4.9
						c-2.1-3-4-5.9-4.7-8.9c-0.8-3.3,0-6.6,2.5-10.2c2.6-5,6.5-9.2,11.4-12c2.2-1.3,4.6-2.2,7.1-2.8c2.5-0.6,5.1-0.9,7.6-0.9
						c8.2,0.2,16.2,2.6,23.1,7c7.3,4.5,12.9,10.8,15.9,17.5c1.1,2.4,1.8,4.9,2.2,7.5c0.4,2.6,0.4,5.3,0,7.9
						c-0.9,5.7-3.7,11.2-8.3,16.3c-4.3,6.1-10.7,10.4-18,12C485.7,1205,483.4,1205.3,481.1,1205.3L481.1,1205.3z M949.4,1196.3
						L949.4,1196.3c-2.6,0-5.1-0.3-7.6-1c-2.5-0.7-5-1.8-7.2-3.2c-5.1-3.5-9.1-8.3-11.5-14c-0.1-1.2-0.1-2.4,0-3.5l0,0
						c0.1-2.1,0.1-4.3-0.2-6.4c-0.2-2-1-4-2.3-5.5c-2.4-3.7-4-7.9-4.6-12.3c-0.4-3.3,0.2-6.6,1.8-9.5c1.1-1.9,2.5-3.6,4.3-4.9
						c1.9-1.5,3.9-2.6,6.1-3.5c5.1-1.9,10.5-2.9,15.9-2.8c4.4,0,8.7,0.5,12.9,1.6c4.2,1,8.3,2.6,12.1,4.7c8.1,4.6,13.3,11.2,15.1,19
						c1,5,0.8,10.2-0.6,15.1c-0.7,2.3-1.6,4.6-2.7,6.7c-1.1,2.1-2.5,4.1-4,6c-3.4,4.2-7.7,7.6-12.5,10
						C959.8,1195,954.7,1196.2,949.4,1196.3L949.4,1196.3z M283.2,1179L283.2,1179c-1.2,0-2.5-0.2-3.6-0.6c-3.8-1-7.4-2.8-10.6-5.2
						c-2.7-2.1-5-4.8-6.7-7.8c-3.1-5.6-4.1-12.6-3.1-20.2c1.4-9.3,5.4-18.1,11.6-25.1c3-3.4,6.5-6.2,10.5-8.3
						c3.9-2.1,8.2-3.1,12.5-3.2c6.6,0,13.1,2.5,19.4,7.5c3.4,2.1,7.7,6.9,11,12c1.6,2.5,3,5.2,4,8c0.9,2.3,1.3,4.8,1,7.2
						c-2,6.1-4.7,11.9-8.1,17.4c-4.2,6.5-8.7,9.8-13.3,9.8c-1.6,0-3.2-0.4-4.6-1.1c-2.1,1.1-4.1,2.3-6.1,3.7
						C292.8,1176,288.2,1179,283.2,1179z M611.1,1172.3c-4.5,0-9.1-0.5-13.5-1.4c-4.5-0.9-8.9-2.2-13.1-3.9
						c-3.8-1.5-7.4-3.4-10.7-5.8c-2.7-1.8-4.8-4.4-6.2-7.3c-2.7-7.9-3.8-15-3.5-21.2c0.2-5.2,1.8-10.2,4.7-14.4
						c2.5-3.5,5.9-6.2,9.9-7.8c2-0.9,4.1-1.5,6.3-1.9c2.2-0.4,4.5-0.6,6.8-0.6c3.3,0,6.6,0.4,9.9,1.2c3.4,0.8,6.6,1.9,9.7,3.4
						c6.4,3,12,7.5,16.3,13.1c3.5,4.6,5.9,10,6.9,15.7c1.1,6.6,0.7,13.4-1.3,19.9c-0.4,1.9-1.4,3.7-2.7,5.1c-1.4,1.5-3.1,2.7-5,3.5
						c-2.1,0.9-4.4,1.6-6.7,2C616.4,1172.1,613.8,1172.3,611.1,1172.3z M1479.1,1159.5L1479.1,1159.5c-7.2,0-14.4-1.6-20.9-4.7
						c-6.2-2.9-11.5-7.5-15.3-13.3c-3.2-5.1-4.9-10.9-5-16.9c-0.1-6.7,1.6-14,5.1-21.4c3-7.5,7.4-13.3,13.2-17.2
						c2.7-1.8,5.6-3.1,8.6-4c3.1-0.9,6.2-1.3,9.4-1.3c6.7,0.1,13.3,1.7,19.2,4.6c6.3,3,12,7.3,16.6,12.5c2,2.3,3.8,4.7,5.4,7.3
						c1.6,2.6,2.9,5.4,3.9,8.2c2.1,5.9,2.9,12.3,2.2,18.6c-2,4.5-4.7,8.7-7.9,12.3c-3,3.4-6.5,6.2-10.3,8.6
						C1496,1157.3,1487.6,1159.6,1479.1,1159.5z M94.6,1152L94.6,1152c-3.1,0-6.2-0.5-9.2-1.6c-3.2-1.2-6.2-2.9-8.7-5.2
						c-4.9-3.6-8.4-8.9-9.8-14.8c-0.6-2.7-0.8-5.5-0.6-8.2c0.2-2.8,0.8-5.6,1.8-8.3c1.4-3.9,3.3-7.6,5.7-10.9
						c2.4-3.4,5.3-6.5,8.5-9.2c3-2.6,6.4-4.7,10.1-6.3c3.3-1.5,6.9-2.3,10.6-2.3c5.9,0,14.1,2.5,19.5,14.3c2,2.3,3.6,4.9,4.8,7.7
						c1.1,2.5,1.8,5.2,2,8c0.2,2.6,0.1,5.3-0.4,7.9c-0.5,2.6-1.3,5.1-2.5,7.5c-1.4,3-3.3,5.9-5.5,8.4c-2.2,2.6-4.7,4.8-7.5,6.7
						c-2.7,1.9-5.7,3.4-8.9,4.5C101.1,1151.5,97.9,1152,94.6,1152L94.6,1152z M1330.8,1146L1330.8,1146c-2.9,0-5.8-0.3-8.6-1
						c-2.8-0.7-5.6-1.7-8.1-3c-5.6-3-10.3-7.5-13.5-13c-3.4-6.3-5.2-13.4-5.2-20.5c0.2-6,1.9-11.9,5.1-17c2.1-3.4,4.7-6.5,7.7-9.2
						c3-2.7,6.4-5,10-6.9c3.6-1.9,7.4-3.3,11.3-4.3c3.8-1,7.7-1.5,11.6-1.5c7.6,0,14.3,2.1,19.3,5.9c2.7,2.1,4.9,4.8,6.5,7.8
						c1.8,3.5,2.9,7.4,3.2,11.3c2.5,5.2,3.6,11,3.2,16.7c-0.5,5.2-2.2,10.3-5.1,14.7C1360.5,1138,1345.5,1146,1330.8,1146
						L1330.8,1146z M723.7,1125l-49.6-0.9c-9-5.9-12.9-12.2-12.4-19.9c0.4-3.7,1.4-7.4,3.1-10.8c1.7-3.7,3.8-7.6,6.1-11.7l0,0
						l0.1-0.2c0.3-0.6,0.7-1.2,1-1.8c1-3,2.4-5.9,4.1-8.5c1.5-2.1,3.3-4,5.4-5.4c3.6-2.5,8-3.7,13.5-3.7c7.6,0,15.8,2.4,23.8,4.7
						c1.8,0.5,3.6,1,5.3,1.5c2.6,1.1,5,2.7,7.1,4.7c2,1.9,3.7,4.1,5.1,6.5c2.7,5,4.2,10.5,4.2,16.2c0,3-0.3,6-1,8.9
						c-0.7,2.9-1.7,5.7-3.1,8.3c-1.4,2.6-3.2,5-5.2,7.1C728.9,1122,726.4,1123.7,723.7,1125L723.7,1125z M1199.1,1121.3
						L1199.1,1121.3c-4.4-0.1-8.7-0.9-12.7-2.6c-4.2-1.7-8.2-4.1-11.7-7c-3.5-2.8-6.6-6.1-9.2-9.8c-2.4-3.4-4.2-7.2-5.2-11.3
						c-0.5-2.2-0.7-4.5-0.6-6.8c0.2-2.3,0.7-4.5,1.7-6.5c2.1-4.4,6-8.1,11.5-10.9c2.9-2.4,6.2-4.3,9.7-5.6c3.2-1.2,6.5-1.7,9.9-1.7
						c3.8,0,7.6,0.7,11.1,2.1c3.6,1.4,6.9,3.3,9.8,5.7c3,2.4,5.6,5.2,7.7,8.4c2.1,3.1,3.7,6.5,4.8,10c0.8,2.8,1.2,5.6,1.2,8.5
						c0,2.9-0.5,5.8-1.5,8.5c-1.1,2.9-2.6,5.6-4.6,8c-2.3,2.7-5.1,5.1-8.2,7C1208.7,1119.9,1203.9,1121.3,1199.1,1121.3
						L1199.1,1121.3z M851.8,1121.3L851.8,1121.3c-3.4,0-6.8-0.7-10-1.8c-3.4-1.2-6.7-2.9-9.6-5c-6.1-4.2-10.9-10-13.8-16.8
						c-1-2.4-1.6-4.8-2-7.4c-0.3-2.6-0.2-5.1,0.3-7.7c1-5.5,4-10.6,8.6-15.2c2.4-2.4,5.4-4.1,8.6-5c3.9-1.2,7.9-1.8,12-1.8
						c3,0,6,0.3,8.9,1c2.8,0.6,5.6,1.6,8.2,3c2.5,1.3,4.6,3.1,6.4,5.3c1.8,2.2,3,4.9,3.6,7.7c0.7,2.5,1.6,5,2.6,7.4
						c1.3,2.9,2.3,5.9,3.1,9c0.8,3.3,0.7,5.9-0.3,8c-0.5,1.1-1.3,2.1-2.3,2.8c-1.2,0.9-2.6,1.7-4.1,2.1c-1.7,4.5-4.7,8.3-8.6,11.1
						C860,1120.2,855.9,1121.4,851.8,1121.3L851.8,1121.3z M1044.3,1119.8c-3.8,0-7.5-0.7-11.1-2c-3.9-1.5-7.5-3.7-10.6-6.4
						c-2.7-3.5-4.8-7.3-6.3-11.4c-1.5-4-2.4-8.1-2.8-12.4c-0.7-8,0.7-16,4.1-23.3c1.1-2.3,2.5-4.4,4.1-6.4c1.5-1.9,3.3-3.6,5.3-5
						c2-1.4,4.2-2.5,6.5-3.2c2.4-0.8,5-1.2,7.5-1.2c6,0,12.5,2.1,19.2,6.1c4.2,2.4,8,5.4,11.4,8.8c2.7,2.8,5,6.1,6.7,9.6
						c1.4,3.1,2.3,6.5,2.5,9.9c0.2,3.3-0.1,6.5-1,9.7c-1.1,3.8-2.7,7.3-5,10.5c-2.3,3.3-5.1,6.2-8.2,8.6
						C1060.2,1116.9,1052.4,1119.7,1044.3,1119.8L1044.3,1119.8z M401.9,1118.3c-6,0-11.8-1.9-16.7-5.3c-7.7-15.3-7.4-35.9,0.6-48.9
						c2.2-3.7,5.2-6.8,8.8-9.1c3.8-2.3,8.2-3.5,12.6-3.4c6.1,0,12.9,2,20.1,6c2.6,2.1,4.9,4.7,6.7,7.5c1.6,2.6,2.8,5.5,3.4,8.5
						c1.2,6,0.7,12.3-1.5,18c-2.7,7.3-7.3,13.8-13.3,18.8c-3,2.4-6.3,4.4-9.8,5.8C409.4,1117.5,405.7,1118.3,401.9,1118.3
						L401.9,1118.3L401.9,1118.3z M164.9,1091.3c-6,0-11.8-1.9-16.7-5.3c-7.7-15.3-7.4-35.8,0.6-48.9c2.2-3.7,5.2-6.8,8.8-9.1
						c3.8-2.3,8.2-3.5,12.6-3.4c6.1,0,12.9,2,20.1,6c2.6,2.1,4.9,4.7,6.7,7.5c1.6,2.6,2.8,5.5,3.4,8.5c1.2,6,0.7,12.3-1.5,18
						c-2.7,7.3-7.3,13.8-13.3,18.8c-3,2.4-6.3,4.4-9.8,5.8C172.4,1090.5,168.7,1091.3,164.9,1091.3L164.9,1091.3L164.9,1091.3z
						 M531.9,1090.5L531.9,1090.5c-1.4,0-2.9-0.1-4.3-0.3c-5.1-0.7-10-2.3-14.6-4.7c-4.1-2.2-7.8-5-11-8.4
						c-2.9-3.1-5.2-6.8-6.9-10.7c-1.5-3.7-2.3-7.6-2.3-11.6c0-3.2,0.7-6.3,1.9-9.2c1.3-3,3.2-5.8,5.5-8.1c2.7-2.6,6-4.7,9.5-6.2
						c4.4-1.8,9-3,13.6-3.5c1.4-0.2,2.9-0.3,4.3-0.3c8.1-0.1,15.8,3.6,21,9.8c2.5,3,4.5,6.4,5.9,10.1c1.4,3.7,2.3,7.6,2.7,11.6
						c0.8,9.6-1.8,18.3-7.1,24.1c-2.1,2.3-4.8,4.2-7.7,5.4C539.1,1089.9,535.5,1090.6,531.9,1090.5L531.9,1090.5z M1407.1,1051.5
						L1407.1,1051.5c-4.5,0-8.9-0.9-13-2.6c-4-1.2-7.8-3-11.3-5.3c-2.8-1.9-5.2-4.4-7.1-7.2c-1.7-2.6-2.8-5.5-3.3-8.5
						c-0.5-3-0.6-6.1-0.1-9.2c0.4-2.3,0.9-4.5,1.7-6.7c0.8-2.2,1.8-4.4,3-6.5c2.4-4.3,5.5-8.2,9-11.6c1.8-1.7,3.7-3.3,5.7-4.7
						c2-1.4,4.1-2.6,6.3-3.6c4.2-2,8.8-3.1,13.5-3.1c4.4,0,8.8,1.1,12.7,3.2c4.6,2.6,8.6,6.2,11.7,10.5c2.1,2.4,3.8,5.1,5,8.1
						c1.2,2.7,1.9,5.6,2.2,8.5c0.5,5.8-0.5,11.6-3,16.8c-1.4,3.1-3.3,6-5.5,8.6c-2.2,2.6-4.8,5-7.6,7
						C1421,1049.3,1414.1,1051.5,1407.1,1051.5L1407.1,1051.5z M937.5,1050.8L937.5,1050.8c-3.7,0-7.5-0.3-11.2-1
						c-3.6-0.7-7.2-1.6-10.6-2.9c-3.4-1.2-6.6-2.8-9.7-4.6c-3-1.7-5.8-3.7-8.3-6c-4.9-5.5-8-11.2-9.1-16.7c-1-5-0.5-10.2,1.7-14.9
						c1.8-3.8,4.2-7.2,7.3-10c3.3-3.1,7-5.7,10.9-7.7c4.2-2.2,8.6-3.8,13.2-5c4.5-1.2,9.2-1.7,13.9-1.8c8.4,0,15.9,2.1,21.5,5.9
						c3,2.1,5.6,4.8,7.5,7.9c2.1,3.5,3.5,7.5,4.1,11.6c0.8,4,2.9,7.6,4.9,11.1c2.2,3.9,4.3,7.5,4.5,11.3c0.1,2-0.3,3.9-1.3,5.7
						c-1.4,2.3-3.2,4.3-5.4,5.9C961.7,1047,949.7,1050.9,937.5,1050.8L937.5,1050.8z M265.7,1047.8L265.7,1047.8
						c-3.6,0-7.2-0.5-10.7-1.4c-3.5-0.9-7-2.2-10.2-3.9c-3.2-1.7-6.2-3.8-8.8-6.2c-2.6-2.4-4.8-5.1-6.6-8.2
						c-2.5-4.4-3.8-9.5-3.6-14.6c0.4-6.1,2.3-12,5.6-17.2c3.5-5.4,6.1-9.3,8.2-11.5c2.1-2.2,3.9-3,6.5-3c2.7,0.2,5.3,0.5,7.9,1.2
						c2.2,0.4,4.8,1,7.9,1.5c2.7,1,5.6,1.9,8.3,2.7c6.3,1.9,12.2,3.7,16.7,7.1c2.3,1.7,4.1,3.9,5.4,6.4c1.4,3.1,2.2,6.5,2.1,9.9
						c0.8,5.6,0.5,11.3-0.8,16.9c-1,4.3-3.1,8.2-5.9,11.5c-2.7,3-6.1,5.3-9.9,6.8C274,1047.1,269.9,1047.8,265.7,1047.8
						L265.7,1047.8z M776.9,1033.5L776.9,1033.5c-3,0-6-0.3-9-0.8c-2.9-0.5-5.7-1.3-8.5-2.5c-5.5-2.2-10.2-5.8-13.8-10.5
						c-4.4-5.9-7-13-7.5-20.3c-0.2-3.3,0.1-6.6,0.9-9.9c0.8-3.2,1.9-6.3,3.4-9.2c1.9-3.7,4.3-7.2,7.2-10.2c2.9-3.1,6.1-5.8,9.6-8.1
						c3.5-2.3,7.2-4.1,11.2-5.3c3.8-1.2,7.9-1.9,11.9-1.9c3.3,0,6.7,0.5,9.9,1.5c3.3,1,6.5,2.6,9.3,4.7c6.2,4.6,11.1,11.4,14.6,20.5
						c7.8,9.7,9.5,19.7,5.1,29c-1.8,3.6-4.2,6.8-7.1,9.4c-3.2,2.9-6.8,5.4-10.6,7.3C795.2,1031.3,786.1,1033.5,776.9,1033.5
						L776.9,1033.5z M629.1,1032L629.1,1032c-2.8,0-5.7-0.2-8.5-0.7c-2.7-0.5-5.4-1.3-7.9-2.3c-5-2-9.4-5.4-12.7-9.7
						c-2.2-3.8-3.7-8-4.5-12.3c-1-4.9-1.4-9.9-1.3-14.9c0.1-5.2,0.8-10.4,2.1-15.5c1.2-4.9,3.1-9.7,5.5-14.2
						c2.6-4.8,6.2-8.9,10.7-12c4.6-3.1,10-4.7,15.5-4.7c1.3,0,2.7,0.1,4,0.3c3.1,0.6,6.3,0.9,9.4,0.8c3.2,0,6.5,0.2,9.7,0.7
						c3.4,0.6,5.7,1.7,7.1,3.4c0.7,0.9,1.2,1.9,1.5,3c0.3,1.4,0.3,2.9,0.1,4.3c2.3,4.2,4,8.6,5.1,13.3c1.1,4.6,1.7,9.3,2.3,13.9v0
						c0.5,3.7,1,7.6,1.8,11.3c0.7,3.7,1.8,7.4,3.2,10.9c-1.4,3.8-3.7,7.2-6.5,10c-3,3.1-6.5,5.7-10.3,7.7c-4,2.2-8.3,3.8-12.7,4.9
						C638.2,1031.5,633.7,1032,629.1,1032L629.1,1032z M1262.7,1026L1262.7,1026c-2.8,0-5.5-0.6-8-1.8c-2.5-1.2-4.7-2.8-6.5-4.9
						c-1.9-2.2-3.5-4.6-4.7-7.2c-1.3-2.8-2.3-5.8-2.8-8.9c-0.8-4.2-1-8.5-0.5-12.8c0.4-4.4,1.6-8.7,3.4-12.8
						c3.9-8.8,11.1-15.7,20.1-19.1c2.8-1,5.8-1.5,8.7-1.5c2.2,0,4.5,0.3,6.7,0.8c2.2,0.5,4.4,1.3,6.5,2.2c4.3,2,8.2,4.6,11.6,7.8
						c3.4,3.2,6.2,6.9,8.4,11c1,2,1.8,4,2.4,6.1c0.6,2,0.9,4.1,1,6.3c-2,6-4.7,11.8-8,17.2c-4.2,6.4-8.6,9.7-13.2,9.7
						c-1.6,0-3.1-0.4-4.6-1.1c-3.3,2.8-6.9,5.1-10.8,6.9C1269.3,1025.3,1266,1026,1262.7,1026L1262.7,1026z M1166.3,1021.5
						L1166.3,1021.5c-6,0-12-1.3-17.5-3.8c-2.7-1.2-5.3-2.8-7.6-4.7c-2.3-1.9-4.4-4-6.1-6.5c-4.5-6.4-8.5-17.6-2.4-34.6
						c1.1-2.7,2.4-5.4,4.1-7.8c1.3-1.9,2.8-3.6,4.6-5.1c3.1-2.4,6.9-3.6,10.7-3.5c6.4,0,13.3,2.7,20.7,5.5c6.4,2.4,13.1,5,19.7,5.9
						c3.9,8.8,6,17,6,24.2c0.2,6-1.4,11.9-4.6,17c-1.4,2.2-3.2,4.2-5.3,5.9c-2,1.7-4.3,3.1-6.7,4.2
						C1177.2,1020.5,1171.8,1021.6,1166.3,1021.5L1166.3,1021.5z M119.1,996.8L119.1,996.8c-6.1,0-13.2-2-19.4-3.8l-0.6-0.2
						c-6.6-1.9-12.7-3.6-17.9-3.6c-0.3,0-0.6,0-0.9,0c-1.6-0.9-3.1-2-4.3-3.4c-1.3-1.5-2.3-3.1-3.2-4.8c-1.8-3.9-2.8-8.2-2.9-12.5
						c-0.3-5.9,0.6-11.7,2.7-17.2c2.2-5.7,5.6-10.2,9.8-12.9c2.6-2,5.6-3.6,8.8-4.7c3-1,6.2-1.5,9.3-1.5c4.1,0,8.1,0.7,11.9,2.1
						c3.9,1.4,7.6,3.3,11,5.8c6.8,4.8,12.1,11.4,15.3,19c1.1,2.7,1.8,5.5,2.1,8.3c0.3,2.9,0.2,5.7-0.4,8.6
						c-1.2,6.1-4.5,11.6-9.7,16.5C128,995.4,124.2,996.8,119.1,996.8z M509.6,993.8L509.6,993.8c-2.7,0-5.4-0.5-7.9-1.4
						c-2.5-0.9-4.8-2.2-6.8-3.8c-4.3-3.5-7.6-8-9.6-13.1c-2.7-6.5-3.5-13.7-2.5-20.7c0.6-3.6,1.7-7.1,3.3-10.4
						c1.7-3.5,4-6.6,6.8-9.4c3.2-3.2,6.8-5.8,10.9-7.8c3.1-1.5,6.5-2.4,10-2.4c2.6,0,5.2,0.5,7.5,1.5c2.4,1,4.6,2.4,6.5,4.2
						c4.1,3.9,7.2,8.8,9,14.2c2.6,7.3,3.3,15.2,1.9,22.9c-1.3,7.9-5.4,15-11.5,20.1C521.2,991.8,515.3,993.8,509.6,993.8
						L509.6,993.8z M1044.3,978.1L1044.3,978.1c-3.9,0-7.7-0.4-11.5-1.2c-3.2-0.6-6.2-1.9-9-3.6c-5.5-6.2-8.8-12.7-10-19.3
						c-0.5-3-0.6-6-0.2-9c0.4-2.9,1.2-5.7,2.4-8.3c1.6-3.4,3.7-6.6,6.3-9.4c8-8.5,19.1-13.5,30.9-13.7c4,0,7.9,0.7,11.6,2.1
						c3.8,1.5,7.1,3.8,9.9,6.7c3.1,3.5,5.5,7.5,7,12c1.9,5.7,2.8,11.7,2.8,17.8c0.7,4.8-0.9,9.7-4.2,13.3c-3.4,3.9-8.9,7.2-15.7,9.4
						C1058,977,1051.2,978.1,1044.3,978.1z M361.1,972.8c-2.8-0.1-5.5-1.1-7.7-2.8c-3.4-1.7-6.4-4.1-8.9-6.9c-2.2-2.6-4-5.5-5.1-8.7
						c-2.1-6.5-2.3-13.5-0.5-20c2.1-8.4,6.6-16.1,12.8-22.2c3-2.9,6.4-5.3,10.2-7.1c3.7-1.7,7.7-2.6,11.7-2.7c3.5,0,6.9,0.7,10.1,2
						c3.8,1.6,7.2,3.8,10.2,6.6c5.6,3.9,9.6,9.6,11.5,16.2c0.9,3,1.3,6.2,1.2,9.4c-0.1,3.1-0.6,6.2-1.5,9.2
						c-0.8,2.6-2.1,5.1-3.6,7.5c-1.5,2.3-3.4,4.3-5.5,6.1c-2.2,1.8-4.6,3.1-7.3,4.1c-2.9,1-5.9,1.5-8.9,1.5c-0.8,0-1.7,0-2.6-0.1
						c-1.7,1-3.3,2.1-4.9,3.2h0l0,0c-1.8,1.3-3.7,2.5-5.6,3.5C365,972.2,363.1,972.8,361.1,972.8L361.1,972.8z M1505.3,963.1
						L1505.3,963.1c-4.4,0-8.7-0.9-12.7-2.6c-4.6-2-8.7-4.8-12.1-8.4c-1.9-3.7-3.4-7.6-4.5-11.7c-0.9-3.6-1.4-7.2-1.4-10.9
						c0-3.3,0.4-6.7,1.3-9.9c0.8-3,2.1-5.9,3.8-8.6c1.6-2.6,3.5-4.9,5.7-7c2.2-2.1,4.7-3.9,7.5-5.3c2.8-1.5,5.8-2.6,8.9-3.4
						c3.3-0.8,6.6-1.2,10-1.2c4.4,0,8.7,0.6,13,1.8c4.7,1.3,9.3,3.2,13.6,5.7c2.2,2.8,4,5.8,5.3,9.1c1.2,3,1.9,6.2,2.1,9.5
						c0.2,3.1,0,6.3-0.6,9.4c-0.7,3.1-1.7,6.1-3.1,9c-1.7,3.5-3.9,6.8-6.4,9.7c-2.6,3-5.5,5.6-8.7,7.8c-3.2,2.2-6.7,3.9-10.3,5.2
						C1513,962.4,1509.2,963,1505.3,963.1z M253.2,936.1L253.2,936.1c-5.6,0.1-11.1-0.9-16.2-3.1c-2.3-1-4.4-2.3-6.3-4
						c-1.8-1.6-3.3-3.6-4.4-5.7c-2.9-6.2-4.3-12.9-4-19.7c0.3-5.7,2.1-11.2,5.2-16c3.6-5.5,8.5-9.9,14.4-12.9
						c2.9-1.5,5.9-2.7,9.1-3.4c3.1-0.8,6.3-1.2,9.5-1.2c4.1,0,8.1,0.7,11.9,2.1c3.9,1.5,7.4,3.8,10.3,6.7c3.4,3.5,5.9,7.7,7.5,12.4
						c1.9,5.9,2.8,12.1,2.6,18.3c0.2,2.5-0.2,5.1-1.2,7.5c-1,2.4-2.4,4.6-4.2,6.4c-4.2,4.2-9.3,7.4-15,9.3
						C266.2,934.9,259.7,936,253.2,936.1L253.2,936.1z M804.1,921.1L804.1,921.1c-4.4,0-8.7-0.9-12.7-2.6c-4.5-2-8.7-4.8-12.1-8.4
						c-1.9-3.7-3.4-7.6-4.5-11.7c-0.9-3.6-1.4-7.2-1.4-10.9c0-3.3,0.4-6.7,1.3-9.9c0.8-3,2.1-5.9,3.8-8.6c1.6-2.6,3.5-4.9,5.7-7
						c2.2-2.1,4.7-3.9,7.5-5.3c2.8-1.5,5.8-2.6,8.9-3.4c3.3-0.8,6.6-1.2,10-1.2c4.4,0,8.7,0.6,13,1.8c4.7,1.3,9.3,3.2,13.6,5.7
						c2.2,2.8,4,5.8,5.3,9.1c1.2,3,1.9,6.2,2.1,9.4c0.2,3.1,0,6.3-0.6,9.4c-0.7,3.1-1.7,6.1-3.1,9c-1.7,3.5-3.9,6.8-6.4,9.7
						c-2.6,3-5.5,5.6-8.7,7.8c-3.2,2.2-6.7,3.9-10.3,5.2C811.7,920.4,807.9,921,804.1,921.1L804.1,921.1z M933.9,910.6L933.9,910.6
						c-2.4,0-4.8-0.2-7.1-0.7c-1,0.3-2.1,0.5-3.2,0.5c-0.7,0.1-1.4-0.2-1.9-0.6c-0.7-0.7-0.7-2-0.6-3.4c0.1-2.4,0.2-5.1-3.6-5.9
						c-6.1-2.5-10.4-6-12.9-10.5c-1.1-2.1-1.8-4.4-2.1-6.7c-0.3-2.4-0.2-4.9,0.3-7.3c0.5-2.3,1.2-4.5,2.1-6.6c1-2.3,2.2-4.5,3.5-6.5
						c2.9-4.4,6.4-8.4,10.4-11.8c4-3.5,8.5-6.4,13.4-8.5c4.6-2.1,9.5-3.2,14.5-3.3c1.9,0,3.9,0.2,5.8,0.6c4.6,0.7,9.2,2,13.4,4
						c3.3,1.6,6.3,3.8,8.8,6.6c2.1,2.4,3.7,5.3,4.6,8.4c0.9,3.1,1.2,6.3,0.9,9.5c-0.2,2.5-0.7,5-1.5,7.5c-0.8,2.6-1.8,5.1-3.1,7.4
						c-4.1,7.6-10,14.2-17.1,19.1c-2.4,1.7-5,3.1-7.6,4.3C945.6,909.2,939.8,910.5,933.9,910.6L933.9,910.6z M1292.8,909.8
						L1292.8,909.8c-5.3,0-10.5-1.3-15.1-3.8c-4.7-2.5-9-5.9-12.5-9.9c-1.8-2-3.5-4.2-4.9-6.5c-1.5-2.3-2.8-4.7-3.9-7.2
						c-1.1-2.5-2-5-2.8-7.6c-0.7-2.5-1.2-5.1-1.5-7.7c-0.8-7.9,0.6-15,4-20.6c1.9-3,4.4-5.6,7.4-7.6c3.5-2.3,7.4-3.9,11.5-4.7h0.2
						c4.2-0.1,8.5-0.5,12.7-1.1l0.4-0.1c4.6-0.7,9.2-1.1,13.9-1.2c2.4,0,4.8,0.2,7.1,0.7c2.1,0.4,4.1,1.3,5.9,2.5
						c1.8,1.3,3.3,3,4.3,5c1.2,2.5,1.9,5.3,2.1,8.1c1.4,5.3,2.3,10.7,2.8,16.2c0.6,6,0.4,12.1-0.5,18.1c-0.8,5.7-2.9,11.1-6,15.9
						c-3.3,4.7-8.2,8.1-13.8,9.6C1300.4,909.1,1296.6,909.8,1292.8,909.8L1292.8,909.8z M148.1,909.8L148.1,909.8
						c-2.7,0-5.3-0.5-7.9-1.4c-2.5-0.9-4.8-2.2-6.8-3.8c-4.3-3.5-7.6-8-9.6-13.1c-2.7-6.5-3.5-13.7-2.5-20.7
						c0.6-3.6,1.7-7.1,3.3-10.4c1.7-3.5,4-6.6,6.8-9.4c3.2-3.2,6.8-5.8,10.9-7.8c3.1-1.5,6.5-2.4,10-2.4c2.6,0,5.2,0.5,7.5,1.5
						c2.4,1,4.6,2.4,6.5,4.2c4.1,3.9,7.2,8.8,9,14.2c2.6,7.3,3.3,15.2,1.9,22.9c-1.3,7.9-5.4,15-11.6,20.1
						C159.7,907.8,153.8,909.8,148.1,909.8L148.1,909.8z M1416,907.6L1416,907.6c-3.9-0.1-7.8-0.8-11.4-2.3
						c-3.7-0.6-7.2-1.8-10.5-3.7c-2.7-1.6-5-3.7-6.8-6.2c-3.2-4.6-4.6-10.6-4-17.3c0.4-4.6,1.6-9.1,3.5-13.3c1.9-4.4,4.5-8.4,7.6-12
						c3-3.5,6.7-6.5,10.7-8.7c4-2.2,8.4-3.3,12.9-3.3c5.5,0.1,10.9,1.8,15.4,4.9c3.8,6,6.3,14.9,6.7,24.3c0.2,4.6-0.1,9.1-0.9,13.6
						c-0.7,4.2-2.1,8.3-4.2,12.1c-1.8,3.5-4.4,6.4-7.6,8.6C1424,906.5,1420,907.6,1416,907.6L1416,907.6z M628.9,901.6
						c-4.5,0-9-0.8-13.2-2.4c-4.3-1.7-8.1-4.3-11.3-7.6c-2.9-3-4.8-7.4-5.5-12.7c-0.3-2.6-0.4-5.2-0.2-7.9c0.2-2.7,0.6-5.4,1.3-8
						c1.2-4.7,3.2-9.1,6.1-13.1c1.3-1.8,2.9-3.4,4.7-4.8c1.7-1.3,3.6-2.3,5.7-2.9c5.2-1.2,12.9-2.8,20.2-2.8c2.8,0,5.6,0.3,8.3,0.9
						c2.5,0.5,5,1.6,7.1,3c2.2,1.5,4,3.4,5.3,5.7c1.5,2.8,2.5,5.8,2.8,9c2.7,4.4,4.3,9.4,4.5,14.5c0.1,4.3-1,8.6-3.1,12.4
						c-1.5,2.6-3.5,5-5.7,7c-2.4,2.1-5,3.9-7.8,5.3C642.1,900,635.5,901.5,628.9,901.6L628.9,901.6z M1168.1,899.3L1168.1,899.3
						c-4.4,0-8.7-0.7-12.9-2.1c-4.3-1.4-8.4-3.4-12.1-6.1c-3.8-2.7-7.1-5.9-9.8-9.7c-2.8-3.9-4.8-8.3-5.9-13c0.1-5,1-10,2.6-14.8
						c1.3-3.9,3.4-7.4,6.2-10.5c5.1-5.5,12.1-8.3,20.3-8.3c8.5,0,17.9,3.1,27.1,8.9c2.5,0,5,0.4,7.3,1.2c1.6,0.6,2.9,1.6,3.9,2.9
						c1.7,2.5,1.8,5.8,2,9.7v0c0,3.3,0.4,6.6,1.2,9.8c0.1,4.8-0.7,9.5-2.3,14c-1.3,3.7-3.4,7-6.2,9.8c-2.7,2.7-6.1,4.8-9.7,6.2
						C1176,898.7,1172,899.4,1168.1,899.3L1168.1,899.3z M495.6,869.3L495.6,869.3c-5.6,0-11.2-1.3-16.3-3.6
						c-5.5-2.4-10.4-5.9-14.4-10.3c-4.1-4.4-7.2-9.7-9.2-15.4c-2.2-6.6-3-13.5-2.4-20.4c-0.1-2.7,0.2-5.5,0.9-8.1
						c0.5-2.2,1.4-4.3,2.6-6.2c1.1-1.7,2.4-3.3,4-4.6c1.6-1.3,3.3-2.4,5.2-3.3c4.1-1.8,8.3-3,12.7-3.5c4.6-0.7,9.3-1,14-1.3h0
						c3.4-0.2,6.5-0.4,9.5-0.8c1.4-0.3,2.9-0.4,4.3-0.4c2.1,0,4.3,0.4,6.3,1.2c1.8,0.7,3.4,1.8,4.7,3.2c3.1,3.2,5.3,8,6.6,14.5
						c1,5.5,1.4,11.1,1.3,16.7c0.9,6.6,0.6,13.2-0.8,19.7c-1.2,4.9-3.5,9.5-6.8,13.4c-2.7,3.1-6.2,5.5-10,7.1
						C503.9,868.6,499.8,869.4,495.6,869.3L495.6,869.3z M333.4,867.1L333.4,867.1c-0.5,0-1.1,0-1.6-0.1c-6.4-1.3-12.6-3.6-18.4-6.8
						c-4.6-2.6-8.8-6-12.2-10c-5.7-6.6-8.5-15.3-7.7-24c0.7-7,4-13.4,9.1-18.1c2.7-2.4,5.9-4.4,9.3-5.6c3.9-1.4,7.9-2.1,12-2.1
						c4.8,0,9.5,0.8,14.1,2.3c5.6,1.8,11,4.3,16.1,7.4c2.1,1.4,3.9,3.3,5.1,5.5c1.3,2.3,2.2,4.8,2.6,7.5c0.5,2.9,0.6,5.8,0.3,8.7
						c-0.3,3.1-0.9,6.2-1.8,9.2c-1.9,6.8-5.5,13.1-10.3,18.3C345.2,864.3,339.4,867.1,333.4,867.1L333.4,867.1z M737.7,837.8
						L737.7,837.8c-4.3,0-8.5-0.7-12.6-2.1c-7.8-2.7-14.7-7.8-19.6-14.4c-2.4-3.2-4.3-6.8-5.5-10.7c-1.1-3.4-1.7-6.9-1.7-10.4
						c0-3.7,0.6-7.3,1.8-10.8c1.4-3.8,3.3-7.4,5.9-10.6c3-3.8,6.5-7.1,10.4-9.9c10.7-4,20.2-6.1,28.3-6.1c4.8-0.1,9.5,0.8,13.9,2.6
						c3.8,1.6,7.1,4.2,9.6,7.5c3.8,5,6,11.8,6.5,20.1c0.5,8.2-0.8,17.8-3.6,28.4C761.3,832.2,749.8,837.8,737.7,837.8L737.7,837.8z
						 M1044.1,822.8c-5.1-0.1-10.1-1.7-14.2-4.7c-5.1-3.4-9.9-8.7-14.5-15.7c-2.3-4.8-3.2-10.2-2.6-15.5c0.6-5,2.4-9.9,5.1-14.1
						c2.1-3.2,4.5-6.1,7.3-8.6c5.8-5.2,12.7-9,20.2-11.1c3.7-1,7.5-1.6,11.3-1.6c1.3,0,2.6,0.1,3.9,0.2c3.2,0.2,6.4,1.2,9.3,2.7
						c2.5,1.4,4.6,3.3,6.1,5.6c3,4.3,4.4,10.3,4,17.1c-0.5,10.2-4.6,21.6-11.1,30.4c-1.6,2.2-3.3,4.2-5.3,6.1
						c-1.8,1.8-3.8,3.4-6,4.8C1053.7,821.3,1048.9,822.8,1044.1,822.8L1044.1,822.8L1044.1,822.8z M864.6,806.3L864.6,806.3
						c-3.8,0-7.6-0.6-11.1-1.9c-3.4-1.3-6.5-3.3-9-6c-2.6-2.9-4.4-6.3-5.4-10.1c-1.2-4.8-1.6-9.7-1-14.6c2.7-8.4,8-15.7,15.1-20.8
						c3.2-2.3,6.8-4.2,10.6-5.4c3.6-1.2,7.4-1.8,11.3-1.8c3.5,0,7.1,0.6,10.4,1.7c3.4,1.2,6.6,2.9,9.3,5.2c3,2.5,5.5,5.5,7.4,8.9
						c2.2,4,3.8,8.3,4.7,12.7c-1,4.8-3,9.3-5.8,13.3c-2.8,3.9-6.2,7.4-10.2,10.2C883.2,803.1,874.1,806.1,864.6,806.3L864.6,806.3z
						 M109.5,802.6L109.5,802.6c-8.3,0-15.8-3.5-21.7-10.1c-2.7-3.1-4.9-6.6-6.6-10.3c-1.7-3.8-2.8-7.8-3.4-11.8
						c-0.7-4.5-0.6-9.2,0.4-13.7c0.5-2.1,1.1-4.1,2.1-6.1c0.9-1.9,2-3.6,3.4-5.2c2-2.3,4.5-4.1,7.3-5.3c3.2-1.4,6.7-2,10.2-2
						c1.6,0,3.1,0.1,4.6,0.3c4.5,0.2,8.8,1.3,12.8,3.3c3.8,1.9,7.1,4.5,9.9,7.7c5.5,6.3,8.9,14.2,9.6,22.5c0.3,3.3,0,6.6-0.7,9.9
						c-0.7,3.2-2,6.2-3.8,8.9c-1.9,2.8-4.3,5.2-7.2,7c-3.3,2.1-7,3.5-10.8,4.2C113.6,802.4,111.6,802.6,109.5,802.6z M223.2,798.8
						c-8.3-0.1-16.4-2.8-23.1-7.7c-7-5.3-11.2-12.3-11.7-19.8c-0.1-11.7,4-22.1,11.9-30c2.1-2.1,4.4-4,6.9-5.6c2.4-1.6,5-3,7.7-4.1
						c5.1-2.1,10.7-3.2,16.2-3.3c2.3,0,4.7,0.2,7,0.7c2.2,0.4,4.3,1.1,6.3,2.1c2,0.9,3.8,2.1,5.4,3.5c1.6,1.4,3,3.1,4.2,4.9
						c2.7,4.3,3.8,9.7,3.3,15.8c-0.5,6.8-2.9,14.6-7.2,23.1c-0.9,3.3-2.3,6.5-4.2,9.3c-1.7,2.5-3.8,4.6-6.3,6.4
						C234.8,797.3,229,798.9,223.2,798.8L223.2,798.8L223.2,798.8z M1440.3,793.6L1440.3,793.6c-4.8,0-9.6-0.9-14.1-2.6
						c-4.9-1.9-9.4-4.6-13.3-8.2c-6.2-6.8-7.6-16.7-3.4-24.9c1.7-3.6,4.1-7,6.9-9.8c3-3.1,6.4-5.8,10.1-8c3.7-2.3,7.7-4.1,11.9-5.4
						c4-1.3,8.1-1.9,12.3-2c4.4-0.1,8.8,0.9,12.8,3c4,2.2,7.3,5.6,9.3,9.7c2.5,5.6,3.5,11.8,3.1,17.9c-0.2,2.7-0.8,5.3-1.6,7.8
						c-0.9,2.4-2,4.7-3.4,6.8c-3.3,4.9-7.8,8.8-13.1,11.4C1452.4,792.2,1446.4,793.6,1440.3,793.6L1440.3,793.6z M629.9,771.1
						c-4.6,0-9.3-0.4-13.9-1.1c-3.9-0.6-7.7-1.5-11.5-2.8c-2.9-3.2-5.3-6.8-7.1-10.7c-1.6-3.6-2.7-7.4-3.1-11.3
						c-0.7-7.6,0.5-15.2,3.7-22.2c1.7-3.8,3.8-7.4,6.4-10.6c2.5-3.2,5.3-6.1,8.5-8.5c3-2.4,6.4-4.3,10-5.7c3.4-1.3,7.1-2,10.8-2.1
						c2.8,0,5.7,0.5,8.3,1.4c2.9,1,5.6,2.4,8,4.3c5.5,4.1,10.1,10.5,13.8,18.8c0.7,2.4,0.9,5,0.5,7.5c-0.5,2.4-1.1,4.8-2,7.1
						c-1,2.5-1.7,5.2-2.1,7.9c-0.2,1.4-0.2,2.7,0,4.1c0.2,1.5,0.6,3,1.3,4.3c-0.4,6.9-3.9,12-10.4,15.4c-3.2,1.6-6.5,2.6-10,3.2
						C637.5,770.8,633.7,771.1,629.9,771.1L629.9,771.1L629.9,771.1z M1308,771.1L1308,771.1c-14.3,0-25.6-6.2-30.4-16.6
						c-1.4-3.1-2.2-6.5-2.4-9.9c-0.2-4,0.3-7.9,1.4-11.8c1.3-4.7,3.2-9.1,5.7-13.3c3-5.2,6.5-10.1,10.5-14.6c4.1-3.4,9.1-5,15.3-5
						c7.5,0,15.7,2.4,23.6,4.8c5.3,1.7,10.6,3,16.1,4c2.5,0.1,4.5,1.9,5.8,5.5c1.1,3.5,1.7,7.1,1.8,10.8c0.1,4.3-0.1,8.6-0.6,12.8
						c-0.5,3.9-1.2,7.7-2.3,11.5c-1,3.4-2.2,5.7-3.4,6.8c-6.5,4.9-13.6,8.8-21.2,11.5C1321.4,769.8,1314.7,771,1308,771.1
						L1308,771.1z M1184.3,764.3L1184.3,764.3c-7.7,0.1-15.2-1.8-22-5.5c-6-3.2-10.8-8.3-13.7-14.4c-1.2-2.7-2-5.6-2.3-8.5
						c-0.3-3.2-0.2-6.4,0.5-9.5c0.8-3.5,2-6.9,3.7-10.1c2-3.8,4.5-7.3,7.3-10.5c3.3-4.1,7.5-7.4,12.2-9.7c4.2-2,8.7-3,13.3-3
						c4.8,0,9.5,1,13.9,2.8c4.5,1.8,8.7,4.4,12.4,7.5c1.9,1.6,3.6,3.3,5.2,5.1c1.6,1.8,3,3.7,4.3,5.7c2.5,3.9,4.3,8.2,5.2,12.7
						c0.6,3.2,0.7,6.5,0.2,9.8c-0.5,3.3-1.7,6.5-3.5,9.4c-2,3.3-4.7,6.2-7.7,8.5c-3.8,2.9-8.1,5.3-12.6,7.1
						C1195.5,763.4,1189.9,764.3,1184.3,764.3L1184.3,764.3z M982.8,735.8c-5.6,0-11.1-0.9-16.4-2.8c-2.5-0.9-4.9-2.1-7.2-3.6
						c-2.2-1.4-4.2-3.1-5.9-5c-2.4-2.6-4.2-5.6-5.3-9c-1.2-3.7-1.6-7.7-1.2-11.5c0.5-6.1,2.2-12.1,5.1-17.6
						c2.6-4.9,6.1-9.2,10.3-12.8c6-5,13.2-8.4,20.9-9.8c2.4-0.4,4.9-0.7,7.4-0.7c2.5,0,5,0.2,7.4,0.7c2.4,0.5,4.7,1.2,6.8,2.2
						c2.2,1,4.2,2.2,6,3.7c1.9,1.5,3.5,3.2,4.9,5.2c3.3,4.8,5.1,10.4,5.3,16.2c0.4,6.9-0.9,14.8-3.9,23.4c-0.8,3.4-2.4,6.6-4.6,9.4
						c-2.2,2.7-4.9,5-8,6.7c-3.2,1.8-6.6,3.2-10.2,4C990.4,735.4,986.6,735.9,982.8,735.8L982.8,735.8z M365.7,728.3
						c-4,0-8-0.5-11.9-1.5c-3.8-0.9-7.5-2.3-10.9-4.2c-3.3-1.8-6.3-4-9-6.6c-2.5-2.5-4.6-5.5-6.1-8.8c-1.2-2.6-1.9-5.4-2.1-8.3
						c-0.2-3.1,0.1-6.3,0.9-9.3c1.8-6.9,6-14.1,12.6-21.2c5-6.8,13.4-10.5,23.8-10.5c6.5,0,12.9,1.4,18.8,3.9
						c5.9,2.4,11.1,6.1,15.4,10.8c5.5,6.3,7.9,13.6,6.9,21.1c-0.5,5.5-2.1,10.8-4.7,15.7c-2.2,4.2-5.2,7.8-8.9,10.7
						c-3.5,2.8-7.5,4.8-11.7,6.2C374.6,727.7,370.1,728.4,365.7,728.3L365.7,728.3L365.7,728.3z M809.6,724.6
						c-4.6,0-9.1-0.9-13.4-2.6c-3.9-0.8-7.6-2.2-11-4.3c-2.8-1.7-5.2-3.9-7-6.5c-1.7-2.4-2.9-5.2-3.5-8.1c-0.6-3-0.7-6.1-0.4-9.1
						c0.3-2.3,0.7-4.6,1.4-6.9c0.7-2.3,1.6-4.6,2.7-6.8c2.2-4.5,5.1-8.7,8.5-12.3c1.7-1.8,3.5-3.5,5.5-5c1.9-1.5,3.9-2.8,6.1-3.9
						c4.1-2.2,8.6-3.4,13.2-3.4c3.1,0,6.2,0.6,9.1,1.8c3.3,1.4,6.2,3.4,8.8,5.8c3.3,1.8,6.3,4.2,8.8,6.9c2.2,2.4,3.9,5.3,5.1,8.3
						c2.2,5.9,2.5,12.3,0.8,18.4c-1,3.7-2.6,7.3-4.6,10.5c-2.1,3.3-4.7,6.3-7.7,8.8c-3,2.6-6.5,4.6-10.2,6.1
						C817.9,723.8,813.8,724.6,809.6,724.6L809.6,724.6L809.6,724.6z M501.7,724.6L501.7,724.6c-5,0.1-10-0.8-14.7-2.7
						c-3.7-1.5-6.9-3.9-9.4-7.1c-2.6-3.4-4.2-7.5-4.8-11.8c-0.3-2.2-0.4-4.5-0.2-6.8c0.2-2.4,0.6-4.7,1.2-7c1.2-4.6,3-8.9,5.5-12.9
						c2.6-4.2,5.7-8,9.4-11.3c3.8-3.4,8.1-6.1,12.8-8c5-2,10.3-3,15.7-3c9.3,0,18.8,3,28.4,8.8c4.8,1.4,7,2.6,8,4.5
						c0.6,1.2,0.8,2.6,0.6,4c-0.3,2.1-0.7,4.1-1.4,6.1c1,6.2,0.8,12.6-0.6,18.7c-1.1,5-3.5,9.7-6.8,13.6c-4.2,4.9-10,8.6-17.3,11
						c-7.9,2.5-16.1,3.7-24.3,3.7C503.2,724.6,502.4,724.6,501.7,724.6L501.7,724.6z M1273.9,680.3L1273.9,680.3
						c-7.6,0-19-2.4-30.3-13.8c-2.7-4.9-4-10.5-3.7-16.2c0.1-2.8,0.6-5.6,1.3-8.3c0.8-2.7,1.8-5.2,3.2-7.6c1.1-1.8,2.3-3.6,3.8-5.1
						c1.4-1.5,3-2.9,4.7-4c3.5-2.3,7.7-3.6,12-3.6c3.6,0,7.2,0.8,10.6,2.3c5.4,1.3,10.7,3.3,15.7,5.9c3.8,1.9,7.2,4.5,10.1,7.6
						c4.7,5.1,6.8,11.1,6,17.4c-0.5,3.4-1.7,6.7-3.5,9.6c-2,3.1-4.4,5.8-7.3,8.1C1289.9,677.7,1282,680.4,1273.9,680.3L1273.9,680.3
						z M115.4,678.8L115.4,678.8c-10,0-18.8-3.1-25.3-8.9c-2.9-2.6-5.3-5.7-7.1-9.1c-1.7-3.3-2.8-6.8-3.2-10.5
						c-0.4-3.5-0.2-7.1,0.8-10.6c1-3.4,2.7-6.5,5-9.2c5.1-5.7,12.9-8.7,22.5-8.7c2,0,4.1,0.1,6.1,0.4c10.4,0.7,19.9,5.9,26.3,14.1
						c2,2.5,3.5,5.4,4.7,8.4c0.9,2.4,1.5,4.8,1.8,7.4c0.5,5.2-0.5,10.4-2.9,15c-1.4,2.6-3.1,4.9-5.2,7
						C131.4,677.1,123.5,678.7,115.4,678.8L115.4,678.8z M1099.8,675.1c-6.5,0.1-12.9-1.5-18.6-4.7c-7.5-3.1-13-9.7-16-19.1
						c-1.4-4.5-2.2-9.2-2.3-13.9c-0.2-4.9,0.2-9.9,1.2-14.7c0.9-4.5,2.3-8.9,4.2-13.1c1.8-4,4.1-7.7,7-11.1c2.7-3.1,5.9-5.7,9.6-7.6
						c3.7-1.9,7.8-2.9,12-2.8c0.3,0,0.6,0,0.9,0c2.6-0.5,5.2-0.7,7.8-0.7c2.9,0,5.7,0.4,8.5,1.1c2.4,0.7,4.7,1.8,6.8,3.2
						c2,1.4,3.8,3.1,5.3,5c1.6,2,2.9,4.1,4,6.4c2.4,5.1,4,10.4,5,15.9c1.1,5.9,1.7,11.9,2.1,18c1.6,3.5,2.3,7.4,2,11.2
						c-0.4,3.5-1.6,6.9-3.5,9.8c-1.8,2.7-3.9,5-6.4,7c-2.7,2.1-5.6,3.9-8.7,5.4c-3.2,1.5-6.6,2.6-10.1,3.4
						C1107,674.7,1103.4,675.1,1099.8,675.1L1099.8,675.1L1099.8,675.1z M1451.3,674.3L1451.3,674.3c-3.6,0-7.1-0.5-10.5-1.4
						c-3.5-0.9-6.9-2.2-10.2-3.9c-3.2-1.6-6.2-3.7-8.9-6.1c-2.6-2.3-4.9-5-6.7-8c-2.5-4-3.9-8.6-4.1-13.4
						c-0.1-5.4,1.2-10.8,3.8-15.5c1.1-3,2.5-5.8,4.3-8.4c1.4-2.1,3.1-3.9,5-5.5c1.7-1.3,3.6-2.3,5.7-3c2-0.6,4.1-0.9,6.2-0.9
						c2.3,0,4.6,0.3,6.9,0.8c2.5,0.6,4.9,1.3,7.2,2.2c4.9,1.8,10,4.3,15,6.6c1.2,0.6,2.3,1.1,3.5,1.6c1.1-0.2,2.2-0.3,3.3-0.3
						c1.8-0.1,3.6,0.5,4.9,1.7c2.2,2.2,2.1,6.4,2.1,10.8l0,0l0,0c-0.1,3.7-0.1,7.5,1.2,10.4c0.2,4.9-0.4,9.7-1.9,14.4
						c-1.2,3.7-3.2,7.1-5.9,9.9c-2.6,2.7-5.8,4.8-9.4,6C1459.1,673.7,1455.2,674.4,1451.3,674.3L1451.3,674.3z M715.6,660.9
						L715.6,660.9c-5.3,0-10.6-0.9-15.7-2.7c-2.4-0.9-4.6-2-6.7-3.4c-2-1.3-3.9-3-5.5-4.8c-2.4-2.8-4.1-6.1-5-9.7
						c-1-4.2-1.1-8.6-0.4-12.9c-0.5-3.9-0.2-7.9,1-11.7c1.2-3.6,3.1-6.9,5.6-9.7c6.2-7,15.1-11,24.4-11.1c6.5,0,12.8,2.1,18,6.1
						c1.5,0.7,2.7,1.8,3.4,3.3c0.7,1.5,1.3,3.1,1.7,4.7c0.5,2.2,1.3,4.3,2.5,6.1c0.7,0.9,1.6,1.6,2.6,2.1c1.3,0.6,2.7,0.9,4.2,1
						c3.3,0.2,4.3,2.1,5.4,4.7c1.7,4.1,2.3,8.6,1.9,13c-0.4,3.8-1.7,7.4-3.9,10.5c-3.1,4.5-8,8.3-14.2,10.9c-3,1.3-6.1,2.2-9.3,2.8
						C722.3,660.5,719,660.9,715.6,660.9z M234.9,660.1L234.9,660.1c-3.4,0-6.9-0.5-10.2-1.4c-3.2-0.9-6.3-2.2-9.2-3.9
						c-2.9-1.7-5.5-3.7-7.8-6.1c-2.4-2.4-4.4-5.1-6.1-8c-2-3.4-3.4-7-4.4-10.8c-1-4-1.5-8.2-1.4-12.3c0.1-4.6,0.8-9.1,2.1-13.4
						c1.5-4.9,3.5-9.7,6.1-14.1c1-2.9,2.7-5.4,5-7.5c2.4-2.3,5.2-4.1,8.2-5.5c3.3-1.5,6.7-2.7,10.2-3.4c3.6-0.8,7.2-1.2,10.9-1.2
						c5.3-0.1,10.6,0.9,15.4,3.1c2.1,1,3.9,2.4,5.5,4.1c1.5,1.7,2.6,3.6,3.1,5.8c0.7,2.6,1.7,6,3,9.9l0,0c5.1,16,12.7,40.3,5.9,47.5
						c-5.2,5.5-11.4,10-18.3,13.2C247.3,658.7,241.1,660.1,234.9,660.1L234.9,660.1z M917,651.9L917,651.9c-5.4,0-10.7-0.9-15.7-2.6
						c-2.4-0.8-4.8-1.9-7-3.2c-2.1-1.3-4.1-2.8-5.8-4.5c-3.1-4-5-8.8-5.5-13.9c-0.3-4.3,0.6-8.7,2.6-12.6c1.8-3.4,4.2-6.5,7.1-9.1
						c3-2.8,6.4-5.2,10.1-7.1c3.7-2,7.7-3.5,11.7-4.6c3.9-1.1,8-1.6,12.1-1.6c3.9-0.1,7.7,0.6,11.3,1.9c3.4,1.2,6.4,3.3,8.8,6.1
						c2.4,2.8,3.9,6.2,4.6,9.9c0.9,4.8,0.8,9.6-0.1,14.4c0.1,3.2-0.4,6.5-1.6,9.5c-1.1,2.8-2.8,5.3-4.9,7.5
						c-1.7,1.7-3.5,3.2-5.6,4.4c-2.1,1.3-4.4,2.3-6.7,3.1C927.4,651,922.2,651.9,917,651.9z M606.4,618.1L606.4,618.1
						c-4.5,0-8.9-0.9-13.1-2.5c-4.9-1.9-9.6-4.7-13.7-8c-3.7-3-7-6.6-9.6-10.7c-2.3-3.6-4-7.6-5-11.8c-1.8-8-1.2-16.4,1.6-24.1
						c1.4-4,3.4-7.9,5.8-11.4c2.4-3.4,5.2-6.5,8.4-9.2c3.1-2.6,6.6-4.7,10.3-6.2c3.7-1.5,7.6-2.2,11.5-2.3c5.2,0,10.3,1.4,14.9,3.9
						c5.6,3.2,10.6,7.6,14.4,12.8c3,3.6,5.4,7.7,7.3,12c1.7,4,2.7,8.2,3.2,12.4c0.8,8-0.5,16-4,23.3c-2.9,6.2-7.4,11.6-13,15.6
						c-2.8,1.9-5.8,3.4-9,4.5C613.3,617.6,609.9,618.1,606.4,618.1z M828.8,607.6L828.8,607.6c-4.5,0-8.9-1-12.9-3.1
						c-3.9-2-7.4-4.8-10.3-8.1c-3-3.4-5.4-7.3-7.1-11.5c-1.8-4.2-2.9-8.7-3.2-13.3c-0.4-4.2,0-8.4,0.9-12.4
						c2.1-8.6,7.6-15.9,15.2-20.2c4.7-2.7,9.9-4.4,15.2-5.2c1.3-0.2,2.6-0.4,4-0.4c5.3,0.1,10.5,1.8,14.9,4.8
						c2.4,1.6,4.6,3.3,6.7,5.3c2.1,2.1,4.1,4.3,5.9,6.6c3.6,4.7,6.5,9.8,8.7,15.3c2,4.7,3.1,9.7,3.3,14.8c0,1.8-0.2,3.6-0.6,5.4
						c-0.4,1.5-1.1,3-2.1,4.3c-2,2.5-5.1,3.8-9.1,3.9c-4.5,4.4-9.7,8-15.4,10.7C838.5,606.4,833.7,607.6,828.8,607.6L828.8,607.6z
						 M1337.6,599.4L1337.6,599.4c-4.9,0-9.8-1.3-14.1-3.6c-4.5-2.4-8.5-5.6-11.9-9.5c-7-8-11.7-17.7-13.4-28.2
						c-1.2-7.8-0.4-15.1,2.5-20.9c1.5-3.1,3.6-5.9,6.2-8.1c2.9-2.5,6.3-4.3,10-5.4c6.6-2.9,13.7-4.4,20.9-4.6
						c4.2,0,8.4,0.7,12.4,2.1c3.6,1.3,6.9,3.3,9.8,5.8c2.8,2.5,5.2,5.4,7.1,8.6c1.9,3.3,3.3,6.9,4.3,10.6c2.3,9.4,1.6,19.3-2.1,28.2
						c-4,9.8-11.3,17.9-20.7,22.8C1345,598.6,1341.3,599.3,1337.6,599.4L1337.6,599.4z M446.3,586.6L446.3,586.6
						c-3.3,0-6.7-0.3-9.9-0.8c-3.7-0.4-7.2-1.6-10.4-3.5c-2.8-1.8-5.2-4.2-7.1-7c-3.6-5.9-5.3-12.8-4.7-19.7c0.2-3.5,0.9-6.9,2-10.2
						c1.1-3.2,2.6-6.1,4.7-8.8c1.9-2.5,4.4-4.6,7.2-6.2c2.9-1.5,6.2-2.3,9.5-2.3c3.4,0,6.7,0.7,9.9,2c5.3,1,10.5,2.8,15.3,5.2
						c3.9,2,7.4,4.7,10.4,7.9c5.1,5.7,7.6,12.6,6.9,19.4c-0.7,6.7-4.2,12.7-9.6,16.7C464.3,584.1,456,586.6,446.3,586.6L446.3,586.6
						z M140.5,576.1L140.5,576.1c-3.4,0-6.8-0.7-10-2.1c-3.1-1.4-5.9-3.3-8.3-5.7c-2.5-2.4-4.5-5.2-6.2-8.3
						c-1.7-3.1-2.8-6.4-3.5-9.8c-0.6-3-0.8-6.1-0.5-9.2c0.3-3,1.1-6,2.4-8.8c1.4-2.9,3.3-5.5,5.6-7.7c2.7-2.5,5.8-4.5,9.2-5.8
						c4.1-1.8,7.5-3.2,10.3-4.2c2.4-0.9,5-1.4,7.5-1.5c2.8,0,5.5,0.9,7.8,2.4c3.3,2.2,6.3,4.8,9.1,7.6c2.7,0.7,5.1,2.5,6.4,5
						c1.5,2.8,2.2,6,2.3,9.2c0.1,3.5-0.3,7-1,10.4c-0.8,3.6-2,7-3.5,10.3c-1.4,3.1-3.3,6-5.5,8.5c-1.9,2.2-4.2,3.9-6.9,5
						C151.1,574.4,145.9,576,140.5,576.1L140.5,576.1z M1002.4,575.4c-3.4,0-6.8-0.5-10-1.7c-3.1-1.1-5.9-2.9-8.2-5.3
						c-2.3-2.4-4-5.2-5.1-8.4c-1.3-3.9-1.8-7.9-1.7-12c-1-3.4-1-6.9-0.1-10.3c0.9-3.5,2.6-6.7,4.8-9.5c1.7-2.2,3.6-4.3,5.7-6.1
						c2.1-1.8,4.5-3.4,6.9-4.8c2.4-1.3,4.9-2.4,7.5-3.1c2.4-0.7,4.9-1.1,7.4-1.1c5.9,0,10.5,2.4,13.2,6.9c1.7,1.8,3.9,2.5,6.1,3.1
						c1.9,0.6,3.6,1.1,4.9,2.3c1.4,1.4,1.9,3.6,1.7,6.8c1.8,5,2.3,10.4,1.6,15.7c-0.7,4.6-2.5,8.9-5.2,12.6
						c-3.4,4.7-8,8.4-13.2,10.9c-2.6,1.3-5.3,2.2-8.1,2.9C1007.9,575,1005.1,575.4,1002.4,575.4L1002.4,575.4L1002.4,575.4z
						 M1197.3,568.6L1197.3,568.6c-4.9,0-9.8-1.3-14.1-3.6c-4.5-2.4-8.5-5.6-11.9-9.5c-7-8-11.7-17.7-13.4-28.2
						c-1.2-7.8-0.4-15.1,2.5-20.9c1.5-3.1,3.6-5.9,6.2-8.1c2.9-2.5,6.3-4.3,10-5.4c6.6-2.9,13.7-4.4,20.9-4.6
						c4.2,0,8.4,0.7,12.4,2.1c3.6,1.3,6.9,3.3,9.8,5.8c2.8,2.5,5.2,5.4,7.1,8.6c1.9,3.3,3.3,6.9,4.3,10.6c2.3,9.4,1.6,19.3-2.1,28.2
						c-4,9.8-11.3,17.9-20.7,22.8C1204.8,567.9,1201.1,568.6,1197.3,568.6L1197.3,568.6z M332.6,552.9L332.6,552.9
						c-11.4,0-21.2-4.3-28.4-12.3c-3.3-3.7-5.9-8-7.7-12.6c-1.8-4.6-2.9-9.5-3.1-14.5c-0.2-2.7-0.1-5.4,0.3-8
						c0.3-2.6,0.9-5.2,1.7-7.7c0.8-2.5,1.8-4.9,3.1-7.1c1.3-2.2,2.8-4.3,4.6-6.2c3.1-3.2,6.8-5.8,10.9-7.5c4.8-1.9,9.9-2.9,15.1-2.8
						c5.4,0.1,10.8,0.8,16,2.3c2.9,0.4,5.7,1.5,8.1,3.3c2.4,1.9,4.4,4.3,5.9,7c1.7,3,3,6.3,3.8,9.7c0.9,3.7,1.5,7.5,1.7,11.3
						c0.3,4.8,0,9.7-0.8,14.5c-0.7,4.6-2,9.2-3.9,13.5c-1.6,3.9-4,7.5-6.9,10.5c-2.7,2.8-6.1,4.8-9.9,5.7
						C339.6,552.5,336.1,552.9,332.6,552.9z M1473.8,548.4L1473.8,548.4c-2.4,0-4.8-0.1-7.2-0.4c-4.4,0-8.8-0.8-12.9-2.2
						c-3.3-1.1-6.2-3-8.7-5.4c-4.2-4.2-6.4-10-6.3-16.9c0.1-9.4,4.5-19.8,11.8-28c1.8-2,3.8-3.9,5.9-5.6c2.1-1.7,4.4-3.1,6.7-4.4
						c4.8-2.5,10.1-3.8,15.5-3.9c0.5,0,1.1,0,1.6,0c4.9,1.3,9.5,3.5,13.5,6.5c3.7,2.7,6.9,6.1,9.4,9.9c2.4,3.6,4.1,7.7,5.1,11.9
						c1,4.1,1.2,8.2,0.7,12.4c-0.5,3.5-1.5,6.9-3.2,10c-1.7,3.2-4,6-6.8,8.3c-3.1,2.5-6.7,4.5-10.6,5.7
						C1483.6,547.7,1478.7,548.4,1473.8,548.4L1473.8,548.4z M723.3,539.4c-5,0-9.9-1.1-14.3-3.3c-4.2-2.1-7.8-5.1-10.8-8.7
						c-3-3.7-5.4-7.8-7.1-12.3c-1.7-4.5-2.8-9.2-3.1-14c-0.8-11.6,2.4-22.2,8.9-29.2c2.6-2.8,5.9-5.1,9.4-6.6
						c4.1-1.7,8.5-2.5,13-2.5c1.6,0,3.1,0.1,4.7,0.3c1.4-0.2,2.8-0.2,4.2-0.2c4,0,8,0.7,11.7,2.2c3.3,1.4,6.4,3.5,8.9,6.1
						c1.8,1.9,3.4,3.9,4.7,6.2c1.3,2.3,2.5,4.7,3.3,7.3c1.7,5.3,2.6,10.8,2.4,16.4c-0.1,4.8-0.8,9.5-2.2,14
						c-1.3,4.4-3.4,8.5-6.1,12.2c-5.4,7.6-14.3,12.1-23.6,11.9c-0.3,0-0.5,0-0.8,0C725.3,539.3,724.3,539.4,723.3,539.4L723.3,539.4
						z M889,513.9L889,513.9c-6.1,0-12.2-1-17.9-3.1c-5.3-1.8-10-4.8-13.8-8.9c-1.9-2.1-3.3-4.6-4.2-7.3c-0.9-2.9-1.2-5.9-0.8-8.9
						c1.1-5.5,3.1-10.7,6-15.6c2.5-4.1,5.6-7.8,9.4-10.8c6.7-5.4,15.1-8.4,23.8-8.4c5.2,0,10.3,1.1,15,3.2c2.3,1.1,4.4,2.4,6.4,4
						c2,1.6,3.7,3.4,5.2,5.4c2.9,4.1,4.7,8.9,5.3,13.9c0.6,6.2-0.2,12.5-2.3,18.4c-0.9,3-2.5,5.7-4.6,8c-2.1,2.3-4.6,4.2-7.4,5.6
						c-3,1.5-6.1,2.6-9.4,3.3C896.1,513.5,892.6,513.9,889,513.9L889,513.9z M508,510.9L508,510.9c-6.4-0.1-12.8-0.9-19-2.4
						c-2-1.6-3.7-3.5-5.1-5.6c-1.9-2.6-3.5-5.3-4.9-8.2c-1.4-3-2.6-6-3.4-9.2c-0.8-2.8-1-5.8-0.7-8.7c0.2-1.8,0.9-3.6,1.9-5.1
						c1.1-1.6,2.7-2.7,4.5-3.4c0.7,0,1.5-1.4,2.4-3.6c0.7-1.9,1.2-4,1.3-6.1c3.1-7,6.7-12.3,10.8-15.7c3.2-2.9,7.4-4.6,11.8-4.7
						c6.6,0,13.6,4,19.6,11.4c5.8,7.3,9.7,15.9,11.5,25c0.9,4.8,1,9.7,0.2,14.4c-0.7,4.5-2.6,8.7-5.5,12.3c-2.7,3.1-6.1,5.5-9.9,7
						C518.6,510.1,513.3,511,508,510.9L508,510.9z M67.6,480.1L67.6,480.1c-3.3,0-6.7-0.3-9.9-0.8c-3.7-0.4-7.2-1.6-10.4-3.5
						c-2.8-1.8-5.2-4.2-7.1-7c-3.6-5.9-5.3-12.8-4.7-19.7c0.2-3.5,0.9-6.9,2-10.2c1.1-3.2,2.6-6.1,4.7-8.8c1.9-2.5,4.4-4.6,7.2-6.2
						c2.9-1.5,6.2-2.3,9.5-2.3c3.4,0,6.7,0.7,9.9,2c5.3,1,10.5,2.8,15.3,5.2c3.9,2,7.4,4.7,10.4,7.9c5.1,5.7,7.6,12.6,6.9,19.4
						c-0.7,6.7-4.2,12.7-9.6,16.7C85.6,477.6,77.2,480.1,67.6,480.1z M1067.3,478.6L1067.3,478.6c-2.2-0.1-4.3-0.9-6-2.2
						c-3.1-0.8-6-2.4-8.4-4.6c-2.3-2.1-4.1-4.7-5.3-7.6c-1.3-3.1-2.1-6.3-2.4-9.7c-0.3-3.6-0.3-7.2,0.2-10.8c0.6-4.5,1.8-8.8,3.5-13
						c1.6-4.1,3.9-7.9,6.6-11.4c2.6-3.3,5.7-6,9.3-8.1c3.6-2,7.6-3.1,11.7-3.1c3.6,0,7.2,0.8,10.5,2.2c7.3,1.5,13.9,5.7,18.4,11.7
						c4.3,5.6,6.7,12.4,7,19.5c0.1,3.1-0.2,6.2-0.9,9.2c-0.8,3-2,5.9-3.7,8.4c-1.8,2.7-4,5-6.5,6.9c-2.9,2.1-6.1,3.7-9.5,4.7
						c-1.6-1.1-3.4-1.7-5.3-1.7c-3.6,0-6.6,2.4-9.6,4.7l0,0l0,0c-1.4,1.2-3,2.3-4.6,3.3C1070.8,478.1,1069,478.6,1067.3,478.6
						L1067.3,478.6z M1407.9,476.4c-6.4-0.1-12.8-1.2-18.9-3.3c-1.6-0.6-3.5-2.2-5.4-4.8c-2-2.8-3.7-5.8-5.1-9
						c-1.5-3.4-2.7-6.9-3.5-10.4c-0.8-3-1-6.1-0.6-9.2c0.2-1.5,0.8-2.9,1.8-4c1.1-1,2.5-1.6,4-1.5c0.2,0,0.5,0,0.7,0
						c-0.5-3.4,0.5-6.5,1.5-9.6c0.9-2.4,1.4-4.9,1.6-7.5c3.5-4.2,7.7-7.7,12.4-10.4c3.5-2,7.4-3.1,11.5-3.2c3.8,0,7.6,1.1,10.9,3.1
						c3.4,2.1,6.4,4.9,8.8,8.2c2.6,3.6,4.7,7.5,6.2,11.6c1.6,4.3,2.7,8.8,3.1,13.4c0.3,2.6,0.3,5.2,0.2,7.8c-0.1,2.5-0.5,5-1.1,7.4
						c-1.1,4.7-3.3,9-6.5,12.6c-2.5,2.7-5.5,4.8-8.9,6.2C1416.6,475.7,1412.2,476.5,1407.9,476.4L1407.9,476.4L1407.9,476.4z
						 M1287.9,476.4c-9.8,0-18.4-2.9-24.8-8.5c-3-2.6-5.4-5.6-7.3-9.1c-1.8-3.4-3-7.1-3.6-10.9c-1.2-8.6,0.8-17.3,5.7-24.5
						c2.7-4,6.2-7.5,10.1-10.3c4.7-3.3,9.9-5.7,15.3-7.3c2.5-0.4,5.1-0.6,7.7-0.6c4.9,0,9.7,0.8,14.3,2.5
						c8.2,3.1,15.2,8.9,19.6,16.5c2.1,3.6,3.6,7.5,4.3,11.5c0.7,3.6,0.8,7.3,0.3,10.9c-0.5,3.7-1.7,7.2-3.5,10.5
						c-2,3.5-4.5,6.6-7.6,9.2c-3.6,3-7.7,5.4-12.1,7C1300.4,475.3,1294.2,476.3,1287.9,476.4L1287.9,476.4z M623.3,474.9
						c-7.1,0-12.8-1.3-17.2-4c-2.6-1.5-4.8-3.6-6.6-6c-2.1-2.9-3.6-6.2-4.6-9.7c-1-5.9-1-12,0-17.9c0.8-4.3,2.6-8.3,5.4-11.7
						c4.4-5.1,11-7.7,19.1-7.7c8.5,0,18.2,3,26.5,8.2c3.9,2.4,7.4,5.3,10.4,8.8c2.8,3,4.8,6.7,6.1,10.6c1.3,4.4,1,9.2-1,13.4
						c-2.2,4.7-6.5,9.1-12.6,13c-1.1,0.2-2.3,0.4-3.4,0.6C638,473.6,630.5,474.9,623.3,474.9L623.3,474.9z M209.3,474.9L209.3,474.9
						c-3.1-0.1-6-0.8-8.8-2.2c-2.9-1.5-5.5-3.4-7.8-5.8c-4.3-4.5-6.6-9.9-6.4-14.7c-0.8-7-0.3-14.1,1.4-20.9
						c1.3-5.1,3.8-9.8,7.3-13.8c2.9-3.2,6.5-5.6,10.5-7.1c4-1.5,8.2-2.3,12.4-2.2c3.9,0,7.8,0.6,11.6,1.7c3.7,1.1,7.3,2.6,10.7,4.7
						c3.2,1.9,6.1,4.3,8.6,7.1c2.4,2.7,4.1,5.8,5.3,9.1c0.9,2.7,1.2,5.5,1,8.3c-0.2,3.1-1,6.1-2.3,8.9c-3,6.5-8.7,12.9-17,18.9
						c-0.5,0-1,0.1-1.5,0.1c-0.6,0-1.3,0-2,0H232c-0.8,0-1.6,0-2.5,0c-3.1,0-7.1,0.3-9.3,2.5c-1.3,1.8-3,3.2-5,4.2
						C213.4,474.5,211.4,474.9,209.3,474.9L209.3,474.9z M411.1,456.1L411.1,456.1c-5.2,0-10.3-0.9-15.2-2.7
						c-5.1-1.9-9.8-4.8-13.8-8.5c-4-5.3-6.4-11.6-6.8-18.2c-0.2-3,0.1-6,0.7-8.9c0.7-2.9,1.7-5.7,3-8.4c1.8-3.5,4-6.7,6.7-9.5
						c5.5-5.9,12.5-10.2,20.2-12.5c3.9-1.2,7.9-1.8,12-1.8c4.9,0,9.7,0.9,14.2,2.7c5,2,9.6,5,13.5,8.7c5.1,5.8,8.2,12,9.3,18.2
						c0.5,2.8,0.5,5.7,0.2,8.6c-0.4,2.8-1.2,5.5-2.3,8c-1.7,3.6-4,6.9-6.7,9.8c-2.9,3-6.2,5.6-9.9,7.7c-3.8,2.2-7.8,3.9-12,5
						C419.9,455.5,415.5,456.1,411.1,456.1z M812.1,434.4c-1.9,0-3.7-0.2-5.6-0.6c-3.9-1.5-7.5-3.8-10.4-6.9
						c-3.4-3.5-6.3-7.4-8.6-11.6c-2.4-4.4-4.3-9.1-5.7-13.9c-1.3-4.5-1.9-9.1-1.7-13.8c0.1-3.9,1.2-7.8,3.3-11.1
						c2.2-3.2,5.5-5.4,9.3-6.1c3.4-0.7,6.5-2.5,9.5-4.2c1.9-1.1,3.8-2.2,5.8-3.1c2-0.9,4.2-1.4,6.3-1.4c2.7,0,5.3,0.8,7.7,2.1
						c3.9,1,7.5,2.8,10.6,5.3c2.8,2.3,5.1,5.2,6.7,8.5c1.6,3.3,2.7,6.9,3.2,10.6c0.5,3.8,0.5,7.7,0,11.6c-0.6,4.4-1.7,8.7-3.4,12.8
						c-1.6,4-3.8,7.8-6.6,11.1c-2.5,3.2-5.7,5.8-9.2,7.8C820,433.4,816.1,434.4,812.1,434.4L812.1,434.4L812.1,434.4z M955.3,427.6
						L955.3,427.6c-2.3,0-4.5-0.2-6.7-0.7c-2.2-0.5-4.4-1.2-6.4-2.2c-4.3-2.1-8-5.3-10.7-9.3c-4.9-4.6-8.1-9.4-9.5-14.3
						c-1.3-4.4-1-9,0.6-13.3c1.2-2.9,2.9-5.5,5-7.8c2.2-2.4,4.8-4.5,7.7-6.2c6-3.6,12.9-5.4,19.9-5.5c3,0,5.9,0.4,8.8,1.1
						c6.1,1.6,11.6,5,15.7,9.7c2.4,2.8,4.4,5.8,5.9,9.2c2.1,3.9,3.1,8.2,3,12.6c-0.2,3.9-1.4,7.7-3.4,11c-1.5,2.4-3.3,4.6-5.4,6.4
						c-2.2,1.9-4.6,3.6-7.2,4.9c-2.7,1.4-5.5,2.4-8.3,3.2C961.3,427.3,958.3,427.6,955.3,427.6z M740.8,393.1
						c-4.2,0-8.4-0.8-12.3-2.2c-4-1.5-7.8-3.5-11.3-6c-3.5-2.5-6.5-5.5-9.2-8.8c-2.6-3.2-4.6-6.8-6.1-10.6c-1-2.6-1.6-5.2-1.9-8
						c-0.3-2.7-0.1-5.4,0.4-8c1.4-5.9,4.6-11.1,9.2-15c0.6-1.4,1.4-2.7,2.4-3.8c0.8-1,1.8-1.8,2.9-2.5c2.2-1.2,4.6-1.8,7.1-1.8
						c5.5,0,11.8,2.3,18,4.5c5.7,2,11.1,4,15.8,4.2c4.9,1.5,9.1,4.8,11.6,9.2c1.1,2.1,1.9,4.3,2.4,6.6c0.4,2.4,0.6,4.9,0.4,7.4
						c-0.6,7.9-3.3,15.4-7.8,21.9c-2,3.1-4.5,5.8-7.4,8.2c-2.5,2.1-5.5,3.5-8.7,4.3C744.6,393,742.7,393.2,740.8,393.1z
						 M1197.3,386.4L1197.3,386.4c-2.2,0-4.3-0.3-6.4-0.8c-4.1-1.1-7.7-3.3-10.6-6.3c-1.5-1.5-2.7-3.3-3.8-5.2
						c-2.8-5.4-3.9-11.5-3.1-17.6c0.4-3.7,1.3-7.3,2.6-10.7c1.5-4.1,3.5-7.9,5.9-11.6c2.2-4,5.5-7.3,9.5-9.5c3.7-2,7.8-2.9,12-2.9
						c12.7,0,26,8.2,30.8,19.1c0.9,1.9,1.4,3.9,1.7,6c0.3,2.1,0.3,4.3-0.1,6.4c-1,5-3.4,9.5-6.9,13.2c-4.2,6.1-9.6,11.3-15.8,15.2
						c-2.5,1.5-5.2,2.7-8.1,3.5C1202.5,386,1199.9,386.4,1197.3,386.4L1197.3,386.4z M334.5,369.2L334.5,369.2
						c-6.3,0-11.6-0.9-15.7-2.7c-3.6-1.4-6.6-3.9-8.8-7.2c-3-4.7-3.8-11-2.6-18.8c1-6.5,3.5-14,7.4-22.2c3.9-4.3,8.5-7.8,13.6-10.5
						c3.9-2,8.1-3.1,12.5-3.2c3.5,0,7,0.8,10.1,2.3c3.1,1.5,5.9,3.7,8.1,6.3c2.4,2.7,4.3,5.7,5.7,9c1.4,3.4,2.3,7,2.7,10.7
						c0.4,3.8,0.1,7.7-0.9,11.4c-1,3.8-2.7,7.5-5,10.7c-2.6,3.5-6,6.5-9.8,8.7c-4.7,2.7-9.7,4.5-15,5.4
						C336,369.1,335.2,369.2,334.5,369.2z"/>
				</g>
			</g>
		</g>
	</g>
</g>
</svg>
