<svg id="pattern_01" data-name="pattern/01" xmlns="http://www.w3.org/2000/svg" xmlns:xlink="http://www.w3.org/1999/xlink" width="1440" height="810" viewBox="0 0 1440 810">
  <defs>
    <clipPath id="clip-path">
      <rect id="Mask" width="1440" height="810" fill="#303d78"/>
    </clipPath>
  </defs>
  <g id="Group_9" data-name="Group 9">
    <rect id="Mask-2" data-name="Mask" width="1440" height="810" fill="#25b89d"/>
    <g id="Mask_Group_15" data-name="Mask Group 15" clip-path="url(#clip-path)">
      <path id="Fill_1" data-name="Fill 1" d="M778.53,1124.25h0a26.079,26.079,0,0,1-9.927-1.95,29.34,29.34,0,0,1-9.323-6.218c-3.617-9.35-5.194-18.139-4.688-26.124a40.12,40.12,0,0,1,1.98-10.3,34.205,34.205,0,0,1,4.172-8.4,32.146,32.146,0,0,1,5.279-5.964,31.68,31.68,0,0,1,6.278-4.3,30.414,30.414,0,0,1,13.978-3.487,25.978,25.978,0,0,1,10.076,1.965,22.965,22.965,0,0,1,8.389,5.973c5.492,6.185,7.7,15.284,6.386,26.313a34.975,34.975,0,0,1-3.373,12.785,36.1,36.1,0,0,1-7.41,10.315,34.2,34.2,0,0,1-10.168,6.89A28.977,28.977,0,0,1,778.53,1124.25Zm141.639-16.5h-.006a40.549,40.549,0,0,1-12.475-2.118,24.576,24.576,0,0,1-11.8-5.375,31.793,31.793,0,0,1-8.02-10.344,47.622,47.622,0,0,1-4.294-13.416,58.368,58.368,0,0,1-.626-14.589,53.1,53.1,0,0,1,2.472-12.4A38.065,38.065,0,0,1,890.7,1039a25.147,25.147,0,0,1,8.045-7.277A21.943,21.943,0,0,1,909.515,1029a28.894,28.894,0,0,1,6.971.9,40.245,40.245,0,0,1,16.247,4.852,34.971,34.971,0,0,1,11.131,9.912,40.123,40.123,0,0,1,6.246,13.135,46.777,46.777,0,0,1,1.591,14.52,46.1,46.1,0,0,1-2.529,13.232,37.745,37.745,0,0,1-6.225,11.324,29.425,29.425,0,0,1-9.731,7.9A28.988,28.988,0,0,1,920.169,1107.75Zm-268.771-60h0a25.958,25.958,0,0,1-3.282-.211,43.462,43.462,0,0,1-16.413-5.026,33.879,33.879,0,0,1-10.915-9.625,37.026,37.026,0,0,1-5.886-12.609,45.317,45.317,0,0,1-1.326-13.978,49.178,49.178,0,0,1,2.8-13.837,42.684,42.684,0,0,1,6.478-11.932,31.382,31.382,0,0,1,9.673-8.373A25.656,25.656,0,0,1,644.916,969a32.419,32.419,0,0,1,13.506,3.179,58.763,58.763,0,0,1,15.045,10.42,23.821,23.821,0,0,1,6.6,7.478,29.844,29.844,0,0,1,3.354,9.553,40.444,40.444,0,0,1,.4,10.685,49.664,49.664,0,0,1-6.94,21.056,40.568,40.568,0,0,1-6.781,8.46,30.408,30.408,0,0,1-8.593,5.78A25.044,25.044,0,0,1,651.4,1047.75Zm800.753-9a36.393,36.393,0,0,1-10.6-1.551,32.982,32.982,0,0,1-9.836-4.877,33.384,33.384,0,0,1-8.145-8.546,42.044,42.044,0,0,1-5.522-12.559,18.387,18.387,0,0,1-1.1-9.439,20.186,20.186,0,0,1,3.447-8.416,29.607,29.607,0,0,1,5.948-6.282,40.076,40.076,0,0,1,7.814-4.85A42.826,42.826,0,0,1,1452.139,978a26.927,26.927,0,0,1,11.4,2.3,18.186,18.186,0,0,1,8.238,7.4c5.926,6.067,9.792,12.2,11.489,18.212a24.7,24.7,0,0,1,.942,8.114,21.811,21.811,0,0,1-1.677,7.239,24.156,24.156,0,0,1-4.8,7.247,30.382,30.382,0,0,1-7.154,5.511,36.461,36.461,0,0,1-8.772,3.505,38.634,38.634,0,0,1-9.655,1.228h0Zm-1229.934-7.5h0a35.785,35.785,0,0,1-15.136-3.392,54.8,54.8,0,0,1-11.655-15.8,36.677,36.677,0,0,1-2.895-8.607,26.209,26.209,0,0,1-.321-8.515,21.742,21.742,0,0,1,4.078-10.082,29.818,29.818,0,0,1,10.013-8.36,89.458,89.458,0,0,0,13.031-8.928c4.038-3.2,6.705-5.312,10.19-5.312,3.778,0,8.424,2.5,16.572,8.922a39.587,39.587,0,0,1,7.934,8.218,30.171,30.171,0,0,1,4.327,8.838,28,28,0,0,1,1.122,9.026,30.453,30.453,0,0,1-1.681,8.784,37.741,37.741,0,0,1-13.514,17.842,39.043,39.043,0,0,1-10.337,5.394A36.165,36.165,0,0,1,222.217,1031.25Zm205.173-.75h0a23.649,23.649,0,0,1-9.07-1.8,28.708,28.708,0,0,1-8.759-5.826,34.1,34.1,0,0,1-8.779-6.927,27.517,27.517,0,0,1-5.145-8.326,29.651,29.651,0,0,1-.808-18.4,37.039,37.039,0,0,1,4.64-10.532,38.8,38.8,0,0,1,7.735-8.838,36.072,36.072,0,0,1,10.214-6.082,33.357,33.357,0,0,1,12.076-2.263,36.289,36.289,0,0,1,13.36,2.633,35.892,35.892,0,0,1,11.024,4.255,23.439,23.439,0,0,1,7.043,6.511,22.177,22.177,0,0,1,3.5,8.119,28.491,28.491,0,0,1,.388,9.08,37.859,37.859,0,0,1-1.442,6.9,45.767,45.767,0,0,1-2.712,6.817,51.65,51.65,0,0,1-8.542,12.344,47.047,47.047,0,0,1-5.485,5.013,39.76,39.76,0,0,1-6.063,3.9A28.609,28.609,0,0,1,427.391,1030.5Zm849.829-5.25h0a43.172,43.172,0,0,1-10.12-1.306,49.519,49.519,0,0,1-9.915-3.6,34.576,34.576,0,0,1-8.116-5.4,16.815,16.815,0,0,1-4.724-6.724,29.119,29.119,0,0,1-4.589-14.573,24.247,24.247,0,0,1,.78-6.652,25.6,25.6,0,0,1,2.455-6.048,29.536,29.536,0,0,1,5.243-6.746,34.142,34.142,0,0,1,6.985-5.19,35.584,35.584,0,0,1,8.106-3.335,32.74,32.74,0,0,1,8.606-1.178,28.339,28.339,0,0,1,7.489.984,25.345,25.345,0,0,1,6.973,3.088,28.2,28.2,0,0,1,10.709,13.3,112.21,112.21,0,0,1,4.471,11.257,19.737,19.737,0,0,1,1.1,8.028,15.371,15.371,0,0,1-2.783,7.055,60.007,60.007,0,0,1-7.186,8.337,10.184,10.184,0,0,1-5.495,6.653,17.475,17.475,0,0,1-4.595,1.549A27.793,27.793,0,0,1,1277.22,1025.25ZM53.509,1015.5h0a41.044,41.044,0,0,1-12.067-1.953,54.709,54.709,0,0,1-11.889-5.341,53.54,53.54,0,0,1-10.307-7.957,39.136,39.136,0,0,1-7.318-9.8,24.578,24.578,0,0,1-2.915-12.119,22.32,22.32,0,0,1,4.447-12.383,45.542,45.542,0,0,1,15.713-13.134,39.384,39.384,0,0,1,8.585-3.077,38.454,38.454,0,0,1,8.641-.986,37.842,37.842,0,0,1,19.225,5.2A33.048,33.048,0,0,1,78.7,967.864a30.089,30.089,0,0,1,2.7,8.678,32.233,32.233,0,0,1-.05,9.748c-1.116,7.225-4.535,14.527-10.162,21.7a19.489,19.489,0,0,1-7.828,5.724A26.1,26.1,0,0,1,53.509,1015.5Zm956.111-2.25h0a23.543,23.543,0,0,1-10.341-2.515,57.853,57.853,0,0,1-13.416-9.136,41.51,41.51,0,0,1-8.341-10.579,32.913,32.913,0,0,1-3.723-11.053,28.266,28.266,0,0,1,.438-10.556,25.554,25.554,0,0,1,3.133-7.587,24,24,0,0,1,5.362-6.076,25.813,25.813,0,0,1,16.41-5.5,37.344,37.344,0,0,1,11.559,1.956,57.012,57.012,0,0,1,12.993,6.327,24.566,24.566,0,0,1,7.262,5.938,23.613,23.613,0,0,1,4.162,7.6,28.061,28.061,0,0,1,1.378,8.555,34.207,34.207,0,0,1-1.091,8.8,35.915,35.915,0,0,1-9.41,16.647,26.377,26.377,0,0,1-7.521,5.227A21.344,21.344,0,0,1,1009.62,1013.25ZM836.711,1008h0c-5.046,0-10.078-.346-14.945-.681-3.879-.267-7.543-.519-10.695-.546a41.625,41.625,0,0,1-11.412-6.216,28.6,28.6,0,0,1-7.114-8.1,26.229,26.229,0,0,1-3.238-9.35,30.953,30.953,0,0,1,.216-9.972c1.684-9.409,7.366-18.905,15.591-26.055A49.524,49.524,0,0,1,819,938.5a43.428,43.428,0,0,1,16.37-3.253,42.446,42.446,0,0,1,12.762,1.983,25.027,25.027,0,0,1,6.185,2.827,21.775,21.775,0,0,1,4.649,4.017,27.734,27.734,0,0,1,5.568,10.74c2.346,8.073,2.352,17.723,2.357,26.237,0,3.034,0,5.9.1,8.605A19.249,19.249,0,0,1,863.617,999a18.044,18.044,0,0,1-6.889,5.585,32.631,32.631,0,0,1-9.326,2.708A70.628,70.628,0,0,1,836.711,1008Zm283.851-12a22.767,22.767,0,0,1-18-8.544,35.109,35.109,0,0,1-7.442-19.619,40.774,40.774,0,0,1,.911-12.386,35.674,35.674,0,0,1,4.808-11.469,30.653,30.653,0,0,1,8.93-9,33.541,33.541,0,0,1,13.276-4.971,27.278,27.278,0,0,1,6.253-.764,20.908,20.908,0,0,1,9.249,2.075,22,22,0,0,1,7.088,5.586,30.08,30.08,0,0,1,4.864,8.143,40.182,40.182,0,0,1,2.575,9.743,45.085,45.085,0,0,1,.032,12.081,39.56,39.56,0,0,1-3.252,11.448,29.415,29.415,0,0,1-6.635,9.31,24.531,24.531,0,0,1-10.118,5.667A33.291,33.291,0,0,1,1120.562,996ZM551.976,983.251a65.392,65.392,0,0,1-15.331-2.133c-8.7-4-14.843-9.122-18.271-15.239a24.219,24.219,0,0,1-2.929-8.841,26.685,26.685,0,0,1,.463-9.057,36.994,36.994,0,0,1,5.6-12.665,50.656,50.656,0,0,1,9.882-10.773,49.777,49.777,0,0,1,12.429-7.487,34.993,34.993,0,0,1,13.239-2.805,24.772,24.772,0,0,1,8.188,1.337,22.394,22.394,0,0,1,7.326,4.264c4.783,4.155,8.209,10.489,10.18,18.824-.345,1.6-.678,3.164-1,4.681-2.464,11.606-4.591,21.629-8.753,28.69a21.782,21.782,0,0,1-8.075,8.25,25.784,25.784,0,0,1-12.943,2.956h0Zm818.457-12h0a39.362,39.362,0,0,1-18.977-4.88,38.529,38.529,0,0,1-14.223-13.563,39.655,39.655,0,0,1-4.394-10.092,44.069,44.069,0,0,1-1.588-11.82c-.011-8.915,2.443-18.3,7.291-27.883a19.176,19.176,0,0,1,4.927-8.215,32.2,32.2,0,0,1,8.638-6.134,51.3,51.3,0,0,1,22.311-5.165c5.946,0,11.2,1.116,15.209,3.228a16.586,16.586,0,0,1,5.226,4.174,13.4,13.4,0,0,1,2.766,6,48.679,48.679,0,0,1,5.064,13.3c1.079,4.573,1.711,9.321,2.323,13.913v.005c.5,3.731,1.01,7.589,1.762,11.316A56.1,56.1,0,0,0,1410,946.307a60.969,60.969,0,0,1-8.648,11.256,48.849,48.849,0,0,1-9.811,7.756,42.628,42.628,0,0,1-10.473,4.486A40.093,40.093,0,0,1,1370.433,971.25Zm-1058.345-7.5h0a38.84,38.84,0,0,1-12.555-2.217,43.581,43.581,0,0,1-11.724-6.223,36.191,36.191,0,0,1-8.982-9.588,28.282,28.282,0,0,1-4.326-12.315,54.9,54.9,0,0,1,5.845-17.183,43.442,43.442,0,0,1,9.673-12.05,39.247,39.247,0,0,1,11.943-7.1,36.138,36.138,0,0,1,12.653-2.326,30.412,30.412,0,0,1,13.645,3.108,25.238,25.238,0,0,1,5.6,3.83,23.78,23.78,0,0,1,4.365,5.3,25.515,25.515,0,0,1,3.014,7.531,32.561,32.561,0,0,1,.693,9.236c-.431,7.115-2.881,14.984-7.281,23.388a23.213,23.213,0,0,1-3.294,7.509,19.55,19.55,0,0,1-5.181,5.163,21.977,21.977,0,0,1-6.584,2.979A28.567,28.567,0,0,1,312.087,963.75ZM154.654,939h0a62.792,62.792,0,0,1-19.48-3.019,45.49,45.49,0,0,1-8.807-3.94,33.03,33.03,0,0,1-7.265-5.709,25.841,25.841,0,0,1-5.528-8.831,28.279,28.279,0,0,1-1.585-11.451,44.777,44.777,0,0,0,.02-9.378v0a66.02,66.02,0,0,1-.133-9.459c.3-3.357,1.162-5.755,2.645-7.331a6.992,6.992,0,0,1,2.62-1.738,10.69,10.69,0,0,1,3.817-.627c.3,0,.593.008.907.026a49.031,49.031,0,0,1,12.842-6.165c4.477-1.465,9.167-2.5,13.7-3.506h0c3.685-.815,7.5-1.659,11.145-2.723A56.573,56.573,0,0,0,170.134,861a29.045,29.045,0,0,1,12.64,7.02,43.263,43.263,0,0,1,9.155,12.365,57.08,57.08,0,0,1,5.135,15.3,55.8,55.8,0,0,1,.893,7.994,49.144,49.144,0,0,1-.313,7.823c-.944,7.685-3.76,14.161-8.144,18.727a24.244,24.244,0,0,1-8.463,5.711,31,31,0,0,1-11.651,2.1c-1.055,0-2.152-.043-3.261-.129A58.112,58.112,0,0,1,154.654,939Zm1062.155-6h0a36.06,36.06,0,0,1-13.189-2.4,30.215,30.215,0,0,1-11.258-7.619c-2.878-2.988-4.789-7.388-5.525-12.724a38.483,38.483,0,0,1-.238-7.881,44.184,44.184,0,0,1,1.315-8.052,37.489,37.489,0,0,1,6.075-13.053,24.27,24.27,0,0,1,4.666-4.755,18.082,18.082,0,0,1,5.653-2.936c5.157-1.216,12.856-2.832,20.153-2.832a37.208,37.208,0,0,1,8.316.856,21.5,21.5,0,0,1,7.13,2.963,16.761,16.761,0,0,1,5.28,5.665,23.53,23.53,0,0,1,2.763,8.962,30.186,30.186,0,0,1,4.543,14.519,23.364,23.364,0,0,1-3.141,12.363,28.642,28.642,0,0,1-5.722,7.02,36.2,36.2,0,0,1-7.807,5.331A42.265,42.265,0,0,1,1216.809,933ZM704.6,926.25a18.355,18.355,0,0,1-6.36-2.016,26.18,26.18,0,0,1-5.8-4.211,43.824,43.824,0,0,1-9.214-13.2,56.5,56.5,0,0,1-3.63-10.2,52.119,52.119,0,0,1-1.563-10.633c-.293-7.49,1.255-14.063,4.478-19.009a38.227,38.227,0,0,1,6.833-8.448,36.971,36.971,0,0,1,8.413-5.824,40.638,40.638,0,0,1,9.523-3.37,47.055,47.055,0,0,1,10.164-1.085,53.99,53.99,0,0,1,12.783,1.567,56.934,56.934,0,0,1,12.159,4.487,52.7,52.7,0,0,1,10.646,7.082,44.19,44.19,0,0,1,8.241,9.353,36.117,36.117,0,0,1,5.859,16.9,40.818,40.818,0,0,1-3.74,19.992c-7.507,10.27-22.159,12.168-36.33,14h-.01c-3.953.512-8.04,1.041-11.838,1.747A57.564,57.564,0,0,0,704.6,926.25Zm377.911-21h0a20.614,20.614,0,0,1-6.779-1.16,23.811,23.811,0,0,1-6.163-3.257,31.76,31.76,0,0,1-9.49-11.478,38.22,38.22,0,0,1-3.284-9.521,39.691,39.691,0,0,1,1.634-21.6,42.79,42.79,0,0,1,5.871-10.809,34.014,34.014,0,0,1,10.335-6.809,27.612,27.612,0,0,1,10.541-2.113,28.365,28.365,0,0,1,15.386,4.634,30.773,30.773,0,0,1,10.769,11.964,29.54,29.54,0,0,1,2.585,7.423,28.886,28.886,0,0,1,.483,8.11,30.585,30.585,0,0,1-1.959,8.485,36.6,36.6,0,0,1-4.743,8.548c-3.787,5.978-7.986,10.518-12.48,13.493A22.846,22.846,0,0,1,1082.514,905.25Zm-636.8-4.5h0a32.073,32.073,0,0,1-12.213-2.421,29.6,29.6,0,0,1-5.4-2.929,27.159,27.159,0,0,1-4.607-3.988,24.883,24.883,0,0,1-5.252-8.792,27.286,27.286,0,0,1-1.3-11.24c-1.018-1.731-2.113-3.326-3.172-4.868-2.069-3.014-4.023-5.86-4.736-8.873-.79-3.337.005-6.573,2.5-10.183a29.037,29.037,0,0,1,11.406-12.029,28.027,28.027,0,0,1,7.129-2.79,32.453,32.453,0,0,1,7.65-.888,44.359,44.359,0,0,1,23.079,7.007c7.269,4.549,12.931,10.781,15.945,17.549a28.863,28.863,0,0,1,2.213,7.513,26.026,26.026,0,0,1-.045,7.931c-.912,5.684-3.709,11.16-8.313,16.273A30.025,30.025,0,0,1,452.592,900,31.581,31.581,0,0,1,445.719,900.75Zm468.314-9h0a27.938,27.938,0,0,1-7.611-1.037,26.29,26.29,0,0,1-7.162-3.25,32.312,32.312,0,0,1-11.529-13.979,28.22,28.22,0,0,1-.026-3.54v0a38.643,38.643,0,0,0-.174-6.368,9.279,9.279,0,0,0-2.35-5.506,30.342,30.342,0,0,1-4.582-12.321,15.663,15.663,0,0,1,1.839-9.488,17.012,17.012,0,0,1,4.266-4.911,24.947,24.947,0,0,1,6.14-3.52A42.545,42.545,0,0,1,908.73,825a54.391,54.391,0,0,1,12.942,1.566,47.414,47.414,0,0,1,12.1,4.72c8.1,4.593,13.323,11.171,15.09,19.023a32.27,32.27,0,0,1-.554,15.1,33.641,33.641,0,0,1-2.694,6.707,36.138,36.138,0,0,1-3.981,5.954,38.667,38.667,0,0,1-12.538,9.98A34.057,34.057,0,0,1,914.033,891.75ZM247.856,874.5h0a12.069,12.069,0,0,1-3.648-.567,30.577,30.577,0,0,1-10.586-5.187,24.983,24.983,0,0,1-6.656-7.85c-3.059-5.645-4.123-12.64-3.076-20.229a48.915,48.915,0,0,1,11.586-25.153,36.794,36.794,0,0,1,10.472-8.342A26.983,26.983,0,0,1,258.482,804c6.587,0,13.106,2.521,19.376,7.493,3.354,2.148,7.656,6.875,10.959,12.043a40.37,40.37,0,0,1,4.03,7.987,15.384,15.384,0,0,1,1.05,7.232,82.02,82.02,0,0,1-8.123,17.4c-4.238,6.512-8.708,9.813-13.284,9.813a10.741,10.741,0,0,1-4.592-1.09,60.576,60.576,0,0,0-6.088,3.688C257.382,871.485,252.8,874.5,247.856,874.5Zm327.886-6.75a70.2,70.2,0,0,1-13.53-1.412,74.432,74.432,0,0,1-13.117-3.89,46.5,46.5,0,0,1-10.66-5.85,18.418,18.418,0,0,1-6.162-7.292c-2.659-7.878-3.823-15.02-3.458-21.228a27.058,27.058,0,0,1,4.746-14.451,23.409,23.409,0,0,1,9.9-7.846,29.914,29.914,0,0,1,6.268-1.906,36.356,36.356,0,0,1,6.805-.625,43.473,43.473,0,0,1,9.873,1.169,47.908,47.908,0,0,1,9.732,3.424,44.269,44.269,0,0,1,16.3,13.1,37.006,37.006,0,0,1,6.93,15.689,43.242,43.242,0,0,1-1.258,19.858,11.307,11.307,0,0,1-2.719,5.129,15.425,15.425,0,0,1-4.991,3.5,27.62,27.62,0,0,1-6.727,2A46.425,46.425,0,0,1,575.742,867.75ZM1443.681,855h-.007a47.968,47.968,0,0,1-20.883-4.7,37.107,37.107,0,0,1-15.3-13.311,32.407,32.407,0,0,1-4.986-16.9c-.139-6.746,1.59-13.954,5.137-21.424,3.011-7.546,7.438-13.317,13.16-17.154a30.471,30.471,0,0,1,8.636-3.993,34.232,34.232,0,0,1,9.385-1.274,44.981,44.981,0,0,1,19.247,4.626,53.535,53.535,0,0,1,16.63,12.506,49.74,49.74,0,0,1,5.428,7.321,45.362,45.362,0,0,1,3.934,8.24,41.005,41.005,0,0,1,2.169,18.575,47.979,47.979,0,0,1-7.9,12.343,44.133,44.133,0,0,1-10.314,8.553A47.309,47.309,0,0,1,1443.681,855ZM59.194,847.5h0a26.694,26.694,0,0,1-9.187-1.612,28.544,28.544,0,0,1-8.734-5.166,26.262,26.262,0,0,1-9.847-14.775,26.65,26.65,0,0,1-.585-8.218,33.492,33.492,0,0,1,1.769-8.254,43.442,43.442,0,0,1,5.709-10.94,48.785,48.785,0,0,1,8.452-9.157,40.83,40.83,0,0,1,10.067-6.29,26.878,26.878,0,0,1,10.554-2.338c5.928,0,14.115,2.48,19.456,14.293a30.833,30.833,0,0,1,4.766,7.733,27.061,27.061,0,0,1,2.016,7.984,28.111,28.111,0,0,1-.4,7.922,32.061,32.061,0,0,1-2.474,7.549,36.963,36.963,0,0,1-5.471,8.405,39.185,39.185,0,0,1-7.517,6.746,36.076,36.076,0,0,1-8.914,4.488A30.307,30.307,0,0,1,59.194,847.5Zm1236.251-6h0a37.826,37.826,0,0,1-8.584-.968,34.049,34.049,0,0,1-8.143-3.027,35.017,35.017,0,0,1-13.542-12.969A42.374,42.374,0,0,1,1260.011,804a34.1,34.1,0,0,1,5.087-17.053,41.113,41.113,0,0,1,7.727-9.195,49.248,49.248,0,0,1,10.02-6.9,52.445,52.445,0,0,1,11.308-4.342A46.915,46.915,0,0,1,1305.747,765c7.616,0,14.276,2.057,19.26,5.949a23.917,23.917,0,0,1,6.481,7.79,30.757,30.757,0,0,1,3.225,11.314,32.786,32.786,0,0,1,3.179,16.723,32.131,32.131,0,0,1-5.085,14.677C1325.164,833.444,1310.149,841.5,1295.445,841.5ZM688.3,820.5l-49.644-.9c-9.014-5.889-12.939-12.214-12.351-19.9a32.706,32.706,0,0,1,3.094-10.8c1.664-3.731,3.817-7.589,6.1-11.673l0,0,.124-.222c.335-.6.678-1.215,1.018-1.828a33.526,33.526,0,0,1,4.135-8.509,21.351,21.351,0,0,1,5.376-5.435c3.639-2.505,8.039-3.723,13.452-3.723,7.589,0,15.811,2.375,23.763,4.672,1.832.529,3.563,1.029,5.3,1.5a25.224,25.224,0,0,1,7.077,4.675,27.146,27.146,0,0,1,5.073,6.5A33.866,33.866,0,0,1,705,791.026a37.019,37.019,0,0,1-.962,8.9,34.061,34.061,0,0,1-3.111,8.325,29.464,29.464,0,0,1-5.249,7.08A26.735,26.735,0,0,1,688.3,820.5Zm475.38-3.75h0a33.994,33.994,0,0,1-12.728-2.639,46.216,46.216,0,0,1-11.688-6.952,47.566,47.566,0,0,1-9.176-9.824,33.544,33.544,0,0,1-5.193-11.254,22.575,22.575,0,0,1-.59-6.84,18.5,18.5,0,0,1,1.693-6.525c2.08-4.428,5.953-8.082,11.511-10.858a33.3,33.3,0,0,1,9.7-5.617,28.773,28.773,0,0,1,9.853-1.742,30.909,30.909,0,0,1,11.119,2.119,36.494,36.494,0,0,1,9.828,5.72,39.165,39.165,0,0,1,7.724,8.363,35.366,35.366,0,0,1,4.809,10.049,29.274,29.274,0,0,1,1.2,8.491,25.615,25.615,0,0,1-1.515,8.474,26.635,26.635,0,0,1-4.634,7.987,35.066,35.066,0,0,1-8.151,7.03A24.681,24.681,0,0,1,1163.681,816.75Zm-347.313,0h0a30.1,30.1,0,0,1-10.033-1.83,39.87,39.87,0,0,1-9.616-5.021,39.364,39.364,0,0,1-13.831-16.805,28.564,28.564,0,0,1-1.952-7.381,24.939,24.939,0,0,1,.25-7.68c1.048-5.485,3.957-10.606,8.644-15.219a20.1,20.1,0,0,1,8.611-5.02A39.459,39.459,0,0,1,810.447,756a40.625,40.625,0,0,1,8.918.965,30.831,30.831,0,0,1,8.154,3.023,21.223,21.223,0,0,1,6.381,5.271,18.148,18.148,0,0,1,3.6,7.709,57.81,57.81,0,0,0,2.632,7.451,63.457,63.457,0,0,1,3.1,8.97c.765,3.312.672,5.924-.283,7.984a7.913,7.913,0,0,1-2.251,2.836,12.945,12.945,0,0,1-4.066,2.107,23.625,23.625,0,0,1-8.573,11.064A20.706,20.706,0,0,1,816.368,816.75Zm192.533-1.5a31.534,31.534,0,0,1-11.062-1.99,34.629,34.629,0,0,1-10.616-6.409,43.832,43.832,0,0,1-6.3-11.448,46.975,46.975,0,0,1-2.75-12.357,44.708,44.708,0,0,1,4.1-23.267,33.337,33.337,0,0,1,4.084-6.389,27.3,27.3,0,0,1,5.312-4.988,23.847,23.847,0,0,1,6.454-3.244A24.4,24.4,0,0,1,1005.63,744c6.049,0,12.523,2.067,19.244,6.142a53.313,53.313,0,0,1,11.356,8.827,35.152,35.152,0,0,1,6.662,9.638,28.519,28.519,0,0,1,2.542,9.93,29.122,29.122,0,0,1-1,9.7,34.1,34.1,0,0,1-5,10.511,39.185,39.185,0,0,1-8.232,8.586A36.946,36.946,0,0,1,1008.9,815.25Zm-642.387-1.5a29.507,29.507,0,0,1-16.667-5.314c-7.7-15.276-7.431-35.861.629-48.948a26.978,26.978,0,0,1,8.836-9.059,23.79,23.79,0,0,1,12.6-3.43c6.11,0,12.866,2.006,20.081,5.961a30.061,30.061,0,0,1,6.684,7.54,27.231,27.231,0,0,1,3.422,8.533,33.068,33.068,0,0,1-1.465,18.006,43.226,43.226,0,0,1-13.3,18.769,37.018,37.018,0,0,1-9.813,5.8,30.063,30.063,0,0,1-11.006,2.143h0Zm-237-27a29.51,29.51,0,0,1-16.669-5.314c-7.7-15.27-7.434-35.853.626-48.941a26.98,26.98,0,0,1,8.839-9.064,23.8,23.8,0,0,1,12.6-3.432c6.109,0,12.863,2,20.075,5.958a30.074,30.074,0,0,1,6.685,7.542,27.237,27.237,0,0,1,3.422,8.535,33.073,33.073,0,0,1-1.466,18.009,43.224,43.224,0,0,1-13.3,18.766,37.013,37.013,0,0,1-9.812,5.8,30.067,30.067,0,0,1-11.005,2.143h0ZM496.471,786h0a37.219,37.219,0,0,1-4.294-.257,45.128,45.128,0,0,1-14.574-4.716,40.525,40.525,0,0,1-10.953-8.418,36,36,0,0,1-6.858-10.714,29.581,29.581,0,0,1-2.289-11.607,24.682,24.682,0,0,1,1.87-9.209,24.341,24.341,0,0,1,5.533-8.086,31.14,31.14,0,0,1,9.458-6.186,49.33,49.33,0,0,1,13.646-3.508,32.339,32.339,0,0,1,4.327-.3,26.754,26.754,0,0,1,20.961,9.844,35.482,35.482,0,0,1,5.917,10.09,41.034,41.034,0,0,1,2.651,11.566c.778,9.553-1.815,18.329-7.114,24.077a22.135,22.135,0,0,1-7.689,5.413A27.007,27.007,0,0,1,496.471,786Zm875.209-39h0a34.367,34.367,0,0,1-12.983-2.6,40.767,40.767,0,0,1-11.327-5.331,26.2,26.2,0,0,1-7.1-7.209,23.217,23.217,0,0,1-3.349-8.491,27.885,27.885,0,0,1-.074-9.177,35.874,35.874,0,0,1,1.7-6.68,43.136,43.136,0,0,1,2.969-6.506,49.731,49.731,0,0,1,9.034-11.606,47.627,47.627,0,0,1,5.713-4.658,42.089,42.089,0,0,1,6.275-3.6A32.227,32.227,0,0,1,1376.063,678a26.647,26.647,0,0,1,12.681,3.184,35.587,35.587,0,0,1,11.673,10.492,31.227,31.227,0,0,1,5.028,8.06,28.979,28.979,0,0,1,2.164,8.526,32.781,32.781,0,0,1-3.028,16.824,38.321,38.321,0,0,1-5.5,8.622,38.939,38.939,0,0,1-7.642,6.955A34.722,34.722,0,0,1,1371.68,747Zm-469.56-.75h0a62.647,62.647,0,0,1-11.153-1.01,63.484,63.484,0,0,1-10.6-2.89,60.372,60.372,0,0,1-9.665-4.56,53.5,53.5,0,0,1-8.344-6.02c-4.9-5.526-7.968-11.159-9.1-16.743a23.918,23.918,0,0,1,1.672-14.858,32.124,32.124,0,0,1,7.26-9.981,47.867,47.867,0,0,1,10.944-7.709,59.809,59.809,0,0,1,13.157-4.969,57.446,57.446,0,0,1,13.9-1.76c8.435,0,15.882,2.055,21.536,5.944a26.368,26.368,0,0,1,7.542,7.889,30.7,30.7,0,0,1,4.111,11.575c.846,3.955,2.892,7.576,4.87,11.077,2.191,3.878,4.261,7.54,4.486,11.276a10.356,10.356,0,0,1-1.272,5.672,19.393,19.393,0,0,1-5.368,5.93A55.868,55.868,0,0,1,902.12,746.25Zm-671.757-3h0a43.206,43.206,0,0,1-10.672-1.378,46.429,46.429,0,0,1-10.213-3.938,41.863,41.863,0,0,1-8.84-6.211,33.575,33.575,0,0,1-6.55-8.194,27.332,27.332,0,0,1-3.569-14.561,35.541,35.541,0,0,1,5.627-17.176c3.529-5.376,6.079-9.26,8.234-11.527,2.063-2.169,3.878-3.014,6.474-3.014a44.456,44.456,0,0,1,7.876,1.174c2.232.446,4.76.952,7.87,1.468,2.728,1,5.556,1.858,8.29,2.685,6.293,1.9,12.236,3.7,16.717,7.07a17.62,17.62,0,0,1,5.4,6.409,22.585,22.585,0,0,1,2.095,9.931,46.7,46.7,0,0,1-.8,16.863,27.249,27.249,0,0,1-5.95,11.52,25.263,25.263,0,0,1-9.867,6.742A33.461,33.461,0,0,1,230.363,743.25ZM741.519,729h0a50.247,50.247,0,0,1-9-.793,41.649,41.649,0,0,1-8.463-2.467,32.784,32.784,0,0,1-13.8-10.49,37.7,37.7,0,0,1-7.455-20.329,35.808,35.808,0,0,1,.894-9.855,40.13,40.13,0,0,1,3.4-9.226,46.3,46.3,0,0,1,7.19-10.242,50.009,50.009,0,0,1,9.623-8.1,46.919,46.919,0,0,1,11.193-5.328,39.18,39.18,0,0,1,11.9-1.917,33.006,33.006,0,0,1,9.876,1.48,31.732,31.732,0,0,1,9.258,4.69c6.226,4.552,11.149,11.449,14.632,20.5,7.778,9.73,9.544,19.751,5.106,28.981a31.686,31.686,0,0,1-7.141,9.422,46.837,46.837,0,0,1-10.628,7.295A59.7,59.7,0,0,1,741.519,729Zm-147.814-1.5h0a47.569,47.569,0,0,1-8.5-.746,38.949,38.949,0,0,1-7.933-2.307,29.4,29.4,0,0,1-12.675-9.719,39.981,39.981,0,0,1-4.544-12.26,64.6,64.6,0,0,1-1.278-14.873,71.388,71.388,0,0,1,2.078-15.506,56.3,56.3,0,0,1,5.525-14.159,35.177,35.177,0,0,1,10.686-12.014,27.089,27.089,0,0,1,15.468-4.667,33.261,33.261,0,0,1,4.036.253,45.641,45.641,0,0,0,9.416.835,66.026,66.026,0,0,1,9.656.716c3.384.612,5.721,1.729,7.143,3.416a7.086,7.086,0,0,1,1.48,3.032,11.83,11.83,0,0,1,.075,4.288,48.547,48.547,0,0,1,5.078,13.288c1.082,4.571,1.716,9.318,2.33,13.907v.007c.5,3.73,1.014,7.587,1.765,11.3a55.951,55.951,0,0,0,3.24,10.864,29.084,29.084,0,0,1-6.5,10.041,42.33,42.33,0,0,1-10.292,7.675,54.631,54.631,0,0,1-12.658,4.9A55.519,55.519,0,0,1,593.706,727.5Zm633.6-6h0a18.555,18.555,0,0,1-8.023-1.789,20.9,20.9,0,0,1-6.467-4.881,28.679,28.679,0,0,1-4.735-7.25,37.961,37.961,0,0,1-2.821-8.894,43.79,43.79,0,0,1-.515-12.779,41.846,41.846,0,0,1,3.388-12.752,36.078,36.078,0,0,1,20.056-19.131,25.343,25.343,0,0,1,8.743-1.524,29.562,29.562,0,0,1,6.662.784,35.2,35.2,0,0,1,6.485,2.21,42.715,42.715,0,0,1,11.6,7.841,41.712,41.712,0,0,1,8.368,10.975,32.882,32.882,0,0,1,2.446,6.128,26.518,26.518,0,0,1,1.008,6.268,80.914,80.914,0,0,1-8.048,17.2c-4.2,6.434-8.626,9.7-13.16,9.7a10.663,10.663,0,0,1-4.552-1.078,44.4,44.4,0,0,1-10.834,6.861A24.577,24.577,0,0,1,1227.307,721.5Zm-96.369-4.5h0a42.046,42.046,0,0,1-17.5-3.787,36.332,36.332,0,0,1-7.588-4.678,31.684,31.684,0,0,1-6.09-6.485c-4.492-6.422-8.547-17.641-2.353-34.62a40.938,40.938,0,0,1,4.065-7.832,22.412,22.412,0,0,1,4.637-5.063A16.787,16.787,0,0,1,1116.84,651c6.351,0,13.327,2.654,20.713,5.464,6.418,2.442,13.05,4.966,19.657,5.863,3.947,8.818,5.978,16.958,6.038,24.194a30.271,30.271,0,0,1-4.575,17.024,26.7,26.7,0,0,1-5.256,5.931,29.9,29.9,0,0,1-6.662,4.2A37.869,37.869,0,0,1,1130.938,717ZM83.719,692.249h0c-6.111,0-13.182-2-19.42-3.769l-.563-.159c-6.552-1.856-12.74-3.609-17.916-3.609-.3,0-.6.006-.887.018a15.31,15.31,0,0,1-4.31-3.4,20.482,20.482,0,0,1-3.159-4.838,33.064,33.064,0,0,1-2.914-12.467,42.646,42.646,0,0,1,2.734-17.229c2.232-5.722,5.611-10.191,9.773-12.925a29.611,29.611,0,0,1,8.8-4.657,30.083,30.083,0,0,1,9.35-1.459,36.112,36.112,0,0,1,11.94,2.114,44.232,44.232,0,0,1,11.032,5.765,43.566,43.566,0,0,1,15.308,19.024,32.252,32.252,0,0,1,2.092,8.334,27.852,27.852,0,0,1-.377,8.561c-1.233,6.062-4.5,11.6-9.716,16.472C92.648,690.866,88.8,692.249,83.719,692.249Zm390.463-3h0a22.922,22.922,0,0,1-7.874-1.385,24.6,24.6,0,0,1-6.8-3.832,32.208,32.208,0,0,1-9.584-13.081,38.93,38.93,0,0,1-2.469-20.654,35.928,35.928,0,0,1,3.284-10.423A35.3,35.3,0,0,1,457.5,630.5a41.367,41.367,0,0,1,10.855-7.838,23.263,23.263,0,0,1,9.979-2.408,19.376,19.376,0,0,1,7.545,1.529,22.847,22.847,0,0,1,6.49,4.209,34.913,34.913,0,0,1,9.037,14.2,44.653,44.653,0,0,1,1.878,22.867,33.382,33.382,0,0,1-11.55,20.1C485.821,687.2,479.915,689.25,474.181,689.25ZM1008.87,673.5h0a52.135,52.135,0,0,1-11.486-1.187,26.735,26.735,0,0,1-8.97-3.6c-5.46-6.245-8.813-12.745-9.967-19.319a29.12,29.12,0,0,1-.181-9.006,29.886,29.886,0,0,1,2.417-8.283,35.236,35.236,0,0,1,6.328-9.388,43.672,43.672,0,0,1,30.86-13.72,31.306,31.306,0,0,1,11.581,2.119,27.041,27.041,0,0,1,9.894,6.749,33.189,33.189,0,0,1,6.964,11.97,57.338,57.338,0,0,1,2.792,17.78,16.238,16.238,0,0,1-4.221,13.256c-3.437,3.911-8.859,7.172-15.68,9.428A66.461,66.461,0,0,1,1008.87,673.5Zm-683.183-5.25a13.566,13.566,0,0,1-7.727-2.8,30.724,30.724,0,0,1-8.865-6.916A27.092,27.092,0,0,1,304,649.8a34.763,34.763,0,0,1-.543-20.053,47.469,47.469,0,0,1,12.8-22.244,36.993,36.993,0,0,1,10.193-7.1,27.866,27.866,0,0,1,11.7-2.658,26.676,26.676,0,0,1,10.146,2.04,35.562,35.562,0,0,1,10.226,6.6,30.108,30.108,0,0,1,11.507,16.194,31.373,31.373,0,0,1,1.215,9.36,31.947,31.947,0,0,1-1.53,9.153,30.043,30.043,0,0,1-3.583,7.46,26.844,26.844,0,0,1-5.509,6.055,24.839,24.839,0,0,1-7.278,4.064,26.552,26.552,0,0,1-8.889,1.485c-.845,0-1.712-.037-2.576-.11-1.724,1.015-3.313,2.107-4.851,3.162l-.007,0,0,0a49.408,49.408,0,0,1-5.614,3.513A12.526,12.526,0,0,1,325.686,668.25Zm1144.279-9.75h0a32.358,32.358,0,0,1-12.734-2.6,38.077,38.077,0,0,1-12.119-8.42,56.4,56.4,0,0,1-4.459-11.669,44.1,44.1,0,0,1-1.4-10.913,37.143,37.143,0,0,1,1.336-9.9,34.029,34.029,0,0,1,3.754-8.64,33.631,33.631,0,0,1,5.733-7.013,35.129,35.129,0,0,1,7.454-5.307,37.984,37.984,0,0,1,8.871-3.361,42.248,42.248,0,0,1,9.983-1.174,49.034,49.034,0,0,1,12.961,1.8,60.324,60.324,0,0,1,13.6,5.675,35.358,35.358,0,0,1,5.325,9.116,32.154,32.154,0,0,1,2.147,9.452,34.143,34.143,0,0,1-.649,9.4,39,39,0,0,1-3.063,8.959,44.173,44.173,0,0,1-6.408,9.72,45.724,45.724,0,0,1-8.715,7.8,41.694,41.694,0,0,1-10.338,5.191A35.518,35.518,0,0,1,1469.965,658.5Zm-1252.138-27h0a40.759,40.759,0,0,1-16.233-3.056,24.155,24.155,0,0,1-6.32-3.973,18.759,18.759,0,0,1-4.415-5.738,41.8,41.8,0,0,1-4.049-19.739,32.811,32.811,0,0,1,5.223-15.974,37.855,37.855,0,0,1,14.365-12.88,41.332,41.332,0,0,1,9.056-3.447,39.01,39.01,0,0,1,9.482-1.192,33.185,33.185,0,0,1,11.94,2.138,28.714,28.714,0,0,1,10.262,6.7,32.679,32.679,0,0,1,7.471,12.362,53.284,53.284,0,0,1,2.6,18.316,16.782,16.782,0,0,1-1.154,7.461,20.71,20.71,0,0,1-4.16,6.413,38.074,38.074,0,0,1-14.984,9.279,57.149,57.149,0,0,1-19.078,3.332Zm550.886-15h0a32.347,32.347,0,0,1-12.732-2.6,38.071,38.071,0,0,1-12.118-8.42,56.405,56.405,0,0,1-4.46-11.67A44.1,44.1,0,0,1,738,582.9a37.127,37.127,0,0,1,1.336-9.9,34.029,34.029,0,0,1,3.754-8.64,33.633,33.633,0,0,1,5.732-7.013,35.116,35.116,0,0,1,7.453-5.307,37.987,37.987,0,0,1,8.87-3.361,42.248,42.248,0,0,1,9.983-1.174,49.039,49.039,0,0,1,12.962,1.8,60.326,60.326,0,0,1,13.6,5.675,35.35,35.35,0,0,1,5.326,9.114,32.141,32.141,0,0,1,2.147,9.451,34.14,34.14,0,0,1-.649,9.4,39,39,0,0,1-3.062,8.958,44.193,44.193,0,0,1-6.408,9.721,45.731,45.731,0,0,1-8.715,7.8,41.7,41.7,0,0,1-10.339,5.192A35.525,35.525,0,0,1,768.713,616.5ZM898.556,606h0a37.627,37.627,0,0,1-7.087-.674,12.41,12.41,0,0,1-3.2.545,2.541,2.541,0,0,1-1.916-.624c-.7-.72-.652-2-.605-3.353.082-2.4.175-5.119-3.623-5.874-6.105-2.458-10.434-5.978-12.867-10.46a18.659,18.659,0,0,1-2.114-6.731,23.614,23.614,0,0,1,.327-7.269,32.9,32.9,0,0,1,2.075-6.635,43.636,43.636,0,0,1,3.515-6.542,56.148,56.148,0,0,1,10.421-11.828,54.164,54.164,0,0,1,13.4-8.528,36.43,36.43,0,0,1,14.534-3.277,27.084,27.084,0,0,1,5.773.609A47.494,47.494,0,0,1,930.6,539.4a27.761,27.761,0,0,1,8.779,6.567,22.345,22.345,0,0,1,4.614,8.4,26.178,26.178,0,0,1,.91,9.532,34.828,34.828,0,0,1-1.468,7.474,43.769,43.769,0,0,1-3.095,7.429,54.222,54.222,0,0,1-17.09,19.081A49.76,49.76,0,0,1,915.6,602.2,41.327,41.327,0,0,1,898.556,606Zm358.839-.75h-.006a32.677,32.677,0,0,1-15.109-3.8,43.454,43.454,0,0,1-12.461-9.884,53.038,53.038,0,0,1-4.934-6.524,55.541,55.541,0,0,1-3.906-7.205,53.6,53.6,0,0,1-2.758-7.606,47.62,47.62,0,0,1-1.487-7.726c-.831-7.879.567-14.994,4.044-20.576a25.121,25.121,0,0,1,7.392-7.612,32.747,32.747,0,0,1,11.474-4.673h.186a104,104,0,0,0,12.658-1.142l.446-.057a111.915,111.915,0,0,1,13.864-1.2,32.57,32.57,0,0,1,7.123.686,16.471,16.471,0,0,1,5.946,2.5,13.236,13.236,0,0,1,4.256,4.959,21.714,21.714,0,0,1,2.051,8.078,94.69,94.69,0,0,1,2.768,16.172,73.846,73.846,0,0,1-.53,18.071,37.922,37.922,0,0,1-6.04,15.889,24.559,24.559,0,0,1-13.761,9.629A32.976,32.976,0,0,1,1257.4,605.25Zm-1144.717,0h0a22.919,22.919,0,0,1-7.873-1.385,24.591,24.591,0,0,1-6.8-3.831,32.2,32.2,0,0,1-9.584-13.08A38.926,38.926,0,0,1,85.949,566.3a35.91,35.91,0,0,1,3.284-10.423A35.291,35.291,0,0,1,96,546.5a41.37,41.37,0,0,1,10.855-7.838,23.262,23.262,0,0,1,9.979-2.408,19.377,19.377,0,0,1,7.546,1.529,22.855,22.855,0,0,1,6.49,4.209,34.911,34.911,0,0,1,9.037,14.2,44.646,44.646,0,0,1,1.878,22.866,33.38,33.38,0,0,1-11.55,20.1C124.321,603.2,118.414,605.25,112.679,605.25Zm1267.9-2.25h0a33.228,33.228,0,0,1-11.417-2.264,30.563,30.563,0,0,1-10.451-3.655,21.642,21.642,0,0,1-6.8-6.233c-3.213-4.6-4.611-10.564-4.044-17.254a42.491,42.491,0,0,1,3.5-13.306,47.637,47.637,0,0,1,7.607-12.007,38,38,0,0,1,10.734-8.686,27.324,27.324,0,0,1,12.888-3.344,28.214,28.214,0,0,1,15.435,4.86c3.843,6.023,6.268,14.871,6.655,24.277a59.735,59.735,0,0,1-.948,13.609,41.091,41.091,0,0,1-4.154,12.066,23.969,23.969,0,0,1-7.634,8.637A20.181,20.181,0,0,1,1380.581,603Zm-787.027-6a36.035,36.035,0,0,1-13.186-2.4,30.213,30.213,0,0,1-11.258-7.622c-2.878-2.985-4.788-7.381-5.525-12.713a38.483,38.483,0,0,1-.239-7.877,44.17,44.17,0,0,1,1.313-8.049,37.5,37.5,0,0,1,6.075-13.063,24.288,24.288,0,0,1,4.668-4.759,18.086,18.086,0,0,1,5.655-2.938c5.155-1.216,12.852-2.832,20.151-2.832a37.218,37.218,0,0,1,8.316.856,21.507,21.507,0,0,1,7.131,2.964,16.762,16.762,0,0,1,5.28,5.666A23.53,23.53,0,0,1,624.7,553.2a30.177,30.177,0,0,1,4.543,14.515,23.36,23.36,0,0,1-3.141,12.36,28.632,28.632,0,0,1-5.722,7.021,36.215,36.215,0,0,1-7.808,5.332A42.269,42.269,0,0,1,593.554,597Zm539.141-2.25h0a41.839,41.839,0,0,1-12.907-2.1,44.6,44.6,0,0,1-12.092-6.068,41.039,41.039,0,0,1-9.767-9.714A37.659,37.659,0,0,1,1092,563.836a48.435,48.435,0,0,1,2.577-14.755,30.234,30.234,0,0,1,6.192-10.489c5.058-5.457,12.083-8.341,20.316-8.341,8.522,0,17.881,3.065,27.065,8.865a21.263,21.263,0,0,1,7.3,1.186,8,8,0,0,1,3.852,2.942c1.675,2.467,1.82,5.829,1.988,9.723v.006a43.709,43.709,0,0,0,1.2,9.795,39.7,39.7,0,0,1-2.252,13.99,27.185,27.185,0,0,1-6.189,9.835,26.577,26.577,0,0,1-9.711,6.166A33.467,33.467,0,0,1,1132.695,594.75Zm-672.45-30h0a40.426,40.426,0,0,1-16.273-3.574,43.823,43.823,0,0,1-23.619-25.733,49.957,49.957,0,0,1-2.426-20.406,32.477,32.477,0,0,1,.854-8.13,21.55,21.55,0,0,1,2.582-6.239,19.362,19.362,0,0,1,4.027-4.616,24.041,24.041,0,0,1,5.189-3.261,45.887,45.887,0,0,1,12.727-3.527c4.572-.688,9.344-1.008,13.959-1.317h.015c3.358-.225,6.53-.437,9.522-.779a23.885,23.885,0,0,1,4.307-.417,16.229,16.229,0,0,1,6.262,1.175,14.461,14.461,0,0,1,4.727,3.209c3.121,3.151,5.348,8.04,6.619,14.53A83.007,83.007,0,0,1,490,522.347a54.568,54.568,0,0,1-.839,19.665,31.338,31.338,0,0,1-6.8,13.376,26.9,26.9,0,0,1-10,7.069A31.726,31.726,0,0,1,460.245,564.75ZM297.98,562.5h0c-.525,0-1.056-.021-1.578-.063a65.407,65.407,0,0,1-18.383-6.787,43.745,43.745,0,0,1-12.193-10.007,32.207,32.207,0,0,1-7.655-24.062,28.308,28.308,0,0,1,18.436-23.752,34.244,34.244,0,0,1,12.029-2.079,47.848,47.848,0,0,1,14.072,2.266,74.173,74.173,0,0,1,16.1,7.373,16.008,16.008,0,0,1,5.133,5.466,22.437,22.437,0,0,1,2.608,7.473,34.417,34.417,0,0,1,.312,8.708,45.878,45.878,0,0,1-1.753,9.171,45.352,45.352,0,0,1-10.251,18.271C309.825,559.726,303.989,562.5,297.98,562.5Zm404.329-29.25H702.3a38.508,38.508,0,0,1-12.546-2.113A41.009,41.009,0,0,1,670.179,516.7a37.682,37.682,0,0,1-5.508-10.676A33.778,33.778,0,0,1,663,495.609a32.676,32.676,0,0,1,1.842-10.8,37.317,37.317,0,0,1,5.872-10.616,51.259,51.259,0,0,1,10.422-9.877c10.7-4.027,20.2-6.07,28.25-6.07a34.619,34.619,0,0,1,13.928,2.62,24.126,24.126,0,0,1,9.59,7.478c3.842,5.012,6.029,11.773,6.5,20.1.464,8.213-.75,17.768-3.609,28.4C725.963,527.577,714.384,533.25,702.309,533.25Zm306.4-15a25.208,25.208,0,0,1-14.212-4.7c-5.055-3.421-9.919-8.71-14.458-15.723a29.128,29.128,0,0,1-2.624-15.468,32.491,32.491,0,0,1,5.147-14.084,43.031,43.031,0,0,1,7.332-8.59,50.272,50.272,0,0,1,20.211-11.116,42.623,42.623,0,0,1,11.26-1.569,36.944,36.944,0,0,1,3.888.2,23.112,23.112,0,0,1,9.264,2.7,18.077,18.077,0,0,1,6.144,5.635c2.959,4.337,4.358,10.26,4.046,17.128-.462,10.181-4.62,21.561-11.122,30.443a48.568,48.568,0,0,1-5.264,6.1,37.625,37.625,0,0,1-5.989,4.789,25.187,25.187,0,0,1-13.619,4.252h0Zm-179.462-16.5h0a31.169,31.169,0,0,1-11.131-1.926,23.108,23.108,0,0,1-8.968-6.021,24.478,24.478,0,0,1-5.411-10.081,40.684,40.684,0,0,1-1.005-14.6,41.844,41.844,0,0,1,15.1-20.848,38.893,38.893,0,0,1,10.576-5.426A35.883,35.883,0,0,1,839.68,441a32.013,32.013,0,0,1,10.42,1.706,29.779,29.779,0,0,1,9.332,5.222,32.214,32.214,0,0,1,7.411,8.893,42.752,42.752,0,0,1,4.656,12.719,35.143,35.143,0,0,1-5.781,13.3A42.5,42.5,0,0,1,855.523,493,46.519,46.519,0,0,1,829.246,501.75ZM74.166,498h0c-8.322,0-15.835-3.486-21.725-10.079a39.644,39.644,0,0,1-6.6-10.33,44.752,44.752,0,0,1-3.413-11.841,38.788,38.788,0,0,1,.371-13.66A28.509,28.509,0,0,1,44.854,446a22.9,22.9,0,0,1,3.362-5.2,20.209,20.209,0,0,1,7.255-5.329A25.48,25.48,0,0,1,65.7,433.5a36.767,36.767,0,0,1,4.645.307,31.344,31.344,0,0,1,12.8,3.342,33.51,33.51,0,0,1,9.929,7.722,38.95,38.95,0,0,1,9.567,22.517,32.566,32.566,0,0,1-.7,9.892,26.59,26.59,0,0,1-3.82,8.891,24.858,24.858,0,0,1-7.185,7.009,31.23,31.23,0,0,1-10.793,4.244A32.346,32.346,0,0,1,74.166,498Zm113.642-3.749a39.516,39.516,0,0,1-23.121-7.725c-7.048-5.254-11.2-12.3-11.688-19.833-.072-11.726,4.033-22.092,11.871-29.979a43.143,43.143,0,0,1,6.9-5.622,45.233,45.233,0,0,1,7.71-4.057A43.34,43.34,0,0,1,195.7,423.75a35.019,35.019,0,0,1,6.971.681,28.5,28.5,0,0,1,6.334,2.058,23.3,23.3,0,0,1,5.4,3.459,20.9,20.9,0,0,1,4.163,4.885c2.664,4.334,3.786,9.661,3.337,15.832-.5,6.827-2.927,14.588-7.22,23.068a30.36,30.36,0,0,1-4.176,9.333,24.7,24.7,0,0,1-6.289,6.372,28.494,28.494,0,0,1-16.409,4.812h0ZM1404.935,489h0a39.786,39.786,0,0,1-14.1-2.578,42.041,42.041,0,0,1-13.289-8.159,22.061,22.061,0,0,1-3.441-24.855,36.191,36.191,0,0,1,6.93-9.822,50.5,50.5,0,0,1,10.118-7.994,53.321,53.321,0,0,1,11.907-5.375,41.877,41.877,0,0,1,12.3-1.967,26.762,26.762,0,0,1,12.793,2.966,22.284,22.284,0,0,1,9.347,9.7,38.589,38.589,0,0,1,3.143,17.948,31.018,31.018,0,0,1-1.647,7.789,30.617,30.617,0,0,1-3.421,6.831,34.145,34.145,0,0,1-13.068,11.386A39.175,39.175,0,0,1,1404.935,489ZM594.509,466.5a88.1,88.1,0,0,1-13.859-1.143,70.415,70.415,0,0,1-11.483-2.783,40.821,40.821,0,0,1-7.091-10.682,37.536,37.536,0,0,1-3.09-11.307,43.331,43.331,0,0,1,3.676-22.192,50.373,50.373,0,0,1,6.367-10.621,48.11,48.11,0,0,1,8.542-8.531,39.516,39.516,0,0,1,10-5.678,30.175,30.175,0,0,1,10.75-2.062,26.122,26.122,0,0,1,8.34,1.356,28.192,28.192,0,0,1,8.034,4.3c5.478,4.151,10.137,10.487,13.848,18.833a16.164,16.164,0,0,1,.459,7.545,44.265,44.265,0,0,1-1.967,7.083,39.483,39.483,0,0,0-2.072,7.864,16.2,16.2,0,0,0,.008,4.112,15.3,15.3,0,0,0,1.259,4.334c-.4,6.871-3.887,12.046-10.37,15.381a36.176,36.176,0,0,1-9.975,3.23,63.232,63.232,0,0,1-11.376.959h0Zm678.065,0h0c-14.268,0-25.627-6.2-30.385-16.57A27.3,27.3,0,0,1,1239.8,440a37.124,37.124,0,0,1,1.375-11.762,57.991,57.991,0,0,1,5.667-13.327,94.216,94.216,0,0,1,10.487-14.628c4.12-3.384,9.13-5.029,15.317-5.029,7.542,0,15.714,2.428,23.618,4.777a111.014,111.014,0,0,0,16.09,3.969c2.547.065,4.508,1.907,5.826,5.474a35.765,35.765,0,0,1,1.773,10.757,80.71,80.71,0,0,1-.609,12.8,69.39,69.39,0,0,1-2.336,11.49c-1.039,3.386-2.216,5.742-3.406,6.814a81.921,81.921,0,0,1-21.193,11.527A59.127,59.127,0,0,1,1272.574,466.5Zm-123.628-6.75h0a44.767,44.767,0,0,1-21.956-5.474,32.043,32.043,0,0,1-13.73-14.448,27.734,27.734,0,0,1-2.342-8.533,30.281,30.281,0,0,1,.506-9.464,38.945,38.945,0,0,1,3.73-10.137,56.238,56.238,0,0,1,7.332-10.55,35.921,35.921,0,0,1,12.169-9.686,30.847,30.847,0,0,1,13.3-2.96,37.045,37.045,0,0,1,13.9,2.822,46.2,46.2,0,0,1,12.4,7.523,48.515,48.515,0,0,1,5.2,5.082,45.725,45.725,0,0,1,4.3,5.728,37.031,37.031,0,0,1,5.189,12.683,28.131,28.131,0,0,1,.237,9.757,25.867,25.867,0,0,1-3.464,9.436,32.165,32.165,0,0,1-7.734,8.543,51.832,51.832,0,0,1-12.574,7.079A54.789,54.789,0,0,1,1148.946,459.75Zm-201.541-28.5A47.527,47.527,0,0,1,931,428.393a37.3,37.3,0,0,1-7.187-3.565,29.892,29.892,0,0,1-5.941-4.983,25.022,25.022,0,0,1-5.291-8.98,28.025,28.025,0,0,1-1.184-11.552,45.868,45.868,0,0,1,5.053-17.6,42.638,42.638,0,0,1,10.335-12.783,44.969,44.969,0,0,1,20.87-9.77A41.815,41.815,0,0,1,955,358.5a37.312,37.312,0,0,1,7.389.724,32.093,32.093,0,0,1,6.844,2.187,27.858,27.858,0,0,1,6.008,3.675,25.926,25.926,0,0,1,4.881,5.187,30.575,30.575,0,0,1,5.3,16.189c.4,6.92-.919,14.788-3.932,23.384a23.922,23.922,0,0,1-4.649,9.381,28.351,28.351,0,0,1-7.952,6.687,38.563,38.563,0,0,1-10.174,4A47.787,47.787,0,0,1,947.405,431.25Zm-617.126-7.5a49.33,49.33,0,0,1-11.875-1.462,46.832,46.832,0,0,1-10.932-4.193,38.085,38.085,0,0,1-9-6.635,29.056,29.056,0,0,1-6.071-8.79,25.57,25.57,0,0,1-2.078-8.319,28.654,28.654,0,0,1,.884-9.35c1.787-6.933,6.039-14.072,12.638-21.219,5-6.792,13.448-10.532,23.784-10.532a48.512,48.512,0,0,1,18.794,3.943A42.909,42.909,0,0,1,361.855,368c5.5,6.252,7.9,13.56,6.933,21.133a43.894,43.894,0,0,1-4.664,15.751,34.044,34.044,0,0,1-8.9,10.75,36.221,36.221,0,0,1-11.745,6.153,43.986,43.986,0,0,1-13.2,1.961h0ZM774.251,420a36.316,36.316,0,0,1-13.359-2.633,35.89,35.89,0,0,1-11.022-4.253,23.435,23.435,0,0,1-7.042-6.509,22.176,22.176,0,0,1-3.5-8.118,28.5,28.5,0,0,1-.388-9.079,37.862,37.862,0,0,1,1.442-6.905,45.818,45.818,0,0,1,2.712-6.818,51.655,51.655,0,0,1,8.542-12.345,47.075,47.075,0,0,1,5.485-5.014,39.749,39.749,0,0,1,6.064-3.9A28.607,28.607,0,0,1,776.359,351a23.639,23.639,0,0,1,9.068,1.8,28.7,28.7,0,0,1,8.759,5.826,34.1,34.1,0,0,1,8.779,6.93,27.518,27.518,0,0,1,5.145,8.328,29.65,29.65,0,0,1,.807,18.4,37.026,37.026,0,0,1-4.64,10.53,38.8,38.8,0,0,1-7.735,8.837,36.075,36.075,0,0,1-10.214,6.081A33.364,33.364,0,0,1,774.252,420h0Zm-307.915,0h-.013a37.42,37.42,0,0,1-14.663-2.654,23.11,23.11,0,0,1-9.361-7.065,24.234,24.234,0,0,1-4.764-11.762,32.825,32.825,0,0,1-.2-6.759,39.885,39.885,0,0,1,1.151-7.01A47.36,47.36,0,0,1,444,371.807a49.341,49.341,0,0,1,9.427-11.291,44.455,44.455,0,0,1,12.81-7.987,41.621,41.621,0,0,1,15.657-3.029c9.283,0,18.848,2.971,28.43,8.83,4.771,1.375,7.023,2.624,8.032,4.454a6.656,6.656,0,0,1,.583,4,35.871,35.871,0,0,1-1.383,6.11A51.267,51.267,0,0,1,517,391.634,32.022,32.022,0,0,1,510.2,405.2c-4.164,4.852-10,8.567-17.336,11.041a81.148,81.148,0,0,1-24.308,3.714C467.808,419.984,467.059,420,466.336,420Zm772.194-44.25h0c-7.6,0-19.023-2.389-30.3-13.758a30.161,30.161,0,0,1-3.7-16.157,35.04,35.04,0,0,1,1.349-8.269,33.667,33.667,0,0,1,3.23-7.592,29.473,29.473,0,0,1,3.757-5.121,25.1,25.1,0,0,1,4.721-4.026,21.526,21.526,0,0,1,11.961-3.577,27.1,27.1,0,0,1,10.562,2.295,71.235,71.235,0,0,1,15.672,5.919,37.991,37.991,0,0,1,10.089,7.576c4.7,5.122,6.765,11.14,5.962,17.4a23.859,23.859,0,0,1-3.507,9.57,31.11,31.11,0,0,1-7.342,8.075A36.59,36.59,0,0,1,1238.53,375.75ZM80.044,374.25h0c-10.025,0-18.776-3.08-25.306-8.906a31.647,31.647,0,0,1-7.087-9.129,30.339,30.339,0,0,1-3.213-10.465,26.939,26.939,0,0,1,.815-10.564A23.359,23.359,0,0,1,50.274,326c5.1-5.722,12.892-8.747,22.536-8.747a52.2,52.2,0,0,1,6.074.37,36.4,36.4,0,0,1,26.259,14.12,33.151,33.151,0,0,1,4.7,8.367,29.119,29.119,0,0,1,1.767,7.367,25.983,25.983,0,0,1-2.93,15.006,30.275,30.275,0,0,1-5.188,6.99A66.131,66.131,0,0,1,80.044,374.25Zm984.372-3.749a36.136,36.136,0,0,1-18.562-4.7c-7.5-3.122-13.034-9.713-16.01-19.063a51.878,51.878,0,0,1-2.306-13.916,63.738,63.738,0,0,1,1.216-14.7,60.268,60.268,0,0,1,4.19-13.137,45.693,45.693,0,0,1,6.965-11.053,31.585,31.585,0,0,1,9.566-7.621,26.367,26.367,0,0,1,11.992-2.84c.316,0,.624.005.941.016a44.6,44.6,0,0,1,7.827-.743,30.111,30.111,0,0,1,8.462,1.141,23.829,23.829,0,0,1,6.8,3.214,25.38,25.38,0,0,1,5.331,4.973,34.168,34.168,0,0,1,4.044,6.421,61.733,61.733,0,0,1,4.97,15.931,144.417,144.417,0,0,1,2.05,17.965,22.464,22.464,0,0,1,2.018,11.245,21.607,21.607,0,0,1-3.526,9.851,30.408,30.408,0,0,1-6.448,7.013,42.085,42.085,0,0,1-8.71,5.363,50.006,50.006,0,0,1-10.124,3.428,48.953,48.953,0,0,1-10.688,1.206h0Zm351.548-.751h0a42.979,42.979,0,0,1-10.545-1.358,47.379,47.379,0,0,1-10.158-3.868,43.693,43.693,0,0,1-8.889-6.071,35.2,35.2,0,0,1-6.736-7.967,27.445,27.445,0,0,1-4.116-13.359,31.154,31.154,0,0,1,3.769-15.535,42.022,42.022,0,0,1,4.251-8.418,23.9,23.9,0,0,1,5.007-5.508,18.013,18.013,0,0,1,5.656-3.005,20.433,20.433,0,0,1,6.195-.911,31.278,31.278,0,0,1,6.884.832,56.645,56.645,0,0,1,7.228,2.191c4.906,1.813,10.039,4.265,15,6.636q1.775.848,3.46,1.647a18.287,18.287,0,0,1,3.3-.34,6.543,6.543,0,0,1,4.914,1.689c2.2,2.24,2.136,6.379,2.064,10.762v0h0c-.06,3.7-.122,7.534,1.223,10.38a41.076,41.076,0,0,1-1.859,14.373,25.95,25.95,0,0,1-5.9,9.9,24.868,24.868,0,0,1-9.395,6.023A32.879,32.879,0,0,1,1415.964,369.75Zm-735.708-13.5h0a45.334,45.334,0,0,1-15.661-2.668,33.022,33.022,0,0,1-6.738-3.4,26.483,26.483,0,0,1-5.5-4.834,23.886,23.886,0,0,1-5-9.681,31.957,31.957,0,0,1-.382-12.941A26.229,26.229,0,0,1,648,311.03a27.747,27.747,0,0,1,5.577-9.723A32.938,32.938,0,0,1,678,290.25a29.337,29.337,0,0,1,17.969,6.067,6.938,6.938,0,0,1,3.395,3.263,23.4,23.4,0,0,1,1.655,4.663,17.627,17.627,0,0,0,2.547,6.109,7.224,7.224,0,0,0,2.594,2.122,10.615,10.615,0,0,0,4.17.977c3.337.2,4.322,2.076,5.351,4.706a28.387,28.387,0,0,1,1.94,12.971,22.261,22.261,0,0,1-3.9,10.459c-3.131,4.528-8.047,8.295-14.218,10.893a47.559,47.559,0,0,1-9.344,2.815A51.927,51.927,0,0,1,680.256,356.25ZM199.52,355.5h0a38.23,38.23,0,0,1-10.163-1.366,37.7,37.7,0,0,1-9.16-3.893,38.574,38.574,0,0,1-7.81-6.109,40.044,40.044,0,0,1-6.113-8.016,42.172,42.172,0,0,1-4.382-10.772,45.893,45.893,0,0,1-1.38-12.322,52.764,52.764,0,0,1,2.1-13.447,65,65,0,0,1,6.053-14.147,19.148,19.148,0,0,1,4.982-7.5,31.515,31.515,0,0,1,8.236-5.55,46.462,46.462,0,0,1,10.192-3.444,51.066,51.066,0,0,1,10.851-1.183,34.917,34.917,0,0,1,15.391,3.147,18.094,18.094,0,0,1,5.471,4.051,13.807,13.807,0,0,1,3.125,5.807c.674,2.559,1.744,5.957,2.983,9.891l.012.039c5.057,16.051,12.7,40.307,5.918,47.514a61.813,61.813,0,0,1-18.263,13.207A43.226,43.226,0,0,1,199.52,355.5ZM881.6,347.25h0a48.1,48.1,0,0,1-15.741-2.594,37.768,37.768,0,0,1-6.966-3.246,30.132,30.132,0,0,1-5.85-4.55,27.656,27.656,0,0,1-5.476-13.89,23.143,23.143,0,0,1,2.636-12.555,33.337,33.337,0,0,1,7.056-9.093,47.6,47.6,0,0,1,10.065-7.084,54.719,54.719,0,0,1,11.732-4.6A47.371,47.371,0,0,1,891.114,288a31.99,31.99,0,0,1,11.325,1.9,21.089,21.089,0,0,1,8.79,6.056,21.9,21.9,0,0,1,4.635,9.882,39.588,39.588,0,0,1-.054,14.393,23.836,23.836,0,0,1-1.623,9.512,22.781,22.781,0,0,1-4.9,7.463,28.109,28.109,0,0,1-5.577,4.388A35.874,35.874,0,0,1,897,344.736,47.075,47.075,0,0,1,881.6,347.25ZM571.065,313.5h0A36.656,36.656,0,0,1,558,311.005a50.922,50.922,0,0,1-13.666-8.034,44.537,44.537,0,0,1-9.577-10.693,38.8,38.8,0,0,1-4.968-11.845,42.758,42.758,0,0,1,1.613-24.133,48.6,48.6,0,0,1,5.843-11.366,46,46,0,0,1,8.42-9.227,38.379,38.379,0,0,1,10.321-6.193,31.256,31.256,0,0,1,11.546-2.263,30.775,30.775,0,0,1,14.851,3.909,47.124,47.124,0,0,1,14.428,12.833,49.208,49.208,0,0,1,7.253,12.052,44.51,44.51,0,0,1,3.189,12.433,43.517,43.517,0,0,1-3.978,23.306,39.813,39.813,0,0,1-13.041,15.61,34.329,34.329,0,0,1-8.992,4.495A32.85,32.85,0,0,1,571.065,313.5ZM793.458,303h-.008a28.662,28.662,0,0,1-12.91-3.064,33.772,33.772,0,0,1-10.312-8.1,41.867,41.867,0,0,1-7.091-11.515,43.961,43.961,0,0,1-3.247-13.3,38.478,38.478,0,0,1,.947-12.444,31.764,31.764,0,0,1,15.218-20.224A44.712,44.712,0,0,1,791.3,229.11a21.917,21.917,0,0,1,3.954-.36,27.481,27.481,0,0,1,14.885,4.816,44.838,44.838,0,0,1,6.673,5.312,57.992,57.992,0,0,1,5.9,6.618,65.477,65.477,0,0,1,8.719,15.266,41.913,41.913,0,0,1,3.314,14.823,19.676,19.676,0,0,1-.642,5.371,11.8,11.8,0,0,1-2.1,4.252c-2.015,2.522-5.068,3.83-9.072,3.888a57.664,57.664,0,0,1-15.366,10.661A34.162,34.162,0,0,1,793.458,303Zm508.729-8.25h-.006a30.31,30.31,0,0,1-14.126-3.611,42.43,42.43,0,0,1-11.878-9.455,56.339,56.339,0,0,1-13.392-28.2c-1.21-7.842-.362-15.068,2.453-20.9a24.785,24.785,0,0,1,6.2-8.1,28.379,28.379,0,0,1,10.006-5.421,55.5,55.5,0,0,1,20.922-4.568,35.882,35.882,0,0,1,12.415,2.117,31.61,31.61,0,0,1,9.814,5.782,34.123,34.123,0,0,1,7.093,8.6,39.87,39.87,0,0,1,4.255,10.556,46.145,46.145,0,0,1-2.076,28.228,44.511,44.511,0,0,1-20.736,22.836A29.846,29.846,0,0,1,1302.187,294.75ZM410.967,282h-.008a64.188,64.188,0,0,1-9.939-.813,24.437,24.437,0,0,1-10.4-3.533,23.093,23.093,0,0,1-7.06-7.043,32.972,32.972,0,0,1-4.744-19.7,37.568,37.568,0,0,1,1.979-10.166,30.581,30.581,0,0,1,4.652-8.77,22.344,22.344,0,0,1,7.163-6.156,20.059,20.059,0,0,1,9.512-2.323,27.732,27.732,0,0,1,9.89,1.979,57,57,0,0,1,15.306,5.241,37.476,37.476,0,0,1,10.41,7.878c5.141,5.664,7.6,12.565,6.916,19.431a24.2,24.2,0,0,1-9.591,16.728C428.94,279.5,420.612,282,410.967,282ZM105.119,271.5h0a24.406,24.406,0,0,1-9.964-2.136,28.471,28.471,0,0,1-8.318-5.714,34,34,0,0,1-6.173-8.256,35.233,35.233,0,0,1-3.526-9.761,31.334,31.334,0,0,1-.5-9.168,26.57,26.57,0,0,1,2.383-8.8,25.188,25.188,0,0,1,5.626-7.687,30.8,30.8,0,0,1,9.23-5.83c4.127-1.812,7.464-3.215,10.33-4.172a23.951,23.951,0,0,1,7.525-1.475,14.124,14.124,0,0,1,7.773,2.4,55.075,55.075,0,0,1,9.052,7.645,10.083,10.083,0,0,1,6.4,5.032,20.161,20.161,0,0,1,2.268,9.158,41.063,41.063,0,0,1-1.036,10.372,49.8,49.8,0,0,1-3.535,10.327,35.522,35.522,0,0,1-5.5,8.521,17.032,17.032,0,0,1-6.93,4.955A28.881,28.881,0,0,1,105.119,271.5Zm861.85-.749a28.628,28.628,0,0,1-9.961-1.7,22.106,22.106,0,0,1-8.243-5.283,22.521,22.521,0,0,1-5.1-8.378,33.667,33.667,0,0,1-1.676-11.959,19.367,19.367,0,0,1-.077-10.326,27.267,27.267,0,0,1,4.755-9.535,37.783,37.783,0,0,1,5.749-6.053,41.767,41.767,0,0,1,6.932-4.77,37.092,37.092,0,0,1,7.481-3.126,26.715,26.715,0,0,1,7.4-1.122c5.912,0,10.481,2.4,13.214,6.932,1.735,1.8,3.938,2.453,6.068,3.085,1.871.555,3.636,1.078,4.873,2.344,1.385,1.417,1.92,3.574,1.683,6.79a33.377,33.377,0,0,1,1.612,15.668,28.787,28.787,0,0,1-5.177,12.63,35.253,35.253,0,0,1-13.185,10.913,38.873,38.873,0,0,1-8.059,2.893,35.832,35.832,0,0,1-8.282,1h0ZM1161.936,264h-.006a30.306,30.306,0,0,1-14.126-3.612,42.43,42.43,0,0,1-11.878-9.456,56.344,56.344,0,0,1-13.391-28.2c-1.21-7.841-.361-15.066,2.453-20.894a24.775,24.775,0,0,1,6.2-8.095,28.377,28.377,0,0,1,10.005-5.419,55.507,55.507,0,0,1,20.925-4.569,35.872,35.872,0,0,1,12.413,2.117,31.6,31.6,0,0,1,9.812,5.782,34.114,34.114,0,0,1,7.092,8.595,39.866,39.866,0,0,1,4.255,10.556,46.149,46.149,0,0,1-2.075,28.229,44.509,44.509,0,0,1-20.736,22.836A29.844,29.844,0,0,1,1161.936,264ZM297.262,248.25h0c-11.37,0-21.181-4.256-28.372-12.305a41.681,41.681,0,0,1-7.676-12.612,46.637,46.637,0,0,1-3.142-14.458,45.677,45.677,0,0,1,.253-8.037,41.806,41.806,0,0,1,1.681-7.734,36.994,36.994,0,0,1,3.133-7.127,32.979,32.979,0,0,1,4.607-6.217,31.349,31.349,0,0,1,10.9-7.467,39.4,39.4,0,0,1,15.095-2.792,62.649,62.649,0,0,1,15.977,2.259,16.471,16.471,0,0,1,8.089,3.309,22.934,22.934,0,0,1,5.918,7.007,39.028,39.028,0,0,1,3.775,9.665,58.046,58.046,0,0,1,1.658,11.284,67.642,67.642,0,0,1-.812,14.5,56.152,56.152,0,0,1-3.894,13.461,34.167,34.167,0,0,1-6.927,10.514,20.4,20.4,0,0,1-9.91,5.661A52,52,0,0,1,297.262,248.25Zm1141.191-4.5h0a67.067,67.067,0,0,1-7.232-.408A40.879,40.879,0,0,1,1418.3,241.1a23.948,23.948,0,0,1-8.708-5.372c-4.241-4.2-6.433-10.041-6.34-16.894.128-9.366,4.534-19.835,11.786-28a46.8,46.8,0,0,1,5.873-5.575,41.284,41.284,0,0,1,6.739-4.374A33.562,33.562,0,0,1,1443.117,177c.524,0,1.056.013,1.58.04a41.407,41.407,0,0,1,13.526,6.5,38.527,38.527,0,0,1,9.433,9.93,37.288,37.288,0,0,1,5.143,11.889,33.778,33.778,0,0,1,.657,12.38,29.33,29.33,0,0,1-3.194,9.959,27.593,27.593,0,0,1-6.814,8.285,32.021,32.021,0,0,1-10.561,5.665A46.915,46.915,0,0,1,1438.453,243.75Zm-750.523-9a31.894,31.894,0,0,1-14.345-3.287,33.493,33.493,0,0,1-10.8-8.666,42.81,42.81,0,0,1-7.054-12.252,49.737,49.737,0,0,1-3.1-14.045c-.849-11.583,2.379-22.223,8.856-29.191a27.271,27.271,0,0,1,9.445-6.6,33.287,33.287,0,0,1,12.989-2.454,45.3,45.3,0,0,1,4.676.25,38.11,38.11,0,0,1,4.161-.235,29.858,29.858,0,0,1,11.65,2.243,27.231,27.231,0,0,1,8.889,6.072,31.949,31.949,0,0,1,4.7,6.181,38.9,38.9,0,0,1,3.3,7.283,49.05,49.05,0,0,1,2.44,16.4,50.357,50.357,0,0,1-2.22,14.02,40.323,40.323,0,0,1-6.1,12.231A28.528,28.528,0,0,1,691.8,234.633c-.269,0-.545,0-.82-.01C689.958,234.707,688.932,234.75,687.93,234.75Zm165.726-25.5h0a52.66,52.66,0,0,1-17.9-3.083,33.7,33.7,0,0,1-13.821-8.919,20.806,20.806,0,0,1-4.242-7.326,20.243,20.243,0,0,1-.756-8.9,50.775,50.775,0,0,1,5.96-15.557,40.441,40.441,0,0,1,9.36-10.827,38.007,38.007,0,0,1,23.788-8.386,35.529,35.529,0,0,1,14.95,3.236,30.906,30.906,0,0,1,6.356,3.955,28.445,28.445,0,0,1,5.159,5.431,29.005,29.005,0,0,1,5.267,13.883,43.245,43.245,0,0,1-2.273,18.426,21.3,21.3,0,0,1-4.581,8.05,26.224,26.224,0,0,1-7.43,5.631,37.528,37.528,0,0,1-9.385,3.308A49.505,49.505,0,0,1,853.656,209.25Zm-381.006-3h0a86.041,86.041,0,0,1-18.987-2.405,27.961,27.961,0,0,1-5.142-5.592,53.545,53.545,0,0,1-4.852-8.189,47.113,47.113,0,0,1-3.356-9.231,23.878,23.878,0,0,1-.652-8.716,11.486,11.486,0,0,1,1.926-5.145,9.9,9.9,0,0,1,4.481-3.434c.668-.035,1.549-1.376,2.359-3.588a19.41,19.41,0,0,0,1.254-6.059c3.115-6.984,6.734-12.264,10.757-15.694a17.962,17.962,0,0,1,11.792-4.7c6.62,0,13.565,4.037,19.554,11.366a56.779,56.779,0,0,1,11.451,25.008,40.962,40.962,0,0,1,.233,14.448,25.856,25.856,0,0,1-5.473,12.266,24.627,24.627,0,0,1-9.888,7.029A41.506,41.506,0,0,1,472.65,206.25ZM32.207,175.5H32.2a64.167,64.167,0,0,1-9.931-.811,24.442,24.442,0,0,1-10.4-3.536,23.1,23.1,0,0,1-7.06-7.045,32.98,32.98,0,0,1-4.742-19.7,37.571,37.571,0,0,1,1.98-10.164,30.571,30.571,0,0,1,4.653-8.768,22.338,22.338,0,0,1,7.163-6.154A20.06,20.06,0,0,1,23.369,117a27.734,27.734,0,0,1,9.892,1.98,56.989,56.989,0,0,1,15.3,5.239,37.474,37.474,0,0,1,10.409,7.876c5.141,5.663,7.6,12.563,6.917,19.429A24.206,24.206,0,0,1,56.3,168.256C50.186,172.995,41.855,175.5,32.207,175.5Zm999.7-1.5h0a10.177,10.177,0,0,1-6-2.224,20.165,20.165,0,0,1-8.427-4.592,22.343,22.343,0,0,1-5.318-7.629,32.646,32.646,0,0,1-2.436-9.685,45.806,45.806,0,0,1,.219-10.759,53.084,53.084,0,0,1,3.47-13,46.211,46.211,0,0,1,6.6-11.415,32,32,0,0,1,9.332-8.11,23.744,23.744,0,0,1,11.668-3.085,27.6,27.6,0,0,1,10.531,2.214,31.147,31.147,0,0,1,18.423,11.673,34.659,34.659,0,0,1,7.01,19.507,31.956,31.956,0,0,1-.948,9.219,28.285,28.285,0,0,1-3.683,8.448,26.874,26.874,0,0,1-6.547,6.941,30.892,30.892,0,0,1-9.539,4.7,9.692,9.692,0,0,0-5.256-1.7c-3.56,0-6.609,2.415-9.558,4.75l-.008.007,0,0a37.489,37.489,0,0,1-4.556,3.259A10,10,0,0,1,1031.9,174Zm340.59-2.249a64,64,0,0,1-18.877-3.262c-1.606-.553-3.468-2.2-5.384-4.765a48.1,48.1,0,0,1-5.125-8.975,56.1,56.1,0,0,1-3.538-10.446,25.007,25.007,0,0,1-.623-9.178,7.3,7.3,0,0,1,1.819-4.021,5.431,5.431,0,0,1,4.029-1.513c.228,0,.466.009.705.028-.5-3.375.523-6.548,1.509-9.618a26.877,26.877,0,0,0,1.633-7.453,46.778,46.778,0,0,1,12.368-10.387A23.87,23.87,0,0,1,1372.473,99a20.869,20.869,0,0,1,10.865,3.126,31.086,31.086,0,0,1,8.8,8.241,46.932,46.932,0,0,1,6.223,11.651,54.106,54.106,0,0,1,3.12,13.357,48.945,48.945,0,0,1,.188,7.758,40.771,40.771,0,0,1-1.1,7.438,28.938,28.938,0,0,1-6.451,12.634,24.467,24.467,0,0,1-8.89,6.232,33.229,33.229,0,0,1-12.736,2.314h0Zm-119.992,0c-9.785,0-18.364-2.949-24.812-8.527a31.928,31.928,0,0,1-7.265-9.079,32.982,32.982,0,0,1-3.574-10.885,35,35,0,0,1,5.685-24.516,39.949,39.949,0,0,1,10.143-10.317,51.887,51.887,0,0,1,15.334-7.3,47.89,47.89,0,0,1,7.653-.631,40.9,40.9,0,0,1,14.317,2.513,37.92,37.92,0,0,1,19.58,16.471,36.392,36.392,0,0,1,4.335,11.536,33.155,33.155,0,0,1,.277,10.9,30.773,30.773,0,0,1-3.5,10.5,32.748,32.748,0,0,1-7.61,9.212,42.926,42.926,0,0,1-12.06,7.047A62.01,62.01,0,0,1,1252.5,171.75Zm-664.554-1.5c-7.125,0-12.761-1.3-17.231-3.968a22.464,22.464,0,0,1-6.6-6.023,30.929,30.929,0,0,1-4.6-9.66,52.568,52.568,0,0,1-.006-17.932,25.2,25.2,0,0,1,5.39-11.681c4.357-5.061,10.954-7.736,19.079-7.736,8.534,0,18.183,2.982,26.471,8.181A46.619,46.619,0,0,1,620.9,130.2a28.254,28.254,0,0,1,6.057,10.589,18.507,18.507,0,0,1-1.024,13.381c-2.227,4.732-6.48,9.1-12.64,12.987-1.14.189-2.335.393-3.39.574C602.641,168.968,595.13,170.25,587.949,170.25Zm-414,0h0a19.983,19.983,0,0,1-8.757-2.236,28.16,28.16,0,0,1-7.766-5.778c-4.283-4.505-6.6-9.861-6.355-14.695a60.208,60.208,0,0,1,1.375-20.9,32.7,32.7,0,0,1,7.263-13.761,27.767,27.767,0,0,1,10.478-7.147,33.879,33.879,0,0,1,12.4-2.233,42.086,42.086,0,0,1,11.587,1.665,43.458,43.458,0,0,1,10.669,4.659,36.122,36.122,0,0,1,8.561,7.149,26.426,26.426,0,0,1,5.263,9.136,22.264,22.264,0,0,1,1.046,8.262,25.335,25.335,0,0,1-2.317,8.935c-2.982,6.536-8.717,12.9-17.046,18.906a14.235,14.235,0,0,1-1.537.066c-.619,0-1.3-.02-2.029-.04l-.15,0c-.826-.023-1.636-.045-2.457-.045-3.147,0-7.051.288-9.331,2.537a13.807,13.807,0,0,1-5.013,4.224A13.378,13.378,0,0,1,173.948,170.25ZM375.69,151.5h0a43.873,43.873,0,0,1-15.215-2.653,41.133,41.133,0,0,1-13.84-8.524,34.164,34.164,0,0,1-6.831-18.241,32.11,32.11,0,0,1,.736-8.9,35.671,35.671,0,0,1,3.041-8.369,41.323,41.323,0,0,1,6.727-9.5,46.162,46.162,0,0,1,20.206-12.517A41.816,41.816,0,0,1,382.525,81a38.536,38.536,0,0,1,14.246,2.7,42.247,42.247,0,0,1,13.5,8.748c5.1,5.843,8.234,11.956,9.311,18.168a27.883,27.883,0,0,1,.156,8.608,29.035,29.035,0,0,1-2.348,8.015,35.219,35.219,0,0,1-6.735,9.778,44.787,44.787,0,0,1-9.862,7.673,50.646,50.646,0,0,1-11.988,5.012A49.505,49.505,0,0,1,375.69,151.5Zm401.023-21.749a25.262,25.262,0,0,1-5.572-.64,27.31,27.31,0,0,1-10.379-6.86,52.8,52.8,0,0,1-8.578-11.621A63.542,63.542,0,0,1,746.5,96.7a45.053,45.053,0,0,1-1.707-13.78,21.334,21.334,0,0,1,3.3-11.089,14.846,14.846,0,0,1,9.338-6.15c3.412-.668,6.522-2.474,9.53-4.22a51.229,51.229,0,0,1,5.85-3.069A16.348,16.348,0,0,1,779.162,57a15.956,15.956,0,0,1,7.684,2.119,27.429,27.429,0,0,1,10.6,5.254,25.986,25.986,0,0,1,6.73,8.468,33.408,33.408,0,0,1,3.2,10.575,44.235,44.235,0,0,1,0,11.574,50.192,50.192,0,0,1-3.414,12.84,44.154,44.154,0,0,1-6.565,11.125,31.47,31.47,0,0,1-9.238,7.832,23.727,23.727,0,0,1-11.434,2.961h0ZM919.93,123h0a32.2,32.2,0,0,1-6.742-.7,28.569,28.569,0,0,1-6.409-2.182,27.074,27.074,0,0,1-10.71-9.31c-4.9-4.566-8.1-9.392-9.506-14.344a20.4,20.4,0,0,1,.641-13.272,25.3,25.3,0,0,1,4.98-7.806,33.62,33.62,0,0,1,7.68-6.153,39.747,39.747,0,0,1,19.949-5.482,34.889,34.889,0,0,1,8.829,1.113,31.272,31.272,0,0,1,15.74,9.723,37.982,37.982,0,0,1,5.886,9.158,25.067,25.067,0,0,1,2.96,12.594,22.8,22.8,0,0,1-3.439,10.985,28.9,28.9,0,0,1-5.43,6.438,35.2,35.2,0,0,1-7.2,4.945,38.34,38.34,0,0,1-8.35,3.173A36.432,36.432,0,0,1,919.93,123ZM705.43,88.5A36.65,36.65,0,0,1,693.1,86.282a44.775,44.775,0,0,1-11.267-6,46.913,46.913,0,0,1-9.195-8.805,39.871,39.871,0,0,1-6.112-10.631,31.257,31.257,0,0,1-1.9-7.967,26.153,26.153,0,0,1,.432-8.047,27.614,27.614,0,0,1,9.223-15.01,16.646,16.646,0,0,1,2.409-3.808,12.008,12.008,0,0,1,2.932-2.491,13.5,13.5,0,0,1,7.118-1.771c5.478,0,11.834,2.27,17.981,4.466,5.733,2.048,11.147,3.982,15.786,4.156a20.039,20.039,0,0,1,11.622,9.214,21.987,21.987,0,0,1,2.376,6.65,29.819,29.819,0,0,1,.426,7.4,45.3,45.3,0,0,1-7.765,21.933,36.363,36.363,0,0,1-7.415,8.156,20.733,20.733,0,0,1-8.654,4.27A31.78,31.78,0,0,1,705.43,88.5Zm456.477-6.75h0a24.6,24.6,0,0,1-6.447-.847,22.956,22.956,0,0,1-10.62-6.313,24.186,24.186,0,0,1-3.754-5.16,30.059,30.059,0,0,1-3.137-17.563,43.669,43.669,0,0,1,2.582-10.7,60.217,60.217,0,0,1,5.905-11.573,24.3,24.3,0,0,1,9.526-9.452,25.092,25.092,0,0,1,12.029-2.894c12.738,0,25.99,8.226,30.824,19.134a22.533,22.533,0,0,1,1.736,6,20.709,20.709,0,0,1-.1,6.368,26.312,26.312,0,0,1-6.862,13.162,53.462,53.462,0,0,1-15.834,15.161,34.786,34.786,0,0,1-8.071,3.54A28.091,28.091,0,0,1,1161.907,81.75ZM299.105,64.5h-.016c-6.269,0-11.55-.9-15.694-2.659a18.754,18.754,0,0,1-8.754-7.158c-2.957-4.662-3.831-10.981-2.6-18.782,1.035-6.536,3.516-14.006,7.374-22.2A50.321,50.321,0,0,1,293,3.185,27.816,27.816,0,0,1,305.509,0a22.794,22.794,0,0,1,10.1,2.348,26.48,26.48,0,0,1,8.132,6.275,32.878,32.878,0,0,1,5.662,9.047,35.865,35.865,0,0,1,2.69,10.666,33.523,33.523,0,0,1-.85,11.409A30.3,30.3,0,0,1,326.207,50.4a32.6,32.6,0,0,1-9.767,8.653,46.661,46.661,0,0,1-15.035,5.409C300.624,64.487,299.85,64.5,299.105,64.5Z" transform="translate(-48.749 -207.75)" fill="#303d78"/>
    </g>
  </g>
</svg>
