<?xml version="1.0" encoding="utf-8"?>
<!-- Generator: Adobe Illustrator 20.1.0, SVG Export Plug-In . SVG Version: 6.00 Build 0)  -->
<svg version="1.1" id="Layer_1" xmlns="http://www.w3.org/2000/svg" xmlns:xlink="http://www.w3.org/1999/xlink" x="0px" y="0px"
	 viewBox="0 0 1440 809.9" style="enable-background:new 0 0 1440 809.9;" xml:space="preserve">
<style type="text/css">
	.st0{fill:#FF4133;}
	.st1{clip-path:url(#SVGID_2_);}
	.st2{fill:#FFBB00;}
</style>
<g>
	<g id="Mask_Group_13" transform="translate(9.869 125.423)">
		<g id="pattern_01" transform="translate(0 -278.801)">
			<rect id="Mask-3" x="-9.9" y="153.4" class="st0" width="1440" height="809.9"/>
			<g id="Group_11">
				<defs>
					<rect id="SVGID_1_" x="-9.9" y="153.4" width="1440" height="809.9"/>
				</defs>
				<clipPath id="SVGID_2_">
					<use xlink:href="#SVGID_1_"  style="overflow:visible;"/>
				</clipPath>
				<g id="Mask_Group_17" class="st1">
					<path id="Combined_Shape" class="st2" d="M1105,1165.7c-2-0.4-2.6-2.8-2.8-4.8c-0.7-6-1-12.2,0.4-18.1
						c3.3-14.8,18.6-32.6,31.2-40.6c10.5-6.7,22.8-10.4,32.4-18.4c20.1-16.6,23.5-47.2,42.8-64.6c14.3-12.9,35.4-16.8,48.2-31.2
						c10.8-12.2,17.3-29.7,26-43.5c9.1-14.5,19.6-28.9,34.5-37.2c14.1-7.8,30.5-9.4,45.6-15c21.9-8.4,39.8-24.9,49.9-46
						c2.3-5,6.8-11.3,11.7-9.1c3.8,1.7,3.6,7.1,2.5,11.2c-1.6,6.1-3.7,12.1-6.3,17.8c-5.9,12.7-14.5,24.9-25.3,32.5
						c-17,11.9-38.2,13.8-52.5,30.4c-14.9,17.3-20.5,41.5-37.3,57c-13.6,12.6-32.6,17.5-47.5,28.6c-35.7,26.5-41.2,82.6-79.5,105
						c-21.3,12.5-60.6,11.5-68.8,40.5c-0.7,2.5-2,5.7-4.4,5.7C1105.4,1165.7,1105.2,1165.7,1105,1165.7z M797.9,1152.6
						c-7.4-9.3,5.3-28.9,10-36.7c9.9-16.4,26.9-27.6,43.1-37c21.7-12.6,45.5-25.3,56.7-47.7c8.1-16.1,8.5-35.1,15.7-51.6
						c5-11.6,13.2-21.3,22.7-29.6c34.3-29.9,90.2-45,104.8-92.7c0.5-2.1,1.3-4.1,2.5-5.9c7-9.1,8.1,5,7.8,9.3
						c-0.7,12.7-3.3,25.3-7.6,37.3c-6.7,18-17.7,34.1-32,46.9c-19.6,17.3-45.2,28.6-59.5,50.5c-10,15.4-13.2,34.3-22.6,50
						c-13.2,22-36.9,35.3-60.3,45.9c-27.6,12.5-57.7,28.8-72.3,56.6c-0.9,1.7-1.8,3.6-3.4,4.8c-0.8,0.6-1.8,0.9-2.8,0.9
						C799.5,1153.8,798.6,1153.4,797.9,1152.6z M576.4,1052.1c21.6-24.8,51.9-36.1,75.8-58c28-25.7,39.6-67.1,71.1-88.3
						C747,890,779.8,887,797,864.3c4,14.3-5.6,29.1-17.2,38.3s-25.7,15.2-36.5,25.4c-23.9,22.4-27.9,60.7-52.7,82.2
						c-11,9.6-25,14.7-37.1,22.7c-11.4,7.5-22,16.6-32.3,25.5c-21.9,18.7-42.4,40-54.6,66.4c-2.7,5.9-5.9,12.8-12.3,14
						C547.2,1108.5,556.1,1075.3,576.4,1052.1L576.4,1052.1z M33,1130.4c-5.9-2.1,0.7-18,2.3-21.2c3.5-6.7,8.1-12.8,13.8-17.9
						c13.9-12.2,34.9-14.1,48.1-27c8.3-8.1,11.6-18.8,16.5-28.9c4.8-9.8,12.3-18.5,19.9-26.3c16.2-16.6,35.9-29.4,56.1-40.4
						c19.7-10.7,40.1-19.8,60-30.1c19.3-10,37.5-18.6,51.6-35.5c15.7-18.9,25-42.3,38-63.2c18.9-30.4,48.5-45.5,84-49.1
						c1.4-0.3,2.8-0.1,4.1,0.4c2,1,3.1,2.7,1.6,4.8c-0.8,1-1.7,1.7-2.8,2.3c-19,11.4-36.9,22.9-49.4,41.9
						c-24,36.7-33.4,76.7-67.7,107.1c-29.5,26.2-67.5,39.2-102.5,56.1c-16.6,8-35,16.8-48.6,29.4c-12.9,12-18.5,30.2-30.9,43.5
						c-7.9,8.4-17.5,15.1-28.1,19.6c-22.1,9.4-46.5,11.6-61.9,32.2c-0.8,1.1-2,2.4-3.3,2.4C33.5,1130.5,33.2,1130.4,33,1130.4
						L33,1130.4z M658.6,1096.2c-1.6-0.7-3.4-1.8-3.2-3.5c0.2-2,2.8-2.7,4.9-2.9c8.8-0.8,19.5-2.8,24.7-10.4
						c6.2-9.1,9.8-19.7,16.5-28.5c14.1-18.4,38.4-25.6,56.2-40.4c24.1-20.1,34.3-52.4,55.6-75.4c9-9.7,19.9-17.5,31.9-23
						c10.8-5,26.2-11.3,38.1-7.7c1.7,0.5,3.6,1.5,3.9,3.2c0.2,1.6-1.1,3-2.5,3.9c-2.9,1.8-6.4,2.1-9.7,2.9
						c-22.1,5.6-32.9,33.3-40.7,52.1c-5.7,13.9-11.6,29.3-20.8,41.9c-10.9,15-27.4,20.6-42,31.2c-27.2,19.7-45.4,50.3-80,58.5
						c-4.6,1.1-9.4,1.7-14.1,1.7C670.9,1099.8,664.5,1098.6,658.6,1096.2L658.6,1096.2z M354.7,1061.2c0.7-12.7,3.3-25.3,7.6-37.3
						c6.7-18,17.7-34.1,32-46.9c19.6-17.3,45.2-28.6,59.5-50.5c10-15.4,13.2-34.3,22.6-50c13.2-22,36.9-35.3,60.3-45.9
						c27.6-12.5,57.7-28.8,72.3-56.6c0.9-1.7,1.8-3.6,3.4-4.8s4.1-1.3,5.4,0.2c7.4,9.3-5.3,28.9-10,36.7
						c-9.9,16.4-26.9,27.6-43.1,37c-21.7,12.6-45.5,25.3-56.7,47.7c-8.1,16.1-8.5,35.1-15.7,51.6c-5,11.6-13.2,21.3-22.7,29.6
						c-34.3,29.9-90.2,45-104.8,92.7c-0.5,2.1-1.3,4.1-2.5,5.9c-1.6,2.1-3,3-4,3C355.1,1073.5,354.5,1064.5,354.7,1061.2z
						 M1116.3,1024.6c0.4-0.7,1.1-1.2,1.8-1.6c8.1-4.8,17.5-8.4,23-16c6.1-8.2,6-19.1,9-28.8c5.2-16.1,18.6-25.1,28.5-37.9
						c10.7-13.8,23.9-25.7,36.1-38.5c26.8-28,29-70.9,57-98.1c12.2-12,28.3-19.2,43.2-27.7c19.6-11.1,40-24.3,53.7-42.1
						c11.1-14.4,17.3-33.7,33.9-43.4c18.7-10.9,47.1-0.4,62.9-15.4c4.6-4.5,7.5-10.4,8.5-16.8c0.4-2.7,1-5.9,3.6-6.8
						c1.7-0.4,3.5,0.2,4.6,1.7c1,1.4,1.6,3,1.8,4.7c3.5,18.4-3.3,35-18.1,46.8c-20.2,16.1-41.9,27.4-57.9,48.2
						c-14.8,19.2-27.5,38.1-47,53.2c-15.6,12-34.9,16.2-50.2,29.4c-19.3,16.7-28.2,36.2-38.4,58.7c-4.3,9.5-8.6,19.1-15.3,27.2
						c-22.3,27-59.1,37.1-78,67.4c-3.3,5.4-6.1,11.1-9.9,16.2c-6.7,9.1-15.8,16-26.3,20.1c-1.4,0.6-13.4,3.4-20.9,3.4
						C1117.6,1028.5,1114.8,1027.5,1116.3,1024.6L1116.3,1024.6z M-5.2,953.3c-0.7-1.5-1-3.2-1-4.9c-0.2-18.7,9.4-33.8,26-42.9
						c22.7-12.4,46-19.7,65.4-37.4c17.9-16.3,33.7-32.7,55.6-44.1c17.4-9.1,37.2-9.9,54.6-20.2c22-13,34.1-30.7,48-51.1
						c5.8-8.6,11.8-17.3,19.8-24.1c26.7-22.7,64.7-26.2,88.6-52.7c4.2-4.7,8-9.8,12.5-14.2c8.2-7.8,18.4-13,29.4-15.1
						c2.4-0.5,31.6-2.1,26.1,5.1c-0.6,0.6-1.3,1-2.1,1.3c-8.8,3.3-18.7,5.2-25.5,11.7c-7.4,7.1-9.2,17.8-13.9,26.7
						c-7.9,15-22.7,21.4-34.7,32.3c-12.9,11.8-28,21.2-42.3,31.6c-31.2,22.9-41,64.6-73.2,86.6c-14.1,9.6-31.2,14-47.4,19.7
						c-21.2,7.5-43.6,17-60.3,32.1c-13.5,12.2-22.9,30.2-41,36.8c-9.2,3.4-19.7,2.1-30,0.8c-12.4-1.6-24.7-3.1-34.6,3.4
						c-5.3,3.7-9.2,8.9-11.3,15c-0.9,2.5-2,5.7-4.7,6c-0.2,0-0.3,0-0.5,0C-3,955.7-4.4,954.7-5.2,953.3z M632.9,903.6
						c0.4-4.5,1.2-8.9,2.6-13.2c2.4-7.8,6.3-15,11.3-21.4c9.6-12.5,22.1-22.6,36.3-29.4c24.6-11.9,52.5-18.2,73.4-35.8
						c21.3-18,33.8-46.6,59.1-58.5c8.8-4.1,18.6-5.9,27.2-10.4c20-10.4,40.9-54.4,68.5-41.4c1.4,0.6,2.3,2,2.1,3.5
						c-0.3,1.3-1.6,2.2-2.8,2.8c-2.8,1.4-5.8,2.4-8.6,3.9c-6,3.3-10.6,8.8-13.8,14.8c-6.5,12.1-4.2,25.1-15.7,34.2
						c-10.9,8.5-25,11.2-36.7,18.5c-16.5,10.3-29.4,29.7-39.9,45.8c-10.8,16.6-33.4,28.6-51,36.9c-9.3,4.4-18.9,8-28.7,10.9
						c-10,2.9-20.2,3.6-30.2,6.4c-18.8,5.4-35,17.4-45.7,33.8c-1.8,2.8-3.7,4.3-5.1,4.3C633.7,909.3,632.7,907.5,632.9,903.6
						L632.9,903.6z M911.8,827.5c12.4-8.2,27-13,38.7-22.1c25.8-20.3,33.2-58.2,59.8-77.4c11.9-8.6,26.2-12.5,39-19.4
						c12-6.5,23.4-14.7,34.5-22.6c23.5-16.8,45.9-36.2,60.4-61.5c3.2-5.6,7-12.2,13.5-12.9c4.4,30.7-7.3,63.1-29.6,84.6
						c-23.8,22.9-55,31.5-80.8,51.2c-30.2,23.2-45.4,63.5-78.8,81.9c-25,13.8-58.1,13.8-77.2,35
						C888.6,849.6,899.4,835.7,911.8,827.5L911.8,827.5z M1095.9,863.2c-2-0.8-3.2-2.5-1.9-4.6c0.7-1,1.6-1.9,2.7-2.5
						c18.1-12.8,35.1-25.5,46.1-45.4c21.2-38.3,27.7-78.9,59.7-111.8c27.5-28.3,64.4-44,98.1-63.4c15.9-9.2,33.7-19.3,46.3-32.9
						c12-12.9,16.2-31.5,27.7-45.6c7.3-9,16.3-16.3,26.6-21.6c21.3-11,45.5-14.9,59.3-36.7c0.9-1.4,2.2-3,3.8-2.6
						c6,1.7,0.7,18-0.8,21.3c-3,7-7.2,13.4-12.4,18.8c-13,13.2-33.7,16.6-46,30.5c-7.7,8.7-10.2,19.6-14.4,30.1
						c-4.1,10.1-10.9,19.3-17.9,27.6c-14.9,17.7-33.6,31.9-53,44.4c-18.8,12.1-38.5,22.7-57.6,34.4c-18.5,11.4-36,21.3-48.8,39.2
						c-14.3,20-21.9,44-33.2,65.8c-16.6,31.7-45,48.9-80.1,55.1c-0.8,0.2-1.5,0.2-2.3,0.3C1097.1,863.5,1096.5,863.4,1095.9,863.2
						L1095.9,863.2z M-32.9,792.4c-1.6-0.7-3.4-1.8-3.2-3.5c0.2-2,2.8-2.7,4.9-2.9c8.8-0.8,19.5-2.8,24.7-10.4
						c6.2-9.1,9.8-19.7,16.5-28.5c14.1-18.4,38.4-25.6,56.2-40.4c24.1-20.1,34.3-52.4,55.6-75.4c9-9.7,19.9-17.5,31.9-23
						c10.8-5,26.2-11.3,38.1-7.7c1.7,0.5,3.6,1.5,3.9,3.2c0.2,1.6-1.1,3-2.5,3.9c-2.9,1.8-6.4,2.1-9.7,2.9
						c-22.1,5.6-32.9,33.3-40.7,52.1c-5.7,13.9-11.6,29.3-20.8,41.9c-10.9,15-27.4,20.6-42,31.2c-27.2,19.7-45.4,50.3-80,58.5
						c-4.6,1.1-9.4,1.7-14.2,1.7C-20.6,796.1-27,794.9-32.9,792.4z M459.6,771.1c-1.9-0.6-2.2-3.1-2.2-5.1c0.1-6,0.6-12.1,2.7-17.9
						c5.1-14.2,22.7-29.8,36.2-36.1c11.3-5.3,23.9-7.4,34.4-14c22.1-13.8,29.3-43.5,50.8-58.3c15.8-10.9,37.3-12,51.8-24.6
						c12.3-10.7,21-27.1,31.3-39.6c10.8-13.1,23.1-26,39-32.3c15-5.9,31.5-5.3,47.1-9c22.8-5.4,42.6-19.4,55.4-39
						c3-4.6,8.2-10.3,12.7-7.5c3.5,2.2,2.6,7.5,1.1,11.4c-2.3,5.8-5.2,11.4-8.6,16.8c-7.5,11.8-17.6,22.7-29.3,28.8
						c-18.4,9.6-39.7,8.7-55.9,23.3c-17,15.2-25.7,38.4-44.3,51.5c-15.1,10.7-34.6,13.1-50.7,22.1c-38.8,21.6-51.5,76.2-92.3,93.4
						c-22.7,9.6-61.5,3.5-73.4,31.1c-1,2.3-2.6,5.1-4.8,5.1C460.1,771.3,459.8,771.2,459.6,771.1L459.6,771.1z M663.6,749.6
						c-0.8-1.5-1.3-3.2-1.3-4.9c-1.5-18.7,7-34.5,22.9-44.8c21.7-14,44.4-23,62.4-42c16.7-17.6,31.2-35.1,52.2-48.1
						c16.7-10.4,36.3-12.6,52.8-24.1c20.9-14.6,31.8-33.1,44.1-54.5c5.2-9,10.5-18.1,18-25.5c24.9-24.6,62.5-30.8,84.4-59
						c3.9-5,7.2-10.4,11.5-15.1c7.5-8.3,17.3-14.3,28.2-17.2c2.3-0.6,31.3-4.3,26.3,3.3c-0.5,0.6-1.2,1.1-2,1.4
						c-8.5,4-18.2,6.6-24.5,13.5c-6.9,7.6-7.9,18.4-12,27.7c-6.8,15.6-21.1,23-32.2,34.8c-12,12.7-26.4,23.2-39.8,34.6
						c-29.4,25.1-36.2,67.6-66.7,91.9c-13.4,10.6-30,16.2-45.7,23c-20.5,9-42.2,20.1-57.7,36.4c-12.5,13.2-20.7,31.8-38.2,39.8
						c-9,4.1-19.4,3.5-29.8,2.9c-12.4-0.7-24.8-1.4-34.1,5.9c-5,4-8.6,9.6-10.1,15.9c-0.7,2.6-1.6,5.8-4.3,6.4
						c-0.2,0-0.5,0.1-0.7,0.1C665.8,751.7,664.4,750.9,663.6,749.6L663.6,749.6z M192.9,723.7c-7.7-9,4.3-29.1,8.7-37.1
						c9.3-16.7,26-28.5,41.8-38.5c21.3-13.4,44.6-26.9,55.1-49.7c7.5-16.4,7.3-35.4,13.9-52.1c4.7-11.7,12.5-21.8,21.6-30.4
						c33.2-31.1,88.6-48.1,101.6-96.4c0.4-2.1,1.2-4.1,2.3-6c6.7-9.3,8.2,4.8,8.1,9.1c-0.3,12.8-2.4,25.4-6.4,37.6
						c-6.1,18.3-16.5,34.7-30.4,48.1c-19,18-44.2,30.1-57.8,52.6c-9.5,15.7-12,34.8-20.9,50.8c-12.4,22.5-35.7,36.6-58.7,48
						c-27.2,13.5-56.7,30.8-70.4,59.1c-0.9,1.8-1.7,3.7-3.3,4.9c-0.8,0.6-1.8,1-2.9,1C194.5,724.8,193.5,724.4,192.9,723.7z
						 M1009.6,648.7c-14.6-10.2-13.4-33.8-6.7-48.1c7-14.7,19.7-25.9,32.9-35.4s27.3-18.1,38.8-29.7c14.9-15.1,24.5-34.7,38.1-51.1
						c18.3-22.1,43.2-37.5,68.2-51.4c15.8-8.7,32.1-17.2,45.2-29.6c17-16.1,27.5-37.8,42.2-56c7.8-9.7,17.2-18.3,28.3-24.1
						c2.8-1.5,30.4-11.5,24.8-1.1c-1.3,2.4-6,3.3-8.2,4.6c-24.9,15.2-30,48.8-46.4,73c-28.1,41.5-87.2,52-117.6,91.9
						c-10.7,14-17.1,30.8-27.1,45.3c-25,36-77.3,39.8-99.3,78.5c-3.1,5.5-5.8,11.5-6.5,17.8c-0.2,2.3-0.2,4.6,0.2,6.9
						c0.3,1.5,0.5,3.1,0.6,4.7c0,1.6-0.7,3.1-2,4.1c-0.7,0.4-1.5,0.7-2.3,0.7C1011.7,649.8,1010.5,649.4,1009.6,648.7z M-6.9,640.3
						c-1.7-0.4-3.6-1.3-3.7-3c-0.2-2.1,2.3-3.1,4.3-3.6c8.6-2.2,18.7-6,22.6-14.3c4.6-10,6.4-21.1,11.6-30.9
						c10.9-20.5,33.6-31.6,48.7-49.2c20.4-23.8,25.2-57.5,42.5-83.7c7.3-11,16.7-20.5,27.7-28c9.8-6.7,23.9-15.5,36.2-13.9
						c1.8,0.2,3.8,0.9,4.3,2.6c0.5,1.6-0.5,3.2-1.8,4.3c-2.6,2.2-6,3.1-9.1,4.5c-20.8,9.2-27,38.4-31.6,58.2
						c-3.4,14.7-6.6,30.9-13.6,44.8c-8.3,16.6-23.6,24.9-36.3,37.7c-23.6,23.9-36.5,57.2-69.2,70.9c-7,3-14.5,4.6-22.1,4.7
						C0.1,641.6-3.4,641.2-6.9,640.3z M452.7,618.7c-1.7-2.2-2.1-5.1-2.1-7.9c-0.1-17.8,12.1-31,26.7-40.1c15-9.3,32-15.2,46-25.9
						c36.7-27.9,47.3-83.3,88.6-103.6c12-5.9,25.5-8,38.7-6.1c12.2,1.8,18.9-3.2,24.1-13.4c1.5-3,3.7-6,6.9-7
						c0.6-0.2,1.2-0.3,1.8-0.3c10.6-0.6,0.9,27-2.1,31.2c-7.4,10.4-18.9,17.1-30.5,22.5s-23.7,9.9-34,17.5
						c-19.7,14.4-30.2,37.6-45.2,56.7c-19.2,24.1-45.7,41.5-75.5,49.6c-13.3,3.5-27.5,5.5-31.8,20.9c-0.8,3-1.4,6.5-4.2,8
						c-0.7,0.4-1.5,0.6-2.4,0.6C455.8,621.3,453.9,620.3,452.7,618.7L452.7,618.7z M1213.3,579.9c-0.6,0-1.1-0.2-1.6-0.5
						c-1.6-1.2,0.2-3.7,1.9-4.9c9.6-6.6,20.3-13.7,23.7-24.7c3.8-12.3-3.1-23.9,0.7-36.4c3.6-11.7,13.7-20.5,24.1-27.4
						c16.7-11.1,35.3-19.5,51.1-31.9c33.9-26.5,50.3-75.6,93.7-90c5.6-1.9,11.6-4.3,17.5-4.6c10.5-0.4,11.3,4.6,2.2,10
						c-21.2,12.4-34.3,27-45.5,48.6c-6.8,13.2-11.3,27.6-20,39.7c-22,30.6-66,40.2-87.1,71.4c-10.1,15-17.3,30.5-32.4,41.7
						c-1.3,1-2.7,1.9-4.2,2.8c-6.4,3.8-13.6,6.3-20.9,6.3C1215.6,580.1,1214.5,580,1213.3,579.9L1213.3,579.9z M217.6,539.2
						c-14.6-10.2-13.4-33.8-6.7-48.1c7-14.7,19.7-25.9,32.9-35.4c13.2-9.6,27.3-18.1,38.8-29.7c14.9-15.1,24.5-34.7,38.1-51.1
						c18.3-22.1,43.2-37.5,68.2-51.4c15.8-8.7,32.1-17.1,45.2-29.6c17-16.1,27.5-37.8,42.2-56c7.8-9.7,17.2-18.3,28.3-24.1
						c2.8-1.5,30.4-11.5,24.8-1.1c-1.3,2.4-6,3.3-8.2,4.6c-24.9,15.2-30,48.8-46.4,73c-28.1,41.5-87.2,52-117.6,91.9
						c-10.7,14-17.1,30.8-27.1,45.3c-25,36.1-77.3,39.8-99.3,78.5c-3.1,5.5-5.8,11.5-6.5,17.8c-0.3,2.3-0.2,4.6,0.1,6.9
						c0.3,1.5,0.5,3.1,0.6,4.7c0,1.6-0.7,3.1-2,4.1c-0.7,0.4-1.5,0.7-2.3,0.7C219.7,540.3,218.5,539.9,217.6,539.2z M1558.5,493.5
						c-1.7-0.5-3.6-1.5-3.9-3.2c-0.2-1.6,1.1-3,2.5-3.9c2.9-1.8,6.4-2.1,9.7-2.9c22.1-5.6,32.9-33.3,40.7-52.1
						c5.7-13.9,11.6-29.3,20.8-41.9c10.9-15,27.4-20.6,42-31.2c27.2-19.7,45.4-50.3,80-58.5c10.8-2.6,22.6-2.4,32.8,1.9
						c1.6,0.7,3.4,1.8,3.2,3.5c-0.2,2-2.8,2.7-4.9,2.9c-8.8,0.8-19.5,2.8-24.7,10.4c-6.2,9.1-9.8,19.7-16.5,28.5
						c-14.1,18.4-38.4,25.6-56.2,40.4c-24.1,20.1-34.3,52.4-55.6,75.4c-9,9.7-19.9,17.5-31.9,23c-8.6,4-20.1,8.8-30.4,8.8
						C1563.6,494.6,1561,494.2,1558.5,493.5z M-80.5,360.8c24-22.6,55.3-30.8,81.2-50.3c30.4-22.9,46.1-63,79.6-81
						c25.1-13.5,58.1-13.1,77.4-34.1c2.5,14.7-8.4,28.5-20.9,36.5s-27.1,12.6-38.9,21.7c-26,20-33.8,57.8-60.6,76.8
						c-11.9,8.4-26.3,12.2-39.1,18.9c-12.1,6.3-23.5,14.4-34.7,22.2c-23.6,16.5-46.2,35.7-61,60.8c-3.3,5.6-7.2,12.2-13.6,12.8
						C-115.1,414.2-103,382-80.5,360.8z M868.7,437.6c1.6-2.2,6.4-2.4,8.7-3.5c26.8-11.8,36.4-44.5,55.9-66.4
						c33.5-37.5,93.6-40,129.1-75.6c12.5-12.5,21.1-28.4,33.1-41.4c29.7-32.5,82.1-29.2,109.2-64.6c3.8-5,7.3-10.7,8.8-16.8
						c0.6-2.3,0.8-4.6,0.8-6.9c-0.1-1.6-0.1-3.2,0.1-4.7c0.2-1.6,1.1-3,2.5-3.8c1.8-0.9,4-0.2,5.5,1.2c13.1,12.2,8.7,35.5,0.1,48.8
						c-8.9,13.7-23.1,23.1-37.5,30.8s-29.6,14.3-42.5,24.3c-16.9,13-29,31.2-44.7,45.7c-21.1,19.5-47.9,31.5-74.7,41.9
						c-16.9,6.6-34.2,12.7-48.9,23.3c-19.1,13.7-32.4,33.9-49.4,50c-9,8.6-19.6,15.9-31.3,20.2c-6.3,1.7-12.7,2.8-19.2,3
						C869.1,442.8,865.8,441.6,868.7,437.6L868.7,437.6z M54.6,423.4c0-10,3.9-19.2,9.8-27.2c7.5-10,17.3-18,24.8-28
						c11.9-15.9,17.3-36,29.1-51.9c14.8-19.9,38.2-31.6,54-50.8c11.9-14.4,18.6-32.3,28-48.5c14.7-25.3,35.7-46.5,61-61.3
						c15.8-9.2,33.9-16.2,50.4-24.4c6.9-3.4,14.4-7.5,17.3-14.6c0.7-1.7,1.1-3.7,2.4-5c7.1-7.2,5,9.1,4.5,11.4
						c-2.1,8.8-7.5,16.9-13.9,23c-11.7,11-26.7,17.8-38.6,28.5c-29.6,26.5-35.7,72-64.6,99.2c-12.8,12.1-29.7,20-39.6,34.5
						c-6.5,9.5-9.5,21-14.9,31.2c-8.7,16.1-25.2,33.6-40.1,44.2c-10.7,7.7-23,12.7-34.1,19.8c-4.7,2.9-9,6.3-12.9,10.2
						c-5.5,5.5-9.8,12-11.6,19.6c-0.2,1.4-0.7,2.8-1.6,4c-0.8,1-1.9,1.7-3.1,1.8C56.3,439.1,54.6,426,54.6,423.4z M481,430.2
						c-0.5-0.1-1-0.4-1.4-0.8c-1.3-1.5,0.9-3.6,2.8-4.4c10.6-4.7,22.4-9.7,27.7-19.9c6-11.4,1.4-24,7.4-35.6
						c5.6-10.9,17.2-17.6,28.6-22.5c18.4-7.9,38.1-12.7,55.8-22c38-19.8,63-65.1,108.1-71.2c5.8-0.8,12.1-2.1,18-1.3
						c10.3,1.5,10.2,6.6,0.3,10.2c-23,8.4-38.4,20.2-53.4,39.4c-9.1,11.7-16.1,25-26.9,35.3c-27.1,26-71.9,27.5-98.2,54.2
						c-12.6,12.8-22.5,26.7-39.4,35c-1.5,0.7-3,1.4-4.6,2c-4.9,1.9-10.1,2.9-15.3,2.9C487.3,431.6,484.1,431.1,481,430.2L481,430.2z
						 M733.6,393.1c-10.3-1.5-10.2-6.6-0.3-10.2c23-8.3,38.4-20.2,53.4-39.4c9.1-11.7,16.1-25,26.9-35.3
						c27.1-26,71.9-27.5,98.2-54.2c12.6-12.8,22.5-26.7,39.4-35c1.5-0.7,3-1.4,4.6-2c8-3,16.8-4,24.8-1.6c0.5,0.1,1,0.4,1.4,0.8
						c1.3,1.5-0.9,3.6-2.8,4.4c-10.6,4.7-22.4,9.7-27.7,19.9c-6,11.4-1.4,24-7.4,35.6c-5.6,10.9-17.2,17.6-28.6,22.5
						c-18.4,7.9-38.1,12.7-55.8,22c-38,19.8-63,65.1-108.1,71.2c-4.5,0.6-9.3,1.6-14,1.6C736.3,393.3,734.9,393.3,733.6,393.1z
						 M1160.1,362.1c2.1-8.8,7.5-16.9,13.9-23c11.7-11,26.7-17.8,38.6-28.5c29.6-26.5,35.7-72,64.6-99.2
						c12.8-12.1,29.7-20,39.6-34.5c6.5-9.5,9.5-21,14.9-31.2c8.7-16.1,25.2-33.6,40.1-44.2c10.7-7.6,23-12.7,34.1-19.8
						c4.7-2.9,9-6.3,12.9-10.2c5.5-5.5,9.8-12,11.6-19.6c0.2-1.4,0.7-2.8,1.6-4c7-7.5,9.3,10.7,9.3,13.9c0,10-3.9,19.2-9.8,27.2
						c-7.5,10-17.3,18-24.8,28c-11.9,15.9-17.3,36-29.2,51.9c-14.8,19.9-38.2,31.6-54,50.8c-11.9,14.4-18.7,32.3-28,48.5
						c-14.7,25.3-35.7,46.5-61,61.3c-15.8,9.2-33.9,16.2-50.4,24.4c-6.9,3.4-14.4,7.5-17.3,14.6c-0.7,1.7-1.1,3.7-2.4,5
						c-1.3,1.3-2.2,1.8-3,1.8C1158.2,375.3,1159.6,364,1160.1,362.1L1160.1,362.1z M231.5,342.9c0.5-0.6,1.2-1.1,2-1.4
						c8.5-4,18.2-6.6,24.5-13.5c6.9-7.6,7.9-18.4,12-27.7c6.8-15.6,21.1-23,32.3-34.8c12-12.7,26.4-23.2,39.8-34.6
						c29.4-25.1,36.2-67.6,66.7-91.9c13.4-10.6,30-16.2,45.7-23c20.5-9,42.2-20.1,57.7-36.4c12.5-13.2,20.7-31.8,38.2-39.8
						c9-4.1,19.4-3.5,29.8-2.9c12.4,0.7,24.8,1.4,34.1-5.9c5-4,8.6-9.6,10.1-15.9c0.7-2.6,1.6-5.8,4.3-6.4c1.8-0.2,3.5,0.6,4.4,2.1
						c0.8,1.5,1.3,3.2,1.3,4.9c1.5,18.7-7,34.5-22.9,44.8c-21.7,14-44.4,23-62.4,42c-16.7,17.6-31.2,35.1-52.2,48.1
						c-16.7,10.4-36.3,12.6-52.8,24.1c-20.9,14.6-31.8,33.1-44.1,54.5c-5.2,9-10.5,18.1-18,25.5c-24.9,24.6-62.5,30.8-84.4,59
						c-3.9,5-7.2,10.4-11.5,15.1c-7.5,8.3-17.3,14.3-28.2,17.2c-5.4,0.9-10.9,1.4-16.4,1.5C234.7,347.6,229,346.6,231.5,342.9z
						 M1383.6,293.7c0-10,3.9-19.2,9.8-27.2c7.5-10,17.3-18,24.8-28c11.9-15.9,17.3-36,29.2-51.9c14.8-19.9,38.2-31.6,54-50.8
						c11.9-14.4,18.7-32.3,28-48.5c14.7-25.3,35.7-46.5,61-61.3c15.8-9.2,33.9-16.2,50.4-24.4c6.9-3.4,14.4-7.5,17.3-14.6
						c0.7-1.7,1.1-3.7,2.4-5c7.1-7.2,5,9.1,4.5,11.4c-2.1,8.8-7.5,16.9-13.9,23c-11.7,11-26.7,17.8-38.6,28.5
						c-29.6,26.5-35.7,72-64.6,99.2c-12.8,12.1-29.7,20-39.6,34.5c-6.5,9.5-9.5,21-14.9,31.2c-8.7,16.1-25.2,33.6-40.1,44.2
						c-10.7,7.7-23,12.7-34.1,19.8c-4.7,2.9-9,6.3-12.9,10.2c-5.5,5.5-9.8,12-11.6,19.6c-0.2,1.4-0.7,2.8-1.6,4
						c-0.8,1-1.9,1.7-3.1,1.8C1385.3,309.4,1383.6,296.3,1383.6,293.7z M582.8,251.6c-3.5-2.2-2.6-7.5-1.1-11.4
						c2.3-5.8,5.2-11.4,8.6-16.8c7.5-11.8,17.6-22.7,29.3-28.8c18.4-9.6,39.7-8.7,55.9-23.3c17-15.2,25.7-38.4,44.3-51.5
						c15.1-10.7,34.6-13,50.7-22.1c38.8-21.6,51.5-76.2,92.3-93.4c22.7-9.6,61.5-3.5,73.4-31.1c1.1-2.5,3-5.8,5.6-5
						c1.9,0.6,2.2,3.1,2.2,5.1c-0.1,6-0.6,12.1-2.7,17.9c-5.1,14.2-22.7,29.8-36.2,36.1c-11.3,5.3-23.9,7.4-34.4,14
						c-22.1,13.8-29.3,43.5-50.8,58.3c-15.8,10.9-37.3,12-51.8,24.6c-12.3,10.7-21,27.1-31.3,39.6c-10.8,13.1-23.1,26-39,32.3
						c-15,5.9-31.5,5.3-47.1,9c-22.8,5.4-42.6,19.4-55.4,39c-2.4,3.8-6.3,8.2-10.1,8.2C584.5,252.4,583.6,252.1,582.8,251.6z
						 M792.8,205.4c7.4-10.4,18.9-17.1,30.5-22.5s23.7-9.9,34-17.5c19.7-14.4,30.2-37.6,45.2-56.7c19.2-24.1,45.7-41.5,75.5-49.6
						c13.3-3.5,27.5-5.5,31.8-20.9c0.8-3,1.4-6.5,4.2-8c2.5-1.4,5.8-0.2,7.5,2s2.1,5.1,2.1,7.9c0.2,17.8-12.1,31-26.7,40.1
						c-15,9.3-32,15.2-46,25.9c-36.7,27.9-47.3,83.3-88.6,103.6c-12,5.9-25.5,8-38.7,6.1c-12.2-1.8-18.9,3.2-24.1,13.4
						c-1.5,3-3.7,6-6.9,7c-0.6,0.2-1.2,0.3-1.8,0.3c-0.1,0-0.2,0-0.4,0C780.3,236.6,789.8,209.5,792.8,205.4z M1047.6,184.9
						c0-10,3.9-19.2,9.8-27.2c7.5-10,17.3-18,24.8-28c11.9-15.9,17.3-36,29.2-51.9c14.8-19.9,38.2-31.6,54-50.8
						c11.9-14.4,18.6-32.3,28-48.5c14.7-25.3,35.7-46.5,61-61.3c15.8-9.2,33.9-16.2,50.4-24.4c6.9-3.4,14.4-7.5,17.3-14.6
						c0.7-1.7,1.1-3.7,2.4-5c7.1-7.2,5,9.2,4.5,11.4c-2.1,8.8-7.5,16.9-13.9,23c-11.7,11-26.7,17.8-38.6,28.5
						c-29.6,26.5-35.7,72-64.6,99.2c-12.8,12.1-29.7,20-39.6,34.5c-6.5,9.5-9.5,21-14.9,31.2c-8.7,16.1-25.2,33.6-40.1,44.2
						c-10.7,7.6-23,12.7-34.1,19.8c-4.7,2.9-9,6.3-12.9,10.2c-5.5,5.5-9.8,12-11.6,19.6c-0.2,1.4-0.7,2.8-1.6,4
						c-0.8,1-1.9,1.6-3.1,1.8C1049.3,200.6,1047.6,187.6,1047.6,184.9z M92.8,102.1c24-22.6,55.3-30.8,81.2-50.3
						c30.4-22.9,46.1-63,79.6-81c25.1-13.5,58.1-13.1,77.4-34.1c2.5,14.7-8.4,28.5-20.9,36.5S283-14.2,271.2-5.1
						c-26,20-33.8,57.8-60.6,76.8c-11.9,8.4-26.3,12.2-39.1,18.9c-12.1,6.3-23.5,14.4-34.7,22.2c-23.6,16.5-46.2,35.7-61,60.8
						c-3.3,5.6-7.2,12.2-13.6,12.8C58.1,155.5,70.3,123.3,92.8,102.1z M511.3-6.5c-1.4-0.6-2.3-2-2.1-3.5c0.3-1.3,1.6-2.2,2.8-2.8
						c2.8-1.4,5.8-2.4,8.6-3.9c6-3.3,10.6-8.8,13.8-14.8c6.5-12.1,4.2-25.1,15.7-34.1c10.9-8.6,25-11.3,36.7-18.5
						c16.5-10.3,29.4-29.7,39.9-45.8c10.8-16.6,33.4-28.6,51-36.9c9.3-4.4,18.9-8,28.7-10.9c10-2.9,20.2-3.6,30.2-6.4
						c18.8-5.4,35-17.4,45.7-33.8c3.8-5.9,7.8-6,7.4,1.3c-0.4,4.5-1.2,8.9-2.6,13.2c-2.4,7.8-6.3,15-11.3,21.4
						c-9.6,12.5-22.1,22.6-36.3,29.4c-24.6,11.9-52.5,18.2-73.4,35.8c-21.3,18-33.8,46.6-59.1,58.5c-8.8,4.1-18.6,5.9-27.2,10.4
						c-17.4,9.1-35.6,43.8-58.3,43.8C517.9-4.1,514.5-4.9,511.3-6.5z"/>
				</g>
			</g>
		</g>
	</g>
</g>
</svg>
