<svg width="40" height="43" viewBox="0 0 40 43" fill="none" xmlns="http://www.w3.org/2000/svg">
<circle cx="20" cy="23" r="20" fill="#25B89D"/>
<path d="M17.8752 21.5H14.9352L14.2552 24.4H16.8952V25.66H13.9552L12.8752 30.28H11.4752L12.5552 25.66H9.23516L8.15516 30.28H6.75516L7.83516 25.66H5.21516V24.4H8.13516L8.81516 21.5H6.19516V20.24H9.09516L10.0952 16H11.4952L10.4952 20.24H13.8152L14.8152 16H16.2152L15.2152 20.24H17.8752V21.5ZM12.8552 24.4L13.5352 21.5H10.2152L9.53516 24.4H12.8552ZM23.9633 30.28C21.2633 30.28 19.4633 28.8 19.4633 26.56C19.4633 25 20.4433 23.96 21.9233 23.96C23.0233 23.96 23.7433 24.62 23.7433 25.6C23.7433 26.42 23.1633 26.96 22.3033 26.96C21.4633 26.96 20.8833 26.32 21.0233 25.54L20.9833 25.52C20.8633 25.68 20.7833 26 20.7833 26.32C20.7833 27.94 22.0433 29.02 23.7633 29.02C25.6833 29.02 26.9633 27.7 26.9633 25.74C26.9633 23.8 25.5233 22.34 23.3633 22.12V21.72C24.7633 21.3 25.6033 20.16 25.6033 19.02C25.6033 17.72 24.7633 16.86 23.5233 16.86C22.4033 16.86 21.6433 17.5 21.6433 18.46C21.6433 18.76 21.7233 19.04 21.8633 19.18L21.9033 19.16C21.8233 18.66 22.1433 18.06 22.8833 18.06C23.6033 18.06 24.0833 18.54 24.0833 19.22C24.0833 20.04 23.4433 20.6 22.4833 20.6C21.1833 20.6 20.3233 19.76 20.3233 18.48C20.3233 16.76 21.8033 15.72 23.9633 15.72C26.3833 15.72 28.0233 16.92 28.0433 18.7C28.0633 20.1 27.0833 21.28 25.6033 21.64V21.68C28.0833 21.8 29.7233 23.4 29.7233 25.68C29.7233 28.44 27.4633 30.28 23.9633 30.28Z" fill="white"/>
</svg>
