<svg width="150" height="17" viewBox="0 0 150 17" fill="none" xmlns="http://www.w3.org/2000/svg">
<path d="M40.4701 16.2805C40.7386 16.2283 41.0033 16.1761 41.2681 16.1276C40.4515 15.9598 39.6087 15.8628 38.8219 15.6055C38.0426 15.352 37.2707 15.0126 36.5808 14.5801C35.7642 14.0729 35.7232 13.0587 36.3832 12.3688C36.6964 12.0407 37.0656 11.8654 37.528 12.0258C38.2066 12.2607 38.8779 12.5068 39.5528 12.7529C41.1749 13.3533 42.8454 13.6068 44.5496 13.2116C45.0045 13.1072 45.4743 12.8163 45.795 12.4844C46.4252 11.8319 46.2723 11.0115 45.4557 10.5864C44.9411 10.3179 44.3668 10.1352 43.8 9.99723C42.4763 9.67654 41.1189 9.46399 39.8064 9.10228C38.2775 8.68091 36.991 7.91648 36.4727 6.30186C35.8052 4.22111 36.7524 2.01731 38.8257 0.943382C40.9847 -0.175297 43.2631 -0.216316 45.5601 0.387771C46.4588 0.626423 47.3351 1.00304 48.1554 1.43187C48.9385 1.83833 49.1026 2.5058 48.7744 3.22922C48.5283 3.76618 48.0249 4.06077 47.432 3.9228C46.9137 3.80347 46.4103 3.61703 45.9144 3.42685C44.475 2.87124 42.9946 2.61394 41.4695 2.957C40.981 3.06514 40.485 3.30007 40.0823 3.59465C39.1165 4.30315 39.1836 5.63811 40.2762 6.13033C41.2345 6.56288 42.301 6.77543 43.3265 7.05883C44.4452 7.3646 45.6011 7.55851 46.6862 7.94631C48.2822 8.51311 49.2368 9.66908 49.2965 11.3695C49.3487 12.9244 48.7036 14.1736 47.35 15.035C46.4439 15.613 45.4781 16.0344 44.3631 16.1127C44.5085 16.1686 44.6577 16.2283 44.8031 16.2842C43.36 16.2842 41.9169 16.2842 40.4738 16.2842L40.4701 16.2805ZM10.0458 16.2805C9.88542 16.2171 9.72507 16.1537 9.46777 16.053C9.73626 16.0269 9.91152 16.0045 10.0905 15.9896C11.3994 15.8666 12.5404 15.3333 13.5845 14.5913C14.1774 14.1699 14.3005 13.4204 13.9611 12.7939C13.6404 12.2085 13.1147 12.022 12.3502 12.2681C11.8953 12.4136 11.4516 12.5963 11.0153 12.7865C9.81829 13.3011 8.57283 13.5323 7.28635 13.2824C5.13103 12.8648 3.63573 11.2763 3.27402 9.09855C2.89367 6.79408 3.87065 4.5679 5.78359 3.50143C7.36093 2.62513 8.99793 2.70344 10.6498 3.31125C11.3211 3.56109 11.9885 3.8333 12.6747 4.02721C13.2601 4.19128 13.7188 3.92653 13.9872 3.38956C14.3303 2.69971 14.1401 2.00986 13.4093 1.51018C12.1228 0.633881 10.6722 0.193867 9.11726 0.0484385C5.66426 -0.268521 2.35297 1.46916 0.883774 4.37773C-0.674919 7.46901 -0.137953 11.2688 2.22246 13.7112C3.57979 15.117 5.25035 15.9076 7.33855 16.0605C6.98058 16.1537 6.73447 16.2208 6.49209 16.2842C7.67789 16.2842 8.85996 16.2842 10.0458 16.2842V16.2805ZM96.4004 5.45166C96.3817 8.48701 96.3593 11.5224 96.3482 14.5577C96.3482 15.531 96.8777 16.0717 97.8136 16.0978C98.7981 16.1239 99.3313 15.6279 99.391 14.6248C99.4021 14.4608 99.4021 14.3004 99.4021 14.1363C99.4021 11.1905 99.4059 8.24463 99.4059 5.29877C99.4059 4.19501 99.4282 3.09125 99.3947 1.99121C99.3723 1.23051 99.1188 0.551844 98.3096 0.257259C97.4706 -0.0485137 96.7061 0.11183 96.0648 0.730833C95.882 0.906093 95.718 1.10746 95.5725 1.31628C94.5732 2.74818 93.5813 4.18382 92.5782 5.61573C92.2911 6.02964 91.9853 6.42864 91.6609 6.87611C91.5117 6.68967 91.4036 6.57034 91.3141 6.44356C90.2402 4.90724 89.1774 3.36346 88.0886 1.83833C87.7642 1.3834 87.4136 0.921008 86.9811 0.56676C86.1197 -0.141737 84.7213 -0.0410557 84.162 0.794225C83.901 1.18203 83.8115 1.73764 83.8078 2.22241C83.7817 5.89167 83.7928 9.56094 83.7966 13.2302C83.7966 13.7895 83.7705 14.3526 83.8152 14.9082C83.8786 15.7062 84.52 16.1611 85.4187 16.0978C86.3024 16.0344 86.7424 15.5869 86.7387 14.7553C86.7238 12.1712 86.7126 9.58704 86.7014 7.0029C86.7014 6.36898 86.7014 5.73506 86.7014 5.10114C87.0184 5.30996 87.2272 5.55234 87.4099 5.81337C88.316 7.08866 89.1625 8.4087 90.132 9.63552C91.1165 10.881 92.2053 10.8064 93.1525 9.53484C93.5104 9.05381 93.8498 8.55786 94.204 8.06937C94.8827 7.12968 95.5651 6.18999 96.3407 5.12724C96.3817 5.35844 96.4004 5.40691 96.4004 5.45912V5.45166ZM141.047 3.9489C141.062 3.05769 141.095 3.03158 141.987 3.03158C144.023 3.03158 146.059 3.03904 148.095 3.02785C148.423 3.02785 148.758 2.97938 149.079 2.9048C149.504 2.80412 149.765 2.52818 149.866 2.08816C150.116 0.991858 149.59 0.25353 148.404 0.238614C145.481 0.205054 142.557 0.208783 139.634 0.238614C138.567 0.249801 138.146 0.686086 138.038 1.72273C137.993 2.1702 137.978 2.62513 137.978 3.07633C137.974 6.16761 137.974 9.2589 137.978 12.3539C137.978 13.096 137.967 13.838 138.038 14.5726C138.138 15.6205 138.504 15.8964 139.596 15.8815C140.171 15.874 140.745 15.8628 141.315 15.8666C143.739 15.8815 146.163 15.8964 148.583 15.915C149.448 15.9225 149.884 15.5869 149.97 14.8448C150.09 13.7746 149.608 13.2489 148.49 13.2451C146.271 13.2451 144.049 13.2451 141.83 13.2451C141.148 13.2451 141.062 13.1855 141.047 12.5031C141.028 11.6007 141.047 10.6945 141.039 9.79214C141.036 9.50501 141.151 9.41924 141.431 9.41924C142.579 9.41924 143.724 9.40806 144.873 9.39687C145.428 9.39314 145.984 9.41924 146.536 9.3745C147.27 9.3111 147.655 8.90838 147.71 8.23344C147.766 7.55105 147.412 7.01408 146.752 6.83136C146.491 6.76051 146.208 6.73814 145.932 6.73814C144.325 6.73068 142.717 6.73441 141.039 6.73441C141.039 5.7537 141.028 4.8513 141.039 3.9489H141.047ZM56.7767 4.04212C56.7879 3.09125 56.8289 3.0465 57.832 3.04277C59.7561 3.03531 61.6803 3.04277 63.6044 3.03158C63.9736 3.03158 64.3465 3.00175 64.7044 2.9309C65.3011 2.81531 65.7001 2.29698 65.7299 1.67425C65.7597 1.07762 65.3756 0.514555 64.7827 0.35794C64.4844 0.275903 64.1637 0.231156 63.8542 0.227427C61.0613 0.21624 58.2683 0.21624 55.4716 0.227427C54.338 0.227427 53.7899 0.790496 53.7899 1.90918C53.7899 5.97744 53.7899 10.0457 53.7899 14.114C53.7899 14.3302 53.7824 14.5503 53.8122 14.7628C53.9316 15.5608 54.3417 15.8889 55.1621 15.8852C57.8618 15.8778 60.5653 15.8703 63.2651 15.8666C63.761 15.8666 64.2644 15.9113 64.7566 15.8666C65.4987 15.7957 65.9723 15.1096 65.8306 14.3899C65.674 13.5807 65.2078 13.2489 64.1563 13.2451C62.0084 13.2377 59.8643 13.2451 57.7164 13.2414C57.0415 13.2414 56.8103 13.0251 56.7879 12.3726C56.7693 11.7386 56.7655 11.1084 56.7693 10.4745C56.7767 9.39314 56.7805 9.38568 57.9029 9.38941C59.346 9.38941 60.7891 9.4267 62.2322 9.40806C63.004 9.4006 63.4776 8.91957 63.5336 8.19988C63.582 7.52867 63.1234 6.9134 62.4149 6.80899C61.9077 6.73068 61.3857 6.73814 60.8674 6.73441C59.5212 6.72695 58.1751 6.73441 56.7693 6.73441C56.7693 5.77608 56.7618 4.91096 56.7693 4.04585L56.7767 4.04212ZM25.2747 3.96755C26.7141 7.54359 28.1497 11.1196 29.5928 14.692C29.701 14.9604 29.8352 15.2215 29.9955 15.4601C30.3983 16.0642 31.1664 16.2581 31.9197 15.9784C32.5797 15.7323 32.8556 15.2252 32.6953 14.4458C32.6133 14.0431 32.4753 13.6441 32.3187 13.26C31.4088 11.0898 30.4878 8.9233 29.5704 6.76051C28.8358 5.02656 28.1012 3.29261 27.348 1.56984C27.0534 0.891177 26.5649 0.402687 25.8005 0.208783C24.2567 -0.186484 23.097 0.436247 22.4034 2.06579C20.8858 5.62692 19.3606 9.18805 17.8616 12.7604C17.5968 13.3906 17.3731 14.0506 17.265 14.7218C17.2165 15.035 17.4029 15.4825 17.6416 15.7211C18.2494 16.3364 19.3793 16.2171 19.8715 15.5123C20.1288 15.1469 20.3152 14.7218 20.483 14.3041C21.3817 12.1115 22.2655 9.91146 23.1567 7.71512C23.7421 6.27575 24.335 4.84012 24.9764 3.28515C25.1106 3.58719 25.1964 3.77737 25.2747 3.97127V3.96755ZM111.756 4.5418C113.106 7.87919 114.452 11.2203 115.802 14.5577C115.918 14.8411 116.044 15.1245 116.201 15.3893C116.585 16.0381 117.417 16.2693 118.2 15.9635C118.893 15.6913 119.165 15.1208 118.942 14.3265C118.83 13.9275 118.688 13.536 118.528 13.1519C117.562 10.8474 116.589 8.54667 115.612 6.24965C114.926 4.63502 114.251 3.01294 113.516 1.41696C113.084 0.477266 112.233 0.119288 111.208 0.115559C110.179 0.11183 109.44 0.56676 108.978 1.45052C108.792 1.80477 108.62 2.16274 108.463 2.52818C106.987 5.99235 105.51 9.4528 104.048 12.9244C103.832 13.439 103.649 13.976 103.534 14.5167C103.359 15.3296 103.888 15.9747 104.738 16.0679C105.615 16.1649 106.125 15.8218 106.517 14.8598C108.064 11.06 109.605 7.26019 111.208 3.32244C111.428 3.79974 111.614 4.16145 111.767 4.53807L111.756 4.5418ZM129.148 3.0204C130.423 3.02785 131.702 3.05396 132.977 3.03158C134.092 3.01294 134.525 2.5692 134.506 1.5512C134.491 0.805411 134.212 0.46235 133.455 0.320651C133.112 0.257259 132.757 0.227427 132.411 0.227427C129.767 0.219969 127.119 0.223698 124.475 0.223698C123.346 0.223698 122.219 0.21624 121.09 0.223698C120.228 0.234885 119.654 0.607778 119.501 1.22678C119.248 2.24851 119.799 2.95328 120.985 3.00175C122.279 3.05396 123.577 3.05396 124.867 3.00175C125.456 2.97938 125.568 3.15837 125.564 3.69533C125.538 7.3646 125.546 11.0339 125.549 14.7031C125.549 15.6428 125.986 16.0605 126.933 16.0828C127.984 16.1052 128.495 15.5906 128.495 14.498C128.488 11.4627 128.473 8.42362 128.462 5.38827C128.462 4.6313 128.462 3.87432 128.462 3.0204C128.756 3.0204 128.954 3.0204 129.155 3.0204H129.148ZM76.458 8.14768C76.458 6.82018 75.4587 5.77608 74.1834 5.77235C72.8223 5.76862 71.6775 6.82391 71.6887 8.07683C71.6999 9.34466 72.7701 10.4149 74.0268 10.4111C75.4288 10.4111 76.458 9.44907 76.458 8.14768Z" fill="white"/>
</svg>
