<svg width="150" height="44" viewBox="0 0 150 44" fill="none" xmlns="http://www.w3.org/2000/svg">
<path fill-rule="evenodd" clip-rule="evenodd" d="M51.0306 38.8849C51.0306 38.8849 49.9082 33.4943 47.6422 32.4385C47.6422 32.4385 35.0096 33.4584 20.3833 37.4596C20.3833 37.4596 4.48187 42.6326 5.07335 35.3259C5.07335 35.3259 10.0757 17.9266 38.7283 4.83226C38.7283 4.83226 41.9007 8.55264 44.8871 6.33867C44.8871 6.33867 47.1822 4.29114 44.4177 1.26465C44.4177 1.26465 41.9921 -1.13793 37.3183 0.680012C37.3183 0.680012 17.4456 8.77113 3.19651 27.6752C3.19651 27.6752 -3.46842 36.3168 2.44971 41.0494C2.44971 41.0494 6.77692 44.7203 18.5099 42.3049C18.5099 42.3057 37.8603 38.4164 51.0306 38.8849ZM59.5501 5.71818C59.5501 5.71818 61.4645 7.5293 62.009 8.29317C62.009 8.29317 63.1741 9.13131 62.12 11.1217C62.12 11.1217 58.0992 20.6031 57.1928 29.01C57.1928 29.01 56.6628 34.0405 58.4474 34.9538C58.4474 34.9538 59.8181 35.8636 62.3334 32.5068C62.3334 32.5068 67.3741 24.6222 74.488 23.6544C74.488 23.6544 78.3509 23.5528 79.591 23.7713C79.591 23.7713 81.4516 23.9266 81.286 26.8908C81.286 26.8908 80.8107 33.3014 82.871 34.2872C82.871 34.2872 86.3737 35.9762 88.7021 30.478C88.7021 30.478 90.1854 26.6988 90.9724 23.6706C90.9724 23.6706 90.9903 21.7391 93.1914 22.5184C93.1914 22.5184 96.829 24.4148 98.7426 26.2268C98.7426 26.2268 99.3631 26.301 99.2692 29.0595C99.2692 29.0595 99.1591 33.4047 101.568 33.9099C101.568 33.9099 105.35 35.1868 109.653 25.0874C109.653 25.0874 113.044 16.5661 114.345 10.094C114.345 10.094 114.565 8.78564 115.942 9.00584C115.942 9.00584 117.596 9.29689 118.004 9.85251C118.004 9.85251 118.691 10.135 118.403 11.5117C118.403 11.5117 116.558 24.3243 116.919 29.9147C116.919 29.9147 122.99 22.3844 131.507 18.9465C131.507 18.9465 132.894 18.1314 132.946 19.9946L132.99 22.8231C132.99 22.8231 133.048 23.9275 132.013 24.0555C132.013 24.0555 126.122 27.035 124.301 29.7773C124.301 29.7773 128.588 35.9566 129.541 37.4135C129.541 37.4135 130.838 39.0121 128.401 41.4045C128.401 41.4045 127.355 42.4978 125.852 40.9658C125.852 40.9658 123.052 38.0434 120.281 32.016C120.281 32.016 118.55 32.7577 115.748 37.0772L115.655 39.8357C115.655 39.8357 115.921 40.9427 114.265 40.9257L112.264 40.9077C112.264 40.9077 110.678 40.9606 110.829 39.4457C110.829 39.4457 111.1 32.6194 111.338 29.3105C111.338 29.3105 107.584 39.8972 101.169 39.8366C101.169 39.8366 95.2296 40.6082 94.7081 29.9813C94.7081 29.9813 94.6483 29.1534 94.2327 29.2183C94.2327 29.2183 93.7513 29.0757 93.5362 29.9011C93.5362 29.9011 89.5103 40.0713 83.0946 40.0116C83.0946 40.0116 78.6121 39.9697 77.7517 36.0309C77.7517 36.0309 74.9454 41.1083 68.6066 40.3581C68.6066 40.3581 64.334 39.9749 63.4779 35.6203C63.4779 35.6203 56.7071 44.11 52.7725 37.1054C52.7725 37.1054 48.1108 26.6467 56.9922 6.38135C56.9922 6.38391 57.7723 4.04534 59.5501 5.71818Z" fill="#FBFCFD"/>
<path fill-rule="evenodd" clip-rule="evenodd" d="M76.1745 27.7148C76.1745 27.7148 76.3495 31.0281 76.5467 32.2699C76.5467 32.2699 72.8195 37.0042 70.3136 34.9021C70.3136 34.9021 68.2635 32.8136 71.3975 29.6702C71.3967 29.6702 75.0317 26.3936 76.1745 27.7148Z" fill="#191919"/>
<path fill-rule="evenodd" clip-rule="evenodd" d="M134.838 40.8616C134.838 40.8616 143.378 40.4246 145.454 34.235C145.454 34.235 146.671 31.3494 142.912 29.5562C142.912 29.5562 141.468 29.0253 139.918 28.7001C139.918 28.7001 136.25 28.0967 138.496 25.893C138.496 25.893 140.269 24.3576 143.466 25.4739C143.466 25.4739 144.958 26.2643 145.441 24.5095C145.441 24.5095 146.029 22.549 143.652 22.0617C143.652 22.0617 137.765 21.075 134.159 24.9217C134.159 24.9217 130.76 28.7181 133.789 31.1787C133.789 31.1787 135.123 32.2771 137.348 32.4009C137.348 32.4009 139.828 32.7363 139.035 34.5892C139.035 34.5892 138.241 36.3927 134.145 37.2863C134.145 37.2863 132.952 37.6362 132.228 37.5782C132.228 37.5782 130.988 37.463 131.495 38.6587C131.495 38.6587 131.845 39.956 132.613 40.8411C132.613 40.8411 132.921 41.1031 133.543 41.0058L134.838 40.8616ZM145.564 38.2063C145.564 36.9491 146.584 36.024 147.788 36.024C148.981 36.024 150 36.9491 150 38.2063C150 39.4746 148.982 40.4015 147.788 40.4015C146.584 40.4015 145.564 39.4746 145.564 38.2063Z" fill="#FBFCFD"/>
<path fill-rule="evenodd" clip-rule="evenodd" d="M147.788 40.0111C148.778 40.0111 149.56 39.2344 149.56 38.1804C149.56 37.1434 148.778 36.3616 147.788 36.3616C146.786 36.3616 146.004 37.1434 146.004 38.1804C146.004 39.2344 146.786 40.0111 147.788 40.0111Z" fill="#191919"/>
<path fill-rule="evenodd" clip-rule="evenodd" d="M147.324 39.4496H146.943V36.9241H147.905C148.499 36.9241 148.796 37.1443 148.796 37.6427C148.796 38.0942 148.511 38.2914 148.141 38.3375L148.86 39.4496H148.431L147.765 38.3545H147.324V39.4496Z" fill="white"/>
<path fill-rule="evenodd" clip-rule="evenodd" d="M147.783 38.0309C148.106 38.0309 148.396 38.0079 148.396 37.6196C148.396 37.308 148.113 37.2491 147.846 37.2491H147.324V38.0309H147.783Z" fill="#191919"/>
</svg>
