<svg width="150" height="18" viewBox="0 0 150 18" fill="none" xmlns="http://www.w3.org/2000/svg">
<path d="M22.0919 1.79737C20.4443 1.19827 17.5986 0.224731 13.33 0.224731C5.54169 0.224731 0 4.19378 0 9.13636C0 14.4534 4.71792 17.8982 13.2551 17.8982C17.5986 17.8982 20.2946 16.8498 21.9421 16.1758L22.017 16.1009V11.9821C22.017 11.9072 22.017 11.9072 21.9421 11.9072H21.6425C21.5676 11.9072 21.5676 11.9072 21.5676 11.9821C20.5192 15.8014 17.2991 17.2242 13.33 17.2242C7.8632 17.2242 4.04393 14.1538 4.04393 9.13636C4.04393 4.11889 7.33899 1.0485 13.33 1.0485C17.5986 1.0485 20.2946 2.8458 21.343 5.84131C21.343 5.91619 21.4179 5.91619 21.4179 5.91619H21.7174C21.7923 5.91619 21.7923 5.84131 21.7923 5.84131L22.1667 1.94715C22.1667 1.87226 22.1667 1.79737 22.0919 1.79737Z" fill="white"/>
<path d="M44.633 12.1318H44.4833H44.3335H44.2586C44.2586 12.1318 44.1837 12.1318 44.1837 12.2067C43.8093 12.9556 43.3599 13.5547 42.9106 14.1538C42.4613 14.7529 41.8622 15.2771 41.2631 15.6515C40.5891 16.1009 39.8402 16.4004 38.9416 16.6251C38.0429 16.8497 36.9945 16.9995 35.7214 16.9995H35.0474C34.1488 16.9995 33.4748 16.9246 32.8757 16.7749C32.3515 16.6251 31.9021 16.4004 31.6775 16.1009C31.3779 15.8013 31.2281 15.4269 31.1532 14.9776C31.0784 14.5282 31.0035 13.9291 31.0035 13.2551V5.01749C31.0035 4.71794 31.0035 4.41839 31.0035 4.11884C31.0035 3.81929 31.0035 3.59463 31.0784 3.36996C31.0784 3.1453 31.1533 2.92064 31.2281 2.69598C31.303 2.47131 31.3779 2.32154 31.4528 2.17176C31.5277 2.02199 31.6775 1.87221 31.7524 1.79732C31.9021 1.64755 32.0519 1.57266 32.2017 1.49777C32.3515 1.42289 32.5761 1.348 32.8008 1.27311C33.0254 1.19822 33.1752 1.19822 33.4748 1.12333C33.4748 1.12333 33.5497 1.12333 33.5497 1.04845V0.674009C33.5497 0.599121 33.4748 0.599121 33.4748 0.599121C33.4748 0.599121 33.1003 0.599121 32.8757 0.599121C32.5761 0.599121 32.3515 0.599121 31.977 0.599121C31.6775 0.599121 31.303 0.599121 30.8537 0.599121C30.4793 0.599121 30.0299 0.599121 29.5057 0.599121C29.2062 0.599121 28.9066 0.599121 28.6071 0.599121C28.3075 0.599121 28.008 0.599121 27.6335 0.599121C27.334 0.599121 26.9595 0.599121 26.5851 0.599121C26.2107 0.599121 25.8362 0.599121 25.3869 0.599121C25.3869 0.599121 25.312 0.599121 25.312 0.674009V0.823784V0.898672V1.04845C25.312 1.04845 25.312 1.12333 25.3869 1.12333C25.6116 1.12333 25.8362 1.19822 25.986 1.27311C26.2107 1.348 26.3604 1.42289 26.5851 1.49777C26.7349 1.57266 26.8847 1.72244 27.0344 1.79732C27.1842 1.9471 27.2591 2.02199 27.334 2.17176C27.4089 2.32154 27.4838 2.5462 27.5586 2.69598C27.7084 2.92064 27.7084 3.1453 27.7833 3.36996C27.7833 3.59463 27.8582 3.81929 27.8582 4.11884C27.8582 4.41839 27.8582 4.64306 27.8582 5.01749V13.1803C27.8582 13.4798 27.8582 13.7794 27.8582 14.0789C27.8582 14.3785 27.8582 14.6031 27.7833 14.8278C27.7833 15.0524 27.7084 15.2771 27.6335 15.5018C27.5586 15.7264 27.4838 15.8762 27.4089 16.026C27.334 16.1758 27.1842 16.3255 27.1093 16.4004C26.9595 16.5502 26.8098 16.6251 26.66 16.7C26.5102 16.7749 26.2856 16.8497 26.0609 16.9246C25.8362 16.9995 25.3869 17.0744 25.3869 17.0744C25.3869 17.0744 25.312 17.0744 25.312 17.1493V17.4488C25.312 17.5237 25.3869 17.5237 25.3869 17.5237C25.7613 17.5237 26.1358 17.5237 26.5102 17.5237C26.8847 17.5237 27.2591 17.5237 27.5586 17.5237C27.9331 17.5237 28.2326 17.5237 28.5322 17.5237C28.8317 17.5237 29.1313 17.5237 29.4308 17.5237H38.642C39.1662 17.5237 39.6904 17.5237 40.2147 17.5237C40.7389 17.5237 41.1882 17.5237 41.5626 17.5237C41.9371 17.5237 42.3115 17.5237 42.5362 17.5237C42.6859 17.5237 42.7608 17.5237 42.8357 17.5237C42.9106 17.5237 42.9106 17.4488 42.9106 17.4488L44.1837 13.4049L44.5581 12.1318C44.7079 12.2816 44.7079 12.1318 44.633 12.1318Z" fill="white"/>
<path d="M67.9231 17.0744C66.1258 16.8497 64.9276 15.2771 63.7294 13.1053L58.5621 4.34348C57.3639 2.32152 56.016 0 56.016 0C56.016 0 56.016 0 55.9411 0C55.9411 0 55.8662 0 55.7913 0C55.7164 0 55.7164 0 55.7164 0.0748877C55.1922 0.97354 54.5931 2.02197 52.9456 4.71792L48.3774 12.1318C46.2806 15.5766 44.9326 16.9246 44.1088 17.1493C44.0339 17.1493 44.0339 17.2242 44.0339 17.2242V17.5986C44.0339 17.6735 44.1088 17.6735 44.1088 17.6735C44.7079 17.6735 45.4568 17.5986 46.8048 17.5986C48.1528 17.5986 50.0998 17.6735 50.0998 17.6735C50.0998 17.6735 50.1747 17.6735 50.1747 17.5986C50.1747 17.4488 50.1747 17.2991 50.1747 17.2242C50.1747 17.1493 50.1747 17.1493 50.0998 17.1493C48.677 16.7748 48.1528 16.1008 48.1528 15.1273C48.1528 14.2287 48.677 13.1053 49.4258 11.8323L50.025 10.8587L50.0998 10.7838H58.5621C58.637 10.7838 58.637 10.7838 58.7119 10.8587L59.8352 12.7309C60.5841 14.004 61.1832 14.9026 61.1832 15.7264C61.1832 16.4753 60.5841 16.9246 59.0864 17.1493C59.0115 17.1493 59.0115 17.2242 59.0115 17.2242V17.5986C59.0115 17.6735 59.0864 17.6735 59.0864 17.6735C60.659 17.6735 62.0819 17.5986 63.5047 17.5986C64.8527 17.5986 67.9231 17.6735 67.9231 17.6735C67.9231 17.6735 67.998 17.6735 67.998 17.5986V17.2991C67.998 17.2242 67.998 17.1493 67.9231 17.0744ZM58.0379 9.96006H50.624C50.5492 9.96006 50.4743 9.88517 50.5492 9.81028L51.4478 8.38742C53.0953 5.61658 53.7693 4.56815 54.2935 3.6695C54.3684 3.6695 54.4433 3.6695 54.4433 3.6695C54.8926 4.41837 55.7164 5.76635 57.2891 8.38742L58.1128 9.81028C58.1877 9.81028 58.1128 9.96006 58.0379 9.96006Z" fill="white"/>
<path d="M147.005 9.06142C145.432 8.31254 143.41 7.9381 141.238 7.56366L139.516 7.26411C135.846 6.66501 134.274 5.84125 134.274 3.89417C134.274 2.09686 136.296 0.97355 140.265 0.97355C144.533 0.97355 146.48 2.92063 147.154 5.39192C147.154 5.46681 147.229 5.46681 147.229 5.46681H147.604C147.679 5.46681 147.679 5.39192 147.679 5.39192L148.053 1.49776C145.881 0.823774 143.56 0.299561 140.34 0.299561C135.172 0.299561 131.278 1.8722 131.278 5.09237C131.278 8.38743 134.424 9.36097 138.617 10.1098L140.265 10.4094C144.009 11.0834 146.93 11.5327 146.93 14.004C146.93 16.2506 143.859 17.2242 139.965 17.2242C136.296 17.2242 132.851 15.7264 131.728 11.982C131.728 11.9071 131.653 11.9071 131.653 11.9071H131.353C131.278 11.9071 131.278 11.9071 131.278 11.982L130.904 16.2506V16.3255C132.102 16.8497 135.397 17.9731 140.04 17.9731C146.181 17.9731 150 16.3255 150 12.8058C149.776 11.0085 148.652 9.88518 147.005 9.06142Z" fill="white"/>
<path d="M128.807 0.52417C127.684 0.52417 126.485 0.599058 125.437 0.599058C124.314 0.599058 123.265 0.599058 121.917 0.52417C121.842 0.52417 121.842 0.52417 121.842 0.599058V0.973496C121.842 1.04838 121.842 1.04838 121.917 1.04838C123.415 1.19816 124.164 1.72237 124.538 2.39636C125.137 3.3699 125.137 4.79277 125.137 6.81473V8.91159C125.137 11.0084 125.137 12.5062 125.137 12.9555C125.137 13.0304 125.062 13.0304 124.988 13.0304C124.688 12.7309 123.714 11.8322 121.618 10.0349L115.402 4.64299C112.931 2.54614 111.208 0.973496 110.834 0.599058H110.759C109.935 0.599058 108.737 0.599058 108.063 0.599058C107.015 0.599058 106.715 0.599058 105.067 0.52417C104.993 0.52417 104.993 0.599058 104.993 0.599058V0.973496C104.993 1.04838 105.067 1.04838 105.067 1.04838C105.966 1.19816 107.015 1.49771 107.913 2.39636V2.47125V11.1582C107.913 13.1802 107.913 14.6031 107.314 15.5766C106.865 16.2506 106.116 16.7748 104.918 16.9995C104.843 16.9995 104.843 17.0743 104.843 17.0743V17.4488C104.843 17.5237 104.918 17.5237 104.918 17.5237C106.041 17.5237 106.94 17.4488 107.913 17.4488C109.036 17.4488 110.384 17.4488 111.732 17.5237C111.732 17.5237 111.807 17.5237 111.807 17.4488V17.1492C111.807 17.0743 111.807 17.0743 111.732 17.0743C110.534 16.8497 109.71 16.3255 109.261 15.6515C108.662 14.6779 108.662 13.2551 108.662 11.2331V9.13625C108.662 6.21563 108.587 3.81923 108.587 3.22013C108.587 3.14524 108.662 3.14524 108.737 3.14524C108.737 3.14524 111.133 5.31698 113.979 7.71339L119.745 12.7309C121.318 14.0788 125.662 17.8981 125.662 17.8981C125.662 17.8981 125.662 17.8981 125.736 17.973C125.811 17.973 125.886 17.973 125.886 17.8981C125.886 17.8232 125.886 13.33 125.886 11.4578V6.88962C125.886 4.86765 125.886 3.44479 126.485 2.47125C126.935 1.79726 127.534 1.34793 128.732 1.12327C128.807 1.12327 128.807 1.04838 128.807 1.04838V0.673945C128.882 0.599058 128.882 0.52417 128.807 0.52417Z" fill="white"/>
<path d="M91.2881 17.1492C89.4908 16.6999 88.8917 15.4268 88.2177 13.9291L88.0679 13.4797C86.9446 10.7089 85.9711 9.36091 82.7509 9.21114C82.676 9.21114 82.676 9.06136 82.7509 9.06136C86.0459 8.8367 88.8168 7.48872 88.8168 4.5681C88.8168 1.04838 84.698 0.599058 80.1298 0.599058C79.2312 0.599058 78.3325 0.599058 77.4339 0.599058H73.3899C72.2666 0.599058 70.3195 0.599058 68.8967 0.52417C68.8218 0.52417 68.8218 0.599058 68.8218 0.599058V0.973496C68.8218 1.04838 68.8218 1.04838 68.8967 1.04838C69.9451 1.19816 70.5442 1.5726 70.8437 2.09681C71.2931 2.7708 71.2931 3.66945 71.2931 4.94254V13.1053C71.2931 14.3784 71.2182 15.277 70.8437 15.951C70.4693 16.5501 69.9451 16.8497 68.8967 16.9995C68.8218 16.9995 68.8218 17.0743 68.8218 17.0743V17.4488C68.8218 17.5237 68.8967 17.5237 68.8967 17.5237C70.5442 17.4488 71.8173 17.4488 73.0155 17.4488C74.2886 17.4488 76.9845 17.5237 76.9845 17.5237C76.9845 17.5237 77.0594 17.5237 77.0594 17.4488V17.1492C77.0594 17.0743 77.0594 17.0743 76.9845 17.0743C75.9361 16.9246 75.337 16.5501 75.0375 16.0259C74.5881 15.3519 74.5881 14.4533 74.5881 13.1802V9.51069C74.5881 9.4358 74.663 9.36091 74.663 9.36091C75.337 9.36091 77.2841 9.36091 77.9581 9.36091C82.1518 9.36091 83.6495 11.1582 84.5482 13.6295C85.2971 15.4268 86.1957 17.5986 86.7948 17.5986H88.0679C89.4159 17.5986 90.0899 17.5986 91.2132 17.5986C91.2881 17.5986 91.2881 17.5237 91.2881 17.5237V17.2241C91.2881 17.1492 91.2881 17.1492 91.2881 17.1492ZM74.663 8.61204C74.5881 8.61204 74.5881 8.61204 74.5881 8.53715V1.42282C74.5881 1.34793 74.5881 1.34793 74.663 1.34793C75.6366 1.34793 78.7069 1.27305 79.3809 1.27305C82.2267 1.27305 85.1473 1.5726 85.1473 4.5681C85.1473 8.53715 81.6276 8.61204 78.5572 8.61204H74.663Z" fill="white"/>
<path d="M101.698 17.5237V17.2242C101.698 17.1493 101.623 17.1493 101.623 17.1493C100.574 16.9995 100.05 16.6251 99.6756 16.1009C99.2263 15.4269 99.2263 14.5282 99.2263 13.2551V5.01749C99.2263 3.7444 99.3012 2.84575 99.6756 2.17176C100.05 1.57266 100.649 1.27311 101.623 1.12333L101.698 1.04845V0.674009C101.698 0.599121 101.623 0.599121 101.623 0.599121C100.125 0.674009 98.9268 0.674009 97.6537 0.674009C96.4555 0.674009 95.1824 0.674009 93.5348 0.599121C93.46 0.599121 93.46 0.674009 93.46 0.674009V0.973559C93.46 1.04845 93.46 1.04845 93.5348 1.04845C94.5833 1.19822 95.1075 1.57266 95.4819 2.09687C95.9313 2.77086 95.9313 3.66952 95.9313 4.94261V13.1054C95.9313 14.3785 95.8564 15.2771 95.4819 15.9511C95.1075 16.5502 94.5084 16.9246 93.46 16.9995V17.5237C95.1075 17.4488 96.4555 17.4488 97.6537 17.4488C98.9268 17.4488 100.125 17.4488 101.623 17.5237C101.623 17.5986 101.698 17.5986 101.698 17.5237Z" fill="white"/>
</svg>
