<svg width="150" height="17" viewBox="0 0 150 17" fill="none" xmlns="http://www.w3.org/2000/svg">
<g clip-path="url(#clip0_506_13956)">
<path d="M27.0638 0C22.5244 0 19.1055 3.63221 19.1055 8.15102C19.1055 12.6698 22.4957 16.302 27.0638 16.302C31.6319 16.302 35.022 12.6698 35.022 8.15102C35.022 3.63221 31.6319 0 27.0638 0ZM27.0638 13.871C23.9322 13.871 21.72 11.3542 21.72 8.15102C21.72 4.94781 23.9322 2.43101 27.0638 2.43101C30.1954 2.43101 32.4076 4.94781 32.4076 8.15102C32.4076 11.3542 30.1954 13.871 27.0638 13.871ZM43.3538 0.143H40.7681V16.159H50.4214V13.728H43.3825V0.143H43.3538ZM59.3277 9.29503H62.9764V6.86402H59.3277V2.57401H66.855V0.143H56.742V16.159H66.9699V13.728H59.3277V9.29503ZM91.0745 6.86402H84.4379V0.143H81.8521V16.159H84.4379V9.29503H91.0745V16.159H93.6602V0.143H91.0745V6.86402ZM147.414 0.143V11.4114L141.065 0.143H138.221V16.159H140.806V5.11941L147.156 16.159H150V0.143H147.414ZM7.98698 13.871C4.85539 13.871 2.64317 11.3542 2.64317 8.15102C2.64317 4.94781 4.85539 2.43101 7.98698 2.43101C9.94063 2.43101 11.2048 3.28901 12.239 4.60461L14.0778 2.94581C12.6413 1.1726 10.5727 0.0286001 7.95825 0.0286001C3.41889 0.0286001 0 3.66081 0 8.17962C0 12.6984 3.39016 16.3306 7.95825 16.3306C10.86 16.3306 13.2733 14.8434 14.6524 12.6126L12.6987 11.0968C11.8943 12.6984 10.1992 13.871 7.98698 13.871ZM105.698 0.143L99.751 16.159H102.452L103.658 12.8128H110.352L111.559 16.159H114.26L108.313 0.143H105.698ZM104.52 10.4104L106.991 3.57501L109.462 10.4104H104.52ZM123.971 0.143L118.023 16.159H120.724L121.931 12.8128H128.625L129.831 16.159H132.532L126.585 0.143H123.971ZM122.793 10.4104L125.263 3.57501L127.705 10.4104H122.793Z" fill="white"/>
</g>
<defs>
<clipPath id="clip0_506_13956">
<rect width="150" height="16.3306" fill="white"/>
</clipPath>
</defs>
</svg>
