<svg width="150" height="44" viewBox="0 0 150 44" fill="none" xmlns="http://www.w3.org/2000/svg">
<path d="M54.431 1.23242C48.2731 1.23242 43.7123 5.84485 43.7123 11.7255V11.7822C43.7123 17.8081 48.3889 22.2186 54.198 22.2186C58.7014 22.2186 61.2862 20.2877 63.2027 17.6641L58.9629 14.6664C57.7422 16.1375 56.4928 17.1167 54.3731 17.1167C51.5259 17.1167 49.522 14.753 49.522 11.7255V11.6688C49.522 8.72757 51.5259 6.33435 54.3731 6.33435C56.3185 6.33435 57.6555 7.25752 58.8175 8.69955L63.0587 5.44102C61.2569 2.96169 58.5847 1.23242 54.431 1.23242ZM139.764 1.28912C134.884 1.28912 131.893 3.99952 131.893 7.74664V7.8048C131.893 11.9567 135.234 13.1673 139.562 14.1475C142.321 14.7818 142.988 15.2429 142.988 16.0788V16.1369C142.988 17.0009 142.175 17.5195 140.664 17.5195C138.311 17.5195 136.075 16.6844 134.071 15.0989L130.934 18.8183C133.432 21.0372 136.86 22.162 140.462 22.162C145.401 22.162 148.682 19.7101 148.682 15.5882V15.5315C148.682 11.7553 145.777 10.2561 141.101 9.24692C138.282 8.61257 137.585 8.20879 137.585 7.28585V7.22914C137.585 6.50767 138.253 5.93168 139.618 5.93168C141.419 5.93168 143.453 6.62287 145.312 7.9197L148.13 3.97061C145.923 2.21185 143.221 1.28912 139.764 1.28912ZM1.31775 1.63511V21.8159H9.04472C16.3646 21.8159 20.6345 17.4909 20.6345 11.6674V11.6107C20.6345 5.78717 16.4234 1.63513 9.16049 1.63513L1.31775 1.63511ZM24.325 1.63511V21.8159H40.8251V17.0586H29.9017V13.8582H38.6043V9.44823H29.9017V6.39246H40.6797V1.63511H24.325ZM66.6758 1.63511V21.8159H72.3104V17.2968V16.5977V13.6285L79.3117 21.8159H86.0885L77.0076 11.7255L85.9925 1.63511H79.3117L72.3104 9.82257V1.63511H66.6758ZM89.1734 1.63511V21.8159H105.672V17.0586H94.7501V13.8596H103.451V9.44822H94.7501V6.39246H105.527V1.63511H89.1734ZM110.283 1.63511V21.8159H115.918V15.703H118.387L122.483 21.8159H128.99L124.139 14.7813C126.666 13.715 128.321 11.6679 128.321 8.58326V8.52655C128.321 6.53729 127.712 4.97937 126.521 3.82592C125.156 2.44287 123.006 1.63513 119.898 1.63513L110.283 1.63511ZM115.918 6.47896H119.607C121.495 6.47896 122.658 7.28569 122.658 8.87111V8.92926C122.658 10.4003 121.552 11.3214 119.635 11.3214H115.918V6.47896ZM6.95379 6.59382H9.24802C12.6174 6.59382 14.853 8.46823 14.853 11.6971V11.7539C14.853 15.0118 12.6174 16.8572 9.24802 16.8572H6.95379V6.59382Z" fill="white"/>
<path d="M115.436 30.8032C113.197 30.8032 111.586 32.1144 111.586 34.0646C111.586 36.1437 112.94 36.847 115.34 37.4224C117.435 37.9016 117.886 38.3336 117.886 39.1495C117.886 40.0125 117.112 40.5732 115.888 40.5732C114.487 40.5732 113.407 40.0444 112.327 39.1169L111.136 40.525C112.489 41.7238 114.116 42.3159 115.84 42.3159C118.208 42.3159 119.867 41.0689 119.867 38.9581C119.867 37.0877 118.627 36.2394 116.242 35.6641C114.084 35.1522 113.568 34.7687 113.568 33.8902C113.568 33.1379 114.245 32.5473 115.405 32.5473C116.436 32.5473 117.451 32.9459 118.466 33.6973L119.529 32.2113C118.385 31.2992 117.08 30.8032 115.436 30.8032ZM66.0151 30.884L61.0539 42.1556H63.0827L64.2432 39.453H69.5757L70.7193 42.1556H72.813L67.8504 30.884H66.0151ZM30.5907 30.9635V42.1556H35.8103C38.3231 42.1556 39.9822 41.0848 39.9822 39.0701C39.9822 37.5346 39.0641 36.7836 37.7431 36.3362C38.5807 35.9042 39.354 35.2013 39.354 33.8264C39.354 32.0676 37.9209 30.9635 35.6493 30.9635H30.5907ZM46.5275 30.9635V42.1556H48.5097V38.2548H50.9889L53.7603 42.1556H56.0969L53.0516 37.9187C54.631 37.4867 55.7426 36.3676 55.7426 34.5127C55.7426 32.3219 54.1469 30.9635 51.5536 30.9635H46.5275ZM78.555 30.9635V42.1556H80.5047V34.1936L86.7224 42.1556H88.3813V30.9635H86.433V38.7014L80.3918 30.9635H78.555ZM95.5026 30.9635V42.1556H99.7071C103.251 42.1556 105.7 39.7101 105.7 36.5447C105.7 33.3783 103.251 30.9635 99.7071 30.9635H95.5026ZM32.5391 32.7062H35.391C36.6641 32.7062 37.3732 33.2343 37.3732 34.1454C37.3732 35.1845 36.5192 35.6811 35.247 35.6811H32.5391V32.7062ZM48.5097 32.7544H51.3927C52.8592 32.7544 53.7279 33.3941 53.7279 34.6247C53.7279 35.7763 52.8259 36.512 51.4082 36.512H48.5097V32.7544ZM97.4848 32.7544H99.7071C102.075 32.7544 103.622 34.3697 103.622 36.5758C103.622 38.782 102.075 40.3647 99.7071 40.3647H97.4848V32.7544ZM66.9017 33.2337L68.85 37.7102H64.9675L66.9017 33.2337ZM125.984 35.3039V37.0367H148.664V35.3039H125.984ZM1.31775 35.4032V37.1345H23.7984V35.4032H1.31775ZM32.5391 37.343H35.6818C37.2441 37.343 38.0014 37.9038 38.0014 38.8631C38.0014 39.8858 37.1794 40.4129 35.8258 40.4129H32.5391V37.343Z" fill="white"/>
</svg>
