<svg width="143" height="179" viewBox="0 0 143 179" fill="none" xmlns="http://www.w3.org/2000/svg">
<g clip-path="url(#clip0_271_9775)">
<path d="M101.165 117.242L101.165 178.533L143 178.533L143 117.242L101.165 117.242Z" fill="#FF4133"/>
<path d="M37.4902 9.22017L39.7576 179L81.603 179L79.3251 9.22017L37.4902 9.22017Z" fill="#191919"/>
<path d="M27 16.9884L0.0105924 34L-1.48619e-06 0L27 16.9884Z" fill="#FCB92C"/>
<path d="M64.0861 139.251C64.9403 118.042 65.9527 96.8329 66.6065 75.6166C67.2815 53.4868 67.6928 31.35 68.22 9.22015L59.7413 9.22015C59.6991 10.4382 59.6569 11.6562 59.6147 12.8742C59.2562 21.3792 58.7078 29.877 58.1805 38.3748C57.2841 52.6583 57.2419 66.9347 57.7903 81.2111C57.9169 84.5677 57.9063 87.9314 57.7587 91.2881C56.6725 115.125 55.4914 138.954 54.4473 162.79C54.2153 168.186 54.2575 173.59 54.1626 178.993L62.5043 178.993C62.5464 178.03 62.5781 177.06 62.6097 176.097C63.0948 163.81 63.601 151.531 64.0967 139.244L64.0861 139.251Z" fill="#25B89D"/>
<path d="M38.4077 48.7067C38.9245 35.7971 39.283 22.8804 39.7681 9.96366C39.7681 9.71581 39.7892 9.46796 39.7997 9.2201L37.4902 9.2201L38.1124 56.0007C38.2073 53.5718 38.3128 51.1357 38.4077 48.7067Z" fill="#25B89D"/>
<path d="M74.98 139.428C74.5793 151.715 74.1891 164.001 73.7673 176.288C73.7356 177.194 73.704 178.094 73.6724 179L81.6027 179L79.5463 25.3873C78.6921 42.1918 77.8168 58.9892 77.1103 75.7937C76.2139 97.0029 75.676 118.219 74.98 139.435L74.98 139.428Z" fill="#25B89D"/>
<path d="M39.3039 64.619C39.0824 69.9798 38.7872 75.3405 38.4497 80.7012L39.7574 179L42.4465 179C42.4782 175.757 42.4993 172.52 42.6153 169.277C43.0371 157.415 43.7753 145.547 44.5662 133.692C46.011 111.973 47.4558 90.2542 47.7932 68.4997C48.0358 53.2744 48.0358 38.042 48.5525 22.8167C48.7107 18.2845 48.89 13.7523 49.1009 9.22017L41.0018 9.22017C40.485 27.6888 40.0527 46.1575 39.3039 64.619Z" fill="#25B89D"/>
<path d="M69.3593 13.8657C69.1273 29.3034 68.7371 44.7482 68.3469 60.186C67.9568 75.73 67.5771 91.281 67.0182 106.818C66.4487 122.256 65.6789 137.686 64.9512 153.124C64.5505 161.749 64.1287 170.375 63.6963 179L72.4598 179C72.6602 170.417 72.8711 161.841 73.0925 153.259C73.4933 137.821 73.8518 122.383 74.4107 106.945C74.9802 91.4014 75.7395 75.8645 76.4777 60.3205C77.2159 44.8899 77.9436 29.4521 78.8399 14.0215C78.9349 12.421 79.0087 10.8206 79.0719 9.22017L69.4648 9.22017C69.4121 10.771 69.3699 12.3148 69.3488 13.8657L69.3593 13.8657Z" fill="#25B89D"/>
<path d="M48.4787 89.0928C47.983 103.893 46.8125 118.694 45.9266 133.487C45.3572 143.04 44.6295 152.586 44.2182 162.139C43.9757 167.755 43.944 173.377 43.8491 179L52.6864 179C53.0344 169.468 53.3192 159.937 53.7516 150.405C54.3316 137.382 55.0487 124.366 55.6709 111.35C55.8396 107.781 55.9978 104.205 56.0083 100.636C56.04 89.6098 55.7869 78.5909 56.0505 67.5649C56.3774 53.3877 57.0945 39.2176 57.6324 25.0403C57.8117 20.3169 57.9804 15.5936 58.1386 10.8702C58.1597 10.3178 58.1808 9.76546 58.1913 9.21309L50.514 9.21309C50.1449 17.3498 49.7864 25.4865 49.5227 33.6302C48.9111 52.113 49.0903 70.6029 48.4681 89.0857L48.4787 89.0928Z" fill="#25B89D"/>
</g>
<defs>
<clipPath id="clip0_271_9775">
<rect width="179" height="143" fill="white" transform="translate(0 179) rotate(-90)"/>
</clipPath>
</defs>
</svg>
