<svg width="150" height="17" viewBox="0 0 150 17" fill="none" xmlns="http://www.w3.org/2000/svg">
<path d="M83.4194 7.94916C83.1421 7.7291 82.8225 7.57235 82.4819 7.48794C82.7653 7.39751 83.0245 7.26487 83.2416 7.10209C83.5189 6.89409 83.745 6.65595 83.9138 6.39068C84.0675 6.14952 84.1911 5.86314 84.2966 5.49236C84.3931 5.15173 84.4443 4.82617 84.4443 4.52773C84.4443 4.21724 84.3901 3.91278 84.2846 3.61736C84.1791 3.32496 84.0012 3.07476 83.754 2.86676C83.5038 2.65876 83.2265 2.55627 82.9039 2.55627C82.6236 2.55627 82.3432 2.66479 82.1352 2.85772C81.9061 3.07174 81.7795 3.34003 81.7795 3.61133C81.7795 3.94895 81.873 4.24739 82.0418 4.44936C82.2227 4.66037 82.5 4.76889 82.8497 4.76889C83.1813 4.76889 83.3471 4.65434 83.4676 4.56692C83.534 4.5217 83.5792 4.48854 83.6274 4.48854C83.751 4.48854 83.7691 4.6242 83.7691 4.70559C83.7691 5.04321 83.6123 5.30848 83.2747 5.54662C83.0185 5.72749 82.6929 5.8752 82.3312 5.97468C82.1141 6.03497 81.885 6.0832 81.665 6.12842C81.5384 6.15253 81.4208 6.17665 81.3063 6.20378C81.0892 6.25502 80.8692 6.31833 80.6551 6.38465C80.4833 6.43589 80.3115 6.48412 80.1397 6.53236C79.8895 6.59867 79.6543 6.66499 79.4403 6.76146C79.0936 6.92122 78.8193 7.10812 78.6264 7.3131C78.4003 7.55426 78.2797 7.85571 78.2797 8.22347C78.2797 8.58521 78.3732 8.76909 78.5329 8.76909C78.6897 8.76909 78.8163 8.63645 78.9459 8.50382C79.2353 8.20539 79.6272 8.04863 80.0824 8.04863C80.4652 8.04863 80.7878 8.1451 81.0802 8.33501C81.3545 8.50985 81.5685 8.78115 81.7343 9.15796C81.9001 9.52874 81.9785 9.84827 81.9785 10.1768C81.9785 10.4662 81.9272 10.7888 81.8127 11.1837C81.7162 11.5303 81.5926 11.8408 81.4359 12.1332C81.3213 12.3533 81.1405 12.6789 80.9023 13.0105C80.7124 13.2697 80.4652 13.532 80.2331 13.7912C80.01 14.0384 79.7538 14.2886 79.5127 14.5237C79.2715 14.7558 79.0394 14.9578 78.759 15.1839C78.5088 15.3859 78.1893 15.5456 78.0325 15.5456C77.8637 15.5456 77.5744 15.413 77.285 15.1839C77.0076 14.9638 76.7996 14.7679 76.5344 14.5207C76.2902 14.2886 76.0731 14.0565 75.8621 13.8304C75.7868 13.749 75.6993 13.6555 75.624 13.5772C75.4371 13.3812 75.2622 13.1973 75.1145 13.0044C74.9096 12.7391 74.7196 12.4558 74.5388 12.1393C74.3639 11.8348 74.2253 11.5273 74.1198 11.1957C74.0052 10.843 73.951 10.5115 73.951 10.1829C73.951 9.81511 74.0233 9.48654 74.165 9.16399C74.3187 8.81732 74.5418 8.54602 74.8312 8.35912C75.1115 8.17826 75.422 8.08782 75.8199 8.08782C76.1244 8.08782 76.3384 8.12098 76.5374 8.19936C76.7273 8.27472 76.9473 8.38023 77.1433 8.6033C77.2458 8.72086 77.3302 8.78718 77.4477 8.78718C77.6135 8.78718 77.7402 8.58521 77.7402 8.29582C77.7402 7.79542 77.4025 7.37641 77.083 7.02974C76.8991 6.8338 76.7002 6.63786 76.4891 6.42986C76.3806 6.32436 76.2691 6.21584 76.1606 6.11033C75.8139 5.76367 75.5908 5.47126 75.4461 5.17283C75.3346 4.9377 75.2743 4.67846 75.217 4.42826C75.1567 4.166 75.1266 3.90675 75.1266 3.65957C75.1266 3.30386 75.1778 2.93308 75.2803 2.60752C75.3858 2.26387 75.5426 1.95338 75.7476 1.6881C75.9707 1.3957 76.2269 1.1666 76.5133 1.00382C76.8177 0.828979 77.1584 0.74156 77.499 0.74156C77.8034 0.74156 78.1863 0.756632 78.5179 0.889269C78.8585 1.02191 79.1389 1.24196 79.3288 1.52231C79.5006 1.77251 79.594 2.12822 79.594 2.5412C79.594 2.99035 79.3137 3.50884 78.955 3.50884C78.7018 3.50884 78.5872 3.126 78.4546 2.97227C78.3008 2.7914 78.1139 2.68288 77.7733 2.68288C77.4508 2.68288 77.2156 2.8125 76.9986 3.08682C76.8237 3.30687 76.7333 3.59928 76.7333 3.95197C76.7333 4.40715 76.8991 4.73272 77.1885 5.01005C77.4749 5.28437 77.8185 5.42303 78.2858 5.42303C78.7319 5.42303 79.0424 5.37178 79.3197 5.25724C79.6513 5.12158 79.9558 4.9166 80.203 4.66338C80.417 4.44031 80.5918 4.16298 80.7426 3.77412C80.8722 3.43047 80.9385 3.12299 80.9385 2.77934C80.9385 2.36937 80.8812 2.05888 80.7727 1.78155C80.6461 1.45297 80.4652 1.17564 80.218 0.9375C80.0161 0.744574 79.7387 0.548633 79.3438 0.385852C79.0786 0.277331 78.7711 0.162781 78.3762 0.102492C78.0717 0.0482315 77.7281 0 77.3603 0C76.9926 0 76.6549 0.0602894 76.3324 0.117564C75.9104 0.192926 75.6029 0.274317 75.3346 0.385852C74.994 0.527532 74.6895 0.696342 74.4303 0.892283C74.1439 1.10932 73.8967 1.35651 73.6947 1.6248C73.4897 1.90213 73.327 2.20961 73.2124 2.54421C73.0918 2.89992 73.0285 3.2707 73.0285 3.59626C73.0285 3.958 73.0918 4.31069 73.2215 4.67544C73.333 4.99196 73.5108 5.29039 73.7791 5.61294C74.0293 5.91138 74.2856 6.15856 74.5659 6.36957C74.8071 6.54743 75.0874 6.71624 75.3647 6.87902C75.0814 6.8549 74.8041 6.85792 74.5539 6.88806C74.1951 6.93027 73.8937 6.9996 73.6254 7.10209C73.3511 7.2076 73.0798 7.36435 72.7964 7.57235C72.5402 7.76527 72.3141 7.99136 72.1302 8.24759C71.9644 8.47066 71.8348 8.74196 71.7172 9.10068C71.6389 9.34486 71.5454 9.67343 71.5454 10.0322C71.5454 10.3426 71.5846 10.6712 71.663 11.0058C71.7353 11.3133 71.8438 11.6238 71.9825 11.9313C72.1121 12.2146 72.2809 12.4799 72.4769 12.7723C72.6547 13.0436 72.8235 13.3179 73.0406 13.5681C73.2245 13.7822 73.4385 13.9781 73.6435 14.168C73.8997 14.4031 74.2042 14.6684 74.4815 14.8764C74.7528 15.0814 75.0422 15.2864 75.3406 15.4672C75.6119 15.633 75.8712 15.7868 76.1334 15.9104C76.453 16.0551 76.7846 16.1606 77.0559 16.254C77.3875 16.3686 77.716 16.4409 78.0235 16.4409C78.3461 16.4409 78.6686 16.3505 78.9821 16.2631C79.2866 16.1756 79.591 16.04 79.8865 15.9013C80.1668 15.7717 80.4441 15.6029 80.7275 15.425C81.0139 15.2472 81.2791 15.0633 81.5203 14.8764C81.7705 14.6835 82.0297 14.4875 82.2649 14.2615C82.5181 14.0203 82.7321 13.74 82.9552 13.4747C83.1391 13.2516 83.335 13.0195 83.4918 12.7693C83.6666 12.492 83.7902 12.1935 83.9198 11.9011C84.0374 11.6268 84.173 11.3133 84.2454 10.9938C84.3207 10.6561 84.3328 10.3155 84.3328 10.0291C84.3328 9.63123 84.2544 9.24538 84.1067 8.88364C83.956 8.50683 83.7209 8.19031 83.4194 7.94916Z" fill="white"/>
<path d="M124.208 4.32578C124.504 4.38305 124.54 4.50966 124.54 4.71766V6.00182C124.54 6.31532 124.371 6.44796 124.073 6.39973C123.856 6.36356 123.669 6.34848 123.464 6.34848C121.926 6.34848 120.935 7.41259 120.956 8.96806V15.2351C120.956 15.4582 120.775 15.6361 120.555 15.6361H119.243C119.02 15.6361 118.842 15.4552 118.842 15.2351V4.90455C118.842 4.68148 119.023 4.50363 119.243 4.50363H120.244C120.452 4.50363 120.621 4.65134 120.645 4.87139L120.736 5.68229C121.492 4.60009 122.71 4.27151 123.464 4.27151C123.756 4.27151 123.991 4.28056 124.208 4.32578ZM117.233 4.32578C117.016 4.28357 116.784 4.27151 116.488 4.27151C115.735 4.27151 114.517 4.60009 113.76 5.68229L113.67 4.87139C113.646 4.65134 113.477 4.50363 113.269 4.50363H112.268C112.045 4.50363 111.867 4.6845 111.867 4.90455V15.2321C111.867 15.4552 112.048 15.633 112.268 15.633H113.579C113.802 15.633 113.98 15.4522 113.98 15.2321V8.96504C113.959 7.41259 114.951 6.34547 116.488 6.34547C116.69 6.34547 116.88 6.36054 117.097 6.39672C117.396 6.44495 117.567 6.31532 117.564 5.99881V4.71464C117.564 4.50966 117.528 4.38305 117.233 4.32578ZM132.534 8.99217C132.335 7.0388 131.069 6.32738 129.897 6.32738C128.398 6.32738 127.187 7.40053 126.828 8.99217H132.534ZM129.918 4.27151C133.188 4.27151 134.653 7.08401 134.653 9.87541C134.653 10.1407 134.632 10.3818 134.614 10.6049C134.596 10.8129 134.421 10.9727 134.213 10.9727H126.81C127.12 12.7211 128.257 13.7912 130.231 13.7912C131.573 13.7912 132.697 13.3029 133.613 12.6337C133.803 12.495 134.035 12.5794 134.035 12.8417V14.4996C134.035 14.6232 133.987 14.7498 133.882 14.8161C132.694 15.5547 131.485 15.8501 130.047 15.8501C126.713 15.8501 124.603 13.6375 124.603 10.1316C124.606 6.87903 126.629 4.27151 129.918 4.27151ZM141.725 13.755C141.342 13.8183 141.08 13.8455 140.848 13.8455C139.555 13.8455 138.898 13.1582 138.898 11.7986V6.48112H141.52C141.743 6.48112 141.921 6.30025 141.921 6.0802V4.90455C141.921 4.68148 141.743 4.50363 141.52 4.50363H138.898V2.15234C138.898 1.92927 138.717 1.75142 138.497 1.75142H137.243C137.023 1.75142 136.842 1.92927 136.842 2.15234V4.50363H135.606C135.383 4.50363 135.205 4.6845 135.205 4.90455V6.0802C135.205 6.30327 135.386 6.48112 135.606 6.48112H136.785V11.8408C136.785 14.2735 138.319 15.8441 140.691 15.8441C141.183 15.8441 141.563 15.8109 141.87 15.7386C142.081 15.6903 142.193 15.5366 142.193 15.3437V14.1499C142.196 13.8214 142.069 13.6978 141.725 13.755ZM149.53 13.755C149.147 13.8183 148.885 13.8455 148.653 13.8455C147.359 13.8455 146.702 13.1582 146.702 11.7986V6.48112H149.325C149.548 6.48112 149.726 6.30025 149.726 6.0802V4.90455C149.726 4.68148 149.545 4.50363 149.325 4.50363H146.702V2.15234C146.702 1.92927 146.521 1.75142 146.301 1.75142H145.047C144.827 1.75142 144.646 1.92927 144.646 2.15234V4.50363H143.41C143.187 4.50363 143.009 4.6845 143.009 4.90455V6.0802C143.009 6.30327 143.19 6.48112 143.41 6.48112H144.589V11.8408C144.589 14.2735 146.123 15.8441 148.499 15.8441C148.99 15.8441 149.37 15.8109 149.674 15.7386C149.885 15.6903 149.997 15.5366 149.997 15.3437V14.1499C150 13.8214 149.873 13.6978 149.53 13.755ZM92.7884 13.541C94.368 13.5681 95.1608 12.4498 95.1608 11.2922C95.1608 10.1347 94.359 9.03438 92.7945 9.04041H88.8847V13.541H92.7884ZM88.8847 6.88506H92.4026C93.8978 6.89109 94.5519 5.85713 94.5519 4.77795C94.5519 3.71384 93.8767 2.68892 92.4056 2.69796H88.8877V6.88506H88.8847ZM95.2814 7.80749C96.3515 8.24157 97.4307 9.36295 97.4307 11.3073C97.4307 13.8244 95.8421 15.633 92.7101 15.633H86.9916C86.8138 15.633 86.6691 15.4884 86.6691 15.3105V0.922439C86.6691 0.744585 86.8138 0.602905 86.9916 0.602905H92.5804C95.1156 0.602905 96.8218 2.23976 96.8218 4.66641C96.8188 5.77272 96.2852 7.12622 95.2814 7.80749ZM104.017 13.7882C105.85 13.7882 107.18 12.2146 107.18 10.0472C107.18 7.90094 105.85 6.34547 104.017 6.34547C102.145 6.34547 100.837 7.87381 100.837 10.0683C100.834 12.2237 102.172 13.7882 104.017 13.7882ZM108.853 4.50363C109.076 4.50363 109.253 4.6845 109.253 4.90455V15.2321C109.253 15.4522 109.073 15.633 108.853 15.633H107.692C107.487 15.633 107.315 15.4793 107.294 15.2713L107.216 14.5087C106.348 15.3587 105.16 15.8441 103.864 15.8441C100.798 15.8441 98.7239 13.128 98.7239 10.0683C98.7239 6.30327 101.374 4.27151 103.864 4.27151C105.184 4.27151 106.351 4.76589 107.216 5.61295L107.294 4.86235C107.315 4.65737 107.487 4.50061 107.692 4.50061H108.853" fill="white"/>
<path d="M10.9395 0.602905C11.1626 0.602905 11.3404 0.783773 11.3404 1.00383V15.2321C11.3404 15.4522 11.1596 15.633 10.9395 15.633H9.62822C9.40514 15.633 9.22729 15.4522 9.22729 15.2321V9.05548H2.11314V15.2321C2.11314 15.4522 1.93227 15.633 1.71222 15.633H0.400924C0.180868 15.633 0 15.4522 0 15.2321V1.00383C0 0.783773 0.180868 0.602905 0.400924 0.602905H1.71222C1.93529 0.602905 2.11314 0.783773 2.11314 1.00383V6.97851H9.22729V1.00383C9.22729 0.780759 9.40816 0.602905 9.62822 0.602905H10.9395ZM18.7018 13.7882C20.3507 13.7882 22.0177 12.5101 22.0177 10.0653C22.0177 7.62059 20.3507 6.34246 18.7018 6.34246C17.0438 6.34246 15.3678 7.62059 15.3678 10.0653C15.3678 12.5101 17.0438 13.7882 18.7018 13.7882ZM18.7018 4.27151C21.7976 4.27151 24.1308 6.76448 24.1308 10.0683C24.1308 13.3632 21.7976 15.8441 18.7018 15.8441C15.5969 15.8441 13.2516 13.3601 13.2516 10.0683C13.2516 6.76448 15.5969 4.27151 18.7018 4.27151ZM27.7361 0.602905H26.4248C26.2018 0.602905 26.0239 0.783773 26.0239 1.00383V15.2321C26.0239 15.4522 26.2048 15.633 26.4248 15.633H27.7361C27.9592 15.633 28.1371 15.4522 28.1371 15.2321V1.00383C28.1401 0.783773 27.9592 0.602905 27.7361 0.602905ZM32.4779 0.602905H31.1666C30.9435 0.602905 30.7657 0.783773 30.7657 1.00383V15.2321C30.7657 15.4522 30.9465 15.633 31.1666 15.633H32.4779C32.701 15.633 32.8788 15.4522 32.8788 15.2321V1.00383C32.8788 0.783773 32.6979 0.602905 32.4779 0.602905ZM52.7562 4.27151C51.5113 4.27151 50.4924 4.84125 49.793 5.52553L49.7176 4.86235C49.6965 4.66038 49.5247 4.50363 49.3197 4.50363H48.3159C48.0928 4.50363 47.915 4.6845 47.915 4.90455V15.2321C47.915 15.4552 48.0959 15.633 48.3159 15.633H49.6272C49.8503 15.633 50.0281 15.4522 50.0281 15.2321V8.91078C50.0281 7.49398 51.1314 6.38466 52.5422 6.38466C54.1067 6.38466 54.8633 7.24981 54.8633 9.02533V15.2291C54.8633 15.4522 55.0442 15.63 55.2643 15.63H56.5756C56.7986 15.63 56.9765 15.4492 56.9765 15.2291V8.42847C56.9795 5.98072 55.2432 4.27151 52.7562 4.27151ZM64.0635 13.7882C65.8963 13.7882 67.2257 12.2146 67.2257 10.0472C67.2257 7.90094 65.8963 6.34547 64.0635 6.34547C62.1885 6.34547 60.8832 7.87381 60.8832 10.0683C60.8832 12.2237 62.2217 13.7882 64.0635 13.7882ZM68.9017 0.602905C69.1248 0.602905 69.3027 0.783773 69.3027 1.00383V15.2321C69.3027 15.4522 69.1218 15.633 68.9017 15.633H67.8617C67.6568 15.633 67.4849 15.4793 67.4608 15.2743L67.3734 14.4122C66.4962 15.3256 65.2633 15.8471 63.9128 15.8471C62.5834 15.8471 61.2781 15.2713 60.3346 14.2705C59.3278 13.2034 58.7731 11.7112 58.7731 10.0714C58.7731 6.30628 61.4228 4.27453 63.9158 4.27453C65.1728 4.27453 66.3485 4.73574 67.1925 5.52553V1.00383C67.1925 0.780759 67.3734 0.602905 67.5934 0.602905H68.9017ZM40.0653 13.7882C41.8981 13.7882 43.2275 12.2146 43.2275 10.0472C43.2275 7.90094 41.8981 6.34547 40.0653 6.34547C38.1933 6.34547 36.885 7.87381 36.885 10.0683C36.882 12.2237 38.2205 13.7882 40.0653 13.7882ZM44.9005 4.50363C45.1236 4.50363 45.3014 4.6845 45.3014 4.90455V15.2321C45.3014 15.4522 45.1206 15.633 44.9005 15.633H43.74C43.535 15.633 43.3631 15.4793 43.342 15.2713L43.2637 14.5087C42.3955 15.3587 41.2078 15.8441 39.9116 15.8441C36.8459 15.8441 34.7719 13.128 34.7719 10.0683C34.7719 6.30327 37.4186 4.27151 39.9116 4.27151C41.2319 4.27151 42.3985 4.76589 43.2637 5.61295L43.342 4.86235C43.3631 4.65737 43.535 4.50061 43.74 4.50061H44.9005" fill="white"/>
</svg>
