<svg width="1638" height="299" viewBox="0 0 1638 299" fill="none" xmlns="http://www.w3.org/2000/svg">
<mask id="mask0_7_238" style="mask-type:alpha" maskUnits="userSpaceOnUse" x="0" y="0" width="1634" height="299">
<rect width="1634" height="299" fill="#191919"/>
</mask>
<g mask="url(#mask0_7_238)">
<path d="M190.456 -16.7735C194.392 -17.5678 198.284 -18.643 202.247 -19.2436C206.209 -19.8441 210.225 -19.9603 214.206 -20.3865C218.186 -20.8031 222.149 -21.5296 226.147 -21.7911C230.136 -22.0429 234.152 -21.8298 238.15 -21.9364C250.616 -22.256 262.832 -21.8686 274.756 -20.0572C286.964 -18.2071 298.816 -14.904 310.455 -10.9908C322.112 -7.07745 333.618 -2.53452 344.698 3.25793C355.617 8.97289 366.083 15.8889 376.443 23.2603C387.54 31.1547 399.073 37.1312 410.668 42.1681C422.698 47.3988 434.879 51.6123 447.371 54.3729C459.863 57.1432 472.613 58.4412 485.496 59.3615C498.139 60.272 510.951 60.8241 523.896 60.5529C532.897 60.3591 541.888 59.7198 550.889 59.5648C559.898 59.4098 568.898 59.7198 577.899 59.8845C586.899 60.0491 595.908 60.0492 604.891 60.8241C613.838 61.599 622.732 63.1294 631.643 64.7858C635.659 65.5316 639.728 65.9772 643.709 66.8878C647.698 67.7983 651.581 69.1737 655.525 70.2683C659.47 71.3629 663.486 72.1862 667.378 73.4938C671.261 74.8015 675.001 76.5838 678.831 78.1142C689.857 82.5409 699.603 87.8684 707.937 94.5908C716.991 101.894 724.33 110.719 730.718 120.289C737.08 129.81 742.553 140.165 746.8 151.489C750.833 162.241 753.686 173.825 756.262 185.807C757.577 191.91 759.194 197.935 760.545 204.018C761.895 210.12 762.988 216.291 764.632 222.286C766.275 228.292 768.461 234.094 770.656 239.896C772.823 245.65 775 251.452 777.95 256.925C781.62 263.734 785.786 268.965 789.865 273.082C795.142 278.419 800.598 281.829 806.47 282.652C812.334 283.466 818.403 281.674 824.764 277.983C829.678 275.135 834.929 271.241 840.082 265.701C840.233 265.536 840.126 265.1 840.277 264.926C840.428 264.761 840.828 264.858 840.979 264.684C841.121 264.509 841.015 264.074 841.157 263.909C841.308 263.734 841.708 263.831 841.859 263.667C845.351 259.637 848.265 255.143 851.215 250.735C854.191 246.289 857.221 241.901 859.815 237.194C862.401 232.486 864.524 227.488 866.888 222.635C869.251 217.792 871.863 213.084 874.182 208.202C876.332 203.669 878.136 198.942 880.304 194.428C882.472 189.905 884.986 185.585 887.305 181.158C889.624 176.722 891.747 172.159 894.359 167.917C896.954 163.693 900.01 159.829 903.04 155.886C906.763 151.033 910.477 146.597 914.661 143.158C919.193 139.448 924.168 136.911 929.259 134.896C934.35 132.881 939.654 131.351 945.323 131.07C950.547 130.818 955.985 131.69 961.698 132.949C968.175 134.373 974.492 136.019 980.507 138.499C986.611 141.008 992.359 144.34 998.117 147.624C1003.87 150.898 1009.66 154.143 1015.2 157.872C1020.73 161.592 1026 165.776 1031.46 169.631C1038.09 174.3 1044.83 178.794 1051.4 183.57C1057.97 188.355 1064.36 193.44 1071.05 197.993C1077.75 202.555 1084.74 206.575 1091.74 210.556C1098.7 214.518 1105.72 218.47 1113.17 221.531C1121.83 225.095 1130.01 227.081 1137.66 228.224C1146.57 229.541 1154.9 229.58 1162.82 227.507C1170.75 225.425 1178.14 221.26 1185.5 215.642C1191.82 210.818 1198.25 204.957 1204.43 197.431C1209.94 190.738 1214.86 183.57 1219.84 176.46C1224.83 169.341 1229.88 162.27 1234.49 154.85C1239.1 147.44 1243.25 139.7 1247.63 132.116C1252 124.531 1256.6 117.102 1260.9 109.469C1264.6 102.902 1267.91 96.0727 1271.57 89.4763C1275.22 82.8701 1279.22 76.4966 1283.06 70.0357C1286.91 63.5652 1290.61 56.9785 1294.87 50.8179C1299.11 44.6864 1303.88 39.0005 1308.76 33.3437C1314.3 26.9119 1319.79 21.4585 1325.66 17.6033C1332.39 13.1766 1339.45 10.8034 1346.59 9.767C1353.73 8.73053 1361.12 9.03082 1368.67 11.4137C1375.24 13.4866 1381.84 17.2158 1388.71 21.8847C1391.09 23.4926 1393.6 24.8584 1395.87 26.6116C1398.14 28.3649 1400.16 30.5056 1402.35 32.375C1404.55 34.2445 1406.93 35.8718 1409.05 37.8381C1411.17 39.7947 1413.04 42.0905 1415.12 44.1149C1420 48.8612 1425 53.4623 1429.72 58.3926C1434.43 63.323 1438.87 68.5827 1443.59 73.5131C1448.31 78.4435 1453.31 83.0348 1458.2 87.7715C1463.08 92.4984 1467.86 97.3803 1473.07 101.72C1477.8 105.653 1482.83 108.81 1487.8 111.736C1492.99 114.796 1498.18 117.596 1503.68 119.291C1509.22 120.996 1514.97 121.567 1520.87 121.635C1526.42 121.703 1532.18 121.364 1538.1 119.746C1543.15 118.371 1547.67 116.036 1551.98 113.566C1556.46 111.009 1560.78 108.239 1564.61 104.752C1568.42 101.274 1571.69 97.1091 1574.99 92.9439C1578.23 88.8563 1581.54 84.7396 1584.44 80.216C1588.76 73.4646 1592.36 66.2967 1595.99 59.1675C1599.62 52.0093 1603.28 44.8704 1606.45 37.4506C1609.6 30.0406 1612.26 22.3786 1615.16 14.8329C1618.07 7.29689 1621.24 -0.122877 1624.12 -7.67827C1626.86 -14.8656 1629.21 -22.2369 1631.95 -29.4339C1634.68 -36.6308 1637.8 -43.6535 1640.76 -50.7343C1643.73 -57.8247 1646.54 -64.9829 1649.97 -71.8215C1653.38 -78.6213 1657.4 -85.0628 1661.51 -91.4946C1664.87 -96.7349 1668.21 -101.607 1672.1 -105.559C1676.32 -109.831 1681.07 -112.989 1685.99 -115.585C1690.93 -118.19 1696.14 -120.292 1701.86 -121.048C1707.07 -121.735 1712.6 -121.251 1718.52 -120.283C1720.82 -119.905 1723.17 -119.837 1725.43 -119.314C1727.71 -118.781 1729.87 -117.803 1732.11 -117.134C1734.35 -116.466 1736.67 -116.088 1738.87 -115.284C1741.07 -114.48 1743.12 -113.24 1745.29 -112.311C1752.8 -109.075 1760.24 -105.772 1767.39 -101.83C1774.57 -97.8683 1781.42 -93.2769 1788.37 -88.8696C1795.31 -84.4623 1802.36 -80.2293 1809.21 -75.638C1816.06 -71.0466 1822.69 -66.0872 1829.58 -61.5637C1835.2 -57.8635 1841 -54.4539 1846.64 -50.7924C1852.29 -47.1213 1857.81 -43.1983 1863.6 -39.8274C1869.4 -36.4566 1875.45 -33.6572 1881.51 -30.8578C1885.91 -28.8237 1890.37 -26.7895 1894.95 -25.075L1894.95 -58.4349C1888.13 -59.917 1881.4 -61.6315 1874.84 -63.8593C1866.59 -66.6781 1858.6 -70.3105 1850.59 -73.8654C1842.6 -77.4106 1834.55 -80.8686 1826.67 -84.7819C1818.81 -88.6855 1811.13 -93.0444 1803.27 -96.9577C1797.88 -99.6409 1792.36 -102.053 1787 -104.813C1781.65 -107.574 1776.44 -110.703 1771.06 -113.405C1765.67 -116.117 1760.12 -118.413 1754.65 -120.932C1749.2 -123.45 1743.82 -126.211 1738.23 -128.409C1728.55 -132.226 1719.76 -134.328 1711.84 -135.413C1701.76 -136.788 1692.92 -136.265 1684.98 -132.923C1677.04 -129.581 1670.16 -123.489 1663.56 -115.091C1658.36 -108.475 1653.17 -100.464 1648.37 -90.5356C1645.22 -84.007 1642.68 -77.1781 1640.01 -70.4267C1637.35 -63.6655 1634.54 -56.9626 1632.18 -50.0755C1629.81 -43.1885 1627.88 -36.1175 1625.62 -29.1821C1623.36 -22.2466 1620.78 -15.4371 1618.43 -8.54036C1616.03 -1.44993 1613.97 5.78585 1611.47 12.8182C1608.96 19.8699 1606.01 26.7181 1603.13 33.5761C1600.25 40.4437 1597.43 47.3598 1593.91 53.8787C1590.42 60.3395 1586.26 66.3742 1581.88 72.341C1576.22 80.0513 1570.15 86.5897 1563.38 91.336C1555.99 96.5182 1547.92 99.5598 1539.68 101.129C1531.45 102.688 1522.92 102.805 1514.35 100.664C1506.5 98.7074 1498.74 94.8134 1491.01 89.6797C1488.53 88.033 1485.92 86.6188 1483.56 84.8074C1481.2 82.9864 1479.1 80.7585 1476.85 78.7728C1474.6 76.7871 1472.18 75.0144 1470.05 72.8834C1467.91 70.7524 1466.08 68.2727 1464.07 66.0061C1460.02 61.4826 1455.75 57.2206 1451.74 52.668C1447.74 48.1153 1443.99 43.2819 1440.01 38.7196C1436.01 34.1573 1431.76 29.8566 1427.76 25.2943C1423.76 20.732 1420.01 15.9178 1415.99 11.3749C1413.97 9.09859 1411.66 7.16137 1409.56 5.01098C1407.44 2.85092 1405.52 0.458338 1403.31 -1.57581C1401.1 -3.60993 1398.61 -5.26627 1396.29 -7.15513C1393.97 -9.03428 1391.81 -11.1653 1389.38 -12.8992C1382.97 -17.4518 1376.53 -20.4836 1370.35 -22.6824C1363.28 -25.1912 1356.41 -26.5376 1349.59 -25.9564C1342.78 -25.3752 1336.17 -22.8762 1329.57 -19.1759C1323.78 -15.9407 1317.87 -11.824 1312.23 -6.17681C1307.06 -1.00429 1302.49 4.73979 1297.95 10.4451C1293.37 16.1794 1288.79 21.9137 1284.66 28.0355C1280.54 34.1476 1276.9 40.6375 1273.05 46.9821C1269.2 53.3073 1265.15 59.4969 1261.39 65.8996C1256 75.0726 1250.95 84.5072 1245.55 93.6802C1240.14 102.853 1234.37 111.765 1228.71 120.754C1223.05 129.743 1217.49 138.828 1211.35 147.44C1205.23 156.031 1198.54 164.139 1191.72 172.159C1185.8 179.124 1180.15 185.071 1174.16 189.469C1167.18 194.603 1159.92 197.673 1152.45 199.456C1145.01 201.238 1137.24 201.78 1128.88 200.395C1121.73 199.213 1114.27 196.521 1106.17 193.121C1101.57 191.193 1096.96 189.372 1092.6 187.009C1088.21 184.626 1084.1 181.72 1079.88 179.008C1075.66 176.305 1071.33 173.787 1067.23 170.861C1063.15 167.946 1059.29 164.623 1055.26 161.591C1049.87 157.562 1044.33 153.755 1039 149.639C1033.66 145.522 1028.52 141.085 1023.11 137.085C1017.7 133.075 1012.04 129.501 1006.46 125.791C1000.89 122.09 995.363 118.255 989.499 115.048C986.682 113.508 983.679 112.404 980.8 111.058C977.904 109.702 975.105 108.103 972.129 106.999C969.152 105.895 966.043 105.314 962.977 104.51C959.939 103.725 956.909 102.718 953.764 102.282C948.122 101.507 942.871 101.962 937.957 102.805C932.556 103.725 927.473 105.207 922.862 107.871C918.278 110.525 914.27 114.293 910.379 118.458C906.763 122.323 903.147 126.556 900.046 131.544C897.043 136.368 894.635 141.56 892.112 146.645C889.579 151.75 886.905 156.777 884.639 162.027C882.374 167.277 880.526 172.731 878.331 178.02C876.137 183.308 873.604 188.423 871.277 193.634C869.491 197.635 868.007 201.79 866.106 205.713C864.195 209.646 861.876 213.327 859.7 217.065C857.514 220.814 855.453 224.66 852.841 228.089C850.273 231.469 847.199 234.394 844.071 237.358C841.885 239.431 839.842 241.669 837.496 243.393C835.088 245.156 832.423 246.347 829.811 247.558C827.181 248.779 824.542 250.038 821.672 250.493C818.945 250.929 816.093 250.59 813.107 250.164C809.527 249.65 806.284 248.934 803.494 247.394C800.455 245.718 798.048 243.19 795.738 240.603C793.454 238.046 791.188 235.363 789.385 232.225C787.643 229.193 786.4 225.774 784.916 222.48C782.464 217.036 780.082 211.622 778.359 205.975C776.617 200.269 775.551 194.37 774.405 188.5C773.259 182.64 772.033 176.78 771.349 170.813C770.673 164.866 770.54 158.85 770.185 152.854C769.429 140.223 767.146 128.648 764.01 117.964C760.571 106.234 756.004 95.511 749.687 86.1152C743.361 76.7194 735.338 68.7572 726.107 61.6765C717.693 55.2253 708.231 49.3941 697.4 44.8609C690.976 42.1777 684.375 40.1049 677.844 37.9157C671.287 35.7072 664.766 33.3728 658.102 31.6293C651.439 29.8857 644.65 28.7427 637.898 27.4351C631.163 26.1274 624.428 24.6358 617.614 23.7155C608.942 22.5532 600.226 22.2335 591.528 21.7976C582.821 21.3617 574.113 20.8193 565.397 20.7612C556.681 20.703 547.956 21.1196 539.24 21.0711C530.524 21.013 521.808 20.4803 513.101 20.0638C503.941 19.6279 494.914 19.1048 486.109 17.6035C477.109 16.0633 468.393 13.5255 459.81 10.6195C451.227 7.70396 442.724 4.40092 434.612 -0.132313C426.749 -4.52993 419.313 -10.0802 411.947 -16.2408C405.914 -21.2874 399.535 -25.7529 393.209 -30.257C386.856 -34.7806 380.53 -39.3525 373.867 -43.2658C367.212 -47.1791 360.237 -50.424 353.254 -53.6787C346.323 -56.9042 339.358 -60.1686 332.09 -62.687C320.3 -66.7843 308.394 -69.2931 296.542 -71.2014C284.467 -73.1386 272.393 -74.4463 260.273 -74.5625C248.172 -74.6884 236.053 -73.6326 223.908 -72.4122C212.322 -71.2498 200.674 -69.9227 189.061 -67.9758L189.061 -16.8123C189.497 -16.7541 189.968 -16.7154 190.465 -16.8123" fill="#303D78"/>
<path d="M191.417 -299.936C205.215 -301.166 218.968 -302.202 232.713 -302.309C246.52 -302.406 260.292 -301.573 274.037 -300.604C287.782 -299.635 301.535 -298.541 315.227 -296.584C328.856 -294.628 342.406 -291.819 355.982 -288.951C376.133 -284.699 396.133 -279.991 415.866 -274.267C435.653 -268.532 455.164 -261.781 474.639 -254.962C494.115 -248.143 513.582 -241.246 532.862 -233.729C552.124 -226.222 571.191 -218.095 590.365 -210.269C601.195 -205.852 612.088 -201.58 622.857 -196.95C633.625 -192.32 644.269 -187.331 655.109 -182.924C665.957 -178.517 676.992 -174.7 688.045 -170.962C699.08 -167.232 710.15 -163.571 721.514 -160.936C728.053 -159.425 734.433 -157.885 740.439 -155.512C746.658 -153.051 752.433 -149.758 758.066 -146.271C763.717 -142.774 769.27 -139.045 774.308 -134.405C779.177 -129.92 783.495 -124.602 787.777 -118.955C789.003 -117.338 790.523 -115.982 791.784 -114.393C793.046 -112.795 794.041 -110.964 795.321 -109.385C796.591 -107.806 798.146 -106.489 799.416 -104.91C800.687 -103.331 801.7 -101.5 802.953 -99.9021C807.208 -94.5456 811.669 -89.3731 815.916 -84.0068C820.163 -78.6309 824.196 -73.0418 828.657 -67.8886C833.117 -62.7258 837.986 -58.0182 842.864 -53.3203C847.706 -48.6612 852.592 -43.973 858.065 -40.0112C863.876 -35.7977 869.731 -32.9499 875.347 -30.7898C881.735 -28.3294 887.972 -26.8183 894.218 -27.0121C900.473 -27.2058 906.621 -29.0947 912.867 -31.9425C918.367 -34.4513 924.071 -37.6477 929.651 -42.2197C930.904 -43.2465 931.925 -44.6123 933.151 -45.6875C934.378 -46.7627 935.808 -47.557 937.007 -48.6709C938.207 -49.7751 939.158 -51.199 940.339 -52.3323C941.521 -53.4656 942.934 -54.3181 944.098 -55.4611C948.14 -59.4034 951.819 -63.7816 955.737 -67.8887C959.655 -71.9957 963.804 -75.8218 967.82 -79.8126C971.836 -83.8034 975.719 -87.9686 980.037 -91.5622C984.328 -95.1365 989.011 -98.1199 993.808 -101.036C999.273 -104.348 1004.64 -107.051 1010.09 -108.417C1016.01 -109.899 1021.92 -109.86 1027.67 -109.066C1033.43 -108.271 1039.15 -106.712 1044.55 -103.67C1049.53 -100.871 1054.11 -96.8026 1058.65 -92.124C1061.18 -89.5087 1063.81 -87.029 1066.06 -84.1812C1068.33 -81.314 1070.17 -78.0981 1072.23 -75.0469C1074.27 -72.0054 1076.53 -69.1092 1078.43 -65.9514C1080.33 -62.7936 1081.88 -59.3938 1083.71 -56.1876C1086.17 -51.8965 1088.86 -47.7507 1091.26 -43.4112C1093.66 -39.0717 1095.75 -34.5288 1098.23 -30.2571C1100.72 -25.9854 1103.59 -21.9849 1106.32 -17.8875C1109.04 -13.8096 1111.64 -9.59602 1114.76 -5.79895C1119.45 -0.0936716 1124.58 4.17803 1129.66 7.58764C1135.47 11.4913 1141.39 14.2422 1147.61 15.1333C1153.84 16.0148 1160.21 15.0074 1166.74 12.8473C1172.46 10.9585 1178.41 8.2463 1184.27 4.00366C1188.26 1.11711 1191.83 -2.33122 1195.44 -5.65365C1199.08 -8.99545 1202.8 -12.2404 1206.17 -15.8825C1209.53 -19.5246 1212.54 -23.5541 1215.77 -27.3706C1218.99 -31.1773 1222.42 -34.7613 1225.62 -38.6068C1231.94 -46.1912 1237.72 -54.2793 1243.68 -62.2028C1249.63 -70.1263 1255.74 -77.9142 1261.62 -85.9054C1267.49 -93.9064 1273.12 -102.111 1279.21 -109.908C1285.29 -117.706 1291.82 -125.068 1298.41 -132.39C1301.45 -135.771 1304.33 -139.336 1307.58 -142.416C1310.86 -145.525 1314.48 -148.131 1318.05 -150.765C1321.63 -153.4 1325.2 -156.093 1329.15 -158.079C1333.01 -160.016 1337.2 -161.236 1341.5 -162.389C1347.01 -163.861 1352.34 -164.869 1357.6 -164.811C1363.08 -164.753 1368.41 -163.581 1373.7 -162.263C1378.96 -160.956 1384.23 -159.512 1389.34 -157.372C1394.38 -155.27 1399.22 -152.519 1404.17 -150.01C1409.13 -147.501 1414.17 -145.167 1419.01 -142.416C1423.86 -139.665 1428.51 -136.497 1433.33 -133.708C1438.17 -130.918 1443.17 -128.497 1448.07 -125.862C1452.97 -123.227 1457.78 -120.379 1462.85 -118.103C1465.8 -116.776 1468.9 -115.914 1471.9 -114.819C1474.93 -113.715 1477.88 -112.378 1480.97 -111.603C1484.07 -110.829 1487.26 -110.635 1490.44 -110.305C1493.56 -109.976 1496.73 -109.492 1499.95 -109.686C1505.27 -110.005 1510.27 -111.352 1515.09 -112.843C1520.09 -114.393 1524.98 -116.146 1529.54 -118.704C1534.09 -121.251 1538.26 -124.574 1542.48 -127.867C1546.62 -131.102 1550.85 -134.337 1554.78 -138.047C1560.08 -143.055 1565.02 -148.47 1570.13 -153.691C1575.24 -158.902 1580.53 -163.929 1585.52 -169.286C1590.52 -174.642 1595.21 -180.328 1600.13 -185.753C1605.05 -191.177 1610.22 -196.35 1615.14 -201.784C1621.24 -208.526 1627.1 -215.519 1633.33 -222.096C1639.58 -228.693 1646.18 -234.853 1652.75 -241.014C1659.33 -247.184 1665.9 -253.373 1673.01 -258.827C1680.06 -264.232 1687.61 -268.891 1695.37 -273.337C1699.36 -275.613 1703.25 -277.967 1707.33 -279.624C1711.52 -281.328 1715.86 -282.316 1720.17 -283.285C1724.49 -284.263 1728.84 -285.232 1733.3 -285.377C1737.64 -285.523 1742.03 -284.874 1746.52 -284.167C1752.44 -283.227 1758.21 -282.113 1763.7 -280.156C1769.3 -278.161 1774.57 -275.342 1779.82 -272.523C1785.06 -269.705 1790.32 -266.886 1795.31 -263.476C1800.26 -260.096 1804.9 -256.173 1809.69 -252.444C1815.09 -248.23 1820.68 -244.288 1826.04 -240.006C1831.39 -235.725 1836.52 -231.104 1841.87 -226.794C1847.21 -222.493 1852.77 -218.502 1858.13 -214.221C1863.49 -209.94 1868.67 -205.377 1874.08 -201.183C1876.08 -199.633 1878.3 -198.413 1880.35 -196.921C1882.4 -195.439 1884.29 -193.676 1886.43 -192.349C1888.57 -191.022 1890.92 -190.141 1893.18 -189.066C1893.78 -188.785 1894.38 -188.475 1894.98 -188.174L1894.98 -196.505C1893.52 -197.309 1892.09 -198.151 1890.73 -199.12C1887.76 -201.212 1885.12 -203.799 1882.34 -206.172C1879.57 -208.545 1876.63 -210.724 1873.96 -213.243C1871.29 -215.752 1868.87 -218.599 1866.2 -221.108C1860.47 -226.503 1854.64 -231.773 1849.07 -237.381C1843.51 -242.98 1838.22 -248.908 1832.6 -254.449C1826.99 -259.989 1821.07 -265.142 1815.19 -270.363C1809.33 -275.565 1803.5 -280.844 1797.18 -285.455C1789.68 -290.908 1781.98 -294.87 1774.37 -297.979C1766.14 -301.36 1757.92 -303.723 1749.54 -304.305C1741.16 -304.886 1732.73 -303.675 1724.18 -301.408C1716.31 -299.326 1708.24 -296.391 1700.2 -291.858C1693.46 -288.06 1687.14 -283.595 1680.79 -279.217C1674.41 -274.819 1668 -270.489 1661.91 -265.656C1655.81 -260.832 1650.04 -255.524 1644.13 -250.429C1638.21 -245.343 1632.14 -240.471 1626.29 -235.279C1620.36 -230.02 1614.67 -224.421 1608.74 -219.181C1602.79 -213.93 1596.61 -209.019 1590.57 -203.915C1584.53 -198.8 1578.64 -193.483 1572.41 -188.639C1566.2 -183.806 1559.67 -179.457 1553.18 -175.011C1543.49 -168.366 1533.87 -162.534 1523.99 -158.35C1513.48 -153.904 1502.77 -151.298 1491.99 -149.932C1481.19 -148.567 1470.23 -148.441 1459.1 -150.475C1448.76 -152.373 1438.36 -156.171 1427.7 -161.266C1424.82 -162.641 1421.77 -163.571 1418.84 -164.791C1415.91 -166.022 1413.09 -167.552 1410.12 -168.695C1407.16 -169.838 1404.07 -170.574 1401.09 -171.698C1398.11 -172.812 1395.26 -174.294 1392.3 -175.446C1383.8 -178.74 1375.49 -180.396 1367.53 -181.181C1358.82 -182.043 1350.38 -181.801 1342.29 -179.699C1334.21 -177.606 1326.57 -173.713 1319.09 -168.743C1312.25 -164.2 1305.43 -158.766 1299.05 -151.86C1294.12 -146.523 1289.65 -140.74 1285.04 -135.122C1280.42 -129.485 1275.65 -123.992 1271.19 -118.21C1266.74 -112.417 1262.61 -106.334 1258.19 -100.522C1253.75 -94.7103 1249.03 -89.1794 1244.48 -83.4838C1240.76 -78.8344 1237.29 -73.9621 1233.45 -69.4676C1229.59 -64.9537 1225.37 -60.8467 1221.23 -56.6815C1217.08 -52.5164 1212.96 -48.2738 1208.37 -44.6705C1203.84 -41.1059 1198.86 -38.1999 1193.74 -35.3812C1187.4 -31.8844 1181.31 -29.0947 1175.26 -27.758C1168.5 -26.2566 1161.93 -26.4891 1155.57 -27.6805C1149.2 -28.8719 1142.93 -31.032 1137.01 -34.8872C1131.7 -38.3452 1126.81 -43.169 1121.88 -48.7581C1119.52 -51.4412 1117.03 -53.9694 1114.9 -56.8365C1112.77 -59.7134 1111.01 -62.9099 1109.04 -65.9127C1107.06 -68.9155 1104.85 -71.7536 1102.96 -74.8242C1101.07 -77.8948 1099.5 -81.2075 1097.62 -84.2877C1095.26 -88.1429 1092.63 -91.8044 1090.26 -95.6499C1087.88 -99.4954 1085.76 -103.535 1083.23 -107.254C1080.71 -110.983 1077.8 -114.383 1075.01 -117.88C1072.23 -121.358 1069.54 -124.961 1066.37 -128.109C1061 -133.446 1055.17 -137.253 1049.38 -140.178C1042.99 -143.423 1036.48 -145.554 1029.84 -145.845C1023.2 -146.135 1016.55 -144.566 1009.94 -141.893C1003.96 -139.481 997.878 -136.187 992.12 -131.344C989.481 -129.126 987.18 -126.482 984.728 -124.041C982.267 -121.6 979.646 -119.352 977.318 -116.766C974.99 -114.18 972.973 -111.274 970.708 -108.62C968.451 -105.966 965.945 -103.554 963.689 -100.9C962.596 -99.6116 961.77 -98.0618 960.677 -96.7735C959.584 -95.4852 958.233 -94.4681 957.132 -93.1895C956.03 -91.9109 955.177 -90.3708 954.058 -89.1213C952.938 -87.8717 951.552 -86.8933 950.406 -85.6729C943.955 -78.8052 937.807 -73.0515 931.437 -69.0316C923.849 -64.2466 916.137 -61.8347 908.363 -61.0598C900.597 -60.2848 892.61 -61.1276 884.338 -64.3241C877.399 -67.0072 870.389 -71.4338 862.89 -76.897C857.159 -81.0815 851.482 -85.2757 846.204 -90.0221C840.909 -94.7878 836.04 -100.067 831.029 -105.181C826.027 -110.286 820.865 -115.236 815.969 -120.476C811.073 -125.716 806.436 -131.247 801.469 -136.401C797.169 -140.866 792.549 -144.876 788.017 -148.896C783.415 -152.984 778.866 -157.1 773.89 -160.481C768.897 -163.871 763.53 -166.506 758.022 -168.937C752.673 -171.301 747.156 -173.528 741.194 -174.759C730.701 -176.919 720.261 -179.176 710.008 -182.178C699.719 -185.181 689.644 -188.92 679.524 -192.514C669.413 -196.107 659.249 -199.575 649.236 -203.517C639.231 -207.46 629.378 -211.867 619.4 -215.906C596.122 -225.312 572.701 -234.301 549.334 -243.396C525.949 -252.492 502.6 -261.704 479.011 -270.082C455.412 -278.461 431.574 -286.007 407.656 -293.271C383.774 -300.517 359.794 -307.481 335.485 -313.206C323.703 -315.976 311.824 -318.107 299.981 -320.335C288.11 -322.573 276.267 -324.917 264.335 -326.602C252.402 -328.288 240.399 -329.295 228.395 -330.409C216.419 -331.523 204.433 -332.743 192.385 -333.276C191.434 -333.315 190.635 -332.898 189.933 -332.782C189.64 -332.734 189.355 -332.695 189.089 -332.647L189.089 -300.381C189.213 -300.381 189.346 -300.362 189.48 -300.352C190.048 -300.275 190.697 -299.897 191.452 -299.965" fill="#303D78"/>
<path d="M193.148 -239.415C210.278 -247.116 227.391 -253.354 244.681 -257.519C262.486 -261.81 280.433 -263.912 298.416 -264.755C316.372 -265.588 334.418 -265.162 352.543 -262.847C370.206 -260.59 387.887 -256.512 405.71 -251.533C421.694 -247.068 437.589 -242.389 453.235 -236.897C468.917 -231.395 484.341 -225.099 499.792 -218.9C515.242 -212.7 530.729 -206.588 546.046 -200.011C561.364 -193.434 576.512 -186.382 591.803 -179.737C601.781 -175.408 611.812 -171.175 621.71 -166.583C631.607 -161.982 641.354 -157.023 651.323 -152.645C661.301 -148.266 671.483 -144.489 681.691 -140.818C691.873 -137.166 702.118 -133.611 712.691 -131.141C717.897 -129.93 722.908 -128.681 727.52 -126.646C732.371 -124.506 736.733 -121.551 740.936 -118.452C745.165 -115.323 749.296 -112.001 752.859 -107.864C756.271 -103.903 759.105 -99.2339 761.922 -94.3035C764.943 -89.0147 768.239 -83.91 771.215 -78.5921C774.192 -73.2743 776.839 -67.7434 779.798 -62.4062C782.757 -57.069 786.009 -51.9449 788.967 -46.6077C791.926 -41.2802 794.582 -35.7493 797.568 -30.4411C800.056 -26.0242 802.872 -21.8299 805.475 -17.5001C808.088 -13.1606 810.486 -8.66612 813.321 -4.52035C816.164 -0.364893 819.416 3.42249 822.588 7.28736C825.742 11.1232 828.834 15.0752 832.423 18.5332C836.83 22.7856 841.441 25.8755 845.893 28.4521C850.939 31.3677 855.941 33.5762 861.175 34.3317C866.417 35.097 871.774 34.3802 877.327 32.966C882.232 31.7164 887.403 29.9923 892.645 27.0476C894.742 25.8756 896.634 24.2966 898.677 23.0083C900.721 21.7297 902.916 20.732 904.915 19.3662C906.914 18.0005 908.691 16.2763 910.654 14.8524C912.618 13.4285 914.768 12.3049 916.705 10.8422C921.263 7.41325 925.519 3.52905 929.961 -0.0742942C934.404 -3.67763 939.041 -7.00007 943.511 -10.555C947.98 -14.1196 952.298 -17.9263 956.936 -21.2294C961.556 -24.5325 966.478 -27.3125 971.391 -30.1506C974.545 -31.9716 977.575 -33.9961 980.809 -35.4781C984.088 -36.9795 987.544 -37.9093 990.938 -38.9361C994.341 -39.9629 997.735 -41.1059 1001.27 -41.5321C1004.73 -41.9486 1008.26 -41.6483 1011.87 -41.3674C1016.55 -40.9993 1020.93 -40.3698 1024.92 -38.8102C1029.18 -37.1539 1032.91 -34.5385 1036.51 -31.7876C1040.1 -29.0464 1043.63 -26.1114 1046.71 -22.5274C1049.68 -19.0694 1052.17 -15.0398 1054.8 -11.0296C1057.64 -6.70949 1060.56 -2.46688 1063.03 2.07604C1065.51 6.62864 1067.53 11.4622 1069.8 16.1504C1072.07 20.8289 1074.58 25.3815 1076.78 30.0988C1078.99 34.816 1080.88 39.7173 1083.17 44.3862C1084.84 47.7861 1086.84 50.9923 1088.6 54.3341C1090.36 57.6856 1091.88 61.192 1093.82 64.4079C1095.75 67.6335 1098.1 70.5394 1100.32 73.5519C1102.52 76.5353 1104.62 79.664 1107.19 82.3762C1111.27 86.6867 1115.7 89.7669 1120.02 92.237C1124.9 95.0266 1129.82 97.0124 1134.92 97.4482C1140.02 97.8744 1145.15 96.7508 1150.38 94.8038C1154.99 93.0893 1159.79 90.784 1164.44 87.2097C1166.88 85.3402 1169.01 83.0542 1171.29 81.0007C1173.58 78.9375 1176.04 77.0777 1178.18 74.8499C1180.33 72.622 1182.15 70.0357 1184.17 67.6626C1186.17 65.2894 1188.4 63.1099 1190.29 60.6012C1197.87 50.5854 1204.89 40.1145 1212.01 29.7403C1219.14 19.3565 1226.37 9.0599 1233.21 -1.5467C1240.04 -12.1533 1246.48 -23.0699 1253.19 -33.783C1259.9 -44.4962 1266.88 -55.0059 1273.61 -65.69C1276.9 -70.9013 1279.95 -76.2772 1283.43 -81.3045C1286.91 -86.3608 1290.8 -91.0393 1294.6 -95.7953C1298.41 -100.551 1302.13 -105.395 1306.36 -109.724C1310.54 -114.015 1315.21 -117.764 1319.94 -121.513C1323.97 -124.709 1327.91 -127.683 1332.13 -129.736C1336.59 -131.916 1341.24 -133.088 1345.91 -133.979C1350.56 -134.87 1355.31 -135.5 1360.18 -135.103C1364.78 -134.715 1369.41 -133.378 1374.2 -131.829C1379.42 -130.143 1384.59 -128.448 1389.49 -126.104C1394.43 -123.731 1399.08 -120.718 1403.78 -117.851C1408.48 -114.984 1413.26 -112.243 1417.8 -109.046C1422.32 -105.859 1426.59 -102.237 1431.04 -98.895C1436.6 -94.7201 1442.28 -90.7196 1447.72 -86.3705C1453.16 -82.0116 1458.37 -77.304 1463.83 -72.9839C1469.3 -68.6541 1475.02 -64.7214 1480.64 -60.6434C1486.25 -56.5751 1491.79 -52.3422 1497.69 -48.7292C1500.55 -46.9856 1503.59 -45.678 1506.53 -44.196C1509.49 -42.6946 1512.38 -40.9994 1515.46 -39.9048C1518.55 -38.8006 1521.78 -38.3163 1525.01 -37.7642C1528.17 -37.2217 1531.39 -36.5921 1534.71 -36.6986C1539.04 -36.8536 1542.92 -38.0451 1546.54 -39.4012C1550.45 -40.8735 1554.15 -42.6364 1557.37 -45.2324C1560.58 -47.8089 1563.26 -51.1604 1565.95 -54.5604C1568.53 -57.8344 1571.21 -61.1762 1573.45 -64.9442C1576.96 -70.8335 1579.97 -77.0328 1583.14 -83.1256C1586.31 -89.2183 1589.66 -95.2142 1592.61 -101.443C1595.56 -107.671 1598.1 -114.122 1600.94 -120.418C1603.77 -126.714 1606.9 -132.846 1609.72 -139.142C1612.56 -145.438 1615.1 -151.899 1618.05 -158.118C1621.01 -164.346 1624.38 -170.322 1627.61 -176.386C1630.83 -182.45 1633.94 -188.601 1637.57 -194.393C1641.19 -200.157 1645.33 -205.523 1649.48 -210.918C1654.14 -216.962 1658.81 -222.658 1664.04 -227.404C1669.53 -232.383 1675.54 -236.287 1681.74 -239.658C1687.95 -243.038 1694.41 -245.934 1701.41 -247.523C1708 -249.015 1714.98 -249.286 1722.33 -249.034C1727.4 -248.86 1732.46 -248.744 1737.42 -247.969C1742.42 -247.184 1747.29 -245.721 1752.18 -244.385C1757.06 -243.048 1761.98 -241.837 1766.76 -240.026C1771.5 -238.224 1776.06 -235.841 1780.69 -233.633C1788.9 -229.719 1797.23 -226.106 1805.41 -222.106C1813.59 -218.105 1821.61 -213.717 1829.78 -209.678C1837.94 -205.639 1846.25 -201.958 1854.41 -197.929C1862.58 -193.909 1870.61 -189.54 1878.8 -185.579C1880.49 -184.765 1882.33 -184.3 1884.04 -183.525C1885.76 -182.75 1887.36 -181.646 1889.12 -180.997C1890.87 -180.348 1892.75 -180.164 1894.56 -179.728C1894.7 -179.699 1894.83 -179.66 1894.95 -179.621L1894.95 -184.184C1891.94 -185.143 1888.98 -186.169 1886.1 -187.448C1881.56 -189.463 1877.27 -192.068 1872.91 -194.48C1868.56 -196.892 1864.1 -199.12 1859.85 -201.774C1855.61 -204.428 1851.59 -207.489 1847.38 -210.221C1841.91 -213.766 1836.32 -217.088 1830.93 -220.769C1825.54 -224.44 1820.35 -228.47 1814.93 -232.093C1809.51 -235.715 1803.87 -238.941 1798.32 -242.341C1792.79 -245.731 1787.33 -249.315 1781.58 -252.308C1776.78 -254.807 1771.79 -256.764 1766.89 -258.788C1761.92 -260.842 1757 -262.992 1751.89 -264.377C1746.77 -265.772 1741.52 -266.402 1736.22 -266.944C1731.04 -267.477 1725.77 -267.932 1720.39 -267.477C1713.41 -266.876 1707.03 -264.958 1701.01 -262.653C1694.64 -260.212 1688.59 -257.267 1683.06 -253.315C1677.55 -249.383 1672.63 -244.491 1667.73 -239.454C1662.97 -234.553 1658.18 -229.506 1653.78 -223.937C1648.13 -216.778 1643.05 -209.145 1637.86 -201.619C1632.67 -194.083 1627.36 -186.644 1622.38 -178.934C1617.41 -171.223 1612.77 -163.251 1607.77 -155.57C1602.76 -147.889 1597.39 -140.488 1592.11 -133.03C1588.89 -128.487 1585.92 -123.75 1582.56 -119.353C1579.2 -114.945 1575.46 -110.896 1571.84 -106.77C1568.21 -102.644 1564.66 -98.401 1560.64 -94.6911C1556.65 -91.02 1552.25 -87.9106 1547.77 -84.7916C1543.43 -81.7694 1539.2 -78.9992 1534.76 -77.1878C1530.04 -75.2602 1525.18 -74.3981 1520.33 -73.8654C1515.49 -73.3326 1510.57 -73.1195 1505.59 -74.0203C1500.93 -74.863 1496.3 -76.7228 1491.51 -78.8538C1487.63 -80.5877 1483.69 -82.1472 1479.97 -84.2007C1476.24 -86.2639 1472.76 -88.8018 1469.14 -91.0974C1465.53 -93.3931 1461.78 -95.4369 1458.25 -97.8682C1454.71 -100.299 1451.4 -103.099 1447.89 -105.569C1443.24 -108.843 1438.42 -111.846 1433.78 -115.129C1429.13 -118.423 1424.66 -122.016 1419.94 -125.164C1415.23 -128.322 1410.26 -131.025 1405.38 -133.882C1400.51 -136.73 1395.71 -139.742 1390.6 -142.145C1386.99 -143.84 1383.23 -145.022 1379.56 -146.329C1375.84 -147.666 1372.17 -149.138 1368.36 -149.933C1364.54 -150.727 1360.64 -150.824 1356.72 -150.921C1352.89 -151.017 1348.99 -151.134 1345.05 -150.417C1339.88 -149.487 1335.17 -147.53 1330.67 -145.428C1325.99 -143.239 1321.45 -140.837 1317.35 -137.679C1313.25 -134.531 1309.63 -130.676 1305.94 -126.869C1302.32 -123.111 1298.59 -119.382 1295.21 -115.255C1288.84 -107.487 1283.1 -99.1758 1277.29 -90.9424C1271.48 -82.6993 1265.58 -74.524 1260.02 -66.0677C1254.45 -57.6212 1249.24 -48.9035 1243.61 -40.4957C1237.99 -32.0879 1231.98 -24.0191 1225.99 -15.9213C1222.02 -10.5647 1218.4 -4.8788 1214.47 0.516515C1210.54 5.92152 1206.29 11.0456 1202.18 16.2666C1198.05 21.4972 1194.05 26.8441 1189.52 31.6679C1185.03 36.4627 1180.04 40.6956 1174.93 44.8705C1169.45 49.3359 1164.21 52.9683 1158.88 55.0703C1152.64 57.5403 1146.49 58.0246 1140.52 57.2884C1134.57 56.5523 1128.66 54.5859 1123.06 50.692C1118.28 47.3599 1113.87 42.5845 1109.39 36.9664C1106.89 33.828 1104.29 30.8156 1102.11 27.4641C1099.9 24.1029 1098.13 20.4317 1096.14 16.9156C1094.15 13.4091 1091.95 10.0286 1090.08 6.43491C1088.22 2.84126 1086.71 -0.965488 1084.87 -4.57852C1082.79 -8.66617 1080.42 -12.5794 1078.33 -16.6574C1076.23 -20.7354 1074.41 -24.9877 1072.18 -28.9785C1069.95 -32.9693 1067.32 -36.6792 1064.83 -40.486C1062.36 -44.283 1060.02 -48.206 1057.17 -51.7512C1052.92 -57.0594 1048.14 -61.147 1043.35 -64.605C1038.11 -68.3924 1032.71 -71.4049 1026.9 -72.9354C1021.11 -74.4658 1015.04 -74.4852 1008.79 -73.749C1003.08 -73.071 997.122 -71.8214 991.098 -69.2352C987.206 -67.5594 983.626 -65.254 980.018 -63.094C976.384 -60.9145 972.68 -58.8514 969.259 -56.3039C965.838 -53.766 962.72 -50.7632 959.432 -47.9929C956.154 -45.2323 952.706 -42.7041 949.49 -39.8466C946.052 -36.8051 942.88 -33.4052 939.468 -30.3249C936.056 -27.2447 932.413 -24.484 928.93 -21.4909C925.448 -18.4978 922.134 -15.2722 918.5 -12.4922C914.884 -9.73162 910.974 -7.43598 907.118 -5.01438C902.374 -2.03098 897.798 0.535964 893.124 1.98892C887.998 3.57749 882.871 3.85838 877.834 3.60653C872.787 3.35469 867.714 2.55072 862.747 0.458463C858.216 -1.44976 853.88 -4.47193 849.402 -7.92029C845.573 -10.8746 841.752 -13.7709 838.349 -17.1611C834.911 -20.5804 831.917 -24.4743 828.807 -28.2229C825.697 -31.9716 822.445 -35.604 819.549 -39.5754C816.661 -43.5275 814.129 -47.7991 811.348 -51.8577C807.581 -57.3402 803.645 -62.6968 800.029 -68.3052C796.422 -73.9136 793.134 -79.7836 789.518 -85.3823C785.893 -90.9907 781.939 -96.3279 778.145 -101.791C774.352 -107.245 770.709 -112.843 766.577 -118.035C763.876 -121.425 760.776 -124.263 757.781 -127.092C754.698 -130.008 751.66 -132.923 748.239 -135.199C744.809 -137.476 741.042 -139.084 737.24 -140.672C733.552 -142.222 729.785 -143.811 725.716 -144.673C718.617 -146.184 711.509 -147.588 704.552 -149.603C697.569 -151.618 690.754 -154.233 683.895 -156.664C677.036 -159.086 670.106 -161.324 663.344 -164.075C656.583 -166.816 649.999 -170.051 643.309 -173.015C625.575 -180.88 607.68 -188.329 589.875 -195.962C572.052 -203.605 554.3 -211.441 536.326 -218.609C518.352 -225.787 500.156 -232.296 481.951 -238.757C463.763 -245.217 445.549 -251.63 427.051 -257.132C409.29 -262.42 391.387 -266.537 373.511 -270.111C355.457 -273.715 337.385 -276.756 319.189 -278.316C300.993 -279.875 282.717 -279.953 264.369 -279.178C246.271 -278.413 228.057 -276.834 209.79 -273.521C205.614 -272.765 202.246 -271.768 199.439 -271.138C194.659 -270.063 191.496 -269.249 189.603 -267.196C189.399 -266.973 189.221 -266.731 189.044 -266.479L189.044 -238.505C189.435 -238.563 189.87 -238.669 190.35 -238.776C191.105 -238.95 192.1 -238.912 193.139 -239.376" fill="#303D78"/>
<path d="M190.394 -162.156C191.105 -162.389 191.727 -163.067 192.438 -163.367C193.238 -163.706 194.099 -163.648 194.704 -163.832C202.664 -166.196 210.51 -169.014 218.453 -171.407C226.414 -173.799 234.472 -175.746 242.486 -177.848C250.509 -179.96 258.497 -182.227 266.635 -183.747C274.738 -185.258 282.957 -186.014 291.229 -186.634C302.131 -187.448 312.908 -187.806 323.561 -187.041C334.365 -186.266 345.009 -184.348 355.6 -182.178C366.181 -180.018 376.737 -177.597 387.132 -174.293C397.438 -171.02 407.54 -166.864 417.696 -162.709C431.325 -157.12 444.91 -151.463 458.193 -145.07C471.503 -138.667 484.492 -131.547 497.5 -124.467C510.498 -117.386 523.524 -110.334 536.264 -102.692C548.988 -95.0492 561.417 -86.8157 573.927 -78.7276C580.04 -74.7756 586.419 -71.521 592.754 -68.3341C599.169 -65.1086 605.593 -61.9314 612.274 -59.597C618.956 -57.2626 625.859 -55.7709 632.834 -54.4342C639.666 -53.1168 646.623 -51.9157 653.776 -51.6542C657.88 -51.5089 662.003 -51.722 666.108 -51.4798C670.213 -51.2377 674.282 -50.55 678.369 -50.1335C682.456 -49.7266 686.579 -49.591 690.648 -48.9227C694.699 -48.264 698.671 -47.0629 702.687 -46.0652C710.807 -44.0407 718.351 -41.4835 725.165 -37.7639C732.38 -33.8216 738.724 -28.6684 744.677 -23.06C750.612 -17.471 756.227 -11.3782 761.105 -4.37492C765.787 2.33775 769.723 9.86406 773.615 17.6519C776.36 23.1538 779.23 28.5975 781.709 34.2544C784.188 39.9113 786.284 45.7715 788.763 51.4187C791.242 57.0755 794.112 62.5193 796.848 68.0308C799.585 73.5327 802.206 79.1314 805.449 84.333C809.012 90.0383 813.028 94.4553 816.99 98.0974C821.691 102.408 826.524 105.633 831.873 107.106C837.195 108.578 842.863 108.268 848.896 106.98C853.996 105.885 859.487 104.19 865.155 101.158C868.816 99.2016 872.13 96.6638 875.497 94.2906C878.891 91.8884 882.365 89.6218 885.537 86.9193C888.718 84.2071 891.579 81.0784 894.618 78.1821C897.656 75.2956 900.89 72.6318 903.885 69.6678C907.11 66.481 910.077 62.9648 913.311 59.778C916.545 56.5912 920.055 53.7434 923.404 50.7115C926.763 47.6797 929.979 44.4444 933.551 41.7128C937.096 39.0007 940.97 36.8019 944.844 34.5256C950.93 30.9513 956.945 28.0357 963.067 26.4762C969.632 24.8101 976.216 24.6842 982.666 25.3138C989.126 25.9531 995.576 27.3576 1001.76 30.2926C1007.53 33.0242 1012.96 37.0828 1018.35 41.8C1021.38 44.4541 1024.48 46.9726 1027.22 49.9172C1029.97 52.8716 1032.32 56.2327 1034.85 59.4099C1037.37 62.587 1040.08 65.6092 1042.44 68.9316C1044.81 72.2444 1046.83 75.8477 1049.13 79.2379C1052.47 84.1877 1056.01 89.0018 1059.25 94.0387C1062.5 99.0756 1065.45 104.345 1068.78 109.304C1072.11 114.274 1075.82 118.923 1079.43 123.66C1083.03 128.377 1086.55 133.201 1090.62 137.521C1093.44 140.533 1096.61 143.052 1099.65 145.599C1102.78 148.215 1105.86 150.859 1109.28 152.806C1112.73 154.753 1116.47 155.964 1120.28 157.049C1123.94 158.095 1127.73 159.083 1131.79 159.17C1136.52 159.267 1140.83 158.192 1144.89 156.884C1149.21 155.489 1153.34 153.746 1157.09 151.169C1160.8 148.612 1164.05 145.26 1167.36 141.957C1170.62 138.712 1173.97 135.487 1176.99 131.932C1184.06 123.621 1190.39 114.671 1196.68 105.73C1202.98 96.7606 1209.24 87.7716 1215.05 78.4145C1220.86 69.0672 1226.2 59.3808 1231.83 49.8978C1237.47 40.4148 1243.39 31.145 1249.16 21.7685C1253.49 14.7265 1257.41 7.37455 1261.64 0.245365C1265.87 -6.88383 1270.42 -13.7902 1274.83 -20.7741C1279.24 -27.7676 1283.53 -34.8678 1288.41 -41.4836C1293.26 -48.0703 1298.69 -54.1534 1304.3 -60.1396C1306.94 -62.9583 1309.4 -65.9901 1312.21 -68.5667C1315.04 -71.1724 1318.19 -73.2937 1321.26 -75.4634C1324.35 -77.6526 1327.41 -79.9192 1330.82 -81.498C1334.15 -83.0382 1337.76 -83.8809 1341.46 -84.6655C1346.2 -85.6729 1350.73 -86.2541 1355.11 -85.8085C1359.72 -85.3435 1364.08 -83.8034 1368.39 -82.1374C1372.68 -80.4907 1376.97 -78.7084 1381.03 -76.3062C1385.02 -73.933 1388.75 -70.969 1392.61 -68.2568C1398.15 -64.3725 1403.78 -60.6724 1409.15 -56.5363C1414.52 -52.4002 1419.6 -47.8282 1424.84 -43.5081C1430.08 -39.1879 1435.5 -35.11 1440.67 -30.6833C1445.84 -26.2663 1450.77 -21.5006 1455.93 -17.0545C1461.17 -12.531 1466.65 -8.3562 1472 -3.99732C1477.36 0.371243 1482.59 4.92388 1488.15 8.94374C1493.72 12.9636 1499.61 16.4216 1505.5 19.8893C1511.33 23.3377 1517.21 26.8151 1523.47 29.5466C1530.3 32.53 1536.73 34.0702 1542.62 34.8935C1549.73 35.8912 1556.25 35.6684 1562.22 33.4406C1568.18 31.2127 1573.44 27.0185 1578.5 21.4585C1582.69 16.8672 1586.89 11.3556 1590.6 4.42983C1593.35 -0.674905 1595.46 -6.08959 1597.68 -11.4268C1599.9 -16.793 1602.23 -22.1012 1604.06 -27.6321C1605.9 -33.1533 1607.26 -38.8586 1608.88 -44.4671C1610.51 -50.0755 1612.4 -55.587 1613.96 -61.2148C1616.12 -68.993 1617.83 -76.9358 1619.91 -84.7528C1621.98 -92.5697 1624.41 -100.27 1626.67 -108.019C1628.92 -115.778 1630.99 -123.605 1633.69 -131.199C1636.37 -138.754 1639.68 -146.058 1643.07 -153.352C1645.6 -158.796 1648.11 -164.026 1651.25 -168.55C1654.6 -173.354 1658.57 -177.326 1662.77 -180.871C1666.98 -184.435 1671.47 -187.651 1676.69 -189.714C1681.48 -191.613 1686.79 -192.456 1692.56 -192.921C1696.01 -193.192 1699.43 -193.657 1702.84 -193.531C1706.28 -193.405 1709.67 -192.708 1713.06 -192.204C1716.47 -191.7 1719.91 -191.39 1723.25 -190.528C1726.58 -189.666 1729.78 -188.252 1733.04 -187.051C1742.06 -183.719 1751.2 -180.706 1760.21 -177.297C1769.22 -173.887 1778.09 -170.08 1787.09 -166.651C1796.09 -163.213 1805.21 -160.152 1814.22 -156.732C1823.23 -153.323 1832.12 -149.564 1841.15 -146.223C1845.95 -144.45 1850.87 -143.075 1855.7 -141.418C1860.54 -139.762 1865.3 -137.815 1870.19 -136.372C1875.09 -134.938 1880.09 -134.018 1885.07 -132.913C1888.34 -132.187 1891.64 -131.373 1894.96 -130.715L1894.96 -145.632C1893.99 -145.729 1893.01 -145.845 1892.05 -146.019C1889.41 -146.523 1886.86 -147.492 1884.25 -148.141C1881.64 -148.79 1878.95 -149.129 1876.37 -149.865C1873.77 -150.611 1871.29 -151.754 1868.71 -152.528C1858.13 -155.706 1847.55 -158.834 1837.12 -162.525C1826.7 -166.225 1816.45 -170.487 1806.11 -174.458C1795.76 -178.42 1785.32 -182.091 1774.98 -186.063C1764.64 -190.034 1754.4 -194.315 1743.98 -198.045C1739.93 -199.498 1735.77 -200.466 1731.67 -201.648C1727.55 -202.84 1723.49 -204.244 1719.3 -205.058C1715.13 -205.871 1710.87 -206.075 1706.61 -206.385C1702.41 -206.695 1698.16 -207.121 1693.87 -206.84C1687.08 -206.385 1681.05 -204.583 1675.55 -202.316C1669.48 -199.817 1663.96 -196.621 1659.2 -192.262C1654.49 -187.932 1650.62 -182.508 1646.95 -176.706C1643.5 -171.262 1640.15 -165.44 1637.39 -159.009C1634.79 -152.926 1632.75 -146.6 1630.56 -140.353C1628.36 -134.095 1626 -127.906 1624.08 -121.542C1622.16 -115.187 1620.69 -108.668 1618.9 -102.266C1617.12 -95.863 1615.03 -89.5572 1613.23 -83.1545C1611.37 -76.4902 1609.9 -69.6904 1608.02 -63.0358C1606.14 -56.3716 1603.84 -49.8527 1601.69 -43.295C1599.54 -36.7373 1597.52 -30.1118 1594.84 -23.7672C1592.19 -17.4711 1588.9 -11.4946 1585.49 -5.52775C1582.11 0.371271 1578.83 5.49533 1575.05 9.38926C1570.53 14.029 1565.52 16.935 1560.28 18.8045C1555.03 20.6739 1549.41 21.5651 1543.27 20.7514C1538.09 20.0637 1532.66 18.0683 1526.73 15.5208C1519.76 12.5277 1512.91 9.39895 1506.41 5.56313C1499.87 1.69827 1493.72 -2.86402 1487.52 -7.32944C1481.33 -11.7852 1475.07 -16.1537 1469.06 -20.9388C1463.07 -25.7142 1457.34 -30.9061 1451.39 -35.759C1445.55 -40.515 1439.53 -44.9998 1433.68 -49.7364C1427.83 -54.4827 1422.16 -59.4906 1416.19 -64.0335C1410.21 -68.5861 1403.95 -72.6544 1397.73 -76.8196C1391.54 -80.9653 1385.37 -85.2079 1378.82 -88.7822C1373.45 -91.7172 1368.04 -93.4414 1362.83 -94.6813C1357.13 -96.047 1351.54 -96.7832 1346.03 -96.1342C1340.53 -95.4852 1335.21 -93.4608 1329.9 -90.8164C1325.04 -88.4045 1320.08 -85.4986 1315.37 -81.4303C1311.82 -78.3694 1308.64 -74.8726 1305.36 -71.5308C1302.07 -68.1696 1298.65 -64.944 1295.63 -61.331C1292.59 -57.7083 1289.97 -53.6981 1287.19 -49.8332C1284.42 -45.9684 1281.49 -42.2295 1278.97 -38.1418C1272.75 -28.0583 1266.87 -17.7326 1260.71 -7.61029C1254.55 2.51198 1248.11 12.4405 1241.98 22.5822C1235.84 32.7238 1230.01 43.0786 1223.86 53.2105C1217.72 63.3425 1211.26 73.2517 1205.06 83.3449C1202.08 88.2075 1199.34 93.2444 1196.21 97.9811C1193.06 102.718 1189.54 107.144 1186.16 111.668C1182.77 116.191 1179.5 120.841 1175.78 125.055C1172.08 129.249 1167.94 132.978 1163.82 136.775C1158.6 141.579 1153.58 145.551 1148.37 148.04C1142.3 150.946 1136.19 151.896 1130.19 151.644C1124.2 151.392 1118.17 149.939 1112.31 146.558C1107.29 143.662 1102.54 139.303 1097.65 134.111C1094.65 130.934 1091.61 127.854 1088.99 124.386C1086.35 120.889 1084.17 117.034 1081.8 113.324C1079.44 109.614 1076.89 106.04 1074.69 102.214C1072.49 98.3879 1070.64 94.3196 1068.5 90.4547C1066.01 85.9603 1063.24 81.6304 1060.76 77.1263C1058.29 72.6124 1056.1 67.9145 1053.51 63.4685C1050.94 59.0321 1047.98 54.8573 1045.16 50.5856C1042.36 46.3236 1039.7 41.9259 1036.55 37.9158C1031.04 30.9028 1025.03 25.4784 1019 21.0614C1012.17 16.073 1005.15 12.3922 997.682 10.7358C990.219 9.07941 982.435 9.46686 974.359 11.1523C967.225 12.644 959.744 15.0656 952.156 19.1727C948.131 21.3521 944.435 24.103 940.659 26.6796C936.874 29.2659 932.991 31.6972 929.375 34.5546C925.759 37.4121 922.427 40.6764 918.9 43.6695C915.373 46.6626 911.659 49.3748 908.131 52.3679C904.524 55.4385 901.139 58.819 897.487 61.8121C893.827 64.8149 889.917 67.4302 886.124 70.1909C882.321 72.9612 878.616 75.9059 874.582 78.2693C870.584 80.6134 866.302 82.3666 861.975 84.1489C857.354 86.0571 853.028 87.6651 848.807 88.2269C844.045 88.8565 839.54 88.2463 835.196 87.1517C830.851 86.0572 826.551 84.4492 822.535 81.6014C818.963 79.0733 815.72 75.5571 812.335 71.6438C809.891 68.8154 807.359 66.1129 805.236 63.0423C803.103 59.962 801.406 56.5524 799.514 53.2978C797.621 50.0432 795.525 46.9145 793.792 43.5533C792.06 40.1921 790.7 36.6082 789.039 33.2082C786.471 27.9485 783.681 22.8244 781.22 17.5066C778.759 12.1888 776.635 6.68689 774.139 1.38843C771.642 -3.91002 768.772 -8.99533 766.098 -14.1872C763.424 -19.3695 760.927 -24.6873 757.933 -29.6855C754.805 -34.9161 751.136 -39.4397 747.466 -43.7114C743.602 -48.1962 739.648 -52.4194 735.09 -55.7322C730.523 -59.0546 725.441 -61.3987 720.101 -63.4135C715.081 -65.3023 709.768 -66.9684 703.984 -67.6077C701.674 -67.8595 699.328 -67.7336 697.018 -67.9951C694.708 -68.2663 692.442 -68.925 690.141 -69.2253C687.84 -69.5159 685.486 -69.4384 683.185 -69.7677C680.883 -70.0971 678.635 -70.8236 676.334 -71.1917C669.484 -72.2862 662.785 -73.6229 656.326 -75.7927C649.786 -77.9915 643.549 -81.0233 637.294 -83.997C631.048 -86.9611 624.767 -89.8767 618.689 -93.2863C612.621 -96.6862 606.775 -100.57 600.769 -104.077C585.895 -112.756 570.8 -120.951 555.767 -129.242C540.716 -137.543 525.709 -145.941 510.401 -153.613C495.083 -161.294 479.481 -168.24 463.817 -175.068C448.189 -181.878 432.489 -188.571 416.425 -194.296C405.844 -198.064 395.102 -201.047 384.395 -203.876C373.591 -206.724 362.787 -209.407 351.841 -211.024C340.886 -212.652 329.825 -213.213 318.71 -213.368C307.746 -213.514 296.684 -213.281 285.542 -211.751C277.351 -210.627 269.336 -208.603 261.367 -206.598C253.353 -204.592 245.347 -202.587 237.484 -199.982C229.63 -197.386 221.936 -194.199 214.153 -191.312C206.378 -188.426 198.497 -185.84 190.723 -182.963C190.092 -182.73 189.55 -182.43 189.071 -182.101L189.071 -162.021C189.497 -161.982 189.95 -161.982 190.412 -162.127" fill="#303D78"/>
<path d="M191.168 -86.3508C200.817 -88.23 210.421 -90.361 220.088 -91.8334C229.799 -93.3057 239.555 -94.129 249.302 -94.9136C259.057 -95.7079 268.813 -96.4828 278.622 -96.3182C288.342 -96.1535 298.071 -95.0686 307.87 -93.7028C318.728 -92.1918 329.31 -90.177 339.501 -86.9999C349.905 -83.7549 359.856 -79.3282 369.638 -74.5432C379.42 -69.7581 389.069 -64.605 398.31 -58.4735C407.408 -52.4292 416.07 -45.4646 424.715 -38.3064C429.931 -33.9863 435.475 -30.3636 440.975 -26.799C446.563 -23.1763 452.152 -19.6117 458.06 -16.8317C463.977 -14.0517 470.179 -12.066 476.452 -10.1772C482.6 -8.32705 488.855 -6.54474 495.368 -5.61485C499.979 -4.95618 504.626 -4.75273 509.246 -4.24904C513.866 -3.74535 518.468 -2.93174 523.097 -2.60239C527.735 -2.27306 532.391 -2.41833 537.029 -2.27303C541.667 -2.12774 546.313 -1.69187 550.951 -1.74999C563.07 -1.90498 575.154 -2.11806 587.157 -1.47876C599.249 -0.839449 611.235 0.661907 623.185 2.36671C635.135 4.07151 647.077 5.98941 658.867 9.02124C670.524 12.0143 681.985 16.0924 693.456 20.6353C704.411 24.9748 714.602 29.7889 723.629 35.8719C733.367 42.4393 741.7 50.3822 748.968 59.2549C756.254 68.147 762.535 78.0561 767.093 89.5442C771.252 100.015 773.873 111.726 775.57 124.561C776.307 130.169 777.533 135.671 778.608 141.182C779.692 146.723 780.625 152.293 782.18 157.678C783.735 163.054 785.894 168.198 788.053 173.361C790.185 178.446 792.335 183.599 795.187 188.404C799.408 195.513 804.33 200.851 809.279 204.928C815.312 209.907 821.656 212.968 828.257 213.394C834.841 213.83 841.478 211.622 848.043 207.495C853.419 204.115 858.91 199.485 863.921 193.014C865.955 190.379 867.563 187.406 869.34 184.597C871.126 181.768 873.09 179.075 874.671 176.111C876.253 173.157 877.435 169.951 878.883 166.909C880.322 163.868 882.037 160.972 883.414 157.891C885.538 153.135 887.243 148.147 889.269 143.342C891.304 138.528 893.658 133.888 895.791 129.132C897.932 124.376 899.86 119.494 902.312 114.923C904.747 110.37 907.688 106.147 910.628 101.885C913.756 97.3514 916.857 93.225 920.446 90.0382C924.373 86.5511 928.753 84.207 933.249 82.3472C937.745 80.4874 942.445 79.0635 947.501 78.831C952.121 78.6276 956.945 79.4897 962.054 80.652C964.87 81.3011 967.722 81.7079 970.441 82.6087C973.178 83.5192 975.754 84.9334 978.402 86.0861C981.05 87.2388 983.813 88.1396 986.39 89.4957C988.957 90.8421 991.321 92.6341 993.826 94.1646C999.051 97.3514 1004.3 100.441 1009.26 104.045C1014.23 107.648 1018.88 111.745 1023.68 115.61C1028.48 119.475 1033.43 123.107 1038.17 127.069C1042.91 131.031 1047.42 135.303 1052.2 139.197C1056.41 142.626 1060.84 145.716 1065.13 149.019C1069.42 152.331 1073.57 155.867 1078.01 158.908C1082.45 161.95 1087.17 164.478 1091.85 167.103C1096.5 169.709 1101.13 172.421 1106.09 174.465C1112.47 177.099 1118.8 178.523 1124.9 179.434C1131.51 180.422 1137.96 180.741 1144.21 179.569C1150.48 178.388 1156.43 175.724 1162.31 172.227C1167.66 169.05 1173.05 165.214 1178.08 160.022C1180.35 157.688 1182.31 155.034 1184.47 152.612C1186.64 150.181 1189.03 147.972 1191.1 145.454C1193.17 142.936 1194.93 140.107 1196.9 137.492C1198.87 134.876 1201.07 132.455 1202.93 129.733C1208.69 121.345 1214.03 112.627 1219.56 104.064C1225.1 95.5012 1230.83 87.0935 1236.21 78.4145C1241.6 69.7355 1246.63 60.8046 1251.93 52.0675C1257.24 43.34 1262.82 34.8064 1268.14 26.0789C1271.42 20.6836 1274.47 15.1236 1277.94 9.88324C1281.41 4.63321 1285.28 -0.287445 1289.02 -5.29532C1292.76 -10.3032 1296.4 -15.4273 1300.51 -20.1059C1304.58 -24.7553 1309.11 -28.9398 1313.65 -33.1728C1318.44 -37.6576 1323.13 -41.5321 1328.11 -44.1668C1333.62 -47.0824 1339.35 -48.5063 1345.08 -49.2038C1350.82 -49.8915 1356.69 -49.8624 1362.65 -48.3707C1368.07 -47.0146 1373.45 -44.3993 1379.05 -41.2706C1383.19 -38.9556 1387.31 -36.6986 1391.1 -33.8896C1394.92 -31.0515 1398.35 -27.6806 1401.89 -24.4744C1405.43 -21.2585 1409.09 -18.1879 1412.44 -14.7299C1415.78 -11.2815 1418.81 -7.4651 1422.06 -3.90049C1427.35 1.89196 1432.75 7.57784 1437.86 13.564C1442.98 19.5502 1447.81 25.827 1452.98 31.7551C1458.15 37.6832 1463.67 43.2431 1469.12 48.8515C1474.57 54.4503 1479.97 60.1362 1485.92 65.1731C1490.81 69.3092 1496.01 72.7091 1501.15 75.8572C1506.53 79.1409 1511.91 82.1534 1517.63 83.9938C1523.39 85.8536 1529.38 86.5122 1535.55 86.551C1541.31 86.5897 1547.32 86.1248 1553.49 84.2553C1558.91 82.6183 1563.6 79.9061 1567.97 76.9711C1572.57 73.8812 1576.86 70.4619 1580.54 66.2774C1584.19 62.1219 1587.18 57.2787 1590.17 52.3774C1593.09 47.602 1596.08 42.7491 1598.61 37.5766C1602.13 30.4087 1604.94 22.9017 1607.81 15.4626C1610.69 7.99434 1613.65 0.564869 1616.13 -7.07769C1618.61 -14.7106 1620.61 -22.5178 1622.94 -30.2088C1625.26 -37.8998 1627.92 -45.4745 1630.35 -53.1171C1632.4 -59.5876 1634.08 -66.2131 1636.19 -72.6642C1638.32 -79.125 1640.88 -85.4018 1643.34 -91.6883C1645.81 -97.9941 1648.19 -104.339 1651.27 -110.325C1654.32 -116.243 1658.04 -121.765 1661.97 -127.237C1664.38 -130.599 1666.69 -133.824 1669.46 -136.372C1672.38 -139.074 1675.7 -140.982 1679.04 -142.745C1682.37 -144.499 1685.81 -146.145 1689.58 -146.939C1693.12 -147.676 1696.88 -147.588 1700.8 -147.443C1704.52 -147.308 1708.2 -147.327 1711.82 -146.755C1715.47 -146.184 1719.02 -145.022 1722.58 -144.072C1726.15 -143.123 1729.79 -142.368 1733.28 -141.108C1736.76 -139.849 1740.08 -138.076 1743.5 -136.565C1751.81 -132.885 1760.23 -129.533 1768.52 -125.794C1776.8 -122.055 1784.93 -117.938 1793.21 -114.19C1801.5 -110.441 1809.91 -107.051 1818.2 -103.322C1826.49 -99.5924 1834.65 -95.5338 1842.96 -91.8821C1847.56 -89.8576 1852.32 -88.2593 1856.98 -86.4092C1861.65 -84.5591 1866.23 -82.4378 1870.98 -80.8589C1875.72 -79.2801 1880.6 -78.2436 1885.45 -77.0425C1888.6 -76.2676 1891.78 -75.4152 1894.98 -74.7178L1894.98 -90.3516C1887.75 -92.1145 1880.54 -93.9743 1873.47 -96.2506C1864.7 -99.0791 1856.13 -102.566 1847.5 -105.86C1838.87 -109.153 1830.18 -112.253 1821.64 -115.778C1813.09 -119.304 1804.69 -123.266 1796.16 -126.821C1790.15 -129.32 1784.07 -131.625 1778.15 -134.347C1772.22 -137.069 1766.44 -140.188 1760.51 -142.871C1754.57 -145.554 1748.47 -147.792 1742.43 -150.184C1736.4 -152.577 1730.4 -155.124 1724.17 -156.975C1715.63 -159.503 1707.86 -160.549 1700.81 -160.81C1692.17 -161.13 1684.47 -160.055 1677.63 -156.732C1670.77 -153.4 1664.91 -147.879 1659.37 -140.643C1654.85 -134.744 1650.4 -127.712 1646.47 -119.072C1643.8 -113.192 1641.71 -107.051 1639.48 -100.997C1637.24 -94.9235 1634.85 -88.918 1632.9 -82.7381C1630.94 -76.5582 1629.43 -70.2136 1627.59 -63.9852C1625.76 -57.7569 1623.61 -51.6447 1621.74 -45.4261C1619.53 -38.1032 1617.71 -30.635 1615.47 -23.3217C1613.23 -15.9988 1610.56 -8.85029 1608.01 -1.67268C1605.45 5.51462 1603 12.76 1599.87 19.6858C1596.76 26.5631 1592.99 33.0724 1589.04 39.5526C1584.09 47.6698 1578.89 54.5568 1572.99 59.6713C1566.21 65.5509 1558.72 69.0961 1550.96 70.9559C1543.21 72.8157 1535.05 73.0288 1526.62 70.8009C1519.29 68.8636 1511.89 65.0084 1504.27 59.9425C1499.83 56.9784 1495.37 54.0919 1491.25 50.7017C1487.1 47.292 1483.34 43.3981 1479.43 39.6882C1475.53 35.9784 1471.47 32.4428 1467.69 28.5779C1463.92 24.7131 1460.43 20.5092 1456.68 16.6056C1451.24 10.939 1445.6 5.45655 1440.19 -0.268109C1434.78 -5.99276 1429.58 -11.9693 1424.01 -17.5002C1418.43 -23.0312 1412.5 -28.0971 1406.56 -33.1728C1400.66 -38.2194 1394.72 -43.3048 1388.26 -47.6443C1381.34 -52.2937 1374.65 -55.4321 1368.38 -57.7472C1360.88 -60.5078 1353.79 -61.9704 1346.79 -61.3408C1339.78 -60.7111 1333 -57.999 1326.04 -53.9113C1320.21 -50.4823 1314.12 -46.1525 1308.02 -40.2632C1301.9 -34.3448 1296.53 -27.7193 1291.26 -21.0745C1285.94 -14.3909 1280.71 -7.63945 1275.95 -0.481215C1271.19 6.66735 1266.92 14.1937 1262.4 21.5456C1257.88 28.8879 1253.1 36.0365 1248.51 43.3207C1243.03 52.0094 1237.98 61.0274 1232.62 69.8323C1227.27 78.6276 1221.62 87.2 1216.09 95.8597C1210.56 104.529 1205.16 113.305 1199.16 121.587C1193.18 129.849 1186.62 137.608 1179.87 145.231C1173.59 152.322 1167.69 158.259 1161.55 162.483C1154.12 167.587 1146.57 170.271 1138.9 171.288C1131.26 172.305 1123.33 171.714 1114.94 168.808C1108.01 166.406 1100.89 162.328 1093.15 157.32C1088.42 154.269 1083.69 151.285 1079.28 147.798C1074.86 144.301 1070.77 140.311 1066.55 136.533C1062.33 132.755 1057.95 129.171 1053.82 125.268C1049.69 121.364 1045.81 117.141 1041.66 113.256C1037 108.898 1032.13 104.791 1027.41 100.509C1022.68 96.2084 1018.1 91.7139 1013.14 87.7812C1008.18 83.8389 1002.85 80.4971 997.469 77.2231C992.165 73.9975 986.754 70.8107 980.872 68.515C973.986 65.8319 967.385 64.5726 961.192 64.0012C954.111 63.3522 947.438 63.7105 941.228 65.8609C934.999 68.021 929.367 71.9343 923.973 76.9615C919.256 81.3592 914.591 86.5995 910.486 93.2153C908.727 96.0535 907.341 99.1531 905.697 102.078C904.054 104.994 902.152 107.745 900.58 110.719C899.007 113.683 897.763 116.86 896.199 119.834C894.636 122.807 892.77 125.587 891.171 128.542C889.26 132.077 887.634 135.787 885.609 139.216C883.574 142.664 881.157 145.812 878.883 149.057C876.608 152.302 874.449 155.673 871.81 158.598C869.216 161.485 866.177 163.897 863.112 166.377C858.99 169.709 855.009 172.547 850.851 174.223C846.178 176.102 841.451 176.557 836.822 176.354C832.184 176.14 827.511 175.249 823.015 172.944C819.008 170.891 815.267 167.684 811.438 163.965C808.426 161.049 805.423 158.211 802.908 154.937C800.349 151.615 798.315 147.885 796.191 144.234C794.068 140.591 791.847 136.998 790.096 133.094C788.364 129.239 787.129 125.113 785.698 121.044C783.566 115.01 781.052 109.14 778.768 103.192C776.476 97.2255 774.406 91.1522 771.847 85.3306C769.288 79.5091 766.249 73.9491 763.317 68.3213C760.403 62.7226 757.569 57.0367 754.175 51.6898C748.053 42.0712 740.945 34.0121 733.509 26.7958C725.717 19.2404 717.48 12.5665 708.516 7.16146C699.577 1.77584 689.982 -2.29242 680.146 -6.01199C670.568 -9.6347 660.724 -12.9571 650.533 -15.4465C642.261 -17.471 633.883 -18.5268 625.54 -19.5729C617.161 -20.6191 608.783 -21.6652 600.36 -22.1108C591.946 -22.5563 583.506 -22.4014 575.074 -22.6338C566.642 -22.8566 558.219 -23.4572 549.805 -23.8446C540.325 -24.2805 530.943 -24.6486 521.756 -25.9563C512.391 -27.2833 503.258 -29.5499 494.248 -32.2137C485.257 -34.8775 476.336 -37.9577 467.762 -42.4037C459.535 -46.6754 451.69 -52.2064 443.889 -58.5219C425.071 -73.7779 405.551 -85.5082 385.746 -94.6715C364.769 -104.368 343.357 -111.177 321.402 -114.674C299.519 -118.161 277.173 -118.345 254.464 -116.321C233.007 -114.412 211.15 -110.547 189.08 -104.29L189.08 -86.0118C189.124 -86.0312 189.169 -86.0602 189.213 -86.07C189.906 -86.2927 190.661 -86.1571 191.195 -86.2637" fill="#303D78"/>
<path d="M192.003 -199.236C198.16 -202.432 204.14 -206.045 210.297 -209.261C216.454 -212.477 222.78 -215.286 229.017 -218.279C235.263 -221.282 241.438 -224.469 247.853 -227.016C254.241 -229.554 260.843 -231.443 267.489 -233.293C278.906 -236.49 290.243 -238.94 301.624 -240.064C313.219 -241.207 324.787 -240.965 336.32 -240.296C347.843 -239.628 359.385 -238.534 370.846 -236.422C382.192 -234.33 393.432 -231.22 404.706 -228.053C422.343 -223.084 439.766 -217.621 456.861 -211.131C474 -204.622 490.783 -197.086 507.531 -189.482C524.27 -181.878 541 -174.206 557.499 -165.963C573.99 -157.72 590.249 -148.915 606.659 -140.478C614.754 -136.313 622.945 -132.313 631.013 -128.031C639.08 -123.74 647.023 -119.168 655.224 -115.245C663.443 -111.322 671.901 -108.068 680.413 -104.997C688.88 -101.956 697.445 -99.0787 706.365 -97.3642C712.078 -96.2696 717.472 -95.0104 722.385 -92.8601C727.636 -90.5547 732.265 -87.3097 736.663 -83.8032C741.07 -80.2871 745.317 -76.461 748.951 -71.7534C752.38 -67.317 755.188 -62.1348 757.995 -56.6426C760.59 -51.567 763.362 -46.6076 765.725 -41.4157C768.097 -36.2238 770.052 -30.8091 772.291 -25.5494C774.53 -20.2897 777.062 -15.1752 779.275 -9.89614C781.496 -4.62673 783.397 0.807339 785.698 6.03799C787.671 10.5325 789.981 14.8526 792.06 19.289C794.139 23.735 795.996 28.3167 798.333 32.5883C800.669 36.8697 803.468 40.8218 806.205 44.832C808.914 48.7937 811.589 52.8523 814.841 56.4362C818.172 60.1074 821.869 62.839 825.485 65.2509C829.421 67.8662 833.383 70.0941 837.657 71.2274C841.922 72.351 846.382 72.3607 850.984 72.0119C855.213 71.6923 859.647 71.1208 864.161 69.5516C868.345 68.089 872.272 65.987 876.208 64.0207C880.18 62.0446 884.205 60.1848 887.981 57.8311C891.757 55.4773 895.275 52.6295 898.927 50.0335C902.57 47.4376 906.373 45.0838 909.962 42.3813C914.28 39.1266 918.358 35.4846 922.641 32.1718C926.923 28.8591 931.419 25.8757 935.772 22.6695C940.126 19.4633 944.346 16.0246 948.86 13.0993C953.365 10.1837 958.145 7.80087 962.916 5.3502C971.019 1.17536 978.571 -1.98243 985.821 -3.39663C994.404 -5.06269 1002.4 -4.40402 1009.93 -2.17615C1017.45 0.0614022 1024.66 3.91663 1031.28 10.0965C1036.87 15.3175 1041.91 22.2239 1046.96 30.3023C1049.68 34.6612 1052.51 38.9232 1054.92 43.4661C1057.33 48.0187 1059.3 52.8426 1061.52 57.5017C1063.74 62.1706 1066.22 66.6844 1068.4 71.3823C1070.56 76.0802 1072.43 80.9428 1074.69 85.5922C1076.81 89.9608 1079.25 94.155 1081.48 98.4557C1083.71 102.776 1085.74 107.232 1088.27 111.319C1090.81 115.417 1093.83 119.117 1096.86 122.817C1099.85 126.459 1102.88 130.14 1106.54 133.24C1110.31 136.426 1114.32 138.548 1118.22 140.291C1122.51 142.209 1126.78 143.623 1131.16 143.788C1135.54 143.953 1139.89 142.868 1144.29 141.299C1148.29 139.865 1152.45 138.054 1156.41 135.177C1159.49 132.93 1162.22 130.208 1165.04 127.651C1167.87 125.074 1170.81 122.643 1173.41 119.795C1176 116.947 1178.22 113.721 1180.62 110.67C1183.01 107.619 1185.58 104.732 1187.81 101.526C1194.44 91.9949 1200.58 82.0857 1206.87 72.3025C1213.16 62.5095 1219.61 52.8328 1225.67 42.8752C1231.73 32.9176 1237.4 22.6694 1243.32 12.615C1249.25 2.56048 1255.44 -7.30993 1261.34 -17.3838C1265.42 -24.3483 1269.19 -31.5259 1273.42 -38.3645C1277.64 -45.2322 1282.3 -51.7608 1286.94 -58.2701C1291.58 -64.789 1296.23 -71.3176 1301.55 -77.2263C1306.8 -83.0575 1312.7 -88.2398 1318.86 -93.238C1323.03 -96.6088 1327.11 -99.6987 1331.47 -101.839C1336.09 -104.116 1340.93 -105.327 1345.77 -106.218C1350.62 -107.109 1355.55 -107.709 1360.6 -107.235C1365.36 -106.789 1370.16 -105.356 1375.12 -103.699C1378.25 -102.653 1381.43 -101.849 1384.44 -100.551C1387.47 -99.2435 1390.3 -97.4709 1393.24 -95.9501C1396.17 -94.4294 1399.22 -93.1507 1402.07 -91.4363C1404.91 -89.7315 1407.53 -87.6004 1410.31 -85.7407C1417.33 -81.0427 1424.33 -76.3449 1431.01 -71.1336C1437.69 -65.9223 1444.02 -60.1977 1450.52 -54.7152C1457.01 -49.2327 1463.68 -43.9827 1470.16 -38.4711C1476.64 -32.9595 1482.94 -27.1865 1489.57 -21.888C1492.76 -19.3308 1496.19 -17.1126 1499.44 -14.6426C1502.7 -12.1726 1505.81 -9.45069 1509.17 -7.18408C1512.55 -4.91746 1516.18 -3.12547 1519.72 -1.17851C1523.25 0.758763 1526.72 2.86069 1530.48 4.36208C1534.73 6.06688 1538.89 6.7643 1542.82 7.20987C1547.2 7.70387 1551.4 7.78139 1555.4 6.68683C1559.4 5.59227 1563.08 3.36438 1566.72 0.681256C1570 -1.72097 1573.37 -4.4816 1576.38 -8.17212C1578.34 -10.5743 1579.87 -13.3253 1581.55 -15.9212C1583.25 -18.5366 1585.1 -21.026 1586.57 -23.7866C1588.03 -26.5472 1589.08 -29.5597 1590.37 -32.4365C1591.66 -35.3037 1593.2 -38.0449 1594.38 -40.9702C1596.82 -47.0436 1598.72 -53.3397 1600.82 -59.539C1602.93 -65.748 1605.23 -71.8795 1607.13 -78.1659C1609.03 -84.4524 1610.52 -90.8745 1612.35 -97.19C1614.19 -103.506 1616.36 -109.685 1618.26 -115.972C1619.98 -121.629 1621.36 -127.402 1623.17 -133.02C1624.97 -138.648 1627.18 -144.101 1629.18 -149.642C1631.19 -155.182 1632.99 -160.81 1635.31 -166.215C1637.62 -171.591 1640.43 -176.706 1643.17 -181.897C1646.37 -187.99 1649.67 -193.531 1653.64 -198.083C1657.95 -203.033 1662.94 -206.782 1668.15 -209.94C1673.37 -213.107 1678.92 -215.742 1685.04 -217.146C1690.69 -218.444 1696.75 -218.619 1703.18 -218.444C1706.88 -218.347 1710.57 -218.444 1714.2 -217.979C1717.86 -217.514 1721.44 -216.488 1725.04 -215.693C1728.65 -214.899 1732.31 -214.337 1735.85 -213.281C1739.39 -212.226 1742.8 -210.666 1746.3 -209.387C1755.3 -206.094 1764.42 -203.13 1773.4 -199.779C1782.39 -196.437 1791.26 -192.708 1800.25 -189.356C1809.24 -186.005 1818.35 -183.031 1827.35 -179.718C1836.35 -176.405 1845.24 -172.754 1854.27 -169.518C1857.99 -168.182 1861.84 -167.252 1865.6 -166.012C1869.36 -164.782 1873.05 -163.251 1876.85 -162.215C1880.65 -161.178 1884.56 -160.646 1888.43 -159.909C1890.61 -159.493 1892.8 -159.009 1895 -158.602L1895 -172.763C1890.92 -173.897 1886.84 -175.04 1882.85 -176.425C1877.17 -178.401 1871.65 -180.89 1866.04 -183.108C1860.44 -185.327 1854.74 -187.283 1849.19 -189.666C1843.65 -192.049 1838.25 -194.858 1832.73 -197.328C1825.87 -200.408 1818.87 -203.159 1811.99 -206.21C1805.1 -209.262 1798.33 -212.613 1791.38 -215.451C1784.42 -218.289 1777.3 -220.624 1770.21 -223.074C1763.15 -225.525 1756.1 -228.121 1748.85 -230.019C1735.24 -233.584 1722.78 -234.96 1711.38 -234.843C1697.76 -234.708 1685.53 -232.257 1674.61 -226.62C1663.68 -220.982 1654.2 -212.226 1645.48 -200.825C1638.18 -191.284 1631.26 -179.892 1625.18 -166.147C1622.53 -160.142 1620.42 -153.875 1618.15 -147.714C1615.86 -141.534 1613.4 -135.442 1611.36 -129.165C1609.31 -122.898 1607.67 -116.466 1605.71 -110.16C1603.74 -103.864 1601.43 -97.684 1599.38 -91.417C1597.69 -86.2154 1596.38 -80.8491 1594.7 -75.6281C1593.02 -70.4071 1590.97 -65.3411 1589.12 -60.1977C1587.27 -55.0445 1585.61 -49.8042 1583.41 -44.8254C1581.2 -39.866 1578.48 -35.2068 1575.73 -30.5089C1573.21 -26.1888 1570.79 -22.3239 1567.89 -19.3986C1564.55 -16.0277 1560.77 -13.8967 1556.86 -12.3276C1552.95 -10.7681 1548.8 -9.73158 1544.25 -9.94469C1540.31 -10.1384 1536.16 -11.3686 1531.68 -12.87C1530.19 -13.3737 1528.58 -13.5577 1527.1 -14.1583C1525.64 -14.7588 1524.31 -15.7565 1522.88 -16.4346C1521.44 -17.1126 1519.85 -17.471 1518.45 -18.2169C1517.04 -18.9627 1515.8 -20.096 1514.42 -20.9C1510.21 -23.3506 1505.95 -25.656 1501.96 -28.4457C1497.96 -31.2451 1494.25 -34.4997 1490.38 -37.5219C1486.53 -40.544 1482.51 -43.3337 1478.73 -46.4624C1474.94 -49.5911 1471.39 -53.0588 1467.6 -56.1875C1461.08 -61.5732 1454.4 -66.7263 1447.89 -72.1119C1441.37 -77.5072 1435 -83.1447 1428.3 -88.2301C1421.58 -93.3251 1414.53 -97.8486 1407.44 -102.324C1400.41 -106.76 1393.29 -111.167 1385.69 -114.684C1379.2 -117.686 1372.76 -119.391 1366.55 -120.515C1359.77 -121.745 1353.16 -122.22 1346.72 -121.144C1340.26 -120.069 1334.09 -117.464 1327.98 -114.035C1322.41 -110.906 1316.76 -107.119 1311.46 -101.994C1308.56 -99.1951 1305.99 -96.0373 1303.26 -93.0829C1300.51 -90.1092 1297.6 -87.3292 1295.03 -84.2005C1292.46 -81.0621 1290.26 -77.5847 1287.88 -74.272C1285.51 -70.9592 1282.94 -67.7917 1280.77 -64.3046C1275.16 -55.2769 1269.88 -46.0168 1264.31 -36.96C1258.75 -27.9032 1252.9 -19.0499 1247.36 -9.97372C1241.81 -0.897576 1236.57 8.39169 1231.03 17.4678C1225.47 26.5343 1219.62 35.378 1214.04 44.4251C1210.23 50.5953 1206.71 56.998 1202.8 63.0907C1198.88 69.1931 1194.57 74.9759 1190.35 80.8168C1186.12 86.6577 1181.97 92.5761 1177.25 97.9617C1172.57 103.309 1167.35 108.094 1161.98 112.811C1156.93 117.238 1152.06 120.851 1147.05 122.972C1141.19 125.452 1135.35 125.994 1129.68 125.365C1124.04 124.735 1118.41 122.943 1113.1 119.272C1108.55 116.133 1104.37 111.59 1100.16 106.253C1097.49 102.863 1094.75 99.56 1092.47 95.9082C1090.18 92.2371 1088.36 88.2463 1086.35 84.3814C1084.35 80.5263 1082.13 76.7776 1080.28 72.8159C1078.45 68.8639 1076.97 64.6987 1075.18 60.7079C1072.92 55.7194 1070.4 50.8568 1068.16 45.8587C1065.91 40.8508 1063.95 35.688 1061.52 30.7963C1059.09 25.895 1056.23 21.2746 1053.44 16.5961C1050.67 11.9563 1047.96 7.21965 1044.65 2.9189C1040.96 -1.85649 1036.82 -5.61478 1032.69 -8.90814C1028.18 -12.4921 1023.58 -15.5433 1018.54 -17.3353C1013.51 -19.1273 1008.14 -19.6407 1002.56 -19.602C997.46 -19.5729 992.085 -19.1563 986.523 -17.5678C981.583 -16.1632 976.954 -13.9644 972.378 -11.814C967.74 -9.64429 963.102 -7.48426 958.731 -4.76238C954.369 -2.0502 950.29 1.21411 946.079 4.25564C941.885 7.28747 937.55 10.0966 933.409 13.2349C929.509 16.1893 925.848 19.5214 921.965 22.5145C918.092 25.5075 913.996 28.1616 910.051 31.0579C906.106 33.9541 902.303 37.0828 898.207 39.7272C894.129 42.3619 889.793 44.4929 885.484 46.7401C878.829 50.2079 872.681 52.9782 866.728 54.2859C859.709 55.8357 853.117 55.487 846.844 53.9759C840.571 52.4648 834.458 49.7623 828.683 45.1322C823.788 41.2189 819.274 35.8817 814.565 29.6921C811.678 25.8951 808.71 22.1948 806.178 18.1556C803.637 14.1067 801.549 9.73814 799.266 5.5052C796.982 1.28193 794.494 -2.82505 792.371 -7.15487C790.256 -11.4847 788.506 -16.0276 786.462 -20.3962C783.779 -26.1112 780.865 -31.7099 778.271 -37.4733C775.676 -43.2464 773.402 -49.1841 770.736 -54.9088C768.062 -60.6335 764.997 -66.1353 762.073 -71.7147C759.159 -77.2843 756.396 -82.9702 753.073 -88.3074C750.754 -92.027 748 -95.2623 745.334 -98.4588C742.58 -101.752 739.861 -105.036 736.663 -107.671C733.455 -110.315 729.839 -112.272 726.134 -114.16C722.571 -115.972 718.884 -117.783 714.815 -118.81C707.201 -120.728 699.604 -122.607 692.194 -125.135C684.757 -127.663 677.525 -130.831 670.239 -133.824C662.954 -136.817 655.606 -139.626 648.418 -142.919C641.248 -146.203 634.256 -149.961 627.13 -153.4C610.276 -161.527 593.27 -169.295 576.353 -177.238C559.419 -185.191 542.564 -193.327 525.461 -200.776C508.348 -208.235 490.987 -214.986 473.591 -221.621C456.221 -228.247 438.78 -234.746 421.01 -240.238C410.935 -243.348 400.726 -245.711 390.553 -248.017C380.318 -250.332 370.091 -252.598 359.749 -253.974C349.407 -255.349 338.985 -255.843 328.528 -256.153C318.168 -256.463 307.737 -256.608 297.253 -255.756C288.137 -255.01 279.323 -253.063 270.652 -250.874C261.856 -248.656 253.157 -246.166 244.69 -242.854C236.241 -239.551 228.058 -235.434 219.813 -231.433C211.612 -227.452 203.34 -223.587 195.21 -219.316C193.673 -218.502 192.518 -217.34 191.381 -216.439C190.572 -215.8 189.791 -215.209 189.107 -214.569L189.107 -198.354C189.32 -198.422 189.551 -198.5 189.8 -198.577C190.395 -198.761 191.221 -198.713 192.056 -199.149" fill="#303D78"/>
<path d="M195.823 -124.302C197.938 -124.883 200.141 -125.067 202.247 -125.648C204.362 -126.22 206.387 -127.179 208.493 -127.779C210.599 -128.38 212.802 -128.622 214.899 -129.261C229.594 -133.795 244.157 -137.572 258.728 -139.694C273.726 -141.883 288.67 -142.328 303.525 -141.67C318.399 -141.011 333.254 -139.229 347.985 -135.422C362.192 -131.741 376.221 -126.162 390.295 -119.275C398.451 -115.284 406.696 -111.535 414.719 -107.283C422.76 -103.031 430.561 -98.2746 438.424 -93.6833C446.296 -89.0919 454.248 -84.6556 461.925 -79.6574C469.575 -74.6689 476.931 -69.138 484.341 -63.6748C489.521 -59.8584 494.994 -56.72 500.414 -53.6107C505.914 -50.4529 511.396 -47.3145 517.162 -44.9511C522.937 -42.5779 528.952 -40.999 535.012 -39.5073C540.973 -38.035 547.015 -36.6111 553.27 -36.0493C561.169 -35.3422 569.103 -35.1484 577.01 -34.606C584.918 -34.0636 592.816 -33.1821 600.724 -32.6493C608.64 -32.1166 616.575 -31.9423 624.473 -31.2449C632.381 -30.5571 640.235 -29.356 648.098 -28.3486C658.707 -26.9828 669.084 -25.2683 679 -22.3043C689.226 -19.2434 698.911 -14.8846 708.195 -9.78951C717.489 -4.69448 726.454 1.17548 734.61 8.63401C742.367 15.7341 749.314 24.2388 755.863 33.7702C758.999 38.3422 762.224 42.8173 764.987 47.6217C767.76 52.4455 770.061 57.5599 772.548 62.5581C775.036 67.5466 777.719 72.4382 780.021 77.543C782.322 82.638 784.223 87.9558 786.435 93.1089C788.15 97.1094 790.238 100.887 792.122 104.771C794.014 108.675 795.702 112.695 797.861 116.405C800.02 120.115 802.641 123.485 805.174 126.924C807.679 130.324 810.14 133.83 813.117 136.882C816.786 140.64 820.811 143.333 824.756 145.561C829.101 148.021 833.481 149.92 838.074 150.51C842.668 151.111 847.341 150.394 852.095 149.125C856.413 147.973 860.908 146.403 865.289 143.691C868.229 141.88 870.762 139.507 873.329 137.279C875.942 135.012 878.616 132.842 880.926 130.247C883.227 127.651 885.137 124.657 887.234 121.829C889.313 119.02 891.588 116.356 893.534 113.402C895.746 110.06 897.585 106.418 899.691 102.989C901.796 99.56 904.178 96.3248 906.292 92.9152C908.416 89.4959 910.282 85.8732 912.538 82.5605C914.795 79.2574 917.425 76.2643 919.93 73.155C924.097 68.0018 928.229 63.4298 932.814 60.0105C937.869 56.2425 943.324 53.8887 948.913 52.242C954.484 50.5953 960.294 49.6267 966.407 50.0917C971.942 50.5179 977.629 52.184 983.617 54.344C988.708 56.1844 993.63 58.1411 998.179 60.8339C1002.82 63.5751 1007.01 67.0332 1011.23 70.4331C1015.44 73.8233 1019.72 77.1748 1023.66 80.9816C1027.58 84.7593 1031.17 88.9825 1034.97 92.9442C1039.57 97.7293 1044.29 102.379 1048.74 107.338C1053.19 112.288 1057.38 117.538 1061.89 122.42C1066.42 127.302 1071.27 131.796 1076.06 136.349C1080.84 140.892 1085.59 145.512 1090.85 149.484C1098.25 155.073 1105.51 158.918 1112.38 161.689C1120.6 165.001 1128.46 166.677 1136.2 165.941C1143.94 165.205 1151.42 162.057 1158.96 157.204C1165.28 153.145 1171.79 147.953 1178.14 141.008C1184.72 133.821 1190.54 125.984 1196.31 118.148C1202.1 110.283 1207.86 102.379 1213.17 94.1163C1218.47 85.8635 1223.32 77.2523 1228.47 68.8639C1233.62 60.4754 1239.07 52.3098 1244.38 44.0667C1248.28 38.0127 1251.76 31.6487 1255.52 25.4882C1259.28 19.3276 1263.3 13.3609 1267.11 7.23906C1270.91 1.10759 1274.5 -5.18858 1278.54 -11.1263C1282.57 -17.0544 1287.06 -22.6144 1291.53 -28.2132C1293.36 -30.5088 1294.98 -33.0079 1296.9 -35.2067C1298.83 -37.4055 1301.05 -39.2653 1303.07 -41.3575C1305.09 -43.4498 1306.91 -45.7746 1309.03 -47.7603C1311.13 -49.7363 1313.5 -51.3636 1315.71 -53.2427C1320.87 -57.65 1325.91 -61.389 1331.18 -63.8299C1337.02 -66.5325 1343.01 -67.6851 1348.99 -68.0726C1354.96 -68.4697 1361.04 -68.1113 1367.16 -66.3097C1372.74 -64.663 1378.24 -61.7765 1383.93 -58.3959C1390.13 -54.7151 1396.23 -50.9762 1401.93 -46.6173C1407.67 -42.2294 1412.99 -37.2409 1418.39 -32.388C1423.79 -27.5351 1429.29 -22.8081 1434.52 -17.7228C1439.75 -12.6374 1444.68 -7.20338 1449.89 -2.10835C1454.78 2.67673 1459.86 7.23904 1464.75 12.0338C1469.64 16.8383 1474.33 21.8848 1479.37 26.4665C1484.42 31.0578 1489.81 35.1649 1495.19 39.3009C1500.54 43.4177 1505.89 47.5731 1511.72 51.0118C1519.24 55.4482 1526.76 57.9957 1533.9 59.4293C1542.06 61.0663 1549.91 61.1534 1557.29 58.9837C1564.68 56.8139 1571.43 52.4357 1577.73 46.556C1583.26 41.4029 1588.58 35.0777 1593.05 27.1348C1595.81 22.2238 1597.96 16.9932 1600.2 11.84C1602.46 6.66752 1604.8 1.53371 1606.68 -3.80349C1608.54 -9.1407 1609.92 -14.6813 1611.55 -20.1347C1613.19 -25.5688 1615.07 -30.9254 1616.62 -36.3981C1618.88 -44.3894 1620.62 -52.5551 1622.71 -60.6141C1624.78 -68.6732 1627.2 -76.6258 1629.43 -84.6267C1631.66 -92.6374 1633.7 -100.725 1636.4 -108.562C1639.08 -116.379 1642.4 -123.915 1645.87 -131.441C1649.41 -139.151 1652.96 -145.874 1657.17 -151.25C1662.16 -157.614 1667.89 -162.079 1674.09 -165.334C1680.27 -168.579 1687.05 -170.681 1694.73 -170.981C1701.21 -171.233 1708.25 -170.08 1715.99 -168.336C1722.81 -166.806 1729.57 -165.188 1736.16 -162.902C1742.76 -160.607 1749.15 -157.652 1755.61 -154.93C1762.07 -152.209 1768.63 -149.729 1775.06 -146.92C1781.5 -144.111 1787.81 -140.972 1794.33 -138.396C1803.02 -134.957 1811.8 -131.78 1820.47 -128.274C1829.15 -124.767 1837.72 -120.941 1846.47 -117.686C1855.22 -114.432 1864.14 -111.749 1873.06 -109.056C1880.3 -106.867 1887.58 -104.678 1894.96 -102.963L1894.96 -118.18C1890.33 -119.062 1885.69 -119.982 1881.14 -121.203C1874.89 -122.878 1868.79 -125.116 1862.63 -127.111C1856.47 -129.107 1850.25 -130.86 1844.13 -133.059C1838.04 -135.257 1832.07 -137.892 1825.99 -140.178C1817.42 -143.394 1808.79 -146.474 1800.31 -149.981C1791.83 -153.487 1783.49 -157.43 1775.01 -160.907C1766.52 -164.384 1757.87 -167.407 1749.27 -170.545C1740.67 -173.683 1732.1 -176.938 1723.3 -179.408C1714.02 -182.014 1705.54 -182.953 1697.84 -182.973C1688.52 -182.992 1680.18 -181.452 1672.81 -177.539C1665.45 -173.635 1659.19 -167.445 1653.38 -159.483C1648.58 -152.887 1643.95 -145.079 1639.98 -135.606C1637.64 -130.037 1635.85 -124.234 1633.88 -118.519C1631.91 -112.795 1629.76 -107.148 1628.03 -101.326C1626.3 -95.5142 1625.02 -89.5474 1623.42 -83.6871C1621.82 -77.8269 1619.91 -72.0731 1618.3 -66.2226C1616.33 -59.0256 1614.77 -51.6833 1612.8 -44.4863C1610.83 -37.2796 1608.44 -30.2183 1606.17 -23.1278C1603.9 -16.0277 1601.75 -8.87913 1598.92 -2.02117C1596.1 4.78835 1592.62 11.2686 1588.96 17.7197C1586.19 22.6016 1583.47 27.2607 1580.18 31.1159C1576.63 35.2714 1572.52 38.4582 1568.22 41.1026C1563.91 43.7663 1559.3 45.9458 1554.11 46.7595C1549.48 47.4859 1544.48 47.021 1539.05 46.0427C1536.39 45.5584 1533.71 45.2871 1531.14 44.4928C1528.55 43.6985 1526.13 42.3909 1523.63 41.3545C1521.13 40.318 1518.53 39.5238 1516.09 38.3033C1513.66 37.0828 1511.41 35.4361 1509.02 34.0994C1502.85 30.6413 1496.75 27.1446 1491 23.0472C1485.23 18.9305 1479.85 14.2132 1474.35 9.66063C1468.87 5.10803 1463.28 0.710372 1457.94 -4.05533C1452.6 -8.81134 1447.53 -13.9257 1442.19 -18.6914C1437.05 -23.2731 1431.71 -27.5932 1426.55 -32.1652C1421.4 -36.7371 1416.43 -41.5803 1411.16 -45.9683C1405.88 -50.3659 1400.3 -54.318 1394.79 -58.3669C1389.3 -62.4061 1383.84 -66.5519 1378 -70.0777C1372.61 -73.3323 1367.16 -75.3083 1361.93 -76.7419C1356.13 -78.3305 1350.46 -79.2023 1344.85 -78.6211C1339.25 -78.0302 1333.82 -76.0058 1328.39 -73.2839C1323.46 -70.8235 1318.42 -67.8305 1313.61 -63.6653C1309.84 -60.3913 1306.48 -56.6523 1303.04 -53.0684C1299.57 -49.4457 1296 -45.9489 1292.84 -42.0453C1289.67 -38.1417 1286.9 -33.8603 1283.99 -29.7145C1281.08 -25.5784 1278 -21.5683 1275.31 -17.2384C1269.21 -7.44551 1263.45 2.59926 1257.4 12.4213C1251.34 22.253 1245.02 31.8715 1238.99 41.7129C1232.95 51.5543 1227.22 61.6087 1221.17 71.4501C1215.13 81.2818 1208.77 90.8907 1202.69 100.693C1200.44 104.306 1198.43 108.103 1196.05 111.6C1193.66 115.107 1190.91 118.303 1188.36 121.664C1185.81 125.026 1183.44 128.561 1180.7 131.748C1177.97 134.925 1174.89 137.734 1171.95 140.717C1169.61 143.091 1167.48 145.706 1165.03 147.895C1162.55 150.113 1159.79 151.876 1157.11 153.707C1154.42 155.557 1151.76 157.514 1148.79 158.783C1145.89 160.022 1142.75 160.565 1139.48 161.069C1134.7 161.814 1130.16 162.202 1125.8 161.592C1121.19 160.943 1116.89 159.228 1112.68 157.349C1108.49 155.48 1104.32 153.416 1100.44 150.627C1096.69 147.924 1093.29 144.544 1089.76 141.241C1084.73 136.523 1079.76 131.767 1075.25 126.537C1070.72 121.287 1066.66 115.591 1062.38 110.079C1058.12 104.578 1053.65 99.2598 1049.39 93.7482C1045.13 88.2367 1041.08 82.5314 1036.55 77.2717C1035.41 75.9349 1033.99 74.8791 1032.83 73.5618C1031.67 72.2444 1030.74 70.6656 1029.56 69.3676C1028.37 68.0793 1026.92 67.0719 1025.7 65.8127C1024.49 64.5534 1023.49 63.023 1022.25 61.8025C1013.88 53.6466 1005.25 47.7863 996.829 43.5921C986.913 38.6423 977.069 36.0658 967.278 36.5986C957.496 37.1216 947.936 40.7346 938.482 46.7014C930.468 51.7577 922.383 58.4704 914.742 67.44C911.943 70.7237 909.473 74.327 906.754 77.6785C904.036 81.03 901.059 84.1394 898.305 87.4715C895.55 90.8036 893.027 94.3585 890.148 97.555C887.279 100.751 884.071 103.57 880.97 106.534C874.12 113.082 867.625 118.294 861.13 121.529C852.974 125.597 845.058 126.682 837.532 125.549C829.989 124.406 822.65 120.996 815.853 114.632C810.433 109.556 805.529 102.582 800.642 94.1938C799.949 93.0121 798.981 92.0144 798.341 90.8036C797.702 89.5928 797.39 88.1786 796.769 86.9484C796.156 85.7182 795.24 84.6624 794.636 83.4225C794.041 82.1827 793.757 80.7588 793.152 79.519C791.864 76.8649 790.265 74.3948 788.985 71.7505C787.706 69.0964 786.738 66.2583 785.467 63.6042C784.188 60.9502 782.606 58.4705 781.336 55.8067C780.065 53.1526 779.114 50.3048 777.853 47.641C772.779 36.9376 766.818 27.2318 760.509 18.1751C753.908 8.71147 746.853 -0.0643745 738.75 -7.53257C730.63 -15.0105 721.523 -21.1032 711.732 -26.3726C702.465 -31.3611 692.54 -35.6812 681.639 -38.5193C675.97 -39.9916 670.213 -40.6891 664.5 -41.4833C658.751 -42.2776 653.02 -43.1785 647.245 -43.5175C641.47 -43.8565 635.668 -43.624 629.884 -43.7306C624.1 -43.8371 618.316 -44.273 612.532 -44.3699C605.726 -44.4861 599.009 -44.612 592.435 -45.5516C585.726 -46.5106 579.214 -48.2929 572.763 -50.1817C566.295 -52.0803 559.845 -54.095 553.643 -57.0106C547.566 -59.8681 541.782 -63.5877 535.971 -67.5106C528.161 -72.78 520.129 -77.6329 512.222 -82.7183C504.314 -87.8036 496.522 -93.1118 488.499 -97.9646C480.476 -102.818 472.213 -107.196 464.048 -111.777C455.892 -116.349 447.816 -121.125 439.499 -125.396C428.758 -130.908 417.803 -135.771 406.865 -140.517C395.848 -145.312 384.822 -149.99 373.52 -153.632C362.201 -157.284 350.624 -159.89 338.923 -162.011C327.39 -164.103 315.671 -165.75 303.676 -165.992C294.738 -166.176 285.925 -165.295 277.164 -164.297C268.341 -163.299 259.545 -162.176 250.847 -160.326C242.167 -158.485 233.61 -155.918 225.01 -153.584C216.427 -151.249 207.773 -149.128 199.208 -146.629C196.561 -145.854 194.508 -144.856 192.767 -144.246C191.301 -143.733 190.075 -143.297 189.08 -142.793L189.08 -122.161C189.248 -122.161 189.426 -122.161 189.604 -122.219C191.709 -122.82 193.735 -123.788 195.85 -124.36" fill="#303D78"/>
</g>
</svg>
