<svg width="394" height="731" viewBox="0 0 394 731" fill="none" xmlns="http://www.w3.org/2000/svg">
<rect width="394" height="731" rx="10" fill="white"/>
<path d="M41.74 52L37.48 66H34.58L32.22 57.96L32.02 57L31.84 57.96L29.46 66H26.56L22.3 52H25.2L27.84 60.92L28.06 61.94L28.24 60.92L30.76 52H33.28L35.82 60.92L35.98 61.94L36.2 60.92L38.84 52H41.74ZM46.2681 55.64C48.6681 55.64 50.2881 56.86 50.2881 59.34V66H48.0681L47.9081 64.76C47.3681 65.58 46.4481 66.22 45.0081 66.22C43.2081 66.22 41.9281 65.12 41.9281 63.3C41.9281 61.32 43.2681 60.56 45.0681 60.26L47.6881 59.78V59.4C47.6881 58.4 47.1881 57.86 46.2681 57.86C45.4081 57.86 44.7481 58.38 44.7481 59.2H42.2281C42.3481 57.14 43.8681 55.64 46.2681 55.64ZM47.6881 61.52L45.6681 61.94C44.9881 62.1 44.5281 62.4 44.5281 63.08C44.5281 63.68 44.9481 64.08 45.7081 64.08C46.3481 64.08 46.9681 63.76 47.3281 63.16C47.5481 62.82 47.6881 62.32 47.6881 61.82V61.52ZM58.2806 55.64C60.4406 55.64 61.5606 57.12 61.5606 59.42V66H58.9406V59.98C58.9406 58.8 58.4406 58.16 57.5006 58.16C56.5006 58.16 55.7006 58.96 55.7006 60.64V66H53.1206V55.86H55.3406L55.5406 57.18C56.0006 56.32 56.9206 55.64 58.2806 55.64ZM67.6758 53.4L67.6558 55.86H69.9758V58.22H67.6358L67.5958 62.32C67.5958 63.36 67.9158 63.78 68.9158 63.78C69.4158 63.78 69.6958 63.72 69.9758 63.64V65.92C69.6558 66.04 69.1358 66.14 68.3358 66.14C66.1158 66.14 64.9758 65.24 64.9958 62.94L65.0358 58.22H63.3758V55.86H65.0358L65.0558 53.4H67.6758ZM79.7992 53.4L79.7792 55.86H82.0992V58.22H79.7592L79.7192 62.32C79.7192 63.36 80.0392 63.78 81.0392 63.78C81.5392 63.78 81.8192 63.72 82.0992 63.64V65.92C81.7792 66.04 81.2592 66.14 80.4592 66.14C78.2392 66.14 77.0992 65.24 77.1192 62.94L77.1592 58.22H75.4992V55.86H77.1592L77.1792 53.4H79.7992ZM89.0373 55.64C92.0973 55.64 94.3773 57.78 94.3773 60.92C94.3773 64.06 92.0973 66.22 89.0373 66.22C85.9973 66.22 83.7373 64.06 83.7373 60.92C83.7373 57.78 85.9973 55.64 89.0373 55.64ZM89.0573 58C87.4973 58 86.4173 59.24 86.4173 60.92C86.4173 62.58 87.4973 63.84 89.0573 63.84C90.6373 63.84 91.6773 62.58 91.6773 60.92C91.6773 59.24 90.6373 58 89.0573 58ZM110.596 51.4V66H108.356L108.156 64.64C107.596 65.46 106.676 66.22 104.936 66.22C102.216 66.22 100.236 63.9 100.236 60.92C100.236 57.94 102.216 55.64 104.956 55.64C106.396 55.64 107.456 56.24 107.996 56.96V51.4H110.596ZM105.476 58.08C104.056 58.08 102.916 59.2 102.916 60.92C102.916 62.66 104.036 63.78 105.476 63.78C106.756 63.78 108.036 62.8 108.036 60.98V60.86C108.016 59.06 106.736 58.08 105.476 58.08ZM119.119 55.76V58.36C118.319 58.36 117.699 58.5 117.099 58.96C116.619 59.34 116.319 59.92 116.279 60.84V66H113.679V55.86H115.919L116.159 57.48C116.499 56.58 117.399 55.76 119.119 55.76ZM123.941 55.86V66H121.341V55.86H123.941ZM122.641 51.34C123.501 51.34 124.221 52.02 124.221 52.88C124.221 53.76 123.501 54.42 122.641 54.42C121.761 54.42 121.061 53.76 121.061 52.88C121.061 52.02 121.761 51.34 122.641 51.34ZM135.792 55.86L132.112 66H129.472L125.812 55.86H128.612L130.592 62.08L130.792 62.96L130.992 62.08L132.972 55.86H135.792ZM141.749 55.64C144.429 55.64 146.449 57.32 146.449 60.92V61.72H139.389C139.469 63.06 140.409 64 141.829 64C142.829 64 143.589 63.58 143.869 62.82H146.389C145.769 64.96 144.209 66.22 141.749 66.22C138.749 66.22 136.709 64.14 136.709 60.94C136.709 57.88 138.729 55.64 141.749 55.64ZM141.689 57.8C140.389 57.8 139.529 58.68 139.409 59.92H143.829C143.809 58.64 142.969 57.8 141.689 57.8ZM161.366 55.86V66H159.146L158.946 64.68C158.486 65.56 157.586 66.22 156.266 66.22C154.086 66.22 153.006 64.74 153.006 62.44V55.86H155.606V61.86C155.606 63.06 156.086 63.7 157.046 63.7C157.986 63.7 158.786 62.94 158.786 61.3V55.86H161.366ZM169.583 55.64C171.743 55.64 172.863 57.12 172.863 59.42V66H170.243V59.98C170.243 58.8 169.743 58.16 168.803 58.16C167.803 58.16 167.003 58.96 167.003 60.64V66H164.423V55.86H166.643L166.843 57.18C167.303 56.32 168.223 55.64 169.583 55.64ZM181.458 55.64C184.178 55.64 186.178 57.94 186.178 60.92C186.178 63.9 184.178 66.22 181.458 66.22C179.998 66.22 178.938 65.62 178.418 64.88V70.3H175.818V55.86H178.058L178.238 57.22C178.798 56.4 179.738 55.64 181.458 55.64ZM180.918 58.08C179.638 58.08 178.358 59.06 178.358 60.88V61C178.378 62.78 179.658 63.78 180.918 63.78C182.338 63.78 183.478 62.66 183.478 60.92C183.478 59.18 182.358 58.08 180.918 58.08ZM193.999 55.76V58.36C193.199 58.36 192.579 58.5 191.979 58.96C191.499 59.34 191.199 59.92 191.159 60.84V66H188.559V55.86H190.799L191.039 57.48C191.379 56.58 192.279 55.76 193.999 55.76ZM200.327 55.64C203.007 55.64 205.027 57.32 205.027 60.92V61.72H197.967C198.047 63.06 198.987 64 200.407 64C201.407 64 202.167 63.58 202.447 62.82H204.967C204.347 64.96 202.787 66.22 200.327 66.22C197.327 66.22 195.287 64.14 195.287 60.94C195.287 57.88 197.307 55.64 200.327 55.64ZM200.267 57.8C198.967 57.8 198.107 58.68 197.987 59.92H202.407C202.387 58.64 201.547 57.8 200.267 57.8ZM211.956 55.64C214.336 55.64 216.256 56.88 216.636 59.44H214.116C213.816 58.52 213.036 58 212.016 58C210.616 58 209.556 59.22 209.556 60.94C209.556 62.62 210.596 63.84 212.076 63.84C213.116 63.84 213.896 63.24 214.136 62.42H216.676C216.196 64.94 214.296 66.22 211.956 66.22C208.996 66.22 206.876 64.08 206.876 60.94C206.876 57.88 208.996 55.64 211.956 55.64ZM223.348 55.64C226.028 55.64 228.048 57.32 228.048 60.92V61.72H220.988C221.068 63.06 222.008 64 223.428 64C224.428 64 225.188 63.58 225.468 62.82H227.988C227.368 64.96 225.808 66.22 223.348 66.22C220.348 66.22 218.308 64.14 218.308 60.94C218.308 57.88 220.328 55.64 223.348 55.64ZM223.288 57.8C221.988 57.8 221.128 58.68 221.008 59.92H225.428C225.408 58.64 224.568 57.8 223.288 57.8ZM240.258 51.4V66H238.018L237.818 64.64C237.258 65.46 236.338 66.22 234.598 66.22C231.878 66.22 229.898 63.9 229.898 60.92C229.898 57.94 231.878 55.64 234.618 55.64C236.058 55.64 237.118 56.24 237.658 56.96V51.4H240.258ZM235.138 58.08C233.718 58.08 232.578 59.2 232.578 60.92C232.578 62.66 233.698 63.78 235.138 63.78C236.418 63.78 237.698 62.8 237.698 60.98V60.86C237.678 59.06 236.398 58.08 235.138 58.08ZM247.62 55.64C250.3 55.64 252.32 57.32 252.32 60.92V61.72H245.26C245.34 63.06 246.28 64 247.7 64C248.7 64 249.46 63.58 249.74 62.82H252.26C251.64 64.96 250.08 66.22 247.62 66.22C244.62 66.22 242.58 64.14 242.58 60.94C242.58 57.88 244.6 55.64 247.62 55.64ZM247.56 57.8C246.26 57.8 245.4 58.68 245.28 59.92H249.7C249.68 58.64 248.84 57.8 247.56 57.8ZM259.932 55.64C262.092 55.64 263.212 57.12 263.212 59.42V66H260.592V59.98C260.592 58.8 260.092 58.16 259.152 58.16C258.152 58.16 257.352 58.96 257.352 60.64V66H254.772V55.86H256.992L257.192 57.18C257.652 56.32 258.572 55.64 259.932 55.64ZM269.327 53.4L269.307 55.86H271.627V58.22H269.287L269.247 62.32C269.247 63.36 269.567 63.78 270.567 63.78C271.067 63.78 271.347 63.72 271.627 63.64V65.92C271.307 66.04 270.787 66.14 269.987 66.14C267.767 66.14 266.627 65.24 266.647 62.94L266.687 58.22H265.027V55.86H266.687L266.707 53.4H269.327ZM278.305 55.64C280.985 55.64 283.005 57.32 283.005 60.92V61.72H275.945C276.025 63.06 276.965 64 278.385 64C279.385 64 280.145 63.58 280.425 62.82H282.945C282.325 64.96 280.765 66.22 278.305 66.22C275.305 66.22 273.265 64.14 273.265 60.94C273.265 57.88 275.285 55.64 278.305 55.64ZM278.245 57.8C276.945 57.8 276.085 58.68 275.965 59.92H280.385C280.365 58.64 279.525 57.8 278.245 57.8ZM295.215 51.4V66H292.975L292.775 64.64C292.215 65.46 291.295 66.22 289.555 66.22C286.835 66.22 284.855 63.9 284.855 60.92C284.855 57.94 286.835 55.64 289.575 55.64C291.015 55.64 292.075 56.24 292.615 56.96V51.4H295.215ZM290.095 58.08C288.675 58.08 287.535 59.2 287.535 60.92C287.535 62.66 288.655 63.78 290.095 63.78C291.375 63.78 292.655 62.8 292.655 60.98V60.86C292.635 59.06 291.355 58.08 290.095 58.08ZM28.86 90.76V93.36C28.06 93.36 27.44 93.5 26.84 93.96C26.36 94.34 26.06 94.92 26.02 95.84V101H23.42V90.86H25.66L25.9 92.48C26.24 91.58 27.14 90.76 28.86 90.76ZM35.1875 90.64C37.8675 90.64 39.8875 92.32 39.8875 95.92V96.72H32.8275C32.9075 98.06 33.8475 99 35.2675 99C36.2675 99 37.0275 98.58 37.3075 97.82H39.8275C39.2075 99.96 37.6475 101.22 35.1875 101.22C32.1875 101.22 30.1475 99.14 30.1475 95.94C30.1475 92.88 32.1675 90.64 35.1875 90.64ZM35.1275 92.8C33.8275 92.8 32.9675 93.68 32.8475 94.92H37.2675C37.2475 93.64 36.4075 92.8 35.1275 92.8ZM50.9827 90.86L47.3027 101H44.6627L41.0027 90.86H43.8027L45.7827 97.08L45.9827 97.96L46.1827 97.08L48.1627 90.86H50.9827ZM56.9398 90.64C59.6198 90.64 61.6398 92.32 61.6398 95.92V96.72H54.5798C54.6598 98.06 55.5998 99 57.0198 99C58.0198 99 58.7798 98.58 59.0598 97.82H61.5798C60.9598 99.96 59.3998 101.22 56.9398 101.22C53.9398 101.22 51.8998 99.14 51.8998 95.94C51.8998 92.88 53.9198 90.64 56.9398 90.64ZM56.8798 92.8C55.5798 92.8 54.7198 93.68 54.5998 94.92H59.0198C58.9998 93.64 58.1598 92.8 56.8798 92.8ZM69.2517 90.64C71.4117 90.64 72.5317 92.12 72.5317 94.42V101H69.9117V94.98C69.9117 93.8 69.4117 93.16 68.4717 93.16C67.4717 93.16 66.6717 93.96 66.6717 95.64V101H64.0917V90.86H66.3117L66.5117 92.18C66.9717 91.32 67.8917 90.64 69.2517 90.64ZM83.6469 90.86V101H81.4269L81.2269 99.68C80.7669 100.56 79.8669 101.22 78.5469 101.22C76.3669 101.22 75.2869 99.74 75.2869 97.44V90.86H77.8869V96.86C77.8869 98.06 78.3669 98.7 79.3269 98.7C80.2669 98.7 81.0669 97.94 81.0669 96.3V90.86H83.6469ZM91.0234 90.64C93.7034 90.64 95.7234 92.32 95.7234 95.92V96.72H88.6634C88.7434 98.06 89.6834 99 91.1034 99C92.1034 99 92.8634 98.58 93.1434 97.82H95.6634C95.0434 99.96 93.4834 101.22 91.0234 101.22C88.0234 101.22 85.9834 99.14 85.9834 95.94C85.9834 92.88 88.0034 90.64 91.0234 90.64ZM90.9634 92.8C89.6634 92.8 88.8034 93.68 88.6834 94.92H93.1034C93.0834 93.64 92.2434 92.8 90.9634 92.8ZM101.135 86.72C103.435 86.72 105.375 88.1 105.375 90.56C105.375 94.16 102.315 94.44 102.315 96.26V96.74H99.6953V96.14C99.6953 93.34 102.895 93.16 102.895 90.66C102.895 89.42 102.195 88.8 101.175 88.8C100.055 88.8 99.3353 89.52 99.3353 90.78H96.8753C96.9353 88.18 98.8353 86.72 101.135 86.72ZM101.015 98.08C101.895 98.08 102.615 98.74 102.615 99.64C102.615 100.54 101.895 101.22 101.015 101.22C100.095 101.22 99.3953 100.54 99.3953 99.64C99.3953 98.74 100.095 98.08 101.015 98.08ZM115.668 86.74C118.288 86.74 119.968 88.14 120.088 90.92H117.308C117.268 89.8 116.568 89.18 115.608 89.18C114.628 89.18 114.028 89.72 114.028 90.68C114.028 91.74 114.788 92.08 116.488 92.68C119.468 93.68 120.528 94.92 120.528 97.02C120.528 99.72 118.508 101.26 115.868 101.26C112.668 101.26 111.008 99.38 110.928 96.72H113.708C113.768 98.1 114.508 98.84 115.908 98.84C117.068 98.84 117.748 98.18 117.748 97.26C117.748 96.32 117.008 95.78 115.268 95.2C112.728 94.38 111.248 93.26 111.248 90.92C111.248 88.48 112.908 86.74 115.668 86.74ZM125.484 90.86V101H122.884V90.86H125.484ZM124.184 86.34C125.044 86.34 125.764 87.02 125.764 87.88C125.764 88.76 125.044 89.42 124.184 89.42C123.304 89.42 122.604 88.76 122.604 87.88C122.604 87.02 123.304 86.34 124.184 86.34ZM137.615 90.86V93.06H136.115C136.235 93.42 136.315 93.82 136.315 94.24C136.315 96.28 134.655 97.76 132.315 97.76C131.695 97.76 131.135 97.68 130.635 97.5C130.495 97.68 130.395 97.92 130.395 98.24C130.395 98.76 130.775 99.08 131.415 99.08H133.795C135.875 99.08 137.115 100.08 137.115 102C137.115 104.28 135.335 105.52 132.635 105.52C129.615 105.52 128.035 104.4 128.035 102.4C128.035 101.52 128.555 100.94 129.055 100.62C128.435 100.2 127.875 99.42 127.875 98.44C127.875 97.48 128.315 96.8 128.915 96.3C128.475 95.74 128.215 95.04 128.215 94.24C128.215 92.14 129.935 90.64 132.315 90.64C132.835 90.64 133.335 90.72 133.775 90.86H137.615ZM133.135 101.04H131.615C131.035 101.12 130.575 101.52 130.575 102.2C130.575 103.12 131.395 103.58 132.655 103.58C133.835 103.58 134.575 103.1 134.575 102.16C134.575 101.4 134.015 101.04 133.135 101.04ZM132.295 92.6C131.375 92.6 130.775 93.26 130.775 94.24C130.775 95.18 131.395 95.84 132.295 95.84C133.195 95.84 133.795 95.18 133.795 94.24C133.795 93.26 133.195 92.6 132.295 92.6ZM144.503 90.64C146.663 90.64 147.783 92.12 147.783 94.42V101H145.163V94.98C145.163 93.8 144.663 93.16 143.723 93.16C142.723 93.16 141.923 93.96 141.923 95.64V101H139.343V90.86H141.563L141.763 92.18C142.223 91.32 143.143 90.64 144.503 90.64ZM163.144 90.86V101H160.924L160.724 99.68C160.264 100.56 159.364 101.22 158.044 101.22C155.864 101.22 154.784 99.74 154.784 97.44V90.86H157.384V96.86C157.384 98.06 157.864 98.7 158.824 98.7C159.764 98.7 160.564 97.94 160.564 96.3V90.86H163.144ZM171.9 90.64C174.62 90.64 176.62 92.94 176.62 95.92C176.62 98.9 174.62 101.22 171.9 101.22C170.44 101.22 169.38 100.62 168.86 99.88V105.3H166.26V90.86H168.5L168.68 92.22C169.24 91.4 170.18 90.64 171.9 90.64ZM171.36 93.08C170.08 93.08 168.8 94.06 168.8 95.88V96C168.82 97.78 170.1 98.78 171.36 98.78C172.78 98.78 173.92 97.66 173.92 95.92C173.92 94.18 172.8 93.08 171.36 93.08ZM187.407 86.18C187.987 86.18 188.467 86.28 188.747 86.36V88.68C188.467 88.56 188.127 88.46 187.707 88.46C186.847 88.46 186.367 88.94 186.367 89.86V90.86H188.687V93.22H186.367V101H183.747V93.22H182.147V90.86H183.747V89.8C183.747 87.42 185.027 86.18 187.407 86.18ZM195.255 90.64C198.315 90.64 200.595 92.78 200.595 95.92C200.595 99.06 198.315 101.22 195.255 101.22C192.215 101.22 189.955 99.06 189.955 95.92C189.955 92.78 192.215 90.64 195.255 90.64ZM195.275 93C193.715 93 192.635 94.24 192.635 95.92C192.635 97.58 193.715 98.84 195.275 98.84C196.855 98.84 197.895 97.58 197.895 95.92C197.895 94.24 196.855 93 195.275 93ZM208.408 90.76V93.36C207.608 93.36 206.988 93.5 206.388 93.96C205.908 94.34 205.608 94.92 205.568 95.84V101H202.968V90.86H205.208L205.448 92.48C205.788 91.58 206.688 90.76 208.408 90.76ZM219.436 90.64C222.496 90.64 224.776 92.78 224.776 95.92C224.776 99.06 222.496 101.22 219.436 101.22C216.396 101.22 214.136 99.06 214.136 95.92C214.136 92.78 216.396 90.64 219.436 90.64ZM219.456 93C217.896 93 216.816 94.24 216.816 95.92C216.816 97.58 217.896 98.84 219.456 98.84C221.036 98.84 222.076 97.58 222.076 95.92C222.076 94.24 221.036 93 219.456 93ZM235.329 90.86V101H233.109L232.909 99.68C232.449 100.56 231.549 101.22 230.229 101.22C228.049 101.22 226.969 99.74 226.969 97.44V90.86H229.569V96.86C229.569 98.06 230.049 98.7 231.009 98.7C231.949 98.7 232.749 97.94 232.749 96.3V90.86H235.329ZM243.865 90.76V93.36C243.065 93.36 242.445 93.5 241.845 93.96C241.365 94.34 241.065 94.92 241.025 95.84V101H238.425V90.86H240.665L240.905 92.48C241.245 91.58 242.145 90.76 243.865 90.76ZM261.254 90.64C263.414 90.64 264.494 92.12 264.494 94.42V101H261.894V94.98C261.894 93.8 261.434 93.16 260.474 93.16C259.514 93.16 258.734 93.92 258.694 95.52V101H256.094V94.98C256.094 93.8 255.614 93.16 254.674 93.16C253.674 93.16 252.894 93.96 252.894 95.64V101H250.314V90.86H252.534L252.734 92.18C253.194 91.32 254.114 90.64 255.434 90.64C256.874 90.64 257.854 91.3 258.334 92.42C258.814 91.46 259.814 90.64 261.254 90.64ZM271.151 90.64C273.551 90.64 275.171 91.86 275.171 94.34V101H272.951L272.791 99.76C272.251 100.58 271.331 101.22 269.891 101.22C268.091 101.22 266.811 100.12 266.811 98.3C266.811 96.32 268.151 95.56 269.951 95.26L272.571 94.78V94.4C272.571 93.4 272.071 92.86 271.151 92.86C270.291 92.86 269.631 93.38 269.631 94.2H267.111C267.231 92.14 268.751 90.64 271.151 90.64ZM272.571 96.52L270.551 96.94C269.871 97.1 269.411 97.4 269.411 98.08C269.411 98.68 269.831 99.08 270.591 99.08C271.231 99.08 271.851 98.76 272.211 98.16C272.431 97.82 272.571 97.32 272.571 96.82V96.52ZM283.483 90.76V93.36C282.683 93.36 282.063 93.5 281.463 93.96C280.983 94.34 280.683 94.92 280.643 95.84V101H278.043V90.86H280.283L280.523 92.48C280.863 91.58 281.763 90.76 283.483 90.76ZM288.326 86.4V94.96L291.286 90.86H294.386L291.406 95.12L294.906 101H291.946L289.586 97.12L288.326 98.72V101H285.726V86.4H288.326ZM300.775 90.64C303.455 90.64 305.475 92.32 305.475 95.92V96.72H298.415C298.495 98.06 299.435 99 300.855 99C301.855 99 302.615 98.58 302.895 97.82H305.415C304.795 99.96 303.235 101.22 300.775 101.22C297.775 101.22 295.735 99.14 295.735 95.94C295.735 92.88 297.755 90.64 300.775 90.64ZM300.715 92.8C299.415 92.8 298.555 93.68 298.435 94.92H302.855C302.835 93.64 301.995 92.8 300.715 92.8ZM311.147 88.4L311.127 90.86H313.447V93.22H311.107L311.067 97.32C311.067 98.36 311.387 98.78 312.387 98.78C312.887 98.78 313.167 98.72 313.447 98.64V100.92C313.127 101.04 312.607 101.14 311.807 101.14C309.587 101.14 308.447 100.24 308.467 97.94L308.507 93.22H306.847V90.86H308.507L308.527 88.4H311.147ZM318.425 90.86V101H315.825V90.86H318.425ZM317.125 86.34C317.985 86.34 318.705 87.02 318.705 87.88C318.705 88.76 317.985 89.42 317.125 89.42C316.245 89.42 315.545 88.76 315.545 87.88C315.545 87.02 316.245 86.34 317.125 86.34ZM326.656 90.64C328.816 90.64 329.936 92.12 329.936 94.42V101H327.316V94.98C327.316 93.8 326.816 93.16 325.876 93.16C324.876 93.16 324.076 93.96 324.076 95.64V101H321.496V90.86H323.716L323.916 92.18C324.376 91.32 325.296 90.64 326.656 90.64ZM341.891 90.86V93.06H340.391C340.511 93.42 340.591 93.82 340.591 94.24C340.591 96.28 338.931 97.76 336.591 97.76C335.971 97.76 335.411 97.68 334.911 97.5C334.771 97.68 334.671 97.92 334.671 98.24C334.671 98.76 335.051 99.08 335.691 99.08H338.071C340.151 99.08 341.391 100.08 341.391 102C341.391 104.28 339.611 105.52 336.911 105.52C333.891 105.52 332.311 104.4 332.311 102.4C332.311 101.52 332.831 100.94 333.331 100.62C332.711 100.2 332.151 99.42 332.151 98.44C332.151 97.48 332.591 96.8 333.191 96.3C332.751 95.74 332.491 95.04 332.491 94.24C332.491 92.14 334.211 90.64 336.591 90.64C337.111 90.64 337.611 90.72 338.051 90.86H341.891ZM337.411 101.04H335.891C335.311 101.12 334.851 101.52 334.851 102.2C334.851 103.12 335.671 103.58 336.931 103.58C338.111 103.58 338.851 103.1 338.851 102.16C338.851 101.4 338.291 101.04 337.411 101.04ZM336.571 92.6C335.651 92.6 335.051 93.26 335.051 94.24C335.051 95.18 335.671 95.84 336.571 95.84C337.471 95.84 338.071 95.18 338.071 94.24C338.071 93.26 337.471 92.6 336.571 92.6ZM26.6 125.64C28.74 125.64 30.24 126.92 30.32 128.84H27.74C27.72 128.1 27.36 127.68 26.58 127.68C25.84 127.68 25.46 128.1 25.46 128.68C25.46 129.3 25.82 129.6 27.24 129.84C29.7 130.26 30.54 131.26 30.54 132.92C30.54 135.22 28.72 136.22 26.62 136.22C24.12 136.22 22.72 134.92 22.66 132.92H25.22C25.24 133.74 25.8 134.16 26.68 134.16C27.48 134.16 27.94 133.8 27.94 133.2C27.94 132.58 27.62 132.22 26.1 131.94C23.88 131.56 22.86 130.6 22.86 128.94C22.86 127.18 24.1 125.64 26.6 125.64ZM36.0992 123.4L36.0792 125.86H38.3992V128.22H36.0592L36.0192 132.32C36.0192 133.36 36.3392 133.78 37.3392 133.78C37.8392 133.78 38.1192 133.72 38.3992 133.64V135.92C38.0792 136.04 37.5592 136.14 36.7592 136.14C34.5392 136.14 33.3992 135.24 33.4192 132.94L33.4592 128.22H31.7992V125.86H33.4592L33.4792 123.4H36.0992ZM46.2373 125.76V128.36C45.4373 128.36 44.8173 128.5 44.2173 128.96C43.7373 129.34 43.4373 129.92 43.3973 130.84V136H40.7973V125.86H43.0373L43.2773 127.48C43.6173 126.58 44.5173 125.76 46.2373 125.76ZM51.9853 125.64C54.3853 125.64 56.0053 126.86 56.0053 129.34V136H53.7853L53.6253 134.76C53.0853 135.58 52.1653 136.22 50.7253 136.22C48.9253 136.22 47.6453 135.12 47.6453 133.3C47.6453 131.32 48.9853 130.56 50.7853 130.26L53.4053 129.78V129.4C53.4053 128.4 52.9053 127.86 51.9853 127.86C51.1253 127.86 50.4653 128.38 50.4653 129.2H47.9453C48.0653 127.14 49.5853 125.64 51.9853 125.64ZM53.4053 131.52L51.3853 131.94C50.7053 132.1 50.2453 132.4 50.2453 133.08C50.2453 133.68 50.6653 134.08 51.4253 134.08C52.0653 134.08 52.6853 133.76 53.0453 133.16C53.2653 132.82 53.4053 132.32 53.4053 131.82V131.52ZM62.0578 123.4L62.0378 125.86H64.3578V128.22H62.0178L61.9778 132.32C61.9778 133.36 62.2978 133.78 63.2978 133.78C63.7978 133.78 64.0778 133.72 64.3578 133.64V135.92C64.0378 136.04 63.5178 136.14 62.7178 136.14C60.4978 136.14 59.3578 135.24 59.3778 132.94L59.4178 128.22H57.7578V125.86H59.4178L59.4378 123.4H62.0578ZM71.0359 125.64C73.7159 125.64 75.7359 127.32 75.7359 130.92V131.72H68.6759C68.7559 133.06 69.6959 134 71.1159 134C72.1159 134 72.8759 133.58 73.1559 132.82H75.6759C75.0559 134.96 73.4959 136.22 71.0359 136.22C68.0359 136.22 65.9959 134.14 65.9959 130.94C65.9959 127.88 68.0159 125.64 71.0359 125.64ZM70.9759 127.8C69.6759 127.8 68.8159 128.68 68.6959 129.92H73.1159C73.0959 128.64 72.2559 127.8 70.9759 127.8ZM87.2478 125.86V128.06H85.7478C85.8678 128.42 85.9478 128.82 85.9478 129.24C85.9478 131.28 84.2878 132.76 81.9478 132.76C81.3278 132.76 80.7678 132.68 80.2678 132.5C80.1278 132.68 80.0278 132.92 80.0278 133.24C80.0278 133.76 80.4078 134.08 81.0478 134.08H83.4278C85.5078 134.08 86.7478 135.08 86.7478 137C86.7478 139.28 84.9678 140.52 82.2678 140.52C79.2478 140.52 77.6678 139.4 77.6678 137.4C77.6678 136.52 78.1878 135.94 78.6878 135.62C78.0678 135.2 77.5078 134.42 77.5078 133.44C77.5078 132.48 77.9478 131.8 78.5478 131.3C78.1078 130.74 77.8478 130.04 77.8478 129.24C77.8478 127.14 79.5678 125.64 81.9478 125.64C82.4678 125.64 82.9678 125.72 83.4078 125.86H87.2478ZM82.7678 136.04H81.2478C80.6678 136.12 80.2078 136.52 80.2078 137.2C80.2078 138.12 81.0278 138.58 82.2878 138.58C83.4678 138.58 84.2078 138.1 84.2078 137.16C84.2078 136.4 83.6478 136.04 82.7678 136.04ZM81.9278 127.6C81.0078 127.6 80.4078 128.26 80.4078 129.24C80.4078 130.18 81.0278 130.84 81.9278 130.84C82.8278 130.84 83.4278 130.18 83.4278 129.24C83.4278 128.26 82.8278 127.6 81.9278 127.6ZM97.8733 125.86L92.6533 140.3H89.9533L91.4933 135.88L87.8933 125.86H90.6933L92.6733 132.08L92.8733 132.96L93.0733 132.08L95.0533 125.86H97.8733ZM118.108 125.86L115.048 136H112.328L110.488 130.04L108.528 136H105.948L102.888 125.86H105.688L107.228 131.96L107.408 133.04L107.628 131.96L109.348 125.86H111.648L113.368 131.96L113.588 133.04L113.768 131.96L115.328 125.86H118.108ZM124.378 125.64C127.438 125.64 129.718 127.78 129.718 130.92C129.718 134.06 127.438 136.22 124.378 136.22C121.338 136.22 119.078 134.06 119.078 130.92C119.078 127.78 121.338 125.64 124.378 125.64ZM124.398 128C122.838 128 121.758 129.24 121.758 130.92C121.758 132.58 122.838 133.84 124.398 133.84C125.978 133.84 127.018 132.58 127.018 130.92C127.018 129.24 125.978 128 124.398 128ZM137.531 125.76V128.36C136.731 128.36 136.111 128.5 135.511 128.96C135.031 129.34 134.731 129.92 134.691 130.84V136H132.091V125.86H134.331L134.571 127.48C134.911 126.58 135.811 125.76 137.531 125.76ZM142.374 121.4V129.96L145.334 125.86H148.434L145.454 130.12L148.954 136H145.994L143.634 132.12L142.374 133.72V136H139.774V121.4H142.374ZM154.055 125.64C156.195 125.64 157.695 126.92 157.775 128.84H155.195C155.175 128.1 154.815 127.68 154.035 127.68C153.295 127.68 152.915 128.1 152.915 128.68C152.915 129.3 153.275 129.6 154.695 129.84C157.155 130.26 157.995 131.26 157.995 132.92C157.995 135.22 156.175 136.22 154.075 136.22C151.575 136.22 150.175 134.92 150.115 132.92H152.675C152.695 133.74 153.255 134.16 154.135 134.16C154.935 134.16 155.395 133.8 155.395 133.2C155.395 132.58 155.075 132.22 153.555 131.94C151.335 131.56 150.315 130.6 150.315 128.94C150.315 127.18 151.555 125.64 154.055 125.64ZM162.914 121.4V126.92C163.354 126.26 164.174 125.64 165.494 125.64C167.654 125.64 168.774 127.12 168.774 129.42V136H166.154V129.98C166.154 128.8 165.654 128.16 164.714 128.16C163.714 128.16 162.914 128.96 162.914 130.64V136H160.334V121.4H162.914ZM176.249 125.64C179.309 125.64 181.589 127.78 181.589 130.92C181.589 134.06 179.309 136.22 176.249 136.22C173.209 136.22 170.949 134.06 170.949 130.92C170.949 127.78 173.209 125.64 176.249 125.64ZM176.269 128C174.709 128 173.629 129.24 173.629 130.92C173.629 132.58 174.709 133.84 176.269 133.84C177.849 133.84 178.889 132.58 178.889 130.92C178.889 129.24 177.849 128 176.269 128ZM189.622 125.64C192.342 125.64 194.342 127.94 194.342 130.92C194.342 133.9 192.342 136.22 189.622 136.22C188.162 136.22 187.102 135.62 186.582 134.88V140.3H183.982V125.86H186.222L186.402 127.22C186.962 126.4 187.902 125.64 189.622 125.64ZM189.082 128.08C187.802 128.08 186.522 129.06 186.522 130.88V131C186.542 132.78 187.822 133.78 189.082 133.78C190.502 133.78 191.642 132.66 191.642 130.92C191.642 129.18 190.522 128.08 189.082 128.08ZM197.152 133.08C198.032 133.08 198.752 133.74 198.752 134.64C198.752 135.54 198.032 136.22 197.152 136.22C196.252 136.22 195.552 135.54 195.552 134.64C195.552 133.74 196.252 133.08 197.152 133.08Z" fill="#191919"/>
<path d="M33.465 221.433V223.388H26.887V228.471H32.476V230.449H26.887V237.533H24.794V221.433H33.465ZM38.0335 225.941V237.533H36.0555V225.941H38.0335ZM37.0445 221.019C37.8035 221.019 38.4245 221.617 38.4245 222.376C38.4245 223.112 37.8035 223.71 37.0445 223.71C36.2855 223.71 35.6875 223.112 35.6875 222.376C35.6875 221.617 36.2855 221.019 37.0445 221.019ZM47.4217 225.826V227.804C46.5017 227.804 45.7197 228.057 45.0757 228.655C44.4547 229.23 44.0407 230.127 44.0177 231.392V237.533H42.0397V225.941H43.8107L43.9487 227.965C44.3397 226.907 45.4207 225.826 47.4217 225.826ZM53.3071 225.688C55.5611 225.688 57.0791 227.16 57.1251 229.345H55.1011C55.0781 228.126 54.5031 227.528 53.2611 227.528C52.0421 227.528 51.4901 228.241 51.4901 229.092C51.4901 229.989 51.9501 230.357 53.6751 230.771C56.4351 231.415 57.4701 232.381 57.4701 234.244C57.4701 236.498 55.7221 237.786 53.3991 237.786C50.7081 237.786 49.2131 236.268 49.1671 234.014H51.1911C51.2141 235.233 51.9961 235.946 53.4451 235.946C54.7791 235.946 55.4461 235.279 55.4461 234.382C55.4461 233.416 54.9401 232.956 53.0311 232.519C50.6161 231.967 49.4661 231.116 49.4661 229.207C49.4661 227.367 50.8001 225.688 53.3071 225.688ZM63.1155 223.043L63.0925 225.941H66.0595V227.781H63.0695L63.0235 233.991C63.0235 235.256 63.3455 235.877 64.6795 235.877C65.3235 235.877 65.7145 235.785 66.0595 235.67V237.441C65.7145 237.579 65.1855 237.694 64.3345 237.694C62.1495 237.694 61.0225 236.728 61.0455 234.359L61.0915 227.781H58.9295V225.941H61.0915L61.1145 223.043H63.1155ZM86.6847 221.433V237.533H84.6147L76.6107 225.987L75.9897 224.998V237.533H73.8967V221.433H75.9437L83.9017 232.933L84.5917 233.991V221.433H86.6847ZM94.4583 225.688C97.0343 225.688 98.5983 227.16 98.5983 229.851V237.533H96.8043L96.7123 235.946C96.1373 236.981 94.8953 237.786 93.1933 237.786C91.1693 237.786 89.8123 236.544 89.8123 234.52C89.8123 232.496 91.2383 231.507 93.0553 231.162L96.5973 230.495V229.92C96.5973 228.264 95.8383 227.528 94.4583 227.528C93.1933 227.528 92.0893 228.218 92.0893 229.644H90.1343C90.2033 227.413 91.9053 225.688 94.4583 225.688ZM96.5973 232.22L93.4233 232.91C92.5493 233.117 91.8133 233.462 91.8133 234.497C91.8133 235.417 92.4573 235.946 93.5843 235.946C94.5503 235.946 95.4013 235.532 95.9303 234.796C96.3213 234.267 96.5973 233.462 96.5973 232.657V232.22ZM114.151 225.688C116.658 225.688 117.9 227.482 117.9 230.035V237.533H115.922V230.357C115.922 228.563 115.094 227.62 113.691 227.62C112.196 227.62 111.069 228.908 111.023 231.162V237.533H109.045V230.357C109.045 228.563 108.217 227.62 106.814 227.62C105.296 227.62 104.146 228.954 104.146 231.323V237.533H102.168V225.941H103.939L104.054 227.528C104.583 226.516 105.687 225.688 107.274 225.688C108.976 225.688 110.103 226.539 110.655 227.896C111.253 226.746 112.357 225.688 114.151 225.688ZM126.16 225.688C129.196 225.688 131.427 227.666 131.427 231.576V232.519H122.618C122.779 234.658 124.228 235.946 126.206 235.946C127.747 235.946 128.874 235.279 129.334 234.06H131.312C130.622 236.36 128.828 237.786 126.16 237.786C122.894 237.786 120.571 235.417 120.571 231.76C120.571 228.264 122.779 225.688 126.16 225.688ZM126.16 227.528C124.159 227.528 122.871 228.908 122.641 230.748H129.426C129.403 228.77 128.092 227.528 126.16 227.528Z" fill="#191919"/>
<line x1="22" y1="260.571" x2="367" y2="260.571" stroke="#191919"/>
<path d="M26.864 295.214V309.359H34.04V311.314H24.771V295.214H26.864ZM40.5714 299.469C43.1474 299.469 44.7114 300.941 44.7114 303.632V311.314H42.9174L42.8254 309.727C42.2504 310.762 41.0084 311.567 39.3064 311.567C37.2824 311.567 35.9254 310.325 35.9254 308.301C35.9254 306.277 37.3514 305.288 39.1684 304.943L42.7104 304.276V303.701C42.7104 302.045 41.9514 301.309 40.5714 301.309C39.3064 301.309 38.2024 301.999 38.2024 303.425H36.2474C36.3164 301.194 38.0184 299.469 40.5714 299.469ZM42.7104 306.001L39.5364 306.691C38.6624 306.898 37.9264 307.243 37.9264 308.278C37.9264 309.198 38.5704 309.727 39.6974 309.727C40.6634 309.727 41.5144 309.313 42.0434 308.577C42.4344 308.048 42.7104 307.243 42.7104 306.438V306.001ZM51.5696 299.469C53.8236 299.469 55.3416 300.941 55.3876 303.126H53.3636C53.3406 301.907 52.7656 301.309 51.5236 301.309C50.3046 301.309 49.7526 302.022 49.7526 302.873C49.7526 303.77 50.2126 304.138 51.9376 304.552C54.6976 305.196 55.7326 306.162 55.7326 308.025C55.7326 310.279 53.9846 311.567 51.6616 311.567C48.9706 311.567 47.4756 310.049 47.4296 307.795H49.4536C49.4766 309.014 50.2586 309.727 51.7076 309.727C53.0416 309.727 53.7086 309.06 53.7086 308.163C53.7086 307.197 53.2026 306.737 51.2936 306.3C48.8786 305.748 47.7286 304.897 47.7286 302.988C47.7286 301.148 49.0626 299.469 51.5696 299.469ZM61.378 296.824L61.355 299.722H64.322V301.562H61.332L61.286 307.772C61.286 309.037 61.608 309.658 62.942 309.658C63.586 309.658 63.977 309.566 64.322 309.451V311.222C63.977 311.36 63.448 311.475 62.597 311.475C60.412 311.475 59.285 310.509 59.308 308.14L59.354 301.562H57.192V299.722H59.354L59.377 296.824H61.378ZM84.9472 295.214V311.314H82.8772L74.8732 299.768L74.2522 298.779V311.314H72.1592V295.214H74.2062L82.1642 306.714L82.8542 307.772V295.214H84.9472ZM92.7208 299.469C95.2968 299.469 96.8608 300.941 96.8608 303.632V311.314H95.0668L94.9748 309.727C94.3998 310.762 93.1578 311.567 91.4558 311.567C89.4318 311.567 88.0748 310.325 88.0748 308.301C88.0748 306.277 89.5008 305.288 91.3178 304.943L94.8598 304.276V303.701C94.8598 302.045 94.1008 301.309 92.7208 301.309C91.4558 301.309 90.3518 301.999 90.3518 303.425H88.3968C88.4658 301.194 90.1678 299.469 92.7208 299.469ZM94.8598 306.001L91.6858 306.691C90.8118 306.898 90.0758 307.243 90.0758 308.278C90.0758 309.198 90.7198 309.727 91.8468 309.727C92.8128 309.727 93.6638 309.313 94.1928 308.577C94.5838 308.048 94.8598 307.243 94.8598 306.438V306.001ZM112.413 299.469C114.92 299.469 116.162 301.263 116.162 303.816V311.314H114.184V304.138C114.184 302.344 113.356 301.401 111.953 301.401C110.458 301.401 109.331 302.689 109.285 304.943V311.314H107.307V304.138C107.307 302.344 106.479 301.401 105.076 301.401C103.558 301.401 102.408 302.735 102.408 305.104V311.314H100.43V299.722H102.201L102.316 301.309C102.845 300.297 103.949 299.469 105.536 299.469C107.238 299.469 108.365 300.32 108.917 301.677C109.515 300.527 110.619 299.469 112.413 299.469ZM124.423 299.469C127.459 299.469 129.69 301.447 129.69 305.357V306.3H120.881C121.042 308.439 122.491 309.727 124.469 309.727C126.01 309.727 127.137 309.06 127.597 307.841H129.575C128.885 310.141 127.091 311.567 124.423 311.567C121.157 311.567 118.834 309.198 118.834 305.541C118.834 302.045 121.042 299.469 124.423 299.469ZM124.423 301.309C122.422 301.309 121.134 302.689 120.904 304.529H127.689C127.666 302.551 126.355 301.309 124.423 301.309Z" fill="#191919"/>
<line x1="22" y1="334.352" x2="367" y2="334.352" stroke="#191919"/>
<path d="M31.878 368.696C35.673 368.696 38.134 370.674 39.031 373.779H36.708C36.041 371.916 34.523 370.651 31.878 370.651C28.474 370.651 26.105 373.365 26.105 377.045C26.105 380.702 28.474 383.439 31.901 383.439C34.569 383.439 36.156 382.082 36.8 380.242H39.054C38.157 383.485 35.696 385.394 31.901 385.394C27.232 385.394 23.92 381.829 23.92 377.045C23.92 372.261 27.232 368.696 31.878 368.696ZM46.7264 373.25C50.1764 373.25 52.5914 375.78 52.5914 379.299C52.5914 382.818 50.1764 385.348 46.7264 385.348C43.2534 385.348 40.8384 382.818 40.8384 379.299C40.8384 375.78 43.2534 373.25 46.7264 373.25ZM46.7494 375.09C44.4264 375.09 42.8854 376.884 42.8854 379.299C42.8854 381.691 44.4264 383.508 46.7494 383.508C49.0494 383.508 50.5444 381.691 50.5444 379.299C50.5444 376.884 49.0494 375.09 46.7494 375.09ZM67.4511 373.25C69.9581 373.25 71.2001 375.044 71.2001 377.597V385.095H69.2221V377.919C69.2221 376.125 68.3941 375.182 66.9911 375.182C65.4961 375.182 64.3691 376.47 64.3231 378.724V385.095H62.3451V377.919C62.3451 376.125 61.5171 375.182 60.1141 375.182C58.5961 375.182 57.4461 376.516 57.4461 378.885V385.095H55.4681V373.503H57.2391L57.3541 375.09C57.8831 374.078 58.9871 373.25 60.5741 373.25C62.2761 373.25 63.4031 374.101 63.9551 375.458C64.5531 374.308 65.6571 373.25 67.4511 373.25ZM80.841 373.25C84.107 373.25 86.246 375.872 86.246 379.299C86.246 382.726 84.084 385.348 80.818 385.348C78.886 385.348 77.598 384.497 76.977 383.508V390.04H74.976V373.503H76.77L76.862 375.205C77.575 374.17 78.748 373.25 80.841 373.25ZM80.542 375.113C78.656 375.113 76.931 376.677 76.931 379.184V379.299C76.931 381.875 78.679 383.462 80.519 383.462C82.681 383.462 84.199 381.737 84.199 379.299C84.199 376.838 82.75 375.113 80.542 375.113ZM93.0866 373.25C95.6626 373.25 97.2266 374.722 97.2266 377.413V385.095H95.4326L95.3406 383.508C94.7656 384.543 93.5236 385.348 91.8216 385.348C89.7976 385.348 88.4406 384.106 88.4406 382.082C88.4406 380.058 89.8666 379.069 91.6836 378.724L95.2256 378.057V377.482C95.2256 375.826 94.4666 375.09 93.0866 375.09C91.8216 375.09 90.7176 375.78 90.7176 377.206H88.7626C88.8316 374.975 90.5336 373.25 93.0866 373.25ZM95.2256 379.782L92.0516 380.472C91.1776 380.679 90.4416 381.024 90.4416 382.059C90.4416 382.979 91.0856 383.508 92.2126 383.508C93.1786 383.508 94.0296 383.094 94.5586 382.358C94.9496 381.829 95.2256 381.024 95.2256 380.219V379.782ZM105.948 373.25C108.432 373.25 109.72 375.044 109.72 377.597V385.095H107.719V377.919C107.719 376.125 106.868 375.182 105.465 375.182C103.947 375.182 102.774 376.516 102.774 378.885V385.095H100.796V373.503H102.567L102.682 375.09C103.211 374.078 104.315 373.25 105.948 373.25ZM122.79 373.503L116.465 390.04H114.372L116.304 384.934L111.957 373.503H114.073L117.132 381.829L117.362 382.703L117.592 381.829L120.651 373.503H122.79ZM142.732 368.995V378.724C142.732 383.071 140.409 385.394 136.43 385.394C132.451 385.394 130.105 383.071 130.105 378.724V368.995H132.198V378.724C132.198 381.806 133.601 383.439 136.43 383.439C139.19 383.439 140.639 381.829 140.639 378.724V368.995H142.732ZM150.795 368.995C154.015 368.995 156.062 370.927 156.062 373.848C156.062 375.964 154.912 377.551 153.003 378.218L156.752 385.095H154.36L150.841 378.563H148.495V385.095H146.402V368.995H150.795ZM150.795 370.95H148.495V376.677H150.795C152.658 376.677 153.946 375.665 153.946 373.848C153.946 372.008 152.681 370.95 150.795 370.95ZM161.373 368.995V383.14H168.549V385.095H159.28V368.995H161.373Z" fill="#191919"/>
<line x1="22" y1="408.134" x2="367" y2="408.134" stroke="#191919"/>
<path d="M33.649 442.776V444.731H26.887V449.607H32.844V451.562H26.887V456.921H33.649V458.876H24.794V442.776H33.649ZM48.7556 447.031C51.2626 447.031 52.5046 448.825 52.5046 451.378V458.876H50.5266V451.7C50.5266 449.906 49.6986 448.963 48.2956 448.963C46.8006 448.963 45.6736 450.251 45.6276 452.505V458.876H43.6496V451.7C43.6496 449.906 42.8216 448.963 41.4186 448.963C39.9006 448.963 38.7506 450.297 38.7506 452.666V458.876H36.7726V447.284H38.5436L38.6586 448.871C39.1876 447.859 40.2916 447.031 41.8786 447.031C43.5806 447.031 44.7076 447.882 45.2596 449.239C45.8576 448.089 46.9616 447.031 48.7556 447.031ZM60.0755 447.031C62.6515 447.031 64.2155 448.503 64.2155 451.194V458.876H62.4215L62.3295 457.289C61.7545 458.324 60.5125 459.129 58.8105 459.129C56.7865 459.129 55.4295 457.887 55.4295 455.863C55.4295 453.839 56.8555 452.85 58.6725 452.505L62.2145 451.838V451.263C62.2145 449.607 61.4555 448.871 60.0755 448.871C58.8105 448.871 57.7065 449.561 57.7065 450.987H55.7515C55.8205 448.756 57.5225 447.031 60.0755 447.031ZM62.2145 453.563L59.0405 454.253C58.1665 454.46 57.4305 454.805 57.4305 455.84C57.4305 456.76 58.0745 457.289 59.2015 457.289C60.1675 457.289 61.0185 456.875 61.5475 456.139C61.9385 455.61 62.2145 454.805 62.2145 454V453.563ZM69.8317 447.284V458.876H67.8537V447.284H69.8317ZM68.8427 442.362C69.6017 442.362 70.2227 442.96 70.2227 443.719C70.2227 444.455 69.6017 445.053 68.8427 445.053C68.0837 445.053 67.4857 444.455 67.4857 443.719C67.4857 442.96 68.0837 442.362 68.8427 442.362ZM75.747 442.086V458.876H73.769V442.086H75.747ZM90.8414 445.467L90.5424 446.341L88.0124 452.666H93.6934L91.1404 446.341L90.8414 445.467ZM91.9454 442.776L98.4084 458.876H96.1084L94.4064 454.621H87.2994L85.6204 458.876H83.3204L89.7834 442.776H91.9454ZM111.206 442.086V458.876H109.435L109.32 457.174C108.607 458.209 107.434 459.129 105.341 459.129C102.075 459.129 99.9362 456.507 99.9362 453.08C99.9362 449.653 102.098 447.031 105.364 447.031C107.296 447.031 108.584 447.882 109.228 448.871V442.086H111.206ZM105.663 448.917C103.501 448.917 101.983 450.642 101.983 453.08C101.983 455.541 103.432 457.266 105.64 457.266C107.526 457.266 109.251 455.702 109.251 453.195V453.08C109.251 450.504 107.503 448.917 105.663 448.917ZM125.32 442.086V458.876H123.549L123.434 457.174C122.721 458.209 121.548 459.129 119.455 459.129C116.189 459.129 114.05 456.507 114.05 453.08C114.05 449.653 116.212 447.031 119.478 447.031C121.41 447.031 122.698 447.882 123.342 448.871V442.086H125.32ZM119.777 448.917C117.615 448.917 116.097 450.642 116.097 453.08C116.097 455.541 117.546 457.266 119.754 457.266C121.64 457.266 123.365 455.702 123.365 453.195V453.08C123.365 450.504 121.617 448.917 119.777 448.917ZM134.626 447.169V449.147C133.706 449.147 132.924 449.4 132.28 449.998C131.659 450.573 131.245 451.47 131.222 452.735V458.876H129.244V447.284H131.015L131.153 449.308C131.544 448.25 132.625 447.169 134.626 447.169ZM141.644 447.031C144.68 447.031 146.911 449.009 146.911 452.919V453.862H138.102C138.263 456.001 139.712 457.289 141.69 457.289C143.231 457.289 144.358 456.622 144.818 455.403H146.796C146.106 457.703 144.312 459.129 141.644 459.129C138.378 459.129 136.055 456.76 136.055 453.103C136.055 449.607 138.263 447.031 141.644 447.031ZM141.644 448.871C139.643 448.871 138.355 450.251 138.125 452.091H144.91C144.887 450.113 143.576 448.871 141.644 448.871ZM153.3 447.031C155.554 447.031 157.072 448.503 157.118 450.688H155.094C155.071 449.469 154.496 448.871 153.254 448.871C152.035 448.871 151.483 449.584 151.483 450.435C151.483 451.332 151.943 451.7 153.668 452.114C156.428 452.758 157.463 453.724 157.463 455.587C157.463 457.841 155.715 459.129 153.392 459.129C150.701 459.129 149.206 457.611 149.16 455.357H151.184C151.207 456.576 151.989 457.289 153.438 457.289C154.772 457.289 155.439 456.622 155.439 455.725C155.439 454.759 154.933 454.299 153.024 453.862C150.609 453.31 149.459 452.459 149.459 450.55C149.459 448.71 150.793 447.031 153.3 447.031ZM163.752 447.031C166.006 447.031 167.524 448.503 167.57 450.688H165.546C165.523 449.469 164.948 448.871 163.706 448.871C162.487 448.871 161.935 449.584 161.935 450.435C161.935 451.332 162.395 451.7 164.12 452.114C166.88 452.758 167.915 453.724 167.915 455.587C167.915 457.841 166.167 459.129 163.844 459.129C161.153 459.129 159.658 457.611 159.612 455.357H161.636C161.659 456.576 162.441 457.289 163.89 457.289C165.224 457.289 165.891 456.622 165.891 455.725C165.891 454.759 165.385 454.299 163.476 453.862C161.061 453.31 159.911 452.459 159.911 450.55C159.911 448.71 161.245 447.031 163.752 447.031Z" fill="#191919"/>
<line x1="22" y1="481.915" x2="367" y2="481.915" stroke="#191919"/>
<path d="M31.878 516.258C35.673 516.258 38.134 518.236 39.031 521.341H36.708C36.041 519.478 34.523 518.213 31.878 518.213C28.474 518.213 26.105 520.927 26.105 524.607C26.105 528.264 28.474 531.001 31.901 531.001C34.569 531.001 36.156 529.644 36.8 527.804H39.054C38.157 531.047 35.696 532.956 31.901 532.956C27.232 532.956 23.92 529.391 23.92 524.607C23.92 519.823 27.232 516.258 31.878 516.258ZM46.7264 520.812C50.1764 520.812 52.5914 523.342 52.5914 526.861C52.5914 530.38 50.1764 532.91 46.7264 532.91C43.2534 532.91 40.8384 530.38 40.8384 526.861C40.8384 523.342 43.2534 520.812 46.7264 520.812ZM46.7494 522.652C44.4264 522.652 42.8854 524.446 42.8854 526.861C42.8854 529.253 44.4264 531.07 46.7494 531.07C49.0494 531.07 50.5444 529.253 50.5444 526.861C50.5444 524.446 49.0494 522.652 46.7494 522.652ZM64.1161 521.065V532.657H62.3451L62.2301 531.07C61.7011 532.174 60.6431 532.91 59.0331 532.91C56.5261 532.91 55.3071 531.139 55.3071 528.563V521.065H57.2851V528.241C57.2851 530.058 58.0901 531.001 59.4931 531.001C60.9881 531.001 62.1381 529.736 62.1381 527.505V521.065H64.1161ZM73.0715 520.812C75.5555 520.812 76.8435 522.606 76.8435 525.159V532.657H74.8425V525.481C74.8425 523.687 73.9915 522.744 72.5885 522.744C71.0705 522.744 69.8975 524.078 69.8975 526.447V532.657H67.9195V521.065H69.6905L69.8055 522.652C70.3345 521.64 71.4385 520.812 73.0715 520.812ZM83.1057 518.167L83.0827 521.065H86.0497V522.905H83.0597L83.0137 529.115C83.0137 530.38 83.3357 531.001 84.6697 531.001C85.3137 531.001 85.7047 530.909 86.0497 530.794V532.565C85.7047 532.703 85.1757 532.818 84.3247 532.818C82.1397 532.818 81.0127 531.852 81.0357 529.483L81.0817 522.905H78.9197V521.065H81.0817L81.1047 518.167H83.1057ZM94.3217 520.95V522.928C93.4017 522.928 92.6197 523.181 91.9757 523.779C91.3547 524.354 90.9407 525.251 90.9177 526.516V532.657H88.9397V521.065H90.7107L90.8487 523.089C91.2397 522.031 92.3207 520.95 94.3217 520.95ZM106.506 521.065L100.181 537.602H98.0879L100.02 532.496L95.6729 521.065H97.7889L100.848 529.391L101.078 530.265L101.308 529.391L104.367 521.065H106.506Z" fill="#191919"/>
<line x1="22" y1="555.696" x2="367" y2="555.696" stroke="#191919"/>
<path d="M335 524.413L343 533.494L351 524.413" stroke="#191919" stroke-width="2"/>
<rect x="23" y="618.626" width="144" height="40.8634" rx="20.4317" fill="#FFBB00"/>
<path d="M68.868 631.649C70.964 631.649 72.308 632.769 72.404 634.993H70.18C70.148 634.097 69.588 633.601 68.82 633.601C68.036 633.601 67.556 634.033 67.556 634.801C67.556 635.649 68.164 635.921 69.524 636.401C71.908 637.201 72.756 638.193 72.756 639.873C72.756 642.033 71.14 643.265 69.028 643.265C66.468 643.265 65.14 641.761 65.076 639.633H67.3C67.348 640.737 67.94 641.329 69.06 641.329C69.988 641.329 70.532 640.801 70.532 640.065C70.532 639.313 69.94 638.881 68.548 638.417C66.516 637.761 65.332 636.865 65.332 634.993C65.332 633.041 66.66 631.649 68.868 631.649ZM76.6093 631.857V643.057H74.4173V631.857H76.6093ZM83.942 631.649C86.79 631.649 88.486 633.217 89.078 635.473H86.662C86.262 634.369 85.446 633.697 83.894 633.697C81.958 633.697 80.63 635.281 80.63 637.441C80.63 639.617 81.958 641.217 83.99 641.217C85.606 641.217 86.694 640.449 86.806 639.057H84.134V637.009H89.158V637.985C89.158 641.345 87.062 643.265 83.99 643.265C80.662 643.265 78.342 640.801 78.342 637.441C78.342 634.097 80.662 631.649 83.942 631.649ZM100.545 631.857V643.057H98.3368L93.7288 636.289L93.2968 635.553V643.057H91.1048V631.857H93.2808L97.8728 638.641L98.3368 639.409V631.857H100.545ZM114.924 631.857V638.545C114.924 641.537 113.276 643.265 110.38 643.265C107.468 643.265 105.82 641.537 105.82 638.545V631.857H108.028V638.545C108.028 640.225 108.764 641.217 110.38 641.217C111.964 641.217 112.716 640.241 112.716 638.545V631.857H114.924ZM120.658 631.857C123.09 631.857 124.594 633.345 124.594 635.473C124.594 637.569 123.09 639.089 120.658 639.089H119.25V643.057H117.058V631.857H120.658ZM120.658 633.905H119.25V637.025H120.658C121.698 637.025 122.354 636.465 122.354 635.473C122.354 634.465 121.698 633.905 120.658 633.905Z" fill="#191919"/>
</svg>
