<svg width="224" height="224" viewBox="0 0 224 224" fill="none" xmlns="http://www.w3.org/2000/svg">
<circle cx="112" cy="112" r="112" fill="white"/>
<g clip-path="url(#clip0_215_9121)">
<path d="M135.335 78.4733C135.122 77.6413 134.991 76.7909 134.945 75.934C134.866 74.1797 135.494 72.466 136.694 71.167C138.067 69.8808 139.896 69.1737 141.791 69.1961V65.41H92.5532V69.1961C94.7207 69.1961 96.2742 70.1128 97.9487 71.6254C99.7719 73.3999 101.179 75.5465 102.07 77.9141L146.424 183.273H150.015L164.461 148.96L137.4 84.7345C136.519 82.7141 135.828 80.6183 135.335 78.4733Z" fill="#303D78"/>
<path d="M36.6548 65.41V69.1961C38.8223 69.1961 40.3758 70.1128 42.0502 71.6254C43.8734 73.3999 45.2801 75.5465 46.1712 77.9141L90.5255 183.273H94.1162L108.563 148.96L73.3531 65.41H36.6548Z" fill="#303D78"/>
<path d="M171.745 93.8743C180.361 93.8743 187.346 86.9914 187.346 78.5009C187.346 70.0104 180.361 63.1274 171.745 63.1274C163.129 63.1274 156.145 70.0104 156.145 78.5009C156.145 86.9914 163.129 93.8743 171.745 93.8743Z" fill="#303D78"/>
</g>
<defs>
<clipPath id="clip0_215_9121">
<rect width="150.691" height="120.145" fill="white" transform="translate(36.6548 63.1274)"/>
</clipPath>
</defs>
</svg>
