<?xml version="1.0" encoding="utf-8"?>
<svg width="19px" height="18px" viewBox="0 0 19 18" version="1.1" xmlns:xlink="http://www.w3.org/1999/xlink" xmlns="http://www.w3.org/2000/svg">
  <desc>Created with Lunacy</desc>
  <path d="M9.06434 0.8039C9.00657 0.351308 8.5839 0 8.07107 0C7.51878 0 7.07107 0.407434 7.07107 0.910029L7.07107 13.6274L1.70711 8.26347L1.61989 8.18577C1.22737 7.87494 0.655523 7.90084 0.292894 8.26347C-0.0976307 8.654 -0.0976307 9.28716 0.292894 9.67769L7.36396 16.7488L7.45118 16.8265C7.8437 17.1373 8.41554 17.1114 8.77817 16.7488L15.8492 9.67769L15.9269 9.59047C16.2378 9.19795 16.2119 8.6261 15.8492 8.26347L15.762 8.18577C15.3695 7.87494 14.7977 7.90084 14.435 8.26347L9.07107 13.6274L9.07107 0.910029L9.06434 0.8039Z" transform="matrix(-4.371139E-08 -1 1 -4.371139E-08 0.5 16.64214)" id="arrow" fill="#191919" fillRule="evenodd" stroke="none" />
</svg>