<?xml version="1.0" encoding="utf-8"?>
<!-- Generator: Adobe Illustrator 20.1.0, SVG Export Plug-In . SVG Version: 6.00 Build 0)  -->
<svg version="1.1" id="Layer_1" xmlns="http://www.w3.org/2000/svg" xmlns:xlink="http://www.w3.org/1999/xlink" x="0px" y="0px"
	 viewBox="0 0 33 32" style="enable-background:new 0 0 33 32;" xml:space="preserve">
<style type="text/css">
	.st0{fill:#191919;}
</style>
<desc>Created with Lunacy</desc>
<path id="icon_x2F_arrow_x2F_large" class="st0" d="M1.3,15c-0.5,0.1-0.9,0.5-0.9,1c0,0.6,0.4,1,1,1h27.8L16.7,29.4l-0.1,0.1
	c-0.3,0.4-0.3,1,0.1,1.3c0.4,0.4,1,0.4,1.4,0l14.2-14.1l0.1-0.1c0.3-0.4,0.3-1-0.1-1.3L18.2,1.2l-0.1-0.1c-0.4-0.3-1-0.3-1.3,0.1
	l-0.1,0.1c-0.3,0.4-0.3,1,0.1,1.3L29.2,15H1.5H1.3z"/>
</svg>
