<svg xmlns="http://www.w3.org/2000/svg" xmlns:xlink="http://www.w3.org/1999/xlink" width="768" height="431.815" viewBox="0 0 768 431.815"><defs><style>.a{fill:#303d78;}.b{clip-path:url(#a);}.c{fill:#3d55cc;}</style><clipPath id="a"><rect class="a" width="768" height="431.815"/></clipPath></defs><rect class="a" width="768" height="431.815"/><g class="b"><path class="c" d="M811.568,1097.167c-5.827-5.085-11.691-4.318-18.05-3.8-11.381.92-23.311-6.5-28.831-17.953-4.277-8.88-2.986-18.649,6.774-26.9,12.057-10.2,25.5-18.8,38.683-27.573,5.074-3.375,9.612-6.131,10.747-12.988,1.067-6.46,6.41-9.685,12.577-9.08,24.114,2.362,38.787,22.894,37.362,44.7-.224,3.449-3.83,8.251-6.968,9.394-2.284.833-7.684-2.556-9.381-5.437-3.056-5.181-4.377-11.392-6.9-18.531-8.424.334-15.544,3.931-21.309,10.484-4.09,4.647-7.913,9.558-12.281,13.921-1.959,1.961-4.88,3.825-7.509,4.05-4.8.406-8.675.692-8.1,7.025.524,5.805,3,9.7,9.164,10.472,4.271.536,8.551,1.052,12.8,1.751,6.061,1,11.038,4.069,11.97,10.344a11.586,11.586,0,0,1-3.521,9.033,15.691,15.691,0,0,1-9.84,3.84A11.008,11.008,0,0,1,811.568,1097.167Zm107.062-8.49a29.856,29.856,0,0,1-14.139-9.767,28.258,28.258,0,0,1-4.352-7.628c-2.105-5.572-2.6-10.479-1.52-15,1.07-4.469,3.7-8.639,8.051-12.745a9.267,9.267,0,0,0,2.427-6,32.359,32.359,0,0,1,.974-8.107,15.767,15.767,0,0,1,2.869-5.884,14.116,14.116,0,0,1,4.992-3.889,25.636,25.636,0,0,1,7.343-2.124,20.7,20.7,0,0,1,3.134-.237,23.5,23.5,0,0,1,13.115,4.124,21.338,21.338,0,0,1,4.92,4.617,17.3,17.3,0,0,1,2.97,5.842,72.344,72.344,0,0,1,2.923,20.846,64.586,64.586,0,0,1-1.092,10.886,73.2,73.2,0,0,1-3.147,11.441,27.839,27.839,0,0,1-2.9,6.37,17.6,17.6,0,0,1-4.112,4.592c-3.205,2.485-7.377,3.8-12.753,4.013-.36.014-.725.022-1.085.022A28.15,28.15,0,0,1,918.63,1088.677Zm12.763-48.932c-2.169,1.753-4.412,3.565-6.569,5.406a5.692,5.692,0,0,0-1,1.27,6.012,6.012,0,0,1-.948,1.226c-3.671,3.309-5.375,6.125-5.527,9.13s1.245,6.357,4.532,10.851l.17-.04c7.529-1.779,11.307-2.672,13.22-4.953a8.48,8.48,0,0,0,1.669-4.739,76.4,76.4,0,0,0,.167-8.5,25.053,25.053,0,0,0-1.98-8c-.439-1.2-.892-2.441-1.247-3.663C933.053,1038.4,932.209,1039.086,931.394,1039.745Zm165.539,33.152c-5.355-4.849-5.918-10.124-4.571-15.866,1.505-6.412,6.593-10.09,13.034-10.13,6.919-.043,13.849,1.09,20.765,1.8,2.534.261,5.039.8,7.558,1.213.708-.581,1.419-1.158,2.13-1.739-3.07-7.182-5.842-14.521-9.458-21.416-.706-1.345-4.719-1.457-7.141-1.275-4.406.335-8.868,2.276-13.127,1.824-8.3-.886-13.443-7.519-13.951-16.25-.474-8.132,3.291-13.852,11.819-15.9,13.854-3.313,26.865-.276,37.918,8.494,3.036,2.41,4.061,7.8,5.256,12.037,2.667,9.467,4.375,19.225,7.4,28.564,2.424,7.485,4.767,14.58-1.213,21.189a19.45,19.45,0,0,1-7.352,5.063c-8,2.986-16.028,6.694-24.351,7.81a59.532,59.532,0,0,1-7.872.617C1107.945,1078.944,1102.151,1077.622,1096.933,1072.9Zm-70.12-.139c-7.775-.629-15.588-1.61-22.481-2.476-2.471-.31-4.805-.6-7.03-.868a45.608,45.608,0,0,1-7.851-3.858,55.732,55.732,0,0,1-7.278-5.347,64.9,64.9,0,0,1-6.533-6.534,69.972,69.972,0,0,1-5.617-7.421,68.808,68.808,0,0,1-4.532-8.006,61.441,61.441,0,0,1-3.275-8.29,50.052,50.052,0,0,1-1.847-8.273,38.143,38.143,0,0,1-.249-7.955c.229-2.879-.744-5.9-1.685-8.823l-.144-.448a20.173,20.173,0,0,1-.807-9.171,19,19,0,0,1,3.13-7.993,19.963,19.963,0,0,1,15.482-8.519,22.149,22.149,0,0,0,11.845-4.386,21.6,21.6,0,0,1,4.706-2.941,10.859,10.859,0,0,1,8.487-.294,18.577,18.577,0,0,1,4.178,2.232c6.293,4.342,12.817,8.573,19.127,12.664,8.066,5.23,16.406,10.638,24.344,16.333a29.505,29.505,0,0,1,9.247,10.915,39.846,39.846,0,0,1,3.839,14.124c.027.29.061.589.094.878v0a10.974,10.974,0,0,1-.018,3.92c-.191.728-.355,1.529-.53,2.376a30.1,30.1,0,0,1-.975,3.9,4.224,4.224,0,0,1-1.741,2.492c-5.937,3.08-8.553,8.875-11.083,14.478a50.119,50.119,0,0,1-4.648,8.727,18.783,18.783,0,0,1-3.29,3.563,16.241,16.241,0,0,1-4.454,2.614c-.49.193-1,.4-1.487.609a17.563,17.563,0,0,1-6.382,1.8C1027.172,1072.779,1026.99,1072.772,1026.813,1072.758ZM988.38,1002.53c-2.033.726-4.336,1.548-6.85,2.282a28.045,28.045,0,0,1,3.331,3.038,19.494,19.494,0,0,1,2.323,3.049,15.091,15.091,0,0,1,1.428,3.047,13.712,13.712,0,0,1,.645,3.033,16.107,16.107,0,0,1-.613,5.976,29.143,29.143,0,0,1-2.4,5.775,15.827,15.827,0,0,0,.31,15.711c3.15,5.239,8.884,8.243,15.733,8.244a24.807,24.807,0,0,0,2.887-.172c14.521-1.708,22.436-12.223,29.3-22.846.515-.8.319-2.595-.1-4.023a4.546,4.546,0,0,0-1.633-2.74,12.017,12.017,0,0,1-3.178-1.963,5.133,5.133,0,0,1-1.529-2.267,5.314,5.314,0,0,1,.012-3,14.023,14.023,0,0,1,1.591-3.546c1.318-2.217,1.641-4.2.933-5.746-.719-1.569-2.458-2.639-5.029-3.093-.934-.165-1.886-.335-2.806-.5l-.016,0c-7.638-1.366-15.535-2.78-23.321-2.906l-.228,0C995.807,999.879,992.365,1001.108,988.38,1002.53Zm-276.694,31.9a8.151,8.151,0,0,1-5.1-12.633,49.335,49.335,0,0,1,11.179-11.375c3.68-2.738,3.794-5.2,3.366-9.456-.64-6.39.621-12.961.981-19.461.18-3.25.161-6.516.233-9.775q-1.56-.667-3.127-1.333c-3.455,3.91-7.074,7.689-10.328,11.762-3.349,4.194-6.114,8.859-9.533,12.989-7.377,8.91-17.109,11.355-27.591,6.807-5.591-2.422-8.118-6.775-6.235-13.082,5.275-17.671,44.031-44.912,62.78-44.322,8.6.27,13.7,5.412,14.145,12.76.655,10.816-.655,21.782-1.619,32.64-.7,7.887-2.551,15.671-3.216,23.557-.68,8.035-15.912,21.049-24.538,21.049A7.28,7.28,0,0,1,711.686,1034.428Zm172.12-48.637a46.148,46.148,0,0,1-12.5-17.236c-1.362-3.47,1.124-10.006,3.979-13.307,6.446-7.472,14.737-13.316,21.31-20.691,11.868-13.32,32.506-11.444,43.545-3.587,1.088.774,2.585,1.641,2.889,2.747,3.086,11.222,7.8,22.46,8.076,33.785.122,5.14-7.99,11.493-13.65,15.414-4.42,3.065-9.042-.434-9.753-5.939a16.566,16.566,0,0,1,1.967-9.208c6.165-11.685,1.352-20.81-11.908-21.237-11.124-.356-21.2,3.442-30,10.121-6.581,5-6.288,12.516.215,17.757,5.056,4.075,10.18,8.058,16.053,12.7a18.126,18.126,0,0,1-9.593,3.057A16.163,16.163,0,0,1,883.806,985.791Zm-94.751-8.181c-15.507-1.713-23.379-16.609-14.7-29.441,2.032-3,6.928-4.734,10.846-5.7,4.637-1.15,9.649-.8,14.494-1.158,8.919-.654,13.107-8.517,9.483-16.49-1.283-2.823-1.046-6.688-.486-9.908,3.112-18-3.491-25.53-22.223-24.445A56.031,56.031,0,0,0,773.837,893c-10.126,3.029-12.78,7.922-10.264,18.152,1.088,4.416,2.433,8.775,3.309,13.229,1.294,6.589-1.746,10.394-8.268,8.8a27.867,27.867,0,0,1-13.469-7.76c-7.014-7.819-8.459-17.714-6.855-27.921,1.148-7.287,5.64-12.5,12.5-14.493,15.505-4.506,31.026-9.648,46.923-12.006,28.268-4.194,48.712,22.317,38.454,49.375-.418.826-.836,2.562-1.924,3.634-4.658,4.6-3.786,9.376-2.068,15.119,3.746,12.513-1.046,20.287-11.978,28.073-8.542,6.083-16.876,10.638-27.159,10.638A36.2,36.2,0,0,1,789.055,977.611Zm356.647-2.246c-4.738,0-9.98-1.238-16.025-3.782-1.192-.5-2.43-.95-3.628-1.382-.553-.2-1.125-.406-1.687-.617-.124.213-.25.427-.373.634l0,.006-.21.355c-3.418-1.966-6.923-3.923-10.312-5.814-7.7-4.3-15.657-8.738-23.154-13.611a21.846,21.846,0,0,1-3.958-3.328,26.642,26.642,0,0,1-3.24-4.238,31.479,31.479,0,0,1-2.47-4.912,34.88,34.88,0,0,1-2.415-10.908,31.9,31.9,0,0,1,.161-5.525,27.208,27.208,0,0,1,1.145-5.26,22.488,22.488,0,0,1,2.181-4.758c2.929-4.775,2.859-8.716,1.8-13.526a33.64,33.64,0,0,1-.627-11.7,22.484,22.484,0,0,1,3.4-9.5,17.61,17.61,0,0,1,4.936-4.994,18.464,18.464,0,0,1,6.844-2.747,26.35,26.35,0,0,1,4.914-.438,29.515,29.515,0,0,1,7.183.874,18.022,18.022,0,0,1,6.1,2.682c12.94,9.323,26.254,14.709,40.7,16.466a22.629,22.629,0,0,1,6.617,1.8,18.032,18.032,0,0,1,5.18,3.509,17.669,17.669,0,0,1,3.593,5.043,21.393,21.393,0,0,1,1.859,6.4,121.521,121.521,0,0,1,.606,17.883c-.046,2.987-.093,6.075-.025,9.1.05,2.226.168,4.361,1.064,6.014a16.359,16.359,0,0,1,2.028,10.724,19.046,19.046,0,0,1-4.9,9.407c-5.111,5.7-9.155,9.357-13.11,11.863a27.985,27.985,0,0,1-6.761,3.182,24.686,24.686,0,0,1-7.408,1.1Zm-25.264-83.4a8.308,8.308,0,0,0-3.972,2.393c-1.345,1.319-2.153,2.705-2.109,3.617a18.87,18.87,0,0,1-1.992,9.8,21.257,21.257,0,0,1-2.685,3.988,33.059,33.059,0,0,1-3.614,3.631c-1.6,1.395-3.144,4.372-2.658,5.858a251.561,251.561,0,0,0,10.4,27.59c1.209,2.6,3.689,4.6,5.682,6.211.777.627,1.448,1.168,1.955,1.671a13.561,13.561,0,0,0,4.382.692c6.462,0,14.219-4.008,19.3-9.974,3.235-3.8,4.726-7.686,4.2-10.951-.257-1.592-.524-3.2-.781-4.753-.811-4.9-1.65-9.957-2.28-14.962a31.737,31.737,0,0,0-8.358-17.429c-4.531-4.791-10.112-7.539-15.312-7.539A14.837,14.837,0,0,0,1120.437,891.961ZM996.83,953.847a15.624,15.624,0,0,0-6.485-3.083c-10.5-2.613-18.376-8.14-23.657-17.928-3-5.557-8.545-9.732-11.628-15.258-8.287-14.846-6.517-25.928,4.466-38.744,3.447-4.023,5.427-9.3,8.882-13.308a42.337,42.337,0,0,1,11.074-9.121c6.314-3.56,12.308-2.035,15.986,4.3a46.811,46.811,0,0,1,5.206,13.463c1.552,7.219-2.207,11.954-10.019,13.86-3.462.845-6.955,1.566-13,2.913,11.826,6.024,16.2,13.429,17.726,24.39.654,4.691,9.691,9.826,15.865,11.779,8.916,2.819,18.472,2.6,26.975-3.6,4.431-3.233,5.086-6.761,1.565-9.909-5.55-4.955-11.514-9.8-18.089-13.184-11.952-6.144-15.208-18.48-6.673-29.131,1-1.245,2.177-2.928,3.521-3.207,5.251-1.086,10.83-2.82,15.791-1.827,1.628.325,1.751,8.176,2.85,14.141,7.847,1.7,15.947,7.044,21.279,16.131,5.556,9.469,4.846,15.858-2.382,23.938a7.067,7.067,0,0,0-1.779,4.728c2.134,23.348-8.937,36.365-31.8,36.606-.28,0-.559,0-.839,0C1012.694,961.8,1004.008,960.237,996.83,953.847ZM631.838,934.1c-11.014-7.84-13.173-24.251-5.732-37.016,9.8-16.809,26.108-22.511,43.42-26.26,16.015-3.471,32.209-6.2,48.416-8.645,4.906-.739,10.167.26,15.185,1,5.721.836,7.275,4.442,4.38,9.316-8.033,13.523-14.91,27.588-29.8,36.038-7.547,4.283-13.524,11.541-23.017,11.577-3.378.013-6.765-1.766-10.145-2.725,1.458-3.278,2.03-7.815,4.551-9.589,6.979-4.917,14.842-8.558,22.212-12.948,4.365-2.6,8.455-5.664,12.668-8.518q-.729-1.426-1.458-2.856c-5.531.485-11.09.775-16.589,1.5-11.995,1.577-23.968,3.318-35.93,5.1-19.474,2.907-22.261,8.5-13.21,26.277,5.124-1.207,10.211-3.123,15.377-3.347,2.888-.123,7.291,1.857,8.466,4.175s.131,6.9-1.568,9.371a28.322,28.322,0,0,1-23.15,11.823A24.17,24.17,0,0,1,631.838,934.1Zm249.615-22.5c-1.153-5.26-.7-12.048,1.828-16.583,2.042-3.661,8.012-5.705,12.645-7.117,4.505-1.37,9.569-.757,14.314-1.491,9.989-1.545,10.825-4.039,7.243-13.352a16.639,16.639,0,0,1,.716-11.982c2.236-4.531,1.084-6.922-2.141-9.659-7.493-6.355-19.348-5.847-28.142,1.158-4.812,3.833-9.535,7.876-14.765,11.049-4.894,2.97-8.846,1.024-8.35-4.926.374-4.533,1.355-10.456,4.371-13.072,15.921-13.837,35.288-18.3,55.895-18.234,1.534,0,3.066.9,4.354,1.3,11.5,4.462,17.364,13.212,17.945,24.84s-4.27,21.24-15.276,26.167c-5.318,2.379-6.621,5.217-6.323,11.018.216,4.2-1.639,10.468-4.722,12.5A141.149,141.149,0,0,1,894.2,916.529a13.3,13.3,0,0,1-4.714.882C885.868,917.411,882.371,915.8,881.452,911.6Zm-613.861-19.84c-7.642-5.49-14.968-4.115-22.89-3.685-15.789.859-31.478-20.516-24.763-37.773,2.791-2.974,6.882-8.871,12.367-12.86,11.913-8.669,24.607-16.266,36.817-24.543a13.946,13.946,0,0,0,5.341-6.327c4.176-12.4,7.467-14.376,20.1-11.008,18.231,4.859,30.2,19.381,31.081,38.123a23.019,23.019,0,0,1-1.518,9.346c-2.337,5.864-8.225,7.41-11.974,2.521a43.96,43.96,0,0,1-7.5-16.38c-1.218-5.2-3.7-6.69-7.674-4.683-5.867,2.961-11.884,6.214-16.65,10.62-7.4,6.834-11.191,18.173-24.189,17.6-.88-.038-3.171,4.166-2.649,5.632a27.34,27.34,0,0,0,6.139,10.2c1.539,1.506,5.118.932,7.771,1.312,2.394.344,4.8.654,7.178,1.08,5.964,1.063,11.13,3.782,12.263,10.017.511,2.824-1.051,8.2-2.931,8.858-3.688,1.294-8.64,2.948-12.414,2.948A6.656,6.656,0,0,1,267.591,891.764Zm96.639-11.77a28.714,28.714,0,0,1-10.738-13.287,26.189,26.189,0,0,1-1.309-15.316,22.539,22.539,0,0,1,2.8-6.7,26.743,26.743,0,0,1,5-5.862,8.663,8.663,0,0,0,2.6-5.758c-.008-6.443,1.141-10.914,3.614-14.071,2.5-3.186,6.408-5.125,12.309-6.1a22.472,22.472,0,0,1,16.661,3.87A21.29,21.29,0,0,1,400,821.54a20,20,0,0,1,3.054,6.167,64.883,64.883,0,0,1,2.768,20.608,75.154,75.154,0,0,1-4.521,22.736,25.177,25.177,0,0,1-2.827,6.092,16.693,16.693,0,0,1-4.141,4.414c-3.289,2.408-7.615,3.648-13.226,3.791-.2,0-.4.008-.6.008A29.181,29.181,0,0,1,364.231,879.994ZM380.25,837.02a10.065,10.065,0,0,0-1.756,2.7,10.306,10.306,0,0,1-1.714,2.656c-7.417,7.4-7.7,10.734-1.768,20.969,1.257-.4,2.511-.775,3.723-1.137a76.474,76.474,0,0,0,8.645-2.953,8.329,8.329,0,0,0,2.53-1.84,4.174,4.174,0,0,0,1.333-2.443,83.867,83.867,0,0,0-.888-16.041,10.365,10.365,0,0,0-1.522-3.678c-.831-1.289-1.7-2.055-2.373-2.1-.059,0-.12-.006-.18-.006C384.252,833.14,381.747,835.568,380.25,837.02Zm171.179,30.644c-5.512-4.363-5.463-9.716-4.347-15.077a12.575,12.575,0,0,1,12.681-10.5c6.655-.085,13.332,1,19.987,1.7,2.853.3,5.675.914,10.921,1.787-2.08-6.847-3.122-11.825-5.081-16.406-4.32-10.1-4.755-10.127-15.036-6.858-10.468,3.33-20.773-2.307-23.178-12.675-2.515-10.861,2.944-18.246,15.158-19.961,11.644-1.635,22.769.735,32.15,7.636,3.6,2.652,5.888,8,7.3,12.571,3.045,9.877,4.533,20.248,7.8,30.038,2.665,8,3.563,15.177-2.09,22.009a11.3,11.3,0,0,1-4.153,3.5c-5.723,2.2-11.544,4.163-17.4,5.984a54.257,54.257,0,0,1-15.933,2.851A29.169,29.169,0,0,1,551.429,867.664Zm-70.837-.806h-.139a158.858,158.858,0,0,1-21.71-2.124h0c-2.815-.41-5.473-.8-7.995-1.093a45.469,45.469,0,0,1-7.842-3.826,55.247,55.247,0,0,1-7.262-5.309,64.081,64.081,0,0,1-6.517-6.5,69.137,69.137,0,0,1-10.136-15.431,62.041,62.041,0,0,1-3.286-8.348,51.687,51.687,0,0,1-1.877-8.384,40.507,40.507,0,0,1-.3-8.131,19.12,19.12,0,0,0-1.211-7.756,22.541,22.541,0,0,1-1.45-9.828,18.877,18.877,0,0,1,.92-4.433,17.846,17.846,0,0,1,4.748-7.349,19,19,0,0,1,3.677-2.675,22.543,22.543,0,0,1,9.533-2.733,23.463,23.463,0,0,0,11.926-4.678c3.33-2.555,6.217-3.745,9.087-3.745a11.539,11.539,0,0,1,4.022.754,19.913,19.913,0,0,1,4.338,2.307c5.7,3.881,11.735,7.467,17.572,10.936,5.334,3.169,10.85,6.448,16.1,9.941a77.432,77.432,0,0,1,7.637,5.737,51.545,51.545,0,0,1,6.532,6.661,40.441,40.441,0,0,1,5.016,7.857,38.5,38.5,0,0,1,3.088,9.322,29.172,29.172,0,0,1,.567,6.884,21.659,21.659,0,0,1-1.176,6.2,21.379,21.379,0,0,1-2.977,5.584,28.317,28.317,0,0,1-4.837,5.021,20.432,20.432,0,0,0-6.117,9.234,24.086,24.086,0,0,1-7.189,11.291,19.177,19.177,0,0,1-5.722,3.381,19.929,19.929,0,0,1-7.009,1.233ZM440.446,797.17c-1.473.728-3.142,1.553-5,2.3a26.288,26.288,0,0,1,3.267,3.033,17.574,17.574,0,0,1,2.194,3.007,12.978,12.978,0,0,1,1.749,5.933c.189,3.965-1.373,7.871-2.989,11.532-2.566,5.81-2.334,11.534.654,16.118,3.188,4.89,9.053,7.811,15.69,7.811h0a23.115,23.115,0,0,0,3.538-.276c13.079-2.028,20.826-10.6,28.434-22.851a4.888,4.888,0,0,0-.07-3.41c-.421-1.51-1.267-3.249-2.209-3.73-2.29-1.171-3.632-2.488-4.1-4.024a5.43,5.43,0,0,1,.032-3.025,15.459,15.459,0,0,1,1.481-3.458c1.3-2.373,1.566-4.458.763-6.031-.765-1.5-2.468-2.453-4.925-2.763-9.848-1.24-20.415-2.424-30.956-2.7l-.169,0C445.563,794.641,443.305,795.757,440.446,797.17Zm368.053,47.7c2.549-5.075-.29-6.868-4-6.887-4.72-.025-9.533,1.12-14.147,2.341-4.654,1.229-6.091-.692-5.719-4.748.56-6.135,3.287-11.271,9.951-11.7,7.882-.514,15.854.231,23.787.43,0,.491,0,.981,0,1.47,1.708.786,3.468,1.472,5.109,2.368,8.2,4.486,15.324,13.911,12.124,16.788A46.927,46.927,0,0,1,816.019,855.4a11.868,11.868,0,0,1-2.776.355C807.686,855.757,805.481,850.882,808.5,844.874Zm206.646,9.648a26.181,26.181,0,0,1-6.948-.914,24.837,24.837,0,0,1-6.157-2.643,29.046,29.046,0,0,1-5.409-4.226,39.122,39.122,0,0,1-4.706-5.661,26.934,26.934,0,0,1-4.953-13.032,23.834,23.834,0,0,1,.409-6.806,28.606,28.606,0,0,1,2.423-6.934c.726-1.471,1.872-3.522,3.435-4.347,4.292-2.266,4.987-5.348,4.808-10.6a17.761,17.761,0,0,1,.928-6.569,14.18,14.18,0,0,1,3.157-5.123,17.037,17.037,0,0,1,5.19-3.612,26.55,26.55,0,0,1,7.026-2.037,20.677,20.677,0,0,1,3.169-.244,21.909,21.909,0,0,1,6.609,1.033,22.737,22.737,0,0,1,5.964,2.9,21.263,21.263,0,0,1,4.783,4.451,18.624,18.624,0,0,1,3.068,5.7,62.838,62.838,0,0,1,3.217,20.8,77.183,77.183,0,0,1-4.055,22.7,19.527,19.527,0,0,1-1.971,5.011,18.474,18.474,0,0,1-3.445,4.386,19.469,19.469,0,0,1-5,3.38,24.281,24.281,0,0,1-6.641,1.993,31.832,31.832,0,0,1-4.9.393Zm3.224-50.754a28.952,28.952,0,0,0-2.986,2.4c-.257.226-.522.458-.778.682l0,0c-2.469,2.158-5.023,4.389-6.356,7.164-1.611,3.365-1.714,7.537-1.517,10.444.121,1.761.954,3.484,2.009,5.666.54,1.118,1.153,2.385,1.758,3.842,1.9-1.131,3.872-2.1,5.776-3.031,4.137-2.03,8.045-3.948,10.077-7.057a8.86,8.86,0,0,0,.99-5.44,51.038,51.038,0,0,0-1.065-6.715c-.238-1.173-.463-2.281-.639-3.344a10.815,10.815,0,0,0-1.491-3.672c-.807-1.282-1.669-2.063-2.363-2.141a2.708,2.708,0,0,0-.293-.016A5.9,5.9,0,0,0,1018.369,803.769ZM617.658,828.2c-6.009-13.229-3.684-25.34,5.474-32.872,9.706-7.985,24.5-8.223,35.88-.573a4.055,4.055,0,0,1,1.271.963c2.806,4.485,5.561,9,8.332,13.507-4.566,1.414-9.115,2.871-13.7,4.231-3.869,1.144-9.609.974-11.264,3.513-3.165,4.851-.351,10.021,3.686,14.273,2.13,2.247,4.266,5.162,4.8,8.068.609,3.34.538,7.834-1.3,10.248-.971,1.274-3.648,1.248-5.858,1.222a19.677,19.677,0,0,0-2.266.049C631.514,844.806,622.4,838.649,617.658,828.2Zm576.684,14.009c-7.354-2.032-14.245-10.228-13.753-18.174.467-7.554,6.6-13.231,15.675-12.968,8.749.252,17.463,1.807,28.237,3.019-2.023-6.581-3.224-11.761-5.206-16.626-2.7-6.619-5.416-11.4-14.749-6.437-9.7,5.161-20.255-1.361-23.071-12.051-2.7-10.233,2.653-18.068,14.157-19.973a43.34,43.34,0,0,1,34.336,8.421c3.456,2.657,4.923,8.465,6.3,13.129,2.63,8.886,3.809,18.246,6.954,26.916,3.04,8.377,4.69,15.973-1.4,23.476-.841,1.032-1.48,2.808-2.484,3.032-12.077,2.7-23.349,9.455-35.984,9.454A33.545,33.545,0,0,1,1194.342,842.207ZM721.9,839.338c-9.39-3.364-14.145-10.891-17.268-19.343a206.4,206.4,0,0,1-7.1-24.749c-2.641-11.32-9.9-17.648-20.769-19.772-7.063-1.38-8.251-4.825-5.631-10.807,5.907-13.478,15.664-23.006,29.58-27.666a21.221,21.221,0,0,1,11.753-.045c9.325,2.606,11.012,8,5.713,15.875-12.13,18.037-12.235,18.141,3.043,33.637,5.835,5.92,5.435,12.95,5.252,20.26-.169,6.713,2.4,12.371,8.963,14.826,6.935,2.591,12.695-.651,17.22-5.668,4.448-4.931,3.422-9.644-.469-15.127-5.037-7.09-9.683-14.824-12.49-22.974-1.257-3.65,1.08-11.242,4.1-12.966,3.6-2.056,10.926-1.488,14.48,1.019,10.66,7.52,16.967,18.6,18.684,31.673.533,4.07.109,8.951-1.71,12.518-8.995,17.625-23.5,28.161-43.188,30.847a9.593,9.593,0,0,1-1.3.085C727.879,840.961,724.844,839.826,721.9,839.338Zm391.345-2.079a31.367,31.367,0,0,1-9.157-1.452c-4.687-1.419-9.7-1.486-13.722-1.539-1.475-.02-2.748-.037-3.806-.119a56.313,56.313,0,0,1-15.718-9.725,64.771,64.771,0,0,1-6.583-6.589,67.2,67.2,0,0,1-5.565-7.41,65.662,65.662,0,0,1-4.422-7.986,60.263,60.263,0,0,1-3.154-8.315,52.168,52.168,0,0,1-1.761-8.4,43.387,43.387,0,0,1-.242-8.234,17.325,17.325,0,0,0-1.421-6.925,22.373,22.373,0,0,1-1.514-9.986,18.783,18.783,0,0,1,.954-4.5,17.816,17.816,0,0,1,4.919-7.421,19.011,19.011,0,0,1,3.805-2.659,22.53,22.53,0,0,1,9.822-2.532,19.506,19.506,0,0,0,11.129-4.419c3.336-2.823,6.3-4.138,9.337-4.138a11.631,11.631,0,0,1,3.906.7,19.5,19.5,0,0,1,4.2,2.144c4.594,3.007,9.426,5.828,14.1,8.556,6.326,3.693,12.866,7.512,18.893,11.836,8.374,6.01,14.62,12.287,18.567,18.659,2.978,4.807,3.765,11.079,4.525,17.145.178,1.423.363,2.9.572,4.306a9.167,9.167,0,0,1-.6,4.13,5.482,5.482,0,0,1-2.166,3.06c-6.146,3.018-8.756,8.825-11.28,14.44a52.747,52.747,0,0,1-4.216,8.1,19.907,19.907,0,0,1-2.907,3.427,16.378,16.378,0,0,1-3.868,2.686,27.7,27.7,0,0,1-12.627,3.151Zm-36.446-69.951c-1.848.735-3.758,1.494-5.906,2.193a21.335,21.335,0,0,1,5.334,6.165,13.792,13.792,0,0,1,1.705,6.041,19.974,19.974,0,0,1-.712,5.952c-.506,1.974-1.224,3.97-1.918,5.9-.273.757-.554,1.54-.819,2.311a15.444,15.444,0,0,0,14.168,21.1c.492.031,1,.046,1.505.046h0c13.7,0,29.676-10.936,33.523-22.944a7.046,7.046,0,0,0-.412-4.058,5.777,5.777,0,0,0-2.189-3.174,10.86,10.86,0,0,1-2.786-1.854,4.622,4.622,0,0,1-1.3-2.048,4.756,4.756,0,0,1,.075-2.676,12.755,12.755,0,0,1,1.453-3.086c1.558-2.541,1.95-4.686,1.166-6.377-.807-1.74-2.848-2.908-5.9-3.378-9.224-1.423-18.246-2.7-27.191-2.759h-.078C1083.457,764.659,1080.37,765.887,1076.795,767.308ZM160.547,824.495c-1.65-2.207-1.512-7.419.063-9.945,2.592-4.152,7.346-6.906,10.462-10.819,1.812-2.275,3.546-5.944,3-8.49-1.521-7.018-2-13.464,1.238-20.255,1.24-2.609.064-6.355-.008-9.585l-2.592-1.106c-3.569,4.016-7.3,7.9-10.673,12.078-3.521,4.36-6.377,9.276-10.094,13.449-7.183,8.061-17.565,10.216-27.131,5.715-5.563-2.613-7.614-7.079-5.669-13.26,5.433-17.286,43.72-44.325,62.013-43.648,8.571.315,13.313,5.075,15.285,14.609,3.069,14.817-2.127,28.527-5.293,42.523-.41,1.814-.9,3.61-1.259,5.435-.868,4.464-.239,10.188-2.828,13.127-4.594,5.22-10.793,9.37-17.024,12.661a4.609,4.609,0,0,1-2.109.415C165.3,827.4,161.762,826.119,160.547,824.495Zm774.016-29.049c-7.385-2.287-11.231-11.948-8.452-18.375,3-6.94,10.417-8.821,19.7-4.786,4.9,2.948,9.749,3.617,14.161-1.6,4.09-4.834,8.409-1.686,9.611,1.723,1.824,5.169,3.735,12.267,1.459,16.336-2.665,4.763-9.463,9.229-15.051,10.044a24.8,24.8,0,0,1-3.569.247C946.546,799.034,940.282,797.217,934.563,795.446Zm-81.4-4.6c-8.477-4.163-14.387-10.071-17.95-18.438-2.73-6.416-1.114-11.755,4.434-15.593s10.385-2.312,15,2.422c12.666,12.988,12.763,12.892,28.168,3.215,10.006-6.288,16.458-5.772,19.575,1.9.774,1.91.911,5.6-.228,6.542-10.5,8.683-20.429,18.7-34.8,20.549a25.389,25.389,0,0,1-3.258.195C860.5,791.636,856.805,791.032,853.168,790.847ZM334.886,778.3c-6.5-5.514-11.471-12.27-10.271-21.343.33-2.494,2.827-4.955,4.832-6.927,6.238-6.132,13.043-11.717,19.029-18.075,11.5-12.216,26.755-15.283,41.58-7.753,8.468,4.3,11.46,10.283,10.767,19.953-.166,2.328,1.156,4.974,2.366,7.16,4.8,8.648-3.229,25.591-13.014,26.812-4.99.622-8.434-1.712-8.941-6.871a12.316,12.316,0,0,1,1.229-6.923c3.058-5.357,7.316-10.359,2.032-16.616-5.067-6-12.114-7.34-18.945-5.5a97.306,97.306,0,0,0-23.476,9.488c-7.076,4.118-6.684,12.1-.248,17.263,5.05,4.057,10.242,7.947,17.089,13.235a27.071,27.071,0,0,1-9.762,2.036C343.357,784.242,338.941,781.738,334.886,778.3Zm-91.623-5.441c-14.9-1.854-22.578-16.845-14.717-29.57a9.938,9.938,0,0,1,5.515-4.175,91.331,91.331,0,0,1,17.5-2.688c5.264-.174,8.592-1.662,12.163-5.966,4.081-4.921,1.837-7.566-.178-11.878-1.394-2.979-.527-7.273.049-10.861,2.508-15.657-2.782-22.414-18.649-22.947a42.95,42.95,0,0,0-11.232,1.116c-15.886,3.77-18.441,8.257-14.205,24.023.559,2.084,1.39,4.211,1.364,6.31-.04,3.551.378,9.421-1.265,10.154a17.257,17.257,0,0,1-12.163.085c-9.995-3.9-16-17.616-14.87-31.676.812-10.126,5.976-16.156,17.727-19.354,14.05-3.827,28.155-7.6,42.437-10.38,5.828-1.139,12.18.37,18.29.673,20.721,9.23,29.088,36.541,16.938,55.545a13.946,13.946,0,0,0-1.377,9.937c3.794,14.478-.053,22.681-12.061,31.45-8.411,6.141-16.7,10.486-26.746,10.486A36.5,36.5,0,0,1,243.263,772.859Zm356.974-2.183c-4.566,0-9.605-1.163-15.405-3.554-1.37-.564-2.787-1.077-4.158-1.574-.632-.229-1.286-.466-1.928-.7-.171.285-.345.579-.512.864l-.037.062c-3.359-1.924-6.807-3.833-10.14-5.678h0c-7.559-4.185-15.374-8.512-22.7-13.315a25.426,25.426,0,0,1-7.476-7.66,31.288,31.288,0,0,1-4.13-10.086,34.87,34.87,0,0,1-.661-11.092,32.153,32.153,0,0,1,2.932-10.675c1.426-2.987,1.606-6.631,1.78-10.154.039-.791.079-1.609.134-2.4a53.466,53.466,0,0,0-.024-5.743,34.307,34.307,0,0,1,.36-8.517A23.443,23.443,0,0,1,541,673.434a21.346,21.346,0,0,1,4.5-5.378,19.638,19.638,0,0,1,5.769-3.444,18.172,18.172,0,0,1,12.107-.337,20.406,20.406,0,0,1,5.471,2.739c14.5,10.142,29.258,16.169,45.127,18.427,7.466,1.063,12.741,6.094,13.767,13.129a189.128,189.128,0,0,1,1.474,20.146c.111,2.967.225,6.034.4,9.042.034.584.023,1.211.011,1.817a8.186,8.186,0,0,0,.625,4.245,15.862,15.862,0,0,1,2.3,11.575,20.571,20.571,0,0,1-5.52,9.867c-2.443,2.6-4.583,4.71-6.542,6.45a46.631,46.631,0,0,1-6.386,4.849,27.966,27.966,0,0,1-6.618,3.053,24.491,24.491,0,0,1-7.24,1.061h0ZM577.249,686.7c-4.987,0-7.8,3.078-8.85,9.687-.532,3.337-2.534,6.505-4.47,9.569-.736,1.165-1.5,2.369-2.16,3.558a16.566,16.566,0,0,1-1.886,2.482c-1.2,1.391-2.324,2.7-2.112,3.829,2.212,11.761,4.719,25.093,15.836,34.18a15.716,15.716,0,0,0,9.8,3.748,10.65,10.65,0,0,0,7.351-2.761,46.532,46.532,0,0,0,12.362-20.134c1.115-3.866.018-8.428-1.044-12.841-.471-1.958-.958-3.983-1.245-5.92-1.5-10.062-7.128-18.123-16.742-23.96a20.566,20.566,0,0,0-6.84-1.436h0Zm216.393,70.4a204.8,204.8,0,0,1-25.193-10.767c-9.145-4.779-11.75-11.551-8.347-18.288,3.384-6.7,8.886-8.035,18.629-4.589.437.155,1.025-.111,2.111-.258-.318-1.773-1.26-3.694-.818-5.21,1.264-4.324,2-10.742,4.955-12.164,4.315-2.081,11.5-2.472,15.5-.166,12.7,7.317,15.583,20.875,9.181,34-1.494,3.061-1.736,6.724-2.635,10.087-1.571,5.881-3.652,8.6-7.656,8.6A17.341,17.341,0,0,1,793.642,757.1ZM451,748.78c-.851-.643-1.741-1.557-2.7-1.681-16.1-2.067-24.065-14.58-33.2-25.667-6.555-7.957-10.268-17.077-10.47-27.261-.086-4.37.724-9.444,2.981-13.027a177.55,177.55,0,0,1,17.217-22.933c5-5.647,11.245-10.56,19.709-7.366,5.368,2.023,11.485,15.706,10.477,22.334-.808,5.33-3.814,8.705-9.205,9.809-3.8.778-7.582,1.62-13.9,2.978,11.885,5.965,15.891,13.645,17.952,24.323.977,5.063,9.992,10.3,16.333,12.184,8.237,2.449,17.3,2.225,25.389-3.447,5.6-3.928,5.662-7.773,1.179-11.591-5.252-4.466-10.9-8.792-17.055-11.779-5.768-2.8-11.527-4.345-11.047-12.507.484-8.256,1.1-16.805,9.49-20.638,4.3-1.964,10.327-2.048,14.853-.649,1.707.529,1.385,7.65,1.987,11.766q-1.01.579-2.017,1.162c2.646,1,5.341,1.888,7.932,3.012,10.39,4.5,16.941,12.578,18.642,23.5.627,4.016-1.65,9.4-4.353,12.736-2.44,3.023-3.713,4.837-2.57,8.841,3.374,11.829-1.7,23.494-12.957,28.911-7.085,3.409-14.147,5.328-21.1,5.328C466.524,757.113,458.629,754.556,451,748.78Zm714.622.655c-5.827-5.085-11.691-4.318-18.05-3.8-11.38.92-23.311-6.5-28.831-17.956-4.278-8.878-2.986-18.647,6.773-26.9,12.057-10.2,25.5-18.8,38.684-27.574,5.074-3.374,9.612-6.13,10.747-12.99,1.067-6.458,6.41-9.683,12.575-9.078,24.116,2.363,38.789,22.894,37.364,44.7-.224,3.449-3.829,8.251-6.968,9.395-2.284.833-7.684-2.556-9.381-5.438-3.056-5.181-4.377-11.394-6.9-18.532-8.424.334-15.544,3.931-21.309,10.484-4.09,4.648-7.913,9.558-12.281,13.921-1.959,1.961-4.88,3.825-7.509,4.05-4.8.406-8.676.693-8.1,7.025.524,5.806,3,9.7,9.163,10.472,4.271.536,8.551,1.052,12.8,1.751,6.061,1,11.038,4.069,11.97,10.344a11.588,11.588,0,0,1-3.521,9.033,15.685,15.685,0,0,1-9.839,3.839A11.016,11.016,0,0,1,1165.619,749.435Zm-205.85-18.814c-.25-3.438,1.708-7.907,4.132-10.512,6.9-7.41,14.673-13.98,21.888-21.1,11.646-11.5,30.3-13.069,43.338-3.25,5.45,4.1,8.524,9.255,7.342,16.693-.437,2.751.989,6.1,2.337,8.79,4.184,8.33-3.961,25.01-13.162,26.479-5.141.823-9.452-2.963-9.252-8.467a12.748,12.748,0,0,1,1.662-6.124c3.094-4.866,6.521-9.465,2.312-15.395-4.459-6.278-11.111-8.048-17.784-6.479-8.2,1.922-16.532,4.589-23.831,8.687-9.01,5.056-8.736,12.762-.6,19.326q7.172,5.786,14.334,11.582a24.644,24.644,0,0,1-7.967,1.326C971.885,752.176,960.635,742.449,959.769,730.621Zm312.912,10.323a29.852,29.852,0,0,1-14.139-9.767,28.284,28.284,0,0,1-4.352-7.628c-2.105-5.572-2.6-10.479-1.519-15,1.07-4.47,3.7-8.638,8.051-12.745a9.264,9.264,0,0,0,2.427-6,32.373,32.373,0,0,1,.974-8.107,15.762,15.762,0,0,1,2.869-5.884,14.115,14.115,0,0,1,4.992-3.889,25.637,25.637,0,0,1,7.343-2.124,20.7,20.7,0,0,1,3.134-.237,23.5,23.5,0,0,1,13.115,4.124,21.345,21.345,0,0,1,4.92,4.617,17.308,17.308,0,0,1,2.97,5.842,72.359,72.359,0,0,1,2.923,20.846,64.619,64.619,0,0,1-1.092,10.885,73.179,73.179,0,0,1-3.146,11.441,27.852,27.852,0,0,1-2.9,6.37,17.6,17.6,0,0,1-4.112,4.592c-3.205,2.485-7.377,3.8-12.753,4.013-.359.015-.724.022-1.085.022A28.149,28.149,0,0,1,1272.681,740.944Zm12.708-48.889c-2.151,1.739-4.375,3.537-6.514,5.363a5.68,5.68,0,0,0-1,1.27,6.012,6.012,0,0,1-.948,1.226c-3.671,3.309-5.375,6.125-5.527,9.13s1.245,6.357,4.532,10.851l.171-.041c7.528-1.779,11.307-2.672,13.218-4.954a8.484,8.484,0,0,0,1.669-4.739,76.435,76.435,0,0,0,.167-8.5,25.046,25.046,0,0,0-1.979-8c-.439-1.2-.893-2.443-1.248-3.666C1287.086,690.684,1286.224,691.381,1285.39,692.055ZM878.811,742.189c-11.771-.971-19.567-9.06-18.894-19.752.627-9.951,4.7-14.479,14.743-15.806,4.54-.6,9.169-.492,13.743-.872,9-.75,12.749-8.345,9.72-16.535-1.6-4.335-.644-9.8-.045-14.665,1.445-11.7-2.837-18.443-14.8-19.1-7.849-.431-16.026,1.227-23.738,3.179-7.105,1.8-9.382,7.528-7.784,14.546,1.245,5.471,2.7,10.9,3.9,16.376,1.309,5.99-1.543,8.535-7.45,8.24a19.467,19.467,0,0,1-4-.5c-9.692-2.544-17.187-14.153-17.661-27.253-.463-12.817,3.751-20.156,15-23.518,13.96-4.171,28.067-8.075,42.355-10.905,6.872-1.357,14.3.015,21.476.147,20.647,9.215,28.851,36.584,16.44,55.416a12.178,12.178,0,0,0-1.375,8.944c4.255,15.052.7,22.714-11.935,31.791-8.368,6.01-16.617,10.386-26.729,10.386Q880.325,742.313,878.811,742.189ZM85.346,729.051c-11.442-8.511-13.2-24.439-5.075-37.639,6.308-10.25,15.133-17.537,26.27-20.293,22.252-5.507,44.812-9.958,67.438-13.71,5.787-.962,12.288,2.313,18.462,3.642-1.868,5.094-3.319,10.388-5.683,15.242-7.957,16.337-21.884,26.916-36.994,35.87-4.33,2.566-10.2,3.187-15.43,3.441-6.023.292-7.99-3.712-4.564-8.419a37.387,37.387,0,0,1,10.644-9.388c6.652-4.077,13.86-7.236,20.684-11.052,2.458-1.375,4.48-3.521,6.7-5.314q-.459-1.344-.92-2.686c-4.366.411-8.746.7-13.1,1.259-13.941,1.784-27.92,3.35-41.791,5.585-18.284,2.95-20.929,9.515-11.137,25.988,4.935-1.2,9.83-3.221,14.761-3.3,3.144-.051,7.591,2.021,9.116,4.542,1.222,2.021-.153,6.843-1.961,9.229A29.091,29.091,0,0,1,99.8,733.687,24.068,24.068,0,0,1,85.346,729.051Zm1365.637-3.888c-5.355-4.848-5.918-10.123-4.571-15.865,1.506-6.414,6.593-10.09,13.034-10.13,6.917-.043,13.85,1.09,20.765,1.8,2.534.261,5.039.8,7.556,1.213.71-.581,1.421-1.158,2.132-1.739-3.07-7.184-5.844-14.523-9.458-21.416-.706-1.347-4.718-1.457-7.141-1.275-4.406.333-8.868,2.276-13.127,1.824-8.3-.886-13.443-7.519-13.951-16.249-.474-8.132,3.291-13.853,11.82-15.9,13.854-3.316,26.865-.276,37.919,8.494,3.036,2.41,4.061,7.8,5.256,12.037,2.667,9.466,4.375,19.225,7.4,28.564,2.425,7.485,4.765,14.58-1.212,21.189a19.472,19.472,0,0,1-7.352,5.063c-8,2.987-16.028,6.694-24.352,7.81a59.551,59.551,0,0,1-7.872.617C1462,731.21,1456.2,729.888,1450.983,725.163Zm-69.574-1.351c-.184,0-.367-.007-.544-.022-7.771-.628-15.582-1.609-22.474-2.474-2.475-.311-4.812-.6-7.04-.869a45.594,45.594,0,0,1-7.851-3.859,55.746,55.746,0,0,1-7.277-5.347,64.844,64.844,0,0,1-6.533-6.534,69.972,69.972,0,0,1-5.618-7.42,68.747,68.747,0,0,1-4.531-8.006,61.373,61.373,0,0,1-3.275-8.29,50,50,0,0,1-1.847-8.272,38.1,38.1,0,0,1-.248-7.955c.227-2.889-.75-5.921-1.7-8.853l-.135-.418a20.179,20.179,0,0,1-.806-9.171,19.012,19.012,0,0,1,3.132-7.993,19.962,19.962,0,0,1,15.48-8.518,22.151,22.151,0,0,0,11.845-4.386,21.636,21.636,0,0,1,4.707-2.941,10.861,10.861,0,0,1,8.487-.294,18.614,18.614,0,0,1,4.179,2.232c6.3,4.345,12.825,8.579,19.139,12.673,8.063,5.228,16.4,10.634,24.333,16.325a29.5,29.5,0,0,1,9.246,10.916,39.807,39.807,0,0,1,3.839,14.124c.027.291.061.59.094.88a10.971,10.971,0,0,1-.018,3.92c-.191.728-.355,1.528-.529,2.375a30.108,30.108,0,0,1-.975,3.9,4.226,4.226,0,0,1-1.741,2.492c-5.937,3.081-8.553,8.875-11.083,14.479a50.091,50.091,0,0,1-4.648,8.728,18.783,18.783,0,0,1-3.29,3.563,16.235,16.235,0,0,1-4.455,2.614c-.489.192-1,.4-1.486.609-2.114.883-4.3,1.8-6.38,1.8Zm-38.979-70.248c-2.032.725-4.334,1.547-6.848,2.281a28.072,28.072,0,0,1,3.33,3.038,19.475,19.475,0,0,1,2.323,3.049,15.1,15.1,0,0,1,1.428,3.047,13.715,13.715,0,0,1,.644,3.033,16.108,16.108,0,0,1-.613,5.976,29.191,29.191,0,0,1-2.4,5.774,15.83,15.83,0,0,0,.309,15.712c3.15,5.238,8.884,8.243,15.731,8.243a24.815,24.815,0,0,0,2.887-.172c14.523-1.708,22.438-12.223,29.3-22.846.514-.8.317-2.6-.106-4.026a4.545,4.545,0,0,0-1.632-2.737,12.022,12.022,0,0,1-3.178-1.963,5.129,5.129,0,0,1-1.529-2.267c-.542-1.716-.032-3.8,1.6-6.546,1.318-2.218,1.641-4.2.933-5.747-.72-1.569-2.46-2.638-5.031-3.092-.942-.166-1.9-.338-2.83-.5l-.013,0c-7.63-1.366-15.52-2.778-23.3-2.9l-.228,0C1349.858,650.913,1346.416,652.141,1342.43,653.564ZM677.315,723.809a71,71,0,0,1-20.215-3.646c-7.634-2.566-11.471-12.6-8.393-19.157,3.03-6.462,10.572-8.3,18.872-4.355,5.06,3.327,9.766,3.341,14.621-1.7,1.192-1.239,5.953-.8,7.676.6,5.459,4.46,5.472,11.006,3.268,16.934-2.534,6.824-8.043,11.328-15.289,11.328C677.677,723.818,677.5,723.815,677.315,723.809ZM334.188,704.187c-2.329-6.562.428-15.953,6.717-19.033,4.679-2.29,10.218-2.957,15.444-3.992,3.691-.731,7.61-.447,11.24-1.353,7.436-1.855,7.7-4.185,5.007-11.389-1.488-3.978-1.577-9.519.089-13.317,1.833-4.183,1.288-6.329-1.692-8.977-7.334-6.516-18.857-6.761-27.7-.335-5.015,3.647-9.612,7.93-14.874,11.162-6.857,4.214-10.855,2.21-10.046-5.483.507-4.81,2.823-10.921,6.459-13.647,15.607-11.694,33.9-16.209,53.314-16.351,2.088-.015,4.185.955,5.235,1.213,12.074,4.665,17.892,13.232,18.684,24.409.792,11.194-3.545,20.923-14.248,26-5.982,2.839-8.7,5.724-7.464,12.771.577,3.287-1.332,8.8-3.959,10.508a146.2,146.2,0,0,1-26.793,14,15.877,15.877,0,0,1-5.623,1.115C339.906,711.489,336.083,709.526,334.188,704.187Zm386.855-4.663c-11.221-6.7-15.079-23.77-8.518-35.931,8.867-16.426,23.9-23.566,40.852-27.395,16.23-3.665,32.616-6.735,49.042-9.377,5.693-.916,11.757-.142,17.573.54,6.586.772,8.217,4.883,4.757,10.322-5.91,9.3-10.845,19.854-18.728,27.086-9.7,8.909-19.6,19.367-34.394,19.995-2.916.123-5.9-1.367-8.856-2.113,1.111-3.352,1.214-8.11,3.528-9.791,6.905-5.015,14.748-8.705,22.086-13.139,4.611-2.789,8.976-5.99,13.451-9.007q-.668-1.483-1.338-2.959c-4.428.485-8.867.893-13.282,1.467-13.316,1.731-26.676,3.2-39.92,5.368-19.431,3.178-21.971,8.89-12.655,26.41,5.446-1.3,10.771-3.286,16.217-3.688,7.6-.563,10.961,5.961,7.067,12.646-4.734,8.128-14.59,12.9-24.141,12.9A24.794,24.794,0,0,1,721.043,699.525Zm344.694-14.063a8.151,8.151,0,0,1-5.1-12.633,49.4,49.4,0,0,1,11.18-11.377c3.68-2.736,3.794-5.2,3.366-9.453-.64-6.39.621-12.961.981-19.461.18-3.25.161-6.516.231-9.775l-3.125-1.333c-3.456,3.91-7.074,7.689-10.328,11.762-3.349,4.194-6.114,8.859-9.533,12.989-7.377,8.91-17.109,11.356-27.592,6.807-5.591-2.422-8.118-6.775-6.235-13.082,5.275-17.673,44.032-44.912,62.781-44.322,8.6.271,13.7,5.412,14.143,12.76.656,10.816-.653,21.782-1.617,32.64-.7,7.888-2.551,15.672-3.216,23.557-.68,8.035-15.914,21.049-24.54,21.049A7.262,7.262,0,0,1,1065.737,685.462ZM620.2,665.847c-9.894-6.4-17.884-13.279-21.062-25.076-4.048-15.039,6.985-27.85,22.12-24.53,3.544.779,6.942,4.689,9.272,7.969,2.762,3.886,4.265,8.667,6.361,13.038,3.858,8.043,12.721,9.03,18.841,2.721,2.169-2.236,5.863-3.443,9.07-4.112,17.935-3.754,22.554-12.667,14.72-29.665a55.456,55.456,0,0,0-6.961-10.8c-6.512-8.288-12.047-8.947-20.678-2.831-3.725,2.641-7.305,5.5-11.142,7.956-5.678,3.636-10.335,2.217-11.222-4.43a27.874,27.874,0,0,1,2.338-15.378c4.742-9.4,13.451-14.4,23.562-16.676,7.217-1.626,13.716.624,18.076,6.257,9.854,12.739,20.3,25.256,28.3,39.154,14.207,24.708-3.087,53.486-32.076,53.948-.257-.023-.58-.021-.943-.017a7.772,7.772,0,0,1-3.149-.428c-5.99-2.628-10.128-.055-14.862,3.661-4.768,3.744-9.255,5.42-13.813,5.42C631.651,672.028,626.252,669.761,620.2,665.847Zm359.989,3.559a228.514,228.514,0,0,1-28.056-11.99c-10.185-5.323-13.086-12.865-9.3-20.366,3.772-7.458,9.9-8.949,20.747-5.112.487.174,1.141-.122,2.352-.286-.355-1.974-1.4-4.116-.911-5.8,1.406-4.814,2.228-11.962,5.517-13.547,4.806-2.317,12.805-2.752,17.259-.185,14.141,8.15,17.355,23.248,10.222,37.86-1.662,3.408-1.928,7.488-2.931,11.232-1.751,6.549-4.068,9.583-8.529,9.583A19.306,19.306,0,0,1,980.193,669.406ZM5.352,663.666c-5.9-4.955-6.094-10.678-4.513-16.545,1.679-6.22,6.946-9.776,13.414-9.71,6.66.063,13.316,1.163,19.966,1.891,2.551.28,5.077.779,9.473,1.473-1.5-6.033-2.148-10.287-3.611-14.239-4.162-11.24-5.436-11.771-16.946-8.625-10.24,2.8-20-2.957-22.245-13.112-2.187-9.894,3.2-17.919,14.027-19.653,12.421-1.993,24.369.441,34.265,8.234,3.474,2.734,5.142,8.4,6.529,13.063,2.722,9.164,3.97,18.8,7.136,27.785,2.977,8.444,4.377,16.076-1.835,23.444-1.014,1.2-2.061,2.8-3.406,3.231-9.127,2.942-18.18,6.7-27.567,8.06a52.01,52.01,0,0,1-7.462.6C16.64,669.567,10.733,668.183,5.352,663.666ZM453,644.3a29.227,29.227,0,0,1-10.781-13.809,30.925,30.925,0,0,1-1.744-7.81,22.19,22.19,0,0,1,.535-7.093,21.222,21.222,0,0,1,2.773-6.389,27.551,27.551,0,0,1,4.97-5.7,8.824,8.824,0,0,0,2.578-5.882,35.752,35.752,0,0,1,.961-8.313,15.873,15.873,0,0,1,2.775-5.933c2.468-3.166,6.331-5.073,12.16-6a23.544,23.544,0,0,1,3.677-.292,22.758,22.758,0,0,1,6.912,1.069,22.072,22.072,0,0,1,6.081,3.025,21.124,21.124,0,0,1,4.806,4.709,20.491,20.491,0,0,1,3.087,6.122,65.384,65.384,0,0,1,2.3,10.332,63.381,63.381,0,0,1,.565,10.284,66.866,66.866,0,0,1-1.08,10.241,75.781,75.781,0,0,1-2.637,10.2,36.289,36.289,0,0,1-3.471,7.438,20.548,20.548,0,0,1-4.513,5.177,17.49,17.49,0,0,1-5.744,3.061,24.869,24.869,0,0,1-7.165,1.089c-.156,0-.308,0-.465,0A29.184,29.184,0,0,1,453,644.3Zm16.213-43.183a79.194,79.194,0,0,0-6.264,7.259c-1.047,1.309-2.235,2.793-3.565,4.4l.356,1.765c.705,3.5,1.671,8.285,2.8,13.879,1.844-.62,3.55-1.163,5.055-1.643a81.014,81.014,0,0,0,8.877-3.184c1.677-.762,3.724-2.874,3.75-4.353a93.815,93.815,0,0,0-1.148-15.948c-.326-2.1-2.2-5.442-3.334-5.442h0C473.369,597.856,470.742,599.613,469.212,601.115ZM262.065,639.556c3.415-6.811-.647-8.043-5.35-7.756-5.473.336-10.874,1.974-16.8,3.148-1.992-11.379.9-16.385,10.411-17.852,12.506-1.929,23.956,1.155,33.544,9.67,8.838,7.85,7.937,14.751-2.572,19.8a31.369,31.369,0,0,1-12.915,3.265h-.093C261.815,649.835,259.154,645.36,262.065,639.556ZM97.446,645.218c-11.266-4.2-20.411-11.2-25.921-22-5.494-10.769-5.09-21.5,2.925-30.962,7.342-8.661,20.069-10.856,33.319-7.525,4.723,4.545,9.942,8.7,14,13.763,3.356,4.186,1.068,7.815-3.952,8.839-3.66.749-7.586.21-11.255.938-3.157.625-8.349,1.774-8.7,3.5-.767,3.735.382,8.221,1.859,11.967,1.914,4.848,6.039,9.019,7.18,13.946,1.258,5.433-.857,8.457-4.992,8.457A12.993,12.993,0,0,1,97.446,645.218Zm1140.41-8.393a46.212,46.212,0,0,1-12.5-17.236c-1.362-3.47,1.126-10.006,3.979-13.307,6.448-7.474,14.738-13.316,21.312-20.691,11.868-13.32,32.506-11.444,43.543-3.587,1.088.774,2.587,1.641,2.891,2.747,3.086,11.223,7.8,22.46,8.074,33.785.123,5.14-7.987,11.493-13.65,15.414-4.418,3.065-9.042-.434-9.753-5.939a16.59,16.59,0,0,1,1.966-9.208c6.167-11.687,1.352-20.81-11.908-21.237-11.124-.356-21.2,3.442-30,10.121-6.581,5-6.286,12.516.217,17.757,5.056,4.074,10.18,8.058,16.051,12.7a18.123,18.123,0,0,1-9.592,3.057A16.169,16.169,0,0,1,1237.856,636.825Zm-1061.173-3.3c-12.609-4.769-16.749-15.975-20.378-27.417-1.709-5.383-2.765-10.975-4.07-16.483-2.565-10.833-9.381-17.55-20.129-19.6-7.875-1.5-8.976-5.431-5.991-12,5.866-12.919,15.439-21.965,28.64-26.789a21.539,21.539,0,0,1,11.086-.541c10.661,2.127,12.871,8.421,6.5,17.185-.158.219-.3.45-.458.666-12.355,16.515-12.565,16.742,2.516,30.675,6.876,6.352,7.241,13.987,6.9,22.211-.286,6.974,2.647,13.456,9.174,14.307,5.268.688,12.051-1.825,16.451-5.179,5.22-3.979,4.476-9.536-.01-15.515a99.17,99.17,0,0,1-12.746-23.862c-1.183-3.08.621-9.307,3.211-11.328,2.985-2.331,8.872-3.167,12.579-1.91,14.052,4.754,25.86,31.906,20.729,45.907-6.253,17.076-28.067,31.185-45.151,31.184A24.787,24.787,0,0,1,176.683,633.523Zm390.608-2.186a27.981,27.981,0,0,1-3.777-.263c-6.205-.848-12.455-1.773-17.968-2.589l-.011,0q-3.532-.523-6.67-.982a50.8,50.8,0,0,1-14.933-9.271,63.247,63.247,0,0,1-6.372-6.472,67.444,67.444,0,0,1-5.444-7.338,66.726,66.726,0,0,1-4.366-7.934,60.927,60.927,0,0,1-3.139-8.261,51.668,51.668,0,0,1-1.763-8.318,41.537,41.537,0,0,1-.236-8.106c.18-2.439-.674-5.08-1.623-7.57a19.889,19.889,0,0,1-1.28-9.179,18.4,18.4,0,0,1,2.827-8.092,18.772,18.772,0,0,1,2.842-3.439,19.379,19.379,0,0,1,3.645-2.729,20.386,20.386,0,0,1,4.343-1.876,22.066,22.066,0,0,1,4.936-.881c2.631-.171,5.226-1.4,7.736-2.589a38.2,38.2,0,0,1,4.949-2.067c1.023-.317,2.116-.725,3.273-1.158,2.627-.982,5.342-2,7.447-2a3.918,3.918,0,0,1,2.048.481c9.749,5.8,17.542,10.614,24.527,15.157,8.793,5.72,16.5,11.133,23.555,16.548a20.928,20.928,0,0,1,3.8,3.875,34.9,34.9,0,0,1,3.085,4.875,75.818,75.818,0,0,1,4.512,10.852,19.679,19.679,0,0,1,.064,13.572,24.861,24.861,0,0,1-8.79,10.984c-2.592,1.939-4.466,4.341-5.014,6.425a29.016,29.016,0,0,1-3.191,7.693,22.772,22.772,0,0,1-4.923,5.77,20.764,20.764,0,0,1-6.415,3.625,23.16,23.16,0,0,1-7.667,1.257Zm-31.553-71.494c-4.453.319-6.6,1.018-7.395,2.415a4.307,4.307,0,0,0-.078,3.341,31.839,31.839,0,0,0,2.261,5.389,10.27,10.27,0,0,1,.933,3.746,15.654,15.654,0,0,1-.222,3.961,57.42,57.42,0,0,1-2.451,8.354c-.355,1.016-.722,2.067-1.059,3.105a15.647,15.647,0,0,0,13.617,20.785c.7.067,1.424.1,2.157.1,13.609,0,29.465-10.961,33.266-23a6.5,6.5,0,0,0-.435-3.878,6.36,6.36,0,0,0-2.214-3.178,14,14,0,0,1-2.778-2.051,4.71,4.71,0,0,1-1.348-2.256,4.178,4.178,0,0,1,.084-2.093,8.991,8.991,0,0,1,1.21-2.5c1.722-2.816,2.165-5.267,1.279-7.087-.852-1.752-2.906-2.866-5.939-3.222-1-.118-2.021-.239-3-.357a188.837,188.837,0,0,0-22.158-1.768C539.484,559.647,537.558,559.713,535.738,559.843Zm607.369,70.034c-15.509-1.713-23.381-16.609-14.706-29.441,2.032-3,6.928-4.733,10.845-5.7,4.639-1.15,9.649-.8,14.5-1.158,8.919-.654,13.107-8.517,9.484-16.489-1.285-2.823-1.046-6.688-.488-9.908,3.112-18-3.491-25.53-22.223-24.445a56.069,56.069,0,0,0-12.627,2.531c-10.126,3.029-12.78,7.922-10.264,18.152,1.086,4.416,2.433,8.775,3.307,13.229,1.294,6.589-1.746,10.393-8.266,8.8a27.876,27.876,0,0,1-13.471-7.76c-7.012-7.819-8.459-17.716-6.855-27.921,1.147-7.287,5.64-12.5,12.5-14.493,15.506-4.506,31.026-9.647,46.926-12.008,28.266-4.191,48.709,22.319,38.451,49.377-.416.826-.836,2.562-1.922,3.634-4.66,4.6-3.786,9.376-2.068,15.118,3.746,12.513-1.048,20.288-11.98,28.073-8.541,6.083-16.876,10.638-27.157,10.638A36.189,36.189,0,0,1,1143.107,629.877Zm356.644-2.246c-4.738,0-9.98-1.237-16.025-3.782-1.192-.5-2.432-.95-3.63-1.383-.552-.2-1.124-.405-1.685-.615-.125.214-.256.437-.373.634l0,.006-.209.355c-3.412-1.963-6.911-3.915-10.294-5.8-7.7-4.3-15.669-8.745-23.172-13.622a21.834,21.834,0,0,1-3.958-3.328,26.682,26.682,0,0,1-3.241-4.238,31.477,31.477,0,0,1-2.47-4.912,34.865,34.865,0,0,1-2.415-10.908,31.909,31.909,0,0,1,.161-5.526,27.268,27.268,0,0,1,1.145-5.26,22.507,22.507,0,0,1,2.181-4.759c2.929-4.778,2.859-8.718,1.8-13.526a33.656,33.656,0,0,1-.628-11.7,22.489,22.489,0,0,1,3.4-9.5,17.6,17.6,0,0,1,4.936-4.994,18.463,18.463,0,0,1,6.844-2.746,26.347,26.347,0,0,1,4.917-.439,29.487,29.487,0,0,1,7.18.874,18.019,18.019,0,0,1,6.1,2.682c12.94,9.324,26.253,14.71,40.7,16.466a22.621,22.621,0,0,1,6.616,1.8,18.031,18.031,0,0,1,5.18,3.509,17.665,17.665,0,0,1,3.594,5.043,21.383,21.383,0,0,1,1.859,6.4,121.572,121.572,0,0,1,.606,17.883c-.045,2.987-.093,6.074-.025,9.1.049,2.226.167,4.361,1.063,6.012a16.363,16.363,0,0,1,2.029,10.726,19.047,19.047,0,0,1-4.9,9.407c-5.112,5.7-9.155,9.356-13.11,11.863a28,28,0,0,1-6.761,3.182,24.689,24.689,0,0,1-7.408,1.1Zm-25.264-83.4a8.3,8.3,0,0,0-3.972,2.393c-1.345,1.319-2.153,2.705-2.11,3.617a18.867,18.867,0,0,1-1.991,9.8,21.248,21.248,0,0,1-2.686,3.989,32.95,32.95,0,0,1-3.614,3.632,9.367,9.367,0,0,0-2.091,2.844,4.365,4.365,0,0,0-.567,3.011,251.442,251.442,0,0,0,10.4,27.593c1.209,2.6,3.689,4.6,5.682,6.21.777.627,1.448,1.169,1.955,1.671a13.559,13.559,0,0,0,4.38.691c6.463,0,14.22-4.008,19.3-9.975,3.234-3.8,4.726-7.685,4.2-10.949-.256-1.586-.523-3.2-.781-4.753-.811-4.9-1.65-9.958-2.279-14.962a31.739,31.739,0,0,0-8.359-17.429c-4.531-4.791-10.112-7.539-15.312-7.539A14.892,14.892,0,0,0,1474.488,544.228ZM739.109,622.7a19.4,19.4,0,0,1-7.151-5.315c-5.425-6.624-11.53-13.027-15.313-20.575-3.8-7.576-6.977-15.831-3.062-25.3,2.77-6.7,7.517-8.978,13.326-9.6,6.49-.688,11.6,2.93,13.757,9.044,2.317,6.564,3.539,13.53,5.148,20.345.588,2.5.911,5.058,1.352,7.589l2.327,1.451c5.7-5.3,11.65-10.363,16.9-16.084,1.027-1.115-.189-4.969-1.157-7.21-1.762-4.081-5.047-7.682-6.023-11.882-1.9-8.185,2.6-15.272,10.594-18.644,7.443-3.142,14.03-1.453,18.745,5.98,7.657,12.077,9.1,25.457,4.54,38.873-1.252,3.686-5.954,6.445-9.52,8.982-7.966,5.67-16.527,10.522-24.258,16.49-4.673,3.6-9.153,7.091-14.564,7.091A14.163,14.163,0,0,1,739.109,622.7Zm90.462-3.488c-10.1-10.6-15.093-23.228-14.009-37.815a21.2,21.2,0,0,1,4.488-10.829c5.986-7.579,11.59-7.066,16.783.829,11.891,18.069,11.947,18.207,32.069,10.091,7.687-3.1,13.991-.038,20.634,2.933,6.1,2.727,12.288,2.528,17.071-2.564,5.057-5.386,4.3-11.927,1.431-18.014-2.813-5.98-7.537-6.843-14.075-5.365-8.455,1.919-17.347,3.226-25.915,2.686-3.836-.242-9.909-5.3-10.33-8.744-.5-4.1,2.845-10.621,6.521-12.931,11.013-6.925,23.622-8.483,36.293-5.048,3.943,1.066,8.263,3.328,10.837,6.369,12.724,15.028,16.812,32.406,11.689,51.552-.848,3.167-3.506,5.852-5.33,8.758-6.71,7.349-15.456,8.838-24.424,8.475a205.673,205.673,0,0,1-25.471-2.952c-11.417-1.908-20.026,2.341-26.168,11.528-2.071,3.1-4.043,4.528-6.087,4.528C833.684,622.7,831.727,621.477,829.571,619.215Zm521.31-14.337a15.664,15.664,0,0,0-6.485-3.081c-10.5-2.613-18.376-8.14-23.657-17.928-3-5.557-8.545-9.732-11.628-15.258-8.287-14.846-6.517-25.928,4.466-38.744,3.447-4.023,5.427-9.3,8.882-13.308a42.344,42.344,0,0,1,11.074-9.121c6.314-3.56,12.308-2.035,15.986,4.3a46.759,46.759,0,0,1,5.2,13.463c1.554,7.219-2.2,11.952-10.017,13.86-3.462.845-6.956,1.565-13,2.914,11.825,6.023,16.2,13.428,17.727,24.389.652,4.691,9.691,9.826,15.863,11.779,8.918,2.818,18.472,2.6,26.977-3.6,4.431-3.233,5.086-6.761,1.565-9.909-5.55-4.955-11.514-9.8-18.089-13.184-11.952-6.144-15.209-18.48-6.674-29.131,1-1.245,2.177-2.929,3.521-3.207,5.251-1.086,10.83-2.82,15.792-1.828,1.628.324,1.751,8.176,2.849,14.141,7.847,1.7,15.948,7.044,21.277,16.131,5.556,9.469,4.849,15.858-2.38,23.938a7.053,7.053,0,0,0-1.779,4.728c2.134,23.348-8.938,36.365-31.8,36.606-.281,0-.559,0-.839,0C1366.745,612.834,1358.059,611.27,1350.881,604.878Zm-930.464-5.352c-1.075-.768-1.918-1.857-2.969-2.665-4.828-3.714-8.77-10.3-15.889-1.85-1.529,1.814-11.274-.11-13.72-3.172-3.925-4.911-4.912-12.209-7.888-20.605,6.75-2.306,11.972-6.1,15.992-5.076,11.4,2.9,22.362,7.647,33.347,12.046,1.336.535,2.545,3.409,2.47,5.137a86.14,86.14,0,0,1-1.83,12.626c-.753,3.88-2.153,5.778-4.362,5.778C424.181,601.744,422.478,601,420.417,599.526ZM985.888,585.14c-11.014-7.842-13.173-24.253-5.732-37.019,9.8-16.807,26.108-22.511,43.42-26.261,16.013-3.468,32.21-6.2,48.417-8.643,4.906-.741,10.167.258,15.185,1,5.721.836,7.274,4.442,4.38,9.318-8.033,13.523-14.91,27.588-29.8,36.036-7.547,4.286-13.524,11.541-23.017,11.58-3.378.013-6.765-1.766-10.146-2.727,1.458-3.275,2.03-7.813,4.549-9.589,6.981-4.914,14.845-8.558,22.214-12.947,4.365-2.6,8.455-5.662,12.668-8.516q-.729-1.429-1.458-2.858c-5.531.487-11.09.775-16.59,1.5-11.994,1.579-23.967,3.318-35.93,5.1-19.474,2.9-22.26,8.5-13.209,26.276,5.124-1.2,10.211-3.123,15.377-3.346,2.888-.125,7.291,1.855,8.466,4.173s.129,6.9-1.568,9.371a28.328,28.328,0,0,1-23.152,11.824A24.171,24.171,0,0,1,985.888,585.14Zm-678.972,1.412c-9.071-4.59-15.393-10.845-18.645-20.095-2.214-6.3.057-11.311,5.36-14.679,4.932-3.132,9.5-2.087,13.8,2.057,13.468,12.987,13.535,12.917,29.915,3.3,10.082-5.919,16.347-4.729,18.858,3.776.461,1.567.483,4.32-.45,5.095-10.1,8.368-19.545,18.135-33.1,20.53a30.918,30.918,0,0,1-5.384.415C313.84,586.948,310.349,586.581,306.916,586.552ZM1235.5,562.638c-1.153-5.26-.7-12.048,1.828-16.582,2.04-3.661,8.012-5.705,12.643-7.117,4.507-1.37,9.571-.757,14.315-1.49,9.99-1.546,10.825-4.039,7.243-13.352a16.638,16.638,0,0,1,.717-11.982c2.236-4.53,1.084-6.924-2.141-9.658-7.495-6.356-19.348-5.847-28.142,1.158-4.812,3.833-9.538,7.876-14.765,11.049-4.894,2.97-8.846,1.024-8.35-4.927.374-4.532,1.355-10.456,4.369-13.072,15.923-13.837,35.29-18.3,55.9-18.234,1.534,0,3.066.9,4.354,1.3,11.5,4.462,17.365,13.212,17.944,24.84s-4.27,21.24-15.276,26.167c-5.318,2.379-6.621,5.217-6.323,11.016.216,4.2-1.639,10.471-4.722,12.5a141,141,0,0,1-26.841,13.31,13.289,13.289,0,0,1-4.715.884C1239.917,568.444,1236.422,566.83,1235.5,562.638ZM252.427,563.7c-11.471-4.445-20.726-11.572-26.054-23.032-5.073-10.907-3.985-21.2,3.874-30.225,7.176-8.234,20-10.355,32.572-7.168,4.722,4.245,10.172,7.938,13.968,12.891,4.015,5.233,1.793,9.157-4.771,10.232a24.617,24.617,0,0,1-4.091.2,20.234,20.234,0,0,0-4.81.35c-3.589.856-9.789,2.293-9.917,3.885-.345,4.3,1.565,8.947,3.265,13.19,1.561,3.9,4.922,7.223,5.876,11.186,1.472,6.085-.612,9.54-5.059,9.539A13.7,13.7,0,0,1,252.427,563.7Zm160.847-38.82c-.229-3.127,1.968-7.173,4.291-9.6,7-7.308,14.753-13.892,21.964-21.009a33.347,33.347,0,0,1,41.3-4.485c6.687,4.322,11,9.9,8.894,18.84-.545,2.314,1.227,5.429,2.5,7.884,4.347,8.37-3.651,24.973-12.987,26.267-5.446.752-9.271-1.857-9.1-7.435.107-3.484,1.9-7.091,3.569-10.314,3.908-7.53,2-13.614-5.751-17.028-10.31-4.543-33.606,1.488-39.8,10.712-3.531,5.252-3.455,10.514,2.23,14.811,5.307,4.009,10.422,8.266,16.65,13.235a18.128,18.128,0,0,1-8.266,1.962C426.418,548.72,414.159,536.83,413.274,524.884ZM621.642,544.03c-7.642-5.49-14.968-4.115-22.891-3.685-15.789.859-31.478-20.516-24.763-37.773,2.791-2.974,6.882-8.871,12.367-12.86,11.913-8.669,24.607-16.266,36.818-24.543a13.926,13.926,0,0,0,5.339-6.327c4.178-12.4,7.469-14.376,20.1-11.008,18.232,4.858,30.2,19.381,31.079,38.123a23.016,23.016,0,0,1-1.516,9.346c-2.337,5.862-8.225,7.41-11.974,2.521a43.981,43.981,0,0,1-7.5-16.38c-1.218-5.2-3.7-6.69-7.676-4.683-5.865,2.961-11.884,6.214-16.649,10.62-7.4,6.834-11.191,18.173-24.189,17.6-.88-.038-3.171,4.165-2.649,5.631a27.318,27.318,0,0,0,6.139,10.194c1.539,1.506,5.116.934,7.771,1.314,2.394.344,4.8.654,7.178,1.078,5.964,1.065,11.13,3.784,12.263,10.016.511,2.826-1.051,8.2-2.931,8.861-3.688,1.294-8.64,2.948-12.414,2.947A6.655,6.655,0,0,1,621.642,544.03ZM331.1,537.36c-11.108-1.315-17.9-8.877-17.5-19.4.394-10.483,3.861-14.563,14.213-16.168a60.039,60.039,0,0,1,12.079-.853c5.109.244,8.082-1.8,11.359-5.783,3.88-4.717,2.079-7.474.017-11.957-1.577-3.429-.485-8.326.119-12.466,1.969-13.522-2.606-20.406-16.311-20.946-7.565-.3-15.469,1.559-22.8,3.815-6.629,2.042-8.229,8.012-6.775,14.571,1.165,5.262,2.52,10.483,3.763,15.725,1.566,6.6-1.751,8.931-7.79,8.844a14.5,14.5,0,0,1-2.409-.174c-8.654-1.589-16.857-11.972-18.493-23.381-1.9-13.191,1.1-23.046,10.77-26.113,17.622-5.588,35.756-9.66,53.827-13.694,4.17-.929,8.951.844,13.45,1.374,21.062,8.771,29.258,36.368,16.478,55.627a11.429,11.429,0,0,0-1.331,8.43c4.393,15.36.932,22.723-12.2,32.663-8.173,6.188-16.368,10.154-26.07,10.153A37.283,37.283,0,0,1,331.1,537.36Zm387.183-6.333a28.714,28.714,0,0,1-10.738-13.289,26.188,26.188,0,0,1-1.31-15.315,22.539,22.539,0,0,1,2.8-6.7,26.729,26.729,0,0,1,5-5.861,8.661,8.661,0,0,0,2.6-5.758c-.007-6.443,1.141-10.914,3.614-14.071,2.5-3.186,6.408-5.126,12.309-6.1a22.473,22.473,0,0,1,16.661,3.87,21.291,21.291,0,0,1,4.842,4.769,19.994,19.994,0,0,1,3.054,6.167,64.872,64.872,0,0,1,2.768,20.608,75.154,75.154,0,0,1-4.521,22.736,25.193,25.193,0,0,1-2.827,6.092,16.691,16.691,0,0,1-4.141,4.413c-3.289,2.409-7.616,3.649-13.226,3.791-.2,0-.4.008-.6.008A29.177,29.177,0,0,1,718.282,531.027Zm18.945-45.543a28.349,28.349,0,0,0-2.925,2.569,10.079,10.079,0,0,0-1.757,2.7,10.3,10.3,0,0,1-1.715,2.656c-7.417,7.4-7.7,10.734-1.768,20.969,1.257-.4,2.51-.774,3.722-1.136a76.513,76.513,0,0,0,8.646-2.953,8.325,8.325,0,0,0,2.53-1.84A4.174,4.174,0,0,0,745.293,506a84.2,84.2,0,0,0-.888-16.041,10.364,10.364,0,0,0-1.522-3.678c-.831-1.289-1.7-2.055-2.374-2.1-.06,0-.121-.006-.183-.006A5.566,5.566,0,0,0,737.226,485.484ZM905.48,519.928c-5.512-4.361-5.463-9.713-4.347-15.075a12.574,12.574,0,0,1,12.681-10.5c6.656-.085,13.33,1,19.987,1.7,2.853.3,5.672.913,10.92,1.787-2.08-6.847-3.121-11.825-5.08-16.406-4.32-10.1-4.756-10.127-15.036-6.858-10.468,3.331-20.773-2.306-23.179-12.675-2.517-10.86,2.942-18.246,15.158-19.962,11.643-1.634,22.769.736,32.15,7.634,3.6,2.654,5.888,8,7.3,12.574,3.043,9.877,4.533,20.247,7.8,30.038,2.665,8,3.563,15.177-2.09,22.009a11.3,11.3,0,0,1-4.153,3.5c-5.724,2.2-11.544,4.164-17.4,5.985a54.26,54.26,0,0,1-15.931,2.85A29.164,29.164,0,0,1,905.48,519.928Zm-70.837-.8H834.5A158.862,158.862,0,0,1,812.794,517c-2.817-.411-5.475-.8-8-1.093a45.508,45.508,0,0,1-7.841-3.825,55.207,55.207,0,0,1-7.263-5.309,64.069,64.069,0,0,1-6.518-6.5,69.133,69.133,0,0,1-10.136-15.431,62.071,62.071,0,0,1-3.286-8.348,51.674,51.674,0,0,1-1.877-8.385,40.493,40.493,0,0,1-.3-8.13,19.105,19.105,0,0,0-1.211-7.756,22.552,22.552,0,0,1-1.45-9.83,18.88,18.88,0,0,1,.921-4.433,17.835,17.835,0,0,1,4.749-7.348,19.006,19.006,0,0,1,3.677-2.674,22.539,22.539,0,0,1,9.532-2.732,23.464,23.464,0,0,0,11.926-4.678c3.329-2.555,6.217-3.745,9.086-3.745a11.548,11.548,0,0,1,4.022.754,19.9,19.9,0,0,1,4.338,2.307c5.7,3.878,11.727,7.462,17.56,10.928,5.338,3.172,10.858,6.452,16.108,9.95a77.4,77.4,0,0,1,7.636,5.737A51.523,51.523,0,0,1,861,453.114a40.447,40.447,0,0,1,5.016,7.856,38.486,38.486,0,0,1,3.088,9.321,29.153,29.153,0,0,1,.567,6.884,21.644,21.644,0,0,1-1.176,6.2,21.372,21.372,0,0,1-2.977,5.584,28.339,28.339,0,0,1-4.837,5.021,20.426,20.426,0,0,0-6.117,9.234,24.086,24.086,0,0,1-7.19,11.291,19.173,19.173,0,0,1-5.722,3.381,19.937,19.937,0,0,1-7.009,1.233ZM794.5,449.437c-1.473.728-3.142,1.553-5,2.3a26.262,26.262,0,0,1,3.267,3.033,17.6,17.6,0,0,1,2.193,3.007,12.979,12.979,0,0,1,1.749,5.933c.19,3.966-1.373,7.871-2.989,11.532-2.565,5.81-2.333,11.534.655,16.118,3.188,4.891,9.053,7.811,15.69,7.811h0a23.168,23.168,0,0,0,3.538-.276c13.08-2.028,20.826-10.6,28.432-22.85a4.886,4.886,0,0,0-.068-3.411c-.421-1.509-1.267-3.248-2.209-3.729-2.29-1.172-3.632-2.488-4.1-4.025a5.426,5.426,0,0,1,.032-3.025,15.481,15.481,0,0,1,1.481-3.458c1.3-2.373,1.565-4.458.762-6.03-.765-1.5-2.467-2.453-4.924-2.764-9.848-1.239-20.415-2.424-30.956-2.7l-.169,0C799.614,446.907,797.355,448.024,794.5,449.437ZM104.168,509.41c-3.359-5.087-4.585-10.869-.12-16.156,4.121-4.878,9.644-6.062,15.12-3,6.522,3.639,12.082,5.168,17.651-1.527.752-.9,5.026-.258,6.526,1,5.64,4.72,5.356,11.029,3.449,18.267-1.628,1.824-3.464,4.483-5.871,6.458-2.89,2.369-7.879,3.449-13.309,3.449C118.293,517.9,107.674,514.714,104.168,509.41ZM1369.2,506.789a26.181,26.181,0,0,1-6.949-.914,24.824,24.824,0,0,1-6.157-2.643,29.045,29.045,0,0,1-5.41-4.226,39.134,39.134,0,0,1-4.707-5.661,26.937,26.937,0,0,1-4.953-13.032,23.835,23.835,0,0,1,.409-6.806,28.624,28.624,0,0,1,2.423-6.934c.729-1.474,1.878-3.528,3.435-4.349,4.295-2.265,4.989-5.347,4.808-10.6a17.767,17.767,0,0,1,.928-6.57,14.185,14.185,0,0,1,3.158-5.123,17.036,17.036,0,0,1,5.191-3.612,26.537,26.537,0,0,1,7.026-2.037,20.623,20.623,0,0,1,3.169-.244,21.9,21.9,0,0,1,6.608,1.034,22.758,22.758,0,0,1,5.964,2.9,21.274,21.274,0,0,1,4.783,4.452,18.615,18.615,0,0,1,3.068,5.7,62.83,62.83,0,0,1,3.216,20.8,77.232,77.232,0,0,1-4.057,22.7,19.53,19.53,0,0,1-1.971,5.01,18.466,18.466,0,0,1-3.444,4.386,19.468,19.468,0,0,1-5,3.38,24.28,24.28,0,0,1-6.639,1.993,31.884,31.884,0,0,1-4.9.393Zm3.223-50.754a29.2,29.2,0,0,0-2.987,2.4c-.258.227-.523.459-.78.684-2.471,2.158-5.026,4.39-6.356,7.166-1.612,3.368-1.716,7.539-1.519,10.445.12,1.759.954,3.482,2.008,5.664.541,1.119,1.154,2.387,1.76,3.845,1.9-1.131,3.872-2.1,5.776-3.031,4.137-2.03,8.045-3.948,10.076-7.057a8.87,8.87,0,0,0,.99-5.441,51.286,51.286,0,0,0-1.065-6.716c-.238-1.172-.463-2.279-.639-3.342a10.808,10.808,0,0,0-1.491-3.673c-.807-1.282-1.668-2.062-2.363-2.14a2.613,2.613,0,0,0-.294-.016A5.908,5.908,0,0,0,1372.42,456.035ZM1162.55,495.908c2.549-5.075-.289-6.868-4.005-6.887-4.718-.025-9.53,1.12-14.145,2.341-4.654,1.229-6.092-.692-5.719-4.748.56-6.135,3.287-11.27,9.951-11.7,7.882-.514,15.855.231,23.788.43,0,.491,0,.982,0,1.47,1.708.787,3.469,1.472,5.109,2.368,8.2,4.486,15.324,13.911,12.124,16.788a46.927,46.927,0,0,1-19.583,10.472,11.874,11.874,0,0,1-2.776.355C1161.737,506.79,1159.531,501.915,1162.55,495.908ZM971.708,480.465c-6.009-13.229-3.684-25.34,5.474-32.873,9.706-7.985,24.5-8.223,35.88-.573a4.079,4.079,0,0,1,1.27.964c2.8,4.485,5.562,9,8.332,13.507-4.566,1.414-9.115,2.871-13.7,4.231-3.869,1.145-9.609.974-11.266,3.513-3.165,4.851-.349,10.021,3.688,14.273,2.13,2.246,4.266,5.162,4.8,8.067.609,3.34.537,7.832-1.3,10.249-.971,1.274-3.649,1.248-5.859,1.221a19.656,19.656,0,0,0-2.266.049C985.564,497.072,976.453,490.915,971.708,480.465ZM174.1,492.157c-11.442-8.722-13.153-24.2-4.85-37.7,6.3-10.232,15.247-17.369,26.382-20.138,21.954-5.46,44.188-9.987,66.513-13.663,5.99-.988,12.724,2.476,19.115,3.9-1.958,5.1-3.624,10.345-5.935,15.287-7.751,16.578-22.221,26.482-36.951,35.911-2.972,1.9-7.1,2.687-10.708,2.731-3.38.038-6.783-1.588-10.174-2.483,1.57-3.488,2.215-8.25,4.9-10.207,6.484-4.718,13.989-8.011,20.959-12.09,4.708-2.752,9.2-5.863,13.8-8.814q-.519-1.4-1.042-2.788c-4.044.331-8.106.513-12.132,1.014-13.934,1.741-27.9,3.308-41.767,5.471-19.414,3.023-21.848,8.224-12.722,26.122,5.453-1.274,10.365-3.257,15.289-3.272,3.1-.011,7.517,2.2,8.93,4.754,1.167,2.1-.308,6.861-2.164,9.234a29.38,29.38,0,0,1-22.9,11.512A23.819,23.819,0,0,1,174.1,492.157Zm1374.291,2.316c-7.356-2.031-14.245-10.228-13.753-18.174.467-7.554,6.6-13.23,15.675-12.968,8.749.252,17.463,1.807,28.237,3.019-2.023-6.582-3.223-11.762-5.206-16.626-2.7-6.62-5.416-11.4-14.749-6.438-9.7,5.161-20.255-1.361-23.071-12.051-2.7-10.233,2.653-18.068,14.157-19.973a43.337,43.337,0,0,1,34.334,8.42c3.458,2.658,4.925,8.465,6.3,13.129,2.63,8.886,3.809,18.245,6.955,26.915,3.039,8.377,4.691,15.971-1.406,23.476-.839,1.032-1.48,2.807-2.482,3.032-12.077,2.7-23.35,9.454-35.983,9.454A33.53,33.53,0,0,1,1548.392,494.473Zm-472.445-4.1c-9.391-3.364-14.145-10.891-17.268-19.343a206.4,206.4,0,0,1-7.1-24.749c-2.641-11.32-9.9-17.648-20.769-19.772-7.063-1.38-8.251-4.825-5.631-10.806,5.907-13.478,15.664-23.006,29.58-27.666a21.2,21.2,0,0,1,11.753-.045c9.325,2.606,11.012,8,5.713,15.875-12.13,18.037-12.235,18.14,3.043,33.636,5.836,5.92,5.436,12.95,5.252,20.26-.17,6.712,2.405,12.37,8.963,14.826,6.935,2.591,12.695-.651,17.22-5.669,4.448-4.931,3.422-9.644-.469-15.126-5.039-7.091-9.683-14.824-12.49-22.974-1.257-3.65,1.08-11.242,4.1-12.967,3.6-2.056,10.925-1.488,14.481,1.019,10.66,7.52,16.967,18.6,18.682,31.673.535,4.071.111,8.951-1.708,12.518-8.995,17.625-23.5,28.161-43.189,30.847a9.616,9.616,0,0,1-1.3.085C1081.93,491.994,1078.895,490.859,1075.947,490.371Zm391.344-2.079a31.365,31.365,0,0,1-9.157-1.452c-4.687-1.419-9.7-1.486-13.722-1.539-1.474-.02-2.748-.037-3.806-.119a56.319,56.319,0,0,1-15.717-9.726,64.733,64.733,0,0,1-6.583-6.589,67.171,67.171,0,0,1-5.565-7.41,65.6,65.6,0,0,1-4.422-7.986,60.245,60.245,0,0,1-3.154-8.315,52.223,52.223,0,0,1-1.761-8.4,43.386,43.386,0,0,1-.242-8.234,17.34,17.34,0,0,0-1.421-6.925,22.372,22.372,0,0,1-1.515-9.985,18.772,18.772,0,0,1,.954-4.5,17.8,17.8,0,0,1,4.919-7.421,18.992,18.992,0,0,1,3.805-2.66,22.534,22.534,0,0,1,9.823-2.533,19.5,19.5,0,0,0,11.128-4.419c3.337-2.823,6.3-4.138,9.337-4.138a11.62,11.62,0,0,1,3.906.7,19.491,19.491,0,0,1,4.2,2.144c4.594,3.007,9.426,5.828,14.1,8.556,6.326,3.694,12.866,7.512,18.893,11.837,8.376,6.011,14.623,12.289,18.567,18.659,2.979,4.807,3.765,11.079,4.525,17.145.178,1.423.363,2.9.572,4.306a9.182,9.182,0,0,1-.6,4.13,5.48,5.48,0,0,1-2.167,3.06c-6.146,3.018-8.756,8.825-11.28,14.44a52.712,52.712,0,0,1-4.216,8.1,19.96,19.96,0,0,1-2.907,3.428,16.391,16.391,0,0,1-3.868,2.685,27.7,27.7,0,0,1-12.627,3.151Zm-36.442-69.953c-1.849.735-3.761,1.494-5.91,2.193a21.347,21.347,0,0,1,5.335,6.167,13.8,13.8,0,0,1,1.705,6.041,19.988,19.988,0,0,1-.713,5.953c-.506,1.974-1.224,3.97-1.918,5.9-.272.757-.554,1.54-.819,2.311A15.445,15.445,0,0,0,1442.7,468c.491.03,1,.046,1.5.046h0c13.7,0,29.676-10.937,33.523-22.946a7.04,7.04,0,0,0-.412-4.056,5.779,5.779,0,0,0-2.188-3.174,10.871,10.871,0,0,1-2.787-1.854,4.625,4.625,0,0,1-1.3-2.048,4.755,4.755,0,0,1,.075-2.676,12.745,12.745,0,0,1,1.453-3.086c1.558-2.541,1.95-4.687,1.166-6.378-.807-1.74-2.849-2.908-5.9-3.377-9.224-1.423-18.245-2.7-27.191-2.759h-.078C1437.509,415.693,1434.423,416.919,1430.849,418.339ZM514.6,476.763c-1.652-2.207-1.512-7.419.061-9.946,2.592-4.15,7.346-6.906,10.461-10.819,1.812-2.275,3.547-5.944,3-8.49-1.519-7.018-1.994-13.461,1.238-20.254,1.242-2.607.066-6.356-.006-9.585l-2.594-1.1c-3.569,4.013-7.3,7.9-10.67,12.076-3.523,4.36-6.376,9.278-10.1,13.449-7.183,8.06-17.564,10.218-27.128,5.716-5.563-2.615-7.617-7.078-5.671-13.262,5.435-17.286,43.721-44.324,62.012-43.648,8.573.317,13.313,5.077,15.287,14.609,3.069,14.817-2.129,28.527-5.3,42.522-.41,1.814-.9,3.612-1.259,5.437-.868,4.461-.237,10.186-2.826,13.127-4.594,5.22-10.8,9.368-17.026,12.659a4.605,4.605,0,0,1-2.11.416C519.351,479.667,515.811,478.385,514.6,476.763Zm774.015-29.052c-7.384-2.285-11.231-11.946-8.452-18.375,3-6.937,10.417-8.819,19.7-4.783,4.9,2.948,9.749,3.616,14.161-1.6,4.089-4.833,8.41-1.686,9.612,1.723,1.824,5.169,3.735,12.267,1.458,16.336-2.665,4.763-9.463,9.229-15.051,10.044a24.8,24.8,0,0,1-3.569.247C1300.6,451.3,1294.333,449.483,1288.613,447.711Zm-81.395-4.6c-8.477-4.162-14.387-10.071-17.95-18.438-2.73-6.416-1.114-11.755,4.434-15.593s10.385-2.312,15,2.422c12.666,12.988,12.764,12.892,28.168,3.216,10.006-6.288,16.458-5.772,19.574,1.9.774,1.91.911,5.6-.228,6.542-10.5,8.683-20.429,18.7-34.8,20.549a25.389,25.389,0,0,1-3.259.195C1214.548,443.9,1210.856,443.3,1207.219,443.113ZM688.936,429.335c-6.5-5.516-11.471-12.272-10.271-21.345.33-2.493,2.827-4.955,4.832-6.925,6.238-6.134,13.043-11.719,19.029-18.077,11.5-12.216,26.755-15.283,41.58-7.753,8.468,4.3,11.461,10.285,10.767,19.953-.166,2.33,1.156,4.976,2.367,7.162,4.8,8.648-3.229,25.589-13.014,26.81-4.989.624-8.436-1.71-8.94-6.869a12.331,12.331,0,0,1,1.229-6.925c3.058-5.357,7.316-10.359,2.032-16.616-5.067-6-12.114-7.338-18.944-5.493a97.309,97.309,0,0,0-23.476,9.486c-7.079,4.12-6.684,12.1-.251,17.263,5.053,4.059,10.244,7.947,17.091,13.235a27.066,27.066,0,0,1-9.762,2.036C697.408,435.275,692.992,432.772,688.936,429.335Zm-594.5-2.651c-6.035-4.482-6.611-10.67-4.518-15.549,1.881-4.372,7.361-9,11.969-9.921,6.519-1.31,13.7.625,20.593,1.274,2.8.265,5.582.788,8.924,1.276a34.768,34.768,0,0,0-8.1-23.847c-.977-1.232-5.174-.9-7.34.017-13.084,5.544-25.868-1.6-26.385-15.041-.3-7.782,3.533-13.568,11.191-15.63,14.182-3.814,27.273-.31,38.655,8.295,3.043,2.3,4.042,7.808,5.214,12.056,2.544,9.222,3.968,18.793,7.03,27.82,2.849,8.4,4.532,16.086-1.877,23.429-1.021,1.172-1.98,2.766-3.3,3.246-6.738,2.438-13.5,4.893-20.411,6.743a50.954,50.954,0,0,1-13.128,1.962A29.985,29.985,0,0,1,94.435,426.684Zm502.878-1.558c-14.9-1.855-22.578-16.845-14.717-29.57a9.937,9.937,0,0,1,5.515-4.175,91.327,91.327,0,0,1,17.5-2.688c5.264-.174,8.592-1.661,12.163-5.966,4.08-4.921,1.836-7.566-.178-11.877-1.394-2.981-.527-7.273.049-10.862,2.508-15.657-2.782-22.414-18.648-22.947a42.937,42.937,0,0,0-11.232,1.116c-15.886,3.769-18.44,8.257-14.205,24.02.559,2.084,1.39,4.213,1.365,6.313-.041,3.551.378,9.421-1.265,10.154a17.254,17.254,0,0,1-12.163.085c-10-3.905-16-17.616-14.87-31.676.812-10.127,5.976-16.157,17.727-19.355,14.05-3.827,28.155-7.6,42.437-10.379,5.827-1.139,12.177.37,18.29.673,20.721,9.23,29.088,36.541,16.938,55.545a13.945,13.945,0,0,0-1.377,9.937c3.794,14.478-.053,22.681-12.063,31.45-8.41,6.142-16.692,10.487-26.744,10.487A36.512,36.512,0,0,1,597.313,425.126Zm356.972-3.417c-4.567,0-9.606-1.163-15.406-3.553-1.372-.565-2.792-1.08-4.165-1.577-.629-.228-1.279-.464-1.919-.7-.171.285-.344.579-.512.864l-.037.062c-3.36-1.925-6.808-3.834-10.142-5.68-7.558-4.185-15.374-8.512-22.7-13.316a25.42,25.42,0,0,1-7.476-7.66,31.306,31.306,0,0,1-4.13-10.086,34.878,34.878,0,0,1-.66-11.092,32.146,32.146,0,0,1,2.932-10.674c1.426-2.988,1.606-6.631,1.78-10.154.039-.792.08-1.61.134-2.4a53.578,53.578,0,0,0-.024-5.743,34.315,34.315,0,0,1,.36-8.517,23.45,23.45,0,0,1,2.724-7.017,21.348,21.348,0,0,1,4.5-5.378,19.633,19.633,0,0,1,5.768-3.444,18.171,18.171,0,0,1,12.107-.337,20.4,20.4,0,0,1,5.469,2.739c14.5,10.142,29.261,16.17,45.129,18.428,7.466,1.063,12.741,6.094,13.767,13.129a189.119,189.119,0,0,1,1.474,20.145c.11,2.967.225,6.033.4,9.04.034.584.023,1.212.011,1.818a8.189,8.189,0,0,0,.625,4.245,15.865,15.865,0,0,1,2.3,11.576,20.568,20.568,0,0,1-5.523,9.868c-2.443,2.6-4.583,4.71-6.542,6.449a46.566,46.566,0,0,1-6.385,4.849,27.952,27.952,0,0,1-6.618,3.053,24.5,24.5,0,0,1-7.24,1.061ZM931.3,337.731c-4.986,0-7.8,3.078-8.849,9.687-.533,3.337-2.534,6.506-4.471,9.57-.736,1.165-1.5,2.368-2.16,3.557a16.483,16.483,0,0,1-1.888,2.485c-1.195,1.39-2.323,2.7-2.112,3.826,2.214,11.762,4.723,25.094,15.838,34.18a15.714,15.714,0,0,0,9.8,3.748,10.65,10.65,0,0,0,7.351-2.761,46.531,46.531,0,0,0,12.361-20.134c1.115-3.866.018-8.428-1.043-12.841-.471-1.958-.958-3.983-1.245-5.919-1.5-10.066-7.129-18.127-16.744-23.961a20.559,20.559,0,0,0-6.839-1.436h0Zm216.395,71.634A205.45,205.45,0,0,1,1122.5,398.6c-9.145-4.781-11.75-11.551-8.347-18.288,3.384-6.7,8.886-8.037,18.63-4.591.437.155,1.025-.108,2.111-.257-.318-1.773-1.26-3.695-.818-5.208,1.264-4.324,2-10.742,4.955-12.166,4.315-2.079,11.5-2.47,15.5-.166,12.7,7.317,15.583,20.877,9.181,33.995-1.494,3.061-1.735,6.724-2.635,10.089-1.572,5.88-3.652,8.6-7.658,8.6A17.34,17.34,0,0,1,1147.693,409.365Zm-342.646-9.551c-.85-.643-1.741-1.559-2.7-1.681-16.1-2.067-24.065-14.58-33.2-25.667-6.555-7.956-10.268-17.077-10.47-27.261-.086-4.371.724-9.444,2.981-13.027a177.526,177.526,0,0,1,17.218-22.933c4.995-5.649,11.245-10.56,19.709-7.368,5.366,2.025,11.485,15.706,10.477,22.336-.809,5.33-3.817,8.705-9.206,9.809-3.8.778-7.582,1.62-13.9,2.978,11.885,5.965,15.891,13.645,17.951,24.323.977,5.062,9.991,10.3,16.333,12.183,8.237,2.449,17.3,2.225,25.389-3.447,5.6-3.928,5.663-7.773,1.179-11.591-5.252-4.468-10.9-8.792-17.055-11.779-5.768-2.8-11.527-4.345-11.047-12.506.485-8.256,1.1-16.805,9.49-20.638,4.3-1.964,10.327-2.048,14.853-.65,1.707.53,1.385,7.651,1.987,11.766q-1.011.579-2.017,1.163c2.646,1,5.34,1.888,7.932,3.01,10.39,4.5,16.941,12.58,18.642,23.5.628,4.016-1.65,9.395-4.353,12.736-2.44,3.022-3.713,4.837-2.57,8.84,3.374,11.829-1.7,23.494-12.957,28.911-7.085,3.408-14.146,5.327-21.1,5.327C820.574,408.146,812.679,405.589,805.047,399.813Zm508.773-18.159c-.25-3.438,1.708-7.907,4.133-10.512,6.894-7.41,14.671-13.98,21.886-21.1,11.646-11.493,30.3-13.067,43.338-3.249,5.45,4.1,8.523,9.256,7.344,16.693-.44,2.751.986,6.1,2.335,8.79,4.184,8.327-3.961,25.01-13.16,26.479-5.143.823-9.453-2.964-9.253-8.467a12.743,12.743,0,0,1,1.662-6.124c3.095-4.866,6.521-9.465,2.312-15.394-4.459-6.278-11.111-8.048-17.783-6.479-8.2,1.922-16.532,4.589-23.829,8.687-9.012,5.056-8.738,12.762-.6,19.325q7.169,5.786,14.331,11.582a24.634,24.634,0,0,1-7.966,1.326C1325.937,403.209,1314.685,393.482,1313.82,381.654Zm-80.96,11.568c-11.771-.971-19.568-9.06-18.891-19.752.627-9.951,4.7-14.479,14.743-15.806,4.538-.6,9.168-.492,13.744-.874,9-.748,12.747-8.343,9.72-16.533-1.6-4.335-.644-9.8-.044-14.665,1.443-11.7-2.838-18.443-14.8-19.1-7.851-.431-16.029,1.227-23.738,3.179-7.106,1.8-9.385,7.528-7.786,14.546,1.245,5.471,2.7,10.9,3.9,16.376,1.309,5.99-1.543,8.534-7.452,8.24a19.436,19.436,0,0,1-4-.5c-9.694-2.544-17.189-14.152-17.661-27.253-.464-12.817,3.749-20.156,15-23.517,13.958-4.173,28.068-8.075,42.353-10.9,6.872-1.357,14.3.015,21.477.147,20.648,9.213,28.852,36.584,16.441,55.416a12.177,12.177,0,0,0-1.375,8.944c4.255,15.052.7,22.712-11.935,31.791-8.368,6.01-16.616,10.386-26.729,10.386Q1234.374,393.346,1232.86,393.222ZM439.4,380.085c-11.442-8.51-13.2-24.438-5.075-37.638,6.308-10.25,15.133-17.536,26.27-20.293,22.252-5.507,44.812-9.958,67.438-13.712,5.787-.96,12.288,2.315,18.462,3.644-1.867,5.093-3.318,10.386-5.683,15.242-7.956,16.337-21.884,26.915-36.994,35.869-4.33,2.566-10.2,3.186-15.43,3.441-6.023.292-7.99-3.712-4.563-8.42a37.376,37.376,0,0,1,10.644-9.388c6.652-4.076,13.86-7.235,20.684-11.051,2.458-1.375,4.478-3.522,6.7-5.314q-.459-1.344-.92-2.686c-4.366.411-8.747.7-13.1,1.259-13.941,1.782-27.92,3.35-41.791,5.585-18.283,2.949-20.928,9.515-11.137,25.988,4.935-1.2,9.83-3.221,14.759-3.3,3.146-.051,7.593,2.021,9.116,4.542,1.224,2.021-.151,6.843-1.959,9.229a29.091,29.091,0,0,1-22.974,11.638A24.068,24.068,0,0,1,439.4,380.085Zm591.969-5.242a71,71,0,0,1-20.214-3.646c-7.636-2.566-11.471-12.6-8.392-19.157,3.029-6.462,10.571-8.3,18.872-4.355,5.058,3.327,9.767,3.339,14.62-1.7,1.194-1.239,5.955-.8,7.676.6,5.461,4.46,5.474,11.005,3.27,16.934-2.534,6.824-8.042,11.328-15.289,11.328C1031.727,374.851,1031.546,374.848,1031.365,374.843ZM688.238,356.454c-2.329-6.562.428-15.952,6.716-19.032,4.679-2.291,10.218-2.957,15.444-3.993,3.692-.73,7.611-.449,11.24-1.353,7.436-1.854,7.7-4.185,5.007-11.389-1.488-3.977-1.577-9.519.09-13.317,1.833-4.183,1.288-6.329-1.693-8.977-7.334-6.515-18.857-6.761-27.7-.334-5.018,3.647-9.612,7.93-14.874,11.162-6.857,4.212-10.855,2.21-10.046-5.483.507-4.809,2.823-10.921,6.459-13.647,15.606-11.694,33.9-16.209,53.314-16.351,2.089-.015,4.185.952,5.235,1.213,12.074,4.666,17.892,13.232,18.684,24.409.792,11.194-3.547,20.923-14.248,26-5.984,2.839-8.7,5.724-7.464,12.771.577,3.288-1.333,8.8-3.96,10.508a146.169,146.169,0,0,1-26.793,14,15.879,15.879,0,0,1-5.623,1.115C693.956,363.756,690.134,361.792,688.238,356.454Zm386.856-5.9c-11.221-6.7-15.081-23.77-8.518-35.933,8.867-16.424,23.9-23.564,40.851-27.392,16.23-3.665,32.616-6.735,49.042-9.377,5.693-.916,11.757-.142,17.573.54,6.586.772,8.216,4.883,4.757,10.322-5.91,9.3-10.845,19.852-18.728,27.086-9.707,8.907-19.6,19.367-34.394,19.995-2.916.123-5.9-1.367-8.856-2.113,1.11-3.352,1.214-8.11,3.528-9.791,6.905-5.015,14.745-8.705,22.085-13.139,4.612-2.789,8.976-5.99,13.451-9.007q-.672-1.483-1.339-2.959c-4.428.485-8.869.893-13.284,1.467-13.316,1.731-26.674,3.2-39.918,5.368-19.431,3.178-21.971,8.887-12.655,26.408,5.444-1.3,10.771-3.285,16.217-3.686,7.6-.563,10.961,5.96,7.067,12.646-4.734,8.128-14.59,12.9-24.141,12.9A24.794,24.794,0,0,1,1075.095,350.558ZM359.4,314.7c-5.9-4.955-6.094-10.678-4.513-16.545,1.679-6.22,6.946-9.776,13.414-9.71,6.661.064,13.317,1.163,19.967,1.891,2.551.28,5.077.779,9.473,1.473-1.5-6.033-2.148-10.287-3.613-14.239-4.16-11.24-5.433-11.771-16.945-8.625-10.24,2.8-20-2.957-22.245-13.112-2.19-9.894,3.2-17.919,14.026-19.653,12.421-1.993,24.37.441,34.265,8.234,3.474,2.734,5.142,8.4,6.529,13.064,2.722,9.164,3.97,18.8,7.135,27.785,2.977,8.444,4.378,16.076-1.835,23.444-1.014,1.2-2.061,2.8-3.406,3.231-9.127,2.942-18.18,6.7-27.566,8.06a52,52,0,0,1-7.461.6C370.691,320.6,364.784,319.216,359.4,314.7Zm256.713-22.877c3.414-6.811-.648-8.045-5.35-7.756-5.476.334-10.874,1.974-16.8,3.148-1.992-11.379.9-16.385,10.411-17.852,12.506-1.929,23.956,1.154,33.544,9.67,8.838,7.85,7.937,14.751-2.573,19.8a31.368,31.368,0,0,1-12.914,3.266h-.092C615.866,302.1,613.2,297.624,616.115,291.823Zm207.513,9.045a30.3,30.3,0,0,1-27.359-19.346,30.906,30.906,0,0,1-1.744-7.808,22.176,22.176,0,0,1,.535-7.092,21.217,21.217,0,0,1,2.773-6.389,27.558,27.558,0,0,1,4.97-5.7,8.823,8.823,0,0,0,2.577-5.882,35.8,35.8,0,0,1,.961-8.314,15.875,15.875,0,0,1,2.775-5.933c2.467-3.166,6.331-5.072,12.159-6a23.533,23.533,0,0,1,3.677-.292,22.756,22.756,0,0,1,6.912,1.069,22.075,22.075,0,0,1,6.081,3.024,21.115,21.115,0,0,1,4.806,4.709,20.5,20.5,0,0,1,3.087,6.122,65.38,65.38,0,0,1,2.3,10.332,63.386,63.386,0,0,1,.565,10.284,66.815,66.815,0,0,1-1.08,10.24,75.846,75.846,0,0,1-2.637,10.2,36.33,36.33,0,0,1-3.471,7.438A20.559,20.559,0,0,1,837,296.713a17.489,17.489,0,0,1-5.744,3.061,24.865,24.865,0,0,1-7.166,1.089c-.156,0-.308,0-.463,0Zm-.367-48.719A79.216,79.216,0,0,0,817,259.407c-1.048,1.309-2.235,2.793-3.566,4.4l.46,2.282c.681,3.379,1.615,8.006,2.693,13.362,1.838-.618,3.538-1.16,5.038-1.638a80.618,80.618,0,0,0,8.892-3.192c1.679-.76,3.726-2.87,3.751-4.351a93.681,93.681,0,0,0-1.146-15.948c-.326-2.1-2.2-5.441-3.334-5.441h0C827.419,248.889,824.792,250.647,823.262,252.149ZM451.5,297.485c-11.266-4.2-20.411-11.2-25.921-22-5.5-10.769-5.09-21.5,2.925-30.962,7.342-8.662,20.069-10.856,33.319-7.526,4.72,4.546,9.942,8.7,14,13.763,3.357,4.186,1.069,7.815-3.951,8.84-3.662.749-7.586.209-11.255.938-3.157.624-8.349,1.774-8.7,3.5-.767,3.735.382,8.221,1.859,11.965,1.914,4.848,6.039,9.021,7.18,13.948,1.259,5.432-.857,8.457-4.992,8.457A12.992,12.992,0,0,1,451.5,297.485Zm542.589-14.922c-2.994-3.152-5.247-9.177-4.409-13.171.863-4.117,5.451-9.784,9.21-10.474,7.683-1.413,15.9-.027,23.893.383,2.812.144,5.593.8,10.372,1.529-1.766-6.454-2.6-10.948-4.225-15.138-3.926-10.146-5.525-10.8-15.964-7.872-11.2,3.144-20.713-2.134-23.056-12.8-2.389-10.863,3.083-18.032,15.428-19.837a43.206,43.206,0,0,1,32.891,8.271c3.661,2.748,5.253,8.847,6.742,13.736,2.7,8.866,4.017,18.168,7.023,26.909,2.661,7.74,4.872,15.081-.781,22.077-1.8,2.224-4.816,3.721-7.562,4.876-5.936,2.492-11.917,5.115-18.135,6.659a58.308,58.308,0,0,1-13.838,2.052C1005.305,289.768,999.232,287.982,994.087,282.563ZM530.733,285.79c-12.609-4.769-16.749-15.975-20.378-27.417-1.709-5.383-2.765-10.975-4.071-16.483-2.564-10.833-9.381-17.55-20.129-19.6-7.875-1.5-8.976-5.431-5.991-12,5.866-12.917,15.44-21.963,28.64-26.787a21.539,21.539,0,0,1,11.086-.541c10.661,2.127,12.871,8.424,6.5,17.185-.158.219-.3.45-.458.666-12.356,16.514-12.565,16.742,2.516,30.675,6.876,6.352,7.239,13.987,6.9,22.211-.285,6.974,2.647,13.456,9.174,14.307,5.268.688,12.051-1.825,16.45-5.179,5.222-3.982,4.478-9.536-.008-15.515a99.147,99.147,0,0,1-12.746-23.862c-1.183-3.08.621-9.307,3.211-11.328,2.985-2.33,8.872-3.167,12.579-1.91,14.052,4.754,25.859,31.906,20.729,45.908-6.253,17.076-28.067,31.185-45.151,31.184A24.788,24.788,0,0,1,530.733,285.79ZM921.342,283.6a27.992,27.992,0,0,1-3.777-.263c-6.207-.849-12.459-1.774-17.975-2.591h0c-2.36-.349-4.588-.679-6.67-.982a50.8,50.8,0,0,1-14.932-9.27,63.17,63.17,0,0,1-6.373-6.472,67.523,67.523,0,0,1-5.444-7.338,66.778,66.778,0,0,1-4.366-7.934,60.884,60.884,0,0,1-3.139-8.261,51.677,51.677,0,0,1-1.763-8.318,41.541,41.541,0,0,1-.236-8.106c.181-2.437-.674-5.078-1.624-7.57a19.9,19.9,0,0,1-1.28-9.18,18.383,18.383,0,0,1,2.827-8.093,18.742,18.742,0,0,1,2.842-3.438,19.377,19.377,0,0,1,3.645-2.729,20.381,20.381,0,0,1,4.343-1.876,22.078,22.078,0,0,1,4.935-.881c2.633-.172,5.229-1.4,7.739-2.589a38.187,38.187,0,0,1,4.948-2.067c1.023-.317,2.116-.725,3.273-1.157,2.627-.981,5.343-2,7.448-2a3.919,3.919,0,0,1,2.047.48c9.749,5.8,17.542,10.614,24.527,15.158,8.793,5.72,16.5,11.132,23.554,16.548a20.918,20.918,0,0,1,3.8,3.875,34.885,34.885,0,0,1,3.085,4.875,75.925,75.925,0,0,1,4.512,10.852,19.679,19.679,0,0,1,.064,13.572,24.855,24.855,0,0,1-8.79,10.983c-2.6,1.945-4.469,4.347-5.011,6.426a29.025,29.025,0,0,1-3.193,7.693,22.761,22.761,0,0,1-4.924,5.77,20.757,20.757,0,0,1-6.415,3.625,23.157,23.157,0,0,1-7.667,1.258Zm-31.555-71.495c-4.451.319-6.593,1.018-7.393,2.415a4.307,4.307,0,0,0-.078,3.341,31.882,31.882,0,0,0,2.261,5.389A10.281,10.281,0,0,1,885.51,227a15.638,15.638,0,0,1-.221,3.962,57.473,57.473,0,0,1-2.452,8.358c-.355,1.014-.721,2.063-1.058,3.1A15.649,15.649,0,0,0,895.4,263.206c.7.066,1.423.1,2.156.1,13.607,0,29.463-10.961,33.267-23a6.5,6.5,0,0,0-.435-3.878,6.362,6.362,0,0,0-2.214-3.178,14,14,0,0,1-2.778-2.051,4.711,4.711,0,0,1-1.349-2.256,4.175,4.175,0,0,1,.084-2.093,9,9,0,0,1,1.211-2.5c1.723-2.817,2.165-5.268,1.278-7.089-.853-1.752-2.906-2.865-5.938-3.22-.994-.117-2.008-.238-2.988-.355l-.012,0a188.8,188.8,0,0,0-22.162-1.769C893.534,211.913,891.607,211.979,889.787,212.109ZM774.467,251.792c-1.075-.768-1.918-1.857-2.969-2.665-4.829-3.714-8.771-10.3-15.889-1.85-1.529,1.815-11.274-.11-13.72-3.172-3.925-4.911-4.912-12.209-7.888-20.605,6.751-2.305,11.972-6.1,15.992-5.076,11.4,2.9,22.361,7.647,33.347,12.046,1.336.535,2.545,3.409,2.47,5.137a86.415,86.415,0,0,1-1.83,12.626c-.755,3.88-2.154,5.778-4.363,5.778C778.231,254.01,776.528,253.264,774.467,251.792Zm-113.5-14.206c-9.072-4.592-15.393-10.847-18.645-20.095-2.214-6.3.057-11.313,5.361-14.681,4.932-3.132,9.5-2.085,13.795,2.057,13.466,12.99,13.535,12.917,29.916,3.3,10.082-5.921,16.346-4.731,18.858,3.776.462,1.565.483,4.318-.449,5.092-10.1,8.368-19.545,18.136-33.1,20.532a30.889,30.889,0,0,1-5.378.414C667.894,237.981,664.4,237.614,660.967,237.586ZM606.477,215.97c-11.471-4.445-20.726-11.572-26.054-23.032-5.073-10.907-3.987-21.2,3.874-30.225,7.176-8.234,20-10.355,32.572-7.168,4.722,4.245,10.172,7.938,13.968,12.889,4.015,5.235,1.793,9.16-4.771,10.234a24.688,24.688,0,0,1-4.093.2,20.275,20.275,0,0,0-4.807.348c-3.589.858-9.791,2.3-9.917,3.887-.345,4.3,1.565,8.947,3.265,13.191,1.561,3.9,4.922,7.223,5.876,11.186,1.472,6.084-.612,9.54-5.059,9.54A13.689,13.689,0,0,1,606.477,215.97Zm160.847-40.053c-.229-3.128,1.965-7.174,4.29-9.6,7-7.308,14.753-13.892,21.964-21.009a33.346,33.346,0,0,1,41.3-4.485c6.687,4.322,11,9.9,8.894,18.841-.547,2.314,1.227,5.428,2.5,7.882,4.347,8.372-3.651,24.975-12.987,26.269-5.446.752-9.271-1.857-9.1-7.435.107-3.483,1.9-7.091,3.569-10.314,3.907-7.53,2-13.614-5.751-17.028-10.311-4.543-33.606,1.488-39.805,10.713-3.529,5.252-3.453,10.514,2.232,14.811,5.307,4.009,10.422,8.266,16.65,13.235a18.128,18.128,0,0,1-8.266,1.962C780.468,199.753,768.21,187.863,767.324,175.918Zm-82.175,12.476c-11.11-1.315-17.9-8.877-17.5-19.4.395-10.483,3.861-14.563,14.213-16.171a60.19,60.19,0,0,1,12.079-.851c5.109.244,8.082-1.8,11.358-5.783,3.88-4.717,2.079-7.474.017-11.957-1.577-3.429-.485-8.326.119-12.466,1.967-13.522-2.606-20.406-16.311-20.946-7.565-.3-15.47,1.559-22.8,3.816-6.628,2.042-8.229,8.012-6.775,14.571,1.165,5.262,2.52,10.483,3.763,15.725,1.566,6.6-1.751,8.931-7.79,8.844a14.451,14.451,0,0,1-2.409-.174c-8.654-1.588-16.857-11.971-18.493-23.381-1.9-13.191,1.1-23.046,10.767-26.115,17.625-5.588,35.758-9.658,53.83-13.692,4.171-.929,8.951.844,13.45,1.374,21.062,8.771,29.256,36.366,16.478,55.627a11.431,11.431,0,0,0-1.331,8.43c4.393,15.36.933,22.723-12.2,32.663-8.173,6.188-16.368,10.154-26.07,10.153A37.292,37.292,0,0,1,685.149,188.393Zm-226.93-27.95c-3.359-5.087-4.586-10.869-.12-16.156,4.121-4.878,9.644-6.062,15.12-3,6.522,3.64,12.082,5.169,17.651-1.527.752-.9,5.027-.258,6.527,1,5.64,4.72,5.354,11.029,3.449,18.267-1.628,1.824-3.464,4.483-5.871,6.459-2.89,2.369-7.88,3.449-13.31,3.449C472.342,168.929,461.724,165.747,458.219,160.444Zm69.933-16.019c-11.443-8.722-13.153-24.2-4.85-37.7,6.3-10.232,15.247-17.369,26.382-20.139,21.954-5.46,44.188-9.987,66.513-13.663,5.99-.99,12.724,2.476,19.115,3.9-1.958,5.1-3.624,10.345-5.935,15.287-7.751,16.578-22.221,26.482-36.951,35.911-2.973,1.9-7.1,2.687-10.709,2.731-3.38.038-6.783-1.588-10.174-2.483,1.57-3.488,2.213-8.25,4.9-10.207,6.484-4.718,13.989-8.011,20.959-12.09,4.708-2.752,9.2-5.863,13.8-8.814q-.519-1.4-1.042-2.788c-4.044.331-8.105.511-12.132,1.014-13.934,1.741-27.9,3.308-41.767,5.469-19.414,3.026-21.848,8.227-12.722,26.124,5.453-1.274,10.365-3.257,15.29-3.272,3.1-.01,7.517,2.205,8.93,4.754,1.167,2.1-.308,6.861-2.164,9.234A29.383,29.383,0,0,1,542.7,149.2,23.818,23.818,0,0,1,528.151,144.425ZM448.486,78.952c-6.037-4.482-6.612-10.672-4.518-15.549,1.882-4.374,7.361-9,11.969-9.923,6.519-1.31,13.7.625,20.593,1.276,2.8.263,5.583.788,8.924,1.274a34.765,34.765,0,0,0-8.1-23.847c-.976-1.23-5.174-.9-7.34.019-13.084,5.541-25.868-1.6-26.385-15.041-.3-7.782,3.533-13.57,11.191-15.63C469-2.286,482.088,1.219,493.472,9.823c3.043,2.3,4.042,7.809,5.214,12.056,2.544,9.221,3.969,18.793,7.03,27.819,2.849,8.4,4.53,16.088-1.877,23.432-1.02,1.17-1.98,2.764-3.3,3.244-6.738,2.438-13.5,4.895-20.411,6.746A51.01,51.01,0,0,1,467,85.08,29.987,29.987,0,0,1,448.486,78.952Z" transform="matrix(1, 0.017, -0.017, 1, -495.476, -342.132)"/></g></svg>