<svg width="18" height="18" viewBox="0 0 18 18" fill="none" xmlns="http://www.w3.org/2000/svg">
<path fillRule="evenodd" clipRule="evenodd" d="M17.1668 8.04226C17.6194 8.10002 17.9707 8.52269 17.9707 9.03553C17.9707 9.58781 17.5633 10.0355 17.0607 10.0355H4.34321L9.70717 15.3995L9.78488 15.4867C10.0957 15.8792 10.0698 16.4511 9.70717 16.8137C9.31665 17.2042 8.68348 17.2042 8.29296 16.8137L1.22189 9.74264L1.14419 9.65542C0.833361 9.2629 0.859262 8.69105 1.22189 8.32842L8.29296 1.25736L8.38018 1.17965C8.7727 0.868824 9.34454 0.894726 9.70717 1.25736L9.78488 1.34458C10.0957 1.73709 10.0698 2.30894 9.70717 2.67157L4.34321 8.03553H17.0607L17.1668 8.04226Z" fill="#FBFCFD"/>
</svg>
