<?xml version="1.0" encoding="utf-8"?>
<!-- Generator: Adobe Illustrator 20.1.0, SVG Export Plug-In . SVG Version: 6.00 Build 0)  -->
<svg version="1.1" id="Layer_1" xmlns="http://www.w3.org/2000/svg" xmlns:xlink="http://www.w3.org/1999/xlink" x="0px" y="0px"
	 viewBox="0 0 36 36" style="enable-background:new 0 0 36 36;" xml:space="preserve">
<style type="text/css">
	.st0{fill:#FBFCFD;}
</style>
<desc>Created with Lunacy</desc>
<g id="icon_x2F_arrow_x2F_large-copy" transform="matrix(-1 0 0 1 1274 744)">
	<path id="icon_x2F_arrow_x2F_large_2_" class="st0" d="M1271.2-725c0.5-0.1,0.9-0.5,0.9-1c0-0.6-0.4-1-1-1h-27.7l12.4-12.4l0.1-0.1
		c0.3-0.4,0.3-1-0.1-1.3c-0.4-0.4-1-0.4-1.4,0l-14.1,14.1l-0.1,0.1c-0.3,0.4-0.3,1,0.1,1.3l14.1,14.1l0.1,0.1c0.4,0.3,1,0.3,1.3-0.1
		l0.1-0.1c0.3-0.4,0.3-1-0.1-1.3l-12.4-12.4h27.7L1271.2-725z"/>
</g>
</svg>
