<svg width="32" height="32" viewBox="0 0 32 32" fill="none" xmlns="http://www.w3.org/2000/svg">
<circle cx="16" cy="16" r="16" fill="#191919"/>
<path d="M10.6285 10.607C10.986 10.2495 11.5255 10.1998 11.8813 10.475L11.96 10.5443L21.4758 20.0601C21.8262 20.4105 21.7981 21.0066 21.4131 21.3916C21.0556 21.7491 20.516 21.7988 20.1603 21.5236L20.0816 21.4543L10.5658 11.9385C10.2154 11.5881 10.2435 10.992 10.6285 10.607Z" fill="white"/>
<path d="M21.4092 10.6099C21.7667 10.9674 21.8164 11.507 21.5412 11.8627L21.4719 11.9414L11.9561 21.4572C11.6057 21.8076 11.0096 21.7795 10.6246 21.3945C10.2671 21.037 10.2173 20.4975 10.4926 20.1417L10.5619 20.063L20.0777 10.5472C20.428 10.1968 21.0242 10.2249 21.4092 10.6099Z" fill="white"/>
</svg>
