<?xml version="1.0" encoding="utf-8"?>
<!-- Generator: Adobe Illustrator 20.1.0, SVG Export Plug-In . SVG Version: 6.00 Build 0)  -->
<svg version="1.1" xmlns="http://www.w3.org/2000/svg" xmlns:xlink="http://www.w3.org/1999/xlink" x="0px" y="0px"
	 viewBox="0 0 799.3 721.6" style="enable-background:new 0 0 799.3 721.6;" xml:space="preserve">
<style type="text/css">
	.st0{fill:none;}
	.st1{fill:#3D55CC;}
	.st2{fill:#303C78;}
	.st3{fill:none;stroke:#3D55CC;strokeWidth:2;stroke-miterlimit:10;}
	.st4{fill:#FFF200;}
	.st5{fill:url(#);stroke:url(#);stroke-miterlimit:10;}
	.st6{fill:#00C6BC;}
	.st7{fill:url(#);}
	.st8{fill:#FFBE81;}
	.st9{fill:url(#Новый_узор_8);}
	.st10{fill:#BBF1FF;}
	.st11{fill:#FF99AC;}
	.st12{fill:url(#SVGID_1_);}
	.st13{fill:url(#SVGID_2_);}
	.st14{fill:url(#SVGID_3_);}
	.st15{fill:#222221;}
</style>
<pattern  x="-6381.8" y="-1695.6" width="400" height="400" patternUnits="userSpaceOnUse" id="Новый_узор_8" viewBox="65.8 -489.2 400 400" style="overflow:visible;">
	<g>
		<rect x="65.8" y="-489.2" class="st0" width="400" height="400"/>
		<g>
			<g>
				<path class="st1" d="M462.3-171.6c-1.5-0.1-2.7-1.4-2.6-3c0.1-1.6,1.5-2.8,3-2.6c1.5,0.1,2.6,1.5,2.5,3
					C465.1-172.6,463.8-171.4,462.3-171.6z"/>
				<path class="st1" d="M452.9-165.7c-1.5-0.1-2.8-1.6-2.6-3c0.1-1.4,1.3-2.4,2.7-2.2c1.5,0.1,2.8,1.6,2.6,3
					C455.5-166.6,454.3-165.5,452.9-165.7z"/>
				<path class="st1" d="M465.5-160.1c-1.6-0.1-2.7-1.3-2.6-2.7c0.1-1.4,1.4-2.4,3-2.3c1.4,0.1,2.4,1.3,2.3,2.7
					C468.1-161,466.9-160,465.5-160.1z"/>
				<path class="st1" d="M459.3-185.1c-0.1,1.4-1.3,2.4-2.7,2.2c-1.4-0.1-2.4-1.3-2.3-2.7c0.1-1.4,1.3-2.4,2.7-2.2
					C458.4-187.6,459.4-186.4,459.3-185.1z"/>
				<path class="st1" d="M465.8-143.1c-0.1,1.4-1.4,2.4-2.7,2.2c-1.3-0.2-2.4-1.4-2.2-2.7c0.2-1.4,1.4-2.3,2.7-2.2
					C465-145.7,466-144.5,465.8-143.1z"/>
				<path class="st1" d="M463.4-153.2c-0.1,1.4-1.3,2.4-2.6,2.3c-1.3-0.1-2.4-1.3-2.3-2.6c0.1-1.4,1.3-2.4,2.6-2.3
					C462.5-155.7,463.5-154.5,463.4-153.2z"/>
				<path class="st1" d="M467.8-186.6c1.4,0.1,2.4,1.3,2.2,2.7c-0.1,1.3-1.3,2.3-2.6,2.2c-1.4-0.1-2.4-1.3-2.3-2.7
					C465.2-185.8,466.4-186.8,467.8-186.6z"/>
			</g>
		</g>
		<g>
			<path class="st1" d="M459.9-106.6c2.2,0.2,4.3,0.7,6.4,1.4c2.6,0.9,5.3,1.7,7.8,2.6c8.2,3,14.4,7.9,19.1,14.4
				c2.5,3.4,4.1,7.1,5.4,10.8c1.1,3,1.2,6.1,0.3,9.1c-1.3,4.4-2.9,8.6-6.1,12.3c-1.9,2.1-4.2,3.9-7,5.1c-2.7,1.1-5.5,2-8.4,2.8
				c-1.4,0.4-2.8,0.8-4.2,1.3c-2.7,1-4.7,2.6-6.1,4.8c-0.7,1.2-0.8,2.5-0.3,3.8c0.6,1.7,1.7,3.2,3.2,4.4c1.1,0.9,2.3,1.7,3.6,2.4
				c2.1,1.2,4.2,2.3,6.3,3.6c3.6,2.2,6.1,5,7.5,8.6c2.3,6,0.5,11.2-4.5,15.4c-5.1,4.4-12.5,4.7-18.7,2.1c-4.9-2-8.1-5.3-9.3-9.8
				c-0.1-0.5-0.3-1.1-0.4-1.6c-0.3-1.4-1.2-2.4-2.5-3.2c-2.1-1.3-4.4-2-6.9-2.4c-4-0.7-8.1-0.9-12.2-1.1c-4.2-0.3-8.4-0.6-12.4-2.1
				c-6.8-2.5-10.9-6.8-11.6-13.2c-0.4-4,1.2-7.5,4.1-10.4c1.7-1.7,3.8-3,6.1-4.1c3.3-1.5,6.7-2.7,10.3-3.6c2.5-0.6,4.9-1.4,7.3-2.2
				c1.2-0.4,2.3-0.9,3.5-1.4c2.9-1.4,4-3.6,3.6-6.4c-0.2-1.7-0.8-3.3-1.7-4.9c-1-1.8-2.3-3.5-3.7-5.1c-1.7-1.9-3.2-3.9-4.8-5.9
				c-2.7-3.5-3.9-7.3-3.7-11.4c0.2-3.6,1.8-6.7,4.5-9.3c2.7-2.6,6.1-4.3,9.9-5.4C449.4-106.8,454.5-107.2,459.9-106.6z"/>
			<path class="st2" d="M300-70.2c0-1.9,0.2-3.8,0.6-5.6c0.6-2.3,1-4.6,1.7-6.9c2-7.3,6.2-13.1,12-17.7c3.1-2.4,6.5-4.2,10.1-5.7
				c2.9-1.2,5.9-1.7,9-1.2c4.5,0.6,8.9,1.6,12.9,4c2.3,1.4,4.3,3.1,5.9,5.4c1.5,2.2,2.6,4.5,3.8,6.8c0.6,1.2,1.2,2.3,1.8,3.5
				c1.3,2.2,3.1,3.8,5.5,4.7c1.3,0.5,2.6,0.4,3.8-0.1c1.6-0.7,3-1.8,4-3.2c0.8-1,1.4-2.1,1.9-3.3c0.9-1.9,1.8-3.8,2.8-5.7
				c1.7-3.3,4.3-5.7,7.6-7.2c5.7-2.6,11-1.5,15.9,2.2c5,3.9,6.2,10.1,4.3,15.7c-1.4,4.4-4.3,7.4-8.7,8.9c-0.5,0.2-1,0.4-1.5,0.5
				c-1.3,0.4-2.3,1.2-2.9,2.4c-1.1,1.9-1.5,3.9-1.6,6.1c-0.2,3.5,0.1,7,0.3,10.5c0.2,3.6,0.4,7.2-0.6,10.8c-1.7,6-5.5,10-11.7,11.2
				c-3.9,0.8-7.5-0.2-10.8-2.5c-1.9-1.3-3.5-2.9-4.8-4.7c-1.9-2.6-3.5-5.4-4.8-8.4c-0.9-2-1.9-4-3-6c-0.5-1-1.2-1.9-1.8-2.8
				c-1.8-2.3-4-3-6.8-2.4c-1.7,0.4-3.2,1-4.6,1.9c-1.7,1.1-3.2,2.3-4.6,3.7c-1.7,1.6-3.5,3.2-5.3,4.7c-3.1,2.7-6.8,4-10.8,4.3
				c-3.6,0.2-6.8-0.8-9.7-2.9c-2.9-2.1-5-4.8-6.6-7.9C301.1-61.2,300-65.6,300-70.2z"/>
			<path class="st1" d="M454.3-106.6c2.2,0.2,4.3,0.7,6.4,1.4c2.6,0.9,5.3,1.7,7.8,2.6c8.2,3,14.4,7.9,19.1,14.4
				c2.5,3.4,4.1,7.1,5.4,10.8c1.1,3,1.2,6.1,0.3,9.1c-1.3,4.4-2.9,8.6-6.1,12.3c-1.9,2.1-4.2,3.9-7,5.1c-2.7,1.1-5.5,2-8.4,2.8
				c-1.4,0.4-2.8,0.8-4.2,1.3c-2.7,1-4.7,2.6-6.1,4.8c-0.7,1.2-0.8,2.5-0.3,3.8c0.6,1.7,1.7,3.2,3.2,4.4c1.1,0.9,2.3,1.7,3.6,2.4
				c2.1,1.2,4.2,2.3,6.3,3.6c3.6,2.2,6.1,5,7.5,8.6c2.3,6,0.5,11.2-4.5,15.4c-5.1,4.4-12.5,4.7-18.7,2.1c-4.9-2-8.1-5.3-9.3-9.8
				c-0.1-0.5-0.3-1.1-0.4-1.6c-0.3-1.4-1.2-2.4-2.5-3.2c-2.1-1.3-4.4-2-6.9-2.4c-4-0.7-8.1-0.9-12.2-1.1c-4.2-0.3-8.4-0.6-12.4-2.1
				c-6.8-2.5-10.9-6.8-11.6-13.2c-0.4-4,1.2-7.5,4.1-10.4c1.7-1.7,3.8-3,6.1-4.1c3.3-1.5,6.7-2.7,10.3-3.6c2.5-0.6,4.9-1.4,7.3-2.2
				c1.2-0.4,2.3-0.9,3.5-1.4c2.9-1.4,4-3.6,3.6-6.4c-0.2-1.7-0.8-3.3-1.7-4.9c-1-1.8-2.3-3.5-3.7-5.1c-1.7-1.9-3.2-3.9-4.8-5.9
				c-2.7-3.5-3.9-7.3-3.7-11.4c0.2-3.6,1.8-6.7,4.5-9.3c2.7-2.6,6.1-4.3,9.9-5.4C443.7-106.8,448.9-107.2,454.3-106.6z"/>
			<path class="st1" d="M408.6-156c-4.4,3.7-9.3,5.7-14.6,6.7c-3.1,0.6-6.3,0.7-9.5,0.8c-1.9,0.1-3.9,0.2-5.8,0.6
				c-3.2,0.6-5.4,2.4-6.3,5.5c-0.7,2.4-1.3,4.9-2,7.3c-1.5,5.7-4.7,10.2-9.5,13.7c-3.3,2.3-6.8,4-10.6,5.2
				c-8.3,2.6-16.7,3.1-25.3,1.5c-3.9-0.7-7.5-2.1-10.7-4.5c-2.8-2.2-4.5-5.1-4.9-8.6c-0.5-3.5,0.8-6.3,3.2-8.7
				c2.2-2.2,4.9-3.5,7.8-4.6c3.7-1.4,7.5-2.3,11.3-3.2c2-0.5,4-0.9,6-1.7c1.6-0.7,3-1.5,4.1-2.9c1.2-1.5,1.8-3.3,1.9-5.2
				c0.1-2,0-4-0.4-5.9c-0.4-2.5-1.1-4.9-1.7-7.3c-0.7-2.6-1.2-5.3-1.2-8c-0.1-5.7,2.4-9.9,7.3-12.6c5-2.7,10.4-4.3,16.1-4.6
				c11.1-0.6,21.5,1.9,31.4,6.8c4,2,7.9,4.2,11.3,7.1c2.4,2,4.3,4.4,5.7,7.3c2.3,4.8,1.4,10.5-2.4,14.4
				C409.4-156.7,408.9-156.3,408.6-156z"/>
			<path class="st3" d="M408.6-147.9c-4.4,3.7-9.3,5.7-14.6,6.7c-3.1,0.6-6.3,0.7-9.5,0.8c-1.9,0.1-3.9,0.2-5.8,0.6
				c-3.2,0.6-5.4,2.4-6.3,5.5c-0.7,2.4-1.3,4.9-2,7.3c-1.5,5.7-4.7,10.2-9.5,13.7c-3.3,2.3-6.8,4-10.6,5.2
				c-8.3,2.6-16.7,3.1-25.3,1.5c-3.9-0.7-7.5-2.1-10.7-4.5c-2.8-2.2-4.5-5.1-4.9-8.6c-0.5-3.5,0.8-6.3,3.2-8.7
				c2.2-2.2,4.9-3.5,7.8-4.6c3.7-1.4,7.5-2.3,11.3-3.2c2-0.5,4-0.9,6-1.7c1.6-0.7,3-1.5,4.1-2.9c1.2-1.5,1.8-3.3,1.9-5.2
				c0.1-2,0-4-0.4-5.9c-0.4-2.5-1.1-4.9-1.7-7.3c-0.7-2.6-1.2-5.3-1.2-8c-0.1-5.7,2.4-9.9,7.3-12.6c5-2.7,10.4-4.3,16.1-4.6
				c11.1-0.6,21.5,1.9,31.4,6.8c4,2,7.9,4.2,11.3,7.1c2.4,2,4.3,4.4,5.7,7.3c2.3,4.8,1.4,10.5-2.4,14.4
				C409.4-148.6,408.9-148.2,408.6-147.9z"/>
			<path class="st2" d="M425.1-156.1c3.2-2.3,6.9-4.2,11-5.4c6.8-1.9,13.6-2.4,20.4-0.3c3.3,1,6.4,2.7,9.3,4.4
				c2.7,1.6,4.9,3.7,7,5.9c3.3,3.4,6,7.2,7.8,11.6c1.3,3.1,2.1,6.4,2.2,9.8c0.3,7.3-3.6,13.4-10.5,15.8c-5.5,2-11,1.8-16.4-0.6
				c-1.6-0.7-3-1.9-4.4-3c-2.8-2.2-5.5-4.5-8.6-6.3c-1.7-1-3.6-1.6-5.5-1.9c-2.2-0.3-4.1,0.6-5.1,2.6c-0.5,1-0.9,2-1.3,3.1
				c-0.7,2.1-1.7,4-3.1,5.7c-1.8,2.2-4.1,3.1-6.8,2.9c-5.1-0.4-8.6-3.1-10.4-7.8c-2-5.3-2.2-10.7-0.4-16.2c2-6.3,5.2-11.9,9.9-16.5
				C421.8-153.6,423.2-154.9,425.1-156.1z"/>
			<g>
				<path class="st1" d="M434-100.6c0.1-1.5,1.5-2.7,3-2.5c1.5,0.1,2.7,1.5,2.6,3c-0.1,1.5-1.5,2.8-3.1,2.6
					C434.9-97.7,433.8-99.1,434-100.6z"/>
				<path class="st1" d="M421-101c-1.5-0.1-2.7-1.4-2.6-2.9c0.1-1.5,1.5-2.8,3-2.6c1.5,0.1,2.7,1.4,2.6,3
					C423.8-102,422.5-100.9,421-101z"/>
				<path class="st1" d="M426.6-131.7c-1.5-0.2-2.6-1.6-2.5-3.1c0.2-1.5,1.6-2.6,3.1-2.5c1.6,0.2,2.7,1.6,2.5,3.1
					C429.5-132.6,428.1-131.5,426.6-131.7z"/>
				<path class="st1" d="M428.9-122.5c0.1-1.5,1.4-2.7,2.9-2.6c1.6,0.1,2.8,1.4,2.6,3c-0.1,1.5-1.5,2.7-3,2.6
					C429.9-119.7,428.8-121,428.9-122.5z"/>
				<path class="st1" d="M409.2-117c0.1-1.5,1.4-2.7,3-2.6c1.5,0.1,2.7,1.4,2.6,3c-0.1,1.6-1.4,2.8-3,2.6
					C410.2-114.2,409.1-115.5,409.2-117z"/>
				<path class="st1" d="M398.8-115.2c-1.5-0.1-2.7-1.4-2.6-3c0.1-1.6,1.5-2.8,3-2.6c1.5,0.1,2.6,1.5,2.5,3
					C401.6-116.2,400.3-115.1,398.8-115.2z"/>
				<path class="st1" d="M429.4-92.5c-1.5-0.1-2.7-1.4-2.6-2.9c0.1-1.5,1.4-2.7,2.9-2.6c1.6,0.1,2.8,1.4,2.6,3
					C432.3-93.5,431-92.4,429.4-92.5z"/>
				<path class="st1" d="M411.7-133.2c-1.5-0.1-2.7-1.4-2.5-3c0.1-1.5,1.4-2.7,3-2.6c1.6,0.1,2.7,1.4,2.6,3
					C414.5-134.2,413.2-133.1,411.7-133.2z"/>
				<path class="st1" d="M448.5-92.8c-1.5-0.1-2.7-1.4-2.5-3c0.1-1.6,1.5-2.7,3.1-2.6c1.5,0.2,2.6,1.5,2.5,3
					C451.4-93.8,450-92.6,448.5-92.8z"/>
				<path class="st1" d="M389.5-109.3c-1.5-0.1-2.8-1.6-2.6-3c0.1-1.4,1.3-2.4,2.7-2.2c1.5,0.1,2.8,1.6,2.6,3
					C392-110.2,390.8-109.2,389.5-109.3z"/>
				<path class="st1" d="M402-103.7c-1.6-0.1-2.7-1.3-2.6-2.7c0.1-1.4,1.4-2.4,3-2.3c1.4,0.1,2.4,1.3,2.3,2.7
					C404.6-104.6,403.4-103.6,402-103.7z"/>
				<path class="st1" d="M445.2-117c-1.6-0.1-2.6-1.1-2.6-2.5c0.1-1.4,1.4-2.5,2.9-2.5c1.3,0.1,2.4,1.3,2.3,2.6
					C447.8-118,446.6-116.9,445.2-117z"/>
				<path class="st1" d="M426-115.2c1.5,0.1,2.5,1.2,2.5,2.6c-0.1,1.4-1.3,2.4-2.6,2.4c-1.4-0.1-2.7-1.5-2.5-2.9
					C423.5-114.4,424.6-115.3,426-115.2z"/>
				<path class="st1" d="M395.8-128.7c-0.1,1.4-1.3,2.4-2.7,2.2c-1.4-0.1-2.4-1.3-2.3-2.7c0.1-1.4,1.3-2.4,2.7-2.2
					C395-131.2,396-130,395.8-128.7z"/>
				<path class="st1" d="M451.8-107.4c0.1-1.4,1.3-2.4,2.7-2.2c1.4,0.1,2.4,1.4,2.2,2.7c-0.1,1.4-1.3,2.3-2.7,2.2
					C452.6-104.9,451.6-106,451.8-107.4z"/>
				<path class="st1" d="M402.4-86.7c-0.1,1.4-1.4,2.4-2.7,2.2c-1.3-0.2-2.4-1.4-2.2-2.7c0.2-1.4,1.4-2.3,2.7-2.2
					C401.5-89.3,402.5-88.1,402.4-86.7z"/>
				<path class="st1" d="M414.9-90.3c0.1-1.4,1.2-2.4,2.6-2.3c1.3,0.1,2.4,1.3,2.3,2.6c-0.1,1.3-1.3,2.4-2.6,2.3
					C415.8-87.8,414.8-89,414.9-90.3z"/>
				<path class="st1" d="M413.4-98.7c-0.1,1.4-1.2,2.4-2.6,2.3c-1.4-0.1-2.4-1.3-2.3-2.6c0.1-1.3,1.3-2.4,2.7-2.3
					C412.5-101.3,413.5-100.1,413.4-98.7z"/>
				<path class="st1" d="M417-125.9c0.1-1.4,1.3-2.4,2.6-2.3c1.4,0.1,2.4,1.3,2.3,2.7c-0.1,1.3-1.3,2.4-2.7,2.3
					C417.9-123.3,416.9-124.5,417-125.9z"/>
				<path class="st1" d="M399.9-96.8c-0.1,1.4-1.3,2.4-2.6,2.3c-1.3-0.1-2.4-1.3-2.3-2.6c0.1-1.4,1.3-2.4,2.6-2.3
					C399-99.3,400-98.1,399.9-96.8z"/>
				<path class="st1" d="M404.3-130.3c1.4,0.1,2.4,1.3,2.2,2.7c-0.1,1.3-1.3,2.3-2.6,2.2c-1.4-0.1-2.4-1.3-2.3-2.7
					C401.7-129.4,402.9-130.4,404.3-130.3z"/>
				<path class="st1" d="M434.1-112.4c0.1-1.4,1.3-2.4,2.7-2.3c1.4,0.1,2.4,1.3,2.3,2.7c-0.1,1.4-1.3,2.4-2.7,2.3
					C434.9-109.9,433.9-111,434.1-112.4z"/>
				<path class="st1" d="M441.7-106.5c0.1-1.3,1.2-2.3,2.6-2.3c1.4,0.1,2.4,1.3,2.3,2.6c-0.1,1.4-1.3,2.4-2.7,2.2
					C442.6-104,441.6-105.1,441.7-106.5z"/>
			</g>
			<g>
				<path class="st1" d="M297.4-157c0.1-1.5,1.5-2.7,3-2.5c1.5,0.1,2.7,1.5,2.6,3c-0.1,1.5-1.5,2.8-3.1,2.6
					C298.4-154.1,297.3-155.5,297.4-157z"/>
				<path class="st1" d="M284.5-157.3c-1.5-0.1-2.7-1.4-2.6-2.9c0.1-1.5,1.5-2.8,3-2.6c1.5,0.1,2.7,1.4,2.6,3
					C287.3-158.4,286-157.3,284.5-157.3z"/>
				<path class="st1" d="M290.1-188.1c-1.5-0.2-2.6-1.6-2.5-3.1c0.2-1.5,1.6-2.6,3.1-2.5c1.6,0.2,2.7,1.6,2.5,3.1
					C293-189,291.6-187.9,290.1-188.1z"/>
				<path class="st1" d="M292.3-178.9c0.1-1.5,1.4-2.7,2.9-2.6c1.6,0.1,2.8,1.4,2.6,3c-0.1,1.5-1.5,2.7-3,2.6
					C293.4-176.1,292.3-177.4,292.3-178.9z"/>
				<path class="st1" d="M287.5-132.4c-1.5-0.1-2.7-1.5-2.5-3c0.1-1.5,1.4-2.7,2.9-2.6c1.6,0.1,2.8,1.5,2.6,3.1
					C290.3-133.4,289-132.3,287.5-132.4z"/>
				<path class="st1" d="M272.7-173.4c0.1-1.5,1.4-2.7,3-2.6c1.5,0.1,2.7,1.4,2.6,3c-0.1,1.6-1.4,2.8-3,2.6
					C273.7-170.5,272.6-171.8,272.7-173.4z"/>
				<path class="st1" d="M262.3-171.6c-1.5-0.1-2.7-1.4-2.6-3c0.1-1.6,1.5-2.8,3-2.6c1.5,0.1,2.6,1.5,2.5,3
					C265.1-172.6,263.8-171.4,262.3-171.6z"/>
				<path class="st1" d="M292.9-148.9c-1.5-0.1-2.7-1.4-2.6-2.9c0.1-1.5,1.4-2.7,2.9-2.6c1.6,0.1,2.8,1.4,2.6,3
					C295.7-149.9,294.4-148.7,292.9-148.9z"/>
				<path class="st1" d="M275.1-189.6c-1.5-0.1-2.7-1.4-2.5-3c0.1-1.5,1.4-2.7,3-2.6c1.6,0.1,2.7,1.4,2.6,3
					C278-190.5,276.7-189.4,275.1-189.6z"/>
				<path class="st1" d="M312-149.1c-1.5-0.1-2.7-1.4-2.5-3c0.1-1.6,1.5-2.7,3.1-2.6c1.5,0.2,2.6,1.5,2.5,3
					C314.8-150.1,313.5-149,312-149.1z"/>
				<path class="st1" d="M307.1-142.1c-0.1,1.4-1.3,2.4-2.7,2.3c-1.4-0.1-2.6-1.7-2.5-3.1c0.1-1.3,1.3-2.4,2.7-2.3
					C306.1-145.1,307.2-143.7,307.1-142.1z"/>
				<path class="st1" d="M252.9-165.7c-1.5-0.1-2.8-1.6-2.6-3c0.1-1.4,1.3-2.4,2.7-2.2c1.5,0.1,2.8,1.6,2.6,3
					C255.5-166.6,254.3-165.5,252.9-165.7z"/>
				<path class="st1" d="M265.5-160.1c-1.6-0.1-2.7-1.3-2.6-2.7c0.1-1.4,1.4-2.4,3-2.3c1.4,0.1,2.4,1.3,2.3,2.7
					C268.1-161,266.9-160,265.5-160.1z"/>
				<path class="st1" d="M308.7-173.4c-1.6-0.1-2.6-1.1-2.6-2.5c0.1-1.4,1.4-2.5,2.9-2.5c1.3,0.1,2.4,1.3,2.3,2.6
					C311.3-174.3,310.1-173.3,308.7-173.4z"/>
				<path class="st1" d="M289.5-171.5c1.5,0.1,2.5,1.2,2.5,2.6c-0.1,1.4-1.3,2.4-2.6,2.4c-1.4-0.1-2.7-1.5-2.5-2.9
					C287-170.8,288.1-171.7,289.5-171.5z"/>
				<path class="st1" d="M259.3-185.1c-0.1,1.4-1.3,2.4-2.7,2.2c-1.4-0.1-2.4-1.3-2.3-2.7c0.1-1.4,1.3-2.4,2.7-2.2
					C258.4-187.6,259.4-186.4,259.3-185.1z"/>
				<path class="st1" d="M297.2-133.8c0.1-1.4,1.2-2.4,2.6-2.3c1.4,0.1,2.4,1.3,2.3,2.6c-0.1,1.3-1.3,2.4-2.6,2.3
					C298.1-131.2,297.1-132.4,297.2-133.8z"/>
				<path class="st1" d="M315.2-163.8c0.1-1.4,1.3-2.4,2.7-2.2c1.4,0.1,2.4,1.4,2.2,2.7c-0.1,1.4-1.3,2.3-2.7,2.2
					C316.1-161.2,315.1-162.4,315.2-163.8z"/>
				<path class="st1" d="M265.8-143.1c-0.1,1.4-1.4,2.4-2.7,2.2c-1.3-0.2-2.4-1.4-2.2-2.7c0.2-1.4,1.4-2.3,2.7-2.2
					C265-145.7,266-144.5,265.8-143.1z"/>
				<path class="st1" d="M278.4-146.7c0.1-1.4,1.2-2.4,2.6-2.3c1.3,0.1,2.4,1.3,2.3,2.6c-0.1,1.3-1.3,2.4-2.6,2.3
					C279.3-144.2,278.3-145.3,278.4-146.7z"/>
				<path class="st1" d="M276.9-155.1c-0.1,1.4-1.2,2.4-2.6,2.3c-1.4-0.1-2.4-1.3-2.3-2.6c0.1-1.3,1.3-2.4,2.7-2.3
					C276-157.6,277-156.5,276.9-155.1z"/>
				<path class="st1" d="M280.5-182.3c0.1-1.4,1.3-2.4,2.6-2.3c1.4,0.1,2.4,1.3,2.3,2.7c-0.1,1.3-1.3,2.4-2.7,2.3
					C281.4-179.7,280.4-180.9,280.5-182.3z"/>
				<path class="st1" d="M263.4-153.2c-0.1,1.4-1.3,2.4-2.6,2.3c-1.3-0.1-2.4-1.3-2.3-2.6c0.1-1.4,1.3-2.4,2.6-2.3
					C262.5-155.7,263.5-154.5,263.4-153.2z"/>
				<path class="st1" d="M267.8-186.6c1.4,0.1,2.4,1.3,2.2,2.7c-0.1,1.3-1.3,2.3-2.6,2.2c-1.4-0.1-2.4-1.3-2.3-2.7
					C265.2-185.8,266.4-186.8,267.8-186.6z"/>
				<path class="st1" d="M268.1-139.4c0.1-1.4,1.3-2.4,2.6-2.3c1.3,0.1,2.4,1.3,2.3,2.7c-0.1,1.3-1.3,2.3-2.6,2.2
					C269-136.8,268-138,268.1-139.4z"/>
				<path class="st1" d="M297.5-168.8c0.1-1.4,1.3-2.4,2.7-2.3c1.4,0.1,2.4,1.3,2.3,2.7c-0.1,1.4-1.3,2.4-2.7,2.3
					C298.4-166.2,297.4-167.4,297.5-168.8z"/>
				<path class="st1" d="M305.2-162.9c0.1-1.3,1.2-2.3,2.6-2.3c1.4,0.1,2.4,1.3,2.3,2.6c-0.1,1.4-1.3,2.4-2.7,2.2
					C306-160.4,305.1-161.5,305.2-162.9z"/>
				<path class="st1" d="M295-142.1c-0.1,1.3-1.1,2.3-2.4,2.2c-1.3-0.1-2.3-1.2-2.2-2.4c0.1-1.3,1.2-2.3,2.5-2.2
					C294.1-144.5,295-143.4,295-142.1z"/>
			</g>
		</g>
		<g>
			<path class="st1" d="M259.9-106.6c2.2,0.2,4.3,0.7,6.4,1.4c2.6,0.9,5.3,1.7,7.8,2.6c8.2,3,14.4,7.9,19.1,14.4
				c2.5,3.4,4.1,7.1,5.4,10.8c1.1,3,1.2,6.1,0.3,9.1c-1.3,4.4-2.9,8.6-6.1,12.3c-1.9,2.1-4.2,3.9-7,5.1c-2.7,1.1-5.5,2-8.4,2.8
				c-1.4,0.4-2.8,0.8-4.2,1.3c-2.7,1-4.7,2.6-6.1,4.8c-0.7,1.2-0.8,2.5-0.3,3.8c0.6,1.7,1.7,3.2,3.2,4.4c1.1,0.9,2.3,1.7,3.6,2.4
				c2.1,1.2,4.2,2.3,6.3,3.6c3.6,2.2,6.1,5,7.5,8.6c2.3,6,0.5,11.2-4.5,15.4c-5.1,4.4-12.5,4.7-18.7,2.1c-4.9-2-8.1-5.3-9.3-9.8
				c-0.1-0.5-0.3-1.1-0.4-1.6c-0.3-1.4-1.2-2.4-2.5-3.2c-2.1-1.3-4.4-2-6.9-2.4c-4-0.7-8.1-0.9-12.2-1.1c-4.2-0.3-8.4-0.6-12.4-2.1
				c-6.8-2.5-10.9-6.8-11.6-13.2c-0.4-4,1.2-7.5,4.1-10.4c1.7-1.7,3.8-3,6.1-4.1c3.3-1.5,6.7-2.7,10.3-3.6c2.5-0.6,4.9-1.4,7.3-2.2
				c1.2-0.4,2.3-0.9,3.5-1.4c2.9-1.4,4-3.6,3.6-6.4c-0.2-1.7-0.8-3.3-1.7-4.9c-1-1.8-2.3-3.5-3.7-5.1c-1.7-1.9-3.2-3.9-4.8-5.9
				c-2.7-3.5-3.9-7.3-3.7-11.4c0.2-3.6,1.8-6.7,4.5-9.3c2.7-2.6,6.1-4.3,9.9-5.4C249.4-106.8,254.5-107.2,259.9-106.6z"/>
			<path class="st2" d="M100-70.2c0-1.9,0.2-3.8,0.6-5.6c0.6-2.3,1-4.6,1.7-6.9c2-7.3,6.2-13.1,12-17.7c3.1-2.4,6.5-4.2,10.1-5.7
				c2.9-1.2,5.9-1.7,9-1.2c4.5,0.6,8.9,1.6,12.9,4c2.3,1.4,4.3,3.1,5.9,5.4c1.5,2.2,2.6,4.5,3.8,6.8c0.6,1.2,1.2,2.3,1.8,3.5
				c1.3,2.2,3.1,3.8,5.5,4.7c1.3,0.5,2.6,0.4,3.8-0.1c1.6-0.7,3-1.8,4-3.2c0.8-1,1.4-2.1,1.9-3.3c0.9-1.9,1.8-3.8,2.8-5.7
				c1.7-3.3,4.3-5.7,7.6-7.2c5.7-2.6,11-1.5,15.9,2.2c5,3.9,6.2,10.1,4.3,15.7c-1.4,4.4-4.3,7.4-8.7,8.9c-0.5,0.2-1,0.4-1.5,0.5
				c-1.3,0.4-2.3,1.2-2.9,2.4c-1.1,1.9-1.5,3.9-1.6,6.1c-0.2,3.5,0.1,7,0.3,10.5c0.2,3.6,0.4,7.2-0.6,10.8c-1.7,6-5.5,10-11.7,11.2
				c-3.9,0.8-7.5-0.2-10.8-2.5c-1.9-1.3-3.5-2.9-4.8-4.7c-1.9-2.6-3.5-5.4-4.8-8.4c-0.9-2-1.9-4-3-6c-0.5-1-1.2-1.9-1.8-2.8
				c-1.8-2.3-4-3-6.8-2.4c-1.7,0.4-3.2,1-4.6,1.9c-1.7,1.1-3.2,2.3-4.6,3.7c-1.7,1.6-3.5,3.2-5.3,4.7c-3.1,2.7-6.8,4-10.8,4.3
				c-3.6,0.2-6.8-0.8-9.7-2.9c-2.9-2.1-5-4.8-6.6-7.9C101.1-61.2,100-65.6,100-70.2z"/>
			<path class="st1" d="M254.3-106.6c2.2,0.2,4.3,0.7,6.4,1.4c2.6,0.9,5.3,1.7,7.8,2.6c8.2,3,14.4,7.9,19.1,14.4
				c2.5,3.4,4.1,7.1,5.4,10.8c1.1,3,1.2,6.1,0.3,9.1c-1.3,4.4-2.9,8.6-6.1,12.3c-1.9,2.1-4.2,3.9-7,5.1c-2.7,1.1-5.5,2-8.4,2.8
				c-1.4,0.4-2.8,0.8-4.2,1.3c-2.7,1-4.7,2.6-6.1,4.8c-0.7,1.2-0.8,2.5-0.3,3.8c0.6,1.7,1.7,3.2,3.2,4.4c1.1,0.9,2.3,1.7,3.6,2.4
				c2.1,1.2,4.2,2.3,6.3,3.6c3.6,2.2,6.1,5,7.5,8.6c2.3,6,0.5,11.2-4.5,15.4c-5.1,4.4-12.5,4.7-18.7,2.1c-4.9-2-8.1-5.3-9.3-9.8
				c-0.1-0.5-0.3-1.1-0.4-1.6c-0.3-1.4-1.2-2.4-2.5-3.2c-2.1-1.3-4.4-2-6.9-2.4c-4-0.7-8.1-0.9-12.2-1.1c-4.2-0.3-8.4-0.6-12.4-2.1
				c-6.8-2.5-10.9-6.8-11.6-13.2c-0.4-4,1.2-7.5,4.1-10.4c1.7-1.7,3.8-3,6.1-4.1c3.3-1.5,6.7-2.7,10.3-3.6c2.5-0.6,4.9-1.4,7.3-2.2
				c1.2-0.4,2.3-0.9,3.5-1.4c2.9-1.4,4-3.6,3.6-6.4c-0.2-1.7-0.8-3.3-1.7-4.9c-1-1.8-2.3-3.5-3.7-5.1c-1.7-1.9-3.2-3.9-4.8-5.9
				c-2.7-3.5-3.9-7.3-3.7-11.4c0.2-3.6,1.8-6.7,4.5-9.3c2.7-2.6,6.1-4.3,9.9-5.4C243.7-106.8,248.9-107.2,254.3-106.6z"/>
			<path class="st1" d="M208.6-156c-4.4,3.7-9.3,5.7-14.6,6.7c-3.1,0.6-6.3,0.7-9.5,0.8c-1.9,0.1-3.9,0.2-5.8,0.6
				c-3.2,0.6-5.4,2.4-6.3,5.5c-0.7,2.4-1.3,4.9-2,7.3c-1.5,5.7-4.7,10.2-9.5,13.7c-3.3,2.3-6.8,4-10.6,5.2
				c-8.3,2.6-16.7,3.1-25.3,1.5c-3.9-0.7-7.5-2.1-10.7-4.5c-2.8-2.2-4.5-5.1-4.9-8.6c-0.5-3.5,0.8-6.3,3.2-8.7
				c2.2-2.2,4.9-3.5,7.8-4.6c3.7-1.4,7.5-2.3,11.3-3.2c2-0.5,4-0.9,6-1.7c1.6-0.7,3-1.5,4.1-2.9c1.2-1.5,1.8-3.3,1.9-5.2
				c0.1-2,0-4-0.4-5.9c-0.4-2.5-1.1-4.9-1.7-7.3c-0.7-2.6-1.2-5.3-1.2-8c-0.1-5.7,2.4-9.9,7.3-12.6c5-2.7,10.4-4.3,16.1-4.6
				c11.1-0.6,21.5,1.9,31.4,6.8c4,2,7.9,4.2,11.3,7.1c2.4,2,4.3,4.4,5.7,7.3c2.3,4.8,1.4,10.5-2.4,14.4
				C209.4-156.7,208.9-156.3,208.6-156z"/>
			<path class="st3" d="M208.6-147.9c-4.4,3.7-9.3,5.7-14.6,6.7c-3.1,0.6-6.3,0.7-9.5,0.8c-1.9,0.1-3.9,0.2-5.8,0.6
				c-3.2,0.6-5.4,2.4-6.3,5.5c-0.7,2.4-1.3,4.9-2,7.3c-1.5,5.7-4.7,10.2-9.5,13.7c-3.3,2.3-6.8,4-10.6,5.2
				c-8.3,2.6-16.7,3.1-25.3,1.5c-3.9-0.7-7.5-2.1-10.7-4.5c-2.8-2.2-4.5-5.1-4.9-8.6c-0.5-3.5,0.8-6.3,3.2-8.7
				c2.2-2.2,4.9-3.5,7.8-4.6c3.7-1.4,7.5-2.3,11.3-3.2c2-0.5,4-0.9,6-1.7c1.6-0.7,3-1.5,4.1-2.9c1.2-1.5,1.8-3.3,1.9-5.2
				c0.1-2,0-4-0.4-5.9c-0.4-2.5-1.1-4.9-1.7-7.3c-0.7-2.6-1.2-5.3-1.2-8c-0.1-5.7,2.4-9.9,7.3-12.6c5-2.7,10.4-4.3,16.1-4.6
				c11.1-0.6,21.5,1.9,31.4,6.8c4,2,7.9,4.2,11.3,7.1c2.4,2,4.3,4.4,5.7,7.3c2.3,4.8,1.4,10.5-2.4,14.4
				C209.4-148.6,208.9-148.2,208.6-147.9z"/>
			<path class="st2" d="M225.1-156.1c3.2-2.3,6.9-4.2,11-5.4c6.8-1.9,13.6-2.4,20.4-0.3c3.3,1,6.4,2.7,9.3,4.4
				c2.7,1.6,4.9,3.7,7,5.9c3.3,3.4,6,7.2,7.8,11.6c1.3,3.1,2.1,6.4,2.2,9.8c0.3,7.3-3.6,13.4-10.5,15.8c-5.5,2-11,1.8-16.4-0.6
				c-1.6-0.7-3-1.9-4.4-3c-2.8-2.2-5.5-4.5-8.6-6.3c-1.7-1-3.6-1.6-5.5-1.9c-2.2-0.3-4.1,0.6-5.1,2.6c-0.5,1-0.9,2-1.3,3.1
				c-0.7,2.1-1.7,4-3.1,5.7c-1.8,2.2-4.1,3.1-6.8,2.9c-5.1-0.4-8.6-3.1-10.4-7.8c-2-5.3-2.2-10.7-0.4-16.2c2-6.3,5.2-11.9,9.9-16.5
				C221.8-153.6,223.2-154.9,225.1-156.1z"/>
			<g>
				<path class="st1" d="M234-100.6c0.1-1.5,1.5-2.7,3-2.5c1.5,0.1,2.7,1.5,2.6,3c-0.1,1.5-1.5,2.8-3.1,2.6
					C234.9-97.7,233.8-99.1,234-100.6z"/>
				<path class="st1" d="M221-101c-1.5-0.1-2.7-1.4-2.6-2.9c0.1-1.5,1.5-2.8,3-2.6c1.5,0.1,2.7,1.4,2.6,3
					C223.8-102,222.5-100.9,221-101z"/>
				<path class="st1" d="M226.6-131.7c-1.5-0.2-2.6-1.6-2.5-3.1c0.2-1.5,1.6-2.6,3.1-2.5c1.6,0.2,2.7,1.6,2.5,3.1
					C229.5-132.6,228.1-131.5,226.6-131.7z"/>
				<path class="st1" d="M228.9-122.5c0.1-1.5,1.4-2.7,2.9-2.6c1.6,0.1,2.8,1.4,2.6,3c-0.1,1.5-1.5,2.7-3,2.6
					C229.9-119.7,228.8-121,228.9-122.5z"/>
				<path class="st1" d="M209.2-117c0.1-1.5,1.4-2.7,3-2.6c1.5,0.1,2.7,1.4,2.6,3c-0.1,1.6-1.4,2.8-3,2.6
					C210.2-114.2,209.1-115.5,209.2-117z"/>
				<path class="st1" d="M198.8-115.2c-1.5-0.1-2.7-1.4-2.6-3c0.1-1.6,1.5-2.8,3-2.6c1.5,0.1,2.6,1.5,2.5,3
					C201.6-116.2,200.3-115.1,198.8-115.2z"/>
				<path class="st1" d="M229.4-92.5c-1.5-0.1-2.7-1.4-2.6-2.9c0.1-1.5,1.4-2.7,2.9-2.6c1.6,0.1,2.8,1.4,2.6,3
					C232.3-93.5,231-92.4,229.4-92.5z"/>
				<path class="st1" d="M211.7-133.2c-1.5-0.1-2.7-1.4-2.5-3c0.1-1.5,1.4-2.7,3-2.6c1.6,0.1,2.7,1.4,2.6,3
					C214.5-134.2,213.2-133.1,211.7-133.2z"/>
				<path class="st1" d="M248.5-92.8c-1.5-0.1-2.7-1.4-2.5-3c0.1-1.6,1.5-2.7,3.1-2.6c1.5,0.2,2.6,1.5,2.5,3
					C251.4-93.8,250-92.6,248.5-92.8z"/>
				<path class="st1" d="M189.5-109.3c-1.5-0.1-2.8-1.6-2.6-3c0.1-1.4,1.3-2.4,2.7-2.2c1.5,0.1,2.8,1.6,2.6,3
					C192-110.2,190.8-109.2,189.5-109.3z"/>
				<path class="st1" d="M202-103.7c-1.6-0.1-2.7-1.3-2.6-2.7c0.1-1.4,1.4-2.4,3-2.3c1.4,0.1,2.4,1.3,2.3,2.7
					C204.6-104.6,203.4-103.6,202-103.7z"/>
				<path class="st1" d="M245.2-117c-1.6-0.1-2.6-1.1-2.6-2.5c0.1-1.4,1.4-2.5,2.9-2.5c1.3,0.1,2.4,1.3,2.3,2.6
					C247.8-118,246.6-116.9,245.2-117z"/>
				<path class="st1" d="M226-115.2c1.5,0.1,2.5,1.2,2.5,2.6c-0.1,1.4-1.3,2.4-2.6,2.4c-1.4-0.1-2.7-1.5-2.5-2.9
					C223.5-114.4,224.6-115.3,226-115.2z"/>
				<path class="st1" d="M195.8-128.7c-0.1,1.4-1.3,2.4-2.7,2.2c-1.4-0.1-2.4-1.3-2.3-2.7c0.1-1.4,1.3-2.4,2.7-2.2
					C195-131.2,196-130,195.8-128.7z"/>
				<path class="st1" d="M251.8-107.4c0.1-1.4,1.3-2.4,2.7-2.2c1.4,0.1,2.4,1.4,2.2,2.7c-0.1,1.4-1.3,2.3-2.7,2.2
					C252.6-104.9,251.6-106,251.8-107.4z"/>
				<path class="st1" d="M202.4-86.7c-0.1,1.4-1.4,2.4-2.7,2.2c-1.3-0.2-2.4-1.4-2.2-2.7c0.2-1.4,1.4-2.3,2.7-2.2
					C201.5-89.3,202.5-88.1,202.4-86.7z"/>
				<path class="st1" d="M214.9-90.3c0.1-1.4,1.2-2.4,2.6-2.3c1.3,0.1,2.4,1.3,2.3,2.6c-0.1,1.3-1.3,2.4-2.6,2.3
					C215.8-87.8,214.8-89,214.9-90.3z"/>
				<path class="st1" d="M213.4-98.7c-0.1,1.4-1.2,2.4-2.6,2.3c-1.4-0.1-2.4-1.3-2.3-2.6c0.1-1.3,1.3-2.4,2.7-2.3
					C212.5-101.3,213.5-100.1,213.4-98.7z"/>
				<path class="st1" d="M217-125.9c0.1-1.4,1.3-2.4,2.6-2.3c1.4,0.1,2.4,1.3,2.3,2.7c-0.1,1.3-1.3,2.4-2.7,2.3
					C217.9-123.3,216.9-124.5,217-125.9z"/>
				<path class="st1" d="M199.9-96.8c-0.1,1.4-1.3,2.4-2.6,2.3c-1.3-0.1-2.4-1.3-2.3-2.6c0.1-1.4,1.3-2.4,2.6-2.3
					C199-99.3,200-98.1,199.9-96.8z"/>
				<path class="st1" d="M204.3-130.3c1.4,0.1,2.4,1.3,2.2,2.7c-0.1,1.3-1.3,2.3-2.6,2.2c-1.4-0.1-2.4-1.3-2.3-2.7
					C201.7-129.4,202.9-130.4,204.3-130.3z"/>
				<path class="st1" d="M234.1-112.4c0.1-1.4,1.3-2.4,2.7-2.3c1.4,0.1,2.4,1.3,2.3,2.7c-0.1,1.4-1.3,2.4-2.7,2.3
					C234.9-109.9,233.9-111,234.1-112.4z"/>
				<path class="st1" d="M241.7-106.5c0.1-1.3,1.2-2.3,2.6-2.3c1.4,0.1,2.4,1.3,2.3,2.6c-0.1,1.4-1.3,2.4-2.7,2.2
					C242.6-104,241.6-105.1,241.7-106.5z"/>
			</g>
			<g>
				<path class="st1" d="M97.4-157c0.1-1.5,1.5-2.7,3-2.5c1.5,0.1,2.7,1.5,2.6,3c-0.1,1.5-1.5,2.8-3.1,2.6
					C98.4-154.1,97.3-155.5,97.4-157z"/>
				<path class="st1" d="M84.5-157.3c-1.5-0.1-2.7-1.4-2.6-2.9c0.1-1.5,1.5-2.8,3-2.6c1.5,0.1,2.7,1.4,2.6,3
					C87.3-158.4,86-157.3,84.5-157.3z"/>
				<path class="st1" d="M90.1-188.1c-1.5-0.2-2.6-1.6-2.5-3.1c0.2-1.5,1.6-2.6,3.1-2.5c1.6,0.2,2.7,1.6,2.5,3.1
					C93-189,91.6-187.9,90.1-188.1z"/>
				<path class="st1" d="M92.3-178.9c0.1-1.5,1.4-2.7,2.9-2.6c1.6,0.1,2.8,1.4,2.6,3c-0.1,1.5-1.5,2.7-3,2.6
					C93.4-176.1,92.3-177.4,92.3-178.9z"/>
				<path class="st1" d="M87.5-132.4c-1.5-0.1-2.7-1.5-2.5-3c0.1-1.5,1.4-2.7,2.9-2.6c1.6,0.1,2.8,1.5,2.6,3.1
					C90.3-133.4,89-132.3,87.5-132.4z"/>
				<path class="st1" d="M72.7-173.4c0.1-1.5,1.4-2.7,3-2.6c1.5,0.1,2.7,1.4,2.6,3c-0.1,1.6-1.4,2.8-3,2.6
					C73.7-170.5,72.6-171.8,72.7-173.4z"/>
				<path class="st1" d="M92.9-148.9c-1.5-0.1-2.7-1.4-2.6-2.9c0.1-1.5,1.4-2.7,2.9-2.6c1.6,0.1,2.8,1.4,2.6,3
					C95.7-149.9,94.4-148.7,92.9-148.9z"/>
				<path class="st1" d="M75.1-189.6c-1.5-0.1-2.7-1.4-2.5-3c0.1-1.5,1.4-2.7,3-2.6c1.6,0.1,2.7,1.4,2.6,3
					C78-190.5,76.7-189.4,75.1-189.6z"/>
				<path class="st1" d="M112-149.1c-1.5-0.1-2.7-1.4-2.5-3c0.1-1.6,1.5-2.7,3.1-2.6c1.5,0.2,2.6,1.5,2.5,3
					C114.8-150.1,113.5-149,112-149.1z"/>
				<path class="st1" d="M107.1-142.1c-0.1,1.4-1.3,2.4-2.7,2.3c-1.4-0.1-2.6-1.7-2.5-3.1c0.1-1.3,1.3-2.4,2.7-2.3
					C106.1-145.1,107.2-143.7,107.1-142.1z"/>
				<path class="st1" d="M65.5-160.1c-1.6-0.1-2.7-1.3-2.6-2.7c0.1-1.4,1.4-2.4,3-2.3c1.4,0.1,2.4,1.3,2.3,2.7
					C68.1-161,66.9-160,65.5-160.1z"/>
				<path class="st1" d="M108.7-173.4c-1.6-0.1-2.6-1.1-2.6-2.5c0.1-1.4,1.4-2.5,2.9-2.5c1.3,0.1,2.4,1.3,2.3,2.6
					C111.3-174.3,110.1-173.3,108.7-173.4z"/>
				<path class="st1" d="M89.5-171.5c1.5,0.1,2.5,1.2,2.5,2.6c-0.1,1.4-1.3,2.4-2.6,2.4c-1.4-0.1-2.7-1.5-2.5-2.9
					C87-170.8,88.1-171.7,89.5-171.5z"/>
				<path class="st1" d="M97.2-133.8c0.1-1.4,1.2-2.4,2.6-2.3c1.4,0.1,2.4,1.3,2.3,2.6c-0.1,1.3-1.3,2.4-2.6,2.3
					C98.1-131.2,97.1-132.4,97.2-133.8z"/>
				<path class="st1" d="M115.2-163.8c0.1-1.4,1.3-2.4,2.7-2.2c1.4,0.1,2.4,1.4,2.2,2.7c-0.1,1.4-1.3,2.3-2.7,2.2
					C116.1-161.2,115.1-162.4,115.2-163.8z"/>
				<path class="st1" d="M65.8-143.1c-0.1,1.4-1.4,2.4-2.7,2.2c-1.3-0.2-2.4-1.4-2.2-2.7c0.2-1.4,1.4-2.3,2.7-2.2
					C65-145.7,66-144.5,65.8-143.1z"/>
				<path class="st1" d="M78.4-146.7c0.1-1.4,1.2-2.4,2.6-2.3c1.3,0.1,2.4,1.3,2.3,2.6c-0.1,1.3-1.3,2.4-2.6,2.3
					C79.3-144.2,78.3-145.3,78.4-146.7z"/>
				<path class="st1" d="M76.9-155.1c-0.1,1.4-1.2,2.4-2.6,2.3c-1.4-0.1-2.4-1.3-2.3-2.6c0.1-1.3,1.3-2.4,2.7-2.3
					C76-157.6,77-156.5,76.9-155.1z"/>
				<path class="st1" d="M80.5-182.3c0.1-1.4,1.3-2.4,2.6-2.3c1.4,0.1,2.4,1.3,2.3,2.7c-0.1,1.3-1.3,2.4-2.7,2.3
					C81.4-179.7,80.4-180.9,80.5-182.3z"/>
				<path class="st1" d="M67.8-186.6c1.4,0.1,2.4,1.3,2.2,2.7c-0.1,1.3-1.3,2.3-2.6,2.2c-1.4-0.1-2.4-1.3-2.3-2.7
					C65.2-185.8,66.4-186.8,67.8-186.6z"/>
				<path class="st1" d="M68.1-139.4c0.1-1.4,1.3-2.4,2.6-2.3c1.3,0.1,2.4,1.3,2.3,2.7c-0.1,1.3-1.3,2.3-2.6,2.2
					C69-136.8,68-138,68.1-139.4z"/>
				<path class="st1" d="M97.5-168.8c0.1-1.4,1.3-2.4,2.7-2.3c1.4,0.1,2.4,1.3,2.3,2.7c-0.1,1.4-1.3,2.4-2.7,2.3
					C98.4-166.2,97.4-167.4,97.5-168.8z"/>
				<path class="st1" d="M105.2-162.9c0.1-1.3,1.2-2.3,2.6-2.3c1.4,0.1,2.4,1.3,2.3,2.6c-0.1,1.4-1.3,2.4-2.7,2.2
					C106-160.4,105.1-161.5,105.2-162.9z"/>
				<path class="st1" d="M95-142.1c-0.1,1.3-1.1,2.3-2.4,2.2c-1.3-0.1-2.3-1.2-2.2-2.4c0.1-1.3,1.2-2.3,2.5-2.2
					C94.1-144.5,95-143.4,95-142.1z"/>
			</g>
		</g>
		<g>
			<path class="st1" d="M59.9-106.6c2.2,0.2,4.3,0.7,6.4,1.4c2.6,0.9,5.3,1.7,7.8,2.6c8.2,3,14.4,7.9,19.1,14.4
				c2.5,3.4,4.1,7.1,5.4,10.8c1.1,3,1.2,6.1,0.3,9.1c-1.3,4.4-2.9,8.6-6.1,12.3c-1.9,2.1-4.2,3.9-7,5.1c-2.7,1.1-5.5,2-8.4,2.8
				c-1.4,0.4-2.8,0.8-4.2,1.3c-2.7,1-4.7,2.6-6.1,4.8c-0.7,1.2-0.8,2.5-0.3,3.8c0.6,1.7,1.7,3.2,3.2,4.4c1.1,0.9,2.3,1.7,3.6,2.4
				c2.1,1.2,4.2,2.3,6.3,3.6c3.6,2.2,6.1,5,7.5,8.6c2.3,6,0.5,11.2-4.5,15.4C77.7,0.6,70.4,1,64.1-1.7c-4.9-2-8.1-5.3-9.3-9.8
				c-0.1-0.5-0.3-1.1-0.4-1.6c-0.3-1.4-1.2-2.4-2.5-3.2c-2.1-1.3-4.4-2-6.9-2.4c-4-0.7-8.1-0.9-12.2-1.1c-4.2-0.3-8.4-0.6-12.4-2.1
				C13.8-24.5,9.6-28.8,9-35.1c-0.4-4,1.2-7.5,4.1-10.4c1.7-1.7,3.8-3,6.1-4.1c3.3-1.5,6.7-2.7,10.3-3.6c2.5-0.6,4.9-1.4,7.3-2.2
				c1.2-0.4,2.3-0.9,3.5-1.4c2.9-1.4,4-3.6,3.6-6.4c-0.2-1.7-0.8-3.3-1.7-4.9c-1-1.8-2.3-3.5-3.7-5.1c-1.7-1.9-3.2-3.9-4.8-5.9
				c-2.7-3.5-3.9-7.3-3.7-11.4c0.2-3.6,1.8-6.7,4.5-9.3c2.7-2.6,6.1-4.3,9.9-5.4C49.4-106.8,54.5-107.2,59.9-106.6z"/>
			<path class="st1" d="M54.3-106.6c2.2,0.2,4.3,0.7,6.4,1.4c2.6,0.9,5.3,1.7,7.8,2.6c8.2,3,14.4,7.9,19.1,14.4
				c2.5,3.4,4.1,7.1,5.4,10.8c1.1,3,1.2,6.1,0.3,9.1c-1.3,4.4-2.9,8.6-6.1,12.3c-1.9,2.1-4.2,3.9-7,5.1c-2.7,1.1-5.5,2-8.4,2.8
				c-1.4,0.4-2.8,0.8-4.2,1.3c-2.7,1-4.7,2.6-6.1,4.8c-0.7,1.2-0.8,2.5-0.3,3.8c0.6,1.7,1.7,3.2,3.2,4.4c1.1,0.9,2.3,1.7,3.6,2.4
				c2.1,1.2,4.2,2.3,6.3,3.6c3.6,2.2,6.1,5,7.5,8.6c2.3,6,0.5,11.2-4.5,15.4C72.1,0.6,64.8,1,58.5-1.7c-4.9-2-8.1-5.3-9.3-9.8
				c-0.1-0.5-0.3-1.1-0.4-1.6c-0.3-1.4-1.2-2.4-2.5-3.2c-2.1-1.3-4.4-2-6.9-2.4c-4-0.7-8.1-0.9-12.2-1.1c-4.2-0.3-8.4-0.6-12.4-2.1
				C8.2-24.5,4-28.8,3.3-35.1c-0.4-4,1.2-7.5,4.1-10.4c1.7-1.7,3.8-3,6.1-4.1c3.3-1.5,6.7-2.7,10.3-3.6c2.5-0.6,4.9-1.4,7.3-2.2
				c1.2-0.4,2.3-0.9,3.5-1.4c2.9-1.4,4-3.6,3.6-6.4c-0.2-1.7-0.8-3.3-1.7-4.9c-1-1.8-2.3-3.5-3.7-5.1c-1.7-1.9-3.2-3.9-4.8-5.9
				c-2.7-3.5-3.9-7.3-3.7-11.4c0.2-3.6,1.8-6.7,4.5-9.3c2.7-2.6,6.1-4.3,9.9-5.4C43.7-106.8,48.9-107.2,54.3-106.6z"/>
			<path class="st2" d="M25.1-156.1c3.2-2.3,6.9-4.2,11-5.4c6.8-1.9,13.6-2.4,20.4-0.3c3.3,1,6.4,2.7,9.3,4.4c2.7,1.6,4.9,3.7,7,5.9
				c3.3,3.4,6,7.2,7.8,11.6c1.3,3.1,2.1,6.4,2.2,9.8c0.3,7.3-3.6,13.4-10.5,15.8c-5.5,2-11,1.8-16.4-0.6c-1.6-0.7-3-1.9-4.4-3
				c-2.8-2.2-5.5-4.5-8.6-6.3c-1.7-1-3.6-1.6-5.5-1.9c-2.2-0.3-4.1,0.6-5.1,2.6c-0.5,1-0.9,2-1.3,3.1c-0.7,2.1-1.7,4-3.1,5.7
				c-1.8,2.2-4.1,3.1-6.8,2.9c-5.1-0.4-8.6-3.1-10.4-7.8c-2-5.3-2.2-10.7-0.4-16.2c2-6.3,5.2-11.9,9.9-16.5
				C21.8-153.6,23.2-154.9,25.1-156.1z"/>
		</g>
		<g>
			<path class="st2" d="M400-270.2c0-1.9,0.2-3.8,0.6-5.6c0.6-2.3,1-4.6,1.7-6.9c2-7.3,6.2-13.1,12-17.7c3.1-2.4,6.5-4.2,10.1-5.7
				c2.9-1.2,5.9-1.7,9-1.2c4.5,0.6,8.9,1.6,12.9,4c2.3,1.4,4.3,3.1,5.9,5.4c1.5,2.2,2.6,4.5,3.8,6.8c0.6,1.2,1.2,2.3,1.8,3.5
				c1.3,2.2,3.1,3.8,5.5,4.7c1.3,0.5,2.6,0.4,3.8-0.1c1.6-0.7,3-1.8,4-3.2c0.8-1,1.4-2.1,1.9-3.3c0.9-1.9,1.8-3.8,2.8-5.7
				c1.7-3.3,4.3-5.7,7.6-7.2c5.7-2.6,11-1.5,15.9,2.2c5,3.9,6.2,10.1,4.3,15.7c-1.4,4.4-4.3,7.4-8.7,8.9c-0.5,0.2-1,0.4-1.5,0.5
				c-1.3,0.4-2.3,1.2-2.9,2.4c-1.1,1.9-1.5,4-1.6,6.1c-0.2,3.5,0.1,7,0.3,10.5c0.2,3.6,0.4,7.2-0.6,10.8c-1.7,6-5.5,10-11.7,11.2
				c-3.9,0.8-7.5-0.2-10.8-2.5c-1.9-1.3-3.5-2.9-4.8-4.7c-1.9-2.6-3.5-5.4-4.8-8.4c-0.9-2-1.9-4-3-6c-0.5-1-1.2-1.9-1.8-2.8
				c-1.8-2.3-4-3-6.8-2.4c-1.7,0.4-3.2,1-4.6,1.9c-1.7,1.1-3.2,2.3-4.6,3.7c-1.7,1.6-3.5,3.2-5.3,4.7c-3.1,2.7-6.8,4-10.8,4.3
				c-3.6,0.2-6.8-0.8-9.7-2.9c-2.9-2.1-5-4.8-6.6-7.9C401.1-261.2,400-265.6,400-270.2z"/>
			<path class="st1" d="M508.6-356c-4.4,3.7-9.3,5.7-14.6,6.7c-3.1,0.6-6.3,0.7-9.5,0.8c-1.9,0.1-3.9,0.2-5.8,0.6
				c-3.2,0.6-5.4,2.4-6.3,5.5c-0.7,2.4-1.3,4.9-2,7.3c-1.5,5.7-4.7,10.2-9.5,13.7c-3.3,2.3-6.8,4-10.6,5.2
				c-8.3,2.6-16.7,3.1-25.3,1.5c-3.9-0.7-7.5-2.1-10.7-4.5c-2.8-2.2-4.5-5.1-4.9-8.6c-0.5-3.5,0.8-6.3,3.2-8.7
				c2.2-2.2,4.9-3.5,7.8-4.6c3.7-1.4,7.5-2.3,11.3-3.2c2-0.5,4-0.9,6-1.7c1.6-0.7,3-1.5,4.1-2.9c1.2-1.5,1.8-3.3,1.9-5.2
				c0.1-2,0-4-0.4-5.9c-0.4-2.5-1.1-4.9-1.7-7.3c-0.7-2.6-1.2-5.3-1.2-8c-0.1-5.7,2.4-9.9,7.3-12.6c5-2.7,10.4-4.3,16.1-4.6
				c11.1-0.6,21.5,1.9,31.4,6.8c4,2,7.9,4.2,11.3,7.1c2.4,2,4.3,4.4,5.7,7.3c2.3,4.8,1.4,10.5-2.4,14.4
				C509.4-356.7,508.9-356.3,508.6-356z"/>
			<path class="st3" d="M508.6-347.9c-4.4,3.7-9.3,5.7-14.6,6.7c-3.1,0.6-6.3,0.7-9.5,0.8c-1.9,0.1-3.9,0.2-5.8,0.6
				c-3.2,0.6-5.4,2.4-6.3,5.5c-0.7,2.4-1.3,4.9-2,7.3c-1.5,5.7-4.7,10.2-9.5,13.7c-3.3,2.3-6.8,4-10.6,5.2
				c-8.3,2.6-16.7,3.1-25.3,1.5c-3.9-0.7-7.5-2.1-10.7-4.5c-2.8-2.2-4.5-5.1-4.9-8.6c-0.5-3.5,0.8-6.3,3.2-8.7
				c2.2-2.2,4.9-3.5,7.8-4.6c3.7-1.4,7.5-2.3,11.3-3.2c2-0.5,4-0.9,6-1.7c1.6-0.7,3-1.5,4.1-2.9c1.2-1.5,1.8-3.3,1.9-5.2
				c0.1-2,0-4-0.4-5.9c-0.4-2.5-1.1-4.9-1.7-7.3c-0.7-2.6-1.2-5.3-1.2-8c-0.1-5.7,2.4-9.9,7.3-12.6c5-2.7,10.4-4.3,16.1-4.6
				c11.1-0.6,21.5,1.9,31.4,6.8c4,2,7.9,4.2,11.3,7.1c2.4,2,4.3,4.4,5.7,7.3c2.3,4.8,1.4,10.5-2.4,14.4
				C509.4-348.6,508.9-348.2,508.6-347.9z"/>
			<path class="st2" d="M477.6-169.5c-3.9-0.1-8.1-0.9-12-2.4c-6.5-2.6-12.2-6.4-16.4-12.2c-2-2.8-3.4-6-4.7-9.2
				c-1.2-2.9-1.6-5.9-2-9c-0.6-4.7-0.4-9.4,0.8-13.9c0.9-3.3,2.2-6.4,4.2-9.2c4.2-6,10.9-8.4,17.9-6.2c5.6,1.8,9.9,5.2,12.6,10.4
				c0.8,1.6,1.2,3.3,1.7,5c0.9,3.5,1.7,6.9,3,10.3c0.8,1.8,1.8,3.5,3.2,4.9c1.6,1.6,3.6,2,5.7,1c1-0.5,2-1,2.9-1.7
				c1.8-1.3,3.8-2.1,5.9-2.7c2.8-0.7,5.1,0.1,7.2,1.8c3.8,3.4,5,7.7,3.5,12.5c-1.7,5.4-4.8,9.9-9.5,13.1c-5.4,3.8-11.3,6.3-17.9,7.1
				C481.8-169.5,479.9-169.3,477.6-169.5z"/>
			<path class="st3" d="M490.2-168.4c-3.9-0.1-8.1-0.9-12-2.4c-6.5-2.6-12.2-6.4-16.4-12.2c-2-2.8-3.4-6-4.7-9.2
				c-1.2-2.9-1.6-5.9-2-9c-0.6-4.7-0.4-9.4,0.8-13.9c0.9-3.3,2.2-6.4,4.2-9.2c4.2-6,10.9-8.4,17.9-6.2c5.6,1.8,9.9,5.2,12.6,10.4
				c0.8,1.6,1.2,3.3,1.7,5c0.9,3.5,1.7,6.9,3,10.3c0.8,1.8,1.8,3.5,3.2,4.9c1.6,1.6,3.6,2,5.7,1c1-0.5,2-1,2.9-1.7
				c1.8-1.3,3.8-2.1,5.9-2.7c2.8-0.7,5.1,0.1,7.2,1.8c3.8,3.4,5,7.7,3.5,12.5c-1.7,5.4-4.8,9.9-9.5,13.1c-5.4,3.8-11.3,6.3-17.9,7.1
				C494.4-168.4,492.5-168.2,490.2-168.4z"/>
			<g>
				<path class="st1" d="M429.7-239c-1.9,0-3.4-1.6-3.4-3.4c0-1.8,1.6-3.4,3.4-3.4c1.9,0,3.5,1.6,3.4,3.5
					C433.1-240.5,431.5-239,429.7-239z"/>
				<path class="st1" d="M430.4-223.2c0,1.9-1.5,3.4-3.3,3.5c-1.9,0.1-3.5-1.5-3.5-3.5c0-1.9,1.5-3.4,3.4-3.4
					C428.8-226.6,430.3-225.1,430.4-223.2z"/>
				<path class="st1" d="M392.5-227.4c-0.1,1.8-1.7,3.3-3.5,3.3c-1.8-0.1-3.4-1.7-3.3-3.5c0.1-1.9,1.7-3.4,3.6-3.3
					C391.1-230.8,392.6-229.2,392.5-227.4z"/>
				<path class="st1" d="M403.5-230.9c-1.9,0-3.4-1.4-3.4-3.3c0-1.9,1.5-3.5,3.4-3.5c1.9,0,3.4,1.5,3.4,3.4
					C406.8-232.5,405.3-231,403.5-230.9z"/>
				<path class="st1" d="M460.4-229.1c0,1.9-1.5,3.4-3.4,3.4c-1.9,0-3.4-1.5-3.4-3.4c0-1.9,1.6-3.5,3.5-3.4
					C458.9-232.5,460.4-231,460.4-229.1z"/>
				<path class="st1" d="M411.9-207.5c-1.9,0-3.4-1.5-3.4-3.4c0-1.9,1.5-3.4,3.4-3.4c1.9,0,3.5,1.5,3.4,3.4
					C415.3-209,413.8-207.5,411.9-207.5z"/>
				<path class="st1" d="M415-195c0,1.9-1.5,3.4-3.4,3.4c-1.9,0-3.5-1.5-3.4-3.5c0-1.9,1.6-3.3,3.5-3.3
					C413.6-198.4,415-196.9,415-195z"/>
				<path class="st1" d="M439.9-234.2c0,1.9-1.5,3.4-3.4,3.4c-1.9,0-3.4-1.4-3.4-3.3c0-2,1.5-3.5,3.4-3.5
					C438.5-237.6,439.9-236.1,439.9-234.2z"/>
				<path class="st1" d="M392-209.1c0,1.9-1.5,3.4-3.4,3.3c-1.9,0-3.4-1.5-3.4-3.4c0-2,1.5-3.4,3.5-3.4
					C390.6-212.5,392-211,392-209.1z"/>
				<path class="st1" d="M437.9-257.4c0,1.9-1.5,3.4-3.4,3.3c-1.9,0-3.4-1.6-3.4-3.5c0.1-1.9,1.6-3.3,3.5-3.3
					C436.5-260.8,437.9-259.3,437.9-257.4z"/>
				<path class="st1" d="M446.9-252.1c1.7,0,3,1.4,3,3c0,1.7-1.8,3.4-3.5,3.3c-1.6,0-3-1.4-3-3.1C443.3-250.6,445-252.1,446.9-252.1
					z"/>
				<path class="st1" d="M423-184.2c0,1.8-1.7,3.5-3.4,3.5c-1.7,0-3-1.4-3-3.1c0-1.8,1.7-3.5,3.4-3.5
					C421.7-187.3,423.1-185.9,423-184.2z"/>
				<path class="st1" d="M428.7-200c0,1.9-1.3,3.4-3,3.4c-1.7,0-3-1.5-3-3.4c0-1.7,1.4-3,3-3C427.4-203,428.7-201.7,428.7-200z"/>
				<path class="st1" d="M408.7-251.2c0,1.9-1.1,3.3-2.8,3.3c-1.7,0.1-3.2-1.5-3.2-3.3c0-1.6,1.3-3,3-3.1
					C407.4-254.4,408.7-253,408.7-251.2z"/>
				<path class="st1" d="M412.7-228.1c0-1.8,1.2-3.2,3-3.2c1.7,0,3.1,1.3,3.1,3c0,1.7-1.6,3.4-3.3,3.3
					C413.8-225.1,412.7-226.4,412.7-228.1z"/>
				<path class="st1" d="M398.9-190.3c1.7,0,3,1.4,3,3.1c0,1.7-1.4,3-3,3c-1.7,0-3-1.4-3-3.1C395.9-189,397.2-190.3,398.9-190.3z"/>
				<path class="st1" d="M457.9-240.8c-1.7,0-3-1.3-3-3c0-1.7,1.3-3,3-3.1c1.6,0,3,1.4,3.1,3C460.9-242.1,459.6-240.8,457.9-240.8z"
					/>
				<path class="st1" d="M419.8-260.1c-1.7,0-3-1.4-2.9-3.1c0.1-1.7,1.5-3,3.1-2.9c1.7,0,3,1.4,2.9,3.1
					C422.9-261.3,421.5-260,419.8-260.1z"/>
				<path class="st1" d="M449.3-201.9c1.7,0,3,1.4,2.9,3.1c-0.1,1.6-1.5,3-3.1,2.9c-1.7-0.1-3-1.5-2.9-3.1
					C446.3-200.7,447.6-201.9,449.3-201.9z"/>
				<path class="st1" d="M443.8-216.8c-1.7,0-3-1.3-3.1-2.9c0-1.6,1.3-3,3-3.1c1.6,0,3,1.3,3.1,3
					C446.8-218.1,445.5-216.8,443.8-216.8z"/>
				<path class="st1" d="M433.8-214.3c1.7,0,3,1.3,3,3c0,1.7-1.4,3-3,3c-1.6,0-3-1.4-3-3C430.7-212.9,432.1-214.2,433.8-214.3z"/>
				<path class="st1" d="M400.4-216.2c-1.7,0-3-1.3-3-3c0-1.7,1.4-3,3-3c1.6,0,3,1.4,3,3C403.5-217.5,402.1-216.2,400.4-216.2z"/>
				<path class="st1" d="M437.3-198.1c1.7,0,3,1.3,3,3c0,1.6-1.4,3-3,3c-1.7,0-3-1.3-3-3C434.3-196.7,435.6-198,437.3-198.1z"/>
				<path class="st1" d="M396.2-200.4c0-1.7,1.4-3,3.1-2.9c1.6,0,2.9,1.4,2.9,3c0,1.7-1.4,3-3,3
					C397.5-197.3,396.2-198.7,396.2-200.4z"/>
				<path class="st1" d="M453.7-204.9c-1.7,0-3-1.4-3-3c0-1.6,1.4-3,3.1-3c1.6,0,2.9,1.3,2.9,3C456.6-206.3,455.3-205,453.7-204.9z"
					/>
				<path class="st1" d="M415.3-238.1c-1.7,0-3-1.3-3-3c0-1.7,1.4-3,3-3c1.7,0,3,1.4,3,3.1C418.3-239.4,417-238.1,415.3-238.1z"/>
				<path class="st1" d="M421.8-248c-1.6,0-2.9-1.3-3-2.9c0-1.7,1.4-3,3-3c1.7,0,3,1.4,3,3.1C424.8-249.2,423.5-247.9,421.8-248z"/>
				<path class="st1" d="M448-237.4c1.6,0,2.9,1.2,2.9,2.8c0,1.6-1.2,2.9-2.8,2.9c-1.6,0-2.9-1.2-2.9-2.8
					C445.1-236,446.4-237.3,448-237.4z"/>
			</g>
			<g>
				<path class="st1" d="M397.4-357c0.1-1.5,1.5-2.7,3-2.5c1.5,0.1,2.7,1.5,2.6,3c-0.1,1.5-1.5,2.8-3.1,2.6
					C398.4-354.1,397.3-355.5,397.4-357z"/>
				<path class="st1" d="M384.5-357.3c-1.5-0.1-2.7-1.4-2.6-2.9c0.1-1.5,1.5-2.8,3-2.6c1.5,0.1,2.7,1.4,2.6,3
					C387.3-358.4,386-357.3,384.5-357.3z"/>
				<path class="st1" d="M390.1-388.1c-1.5-0.2-2.6-1.6-2.5-3.1c0.2-1.5,1.6-2.6,3.1-2.5c1.6,0.2,2.7,1.6,2.5,3.1
					C393-389,391.6-387.9,390.1-388.1z"/>
				<path class="st1" d="M392.3-378.9c0.1-1.5,1.4-2.7,2.9-2.6c1.6,0.1,2.8,1.4,2.6,3c-0.1,1.5-1.5,2.7-3,2.6
					C393.4-376.1,392.3-377.4,392.3-378.9z"/>
				<path class="st1" d="M387.5-332.4c-1.5-0.1-2.7-1.5-2.5-3c0.1-1.5,1.4-2.7,2.9-2.6c1.6,0.1,2.8,1.5,2.6,3.1
					C390.3-333.4,389-332.3,387.5-332.4z"/>
				<path class="st1" d="M372.7-373.4c0.1-1.5,1.4-2.7,3-2.6c1.5,0.1,2.7,1.4,2.6,3c-0.1,1.6-1.4,2.8-3,2.6
					C373.7-370.5,372.6-371.8,372.7-373.4z"/>
				<path class="st1" d="M362.3-371.6c-1.5-0.1-2.7-1.4-2.6-3c0.1-1.6,1.5-2.8,3-2.6c1.5,0.1,2.6,1.5,2.5,3
					C365.1-372.6,363.8-371.4,362.3-371.6z"/>
				<path class="st1" d="M392.9-348.9c-1.5-0.1-2.7-1.4-2.6-2.9c0.1-1.5,1.4-2.7,2.9-2.6c1.6,0.1,2.8,1.4,2.6,3
					C395.7-349.9,394.4-348.7,392.9-348.9z"/>
				<path class="st1" d="M375.1-389.6c-1.5-0.1-2.7-1.4-2.5-3c0.1-1.5,1.4-2.7,3-2.6c1.6,0.1,2.7,1.4,2.6,3
					C378-390.5,376.7-389.4,375.1-389.6z"/>
				<path class="st1" d="M412-349.1c-1.5-0.1-2.7-1.4-2.5-3c0.1-1.6,1.5-2.7,3.1-2.6c1.5,0.2,2.6,1.5,2.5,3
					C414.8-350.1,413.5-349,412-349.1z"/>
				<path class="st1" d="M407.1-342.1c-0.1,1.4-1.3,2.4-2.7,2.3c-1.4-0.1-2.6-1.7-2.5-3.1c0.1-1.3,1.3-2.4,2.7-2.3
					C406.1-345.1,407.2-343.7,407.1-342.1z"/>
				<path class="st1" d="M352.9-365.7c-1.5-0.1-2.8-1.6-2.6-3c0.1-1.4,1.3-2.4,2.7-2.2c1.5,0.1,2.8,1.6,2.6,3
					C355.5-366.6,354.3-365.5,352.9-365.7z"/>
				<path class="st1" d="M365.5-360.1c-1.6-0.1-2.7-1.3-2.6-2.7c0.1-1.4,1.4-2.4,3-2.3c1.4,0.1,2.4,1.3,2.3,2.7
					C368.1-361,366.9-360,365.5-360.1z"/>
				<path class="st1" d="M408.7-373.4c-1.6-0.1-2.6-1.1-2.6-2.5c0.1-1.4,1.4-2.5,2.9-2.5c1.3,0.1,2.4,1.3,2.3,2.6
					C411.3-374.3,410.1-373.3,408.7-373.4z"/>
				<path class="st1" d="M389.5-371.5c1.5,0.1,2.5,1.2,2.5,2.6c-0.1,1.4-1.3,2.4-2.6,2.4c-1.4-0.1-2.7-1.5-2.5-2.9
					C387-370.8,388.1-371.7,389.5-371.5z"/>
				<path class="st1" d="M359.3-385.1c-0.1,1.4-1.3,2.4-2.7,2.2c-1.4-0.1-2.4-1.3-2.3-2.7c0.1-1.4,1.3-2.4,2.7-2.2
					C358.4-387.6,359.4-386.4,359.3-385.1z"/>
				<path class="st1" d="M397.2-333.8c0.1-1.4,1.2-2.4,2.6-2.3c1.4,0.1,2.4,1.3,2.3,2.6c-0.1,1.3-1.3,2.4-2.6,2.3
					C398.1-331.2,397.1-332.4,397.2-333.8z"/>
				<path class="st1" d="M415.2-363.8c0.1-1.4,1.3-2.4,2.7-2.2c1.4,0.1,2.4,1.4,2.2,2.7c-0.1,1.4-1.3,2.3-2.7,2.2
					C416.1-361.2,415.1-362.4,415.2-363.8z"/>
				<path class="st1" d="M365.8-343.1c-0.1,1.4-1.4,2.4-2.7,2.2c-1.3-0.2-2.4-1.4-2.2-2.7c0.2-1.4,1.4-2.3,2.7-2.2
					C365-345.7,366-344.5,365.8-343.1z"/>
				<path class="st1" d="M378.4-346.7c0.1-1.4,1.2-2.4,2.6-2.3c1.3,0.1,2.4,1.3,2.3,2.6c-0.1,1.3-1.3,2.4-2.6,2.3
					C379.3-344.2,378.3-345.3,378.4-346.7z"/>
				<path class="st1" d="M376.9-355.1c-0.1,1.4-1.2,2.4-2.6,2.3c-1.4-0.1-2.4-1.3-2.3-2.6c0.1-1.3,1.3-2.4,2.7-2.3
					C376-357.6,377-356.5,376.9-355.1z"/>
				<path class="st1" d="M380.5-382.3c0.1-1.4,1.3-2.4,2.6-2.3c1.4,0.1,2.4,1.3,2.3,2.7c-0.1,1.3-1.3,2.4-2.7,2.3
					C381.4-379.7,380.4-380.9,380.5-382.3z"/>
				<path class="st1" d="M363.4-353.2c-0.1,1.4-1.3,2.4-2.6,2.3c-1.3-0.1-2.4-1.3-2.3-2.6c0.1-1.4,1.3-2.4,2.6-2.3
					C362.5-355.7,363.5-354.5,363.4-353.2z"/>
				<path class="st1" d="M367.8-386.6c1.4,0.1,2.4,1.3,2.2,2.7c-0.1,1.3-1.3,2.3-2.6,2.2c-1.4-0.1-2.4-1.3-2.3-2.7
					C365.2-385.8,366.4-386.8,367.8-386.6z"/>
				<path class="st1" d="M368.1-339.4c0.1-1.4,1.3-2.4,2.6-2.3c1.3,0.1,2.4,1.3,2.3,2.7c-0.1,1.3-1.3,2.3-2.6,2.2
					C369-336.8,368-338,368.1-339.4z"/>
				<path class="st1" d="M397.5-368.8c0.1-1.4,1.3-2.4,2.7-2.3c1.4,0.1,2.4,1.3,2.3,2.7c-0.1,1.4-1.3,2.4-2.7,2.3
					C398.4-366.2,397.4-367.4,397.5-368.8z"/>
				<path class="st1" d="M405.2-362.9c0.1-1.3,1.2-2.3,2.6-2.3c1.4,0.1,2.4,1.3,2.3,2.6c-0.1,1.4-1.3,2.4-2.7,2.2
					C406-360.4,405.1-361.5,405.2-362.9z"/>
				<path class="st1" d="M395-342.1c-0.1,1.3-1.1,2.3-2.4,2.2c-1.3-0.1-2.3-1.2-2.2-2.4c0.1-1.3,1.2-2.3,2.5-2.2
					C394.1-344.5,395-343.4,395-342.1z"/>
			</g>
		</g>
		<g>
			<path class="st1" d="M359.9-306.6c2.2,0.2,4.3,0.7,6.4,1.4c2.6,0.9,5.3,1.7,7.8,2.6c8.2,3,14.4,7.9,19.1,14.4
				c2.5,3.4,4.1,7.1,5.4,10.8c1.1,3,1.2,6.1,0.3,9.1c-1.3,4.4-2.9,8.6-6.1,12.3c-1.9,2.1-4.2,3.9-7,5.1c-2.7,1.1-5.5,2-8.4,2.8
				c-1.4,0.4-2.8,0.8-4.2,1.3c-2.7,1-4.7,2.6-6.1,4.8c-0.7,1.2-0.8,2.5-0.3,3.8c0.6,1.7,1.7,3.2,3.2,4.4c1.1,0.9,2.3,1.7,3.6,2.4
				c2.1,1.2,4.2,2.3,6.3,3.6c3.6,2.2,6.1,5,7.5,8.6c2.3,6,0.5,11.2-4.5,15.4c-5.1,4.4-12.5,4.7-18.7,2.1c-4.9-2-8.1-5.3-9.3-9.8
				c-0.1-0.5-0.3-1.1-0.4-1.6c-0.3-1.4-1.2-2.4-2.5-3.2c-2.1-1.3-4.4-2-6.9-2.4c-4-0.7-8.1-0.9-12.2-1.1c-4.2-0.3-8.4-0.6-12.4-2.1
				c-6.8-2.5-10.9-6.8-11.6-13.2c-0.4-4,1.2-7.5,4.1-10.4c1.7-1.7,3.8-3,6.1-4.1c3.3-1.5,6.7-2.7,10.3-3.6c2.5-0.6,4.9-1.4,7.3-2.2
				c1.2-0.4,2.3-0.9,3.5-1.4c2.9-1.4,4-3.6,3.6-6.4c-0.2-1.7-0.8-3.3-1.7-4.9c-1-1.8-2.3-3.5-3.7-5.1c-1.7-1.9-3.2-3.9-4.8-5.9
				c-2.7-3.5-3.9-7.3-3.7-11.4c0.2-3.6,1.8-6.7,4.5-9.3c2.7-2.6,6.1-4.3,9.9-5.4C349.4-306.8,354.5-307.2,359.9-306.6z"/>
			<path class="st2" d="M200-270.2c0-1.9,0.2-3.8,0.6-5.6c0.6-2.3,1-4.6,1.7-6.9c2-7.3,6.2-13.1,12-17.7c3.1-2.4,6.5-4.2,10.1-5.7
				c2.9-1.2,5.9-1.7,9-1.2c4.5,0.6,8.9,1.6,12.9,4c2.3,1.4,4.3,3.1,5.9,5.4c1.5,2.2,2.6,4.5,3.8,6.8c0.6,1.2,1.2,2.3,1.8,3.5
				c1.3,2.2,3.1,3.8,5.5,4.7c1.3,0.5,2.6,0.4,3.8-0.1c1.6-0.7,3-1.8,4-3.2c0.8-1,1.4-2.1,1.9-3.3c0.9-1.9,1.8-3.8,2.8-5.7
				c1.7-3.3,4.3-5.7,7.6-7.2c5.7-2.6,11-1.5,15.9,2.2c5,3.9,6.2,10.1,4.3,15.7c-1.4,4.4-4.3,7.4-8.7,8.9c-0.5,0.2-1,0.4-1.5,0.5
				c-1.3,0.4-2.3,1.2-2.9,2.4c-1.1,1.9-1.5,4-1.6,6.1c-0.2,3.5,0.1,7,0.3,10.5c0.2,3.6,0.4,7.2-0.6,10.8c-1.7,6-5.5,10-11.7,11.2
				c-3.9,0.8-7.5-0.2-10.8-2.5c-1.9-1.3-3.5-2.9-4.8-4.7c-1.9-2.6-3.5-5.4-4.8-8.4c-0.9-2-1.9-4-3-6c-0.5-1-1.2-1.9-1.8-2.8
				c-1.8-2.3-4-3-6.8-2.4c-1.7,0.4-3.2,1-4.6,1.9c-1.7,1.1-3.2,2.3-4.6,3.7c-1.7,1.6-3.5,3.2-5.3,4.7c-3.1,2.7-6.8,4-10.8,4.3
				c-3.6,0.2-6.8-0.8-9.7-2.9c-2.9-2.1-5-4.8-6.6-7.9C201.1-261.2,200-265.6,200-270.2z"/>
			<path class="st1" d="M354.3-306.6c2.2,0.2,4.3,0.7,6.4,1.4c2.6,0.9,5.3,1.7,7.8,2.6c8.2,3,14.4,7.9,19.1,14.4
				c2.5,3.4,4.1,7.1,5.4,10.8c1.1,3,1.2,6.1,0.3,9.1c-1.3,4.4-2.9,8.6-6.1,12.3c-1.9,2.1-4.2,3.9-7,5.1c-2.7,1.1-5.5,2-8.4,2.8
				c-1.4,0.4-2.8,0.8-4.2,1.3c-2.7,1-4.7,2.6-6.1,4.8c-0.7,1.2-0.8,2.5-0.3,3.8c0.6,1.7,1.7,3.2,3.2,4.4c1.1,0.9,2.3,1.7,3.6,2.4
				c2.1,1.2,4.2,2.3,6.3,3.6c3.6,2.2,6.1,5,7.5,8.6c2.3,6,0.5,11.2-4.5,15.4c-5.1,4.4-12.5,4.7-18.7,2.1c-4.9-2-8.1-5.3-9.3-9.8
				c-0.1-0.5-0.3-1.1-0.4-1.6c-0.3-1.4-1.2-2.4-2.5-3.2c-2.1-1.3-4.4-2-6.9-2.4c-4-0.7-8.1-0.9-12.2-1.1c-4.2-0.3-8.4-0.6-12.4-2.1
				c-6.8-2.5-10.9-6.8-11.6-13.2c-0.4-4,1.2-7.5,4.1-10.4c1.7-1.7,3.8-3,6.1-4.1c3.3-1.5,6.7-2.7,10.3-3.6c2.5-0.6,4.9-1.4,7.3-2.2
				c1.2-0.4,2.3-0.9,3.5-1.4c2.9-1.4,4-3.6,3.6-6.4c-0.2-1.7-0.8-3.3-1.7-4.9c-1-1.8-2.3-3.5-3.7-5.1c-1.7-1.9-3.2-3.9-4.8-5.9
				c-2.7-3.5-3.9-7.3-3.7-11.4c0.2-3.6,1.8-6.7,4.5-9.3c2.7-2.6,6.1-4.3,9.9-5.4C343.7-306.8,348.9-307.2,354.3-306.6z"/>
			<path class="st1" d="M308.6-356c-4.4,3.7-9.3,5.7-14.6,6.7c-3.1,0.6-6.3,0.7-9.5,0.8c-1.9,0.1-3.9,0.2-5.8,0.6
				c-3.2,0.6-5.4,2.4-6.3,5.5c-0.7,2.4-1.3,4.9-2,7.3c-1.5,5.7-4.7,10.2-9.5,13.7c-3.3,2.3-6.8,4-10.6,5.2
				c-8.3,2.6-16.7,3.1-25.3,1.5c-3.9-0.7-7.5-2.1-10.7-4.5c-2.8-2.2-4.5-5.1-4.9-8.6c-0.5-3.5,0.8-6.3,3.2-8.7
				c2.2-2.2,4.9-3.5,7.8-4.6c3.7-1.4,7.5-2.3,11.3-3.2c2-0.5,4-0.9,6-1.7c1.6-0.7,3-1.5,4.1-2.9c1.2-1.5,1.8-3.3,1.9-5.2
				c0.1-2,0-4-0.4-5.9c-0.4-2.5-1.1-4.9-1.7-7.3c-0.7-2.6-1.2-5.3-1.2-8c-0.1-5.7,2.4-9.9,7.3-12.6c5-2.7,10.4-4.3,16.1-4.6
				c11.1-0.6,21.5,1.9,31.4,6.8c4,2,7.9,4.2,11.3,7.1c2.4,2,4.3,4.4,5.7,7.3c2.3,4.8,1.4,10.5-2.4,14.4
				C309.4-356.7,308.9-356.3,308.6-356z"/>
			<path class="st3" d="M308.6-347.9c-4.4,3.7-9.3,5.7-14.6,6.7c-3.1,0.6-6.3,0.7-9.5,0.8c-1.9,0.1-3.9,0.2-5.8,0.6
				c-3.2,0.6-5.4,2.4-6.3,5.5c-0.7,2.4-1.3,4.9-2,7.3c-1.5,5.7-4.7,10.2-9.5,13.7c-3.3,2.3-6.8,4-10.6,5.2
				c-8.3,2.6-16.7,3.1-25.3,1.5c-3.9-0.7-7.5-2.1-10.7-4.5c-2.8-2.2-4.5-5.1-4.9-8.6c-0.5-3.5,0.8-6.3,3.2-8.7
				c2.2-2.2,4.9-3.5,7.8-4.6c3.7-1.4,7.5-2.3,11.3-3.2c2-0.5,4-0.9,6-1.7c1.6-0.7,3-1.5,4.1-2.9c1.2-1.5,1.8-3.3,1.9-5.2
				c0.1-2,0-4-0.4-5.9c-0.4-2.5-1.1-4.9-1.7-7.3c-0.7-2.6-1.2-5.3-1.2-8c-0.1-5.7,2.4-9.9,7.3-12.6c5-2.7,10.4-4.3,16.1-4.6
				c11.1-0.6,21.5,1.9,31.4,6.8c4,2,7.9,4.2,11.3,7.1c2.4,2,4.3,4.4,5.7,7.3c2.3,4.8,1.4,10.5-2.4,14.4
				C309.4-348.6,308.9-348.2,308.6-347.9z"/>
			<path class="st2" d="M277.6-169.5c-3.9-0.1-8.1-0.9-12-2.4c-6.5-2.6-12.2-6.4-16.4-12.2c-2-2.8-3.4-6-4.7-9.2
				c-1.2-2.9-1.6-5.9-2-9c-0.6-4.7-0.4-9.4,0.8-13.9c0.9-3.3,2.2-6.4,4.2-9.2c4.2-6,10.9-8.4,17.9-6.2c5.6,1.8,9.9,5.2,12.6,10.4
				c0.8,1.6,1.2,3.3,1.7,5c0.9,3.5,1.7,6.9,3,10.3c0.8,1.8,1.8,3.5,3.2,4.9c1.6,1.6,3.6,2,5.7,1c1-0.5,2-1,2.9-1.7
				c1.8-1.3,3.8-2.1,5.9-2.7c2.8-0.7,5.1,0.1,7.2,1.8c3.8,3.4,5,7.7,3.5,12.5c-1.7,5.4-4.8,9.9-9.5,13.1c-5.4,3.8-11.3,6.3-17.9,7.1
				C281.8-169.5,279.9-169.3,277.6-169.5z"/>
			<path class="st3" d="M290.2-168.4c-3.9-0.1-8.1-0.9-12-2.4c-6.5-2.6-12.2-6.4-16.4-12.2c-2-2.8-3.4-6-4.7-9.2
				c-1.2-2.9-1.6-5.9-2-9c-0.6-4.7-0.4-9.4,0.8-13.9c0.9-3.3,2.2-6.4,4.2-9.2c4.2-6,10.9-8.4,17.9-6.2c5.6,1.8,9.9,5.2,12.6,10.4
				c0.8,1.6,1.2,3.3,1.7,5c0.9,3.5,1.7,6.9,3,10.3c0.8,1.8,1.8,3.5,3.2,4.9c1.6,1.6,3.6,2,5.7,1c1-0.5,2-1,2.9-1.7
				c1.8-1.3,3.8-2.1,5.9-2.7c2.8-0.7,5.1,0.1,7.2,1.8c3.8,3.4,5,7.7,3.5,12.5c-1.7,5.4-4.8,9.9-9.5,13.1c-5.4,3.8-11.3,6.3-17.9,7.1
				C294.4-168.4,292.5-168.2,290.2-168.4z"/>
			<path class="st2" d="M325.1-356.1c3.2-2.3,6.9-4.2,11-5.4c6.8-1.9,13.6-2.4,20.4-0.3c3.3,1,6.4,2.7,9.3,4.4
				c2.7,1.6,4.9,3.7,7,5.9c3.3,3.4,6,7.2,7.8,11.6c1.3,3.1,2.1,6.4,2.2,9.8c0.3,7.3-3.6,13.4-10.5,15.8c-5.5,2-11,1.8-16.4-0.6
				c-1.6-0.7-3-1.9-4.4-3c-2.8-2.2-5.5-4.5-8.6-6.3c-1.7-1-3.6-1.6-5.5-1.9c-2.2-0.3-4.1,0.6-5.1,2.6c-0.5,1-0.9,2-1.3,3.1
				c-0.7,2.1-1.7,4-3.1,5.7c-1.8,2.2-4.1,3.1-6.8,2.9c-5.1-0.4-8.6-3.1-10.4-7.8c-2-5.3-2.2-10.7-0.4-16.2c2-6.3,5.2-11.9,9.9-16.5
				C321.8-353.6,323.2-354.9,325.1-356.1z"/>
			<g>
				<path class="st1" d="M229.7-239c-1.9,0-3.4-1.6-3.4-3.4c0-1.8,1.6-3.4,3.4-3.4c1.9,0,3.5,1.6,3.4,3.5
					C233.1-240.5,231.5-239,229.7-239z"/>
				<path class="st1" d="M230.4-223.2c0,1.9-1.5,3.4-3.3,3.5c-1.9,0.1-3.5-1.5-3.5-3.5c0-1.9,1.5-3.4,3.4-3.4
					C228.8-226.6,230.3-225.1,230.4-223.2z"/>
				<path class="st1" d="M192.5-227.4c-0.1,1.8-1.7,3.3-3.5,3.3c-1.8-0.1-3.4-1.7-3.3-3.5c0.1-1.9,1.7-3.4,3.6-3.3
					C191.1-230.8,192.6-229.2,192.5-227.4z"/>
				<path class="st1" d="M203.5-230.9c-1.9,0-3.4-1.4-3.4-3.3c0-1.9,1.5-3.5,3.4-3.5c1.9,0,3.4,1.5,3.4,3.4
					C206.8-232.5,205.3-231,203.5-230.9z"/>
				<path class="st1" d="M260.4-229.1c0,1.9-1.5,3.4-3.4,3.4c-1.9,0-3.4-1.5-3.4-3.4c0-1.9,1.6-3.5,3.5-3.4
					C258.9-232.5,260.4-231,260.4-229.1z"/>
				<path class="st1" d="M211.9-207.5c-1.9,0-3.4-1.5-3.4-3.4c0-1.9,1.5-3.4,3.4-3.4c1.9,0,3.5,1.5,3.4,3.4
					C215.3-209,213.8-207.5,211.9-207.5z"/>
				<path class="st1" d="M215-195c0,1.9-1.5,3.4-3.4,3.4c-1.9,0-3.5-1.5-3.4-3.5c0-1.9,1.6-3.3,3.5-3.3
					C213.6-198.4,215-196.9,215-195z"/>
				<path class="st1" d="M239.9-234.2c0,1.9-1.5,3.4-3.4,3.4c-1.9,0-3.4-1.4-3.4-3.3c0-2,1.5-3.5,3.4-3.5
					C238.5-237.6,239.9-236.1,239.9-234.2z"/>
				<path class="st1" d="M192-209.1c0,1.9-1.5,3.4-3.4,3.3c-1.9,0-3.4-1.5-3.4-3.4c0-2,1.5-3.4,3.5-3.4
					C190.6-212.5,192-211,192-209.1z"/>
				<path class="st1" d="M237.9-257.4c0,1.9-1.5,3.4-3.4,3.3c-1.9,0-3.4-1.6-3.4-3.5c0.1-1.9,1.6-3.3,3.5-3.3
					C236.5-260.8,237.9-259.3,237.9-257.4z"/>
				<path class="st1" d="M246.9-252.1c1.7,0,3,1.4,3,3c0,1.7-1.8,3.4-3.5,3.3c-1.6,0-3-1.4-3-3.1C243.3-250.6,245-252.1,246.9-252.1
					z"/>
				<path class="st1" d="M223-184.2c0,1.8-1.7,3.5-3.4,3.5c-1.7,0-3-1.4-3-3.1c0-1.8,1.7-3.5,3.4-3.5
					C221.7-187.3,223.1-185.9,223-184.2z"/>
				<path class="st1" d="M228.7-200c0,1.9-1.3,3.4-3,3.4c-1.7,0-3-1.5-3-3.4c0-1.7,1.4-3,3-3C227.4-203,228.7-201.7,228.7-200z"/>
				<path class="st1" d="M208.7-251.2c0,1.9-1.1,3.3-2.8,3.3c-1.7,0.1-3.2-1.5-3.2-3.3c0-1.6,1.3-3,3-3.1
					C207.4-254.4,208.7-253,208.7-251.2z"/>
				<path class="st1" d="M212.7-228.1c0-1.8,1.2-3.2,3-3.2c1.7,0,3.1,1.3,3.1,3c0,1.7-1.6,3.4-3.3,3.3
					C213.8-225.1,212.7-226.4,212.7-228.1z"/>
				<path class="st1" d="M198.9-190.3c1.7,0,3,1.4,3,3.1c0,1.7-1.4,3-3,3c-1.7,0-3-1.4-3-3.1C195.9-189,197.2-190.3,198.9-190.3z"/>
				<path class="st1" d="M257.9-240.8c-1.7,0-3-1.3-3-3c0-1.7,1.3-3,3-3.1c1.6,0,3,1.4,3.1,3C260.9-242.1,259.6-240.8,257.9-240.8z"
					/>
				<path class="st1" d="M219.8-260.1c-1.7,0-3-1.4-2.9-3.1c0.1-1.7,1.5-3,3.1-2.9c1.7,0,3,1.4,2.9,3.1
					C222.9-261.3,221.5-260,219.8-260.1z"/>
				<path class="st1" d="M249.3-201.9c1.7,0,3,1.4,2.9,3.1c-0.1,1.6-1.5,3-3.1,2.9c-1.7-0.1-3-1.5-2.9-3.1
					C246.3-200.7,247.6-201.9,249.3-201.9z"/>
				<path class="st1" d="M243.8-216.8c-1.7,0-3-1.3-3.1-2.9c0-1.6,1.3-3,3-3.1c1.6,0,3,1.3,3.1,3
					C246.8-218.1,245.5-216.8,243.8-216.8z"/>
				<path class="st1" d="M233.8-214.3c1.7,0,3,1.3,3,3c0,1.7-1.4,3-3,3c-1.6,0-3-1.4-3-3C230.7-212.9,232.1-214.2,233.8-214.3z"/>
				<path class="st1" d="M200.4-216.2c-1.7,0-3-1.3-3-3c0-1.7,1.4-3,3-3c1.6,0,3,1.4,3,3C203.5-217.5,202.1-216.2,200.4-216.2z"/>
				<path class="st1" d="M237.3-198.1c1.7,0,3,1.3,3,3c0,1.6-1.4,3-3,3c-1.7,0-3-1.3-3-3C234.3-196.7,235.6-198,237.3-198.1z"/>
				<path class="st1" d="M196.2-200.4c0-1.7,1.4-3,3.1-2.9c1.6,0,2.9,1.4,2.9,3c0,1.7-1.4,3-3,3
					C197.5-197.3,196.2-198.7,196.2-200.4z"/>
				<path class="st1" d="M253.7-204.9c-1.7,0-3-1.4-3-3c0-1.6,1.4-3,3.1-3c1.6,0,2.9,1.3,2.9,3C256.6-206.3,255.3-205,253.7-204.9z"
					/>
				<path class="st1" d="M215.3-238.1c-1.7,0-3-1.3-3-3c0-1.7,1.4-3,3-3c1.7,0,3,1.4,3,3.1C218.3-239.4,217-238.1,215.3-238.1z"/>
				<path class="st1" d="M221.8-248c-1.6,0-2.9-1.3-3-2.9c0-1.7,1.4-3,3-3c1.7,0,3,1.4,3,3.1C224.8-249.2,223.5-247.9,221.8-248z"/>
				<path class="st1" d="M248-237.4c1.6,0,2.9,1.2,2.9,2.8c0,1.6-1.2,2.9-2.8,2.9c-1.6,0-2.9-1.2-2.9-2.8
					C245.1-236,246.4-237.3,248-237.4z"/>
			</g>
			<g>
				<path class="st1" d="M334-300.6c0.1-1.5,1.5-2.7,3-2.5c1.5,0.1,2.7,1.5,2.6,3c-0.1,1.5-1.5,2.8-3.1,2.6
					C334.9-297.7,333.8-299.1,334-300.6z"/>
				<path class="st1" d="M321-301c-1.5-0.1-2.7-1.4-2.6-2.9c0.1-1.5,1.5-2.8,3-2.6c1.5,0.1,2.7,1.4,2.6,3
					C323.8-302,322.5-300.9,321-301z"/>
				<path class="st1" d="M326.6-331.7c-1.5-0.2-2.6-1.6-2.5-3.1c0.2-1.5,1.6-2.6,3.1-2.5c1.6,0.2,2.7,1.6,2.5,3.1
					C329.5-332.6,328.1-331.5,326.6-331.7z"/>
				<path class="st1" d="M328.9-322.5c0.1-1.5,1.4-2.7,2.9-2.6c1.6,0.1,2.8,1.4,2.6,3c-0.1,1.5-1.5,2.7-3,2.6
					C329.9-319.7,328.8-321,328.9-322.5z"/>
				<path class="st1" d="M324-276.1c-1.5-0.1-2.7-1.5-2.5-3c0.1-1.5,1.4-2.7,3-2.6c1.6,0.1,2.8,1.5,2.6,3.1
					C326.9-277.1,325.5-275.9,324-276.1z"/>
				<path class="st1" d="M309.2-317c0.1-1.5,1.4-2.7,3-2.6c1.5,0.1,2.7,1.4,2.6,3c-0.1,1.6-1.4,2.8-3,2.6
					C310.2-314.2,309.1-315.5,309.2-317z"/>
				<path class="st1" d="M298.8-315.2c-1.5-0.1-2.7-1.4-2.6-3c0.1-1.6,1.5-2.8,3-2.6c1.5,0.1,2.6,1.5,2.5,3
					C301.6-316.2,300.3-315.1,298.8-315.2z"/>
				<path class="st1" d="M329.4-292.5c-1.5-0.1-2.7-1.4-2.6-2.9c0.1-1.5,1.4-2.7,2.9-2.6c1.6,0.1,2.8,1.4,2.6,3
					C332.3-293.5,331-292.4,329.4-292.5z"/>
				<path class="st1" d="M311.7-333.2c-1.5-0.1-2.7-1.4-2.5-3c0.1-1.5,1.4-2.7,3-2.6c1.6,0.1,2.7,1.4,2.6,3
					C314.5-334.2,313.2-333.1,311.7-333.2z"/>
				<path class="st1" d="M348.5-292.8c-1.5-0.1-2.7-1.4-2.5-3c0.1-1.6,1.5-2.7,3.1-2.6c1.5,0.2,2.6,1.5,2.5,3
					C351.4-293.8,350-292.6,348.5-292.8z"/>
				<path class="st1" d="M343.6-285.8c-0.1,1.4-1.3,2.4-2.7,2.3c-1.4-0.1-2.6-1.7-2.5-3.1c0.1-1.3,1.3-2.4,2.7-2.3
					C342.6-288.7,343.7-287.3,343.6-285.8z"/>
				<path class="st1" d="M289.5-309.3c-1.5-0.1-2.8-1.6-2.6-3c0.1-1.4,1.3-2.4,2.7-2.2c1.5,0.1,2.8,1.6,2.6,3
					C292-310.2,290.8-309.2,289.5-309.3z"/>
				<path class="st1" d="M302-303.7c-1.6-0.1-2.7-1.3-2.6-2.7c0.1-1.4,1.4-2.4,3-2.3c1.4,0.1,2.4,1.3,2.3,2.7
					C304.6-304.6,303.4-303.6,302-303.7z"/>
				<path class="st1" d="M345.2-317c-1.6-0.1-2.6-1.1-2.6-2.5c0.1-1.4,1.4-2.5,2.9-2.5c1.3,0.1,2.4,1.3,2.3,2.6
					C347.8-318,346.6-316.9,345.2-317z"/>
				<path class="st1" d="M326-315.2c1.5,0.1,2.5,1.2,2.5,2.6c-0.1,1.4-1.3,2.4-2.6,2.4c-1.4-0.1-2.7-1.5-2.5-2.9
					C323.5-314.4,324.6-315.3,326-315.2z"/>
				<path class="st1" d="M295.8-328.7c-0.1,1.4-1.3,2.4-2.7,2.2c-1.4-0.1-2.4-1.3-2.3-2.7c0.1-1.4,1.3-2.4,2.7-2.2
					C295-331.2,296-330,295.8-328.7z"/>
				<path class="st1" d="M333.7-277.4c0.1-1.4,1.2-2.4,2.6-2.3c1.4,0.1,2.4,1.3,2.3,2.6c-0.1,1.3-1.3,2.4-2.6,2.3
					C334.6-274.8,333.6-276,333.7-277.4z"/>
				<path class="st1" d="M351.8-307.4c0.1-1.4,1.3-2.4,2.7-2.2c1.4,0.1,2.4,1.4,2.2,2.7c-0.1,1.4-1.3,2.3-2.7,2.2
					C352.6-304.9,351.6-306,351.8-307.4z"/>
				<path class="st1" d="M302.4-286.7c-0.1,1.4-1.4,2.4-2.7,2.2c-1.3-0.2-2.4-1.4-2.2-2.7c0.2-1.4,1.4-2.3,2.7-2.2
					C301.5-289.3,302.5-288.1,302.4-286.7z"/>
				<path class="st1" d="M314.9-290.3c0.1-1.4,1.2-2.4,2.6-2.3c1.3,0.1,2.4,1.3,2.3,2.6c-0.1,1.3-1.3,2.4-2.6,2.3
					C315.8-287.8,314.8-289,314.9-290.3z"/>
				<path class="st1" d="M313.4-298.7c-0.1,1.4-1.2,2.4-2.6,2.3c-1.4-0.1-2.4-1.3-2.3-2.6c0.1-1.3,1.3-2.4,2.7-2.3
					C312.5-301.3,313.5-300.1,313.4-298.7z"/>
				<path class="st1" d="M317-325.9c0.1-1.4,1.3-2.4,2.6-2.3c1.4,0.1,2.4,1.3,2.3,2.7c-0.1,1.3-1.3,2.4-2.7,2.3
					C317.9-323.3,316.9-324.5,317-325.9z"/>
				<path class="st1" d="M299.9-296.8c-0.1,1.4-1.3,2.4-2.6,2.3c-1.3-0.1-2.4-1.3-2.3-2.6c0.1-1.4,1.3-2.4,2.6-2.3
					C299-299.3,300-298.1,299.9-296.8z"/>
				<path class="st1" d="M304.3-330.3c1.4,0.1,2.4,1.3,2.2,2.7c-0.1,1.3-1.3,2.3-2.6,2.2c-1.4-0.1-2.4-1.3-2.3-2.7
					C301.7-329.4,302.9-330.4,304.3-330.3z"/>
				<path class="st1" d="M304.6-283c0.1-1.4,1.3-2.4,2.6-2.3c1.3,0.1,2.4,1.3,2.3,2.7c-0.1,1.3-1.3,2.3-2.6,2.2
					C305.6-280.5,304.5-281.6,304.6-283z"/>
				<path class="st1" d="M334.1-312.4c0.1-1.4,1.3-2.4,2.7-2.3c1.4,0.1,2.4,1.3,2.3,2.7c-0.1,1.4-1.3,2.4-2.7,2.3
					C334.9-309.9,333.9-311,334.1-312.4z"/>
				<path class="st1" d="M341.7-306.5c0.1-1.3,1.2-2.3,2.6-2.3c1.4,0.1,2.4,1.3,2.3,2.6c-0.1,1.4-1.3,2.4-2.7,2.2
					C342.6-304,341.6-305.1,341.7-306.5z"/>
				<path class="st1" d="M331.5-285.7c-0.1,1.3-1.1,2.3-2.4,2.2c-1.3-0.1-2.3-1.2-2.2-2.4c0.1-1.3,1.2-2.3,2.5-2.2
					C330.6-288.1,331.6-287,331.5-285.7z"/>
			</g>
			<g>
				<path class="st1" d="M197.4-357c0.1-1.5,1.5-2.7,3-2.5c1.5,0.1,2.7,1.5,2.6,3c-0.1,1.5-1.5,2.8-3.1,2.6
					C198.4-354.1,197.3-355.5,197.4-357z"/>
				<path class="st1" d="M184.5-357.3c-1.5-0.1-2.7-1.4-2.6-2.9c0.1-1.5,1.5-2.8,3-2.6c1.5,0.1,2.7,1.4,2.6,3
					C187.3-358.4,186-357.3,184.5-357.3z"/>
				<path class="st1" d="M190.1-388.1c-1.5-0.2-2.6-1.6-2.5-3.1c0.2-1.5,1.6-2.6,3.1-2.5c1.6,0.2,2.7,1.6,2.5,3.1
					C193-389,191.6-387.9,190.1-388.1z"/>
				<path class="st1" d="M192.3-378.9c0.1-1.5,1.4-2.7,2.9-2.6c1.6,0.1,2.8,1.4,2.6,3c-0.1,1.5-1.5,2.7-3,2.6
					C193.4-376.1,192.3-377.4,192.3-378.9z"/>
				<path class="st1" d="M187.5-332.4c-1.5-0.1-2.7-1.5-2.5-3c0.1-1.5,1.4-2.7,2.9-2.6c1.6,0.1,2.8,1.5,2.6,3.1
					C190.3-333.4,189-332.3,187.5-332.4z"/>
				<path class="st1" d="M172.7-373.4c0.1-1.5,1.4-2.7,3-2.6c1.5,0.1,2.7,1.4,2.6,3c-0.1,1.6-1.4,2.8-3,2.6
					C173.7-370.5,172.6-371.8,172.7-373.4z"/>
				<path class="st1" d="M162.3-371.6c-1.5-0.1-2.7-1.4-2.6-3c0.1-1.6,1.5-2.8,3-2.6c1.5,0.1,2.6,1.5,2.5,3
					C165.1-372.6,163.8-371.4,162.3-371.6z"/>
				<path class="st1" d="M192.9-348.9c-1.5-0.1-2.7-1.4-2.6-2.9c0.1-1.5,1.4-2.7,2.9-2.6c1.6,0.1,2.8,1.4,2.6,3
					C195.7-349.9,194.4-348.7,192.9-348.9z"/>
				<path class="st1" d="M175.1-389.6c-1.5-0.1-2.7-1.4-2.5-3c0.1-1.5,1.4-2.7,3-2.6c1.6,0.1,2.7,1.4,2.6,3
					C178-390.5,176.7-389.4,175.1-389.6z"/>
				<path class="st1" d="M212-349.1c-1.5-0.1-2.7-1.4-2.5-3c0.1-1.6,1.5-2.7,3.1-2.6c1.5,0.2,2.6,1.5,2.5,3
					C214.8-350.1,213.5-349,212-349.1z"/>
				<path class="st1" d="M207.1-342.1c-0.1,1.4-1.3,2.4-2.7,2.3c-1.4-0.1-2.6-1.7-2.5-3.1c0.1-1.3,1.3-2.4,2.7-2.3
					C206.1-345.1,207.2-343.7,207.1-342.1z"/>
				<path class="st1" d="M152.9-365.7c-1.5-0.1-2.8-1.6-2.6-3c0.1-1.4,1.3-2.4,2.7-2.2c1.5,0.1,2.8,1.6,2.6,3
					C155.5-366.6,154.3-365.5,152.9-365.7z"/>
				<path class="st1" d="M165.5-360.1c-1.6-0.1-2.7-1.3-2.6-2.7c0.1-1.4,1.4-2.4,3-2.3c1.4,0.1,2.4,1.3,2.3,2.7
					C168.1-361,166.9-360,165.5-360.1z"/>
				<path class="st1" d="M208.7-373.4c-1.6-0.1-2.6-1.1-2.6-2.5c0.1-1.4,1.4-2.5,2.9-2.5c1.3,0.1,2.4,1.3,2.3,2.6
					C211.3-374.3,210.1-373.3,208.7-373.4z"/>
				<path class="st1" d="M189.5-371.5c1.5,0.1,2.5,1.2,2.5,2.6c-0.1,1.4-1.3,2.4-2.6,2.4c-1.4-0.1-2.7-1.5-2.5-2.9
					C187-370.8,188.1-371.7,189.5-371.5z"/>
				<path class="st1" d="M159.3-385.1c-0.1,1.4-1.3,2.4-2.7,2.2c-1.4-0.1-2.4-1.3-2.3-2.7c0.1-1.4,1.3-2.4,2.7-2.2
					C158.4-387.6,159.4-386.4,159.3-385.1z"/>
				<path class="st1" d="M197.2-333.8c0.1-1.4,1.2-2.4,2.6-2.3c1.4,0.1,2.4,1.3,2.3,2.6c-0.1,1.3-1.3,2.4-2.6,2.3
					C198.1-331.2,197.1-332.4,197.2-333.8z"/>
				<path class="st1" d="M215.2-363.8c0.1-1.4,1.3-2.4,2.7-2.2c1.4,0.1,2.4,1.4,2.2,2.7c-0.1,1.4-1.3,2.3-2.7,2.2
					C216.1-361.2,215.1-362.4,215.2-363.8z"/>
				<path class="st1" d="M165.8-343.1c-0.1,1.4-1.4,2.4-2.7,2.2c-1.3-0.2-2.4-1.4-2.2-2.7c0.2-1.4,1.4-2.3,2.7-2.2
					C165-345.7,166-344.5,165.8-343.1z"/>
				<path class="st1" d="M178.4-346.7c0.1-1.4,1.2-2.4,2.6-2.3c1.3,0.1,2.4,1.3,2.3,2.6c-0.1,1.3-1.3,2.4-2.6,2.3
					C179.3-344.2,178.3-345.3,178.4-346.7z"/>
				<path class="st1" d="M176.9-355.1c-0.1,1.4-1.2,2.4-2.6,2.3c-1.4-0.1-2.4-1.3-2.3-2.6c0.1-1.3,1.3-2.4,2.7-2.3
					C176-357.6,177-356.5,176.9-355.1z"/>
				<path class="st1" d="M180.5-382.3c0.1-1.4,1.3-2.4,2.6-2.3c1.4,0.1,2.4,1.3,2.3,2.7c-0.1,1.3-1.3,2.4-2.7,2.3
					C181.4-379.7,180.4-380.9,180.5-382.3z"/>
				<path class="st1" d="M163.4-353.2c-0.1,1.4-1.3,2.4-2.6,2.3c-1.3-0.1-2.4-1.3-2.3-2.6c0.1-1.4,1.3-2.4,2.6-2.3
					C162.5-355.7,163.5-354.5,163.4-353.2z"/>
				<path class="st1" d="M167.8-386.6c1.4,0.1,2.4,1.3,2.2,2.7c-0.1,1.3-1.3,2.3-2.6,2.2c-1.4-0.1-2.4-1.3-2.3-2.7
					C165.2-385.8,166.4-386.8,167.8-386.6z"/>
				<path class="st1" d="M168.1-339.4c0.1-1.4,1.3-2.4,2.6-2.3c1.3,0.1,2.4,1.3,2.3,2.7c-0.1,1.3-1.3,2.3-2.6,2.2
					C169-336.8,168-338,168.1-339.4z"/>
				<path class="st1" d="M197.5-368.8c0.1-1.4,1.3-2.4,2.7-2.3c1.4,0.1,2.4,1.3,2.3,2.7c-0.1,1.4-1.3,2.4-2.7,2.3
					C198.4-366.2,197.4-367.4,197.5-368.8z"/>
				<path class="st1" d="M205.2-362.9c0.1-1.3,1.2-2.3,2.6-2.3c1.4,0.1,2.4,1.3,2.3,2.6c-0.1,1.4-1.3,2.4-2.7,2.2
					C206-360.4,205.1-361.5,205.2-362.9z"/>
				<path class="st1" d="M195-342.1c-0.1,1.3-1.1,2.3-2.4,2.2c-1.3-0.1-2.3-1.2-2.2-2.4c0.1-1.3,1.2-2.3,2.5-2.2
					C194.1-344.5,195-343.4,195-342.1z"/>
			</g>
		</g>
		<g>
			<path class="st1" d="M159.9-306.6c2.2,0.2,4.3,0.7,6.4,1.4c2.6,0.9,5.3,1.7,7.8,2.6c8.2,3,14.4,7.9,19.1,14.4
				c2.5,3.4,4.1,7.1,5.4,10.8c1.1,3,1.2,6.1,0.3,9.1c-1.3,4.4-2.9,8.6-6.1,12.3c-1.9,2.1-4.2,3.9-7,5.1c-2.7,1.1-5.5,2-8.4,2.8
				c-1.4,0.4-2.8,0.8-4.2,1.3c-2.7,1-4.7,2.6-6.1,4.8c-0.7,1.2-0.8,2.5-0.3,3.8c0.6,1.7,1.7,3.2,3.2,4.4c1.1,0.9,2.3,1.7,3.6,2.4
				c2.1,1.2,4.2,2.3,6.3,3.6c3.6,2.2,6.1,5,7.5,8.6c2.3,6,0.5,11.2-4.5,15.4c-5.1,4.4-12.5,4.7-18.7,2.1c-4.9-2-8.1-5.3-9.3-9.8
				c-0.1-0.5-0.3-1.1-0.4-1.6c-0.3-1.4-1.2-2.4-2.5-3.2c-2.1-1.3-4.4-2-6.9-2.4c-4-0.7-8.1-0.9-12.2-1.1c-4.2-0.3-8.4-0.6-12.4-2.1
				c-6.8-2.5-10.9-6.8-11.6-13.2c-0.4-4,1.2-7.5,4.1-10.4c1.7-1.7,3.8-3,6.1-4.1c3.3-1.5,6.7-2.7,10.3-3.6c2.5-0.6,4.9-1.4,7.3-2.2
				c1.2-0.4,2.3-0.9,3.5-1.4c2.9-1.4,4-3.6,3.6-6.4c-0.2-1.7-0.8-3.3-1.7-4.9c-1-1.8-2.3-3.5-3.7-5.1c-1.7-1.9-3.2-3.9-4.8-5.9
				c-2.7-3.5-3.9-7.3-3.7-11.4c0.2-3.6,1.8-6.7,4.5-9.3c2.7-2.6,6.1-4.3,9.9-5.4C149.4-306.8,154.5-307.2,159.9-306.6z"/>
			<path class="st2" d="M0-270.2c0-1.9,0.2-3.8,0.6-5.6c0.6-2.3,1-4.6,1.7-6.9c2-7.3,6.2-13.1,12-17.7c3.1-2.4,6.5-4.2,10.1-5.7
				c2.9-1.2,5.9-1.7,9-1.2c4.5,0.6,8.9,1.6,12.9,4c2.3,1.4,4.3,3.1,5.9,5.4c1.5,2.2,2.6,4.5,3.8,6.8c0.6,1.2,1.2,2.3,1.8,3.5
				c1.3,2.2,3.1,3.8,5.5,4.7c1.3,0.5,2.6,0.4,3.8-0.1c1.6-0.7,3-1.8,4-3.2c0.8-1,1.4-2.1,1.9-3.3c0.9-1.9,1.8-3.8,2.8-5.7
				c1.7-3.3,4.3-5.7,7.6-7.2c5.7-2.6,11-1.5,15.9,2.2c5,3.9,6.2,10.1,4.3,15.7c-1.4,4.4-4.3,7.4-8.7,8.9c-0.5,0.2-1,0.4-1.5,0.5
				c-1.3,0.4-2.3,1.2-2.9,2.4c-1.1,1.9-1.5,4-1.6,6.1c-0.2,3.5,0.1,7,0.3,10.5c0.2,3.6,0.4,7.2-0.6,10.8c-1.7,6-5.5,10-11.7,11.2
				c-3.9,0.8-7.5-0.2-10.8-2.5c-1.9-1.3-3.5-2.9-4.8-4.7c-1.9-2.6-3.5-5.4-4.8-8.4c-0.9-2-1.9-4-3-6c-0.5-1-1.2-1.9-1.8-2.8
				c-1.8-2.3-4-3-6.8-2.4c-1.7,0.4-3.2,1-4.6,1.9c-1.7,1.1-3.2,2.3-4.6,3.7c-1.7,1.6-3.5,3.2-5.3,4.7c-3.1,2.7-6.8,4-10.8,4.3
				c-3.6,0.2-6.8-0.8-9.7-2.9c-2.9-2.1-5-4.8-6.6-7.9C1.1-261.2,0-265.6,0-270.2z"/>
			<path class="st1" d="M154.3-306.6c2.2,0.2,4.3,0.7,6.4,1.4c2.6,0.9,5.3,1.7,7.8,2.6c8.2,3,14.4,7.9,19.1,14.4
				c2.5,3.4,4.1,7.1,5.4,10.8c1.1,3,1.2,6.1,0.3,9.1c-1.3,4.4-2.9,8.6-6.1,12.3c-1.9,2.1-4.2,3.9-7,5.1c-2.7,1.1-5.5,2-8.4,2.8
				c-1.4,0.4-2.8,0.8-4.2,1.3c-2.7,1-4.7,2.6-6.1,4.8c-0.7,1.2-0.8,2.5-0.3,3.8c0.6,1.7,1.7,3.2,3.2,4.4c1.1,0.9,2.3,1.7,3.6,2.4
				c2.1,1.2,4.2,2.3,6.3,3.6c3.6,2.2,6.1,5,7.5,8.6c2.3,6,0.5,11.2-4.5,15.4c-5.1,4.4-12.5,4.7-18.7,2.1c-4.9-2-8.1-5.3-9.3-9.8
				c-0.1-0.5-0.3-1.1-0.4-1.6c-0.3-1.4-1.2-2.4-2.5-3.2c-2.1-1.3-4.4-2-6.9-2.4c-4-0.7-8.1-0.9-12.2-1.1c-4.2-0.3-8.4-0.6-12.4-2.1
				c-6.8-2.5-10.9-6.8-11.6-13.2c-0.4-4,1.2-7.5,4.1-10.4c1.7-1.7,3.8-3,6.1-4.1c3.3-1.5,6.7-2.7,10.3-3.6c2.5-0.6,4.9-1.4,7.3-2.2
				c1.2-0.4,2.3-0.9,3.5-1.4c2.9-1.4,4-3.6,3.6-6.4c-0.2-1.7-0.8-3.3-1.7-4.9c-1-1.8-2.3-3.5-3.7-5.1c-1.7-1.9-3.2-3.9-4.8-5.9
				c-2.7-3.5-3.9-7.3-3.7-11.4c0.2-3.6,1.8-6.7,4.5-9.3c2.7-2.6,6.1-4.3,9.9-5.4C143.7-306.8,148.9-307.2,154.3-306.6z"/>
			<path class="st1" d="M108.6-356c-4.4,3.7-9.3,5.7-14.6,6.7c-3.1,0.6-6.3,0.7-9.5,0.8c-1.9,0.1-3.9,0.2-5.8,0.6
				c-3.2,0.6-5.4,2.4-6.3,5.5c-0.7,2.4-1.3,4.9-2,7.3c-1.5,5.7-4.7,10.2-9.5,13.7c-3.3,2.3-6.8,4-10.6,5.2
				c-8.3,2.6-16.7,3.1-25.3,1.5c-3.9-0.7-7.5-2.1-10.7-4.5c-2.8-2.2-4.5-5.1-4.9-8.6c-0.5-3.5,0.8-6.3,3.2-8.7
				c2.2-2.2,4.9-3.5,7.8-4.6c3.7-1.4,7.5-2.3,11.3-3.2c2-0.5,4-0.9,6-1.7c1.6-0.7,3-1.5,4.1-2.9c1.2-1.5,1.8-3.3,1.9-5.2
				c0.1-2,0-4-0.4-5.9c-0.4-2.5-1.1-4.9-1.7-7.3c-0.7-2.6-1.2-5.3-1.2-8c-0.1-5.7,2.4-9.9,7.3-12.6c5-2.7,10.4-4.3,16.1-4.6
				c11.1-0.6,21.5,1.9,31.4,6.8c4,2,7.9,4.2,11.3,7.1c2.4,2,4.3,4.4,5.7,7.3c2.3,4.8,1.4,10.5-2.4,14.4
				C109.4-356.7,108.9-356.3,108.6-356z"/>
			<path class="st3" d="M108.6-347.9c-4.4,3.7-9.3,5.7-14.6,6.7c-3.1,0.6-6.3,0.7-9.5,0.8c-1.9,0.1-3.9,0.2-5.8,0.6
				c-3.2,0.6-5.4,2.4-6.3,5.5c-0.7,2.4-1.3,4.9-2,7.3c-1.5,5.7-4.7,10.2-9.5,13.7c-3.3,2.3-6.8,4-10.6,5.2
				c-8.3,2.6-16.7,3.1-25.3,1.5c-3.9-0.7-7.5-2.1-10.7-4.5c-2.8-2.2-4.5-5.1-4.9-8.6c-0.5-3.5,0.8-6.3,3.2-8.7
				c2.2-2.2,4.9-3.5,7.8-4.6c3.7-1.4,7.5-2.3,11.3-3.2c2-0.5,4-0.9,6-1.7c1.6-0.7,3-1.5,4.1-2.9c1.2-1.5,1.8-3.3,1.9-5.2
				c0.1-2,0-4-0.4-5.9c-0.4-2.5-1.1-4.9-1.7-7.3c-0.7-2.6-1.2-5.3-1.2-8c-0.1-5.7,2.4-9.9,7.3-12.6c5-2.7,10.4-4.3,16.1-4.6
				c11.1-0.6,21.5,1.9,31.4,6.8c4,2,7.9,4.2,11.3,7.1c2.4,2,4.3,4.4,5.7,7.3c2.3,4.8,1.4,10.5-2.4,14.4
				C109.4-348.6,108.9-348.2,108.6-347.9z"/>
			<path class="st2" d="M77.6-169.5c-3.9-0.1-8.1-0.9-12-2.4c-6.5-2.6-12.2-6.4-16.4-12.2c-2-2.8-3.4-6-4.7-9.2
				c-1.2-2.9-1.6-5.9-2-9c-0.6-4.7-0.4-9.4,0.8-13.9c0.9-3.3,2.2-6.4,4.2-9.2c4.2-6,10.9-8.4,17.9-6.2c5.6,1.8,9.9,5.2,12.6,10.4
				c0.8,1.6,1.2,3.3,1.7,5c0.9,3.5,1.7,6.9,3,10.3c0.8,1.8,1.8,3.5,3.2,4.9c1.6,1.6,3.6,2,5.7,1c1-0.5,2-1,2.9-1.7
				c1.8-1.3,3.8-2.1,5.9-2.7c2.8-0.7,5.1,0.1,7.2,1.8c3.8,3.4,5,7.7,3.5,12.5c-1.7,5.4-4.8,9.9-9.5,13.1c-5.4,3.8-11.3,6.3-17.9,7.1
				C81.8-169.5,79.9-169.3,77.6-169.5z"/>
			<path class="st3" d="M90.2-168.4c-3.9-0.1-8.1-0.9-12-2.4c-6.5-2.6-12.2-6.4-16.4-12.2c-2-2.8-3.4-6-4.7-9.2
				c-1.2-2.9-1.6-5.9-2-9c-0.6-4.7-0.4-9.4,0.8-13.9c0.9-3.3,2.2-6.4,4.2-9.2c4.2-6,10.9-8.4,17.9-6.2c5.6,1.8,9.9,5.2,12.6,10.4
				c0.8,1.6,1.2,3.3,1.7,5c0.9,3.5,1.7,6.9,3,10.3c0.8,1.8,1.8,3.5,3.2,4.9c1.6,1.6,3.6,2,5.7,1c1-0.5,2-1,2.9-1.7
				c1.8-1.3,3.8-2.1,5.9-2.7c2.8-0.7,5.1,0.1,7.2,1.8c3.8,3.4,5,7.7,3.5,12.5c-1.7,5.4-4.8,9.9-9.5,13.1c-5.4,3.8-11.3,6.3-17.9,7.1
				C94.4-168.4,92.5-168.2,90.2-168.4z"/>
			<path class="st2" d="M125.1-356.1c3.2-2.3,6.9-4.2,11-5.4c6.8-1.9,13.6-2.4,20.4-0.3c3.3,1,6.4,2.7,9.3,4.4
				c2.7,1.6,4.9,3.7,7,5.9c3.3,3.4,6,7.2,7.8,11.6c1.3,3.1,2.1,6.4,2.2,9.8c0.3,7.3-3.6,13.4-10.5,15.8c-5.5,2-11,1.8-16.4-0.6
				c-1.6-0.7-3-1.9-4.4-3c-2.8-2.2-5.5-4.5-8.6-6.3c-1.7-1-3.6-1.6-5.5-1.9c-2.2-0.3-4.1,0.6-5.1,2.6c-0.5,1-0.9,2-1.3,3.1
				c-0.7,2.1-1.7,4-3.1,5.7c-1.8,2.2-4.1,3.1-6.8,2.9c-5.1-0.4-8.6-3.1-10.4-7.8c-2-5.3-2.2-10.7-0.4-16.2c2-6.3,5.2-11.9,9.9-16.5
				C121.8-353.6,123.2-354.9,125.1-356.1z"/>
			<g>
				<path class="st1" d="M134-300.6c0.1-1.5,1.5-2.7,3-2.5c1.5,0.1,2.7,1.5,2.6,3c-0.1,1.5-1.5,2.8-3.1,2.6
					C134.9-297.7,133.8-299.1,134-300.6z"/>
				<path class="st1" d="M121-301c-1.5-0.1-2.7-1.4-2.6-2.9c0.1-1.5,1.5-2.8,3-2.6c1.5,0.1,2.7,1.4,2.6,3
					C123.8-302,122.5-300.9,121-301z"/>
				<path class="st1" d="M126.6-331.7c-1.5-0.2-2.6-1.6-2.5-3.1c0.2-1.5,1.6-2.6,3.1-2.5c1.6,0.2,2.7,1.6,2.5,3.1
					C129.5-332.6,128.1-331.5,126.6-331.7z"/>
				<path class="st1" d="M128.9-322.5c0.1-1.5,1.4-2.7,2.9-2.6c1.6,0.1,2.8,1.4,2.6,3c-0.1,1.5-1.5,2.7-3,2.6
					C129.9-319.7,128.8-321,128.9-322.5z"/>
				<path class="st1" d="M124-276.1c-1.5-0.1-2.7-1.5-2.5-3c0.1-1.5,1.4-2.7,3-2.6c1.6,0.1,2.8,1.5,2.6,3.1
					C126.9-277.1,125.5-275.9,124-276.1z"/>
				<path class="st1" d="M109.2-317c0.1-1.5,1.4-2.7,3-2.6c1.5,0.1,2.7,1.4,2.6,3c-0.1,1.6-1.4,2.8-3,2.6
					C110.2-314.2,109.1-315.5,109.2-317z"/>
				<path class="st1" d="M98.8-315.2c-1.5-0.1-2.7-1.4-2.6-3c0.1-1.6,1.5-2.8,3-2.6c1.5,0.1,2.6,1.5,2.5,3
					C101.6-316.2,100.3-315.1,98.8-315.2z"/>
				<path class="st1" d="M129.4-292.5c-1.5-0.1-2.7-1.4-2.6-2.9c0.1-1.5,1.4-2.7,2.9-2.6c1.6,0.1,2.8,1.4,2.6,3
					C132.3-293.5,131-292.4,129.4-292.5z"/>
				<path class="st1" d="M111.7-333.2c-1.5-0.1-2.7-1.4-2.5-3c0.1-1.5,1.4-2.7,3-2.6c1.6,0.1,2.7,1.4,2.6,3
					C114.5-334.2,113.2-333.1,111.7-333.2z"/>
				<path class="st1" d="M148.5-292.8c-1.5-0.1-2.7-1.4-2.5-3c0.1-1.6,1.5-2.7,3.1-2.6c1.5,0.2,2.6,1.5,2.5,3
					C151.4-293.8,150-292.6,148.5-292.8z"/>
				<path class="st1" d="M143.6-285.8c-0.1,1.4-1.3,2.4-2.7,2.3c-1.4-0.1-2.6-1.7-2.5-3.1c0.1-1.3,1.3-2.4,2.7-2.3
					C142.6-288.7,143.7-287.3,143.6-285.8z"/>
				<path class="st1" d="M89.5-309.3c-1.5-0.1-2.8-1.6-2.6-3c0.1-1.4,1.3-2.4,2.7-2.2c1.5,0.1,2.8,1.6,2.6,3
					C92-310.2,90.8-309.2,89.5-309.3z"/>
				<path class="st1" d="M102-303.7c-1.6-0.1-2.7-1.3-2.6-2.7c0.1-1.4,1.4-2.4,3-2.3c1.4,0.1,2.4,1.3,2.3,2.7
					C104.6-304.6,103.4-303.6,102-303.7z"/>
				<path class="st1" d="M145.2-317c-1.6-0.1-2.6-1.1-2.6-2.5c0.1-1.4,1.4-2.5,2.9-2.5c1.3,0.1,2.4,1.3,2.3,2.6
					C147.8-318,146.6-316.9,145.2-317z"/>
				<path class="st1" d="M126-315.2c1.5,0.1,2.5,1.2,2.5,2.6c-0.1,1.4-1.3,2.4-2.6,2.4c-1.4-0.1-2.7-1.5-2.5-2.9
					C123.5-314.4,124.6-315.3,126-315.2z"/>
				<path class="st1" d="M95.8-328.7c-0.1,1.4-1.3,2.4-2.7,2.2c-1.4-0.1-2.4-1.3-2.3-2.7c0.1-1.4,1.3-2.4,2.7-2.2
					C95-331.2,96-330,95.8-328.7z"/>
				<path class="st1" d="M133.7-277.4c0.1-1.4,1.2-2.4,2.6-2.3c1.4,0.1,2.4,1.3,2.3,2.6c-0.1,1.3-1.3,2.4-2.6,2.3
					C134.6-274.8,133.6-276,133.7-277.4z"/>
				<path class="st1" d="M151.8-307.4c0.1-1.4,1.3-2.4,2.7-2.2c1.4,0.1,2.4,1.4,2.2,2.7c-0.1,1.4-1.3,2.3-2.7,2.2
					C152.6-304.9,151.6-306,151.8-307.4z"/>
				<path class="st1" d="M102.4-286.7c-0.1,1.4-1.4,2.4-2.7,2.2c-1.3-0.2-2.4-1.4-2.2-2.7c0.2-1.4,1.4-2.3,2.7-2.2
					C101.5-289.3,102.5-288.1,102.4-286.7z"/>
				<path class="st1" d="M114.9-290.3c0.1-1.4,1.2-2.4,2.6-2.3c1.3,0.1,2.4,1.3,2.3,2.6c-0.1,1.3-1.3,2.4-2.6,2.3
					C115.8-287.8,114.8-289,114.9-290.3z"/>
				<path class="st1" d="M113.4-298.7c-0.1,1.4-1.2,2.4-2.6,2.3c-1.4-0.1-2.4-1.3-2.3-2.6c0.1-1.3,1.3-2.4,2.7-2.3
					C112.5-301.3,113.5-300.1,113.4-298.7z"/>
				<path class="st1" d="M117-325.9c0.1-1.4,1.3-2.4,2.6-2.3c1.4,0.1,2.4,1.3,2.3,2.7c-0.1,1.3-1.3,2.4-2.7,2.3
					C117.9-323.3,116.9-324.5,117-325.9z"/>
				<path class="st1" d="M99.9-296.8c-0.1,1.4-1.3,2.4-2.6,2.3c-1.3-0.1-2.4-1.3-2.3-2.6c0.1-1.4,1.3-2.4,2.6-2.3
					C99-299.3,100-298.1,99.9-296.8z"/>
				<path class="st1" d="M104.3-330.3c1.4,0.1,2.4,1.3,2.2,2.7c-0.1,1.3-1.3,2.3-2.6,2.2c-1.4-0.1-2.4-1.3-2.3-2.7
					C101.7-329.4,102.9-330.4,104.3-330.3z"/>
				<path class="st1" d="M104.6-283c0.1-1.4,1.3-2.4,2.6-2.3c1.3,0.1,2.4,1.3,2.3,2.7c-0.1,1.3-1.3,2.3-2.6,2.2
					C105.6-280.5,104.5-281.6,104.6-283z"/>
				<path class="st1" d="M134.1-312.4c0.1-1.4,1.3-2.4,2.7-2.3c1.4,0.1,2.4,1.3,2.3,2.7c-0.1,1.4-1.3,2.4-2.7,2.3
					C134.9-309.9,133.9-311,134.1-312.4z"/>
				<path class="st1" d="M141.7-306.5c0.1-1.3,1.2-2.3,2.6-2.3c1.4,0.1,2.4,1.3,2.3,2.6c-0.1,1.4-1.3,2.4-2.7,2.2
					C142.6-304,141.6-305.1,141.7-306.5z"/>
				<path class="st1" d="M131.5-285.7c-0.1,1.3-1.1,2.3-2.4,2.2c-1.3-0.1-2.3-1.2-2.2-2.4c0.1-1.3,1.2-2.3,2.5-2.2
					C130.6-288.1,131.6-287,131.5-285.7z"/>
			</g>
		</g>
		<g>
			<path class="st1" d="M459.9-506.6c2.2,0.2,4.3,0.7,6.4,1.4c2.6,0.9,5.3,1.7,7.8,2.6c8.2,3,14.4,7.9,19.1,14.4
				c2.5,3.4,4.1,7.1,5.4,10.8c1.1,3,1.2,6.1,0.3,9.1c-1.3,4.4-2.9,8.6-6.1,12.3c-1.9,2.1-4.2,3.9-7,5.1c-2.7,1.1-5.5,2-8.4,2.8
				c-1.4,0.4-2.8,0.8-4.2,1.3c-2.7,1-4.7,2.6-6.1,4.8c-0.7,1.2-0.8,2.5-0.3,3.8c0.6,1.7,1.7,3.2,3.2,4.4c1.1,0.9,2.3,1.7,3.6,2.4
				c2.1,1.2,4.2,2.3,6.3,3.6c3.6,2.2,6.1,5,7.5,8.6c2.3,6,0.5,11.2-4.5,15.4c-5.1,4.4-12.5,4.7-18.7,2.1c-4.9-2-8.1-5.3-9.3-9.8
				c-0.1-0.5-0.3-1.1-0.4-1.6c-0.3-1.4-1.2-2.4-2.5-3.2c-2.1-1.3-4.4-2-6.9-2.4c-4-0.7-8.1-0.9-12.2-1.1c-4.2-0.3-8.4-0.6-12.4-2.1
				c-6.8-2.5-10.9-6.8-11.6-13.2c-0.4-4,1.2-7.5,4.1-10.4c1.7-1.7,3.8-3,6.1-4.1c3.3-1.5,6.7-2.7,10.3-3.6c2.5-0.6,4.9-1.4,7.3-2.2
				c1.2-0.4,2.3-0.9,3.5-1.4c2.9-1.4,4-3.6,3.6-6.4c-0.2-1.7-0.8-3.3-1.7-4.9c-1-1.8-2.3-3.5-3.7-5.1c-1.7-1.9-3.2-3.9-4.8-5.9
				c-2.7-3.5-3.9-7.3-3.7-11.4c0.2-3.6,1.8-6.7,4.5-9.3c2.7-2.6,6.1-4.3,9.9-5.4C449.4-506.8,454.5-507.2,459.9-506.6z"/>
			<path class="st2" d="M300-470.2c0-1.9,0.2-3.8,0.6-5.6c0.6-2.3,1-4.6,1.7-6.9c2-7.3,6.2-13.1,12-17.7c3.1-2.4,6.5-4.2,10.1-5.7
				c2.9-1.2,5.9-1.7,9-1.2c4.5,0.6,8.9,1.6,12.9,4c2.3,1.4,4.3,3.1,5.9,5.4c1.5,2.2,2.6,4.5,3.8,6.8c0.6,1.2,1.2,2.3,1.8,3.5
				c1.3,2.2,3.1,3.8,5.5,4.7c1.3,0.5,2.6,0.4,3.8-0.1c1.6-0.7,3-1.8,4-3.2c0.8-1,1.4-2.1,1.9-3.3c0.9-1.9,1.8-3.8,2.8-5.7
				c1.7-3.3,4.3-5.7,7.6-7.2c5.7-2.6,11-1.5,15.9,2.2c5,3.9,6.2,10.1,4.3,15.7c-1.4,4.4-4.3,7.4-8.7,8.9c-0.5,0.2-1,0.4-1.5,0.5
				c-1.3,0.4-2.3,1.2-2.9,2.4c-1.1,1.9-1.5,4-1.6,6.1c-0.2,3.5,0.1,7,0.3,10.5c0.2,3.6,0.4,7.2-0.6,10.8c-1.7,6-5.5,10-11.7,11.2
				c-3.9,0.8-7.5-0.2-10.8-2.5c-1.9-1.3-3.5-2.9-4.8-4.7c-1.9-2.6-3.5-5.4-4.8-8.4c-0.9-2-1.9-4-3-6c-0.5-1-1.2-1.9-1.8-2.8
				c-1.8-2.3-4-3-6.8-2.4c-1.7,0.4-3.2,1-4.6,1.9c-1.7,1.1-3.2,2.3-4.6,3.7c-1.7,1.6-3.5,3.2-5.3,4.7c-3.1,2.7-6.8,4-10.8,4.3
				c-3.6,0.2-6.8-0.8-9.7-2.9c-2.9-2.1-5-4.8-6.6-7.9C301.1-461.2,300-465.6,300-470.2z"/>
			<path class="st1" d="M454.3-506.6c2.2,0.2,4.3,0.7,6.4,1.4c2.6,0.9,5.3,1.7,7.8,2.6c8.2,3,14.4,7.9,19.1,14.4
				c2.5,3.4,4.1,7.1,5.4,10.8c1.1,3,1.2,6.1,0.3,9.1c-1.3,4.4-2.9,8.6-6.1,12.3c-1.9,2.1-4.2,3.9-7,5.1c-2.7,1.1-5.5,2-8.4,2.8
				c-1.4,0.4-2.8,0.8-4.2,1.3c-2.7,1-4.7,2.6-6.1,4.8c-0.7,1.2-0.8,2.5-0.3,3.8c0.6,1.7,1.7,3.2,3.2,4.4c1.1,0.9,2.3,1.7,3.6,2.4
				c2.1,1.2,4.2,2.3,6.3,3.6c3.6,2.2,6.1,5,7.5,8.6c2.3,6,0.5,11.2-4.5,15.4c-5.1,4.4-12.5,4.7-18.7,2.1c-4.9-2-8.1-5.3-9.3-9.8
				c-0.1-0.5-0.3-1.1-0.4-1.6c-0.3-1.4-1.2-2.4-2.5-3.2c-2.1-1.3-4.4-2-6.9-2.4c-4-0.7-8.1-0.9-12.2-1.1c-4.2-0.3-8.4-0.6-12.4-2.1
				c-6.8-2.5-10.9-6.8-11.6-13.2c-0.4-4,1.2-7.5,4.1-10.4c1.7-1.7,3.8-3,6.1-4.1c3.3-1.5,6.7-2.7,10.3-3.6c2.5-0.6,4.9-1.4,7.3-2.2
				c1.2-0.4,2.3-0.9,3.5-1.4c2.9-1.4,4-3.6,3.6-6.4c-0.2-1.7-0.8-3.3-1.7-4.9c-1-1.8-2.3-3.5-3.7-5.1c-1.7-1.9-3.2-3.9-4.8-5.9
				c-2.7-3.5-3.9-7.3-3.7-11.4c0.2-3.6,1.8-6.7,4.5-9.3c2.7-2.6,6.1-4.3,9.9-5.4C443.7-506.8,448.9-507.2,454.3-506.6z"/>
			<path class="st2" d="M377.6-369.5c-3.9-0.1-8.1-0.9-12-2.4c-6.5-2.6-12.2-6.4-16.4-12.2c-2-2.8-3.4-6-4.7-9.2
				c-1.2-2.9-1.6-5.9-2-9c-0.6-4.7-0.4-9.4,0.8-13.9c0.9-3.3,2.2-6.4,4.2-9.2c4.2-6,10.9-8.4,17.9-6.2c5.6,1.8,9.9,5.2,12.6,10.4
				c0.8,1.6,1.2,3.3,1.7,5c0.9,3.5,1.7,6.9,3,10.3c0.8,1.8,1.8,3.5,3.2,4.9c1.6,1.6,3.6,2,5.7,1c1-0.5,2-1,2.9-1.7
				c1.8-1.3,3.8-2.1,5.9-2.7c2.8-0.7,5.1,0.1,7.2,1.8c3.8,3.4,5,7.7,3.5,12.5c-1.7,5.4-4.8,9.9-9.5,13.1c-5.4,3.8-11.3,6.3-17.9,7.1
				C381.8-369.5,379.9-369.3,377.6-369.5z"/>
			<path class="st3" d="M390.2-368.4c-3.9-0.1-8.1-0.9-12-2.4c-6.5-2.6-12.2-6.4-16.4-12.2c-2-2.8-3.4-6-4.7-9.2
				c-1.2-2.9-1.6-5.9-2-9c-0.6-4.7-0.4-9.4,0.8-13.9c0.9-3.3,2.2-6.4,4.2-9.2c4.2-6,10.9-8.4,17.9-6.2c5.6,1.8,9.9,5.2,12.6,10.4
				c0.8,1.6,1.2,3.3,1.7,5c0.9,3.5,1.7,6.9,3,10.3c0.8,1.8,1.8,3.5,3.2,4.9c1.6,1.6,3.6,2,5.7,1c1-0.5,2-1,2.9-1.7
				c1.8-1.3,3.8-2.1,5.9-2.7c2.8-0.7,5.1,0.1,7.2,1.8c3.8,3.4,5,7.7,3.5,12.5c-1.7,5.4-4.8,9.9-9.5,13.1c-5.4,3.8-11.3,6.3-17.9,7.1
				C394.4-368.4,392.5-368.2,390.2-368.4z"/>
			<g>
				<path class="st1" d="M329.7-439c-1.9,0-3.4-1.6-3.4-3.4c0-1.8,1.6-3.4,3.4-3.4c1.9,0,3.5,1.6,3.4,3.5
					C333.1-440.5,331.5-439,329.7-439z"/>
				<path class="st1" d="M330.4-423.2c0,1.9-1.5,3.4-3.3,3.5c-1.9,0.1-3.5-1.5-3.5-3.5c0-1.9,1.5-3.4,3.4-3.4
					C328.8-426.6,330.3-425.1,330.4-423.2z"/>
				<path class="st1" d="M292.5-427.4c-0.1,1.8-1.7,3.3-3.5,3.3c-1.8-0.1-3.4-1.7-3.3-3.5c0.1-1.9,1.7-3.4,3.6-3.3
					C291.1-430.8,292.6-429.2,292.5-427.4z"/>
				<path class="st1" d="M303.5-430.9c-1.9,0-3.4-1.4-3.4-3.3c0-1.9,1.5-3.5,3.4-3.5c1.9,0,3.4,1.5,3.4,3.4
					C306.8-432.5,305.3-431,303.5-430.9z"/>
				<path class="st1" d="M360.4-429.1c0,1.9-1.5,3.4-3.4,3.4c-1.9,0-3.4-1.5-3.4-3.4c0-1.9,1.6-3.5,3.5-3.4
					C358.9-432.5,360.4-431,360.4-429.1z"/>
				<path class="st1" d="M311.9-407.5c-1.9,0-3.4-1.5-3.4-3.4c0-1.9,1.5-3.4,3.4-3.4c1.9,0,3.5,1.5,3.4,3.4
					C315.3-409,313.8-407.5,311.9-407.5z"/>
				<path class="st1" d="M315-395c0,1.9-1.5,3.4-3.4,3.4c-1.9,0-3.5-1.5-3.4-3.5c0-1.9,1.6-3.3,3.5-3.3
					C313.6-398.4,315-396.9,315-395z"/>
				<path class="st1" d="M339.9-434.2c0,1.9-1.5,3.4-3.4,3.4c-1.9,0-3.4-1.4-3.4-3.3c0-2,1.5-3.5,3.4-3.5
					C338.5-437.6,339.9-436.1,339.9-434.2z"/>
				<path class="st1" d="M292-409.1c0,1.9-1.5,3.4-3.4,3.3c-1.9,0-3.4-1.5-3.4-3.4c0-2,1.5-3.4,3.5-3.4
					C290.6-412.5,292-411,292-409.1z"/>
				<path class="st1" d="M337.9-457.4c0,1.9-1.5,3.4-3.4,3.3c-1.9,0-3.4-1.6-3.4-3.5c0.1-1.9,1.6-3.3,3.5-3.3
					C336.5-460.8,337.9-459.3,337.9-457.4z"/>
				<path class="st1" d="M346.9-452.1c1.7,0,3,1.4,3,3c0,1.7-1.8,3.4-3.5,3.3c-1.6,0-3-1.4-3-3.1C343.3-450.6,345-452.1,346.9-452.1
					z"/>
				<path class="st1" d="M323-384.2c0,1.8-1.7,3.5-3.4,3.5c-1.7,0-3-1.4-3-3.1c0-1.8,1.7-3.5,3.4-3.5
					C321.7-387.3,323.1-385.9,323-384.2z"/>
				<path class="st1" d="M328.7-400c0,1.9-1.3,3.4-3,3.4c-1.7,0-3-1.5-3-3.4c0-1.7,1.4-3,3-3C327.4-403,328.7-401.7,328.7-400z"/>
				<path class="st1" d="M308.7-451.2c0,1.9-1.1,3.3-2.8,3.3c-1.7,0.1-3.2-1.5-3.2-3.3c0-1.6,1.3-3,3-3.1
					C307.4-454.4,308.7-453,308.7-451.2z"/>
				<path class="st1" d="M312.7-428.1c0-1.8,1.2-3.2,3-3.2c1.7,0,3.1,1.3,3.1,3c0,1.7-1.6,3.4-3.3,3.3
					C313.8-425.1,312.7-426.4,312.7-428.1z"/>
				<path class="st1" d="M298.9-390.3c1.7,0,3,1.4,3,3.1c0,1.7-1.4,3-3,3c-1.7,0-3-1.4-3-3.1C295.9-389,297.2-390.3,298.9-390.3z"/>
				<path class="st1" d="M357.9-440.8c-1.7,0-3-1.3-3-3c0-1.7,1.3-3,3-3.1c1.6,0,3,1.4,3.1,3C360.9-442.1,359.6-440.8,357.9-440.8z"
					/>
				<path class="st1" d="M319.8-460.1c-1.7,0-3-1.4-2.9-3.1c0.1-1.7,1.5-3,3.1-2.9c1.7,0,3,1.4,2.9,3.1
					C322.9-461.3,321.5-460,319.8-460.1z"/>
				<path class="st1" d="M349.3-401.9c1.7,0,3,1.4,2.9,3.1c-0.1,1.6-1.5,3-3.1,2.9c-1.7-0.1-3-1.5-2.9-3.1
					C346.3-400.7,347.6-401.9,349.3-401.9z"/>
				<path class="st1" d="M343.8-416.8c-1.7,0-3-1.3-3.1-2.9c0-1.6,1.3-3,3-3.1c1.6,0,3,1.3,3.1,3
					C346.8-418.1,345.5-416.8,343.8-416.8z"/>
				<path class="st1" d="M333.8-414.3c1.7,0,3,1.3,3,3c0,1.7-1.4,3-3,3c-1.6,0-3-1.4-3-3C330.7-412.9,332.1-414.2,333.8-414.3z"/>
				<path class="st1" d="M300.4-416.2c-1.7,0-3-1.3-3-3c0-1.7,1.4-3,3-3c1.6,0,3,1.4,3,3C303.5-417.5,302.1-416.2,300.4-416.2z"/>
				<path class="st1" d="M337.3-398.1c1.7,0,3,1.3,3,3c0,1.6-1.4,3-3,3c-1.7,0-3-1.3-3-3C334.3-396.7,335.6-398,337.3-398.1z"/>
				<path class="st1" d="M296.2-400.4c0-1.7,1.4-3,3.1-2.9c1.6,0,2.9,1.4,2.9,3c0,1.7-1.4,3-3,3
					C297.5-397.3,296.2-398.7,296.2-400.4z"/>
				<path class="st1" d="M353.7-404.9c-1.7,0-3-1.4-3-3c0-1.6,1.4-3,3.1-3c1.6,0,2.9,1.3,2.9,3C356.6-406.3,355.3-405,353.7-404.9z"
					/>
				<path class="st1" d="M315.3-438.1c-1.7,0-3-1.3-3-3c0-1.7,1.4-3,3-3c1.7,0,3,1.4,3,3.1C318.3-439.4,317-438.1,315.3-438.1z"/>
				<path class="st1" d="M321.8-448c-1.6,0-2.9-1.3-3-2.9c0-1.7,1.4-3,3-3c1.7,0,3,1.4,3,3.1C324.8-449.2,323.5-447.9,321.8-448z"/>
				<path class="st1" d="M348-437.4c1.6,0,2.9,1.2,2.9,2.8c0,1.6-1.2,2.9-2.8,2.9c-1.6,0-2.9-1.2-2.9-2.8
					C345.1-436,346.4-437.3,348-437.4z"/>
			</g>
			<g>
				<path class="st1" d="M424-476.1c-1.5-0.1-2.7-1.5-2.5-3c0.1-1.5,1.4-2.7,3-2.6c1.6,0.1,2.8,1.5,2.6,3.1
					C426.9-477.1,425.5-475.9,424-476.1z"/>
				<path class="st1" d="M443.6-485.8c-0.1,1.4-1.3,2.4-2.7,2.3c-1.4-0.1-2.6-1.7-2.5-3.1c0.1-1.3,1.3-2.4,2.7-2.3
					C442.6-488.7,443.7-487.3,443.6-485.8z"/>
				<path class="st1" d="M433.7-477.4c0.1-1.4,1.2-2.4,2.6-2.3c1.4,0.1,2.4,1.3,2.3,2.6c-0.1,1.3-1.3,2.4-2.6,2.3
					C434.6-474.8,433.6-476,433.7-477.4z"/>
				<path class="st1" d="M402.4-486.7c-0.1,1.4-1.4,2.4-2.7,2.2c-1.3-0.2-2.4-1.4-2.2-2.7c0.2-1.4,1.4-2.3,2.7-2.2
					C401.5-489.3,402.5-488.1,402.4-486.7z"/>
				<path class="st1" d="M414.9-490.3c0.1-1.4,1.2-2.4,2.6-2.3c1.3,0.1,2.4,1.3,2.3,2.6c-0.1,1.3-1.3,2.4-2.6,2.3
					C415.8-487.8,414.8-489,414.9-490.3z"/>
				<path class="st1" d="M404.6-483c0.1-1.4,1.3-2.4,2.6-2.3c1.3,0.1,2.4,1.3,2.3,2.7c-0.1,1.3-1.3,2.3-2.6,2.2
					C405.6-480.5,404.5-481.6,404.6-483z"/>
				<path class="st1" d="M431.5-485.7c-0.1,1.3-1.1,2.3-2.4,2.2c-1.3-0.1-2.3-1.2-2.2-2.4c0.1-1.3,1.2-2.3,2.5-2.2
					C430.6-488.1,431.6-487,431.5-485.7z"/>
			</g>
		</g>
		<g>
			<path class="st1" d="M259.9-506.6c2.2,0.2,4.3,0.7,6.4,1.4c2.6,0.9,5.3,1.7,7.8,2.6c8.2,3,14.4,7.9,19.1,14.4
				c2.5,3.4,4.1,7.1,5.4,10.8c1.1,3,1.2,6.1,0.3,9.1c-1.3,4.4-2.9,8.6-6.1,12.3c-1.9,2.1-4.2,3.9-7,5.1c-2.7,1.1-5.5,2-8.4,2.8
				c-1.4,0.4-2.8,0.8-4.2,1.3c-2.7,1-4.7,2.6-6.1,4.8c-0.7,1.2-0.8,2.5-0.3,3.8c0.6,1.7,1.7,3.2,3.2,4.4c1.1,0.9,2.3,1.7,3.6,2.4
				c2.1,1.2,4.2,2.3,6.3,3.6c3.6,2.2,6.1,5,7.5,8.6c2.3,6,0.5,11.2-4.5,15.4c-5.1,4.4-12.5,4.7-18.7,2.1c-4.9-2-8.1-5.3-9.3-9.8
				c-0.1-0.5-0.3-1.1-0.4-1.6c-0.3-1.4-1.2-2.4-2.5-3.2c-2.1-1.3-4.4-2-6.9-2.4c-4-0.7-8.1-0.9-12.2-1.1c-4.2-0.3-8.4-0.6-12.4-2.1
				c-6.8-2.5-10.9-6.8-11.6-13.2c-0.4-4,1.2-7.5,4.1-10.4c1.7-1.7,3.8-3,6.1-4.1c3.3-1.5,6.7-2.7,10.3-3.6c2.5-0.6,4.9-1.4,7.3-2.2
				c1.2-0.4,2.3-0.9,3.5-1.4c2.9-1.4,4-3.6,3.6-6.4c-0.2-1.7-0.8-3.3-1.7-4.9c-1-1.8-2.3-3.5-3.7-5.1c-1.7-1.9-3.2-3.9-4.8-5.9
				c-2.7-3.5-3.9-7.3-3.7-11.4c0.2-3.6,1.8-6.7,4.5-9.3c2.7-2.6,6.1-4.3,9.9-5.4C249.4-506.8,254.5-507.2,259.9-506.6z"/>
			<path class="st2" d="M100-470.2c0-1.9,0.2-3.8,0.6-5.6c0.6-2.3,1-4.6,1.7-6.9c2-7.3,6.2-13.1,12-17.7c3.1-2.4,6.5-4.2,10.1-5.7
				c2.9-1.2,5.9-1.7,9-1.2c4.5,0.6,8.9,1.6,12.9,4c2.3,1.4,4.3,3.1,5.9,5.4c1.5,2.2,2.6,4.5,3.8,6.8c0.6,1.2,1.2,2.3,1.8,3.5
				c1.3,2.2,3.1,3.8,5.5,4.7c1.3,0.5,2.6,0.4,3.8-0.1c1.6-0.7,3-1.8,4-3.2c0.8-1,1.4-2.1,1.9-3.3c0.9-1.9,1.8-3.8,2.8-5.7
				c1.7-3.3,4.3-5.7,7.6-7.2c5.7-2.6,11-1.5,15.9,2.2c5,3.9,6.2,10.1,4.3,15.7c-1.4,4.4-4.3,7.4-8.7,8.9c-0.5,0.2-1,0.4-1.5,0.5
				c-1.3,0.4-2.3,1.2-2.9,2.4c-1.1,1.9-1.5,4-1.6,6.1c-0.2,3.5,0.1,7,0.3,10.5c0.2,3.6,0.4,7.2-0.6,10.8c-1.7,6-5.5,10-11.7,11.2
				c-3.9,0.8-7.5-0.2-10.8-2.5c-1.9-1.3-3.5-2.9-4.8-4.7c-1.9-2.6-3.5-5.4-4.8-8.4c-0.9-2-1.9-4-3-6c-0.5-1-1.2-1.9-1.8-2.8
				c-1.8-2.3-4-3-6.8-2.4c-1.7,0.4-3.2,1-4.6,1.9c-1.7,1.1-3.2,2.3-4.6,3.7c-1.7,1.6-3.5,3.2-5.3,4.7c-3.1,2.7-6.8,4-10.8,4.3
				c-3.6,0.2-6.8-0.8-9.7-2.9c-2.9-2.1-5-4.8-6.6-7.9C101.1-461.2,100-465.6,100-470.2z"/>
			<path class="st1" d="M254.3-506.6c2.2,0.2,4.3,0.7,6.4,1.4c2.6,0.9,5.3,1.7,7.8,2.6c8.2,3,14.4,7.9,19.1,14.4
				c2.5,3.4,4.1,7.1,5.4,10.8c1.1,3,1.2,6.1,0.3,9.1c-1.3,4.4-2.9,8.6-6.1,12.3c-1.9,2.1-4.2,3.9-7,5.1c-2.7,1.1-5.5,2-8.4,2.8
				c-1.4,0.4-2.8,0.8-4.2,1.3c-2.7,1-4.7,2.6-6.1,4.8c-0.7,1.2-0.8,2.5-0.3,3.8c0.6,1.7,1.7,3.2,3.2,4.4c1.1,0.9,2.3,1.7,3.6,2.4
				c2.1,1.2,4.2,2.3,6.3,3.6c3.6,2.2,6.1,5,7.5,8.6c2.3,6,0.5,11.2-4.5,15.4c-5.1,4.4-12.5,4.7-18.7,2.1c-4.9-2-8.1-5.3-9.3-9.8
				c-0.1-0.5-0.3-1.1-0.4-1.6c-0.3-1.4-1.2-2.4-2.5-3.2c-2.1-1.3-4.4-2-6.9-2.4c-4-0.7-8.1-0.9-12.2-1.1c-4.2-0.3-8.4-0.6-12.4-2.1
				c-6.8-2.5-10.9-6.8-11.6-13.2c-0.4-4,1.2-7.5,4.1-10.4c1.7-1.7,3.8-3,6.1-4.1c3.3-1.5,6.7-2.7,10.3-3.6c2.5-0.6,4.9-1.4,7.3-2.2
				c1.2-0.4,2.3-0.9,3.5-1.4c2.9-1.4,4-3.6,3.6-6.4c-0.2-1.7-0.8-3.3-1.7-4.9c-1-1.8-2.3-3.5-3.7-5.1c-1.7-1.9-3.2-3.9-4.8-5.9
				c-2.7-3.5-3.9-7.3-3.7-11.4c0.2-3.6,1.8-6.7,4.5-9.3c2.7-2.6,6.1-4.3,9.9-5.4C243.7-506.8,248.9-507.2,254.3-506.6z"/>
			<path class="st2" d="M177.6-369.5c-3.9-0.1-8.1-0.9-12-2.4c-6.5-2.6-12.2-6.4-16.4-12.2c-2-2.8-3.4-6-4.7-9.2
				c-1.2-2.9-1.6-5.9-2-9c-0.6-4.7-0.4-9.4,0.8-13.9c0.9-3.3,2.2-6.4,4.2-9.2c4.2-6,10.9-8.4,17.9-6.2c5.6,1.8,9.9,5.2,12.6,10.4
				c0.8,1.6,1.2,3.3,1.7,5c0.9,3.5,1.7,6.9,3,10.3c0.8,1.8,1.8,3.5,3.2,4.9c1.6,1.6,3.6,2,5.7,1c1-0.5,2-1,2.9-1.7
				c1.8-1.3,3.8-2.1,5.9-2.7c2.8-0.7,5.1,0.1,7.2,1.8c3.8,3.4,5,7.7,3.5,12.5c-1.7,5.4-4.8,9.9-9.5,13.1c-5.4,3.8-11.3,6.3-17.9,7.1
				C181.8-369.5,179.9-369.3,177.6-369.5z"/>
			<path class="st3" d="M190.2-368.4c-3.9-0.1-8.1-0.9-12-2.4c-6.5-2.6-12.2-6.4-16.4-12.2c-2-2.8-3.4-6-4.7-9.2
				c-1.2-2.9-1.6-5.9-2-9c-0.6-4.7-0.4-9.4,0.8-13.9c0.9-3.3,2.2-6.4,4.2-9.2c4.2-6,10.9-8.4,17.9-6.2c5.6,1.8,9.9,5.2,12.6,10.4
				c0.8,1.6,1.2,3.3,1.7,5c0.9,3.5,1.7,6.9,3,10.3c0.8,1.8,1.8,3.5,3.2,4.9c1.6,1.6,3.6,2,5.7,1c1-0.5,2-1,2.9-1.7
				c1.8-1.3,3.8-2.1,5.9-2.7c2.8-0.7,5.1,0.1,7.2,1.8c3.8,3.4,5,7.7,3.5,12.5c-1.7,5.4-4.8,9.9-9.5,13.1c-5.4,3.8-11.3,6.3-17.9,7.1
				C194.4-368.4,192.5-368.2,190.2-368.4z"/>
			<g>
				<path class="st1" d="M129.7-439c-1.9,0-3.4-1.6-3.4-3.4c0-1.8,1.6-3.4,3.4-3.4c1.9,0,3.5,1.6,3.4,3.5
					C133.1-440.5,131.5-439,129.7-439z"/>
				<path class="st1" d="M130.4-423.2c0,1.9-1.5,3.4-3.3,3.5c-1.9,0.1-3.5-1.5-3.5-3.5c0-1.9,1.5-3.4,3.4-3.4
					C128.8-426.6,130.3-425.1,130.4-423.2z"/>
				<path class="st1" d="M92.5-427.4c-0.1,1.8-1.7,3.3-3.5,3.3c-1.8-0.1-3.4-1.7-3.3-3.5c0.1-1.9,1.7-3.4,3.6-3.3
					C91.1-430.8,92.6-429.2,92.5-427.4z"/>
				<path class="st1" d="M103.5-430.9c-1.9,0-3.4-1.4-3.4-3.3c0-1.9,1.5-3.5,3.4-3.5c1.9,0,3.4,1.5,3.4,3.4
					C106.8-432.5,105.3-431,103.5-430.9z"/>
				<path class="st1" d="M160.4-429.1c0,1.9-1.5,3.4-3.4,3.4c-1.9,0-3.4-1.5-3.4-3.4c0-1.9,1.6-3.5,3.5-3.4
					C158.9-432.5,160.4-431,160.4-429.1z"/>
				<path class="st1" d="M111.9-407.5c-1.9,0-3.4-1.5-3.4-3.4c0-1.9,1.5-3.4,3.4-3.4c1.9,0,3.5,1.5,3.4,3.4
					C115.3-409,113.8-407.5,111.9-407.5z"/>
				<path class="st1" d="M115-395c0,1.9-1.5,3.4-3.4,3.4c-1.9,0-3.5-1.5-3.4-3.5c0-1.9,1.6-3.3,3.5-3.3
					C113.6-398.4,115-396.9,115-395z"/>
				<path class="st1" d="M139.9-434.2c0,1.9-1.5,3.4-3.4,3.4c-1.9,0-3.4-1.4-3.4-3.3c0-2,1.5-3.5,3.4-3.5
					C138.5-437.6,139.9-436.1,139.9-434.2z"/>
				<path class="st1" d="M92-409.1c0,1.9-1.5,3.4-3.4,3.3c-1.9,0-3.4-1.5-3.4-3.4c0-2,1.5-3.4,3.5-3.4C90.6-412.5,92-411,92-409.1z"
					/>
				<path class="st1" d="M137.9-457.4c0,1.9-1.5,3.4-3.4,3.3c-1.9,0-3.4-1.6-3.4-3.5c0.1-1.9,1.6-3.3,3.5-3.3
					C136.5-460.8,137.9-459.3,137.9-457.4z"/>
				<path class="st1" d="M146.9-452.1c1.7,0,3,1.4,3,3c0,1.7-1.8,3.4-3.5,3.3c-1.6,0-3-1.4-3-3.1C143.3-450.6,145-452.1,146.9-452.1
					z"/>
				<path class="st1" d="M123-384.2c0,1.8-1.7,3.5-3.4,3.5c-1.7,0-3-1.4-3-3.1c0-1.8,1.7-3.5,3.4-3.5
					C121.7-387.3,123.1-385.9,123-384.2z"/>
				<path class="st1" d="M128.7-400c0,1.9-1.3,3.4-3,3.4c-1.7,0-3-1.5-3-3.4c0-1.7,1.4-3,3-3C127.4-403,128.7-401.7,128.7-400z"/>
				<path class="st1" d="M108.7-451.2c0,1.9-1.1,3.3-2.8,3.3c-1.7,0.1-3.2-1.5-3.2-3.3c0-1.6,1.3-3,3-3.1
					C107.4-454.4,108.7-453,108.7-451.2z"/>
				<path class="st1" d="M112.7-428.1c0-1.8,1.2-3.2,3-3.2c1.7,0,3.1,1.3,3.1,3c0,1.7-1.6,3.4-3.3,3.3
					C113.8-425.1,112.7-426.4,112.7-428.1z"/>
				<path class="st1" d="M98.9-390.3c1.7,0,3,1.4,3,3.1c0,1.7-1.4,3-3,3c-1.7,0-3-1.4-3-3.1C95.9-389,97.2-390.3,98.9-390.3z"/>
				<path class="st1" d="M157.9-440.8c-1.7,0-3-1.3-3-3c0-1.7,1.3-3,3-3.1c1.6,0,3,1.4,3.1,3C160.9-442.1,159.6-440.8,157.9-440.8z"
					/>
				<path class="st1" d="M119.8-460.1c-1.7,0-3-1.4-2.9-3.1c0.1-1.7,1.5-3,3.1-2.9c1.7,0,3,1.4,2.9,3.1
					C122.9-461.3,121.5-460,119.8-460.1z"/>
				<path class="st1" d="M149.3-401.9c1.7,0,3,1.4,2.9,3.1c-0.1,1.6-1.5,3-3.1,2.9c-1.7-0.1-3-1.5-2.9-3.1
					C146.3-400.7,147.6-401.9,149.3-401.9z"/>
				<path class="st1" d="M143.8-416.8c-1.7,0-3-1.3-3.1-2.9c0-1.6,1.3-3,3-3.1c1.6,0,3,1.3,3.1,3
					C146.8-418.1,145.5-416.8,143.8-416.8z"/>
				<path class="st1" d="M133.8-414.3c1.7,0,3,1.3,3,3c0,1.7-1.4,3-3,3c-1.6,0-3-1.4-3-3C130.7-412.9,132.1-414.2,133.8-414.3z"/>
				<path class="st1" d="M100.4-416.2c-1.7,0-3-1.3-3-3c0-1.7,1.4-3,3-3c1.6,0,3,1.4,3,3C103.5-417.5,102.1-416.2,100.4-416.2z"/>
				<path class="st1" d="M137.3-398.1c1.7,0,3,1.3,3,3c0,1.6-1.4,3-3,3c-1.7,0-3-1.3-3-3C134.3-396.7,135.6-398,137.3-398.1z"/>
				<path class="st1" d="M96.2-400.4c0-1.7,1.4-3,3.1-2.9c1.6,0,2.9,1.4,2.9,3c0,1.7-1.4,3-3,3C97.5-397.3,96.2-398.7,96.2-400.4z"
					/>
				<path class="st1" d="M153.7-404.9c-1.7,0-3-1.4-3-3c0-1.6,1.4-3,3.1-3c1.6,0,2.9,1.3,2.9,3C156.6-406.3,155.3-405,153.7-404.9z"
					/>
				<path class="st1" d="M115.3-438.1c-1.7,0-3-1.3-3-3c0-1.7,1.4-3,3-3c1.7,0,3,1.4,3,3.1C118.3-439.4,117-438.1,115.3-438.1z"/>
				<path class="st1" d="M121.8-448c-1.6,0-2.9-1.3-3-2.9c0-1.7,1.4-3,3-3c1.7,0,3,1.4,3,3.1C124.8-449.2,123.5-447.9,121.8-448z"/>
				<path class="st1" d="M148-437.4c1.6,0,2.9,1.2,2.9,2.8c0,1.6-1.2,2.9-2.8,2.9c-1.6,0-2.9-1.2-2.9-2.8
					C145.1-436,146.4-437.3,148-437.4z"/>
			</g>
			<g>
				<path class="st1" d="M224-476.1c-1.5-0.1-2.7-1.5-2.5-3c0.1-1.5,1.4-2.7,2.9-2.6c1.6,0.1,2.8,1.5,2.6,3.1
					C226.9-477.1,225.5-475.9,224-476.1z"/>
				<path class="st1" d="M243.6-485.8c-0.1,1.4-1.3,2.4-2.7,2.3c-1.4-0.1-2.6-1.7-2.5-3.1c0.1-1.3,1.3-2.4,2.7-2.3
					C242.6-488.7,243.7-487.3,243.6-485.8z"/>
				<path class="st1" d="M233.7-477.4c0.1-1.4,1.2-2.4,2.6-2.3c1.4,0.1,2.4,1.3,2.3,2.6c-0.1,1.3-1.3,2.4-2.6,2.3
					C234.6-474.8,233.6-476,233.7-477.4z"/>
				<path class="st1" d="M202.4-486.7c-0.1,1.4-1.4,2.4-2.7,2.2c-1.3-0.2-2.4-1.4-2.2-2.7c0.2-1.4,1.4-2.3,2.7-2.2
					C201.5-489.3,202.5-488.1,202.4-486.7z"/>
				<path class="st1" d="M214.9-490.3c0.1-1.4,1.2-2.4,2.6-2.3c1.3,0.1,2.4,1.3,2.3,2.6c-0.1,1.3-1.3,2.4-2.6,2.3
					C215.8-487.8,214.8-489,214.9-490.3z"/>
				<path class="st1" d="M204.6-483c0.1-1.4,1.3-2.4,2.6-2.3c1.3,0.1,2.4,1.3,2.3,2.7c-0.1,1.3-1.3,2.3-2.6,2.2
					C205.6-480.5,204.5-481.6,204.6-483z"/>
				<path class="st1" d="M231.5-485.7c-0.1,1.3-1.1,2.3-2.4,2.2c-1.3-0.1-2.3-1.2-2.2-2.4c0.1-1.3,1.2-2.3,2.5-2.2
					C230.6-488.1,231.6-487,231.5-485.7z"/>
			</g>
		</g>
		<g>
			<path class="st1" d="M59.9-506.6c2.2,0.2,4.3,0.7,6.4,1.4c2.6,0.9,5.3,1.7,7.8,2.6c8.2,3,14.4,7.9,19.1,14.4
				c2.5,3.4,4.1,7.1,5.4,10.8c1.1,3,1.2,6.1,0.3,9.1c-1.3,4.4-2.9,8.6-6.1,12.3c-1.9,2.1-4.2,3.9-7,5.1c-2.7,1.1-5.5,2-8.4,2.8
				c-1.4,0.4-2.8,0.8-4.2,1.3c-2.7,1-4.7,2.6-6.1,4.8c-0.7,1.2-0.8,2.5-0.3,3.8c0.6,1.7,1.7,3.2,3.2,4.4c1.1,0.9,2.3,1.7,3.6,2.4
				c2.1,1.2,4.2,2.3,6.3,3.6c3.6,2.2,6.1,5,7.5,8.6c2.3,6,0.5,11.2-4.5,15.4c-5.1,4.4-12.5,4.7-18.7,2.1c-4.9-2-8.1-5.3-9.3-9.8
				c-0.1-0.5-0.3-1.1-0.4-1.6c-0.3-1.4-1.2-2.4-2.5-3.2c-2.1-1.3-4.4-2-6.9-2.4c-4-0.7-8.1-0.9-12.2-1.1c-4.2-0.3-8.4-0.6-12.4-2.1
				c-6.8-2.5-10.9-6.8-11.6-13.2c-0.4-4,1.2-7.5,4.1-10.4c1.7-1.7,3.8-3,6.1-4.1c3.3-1.5,6.7-2.7,10.3-3.6c2.5-0.6,4.9-1.4,7.3-2.2
				c1.2-0.4,2.3-0.9,3.5-1.4c2.9-1.4,4-3.6,3.6-6.4c-0.2-1.7-0.8-3.3-1.7-4.9c-1-1.8-2.3-3.5-3.7-5.1c-1.7-1.9-3.2-3.9-4.8-5.9
				c-2.7-3.5-3.9-7.3-3.7-11.4c0.2-3.6,1.8-6.7,4.5-9.3c2.7-2.6,6.1-4.3,9.9-5.4C49.4-506.8,54.5-507.2,59.9-506.6z"/>
			<path class="st1" d="M54.3-506.6c2.2,0.2,4.3,0.7,6.4,1.4c2.6,0.9,5.3,1.7,7.8,2.6c8.2,3,14.4,7.9,19.1,14.4
				c2.5,3.4,4.1,7.1,5.4,10.8c1.1,3,1.2,6.1,0.3,9.1c-1.3,4.4-2.9,8.6-6.1,12.3c-1.9,2.1-4.2,3.9-7,5.1c-2.7,1.1-5.5,2-8.4,2.8
				c-1.4,0.4-2.8,0.8-4.2,1.3c-2.7,1-4.7,2.6-6.1,4.8c-0.7,1.2-0.8,2.5-0.3,3.8c0.6,1.7,1.7,3.2,3.2,4.4c1.1,0.9,2.3,1.7,3.6,2.4
				c2.1,1.2,4.2,2.3,6.3,3.6c3.6,2.2,6.1,5,7.5,8.6c2.3,6,0.5,11.2-4.5,15.4c-5.1,4.4-12.5,4.7-18.7,2.1c-4.9-2-8.1-5.3-9.3-9.8
				c-0.1-0.5-0.3-1.1-0.4-1.6c-0.3-1.4-1.2-2.4-2.5-3.2c-2.1-1.3-4.4-2-6.9-2.4c-4-0.7-8.1-0.9-12.2-1.1c-4.2-0.3-8.4-0.6-12.4-2.1
				c-6.8-2.5-10.9-6.8-11.6-13.2c-0.4-4,1.2-7.5,4.1-10.4c1.7-1.7,3.8-3,6.1-4.1c3.3-1.5,6.7-2.7,10.3-3.6c2.5-0.6,4.9-1.4,7.3-2.2
				c1.2-0.4,2.3-0.9,3.5-1.4c2.9-1.4,4-3.6,3.6-6.4c-0.2-1.7-0.8-3.3-1.7-4.9c-1-1.8-2.3-3.5-3.7-5.1c-1.7-1.9-3.2-3.9-4.8-5.9
				c-2.7-3.5-3.9-7.3-3.7-11.4c0.2-3.6,1.8-6.7,4.5-9.3c2.7-2.6,6.1-4.3,9.9-5.4C43.7-506.8,48.9-507.2,54.3-506.6z"/>
		</g>
	</g>
</pattern>
<g id="PATTERNS">
	<g>
		<rect class="st2" width="799.3" height="721.6"/>
		<rect class="st9" width="799.3" height="721.6"/>
	</g>
</g>
<g id="OBJECTS">
</g>
<g id="DESIGNED_BY_FREEPIK">
</g>
</svg>
