<svg xmlns="http://www.w3.org/2000/svg" width="270" height="34" viewBox="0 0 270 34"><path d="M131.546,32.463A10.736,10.736,0,0,1,127.2,28.15a13.121,13.121,0,0,1-1.531-6.446,12.577,12.577,0,0,1,1.6-6.4,10.892,10.892,0,0,1,4.5-4.29,14.273,14.273,0,0,1,6.7-1.514,11.944,11.944,0,0,1,5.9,1.4,9.681,9.681,0,0,1,3.886,3.946,12.245,12.245,0,0,1,1.372,5.9H135.52V19.409h6.153a21.488,21.488,0,0,0-.937-6.447q-.846-2.408-2.354-2.409-1.693,0-2.812,2.386a21.724,21.724,0,0,0-1.44,8.1c0,3.1.6,6.113,1.806,7.841a5.809,5.809,0,0,0,5.052,2.592,6.6,6.6,0,0,0,5.052-2.2,8.191,8.191,0,0,0,1.272-1.83l1.152.816a9.21,9.21,0,0,1-2.15,2.964A11.773,11.773,0,0,1,138.061,34,13.367,13.367,0,0,1,131.546,32.463Zm116.333-.044a10.115,10.115,0,0,1-3.566-4.269h0c0-.009-.006-.019-.011-.028a.121.121,0,0,1-.008-.016h0a15.141,15.141,0,0,1-1.263-6.356,14.073,14.073,0,0,1,1.394-6.4,10.4,10.4,0,0,1,3.909-4.313A10.911,10.911,0,0,1,254.139,9.5a6.344,6.344,0,0,1,3.589.986,5.769,5.769,0,0,1,1.368,1.287V13.1a5.092,5.092,0,0,0-2.991-1.029q-2.1,0-3.36,2.661a16.57,16.57,0,0,0-1.257,7.021,16.236,16.236,0,0,0,1.111,6.478c.825,1.669,1.695,2.39,3.283,2.39,1.042,0,2.537-1.148,3.328-1.829v1.325s-2.21,3.843-6.37,3.843A8.035,8.035,0,0,1,247.879,32.419Zm-145.793,0a10.115,10.115,0,0,1-3.566-4.269h0c0-.009-.007-.019-.011-.028a.123.123,0,0,1-.009-.016h0a15.141,15.141,0,0,1-1.264-6.356,14.073,14.073,0,0,1,1.395-6.4,10.4,10.4,0,0,1,3.909-4.313A10.91,10.91,0,0,1,108.346,9.5a6.344,6.344,0,0,1,3.589.986,5.769,5.769,0,0,1,1.368,1.287V13.1a5.092,5.092,0,0,0-2.991-1.029q-2.1,0-3.36,2.661a16.569,16.569,0,0,0-1.257,7.021,16.235,16.235,0,0,0,1.111,6.478c.825,1.669,1.592,2.39,3.18,2.39,1.192,0,2.64-1.148,3.431-1.829v1.325s-2.21,3.843-6.37,3.843A8.035,8.035,0,0,1,102.087,32.419Zm-57.8-.553a8.321,8.321,0,0,1-1.92-5.85V12.986a1.8,1.8,0,0,0-.48-1.423,2.422,2.422,0,0,0-1.349-.5V10.1h9.83V26.383a4.238,4.238,0,0,0,.686,2.66,2.175,2.175,0,0,0,1.966,1.124,4.522,4.522,0,0,0,3.012-1.378v1.325c-.433.573-2.726,3.841-6.349,3.841A6.963,6.963,0,0,1,44.285,31.866ZM30.093,33.544,17.932,4.128A4.834,4.834,0,0,0,16.8,2.373a2.123,2.123,0,0,0-1.479-.679V.638h13.5V1.694a1.983,1.983,0,0,0-1.4.551,1.852,1.852,0,0,0-.48,1.331,3.689,3.689,0,0,0,.107.708,10.366,10.366,0,0,0,.565,1.749l7.421,17.931-3.961,9.581Zm-15.325,0L2.608,4.128A4.842,4.842,0,0,0,1.479,2.373,2.126,2.126,0,0,0,0,1.694V.638H10.06l9.653,23.325-3.96,9.581Zm200.215-.127v-.964a2.409,2.409,0,0,0,1.35-.5,1.8,1.8,0,0,0,.481-1.424V16.476q0-1.561-1.83-1.562v-.872l9.084-4.775h.823V30.525a1.794,1.794,0,0,0,.409,1.424,2.408,2.408,0,0,0,1.35.5v.964Zm-145.793,0v-.964a2.409,2.409,0,0,0,1.35-.5,1.8,1.8,0,0,0,.481-1.424V16.476q0-1.561-1.83-1.562v-.872l9.083-4.775H79.1V30.525a1.794,1.794,0,0,0,.409,1.424,2.408,2.408,0,0,0,1.35.5v.964Zm190.974-.01V7.846q0-1.56-1.83-1.561V5.413L267.347.638h.823V30.515a1.8,1.8,0,0,0,.481,1.424,2.406,2.406,0,0,0,1.35.505v.964Zm-58.565,0v-.965a2.411,2.411,0,0,0,1.35-.5,1.8,1.8,0,0,0,.48-1.424V16.695q0-1.56-1.83-1.561v-.872l9.012-4.776h.823V30.515a1.8,1.8,0,0,0,.481,1.424,2.408,2.408,0,0,0,1.35.5v.965Zm-14.583,0v-.965q1.647-.045,1.647-1.193a2.774,2.774,0,0,0-.412-1.331l-5.33-9.472,5.468-4.669q1.922-1.652,1.921-2.8c0-1.051-.479-1.791-3.041-1.974v-.918h11.5V11a8.205,8.205,0,0,0-2.86.8,14.2,14.2,0,0,0-2.951,1.86L189.486,16.6l8.143,13.728a8.288,8.288,0,0,0,1.1,1.446,1.877,1.877,0,0,0,1.144.666v.965Zm-14.986,0v-.965a2.4,2.4,0,0,0,1.349-.5,1.8,1.8,0,0,0,.481-1.424V7.846q0-1.56-1.83-1.561V5.413L181.041.638h.824V30.515a1.8,1.8,0,0,0,.481,1.424,2.4,2.4,0,0,0,1.35.5v.965Zm-20.336,0v-.965a2.412,2.412,0,0,0,1.35-.5,1.8,1.8,0,0,0,.48-1.424V16.465q0-1.56-1.83-1.561v-.872l9.083-4.775h.824l0,20.759v.5a1.387,1.387,0,0,0,.535,1.3,5.541,5.541,0,0,0,2.281.624v.965Zm-37.322,0V7.846q0-1.56-1.83-1.561V5.413L121.553.638h.824V30.515a1.8,1.8,0,0,0,.481,1.424,2.4,2.4,0,0,0,1.349.5v.965Zm-57.268,0v-5.05l-.035-5.785V13.445a2.359,2.359,0,0,0-.548-1.813,3.038,3.038,0,0,0-1.785-.574v-.964H65.075V30.515a1.8,1.8,0,0,0,.48,1.424,2.411,2.411,0,0,0,1.35.5v.964Zm172.856,0V32.44a2.406,2.406,0,0,0,1.349-.5,1.8,1.8,0,0,0,.48-1.423V17.069a6.335,6.335,0,0,0-.663-3.189,2.164,2.164,0,0,0-1.989-1.124,4.522,4.522,0,0,0-3.177,1.954V13.446c.366-.863,1.451-3.948,6.515-3.948a6.966,6.966,0,0,1,5.4,2.088,8.325,8.325,0,0,1,1.92,5.85V30.513a1.8,1.8,0,0,0,.48,1.423,2.406,2.406,0,0,0,1.349.5V33.4Zm-145.793,0V32.44a2.406,2.406,0,0,0,1.349-.5,1.8,1.8,0,0,0,.48-1.423V17.069a6.335,6.335,0,0,0-.663-3.189,2.164,2.164,0,0,0-1.989-1.124,4.523,4.523,0,0,0-3.177,1.954V13.446c.366-.863,1.451-3.948,6.515-3.948a6.963,6.963,0,0,1,5.395,2.088A8.321,8.321,0,0,1,94,17.436V30.513a1.8,1.8,0,0,0,.48,1.423,2.406,2.406,0,0,0,1.349.5V33.4Zm81.316-18.077c-.464-.879-.834-2.65-1.555-2.65a1.691,1.691,0,0,0-1.255.53v-.878a6.631,6.631,0,0,1,.912-1.224A5.149,5.149,0,0,1,167.31,9.5a4.516,4.516,0,0,1,3.2,1.148,3.884,3.884,0,0,1,1.234,2.982,3.452,3.452,0,0,1-.983,2.547,3.314,3.314,0,0,1-2.446.986A3.106,3.106,0,0,1,165.482,15.326ZM203.155,4.292a4.277,4.277,0,1,1,4.277,4.292A4.284,4.284,0,0,1,203.155,4.292Zm-170.4,0a4.277,4.277,0,1,1,4.277,4.292A4.284,4.284,0,0,1,32.759,4.292Z" fill="#191919"/></svg>