<svg width="32" height="32" viewBox="0 0 32 32" fill="none" xmlns="http://www.w3.org/2000/svg">
<circle cx="16" cy="16" r="16" fill="white"/>
<path d="M8.39453 15.9995C8.39453 15.4939 8.74087 15.0772 9.18706 15.0203L9.29168 15.0137H22.7491C23.2446 15.0137 23.6462 15.455 23.6462 15.9995C23.6462 16.5051 23.2999 16.9218 22.8537 16.9787L22.7491 16.9854L9.29168 16.9854C8.7962 16.9854 8.39453 16.544 8.39453 15.9995Z" fill="#191919"/>
<path d="M16.021 8.37402C16.5266 8.37402 16.9433 8.72036 17.0002 9.16655L17.0069 9.27117V22.7286C17.0069 23.2241 16.5655 23.6257 16.021 23.6257C15.5154 23.6257 15.0987 23.2794 15.0418 22.8332L15.0352 22.7286L15.0352 9.27117C15.0352 8.77569 15.4765 8.37402 16.021 8.37402Z" fill="#191919"/>
</svg>
