<svg width="1440" height="750" viewBox="0 0 1440 750" fill="none" xmlns="http://www.w3.org/2000/svg">
<g clip-path="url(#clip0_3167_49668)">
<mask id="mask0_3167_49668" style="mask-type:alpha" maskUnits="userSpaceOnUse" x="0" y="-693" width="1458" height="1443">
<path d="M0 -568L1457.5 -692.593L1456.5 540.5L10 750L0 -568Z" fill="#303D78"/>
</mask>
<g mask="url(#mask0_3167_49668)">
<path d="M1328.38 387.793L1453.79 351.737L1466.33 564.937C1256.27 616.669 832.062 719.82 815.758 718.566C799.455 717.311 273.877 764.027 13.1259 787.542L-16.6593 312.546L83.6697 321.952L249.84 441.093L328.222 484.987C353.304 486.032 405.663 487.495 414.442 484.987C425.416 481.851 511.636 461.472 527.312 455.202C542.989 448.931 553.962 448.931 574.341 441.093C594.721 433.255 635.479 423.849 646.453 416.011C655.232 409.74 712.816 403.992 740.511 401.902L958.414 416.011L1101.07 423.849L1328.38 387.793Z" fill="#CC9966"/>
<path d="M1743.22 547.402C1714.88 562.692 1686.47 577.564 1657.28 590.625C1627.94 603.725 1597.89 614.989 1567.77 625.965C1537.65 636.941 1507.4 647.681 1476.55 656.692C1445.83 665.644 1414.54 672.869 1383.15 680.005C1336.55 690.605 1289.89 700.18 1242.91 707.534C1195.82 714.919 1148.44 720.075 1101.05 725.074C1053.69 730.064 1006.27 734.896 958.722 738.352C911.217 741.809 863.596 743.882 816.006 746.636C789.127 748.2 762.24 750.104 735.31 751.197C708.38 752.289 681.407 752.571 654.517 754.162C627.609 755.761 600.812 758.68 574.043 761.767C547.321 764.855 520.573 768.09 494.102 773.627C478.85 776.821 463.951 779.792 449.111 780.807C433.742 781.853 418.601 780.868 403.597 779.374C388.546 777.878 373.503 775.84 358.775 771.554C344.539 767.411 330.759 761.138 316.772 754.192C312.767 752.202 308.362 750.993 304.297 749.074C300.241 747.173 296.536 744.535 292.451 742.67C288.384 740.797 283.937 739.697 279.87 737.823C275.803 735.95 272.079 733.32 268.004 731.428C254.343 725.013 240.367 719.162 226.697 712.728C213.019 706.275 199.612 699.21 185.671 693.389C171.722 687.549 157.294 682.973 142.856 678.426C128.527 673.919 114.078 669.399 98.9978 666.816C82.9892 664.08 68.0621 664.033 54.2384 665.096C38.5094 666.299 23.9195 669.202 10.7789 675.42C-2.38055 681.645 -13.8533 691.058 -24.708 702.421C-34.2648 712.429 -43.6644 723.962 -51.6147 738.046C-53.3995 741.208 -54.4004 744.812 -56.0865 748.044C-57.7728 751.275 -60.1364 754.153 -61.7326 757.435C-63.3288 760.717 -64.1361 764.348 -65.6778 767.651C-67.2193 770.954 -69.4949 773.928 -70.9903 777.233C-76.208 788.658 -80.2745 800.588 -85.0852 812.217C-89.8962 823.845 -95.4599 835.153 -100.56 846.639C-105.68 858.133 -110.364 869.841 -116.469 880.848C-122.534 891.792 -129.941 901.956 -137.651 912.097C-146.44 923.631 -155.546 933.89 -165.973 941.632C-177.323 950.048 -189.945 955.498 -202.876 959.334C-215.826 963.178 -229.36 965.505 -243.488 964.66C-256.5 963.884 -269.771 960.283 -283.473 955.457C-291.12 952.754 -298.859 950.405 -306.101 946.985C-313.397 943.544 -320.104 939.036 -327.096 935.058C-334.069 931.071 -341.353 927.557 -348.15 923.202C-354.921 918.857 -361.142 913.71 -367.822 909.212C-376.742 903.185 -386.048 897.664 -394.896 891.492C-403.726 885.313 -412.124 878.473 -421.084 872.508C-430.063 866.551 -439.623 861.478 -448.963 856.083C-458.267 850.718 -467.443 844.982 -477.357 840.536C-492.265 833.86 -506.885 830.38 -520.649 828.521C-536.391 826.385 -551.386 826.593 -565.404 830.682C-579.433 834.797 -592.138 842.708 -604.19 853.004C-614.735 862.01 -625.082 872.836 -633.922 886.547C-639.935 895.875 -644.556 905.894 -649.399 915.719C-654.263 925.597 -659.409 935.352 -663.438 945.583C-667.475 955.794 -670.422 966.425 -674.007 976.841C-677.581 987.231 -681.82 997.396 -685.323 1007.84C-692.242 1028.48 -697.608 1049.55 -703.466 1070.48C-709.325 1091.42 -715.642 1112.23 -721.272 1133.22C-726.894 1154.23 -731.829 1175.41 -738.1 1196.23C-744.351 1217.04 -751.924 1237.42 -759.644 1257.78C-763.207 1267.18 -766.27 1276.78 -770.545 1285.79C-774.852 1294.89 -780.323 1303.35 -785.672 1311.78C-791.032 1320.24 -796.295 1328.81 -803.017 1336.34C-809.583 1343.71 -817.429 1349.98 -825.617 1356.25C-836.066 1364.25 -846.556 1371.19 -857.831 1376C-869.561 1381.01 -881.928 1383.73 -894.325 1386.12C-906.658 1388.5 -919.126 1390.63 -931.873 1391.26C-944.397 1391.89 -957.091 1391.07 -969.806 1390.86C-982.529 1390.63 -995.273 1390.81 -1007.96 1390.01C-1020.64 1389.2 -1033.29 1387.41 -1045.97 1386.52C-1058.67 1385.63 -1071.42 1385.61 -1084.13 1385.09C-1096.83 1384.56 -1109.55 1383.52 -1122.29 1383.86C-1129.72 1384.05 -1137.08 1385.26 -1144.42 1385.94C-1151.83 1386.63 -1159.26 1386.8 -1166.52 1388.19C-1173.77 1389.58 -1180.73 1392.19 -1187.79 1394.52C-1194.74 1396.81 -1201.9 1398.83 -1208.6 1402.22C-1219.67 1407.82 -1229.14 1415.1 -1238.15 1422.48C-1247.47 1430.16 -1256.37 1438.13 -1263.88 1447.36C-1271.38 1456.55 -1277.41 1466.9 -1283.57 1477.23C-1289.6 1487.38 -1295.83 1497.61 -1301 1508.47C-1307.97 1523.14 -1313.83 1538.25 -1320.24 1553.15C-1326.64 1568.03 -1333.57 1582.72 -1339.6 1597.78C-1345.62 1612.83 -1350.72 1628.25 -1356.54 1643.37C-1362.35 1658.49 -1368.9 1673.35 -1374.7 1688.49C-1381.9 1707.27 -1388.37 1726.32 -1395.98 1744.89C-1403.6 1763.53 -1412.36 1781.65 -1421.05 1799.73C-1429.76 1817.86 -1438.44 1836.01 -1448.88 1853.23C-1459.24 1870.3 -1471.32 1886.4 -1484.03 1902.28C-1490.57 1910.42 -1496.83 1918.6 -1504.1 1925.65C-1511.55 1932.87 -1519.95 1938.85 -1528.3 1944.76C-1536.65 1950.7 -1545.08 1956.64 -1554.47 1961.1C-1563.59 1965.44 -1573.51 1968.29 -1583.68 1971.12C-1597.1 1974.83 -1610.34 1978.06 -1623.73 1979.4C-1637.37 1980.77 -1651.02 1980.23 -1664.62 1979.66C-1678.22 1979.1 -1691.88 1978.54 -1705.42 1976.61C-1718.88 1974.69 -1732.15 1971.4 -1745.55 1968.66C-1760.68 1965.56 -1775.99 1963.13 -1791.1 1959.83C-1806.2 1956.54 -1821.1 1952.38 -1836.21 1949.02C-1851.29 1945.68 -1866.57 1943.14 -1881.68 1939.85C-1896.8 1936.56 -1911.74 1932.55 -1926.88 1929.48C-1932.48 1928.34 -1938.26 1928.06 -1943.92 1927.08C-1949.57 1926.13 -1955.12 1924.48 -1960.82 1923.91C-1966.51 1923.33 -1972.28 1923.82 -1978.02 1923.85C-1979.53 1923.86 -1981.08 1923.82 -1982.63 1923.81L-1975.45 1939.96C-1971.64 1940.15 -1967.86 1940.44 -1964.13 1941.05C-1956.01 1942.33 -1948.16 1944.88 -1940.19 1946.88C-1932.24 1948.89 -1924.12 1950.37 -1916.25 1952.76C-1908.39 1955.12 -1900.79 1958.38 -1892.95 1960.75C-1876.09 1965.86 -1859.14 1970.62 -1842.44 1976.29C-1825.77 1981.94 -1809.38 1988.49 -1792.65 1993.98C-1775.91 1999.47 -1758.87 2003.93 -1741.84 2008.55C-1724.88 2013.17 -1707.92 2017.95 -1690.47 2020.98C-1669.8 2024.54 -1649.97 2025.02 -1631.09 2023.93C-1610.66 2022.77 -1591.09 2019.68 -1572.74 2012.97C-1554.39 2006.26 -1537.47 1996.03 -1521.21 1983.64C-1506.23 1972.24 -1491.57 1959.01 -1478.34 1942.7C-1467.26 1929.03 -1457.63 1914.46 -1447.87 1900.03C-1438.06 1885.54 -1428.14 1871.15 -1419.32 1856.08C-1410.49 1841.02 -1402.78 1825.34 -1394.56 1809.92C-1386.33 1794.53 -1377.6 1779.4 -1369.59 1763.86C-1361.51 1748.1 -1354.21 1731.94 -1346.07 1716.23C-1337.93 1700.49 -1328.98 1685.21 -1320.51 1669.64C-1312.04 1654.07 -1304.07 1638.25 -1294.97 1623.03C-1285.9 1607.85 -1275.74 1593.31 -1265.76 1578.61C-1250.83 1556.66 -1235.37 1536.36 -1217.9 1519C-1199.36 1500.55 -1178.77 1485.48 -1156.99 1472.75C-1135.14 1460 -1111.92 1449.49 -1086.44 1443.04C-1062.77 1437.05 -1037.36 1434.69 -1010.25 1434.6C-1002.93 1434.58 -995.641 1433.53 -988.343 1433.16C-981.037 1432.8 -973.699 1433.12 -966.393 1432.56C-959.105 1432.01 -951.883 1430.55 -944.582 1429.93C-937.282 1429.3 -929.929 1429.51 -922.633 1428.98C-901.681 1427.41 -882.556 1422.85 -864.919 1416.93C-845.607 1410.45 -827.851 1402.1 -812.409 1390.47C-797.004 1378.86 -784.078 1364.16 -772.419 1347.53C-761.755 1332.32 -751.898 1315.4 -744.254 1296.05C-738.364 1281.09 -733.803 1265.69 -728.817 1250.49C-723.829 1235.23 -718.386 1220.14 -713.89 1204.75C-709.395 1189.35 -705.832 1173.69 -701.41 1158.28C-696.97 1142.87 -691.663 1127.72 -686.876 1112.42C-682.967 1099.93 -679.762 1087.24 -675.455 1074.93C-671.108 1062.56 -665.673 1050.66 -660.42 1038.71C-655.167 1026.75 -650.057 1014.67 -643.373 1003.39C-636.789 992.241 -628.691 981.953 -620.215 971.701C-609.711 958.988 -599.147 947.886 -587.407 939.636C-574.295 930.401 -560.087 924.703 -545.507 921.064C-530.928 917.425 -515.703 915.747 -499.757 917.681C-485.478 919.425 -470.894 924.201 -455.594 930.435C-448.248 933.428 -440.77 936.004 -433.758 939.569C-426.737 943.154 -420.236 947.707 -413.448 951.685C-406.659 955.663 -399.502 959.097 -392.825 963.282C-386.149 967.466 -379.965 972.427 -373.299 976.639C-364.962 981.912 -356.206 986.553 -347.84 991.791C-339.455 997.021 -331.452 1002.87 -322.873 1007.72C-314.285 1012.59 -305.157 1016.44 -296.193 1020.63C-287.273 1024.77 -278.453 1029.25 -268.984 1032.39C-252.936 1037.71 -237.239 1039.64 -222.389 1039.92C-205.965 1040.23 -190.273 1038.28 -175.864 1032.63C-161.454 1026.98 -148.665 1017.73 -136.865 1006.36C-126.203 996.087 -116.073 984.009 -107.977 969.233C-104.266 962.464 -101.641 955.185 -98.5183 948.158C-95.3769 941.123 -91.7281 934.314 -88.9957 927.122C-86.2636 919.93 -84.4695 912.409 -81.9281 905.143C-79.4057 897.886 -76.1447 890.866 -73.6225 883.609C-72.4036 880.089 -71.9779 876.311 -70.759 872.791C-69.5403 869.271 -67.5388 866.035 -66.2928 862.526C-65.0468 859.016 -64.5559 855.232 -63.2469 851.762C-61.9464 848.273 -59.8274 845.099 -58.4178 841.652C-50.5896 822.302 -42.4454 805.395 -32.3347 791.642C-20.29 775.268 -5.93646 763.378 9.95947 754.605C25.8364 745.84 43.5794 740.004 63.9558 738.467C81.0504 737.18 99.798 739.208 120.479 742.789C136.284 745.525 152.001 748.367 167.314 752.643C182.7 756.932 197.62 762.615 212.7 767.846C227.754 773.067 243.015 777.837 257.958 783.42C272.901 789.004 287.545 795.391 302.565 800.739C315.572 805.376 328.87 808.832 341.994 812.408C355.32 816.03 368.548 819.74 382.069 821.66C395.627 823.565 409.329 823.655 423.159 823.218C436.59 822.799 450.264 821.959 464.025 818.769C488.241 813.144 512.427 807.757 536.858 803.991C561.364 800.192 586.05 798.019 610.705 795.523C635.342 793.036 659.984 790.255 684.713 788.535C709.414 786.805 734.211 786.155 758.966 784.648C816.661 781.116 874.301 776.643 931.918 772.427C989.574 768.195 1047.25 764.22 1104.73 758.407C1162.22 752.585 1219.51 744.923 1276.72 736.642C1333.82 728.365 1390.93 719.435 1447.65 707.801C1475.14 702.155 1502.28 695.178 1529.43 688.422C1556.65 681.66 1583.9 675.129 1610.78 667.238C1637.65 659.347 1664.09 650.075 1690.61 641.017C1717.08 631.977 1743.67 623.134 1769.8 612.9C1771.85 612.086 1773.2 610.531 1774.59 609.63C1775.17 609.262 1775.74 608.921 1776.27 608.578L1748.48 546.012C1748.22 546.128 1747.92 546.215 1747.62 546.321C1746.34 546.702 1744.64 546.576 1743.09 547.414L1743.22 547.402Z" fill="#303D78"/>
<path d="M1687.39 431.665C1657.53 462.618 1626.46 490.709 1593.19 514.964C1558.95 539.937 1522.53 560.797 1484.93 579.23C1447.39 597.639 1408.58 613.688 1367.97 626.15C1328.39 638.292 1287.21 646.92 1244.95 653.934C1207.05 660.223 1169.15 665.997 1131.09 669.999C1092.94 673.996 1054.66 676.211 1016.42 678.632C978.165 681.06 939.907 683.691 901.608 685.263C863.31 686.834 824.954 687.309 786.662 688.743C761.675 689.678 736.658 690.851 711.617 691.204C686.567 691.539 661.53 691.037 636.521 691.87C611.492 692.711 586.546 694.908 561.634 697.337C536.796 699.778 511.909 702.465 487.275 707.555C475.139 710.077 463.387 712.34 451.811 712.708C439.613 713.102 427.793 711.445 416.162 709.346C404.465 707.253 392.812 704.647 381.64 699.967C370.959 695.476 360.9 689.073 350.653 682.146C339.663 674.716 328.244 667.9 317.323 660.372C306.402 652.844 295.997 644.595 285.097 637.012C274.197 629.43 262.848 622.516 251.956 614.952C241.065 607.389 230.641 599.148 219.71 591.647C210.605 585.409 200.993 579.91 191.717 573.948C182.415 567.976 173.433 561.504 163.824 556.116C154.188 550.717 143.998 546.414 133.912 541.886C123.888 537.398 113.898 532.626 103.272 529.278C90.2208 525.153 77.7353 523.474 66.0326 522.641C52.7698 521.707 40.2106 522.102 28.4105 525.531C16.5831 528.95 5.78588 535.35 -4.82711 543.286C-14.2001 550.295 -23.732 558.475 -32.3645 569.087C-35.8224 573.321 -38.4947 578.152 -41.7392 582.562C-44.9727 586.944 -48.8079 590.939 -51.8908 595.457C-54.9735 599.975 -57.2749 604.98 -60.232 609.578C-63.1891 614.175 -66.8023 618.365 -69.669 623.012C-76.4268 633.924 -82.1489 645.436 -88.5104 656.578C-94.8719 667.72 -101.892 678.5 -108.352 689.573C-114.803 700.664 -120.725 712.084 -127.761 722.827C-134.76 733.552 -142.853 743.546 -150.877 753.645C-156.028 760.126 -160.739 766.885 -166.354 772.783C-172.045 778.761 -178.589 783.788 -184.944 788.934C-191.31 794.108 -197.557 799.498 -204.724 803.632C-211.729 807.672 -219.513 810.415 -227.448 813.225C-237.741 816.89 -247.616 819.766 -257.458 820.473C-267.952 821.241 -278.154 819.659 -288.19 817.69C-298.198 815.732 -308.241 813.339 -317.896 809.273C-327.196 805.343 -335.986 799.864 -345.043 794.547C-354.802 788.821 -364.683 783.327 -373.877 776.836C-383.079 770.327 -391.558 762.849 -400.422 755.877C-409.278 748.923 -418.556 742.447 -427.313 735.36C-436.07 728.273 -444.324 720.539 -453.228 713.63C-459.715 708.599 -466.735 704.251 -473.361 699.416C-479.996 694.563 -486.252 689.184 -493.157 684.741C-500.08 680.306 -507.562 676.856 -514.888 673.092C-522.152 669.368 -529.314 665.262 -537.12 662.404C-549.54 657.868 -561.62 656.033 -572.947 655.281C-585.769 654.423 -597.938 655.186 -609.179 659.111C-620.42 663.035 -630.385 670.035 -639.839 678.696C-648.187 686.334 -656.442 695.299 -663.264 706.576C-666.841 712.478 -669.415 718.905 -672.512 725.022C-675.619 731.167 -679.242 737.066 -681.885 743.389C-684.547 749.72 -686.2 756.438 -688.453 762.926C-690.688 769.406 -693.543 775.709 -695.423 782.325C-702.925 808.826 -708.881 835.703 -715.128 862.484C-721.366 889.283 -727.907 916.013 -733.34 942.997C-738.762 969.954 -743.085 997.147 -748.15 1024.19C-753.216 1051.24 -759.024 1078.14 -764.171 1105.16C-766.687 1118.34 -768.569 1131.62 -771.633 1144.64C-774.698 1157.7 -778.96 1170.41 -782.966 1183.19C-786.972 1195.97 -790.732 1208.84 -796.033 1221.2C-801.272 1233.44 -807.963 1245.07 -814.805 1256.76C-820.646 1266.73 -826.49 1276.18 -833.694 1284.1C-841.319 1292.5 -850.229 1299.13 -859.399 1305.22C-868.57 1311.31 -878.136 1316.97 -888.851 1320.75C-898.972 1324.29 -909.985 1326.03 -921.523 1327.51C-934.105 1329.12 -946.581 1330.67 -959.03 1330.7C-971.618 1330.73 -984.112 1329.24 -996.595 1328.07C-1009.08 1326.91 -1021.62 1326.06 -1034.05 1324.11C-1046.43 1322.16 -1058.63 1319.12 -1071 1316.81C-1086.44 1313.91 -1101.96 1311.46 -1117.31 1308.12C-1132.67 1304.76 -1147.81 1300.52 -1163.18 1297.23C-1178.55 1293.94 -1194.13 1291.67 -1209.6 1289.01C-1225.08 1286.36 -1240.51 1283.34 -1256.19 1281.86C-1263.77 1281.14 -1271.39 1281.46 -1278.91 1281.32C-1286.52 1281.19 -1294.14 1280.6 -1301.63 1281.35C-1309.17 1282.11 -1316.47 1284.19 -1323.82 1286.14C-1331.03 1288.04 -1338.42 1289.83 -1345.4 1293.16C-1354.49 1297.51 -1361.73 1303.45 -1368.27 1309.46C-1375.33 1315.97 -1381.69 1322.85 -1386.32 1330.9C-1390.94 1338.89 -1393.75 1347.89 -1396.56 1357.01C-1399.25 1365.77 -1402.06 1374.75 -1403.59 1384.15C-1406 1398.86 -1407.07 1413.69 -1408.58 1428.47C-1410.11 1443.26 -1412.09 1458.02 -1413.01 1472.86C-1413.93 1487.69 -1413.79 1502.58 -1414.41 1517.42C-1415.03 1532.28 -1416.41 1547.1 -1417.01 1561.95C-1417.62 1576.81 -1417.45 1591.7 -1418.4 1606.53C-1419.34 1621.37 -1421.39 1636.12 -1423.04 1650.89C-1424.69 1665.67 -1425.99 1680.49 -1428.75 1695.13C-1431.49 1709.68 -1435.69 1723.96 -1439.9 1738.31C-1444.62 1754.37 -1449.67 1769.8 -1456.71 1783.89C-1464.12 1798.68 -1473.57 1811.88 -1483.86 1824.2C-1494.18 1836.57 -1505.47 1848.23 -1519 1857.85C-1531.76 1866.91 -1546.41 1873.97 -1562.28 1880.35C-1573.24 1884.76 -1584.11 1889.26 -1595.34 1892.39C-1606.67 1895.55 -1618.3 1897.27 -1629.87 1899.24C-1641.43 1901.22 -1652.96 1903.48 -1664.68 1904.43C-1676.34 1905.37 -1688.11 1905.01 -1699.89 1905.07C-1720.75 1905.16 -1741.62 1905.95 -1762.5 1905.84C-1783.36 1905.73 -1804.23 1904.72 -1825.1 1904.53C-1845.98 1904.33 -1866.86 1904.94 -1887.71 1904.78C-1908.57 1904.63 -1929.45 1903.67 -1950.31 1903.64C-1954.61 1903.65 -1958.93 1904.46 -1963.25 1904.57C-1967.57 1904.67 -1971.93 1904.02 -1976.23 1904.41C-1980.54 1904.79 -1984.69 1906.19 -1988.93 1907.04C-1989.24 1907.11 -1989.56 1907.16 -1989.86 1907.2L-1985.93 1916.05C-1978.68 1915.09 -1971.48 1914.3 -1964.22 1914.08C-1952.82 1913.74 -1941.45 1914.79 -1930.08 1915.39C-1918.72 1915.99 -1907.3 1916.14 -1895.97 1917.32C-1884.66 1918.48 -1873.44 1920.67 -1862.14 1922.04C-1847.44 1923.8 -1832.67 1925.02 -1818.03 1927.12C-1803.39 1929.22 -1788.86 1932.16 -1774.19 1934.11C-1759.52 1936.07 -1744.72 1937.05 -1729.98 1938.46C-1715.27 1939.85 -1700.56 1941.7 -1685.74 1942.13C-1673.34 1942.48 -1661.04 1941.61 -1648.85 1940.95C-1636.5 1940.29 -1624.16 1939.86 -1612.08 1937.76C-1599.98 1935.68 -1588.25 1931.99 -1576.48 1928.08C-1564.99 1924.25 -1553.37 1920.23 -1542.29 1914.31C-1527.94 1906.62 -1516 1896.94 -1505.16 1886.83C-1493.69 1876.14 -1483.35 1864.78 -1474.96 1851.94C-1466.61 1839.16 -1460.34 1825.08 -1454.24 1810.73C-1448.32 1796.77 -1442.46 1782.51 -1437.89 1767.59C-1432.01 1748.43 -1427.76 1728.88 -1423.19 1709.43C-1418.62 1689.96 -1413.71 1670.57 -1409.75 1650.96C-1405.79 1631.36 -1402.77 1611.56 -1398.73 1591.99C-1394.69 1572.42 -1389.61 1553.04 -1384.77 1533.63C-1381.83 1521.82 -1379.59 1509.86 -1376.22 1498.19C-1372.84 1486.49 -1368.38 1475.15 -1364.21 1463.76C-1360.03 1452.34 -1356.12 1440.82 -1350.74 1429.86C-1345.42 1419.02 -1338.71 1408.87 -1331.86 1398.63C-1325.22 1388.72 -1318.6 1379.39 -1310.69 1371.72C-1302.3 1363.57 -1292.69 1357.36 -1282.81 1351.79C-1272.95 1346.22 -1262.65 1341.21 -1251.27 1338.3C-1240.61 1335.57 -1229.16 1334.83 -1217.11 1334.5C-1207.34 1334.24 -1197.6 1333.57 -1187.91 1334.08C-1178.19 1334.59 -1168.56 1336.25 -1158.9 1337.32C-1149.24 1338.4 -1139.49 1338.86 -1129.86 1340.27C-1120.23 1341.67 -1110.76 1344 -1101.16 1345.51C-1088.44 1347.51 -1075.57 1348.82 -1062.86 1350.85C-1050.13 1352.89 -1037.51 1355.68 -1024.75 1357.37C-1011.98 1359.09 -999.088 1359.69 -986.215 1360.66C-973.389 1361.63 -960.554 1362.98 -947.62 1362.86C-938.475 1362.78 -929.45 1361.55 -920.506 1360.66C-911.423 1359.77 -902.318 1359.18 -893.533 1357.17C-884.709 1355.14 -876.315 1351.68 -867.884 1348.2C-859.642 1344.81 -851.232 1341.38 -843.455 1336.33C-833.239 1329.69 -824.891 1321.49 -817.105 1313.2C-809.014 1304.58 -801.429 1295.69 -795.403 1285.72C-789.388 1275.79 -784.985 1264.92 -780.407 1254.09C-775.921 1243.41 -771.182 1232.69 -767.543 1221.53C-760.661 1200.51 -755.59 1179.03 -750.301 1157.63C-745.02 1136.21 -739.491 1114.84 -734.924 1093.24C-730.348 1071.66 -726.745 1049.88 -722.003 1028.32C-717.253 1006.77 -711.414 985.489 -705.611 964.178C-701.763 950.077 -698.955 935.669 -695.235 921.535C-691.504 907.373 -686.869 893.465 -682.601 879.494C-678.322 865.495 -674.39 851.38 -668.909 837.796C-663.46 824.294 -656.505 811.433 -649.197 798.552C-641.363 784.766 -633.323 772.82 -623.776 763.759C-612.614 753.136 -599.914 746.438 -586.578 742.29C-573.28 738.159 -558.98 736.438 -543.701 738.754C-530.647 740.745 -517.126 745.875 -502.747 752.582C-494.725 756.332 -486.585 759.739 -479.042 764.194C-471.452 768.651 -464.524 774.116 -457.256 779.073C-449.996 784.011 -442.39 788.506 -435.32 793.729C-428.249 798.953 -421.753 804.922 -414.723 810.208C-406.773 816.19 -398.368 821.568 -390.389 827.515C-382.409 833.462 -374.866 840.004 -366.678 845.657C-358.49 851.31 -349.692 856.044 -341.113 861.099C-332.581 866.152 -324.205 871.566 -315.094 875.781C-301.456 882.094 -287.743 885.569 -274.57 887.777C-260.14 890.219 -246.037 891.008 -232.349 888.569C-218.689 886.119 -205.744 880.481 -193.051 873.204C-181.483 866.555 -169.857 858.556 -159.25 847.907C-152.402 841.019 -146.759 833.2 -140.934 825.638C-135.069 818.013 -128.952 810.547 -123.858 802.408C-118.756 794.288 -114.698 785.549 -110.08 777.102C-105.472 768.683 -100.305 760.557 -95.9134 752.008C-91.2071 742.895 -87.3773 733.335 -82.7612 724.172C-78.1451 715.008 -72.7425 706.24 -67.9187 697.187C-63.0762 688.126 -58.7934 678.772 -53.4371 670.001C-48.1103 661.266 -41.7583 653.159 -35.6284 644.857C-28.0895 634.635 -20.5515 625.378 -11.8459 618.19C-2.29168 610.315 8.38874 604.976 19.3386 600.753C30.3073 596.522 41.8084 593.336 54.1918 592.748C65.4976 592.23 77.3296 594.016 89.8399 596.515C100.543 598.663 111.176 600.706 121.346 604.097C131.617 607.512 141.349 612.263 151.203 616.623C161.057 620.984 171.113 624.987 180.705 629.979C190.26 634.942 199.334 640.857 208.754 646.126C221.502 653.234 234.501 659.94 247.035 667.434C259.55 674.935 271.61 683.243 284.136 690.718C296.689 698.203 309.709 704.855 322.497 711.901C335.276 718.927 347.859 726.377 361.132 732.581C369.807 736.629 378.838 739.241 387.672 741.917C396.752 744.687 405.737 747.499 414.985 748.714C424.252 749.921 433.663 749.516 443.133 749.04C452.323 748.597 461.717 748.154 471.13 746.02C487.556 742.311 503.909 738.387 520.466 735.788C537.079 733.164 553.832 731.87 570.558 730.162C587.257 728.443 603.949 726.301 620.723 725.312C637.49 724.304 654.302 724.42 671.109 723.911C715.666 722.578 760.205 720.287 804.713 718.436C849.267 716.588 893.829 715.163 938.304 712.271C982.78 709.38 1027.15 704.985 1071.5 700.487C1115.82 696.007 1160.14 691.407 1204.29 684.776C1246.69 678.421 1288.38 669.661 1329.54 659.874C1371.11 649.977 1412.23 638.974 1452.34 624.98C1492.45 610.987 1531.46 594.045 1569.89 575.403C1607.79 556.993 1645.23 536.898 1681.3 513.39C1689.55 508.02 1695.86 502.936 1701.3 499.09C1710.56 492.534 1716.6 487.998 1718.86 482.247C1719.1 481.623 1719.27 480.988 1719.43 480.333L1695.34 426.088C1694.56 426.566 1693.72 427.18 1692.79 427.835C1691.33 428.88 1689.18 429.735 1687.37 431.609L1687.39 431.665Z" fill="#303D78"/>
<path d="M1626.73 279.278C1625.42 280.394 1624.68 282.29 1623.42 283.537C1622.01 284.942 1620.12 285.636 1618.99 286.557C1604.07 298.586 1589.81 311.399 1574.92 323.456C1560.02 335.541 1544.53 346.853 1529.26 358.423C1513.99 370.021 1498.92 381.886 1482.89 392.447C1466.93 402.955 1450.07 412.106 1432.98 421.044C1410.46 432.817 1387.8 443.591 1364.45 452.07C1340.76 460.671 1316.43 466.907 1292 472.604C1267.6 478.311 1243.02 483.487 1218.03 486.804C1193.25 490.094 1168.15 491.484 1142.94 492.923C1109.07 494.84 1075.27 496.567 1041.47 496.612C1007.61 496.662 973.796 494.986 939.986 493.42C906.194 491.846 872.378 490.372 838.643 487.449C804.954 484.528 771.39 480.206 737.763 476.203C721.336 474.256 704.942 473.911 688.701 473.656C672.237 473.409 655.834 473.247 639.588 474.969C623.343 476.691 607.358 480.274 591.339 484.185C575.629 488.029 559.792 492.198 544.328 498.38C535.458 501.937 526.858 506.205 517.904 509.575C508.95 512.944 499.688 515.416 490.622 518.43C481.564 521.464 472.664 525.056 463.418 527.566C454.211 530.059 444.724 531.463 435.308 533.284C416.263 536.953 397.99 539.049 380.268 538.209C361.502 537.312 343.548 533.252 326.035 527.944C308.577 522.657 291.367 516.094 274.943 507.075C259.186 498.438 244.319 487.524 229.312 476.044C218.725 467.942 207.922 460.07 197.769 451.419C187.616 442.768 178.102 433.366 167.957 424.733C157.804 416.082 146.993 408.191 136.425 400.082C125.856 391.972 115.45 383.567 104.061 376.514C91.5572 368.783 79.1971 363.973 67.6181 360.617C53.8922 356.654 40.8167 354.919 28.1532 357.067C15.5465 359.189 3.73621 365.091 -8.00738 373.231C-17.949 380.131 -28.1686 388.545 -37.6345 399.726C-43.7483 406.943 -48.6235 414.964 -53.754 422.715C-58.916 430.547 -64.3657 438.191 -68.7876 446.417C-73.2097 454.642 -76.6294 463.393 -80.6279 471.859C-84.6158 480.298 -89.2122 488.488 -93.0388 497.036C-97.1655 506.232 -100.46 515.825 -104.606 525.029C-108.77 534.242 -113.776 543.038 -118.301 552.049C-122.827 561.061 -126.912 570.351 -132.169 578.988C-137.405 587.571 -143.746 595.449 -150.038 603.486C-159.927 616.108 -170.231 627.387 -181.93 636.137C-194.484 645.508 -208.403 651.909 -222.688 656.721C-237 661.522 -251.961 664.812 -267.655 664.923C-282.311 665.027 -297.373 662.234 -312.907 658.122C-321.647 655.809 -330.423 653.825 -338.789 650.674C-347.182 647.513 -355.112 643.206 -363.224 639.405C-371.337 635.604 -379.694 632.269 -387.628 628.054C-395.517 623.84 -402.944 618.729 -410.747 614.298C-422.147 607.833 -433.818 601.824 -445.074 595.071C-456.329 588.318 -467.143 580.877 -478.513 574.376C-489.891 567.856 -501.789 562.306 -513.564 556.521C-525.293 550.739 -536.943 544.676 -549.334 540.104C-557.948 536.905 -566.855 534.98 -575.542 532.89C-584.458 530.743 -593.285 528.491 -602.268 527.922C-611.29 527.371 -620.302 528.521 -629.357 529.982C-638.038 531.369 -646.971 533.001 -655.697 536.629C-665.851 540.862 -674.106 546.977 -681.63 553.31C-689.648 560.061 -696.948 567.306 -702.699 575.8C-708.409 584.232 -712.451 593.772 -716.667 603.277C-720.801 612.61 -725.159 621.997 -728.533 631.716C-736.444 654.446 -742.222 677.698 -747.897 700.929C-753.593 724.213 -759.197 747.501 -763.519 771.08C-767.848 794.64 -770.883 818.416 -774.717 842.073C-778.552 865.729 -783.194 889.247 -787.413 912.803C-790.586 930.513 -792.602 948.433 -795.472 966.213C-798.343 983.992 -802.087 1001.64 -805.462 1019.3C-808.847 1036.99 -811.875 1054.77 -816.569 1072.17C-821.251 1089.48 -827.559 1106.35 -834.348 1123.2C-837.543 1131.13 -840.175 1139.31 -843.938 1146.93C-847.733 1154.64 -852.607 1161.69 -857.288 1168.78C-861.99 1175.91 -866.55 1183.17 -872.459 1189.42C-878.231 1195.52 -885.19 1200.53 -892.408 1205.51C-901.63 1211.9 -910.784 1217.26 -920.491 1220.51C-930.716 1223.92 -941.337 1225.02 -951.952 1225.82C-962.476 1226.62 -973.172 1227.18 -983.892 1226.32C-994.435 1225.45 -1004.94 1223.2 -1015.51 1221.55C-1030.65 1219.2 -1045.83 1217.29 -1060.83 1214.29C-1075.83 1211.29 -1090.59 1207.17 -1105.48 1203.7C-1120.37 1200.22 -1135.41 1197.38 -1150.26 1193.64C-1165.08 1189.91 -1179.69 1185.28 -1194.5 1181.48C-1209.56 1177.61 -1224.83 1174.64 -1239.98 1171.19C-1255.16 1167.73 -1270.23 1163.79 -1285.54 1161.2C-1300.87 1158.61 -1316.37 1157.43 -1331.92 1156.19C-1347.34 1154.98 -1362.84 1153.7 -1378.53 1154.28C-1395.65 1154.9 -1410.65 1157.89 -1423.93 1161.82C-1439.95 1166.54 -1453.63 1173.06 -1464.44 1182.96C-1475.21 1192.88 -1482.81 1205.91 -1488.81 1221.43C-1493.78 1234.25 -1497.98 1248.86 -1499.93 1265.77C-1501.38 1278.23 -1501.23 1290.71 -1501.34 1303.13C-1501.45 1315.61 -1501.84 1328.08 -1501 1340.53C-1500.16 1352.95 -1498.14 1365.29 -1496.76 1377.67C-1495.39 1390.07 -1494.68 1402.53 -1493.16 1414.9C-1491.06 1432 -1487.86 1449 -1485.55 1466.1C-1483.23 1483.2 -1481.79 1500.41 -1479.92 1517.54C-1478.03 1534.69 -1475.7 1551.8 -1474.91 1569.06C-1474.12 1586.23 -1474.88 1603.47 -1475.83 1620.79C-1476.53 1633.71 -1477.37 1646.2 -1480.17 1657.91C-1483.17 1670.36 -1488.24 1681.76 -1494.09 1692.57C-1499.99 1703.42 -1506.8 1713.86 -1516.14 1722.74C-1524.71 1730.9 -1535.3 1737.5 -1547.19 1743.78C-1554.3 1747.53 -1561.19 1751.63 -1568.57 1754.58C-1576 1757.55 -1583.84 1759.37 -1591.5 1761.57C-1599.18 1763.77 -1606.78 1766.39 -1614.64 1767.84C-1622.48 1769.28 -1630.51 1769.53 -1638.49 1770.25C-1660.59 1772.23 -1682.65 1774.93 -1704.78 1776.75C-1726.91 1778.56 -1749.1 1779.48 -1771.23 1781.25C-1793.36 1783 -1815.42 1785.59 -1837.56 1787.38C-1859.69 1789.2 -1881.88 1790.23 -1903.99 1792.19C-1915.74 1793.24 -1927.41 1795.18 -1939.13 1796.48C-1950.85 1797.79 -1962.68 1798.47 -1974.35 1800.25C-1986.02 1802.03 -1997.47 1804.94 -2009.02 1807.45C-2016.63 1809.11 -2024.35 1810.62 -2032 1812.45L-2019.15 1841.37C-2016.99 1840.65 -2014.8 1839.96 -2012.61 1839.4C-2006.55 1837.91 -2000.29 1837.4 -1994.15 1836.24C-1988.03 1835.05 -1982.02 1833.2 -1975.88 1832.21C-1969.71 1831.23 -1963.42 1831.12 -1957.27 1830.21C-1931.99 1826.48 -1906.75 1822.65 -1881.36 1820.07C-1855.96 1817.5 -1830.45 1816.18 -1805 1814.21C-1779.55 1812.22 -1754.15 1809.57 -1728.69 1807.6C-1703.24 1805.63 -1677.72 1804.35 -1652.33 1801.85C-1642.44 1800.87 -1632.73 1798.86 -1622.99 1797.32C-1613.18 1795.77 -1603.32 1794.7 -1593.7 1792.36C-1584.1 1790.03 -1574.84 1786.44 -1565.53 1783.07C-1556.31 1779.74 -1546.89 1776.6 -1537.99 1772.04C-1523.9 1764.8 -1512.62 1755.67 -1502.85 1746.13C-1492.06 1735.6 -1483.06 1724.24 -1476.68 1711.35C-1470.36 1698.54 -1466.8 1684.41 -1463.98 1669.72C-1461.32 1655.94 -1459.18 1641.51 -1458.85 1626.47C-1458.54 1612.24 -1459.65 1598.07 -1460.36 1583.9C-1461.07 1569.71 -1461.37 1555.5 -1462.75 1541.38C-1464.14 1527.27 -1466.61 1513.25 -1468.32 1499.16C-1470.03 1485.08 -1471.01 1470.9 -1472.7 1456.8C-1474.46 1442.13 -1477.2 1427.58 -1478.91 1412.91C-1480.64 1398.23 -1481.37 1383.44 -1482.44 1368.72C-1483.49 1353.96 -1484.9 1339.23 -1484.66 1324.44C-1484.42 1309.75 -1482.57 1295.09 -1480.42 1280.32C-1478.3 1265.72 -1475.73 1252.72 -1471.02 1241.63C-1465.42 1228.42 -1457.23 1218.09 -1447.67 1209.56C-1438.11 1201.03 -1426.9 1194.05 -1413.1 1189.87C-1401.49 1186.37 -1388.18 1185.16 -1373.36 1184.55C-1355.93 1183.84 -1338.64 1183.5 -1321.5 1184.86C-1304.24 1186.24 -1287.21 1189.34 -1270.15 1192.19C-1253.12 1195.04 -1236.01 1197.66 -1219.09 1201.32C-1202.22 1204.98 -1185.54 1209.69 -1168.68 1213.53C-1152.15 1217.29 -1135.46 1220.34 -1118.91 1224.07C-1102.37 1227.81 -1085.96 1232.21 -1069.33 1235.43C-1052.68 1238.65 -1035.84 1240.71 -1019.01 1242.95C-1002.25 1245.2 -985.455 1247.66 -968.426 1248.47C-954.446 1249.13 -941.433 1247.41 -929.272 1244.95C-915.943 1242.26 -903.403 1238.46 -892.225 1232.05C-881.067 1225.65 -871.472 1216.75 -862.429 1206.65C-854.171 1197.44 -846.1 1187.14 -839.563 1174.87C-834.627 1165.61 -830.881 1155.86 -826.774 1146.31C-822.646 1136.71 -818.128 1127.28 -814.812 1117.43C-811.458 1107.56 -809.327 1097.33 -806.731 1087.24C-804.164 1077.18 -801.145 1067.17 -799.29 1056.88C-794.723 1031.51 -791.084 1005.99 -786.684 980.603C-782.283 955.216 -777.11 929.939 -772.783 904.54C-768.437 879.133 -764.937 853.603 -760.563 828.206C-756.19 802.809 -750.962 777.554 -746.461 752.19C-744.288 739.969 -742.796 727.643 -740.193 715.525C-737.579 703.38 -733.887 691.524 -730.571 679.587C-727.254 667.65 -724.293 655.576 -719.998 643.905C-715.717 632.307 -710.126 621.212 -704.613 609.994C-697.639 595.8 -690.345 583.396 -681.416 573.708C-670.989 562.397 -658.784 554.84 -645.789 549.72C-632.814 544.608 -618.729 541.791 -603.324 542.863C-590.134 543.784 -576.253 547.791 -561.352 553.28C-552.236 556.641 -543.11 559.772 -534.539 564.045C-525.905 568.358 -517.929 573.789 -509.698 578.773C-501.468 583.757 -492.957 588.303 -484.959 593.68C-476.988 599.047 -469.548 605.208 -461.657 610.699C-452.467 617.08 -442.86 622.873 -433.691 629.307C-424.522 635.742 -415.82 642.808 -406.482 649.011C-397.164 655.223 -387.281 660.514 -377.594 666.182C-367.96 671.829 -358.494 677.864 -348.339 682.698C-330.564 691.145 -313.077 696.038 -296.42 698.961C-277.586 702.253 -259.462 702.826 -242.115 699.05C-224.788 695.282 -208.54 687.252 -192.784 676.431C-178.869 666.866 -164.997 655.166 -152.387 640.114C-145.689 632.124 -140.183 623.333 -134.357 614.805C-128.521 606.25 -122.342 597.905 -117.099 588.982C-111.856 580.059 -107.568 570.613 -102.631 561.511C-97.6936 552.408 -92.117 543.675 -87.1797 534.573C-82.1386 525.245 -77.8379 515.524 -72.6357 506.305C-67.4227 497.059 -61.346 488.331 -55.6407 479.43C-49.9246 470.502 -44.567 461.327 -38.0086 452.972C-31.5092 444.687 -23.8763 437.274 -16.2115 429.78C-8.01155 421.759 -0.177426 414.594 8.33006 409.558C17.9151 403.891 28.0567 400.854 38.256 398.913C48.455 396.972 59.0017 396.068 70.0104 397.835C79.7972 399.397 89.7262 403.164 100.317 407.605C107.958 410.804 115.681 413.677 122.841 417.626C130.037 421.605 136.589 426.629 143.424 431.171C150.259 435.712 157.42 439.818 164.006 444.715C170.592 449.613 176.575 455.291 183.043 460.33C193.043 468.128 203.4 475.455 213.223 483.465C223.047 491.475 232.309 500.158 242.191 508.097C252.073 516.037 262.567 523.214 272.755 530.772C282.916 538.32 292.796 546.305 303.499 553.189C314.667 560.407 326.38 565.747 337.877 570.598C349.973 575.68 362.034 580.172 374.598 582.333C387.189 584.505 400.036 584.297 413.147 583.21C425.469 582.178 438.224 580.44 451.097 576.271C456.236 574.598 461.125 572.161 466.272 570.507C471.419 568.854 476.821 568.031 481.983 566.461C487.155 564.865 492.085 562.521 497.271 561.007C502.458 559.494 507.873 558.8 513.092 557.362C528.611 553.086 544.054 549.405 559.684 547.571C575.491 545.728 591.409 545.766 607.296 545.682C623.157 545.588 639.059 545.386 654.935 546.296C670.792 547.213 686.592 549.278 702.408 550.46C741.571 553.38 780.789 555.153 819.959 557.172C859.174 559.193 898.379 561.444 937.601 562.003C976.851 562.573 1016.07 561.449 1055.33 560.042C1094.49 558.631 1133.7 556.927 1172.85 553.005C1198.64 550.415 1224.1 546.155 1249.35 541.627C1274.82 537.045 1300.15 532.144 1324.86 525.043C1349.6 517.954 1373.65 508.698 1397.47 498.604C1420.95 488.632 1444.32 477.836 1466.74 464.449C1483.22 454.609 1498.55 443.188 1513.81 431.847C1529.14 420.445 1544.48 409.089 1558.99 396.683C1573.49 384.304 1587.14 370.929 1601.23 358.052C1615.31 345.184 1629.87 332.799 1643.96 319.95C1645.1 318.909 1646 317.82 1646.74 316.733L1629.44 277.796C1628.5 278.12 1627.54 278.543 1626.69 279.276L1626.73 279.278Z" fill="#303D78"/>
<path d="M1655.23 352.682C1644.87 364.639 1635.24 377.237 1624.89 389.232C1614.54 401.226 1603.49 412.589 1592.77 424.226C1582.05 435.89 1571.64 447.844 1560.17 458.784C1548.74 469.679 1536.31 479.515 1523.74 489.318C1502.17 506.194 1480.13 521.549 1456.86 534.363C1433.15 547.423 1408.29 557.772 1383.14 567.262C1358.02 576.743 1332.49 585.414 1306.25 592.038C1280.27 598.592 1253.65 603.074 1226.9 607.476C1185.05 614.334 1143.2 620.043 1101.21 623.437C1059.09 626.843 1016.84 627.926 974.612 628.845C932.4 629.755 890.149 630.525 847.898 629.971C805.666 629.408 763.442 627.54 721.213 626.528C700.381 626.021 679.483 625.924 658.608 625.167C637.725 624.391 616.864 622.954 596.014 623.016C575.126 623.095 554.302 624.694 533.523 626.7C512.883 628.713 492.157 631.145 471.657 636.171C458.542 639.391 445.968 641.993 433.648 642.418C420.475 642.859 407.818 640.895 395.428 638.209C383.011 635.512 370.668 632.065 358.871 626.335C347.744 620.939 337.299 613.516 326.588 605.492C316.689 598.076 306.512 591.052 297.005 583.194C287.48 575.345 278.652 566.674 269.352 558.568C260.052 550.463 250.244 542.895 240.993 534.746C231.722 526.606 222.992 517.847 213.584 509.856C205.511 502.985 196.869 496.768 188.619 490.11C180.36 483.433 172.439 476.294 163.801 470.188C155.135 464.071 145.769 459.025 136.485 453.808C127.3 448.66 118.107 443.291 108.092 439.382C97.8321 435.38 87.6047 433.539 77.8233 432.244C67.1851 430.854 56.8241 430.24 46.743 432.039C36.6806 433.83 27.1591 438.009 17.673 442.981C8.93779 447.556 -0.0155673 452.811 -8.28044 460.075C-15.9556 466.833 -22.4931 474.573 -29.1855 482.067C-35.9453 489.613 -42.9185 496.983 -48.928 505.098C-54.9461 513.194 -59.9895 522.006 -65.5336 530.455C-71.0591 538.896 -77.1339 547.016 -82.4539 555.614C-88.8507 565.963 -94.384 576.831 -100.674 587.268C-106.945 597.697 -113.954 607.687 -120.468 617.975C-126.982 628.264 -133.012 638.879 -140.109 648.772C-147.196 658.639 -155.327 667.73 -163.382 676.944C-177.05 692.617 -190.421 705.803 -204.649 715.326C-221.5 726.583 -239.096 732.803 -257.056 735.502C-275.016 738.201 -293.688 737.464 -313.113 731.671C-329.543 726.763 -346.215 718.101 -363.925 707.156C-373.471 701.246 -383.18 695.632 -392.222 689.075C-401.273 682.498 -409.63 674.989 -418.374 668.032C-427.119 661.075 -436.296 654.621 -444.98 647.547C-453.664 640.473 -461.808 632.781 -470.62 625.876C-478.906 619.39 -487.724 613.543 -496.16 607.28C-504.651 600.997 -512.804 594.251 -521.719 588.693C-530.662 583.124 -540.285 578.774 -549.926 574.433C-559.415 570.181 -569.048 565.858 -579.516 563.271C-590.287 560.614 -600.67 560.257 -610.482 560.524C-621.249 560.828 -631.58 562.064 -641.054 565.841C-650.528 569.618 -658.87 575.793 -666.888 582.949C-674.172 589.468 -681.471 596.869 -687.417 606.146C-692.058 613.368 -695.517 621.216 -699.316 628.808C-703.135 636.455 -707.299 643.939 -710.382 651.868C-713.457 659.817 -715.411 668.149 -717.894 676.309C-720.358 684.461 -723.362 692.468 -725.333 700.762C-731.246 725.443 -735.792 750.4 -740.769 775.254C-745.737 800.126 -751.146 824.923 -755.481 849.899C-759.815 874.874 -763.066 900.048 -767.033 925.087C-771 950.126 -775.693 975.057 -779.578 1000.13C-782.269 1017.45 -784.151 1034.9 -787.234 1052.1C-790.33 1069.38 -794.627 1086.39 -798.902 1103.35C-803.188 1120.34 -807.465 1137.34 -813.716 1153.78C-819.881 1169.99 -827.968 1185.55 -836.82 1201.02C-842.795 1211.45 -848.822 1221.26 -856.273 1229.49C-864.156 1238.22 -873.43 1245.1 -882.979 1251.36C-892.528 1257.61 -902.516 1263.39 -913.696 1267.2C-924.226 1270.79 -935.663 1272.49 -947.671 1273.92C-955.236 1274.81 -962.705 1276.23 -970.24 1276.53C-977.812 1276.85 -985.386 1276.04 -992.942 1275.83C-1000.5 1275.63 -1008.09 1276 -1015.65 1275.34C-1023.17 1274.69 -1030.59 1273.01 -1038.1 1272C-1057.1 1269.45 -1076.06 1266.89 -1094.76 1263.03C-1113.49 1259.17 -1131.91 1253.99 -1150.47 1249.44C-1169.03 1244.88 -1187.77 1240.94 -1206.32 1236.31C-1224.86 1231.68 -1243.26 1226.38 -1261.94 1222.3C-1270.96 1220.33 -1280.16 1219.21 -1289.21 1217.48C-1298.28 1215.74 -1307.25 1213.37 -1316.38 1212.13C-1325.53 1210.89 -1334.79 1210.8 -1344.02 1210.34C-1353.2 1209.89 -1362.42 1209.06 -1371.7 1209.65C-1382.23 1210.33 -1391.69 1212.86 -1400.44 1215.67C-1410.19 1218.83 -1419.22 1222.59 -1426.8 1228.45C-1434.37 1234.32 -1440.28 1242.09 -1445.74 1250.68C-1450.66 1258.41 -1455.45 1266.91 -1458.7 1276.87C-1460.82 1283.36 -1461.7 1290.12 -1463.04 1296.73C-1464.41 1303.39 -1466.22 1309.95 -1466.97 1316.67C-1467.71 1323.4 -1467.33 1330.21 -1467.62 1337C-1467.89 1343.77 -1468.81 1350.52 -1468.79 1357.29C-1468.74 1371.34 -1467.37 1385.33 -1466.52 1399.32C-1465.66 1413.33 -1465.28 1427.37 -1463.92 1441.34C-1462.55 1455.31 -1460.2 1469.16 -1458.66 1483.12C-1457.12 1497.07 -1456.44 1511.09 -1455.08 1525.06C-1453.86 1537.64 -1451.83 1550.14 -1450.84 1562.71C-1449.84 1575.31 -1449.86 1587.95 -1449.34 1600.56C-1448.85 1613.19 -1447.85 1625.79 -1448.13 1638.43C-1448.42 1651.02 -1450 1663.56 -1451.36 1676.19C-1452.95 1691 -1455.2 1704.83 -1459.74 1717.37C-1464.68 1731.01 -1472.05 1742.93 -1480.43 1753.95C-1488.82 1764.97 -1498.38 1775.27 -1510.21 1783.72C-1521.13 1791.52 -1533.89 1797.53 -1547.73 1803.2C-1555.7 1806.47 -1563.48 1810.11 -1571.62 1812.61C-1579.82 1815.13 -1588.31 1816.48 -1596.68 1818.31C-1605.05 1820.14 -1613.31 1822.49 -1621.8 1823.75C-1630.24 1825.01 -1638.85 1825.17 -1647.41 1825.97C-1669.43 1827.98 -1691.4 1830.78 -1713.44 1832.69C-1735.47 1834.62 -1757.58 1835.68 -1779.62 1837.59C-1801.66 1839.5 -1823.63 1842.25 -1845.66 1844.24C-1867.68 1846.23 -1889.78 1847.47 -1911.8 1849.64C-1920.88 1850.53 -1929.88 1852.32 -1938.95 1853.43C-1948.02 1854.56 -1957.19 1855.04 -1966.19 1856.59C-1975.18 1858.14 -1983.97 1860.76 -1992.85 1862.96C-1997.85 1864.18 -2002.92 1865.29 -2007.97 1866.56L-1995.77 1894.02C-1986.11 1892.4 -1976.44 1890.81 -1966.74 1889.76C-1952.93 1888.28 -1939.03 1887.94 -1925.17 1887C-1911.32 1886.06 -1897.5 1884.53 -1883.64 1883.96C-1869.77 1883.4 -1855.86 1883.8 -1841.98 1883.43C-1824.69 1882.98 -1807.41 1881.77 -1790.13 1881.25C-1772.83 1880.73 -1755.52 1880.9 -1738.26 1879.89C-1720.99 1878.89 -1703.82 1876.76 -1686.6 1874.88C-1669.44 1873.03 -1652.19 1871.48 -1635.11 1868.38C-1603.04 1862.56 -1575.3 1853.57 -1551.11 1842.68C-1522.21 1829.68 -1498.28 1813.5 -1479.87 1792.35C-1461.44 1771.2 -1448.78 1745.35 -1440.01 1715.09C-1432.69 1689.76 -1427.75 1661.2 -1426.64 1628.87C-1426.15 1614.74 -1427.06 1600.61 -1427.52 1586.54C-1427.98 1572.42 -1427.98 1558.31 -1429.04 1544.22C-1430.06 1530.15 -1432.14 1516.16 -1433.36 1502.11C-1434.58 1488.05 -1435 1473.92 -1436.02 1459.84C-1436.88 1448.17 -1438.72 1436.54 -1439.64 1424.85C-1440.56 1413.16 -1440.55 1401.41 -1441.04 1389.71C-1441.54 1377.99 -1442.52 1366.27 -1442.11 1354.56C-1441.69 1342.88 -1439.87 1331.29 -1438.08 1319.62C-1436.43 1308.88 -1434.61 1299.13 -1430.96 1290.75C-1426.74 1281.08 -1420.52 1273.39 -1413.54 1266.71C-1406.55 1260.03 -1398.6 1254.14 -1388.73 1250.3C-1380.16 1246.99 -1370.28 1245.5 -1359.42 1244.22C-1355.81 1243.8 -1352.22 1242.65 -1348.57 1242.44C-1344.92 1242.23 -1341.24 1242.93 -1337.59 1242.9C-1333.94 1242.86 -1330.27 1242.08 -1326.63 1242.21C-1322.98 1242.34 -1319.37 1243.38 -1315.73 1243.64C-1304.66 1244.47 -1293.59 1244.95 -1282.69 1246.63C-1271.76 1248.32 -1261.05 1251.15 -1250.21 1253.4C-1239.39 1255.65 -1228.43 1257.31 -1217.67 1259.83C-1206.92 1262.36 -1196.36 1265.76 -1185.6 1268.29C-1167.07 1272.63 -1148.4 1276.36 -1129.86 1280.72C-1111.32 1285.08 -1092.91 1290.07 -1074.24 1293.65C-1055.54 1297.25 -1036.63 1299.45 -1017.68 1301.48C-998.863 1303.5 -979.904 1305.39 -960.691 1305.11C-944.268 1304.86 -929.076 1302.14 -914.877 1298.51C-899.374 1294.55 -884.882 1289.29 -872.084 1281.18C-859.267 1273.07 -848.355 1262.24 -838.285 1249.87C-829.11 1238.6 -820.352 1225.98 -813.472 1211.06C-809.712 1202.92 -806.942 1194.39 -803.675 1186.11C-800.379 1177.8 -796.572 1169.66 -793.796 1161.19C-791.028 1152.71 -789.329 1143.9 -787.109 1135.25C-784.907 1126.61 -782.165 1118.07 -780.549 1109.28C-776.352 1086.54 -773.091 1063.63 -769.022 1040.85C-764.972 1018.09 -760.141 995.456 -756.146 972.671C-752.15 949.887 -748.982 926.972 -744.986 904.187C-740.964 881.413 -736.106 858.788 -732.009 836.027C-729.202 820.498 -727.221 804.792 -724.13 789.34C-721.038 773.842 -716.837 758.599 -712.876 743.326C-708.915 728.053 -705.153 712.688 -699.748 697.813C-694.377 683.066 -687.367 668.902 -679.996 654.736C-673.057 641.432 -665.776 629.865 -656.927 621.065C-646.607 610.789 -634.618 604.269 -621.999 600.189C-609.437 596.134 -595.892 594.34 -581.411 596.49C-569.016 598.322 -556.207 603.225 -542.638 609.636C-534.02 613.709 -525.346 617.555 -517.355 622.509C-509.309 627.484 -501.992 633.519 -494.385 639.136C-486.787 644.733 -478.845 649.933 -471.496 655.887C-464.174 661.831 -457.445 668.528 -450.192 674.569C-441.088 682.132 -431.524 689.201 -422.45 696.799C-413.348 704.408 -404.718 712.583 -395.357 719.808C-385.968 727.044 -375.893 733.328 -365.929 739.772C-356.027 746.177 -346.174 752.827 -335.409 758.068C-323.441 763.879 -311.383 767.295 -299.745 769.817C-287.053 772.573 -274.628 774.167 -262.352 772.93C-250.075 771.694 -238.2 767.67 -226.345 762.377C-215.505 757.551 -204.411 751.716 -193.929 743.434C-184.614 736.091 -176.665 727.506 -168.749 719.049C-160.745 710.486 -152.716 701.979 -145.738 692.631C-138.761 683.284 -132.902 673.148 -126.549 663.312C-120.225 653.511 -113.407 644.009 -107.289 634.051C-101.523 624.675 -96.5936 614.79 -90.9181 605.363C-85.2237 595.928 -78.8018 586.959 -72.8915 577.654C-66.9809 568.348 -61.5737 558.725 -55.1246 549.767C-48.7052 540.844 -41.3025 532.657 -34.0572 524.27C-22.8654 511.322 -12.1523 500.2 -0.595682 492.097C13.024 482.527 27.3509 477.046 42.0355 474.102C56.7009 471.166 72.0517 470.689 88.335 474.248C102.144 477.277 116.348 483.386 131.711 490.985C141.133 495.647 150.643 500.047 159.516 505.511C168.417 510.986 176.627 517.504 185.13 523.558C193.631 529.612 202.469 535.25 210.722 541.66C218.956 548.078 226.597 555.25 234.713 561.81C245.352 570.383 256.382 578.514 266.873 587.264C277.373 596.032 287.332 605.419 297.96 614.018C308.588 622.618 319.857 630.42 330.89 638.505C341.895 646.58 352.679 655.021 364.355 662.263C372.499 667.307 381.154 671.005 389.585 674.71C398.29 678.521 406.91 682.345 415.994 684.463C425.105 686.591 434.494 687.003 444.014 687.201C453.165 687.382 462.581 687.446 472.135 685.631C490.009 682.229 507.812 678.769 525.776 676.741C543.797 674.689 561.934 674.067 580.034 673.057C598.125 672.029 616.207 670.623 634.358 670.287C652.462 669.949 670.596 670.698 688.739 670.701C731.647 670.698 774.568 669.858 817.45 669.439C860.379 669.022 903.295 669.038 946.158 667.505C989.031 665.946 1031.84 662.82 1074.62 659.417C1117.33 656.02 1160.09 652.312 1202.68 646.344C1226.82 642.951 1250.61 637.986 1274.27 632.943C1298.07 627.86 1321.81 622.691 1345.03 615.686C1368.24 608.681 1390.87 599.892 1413.4 590.722C1435.74 581.634 1458.09 572.161 1479.68 560.685C1498.46 550.713 1515.56 538.695 1532.15 526.34C1548.98 513.813 1565.37 500.851 1580.56 486.509C1595.71 472.202 1609.6 456.566 1623.72 441.098C1637.77 425.709 1652.06 410.478 1665.7 394.592C1668.28 391.577 1669.74 388.243 1671.39 385.432C1672.56 383.436 1673.71 381.56 1674.62 379.68L1660.66 348.237C1660.26 348.568 1659.84 348.935 1659.37 349.317C1658.26 350.231 1656.46 350.91 1655.06 352.536L1655.23 352.682Z" fill="#303D78"/>
<path d="M1788.34 663.381C1768.05 669.842 1747.88 676.631 1727.37 682.245C1706.84 687.868 1686.01 692.299 1665.3 697.215C1644.59 702.13 1623.99 707.537 1603.17 711.896C1582.35 716.254 1561.29 719.571 1540.38 723.521C1481.88 734.565 1423.32 744.741 1364.48 752.882C1305.57 761.029 1246.42 767.132 1187.3 773.31C1128.18 779.488 1069.04 785.739 1009.81 790.89C950.567 796.042 891.245 800.086 832.011 805.146C805.031 807.45 778.027 810.057 750.944 811.822C723.888 813.599 696.742 814.562 669.751 816.893C642.714 819.222 615.841 822.938 589.039 826.915C562.255 830.883 535.485 835.138 509.104 841.847C489.57 846.808 470.437 851.144 451.3 853.282C431.539 855.492 411.91 855.401 392.404 854.671C372.833 853.947 353.237 852.606 333.759 849.035C314.749 845.552 295.956 839.908 276.881 833.781C266.04 830.303 254.912 827.759 243.962 824.597C233.021 821.455 222.23 817.684 211.177 814.95C200.123 812.216 188.824 810.51 177.663 808.249C166.512 806.007 155.443 803.189 144.153 801.501C134.729 800.094 125.226 799.732 115.816 798.969C106.315 798.202 96.8713 797.006 87.423 797.225C77.956 797.453 68.5958 799.093 59.2001 800.703C49.9725 802.285 40.6002 803.795 31.4954 807.029C19.2049 811.391 8.8531 817.776 -0.554666 824.554C-10.6826 831.85 -19.8717 839.834 -27.2491 849.402C-34.5778 858.926 -39.9933 869.854 -45.2126 881.123C-50.1951 891.907 -55.1222 903.07 -58.6884 915.005C-61.2465 923.557 -62.8536 932.365 -65.2565 940.961C-67.6591 949.557 -70.8109 957.943 -73.2682 966.518C-75.717 975.112 -77.4439 983.906 -80.1383 992.405C-82.8514 1000.91 -86.5214 1009.1 -89.6985 1017.43C-95.798 1033.44 -102.862 1047.58 -112.117 1058.99C-122.573 1071.86 -135.41 1081.15 -149.313 1087.99C-163.14 1094.8 -178.349 1099.37 -195.034 1100.05C-209.808 1100.66 -225.487 1098 -242.074 1093.65C-249.445 1091.73 -256.89 1090.19 -263.93 1087.58C-271.025 1084.95 -277.67 1081.25 -284.526 1078.08C-291.382 1074.92 -298.504 1072.28 -305.204 1068.75C-311.876 1065.24 -318.109 1060.88 -324.707 1057.18C-333.468 1052.28 -342.564 1047.94 -351.227 1042.9C-359.898 1037.84 -368.163 1032.06 -376.917 1027.18C-385.679 1022.27 -394.928 1018.25 -403.954 1013.82C-412.953 1009.39 -421.772 1004.51 -431.17 1000.87C-447.621 994.491 -463.754 991.271 -479.094 989.633C-496.147 987.804 -512.573 988.101 -528.17 992.097C-543.767 996.093 -558.292 1003.73 -572.366 1013.49C-585.04 1022.29 -597.623 1032.82 -608.978 1046.26C-614.139 1052.37 -618.353 1059.18 -622.921 1065.65C-627.518 1072.16 -632.547 1078.4 -636.568 1085.24C-640.599 1092.11 -643.601 1099.51 -647.072 1106.66C-650.524 1113.81 -654.449 1120.76 -657.35 1128.19C-663.067 1142.82 -667.838 1157.8 -673.356 1172.52C-678.855 1187.23 -685.082 1201.68 -690.527 1216.41C-695.971 1231.15 -700.66 1246.16 -706.186 1260.86C-711.732 1275.57 -718.131 1289.94 -723.911 1304.53C-728.539 1316.21 -732.712 1328.06 -738.212 1339.2C-743.766 1350.48 -750.615 1360.98 -757.549 1371.35C-764.502 1381.72 -771.639 1392.03 -780.472 1401.07C-789.042 1409.84 -799.147 1417.23 -809.942 1424.35C-819.35 1430.57 -828.672 1436.73 -838.639 1441.48C-848.756 1446.31 -859.433 1449.67 -869.996 1453.18C-880.587 1456.69 -891.159 1460.38 -902.09 1462.71C-912.994 1465.05 -924.173 1466.01 -935.259 1467.33C-969.11 1471.33 -1000.55 1479.54 -1030.17 1490C-1061.45 1501.06 -1090.85 1514.82 -1117.91 1532.42C-1144.94 1549.99 -1169.49 1571.27 -1192.83 1594.65C-1215.23 1617.05 -1236.7 1641.44 -1256.19 1668.56C-1263.78 1679.12 -1270.61 1690.22 -1278.05 1700.87C-1285.48 1711.54 -1293.55 1721.79 -1300.86 1732.54C-1308.16 1743.29 -1314.72 1754.54 -1321.93 1765.36C-1329.14 1776.17 -1336.98 1786.58 -1344.12 1797.45C-1355.44 1814.7 -1366.06 1832.38 -1377.6 1849.45C-1389.14 1866.55 -1401.57 1883.02 -1413.72 1899.67C-1425.87 1916.31 -1437.75 1933.2 -1450.88 1949.13C-1463.96 1965 -1478.22 1979.9 -1492.66 1994.81C-1506.91 2009.53 -1521.24 2022.44 -1536.71 2032.28C-1553.56 2043.02 -1571.49 2050.13 -1589.82 2055.15C-1608.22 2060.17 -1627.29 2063.17 -1647.22 2062.5C-1665.63 2061.89 -1684.58 2058.04 -1704.32 2052.61C-1710.01 2051.05 -1715.9 2050.2 -1721.53 2048.48C-1727.16 2046.75 -1732.54 2044.17 -1738.13 2042.32C-1743.73 2040.47 -1749.57 2039.33 -1755.12 2037.34C-1760.68 2035.36 -1765.91 2032.54 -1771.41 2030.44C-1786.87 2024.57 -1802.43 2019.01 -1817.66 2012.54C-1832.86 2006.06 -1847.67 1998.69 -1862.9 1992.22C-1878.11 1985.77 -1893.7 1980.22 -1909.16 1974.38C-1924.6 1968.54 -1939.96 1962.38 -1955.9 1957.77C-1958.03 1957.15 -1960.41 1957.19 -1962.52 1956.46C-1964.63 1955.72 -1966.52 1954.22 -1968.68 1953.64C-1968.84 1953.59 -1968.99 1953.6 -1969.17 1953.56L-1957.75 1979.27C-1952.5 1980.61 -1947.29 1982.04 -1942.19 1983.8C-1932.28 1987.22 -1922.84 1991.81 -1913.2 1995.85C-1903.57 1999.91 -1893.69 2003.47 -1884.21 2007.91C-1874.73 2012.34 -1865.68 2017.64 -1856.25 2022.17C-1843.83 2028.14 -1831.1 2033.5 -1818.75 2039.57C-1806.37 2045.65 -1794.34 2052.42 -1781.86 2058.21C-1769.35 2064.01 -1756.43 2068.82 -1743.62 2073.97C-1730.87 2079.11 -1718.19 2084.58 -1704.96 2088.7C-1686.36 2094.47 -1668.17 2097.23 -1650.66 2098.55C-1631.71 2099.97 -1613.33 2099.54 -1595.6 2095.55C-1577.92 2091.58 -1561.15 2084.1 -1544.66 2074.58C-1529.55 2065.86 -1514.44 2055.43 -1500.28 2041.92C-1483.06 2025.5 -1467.22 2007.84 -1451.38 1990.27C-1435.48 1972.65 -1419.54 1955.11 -1404.62 1936.71C-1389.69 1918.32 -1375.78 1899.11 -1361.4 1880.27C-1347 1861.45 -1332.11 1843.02 -1317.82 1824.11C-1309.53 1813.13 -1301.84 1801.72 -1293.42 1790.84C-1285 1779.96 -1275.87 1769.65 -1267.31 1758.89C-1258.74 1748.12 -1250.76 1736.9 -1242.04 1726.25C-1233.32 1715.62 -1223.87 1705.57 -1214.97 1695.06C-1194.97 1671.49 -1174.45 1649.13 -1152.14 1629.28C-1129.25 1608.91 -1104.58 1591.21 -1079.05 1575C-1053.5 1558.78 -1026.99 1543.96 -998.649 1532.15C-971.108 1520.66 -941.96 1512.09 -911.596 1504.98C-886.722 1499.15 -864.031 1490.45 -842.968 1480.37C-820.473 1469.6 -799.707 1457.07 -781.582 1441.35C-763.495 1425.65 -748.176 1406.91 -734.444 1386.14C-721.633 1366.8 -709.991 1345.6 -700.971 1321.75C-695.493 1307.3 -690.861 1292.51 -685.311 1278.07C-679.779 1263.63 -673.356 1249.53 -667.442 1235.24C-661.529 1220.95 -656.104 1206.42 -649.492 1192.43C-642.89 1178.47 -635.121 1165.05 -627.512 1151.52C-620.798 1139.59 -614.36 1127.65 -606.571 1116.87C-598.555 1105.79 -589.222 1095.99 -579.571 1086.71C-569.871 1077.38 -559.728 1068.44 -547.885 1061.49C-536.614 1054.88 -523.949 1050.24 -510.272 1046.3C-500.408 1043.45 -490.8 1041.1 -481.189 1040.58C-471.198 1040.06 -461.377 1041.49 -451.624 1042.98C-441.917 1044.46 -432.111 1046.02 -422.578 1048.99C-413.237 1051.89 -404.258 1056.17 -395.037 1060.02C-382.54 1065.24 -369.971 1070.32 -357.915 1076.43C-345.841 1082.53 -334.288 1089.65 -322.325 1095.95C-310.344 1102.25 -297.952 1107.75 -285.734 1113.56C-273.524 1119.35 -261.433 1125.49 -248.646 1130.09C-238.062 1133.91 -227.223 1136.31 -216.621 1138.64C-205.672 1141.04 -194.791 1143.33 -183.855 1143.56C-172.846 1143.8 -161.958 1141.98 -150.996 1139.41C-140.644 1137 -130.022 1133.98 -119.744 1128.55C-112.633 1124.8 -106.946 1119.67 -101.532 1114.65C-95.8468 1109.37 -90.3877 1103.99 -86.2592 1097.6C-82.1413 1091.23 -79.4555 1084.04 -76.5408 1076.9C-73.6895 1069.93 -70.5588 1062.92 -68.5462 1055.48C-66.1044 1046.46 -64.6512 1037.21 -62.4844 1028.13C-60.3174 1019.06 -57.4266 1010.13 -55.3331 1001.04C-53.2481 991.936 -51.9608 982.663 -49.7477 973.589C-47.5346 964.515 -44.3981 955.686 -41.8557 946.692C-37.8006 932.343 -33.1052 919.284 -26.2793 908.118C-18.7673 895.798 -9.00309 885.9 1.67919 877.306C12.3237 868.728 24.0986 861.27 37.708 856.261C50.1291 851.684 63.9591 849.362 78.6943 847.652C93.0848 845.981 107.319 844.671 121.516 845.06C135.852 845.456 150.02 847.563 164.2 849.442C178.353 851.309 192.59 852.96 206.645 855.679C220.674 858.387 234.509 862.189 248.499 865.116C253.385 866.136 258.442 866.318 263.321 867.319C268.217 868.311 272.935 870.123 277.811 871.17C282.687 872.217 287.748 872.509 292.59 873.683C297.432 874.857 302.054 876.913 306.838 878.314C326.106 883.907 345.381 886.511 364.414 888.212C383.962 889.956 403.439 890.721 422.863 889.332C442.203 887.958 461.407 884.443 480.769 880.927C499.776 877.477 519.021 874.056 538.157 869.472C567.095 862.561 596.104 856.268 625.416 851.729C654.747 847.181 684.316 844.391 713.866 841.251C743.377 838.128 772.879 834.626 802.46 831.966C832.042 829.306 861.705 827.44 891.208 824.298C944.052 818.653 996.863 812.732 1049.77 807.78C1102.67 802.828 1155.66 798.846 1208.58 793.821C1261.49 788.796 1314.28 782.726 1367.09 776.85C1419.89 771.001 1472.73 765.357 1525.38 757.892C1540.45 755.765 1555.35 752.702 1570.4 750.363C1585.42 748.033 1600.58 746.453 1615.58 744.02C1630.58 741.587 1645.46 738.311 1660.47 735.851C1669.18 734.429 1677.96 733.268 1686.72 732.096L1807.81 679.007L1800.43 662.384C1799.57 662.334 1798.66 662.31 1797.69 662.329C1795.17 662.358 1792.02 662.082 1788.41 663.237L1788.34 663.381Z" fill="#303D78"/>
<path d="M1582.56 210.952C1578.55 214.038 1574.02 216.474 1570.03 219.57C1566.02 222.656 1562.53 226.41 1558.56 229.544C1554.59 232.678 1550.11 235.208 1546.19 238.408C1518.78 260.942 1491.01 281.887 1461.79 299.627C1431.73 317.898 1400.27 332.738 1368.05 345.354C1335.8 357.986 1302.61 368.423 1267.95 374.818C1234.51 380.967 1199.82 383.268 1163.9 383.075C1143.09 382.965 1122.29 383.407 1101.54 382.664C1080.74 381.92 1060.05 380.003 1039.32 378.462C1018.6 376.921 997.834 375.755 977.174 373.242C956.58 370.723 936.143 366.878 915.651 363.214C901.329 360.658 886.965 359.691 872.732 358.711C858.295 357.732 843.913 356.773 829.592 357.582C815.244 358.382 801.069 360.945 786.893 363.711C772.924 366.432 758.826 369.321 745.015 374.081C727.578 380.097 710.507 387.141 693.193 393.485C675.879 399.828 658.31 405.497 640.985 411.868C623.66 418.238 606.598 425.302 589.177 431.355C571.738 437.416 553.97 442.433 536.349 447.833C512.572 455.106 488.985 461.486 465.307 465.012C440.884 468.64 416.515 469.237 392.327 468.048C368.139 466.86 343.984 463.861 320.184 457.026C297.524 450.521 275.416 440.519 253.257 428.16C242.637 422.228 231.912 416.566 221.887 409.834C211.827 403.073 202.52 395.307 192.915 387.942C183.318 380.595 173.389 373.62 164.09 365.873C154.818 358.137 146.169 349.612 137.017 341.688C129.919 335.534 122.217 330.162 114.858 324.391C107.465 318.591 100.406 312.375 92.6113 307.201C84.8165 302.026 76.3292 297.941 67.9729 293.641C59.7067 289.391 51.4433 284.894 42.466 281.742C31.4114 277.886 20.5255 276.447 10.1939 275.797C-1.18137 275.089 -12.1486 275.504 -22.4441 278.655C-32.7479 281.786 -42.0875 287.547 -51.1136 294.471C-59.3205 300.745 -67.5474 307.992 -74.5522 317.329C-79.258 323.592 -82.609 330.562 -86.161 337.283C-89.7741 344.121 -93.6031 350.829 -96.2891 358.024C-98.9561 365.21 -100.449 372.8 -102.48 380.246C-104.49 387.637 -107.042 394.93 -108.643 402.478C-110.47 411.046 -111.26 419.81 -112.794 428.428C-114.327 437.046 -116.614 445.547 -118.174 454.155C-119.754 462.771 -120.609 471.541 -122.564 480.075C-124.519 488.61 -127.553 496.854 -130.213 505.227C-134.653 519.116 -139.518 531.846 -146.341 542.764C-153.866 554.798 -163.462 564.464 -173.95 572.884C-184.401 581.287 -195.947 588.599 -209.371 593.414C-221.531 597.764 -235.081 599.852 -249.699 601.264C-262.122 602.475 -274.303 603.265 -286.333 602.306C-298.575 601.328 -310.488 598.544 -322.407 595.898C-334.299 593.263 -346.272 590.753 -357.982 587.05C-369.592 583.37 -380.868 578.556 -392.382 574.43C-406.289 569.447 -420.372 564.833 -434.119 559.398C-447.865 553.963 -461.302 547.696 -475.123 542.451C-488.962 537.214 -503.169 533.035 -517.311 528.694C-531.408 524.355 -545.495 519.833 -560.121 517.051C-580.703 513.135 -599.48 512.467 -616.499 513.518C-636.87 514.761 -655.057 518.884 -670.892 527.541C-686.764 536.214 -699.973 549.306 -711.864 565.771C-721.828 579.549 -731.232 595.707 -738.785 615.116C-746.603 635.201 -752.253 655.839 -757.809 676.436C-763.377 697.105 -768.836 717.816 -773.021 738.799C-777.215 759.762 -780.134 780.997 -783.87 802.074C-787.625 823.16 -792.196 844.087 -796.417 865.04C-799.513 880.428 -801.453 896.025 -804.154 911.486C-806.856 926.947 -810.292 942.281 -813.122 957.708C-815.943 973.154 -818.168 988.72 -821.668 1004.01C-825.156 1019.28 -829.927 1034.26 -834.627 1049.3C-836.55 1055.46 -837.834 1061.84 -840.038 1067.88C-842.252 1073.94 -845.382 1079.63 -847.896 1085.58C-850.392 1091.52 -852.27 1097.73 -855.065 1103.56C-857.85 1109.36 -861.502 1114.74 -864.578 1120.44C-871.781 1133.81 -879.294 1145.78 -888.435 1155.44C-898.545 1166.14 -910.33 1173.99 -922.716 1180.32C-935.095 1186.68 -948.351 1191.67 -962.945 1193.9C-976.251 1195.92 -990.454 1195.47 -1005.51 1194.22C-1021.89 1192.88 -1038.1 1191.33 -1054 1188.21C-1070.01 1185.07 -1085.63 1180.37 -1101.31 1176.01C-1117 1171.65 -1132.79 1167.63 -1148.3 1162.66C-1163.81 1157.68 -1179 1151.75 -1194.5 1146.75C-1209.03 1142.04 -1223.79 1137.95 -1238.33 1133.22C-1252.88 1128.48 -1267.22 1123.08 -1281.91 1118.91C-1296.62 1114.73 -1311.65 1111.81 -1326.66 1108.82C-1341.6 1105.83 -1356.6 1102.79 -1371.97 1101.57C-1391.83 1100.01 -1410.02 1102.09 -1426.49 1106C-1445.28 1110.45 -1462.09 1117.63 -1475.95 1128.74C-1489.81 1139.85 -1500.43 1154.66 -1508.78 1171.95C-1516.12 1187.11 -1522.01 1204.35 -1524.7 1223.91C-1526.36 1236.02 -1526.43 1248.17 -1526.77 1260.26C-1527.12 1272.4 -1527.7 1284.55 -1527.09 1296.65C-1526.47 1308.75 -1524.63 1320.78 -1523.42 1332.88C-1522.22 1344.95 -1521.62 1357.1 -1520.2 1369.16C-1518.13 1386.76 -1514.81 1404.22 -1512.32 1421.8C-1509.82 1439.38 -1508.1 1457.06 -1505.97 1474.66C-1503.82 1492.28 -1501.21 1509.85 -1500.19 1527.58C-1499.18 1545.25 -1499.77 1562.97 -1500.67 1580.81C-1501.58 1599.07 -1503.34 1615.42 -1507.69 1629.79C-1512.84 1646.8 -1521.21 1660.82 -1531.6 1672.92C-1541.98 1684.99 -1554.61 1695.41 -1570.71 1703.17C-1584.31 1709.73 -1600.3 1714.07 -1618.28 1717.93C-1634.14 1721.34 -1649.94 1724.53 -1665.93 1726.25C-1681.98 1727.97 -1698.13 1728.22 -1714.26 1728.99C-1730.36 1729.75 -1746.47 1731.08 -1762.59 1731.65C-1778.71 1732.22 -1794.9 1732.05 -1810.97 1733.13C-1832.46 1734.6 -1853.9 1736.65 -1875.39 1737.98C-1896.9 1739.3 -1918.45 1739.89 -1939.89 1741.76C-1961.34 1743.63 -1982.66 1746.77 -2003.98 1749.89C-2021.3 1752.42 -2038.68 1754.98 -2055.9 1758.54L-2042.79 1788.05C-2032.15 1785.44 -2021.48 1782.87 -2010.74 1780.98C-1995.99 1778.39 -1981.06 1777.02 -1966.23 1775.11C-1951.39 1773.22 -1936.61 1770.8 -1921.69 1769.35C-1906.8 1767.9 -1891.82 1767.43 -1876.91 1766.18C-1855.87 1764.4 -1834.84 1762.31 -1813.76 1761.18C-1792.66 1760.04 -1771.51 1759.89 -1750.44 1758.7C-1729.35 1757.5 -1708.33 1755.28 -1687.3 1753.32C-1666.27 1751.36 -1645.22 1749.66 -1624.34 1746.22C-1602.33 1742.59 -1583.44 1736.5 -1567.01 1729.31C-1547.14 1720.64 -1530.71 1709.86 -1518.37 1695.37C-1506.06 1680.92 -1498.04 1663.06 -1492.54 1642.19C-1488 1624.92 -1484.84 1605.44 -1484.54 1583.36C-1484.36 1570.37 -1485.53 1557.44 -1486.27 1544.52C-1487 1531.58 -1487.28 1518.62 -1488.6 1505.71C-1489.93 1492.83 -1492.33 1480.05 -1493.95 1467.18C-1495.59 1454.32 -1496.45 1441.37 -1498.09 1428.53C-1500.08 1412.73 -1503.09 1397.04 -1505.09 1381.24C-1507.09 1365.42 -1508.08 1349.49 -1509.36 1333.62C-1510.65 1317.74 -1512.22 1301.86 -1512.09 1285.92C-1511.96 1270.08 -1510.12 1254.25 -1507.87 1238.32C-1506.17 1226.26 -1504.4 1214.67 -1500.71 1204.14C-1496.72 1192.75 -1490.71 1182.74 -1483.83 1173.59C-1476.94 1164.39 -1469 1155.85 -1458.62 1149.41C-1449.39 1143.68 -1438.35 1139.91 -1425.93 1136.75C-1419.83 1135.19 -1413.88 1133.21 -1407.73 1132.35C-1401.54 1131.47 -1395.24 1131.74 -1389.03 1131.41C-1382.82 1131.09 -1376.59 1130.19 -1370.33 1130.27C-1364.11 1130.37 -1357.91 1131.46 -1351.66 1131.82C-1335.53 1132.75 -1319.53 1133.83 -1303.76 1136.4C-1287.91 1138.98 -1272.37 1143.09 -1256.75 1146.79C-1241.15 1150.49 -1225.44 1153.78 -1209.96 1158.03C-1194.51 1162.27 -1179.29 1167.44 -1163.82 1171.67C-1148.91 1175.74 -1133.82 1179.12 -1118.9 1183.17C-1103.98 1187.22 -1089.23 1191.96 -1074.21 1195.54C-1059.18 1199.13 -1043.89 1201.57 -1028.66 1204.27C-1013.49 1206.97 -998.292 1209.91 -982.8 1211.28C-968.507 1212.54 -955.202 1211.28 -942.818 1209.17C-929.108 1206.83 -916.261 1203.21 -904.817 1196.84C-893.381 1190.45 -883.578 1181.46 -874.329 1171.11C-865.961 1161.74 -857.786 1151.22 -851.133 1138.64C-845.926 1128.77 -841.991 1118.38 -837.733 1108.21C-833.47 1097.94 -828.872 1087.82 -825.495 1077.29C-822.099 1066.76 -819.899 1055.87 -817.261 1045.11C-814.633 1034.37 -811.518 1023.71 -809.511 1012.8C-804.959 988.107 -801.317 963.255 -796.893 938.531C-792.469 913.808 -787.275 889.241 -782.878 864.507C-778.501 839.781 -774.932 814.917 -770.527 790.202C-766.122 765.487 -760.844 740.905 -756.338 716.213C-754.661 707.105 -753.634 697.856 -751.572 688.848C-749.5 679.814 -746.403 671.048 -743.865 662.145C-741.327 653.243 -739.318 644.169 -736.232 635.43C-733.157 626.718 -729.008 618.388 -725.312 609.852C-722.377 603.065 -720.086 595.999 -716.747 589.461C-713.376 582.842 -708.999 576.858 -704.886 570.788C-700.744 564.683 -696.769 558.404 -691.52 553.16C-686.417 548.047 -680.164 544.045 -673.67 540.027C-664.128 534.111 -654.77 529.105 -644.961 526.236C-634.577 523.182 -623.939 522.485 -613.348 522.19C-602.822 521.901 -592.149 521.997 -581.493 523.784C-571.177 525.517 -561.016 528.89 -550.637 531.988C-535.842 536.424 -521.164 541.002 -507.043 546.923C-492.876 552.847 -479.312 560.113 -465.469 566.785C-451.644 573.465 -437.543 579.598 -423.729 586.305C-409.896 593.004 -396.351 600.278 -382.186 606.248C-378.593 607.768 -374.674 608.494 -371.06 609.96C-367.446 611.426 -364.117 613.624 -360.482 615.036C-356.836 616.42 -352.883 617.019 -349.205 618.323C-345.527 619.626 -342.089 621.663 -338.388 622.867C-313.532 630.855 -290.105 634.15 -268.548 634.406C-243.159 634.731 -219.967 630.521 -199.565 620.331C-179.174 610.168 -161.918 594.221 -146.915 573.81C-134.196 556.51 -122.751 535.932 -114.196 511.393C-111.062 502.409 -108.903 493.112 -105.996 484.07C-103.09 475.028 -99.4077 466.207 -96.4283 457.178C-93.4299 448.141 -91.1155 438.888 -87.7352 429.998C-84.3739 421.115 -79.9678 412.65 -75.9141 404.002C-66.9588 384.899 -57.6093 368.719 -46.5581 356.372C-32.6846 340.855 -16.7526 331.348 0.256536 326.508C17.312 321.67 35.8839 321.418 55.8458 327.402C71.7639 332.175 88.2192 341.112 105.855 352.808C108.349 354.452 111.272 355.48 113.677 357.23C116.083 358.98 117.982 361.423 120.348 363.235C122.714 365.047 125.572 366.239 127.927 368.078C130.263 369.925 132.096 372.421 134.451 374.26C139.481 378.201 145.007 381.476 150.019 385.426C155.03 389.376 159.519 393.983 164.531 397.933C169.542 401.883 175.047 405.212 180.048 409.189C185.049 413.166 189.519 417.781 194.501 421.766C214.527 437.776 235.588 451.022 256.827 462.684C279.042 474.861 301.63 485.281 325.325 492.185C349.067 499.091 373.717 502.388 399.115 503.449C423.155 504.456 448.02 503.552 473.671 498.868C487.016 496.422 499.883 492.39 512.739 488.587C525.67 484.751 538.655 481.139 551.251 476.395C563.848 471.651 576.008 465.775 588.423 460.572C600.838 455.369 613.537 450.805 625.943 445.584C640.543 439.444 654.962 433.407 669.779 429.08C684.897 424.666 700.307 422.031 715.676 419.662C731.092 417.294 746.57 415.168 762.294 415.022C777.702 414.88 793.229 416.683 808.987 418.856C830.164 421.77 851.456 423.669 872.675 426.116C893.901 428.582 915.082 431.606 936.346 433.495C957.619 435.402 978.994 436.164 1000.34 437.412C1021.65 438.65 1042.98 440.375 1064.37 440.863C1092 441.504 1119.53 440.688 1146.92 439.663C1174.52 438.657 1202.04 437.418 1229.27 433.902C1256.53 430.398 1283.44 424.623 1310.2 417.794C1336.57 411.065 1362.96 403.298 1388.72 392.551C1407.92 384.548 1425.94 374.597 1443.75 364.469C1461.69 354.283 1479.46 343.878 1496.4 332.156C1513.31 320.469 1529.32 307.49 1545.63 294.901C1561.9 282.348 1578.51 270.141 1594.61 257.285C1599.58 253.306 1603.1 249.452 1606.28 246.64C1608.96 244.274 1611.2 242.282 1612.89 240.375L1595.12 200.367C1594.74 200.533 1594.38 200.691 1594.05 200.97C1590.08 204.104 1586.6 207.876 1582.59 210.962L1582.56 210.952Z" fill="#303D78"/>
<path d="M1554.67 778.006C1545.37 779.281 1536.21 781.353 1526.91 782.628C1517.61 783.903 1508.21 784.373 1498.93 785.685C1447.3 792.931 1395.68 800.215 1343.91 806.24C1292.12 812.274 1240.21 817.061 1188.37 822.578C1136.53 828.095 1084.77 834.342 1032.94 840.034C981.115 845.726 929.241 850.854 877.52 857.397C856.319 860.083 835.278 863.842 814.139 866.971C793 870.101 771.772 872.573 750.665 875.98C729.577 879.379 708.63 883.703 687.565 887.204C666.489 890.732 645.277 893.444 624.196 896.907C593.357 901.983 562.715 906.635 532.006 909.049C500.972 911.494 469.993 911.671 439.045 911.049C408.123 910.437 377.166 909.032 346.272 905.019C315.811 901.063 285.557 894.569 255.134 886.983C241.245 883.518 227.061 881.327 212.963 878.919C198.838 876.501 184.751 873.864 170.478 872.745C156.233 871.636 141.903 872.068 127.545 872.49C113.327 872.918 98.9968 873.35 84.72 875.532C69.7708 877.83 56.2978 882.33 43.8579 887.476C30.2633 893.129 17.7388 899.817 7.24372 908.935C-3.28053 918.088 -11.6004 929.506 -18.9266 942.194C-25.615 953.771 -31.7212 966.507 -35.6843 981.062C-38.0325 989.679 -39.3733 998.527 -41.4465 1007.2C-43.5196 1015.88 -46.3252 1024.38 -48.3439 1033.08C-50.3625 1041.78 -51.6023 1050.65 -53.7575 1059.29C-55.9314 1067.95 -59.0285 1076.35 -61.5593 1084.91C-66.1194 1100.32 -71.363 1113.97 -78.7098 1125.19C-87.2658 1138.22 -98.2391 1147.84 -110.417 1155.2C-122.547 1162.52 -136.197 1167.8 -151.793 1169.5C-165.211 1170.97 -179.867 1169.55 -195.75 1166.89C-199.856 1166.2 -204.104 1166.16 -208.132 1165.19C-212.187 1164.21 -215.947 1162.31 -219.925 1161.1C-223.904 1159.88 -228.101 1159.34 -232.005 1157.94C-235.909 1156.53 -239.494 1154.27 -243.345 1152.73C-251.992 1149.25 -260.797 1146.18 -269.156 1142.13C-277.515 1138.08 -285.393 1133.07 -293.606 1128.69C-301.811 1124.32 -310.341 1120.55 -318.495 1116.09C-326.65 1111.63 -334.406 1106.44 -342.633 1102.13C-347.707 1099.46 -353.181 1097.58 -358.298 1095.02C-363.433 1092.47 -368.22 1089.23 -373.42 1086.85C-378.619 1084.46 -384.211 1082.92 -389.514 1080.76C-394.798 1078.59 -399.847 1075.78 -405.283 1073.88C-420.307 1068.62 -435.044 1066.2 -449.163 1064.97C-464.573 1063.63 -479.494 1063.85 -493.846 1067.19C-508.179 1070.52 -521.663 1076.93 -534.958 1084.79C-547.194 1092.02 -559.483 1100.51 -570.855 1111.48C-579.885 1120.18 -587.395 1130 -594.834 1139.69C-602.371 1149.51 -609.882 1159.33 -616.17 1169.93C-622.467 1180.5 -627.512 1191.81 -632.945 1202.9C-638.376 1213.95 -644.224 1224.82 -649.195 1236.14C-654.52 1248.24 -659.021 1260.72 -664.228 1272.88C-669.435 1285.04 -675.396 1296.88 -680.603 1309.04C-685.811 1321.2 -690.238 1333.7 -695.5 1345.84C-700.762 1357.98 -706.831 1369.78 -712.219 1381.84C-719.426 1397.95 -727.103 1413.26 -736.665 1426.98C-746.605 1441.22 -758.429 1453.66 -770.848 1465.37C-783.247 1477.07 -796.349 1488.17 -811.129 1497.42C-825.364 1506.31 -841.073 1513.37 -857.45 1520.04C-869.517 1524.95 -881.314 1530.58 -893.433 1535.43C-905.553 1540.28 -917.969 1544.36 -930.055 1549.28C-942.141 1554.21 -953.879 1559.96 -965.847 1565.11C-977.833 1570.25 -990.105 1574.81 -1001.9 1580.35C-1023.73 1590.58 -1043.9 1603.07 -1063.47 1616.1C-1083.3 1629.3 -1102.58 1643.13 -1120.59 1658.57C-1138.53 1673.99 -1155.11 1690.99 -1171.7 1708.03C-1188.18 1724.96 -1204.71 1742 -1220.31 1759.94C-1236.63 1778.71 -1251.83 1798.37 -1267.47 1817.7C-1283.09 1837.01 -1299.18 1855.99 -1314.63 1875.45C-1330.1 1894.92 -1344.95 1914.86 -1360.76 1934.06C-1376.55 1953.25 -1393.28 1971.66 -1409.92 1990.16C-1415.92 1996.83 -1421.41 2003.93 -1427.58 2010.39C-1433.78 2016.86 -1440.66 2022.66 -1447 2028.97C-1453.34 2035.28 -1459.19 2042.11 -1465.64 2048.31C-1472.1 2054.49 -1479.18 2060.04 -1485.74 2066.16C-1499.41 2078.93 -1513.09 2090.03 -1527.79 2098.26C-1543.65 2107.15 -1560.4 2112.68 -1577.43 2116.57C-1594.44 2120.42 -1611.96 2122.68 -1630.13 2121.81C-1647.09 2121 -1664.43 2117.37 -1682.33 2112.66C-1697.52 2108.66 -1712.61 2104.69 -1727.26 2099.4C-1741.95 2094.09 -1756.12 2087.5 -1770.48 2081.39C-1784.84 2075.28 -1799.42 2069.65 -1813.65 2063.24C-1827.87 2056.82 -1841.77 2049.63 -1856.08 2043.43C-1863.3 2040.3 -1870.89 2037.95 -1878.18 2034.93C-1885.46 2031.91 -1892.46 2028.18 -1899.82 2025.36C-1907.19 2022.53 -1914.88 2020.59 -1922.36 2018.01C-1929.62 2015.52 -1936.7 2012.46 -1944.08 2010.26L-1921.15 2061.88C-1909.98 2064.02 -1898.86 2066.34 -1887.95 2069.35C-1872.32 2073.64 -1857.11 2079.26 -1841.72 2084.36C-1826.35 2089.44 -1810.78 2093.98 -1795.46 2099.24C-1780.14 2104.5 -1765.06 2110.5 -1749.59 2115.33C-1745.86 2116.5 -1741.88 2116.85 -1738.13 2117.96C-1734.38 2119.07 -1730.87 2120.97 -1727.13 2122.06C-1723.38 2123.16 -1719.4 2123.47 -1715.65 2124.59C-1711.89 2125.7 -1708.41 2127.63 -1704.68 2128.8C-1678.73 2136.95 -1653.47 2141.06 -1629.17 2142.72C-1602.79 2144.51 -1577.24 2143.31 -1552.62 2137.48C-1528.1 2131.68 -1504.71 2121.34 -1481.81 2108.02C-1460.76 2095.77 -1439.9 2081.02 -1420.12 2062.44C-1402.99 2046.37 -1387.21 2029.12 -1371.4 2012.01C-1355.51 1994.83 -1339.57 1977.75 -1324.59 1959.84C-1309.61 1941.91 -1295.63 1923.18 -1281.18 1904.83C-1266.73 1886.5 -1251.79 1868.54 -1237.44 1850.08C-1223.49 1832.13 -1210.08 1813.78 -1195.68 1796.3C-1181.21 1778.76 -1165.76 1762.1 -1150.33 1745.47C-1134.9 1728.82 -1119.44 1712.18 -1102.54 1696.91C-1085.79 1681.77 -1067.68 1668.05 -1049.03 1654.68C-1037.2 1646.21 -1025.5 1637.73 -1013.06 1630.49C-1000.53 1623.2 -987.336 1617.21 -974.34 1610.92C-961.298 1604.63 -948.417 1598.03 -935.033 1592.52C-921.649 1587 -907.838 1582.6 -894.25 1577.65C-870.459 1568.98 -848.853 1557.83 -828.735 1545.68C-807.492 1532.85 -787.785 1518.7 -770.625 1501.88C-753.426 1485.04 -738.911 1465.67 -725.782 1444.76C-713.336 1424.91 -701.937 1403.56 -693.131 1379.95C-690.234 1372.21 -687.999 1364.2 -684.891 1356.53C-681.783 1348.86 -677.841 1341.54 -674.616 1333.93C-671.391 1326.32 -668.9 1318.38 -665.648 1310.78C-662.396 1303.18 -658.372 1295.9 -655.155 1288.27C-650.281 1276.68 -646.114 1264.77 -640.987 1253.3C-635.84 1241.81 -629.725 1230.78 -623.991 1219.6C-618.258 1208.42 -612.855 1197 -606.201 1186.31C-599.587 1175.69 -591.74 1165.8 -583.889 1155.83C-570.557 1138.89 -557.292 1124.44 -542.873 1113.67C-526.022 1101.09 -508.06 1093.45 -489.529 1089.29C-470.912 1085.11 -451.4 1084.38 -430.858 1088.72C-413.239 1092.43 -395.164 1100.07 -375.984 1110.1C-367.007 1114.78 -357.766 1118.99 -348.992 1124.02C-340.237 1129.07 -331.968 1134.95 -323.287 1140.19C-314.633 1145.41 -305.559 1150 -296.897 1155.25C-288.235 1160.49 -279.995 1166.41 -271.261 1171.51C-265.372 1174.94 -259.016 1177.54 -252.984 1180.68C-246.942 1183.84 -241.178 1187.55 -234.93 1190.26C-228.7 1192.98 -222.052 1194.71 -215.573 1196.87C-209.14 1199.03 -202.814 1201.66 -196.116 1203.14C-180.851 1206.5 -166.452 1206.93 -153.156 1206.06C-137.965 1205.07 -123.901 1202.1 -111.536 1195.67C-99.1049 1189.18 -88.696 1179.36 -79.4062 1167.42C-71.2638 1156.98 -63.6496 1144.84 -58.1192 1130.25C-55.3744 1122.98 -53.6215 1115.37 -51.2499 1107.97C-48.8784 1100.58 -45.8586 1093.38 -43.7241 1085.91C-41.5813 1078.46 -40.3051 1070.74 -38.1979 1063.26C-36.1179 1055.77 -33.207 1048.52 -31.0181 1041.07C-25.1644 1021.2 -18.9971 1003.61 -10.6557 988.727C-0.812632 971.164 11.5748 957.445 25.7332 946.135C39.8729 934.833 56.0344 925.741 75.4243 919.946C91.8351 915.031 110.451 912.74 131.241 911.268C144.067 910.352 156.837 909.055 169.628 909.029C182.466 909.005 195.251 910.239 208.027 911.095C220.83 911.961 233.661 912.434 246.357 914.178C259.052 915.923 271.538 918.926 284.068 921.573C317.171 928.522 350.404 932.608 383.506 935.786C416.959 938.991 450.375 941.246 483.838 941.213C517.301 941.181 550.746 938.867 584.244 936.216C617.547 933.582 650.94 930.641 684.255 926.05C750.561 916.898 816.857 907.571 883.277 899.289C949.689 890.988 1016.25 883.723 1082.68 875.414C1149.11 867.105 1215.39 857.74 1281.69 848.524C1347.97 839.315 1414.29 830.266 1480.36 819.291C1482.97 818.862 1485.48 817.627 1488.11 817.235C1489.84 816.967 1491.62 817.06 1493.39 817.05L1592.41 773.65C1589.16 774.178 1585.91 774.687 1582.68 775.116C1573.38 776.372 1563.98 776.814 1554.69 778.089L1554.67 778.006Z" fill="#303D78"/>
<path d="M1141.34 899.488C1095.75 906.53 1050.2 914.024 1004.48 920.398C958.781 926.791 912.939 932.055 867.166 937.985C818.244 944.31 769.43 950.878 720.502 955.41C671.388 959.978 622.225 962.503 573.091 964.072C523.91 965.64 474.695 966.212 425.452 963.565C376.579 960.935 327.76 955.117 278.786 947.167C267.521 945.333 256.099 944.825 244.744 943.907C233.396 943.008 222.031 941.712 210.624 941.647C199.236 941.573 187.853 942.732 176.456 943.402C165.087 944.084 153.658 944.275 142.323 945.592C122.511 947.892 104.263 952.692 87.3241 958.557C68.8586 964.956 51.7827 972.856 37.0325 983.954C22.2446 995.069 9.99469 1009.2 -0.757991 1025.48C-10.4598 1040.15 -19.197 1056.69 -25.372 1075.94C-28.0936 1084.43 -30.0135 1093.2 -32.8275 1101.68C-35.6225 1110.16 -39.2843 1118.37 -42.3248 1126.75C-45.3843 1135.14 -47.8164 1143.77 -51.3311 1152C-54.8079 1160.22 -59.3272 1167.97 -63.4313 1175.94C-71.3816 1191.35 -80.1403 1204.73 -90.7693 1215.08C-102.837 1226.82 -116.858 1234.56 -131.671 1239.56C-146.465 1244.55 -162.326 1246.94 -179.104 1244.96C-193.874 1243.23 -209.045 1237.95 -224.802 1230.64C-232.155 1227.22 -239.629 1224.2 -246.562 1220.15C-253.523 1216.09 -259.852 1211.06 -266.512 1206.55C-273.173 1202.04 -280.182 1198.03 -286.653 1193.24C-293.115 1188.47 -299.031 1182.94 -305.424 1178.07C-312.755 1172.51 -320.532 1167.53 -327.845 1161.96C-335.166 1156.38 -342.05 1150.2 -349.542 1144.89C-357.042 1139.56 -365.15 1135.11 -372.99 1130.29C-380.814 1125.51 -388.46 1120.32 -396.81 1116.28C-410.22 1109.82 -423.581 1106.17 -436.373 1103.75C-450.577 1101.06 -464.401 1100.03 -477.783 1102.29C-491.184 1104.56 -503.865 1110.08 -516.397 1117.31C-527.663 1123.83 -539.051 1131.7 -549.531 1142.22C-554.946 1147.65 -559.482 1153.84 -564.379 1159.67C-569.315 1165.52 -574.642 1171.05 -579.057 1177.25C-583.492 1183.46 -586.975 1190.29 -590.934 1196.8C-594.874 1203.31 -599.302 1209.59 -602.756 1216.38C-611.402 1233.33 -619.343 1250.64 -627.989 1267.59C-636.654 1284.54 -646.032 1301.12 -654.58 1318.13C-663.136 1335.13 -670.851 1352.55 -679.18 1369.65C-687.51 1386.75 -696.456 1403.58 -704.441 1420.84C-714.943 1443.55 -726.107 1465.01 -739.496 1484.42C-753.491 1504.7 -769.799 1522.64 -787.269 1539.17C-804.75 1555.73 -823.548 1571.01 -844.821 1583.67C-865.043 1595.69 -887.383 1605.18 -911.297 1613.52C-924.554 1618.15 -937.47 1623.75 -950.567 1628.9C-963.646 1634.03 -976.935 1638.74 -989.671 1644.65C-1002.41 1650.55 -1014.54 1657.65 -1026.78 1664.59C-1038.93 1671.5 -1051.25 1678.3 -1062.76 1686.5C-1081.03 1699.5 -1097.53 1714.26 -1113.61 1729.24C-1129.84 1744.38 -1145.72 1759.81 -1160.28 1776.44C-1174.84 1793.06 -1188.06 1810.81 -1201.53 1828.41C-1214.93 1845.94 -1228.62 1863.35 -1241.53 1881.34C-1253.88 1898.57 -1265.42 1916.38 -1277.78 1933.62C-1290.15 1950.85 -1303.35 1967.48 -1316.26 1984.29C-1329.2 2001.1 -1341.9 2018.1 -1355.94 2034.05C-1369.9 2049.92 -1385.15 2064.69 -1400.75 2079.28C-1402.79 2081.19 -1404.24 2083.73 -1406.25 2085.67C-1408.2 2087.56 -1410.69 2088.92 -1412.66 2090.79L-1333.26 2055.98C-1323.54 2043.08 -1314.45 2029.73 -1305.25 2016.51C-1293.35 1999.37 -1281.23 1982.35 -1270.07 1964.75C-1258.91 1947.13 -1248.71 1928.91 -1237.81 1911.11C-1226.92 1893.31 -1215.34 1875.95 -1204.25 1858.29C-1188.64 1833.44 -1172.3 1810.04 -1153.8 1789.14C-1134.57 1767.44 -1113.19 1748.52 -1090.64 1731.25C-1068.04 1713.97 -1044.17 1698.26 -1018 1685.63C-992.871 1673.5 -965.741 1664.35 -937.129 1656.71C-912.618 1650.17 -890.228 1640.79 -869.258 1630.15C-847.177 1618.95 -826.539 1606.19 -808.152 1590.6C-789.813 1575.05 -773.878 1556.79 -759.038 1537.04C-744.902 1518.24 -731.584 1498.01 -720.417 1475.53C-709.766 1454.13 -700.018 1432.28 -689.52 1410.79C-679.022 1389.31 -667.792 1368.19 -657.149 1346.78C-646.506 1325.36 -636.469 1303.65 -625.419 1282.44C-614.361 1261.25 -602.273 1240.59 -590.511 1219.76C-586.962 1213.49 -583.971 1206.88 -580.054 1200.83C-576.145 1194.76 -571.35 1189.31 -567.038 1183.53C-562.718 1177.77 -558.834 1171.65 -554.05 1166.23C-549.294 1160.84 -543.678 1156.22 -538.397 1151.25C-529.29 1142.68 -520.24 1135.09 -510.388 1129.82C-499.633 1124.09 -488.197 1121.11 -476.739 1119.36C-465.271 1117.63 -453.491 1117.06 -441.488 1119.33C-430.514 1121.43 -419.613 1125.96 -408.352 1131.45C-400.219 1135.4 -392.048 1139.13 -384.56 1143.97C-377.019 1148.83 -370.27 1154.75 -363.195 1160.24C-356.138 1165.74 -348.738 1170.84 -341.976 1176.7C-335.215 1182.55 -329.101 1189.13 -322.409 1195.08C-316.046 1200.75 -309.175 1205.88 -302.822 1211.58C-296.47 1217.28 -290.647 1223.56 -284.176 1229.12C-277.706 1234.67 -270.616 1239.48 -263.871 1244.74C-257.154 1249.98 -250.756 1255.68 -243.644 1260.43C-227.241 1271.39 -210.836 1278.33 -195.291 1282.77C-176.795 1288.06 -159.069 1289.57 -142.361 1285.78C-125.634 1281.98 -110.309 1272.94 -96.0052 1260.18C-83.9489 1249.43 -72.2264 1236.05 -62.2988 1219.03C-58.0732 1211.79 -54.787 1204.06 -50.9514 1196.66C-47.1053 1189.22 -42.7075 1182.06 -39.2515 1174.46C-35.7766 1166.86 -33.2456 1158.85 -30.0979 1151.12C-26.9585 1143.37 -23.1921 1135.86 -20.3444 1128.01C-13.0513 1107.86 -4.65587 1089.79 6.19505 1074.34C18.1009 1057.4 32.6346 1043.72 48.5021 1031.93C64.3403 1020.18 81.66 1010.13 101.134 1003C119.174 996.401 138.917 992.47 159.821 989.422C180.277 986.435 200.64 983.849 221.069 982.939C241.617 982.044 262.137 982.867 282.679 983.434C303.194 983.991 323.738 984.309 344.24 985.702C364.714 987.084 385.126 989.549 405.609 991.106C464.661 995.62 523.571 996.808 582.305 996.635C641.336 996.467 700.26 994.887 759.023 990.55C817.767 986.221 876.303 979.133 934.795 971.234C993.093 963.353 1051.41 954.654 1109.5 943.812C1126.65 940.615 1143.61 936.425 1160.72 932.932C1177.81 929.447 1195.07 926.651 1212.14 923.019C1229.21 919.386 1246.11 914.889 1263.16 911.219C1272.25 909.272 1281.41 907.54 1290.55 905.817L1413.35 851.98C1368.29 860.895 1323.31 870.025 1278.07 877.874C1232.61 885.777 1186.93 892.382 1141.32 899.432L1141.34 899.488Z" fill="#303D78"/>
<path d="M1157.79 953.835C1149.33 955.885 1140.67 957.218 1132.28 959.51C1075.94 974.839 1019.54 987.968 962.734 997.574C905.441 1007.26 847.834 1013.33 790.115 1017.73C732.415 1022.11 674.549 1024.8 616.443 1024.41C558.754 1024.03 500.927 1020.59 442.861 1016.01C419.962 1014.21 397.008 1013.56 374.093 1012.64C351.133 1011.72 328.195 1010.54 305.26 1011C282.324 1011.47 259.468 1013.53 236.573 1015.81C213.836 1018.1 191.025 1020.57 168.362 1025.11C147.448 1029.3 127.962 1035.75 109.588 1043.12C90.0802 1050.94 71.6904 1059.96 55.4168 1071.9C39.1055 1083.87 25.0642 1098.65 12.3547 1115.36C0.577473 1130.81 -10.2853 1148.01 -18.6827 1168.01C-22.3714 1176.77 -25.4266 1185.83 -29.4424 1194.46C-33.4583 1203.09 -38.4052 1211.26 -42.8468 1219.7C-47.2779 1228.1 -51.2141 1236.81 -56.161 1244.98C-61.0785 1253.11 -66.9854 1260.64 -72.4983 1268.44C-82.6758 1282.81 -93.0606 1294.98 -104.716 1303.77C-118.39 1314.08 -133.304 1319.82 -148.552 1322.36C-163.801 1324.91 -179.768 1324.35 -196.077 1319.05C-209.961 1314.53 -223.77 1306.41 -238.066 1296.12C-247.004 1289.69 -255.978 1283.44 -264.125 1276.2C-272.3 1268.95 -279.596 1260.77 -287.312 1253.03C-295.019 1245.3 -303.161 1237.97 -310.721 1230.06C-318.28 1222.16 -325.248 1213.7 -332.955 1205.97C-338.12 1200.81 -343.882 1196.29 -349.146 1191.27C-354.429 1186.25 -359.262 1180.71 -364.781 1175.98C-370.319 1171.25 -376.518 1167.32 -382.419 1163C-388.276 1158.73 -393.907 1153.99 -400.236 1150.29C-410.896 1144.06 -421.899 1140.27 -432.53 1137.42C-444.158 1134.31 -455.652 1132.41 -467.043 1133.35C-478.453 1134.3 -489.464 1138.08 -500.398 1143.1C-510.393 1147.69 -520.596 1153.29 -530.026 1161.29C-538.994 1168.91 -546.664 1177.66 -554.318 1186.25C-562.06 1194.95 -569.846 1203.59 -576.515 1213.08C-583.184 1222.56 -588.678 1232.8 -594.54 1242.83C-600.392 1252.82 -606.65 1262.62 -611.98 1272.93C-621.758 1291.81 -630.84 1311.03 -640.637 1329.92C-650.442 1348.79 -660.924 1367.31 -670.604 1386.26C-680.265 1405.2 -689.112 1424.55 -698.51 1443.63C-707.936 1462.69 -717.932 1481.49 -726.959 1500.73C-739.243 1526.91 -752.527 1551.19 -768.374 1572.6C-785.291 1595.42 -804.934 1614.91 -826.278 1632.04C-847.678 1649.2 -870.989 1664.15 -897.226 1675.31C-921.656 1685.69 -948.521 1692.64 -977.465 1697.6C-1002.61 1701.9 -1025.71 1709.47 -1047.38 1718.55C-1070.27 1728.17 -1091.69 1739.68 -1110.86 1754.32C-1129.98 1768.92 -1146.73 1786.53 -1162.32 1805.77C-1177.15 1824.06 -1191.11 1843.92 -1202.9 1866.11C-1210.59 1880.58 -1217.52 1895.44 -1225.12 1909.94C-1232.73 1924.43 -1241.09 1938.58 -1248.67 1953.09C-1256.24 1967.61 -1263.08 1982.51 -1270.65 1997.05C-1277.89 2010.96 -1285.79 2024.53 -1293.11 2038.41L-1249.18 2019.12C-1246.87 2012.59 -1244.72 2005.99 -1242.2 1999.54C-1238.56 1990.22 -1234.12 1981.2 -1230.5 1971.89C-1226.86 1962.57 -1224.03 1952.94 -1220.49 1943.59C-1216.93 1934.24 -1212.67 1925.15 -1209.27 1915.75C-1200.08 1890.39 -1189.7 1867.05 -1176.52 1846.57C-1162.21 1824.35 -1144.86 1805.6 -1125.54 1789.47C-1106.17 1773.29 -1084.6 1759.57 -1059.87 1749.91C-1037.29 1741.1 -1012.21 1735.86 -984.91 1732.79C-957.493 1729.68 -932.37 1722.94 -909.016 1714.31C-883.909 1705.04 -860.676 1693.38 -839.952 1678.11C-819.238 1662.87 -801.208 1644.18 -784.52 1623.39C-768.83 1603.86 -754.156 1582.41 -741.745 1558.35C-739.78 1554.53 -738.491 1550.35 -736.417 1546.56C-734.361 1542.79 -731.538 1539.42 -729.456 1535.65C-727.373 1531.89 -726.003 1527.74 -723.947 1523.97C-721.892 1520.19 -719.112 1516.77 -717.139 1512.96C-706.247 1491.96 -696.142 1470.55 -685.305 1449.52C-674.468 1428.49 -662.907 1407.82 -652.043 1386.8C-641.187 1365.76 -631.073 1344.38 -620.154 1323.38C-609.235 1302.38 -597.522 1281.8 -586.477 1260.88C-582.68 1253.69 -579.361 1246.24 -575.034 1239.38C-570.715 1232.5 -565.427 1226.28 -560.561 1219.76C-555.706 1213.28 -551.204 1206.45 -545.785 1200.37C-540.395 1194.33 -534.136 1189.06 -528.158 1183.48C-518.402 1174.32 -508.693 1166.49 -498.244 1161.35C-486.598 1155.58 -474.362 1153.08 -462.192 1152.32C-450.031 1151.54 -437.591 1152.45 -425.305 1156.69C-414.284 1160.47 -403.666 1167.01 -392.834 1174.85C-383.138 1181.86 -373.62 1188.92 -365.138 1197.07C-356.584 1205.28 -349.154 1214.52 -341.386 1223.46C-333.626 1232.37 -325.5 1240.99 -318.041 1250.2C-310.591 1259.38 -303.817 1269.14 -296.202 1278.18C-291.458 1283.82 -286.058 1288.9 -281.225 1294.44C-276.366 1299.98 -272.058 1306.01 -266.965 1311.32C-261.863 1316.64 -256.049 1321.23 -250.587 1326.19C-245.161 1331.13 -240.042 1336.49 -234.11 1340.93C-222.202 1349.87 -209.728 1355.75 -197.629 1360.02C-183.992 1364.85 -170.444 1367.55 -157.028 1366.49C-143.612 1365.42 -130.652 1360.63 -117.967 1353.69C-106.728 1347.53 -95.3611 1339.71 -85.0816 1328.93C-76.9305 1320.4 -70.1204 1310.87 -63.1807 1301.54C-56.2093 1292.13 -49.0954 1282.84 -43.0589 1272.85C-37.0224 1262.86 -32.1118 1252.22 -26.7147 1241.86C-21.3177 1231.5 -15.4047 1221.39 -10.3433 1210.88C-2.48064 1194.61 5.79078 1179.27 15.8756 1165.66C26.4561 1151.39 38.8552 1139.12 51.8904 1127.68C64.9174 1116.21 78.6961 1105.47 94.1739 1096.73C108.995 1088.33 125.304 1081.92 142.388 1075.92C155.477 1071.32 168.402 1066.5 181.689 1062.96C195.033 1059.39 208.674 1057.15 222.204 1054.51C235.743 1051.89 249.226 1048.89 262.92 1047.07C276.568 1045.26 290.388 1044.65 304.17 1043.49C322.954 1041.93 341.667 1040.11 360.436 1039.64C379.25 1039.17 398.027 1040.04 416.81 1040.57C435.594 1041.1 454.415 1041.26 473.165 1042.68C491.887 1044.09 510.511 1046.76 529.203 1048.96C574.516 1054.32 619.755 1057.02 664.751 1058.46C710.208 1059.92 755.527 1060.05 800.642 1056.96C845.776 1053.87 890.624 1047.54 935.387 1039.34C970.358 1032.92 1005.34 1025.36 1040.1 1015.73L1206.69 942.718C1198.86 944.337 1190.9 945.427 1183.08 947.176C1174.59 949.086 1166.3 951.852 1157.84 953.902L1157.79 953.835Z" fill="#303D78"/>
<path d="M858.399 1087.39C852.996 1088.21 847.458 1088.22 842.045 1089.07C819.955 1092.5 798.05 1095.38 776.132 1096.25C753.972 1097.13 731.895 1095.96 709.854 1094.62C687.851 1093.25 665.802 1091.69 643.834 1088.47C622.105 1085.28 600.512 1080.46 578.763 1075.8C541.194 1067.76 503.65 1063.19 466.411 1060.52C428.397 1057.8 390.599 1057.08 353.016 1060.11C315.461 1063.15 278.25 1069.93 241.182 1078.9C204.976 1087.68 168.761 1098.53 133.112 1113.14C120.003 1118.52 107.992 1125.49 96.3444 1132.63C84.4101 1139.93 72.7692 1147.49 62.3857 1156.6C52.04 1165.7 43.0947 1176.27 34.3186 1187.17C25.8081 1197.75 17.3531 1208.71 10.3244 1221C4.73383 1230.77 -0.0725259 1240.98 -5.65471 1250.77C-11.2369 1260.56 -17.5843 1269.9 -23.3908 1279.54C-29.1971 1289.19 -34.465 1299.17 -40.7495 1308.55C-47.0045 1317.9 -54.236 1326.57 -61.2017 1335.49C-64.4135 1339.61 -67.0641 1344.19 -70.4897 1348.14C-73.9152 1352.09 -78.0675 1355.37 -81.7841 1359.02C-85.5112 1362.7 -88.851 1366.79 -92.9737 1370.04C-97.0397 1373.26 -101.81 1375.56 -106.36 1378.25C-116.545 1384.24 -126.395 1389.26 -136.511 1391.8C-147.509 1394.54 -158.542 1394.4 -169.487 1393.03C-180.026 1391.71 -190.779 1389.25 -201.27 1384.11C-210.515 1379.59 -219.29 1372.87 -228.491 1365.4C-237.495 1358.06 -246.409 1350.77 -254.312 1342.51C-262.258 1334.19 -269.15 1324.94 -276.429 1316.03C-283.708 1307.13 -291.383 1298.56 -298.419 1289.44C-305.429 1280.33 -311.792 1270.69 -318.976 1261.74C-323.585 1256 -328.859 1250.79 -333.584 1245.15C-338.309 1239.5 -342.52 1233.38 -347.497 1227.98C-352.502 1222.57 -358.238 1217.9 -363.66 1212.88C-369.038 1207.9 -374.127 1202.5 -380.067 1198.04C-390.483 1190.22 -401.435 1185.02 -412.046 1180.99C-423.903 1176.5 -435.689 1173.59 -447.538 1173.86C-459.425 1174.14 -471.059 1177.58 -482.68 1182.64C-493.089 1187.16 -503.781 1192.93 -513.759 1201.33C-523.013 1209.12 -530.961 1218.06 -538.868 1226.9C-546.871 1235.82 -554.891 1244.7 -561.775 1254.41C-568.651 1264.14 -574.361 1274.66 -580.449 1284.94C-586.499 1295.21 -592.947 1305.29 -598.475 1315.86C-609.728 1337.43 -620.131 1359.44 -631.203 1381.11C-642.276 1402.78 -654.025 1424.1 -665.051 1445.77C-676.069 1467.46 -686.355 1489.53 -697.463 1511.17C-708.571 1532.82 -720.492 1554.05 -731.799 1575.6C-738.753 1588.82 -745.21 1602.29 -752.881 1615.02C-760.603 1627.84 -769.498 1639.84 -778.407 1651.77C-787.336 1663.7 -796.338 1675.62 -806.926 1686.26C-817.309 1696.7 -829.146 1705.8 -841.589 1714.61C-850.656 1721.03 -859.685 1727.08 -869.435 1731.56C-879.365 1736.15 -889.872 1739.08 -900.295 1742.19C-910.7 1745.3 -921.105 1748.61 -931.798 1750.81C-942.427 1753.01 -953.325 1754.09 -964.084 1755.94C-973.098 1757.5 -981.998 1759.76 -991.009 1761.27C-1000.04 1762.79 -1009.18 1763.55 -1018.16 1765.34C-1027.12 1767.11 -1035.85 1769.91 -1044.7 1772.29C-1053.49 1774.65 -1062.47 1776.59 -1071.07 1779.83C-1082.59 1784.17 -1093.02 1790.05 -1103.09 1796C-1113.53 1802.15 -1123.69 1808.5 -1132.61 1816.34C-1141.54 1824.18 -1149.1 1833.43 -1156.56 1842.92C-1163.78 1852.13 -1171 1861.65 -1176.85 1872.36C-1183.04 1883.73 -1187.95 1895.66 -1193.13 1907.41C-1198.34 1919.21 -1203.83 1930.89 -1208.13 1943.01C-1212.43 1955.14 -1215.53 1967.65 -1219.07 1980.05C-1221.89 1989.9 -1224.98 1999.75 -1227.59 2009.71L-1204.63 1999.63C-1202.53 1991.37 -1200.54 1983.07 -1197.95 1975C-1194.47 1964.2 -1189.9 1953.8 -1185.65 1943.31C-1181.4 1932.81 -1177.47 1922.15 -1172.21 1912.1C-1166.98 1902.13 -1160.48 1892.81 -1154 1883.37C-1147.82 1874.37 -1141.76 1865.56 -1134.5 1857.95C-1127.05 1850.14 -1118.5 1843.68 -1109.94 1837.32C-1101.41 1830.97 -1092.73 1824.64 -1083.08 1819.73C-1073.7 1814.97 -1063.5 1811.61 -1053.08 1808.18C-1046.67 1806.06 -1040.49 1803.33 -1034 1801.53C-1027.52 1799.72 -1020.78 1798.85 -1014.23 1797.3C-1007.69 1795.73 -1001.3 1793.47 -994.702 1792.07C-988.124 1790.69 -981.346 1790.16 -974.753 1788.86C-963.018 1786.56 -951.387 1783.56 -939.657 1781.2C-927.882 1778.83 -915.988 1777.09 -904.439 1774.07C-892.844 1771.04 -881.659 1766.74 -870.473 1762.43C-859.402 1758.18 -848.199 1753.91 -837.695 1747.82C-824.761 1740.32 -813.4 1731.12 -802.468 1721.76C-791.303 1712.22 -780.496 1702.38 -770.99 1691.34C-761.504 1680.3 -753.387 1668.12 -745.109 1656.05C-736.882 1644.07 -728.462 1632.11 -721.012 1619.55C-708.302 1598.1 -696.721 1576.05 -684.677 1554.22C-672.645 1532.42 -660.124 1510.85 -648.46 1488.83C-636.797 1466.81 -626.001 1444.36 -614.419 1422.31C-602.838 1400.26 -590.516 1378.6 -578.735 1356.64C-573.284 1346.51 -568.491 1336.01 -562.715 1326.04C-556.939 1316.08 -550.21 1306.68 -543.824 1297.12C-537.419 1287.56 -531.326 1277.74 -524.035 1268.8C-516.803 1259.92 -508.447 1251.95 -500.052 1243.91C-492.453 1236.62 -484.798 1230.07 -476.244 1225.6C-467.138 1220.84 -457.307 1218.48 -447.481 1216.97C-437.674 1215.47 -427.574 1214.78 -417.437 1216.57C-407.934 1218.26 -398.622 1222.16 -389.171 1226.79C-381.256 1230.66 -373.505 1234.46 -366.638 1239.48C-359.646 1244.58 -353.663 1250.82 -347.443 1256.78C-341.251 1262.72 -334.752 1268.44 -329.03 1274.91C-323.344 1281.35 -318.452 1288.49 -312.932 1295.11C-305.594 1303.94 -297.824 1312.47 -290.728 1321.52C-283.633 1330.57 -277.192 1340.14 -269.845 1348.99C-262.499 1357.84 -254.31 1365.94 -246.248 1374.16C-238.248 1382.34 -230.322 1390.71 -221.152 1397.86C-211.294 1405.55 -200.737 1410.88 -190.476 1415.24C-179.181 1420.04 -167.918 1423.61 -156.444 1424.38C-144.739 1425.17 -133.094 1423.02 -121.533 1419.56C-110.752 1416.33 -99.7519 1412.02 -89.3648 1405.11C-84.9132 1402.14 -81.1772 1398.28 -77.1211 1394.88C-73.0462 1391.48 -68.5923 1388.47 -64.8417 1384.69C-61.1102 1380.92 -58.1407 1376.45 -54.6834 1372.42C-51.2367 1368.42 -47.2535 1364.8 -43.9909 1360.59C-37.2698 1351.94 -31.5691 1342.57 -25.4307 1333.52C-19.2921 1324.47 -12.6862 1315.72 -6.9332 1306.41C-1.18036 1297.11 3.71709 1287.31 9.26232 1277.89C14.8265 1268.47 21.0469 1259.45 26.6006 1250.06C33.7695 1237.93 40.9812 1226.26 49.6108 1215.9C58.5059 1205.21 68.7636 1196.02 79.1822 1187.14C89.6197 1178.25 100.307 1169.56 112.234 1162.39C123.837 1155.42 136.532 1149.98 149.532 1144.56C181.165 1131.4 212.897 1119.98 245.183 1111.64C278.032 1103.15 311.356 1097.82 344.802 1093.77C378.23 1089.74 411.874 1086.96 445.803 1086.85C479.298 1086.74 512.988 1089.26 546.875 1092.47C572.88 1094.95 598.942 1096.64 624.925 1098.81C650.963 1101.01 676.948 1103.7 703.016 1104.89C729.103 1106.08 755.199 1105.75 781.333 1105.21C801.414 1104.79 821.567 1104.23 841.733 1102.63L886.444 1083C882.452 1083.38 878.434 1083.55 874.469 1084.15C869.066 1084.97 863.772 1086.6 858.37 1087.42L858.399 1087.39Z" fill="#303D78"/>
</g>
</g>
<defs>
<clipPath id="clip0_3167_49668">
<rect width="1440" height="750" fill="white"/>
</clipPath>
</defs>
</svg>
