<svg xmlns="http://www.w3.org/2000/svg" width="120" height="27.887" viewBox="0 0 120 27.887">
  <g id="fortune-seeklogo.com" transform="translate(0 0)" opacity="0.3">
    <path id="path3022" d="M6.2,27.887h0a5.6,5.6,0,0,1-1.638-.219A6.237,6.237,0,0,1,.534,24.247L0,23.134V4.744L.534,3.632A6.326,6.326,0,0,1,2.991.915,6.56,6.56,0,0,1,6.328,0h.029A6.593,6.593,0,0,1,9.692.9,6.393,6.393,0,0,1,12.18,3.584l.5.993V23.3l-.455.961a7.562,7.562,0,0,1-2.688,2.894A7.674,7.674,0,0,1,6.2,27.887ZM6.425,4.556a2.025,2.025,0,0,0-1.619.993c-.311.507-.327.9-.327,8.411v7.873l.385.564a2.2,2.2,0,0,0,1.4.987,3.031,3.031,0,0,0,.676-.167,2.142,2.142,0,0,0,.871-.721l.381-.548V5.846l-.517-.58a2.385,2.385,0,0,0-1-.685,1.26,1.26,0,0,0-.248-.026Z" transform="translate(16.056 0)" fill="#fbfcfd"/>
    <path id="path3018" d="M4.266,26.738A6.329,6.329,0,0,1,.283,22.977C.022,22.329,0,21.234,0,11.177L.005.091,2.286.046,4.566,0l0,10.617c0,8.2.051,10.71.215,11.027a2.19,2.19,0,0,0,.81.722,1.571,1.571,0,0,0,2.034-.39l.485-.471V0l2.282.046,2.282.046V11.183c0,10.839-.009,11.113-.352,12a6.462,6.462,0,0,1-3.172,3.239,6.994,6.994,0,0,1-4.885.312Z" transform="translate(70.141 0.845)" fill="#fbfcfd"/>
    <path id="path3016" d="M0,13.521V0H10.986V4.645H4.591v6.321L6.6,10.939l2.009-.028.046,2.259L8.7,15.429H4.591V27.042H0V13.521Z" fill="#fbfcfd"/>
    <path id="path3014" d="M0,13.521V0H3.529C7.371,0,8.423.156,9.76.922a7.085,7.085,0,0,1,2.6,2.865c.434.91.451,1.062.506,4.459A17.374,17.374,0,0,1,12.65,12.8a6.454,6.454,0,0,1-1.691,3.018l-.564.551,1.488,4.98c.818,2.739,1.54,5.14,1.6,5.335.114.351.091.355-2.334.355H8.7l-.713-2.7c-.71-2.687-2.524-9.417-2.678-9.938-.058-.2.06-.3.424-.382a4.3,4.3,0,0,0,2.179-1.859A12.883,12.883,0,0,0,8.147,8.62v-3l-.5-.485c-.461-.451-.587-.485-1.782-.485H4.583v22.4H0V13.521Z" transform="translate(34.648)" fill="#fbfcfd"/>
    <path id="path3012" d="M4.168,26.918c0-.068-.02-5.089-.042-11.157L4.086,4.728,2.043,4.682,0,4.635V0H12.676V4.645h-4v22.4H6.421A10.385,10.385,0,0,1,4.168,26.918Z" transform="translate(52.394)" fill="#fbfcfd"/>
    <path id="path3010" d="M0,13.526V.009H4.775l.184.622c.1.342.89,2.749,1.752,5.349s1.814,5.492,2.115,6.427a5.866,5.866,0,0,0,.711,1.7A64.892,64.892,0,0,0,9.689,7.1L9.678.092,12.022.046,14.366,0V27.042H9.072l-.5-1.534C8.3,24.664,7.824,23.2,7.51,22.256s-1.016-3.09-1.56-4.768a20.058,20.058,0,0,0-1.133-3.05c-.079,0-.144,2.836-.144,6.3v6.3H0V13.526Z" transform="translate(88.732)" fill="#fbfcfd"/>
    <path id="path3006" d="M0,13.521V0H10.986V4.645H4.42l.045,3.111.045,3.111H8.691v4.562H4.427V22.4h6.559v4.645H0V13.521Z" transform="translate(109.014)" fill="#fbfcfd"/>
  </g>
</svg>
