<svg xmlns="http://www.w3.org/2000/svg" width="24" height="24" viewBox="0 0 24 24" fill="none">
<path fill-rule="evenodd" clip-rule="evenodd" d="M21 13.4227L21 20L17.142 20L17.142 13.8632C17.142 12.3216 16.584 11.2695 15.1875 11.2695C14.1215 11.2695 13.4871 11.9785 13.208 12.6644C13.1063 12.9096 13.0801 13.2509 13.0801 13.5941L13.0801 20L9.22078 20C9.22078 20 9.27276 9.60627 9.22078 8.5294L13.0797 8.5294L13.0797 10.1553C13.0719 10.1675 13.0617 10.1806 13.0543 10.1924L13.0797 10.1924L13.0797 10.1553C13.5924 9.37485 14.508 8.25992 16.5574 8.25992C19.0965 8.25988 21 9.89936 21 13.4227ZM5.18381 3C3.86356 3 3 3.85591 3 4.98146C3 6.08249 3.83857 6.96437 5.13259 6.96437L5.15837 6.96437C6.50419 6.96437 7.34117 6.08265 7.34117 4.98146C7.31581 3.85591 6.50419 3 5.18381 3ZM3.22921 20L7.08702 20L7.08702 8.5294L3.22921 8.5294L3.22921 20Z" fill="white"/>
</svg>