<?xml version="1.0" encoding="utf-8"?>
<svg width="370px" height="208px" viewBox="0 0 370 208" version="1.1" xmlns:xlink="http://www.w3.org/1999/xlink" xmlns="http://www.w3.org/2000/svg">
  <desc>Created with Lunacy</desc>
  <defs>
    <path d="M4.999 0L365.001 0Q365.124 0 365.246 0.00602151Q365.369 0.012043 365.491 0.0240715Q365.613 0.0361001 365.734 0.0541066Q365.856 0.0721132 365.976 0.0960544Q366.097 0.119996 366.216 0.149814Q366.335 0.179632 366.452 0.215255Q366.57 0.250879 366.685 0.292221Q366.801 0.333564 366.914 0.380526Q367.027 0.427489 367.138 0.479957Q367.249 0.532426 367.357 0.590276Q367.466 0.648125 367.571 0.711215Q367.676 0.774305 367.778 0.842483Q367.88 0.910662 367.979 0.983765Q368.077 1.05687 368.172 1.13472Q368.267 1.21257 368.358 1.29499Q368.449 1.3774 368.536 1.46417Q368.623 1.55095 368.705 1.64188Q368.787 1.73281 368.865 1.82767Q368.943 1.92253 369.016 2.0211Q369.089 2.11967 369.157 2.2217Q369.226 2.32374 369.289 2.429Q369.352 2.53426 369.41 2.64249Q369.468 2.75072 369.52 2.86165Q369.572 2.97259 369.619 3.08597Q369.666 3.19934 369.708 3.31489Q369.749 3.43043 369.785 3.54787Q369.82 3.6653 369.85 3.78434Q369.88 3.90338 369.904 4.02374Q369.928 4.1441 369.946 4.26549Q369.964 4.38688 369.976 4.50901Q369.988 4.63114 369.994 4.75371Q370 4.87628 370 4.999L370 208L0 208L0 4.999Q0 4.87628 0.00602151 4.75371Q0.012043 4.63114 0.0240715 4.50901Q0.0361001 4.38688 0.0541066 4.26549Q0.0721132 4.1441 0.0960544 4.02374Q0.119996 3.90338 0.149814 3.78434Q0.179632 3.6653 0.215255 3.54787Q0.250879 3.43043 0.292221 3.31489Q0.333564 3.19934 0.380526 3.08597Q0.427489 2.97259 0.479957 2.86165Q0.532426 2.75072 0.590276 2.64249Q0.648125 2.53426 0.711215 2.429Q0.774305 2.32374 0.842483 2.2217Q0.910662 2.11967 0.983765 2.0211Q1.05687 1.92253 1.13472 1.82767Q1.21257 1.73281 1.29499 1.64188Q1.3774 1.55095 1.46417 1.46417Q1.55095 1.3774 1.64188 1.29499Q1.73281 1.21257 1.82767 1.13472Q1.92253 1.05687 2.0211 0.983765Q2.11967 0.910662 2.2217 0.842483Q2.32374 0.774305 2.429 0.711215Q2.53426 0.648125 2.64249 0.590276Q2.75072 0.532426 2.86165 0.479957Q2.97259 0.427489 3.08597 0.380526Q3.19934 0.333564 3.31489 0.292221Q3.43043 0.250879 3.54787 0.215255Q3.6653 0.179632 3.78434 0.149814Q3.90338 0.119996 4.02374 0.0960544Q4.1441 0.0721132 4.26549 0.0541066Q4.38688 0.0361001 4.50901 0.0240715Q4.63114 0.012043 4.75371 0.00602151Q4.87628 0 4.999 0Z" id="path_1" />
    <path d="M366.877 0L0 312.725L302.09 667L594.408 417.828L645 101.483L366.877 0Z" transform="matrix(-0.4694715 0.8829476 0.8829476 0.4694715 303.4416 0.180603)" id="path_2" />
    <path d="M0 0L370 0L370 208.125L0 208.125L0 0Z" id="path_3" />
    <rect width="370" height="208" id="artboard_1" />
    <clipPath id="clip_1">
      <use xlink:href="#artboard_1" clipRule="evenodd" />
    </clipPath>
    <clipPath id="mask_1">
      <use xlink:href="#path_1" />
    </clipPath>
    <clipPath id="mask_2">
      <use xlink:href="#path_2" />
    </clipPath>
    <clipPath id="mask_3">
      <use xlink:href="#path_3" />
    </clipPath>
  </defs>
  <g id="cards/shape/1" clip-path="url(#clip_1)">
    <use xlink:href="#artboard_1" stroke="none" fill="#FFFFFF" />
    <g id="Mask">
      <path d="M4.999 0L365.001 0Q365.124 0 365.246 0.00602151Q365.369 0.012043 365.491 0.0240715Q365.613 0.0361001 365.734 0.0541066Q365.856 0.0721132 365.976 0.0960544Q366.097 0.119996 366.216 0.149814Q366.335 0.179632 366.452 0.215255Q366.57 0.250879 366.685 0.292221Q366.801 0.333564 366.914 0.380526Q367.027 0.427489 367.138 0.479957Q367.249 0.532426 367.357 0.590276Q367.466 0.648125 367.571 0.711215Q367.676 0.774305 367.778 0.842483Q367.88 0.910662 367.979 0.983765Q368.077 1.05687 368.172 1.13472Q368.267 1.21257 368.358 1.29499Q368.449 1.3774 368.536 1.46417Q368.623 1.55095 368.705 1.64188Q368.787 1.73281 368.865 1.82767Q368.943 1.92253 369.016 2.0211Q369.089 2.11967 369.157 2.2217Q369.226 2.32374 369.289 2.429Q369.352 2.53426 369.41 2.64249Q369.468 2.75072 369.52 2.86165Q369.572 2.97259 369.619 3.08597Q369.666 3.19934 369.708 3.31489Q369.749 3.43043 369.785 3.54787Q369.82 3.6653 369.85 3.78434Q369.88 3.90338 369.904 4.02374Q369.928 4.1441 369.946 4.26549Q369.964 4.38688 369.976 4.50901Q369.988 4.63114 369.994 4.75371Q370 4.87628 370 4.999L370 208L0 208L0 4.999Q0 4.87628 0.00602151 4.75371Q0.012043 4.63114 0.0240715 4.50901Q0.0361001 4.38688 0.0541066 4.26549Q0.0721132 4.1441 0.0960544 4.02374Q0.119996 3.90338 0.149814 3.78434Q0.179632 3.6653 0.215255 3.54787Q0.250879 3.43043 0.292221 3.31489Q0.333564 3.19934 0.380526 3.08597Q0.427489 2.97259 0.479957 2.86165Q0.532426 2.75072 0.590276 2.64249Q0.648125 2.53426 0.711215 2.429Q0.774305 2.32374 0.842483 2.2217Q0.910662 2.11967 0.983765 2.0211Q1.05687 1.92253 1.13472 1.82767Q1.21257 1.73281 1.29499 1.64188Q1.3774 1.55095 1.46417 1.46417Q1.55095 1.3774 1.64188 1.29499Q1.73281 1.21257 1.82767 1.13472Q1.92253 1.05687 2.0211 0.983765Q2.11967 0.910662 2.2217 0.842483Q2.32374 0.774305 2.429 0.711215Q2.53426 0.648125 2.64249 0.590276Q2.75072 0.532426 2.86165 0.479957Q2.97259 0.427489 3.08597 0.380526Q3.19934 0.333564 3.31489 0.292221Q3.43043 0.250879 3.54787 0.215255Q3.6653 0.179632 3.78434 0.149814Q3.90338 0.119996 4.02374 0.0960544Q4.1441 0.0721132 4.26549 0.0541066Q4.38688 0.0361001 4.50901 0.0240715Q4.63114 0.012043 4.75371 0.00602151Q4.87628 0 4.999 0Z" id="Mask" fill="none" stroke="none" />
      <g clip-path="url(#mask_1)">
        <g id="Group" transform="translate(-149.0428 -515.2213)">
          <path d="M366.877 0L0 312.725L302.09 667L594.408 417.828L645 101.483L366.877 0Z" transform="matrix(-0.4694715 0.8829476 0.8829476 0.4694715 303.4416 0.180603)" id="Mask" fill="none" stroke="none" />
          <g clip-path="url(#mask_2)">
            <g id="pattern/01" transform="translate(149.0428 515.2213)">
              <path d="M0 0L370 0L370 208.125L0 208.125L0 0Z" id="Mask" fill="#303D78" stroke="none" />
              <g clip-path="url(#mask_3)">
                <path d="M169.279 226.872C168.989 228.867 168.463 231.227 169.222 232.88C170.216 235.041 171.083 236.369 169.214 238.642C167.636 240.56 166.204 241.547 163.742 241.43C161.812 241.335 159.84 241.542 157.923 241.841C152.936 242.614 151.266 244.581 151.076 249.633C150.886 254.707 154.157 258.351 159.509 258.985C165.134 259.653 169.666 257.641 174.184 254.219C180.51 249.429 182.177 245.88 180.061 238.477C179.713 237.26 180.001 235.47 180.702 234.414C186.859 225.132 182.91 211.832 172.764 207.604C170.596 207.349 168.293 206.494 166.284 206.942C157.578 208.886 148.842 210.849 140.353 213.542C135.693 215.02 134.251 219.769 135.165 226.127C135.953 231.626 139.905 236.63 144.074 237.395C144.453 237.465 144.847 237.474 145.235 237.479C148.144 237.521 149.742 236.397 148.987 233.217C148.388 230.69 147.736 228.174 147.174 225.638C146.474 222.477 147.245 219.6 150.438 218.615C153.969 217.528 157.777 216.632 161.422 216.777C168.024 217.037 170.228 220.355 169.279 226.872M437.68 352.76C443.768 348.385 445.479 344.692 443.429 337.438C443.064 336.14 443.35 334.254 444.092 333.127C450.071 324.051 446.118 310.861 436.171 306.419C432.714 306.355 429.136 305.694 425.825 306.348C418.942 307.712 412.146 309.594 405.421 311.604C400.001 313.224 397.971 316.761 398.194 322.938C398.422 329.252 402.033 334.847 406.702 336.073C407.323 336.236 407.985 336.282 408.63 336.313C411.476 336.455 412.85 335.228 412.219 332.341C411.641 329.7 410.939 327.086 410.339 324.449C409.569 321.067 410.666 318.306 414.089 317.439C417.804 316.498 421.743 315.699 425.524 315.906C431.285 316.221 433.348 319.472 432.652 325.11C432.363 327.453 431.901 330.089 432.674 332.178C434.133 336.126 432.325 339.786 427.991 340.148C425.787 340.331 423.557 340.278 421.37 340.568C416.532 341.208 414.57 343.39 414.268 348.186C413.943 353.339 417.699 357.238 423.37 357.706C428.909 358.164 433.26 355.935 437.68 352.76M553.119 388.198C547.237 391.087 548.152 399.119 542.39 402.007C538.979 403.718 535.685 403.973 531.896 402.826C529.638 402.142 527.182 402.11 525.285 402.084C524.585 402.075 523.961 402.067 523.451 402.027C512.423 397.572 504.695 385.092 505.413 374.72C505.488 373.626 505.131 372.435 504.728 371.382C502.161 364.661 506.294 358.592 513.393 358.323C515.227 358.255 517.348 357.384 518.754 356.194C521.562 353.817 524.004 353.508 527.157 355.573C532.369 358.985 538.004 361.777 543.051 365.401C546.464 367.852 549.821 370.881 551.996 374.394C553.774 377.264 553.93 381.211 554.452 384.732C554.615 385.836 553.962 387.782 553.119 388.198ZM518.028 382.465C517.894 382.836 517.761 383.207 517.633 383.579C515.883 388.673 519.09 393.412 524.459 393.746C531.032 394.156 539.368 388.854 541.335 382.711C541.648 381.734 540.911 379.634 540.082 379.225C537.59 377.997 537.631 376.556 538.85 374.568C540.526 371.833 539.227 370.276 536.567 369.866C532.229 369.196 527.839 368.563 523.468 368.536C521.984 368.526 520.496 369.118 518.749 369.813C517.876 370.16 516.938 370.533 515.903 370.869C520.755 374.879 519.388 378.681 518.028 382.465ZM271.475 304.152C267.223 303.571 262.982 302.922 259.6 302.43C249.264 298.393 241.394 285.752 242.135 275.585C242.223 274.392 241.793 273.092 241.353 271.937C239.006 265.789 243.141 259.735 249.693 259.311C251.767 259.176 253.725 257.709 255.804 257.067C256.297 256.914 256.834 256.714 257.382 256.509C259.103 255.865 260.945 255.176 261.955 255.778C269.904 260.507 277.794 265.437 285.118 271.059C287.812 273.126 289.437 277.088 290.608 280.506C292.221 285.221 290.477 289.29 286.404 292.341C285.38 293.107 284.297 294.264 283.988 295.438C282.385 301.569 277.648 304.996 271.475 304.152ZM255.926 278.908C255.578 280.789 254.832 282.597 254.235 284.43C252.674 289.239 255.768 293.968 260.795 294.448C267.292 295.067 275.891 289.65 277.86 283.413C278.159 282.463 277.427 280.512 276.584 280.012C274.617 278.843 273.903 277.724 275.22 275.72C276.904 272.966 275.965 271.102 272.975 270.751C272.493 270.695 272.011 270.637 271.528 270.579C267.057 270.045 262.531 269.504 258.094 269.822C253.716 270.135 253.616 271.22 255.583 275.193C256.105 276.246 256.147 277.717 255.926 278.908ZM365.133 332.533C367.009 329.31 365.389 326.166 361.728 326.438C359.105 326.631 356.539 327.588 353.915 328.215C349.427 319.771 350.651 317.018 360.012 315.487C366.392 314.444 372.829 313.734 379.243 312.9C381.371 312.623 383.509 312.427 385.642 312.193C385.857 312.667 386.072 313.143 386.287 313.619C384.131 315.073 382.029 316.616 379.807 317.96C376.272 320.097 372.494 321.876 369.167 324.292C368.052 325.103 368.003 327.396 367.468 329.011C368.89 329.371 370.329 330.089 371.734 330.03C378.859 329.727 383.628 324.687 388.303 320.393C392.101 316.908 394.478 311.819 397.325 307.339C398.992 304.717 398.206 302.736 395.034 302.364C392.232 302.035 389.31 301.662 386.568 302.104C378.654 303.377 370.76 304.856 362.942 306.623C354.777 308.468 347.533 311.909 343.262 319.826C340.101 325.687 341.959 333.914 347.365 337.143C353.076 340.556 361.777 338.297 365.133 332.533M101.913 233.953C102.807 232.809 103.518 230.516 102.956 229.502C102.275 228.274 100.149 227.206 98.6534 227.211C96.2809 227.218 93.9146 228.174 91.2877 228.788C86.8914 220.162 88.0638 217.656 97.4165 216.199C104.098 215.156 110.825 214.401 117.538 213.562C119.478 213.321 121.434 213.233 123.382 213.074C123.55 213.521 123.718 213.969 123.884 214.418C121.672 215.84 119.506 217.339 117.238 218.665C113.88 220.631 110.265 222.218 107.141 224.492C105.846 225.435 105.536 227.73 104.779 229.411C106.413 229.843 108.052 230.626 109.68 230.608C111.419 230.586 113.407 230.208 114.839 229.292C121.935 224.748 128.906 219.974 132.64 211.984C133.753 209.602 134.556 207.076 135.499 204.617C132.42 203.932 129.176 202.262 126.291 202.739C115.535 204.511 104.824 206.692 94.2478 209.324C88.8835 210.658 84.5721 214.098 81.5383 219.029C77.5386 225.533 78.3624 232.995 83.875 237.199C89.1473 241.221 97.2867 239.868 101.913 233.953M597.052 401.941C597.536 401.833 597.844 400.977 598.249 400.48C601.185 396.864 600.39 393.203 598.925 389.166C597.41 384.987 596.842 380.476 595.575 376.193C594.912 373.946 594.205 371.147 592.54 369.866C587.757 366.191 582.049 364.806 575.999 365.807C570.457 366.725 567.88 370.502 569.179 375.433C570.535 380.585 575.62 383.729 580.293 381.241C584.789 378.848 586.099 381.154 587.398 384.344C588.353 386.689 588.932 389.185 589.906 392.357C584.716 391.773 580.518 391.023 576.303 390.902C571.932 390.776 568.977 393.512 568.752 397.152C568.515 400.981 571.834 404.932 575.377 405.911C583.313 408.107 589.889 403.544 597.052 401.941M70.5723 204.402C71.2079 204.171 71.6702 203.403 72.1619 202.838C75.2497 199.298 74.4387 195.594 73.0661 191.546C71.5911 187.195 70.9048 182.582 69.6792 178.138C69.1146 176.09 68.6331 173.436 67.1672 172.328C61.684 168.18 55.3776 166.492 48.5451 168.33C44.8561 169.324 43.0101 172.112 43.1541 175.863C43.4035 182.341 49.5618 185.783 55.8652 183.112C56.9083 182.67 58.9307 182.51 59.4011 183.103C61.909 186.256 63.4671 189.888 63.3049 194.597C61.6951 194.362 60.356 194.109 59.0057 193.982C55.6858 193.669 52.2259 192.736 49.0854 193.367C46.8653 193.814 44.2256 196.042 43.3193 198.149C42.3107 200.501 42.5884 203.483 45.4958 205.643C50.3455 209.249 55.4364 209.073 60.7392 207.652C64.0693 206.76 67.3264 205.577 70.5723 204.402M236.511 305.111C234.575 310.648 231.545 313.094 226.446 313.191C220.764 313.3 214.951 309.258 213.041 303.87C211.181 298.619 212.299 294.304 216.189 290.863C216.895 290.237 217.416 288.995 217.43 288.028C217.528 281.852 219.579 279.147 225.088 278.27C230.383 277.428 235.417 280.445 236.922 285.322C238.974 291.979 238.685 298.567 236.511 305.111ZM226.045 289.713C224.558 291.169 223.328 292.894 221.309 295.331C221.645 296.993 222.188 299.687 222.829 302.871C225.694 301.908 227.686 301.384 229.541 300.544C230.325 300.188 231.334 299.178 231.348 298.447C231.395 295.886 231.185 293.296 230.794 290.76C230.641 289.771 229.74 288.136 229.187 288.138C228.123 288.142 226.871 288.902 226.045 289.713ZM500.031 383.57C502.179 390.153 502.15 396.734 499.627 404.539C498.816 407.878 496.219 410.903 491.409 411.657C485.517 412.578 481.12 410.087 477.863 405.367C475.08 401.336 474.623 396.95 476.841 392.464C477.232 391.671 477.775 390.749 478.496 390.368C480.667 389.222 480.891 387.576 480.812 385.258C480.649 380.585 483.605 377.689 488.665 376.9C493.506 376.146 498.573 379.101 500.031 383.57ZM485.725 392.322C485.022 393.791 484.881 395.685 484.994 397.356C485.082 398.641 485.95 399.871 486.808 401.939C489.751 400.191 493.023 399.254 494.445 397.077C495.325 395.729 494.849 393.386 494.409 391.219C494.296 390.663 494.186 390.119 494.101 389.607C493.925 388.54 492.98 386.888 492.244 386.805C491.281 386.697 490.063 387.745 489.164 388.539C487.884 389.668 486.436 390.841 485.725 392.322ZM490.45 353.34C489.926 354.166 489.687 355.291 489.649 356.292C489.553 358.945 491.63 360.769 494.106 360.372C498.539 359.664 502.463 351.625 500.447 347.611C499.798 346.316 499.11 344.7 499.321 343.374C499.891 339.789 498.41 337.307 495.784 335.329C489.505 330.597 480.517 331.355 474.906 336.895C471.43 340.327 467.684 343.493 464.362 347.064C463.194 348.32 462.251 350.473 462.372 352.13C462.875 359.015 470.673 364.422 478.133 361.881C475.832 360.021 473.531 358.158 471.228 356.299C467.307 353.135 467.175 349.422 471.516 346.985C475.032 345.01 479.047 343.724 482.996 342.798C486.211 342.042 489.415 342.895 491.564 345.921C493.591 348.778 491.941 350.995 490.45 353.34M211.745 238.219C208.271 241.649 204.537 244.822 201.164 248.344C200.044 249.515 198.986 251.465 199.097 252.973C199.62 260.033 208.38 267.052 215.361 263.516C212.361 261.121 209.897 259.069 207.34 257.137C204.601 255.066 204.565 252.53 206.266 249.999C209.251 245.553 220.474 242.646 225.441 244.836C229.175 246.481 230.094 249.414 228.211 253.043C227.406 254.596 226.544 256.335 226.492 258.013C226.409 260.702 228.252 261.959 230.875 261.597C235.373 260.973 239.226 252.972 237.132 248.937C236.517 247.754 235.664 246.253 235.926 245.138C236.942 240.83 234.863 238.14 231.642 236.057C225.346 231.986 217.016 233.015 211.745 238.219M404.505 364.755C401.832 366.605 401.054 369.178 402.369 372.27C404.086 376.303 406.933 379.151 411.017 381.157C413.3 381.273 415.627 381.732 417.859 381.443C424.781 380.551 429.566 375.724 434.623 371.54C435.172 371.084 435.106 369.308 434.733 368.387C433.231 364.69 430.123 364.441 425.303 367.472C417.882 372.136 417.835 372.182 411.733 365.922C409.508 363.641 407.178 362.904 404.505 364.755M141.459 265.934C138.904 267.557 137.81 269.971 138.877 273.009C140.443 277.467 143.489 280.481 147.859 282.693C150.39 282.715 152.987 283.118 155.439 282.684C161.969 281.53 166.519 276.823 171.385 272.79C171.834 272.416 171.824 271.089 171.601 270.334C170.392 266.235 167.373 265.661 162.517 268.514C154.626 273.151 154.593 273.185 148.105 266.925C146.036 264.928 143.835 264.424 141.459 265.934M223.85 329.249C223.618 333.183 226.393 333.929 229.172 335.277C232.135 336.716 234.858 338.802 237.388 340.954C239.548 342.794 239.518 344.647 236.82 346.54C232.924 349.274 228.557 349.382 224.589 348.201C221.534 347.292 217.191 344.769 216.721 342.329C215.728 337.183 213.798 333.482 208.072 330.607C211.117 329.952 212.941 329.546 214.769 329.171C217.367 328.639 218.815 327.013 219.204 324.444C219.69 321.249 216.743 314.655 214.157 313.68C210.079 312.14 207.069 314.508 204.662 317.23C201.618 320.675 198.815 324.392 196.368 328.283C195.28 330.01 194.89 332.455 194.932 334.561C195.029 339.469 196.818 343.865 199.976 347.7C204.376 353.044 208.211 359.074 215.969 360.07C216.432 360.13 216.861 360.571 217.27 360.881C224.133 366.076 231.434 365.868 238.787 362.329C244.211 359.719 246.655 354.097 245.029 348.395C244.479 346.466 245.092 345.592 246.267 344.135C247.57 342.524 248.667 339.932 248.365 337.996C247.545 332.734 244.389 328.842 239.384 326.672C238.135 326.13 236.837 325.7 235.563 325.22C235.886 325.033 236.21 324.846 236.534 324.66C236.244 322.677 236.399 319.245 235.577 318.99C233.396 318.315 230.492 318.356 228.421 319.303C224.378 321.15 224.083 325.27 223.85 329.249M507.914 445.905C507.847 445.167 508.258 444.199 508.771 443.626C512.253 439.733 512.595 436.653 509.918 432.089C507.35 427.71 503.447 425.135 499.667 424.315C499.137 421.441 499.078 417.657 498.294 417.5C495.904 417.021 493.216 417.857 490.687 418.381C490.039 418.515 489.471 419.327 488.99 419.926C484.879 425.059 486.447 431.005 492.205 433.966C495.373 435.595 498.246 437.932 500.919 440.32C502.616 441.837 502.301 443.538 500.166 445.096C496.069 448.085 491.466 448.188 487.171 446.83C484.196 445.889 479.843 443.414 479.528 441.153C478.791 435.87 476.685 432.301 470.988 429.398C473.9 428.749 475.583 428.401 477.251 427.994C481.015 427.076 482.825 424.794 482.078 421.314C481.594 419.069 480.724 416.814 479.569 414.826C477.798 411.772 474.91 411.037 471.868 412.753C469.882 413.872 468.021 415.422 466.534 417.149C464.869 419.082 463.915 421.624 462.255 423.563C456.964 429.739 456.111 435.08 460.103 442.235C461.589 444.899 464.262 446.911 465.705 449.589C468.249 454.307 472.042 456.971 477.102 458.23C478.206 458.505 479.397 458.977 480.226 459.716C483.792 462.892 488.13 463.594 492.593 463.548C503.608 463.432 508.942 457.158 507.914 445.905M258.231 340.871C259.075 339.102 259.013 336.861 259.153 334.822C259.216 333.909 259.179 332.981 259.142 332.054C259.086 330.66 259.03 329.271 259.315 327.949C260.825 320.939 268.16 317.358 274.042 321.473C280.736 326.159 287.737 329.209 295.781 330.355C299.298 330.856 301.909 333.218 302.414 336.682C303.09 341.318 303.042 346.056 303.317 350.75C303.334 351.031 303.328 351.327 303.323 351.625C303.309 352.371 303.295 353.126 303.624 353.671C305.989 357.599 304.729 361.176 302.072 364.006C295.831 370.65 291.043 373.556 281.745 369.722C280.781 369.324 279.792 368.988 278.813 368.623C278.725 368.77 278.637 368.92 278.549 369.069C273.261 366.039 267.813 363.251 262.729 359.914C256.878 356.076 255.168 347.292 258.231 340.871ZM289.453 343.2C288.652 337.807 285.463 334.128 281.388 331.652C276.652 329.926 274.486 331.494 273.828 335.629C273.474 337.851 271.792 339.88 270.634 341.955C270.412 342.353 270.065 342.757 269.726 343.151C269.155 343.816 268.606 344.455 268.708 344.997C269.852 351.08 271.08 357.171 276.337 361.47C279.097 363.726 282.571 363.851 284.601 361.946C287.307 359.404 289.532 355.794 290.556 352.242C291.093 350.379 290.573 348.216 290.053 346.053C289.822 345.093 289.592 344.134 289.453 343.2ZM521.984 433.137C520.446 426.169 523.15 420.302 528.993 419.189C531.769 418.659 535.57 419.113 537.76 420.692C543.736 424.999 550.07 427.74 557.369 428.628C562.049 429.196 565.073 432.19 565.678 436.7C566.059 439.536 566.015 442.426 565.97 445.319C565.948 446.782 565.926 448.246 565.958 449.704C565.98 450.681 566.025 451.78 566.471 452.603C568.432 456.225 567.576 459.529 565.087 462.305C558.772 469.348 553.796 472.295 544.225 468.264C543.386 467.91 542.52 467.621 541.665 467.301C541.572 467.461 541.477 467.621 541.382 467.781C535.996 464.68 530.462 461.801 525.26 458.418C519.737 454.826 517.628 445.349 521.119 439.656C522.521 437.369 522.506 435.503 521.984 433.137ZM553.695 451.349C553.183 448.185 552.62 445.027 552.22 441.848C551.369 435.071 545.354 429.065 539.774 429.89C538.623 430.06 536.798 431.83 536.844 432.787C537.023 436.447 535.438 438.923 532.85 441.182C532.116 441.821 531.325 443.258 531.57 444.005C533.042 448.505 534.59 453.012 536.582 457.302C537.389 459.038 539.381 460.229 540.262 461.101C545.911 463.027 554.475 456.189 553.695 451.349ZM126.989 341.091C126.711 342.821 126.294 344.891 126.965 346.326C127.936 348.404 129.017 349.679 127.051 352.051C125.331 354.125 123.728 354.842 121.192 354.926C118.365 355.019 115.528 355.578 112.762 356.221C111.76 356.455 110.659 357.338 110.105 358.234C106.318 364.367 110.017 371.591 117.195 372.485C123.05 373.215 127.613 370.96 132.256 367.569C138.041 363.343 139.894 359.389 138.067 352.411C137.684 350.949 137.931 348.875 138.73 347.622C144.583 338.463 140.553 325.3 130.57 320.852C127.627 320.705 124.566 319.978 121.759 320.527C114.879 321.868 108.084 323.685 101.315 325.529C95.6543 327.07 93.1663 329.977 92.7752 334.857C92.2316 341.633 95.1239 348.242 99.939 350.123C101.685 350.805 104.142 350.823 105.798 350.082C106.59 349.729 106.388 346.9 106.408 345.189C106.42 344.177 106.02 343.152 105.75 342.147C103.71 334.549 104.94 332.386 112.594 330.57C114.344 330.154 116.205 329.971 118.005 330.032C125.649 330.289 128.197 333.545 126.989 341.091M231.461 417.789C226.388 417.757 221.319 416.727 217.15 416.238C206.776 412.399 198.523 399.444 199.218 389.281C199.301 388.05 199.066 386.706 198.634 385.543C196.18 378.939 200.106 373.004 207.03 372.522C209.008 372.385 211.192 371.482 212.775 370.267C215.66 368.053 218.04 367.799 221.181 369.938C226.435 373.517 232.107 376.473 237.4 380C242.572 383.447 246.854 387.736 248.13 394.254C249.041 398.909 247.789 402.615 244.072 405.674C242.748 406.763 241.638 408.476 241.125 410.124C239.784 414.434 236.392 417.82 231.461 417.789ZM209.778 385.313C214.727 389.228 213.414 393.01 211.811 396.641C208.712 403.661 214.549 409.103 221.39 408.041C228.067 407.005 231.838 402.263 235.089 397.028C235.522 396.328 234.782 393.991 233.991 393.587C231.355 392.238 231.584 390.637 232.742 388.523C233.99 386.247 233.21 384.597 230.737 384.284C225.786 383.661 220.805 383.114 215.824 382.985C214.708 382.956 213.578 383.515 212.188 384.202C211.466 384.559 210.674 384.951 209.778 385.313ZM395.132 466.149C400.398 462.397 402.707 458.649 400.902 452.619C400.074 449.851 399.654 447.55 401.898 445.332C402.422 444.816 402.624 443.979 402.825 443.581C407.767 430.54 397.918 417.763 384.3 419.784C376.641 420.92 369.164 423.398 361.695 425.57C358.391 426.532 356.227 429.043 355.674 432.555C354.901 437.474 355.597 442.244 358.976 446.012C360.573 447.791 363.11 449.176 365.465 449.752C368.607 450.522 370.072 448.688 369.448 445.513C369.026 443.366 368.379 441.265 367.854 439.137C366.642 434.206 367.921 431.848 372.799 430.388C374.774 429.798 376.835 429.287 378.883 429.168C387.907 428.646 391.088 432.274 389.589 440.95C389.319 442.502 389.205 444.365 389.823 445.725C391.568 449.568 389.551 453.357 385.254 453.672C382.92 453.844 380.506 453.676 378.272 454.231C376.385 454.698 374.026 455.531 373.047 456.979C368.868 463.163 372.66 470.343 380.131 471.168C385.992 471.817 390.499 469.449 395.132 466.149M510.033 501.717C504.095 504.798 505.127 513.354 498.724 515.877C498.488 515.97 498.249 516.07 498.008 516.171C496.904 516.632 495.75 517.114 494.671 517.026C489.606 516.616 484.565 515.903 480.454 515.414C470.072 511.541 461.761 498.467 462.542 488.578C462.652 487.19 462.174 485.706 461.73 484.324C461.707 484.252 461.684 484.181 461.661 484.109C459.696 477.985 463.886 472.107 470.238 471.732C472.198 471.615 474.417 470.827 475.945 469.618C478.791 467.365 481.202 466.986 484.313 469.134C491.22 473.903 498.44 478.219 505.255 483.11C509.191 485.933 511.099 490.293 511.56 495.178C511.573 495.318 511.589 495.46 511.605 495.603C511.677 496.245 511.751 496.903 511.597 497.492C511.207 498.973 511.026 501.203 510.033 501.717ZM472.856 484.279C477.829 488.172 477.052 492.181 475.125 495.807C472.183 501.343 476.449 508.184 484.244 507.269C491.173 506.454 494.953 501.532 498.358 496.258C498.794 495.583 498.194 493.301 497.522 492.999C494.739 491.746 494.642 490.134 496.026 487.805C497.393 485.505 496.433 483.966 494.053 483.545C489.881 482.809 485.666 481.971 481.459 481.902C479.808 481.875 478.148 482.468 476.156 483.179C475.154 483.537 474.068 483.925 472.856 484.279ZM85.1192 305.331C93.4762 308.526 107.57 300.783 111.138 291.033C113.61 284.285 107.922 271.198 101.152 268.907C99.3663 268.302 96.5301 268.705 95.0922 269.828C93.8445 270.802 92.9755 273.803 93.5453 275.287C95.0962 279.326 97.1 283.338 99.6858 286.788C101.847 289.669 102.206 292.347 99.6909 294.265C97.5712 295.881 94.3035 297.092 91.7655 296.761C88.6209 296.351 87.2085 293.227 87.3458 289.866C87.5087 285.902 87.3326 282.222 84.0202 279.161C76.7552 272.445 76.8559 272.336 82.8082 264.377C82.8855 264.272 82.9527 264.161 83.029 264.055C86.0962 259.832 85.0317 256.798 79.8956 255.773C78.186 255.431 76.166 255.445 74.555 256.034C68.1957 258.359 63.5838 262.719 60.7578 268.945C59.3198 272.11 59.85 274.003 63.6438 274.727C68.8216 275.715 72.1056 278.952 73.341 284.173C73.9699 286.827 74.4787 289.523 75.302 292.117C77.0503 297.631 79.0449 303.032 85.1192 305.331M336.036 383.276C336.975 387.303 338.026 391.334 339.458 395.204C340.962 399.278 343.253 402.905 347.777 404.527C349.412 404.797 351.103 405.482 352.673 405.268C362.16 403.973 369.146 398.896 373.479 390.401C374.355 388.682 374.559 386.33 374.303 384.368C373.476 378.067 370.437 372.727 365.302 369.103C363.589 367.895 360.062 367.621 358.326 368.612C356.869 369.443 355.743 373.102 356.348 374.861C357.701 378.789 359.939 382.516 362.366 385.934C364.24 388.576 364.735 390.847 362.592 393.224C360.412 395.642 357.637 397.205 354.296 395.956C351.137 394.772 349.897 392.045 349.978 388.81C350.066 385.287 350.259 381.899 347.448 379.046C340.088 371.577 340.138 371.527 345.982 362.834C348.535 359.038 347.722 356.439 343.23 355.183C341.463 354.69 339.282 354.631 337.568 355.205C330.864 357.451 326.163 362.043 323.317 368.538C322.055 371.421 322.628 373.082 326.03 373.747C331.267 374.77 334.763 377.82 336.036 383.276M392.143 507.693C394.247 505.59 396.089 503.223 398.059 500.983C400.836 497.825 404.267 496.091 408.325 495.93C409.541 499.371 410.178 502.365 411.65 504.862C412.467 506.251 415.069 507.884 416.169 507.483C417.681 506.932 419.418 504.617 419.526 502.955C420.212 492.447 413.144 482.552 401.527 481.413C398.556 481.121 395.982 482.676 395.468 485.789C394.921 489.094 392.735 490.423 390.291 492.049C383.939 496.279 377.463 500.422 371.655 505.338C366.953 509.316 366.331 514.024 368.392 518.304C371.051 523.822 376.799 527.4 382.281 526.956C385.345 526.709 388.17 526.339 390.977 528.79C393.382 530.89 396.807 530.317 399.271 528.26C400.346 527.363 401.171 525.28 400.967 523.906C400.518 520.882 398.12 519.404 395.2 518.921C393.155 518.584 391.093 518.335 389.035 518.077C386.067 517.703 384.873 515.828 384.621 513.03C384.346 509.978 386.211 509.84 388.525 509.645C389.792 509.536 391.199 508.638 392.143 507.693M117.888 428.016C121.705 427.809 125.234 427.146 128.915 429.792C130.536 430.958 134.265 429.73 136.776 428.849C137.681 428.533 138.434 425.94 138.187 424.579C137.641 421.574 135.153 420.264 132.28 419.752C131.132 419.546 129.975 419.397 128.822 419.231C127.543 419.048 125.82 419.325 125.078 418.599C123.743 417.29 122.758 415.468 122.121 413.685C121.869 412.979 122.973 410.953 123.397 410.971C129.659 411.248 131.486 405.784 135.05 402.49C137.346 400.367 140.245 398.799 143.071 397.372C144.987 396.404 146.181 397.123 146.768 399.629C147.419 402.409 148.655 405.269 150.382 407.523C152.189 409.879 155.025 409.134 156.151 406.308C156.703 404.923 156.952 403.3 156.882 401.804C156.457 392.771 150.692 385.772 141.909 383.43C135.823 381.807 134.237 382.757 132.226 388.735C131.827 389.917 130.725 391.058 129.653 391.785C123.77 395.774 117.655 399.435 111.916 403.613C109.274 405.536 107.303 408.378 105.958 409.811C102.723 418.128 110.282 428.43 117.888 428.016M59.1473 347.996C60.0183 346.847 60.6805 344.522 60.092 343.548C59.3571 342.333 57.215 341.335 55.7003 341.359C53.3248 341.397 50.9667 342.369 48.5892 342.949C43.872 335.01 45.1462 331.845 53.9542 330.424C60.6365 329.347 67.3709 328.592 74.0869 327.732C76.1819 327.464 78.2923 327.324 80.3956 327.126C80.544 327.558 80.6913 327.988 80.8387 328.42C79.7692 329.284 78.7949 330.319 77.6107 330.981C74.3233 332.82 70.8507 334.343 67.6462 336.308C65.719 337.489 63.8317 339.028 62.5186 340.832C60.8678 343.101 61.8155 345.031 64.717 344.89C67.2348 344.768 70.0647 344.468 72.1505 343.232C79.4294 338.917 86.1393 333.818 89.9722 325.944C91.1113 323.605 91.8103 321.053 92.7099 318.598C89.7357 317.958 86.6039 316.379 83.816 316.843C72.916 318.651 62.0478 320.797 51.328 323.451C45.963 324.779 41.7115 328.291 38.6728 333.231C34.757 339.592 35.6055 347.269 41.1179 351.371C46.4481 355.336 54.6707 353.91 59.1473 347.996M337.857 431.282C334.306 433.398 330.518 435.153 327.156 437.522C325.942 438.377 325.666 440.564 324.964 442.144C326.592 442.606 328.224 443.463 329.851 443.457C334.424 443.44 337.304 439.941 340.94 437.877C348.114 433.805 351.427 427.026 355.297 420.509C356.692 418.159 355.943 416.422 353.187 416.019C350.77 415.663 348.235 415.181 345.872 415.537C338.064 416.716 330.262 418.031 322.547 419.703C314.207 421.511 306.35 424.259 301.63 432.36C298.045 438.512 299.085 446.421 304.391 450.2C309.739 454.009 318.321 452.38 322.323 446.56C323.142 445.37 323.646 443.164 323.079 442.044C322.513 440.926 320.392 439.972 319 440.031C316.512 440.139 314.061 441.063 311.592 441.645C307.232 433.078 308.574 430.381 317.956 428.98C323.719 428.121 329.487 427.282 335.265 426.522C337.915 426.174 340.592 426.034 343.257 425.8C343.491 426.261 343.725 426.719 343.959 427.177C341.93 428.553 339.959 430.029 337.857 431.282M84.456 373.511C82.8981 376.784 83.1271 379.89 83.8597 383.272C84.1253 384.5 83.2899 386.268 82.4169 387.364C80.916 389.25 78.6255 390.577 77.377 392.578C76.618 393.795 76.5518 396.307 77.3465 397.371C78.1168 398.401 80.8295 399.146 81.9162 398.572C84.9179 396.986 87.9044 394.986 90.1175 392.47C91.365 391.053 91.0618 388.294 91.48 386.143C91.6509 385.264 91.889 384.398 92.0864 383.524C93.6117 376.778 96.1148 370.171 94.6364 363.03C93.686 358.434 91.4016 356.14 87.2725 355.988C78.4597 355.662 60.0149 368.694 57.3979 377.025C56.4607 380.004 57.4487 382.156 60.1289 383.415C64.7373 385.585 69.7384 384.546 73.1991 380.661C74.9899 378.65 76.3656 376.281 78.0618 374.179C79.6858 372.167 81.4838 370.294 83.2034 368.358C83.6196 368.536 84.0368 368.714 84.4519 368.891C84.4865 370.448 85.0533 372.253 84.456 373.511M350.866 455.234C341.834 454.95 323.163 468.078 320.622 476.595C319.715 479.635 320.932 481.732 323.626 482.9C328.675 485.092 333.364 483.914 336.918 479.62C338.565 477.629 339.897 475.381 341.51 473.36C343.078 471.397 344.821 469.575 346.486 467.691C346.989 467.905 347.491 468.119 347.992 468.333C347.957 469.904 347.966 471.478 347.88 473.044C347.706 476.177 347.099 479.344 347.407 482.424C347.613 484.473 347.558 485.661 345.785 486.981C343.746 488.499 341.831 490.374 340.4 492.463C338.732 494.898 340.209 498.035 342.858 498.552C346.835 499.33 355.005 492.56 355.351 488.469C355.672 484.668 356.565 480.917 356.901 477.115C357.365 471.882 357.996 466.597 357.68 461.384C357.465 457.843 355.01 455.365 350.866 455.234M263.701 390.208C264.86 395.205 269.825 397.922 274.868 396.317C279.82 394.741 280.03 394.755 282.111 399.622C283.055 401.83 283.557 404.229 284.559 407.529C282.032 407.108 280.672 406.811 279.298 406.668C276.091 406.332 272.875 405.81 269.669 405.851C266.505 405.891 264.198 407.842 263.56 410.911C263.022 413.495 262.999 416.075 265.654 418.178C270.964 422.38 276.563 421.784 282.372 419.981C285.194 419.103 287.998 418.155 290.755 417.097C291.528 416.801 292.204 416.077 292.756 415.411C295.48 412.118 295.047 408.657 293.763 404.803C292.191 400.085 291.474 395.087 290.007 390.327C289.329 388.123 288.228 385.546 286.492 384.268C281.972 380.942 276.613 379.8 271.004 380.588C265.12 381.414 262.49 384.974 263.701 390.208M552.09 515.946C553.4 515.458 554.691 514.55 555.631 513.506C558.512 510.321 557.383 506.901 556.215 503.294C554.759 498.793 553.936 494.089 552.651 489.527C552.075 487.486 551.582 484.887 550.119 483.726C544.794 479.499 538.526 478.035 531.852 479.632C527.743 480.616 525.929 483.373 526.158 487.292C526.403 491.5 528.881 494.697 532.879 495.124C534.93 495.342 537.08 494.406 539.202 494.245C540.37 494.157 542.302 494.211 542.643 494.859C544.385 498.183 545.72 501.72 547.199 505.181C546.857 505.461 546.514 505.739 546.173 506.019C544.959 505.82 543.753 505.56 542.532 505.434C539.2 505.09 535.862 504.544 532.528 504.565C529.425 504.584 526.974 506.357 526.249 509.447C525.6 512.214 525.871 514.756 528.451 517.093C532.1 520.398 536.333 520.249 540.358 519.71C544.368 519.173 548.235 517.386 552.09 515.946M27.7534 318.527C28.4015 318.317 28.9061 317.549 29.3944 316.97C32.3873 313.419 31.7129 309.741 30.2784 305.671C28.7535 301.342 28.1522 296.696 26.8409 292.28C26.1725 290.033 25.3688 287.301 23.6953 285.984C18.9281 282.228 13.1721 281.054 7.18813 282.015C1.97331 282.851 -0.62291 286.718 0.431042 291.487C1.51246 296.381 6.21455 299.154 11.1476 297.806C16.693 296.29 17.3065 296.546 19.3116 301.963C20.0166 303.868 20.33 305.918 21.0513 308.826C18.9332 308.491 17.7165 308.251 16.4875 308.116C13.284 307.765 10.0773 307.235 6.86869 307.204C3.75262 307.173 1.2154 308.886 0.406626 311.884C-0.355353 314.712 -0.260741 317.47 2.58066 319.858C6.26237 322.95 10.4538 322.996 14.4732 322.411C18.9952 321.754 23.3565 319.945 27.7534 318.527M445.654 398.772C435.726 398.741 426.396 400.891 418.726 407.56C417.274 408.821 416.801 411.676 416.621 413.86C416.382 416.728 418.286 417.666 420.644 416.234C423.163 414.705 425.439 412.757 427.757 410.909C431.993 407.533 437.704 407.288 441.314 410.351C442.868 411.67 443.423 412.823 442.345 415.006C441.548 416.625 441.36 419.111 442 420.781C443.726 425.27 443.323 426.471 438.511 427.216C436.225 427.57 433.786 427.274 431.615 427.934C429.383 428.615 426.508 429.6 425.524 431.364C424.306 433.55 424.087 436.822 424.643 439.356C425.284 442.281 428.525 442.603 430.785 441.73C435.267 440 439.718 437.948 443.716 435.314C445.201 434.337 446.095 431.315 445.991 429.291C445.847 426.496 446.475 425.128 449.037 423.981C454.339 421.607 456.676 416.979 456.396 411.37C456.116 405.766 453.292 401.549 447.751 399.398C447.13 399.204 446.393 398.774 445.654 398.772M160.998 339.389C162.332 343.148 165.648 343.435 168.422 342.371C172.937 340.635 177.268 338.256 181.329 335.622C182.595 334.8 183.514 332.142 183.237 330.558C182.642 327.161 183.95 325.771 186.832 324.403C191.989 321.957 194.078 317.268 193.696 311.873C193.315 306.487 190.512 302.358 184.695 300.109C184.189 299.985 183.179 299.517 182.173 299.525C172.82 299.593 164.008 301.769 156.489 307.405C154.738 308.719 153.622 311.664 153.378 313.982C152.988 317.69 154.914 318.656 158.217 316.624C160.752 315.067 162.967 313.003 165.383 311.245C169.644 308.147 175.195 308.266 178.728 311.406C180.164 312.682 180.427 313.717 179.544 315.733C178.741 317.563 178.784 320.234 179.501 322.151C180.796 325.623 180.671 326.746 177.088 327.64C175.34 328.076 173.452 327.94 171.674 328.292C169.156 328.791 166.487 329.112 164.233 330.216C161.204 331.7 159.876 336.226 160.998 339.389M457.384 497.321C459.246 503.94 459.488 510.559 456.751 518.129C455.233 522.803 452.438 525.138 447.231 525.346C441.355 525.58 435.735 521.844 433.646 516.314C431.625 510.964 432.665 506.842 436.792 502.942C437.484 502.288 437.949 501.033 437.961 500.048C438.027 494.075 440.235 491.254 445.755 490.407C450.719 489.644 456.112 492.794 457.384 497.321ZM445.538 503.721C445.161 504.043 444.97 504.589 444.6 504.923C441.193 507.996 441.066 510.374 444.121 514.553L444.203 514.534C451.427 512.826 451.543 512.799 451.456 505.766C451.432 503.886 450.446 502.017 449.901 500.144C448.443 501.331 446.969 502.499 445.538 503.721ZM173.423 404.281C174.122 403.66 174.674 402.447 174.674 401.506C174.667 395.462 176.767 392.707 182.345 391.784C187.556 390.921 192.734 394.02 194.175 398.92C196.093 405.436 196.094 411.926 193.331 419.81C191.883 424.263 189.07 426.561 183.602 426.7C178.061 426.84 172.226 422.9 170.298 417.716C168.351 412.477 169.522 407.749 173.423 404.281ZM188.484 412.058C188.58 409.486 188.454 406.871 188.056 404.327C187.891 403.265 186.892 401.591 186.18 401.541C185.218 401.472 184.047 402.575 183.189 403.408C182.473 404.102 182.224 405.283 181.516 405.987C177.988 409.51 177.775 411.102 180.665 416.093C182.754 415.427 184.756 414.933 186.623 414.123C187.419 413.777 188.457 412.791 188.484 412.058ZM167.881 352.771C164.997 355.835 161.719 358.527 158.714 361.482C157.748 362.433 156.545 363.619 156.386 364.821C155.808 369.194 158.2 372.45 161.334 375.108C164.256 377.586 167.566 379.057 172.911 376.99C169.612 374.442 167.111 372.567 164.678 370.612C161.578 368.121 161.389 364.276 164.798 362.292C168.281 360.262 172.197 358.775 176.107 357.719C179.398 356.83 182.793 357.476 185.234 360.368C187.78 363.383 185.728 365.794 184.255 368.376C183.722 369.31 183.555 370.618 183.663 371.712C183.907 374.199 185.566 375.324 187.97 375.024C192.684 374.436 196.553 366.27 194.239 362.102C193.656 361.049 193.019 359.773 193.099 358.651C193.433 353.991 191.991 351.107 187.912 349.035C180.77 345.405 173.42 346.884 167.881 352.771M447.873 466.425C447.186 467.726 446.743 469.437 446.926 470.863C447.269 473.516 449.495 475.203 451.625 473.726C454.351 471.836 458.259 468.774 458.2 466.297C458.069 460.839 455.796 455.423 454.31 450.014C454.163 449.481 453.442 449.063 452.918 448.69C447.6 444.903 437.657 443.999 431.94 450.419C428.774 453.974 424.779 456.79 421.674 460.391C420.298 461.982 419.101 465.132 419.757 466.804C420.978 469.914 423.237 472.905 425.777 475.111C428.133 477.161 431.402 478.305 435.523 475.745C432.694 473.509 430.225 471.59 427.79 469.626C424.657 467.1 424.515 463.476 427.686 461.068C431.925 457.849 436.778 456.019 442.137 456.19C448.524 456.396 450.843 460.794 447.873 466.425M300.197 383.314C295.785 386.945 294.665 392.781 297.56 399.157C299.845 404.194 304.235 407.162 309.629 410.063C310.639 409.945 312.89 410.308 313.543 409.451C314.429 408.287 314.463 406.121 314.17 404.511C313.914 403.111 312.885 401.706 311.859 400.623C309.914 398.574 308.558 396.082 310.083 393.745C310.88 392.521 313.646 392.603 315.51 392.051C317.716 391.397 319.908 390.694 322.108 390.013C320.773 387.84 319.446 385.664 318.094 383.503C317.967 383.299 317.696 383.181 317.482 383.038C312 379.351 304.872 379.466 300.197 383.314M34.4593 300.364C37.1141 305.57 41.5199 308.944 46.9471 310.967C50.2876 312.214 52.3007 310.777 51.5034 307.334C50.9538 304.96 48.9663 302.95 48.0442 300.613C47.333 298.808 46.7793 296.646 47.1487 294.845C47.3186 294.015 49.8199 293.461 51.3407 293.161C53.1081 292.81 54.9994 293.07 56.7628 292.709C59.1811 292.215 60.2834 290.466 58.6664 288.449C56.7096 286.006 54.195 284.006 51.9199 281.815C45.5368 280.21 39.4055 281.267 35.8686 285.442C32.0072 290.002 31.8127 295.174 34.4593 300.364M121.609 271.681C125.289 273.108 127.316 271.443 126.384 267.589C125.924 265.679 124.305 264.077 123.553 262.198C122.734 260.153 121.814 257.912 121.98 255.841C122.042 255.074 125.029 254.382 126.757 253.969C128.128 253.641 129.638 253.933 131.045 253.704C134.208 253.186 135.278 251.294 133.344 248.772C131.515 246.386 128.89 244.606 126.615 242.56C120.557 241.023 114.38 242.046 110.923 246.014C107.137 250.363 106.613 255.324 109.057 260.581C111.624 266.104 116.082 269.539 121.609 271.681M375.157 348.676C370.463 347.015 367.812 347.66 366.182 350.888C364.543 354.134 365.798 357.398 370.203 359.702C374.093 361.737 378.207 363.392 382.34 364.891C386.198 366.29 387.731 365.297 388.786 361.344C389.22 359.723 389.336 357.958 390.056 356.483C393.14 350.159 391.75 343.625 385.633 340.098C383.706 338.987 380.245 339.175 378.166 340.178C376.744 340.864 376.388 343.957 375.779 346.041C375.566 346.771 376.02 347.697 376.173 348.552C375.65 348.622 375.367 348.75 375.157 348.676M202.538 288.947C205.114 290.787 206.53 290.274 207.12 287.231C207.51 285.218 207.915 283.185 208.001 281.146C208.038 280.313 207.455 278.928 206.812 278.67C201.52 276.55 196.239 274.264 190.747 272.864C188.81 272.37 186.295 274.199 183.043 275.31C184.476 279.357 184.952 282.875 186.843 285.241C188.022 286.717 192.716 287.645 193.453 286.77C196.882 282.698 198.781 285.872 201.107 287.662C201.614 288.052 202.02 288.577 202.538 288.947M312.518 337.856C311.035 341.016 312.883 345.853 316.561 347.089C319.665 348.134 323.03 348.747 326.299 348.847C329.918 348.958 332.674 346.761 333.925 343.391C334.987 340.534 334.981 337.379 332.351 335.23C331.521 334.552 329.227 334.341 328.653 334.938C326.314 337.368 324.047 337.361 321.609 335.758C317.61 333.858 313.977 334.742 312.518 337.856M467.803 380.143C468.9 378.182 467.979 374.761 467.101 372.27C466.522 370.628 464.44 369.11 462.47 371.44C460.345 373.954 458.009 373.632 455.648 372.211C451.175 370.266 447.601 371.173 446.157 374.517C444.818 377.615 446.671 382.271 450.229 383.373C453.551 384.403 457.253 385.464 460.553 384.984C463.245 384.591 466.52 382.439 467.803 380.143M67.8917 247.942C69.0514 246.99 69.9359 245.708 70.7201 244.829C71.6389 241.341 71.7756 238.3 69.0585 236.025C68.336 235.42 66.2767 235.109 65.9144 235.544C63.2318 238.771 60.5532 238.034 57.4111 236.28C54.773 234.806 52.1126 235.377 50.1272 237.727C47.9758 240.275 48.5668 243.062 50.1849 245.514C52.8574 249.559 64.1101 251.044 67.8917 247.942M126.252 308.239C124.843 311.049 126.144 313.214 129.295 313.193C131.382 313.18 133.609 312.536 135.516 311.619C140.579 309.184 141.013 305.858 136.755 302.075C132.136 297.971 126.62 296.485 120.596 297.414C116.014 298.121 114.62 300.534 115.58 306.018C118.436 305.452 121.038 304.663 123.675 304.501C125.94 304.363 127.897 304.956 126.252 308.239M389.497 407.195C387.821 410.533 389.489 413.146 393.12 412.269C396.517 411.449 399.963 409.554 402.555 407.223C404.096 405.836 400.666 401.293 396.714 399.131C395.924 398.7 395.076 398.369 394.253 397.99C394.253 397.755 394.252 397.518 394.252 397.282C390.43 397.186 386.589 396.827 382.792 397.074C379.582 397.284 378.268 399.759 377.998 402.716C377.819 404.67 378.511 405.596 380.754 405.004C382.977 404.416 385.295 403.864 387.569 403.876C389.358 403.885 390.726 404.749 389.497 407.195M418.081 292.38C422.14 293.06 426.246 293.636 430.352 293.803C434.672 293.978 438.885 293.261 442.118 289.719C442.996 288.318 444.277 287.024 444.685 285.498C447.154 276.27 445.184 267.895 439.054 260.652C437.814 259.186 435.733 258.096 433.834 257.582C427.729 255.927 421.655 256.678 416.35 260.015C414.579 261.128 412.969 264.27 413.208 266.247C413.411 267.906 416.336 270.345 418.184 270.461C422.312 270.721 426.596 270.092 430.669 269.167C433.818 268.454 436.094 268.87 437.449 271.753C438.83 274.686 439.196 277.839 436.76 280.435C434.456 282.889 431.475 282.985 428.536 281.67C425.336 280.238 422.299 278.763 418.596 280.257C408.902 284.168 408.875 284.101 403.146 275.393C400.644 271.588 397.945 271.341 395.061 274.993C393.928 276.43 393.033 278.415 392.899 280.212C392.377 287.242 394.781 293.329 399.648 298.437C401.808 300.704 403.553 300.814 405.475 297.936C408.434 293.509 412.581 291.461 418.081 292.38M464.211 304.569C458.984 302.72 456.033 303.439 454.216 307.033C452.39 310.648 453.788 314.284 458.695 316.849C463.026 319.115 467.608 320.958 472.211 322.628C476.507 324.186 478.214 323.079 479.39 318.678C479.873 316.873 480.001 314.907 480.802 313.264C484.238 306.222 482.69 298.945 475.877 295.017C473.732 293.78 469.878 293.99 467.563 295.107C465.978 295.87 465.582 299.315 464.905 301.635C464.667 302.448 465.173 303.48 465.344 304.432C464.76 304.511 464.445 304.654 464.211 304.569M352.623 297.557C353.51 298.641 354.783 299.569 356.068 300.118C359.992 301.805 362.815 299.6 365.801 297.296C369.526 294.42 373.65 292.081 377.488 289.348C379.206 288.126 381.471 286.796 382.074 285.019C384.271 278.554 383.576 272.105 379.887 266.285C377.615 262.702 374.442 261.888 370.856 263.402C367.006 265.027 364.835 268.443 365.753 272.388C366.223 274.412 367.806 276.148 368.655 278.114C369.121 279.195 369.707 281.052 369.212 281.589C366.683 284.347 363.817 286.789 361.07 289.341C360.696 289.108 360.324 288.875 359.949 288.642C359.737 287.422 359.581 286.188 359.298 284.985C358.523 281.7 357.934 278.343 356.818 275.179C355.779 272.232 353.317 270.489 350.19 270.82C347.392 271.118 345.105 272.217 343.771 275.445C341.885 280.011 343.418 283.989 345.246 287.641C347.068 291.278 350.009 294.364 352.623 297.557M298.786 320.911C304.204 324.42 308.541 325.182 313.51 321.279C315.79 319.487 317.783 318.247 320.669 319.514C321.341 319.81 322.197 319.688 322.64 319.728C336.606 319.506 344.937 305.636 338.092 293.728C334.242 287.03 329.208 280.997 324.46 274.857C322.36 272.143 319.229 271.058 315.752 271.841C310.881 272.94 306.685 275.347 304.401 279.879C303.323 282.019 302.955 284.888 303.275 287.29C303.702 290.494 305.946 291.177 308.681 289.425C310.53 288.241 312.254 286.863 314.049 285.591C318.207 282.643 320.873 282.961 324.01 286.955C325.281 288.573 326.508 290.3 327.364 292.159C331.138 300.351 328.913 304.647 320.273 306.457C318.728 306.779 316.949 307.361 315.904 308.439C312.955 311.479 308.685 311.003 306.827 307.127C305.817 305.021 305.093 302.716 303.762 300.843C302.64 299.262 301.003 297.378 299.296 297.003C292.004 295.403 286.689 301.577 288.639 308.825C290.17 314.511 294.019 317.825 298.786 320.911M339.842 58.6866C339.551 60.6817 339.026 63.0417 339.785 64.6944C340.779 66.8551 341.646 68.1839 339.777 70.457C338.199 72.3745 336.766 73.3618 334.305 73.2443C332.375 73.1492 330.403 73.3567 328.486 73.6541C323.499 74.4289 321.829 76.3954 321.639 81.4476C321.449 86.5213 324.719 90.1661 330.071 90.7998C335.697 91.4672 340.229 89.4557 344.747 86.0338C351.073 81.2432 352.74 77.6945 350.624 70.2914C350.276 69.0751 350.564 67.2844 351.265 66.2286C357.421 56.9459 353.473 43.6464 343.327 39.419C341.159 39.1635 338.856 38.309 336.847 38.7567C328.141 40.7007 319.405 42.6621 310.914 45.3554C306.255 46.8343 304.814 51.584 305.727 57.9415C306.515 63.4403 310.467 68.4445 314.637 69.2101C315.015 69.2796 315.409 69.2888 315.797 69.2939C318.707 69.3358 320.305 68.2115 319.55 65.0317C318.951 62.5051 318.299 59.9887 317.737 57.4529C317.037 54.2915 317.807 51.4143 321.001 50.4301C324.532 49.3426 328.34 48.4462 331.985 48.5913C338.587 48.852 340.79 52.1697 339.842 58.6866M608.242 184.574C614.331 180.199 616.042 176.507 613.992 169.253C613.626 167.954 613.913 166.069 614.654 164.942C620.633 155.866 616.681 142.674 606.734 138.234C603.277 138.17 599.698 137.509 596.387 138.163C589.505 139.527 582.708 141.407 575.984 143.419C570.563 145.039 568.533 148.576 568.756 154.753C568.984 161.066 572.594 166.661 577.265 167.887C577.885 168.051 578.547 168.097 579.192 168.127C582.038 168.269 583.413 167.043 582.782 164.156C582.203 161.515 581.501 158.9 580.901 156.264C580.131 152.881 581.228 150.121 584.652 149.253C588.365 148.313 592.305 147.514 596.087 147.721C601.848 148.036 603.911 151.287 603.215 156.925C602.926 159.268 602.464 161.904 603.237 163.993C604.695 167.94 602.889 171.601 598.554 171.961C596.349 172.146 594.119 172.093 591.933 172.383C587.094 173.022 585.133 175.205 584.831 180C584.505 185.154 588.261 189.052 593.932 189.52C599.473 189.979 603.822 187.75 608.242 184.574M723.682 220.012C717.799 222.902 718.715 230.933 712.953 233.822C709.541 235.533 706.248 235.787 702.458 234.641C700.201 233.957 697.745 233.924 695.848 233.899C695.148 233.89 694.524 233.881 694.014 233.842C682.986 229.387 675.258 216.907 675.975 206.534C676.051 205.44 675.693 204.249 675.291 203.197C672.723 196.476 676.857 190.407 683.956 190.138C685.79 190.07 687.911 189.199 689.317 188.008C692.125 185.632 694.567 185.323 697.72 187.387C702.931 190.799 708.566 193.592 713.614 197.216C717.027 199.666 720.383 202.694 722.559 206.208C724.337 209.079 724.492 213.026 725.014 216.547C725.178 217.651 724.525 219.596 723.682 220.012ZM688.59 214.28C688.457 214.651 688.324 215.022 688.196 215.393C686.446 220.487 689.653 225.226 695.022 225.561C701.595 225.971 709.931 220.668 711.897 214.525C712.21 213.549 711.473 211.449 710.645 211.04C708.153 209.812 708.193 208.371 709.412 206.382C711.088 203.648 709.789 202.089 707.13 201.68C702.791 201.011 698.402 200.378 694.03 200.351C692.547 200.341 691.06 200.932 689.314 201.626C688.44 201.973 687.502 202.346 686.466 202.683C691.318 206.694 689.951 210.496 688.59 214.28ZM442.038 136.561C437.785 135.979 433.544 135.331 430.163 134.839C419.827 130.802 411.957 118.161 412.697 107.994C412.786 106.8 412.356 105.5 411.915 104.345C409.569 98.1973 413.704 92.1437 420.255 91.7195C422.329 91.5845 424.287 90.118 426.367 89.4756C426.86 89.323 427.396 89.1227 427.944 88.9178C429.665 88.2742 431.507 87.5855 432.517 88.1868C440.467 92.916 448.357 97.8452 455.681 103.467C458.374 105.535 459.999 109.497 461.17 112.915C462.784 117.63 461.039 121.698 456.966 124.749C455.943 125.516 454.858 126.672 454.552 127.846C452.947 133.978 448.211 137.405 442.038 136.561ZM426.489 111.316C426.141 113.198 425.394 115.005 424.798 116.838C423.236 121.648 426.33 126.377 431.358 126.857C437.854 127.476 446.453 122.059 448.423 115.821C448.722 114.871 447.99 112.921 447.147 112.421C445.18 111.251 444.465 110.133 445.782 108.129C447.466 105.374 446.528 103.51 443.537 103.16C443.056 103.104 442.573 103.046 442.09 102.988C437.619 102.454 433.093 101.913 428.656 102.23C424.278 102.544 424.179 103.629 426.146 107.602C426.666 108.653 426.71 110.126 426.489 111.316ZM535.696 164.347C537.572 161.125 535.952 157.981 532.291 158.252C529.667 158.446 527.101 159.403 524.478 160.029C519.99 151.585 521.214 148.833 530.575 147.301C536.955 146.258 543.39 145.548 549.805 144.715C551.932 144.438 554.072 144.241 556.205 144.008C556.419 144.482 556.634 144.957 556.85 145.434C554.694 146.887 552.591 148.43 550.37 149.775C546.834 151.912 543.057 153.69 539.73 156.107C538.615 156.917 538.565 159.21 538.03 160.826C539.452 161.186 540.892 161.904 542.297 161.844C549.422 161.542 554.19 156.5 558.866 152.208C562.663 148.721 565.041 143.634 567.888 139.153C569.554 136.532 568.769 134.55 565.596 134.178C562.795 133.85 559.873 133.477 557.13 133.918C549.217 135.192 541.323 136.671 533.505 138.437C525.34 140.282 518.096 143.724 513.825 151.639C510.663 157.501 512.522 165.728 517.928 168.958C523.639 172.37 532.34 170.112 535.696 164.347M272.476 66.3619C273.37 65.2184 274.08 62.9253 273.518 61.9116C272.837 60.6833 270.711 59.6155 269.216 59.6206C266.843 59.6278 264.477 60.5832 261.85 61.1973C257.454 52.5717 258.626 50.0651 267.979 48.6069C274.661 47.5656 281.388 46.8104 288.1 45.9715C290.04 45.7293 291.997 45.6424 293.945 45.483C294.113 45.9306 294.28 46.3782 294.447 46.8268C292.235 48.2492 290.069 49.7483 287.801 51.0747C284.443 53.0408 280.828 54.6277 277.704 56.9014C276.408 57.8446 276.098 60.1397 275.342 61.8207C276.975 62.2519 278.615 63.0357 280.243 63.0173C281.982 62.9958 283.97 62.6177 285.402 61.7011C292.498 57.1569 299.469 52.3837 303.203 44.3937C304.316 42.0117 305.118 39.4857 306.062 37.026C302.983 36.3414 299.739 34.6706 296.853 35.1478C286.098 36.9197 275.387 39.1014 264.81 41.7327C259.446 43.0673 255.135 46.5069 252.101 51.4385C248.101 57.9427 248.925 65.4044 254.438 69.6084C259.71 73.6294 267.849 72.2775 272.476 66.3619M767.615 234.35C768.098 234.242 768.406 233.386 768.811 232.889C771.748 229.272 770.952 225.612 769.488 221.575C767.972 217.396 767.404 212.885 766.137 208.602C765.474 206.355 764.768 203.555 763.102 202.275C758.319 198.6 752.611 197.215 746.561 198.216C741.019 199.134 738.443 202.91 739.741 207.842C741.098 212.994 746.182 216.137 750.856 213.65C755.352 211.257 756.661 213.563 757.961 216.753C758.916 219.098 759.495 221.594 760.469 224.766C755.278 224.182 751.081 223.432 746.866 223.311C742.495 223.185 739.539 225.92 739.314 229.561C739.077 233.39 742.396 237.341 745.94 238.32C753.875 240.516 760.452 235.953 767.615 234.35M241.135 36.8106C241.771 36.5796 242.233 35.8113 242.725 35.2473C245.812 31.7081 245.002 28.0024 243.629 23.9544C242.154 19.604 241.468 14.991 240.242 10.5465C239.677 8.50006 239.196 5.84465 237.73 4.73609C232.246 0.588983 225.94 -1.0999 219.108 0.739174C215.419 1.73227 213.573 4.52153 213.717 8.27222C213.966 14.7498 220.125 18.192 226.428 15.5212C227.471 15.0788 229.494 14.9195 229.964 15.512C232.472 18.665 234.03 22.2962 233.868 27.0052C232.258 26.7713 230.919 26.5179 229.569 26.3912C226.249 26.0775 222.789 25.1447 219.648 25.7761C217.428 26.2236 214.788 28.4509 213.882 30.5587C212.873 32.9097 213.15 35.8931 216.059 38.0529C220.908 41.6575 225.998 41.4818 231.302 40.0616C234.632 39.1697 237.889 37.9855 241.135 36.8106M495.686 118.417C496.467 120.436 496.871 122.602 497.722 125.713C495.419 125.363 494.079 125.045 492.725 124.975C488.877 124.778 484.916 124.11 481.215 124.791C479.404 125.123 477.194 127.855 476.778 129.839C476.375 131.764 477.46 134.667 478.902 136.187C483.147 140.658 488.7 139.998 494.042 138.67C497.037 137.926 499.918 136.662 502.778 135.461C504.101 134.904 505.556 134.182 506.421 133.111C509.144 129.739 508.079 126.201 506.797 122.47C505.349 118.257 504.713 113.774 503.413 109.501C502.697 107.145 501.929 104.206 500.166 102.881C495.595 99.4495 490.131 98.0446 484.321 98.8949C478.373 99.7646 475.737 103.22 476.888 108.455C478.017 113.594 482.599 116.138 487.995 114.623C493.024 113.212 493.795 113.527 495.686 118.417M407.073 136.926C405.137 142.463 402.108 144.908 397.008 145.006C391.327 145.114 385.512 141.072 383.604 135.684C381.743 130.433 382.862 126.119 386.751 122.677C387.458 122.051 387.979 120.81 387.993 119.843C388.091 113.666 390.142 110.961 395.65 110.085C400.946 109.243 405.979 112.259 407.484 117.137C409.537 123.793 409.248 130.381 407.073 136.926ZM396.607 121.528C395.12 122.984 393.891 124.709 391.872 127.146C392.207 128.808 392.75 131.501 393.391 134.686C396.256 133.722 398.249 133.198 400.102 132.358C400.887 132.003 401.897 130.993 401.909 130.261C401.958 127.7 401.748 125.11 401.357 122.575C401.203 121.586 400.303 119.95 399.75 119.952C398.686 119.956 397.433 120.717 396.607 121.528ZM670.594 215.979C672.742 222.562 672.712 229.142 670.189 236.948C669.378 240.286 666.781 243.312 661.973 244.065C656.08 244.987 651.683 242.496 648.425 237.776C645.643 233.745 645.185 229.359 647.403 224.873C647.795 224.08 648.337 223.157 649.058 222.776C651.229 221.631 651.454 219.985 651.374 217.667C651.212 212.994 654.168 210.098 659.228 209.309C664.069 208.555 669.136 211.51 670.594 215.979ZM656.288 224.731C655.586 226.2 655.443 228.093 655.556 229.765C655.644 231.05 656.513 232.28 657.372 234.348C660.314 232.599 663.586 231.663 665.009 229.486C665.888 228.138 665.412 225.794 664.972 223.627C664.859 223.071 664.749 222.528 664.664 222.016C664.489 220.948 663.544 219.297 662.808 219.214C661.844 219.106 660.626 220.154 659.726 220.948C658.447 222.076 656.998 223.25 656.288 224.731ZM661.012 185.155C660.488 185.98 660.249 187.106 660.212 188.106C660.116 190.758 662.192 192.583 664.67 192.187C669.101 191.479 673.025 183.439 671.01 179.425C670.36 178.131 669.673 176.514 669.885 175.189C670.453 171.604 668.973 169.122 666.347 167.143C660.068 162.411 651.079 163.17 645.469 168.709C641.993 172.141 638.246 175.308 634.925 178.879C633.757 180.135 632.814 182.288 632.934 183.945C633.438 190.829 641.237 196.237 648.696 193.695C646.394 191.835 644.094 189.972 641.791 188.113C637.869 184.95 637.738 181.236 642.079 178.799C645.595 176.824 649.61 175.539 653.559 174.613C656.773 173.857 659.978 174.71 662.126 177.735C664.154 180.593 662.503 182.81 661.012 185.155M382.307 70.0333C378.833 73.4633 375.1 76.6363 371.726 80.1587C370.606 81.3298 369.549 83.28 369.659 84.7872C370.182 91.8473 378.943 98.8668 385.924 95.3301C382.923 92.9351 380.459 90.8834 377.903 88.9516C375.164 86.8806 375.127 84.3444 376.827 81.8133C379.813 77.3676 391.036 74.4607 396.003 76.6505C399.738 78.2959 400.656 81.2283 398.774 84.8573C397.969 86.4103 397.106 88.1492 397.054 89.8281C396.971 92.5167 398.814 93.7741 401.438 93.4115C405.935 92.7879 409.789 84.7862 407.694 80.7509C407.08 79.5686 406.225 78.0674 406.489 76.9522C407.505 72.6446 405.426 69.9551 402.204 67.8719C395.909 63.801 387.578 64.8299 382.307 70.0333M575.068 197.164C572.395 199.014 571.616 201.587 572.932 204.679C574.648 208.712 577.495 211.559 581.579 213.565C583.862 213.682 586.19 214.141 588.422 213.852C595.344 212.96 600.128 208.133 605.185 203.949C605.734 203.493 605.668 201.716 605.295 200.796C603.794 197.099 600.686 196.85 595.865 199.881C588.444 204.545 588.397 204.591 582.295 198.331C580.071 196.05 577.741 195.313 575.068 197.164M312.022 97.7482C309.467 99.3711 308.373 101.785 309.439 104.824C311.006 109.281 314.051 112.295 318.421 114.508C320.953 114.529 323.549 114.932 326.002 114.499C332.532 113.345 337.082 108.637 341.948 104.604C342.397 104.23 342.386 102.904 342.164 102.149C340.954 98.0494 337.936 97.4758 333.079 100.33C325.188 104.965 325.155 105 318.667 98.7396C316.599 96.7433 314.398 96.2388 312.022 97.7482M394.412 161.064C394.181 164.998 396.956 165.744 399.734 167.092C402.697 168.531 405.42 170.615 407.951 172.769C410.111 174.609 410.08 176.462 407.383 178.355C403.486 181.089 399.12 181.196 395.152 180.016C392.096 179.107 387.754 176.584 387.283 174.144C386.29 168.998 384.36 165.297 378.635 162.422C381.679 161.767 383.504 161.361 385.332 160.986C387.928 160.454 389.377 158.828 389.767 156.259C390.252 153.064 387.304 146.47 384.719 145.494C380.642 143.956 377.631 146.322 375.224 149.045C372.18 152.49 369.377 156.207 366.93 160.098C365.843 161.825 365.453 164.27 365.494 166.376C365.591 171.284 367.38 175.68 370.538 179.515C374.938 184.858 378.774 190.889 386.532 191.885C386.994 191.944 387.423 192.385 387.833 192.695C394.695 197.89 401.997 197.683 409.35 194.144C414.772 191.533 417.217 185.911 415.592 180.21C415.041 178.281 415.655 177.406 416.83 175.95C418.132 174.339 419.229 171.747 418.927 169.811C418.108 164.549 414.952 160.657 409.946 158.486C408.698 157.945 407.4 157.515 406.125 157.036C406.449 156.848 406.772 156.661 407.097 156.475C406.807 154.492 406.962 151.06 406.139 150.805C403.959 150.131 401.055 150.171 398.984 151.118C394.941 152.965 394.646 157.085 394.412 161.064M678.477 277.72C678.409 276.982 678.822 276.013 679.334 275.441C682.816 271.547 683.157 268.468 680.48 263.904C677.913 259.525 674.01 256.949 670.23 256.13C669.7 253.255 669.641 249.47 668.857 249.314C666.467 248.836 663.779 249.672 661.25 250.195C660.602 250.33 660.034 251.141 659.553 251.741C655.441 256.874 657.01 262.82 662.768 265.781C665.936 267.41 668.809 269.747 671.482 272.135C673.179 273.652 672.864 275.352 670.729 276.91C666.631 279.9 662.029 280.003 657.732 278.644C654.759 277.704 650.405 275.228 650.09 272.968C649.354 267.685 647.248 264.116 641.551 261.213C644.463 260.563 646.146 260.216 647.814 259.809C651.578 258.889 653.388 256.608 652.639 253.129C652.157 250.884 651.287 248.628 650.132 246.641C648.36 243.587 645.473 242.852 642.431 244.567C640.445 245.686 638.583 247.236 637.096 248.963C635.432 250.896 634.478 253.438 632.817 255.377C627.526 261.554 626.674 266.895 630.666 274.05C632.151 276.714 634.825 278.726 636.268 281.404C638.812 286.122 642.604 288.785 647.665 290.045C648.768 290.32 649.959 290.791 650.789 291.53C654.355 294.707 658.693 295.409 663.156 295.362C674.171 295.246 679.505 288.973 678.477 277.72M428.794 172.686C429.638 170.917 429.575 168.676 429.716 166.637C429.778 165.724 429.741 164.795 429.704 163.869C429.648 162.475 429.593 161.086 429.878 159.764C431.388 152.753 438.723 149.172 444.603 153.288C451.299 157.974 458.3 161.024 466.344 162.169C469.861 162.67 472.471 165.033 472.976 168.497C473.652 173.133 473.604 177.87 473.88 182.563C473.896 182.845 473.891 183.142 473.885 183.44C473.871 184.186 473.857 184.94 474.186 185.486C476.552 189.413 475.292 192.99 472.633 195.82C466.393 202.464 461.605 205.371 452.307 201.536C451.343 201.139 450.354 200.803 449.376 200.438C449.288 200.585 449.2 200.735 449.112 200.884C443.823 197.854 438.375 195.065 433.291 191.729C427.44 187.891 425.731 179.107 428.794 172.686ZM460.016 175.015C459.215 169.622 456.026 165.941 451.949 163.467C447.214 161.741 445.049 163.309 444.391 167.443C444.037 169.666 442.354 171.695 441.197 173.77C440.974 174.168 440.627 174.573 440.287 174.968C439.717 175.632 439.168 176.27 439.27 176.812C440.414 182.895 441.642 188.986 446.9 193.285C449.66 195.541 453.134 195.666 455.163 193.761C457.87 191.219 460.095 187.609 461.118 184.057C461.655 182.194 461.135 180.031 460.616 177.868C460.385 176.908 460.154 175.948 460.016 175.015ZM692.546 265.546C691.008 258.578 693.712 252.711 699.555 251.598C702.332 251.069 706.132 251.521 708.323 253.101C714.299 257.408 720.633 260.149 727.931 261.037C732.611 261.605 735.635 264.599 736.241 269.109C736.621 271.945 736.577 274.835 736.533 277.728C736.511 279.191 736.488 280.655 736.521 282.113C736.543 283.09 736.588 284.189 737.033 285.011C738.995 288.634 738.139 291.938 735.65 294.714C729.334 301.757 724.358 304.704 714.788 300.673C713.948 300.319 713.082 300.03 712.227 299.71C712.134 299.87 712.039 300.03 711.945 300.189C706.558 297.089 701.025 294.21 695.823 290.827C690.3 287.235 688.19 277.758 691.681 272.065C693.082 269.778 693.069 267.912 692.546 265.546ZM724.257 283.758C723.746 280.594 723.182 277.436 722.782 274.257C721.932 267.48 715.917 261.474 710.336 262.299C709.186 262.469 707.361 264.239 707.407 265.196C707.586 268.855 706.001 271.332 703.412 273.591C702.678 274.23 701.888 275.667 702.132 276.413C703.605 280.914 705.153 285.421 707.145 289.711C707.952 291.447 709.944 292.638 710.824 293.51C716.474 295.435 725.037 288.596 724.257 283.758ZM297.551 173.5C297.274 175.23 296.856 177.299 297.528 178.735C298.498 180.813 299.579 182.088 297.614 184.46C295.894 186.534 294.29 187.251 291.754 187.335C288.928 187.428 286.09 187.987 283.324 188.63C282.323 188.864 281.221 189.747 280.667 190.643C276.88 196.776 280.579 204 287.757 204.894C293.613 205.624 298.176 203.369 302.818 199.978C308.604 195.752 310.457 191.798 308.629 184.82C308.246 183.357 308.494 181.284 309.293 180.031C315.146 170.872 311.115 157.709 301.133 153.26C298.188 153.114 295.129 152.387 292.322 152.936C285.441 154.277 278.646 156.094 271.878 157.938C266.217 159.479 263.729 162.386 263.338 167.266C262.794 174.042 265.686 180.65 270.502 182.532C272.247 183.214 274.704 183.232 276.361 182.491C277.152 182.138 276.951 179.309 276.97 177.598C276.982 176.586 276.582 175.56 276.313 174.555C274.272 166.958 275.503 164.795 283.156 162.978C284.907 162.563 286.767 162.38 288.567 162.441C296.211 162.698 298.759 165.954 297.551 173.5M402.024 250.198C396.951 250.166 391.882 249.135 387.713 248.647C377.338 244.808 369.085 231.852 369.78 221.69C369.864 220.459 369.629 219.115 369.197 217.952C366.743 211.347 370.668 205.412 377.593 204.931C379.57 204.794 381.755 203.891 383.338 202.676C386.223 200.462 388.603 200.208 391.743 202.347C396.998 205.926 402.669 208.881 407.963 212.409C413.135 215.856 417.417 220.145 418.693 226.663C419.604 231.318 418.351 235.024 414.635 238.083C413.311 239.172 412.201 240.885 411.688 242.533C410.346 246.843 406.955 250.229 402.024 250.198ZM380.34 217.722C385.288 221.637 383.976 225.419 382.374 229.05C379.275 236.07 385.112 241.512 391.953 240.45C398.63 239.414 402.401 234.672 405.65 229.437C406.085 228.736 405.345 226.4 404.553 225.996C401.918 224.647 402.146 223.046 403.305 220.932C404.552 218.656 403.772 217.005 401.3 216.693C396.349 216.07 391.366 215.522 386.387 215.393C385.271 215.365 384.141 215.924 382.751 216.611C382.029 216.968 381.237 217.36 380.34 217.722ZM565.694 298.558C570.961 294.806 573.27 291.059 571.466 285.028C570.638 282.261 570.217 279.958 572.462 277.742C572.985 277.225 573.187 276.388 573.388 275.99C578.329 262.95 568.481 250.173 554.863 252.193C547.204 253.33 539.727 255.808 532.257 257.98C528.953 258.941 526.789 261.452 526.236 264.965C525.464 269.883 526.161 274.653 529.539 278.421C531.135 280.2 533.673 281.585 536.029 282.161C539.17 282.931 540.634 281.098 540.011 277.922C539.59 275.775 538.941 273.674 538.418 271.546C537.206 266.616 538.484 264.257 543.362 262.798C545.338 262.207 547.399 261.697 549.446 261.578C558.47 261.055 561.651 264.684 560.152 273.359C559.883 274.911 559.767 276.774 560.387 278.135C562.132 281.977 560.115 285.767 555.818 286.082C553.483 286.253 551.069 286.086 548.835 286.64C546.947 287.107 544.589 287.941 543.61 289.388C539.43 295.573 543.223 302.752 550.694 303.577C556.555 304.226 561.062 301.858 565.694 298.558M680.595 333.53C674.657 336.613 675.69 345.168 669.286 347.692C669.051 347.785 668.812 347.885 668.57 347.986C667.466 348.447 666.313 348.928 665.234 348.84C660.169 348.431 655.128 347.717 651.016 347.229C640.635 343.356 632.323 330.282 633.105 320.392C633.214 319 632.734 317.511 632.288 316.126C632.266 316.058 632.244 315.991 632.223 315.924C630.259 309.799 634.449 303.921 640.801 303.546C642.761 303.43 644.979 302.642 646.507 301.432C649.354 299.179 651.764 298.801 654.876 300.949C661.783 305.717 669.004 310.033 675.819 314.925C679.753 317.748 681.662 322.108 682.123 326.993C682.136 327.133 682.152 327.275 682.168 327.418C682.24 328.059 682.314 328.718 682.159 329.306C681.77 330.788 681.588 333.016 680.595 333.53ZM643.419 316.094C648.393 319.987 647.615 323.996 645.688 327.621C642.746 333.157 647.011 339.999 654.806 339.084C661.736 338.268 665.517 333.346 668.922 328.073C669.357 327.397 668.756 325.116 668.084 324.813C665.302 323.561 665.205 321.948 666.59 319.62C667.956 317.32 666.996 315.78 664.616 315.36C660.444 314.623 656.229 313.784 652.021 313.717C650.37 313.69 648.71 314.283 646.718 314.994C645.716 315.352 644.63 315.74 643.419 316.094ZM255.682 137.74C264.039 140.935 278.132 133.192 281.701 123.442C284.173 116.693 278.484 103.607 271.715 101.316C269.929 100.71 267.093 101.114 265.655 102.237C264.407 103.21 263.538 106.212 264.108 107.696C265.659 111.735 267.663 115.747 270.248 119.197C272.41 122.078 272.768 124.755 270.252 126.674C268.134 128.29 264.866 129.501 262.328 129.17C259.183 128.76 257.771 125.636 257.908 122.274C258.07 118.311 257.895 114.631 254.583 111.57C247.318 104.854 247.418 104.745 253.371 96.7856C253.448 96.6813 253.515 96.5698 253.592 96.4644C256.659 92.2418 255.594 89.2069 250.458 88.1819C248.749 87.8402 246.729 87.8535 245.118 88.4427C238.758 90.7678 234.146 95.1275 231.32 101.353C229.882 104.519 230.413 106.412 234.206 107.136C239.384 108.124 242.668 111.361 243.904 116.582C244.532 119.236 245.041 121.932 245.865 124.526C247.613 130.04 249.607 135.441 255.682 137.74M506.598 215.091C507.538 219.117 508.589 223.149 510.02 227.019C511.525 231.092 513.816 234.72 518.339 236.341C519.975 236.612 521.666 237.297 523.236 237.083C532.722 235.788 539.708 230.71 544.042 222.216C544.918 220.497 545.122 218.145 544.864 216.183C544.039 209.882 541 204.542 535.864 200.918C534.152 199.71 530.624 199.436 528.889 200.427C527.432 201.258 526.306 204.917 526.911 206.676C528.264 210.604 530.501 214.331 532.928 217.748C534.803 220.391 535.297 222.662 533.155 225.039C530.974 227.457 528.2 229.019 524.859 227.771C521.7 226.587 520.459 223.86 520.541 220.625C520.629 217.102 520.822 213.714 518.011 210.86C510.65 203.392 510.701 203.342 516.545 194.649C519.097 190.853 518.285 188.254 513.792 186.998C512.026 186.505 509.845 186.445 508.13 187.02C501.426 189.266 496.726 193.858 493.88 200.353C492.618 203.236 493.19 204.896 496.593 205.562C501.83 206.585 505.326 209.635 506.598 215.091M562.705 340.102C564.81 337.999 566.652 335.632 568.622 333.393C571.399 330.234 574.829 328.5 578.887 328.339C580.104 331.78 580.74 334.774 582.213 337.271C583.03 338.66 585.631 340.293 586.732 339.892C588.244 339.341 589.981 337.026 590.089 335.364C590.775 324.856 583.706 314.961 572.088 313.822C569.118 313.53 566.545 315.085 566.03 318.197C565.484 321.503 563.298 322.832 560.853 324.458C554.501 328.688 548.026 332.831 542.218 337.747C537.516 341.725 536.894 346.433 538.955 350.712C541.614 356.231 547.361 359.809 552.844 359.366C555.907 359.118 558.733 358.748 561.54 361.199C563.944 363.298 567.369 362.726 569.833 360.669C570.908 359.772 571.734 357.689 571.529 356.316C571.08 353.292 568.683 351.814 565.763 351.33C563.717 350.993 561.656 350.745 559.598 350.486C556.629 350.113 555.436 348.237 555.183 345.439C554.909 342.388 556.774 342.249 559.088 342.054C560.354 341.945 561.761 341.047 562.705 340.102M288.451 260.425C292.268 260.218 295.797 259.555 299.478 262.201C301.099 263.367 304.828 262.139 307.339 261.258C308.244 260.941 308.997 258.349 308.75 256.987C308.204 253.983 305.716 252.673 302.843 252.16C301.695 251.955 300.538 251.806 299.385 251.64C298.105 251.457 296.382 251.733 295.641 251.007C294.306 249.699 293.321 247.877 292.683 246.094C292.432 245.388 293.536 243.362 293.96 243.38C300.222 243.657 302.049 238.193 305.613 234.899C307.908 232.775 310.808 231.208 313.633 229.781C315.55 228.813 316.744 229.532 317.331 232.037C317.982 234.818 319.218 237.677 320.946 239.932C322.752 242.288 325.588 241.542 326.714 238.717C327.265 237.332 327.516 235.709 327.444 234.213C327.02 225.18 321.255 218.18 312.472 215.839C306.386 214.216 304.8 215.166 302.788 221.144C302.39 222.326 301.288 223.467 300.216 224.194C294.333 228.183 288.218 231.844 282.479 236.022C279.836 237.945 277.865 240.787 276.521 242.22C273.286 250.537 280.844 260.839 288.451 260.425M229.71 179.811C230.581 178.661 231.243 176.337 230.653 175.363C229.92 174.148 227.778 173.149 226.262 173.174C223.887 173.212 221.529 174.184 219.152 174.764C214.435 166.825 215.709 163.66 224.517 162.239C231.199 161.162 237.933 160.406 244.649 159.547C246.744 159.279 248.855 159.139 250.958 158.941C251.107 159.373 251.254 159.804 251.401 160.236C250.331 161.099 249.357 162.134 248.173 162.796C244.886 164.635 241.413 166.158 238.209 168.122C236.282 169.304 234.394 170.843 233.081 172.647C231.43 174.916 232.378 176.846 235.28 176.705C237.797 176.582 240.627 176.283 242.713 175.047C249.992 170.731 256.702 165.633 260.535 157.759C261.674 155.419 262.373 152.868 263.272 150.414C260.298 149.773 257.166 148.195 254.379 148.657C243.479 150.467 232.61 152.612 221.891 155.266C216.526 156.594 212.274 160.106 209.235 165.046C205.32 171.407 206.168 179.084 211.68 183.186C217.011 187.151 225.233 185.724 229.71 179.811M508.419 263.096C504.869 265.212 501.081 266.968 497.718 269.336C496.504 270.193 496.228 272.379 495.526 273.958C497.155 274.421 498.786 275.278 500.414 275.272C504.987 275.254 507.866 271.757 511.502 269.691C518.677 265.62 521.99 258.841 525.86 252.324C527.254 249.974 526.506 248.236 523.75 247.833C521.332 247.477 518.798 246.995 516.435 247.352C508.627 248.53 500.824 249.846 493.11 251.518C484.77 253.325 476.913 256.074 472.192 264.174C468.608 270.326 469.648 278.236 474.954 282.015C480.301 285.823 488.883 284.195 492.886 278.374C493.703 277.185 494.208 274.979 493.641 273.858C493.075 272.741 490.954 271.786 489.563 271.847C487.074 271.954 484.623 272.878 482.155 273.459C477.794 264.893 479.137 262.195 488.518 260.795C494.281 259.935 500.049 259.097 505.828 258.336C508.477 257.988 511.155 257.849 513.82 257.615C514.054 258.075 514.288 258.533 514.522 258.992C512.492 260.368 510.522 261.843 508.419 263.096M255.018 205.919C253.461 209.193 253.69 212.299 254.422 215.681C254.687 216.908 253.852 218.676 252.979 219.773C251.478 221.658 249.188 222.987 247.939 224.987C247.181 226.205 247.114 228.717 247.91 229.78C248.679 230.81 251.391 231.556 252.478 230.98C255.48 229.394 258.467 227.395 260.68 224.879C261.928 223.462 261.624 220.703 262.042 218.553C262.214 217.673 262.451 216.807 262.648 215.932C264.173 209.187 266.677 202.58 265.199 195.438C264.248 190.844 261.964 188.55 257.834 188.397C249.023 188.071 230.578 201.103 227.96 209.433C227.023 212.413 228.012 214.565 230.692 215.825C235.3 217.994 240.301 216.955 243.761 213.07C245.553 211.06 246.928 208.69 248.625 206.588C250.249 204.576 252.046 202.702 253.765 200.768C254.182 200.945 254.599 201.123 255.015 201.3C255.049 202.856 255.616 204.663 255.018 205.919M521.429 287.049C512.397 286.764 493.726 299.892 491.185 308.41C490.277 311.45 491.495 313.547 494.188 314.715C499.238 316.907 503.927 315.728 507.48 311.434C509.128 309.444 510.46 307.195 512.073 305.174C513.641 303.211 515.384 301.39 517.049 299.506C517.552 299.72 518.053 299.934 518.554 300.148C518.52 301.718 518.529 303.293 518.443 304.859C518.269 307.992 517.662 311.159 517.97 314.238C518.176 316.288 518.121 317.476 516.348 318.795C514.309 320.314 512.394 322.189 510.963 324.278C509.295 326.713 510.772 329.849 513.421 330.366C517.398 331.143 525.568 324.374 525.914 320.283C526.235 316.483 527.128 312.731 527.464 308.93C527.928 303.697 528.559 298.411 528.242 293.199C528.028 289.657 525.573 287.179 521.429 287.049M434.264 222.617C435.423 227.614 440.387 230.331 445.43 228.726C450.383 227.15 450.592 227.164 452.674 232.031C453.617 234.239 454.119 236.638 455.121 239.938C452.593 239.517 451.235 239.22 449.86 239.077C446.653 238.741 443.438 238.219 440.231 238.26C437.068 238.3 434.761 240.251 434.122 243.32C433.585 245.904 433.561 248.484 436.217 250.586C441.527 254.789 447.125 254.193 452.934 252.39C455.757 251.512 458.561 250.564 461.318 249.506C462.091 249.21 462.767 248.486 463.319 247.82C466.042 244.527 465.609 241.066 464.326 237.212C462.753 232.494 462.036 227.496 460.569 222.736C459.891 220.532 458.791 217.955 457.055 216.676C452.535 213.351 447.175 212.209 441.566 212.996C435.681 213.823 433.051 217.383 434.264 222.617M722.652 348.355C723.963 347.867 725.253 346.959 726.194 345.915C729.074 342.73 727.946 339.31 726.778 335.703C725.322 331.202 724.499 326.499 723.214 321.936C722.638 319.894 722.145 317.296 720.682 316.135C715.357 311.908 709.089 310.443 702.414 312.041C698.306 313.025 696.492 315.782 696.72 319.702C696.965 323.909 699.443 327.106 703.441 327.533C705.493 327.751 707.642 326.814 709.765 326.654C710.932 326.566 712.865 326.619 713.205 327.268C714.946 330.591 716.283 334.128 717.762 337.59C717.42 337.87 717.077 338.148 716.735 338.428C715.522 338.229 714.316 337.969 713.095 337.844C709.763 337.499 706.423 336.953 703.091 336.974C699.988 336.993 697.537 338.765 696.812 341.856C696.163 344.623 696.434 347.165 699.014 349.502C702.662 352.807 706.896 352.658 710.921 352.119C714.931 351.582 718.797 349.795 722.652 348.355M198.316 150.341C198.964 150.132 199.469 149.363 199.957 148.784C202.95 145.233 202.275 141.555 200.841 137.485C199.316 133.157 198.715 128.511 197.403 124.094C196.735 121.848 195.931 119.116 194.258 117.798C189.491 114.042 183.735 112.869 177.751 113.83C172.536 114.666 169.939 118.533 170.994 123.301C172.075 128.196 176.777 130.968 181.71 129.621C187.256 128.105 187.869 128.361 189.873 133.778C190.579 135.683 190.893 137.733 191.614 140.641C189.496 140.306 188.279 140.066 187.05 139.931C183.847 139.58 180.64 139.05 177.431 139.019C174.315 138.987 171.778 140.701 170.969 143.699C170.207 146.526 170.302 149.285 173.143 151.673C176.825 154.764 181.016 154.81 185.036 154.226C189.558 153.568 193.919 151.759 198.316 150.341M616.216 230.587C606.289 230.556 596.959 232.706 589.288 239.375C587.836 240.635 587.363 243.49 587.183 245.675C586.944 248.543 588.848 249.481 591.206 248.049C593.725 246.52 596.001 244.571 598.319 242.724C602.556 239.348 608.266 239.103 611.877 242.166C613.43 243.484 613.985 244.638 612.908 246.821C612.11 248.44 611.922 250.926 612.563 252.596C614.289 257.085 613.886 258.286 609.074 259.031C606.788 259.385 604.348 259.089 602.177 259.749C599.946 260.43 597.069 261.415 596.086 263.179C594.868 265.365 594.65 268.636 595.206 271.171C595.846 274.096 599.088 274.418 601.348 273.544C605.829 271.815 610.28 269.763 614.279 267.129C615.764 266.152 616.657 263.129 616.553 261.105C616.409 258.311 617.037 256.943 619.599 255.796C624.901 253.422 627.239 248.794 626.958 243.185C626.679 237.58 623.855 233.364 618.314 231.213C617.693 231.019 616.955 230.589 616.216 230.587M331.56 171.798C332.894 175.557 336.211 175.844 338.984 174.78C343.5 173.044 347.83 170.665 351.892 168.031C353.157 167.209 354.077 164.551 353.799 162.967C353.204 159.57 354.512 158.18 357.395 156.812C362.55 154.366 364.64 149.677 364.259 144.282C363.877 138.895 361.074 134.767 355.257 132.518C354.752 132.393 353.742 131.926 352.736 131.933C343.383 132.002 334.57 134.178 327.052 139.814C325.3 141.128 324.184 144.073 323.94 146.391C323.551 150.099 325.477 151.064 328.78 149.033C331.315 147.476 333.528 145.412 335.945 143.654C340.206 140.556 345.758 140.675 349.291 143.815C350.727 145.091 350.989 146.126 350.106 148.142C349.303 149.972 349.346 152.643 350.063 154.56C351.358 158.032 351.233 159.155 347.651 160.049C345.902 160.484 344.014 160.349 342.236 160.701C339.718 161.2 337.05 161.521 334.796 162.625C331.766 164.109 330.438 168.635 331.56 171.798M627.947 329.73C629.809 336.349 630.051 342.968 627.313 350.538C625.796 355.212 623.001 357.547 617.793 357.755C611.917 357.989 606.298 354.253 604.208 348.723C602.188 343.373 603.228 339.251 607.355 335.351C608.047 334.697 608.512 333.442 608.524 332.457C608.59 326.484 610.798 323.663 616.318 322.816C621.282 322.053 626.675 325.203 627.947 329.73ZM616.101 336.129C615.723 336.452 615.533 336.998 615.163 337.332C611.756 340.405 611.629 342.783 614.683 346.962L614.765 346.943C621.99 345.235 622.106 345.207 622.018 338.175C621.995 336.295 621.008 334.426 620.464 332.552C619.006 333.74 617.531 334.908 616.101 336.129ZM343.986 236.096C344.685 235.474 345.237 234.262 345.237 233.321C345.23 227.276 347.33 224.522 352.908 223.599C358.118 222.736 363.296 225.835 364.738 230.735C366.656 237.251 366.657 243.741 363.893 251.625C362.446 256.078 359.632 258.376 354.165 258.515C348.624 258.655 342.789 254.715 340.861 249.53C338.914 244.292 340.084 239.562 343.986 236.096ZM359.047 243.873C359.142 241.3 359.015 238.685 358.619 236.142C358.454 235.079 357.455 233.406 356.742 233.356C355.779 233.286 354.61 234.39 353.751 235.223C353.036 235.916 352.786 237.097 352.079 237.802C348.551 241.325 348.337 242.917 351.227 247.908C353.316 247.242 355.318 246.748 357.185 245.937C357.982 245.591 359.019 244.606 359.047 243.873ZM338.443 184.586C335.56 187.65 332.281 190.342 329.276 193.298C328.31 194.248 327.108 195.434 326.949 196.636C326.37 201.009 328.763 204.265 331.897 206.923C334.819 209.4 338.129 210.871 343.474 208.805C340.175 206.256 337.674 204.383 335.24 202.426C332.141 199.936 331.95 196.092 335.36 194.106C338.843 192.076 342.76 190.591 346.67 189.535C349.961 188.646 353.355 189.29 355.797 192.182C358.342 195.198 356.291 197.608 354.818 200.19C354.285 201.125 354.118 202.433 354.225 203.528C354.468 206.014 356.129 207.139 358.532 206.838C363.247 206.25 367.115 198.086 364.802 193.918C364.219 192.864 363.582 191.589 363.662 190.466C363.996 185.806 362.554 182.922 358.475 180.849C351.333 177.22 343.983 178.698 338.443 184.586M618.436 298.24C617.75 299.54 617.305 301.251 617.489 302.678C617.831 305.331 620.059 307.018 622.187 305.541C624.915 303.651 628.822 300.589 628.763 298.112C628.632 292.653 626.36 287.238 624.873 281.829C624.727 281.296 624.004 280.878 623.48 280.505C618.163 276.718 608.221 275.814 602.503 282.234C599.336 285.788 595.343 288.604 592.236 292.206C590.862 293.797 589.663 296.947 590.319 298.619C591.541 301.728 593.8 304.72 596.34 306.926C598.696 308.975 601.964 310.119 606.086 307.56C603.257 305.324 600.789 303.404 598.353 301.44C595.22 298.915 595.078 295.291 598.248 292.883C602.488 289.664 607.34 287.833 612.699 288.005C619.087 288.21 621.407 292.607 618.436 298.24M470.759 215.723C466.348 219.354 465.228 225.19 468.122 231.566C470.408 236.603 474.797 239.571 480.191 242.472C481.201 242.354 483.452 242.717 484.105 241.86C484.991 240.695 485.026 238.53 484.732 236.92C484.476 235.52 483.447 234.115 482.421 233.032C480.477 230.983 479.12 228.491 480.645 226.154C481.443 224.93 484.208 225.012 486.072 224.46C488.279 223.805 490.47 223.103 492.67 222.422C491.336 220.249 490.007 218.073 488.656 215.912C488.529 215.708 488.259 215.59 488.044 215.447C482.562 211.76 475.435 211.875 470.759 215.723M205.022 132.773C207.677 137.979 212.083 141.353 217.51 143.376C220.85 144.623 222.863 143.186 222.066 139.743C221.516 137.369 219.529 135.358 218.607 133.021C217.896 131.217 217.342 129.055 217.711 127.254C217.881 126.424 220.383 125.87 221.903 125.57C223.671 125.219 225.561 125.479 227.325 125.118C229.744 124.624 230.846 122.875 229.229 120.858C227.272 118.415 224.757 116.415 222.483 114.224C216.1 112.619 209.968 113.676 206.431 117.851C202.57 122.411 202.375 127.583 205.022 132.773M292.171 104.09C295.852 105.517 297.878 103.852 296.947 99.9982C296.487 98.0883 294.868 96.4854 294.116 94.6072C293.297 92.5622 292.377 90.3206 292.543 88.25C292.603 87.4834 295.591 86.7904 297.32 86.3769C298.691 86.0504 300.2 86.3421 301.608 86.1128C304.77 85.5949 305.84 83.7034 303.906 81.1804C302.078 78.7945 299.452 77.0146 297.177 74.9685C291.12 73.4322 284.943 74.4547 281.486 78.423C277.699 82.772 277.175 87.7331 279.62 92.99C282.187 98.5131 286.645 101.948 292.171 104.09M545.719 181.084C541.025 179.423 538.374 180.069 536.744 183.297C535.105 186.544 536.36 189.807 540.766 192.111C544.655 194.145 548.77 195.8 552.903 197.3C556.761 198.699 558.294 197.705 559.349 193.753C559.783 192.131 559.899 190.366 560.619 188.891C563.703 182.568 562.312 176.033 556.195 172.507C554.269 171.396 550.808 171.585 548.729 172.586C547.306 173.273 546.951 176.366 546.342 178.45C546.129 179.179 546.583 180.105 546.736 180.96C546.213 181.032 545.93 181.159 545.719 181.084M373.101 121.355C375.677 123.196 377.091 122.683 377.682 119.64C378.072 117.627 378.476 115.593 378.564 113.555C378.6 112.722 378.018 111.337 377.374 111.079C372.082 108.959 366.802 106.673 361.309 105.273C359.373 104.779 356.857 106.608 353.605 107.719C355.039 111.766 355.514 115.284 357.405 117.65C358.584 119.126 363.279 120.054 364.015 119.179C367.445 115.107 369.344 118.281 371.67 120.071C372.177 120.461 372.583 120.985 373.101 121.355M483.08 169.671C481.598 172.831 483.445 177.667 487.123 178.904C490.228 179.949 493.592 180.562 496.862 180.662C500.481 180.772 503.237 178.576 504.488 175.206C505.549 172.349 505.543 169.194 502.912 167.044C502.083 166.367 499.79 166.156 499.215 166.753C496.877 169.182 494.608 169.176 492.172 167.572C488.173 165.673 484.54 166.557 483.08 169.671M638.366 212.552C639.463 210.591 638.542 207.17 637.663 204.679C637.084 203.037 635.003 201.519 633.033 203.849C630.907 206.363 628.572 206.041 626.211 204.62C621.738 202.675 618.164 203.582 616.719 206.925C615.381 210.024 617.234 214.68 620.791 215.781C624.113 216.812 627.816 217.873 631.115 217.393C633.807 217 637.082 214.848 638.366 212.552M238.455 79.7564C239.614 78.8042 240.499 77.5227 241.283 76.6436C242.201 73.1554 242.339 70.1147 239.621 67.8399C238.899 67.2342 236.84 66.9238 236.477 67.3583C233.795 70.5853 231.116 69.8484 227.974 68.0942C225.336 66.6204 222.675 67.1911 220.69 69.542C218.538 72.0901 219.129 74.8765 220.747 77.3285C223.42 81.3734 234.672 82.8582 238.455 79.7564M296.815 140.648C295.406 143.457 296.707 145.623 299.857 145.602C301.944 145.589 304.171 144.944 306.079 144.028C311.142 141.593 311.576 138.267 307.318 134.484C302.699 130.38 297.183 128.893 291.158 129.823C286.576 130.53 285.183 132.943 286.143 138.427C288.999 137.861 291.599 137.07 294.237 136.91C296.503 136.771 298.459 137.365 296.815 140.648M560.06 239.01C558.384 242.348 560.052 244.96 563.683 244.084C567.08 243.263 570.526 241.369 573.117 239.037C574.659 237.65 571.227 233.108 567.276 230.946C566.486 230.514 565.638 230.184 564.815 229.805C564.815 229.569 564.814 229.333 564.814 229.096C560.993 229 557.152 228.641 553.355 228.889C550.144 229.098 548.831 231.574 548.561 234.53C548.382 236.485 549.074 237.411 551.316 236.819C553.539 236.23 555.858 235.678 558.13 235.691C559.921 235.7 561.288 236.564 560.06 239.01" transform="matrix(0.9998477 0.01745241 -0.01745241 0.9998477 -238.6956 -164.8925)" id="Combined-Shape" fill="#3D55CC" stroke="none" />
              </g>
            </g>
          </g>
        </g>
      </g>
    </g>
  </g>
</svg>