<?xml version="1.0" encoding="utf-8"?>
<!-- Generator: Adobe Illustrator 20.1.0, SVG Export Plug-In . SVG Version: 6.00 Build 0)  -->
<svg version="1.1" id="Layer_1" xmlns="http://www.w3.org/2000/svg" xmlns:xlink="http://www.w3.org/1999/xlink" x="0px" y="0px"
	 viewBox="0 0 370 208" style="enable-background:new 0 0 370 208;" xml:space="preserve">
<style type="text/css">
	.st0{clip-path:url(#SVGID_2_);}
	.st1{fill:none;}
	.st2{clip-path:url(#SVGID_4_);}
	.st3{clip-path:url(#SVGID_6_);}
	.st4{fill:#303D78;}
	.st5{clip-path:url(#SVGID_8_);}
	.st6{fill:#3D55CC;}
</style>
<desc>Created with Lunacy</desc>
<g>
	<defs>
		<rect id="SVGID_1_" width="370" height="208"/>
	</defs>
	<clipPath id="SVGID_2_">
		<use xlink:href="#SVGID_1_"  style="overflow:visible;"/>
	</clipPath>
	<g class="st0">
		<path id="Mask" class="st1" d="M5,0h360c0.1,0,0.2,0,0.2,0c0.1,0,0.2,0,0.2,0c0.1,0,0.2,0,0.2,0c0.1,0,0.2,0,0.2,0
			c0.1,0,0.2,0,0.2,0.1c0.1,0,0.2,0,0.2,0.1c0.1,0,0.2,0,0.2,0.1c0.1,0,0.2,0.1,0.2,0.1c0.1,0,0.1,0.1,0.2,0.1
			c0.1,0,0.1,0.1,0.2,0.1c0.1,0,0.1,0.1,0.2,0.1c0.1,0,0.1,0.1,0.2,0.1c0.1,0,0.1,0.1,0.2,0.1c0.1,0,0.1,0.1,0.2,0.2
			c0.1,0.1,0.1,0.1,0.2,0.2c0.1,0.1,0.1,0.1,0.2,0.2c0.1,0.1,0.1,0.1,0.2,0.2c0.1,0.1,0.1,0.1,0.2,0.2C368.9,1.9,369,2,369,2
			c0,0.1,0.1,0.1,0.1,0.2c0,0.1,0.1,0.1,0.1,0.2c0,0.1,0.1,0.1,0.1,0.2c0,0.1,0.1,0.1,0.1,0.2c0,0.1,0.1,0.1,0.1,0.2
			c0,0.1,0.1,0.2,0.1,0.2c0,0.1,0.1,0.2,0.1,0.2c0,0.1,0,0.2,0.1,0.2c0,0.1,0,0.2,0.1,0.2c0,0.1,0,0.2,0,0.2c0,0.1,0,0.2,0,0.2
			s0,0.2,0,0.2c0,0.1,0,0.2,0,0.2v203H0V5c0-0.1,0-0.2,0-0.2c0-0.1,0-0.2,0-0.2c0-0.1,0-0.2,0-0.2c0-0.1,0-0.2,0-0.2
			c0-0.1,0-0.2,0.1-0.2s0-0.2,0.1-0.2c0-0.1,0-0.2,0.1-0.2c0-0.1,0.1-0.2,0.1-0.2c0-0.1,0.1-0.2,0.1-0.2c0-0.1,0.1-0.1,0.1-0.2
			c0-0.1,0.1-0.1,0.1-0.2c0-0.1,0.1-0.1,0.1-0.2C0.9,2.2,0.9,2.1,1,2C1,2,1.1,1.9,1.1,1.8c0.1-0.1,0.1-0.1,0.2-0.2
			c0.1-0.1,0.1-0.1,0.2-0.2c0.1-0.1,0.1-0.1,0.2-0.2c0.1-0.1,0.1-0.1,0.2-0.2C1.9,1.1,2,1,2,1c0.1,0,0.1-0.1,0.2-0.1
			c0.1,0,0.1-0.1,0.2-0.1c0.1,0,0.1-0.1,0.2-0.1c0.1,0,0.1-0.1,0.2-0.1c0.1,0,0.1-0.1,0.2-0.1c0.1,0,0.2-0.1,0.2-0.1
			c0.1,0,0.2-0.1,0.2-0.1c0.1,0,0.2,0,0.2-0.1s0.2,0,0.2-0.1c0.1,0,0.2,0,0.2,0c0.1,0,0.2,0,0.2,0c0.1,0,0.2,0,0.2,0
			C4.8,0,4.9,0,5,0z"/>
		<g>
			<defs>
				<path id="SVGID_3_" d="M5,0h360c0.1,0,0.2,0,0.2,0c0.1,0,0.2,0,0.2,0c0.1,0,0.2,0,0.2,0c0.1,0,0.2,0,0.2,0c0.1,0,0.2,0,0.2,0.1
					c0.1,0,0.2,0,0.2,0.1c0.1,0,0.2,0,0.2,0.1c0.1,0,0.2,0.1,0.2,0.1c0.1,0,0.1,0.1,0.2,0.1c0.1,0,0.1,0.1,0.2,0.1
					c0.1,0,0.1,0.1,0.2,0.1c0.1,0,0.1,0.1,0.2,0.1c0.1,0,0.1,0.1,0.2,0.1c0.1,0,0.1,0.1,0.2,0.2c0.1,0.1,0.1,0.1,0.2,0.2
					c0.1,0.1,0.1,0.1,0.2,0.2c0.1,0.1,0.1,0.1,0.2,0.2c0.1,0.1,0.1,0.1,0.2,0.2C368.9,1.9,369,2,369,2c0,0.1,0.1,0.1,0.1,0.2
					c0,0.1,0.1,0.1,0.1,0.2c0,0.1,0.1,0.1,0.1,0.2c0,0.1,0.1,0.1,0.1,0.2c0,0.1,0.1,0.1,0.1,0.2c0,0.1,0.1,0.2,0.1,0.2
					c0,0.1,0.1,0.2,0.1,0.2c0,0.1,0,0.2,0.1,0.2c0,0.1,0,0.2,0.1,0.2c0,0.1,0,0.2,0,0.2c0,0.1,0,0.2,0,0.2s0,0.2,0,0.2
					c0,0.1,0,0.2,0,0.2v203H0V5c0-0.1,0-0.2,0-0.2c0-0.1,0-0.2,0-0.2c0-0.1,0-0.2,0-0.2c0-0.1,0-0.2,0-0.2c0-0.1,0-0.2,0.1-0.2
					s0-0.2,0.1-0.2c0-0.1,0-0.2,0.1-0.2c0-0.1,0.1-0.2,0.1-0.2c0-0.1,0.1-0.2,0.1-0.2c0-0.1,0.1-0.1,0.1-0.2c0-0.1,0.1-0.1,0.1-0.2
					c0-0.1,0.1-0.1,0.1-0.2C0.9,2.2,0.9,2.1,1,2C1,2,1.1,1.9,1.1,1.8c0.1-0.1,0.1-0.1,0.2-0.2c0.1-0.1,0.1-0.1,0.2-0.2
					c0.1-0.1,0.1-0.1,0.2-0.2c0.1-0.1,0.1-0.1,0.2-0.2C1.9,1.1,2,1,2,1c0.1,0,0.1-0.1,0.2-0.1c0.1,0,0.1-0.1,0.2-0.1
					c0.1,0,0.1-0.1,0.2-0.1c0.1,0,0.1-0.1,0.2-0.1c0.1,0,0.1-0.1,0.2-0.1c0.1,0,0.2-0.1,0.2-0.1c0.1,0,0.2-0.1,0.2-0.1
					c0.1,0,0.2,0,0.2-0.1s0.2,0,0.2-0.1c0.1,0,0.2,0,0.2,0c0.1,0,0.2,0,0.2,0c0.1,0,0.2,0,0.2,0C4.8,0,4.9,0,5,0z"/>
			</defs>
			<clipPath id="SVGID_4_">
				<use xlink:href="#SVGID_3_"  style="overflow:visible;"/>
			</clipPath>
			<g id="cards_x2F_shape_x2F_4" class="st2">
				<g id="Mask_3_">
					<path id="Mask_1_" class="st1" d="M761.8,324.1L313.4,147L142.5,580l357.2,141.1l303.1-103.8L761.8,324.1z"/>
					<g>
						<defs>
							<polygon id="SVGID_5_" points="761.8,324.1 313.4,147 142.5,580 499.7,721.2 802.8,617.3 							"/>
						</defs>
						<clipPath id="SVGID_6_">
							<use xlink:href="#SVGID_5_"  style="overflow:visible;"/>
						</clipPath>
						<g id="Group" transform="translate(-381.0428 -515.2213)" class="st3">
							<g>
								<path id="Mask_2_" class="st4" d="M0,0h370v208.1H0V0z"/>
								<g id="pattern_x2F_01" transform="translate(381.0428 515.2213)">
									<defs>
										<rect id="SVGID_7_" x="0" y="0" width="370" height="208.1"/>
									</defs>
									<clipPath id="SVGID_8_">
										<use xlink:href="#SVGID_7_"  style="overflow:visible;"/>
									</clipPath>
									<g class="st5">
										<path id="Combined-Shape" class="st6" d="M-73.4,64.9c-0.3,2-0.9,4.3-0.2,6c1,2.2,1.8,3.5-0.1,5.8
											c-1.6,1.9-3.1,2.9-5.5,2.7c-1.9-0.1-3.9,0-5.8,0.3c-5,0.7-6.7,2.6-7,7.7c-0.3,5.1,2.9,8.8,8.3,9.5
											c5.6,0.8,10.2-1.2,14.8-4.5c6.4-4.7,8.1-8.2,6.2-15.6c-0.3-1.2,0-3,0.7-4.1c6.3-9.2,2.6-22.5-7.5-26.9
											c-2.2-0.3-4.5-1.2-6.5-0.8c-8.7,1.8-17.5,3.6-26,6.1c-4.7,1.4-6.2,6.1-5.4,12.5c0.7,5.5,4.6,10.6,8.7,11.4
											c0.4,0.1,0.8,0.1,1.2,0.1c2.9,0.1,4.5-1,3.8-4.2c-0.6-2.5-1.2-5.1-1.7-7.6c-0.6-3.2,0.2-6,3.4-7c3.5-1,7.4-1.9,11-1.6
											C-74.5,55-72.3,58.4-73.4,64.9 M192.8,195.5c6.2-4.3,7.9-7.9,6-15.2c-0.3-1.3,0-3.2,0.7-4.3c6.1-9,2.4-22.2-7.5-26.8
											c-3.5-0.1-7-0.8-10.3-0.3c-6.9,1.2-13.7,3-20.5,4.9c-5.4,1.5-7.5,5-7.4,11.2c0.1,6.3,3.6,12,8.3,13.3
											c0.6,0.2,1.3,0.2,1.9,0.3c2.8,0.2,4.2-1,3.7-3.9c-0.5-2.7-1.2-5.3-1.7-7.9c-0.7-3.4,0.4-6.1,3.9-6.9
											c3.7-0.9,7.7-1.6,11.5-1.3c5.8,0.4,7.8,3.7,7,9.3c-0.3,2.3-0.8,5-0.1,7.1c1.4,4-0.5,7.6-4.8,7.9c-2.2,0.1-4.4,0.1-6.6,0.3
											c-4.8,0.6-6.8,2.7-7.2,7.5c-0.4,5.1,3.3,9.1,8.9,9.7C183.9,200.7,188.3,198.5,192.8,195.5 M307.6,232.9
											c-5.9,2.8-5.2,10.8-11,13.6c-3.4,1.7-6.7,1.8-10.5,0.6c-2.2-0.7-4.7-0.8-6.6-0.9c-0.7,0-1.3,0-1.8-0.1
											c-10.9-4.6-18.5-17.3-17.6-27.6c0.1-1.1-0.2-2.3-0.6-3.3c-2.4-6.8,1.8-12.8,8.9-12.9c1.8,0,4-0.9,5.4-2
											c2.8-2.3,5.3-2.6,8.4-0.5c5.2,3.5,10.7,6.4,15.7,10.1c3.4,2.5,6.7,5.6,8.8,9.1c1.7,2.9,1.8,6.8,2.3,10.4
											C309.1,230.6,308.4,232.5,307.6,232.9z M272.6,226.6c-0.1,0.4-0.3,0.7-0.4,1.1c-1.8,5.1,1.3,9.9,6.6,10.3
											c6.6,0.5,15-4.6,17.1-10.7c0.3-1-0.4-3.1-1.2-3.5c-2.5-1.3-2.4-2.7-1.2-4.7c1.7-2.7,0.5-4.3-2.2-4.7
											c-4.3-0.7-8.7-1.5-13.1-1.6c-1.5,0-3,0.5-4.7,1.2c-0.9,0.3-1.8,0.7-2.9,1C275.4,219,274,222.8,272.6,226.6z M27.4,144
											c-4.2-0.7-8.5-1.4-11.8-1.9c-10.3-4.2-17.9-17-17-27.1c0.1-1.2-0.3-2.5-0.7-3.7c-2.2-6.2,2-12.2,8.6-12.5
											c2.1-0.1,4.1-1.5,6.1-2.1c0.5-0.1,1-0.3,1.6-0.5c1.7-0.6,3.6-1.3,4.6-0.7c7.9,4.9,15.7,9.9,22.9,15.7
											c2.7,2.1,4.2,6.1,5.3,9.5c1.5,4.7-0.3,8.8-4.4,11.8c-1,0.7-2.1,1.9-2.5,3.1C38.4,141.6,33.6,144.9,27.4,144z M12.3,118.4
											c-0.4,1.9-1.2,3.7-1.8,5.5c-1.6,4.8,1.4,9.6,6.4,10.1c6.5,0.7,15.2-4.5,17.3-10.7c0.3-0.9-0.4-2.9-1.2-3.4
											c-1.9-1.2-2.6-2.3-1.3-4.3c1.7-2.7,0.8-4.6-2.2-5c-0.5-0.1-1-0.1-1.4-0.2c-4.5-0.6-9-1.2-13.4-1c-4.4,0.2-4.5,1.3-2.6,5.3
											C12.5,115.8,12.6,117.3,12.3,118.4z M120.6,174c1.9-3.2,0.4-6.4-3.3-6.2c-2.6,0.1-5.2,1.1-7.8,1.6
											c-4.3-8.5-3.1-11.3,6.3-12.6c6.4-0.9,12.8-1.5,19.3-2.3c2.1-0.2,4.3-0.4,6.4-0.6c0.2,0.5,0.4,1,0.6,1.4
											c-2.2,1.4-4.3,2.9-6.6,4.2c-3.6,2.1-7.4,3.8-10.7,6.1c-1.1,0.8-1.2,3.1-1.8,4.7c1.4,0.4,2.8,1.1,4.2,1.1
											c7.1-0.2,12-5.1,16.7-9.3c3.9-3.4,6.3-8.5,9.2-12.9c1.7-2.6,1-4.6-2.2-5c-2.8-0.4-5.7-0.8-8.5-0.4
											c-7.9,1.1-15.9,2.5-23.7,4.1c-8.2,1.7-15.5,5-19.9,12.9c-3.3,5.8-1.5,14.1,3.8,17.4C108.4,181.8,117.1,179.7,120.6,174
											 M-140.9,70.8c0.9-1.1,1.7-3.4,1.1-4.4c-0.7-1.2-2.8-2.3-4.3-2.4c-2.4,0-4.8,0.9-7.4,1.4c-4.2-8.7-3-11.2,6.3-12.5
											c6.7-0.9,13.4-1.6,20.2-2.3c1.9-0.2,3.9-0.3,5.9-0.4c0.2,0.4,0.3,0.9,0.5,1.4c-2.2,1.4-4.4,2.8-6.7,4.1
											c-3.4,1.9-7,3.4-10.2,5.6c-1.3,0.9-1.7,3.2-2.4,4.9c1.6,0.5,3.3,1.3,4.9,1.3c1.7,0,3.7-0.3,5.2-1.2
											c7.2-4.4,14.2-9.1,18.1-17c1.2-2.4,2-4.9,3-7.3c-3.1-0.7-6.3-2.5-9.2-2c-10.8,1.6-21.5,3.6-32.2,6
											c-5.4,1.2-9.8,4.6-12.9,9.5c-4.1,6.4-3.4,13.9,2,18.2C-153.8,77.8-145.6,76.6-140.9,70.8 M351.3,247.4
											c0.5-0.1,0.8-1,1.2-1.4c3-3.6,2.3-7.2,0.9-11.3c-1.4-4.2-1.9-8.7-3.1-13c-0.6-2.3-1.3-5.1-2.9-6.4
											c-4.7-3.8-10.4-5.2-16.5-4.3c-5.6,0.8-8.2,4.6-7,9.5c1.3,5.2,6.3,8.4,11,6c4.5-2.3,5.8,0,7,3.2c0.9,2.4,1.4,4.9,2.4,8.1
											c-5.2-0.7-9.4-1.5-13.6-1.7c-4.4-0.2-7.4,2.5-7.7,6.1c-0.3,3.8,2.9,7.8,6.5,8.9C337.4,253.3,344.1,248.9,351.3,247.4
											 M-171.7,40.7c0.6-0.2,1.1-1,1.6-1.5c3.1-3.5,2.4-7.2,1.1-11.3c-1.4-4.4-2-9-3.2-13.5c-0.5-2.1-1-4.7-2.4-5.9
											c-5.4-4.2-11.7-6-18.5-4.3c-3.7,0.9-5.6,3.7-5.5,7.4c0.1,6.5,6.2,10,12.6,7.5c1.1-0.4,3.1-0.5,3.5,0.1
											c2.5,3.2,3.9,6.9,3.7,11.6c-1.6-0.3-2.9-0.5-4.3-0.7c-3.3-0.4-6.8-1.4-9.9-0.8c-2.2,0.4-4.9,2.6-5.8,4.7
											c-1,2.3-0.8,5.3,2,7.5c4.8,3.7,9.9,3.6,15.2,2.3C-178.2,43-175,41.8-171.7,40.7 M-7.5,144.3c-2,5.5-5.1,7.9-10.2,7.9
											c-5.7,0-11.4-4.1-13.2-9.6c-1.8-5.3-0.6-9.6,3.4-13c0.7-0.6,1.3-1.8,1.3-2.8c0.2-6.2,2.3-8.8,7.8-9.6
											c5.3-0.7,10.3,2.4,11.7,7.3C-4.9,131.2-5.3,137.8-7.5,144.3z M-17.7,128.7c-1.5,1.4-2.8,3.1-4.8,5.5
											c0.3,1.7,0.8,4.4,1.4,7.6c2.9-0.9,4.9-1.4,6.8-2.2c0.8-0.3,1.8-1.3,1.8-2.1c0.1-2.6-0.1-5.2-0.4-7.7c-0.1-1-1-2.6-1.6-2.6
											C-15.6,127.2-16.9,127.9-17.7,128.7z M254.6,227.3c2,6.6,1.9,13.2-0.8,21c-0.9,3.3-3.5,6.3-8.3,7
											c-5.9,0.8-10.3-1.7-13.4-6.5c-2.7-4.1-3.1-8.5-0.8-12.9c0.4-0.8,1-1.7,1.7-2.1c2.2-1.1,2.4-2.7,2.4-5.1
											c-0.1-4.7,2.9-7.5,8-8.2C248.2,219.8,253.2,222.9,254.6,227.3z M240.1,235.8c-0.7,1.5-0.9,3.3-0.8,5
											c0.1,1.3,0.9,2.5,1.7,4.6c3-1.7,6.3-2.6,7.7-4.7c0.9-1.3,0.5-3.7,0.1-5.9c-0.1-0.6-0.2-1.1-0.3-1.6
											c-0.2-1.1-1.1-2.7-1.8-2.8c-1-0.1-2.2,0.9-3.1,1.7C242.3,233.2,240.8,234.4,240.1,235.8z M245.5,197
											c-0.5,0.8-0.8,1.9-0.9,2.9c-0.1,2.7,1.9,4.5,4.4,4.2c4.4-0.6,8.5-8.6,6.6-12.6c-0.6-1.3-1.3-2.9-1.1-4.3
											c0.6-3.6-0.8-6.1-3.4-8.1c-6.2-4.8-15.2-4.2-20.9,1.2c-3.5,3.4-7.3,6.5-10.7,10c-1.2,1.2-2.2,3.4-2.1,5
											c0.4,6.9,8.1,12.4,15.6,10c-2.3-1.9-4.5-3.8-6.8-5.7c-3.9-3.2-3.9-6.9,0.5-9.3c3.5-1.9,7.6-3.1,11.6-4
											c3.2-0.7,6.4,0.2,8.5,3.3C248.7,192.4,247,194.6,245.5,197 M-31.1,77c-3.5,3.4-7.3,6.5-10.8,9.9c-1.1,1.2-2.2,3.1-2.1,4.6
											c0.4,7.1,9,14.2,16.1,10.8c-3-2.4-5.4-4.5-7.9-6.5c-2.7-2.1-2.7-4.7-0.9-7.2c3.1-4.4,14.3-7.1,19.3-4.8
											c3.7,1.7,4.6,4.7,2.6,8.3c-0.8,1.5-1.7,3.3-1.8,4.9c-0.1,2.7,1.7,4,4.3,3.7c4.5-0.5,8.5-8.5,6.5-12.5
											c-0.6-1.2-1.4-2.7-1.1-3.8c1.1-4.3-0.9-7-4.1-9.2C-17.4,71-25.8,71.9-31.1,77 M159.4,206.9c-2.7,1.8-3.5,4.4-2.3,7.5
											c1.6,4.1,4.4,7,8.5,9c2.3,0.2,4.6,0.7,6.8,0.4c6.9-0.8,11.8-5.5,16.9-9.6c0.6-0.4,0.5-2.2,0.2-3.2c-1.4-3.7-4.5-4-9.4-1.1
											c-7.5,4.5-7.5,4.6-13.5-1.8C164.4,205.8,162.1,205.1,159.4,206.9 M-101.9,103.5c-2.6,1.6-3.7,4-2.7,7
											c1.5,4.5,4.5,7.6,8.8,9.8c2.5,0.1,5.1,0.5,7.6,0.1c6.5-1,11.2-5.7,16.1-9.6c0.5-0.4,0.5-1.7,0.3-2.5
											c-1.1-4.1-4.1-4.7-9.1-2c-8,4.5-8,4.5-14.4-1.8C-97.3,102.5-99.5,102-101.9,103.5 M-20.6,168.2c-0.3,3.9,2.5,4.7,5.2,6.1
											c2.9,1.5,5.6,3.6,8.1,5.8c2.1,1.9,2.1,3.7-0.7,5.6c-3.9,2.7-8.3,2.7-12.3,1.4c-3-1-7.3-3.6-7.8-6
											c-0.9-5.2-2.8-8.9-8.4-11.9c3.1-0.6,4.9-1,6.7-1.3c2.6-0.5,4.1-2.1,4.5-4.6c0.5-3.2-2.3-9.8-4.9-10.9
											c-4.1-1.6-7.1,0.7-9.6,3.4c-3.1,3.4-6,7.1-8.5,10.9c-1.1,1.7-1.6,4.1-1.5,6.3c0,4.9,1.7,9.3,4.8,13.2
											c4.3,5.4,8,11.5,15.8,12.6c0.5,0.1,0.9,0.5,1.3,0.8c6.8,5.3,14.1,5.2,21.5,1.8c5.5-2.5,8-8.1,6.5-13.8
											c-0.5-1.9,0.1-2.8,1.3-4.2c1.3-1.6,2.5-4.2,2.2-6.1c-0.7-5.3-3.8-9.2-8.8-11.5c-1.2-0.6-2.5-1-3.8-1.5
											c0.3-0.2,0.7-0.4,1-0.5c-0.3-2,0-5.4-0.9-5.7c-2.2-0.7-5.1-0.7-7.2,0.2C-20,160.1-20.3,164.2-20.6,168.2 M261.4,289.8
											c-0.1-0.7,0.4-1.7,0.9-2.3c3.5-3.8,3.9-6.9,1.3-11.5c-2.5-4.4-6.3-7.1-10.1-8c-0.5-2.9-0.5-6.7-1.3-6.8
											c-2.4-0.5-5.1,0.3-7.6,0.7c-0.7,0.1-1.2,0.9-1.7,1.5c-4.2,5.1-2.7,11,3,14.1c3.1,1.7,6,4.1,8.6,6.5
											c1.7,1.5,1.3,3.2-0.8,4.8c-4.1,2.9-8.8,2.9-13,1.5c-3-1-7.3-3.5-7.5-5.8c-0.6-5.3-2.7-8.9-8.3-11.9
											c2.9-0.6,4.6-0.9,6.3-1.3c3.8-0.9,5.6-3.1,4.9-6.6c-0.4-2.3-1.3-4.5-2.4-6.5c-1.7-3.1-4.6-3.9-7.7-2.2
											c-2,1.1-3.9,2.6-5.4,4.3c-1.7,1.9-2.7,4.4-4.4,6.3c-5.4,6.1-6.3,11.4-2.5,18.6c1.4,2.7,4.1,4.7,5.5,7.5
											c2.5,4.8,6.2,7.5,11.2,8.8c1.1,0.3,2.3,0.8,3.1,1.5c3.5,3.2,7.8,4,12.3,4C256.7,307.3,262.2,301.1,261.4,289.8
											 M13.5,180.4c0.9-1.8,0.9-4,1-6c0.1-0.9,0.1-1.8,0-2.8c0-1.4-0.1-2.8,0.2-4.1c1.6-7,9-10.4,14.8-6.2
											c6.6,4.8,13.6,8,21.6,9.3c3.5,0.6,6.1,3,6.5,6.4c0.6,4.6,0.5,9.4,0.7,14.1c0,0.3,0,0.6,0,0.9c0,0.7-0.1,1.5,0.3,2.1
											c2.3,4,1,7.5-1.7,10.3c-6.4,6.5-11.2,9.4-20.4,5.4c-1-0.4-1.9-0.8-2.9-1.2c-0.1,0.1-0.2,0.3-0.3,0.4
											c-5.2-3.1-10.6-6-15.7-9.4C11.9,195.6,10.4,186.8,13.5,180.4z M44.7,183.3c-0.7-5.4-3.8-9.1-7.9-11.7
											c-4.7-1.8-6.9-0.3-7.6,3.8c-0.4,2.2-2.1,4.2-3.3,6.3c-0.2,0.4-0.6,0.8-0.9,1.2c-0.6,0.7-1.1,1.3-1.1,1.8
											c1,6.1,2.2,12.2,7.3,16.6c2.7,2.3,6.2,2.5,8.3,0.6c2.7-2.5,5-6.1,6.1-9.6c0.6-1.9,0.1-4-0.4-6.2
											C45.1,185.2,44.8,184.2,44.7,183.3z M275.6,277.3c-1.4-7,1.4-12.8,7.3-13.8c2.8-0.5,6.6,0,8.7,1.7
											c5.9,4.4,12.2,7.3,19.5,8.3c4.7,0.6,7.6,3.7,8.2,8.2c0.3,2.8,0.2,5.7,0.1,8.6c0,1.5-0.1,2.9-0.1,4.4c0,1,0,2.1,0.5,2.9
											c1.9,3.7,1,6.9-1.6,9.7c-6.4,6.9-11.5,9.8-21,5.6c-0.8-0.4-1.7-0.7-2.5-1c-0.1,0.2-0.2,0.3-0.3,0.5
											c-5.3-3.2-10.8-6.2-16-9.6c-5.5-3.7-7.4-13.2-3.8-18.8C276.1,281.5,276.1,279.7,275.6,277.3z M307,296.1
											c-0.5-3.2-1-6.3-1.3-9.5c-0.7-6.8-6.6-12.9-12.2-12.2c-1.2,0.1-3,1.9-3,2.8c0.1,3.7-1.5,6.1-4.1,8.3
											c-0.7,0.6-1.6,2-1.3,2.8c1.4,4.5,2.9,9.1,4.8,13.4c0.8,1.7,2.7,3,3.6,3.9C299.1,307.6,307.7,300.9,307,296.1z
											 M-117.7,178.4c-0.3,1.7-0.8,3.8-0.1,5.2c0.9,2.1,2,3.4,0,5.7c-1.8,2-3.4,2.7-5.9,2.8c-2.8,0-5.7,0.6-8.5,1.1
											c-1,0.2-2.1,1.1-2.7,2c-3.9,6.1-0.3,13.4,6.8,14.4c5.8,0.8,10.4-1.3,15.1-4.7c5.9-4.1,7.8-8,6.1-15.1
											c-0.4-1.5-0.1-3.5,0.7-4.8c6-9.1,2.2-22.3-7.7-26.9c-2.9-0.2-6-1-8.8-0.5c-6.9,1.2-13.7,2.9-20.5,4.6
											c-5.7,1.4-8.2,4.3-8.7,9.2c-0.7,6.8,2.1,13.4,6.9,15.4c1.7,0.7,4.2,0.8,5.9,0.1c0.8-0.3,0.6-3.2,0.7-4.9
											c0-1-0.4-2-0.6-3.1c-1.9-7.6-0.6-9.8,7-11.5c1.8-0.4,3.6-0.5,5.4-0.4C-118.8,167.5-116.3,170.8-117.7,178.4 M-14.6,256.9
											c-5.1-0.1-10.1-1.2-14.3-1.8c-10.3-4-18.3-17.1-17.5-27.3c0.1-1.2-0.1-2.6-0.5-3.7c-2.3-6.6,1.7-12.5,8.6-12.9
											c2-0.1,4.2-1,5.8-2.2c2.9-2.2,5.3-2.4,8.4-0.2c5.2,3.7,10.8,6.7,16,10.3c5.1,3.5,9.3,7.9,10.5,14.4
											C3.3,238.3,2,242-1.7,245c-1.3,1.1-2.5,2.8-3,4.4C-6.2,253.7-9.6,257-14.6,256.9z M-35.7,224c4.9,4,3.5,7.8,1.8,11.4
											c-3.2,7,2.5,12.5,9.4,11.6c6.7-0.9,10.5-5.6,13.9-10.8c0.4-0.7-0.3-3-1-3.5c-2.6-1.4-2.4-3-1.2-5.1
											c1.3-2.3,0.5-3.9-1.9-4.3c-4.9-0.7-9.9-1.3-14.9-1.6c-1.1,0-2.3,0.5-3.7,1.2C-34,223.3-34.8,223.7-35.7,224z M148.2,308.1
											c5.3-3.7,7.7-7.4,6-13.4c-0.8-2.8-1.2-5.1,1.1-7.3c0.5-0.5,0.7-1.3,1-1.7c5.2-13-4.5-25.9-18.1-24.1
											c-7.7,1-15.2,3.3-22.7,5.4c-3.3,0.9-5.5,3.4-6.1,6.9c-0.9,4.9-0.2,9.7,3.1,13.5c1.6,1.8,4.1,3.2,6.4,3.9
											c3.1,0.8,4.6-1,4.1-4.2c-0.4-2.2-1-4.3-1.5-6.4c-1.1-5,0.2-7.3,5.1-8.7c2-0.6,4.1-1,6.1-1.1c9-0.4,12.1,3.3,10.5,12
											c-0.3,1.5-0.4,3.4,0.2,4.8c1.7,3.9-0.4,7.6-4.7,7.9c-2.3,0.1-4.7-0.1-7,0.4c-1.9,0.4-4.3,1.2-5.3,2.7
											c-4.3,6.1-0.6,13.4,6.8,14.3C139,313.6,143.6,311.3,148.2,308.1 M262.5,345.6c-6,3-5.1,11.5-11.6,14
											c-0.2,0.1-0.5,0.2-0.7,0.3c-1.1,0.4-2.3,0.9-3.4,0.8c-5.1-0.5-10.1-1.3-14.2-1.9c-10.3-4.1-18.4-17.3-17.4-27.1
											c0.1-1.4-0.3-2.9-0.7-4.3c0-0.1,0-0.1-0.1-0.2c-1.9-6.2,2.4-12,8.8-12.2c2-0.1,4.2-0.8,5.7-2c2.9-2.2,5.3-2.5,8.4-0.3
											c6.8,4.9,14,9.3,20.7,14.3c3.9,2.9,5.7,7.3,6.1,12.2c0,0.1,0,0.3,0,0.4c0.1,0.6,0.1,1.3,0,1.9
											C263.7,342.9,263.5,345.2,262.5,345.6z M225.6,327.6c4.9,4,4.1,8,2.1,11.6c-3,5.5,1.1,12.4,8.9,11.6
											c6.9-0.7,10.8-5.5,14.3-10.8c0.4-0.7-0.1-3-0.8-3.3c-2.8-1.3-2.8-2.9-1.4-5.2c1.4-2.3,0.5-3.8-1.9-4.3
											c-4.2-0.8-8.4-1.7-12.6-1.9c-1.7-0.1-3.3,0.5-5.3,1.2C227.9,326.9,226.9,327.2,225.6,327.6z M-158.9,141.9
											c8.3,3.3,22.5-4.2,26.3-13.8c2.6-6.7-2.9-19.9-9.6-22.3c-1.8-0.6-4.6-0.3-6.1,0.8c-1.3,1-2.2,3.9-1.6,5.4
											c1.5,4.1,3.4,8.1,5.9,11.6c2.1,2.9,2.4,5.6-0.1,7.5c-2.1,1.6-5.4,2.7-8,2.4c-3.1-0.5-4.5-3.6-4.3-7
											c0.2-4,0.1-7.6-3.1-10.8c-7.1-6.8-7-6.9-1-14.8c0.1-0.1,0.1-0.2,0.2-0.3c3.1-4.2,2.1-7.2-3-8.3c-1.7-0.4-3.7-0.4-5.3,0.2
											c-6.4,2.2-11.1,6.5-14,12.7c-1.5,3.1-1,5,2.8,5.8c5.2,1.1,8.4,4.4,9.5,9.6c0.6,2.7,1,5.4,1.8,8
											C-166.9,134-165,139.5-158.9,141.9 M90.6,224.2c0.9,4,1.8,8.1,3.2,12c1.4,4.1,3.7,7.8,8.2,9.5c1.6,0.3,3.3,1,4.9,0.8
											c9.5-1.1,16.6-6.1,21.1-14.5c0.9-1.7,1.2-4.1,0.9-6c-0.7-6.3-3.7-11.7-8.7-15.4c-1.7-1.2-5.2-1.6-7-0.6
											c-1.5,0.8-2.7,4.4-2.1,6.2c1.3,4,3.5,7.7,5.8,11.2c1.8,2.7,2.3,5,0.1,7.3c-2.2,2.4-5,3.9-8.3,2.6c-3.1-1.2-4.3-4-4.2-7.2
											c0.1-3.5,0.4-6.9-2.4-9.8c-7.2-7.6-7.2-7.6-1.2-16.2c2.6-3.8,1.9-6.4-2.6-7.7c-1.8-0.5-3.9-0.6-5.7-0.1
											c-6.7,2.1-11.5,6.6-14.5,13.1c-1.3,2.9-0.8,4.5,2.6,5.3C86,215.6,89.4,218.7,90.6,224.2 M144.5,349.6c2.1-2.1,4-4.4,6-6.6
											c2.8-3.1,6.3-4.8,10.4-4.9c1.2,3.5,1.7,6.5,3.2,9c0.8,1.4,3.4,3.1,4.5,2.7c1.5-0.5,3.3-2.8,3.4-4.5
											c0.9-10.5-6-20.5-17.6-21.9c-3-0.3-5.6,1.2-6.1,4.3c-0.6,3.3-2.8,4.6-5.3,6.2c-6.4,4.1-13,8.1-18.9,13
											c-4.8,3.9-5.5,8.6-3.5,12.9c2.6,5.6,8.2,9.2,13.7,8.9c3.1-0.2,5.9-0.5,8.7,2c2.4,2.1,5.8,1.6,8.3-0.4
											c1.1-0.9,2-2.9,1.8-4.3c-0.4-3-2.8-4.6-5.7-5.1c-2-0.4-4.1-0.7-6.1-1c-3-0.4-4.1-2.3-4.3-5.1c-0.2-3.1,1.6-3.2,4-3.3
											C142.1,351.4,143.6,350.5,144.5,349.6 M-128.3,265.1c3.8-0.1,7.4-0.7,11,2c1.6,1.2,5.4,0,7.9-0.8c0.9-0.3,1.7-2.9,1.5-4.2
											c-0.5-3-3-4.4-5.8-4.9c-1.1-0.2-2.3-0.4-3.4-0.6c-1.3-0.2-3,0-3.7-0.7c-1.3-1.3-2.3-3.2-2.9-5c-0.2-0.7,0.9-2.7,1.3-2.7
											c6.3,0.4,8.2-5,11.8-8.3c2.3-2.1,5.3-3.6,8.1-5c1.9-0.9,3.1-0.2,3.7,2.3c0.6,2.8,1.8,5.7,3.5,8c1.8,2.4,4.6,1.7,5.8-1.1
											c0.6-1.4,0.9-3,0.8-4.5c-0.3-9-5.9-16.1-14.7-18.6c-6.1-1.7-7.7-0.8-9.8,5.1c-0.4,1.2-1.5,2.3-2.6,3
											c-6,3.9-12.1,7.4-17.9,11.5c-2.7,1.9-4.7,4.7-6.1,6.1C-143.3,255-135.9,265.4-128.3,265.1 M-185.6,184.1
											c0.9-1.1,1.6-3.4,1-4.4c-0.7-1.2-2.8-2.3-4.4-2.3c-2.4,0-4.8,0.9-7.1,1.5c-4.6-8-3.2-11.2,5.6-12.4
											c6.7-1,13.4-1.6,20.2-2.3c2.1-0.2,4.2-0.3,6.3-0.5c0.1,0.4,0.3,0.9,0.4,1.3c-1.1,0.8-2.1,1.9-3.3,2.5
											c-3.3,1.8-6.8,3.2-10.1,5.2c-1.9,1.1-3.9,2.7-5.2,4.4c-1.7,2.2-0.8,4.2,2.1,4.1c2.5-0.1,5.4-0.3,7.5-1.5
											c7.4-4.2,14.2-9.2,18.1-17c1.2-2.3,1.9-4.9,2.9-7.3c-3-0.7-6.1-2.3-8.9-1.9c-10.9,1.6-21.8,3.6-32.6,6
											c-5.4,1.2-9.7,4.7-12.8,9.6c-4,6.3-3.3,14,2.1,18.2C-198.5,191.2-190.2,189.9-185.6,184.1 M91.6,272.2
											c-3.6,2.1-7.4,3.7-10.8,6.1c-1.2,0.8-1.5,3-2.3,4.6c1.6,0.5,3.2,1.4,4.9,1.4c4.6,0.1,7.5-3.4,11.2-5.4
											c7.2-3.9,10.7-10.7,14.7-17.1c1.4-2.3,0.7-4.1-2-4.5c-2.4-0.4-4.9-0.9-7.3-0.6c-7.8,1-15.7,2.2-23.4,3.8
											c-8.4,1.7-16.3,4.3-21.1,12.3c-3.7,6.1-2.8,14,2.4,17.9c5.3,3.9,13.9,2.4,18-3.3c0.8-1.2,1.4-3.4,0.8-4.5
											c-0.5-1.1-2.7-2.1-4-2.1c-2.5,0.1-5,0.9-7.4,1.5c-4.2-8.6-2.8-11.3,6.6-12.6c5.8-0.8,11.6-1.5,17.3-2.2
											c2.7-0.3,5.3-0.4,8-0.6c0.2,0.5,0.5,0.9,0.7,1.4C95.7,269.6,93.7,271,91.6,272.2 M-160.8,210c-1.6,3.2-1.4,6.4-0.8,9.7
											c0.2,1.2-0.6,3-1.5,4.1c-1.5,1.9-3.8,3.1-5.1,5.1c-0.8,1.2-0.9,3.7-0.1,4.8c0.8,1,3.5,1.8,4.5,1.3c3-1.5,6-3.5,8.3-6
											c1.3-1.4,1-4.2,1.5-6.3c0.2-0.9,0.4-1.7,0.7-2.6c1.6-6.7,4.3-13.3,2.9-20.4c-0.9-4.6-3.1-6.9-7.2-7.2
											c-8.8-0.5-27.5,12.2-30.2,20.5c-1,3,0,5.1,2.6,6.4c4.6,2.3,9.6,1.3,13.1-2.5c1.8-2,3.2-4.3,5-6.4c1.7-2,3.5-3.8,5.2-5.7
											c0.4,0.2,0.8,0.4,1.2,0.6C-160.7,207-160.2,208.8-160.8,210 M104.2,296.4c-9-0.4-27.9,12.4-30.6,20.8
											c-1,3,0.2,5.1,2.9,6.4c5,2.3,9.7,1.2,13.3-3c1.7-2,3.1-4.2,4.7-6.2c1.6-1.9,3.4-3.7,5.1-5.6c0.5,0.2,1,0.4,1.5,0.7
											c-0.1,1.6-0.1,3.1-0.2,4.7c-0.2,3.1-0.9,6.3-0.6,9.4c0.2,2.1,0.1,3.2-1.7,4.5c-2.1,1.5-4,3.3-5.5,5.4
											c-1.7,2.4-0.3,5.6,2.4,6.1c4,0.8,12.2-5.8,12.7-9.9c0.4-3.8,1.3-7.5,1.7-11.3c0.6-5.2,1.3-10.5,1.1-15.7
											C110.7,299.1,108.3,296.6,104.2,296.4 M18.2,229.9c1.1,5,6,7.8,11.1,6.3c5-1.5,5.2-1.5,7.2,3.4c0.9,2.2,1.4,4.6,2.3,7.9
											c-2.5-0.5-3.9-0.8-5.2-1c-3.2-0.4-6.4-1-9.6-1c-3.2,0-5.5,1.9-6.2,5c-0.6,2.6-0.7,5.2,2,7.3c5.2,4.3,10.8,3.8,16.7,2.1
											c2.8-0.8,5.7-1.7,8.4-2.7c0.8-0.3,1.5-1,2-1.7c2.8-3.2,2.4-6.7,1.2-10.6c-1.5-4.7-2.1-9.8-3.5-14.5
											c-0.6-2.2-1.7-4.8-3.4-6.1c-4.5-3.4-9.8-4.6-15.4-3.9C19.7,221.1,17,224.6,18.2,229.9 M304.3,360.6
											c1.3-0.5,2.6-1.4,3.6-2.4c2.9-3.1,1.9-6.6,0.8-10.2c-1.4-4.5-2.1-9.2-3.3-13.8c-0.5-2.1-1-4.7-2.4-5.8
											c-5.3-4.3-11.5-5.9-18.2-4.4c-4.1,0.9-6,3.6-5.8,7.6c0.2,4.2,2.6,7.5,6.6,7.9c2,0.3,4.2-0.6,6.3-0.8
											c1.2-0.1,3.1,0,3.4,0.7c1.7,3.4,3,6.9,4.4,10.4c-0.3,0.3-0.7,0.5-1,0.8c-1.2-0.2-2.4-0.5-3.6-0.6c-3.3-0.4-6.7-1-10-1
											c-3.1,0-5.6,1.7-6.4,4.8c-0.7,2.8-0.5,5.3,2.1,7.7c3.6,3.4,7.8,3.3,11.9,2.8C296.5,363.7,300.4,362,304.3,360.6
											 M-216.5,154.1c0.7-0.2,1.2-1,1.7-1.5c3.1-3.5,2.4-7.2,1.1-11.3c-1.4-4.4-2-9-3.2-13.4c-0.6-2.3-1.4-5-3-6.3
											c-4.7-3.8-10.4-5.1-16.4-4.3c-5.2,0.7-7.9,4.6-6.9,9.4c1,4.9,5.6,7.8,10.6,6.5c5.6-1.4,6.2-1.2,8.1,4.3
											c0.7,1.9,0.9,4,1.6,6.9c-2.1-0.4-3.3-0.6-4.6-0.8c-3.2-0.4-6.4-1-9.6-1.1c-3.1-0.1-5.7,1.6-6.5,4.6c-0.8,2.8-0.8,5.6,2,8
											c3.6,3.2,7.8,3.3,11.8,2.8C-225.3,157.1-220.9,155.4-216.5,154.1 M199.9,241.6c-9.9-0.2-19.3,1.8-27.1,8.3
											c-1.5,1.2-2,4.1-2.2,6.3c-0.3,2.9,1.6,3.8,4,2.4c2.5-1.5,4.9-3.4,7.2-5.2c4.3-3.3,10-3.4,13.6-0.3
											c1.5,1.3,2.1,2.5,0.9,4.7c-0.8,1.6-1.1,4.1-0.4,5.8c1.6,4.5,1.2,5.7-3.6,6.4c-2.3,0.3-4.7,0-6.9,0.6
											c-2.2,0.6-5.1,1.6-6.1,3.3c-1.3,2.2-1.5,5.4-1,8c0.6,2.9,3.8,3.3,6.1,2.5c4.5-1.7,9-3.6,13-6.2c1.5-1,2.4-4,2.4-6
											c-0.1-2.8,0.6-4.2,3.1-5.3c5.3-2.3,7.8-6.9,7.6-12.5c-0.2-5.6-2.9-9.9-8.4-12.1C201.4,242.1,200.7,241.6,199.9,241.6
											 M-83.6,177.3c1.3,3.8,4.6,4.1,7.4,3.1c4.5-1.7,8.9-4,13-6.5c1.3-0.8,2.2-3.4,2-5c-0.5-3.4,0.8-4.8,3.7-6.1
											c5.2-2.4,7.4-7,7.1-12.4c-0.3-5.4-3-9.6-8.8-11.9c-0.5-0.1-1.5-0.6-2.5-0.6c-9.4-0.1-18.2,1.9-25.8,7.4
											c-1.8,1.3-2.9,4.2-3.2,6.5c-0.5,3.7,1.5,4.7,4.8,2.7c2.6-1.5,4.8-3.5,7.3-5.3c4.3-3,9.9-2.8,13.3,0.4
											c1.4,1.3,1.7,2.3,0.7,4.3c-0.8,1.8-0.8,4.5-0.2,6.4c1.2,3.5,1.1,4.6-2.5,5.4c-1.8,0.4-3.6,0.2-5.4,0.6
											c-2.5,0.5-5.2,0.7-7.5,1.8C-83.3,169.6-84.7,174.1-83.6,177.3 M209.9,340.3c1.7,6.7,1.9,13.3-1,20.8
											c-1.6,4.6-4.4,6.9-9.6,7c-5.9,0.1-11.4-3.7-13.4-9.3c-1.9-5.4-0.8-9.5,3.4-13.3c0.7-0.6,1.2-1.9,1.2-2.9
											c0.2-6,2.4-8.8,8-9.5C203.4,332.5,208.7,335.8,209.9,340.3z M198,346.5c-0.4,0.3-0.6,0.9-1,1.2c-3.5,3-3.6,5.4-0.6,9.6
											l0.1,0c7.3-1.6,7.4-1.6,7.4-8.6c0-1.9-0.9-3.8-1.5-5.6C200.9,344.2,199.4,345.3,198,346.5z M-72.4,242.4
											c0.7-0.6,1.3-1.8,1.3-2.8c0.1-6,2.2-8.8,7.8-9.6c5.2-0.8,10.3,2.4,11.7,7.3c1.8,6.5,1.7,13-1.2,20.9
											c-1.5,4.4-4.4,6.7-9.8,6.7c-5.5,0-11.3-4-13.1-9.2C-77.6,250.5-76.3,245.8-72.4,242.4z M-57.4,250.4
											c0.1-2.6,0.1-5.2-0.3-7.7c-0.1-1.1-1.1-2.8-1.8-2.8c-1-0.1-2.2,1-3,1.8c-0.7,0.7-1,1.9-1.7,2.5c-3.6,3.5-3.8,5-1,10.1
											c2.1-0.6,4.1-1.1,6-1.9C-58.5,252.1-57.5,251.1-57.4,250.4z M-77,190.8c-2.9,3-6.3,5.6-9.3,8.5c-1,0.9-2.2,2.1-2.4,3.3
											c-0.7,4.4,1.7,7.7,4.8,10.4c2.9,2.5,6.2,4.1,11.5,2.1c-3.3-2.6-5.7-4.5-8.1-6.5c-3.1-2.5-3.2-6.4,0.3-8.3
											c3.5-2,7.5-3.4,11.4-4.4c3.3-0.8,6.7-0.1,9.1,2.8c2.5,3.1,0.4,5.4-1.1,8c-0.5,0.9-0.7,2.2-0.7,3.3
											c0.2,2.5,1.8,3.6,4.2,3.4c4.7-0.5,8.7-8.6,6.5-12.8c-0.6-1.1-1.2-2.3-1.1-3.5c0.4-4.7-1-7.6-5-9.7
											C-64,183.6-71.4,185-77,190.8 M201,309.3c-0.7,1.3-1.2,3-1,4.4c0.3,2.7,2.5,4.4,4.6,2.9c2.8-1.8,6.7-4.8,6.7-7.3
											c0-5.5-2.2-10.9-3.6-16.3c-0.1-0.5-0.9-1-1.4-1.3c-5.3-3.9-15.2-5-21,1.4c-3.2,3.5-7.3,6.2-10.4,9.8
											c-1.4,1.6-2.7,4.7-2,6.4c1.2,3.1,3.4,6.2,5.9,8.4c2.3,2.1,5.6,3.3,9.7,0.8c-2.8-2.3-5.2-4.2-7.6-6.3
											c-3.1-2.6-3.2-6.2,0-8.6c4.3-3.1,9.2-4.9,14.5-4.6C201.8,299.3,204,303.7,201,309.3 M54.8,223.6
											c-4.5,3.6-5.7,9.4-2.9,15.8c2.2,5.1,6.5,8.1,11.9,11.1c1-0.1,3.3,0.3,3.9-0.5c0.9-1.1,1-3.3,0.7-4.9
											c-0.2-1.4-1.2-2.8-2.2-3.9c-1.9-2.1-3.2-4.6-1.7-6.9c0.8-1.2,3.6-1.1,5.5-1.6c2.2-0.6,4.4-1.3,6.6-1.9
											c-1.3-2.2-2.6-4.4-3.9-6.6c-0.1-0.2-0.4-0.3-0.6-0.5C66.6,219.8,59.5,219.8,54.8,223.6 M-209.5,136
											c2.6,5.3,6.9,8.7,12.3,10.8c3.3,1.3,5.4-0.1,4.6-3.6c-0.5-2.4-2.5-4.4-3.3-6.8c-0.7-1.8-1.2-4-0.8-5.8
											c0.2-0.8,2.7-1.3,4.2-1.6c1.8-0.3,3.7,0,5.4-0.4c2.4-0.5,3.6-2.2,2-4.2c-1.9-2.5-4.4-4.5-6.6-6.8
											c-6.4-1.7-12.5-0.8-16.1,3.3C-211.8,125.6-212,130.8-209.5,136 M-121.8,108.9c3.7,1.5,5.7-0.1,4.8-4
											c-0.4-1.9-2-3.5-2.7-5.4c-0.8-2.1-1.7-4.3-1.5-6.4c0.1-0.8,3.1-1.4,4.8-1.8c1.4-0.3,2.9,0,4.3-0.2
											c3.2-0.5,4.3-2.3,2.4-4.9c-1.8-2.4-4.4-4.2-6.6-6.3c-6-1.6-12.2-0.7-15.7,3.2c-3.9,4.3-4.5,9.2-2.1,14.5
											C-131.7,103.1-127.3,106.6-121.8,108.9 M130.3,190.3c-4.7-1.7-7.3-1.1-9,2.1c-1.7,3.2-0.5,6.5,3.9,8.9
											c3.9,2.1,7.9,3.8,12,5.4c3.8,1.5,5.4,0.5,6.5-3.4c0.5-1.6,0.6-3.4,1.4-4.8c3.2-6.3,1.9-12.8-4.1-16.5
											c-1.9-1.1-5.4-1-7.5-0.1c-1.4,0.7-1.8,3.7-2.5,5.8c-0.2,0.7,0.2,1.7,0.4,2.5C130.8,190.2,130.5,190.4,130.3,190.3
											 M-41.2,127.5c2.5,1.9,4,1.4,4.6-1.6c0.4-2,0.9-4,1-6.1c0.1-0.8-0.5-2.2-1.1-2.5c-5.3-2.2-10.5-4.6-16-6.1
											c-1.9-0.5-4.5,1.3-7.7,2.3c1.4,4.1,1.8,7.6,3.6,10c1.2,1.5,5.8,2.5,6.6,1.6c3.5-4,5.3-0.8,7.6,1
											C-42.1,126.6-41.7,127.2-41.2,127.5 M67.9,178.4c-1.5,3.1,0.2,8,3.9,9.3c3.1,1.1,6.4,1.8,9.7,1.9c3.6,0.2,6.4-2,7.7-5.3
											c1.1-2.8,1.2-6-1.4-8.2c-0.8-0.7-3.1-0.9-3.7-0.4c-2.4,2.4-4.6,2.3-7.1,0.7C73,174.5,69.4,175.3,67.9,178.4 M222.4,223.4
											c1.1-1.9,0.3-5.4-0.6-7.9c-0.6-1.7-2.6-3.2-4.6-0.9c-2.2,2.5-4.5,2.1-6.8,0.7c-4.4-2-8-1.2-9.5,2.1
											c-1.4,3.1,0.4,7.8,3.9,8.9c3.3,1.1,7,2.2,10.3,1.8C217.8,227.7,221.1,225.6,222.4,223.4 M-175.1,84.2
											c1.2-0.9,2.1-2.2,2.9-3.1c1-3.5,1.2-6.5-1.5-8.8c-0.7-0.6-2.8-1-3.1-0.5c-2.7,3.2-5.4,2.4-8.5,0.6c-2.6-1.5-5.3-1-7.3,1.3
											c-2.2,2.5-1.7,5.3-0.1,7.8C-190.2,85.6-179,87.2-175.1,84.2 M-117.8,145.5c-1.5,2.8-0.2,5,3,5c2.1,0,4.3-0.6,6.2-1.5
											c5.1-2.3,5.6-5.7,1.4-9.5c-4.5-4.2-10-5.8-16.1-4.9c-4.6,0.6-6,3-5.2,8.5c2.9-0.5,5.5-1.3,8.1-1.4
											C-118.1,141.6-116.1,142.2-117.8,145.5 M143.6,249c-1.7,3.3-0.1,5.9,3.5,5.1c3.4-0.8,6.9-2.6,9.5-4.9
											c1.6-1.4-1.8-6-5.7-8.2c-0.8-0.4-1.6-0.8-2.4-1.2c0-0.2,0-0.5,0-0.7c-3.8-0.2-7.7-0.6-11.5-0.4c-3.2,0.2-4.6,2.6-4.9,5.6
											c-0.2,2,0.5,2.9,2.7,2.3c2.2-0.5,4.6-1.1,6.8-1C143.6,245.7,144.9,246.6,143.6,249 M174.2,134.7c4,0.8,8.1,1.4,12.2,1.6
											c4.3,0.3,8.5-0.4,11.8-3.9c0.9-1.4,2.2-2.7,2.6-4.2c2.6-9.2,0.8-17.6-5.2-24.9c-1.2-1.5-3.3-2.6-5.2-3.2
											c-6.1-1.8-12.2-1.1-17.5,2.1c-1.8,1.1-3.5,4.2-3.3,6.2c0.2,1.7,3.1,4.2,4.9,4.3c4.1,0.3,8.4-0.2,12.5-1.1
											c3.2-0.7,5.4-0.2,6.7,2.7c1.3,3,1.6,6.1-0.8,8.7c-2.3,2.4-5.3,2.5-8.2,1.1c-3.2-1.5-6.2-3-9.9-1.6
											c-9.8,3.7-9.8,3.7-15.4-5.1c-2.4-3.8-5.1-4.1-8.1-0.5c-1.2,1.4-2.1,3.4-2.3,5.2c-0.6,7,1.7,13.1,6.4,18.3
											c2.1,2.3,3.9,2.4,5.8-0.4C164.6,135.7,168.7,133.7,174.2,134.7 M220.1,147.7c-5.2-1.9-8.2-1.3-10,2.3
											c-1.9,3.6-0.6,7.2,4.3,9.9c4.3,2.3,8.8,4.3,13.4,6c4.3,1.6,6,0.6,7.2-3.8c0.5-1.8,0.7-3.8,1.5-5.4
											c3.6-7,2.1-14.3-4.6-18.3c-2.1-1.3-6-1.1-8.3-0.1c-1.6,0.7-2.1,4.2-2.8,6.5c-0.3,0.8,0.2,1.8,0.4,2.8
											C220.7,147.7,220.4,147.8,220.1,147.7 M108.7,138.8c0.9,1.1,2.1,2,3.4,2.6c3.9,1.8,6.8-0.4,9.8-2.7
											c3.8-2.8,7.9-5.1,11.8-7.7c1.7-1.2,4-2.5,4.7-4.2c2.3-6.4,1.7-12.9-1.9-18.8c-2.2-3.6-5.4-4.5-9-3
											c-3.9,1.6-6.1,4.9-5.3,8.9c0.4,2,2,3.8,2.8,5.8c0.4,1.1,1,3,0.5,3.5c-2.6,2.7-5.5,5.1-8.3,7.6c-0.4-0.2-0.7-0.5-1.1-0.7
											c-0.2-1.2-0.3-2.5-0.6-3.7c-0.7-3.3-1.2-6.7-2.3-9.8c-1-3-3.4-4.8-6.6-4.5c-2.8,0.2-5.1,1.3-6.5,4.5
											c-2,4.5-0.5,8.5,1.3,12.2C103.2,132.4,106.1,135.5,108.7,138.8 M54.4,161.2c5.4,3.6,9.7,4.4,14.7,0.6
											c2.3-1.8,4.3-3,7.2-1.6c0.7,0.3,1.5,0.2,2,0.2c14,0,22.5-13.7,15.9-25.7c-3.7-6.8-8.7-12.9-13.3-19.1
											c-2.1-2.8-5.2-3.9-8.7-3.2c-4.9,1-9.1,3.3-11.5,7.8c-1.1,2.1-1.5,5-1.3,7.4c0.4,3.2,2.6,3.9,5.4,2.2
											c1.9-1.2,3.6-2.5,5.4-3.7c4.2-2.9,6.9-2.5,9.9,1.5c1.2,1.6,2.4,3.4,3.3,5.3c3.6,8.3,1.3,12.5-7.3,14.2
											c-1.6,0.3-3.3,0.8-4.4,1.9c-3,3-7.3,2.4-9.1-1.5c-1-2.1-1.7-4.4-3-6.3c-1.1-1.6-2.7-3.5-4.4-3.9
											c-7.3-1.7-12.7,4.4-10.9,11.6C45.9,154.6,49.7,158,54.4,161.2 M100.1-100.3c-0.3,2-0.9,4.3-0.2,6c1,2.2,1.8,3.5-0.1,5.8
											c-1.6,1.9-3.1,2.9-5.5,2.7c-1.9-0.1-3.9,0-5.8,0.3c-5,0.7-6.7,2.6-7,7.7c-0.3,5.1,2.9,8.8,8.3,9.5
											c5.6,0.8,10.2-1.2,14.8-4.5c6.4-4.7,8.1-8.2,6.2-15.6c-0.3-1.2,0-3,0.7-4.1c6.3-9.2,2.6-22.5-7.5-26.9
											c-2.2-0.3-4.5-1.2-6.5-0.8c-8.7,1.8-17.5,3.6-26,6.1c-4.7,1.4-6.2,6.1-5.4,12.5c0.7,5.5,4.6,10.6,8.7,11.4
											c0.4,0.1,0.8,0.1,1.2,0.1c2.9,0.1,4.5-1,3.8-4.2c-0.6-2.5-1.2-5.1-1.7-7.6c-0.6-3.2,0.2-6,3.4-7c3.5-1,7.4-1.9,11-1.6
											C99-110.1,101.1-106.8,100.1-100.3 M366.2,30.3c6.2-4.3,7.9-7.9,6-15.2c-0.3-1.3,0-3.2,0.7-4.3c6.1-9,2.4-22.2-7.5-26.8
											c-3.5-0.1-7-0.8-10.3-0.3c-6.9,1.2-13.7,3-20.5,4.9c-5.4,1.5-7.5,5-7.4,11.2c0.1,6.3,3.6,12,8.3,13.3
											c0.6,0.2,1.3,0.2,1.9,0.3c2.8,0.2,4.2-1,3.7-3.9c-0.5-2.7-1.2-5.3-1.7-7.9c-0.7-3.4,0.4-6.1,3.9-6.9
											c3.7-0.9,7.7-1.6,11.5-1.3c5.8,0.4,7.8,3.7,7,9.3c-0.3,2.3-0.8,5-0.1,7.1c1.4,4-0.5,7.6-4.8,7.9c-2.2,0.1-4.4,0.1-6.6,0.3
											c-4.8,0.6-6.8,2.7-7.2,7.5c-0.4,5.1,3.3,9.1,8.9,9.7C357.4,35.5,361.8,33.4,366.2,30.3 M481,67.7
											c-5.9,2.8-5.2,10.8-11,13.6c-3.4,1.7-6.7,1.8-10.5,0.6c-2.2-0.7-4.7-0.8-6.6-0.9c-0.7,0-1.3,0-1.8-0.1
											c-10.9-4.6-18.5-17.3-17.6-27.6c0.1-1.1-0.2-2.3-0.6-3.3c-2.5-6.8,1.8-12.8,8.9-12.9c1.8,0,4-0.9,5.4-2
											c2.8-2.3,5.3-2.6,8.4-0.5c5.2,3.5,10.7,6.4,15.7,10.1c3.4,2.5,6.7,5.6,8.8,9.1c1.7,2.9,1.8,6.9,2.3,10.4
											C482.6,65.4,481.9,67.3,481,67.7z M446,61.4c-0.1,0.4-0.3,0.7-0.4,1.1c-1.8,5.1,1.3,9.9,6.6,10.3
											c6.6,0.5,15-4.6,17.1-10.7c0.3-1-0.4-3.1-1.2-3.5c-2.5-1.3-2.4-2.7-1.2-4.7c1.7-2.7,0.5-4.3-2.2-4.7
											c-4.3-0.7-8.7-1.5-13.1-1.6c-1.5,0-3,0.5-4.7,1.2c-0.9,0.3-1.8,0.7-2.9,1C448.9,53.8,447.5,57.6,446,61.4z M200.9-20.6
											c-4.2-0.7-8.5-1.4-11.8-1.9c-10.3-4.2-17.9-17-17-27.1c0.1-1.2-0.3-2.5-0.7-3.7c-2.2-6.2,2-12.2,8.6-12.5
											C182-66,184-67.4,186-68c0.5-0.1,1-0.3,1.6-0.5c1.7-0.6,3.6-1.3,4.6-0.7c7.9,4.9,15.7,9.9,22.9,15.7
											c2.7,2.1,4.2,6.1,5.3,9.5c1.5,4.7-0.3,8.8-4.4,11.8c-1,0.7-2.1,1.9-2.5,3.1C211.8-23,207-19.7,200.9-20.6z M185.8-46.2
											c-0.4,1.9-1.2,3.7-1.8,5.5c-1.6,4.8,1.4,9.6,6.4,10.1c6.5,0.7,15.2-4.5,17.3-10.7c0.3-0.9-0.4-2.9-1.2-3.4
											c-1.9-1.2-2.6-2.3-1.3-4.3c1.7-2.7,0.8-4.6-2.2-5c-0.5-0.1-1-0.1-1.4-0.2c-4.5-0.6-9-1.2-13.4-1c-4.4,0.2-4.5,1.3-2.6,5.3
											C186-48.8,186-47.3,185.8-46.2z M294.1,8.8c1.9-3.2,0.4-6.4-3.3-6.2c-2.6,0.1-5.2,1.1-7.8,1.6c-4.3-8.5-3.1-11.3,6.3-12.6
											c6.4-0.9,12.8-1.5,19.3-2.2c2.1-0.2,4.3-0.4,6.4-0.6c0.2,0.5,0.4,1,0.6,1.4c-2.2,1.4-4.3,2.9-6.6,4.2
											c-3.6,2.1-7.4,3.8-10.7,6.1c-1.1,0.8-1.2,3.1-1.8,4.7c1.4,0.4,2.8,1.1,4.2,1.1c7.1-0.2,12-5.1,16.7-9.3
											c3.9-3.4,6.3-8.5,9.2-12.9c1.7-2.6,1-4.6-2.2-5c-2.8-0.4-5.7-0.8-8.5-0.4c-7.9,1.1-15.9,2.5-23.7,4.1
											c-8.2,1.7-15.5,5-19.9,12.9c-3.3,5.8-1.5,14.1,3.8,17.4C281.9,16.6,290.6,14.5,294.1,8.8 M32.6-93.8
											c0.9-1.1,1.7-3.4,1.1-4.4c-0.7-1.2-2.8-2.3-4.3-2.4c-2.4,0-4.8,0.9-7.4,1.4c-4.2-8.7-3-11.2,6.3-12.5
											c6.7-0.9,13.4-1.6,20.2-2.3c1.9-0.2,3.9-0.3,5.9-0.4c0.2,0.5,0.3,0.9,0.5,1.4c-2.2,1.4-4.4,2.8-6.7,4.1
											c-3.4,1.9-7,3.4-10.2,5.6c-1.3,0.9-1.7,3.2-2.4,4.9c1.6,0.5,3.3,1.3,4.9,1.3c1.7,0,3.7-0.3,5.2-1.2
											c7.2-4.4,14.2-9.1,18.1-17c1.2-2.4,2-4.9,3-7.3c-3.1-0.7-6.3-2.5-9.2-2c-10.8,1.6-21.5,3.6-32.2,6
											c-5.4,1.2-9.8,4.6-12.9,9.5c-4.1,6.4-3.4,13.9,2,18.2C19.7-86.7,27.9-88,32.6-93.8 M524.7,82.8c0.5-0.1,0.8-1,1.2-1.4
											c3-3.6,2.3-7.2,0.9-11.3c-1.4-4.2-1.9-8.7-3.1-13c-0.6-2.3-1.3-5.1-2.9-6.4c-4.7-3.8-10.4-5.2-16.5-4.3
											c-5.6,0.8-8.2,4.6-7,9.5c1.3,5.2,6.3,8.4,11,6c4.5-2.3,5.8,0,7,3.2c0.9,2.4,1.4,4.9,2.4,8.1c-5.2-0.7-9.4-1.5-13.6-1.7
											c-4.4-0.2-7.4,2.5-7.7,6.1c-0.3,3.8,2.9,7.8,6.5,8.9C510.9,88.7,517.5,84.3,524.7,82.8 M1.8-123.9c0.6-0.2,1.1-1,1.6-1.5
											c3.1-3.5,2.4-7.2,1.1-11.3c-1.4-4.4-2-9-3.2-13.5c-0.5-2.1-1-4.7-2.4-5.9c-5.4-4.2-11.7-6-18.5-4.3
											c-3.7,0.9-5.6,3.7-5.5,7.4c0.1,6.5,6.2,10,12.6,7.5c1.1-0.4,3.1-0.5,3.5,0.1c2.5,3.2,3.9,6.9,3.7,11.6
											c-1.6-0.3-2.9-0.5-4.3-0.7c-3.3-0.4-6.8-1.4-9.9-0.8c-2.2,0.4-4.9,2.6-5.8,4.7c-1,2.3-0.8,5.3,2,7.5
											c4.8,3.7,9.9,3.6,15.2,2.3C-4.8-121.6-1.5-122.8,1.8-123.9 M254.8-37.8c0.7,2,1.1,4.2,1.9,7.3c-2.3-0.4-3.6-0.7-5-0.8
											c-3.8-0.3-7.8-1-11.5-0.4c-1.8,0.3-4.1,3-4.5,5c-0.4,1.9,0.6,4.8,2,6.4c4.2,4.5,9.7,4,15.1,2.7c3-0.7,5.9-1.9,8.8-3.1
											c1.3-0.5,2.8-1.2,3.7-2.3c2.8-3.3,1.8-6.9,0.6-10.6c-1.4-4.2-1.9-8.7-3.2-13c-0.7-2.4-1.4-5.3-3.1-6.7
											c-4.5-3.5-9.9-5-15.8-4.3c-6,0.8-8.7,4.2-7.6,9.4c1,5.2,5.6,7.8,11,6.4C252.3-43.1,253-42.8,254.8-37.8 M165.9-20.9
											c-2,5.5-5.1,7.9-10.2,7.9c-5.7,0-11.4-4.1-13.2-9.6c-1.8-5.3-0.6-9.6,3.4-13c0.7-0.6,1.3-1.8,1.3-2.8
											c0.2-6.2,2.3-8.8,7.8-9.6c5.3-0.7,10.3,2.4,11.7,7.3C168.6-34,168.2-27.4,165.9-20.9z M155.7-36.5
											c-1.5,1.4-2.8,3.1-4.8,5.5c0.3,1.7,0.8,4.4,1.4,7.6c2.9-0.9,4.9-1.4,6.8-2.2c0.8-0.3,1.8-1.3,1.8-2.1
											c0.1-2.6-0.1-5.2-0.4-7.7c-0.1-1-1-2.6-1.6-2.7C157.8-38,156.6-37.3,155.7-36.5z M428,62.8c2,6.6,1.9,13.2-0.8,21
											c-0.9,3.3-3.5,6.3-8.3,7c-5.9,0.8-10.3-1.7-13.4-6.5c-2.7-4.1-3.1-8.5-0.8-12.9c0.4-0.8,1-1.7,1.7-2.1
											c2.2-1.1,2.4-2.7,2.4-5.1c-0.1-4.7,2.9-7.5,8-8.2C421.6,55.2,426.6,58.3,428,62.8z M413.6,71.3c-0.7,1.5-0.9,3.3-0.8,5
											c0.1,1.3,0.9,2.5,1.7,4.6c3-1.7,6.3-2.6,7.7-4.7c0.9-1.3,0.5-3.7,0.1-5.9c-0.1-0.6-0.2-1.1-0.3-1.6
											c-0.2-1.1-1.1-2.7-1.8-2.8c-1-0.1-2.2,0.9-3.1,1.7C415.8,68.6,414.3,69.8,413.6,71.3z M419,31.8c-0.5,0.8-0.8,1.9-0.9,2.9
											c-0.1,2.6,1.9,4.5,4.4,4.2c4.4-0.6,8.5-8.6,6.6-12.6c-0.6-1.3-1.3-2.9-1.1-4.3c0.6-3.6-0.8-6.1-3.4-8.1
											c-6.2-4.8-15.2-4.2-20.9,1.2c-3.5,3.4-7.3,6.5-10.7,10c-1.2,1.2-2.2,3.4-2.1,5c0.4,6.9,8.1,12.4,15.6,10
											c-2.3-1.9-4.5-3.8-6.8-5.7c-3.9-3.2-3.9-6.9,0.5-9.3c3.5-1.9,7.6-3.1,11.6-4c3.2-0.7,6.4,0.2,8.5,3.3
											C422.2,27.3,420.5,29.5,419,31.8 M142.3-88.2c-3.5,3.4-7.3,6.5-10.8,9.9c-1.1,1.2-2.2,3.1-2.1,4.6
											c0.4,7.1,9,14.2,16.1,10.8c-3-2.4-5.4-4.5-7.9-6.5c-2.7-2.1-2.7-4.7-1-7.2c3.1-4.4,14.3-7.1,19.3-4.8
											c3.7,1.7,4.6,4.7,2.6,8.3c-0.8,1.5-1.7,3.3-1.8,4.9c-0.1,2.7,1.7,4,4.3,3.7c4.5-0.5,8.5-8.5,6.5-12.5
											c-0.6-1.2-1.4-2.7-1.1-3.8c1.1-4.3-0.9-7-4.1-9.2C156-94.2,147.7-93.3,142.3-88.2 M332.8,42.3c-2.7,1.8-3.5,4.4-2.3,7.5
											c1.6,4.1,4.4,7,8.5,9c2.3,0.2,4.6,0.7,6.8,0.4c6.9-0.8,11.8-5.5,16.9-9.6c0.6-0.4,0.5-2.2,0.2-3.2c-1.4-3.7-4.5-4-9.4-1.1
											c-7.5,4.5-7.5,4.6-13.5-1.8C337.9,41.3,335.5,40.5,332.8,42.3 M71.6-61.7c-2.6,1.6-3.7,4-2.7,7c1.5,4.5,4.5,7.6,8.8,9.8
											c2.5,0.1,5.1,0.5,7.6,0.1c6.5-1,11.2-5.7,16.1-9.6c0.5-0.4,0.5-1.7,0.3-2.5c-1.1-4.1-4.1-4.7-9.1-2c-8,4.5-8,4.5-14.4-1.8
											C76.2-62.6,74-63.2,71.6-61.7 M152.8,3c-0.3,3.9,2.5,4.7,5.2,6.1c2.9,1.5,5.6,3.6,8.1,5.8c2.1,1.9,2.1,3.7-0.7,5.6
											c-3.9,2.7-8.3,2.7-12.3,1.4c-3-1-7.3-3.6-7.8-6c-0.9-5.2-2.8-8.9-8.4-11.9c3.1-0.6,4.9-1,6.7-1.3c2.6-0.5,4.1-2.1,4.5-4.6
											c0.5-3.2-2.3-9.8-4.9-10.9c-4-1.6-7.1,0.7-9.6,3.4c-3.1,3.4-6,7.1-8.5,10.9c-1.1,1.7-1.5,4.1-1.5,6.3
											c0,4.9,1.7,9.3,4.8,13.2c4.3,5.4,8,11.5,15.8,12.6c0.5,0.1,0.9,0.5,1.3,0.8c6.8,5.3,14.1,5.2,21.5,1.8
											c5.5-2.5,8-8.1,6.5-13.8c-0.5-1.9,0.1-2.8,1.3-4.2c1.3-1.6,2.5-4.2,2.2-6.1c-0.7-5.3-3.8-9.2-8.8-11.5
											c-1.2-0.6-2.5-1-3.8-1.5c0.3-0.2,0.7-0.4,1-0.5c-0.3-2,0-5.4-0.9-5.7c-2.2-0.7-5.1-0.7-7.2,0.2
											C153.5-5.1,153.1-0.9,152.8,3 M434.8,124.6c-0.1-0.7,0.4-1.7,0.9-2.3c3.5-3.8,3.9-6.9,1.3-11.5c-2.5-4.4-6.3-7.1-10.1-8
											c-0.5-2.9-0.5-6.7-1.3-6.8c-2.4-0.5-5.1,0.3-7.6,0.7c-0.7,0.1-1.2,0.9-1.7,1.5c-4.2,5.1-2.7,11,3,14.1
											c3.1,1.7,6,4.1,8.6,6.5c1.7,1.5,1.3,3.2-0.8,4.8c-4.1,2.9-8.8,2.9-13,1.5c-3-1-7.3-3.5-7.5-5.8c-0.6-5.3-2.7-8.9-8.3-11.9
											c2.9-0.6,4.6-0.9,6.3-1.3c3.8-0.9,5.6-3.1,4.9-6.6c-0.4-2.3-1.3-4.5-2.4-6.5c-1.7-3.1-4.6-3.9-7.7-2.2
											c-2,1.1-3.9,2.6-5.4,4.3c-1.7,1.9-2.7,4.4-4.4,6.3c-5.4,6.1-6.3,11.4-2.5,18.6c1.4,2.7,4.1,4.7,5.5,7.5
											c2.5,4.8,6.2,7.5,11.2,8.8c1.1,0.3,2.3,0.8,3.1,1.5c3.5,3.2,7.8,4,12.3,4C430.2,142.1,435.7,135.9,434.8,124.6 M187,15.3
											c0.9-1.8,0.9-4,1-6c0.1-0.9,0.1-1.8,0-2.8c0-1.4-0.1-2.8,0.2-4.1c1.6-7,9-10.4,14.8-6.2c6.6,4.8,13.6,8,21.6,9.3
											c3.5,0.6,6.1,3,6.5,6.4c0.6,4.6,0.5,9.4,0.7,14.1c0,0.3,0,0.6,0,0.9c0,0.7-0.1,1.5,0.3,2.1c2.3,4,1,7.5-1.7,10.3
											c-6.4,6.5-11.2,9.4-20.4,5.4c-1-0.4-1.9-0.8-2.9-1.1c-0.1,0.1-0.2,0.3-0.3,0.4c-5.2-3.1-10.6-6-15.7-9.4
											C185.4,30.4,183.8,21.6,187,15.3z M218.2,18.1c-0.7-5.4-3.8-9.1-7.9-11.7c-4.7-1.8-6.9-0.3-7.6,3.8
											c-0.4,2.2-2.1,4.2-3.3,6.3c-0.2,0.4-0.6,0.8-0.9,1.2c-0.6,0.7-1.1,1.3-1,1.8c1,6.1,2.2,12.2,7.3,16.6
											c2.7,2.3,6.2,2.5,8.3,0.6c2.8-2.5,5-6.1,6.1-9.6c0.6-1.9,0.1-4-0.4-6.2C218.5,20,218.3,19.1,218.2,18.1z M449.1,112.7
											c-1.4-7,1.4-12.8,7.3-13.8c2.8-0.5,6.6,0,8.7,1.7c5.9,4.4,12.2,7.3,19.5,8.3c4.7,0.6,7.6,3.7,8.2,8.2
											c0.3,2.8,0.2,5.7,0.1,8.6c0,1.5-0.1,2.9-0.1,4.4c0,1,0,2.1,0.5,2.9c1.9,3.7,1,6.9-1.6,9.7c-6.4,6.9-11.5,9.8-21,5.6
											c-0.8-0.4-1.7-0.7-2.5-1c-0.1,0.2-0.2,0.3-0.3,0.5c-5.3-3.2-10.8-6.2-16-9.6c-5.5-3.7-7.4-13.2-3.8-18.8
											C449.6,116.9,449.6,115.1,449.1,112.7z M480.5,131.5c-0.5-3.2-1-6.3-1.3-9.5c-0.7-6.8-6.6-12.9-12.2-12.2
											c-1.2,0.1-3,1.9-3,2.8c0.1,3.7-1.5,6.1-4.1,8.3c-0.7,0.6-1.6,2-1.3,2.8c1.4,4.5,2.9,9.1,4.8,13.4c0.8,1.7,2.7,3,3.6,3.9
											C472.5,143,481.2,136.3,480.5,131.5z M55.8,13.8c-0.3,1.7-0.8,3.8-0.1,5.2c0.9,2.1,2,3.4,0,5.7c-1.8,2-3.4,2.7-5.9,2.8
											c-2.8,0-5.7,0.6-8.5,1.1c-1,0.2-2.1,1.1-2.7,2C34.7,36.7,38.3,44,45.4,45c5.8,0.8,10.4-1.3,15.1-4.7
											c5.9-4.1,7.8-8,6.1-15.1c-0.4-1.5-0.1-3.5,0.7-4.8c6-9.1,2.2-22.3-7.7-26.9c-2.9-0.2-6-1-8.8-0.5C44-5.7,37.2-4,30.4-2.2
											c-5.7,1.4-8.2,4.3-8.7,9.2c-0.7,6.8,2.1,13.4,6.9,15.4c1.7,0.7,4.2,0.8,5.9,0.1c0.8-0.3,0.6-3.2,0.7-4.9
											c0-1-0.4-2-0.6-3.1c-1.9-7.6-0.6-9.8,7-11.5c1.8-0.4,3.6-0.5,5.4-0.4C54.6,3,57.1,6.3,55.8,13.8 M158.9,92.3
											c-5.1-0.1-10.1-1.2-14.3-1.8c-10.3-4-18.3-17.1-17.5-27.3c0.1-1.2-0.1-2.6-0.5-3.7c-2.3-6.6,1.7-12.5,8.6-12.9
											c2-0.1,4.2-1,5.8-2.2c2.9-2.2,5.3-2.4,8.4-0.2c5.2,3.7,10.8,6.7,16,10.3c5.1,3.5,9.3,7.9,10.5,14.4
											c0.8,4.7-0.5,8.4-4.3,11.3c-1.3,1.1-2.5,2.8-3,4.4C167.3,89.1,163.8,92.4,158.9,92.3z M137.8,59.4c4.9,4,3.5,7.8,1.8,11.4
											c-3.2,7,2.5,12.5,9.4,11.6c6.7-0.9,10.5-5.6,13.9-10.8c0.4-0.7-0.3-3-1-3.5c-2.6-1.4-2.4-3-1.2-5.1
											c1.3-2.3,0.5-3.9-1.9-4.3c-4.9-0.7-9.9-1.3-14.9-1.6c-1.1,0-2.3,0.5-3.7,1.2C139.5,58.7,138.7,59.1,137.8,59.4z
											 M321.7,143.5c5.3-3.7,7.7-7.4,6-13.4c-0.8-2.8-1.2-5.1,1.1-7.3c0.5-0.5,0.7-1.3,1-1.7c5.2-13-4.5-25.9-18.1-24.1
											c-7.7,1-15.2,3.4-22.7,5.4c-3.3,0.9-5.5,3.4-6.1,6.9c-0.9,4.9-0.2,9.7,3.1,13.5c1.6,1.8,4.1,3.2,6.4,3.9
											c3.1,0.8,4.6-1,4.1-4.2c-0.4-2.2-1-4.3-1.5-6.4c-1.1-5,0.2-7.3,5.1-8.7c2-0.6,4.1-1,6.1-1.1c9-0.4,12.1,3.3,10.5,12
											c-0.3,1.5-0.4,3.4,0.2,4.8c1.7,3.9-0.4,7.6-4.7,7.9c-2.3,0.1-4.7-0.1-7,0.4c-1.9,0.4-4.3,1.2-5.3,2.7
											c-4.3,6.1-0.6,13.4,6.8,14.3C312.5,149,317,146.7,321.7,143.5 M436,180.5c-6,3-5.1,11.6-11.6,14c-0.2,0.1-0.5,0.2-0.7,0.3
											c-1.1,0.4-2.3,0.9-3.4,0.8c-5.1-0.5-10.1-1.3-14.2-1.9c-10.3-4.1-18.4-17.3-17.4-27.1c0.1-1.4-0.3-2.9-0.7-4.3
											c0-0.1,0-0.1-0.1-0.2c-1.9-6.2,2.4-12,8.8-12.2c2-0.1,4.2-0.8,5.7-2c2.9-2.2,5.3-2.5,8.4-0.3c6.8,4.9,14,9.3,20.7,14.3
											c3.9,2.9,5.7,7.3,6.1,12.2c0,0.1,0,0.3,0,0.4c0.1,0.6,0.1,1.3,0,1.9C437.2,177.7,437,180,436,180.5z M399.1,162.4
											c4.9,4,4.1,8,2.1,11.6c-3,5.5,1.1,12.4,8.9,11.6c6.9-0.7,10.8-5.6,14.3-10.8c0.4-0.7-0.1-3-0.8-3.3
											c-2.8-1.3-2.8-2.9-1.4-5.2c1.4-2.3,0.5-3.8-1.9-4.3c-4.2-0.8-8.4-1.7-12.6-1.9c-1.7-0.1-3.3,0.5-5.3,1.2
											C401.4,161.7,400.3,162,399.1,162.4z M14.5-22.7c8.3,3.3,22.5-4.2,26.3-13.8c2.6-6.7-2.9-19.9-9.6-22.3
											c-1.8-0.6-4.6-0.3-6.1,0.8c-1.3,1-2.2,3.9-1.6,5.4c1.5,4.1,3.4,8.1,5.9,11.6c2.1,2.9,2.4,5.6-0.1,7.5
											c-2.1,1.6-5.4,2.7-8,2.4c-3.1-0.5-4.5-3.6-4.3-7c0.2-4,0.1-7.6-3.1-10.8c-7.1-6.8-7-6.9-1-14.8c0.1-0.1,0.1-0.2,0.2-0.3
											c3.1-4.2,2.1-7.2-3-8.3c-1.7-0.4-3.7-0.4-5.3,0.2c-6.4,2.2-11.1,6.5-14,12.7c-1.5,3.1-1,5,2.8,5.8
											c5.2,1.1,8.4,4.4,9.5,9.6c0.6,2.7,1,5.4,1.8,8C6.6-30.6,8.5-25.1,14.5-22.7 M264.1,59c0.9,4,1.9,8.1,3.2,12
											c1.4,4.1,3.7,7.8,8.2,9.5c1.6,0.3,3.3,1,4.9,0.8c9.5-1.1,16.6-6.1,21.1-14.5c0.9-1.7,1.2-4.1,0.9-6
											c-0.7-6.3-3.7-11.7-8.7-15.4c-1.7-1.2-5.2-1.6-7-0.6c-1.5,0.8-2.7,4.4-2.1,6.2c1.3,4,3.5,7.7,5.8,11.2
											c1.8,2.7,2.3,5,0.1,7.3c-2.2,2.4-5,3.9-8.3,2.6c-3.1-1.2-4.3-4-4.2-7.2c0.1-3.5,0.4-6.9-2.4-9.8
											c-7.2-7.6-7.2-7.6-1.2-16.2c2.6-3.8,1.9-6.4-2.6-7.7c-1.8-0.5-3.9-0.6-5.7-0.1c-6.7,2.1-11.5,6.6-14.5,13.1
											c-1.3,2.9-0.8,4.5,2.6,5.3C259.5,50.4,262.9,53.5,264.1,59 M318,185c2.1-2.1,4-4.4,6-6.6c2.8-3.1,6.3-4.8,10.4-4.9
											c1.2,3.5,1.7,6.5,3.2,9c0.8,1.4,3.4,3.1,4.5,2.7c1.5-0.5,3.3-2.8,3.4-4.5c0.9-10.5-6-20.5-17.6-21.9
											c-3-0.3-5.6,1.2-6.1,4.3c-0.6,3.3-2.8,4.6-5.3,6.2c-6.4,4.1-13,8.1-18.9,13c-4.8,3.9-5.5,8.6-3.5,12.9
											c2.6,5.6,8.2,9.2,13.7,8.9c3.1-0.2,5.9-0.5,8.7,2c2.4,2.1,5.8,1.6,8.3-0.4c1.1-0.9,2-2.9,1.8-4.3c-0.4-3-2.8-4.6-5.7-5.1
											c-2-0.4-4.1-0.7-6.1-1c-3-0.4-4.1-2.3-4.3-5.1c-0.2-3.1,1.6-3.2,4-3.3C315.6,186.8,317,185.9,318,185 M45.2,100.5
											c3.8-0.1,7.4-0.7,11,2c1.6,1.2,5.4,0,7.9-0.8c0.9-0.3,1.7-2.9,1.5-4.2c-0.5-3-3-4.4-5.8-4.9c-1.1-0.2-2.3-0.4-3.4-0.6
											c-1.3-0.2-3,0-3.7-0.7c-1.3-1.3-2.3-3.2-2.9-5c-0.2-0.7,0.9-2.7,1.3-2.7c6.3,0.4,8.2-5,11.8-8.3c2.3-2.1,5.3-3.6,8.1-5
											c1.9-0.9,3.1-0.2,3.7,2.3c0.6,2.8,1.8,5.7,3.5,8c1.8,2.4,4.6,1.7,5.8-1.1c0.6-1.4,0.9-3,0.8-4.5
											c-0.3-9-5.9-16.1-14.6-18.6c-6.1-1.7-7.7-0.8-9.8,5.1c-0.4,1.2-1.5,2.3-2.6,3c-6,3.9-12.1,7.4-17.9,11.5
											c-2.7,1.9-4.7,4.7-6.1,6.1C30.2,90.4,37.6,100.8,45.2,100.5 M-12.2,18.9c0.9-1.1,1.6-3.4,1-4.4c-0.7-1.2-2.8-2.3-4.4-2.3
											c-2.4,0-4.7,0.9-7.1,1.5c-4.6-8-3.2-11.2,5.6-12.4c6.7-1,13.4-1.6,20.2-2.3c2.1-0.2,4.2-0.3,6.3-0.5
											c0.1,0.4,0.3,0.9,0.4,1.3C8.8,0.6,7.8,1.6,6.6,2.2C3.3,4-0.2,5.5-3.5,7.4c-1.9,1.1-3.9,2.7-5.2,4.4
											c-1.7,2.2-0.8,4.2,2.1,4.1c2.5-0.1,5.4-0.3,7.5-1.5c7.4-4.2,14.2-9.2,18.1-17c1.2-2.3,1.9-4.9,2.9-7.3
											c-3-0.7-6.1-2.3-8.9-1.9c-10.9,1.6-21.8,3.6-32.6,6c-5.4,1.2-9.7,4.7-12.8,9.6c-4,6.3-3.3,14,2.1,18.2
											C-25,26-16.7,24.7-12.2,18.9 M265.1,107c-3.6,2.1-7.4,3.7-10.8,6.1c-1.2,0.8-1.5,3-2.3,4.6c1.6,0.5,3.2,1.4,4.9,1.4
											c4.6,0.1,7.5-3.4,11.2-5.4c7.2-3.9,10.7-10.7,14.7-17.1c1.4-2.3,0.7-4.1-2-4.5c-2.4-0.4-4.9-0.9-7.3-0.6
											c-7.8,1-15.7,2.2-23.4,3.8c-8.4,1.7-16.3,4.3-21.1,12.3c-3.7,6.1-2.8,14,2.5,17.9c5.3,3.9,13.9,2.4,18-3.3
											c0.8-1.2,1.4-3.4,0.8-4.5c-0.5-1.1-2.7-2.1-4-2.1c-2.5,0.1-5,0.9-7.4,1.5c-4.2-8.6-2.8-11.3,6.6-12.6
											c5.8-0.8,11.6-1.5,17.4-2.2c2.7-0.3,5.3-0.4,8-0.6c0.2,0.5,0.5,0.9,0.7,1.4C269.2,104.4,267.2,105.8,265.1,107 M12.7,45.4
											c-1.6,3.2-1.4,6.4-0.8,9.8c0.2,1.2-0.6,3-1.5,4.1c-1.5,1.9-3.8,3.1-5.1,5.1c-0.8,1.2-0.9,3.7-0.1,4.8
											c0.8,1,3.4,1.8,4.5,1.3c3-1.5,6.1-3.5,8.3-6c1.3-1.4,1-4.2,1.5-6.3c0.2-0.9,0.4-1.7,0.7-2.6c1.6-6.7,4.3-13.3,2.9-20.4
											c-0.9-4.6-3.1-6.9-7.2-7.2C7,27.5-11.7,40.2-14.4,48.5c-1,3,0,5.1,2.6,6.4c4.6,2.2,9.6,1.3,13.1-2.5c1.8-2,3.2-4.3,5-6.4
											c1.7-2,3.5-3.8,5.2-5.7c0.4,0.2,0.8,0.4,1.2,0.6C12.8,42.4,13.3,44.2,12.7,45.4 M277.6,131.2c-9-0.4-27.9,12.4-30.6,20.8
											c-1,3,0.2,5.1,2.9,6.4c5,2.3,9.7,1.2,13.3-3c1.7-2,3.1-4.2,4.7-6.2c1.6-1.9,3.4-3.7,5.1-5.6c0.5,0.2,1,0.4,1.5,0.7
											c-0.1,1.6-0.1,3.1-0.2,4.7c-0.2,3.1-0.9,6.3-0.6,9.4c0.2,2.1,0.1,3.2-1.7,4.5c-2.1,1.5-4,3.3-5.5,5.4
											c-1.7,2.4-0.3,5.6,2.4,6.1c4,0.8,12.2-5.8,12.7-9.9c0.4-3.8,1.3-7.5,1.7-11.3c0.6-5.2,1.3-10.5,1.1-15.7
											C284.2,133.9,281.8,131.4,277.6,131.2 M191.6,65.3c1.1,5,6,7.8,11.1,6.3c5-1.5,5.2-1.5,7.2,3.4c0.9,2.2,1.4,4.6,2.3,7.9
											c-2.5-0.5-3.9-0.8-5.2-1c-3.2-0.4-6.4-1-9.6-1c-3.2,0-5.5,1.9-6.2,5c-0.6,2.6-0.7,5.2,2,7.3c5.2,4.3,10.8,3.8,16.7,2.1
											c2.8-0.8,5.7-1.7,8.4-2.7c0.8-0.3,1.5-1,2-1.7c2.8-3.2,2.4-6.7,1.2-10.6c-1.5-4.7-2.1-9.8-3.5-14.5
											c-0.6-2.2-1.7-4.8-3.4-6.1c-4.5-3.4-9.8-4.6-15.4-3.9C193.2,56.5,190.5,60,191.6,65.3 M477.8,196c1.3-0.5,2.6-1.4,3.6-2.4
											c2.9-3.1,1.9-6.6,0.8-10.2c-1.4-4.5-2.1-9.2-3.3-13.8c-0.5-2.1-1-4.7-2.4-5.8c-5.3-4.3-11.5-5.9-18.2-4.4
											c-4.1,0.9-6,3.6-5.8,7.6c0.2,4.2,2.6,7.5,6.6,7.9c2,0.3,4.2-0.6,6.3-0.8c1.2-0.1,3.1,0,3.4,0.7c1.7,3.4,3,6.9,4.4,10.4
											c-0.3,0.3-0.7,0.5-1,0.8c-1.2-0.2-2.4-0.5-3.6-0.6c-3.3-0.4-6.7-1-10-1c-3.1,0-5.6,1.7-6.4,4.8c-0.7,2.8-0.5,5.3,2.1,7.7
											c3.6,3.4,7.8,3.3,11.9,2.8C470,199.1,473.9,197.4,477.8,196 M-43-11.1c0.7-0.2,1.2-1,1.7-1.5c3.1-3.5,2.4-7.2,1.1-11.3
											c-1.4-4.4-2-9-3.2-13.4c-0.6-2.3-1.4-5-3-6.3C-51.2-47.6-57-48.8-63-48c-5.2,0.7-7.9,4.6-6.9,9.4c1,4.9,5.6,7.8,10.6,6.5
											c5.6-1.4,6.2-1.2,8.1,4.3c0.7,1.9,1,4,1.6,6.9c-2.1-0.4-3.3-0.6-4.6-0.8c-3.2-0.4-6.4-1-9.6-1.1c-3.1-0.1-5.7,1.6-6.5,4.6
											c-0.8,2.8-0.8,5.6,2,8c3.6,3.2,7.8,3.3,11.8,2.8C-51.8-8-47.5-9.8-43-11.1 M373.4,76.4c-9.9-0.2-19.3,1.8-27.1,8.3
											c-1.5,1.2-2,4.1-2.2,6.3c-0.3,2.9,1.6,3.8,4,2.4c2.5-1.5,4.9-3.4,7.2-5.2c4.3-3.3,10-3.4,13.6-0.3
											c1.5,1.3,2.1,2.5,0.9,4.7c-0.8,1.6-1.1,4.1-0.4,5.8c1.6,4.5,1.2,5.7-3.6,6.4c-2.3,0.3-4.7,0-6.9,0.6
											c-2.2,0.6-5.1,1.6-6.1,3.3c-1.3,2.2-1.5,5.4-1,8c0.6,2.9,3.8,3.3,6.1,2.5c4.5-1.7,9-3.6,13-6.2c1.5-1,2.4-4,2.4-6
											c-0.1-2.8,0.6-4.2,3.1-5.3c5.3-2.3,7.8-6.9,7.6-12.5c-0.2-5.6-2.9-9.9-8.4-12.1C374.9,76.9,374.1,76.4,373.4,76.4
											 M89.8,12.7c1.3,3.8,4.6,4.1,7.4,3.1c4.5-1.7,8.9-4,13-6.5c1.3-0.8,2.2-3.4,2-5c-0.5-3.4,0.8-4.8,3.7-6.1
											c5.2-2.4,7.4-7,7.1-12.4c-0.3-5.4-3-9.6-8.8-11.9c-0.5-0.1-1.5-0.6-2.5-0.6c-9.4-0.1-18.2,1.9-25.8,7.4
											c-1.8,1.3-2.9,4.2-3.2,6.5c-0.5,3.7,1.5,4.7,4.8,2.7c2.6-1.5,4.8-3.5,7.3-5.3c4.3-3,9.9-2.8,13.3,0.4
											c1.4,1.3,1.7,2.3,0.7,4.3c-0.8,1.8-0.8,4.5-0.2,6.4c1.2,3.5,1.1,4.6-2.5,5.4c-1.8,0.4-3.6,0.2-5.4,0.6
											c-2.5,0.5-5.2,0.7-7.5,1.8C90.2,5,88.7,9.5,89.8,12.7 M383.4,175.7c1.7,6.7,1.9,13.3-1,20.8c-1.6,4.6-4.4,6.9-9.6,7
											c-5.9,0.1-11.4-3.7-13.4-9.3c-1.9-5.4-0.8-9.5,3.4-13.3c0.7-0.6,1.2-1.9,1.2-2.9c0.2-6,2.4-8.8,8-9.5
											C376.9,168,382.2,171.2,383.4,175.7z M371.4,181.9c-0.4,0.3-0.6,0.9-1,1.2c-3.5,3-3.6,5.4-0.6,9.6l0.1,0
											c7.3-1.6,7.4-1.6,7.4-8.6c0-1.9-0.9-3.8-1.5-5.6C374.4,179.6,372.9,180.7,371.4,181.9z M101.1,77.2
											c0.7-0.6,1.3-1.8,1.3-2.8c0.1-6,2.2-8.8,7.8-9.6c5.2-0.8,10.3,2.4,11.7,7.3c1.8,6.5,1.7,13-1.2,20.9
											c-1.5,4.4-4.4,6.7-9.8,6.7c-5.5,0-11.3-4-13.1-9.2C95.9,85.3,97.2,80.6,101.1,77.2z M116,85.2c0.1-2.6,0.1-5.2-0.3-7.7
											c-0.1-1.1-1.1-2.8-1.8-2.8c-1-0.1-2.1,1-3,1.8c-0.7,0.7-1,1.9-1.7,2.5c-3.6,3.5-3.8,5-1,10.1c2.1-0.6,4.1-1.1,6-1.9
											C114.9,86.9,116,85.9,116,85.2z M96.5,25.6c-2.9,3-6.3,5.6-9.3,8.6c-1,0.9-2.2,2.1-2.4,3.3c-0.7,4.4,1.7,7.7,4.8,10.4
											c2.9,2.5,6.2,4.1,11.5,2.1c-3.3-2.6-5.7-4.5-8.1-6.5c-3.1-2.5-3.2-6.4,0.3-8.3c3.5-2,7.5-3.4,11.4-4.4
											c3.3-0.8,6.7-0.1,9.1,2.8c2.5,3.1,0.4,5.4-1.1,8c-0.5,0.9-0.7,2.2-0.7,3.3c0.2,2.5,1.8,3.6,4.2,3.4
											c4.7-0.5,8.7-8.6,6.5-12.8c-0.6-1.1-1.2-2.3-1.1-3.5c0.4-4.7-1-7.6-5-9.7C109.5,18.4,102.1,19.8,96.5,25.6 M374.4,144.1
											c-0.7,1.3-1.2,3-1,4.4c0.3,2.7,2.5,4.4,4.6,2.9c2.8-1.8,6.7-4.8,6.7-7.3c0-5.5-2.2-10.9-3.6-16.3c-0.1-0.5-0.9-1-1.4-1.3
											c-5.3-3.9-15.2-5-21,1.4c-3.2,3.5-7.3,6.2-10.4,9.8c-1.4,1.6-2.7,4.7-2,6.4c1.2,3.1,3.4,6.2,5.9,8.4
											c2.3,2.1,5.6,3.3,9.7,0.8c-2.8-2.3-5.2-4.2-7.6-6.3c-3.1-2.6-3.2-6.2,0-8.6c4.3-3.1,9.2-4.9,14.5-4.6
											C375.3,134.1,377.5,138.5,374.4,144.1 M228.2,59c-4.5,3.6-5.7,9.4-2.9,15.8c2.2,5.1,6.5,8.1,11.9,11.1
											c1-0.1,3.3,0.3,3.9-0.5c0.9-1.1,1-3.3,0.7-4.9c-0.2-1.4-1.2-2.8-2.2-3.9c-1.9-2.1-3.2-4.6-1.7-6.9
											c0.8-1.2,3.6-1.1,5.5-1.6c2.2-0.6,4.4-1.3,6.6-1.9c-1.3-2.2-2.6-4.4-3.9-6.6c-0.1-0.2-0.4-0.3-0.6-0.5
											C240.1,55.3,233,55.2,228.2,59 M-36-28.6c2.6,5.3,6.9,8.7,12.3,10.8c3.3,1.3,5.4-0.1,4.6-3.6c-0.5-2.4-2.5-4.4-3.3-6.8
											c-0.7-1.8-1.2-4-0.8-5.8c0.2-0.8,2.7-1.3,4.2-1.6c1.8-0.3,3.7,0,5.4-0.4c2.4-0.5,3.6-2.2,2-4.2c-1.9-2.5-4.4-4.5-6.6-6.8
											c-6.4-1.7-12.5-0.8-16.1,3.3C-38.3-39-38.6-33.8-36-28.6 M51.6-55.7c3.7,1.5,5.7-0.1,4.8-4c-0.4-1.9-2-3.5-2.7-5.4
											c-0.8-2.1-1.7-4.3-1.5-6.4c0.1-0.8,3.1-1.4,4.8-1.8c1.4-0.3,2.9,0,4.3-0.2c3.2-0.5,4.3-2.3,2.4-4.9
											c-1.8-2.4-4.4-4.2-6.6-6.3c-6-1.6-12.2-0.7-15.7,3.2c-3.9,4.3-4.5,9.2-2.1,14.5C41.7-61.5,46.1-58,51.6-55.7 M303.8,25.7
											c-4.7-1.7-7.3-1.1-9,2.1c-1.7,3.2-0.5,6.5,3.9,8.9c3.9,2.1,7.9,3.8,12,5.4c3.8,1.5,5.4,0.5,6.5-3.4
											c0.5-1.6,0.6-3.4,1.4-4.8c3.2-6.3,1.9-12.8-4.1-16.5c-1.9-1.1-5.4-1-7.5-0.1c-1.4,0.7-1.8,3.7-2.5,5.8
											c-0.2,0.7,0.2,1.7,0.4,2.5C304.3,25.6,304,25.8,303.8,25.7 M132.2-37c2.5,1.9,4,1.4,4.6-1.6c0.4-2,0.9-4,1-6.1
											c0.1-0.8-0.5-2.2-1.1-2.5c-5.3-2.2-10.5-4.6-16-6.1c-1.9-0.5-4.5,1.3-7.7,2.3c1.4,4.1,1.8,7.6,3.6,10
											c1.2,1.5,5.8,2.5,6.6,1.6c3.5-4,5.3-0.8,7.6,1C131.3-38,131.7-37.4,132.2-37 M241.3,13.2c-1.5,3.1,0.2,8,3.9,9.3
											c3.1,1.1,6.4,1.8,9.7,1.9c3.6,0.2,6.4-2,7.7-5.3c1.1-2.8,1.2-6-1.4-8.2c-0.8-0.7-3.1-0.9-3.7-0.4
											c-2.4,2.4-4.6,2.3-7.1,0.7C246.5,9.3,242.9,10.1,241.3,13.2 M395.9,58.8c1.1-1.9,0.3-5.4-0.6-7.9
											c-0.6-1.7-2.6-3.2-4.6-0.9c-2.2,2.5-4.5,2.1-6.8,0.7c-4.4-2-8-1.2-9.5,2.1c-1.4,3.1,0.4,7.8,3.9,8.9
											c3.3,1.1,7,2.2,10.3,1.8C391.2,63.1,394.5,61,395.9,58.8 M-1.7-81c1.2-0.9,2.1-2.2,2.9-3.1c1-3.5,1.2-6.5-1.5-8.8
											c-0.7-0.6-2.8-1-3.1-0.5c-2.7,3.2-5.4,2.4-8.5,0.6c-2.6-1.5-5.3-1-7.3,1.3c-2.2,2.5-1.7,5.3-0.1,7.8
											C-16.7-79.6-5.5-78-1.7-81 M55.6-19.1c-1.5,2.8-0.2,5,3,5c2.1,0,4.3-0.6,6.2-1.5c5.1-2.3,5.6-5.7,1.4-9.5
											c-4.5-4.2-10-5.8-16.1-4.9c-4.6,0.6-6,3-5.2,8.5c2.9-0.5,5.5-1.3,8.1-1.4C55.4-23,57.3-22.3,55.6-19.1 M317.1,83.9
											c-1.7,3.3-0.1,5.9,3.5,5.1c3.4-0.8,6.9-2.6,9.5-4.9c1.6-1.4-1.8-6-5.7-8.2c-0.8-0.4-1.6-0.8-2.4-1.2c0-0.2,0-0.5,0-0.7
											c-3.8-0.2-7.7-0.6-11.5-0.4c-3.2,0.2-4.6,2.6-4.9,5.6c-0.2,2,0.5,2.9,2.7,2.3c2.2-0.6,4.6-1.1,6.8-1
											C317,80.5,318.4,81.4,317.1,83.9"/>
									</g>
								</g>
							</g>
						</g>
					</g>
				</g>
			</g>
		</g>
	</g>
</g>
</svg>
