<?xml version="1.0" encoding="utf-8"?>
<!-- Generator: Adobe Illustrator 20.1.0, SVG Export Plug-In . SVG Version: 6.00 Build 0)  -->
<svg version="1.1" id="Layer_1" xmlns="http://www.w3.org/2000/svg" xmlns:xlink="http://www.w3.org/1999/xlink" x="0px" y="0px"
	 viewBox="0 0 214 146.5" style="enable-background:new 0 0 214 146.5;" xml:space="preserve">
<style type="text/css">
	.st0{fill:#3D55CC;}
	.st1{fill:#191919;}
	.st2{fill:#FF4133;}
	.st3{fill:#FFBB00;}
	.st4{fill:#303C78;}
	.st5{fill:#F5EBE0;}
	.st6{fill:#25B89D;}
	.st7{fill:#CC9966;}
	.st8{fill:#DADFF5;}
	.st9{clip-path:url(#SVGID_2_);fill:#25B89D;}
	.st10{clip-path:url(#SVGID_2_);fill:#F5EBE0;}
</style>
<g>
	<path class="st0" d="M30.5,67.2c2.3,2.7,4.5,5.5,6.7,8.2c2.2,2.7,4.6,5.4,7.1,7.9c2.4,2.4,5.1,4.6,8,6.5c2.9,1.8,6,3.1,9.1,4.5
		c1.5,0.7,3.1,1.5,4.4,2.5c1-0.9,2.1-1.8,3.1-2.8c-0.8-2-1.6-4.1-2.4-6.1c-1.3-3.3-2.9-6.3-4.8-9.3c-3.6-5.6-7.6-10.9-11.7-16
		c0,0,0,0-0.1-0.1c-1.5-1.4-2.9-2.8-4.3-4.3c-0.1-0.1-0.2-0.3-0.2-0.4c-0.8,0.2-1.7,0.5-2.5,0.8c0,0-0.1,0-0.1,0
		c-3.8,1.9-7.6,4-11.3,6.1c-0.5,0.6-1,1.2-1.5,1.8C30.1,66.8,30.3,67,30.5,67.2"/>
	<path class="st2" d="M68.2,94.7c-0.3-0.3-0.9-0.6-1.3-0.5c-0.3,0-0.6,0.6-0.8,1c-0.1,0.3-0.1,0.6-0.2,0.9c-0.1,0.2-0.1,0.4-0.2,0.6
		c0.1,0,0.1,0.1,0.2,0.1C66.6,96.1,67.4,95.4,68.2,94.7"/>
	<path class="st2" d="M47.9,82.3c0.3-1.3,0.5-2.5,1.1-3.7c1.7,1.3,3.5,2.7,5.3,4.1c2-1.6,1-4.3,2.5-6c1.7,1.3,3.4,2.6,5.1,3.9
		c0.3-0.2,0.5-0.3,0.7-0.4c-0.3-0.5-0.7-1.1-1-1.6c-0.3-0.5-0.6-1-1-1.5c-1.4-0.8-2.4-1.7-3.3-2.9c-0.5-0.6-0.9-1.1-2.1-0.9
		c-0.5,1.9-0.9,4-1.5,6.4c-1.7-1.3-3-2.3-4.4-3.3c-0.6-0.5-1.2-1-1.8-0.3c-0.3,1.2-0.6,2.4-0.9,3.5c-0.1,0.6-0.4,1.2-0.5,1.8
		c-0.1,0.4,0,0.8-0.1,1.3c0,0.1-0.1,0.2-0.1,0.2c-0.1,0.1-0.3,0-0.4,0c-0.6-0.3-1.2-0.7-1.7-1.1c-1.1-1-2.2-2-3.3-2.9
		c-0.2-0.1-0.5-0.3-0.7-0.4c1.4,1.6,2.9,3.2,4.4,4.7c0.7,0.7,1.5,1.5,2.3,2.1c0.3-0.4,0.7-1.1,0.8-1.3
		C47.7,83.5,47.8,82.9,47.9,82.3"/>
	<path class="st2" d="M40.1,60.2c0-0.1,0-0.2,0-0.3c-1.1,0.6-2.2,1.1-3.3,1.7c0.4,0.3,0.8,0.5,1.2,0.7C39.8,62,39.9,61.8,40.1,60.2"
		/>
	<path class="st2" d="M46.8,59.6c-0.4-0.4-0.9-0.9-1.3-1.3c-0.1-0.1-0.2-0.3-0.2-0.4c-0.5,0.1-0.9,0.3-1.4,0.4
		c0.4,0.3,0.9,0.6,1.3,0.9C45.9,59.6,46.4,59.7,46.8,59.6"/>
	<path class="st2" d="M38.8,72.7c0.7,0.7,1.1,1.8,2.4,2.1c2.2-1.6,1.7-4.4,3-6.5c1.8,0.8,2.7,2.9,4.5,3.5c1.3-0.4,1.5-1.4,1.7-2.4
		c0.3-1.2,0.6-2.5,0.9-4.1c0.9,0.7,1.7,1.4,2.4,2c-1.2-1.6-2.5-3.2-3.8-4.8c0,0,0,0-0.1-0.1c0,0,0,0,0,0c-0.5,0.8-0.3,1.8-0.5,2.7
		c-0.3,1.1-0.6,2.2-0.9,3.5c-0.7-0.4-1.2-0.7-1.6-1c-0.7-0.6-1.4-1.4-2.2-2c-0.4-0.3-1.2-0.7-1.5-0.6c-0.4,0.2-0.6,0.9-0.8,1.5
		c-0.1,0.2,0,0.5,0,0.7c-0.4,1.5-0.8,3-1.2,4.6l-0.5,0.1c-1-1.3-2.1-2.5-3.1-3.8c-0.5-0.7-0.9-1.3-1.9-1.1c-1.2,0.8-0.6,2.1-1,3.2
		c-0.2,0.5-0.3,1-0.5,1.5c0.5,0.6,1,1.3,1.6,1.9c0.2-1.1,0.4-2.2,1.1-3.1C37.5,71.2,38.1,72,38.8,72.7"/>
	<path class="st2" d="M58.8,88c1.7,1.4,3,2.6,4.3,3.7c1.3,0.1,1.6-0.8,1.8-1.8c0.3-1.3,0.3-2.6,0.8-3.9c-0.4-0.9-0.8-1.8-1.3-2.6
		c-0.5,1.7-0.9,3.3-1.4,5c-2.3-0.5-3.1-3.2-5.6-3.8c-0.5,2.3-1,4.4-1.6,7c-1.9-1.6-3.4-2.9-4.9-4.2c-0.5,0.2-0.8,0.5-0.9,0.8
		c0.7,0.5,1.5,1,2.2,1.5c1.7,1.1,3.6,2,5.4,2.8c0.1-0.3,0.1-0.7,0.2-1C58.2,90.5,58.5,89.4,58.8,88"/>
	<path d="M211.3,139.3c-0.4-0.3-0.8-0.4-1.3-0.5c-0.2,0-0.4-0.1-0.6-0.1c-4.6-1-9.2-1.2-13.8-1.3l-9.5-0.3
		c-11.7-1.3-20.5,0.3-36-0.6c-15.3-0.9-29.6-2.5-44.8-2.3c-4.5,0.1-8.9,0.2-13.4,0.2c-0.2,0-0.3,0.1-0.5,0.1
		c-2.4-0.1-4.9-0.1-7.3-0.3c-2.5-0.3-5.1-0.8-7.6-1.2c-2.8-0.4-5.6-0.8-8.4-1c-4.2-0.3-8.4-0.4-12.7-0.4c-3.9-0.6-7.7-1.1-11.6-1.6
		c-7.4-0.8-14.8-0.6-22.2,0.5c-1,0-2.1-0.1-3.1-0.1c-3.5,0.6-6.5,2.1-9.9,2.7c-1.3,0.3-2.6,0.4-3.8,0.9c-1.3,0.5-3,1.8-2.4,3.4
		c0.1,0.2,0.2,0.4,0.3,0.6c0.1,0.2,0.1,0.3,0.2,0.5c0.1,0.2,0.3,0.4,0.6,0.5c1,0.5,2.1,0.6,3.2,0.7c13,2,26.7,1.3,39.8,1.9
		c13.5,0.5,27,1.4,40.5,1c5.4-0.2,10.8-0.8,16.2-1.2c5.7-0.5,11.4,0.3,17,0.9c9.1,1.1,18.3,1.9,27.5,1.8c6.2-0.1,12.4-0.6,18.6-0.9
		c0.8,0,1.5-0.1,2.3-0.1c1.9,0.1,3.8,0,5.7-0.2c5.6-0.2,11.3-0.2,16.9-0.2c2.5,0,4.9-0.3,7.4-0.4c3.9-0.3,7.8-0.2,11.7-0.8
		c0.7-0.1,1.6-0.4,1.7-1.1C211.9,140,211.6,139.5,211.3,139.3"/>
	<path class="st2" d="M173,77.5c-3.2-0.9-6.5-1.6-9.8-2.1c-0.4-0.7-1.5-0.9-1.9,0l-2.3,5.1c-0.7,1.5-1.5,3.1-1.8,4.8
		c0,0.1,0,0.2,0,0.3c-0.2,0.6-0.1,1.3,0.7,1.5c3.6,0.9,7.3,1.7,11,2.3c0.6,0.1,1.1-0.2,1.4-0.8c1.2-3.2,2.4-6.4,3.5-9.6
		C173.9,78.3,173.5,77.7,173,77.5"/>
	<path class="st7" d="M202.9,67.8c-0.8-0.7-1.7-1-2.6-1c-1.2-0.5-2.6,0.2-3.7,1c-2,1.3-4.1,2.5-6.2,3.6c-3.6,1.9-7.3,3.5-11.2,4.8
		c-1.8,0.2-3.6,0.2-5.4,0.1c-0.2,0-0.3,0-0.4,0c-0.4,0-0.9,0.2-1.1,0.7l-4.9,11.5c-0.2,0.6,0.3,1.4,1,1.3c0.8-0.1,1.5-0.1,2.2,0
		c0.3,0.1,0.6,0.2,0.8,0.2c0.6,0.4,1.2,0.8,1.7,1.4c0.4,0.5,0.9,1,1.3,1.5c0.7,1,1.5,2,2.5,2.8c0.4,0.4,1,0.4,1.5,0
		c4-3.5,7.2-7.9,11-11.7c3.8-3.9,7.7-7.7,11.6-11.6c0.1-0.1,0.2-0.3,0.3-0.4c0.2-0.2,0.4-0.4,0.7-0.5c0.6-0.5,1.4-1,1.8-1.7
		C204.2,68.8,203.7,68.1,202.9,67.8"/>
	<path class="st3" d="M201.6,66.6c-2.7-0.5-5,0.9-7.1,2.3c-0.6,0.4-0.8,1.1-0.3,1.6c1,1,2,2.1,3,3.1c0.1,0.1,0.3,0.2,0.4,0.3
		c-1.7,1.6-3.4,3.2-5.1,4.8c-2.7,2.5-5,5.3-7.5,8c-0.5,0.5-1,1.1-1.5,1.6c-1.1-0.7-3-0.6-4-0.4c-1.9,0.4-3.5,1.5-4.7,3
		c-0.2,0.2-0.4,0.4-0.6,0.6c-0.6,0.8-0.2,1.4,0.4,2.1c0.6,0.8,1.4,1.7,2.3,2.2c0.1,0.1,0.2,0.1,0.3,0.1c0.3,0.2,0.8,0.2,1.2-0.1
		c0,0,0,0,0,0c0.2-0.1,0.4-0.3,0.6-0.5c0.1-0.1,0.2-0.2,0.3-0.3c2.3-2,4.6-4.1,6.7-6.4c2.3-2.5,4.5-5.1,7-7.5
		c2.5-2.4,5.1-4.9,7.7-7.2c0.6-0.5,1.2-1.1,1.8-1.6c0.6-0.5,1.4-1.1,1.9-1.7c0.4-0.5,0.4-1,0.2-1.5c0-0.2,0-0.5-0.1-0.8
		C203.9,67.3,202.5,66.8,201.6,66.6"/>
	<path class="st1" d="M179.6,80.9c-0.1-0.1-0.1-0.3-0.2-0.4c0.1,0,0.2,0,0.3-0.1C179.7,80.6,179.7,80.7,179.6,80.9"/>
	<path class="st2" d="M147.5,128c-0.3-0.4-0.7-0.9-1-1.3c-0.4-0.9-0.9-1.8-1.4-2.6c-1.1-2-2.3-3.9-3.6-5.8c-0.6-0.9-1.9-0.5-2.1,0.3
		c-0.1,0.1-0.2,0.1-0.3,0.2c-0.7-0.1-1.4,0.2-1.4,1c-0.3,0.2-0.5,0.4-0.6,0.7c-0.5,0.1-0.9,0.5-0.9,1c-0.5,0.1-0.9,0.5-0.9,1
		c-0.5-0.5-1.3-0.4-1.7,0c-0.5-0.1-1.1,0.2-1.3,0.7c-0.7-0.9-2.4,0.1-1.8,1.4c1.7,3.7,3.7,7.2,6,10.6c0.4,0.5,1,0.7,1.5,0.4
		c2.3-1.3,4.6-2.6,6.9-4.1c0.6-0.2,1.1-0.5,1.4-0.9c0.3-0.2,0.6-0.4,1-0.7C147.9,129.3,148,128.6,147.5,128"/>
	<path class="st7" d="M175.4,138.4c0-1.2-0.6-2.1-1.4-2.8c-0.6-1.2-2.2-1.7-3.7-2c-2.6-0.5-5.1-1.1-7.6-1.8
		c-4.3-1.2-8.4-2.7-12.4-4.6c-1.6-1.2-3-2.5-4.3-4c-0.1-0.1-0.2-0.2-0.4-0.3c-0.3-0.3-0.8-0.5-1.4-0.3c-4.1,1.8-8.3,3.6-12.4,5.5
		c-0.6,0.3-0.8,1.3-0.2,1.8c0.6,0.5,1.2,1.1,1.8,1.7c0.1,0.3,0.3,0.6,0.5,0.8c0.2,0.8,0.3,1.5,0.3,2.3c0,0.7-0.1,1.5,0,2.2
		c-0.2,1.4-0.2,2.7-0.1,4.1c0.1,0.6,0.4,1.1,1.1,1.1c5.8,0.2,11.6-0.9,17.5-1.1c5.9-0.2,11.9-0.3,17.8-0.5c0.2,0,0.4-0.1,0.5-0.1
		c0.3,0,0.6,0,0.9,0.1c0.8,0.1,1.9,0.3,2.7,0C175.7,140.2,175.8,139.2,175.4,138.4"/>
	<path class="st3" d="M175.2,136.5c-1.8-2.4-4.6-3-7.4-3.5c-0.7-0.1-1.4,0.3-1.4,1.1l0,4.7c0,0.2,0,0.4,0.1,0.5c-2.5,0-5,0-7.6,0
		c-4,0-7.9,0.4-11.9,0.7c-0.8,0.1-1.6,0.1-2.4,0.1c-0.4-1.4-1.9-2.7-2.9-3.4c-1.8-1.1-3.9-1.4-6-1.1c-0.3,0-0.6,0-0.9,0.1
		c-1,0.2-1.2,1-1.2,1.9c-0.1,1.1-0.2,2.4,0.2,3.5c0,0.1,0.1,0.2,0.1,0.3c0.1,0.4,0.5,0.7,1,0.8c0,0,0,0,0.1,0
		c0.2,0.1,0.5,0.1,0.8,0.1c0.2,0,0.3,0,0.5,0c3.4,0.2,6.7,0.2,10.1,0c3.7-0.2,7.4-0.7,11.1-0.7c3.8,0,7.7,0,11.5,0.1
		c0.9,0,1.8,0,2.6,0.1c0.9,0,1.9,0.2,2.8,0c0.7-0.1,1.1-0.5,1.3-1c0.2-0.2,0.4-0.4,0.5-0.7C176.6,138.8,175.8,137.3,175.2,136.5"/>
	<path class="st2" d="M125.4,9.5c-0.2-0.5-0.6-0.8-1.1-1c0.4-0.5,0.6-1.1,0.4-1.8c-0.3-1.7-1.8-1.9-3.6-1.6c0.6-0.9,0.7-1.7-0.1-2.4
		c-1.3-1.1-3.4,0-4.6,0.6c-1.9,0.9-3.8,1.9-5.8,2.8c-2.4,1.1-4.8,2.2-7.2,3.2c1.1-1.1,2.6-2.6,3.2-4.1c0.6-1.5-0.6-2.9-2.2-2.4
		c-0.7,0.2-1.3,0.8-1.8,1.3c-0.8,0.7-1.7,1.4-2.5,2c-1.6,1.3-3.3,2.5-5,3.6c-1.5,1-3.2,1.8-4.2,3.3c-1,1.6-1.3,3.7-1.5,5.5
		c-0.4,2.3-0.6,4.5-0.7,6.8c0,0,0,0,0,0c-0.1,0.6-0.1,1.2-0.1,1.8c-0.1,0.6,0.6,1.1,1.1,1.1c3.2-0.1,6.4,0,9.5,0.5
		c0.7,0.1,1.4-0.3,1.4-1.1c0-0.3,0-0.5,0.1-0.7c0.8-2,2.9-3.1,4.8-3.9c2.6-1,5.1-2,7.7-2.9c2.4-0.9,4.9-1.7,7.2-2.8
		c1.4-0.7,2.4-2.1,1.9-3.5c0.3-0.2,0.6-0.4,0.8-0.6C124.4,12.4,126.1,11.1,125.4,9.5"/>
	<path class="st3" d="M46.2,62.8c-0.3-0.5-0.6-0.9-0.9-1.4l-1.9-2.8c-0.2-0.3-0.7-0.5-1.1-0.1c-0.7,0.8-1.1,1.9-1.9,2.7
		c-0.4,0.4-0.8,0.8-1.2,1.2c-0.2,0.2-0.3,0.4-0.5,0.6c-0.1,0-0.1,0-0.2,0c-0.5,0-1,0.4-1.3,0.9c-1.9,0.3-3.7,0.5-5.6,0.8
		c-0.3,0-0.6,0.5-0.5,0.8c0.7,1.8,1.5,3.5,2.3,5.3c0.1,0.2,0.2,0.3,0.4,0.3C34,71,34,71,34.1,71.1c0.5,0.3,1,0,1.3-0.4
		c0.3-0.4,0.6-0.7,0.9-1.1c0.5-0.7,1-1.4,1.5-2.2c0.3-0.4,0.5-0.9,0.8-1.4c0.2,0,0.4,0,0.6-0.1c0.3-0.1,0.5-0.2,0.7-0.4
		c0.2-0.2,0.3-0.4,0.4-0.7c1.8-0.2,3.6-0.4,5.4-0.6c0.3,0,0.6-0.1,0.8-0.4C46.6,63.5,46.4,63.1,46.2,62.8"/>
	<path class="st5" d="M163.9,73.6c-0.9-2-3.1-2.2-5-2.6c-1.9-0.4-3.8-0.9-5.6-1.3l-5.2-1.2c-7.9-2.4-15.8-4.6-23.9-5.9
		c-6-1-12.2-1.8-18.2-0.9c-2,0.3-4,0.9-5.8,1.8c1.4-3.4,1.7-7.2,2.2-10.8c0.5-3.7,0.8-7.5,0.9-11.2c0.2-4.3,0.1-8.7-0.3-13
		c0-0.5-0.1-0.9-0.3-1.3c-0.1-1-1.2-2-2.2-1.9l-0.1,0c-0.2-0.1-0.4-0.1-0.7-0.1c-4.7-0.4-9.3-0.4-14,0c-1.4,0.1-2.9,1-3.2,2.5
		c-0.2,0.9-0.3,1.8,0,2.7c0.1,3.3,0.2,6.5,0.1,9.8c-0.1,1.3-0.1,2.6-0.2,3.9c-0.1,2.1-0.2,4.4-0.5,6.6c-0.5,1.7-1.1,3.6-1.8,5
		c-0.3,0.7-0.7,1.4-1.1,2.1c-0.5,0.5-1.1,0.9-1.7,1.2c-0.5,0-1,0-1.4-0.1c-1-0.1-2.1-0.2-3.1-0.3c-2.2-0.2-4.4-0.4-6.7-0.6
		c-1.2-0.1-2.4-0.2-3.6-0.3c-0.9-0.2-1.8-0.4-2.7-0.5C58.5,57,57,57,55.6,57c-0.9-0.1-1.8-0.2-2.7-0.3c-0.1,0-0.2,0-0.4,0
		c-1.6-0.1-3.2-0.2-4.8-0.2c-0.4,0-0.8-0.1-1.2,0c-0.5,0-0.9,0.2-1.2,0.5c-0.3,0.2-0.4,0.7-0.1,1c1.4,1.4,2.9,2.9,4.3,4.3
		c0,0,0,0,0.1,0.1c4.2,5.1,8.2,10.4,11.7,16c1.9,3,3.5,6,4.8,9.3c0.8,2,1.6,4.1,2.4,6.1c-1,0.9-2.1,1.9-3.1,2.8
		c-1.4-1-2.9-1.8-4.4-2.5c-3.1-1.5-6.2-2.7-9.1-4.5c-2.9-1.8-5.5-4.1-8-6.5c-2.5-2.5-4.8-5.1-7.1-7.9c-2.3-2.7-4.4-5.5-6.7-8.2
		c-0.3-0.3-0.6-0.7-0.8-1c-0.2-0.2-0.6-0.3-0.8-0.1c-0.2,0.1-0.4,0.3-0.6,0.4c-0.2,0.1-0.5,0.2-0.6,0.5c-0.1,0.1-0.1,0.2-0.2,0.4
		c-0.1,0.2-0.2,0.3-0.4,0.5c-0.1,0.1-0.3,0.2-0.4,0.3c-4.3,5.5-8.6,11.2-10.7,17.9c-2.1,6.9-2.4,14.6-2.5,21.8
		c-0.1,3.8,0,7.6,0.3,11.3c0.2,3.3,0.4,6.9,2.5,9.7c3.9,5.2,11.5,5.3,17.4,5.8c8.5,0.8,17.1,1.2,25.6,1.2c0.2,0,0.4,0,0.6-0.1
		c0.2,0,0.5,0,0.7-0.1c0.5,0.1,1-0.2,1.2-0.8c0.3-0.3,0.5-0.6,0.6-1c0-0.1,0.1-0.2,0.1-0.3c0.2-0.3,0.4-0.7,0.4-1.2
		c0-0.5,0-1,0.1-1.5c0,0,0.1,0,0.1,0c2.8,1.3,6,1.7,9.1,1.7c4,0.1,8.3,0,12.2-1.2c7.3-2.4,12.9-8.5,17.7-14.2
		c0.8-0.9,1.5-1.8,2.2-2.7c4.3-4.1,8.5-8.2,12.4-12.6c4,7.8,8.3,15.3,13,22.7c0.5,0.8,1.6,1.4,2.5,1c7.3-2.7,14.5-5.8,21.6-9.1
		c1.7-0.8,4.2-1.4,4.3-3.6c0.1-1.4-0.8-2.7-1.7-3.8c-2-3.9-4.4-7.5-7.1-10.9c-0.5-0.7-1-1.4-1.5-2c1.9,0.6,3.8,1.2,5.7,1.8
		c0.3,0.1,0.5,0.1,0.8,0.1c0.6,0.1,1.1-0.2,1.5-0.7c0.4-0.5,0.7-1.1,1-1.7c0.2-0.4,0.3-0.9,0.4-1.3c1.4-3.5,2.8-6.9,4.2-10.4
		c0.7-1.8,1.5-3.6,2.2-5.4C163.9,77,164.6,75.3,163.9,73.6 M37.3,113.6c-0.4-0.1-0.9-0.2-1.3-0.3c0.8-3.4,1.5-6.9,2-10.3l9.3,4.6
		c0.3,0.1,0.5,0.2,0.8,0.4c0.1,0.1,0.2,0.1,0.2,0c0.2,0.4,0.3,1.1,0.4,1.5l1.1,3.6c0.3,1.1,0.7,2.2,1,3.3
		C46.4,115.3,41.9,114.4,37.3,113.6 M83,85.2c0,0,0,0.1,0,0.1c-1.3,1.7-2.6,3.3-4,4.9c-0.5,0.4-1.1,0.8-1.6,1.1
		c-0.5-0.4-1-0.8-1.5-1.1l-4.6-12.4c6.1-0.2,12.2-0.9,17.6-3.4C86.4,77.7,84.3,81.2,83,85.2"/>
	<path class="st1" d="M37.7,77.9c-0.7,1.3-1.5,2.6-2.2,3.9c-0.4,0.6-0.7,1.3-1.1,1.9c-0.3,0.6-0.7,1.2-1,1.8
		c-0.2,0.4-0.2,0.9,0.1,1.2c0.3,0.4,1,0.6,1.5,0.7c1.4,0.5,2.8,1.1,4.2,1.6c5.6,2.2,11.2,4.4,16.9,6.6c3,1.1,6,2.2,9.2,2.3
		c0.4,0,0.4-0.7,0-0.7c-2.7-0.1-5.3-0.9-7.8-1.8c-2.6-0.9-5.2-2-7.7-3c-2.6-1-5.3-2-7.9-3.1c-1.3-0.5-2.6-1-3.8-1.5
		c-0.6-0.2-1.3-0.5-1.9-0.7c-0.3-0.1-0.6-0.2-1-0.4c-0.3-0.1-0.8-0.2-1.1-0.4c-0.5-0.4,0.5-1.6,0.7-2c0.4-0.7,0.8-1.4,1.2-2.1
		c0.8-1.3,1.5-2.7,2.3-4C38.5,77.9,37.9,77.5,37.7,77.9"/>
	<path class="st1" d="M28.1,66.5c-0.2,1.7-0.4,3.5-0.5,5.3c0,0.9-0.1,1.8-0.1,2.6c0,0.7-0.1,1.7,0.1,2.4c0.2,0.6,0.9,0.8,1.5,0.9
		c0.8,0.2,1.7,0.5,2.5,0.7c1.7,0.4,3.4,0.7,5.2,1c0.4,0.1,0.6-0.6,0.2-0.6c-1.6-0.2-3.2-0.5-4.7-0.9c-0.7-0.2-1.5-0.4-2.2-0.6
		c-0.4-0.1-0.8-0.2-1.1-0.3c-0.5-0.2-0.7-0.3-0.7-0.8c-0.2-3.2,0.1-6.4,0.5-9.6C28.8,66,28.1,66.1,28.1,66.5"/>
	<path class="st1" d="M54.4,67.6l8.3,0.2c-0.1-0.1-0.2-0.2-0.3-0.2c1.6,6.7,3.1,13.5,4.5,20.3c0.4,1.9,0.8,3.9,1.1,5.8
		c0.1,0.4,0.7,0.2,0.6-0.2c-1.3-6.8-2.7-13.6-4.3-20.3c-0.4-1.9-0.9-3.8-1.3-5.7c0-0.1-0.2-0.2-0.3-0.2c-2.8-0.1-5.6-0.1-8.3-0.2
		C54,67,54,67.6,54.4,67.6"/>
	<path class="st1" d="M45.9,58.5c2.1,0.4,4.1,0.9,6.2,1.5c0.5,0.1,1.2,0.2,1.4,0.7c0.2,0.6,0.2,1.4,0.3,2c0.2,1.4,0.3,2.7,0.3,4.1
		c0,0.4,0.6,0.4,0.6,0c0-1.5-0.1-3-0.3-4.5c-0.1-0.6-0.1-1.4-0.4-1.9c-0.2-0.5-0.7-0.7-1.2-0.8c-2.2-0.7-4.5-1.2-6.7-1.7
		C45.7,57.8,45.5,58.4,45.9,58.5"/>
	<path class="st1" d="M72.8,99.7c7.8-5.5,15.8-10.7,23.9-15.6c2.3-1.4,4.6-2.8,6.9-4.1c0.4-0.2,0-0.8-0.3-0.6
		c-8.2,4.8-16.3,9.8-24.2,15.2c-2.2,1.5-4.4,3-6.6,4.6C72.1,99.4,72.4,100,72.8,99.7"/>
	<path class="st1" d="M101.4,79.3c6.2,2.1,12.4,4.2,18.5,6.4C126,88,132,90.4,138,92.9c3.3,1.4,6.7,2.6,10.2,3.5
		c0.4,0.1,0.6-0.5,0.2-0.6c-6.2-1.5-12-4.3-17.8-6.7c-6.1-2.4-12.2-4.6-18.4-6.8c-3.5-1.2-7-2.4-10.5-3.6
		C101.2,78.6,101,79.2,101.4,79.3"/>
	<path class="st1" d="M64.8,97.7c3.2,3.5,6.3,7.1,9.5,10.6c2.7,3,5.4,6,7.4,9.5c1.1,1.9,1.9,4,2.3,6.2c0.1,0.4,0.7,0.2,0.7-0.2
		c-0.7-3.9-2.7-7.3-5.2-10.4c-2.7-3.5-5.8-6.7-8.7-10c-1.8-2.1-3.7-4.1-5.5-6.2C64.9,96.9,64.5,97.3,64.8,97.7"/>
	<path class="st1" d="M65.7,96.5c-0.2,0.2-0.5,0.3-0.7,0.5c0.1,0.2,0.3,0.4,0.4,0.5c1-1,2.1-2,3.1-2.9c0.3-0.3-0.2-0.8-0.5-0.5
		c-1,1-2.1,2-3.1,2.9c-0.3,0.3,0.1,0.8,0.4,0.5c0.2-0.2,0.5-0.3,0.7-0.5c0.1-0.1,0.2-0.3,0.1-0.5C66.1,96.5,65.8,96.4,65.7,96.5"/>
	<path class="st1" d="M68.5,93.5c1,0.8,2.3,0.5,3.5,0.1c1.6-0.5,3.2-0.9,4.7-1.3c0.4-0.1,0.2-0.8-0.2-0.6c-1.4,0.4-2.9,0.8-4.3,1.2
		c-1,0.3-2.4,0.9-3.3,0.2C68.7,92.7,68.2,93.2,68.5,93.5"/>
	<path class="st1" d="M65.5,97.6l2.2-2.2c0.3-0.3,0.7-0.7,1-1c0.3-0.3,0.5-0.8,0.3-1.2c-0.1-0.4-0.8-0.2-0.7,0.2
		c0.1,0.3-0.2,0.6-0.4,0.8c-0.3,0.3-0.7,0.7-1,1l-1.9,2C64.8,97.4,65.2,97.9,65.5,97.6"/>
	<path class="st1" d="M67.7,90.9c0.3,1,0.9,2,1.8,2.6c0-0.1,0.1-0.2,0.1-0.3c-0.5-0.1-0.9-0.5-1.1-1c-0.1,0-0.2,0.1-0.3,0.1
		c0.1,0.3,0.3,0.6,0.5,0.9c0.1,0.1,0.4,0,0.3-0.2c-0.1-0.2-0.2-0.3-0.3-0.5c-0.1-0.1-0.3-0.1-0.3,0.1c0,0.2,0.1,0.4,0.2,0.6
		c0.1,0.1,0.4,0.1,0.3-0.1c-0.1-0.1-0.1-0.3-0.2-0.4c0-0.1-0.1-0.1-0.2-0.1c-0.1,0-0.2,0.1-0.1,0.2c0.1,0.1,0.1,0.3,0.2,0.4
		c0.1,0,0.2-0.1,0.3-0.1c-0.1-0.1-0.1-0.3-0.1-0.4l-0.3,0.1c0.1,0.2,0.2,0.3,0.3,0.5c0.1-0.1,0.2-0.1,0.3-0.2
		c-0.2-0.2-0.3-0.5-0.4-0.8c-0.1-0.2-0.4-0.1-0.3,0.1c0.2,0.6,0.7,1.1,1.3,1.2c0.2,0,0.3-0.2,0.1-0.3c-0.8-0.6-1.4-1.4-1.7-2.4
		C67.9,90.6,67.6,90.7,67.7,90.9"/>
	<path class="st1" d="M100.8,12.2c2.4,1.6,4.4,3.6,5.9,6c0.2,0.4,0.8,0,0.6-0.3c-1.6-2.5-3.7-4.6-6.2-6.2
		C100.8,11.4,100.5,12,100.8,12.2"/>
	<path class="st1" d="M121.2,13.3c-3.9,0.9-7.8,2.1-11.6,3.5c-0.4,0.1-0.2,0.8,0.2,0.6c3.8-1.4,7.6-2.6,11.6-3.5
		C121.8,13.8,121.6,13.2,121.2,13.3"/>
	<path class="st1" d="M123.5,8.4l-8.2,2.6c-2.6,0.8-5.1,2-7.6,3.2c-0.4,0.2,0,0.8,0.3,0.6c1.2-0.6,2.5-1.2,3.7-1.8
		c1.3-0.6,2.5-1,3.9-1.4c2.7-0.9,5.3-1.7,8-2.6C124,8.9,123.9,8.2,123.5,8.4"/>
	<path class="st1" d="M120.4,5c-5.1,2-10,4.3-14.9,6.8c-0.4,0.2,0,0.8,0.3,0.6c4.8-2.5,9.7-4.7,14.7-6.7C121,5.5,120.8,4.9,120.4,5"
		/>
	<path class="st2" d="M43.4,52.3c-1.2,0.9-1.9-0.7-2.2-1.6c-0.4-0.8-0.7-1.8-0.8-2.7c0.1,2.3,0.3,4.6,0.4,6.9c0,0.2,0,0.4,0,0.5
		c0.1,1.9-0.1,3.8-0.9,5.5c-0.9,1.9-3.1,2.7-5,3.2c-1.7,0.4-4,0.6-5.6-0.1c-1.8-0.8-2.5-3.2-3.2-4.9c-0.4-0.9-0.7-1.8-0.9-2.7
		c-0.9,0-1.8-1.1-2.3-1.7c-0.8-0.9-1.6-2-1.8-3.3c0-0.1,0-0.3,0-0.4c-0.1-0.2-0.1-0.4-0.1-0.6c0-0.9,0.5-1.7,1.4-1.7
		c0.9,0,1.4,0.6,1.8,1.3c-0.1-1.2,0-2.3,0.3-3.4c1.1-3.8,6-5.3,9.5-5.4c1.8-0.1,3.6,0.4,5,1.7c1,1,1.4,2.2,1.5,3.5
		c0-0.1,0-0.2,0.1-0.2c0-0.1,0-0.1,0-0.2c0.1-0.8,0.9-1.9,1.8-1.3c0.3,0.1,0.5,0.4,0.6,0.7c0.8,0.8,1,2.5,1.2,3.4
		C44.2,49.7,44.5,51.5,43.4,52.3"/>
	<path class="st1" d="M29.4,49.9C29.4,49.9,29.4,49.8,29.4,49.9c0-0.2,0-0.3-0.1-0.3c0,0,0-0.1-0.1-0.1c0,0,0,0,0,0
		c-0.1-0.1-0.1-0.2-0.2-0.2c-0.1-0.1-0.2-0.1-0.3-0.1c-0.1,0-0.1,0-0.2,0c-0.2,0-0.3,0.2-0.4,0.4c0,0.1,0,0.3,0,0.4c0,0,0,0.1,0,0.1
		c0,0.1,0.1,0.2,0.1,0.3c0.1,0.1,0.1,0.1,0.2,0.2c0.1,0.1,0.2,0.1,0.4,0.1c0.2,0,0.3-0.2,0.4-0.4c0,0,0,0,0,0c0,0,0,0,0-0.1
		C29.4,50,29.4,50,29.4,49.9"/>
	<path class="st1" d="M36.4,47.9c0-0.1,0-0.1-0.1-0.2c0,0,0,0,0,0c0,0,0-0.1-0.1-0.1c0,0,0,0-0.1-0.1c0,0,0,0-0.1-0.1
		c0,0-0.1,0-0.1,0c0,0,0,0,0,0c0,0-0.1,0-0.1,0c0,0,0,0,0,0c-0.1,0-0.1,0-0.2,0c-0.1,0-0.1,0-0.2,0.1c-0.1,0.1-0.1,0.1-0.2,0.2
		c0,0,0,0,0,0c0,0,0,0.1,0,0.1c0,0,0,0.1,0,0.1c0,0,0,0,0,0c0,0,0,0.1,0,0.1c0,0,0,0,0,0c0,0,0,0,0,0c0,0.1,0,0.2,0.1,0.2
		c0,0,0.1,0,0.1,0.1c0,0,0,0,0,0c0,0,0,0,0,0c0.1,0.1,0.1,0.1,0.2,0.1c0,0,0,0,0,0c0,0,0.1,0,0.1,0c0,0,0.1,0,0.1,0
		c0,0,0.1,0,0.1-0.1c0.1,0,0.1-0.1,0.2-0.2c0,0,0,0,0-0.1c0,0,0-0.1,0.1-0.1c0-0.1,0-0.1,0-0.2C36.4,48,36.4,48,36.4,47.9"/>
	<path class="st1" d="M34.3,56.4c0-0.2-0.1-0.4-0.3-0.5c-0.2-0.1-0.4-0.1-0.6-0.1c-0.5,0-0.9,0-1.4,0c-0.2,0-0.3,0-0.5,0
		c-0.4-0.1-0.9-0.2-1.2,0.1c-0.4,0.4-0.1,1.2,0.3,1.5c0.4,0.3,1,0.2,1.5,0.2c0.6,0,1.2,0.1,1.7-0.2c0.2-0.1,0.5-0.3,0.5-0.6
		C34.4,56.6,34.4,56.5,34.3,56.4"/>
	<path class="st7" d="M42.7,50.4c-0.4-1.7-1-3.3-1.8-4.8c-0.6-1.2-1.3-2.4-2.2-3.3c0.5-0.5,1-1.2,1.3-1.9c0.3-0.9,0.4-1.9,0.1-2.8
		c-0.1-0.3-0.2-0.6-0.4-0.9c-0.7-1.6-3.9-1.2-5.4-1c-2.4,0.3-5.3,0.6-7.5,1.9c-1,0.4-2,0.9-2.9,1.6c-1.6,1.2-1,3.3-0.4,4.9
		c-0.1,2.1-0.1,4.2,0.4,6.2c0.3,2.5,1,5,1.6,7.4c0.1,0.4,0.2,0.8,0.3,1.2c0.6,2.2,1.4,4.5,3.2,5.9c0,0,0.1,0,0.1,0.1
		c0.3,0.2,0.6,0.4,1,0.6c1.2,0.5,2.6,0.6,3.9,0.5c1.3-0.1,2.7-0.4,3.9-0.9c1.3-0.5,2.5-1.2,3.4-2.2c0.9-1.1,1.5-2.4,1.8-3.7
		C43.6,56.3,43.4,53.2,42.7,50.4 M32.8,58.6c-1,0.1-2-0.1-2.7-0.7c-0.1-0.2-0.1-0.3-0.2-0.5c0-0.2,0-0.5,0.1-0.7
		c0.2-0.4,0.4-0.8,0.7-1.1c0.7-0.6,1.6-0.6,2.5-0.4c0.8,0.1,1.8,0.4,2.4,1.1c0.1,0.1,0.2,0.3,0.3,0.5C35,57.7,33.9,58.5,32.8,58.6
		 M39.2,53c-0.1,0.5-0.2,0.9-0.3,1.4c0,0,0,0,0,0c-0.1,0.5-0.3,1-0.5,1.4c-0.1,0.3-0.2,0.6-0.3,0.8c-0.4-0.7-1-1.3-1.7-1.7
		c-0.9-0.5-2.1-0.7-3.1-0.5c-0.7-0.1-1.4-0.1-2.1,0.1c-0.8,0.2-1.5,0.8-1.9,1.6c-0.2,0.4-0.3,0.8-0.4,1.3l-0.2-0.1l0,0
		c-0.1-0.2-0.3-0.3-0.4-0.5c-0.2-0.4-0.4-0.7-0.5-1.1c-0.8-1.6-1.3-3.2-1.5-5c-0.2-1.6-0.4-3.3-0.6-5c0-0.1-0.1-0.2-0.1-0.3
		c0-0.1,0-0.1,0-0.2c0.6,0.2,1.2,0.2,1.9,0.3c1.1,0.1,2.2,0.2,3.3,0.1c1,0,2-0.2,2.9-0.4c0.7-0.1,1.4-0.3,2-0.6
		c0.5-0.2,0.9-0.4,1.3-0.7c0.1,0.3,0.3,0.6,0.4,0.9c0,0,0,0,0,0c0.8,1.8,1.6,3.5,1.9,5.4C39.3,51.1,39.3,52,39.2,53"/>
	<path class="st1" d="M29.7,45.6c-0.2-0.1-0.4,0-0.6,0.2c-0.2,0.1-0.4,0.3-0.6,0.4c-0.4,0.2-0.8,0.4-1.2,0.6
		c-0.4,0.2-0.9,0.3-1.3,0.4c-0.4,0.1-0.9,0.2-0.9,0.6c0,0.2,0.1,0.4,0.3,0.6c0.2,0.1,0.5,0.1,0.7,0c0.2-0.1,0.5-0.2,0.7-0.4
		c0.6-0.2,1.2-0.4,1.7-0.7c0.4-0.2,0.8-0.4,1.2-0.7c0.2-0.1,0.3-0.2,0.4-0.5C30.1,45.9,30,45.7,29.7,45.6"/>
	<path class="st1" d="M38.2,44.4c-0.4,0-0.8,0.1-1.1,0.2c-0.4,0.1-0.8,0.1-1.2,0.1c-0.4,0-0.8,0-1.2,0.1c-0.1,0-0.1,0.1-0.2,0.1
		c-0.1,0-0.1,0.1-0.2,0.2c0,0.2,0.1,0.4,0.2,0.4c0.8,0.1,1.7,0.1,2.5,0.1c0.4,0,0.8-0.1,1.2-0.2c0.3-0.1,0.8-0.1,0.8-0.6
		C39.1,44.4,38.5,44.4,38.2,44.4"/>
	<path class="st1" d="M35.2,52.9c-0.1-0.7-0.5-1.3-0.9-1.8c-0.4-0.6-0.8-1.1-1.3-1.6c-0.3-0.3-0.8,0.2-0.5,0.5
		c0.7,0.9,1.5,1.8,1.9,2.8c0.1,0.2,0.2,0.5,0.1,0.7c-0.1,0.2-0.4,0.2-0.6,0.3c-0.7,0.1-1.3,0.2-2,0.2c-0.4,0-0.4,0.7,0,0.7
		c0.8,0,1.6-0.1,2.3-0.3c0.3-0.1,0.6-0.2,0.8-0.5C35.3,53.5,35.3,53.2,35.2,52.9"/>
	<path class="st1" d="M38.5,38.1c-0.1-1.1-1.1-2.2-2.3-1.9c-0.4,0.1-0.2,0.8,0.2,0.6c0.4-0.1,0.8,0.1,1.1,0.4
		c0.3,0.3,0.4,0.8,0.4,1.3c0,0.9-0.5,1.8-1,2.5c-1.1,1.5-2.8,2.4-4.6,2.8c-1.1,0.2-2.3,0.2-3.5,0.1c-0.4-0.1-0.4,0.6,0,0.7
		c2.3,0.3,4.7,0,6.6-1.3c0.8-0.6,1.6-1.3,2.1-2.1C38.1,40.3,38.6,39.2,38.5,38.1"/>
	<path class="st1" d="M35.8,38.6c-0.2-1-1.1-1.8-2.2-1.7c-0.4,0-0.4,0.7,0,0.7c0.9-0.1,1.6,0.6,1.5,1.5c0,0.9-0.9,1.4-1.5,1.8
		c-0.8,0.5-1.6,1-2.5,1.1c-1,0.1-2-0.1-2.9,0.1c-0.8,0.2-1.6,0.7-1.8,1.6c-0.1,0.4,0.6,0.6,0.6,0.2c0.2-0.8,1.1-1.2,1.9-1.2
		c0.6,0,1.2,0,1.7,0c0.5,0,1-0.1,1.5-0.3c0.9-0.3,1.8-0.9,2.5-1.5C35.5,40.3,36,39.5,35.8,38.6"/>
	<path class="st3" d="M38.5,46c-0.5-0.3-1.2-0.4-1.8-0.3c-0.7,0.1-1.4,0.3-2.1,0.5c-0.7,0.2-1.3,0.6-1.7,1.2
		c-0.2,0.4-0.3,0.7-0.2,1.1c-0.1,0-0.3,0-0.4,0c-0.2,0-0.3,0.2-0.5,0.3c0,0,0,0,0,0c-0.1-0.2-0.3-0.4-0.5-0.6
		c-0.5-0.4-1.1-0.5-1.8-0.5c-1,0-2.2,0.2-3.1,0.9c-0.4,0.2-0.8,0.5-1,0.9C25,50,25,50.7,25.3,51.2c0.1,0.4,0.4,0.7,0.7,1
		c0.3,0.2,0.7,0.3,1.1,0.3c0.6,0.1,1.3-0.1,1.9-0.2c0.6-0.2,1.2-0.4,1.7-0.7c0.2-0.1,0.4-0.2,0.6-0.4c0.4-0.4,0.6-0.9,0.6-1.4
		c0-0.1,0.1-0.3,0.2-0.4c0.1-0.1,0.2-0.1,0.4-0.1c0.1,0,0.2,0.1,0.4,0.2c0.1,0.3,0.4,0.5,0.6,0.7c0.6,0.4,1.3,0.3,2,0.2
		c0.7-0.1,1.3-0.3,2-0.5c0.5-0.2,1-0.4,1.5-0.8C39.9,48.2,39.6,46.6,38.5,46 M31,50.4c-0.5,0.6-1.6,0.8-2.3,1
		c-0.2,0.1-0.4,0.1-0.6,0.2c-0.1,0-0.3,0-0.4,0c-0.5,0-1.2-0.1-1.5-0.7c0-0.1,0-0.1,0-0.2c-0.1-0.5,0-0.9,0.3-1.3c0,0,0-0.1,0.1-0.1
		c0.2-0.1,0.4-0.2,0.6-0.3c0.5-0.2,1-0.3,1.5-0.4c0.5-0.1,1-0.2,1.5-0.1C30.9,48.8,31.6,49.7,31,50.4 M38.5,48.4
		c-0.5,0.6-1.6,0.8-2.3,1c-0.5,0.1-1,0.3-1.4,0.3c-0.3,0-0.6-0.1-0.8-0.3c-0.3-0.2-0.4-0.5-0.4-0.9v0c0,0,0,0,0,0
		c0-0.4,0.1-0.7,0.3-1c0.2-0.2,0.5-0.3,0.7-0.4c0.5-0.2,1-0.3,1.5-0.4c0.5-0.1,1-0.2,1.5-0.1C38.4,46.7,39.1,47.6,38.5,48.4"/>
	<path class="st1" d="M193.3,71.1c0-0.1-0.1-0.1-0.1-0.2c0,0,0,0,0,0c-0.1,0-0.2,0-0.3,0c-0.4,0.5-0.9,1-1.4,1.5
		c-0.6,0.5-1.2,0.9-1.8,1.4c-0.7,0.5-1.4,1.1-2.1,1.6c-0.9-0.5-1.8-0.9-2.8-1.1c-0.2-0.1-0.4,0.1-0.4,0.3c-0.1,1.1-0.2,2.1-0.2,3.2
		c-0.1,0.1-0.3,0.2-0.4,0.3l-1.8-2.3c-0.1-0.1-0.3-0.1-0.4-0.1c-0.5,0.3-0.6,0.9-0.8,1.4c-0.2,0.6-0.3,1.2-0.4,1.8
		c-0.1,0.3-0.1,0.6-0.2,0.9c-0.2,0.1-0.5,0.1-0.7,0.2c-0.5-1-1-2.1-1.5-3.2c0.5-0.3,0.9-0.6,1.2-1c0.5-0.5,1-1.1,1.5-1.7
		c0.5-0.6,1-1.2,1.5-1.7c0.5-0.6,1-1.1,1.4-1.7c0.2-0.2,0.3-0.5,0.1-0.8c-0.1-0.3-0.5-0.3-0.8-0.3c-0.6,0-1.2,0.4-1.7,0.7
		c-1,0.7-1.9,1.5-2.6,2.5c-0.3,0.5-0.6,1-0.8,1.6c0-0.2,0-0.5,0-0.7c-0.1-0.8-0.2-1.8-0.9-2.4c-0.3-0.3-0.6-0.5-1-0.4
		c-0.4,0.1-0.7,0.5-0.8,0.9c-0.3,0.8-0.2,1.6,0.1,2.3c0.4,1,1.3,1.8,1.8,2.8c-0.5,1.1-1,2.2-1.4,3.4c-1.3,0-2.6-0.1-3.9-0.1
		c-0.4,0-0.4,0.6,0,0.6c1.2,0.1,2.5,0.1,3.7,0.1c-0.1,0.4-0.3,0.8-0.4,1.3c-0.2,0-0.4,0.1-0.5,0.3c-0.1,0.1-0.1,0.3-0.1,0.4
		c0,0,0,0.1,0,0.1c0,0.3,0.2,0.6,0.4,0.7c0.2,0.2,0.6,0.2,0.8,0c0.2-0.2,0.4-0.4,0.4-0.7c0-0.1,0-0.2-0.1-0.3c0,0,0,0,0,0
		c0,0,0,0,0,0c0-0.1-0.1-0.1-0.1-0.2c0,0,0,0,0,0c-0.1-0.1-0.1-0.1-0.2-0.2c0.1-0.5,0.3-0.9,0.5-1.4c1,0,2-0.1,3-0.3
		c0.2,0.4,0.4,0.9,0.6,1.3c0,0,0,0.1,0,0.1c0,0-0.1,0-0.1,0c-0.2,0.1-0.3,0.3-0.3,0.5c0,0.1,0,0.2,0,0.3c0,0.2,0.1,0.3,0.2,0.4
		c0.1,0,0.2,0.1,0.3,0.1c0.1,0,0.1,0.1,0.2,0.1c0.3,0.1,0.6,0,0.8-0.3c0.2-0.3,0.1-0.6-0.1-0.9c0-0.1-0.1-0.1-0.2-0.1
		c-0.1-0.1-0.1-0.2-0.2-0.3c0.1-0.5,0.2-1,0.3-1.5c0.1,0,0.2-0.1,0.3-0.1c0.9-0.3,1.7-0.7,2.6-1.2c0.2,0.3,0.4,0.5,0.6,0.8
		c0,0,0,0,0,0c-0.1,0.1-0.2,0.2-0.2,0.3c-0.1,0.3,0,0.6,0.3,0.7c0,0,0,0,0.1,0c0,0,0,0,0,0c0.1,0,0.1,0.1,0.2,0.1c0,0,0.1,0,0.1,0
		c0.1,0,0.3-0.1,0.4-0.2c0,0,0.1-0.1,0.1-0.2c0,0,0,0,0-0.1c0.1-0.1,0.1-0.3,0-0.4c0-0.1-0.1-0.2-0.1-0.2c0-0.1-0.1-0.1-0.1-0.1
		c0,0,0,0,0,0c-0.1-0.5-0.1-1-0.1-1.5c0.2-0.2,0.5-0.3,0.7-0.5c0.7-0.5,1.4-1,2.1-1.5c0.2,0.1,0.5,0.3,0.7,0.4c0,0,0,0.1-0.1,0.1
		c0,0.1,0,0.1,0,0.2c0,0.1,0,0.2,0.1,0.3c0,0.1,0.1,0.1,0.1,0.2c0.1,0.1,0.1,0.1,0.2,0.1c0,0,0,0,0,0l0,0c0,0,0,0,0.1,0
		c0.1,0,0.3,0,0.4-0.1c0.1,0,0.1-0.1,0.2-0.1c0,0,0.1-0.1,0.1-0.2c0.1-0.1,0.1-0.3,0.1-0.4c0,0,0,0,0-0.1c0,0,0-0.1,0-0.1
		c0-0.1-0.1-0.1-0.1-0.1c-0.1-0.1-0.1-0.1-0.2-0.1c0,0-0.1,0-0.2,0c0,0,0,0,0,0c-0.3-0.2-0.5-0.3-0.8-0.5c0.6-0.4,1.2-0.9,1.8-1.3
		c0.8-0.6,1.7-1.2,2.4-1.9c0.2-0.2,0.4-0.4,0.6-0.6C193.2,71.8,193.4,71.4,193.3,71.1 M181,71.3c0.4-0.3,0.9-0.6,1.3-0.9
		c0.2-0.1,0.4-0.2,0.7-0.2c0,0,0.2,0,0.3,0c0,0.1-0.2,0.3-0.2,0.3c-0.9,1-1.7,2-2.6,3c-0.5,0.6-1,1.1-1.5,1.6
		c-0.3,0.3-0.6,0.7-1,0.9C178.4,74.2,179.5,72.5,181,71.3 M175.6,72.5c0-0.3,0.1-0.6,0.3-0.9c0.1-0.1,0.2-0.3,0.4-0.2
		c0.1,0,0.3,0.2,0.4,0.3c0.5,0.6,0.6,1.4,0.6,2.1c0.1,0.7,0,1.5,0,2.2C176.6,74.9,175.6,73.9,175.6,72.5 M176.8,80.2
		c-0.2,0-0.3,0-0.5,0c0.4-1,0.8-2,1.2-3c0.4,0.9,0.9,1.8,1.3,2.7C178.2,80.1,177.5,80.2,176.8,80.2 M180,80.9
		c-0.1-0.1-0.1-0.3-0.2-0.4c0.1,0,0.2,0,0.3-0.1C180,80.5,180,80.7,180,80.9 M181.2,79.4c-0.1,0-0.2,0.1-0.3,0.1c0-0.1,0-0.1,0-0.2
		c0.1-0.5,0.3-1.1,0.4-1.6c0.1-0.3,0.1-0.5,0.2-0.8c0-0.2,0.1-0.4,0.2-0.5c0.5,0.7,1,1.3,1.5,2C182.6,78.8,181.9,79.2,181.2,79.4
		 M185.4,77c-0.2,0.2-0.4,0.3-0.6,0.4c0-0.8,0.1-1.6,0.2-2.4c0.7,0.2,1.4,0.5,2,0.8C186.5,76.2,186,76.6,185.4,77"/>
	<path class="st1" d="M163.9,133.3c-0.1-0.1-0.3-0.1-0.4-0.1c-0.1,0-0.3,0-0.4,0c-0.1,0-0.3,0-0.4,0c-0.8-0.1-1.5-0.1-2.3-0.2
		c-1-0.1-1.9-0.2-2.9-0.4c-0.3-1-0.8-2-1.3-3c-0.1-0.2-0.4-0.2-0.5-0.1c-0.9,0.8-1.8,1.5-2.6,2.4c-0.2,0-0.4-0.1-0.5-0.1l0.3-3.2
		c0-0.1-0.1-0.3-0.2-0.3c-0.6-0.1-1.1,0.2-1.6,0.5c-0.6,0.3-1.1,0.7-1.7,1.1c-0.3,0.2-0.5,0.3-0.8,0.5c-0.2-0.1-0.5-0.3-0.7-0.4
		c0.4-1.2,0.8-2.4,1.2-3.6c0.6,0.1,1.1,0.2,1.7,0.1c0.8,0,1.7-0.1,2.5-0.2c0.8-0.1,1.6-0.2,2.5-0.3c0.8-0.1,1.6-0.1,2.4-0.3
		c0.3-0.1,0.6-0.2,0.7-0.5c0.1-0.3-0.1-0.6-0.3-0.8c-0.5-0.4-1.2-0.6-1.8-0.7c-1.3-0.3-2.7-0.2-4,0.1c-0.6,0.1-1.2,0.3-1.8,0.6
		c0.2-0.2,0.3-0.4,0.5-0.6c0.6-0.7,1.2-1.6,1.1-2.6c0-0.4-0.2-0.8-0.5-1c-0.4-0.2-0.9-0.1-1.3,0.1c-0.8,0.4-1.3,1.2-1.6,2
		c-0.4,1.1-0.4,2.4-0.7,3.5c-1.3,0.5-2.5,1-3.7,1.6c-1-1-2-2-3-3c-0.3-0.3-0.8,0.2-0.5,0.5c0.9,1,1.8,2,2.8,2.9
		c-0.4,0.2-0.9,0.5-1.3,0.7c-0.2-0.1-0.4-0.2-0.6-0.1c-0.2,0-0.3,0.1-0.4,0.3c0,0-0.1,0.1-0.1,0.1c-0.2,0.2-0.3,0.6-0.2,0.9
		c0.1,0.3,0.3,0.6,0.7,0.6c0.3,0.1,0.7,0,0.9-0.3c0.1-0.1,0.2-0.2,0.2-0.3c0,0,0,0,0-0.1c0,0,0,0,0,0c0-0.1,0-0.2,0-0.3c0,0,0,0,0,0
		c0-0.1,0-0.2,0-0.3c0.5-0.3,0.9-0.5,1.4-0.8c0.8,0.7,1.7,1.4,2.6,2c-0.2,0.5-0.3,1-0.5,1.5c0,0-0.1,0.1-0.1,0.1c0,0-0.1,0-0.1-0.1
		c-0.2-0.1-0.4,0-0.6,0.1c-0.1,0.1-0.1,0.2-0.2,0.3c-0.1,0.1-0.2,0.3-0.1,0.5c0,0.1,0.1,0.2,0.1,0.3c0,0.1,0,0.1,0.1,0.2
		c0.2,0.3,0.5,0.5,0.8,0.4c0.3-0.1,0.6-0.4,0.6-0.7c0-0.1,0-0.2,0-0.2c0-0.1,0.1-0.3,0.1-0.4c0.5-0.3,0.9-0.7,1.4-1
		c0.1,0.1,0.2,0.1,0.4,0.2c0.9,0.4,1.9,0.7,2.9,1l-0.1,1.1c0,0,0,0,0,0c-0.1,0-0.3,0-0.4,0.1c-0.3,0.1-0.4,0.5-0.3,0.8
		c0,0,0,0,0,0.1c0,0,0,0,0,0c0,0.1,0.1,0.2,0.1,0.2c0,0,0.1,0.1,0.1,0.1c0.1,0.1,0.3,0.1,0.4,0.1c0.1,0,0.1,0,0.2,0c0,0,0.1,0,0.1,0
		c0.2-0.1,0.3-0.2,0.4-0.3c0-0.1,0.1-0.2,0.1-0.3c0-0.1,0-0.1,0-0.2c0,0,0,0,0,0c0.3-0.5,0.6-0.9,1-1.3c0.3,0.1,0.6,0.1,1,0.1
		c0.9,0.1,1.8,0.3,2.8,0.4c0.1,0.3,0.2,0.6,0.2,0.9c-0.1,0-0.1,0-0.2,0.1c-0.1,0-0.1,0.1-0.2,0.1c-0.1,0.1-0.1,0.2-0.1,0.3
		c0,0.1,0,0.1,0,0.2c0,0.1,0,0.2,0.1,0.3c0,0,0,0,0,0c0,0,0,0,0,0c0,0,0,0,0,0c0.1,0.1,0.2,0.2,0.4,0.3c0.1,0,0.1,0,0.2,0
		c0.1,0,0.1,0,0.2,0c0.2-0.1,0.3-0.1,0.4-0.3c0,0,0,0,0-0.1c0,0,0-0.1,0.1-0.1c0-0.1,0-0.1,0-0.2c0-0.1,0-0.2-0.1-0.3
		c0-0.1-0.1-0.1-0.1-0.1c0,0,0,0,0,0c-0.1-0.3-0.1-0.7-0.2-1c0.8,0.1,1.6,0.2,2.4,0.3c0.9,0.1,1.8,0.2,2.8,0.3v0
		c0.1,0,0.2,0,0.4,0.1c0.1,0,0.3,0,0.4,0c0.1,0,0.3-0.1,0.3-0.2C164.1,133.6,164,133.4,163.9,133.3 M155.4,124.3
		c0.6,0,1.1,0.1,1.7,0.3c0.3,0.1,0.5,0.2,0.7,0.3c0,0,0.2,0.2,0.2,0.2c-0.1,0.1-0.4,0.1-0.4,0.1c-1.4,0.2-2.9,0.3-4.3,0.5
		c-0.8,0.1-1.6,0.2-2.4,0.2c-0.5,0-1,0.1-1.5,0C151.2,124.7,153.4,124.2,155.4,124.3 M150.3,121.4c0.2-0.2,0.5-0.4,0.9-0.5
		c0.2,0,0.4-0.1,0.5,0.1c0.1,0.1,0.1,0.3,0.1,0.5c0,0.8-0.6,1.5-1.1,2.1c-0.5,0.6-1.1,1.2-1.7,1.8
		C149.2,124,149.2,122.4,150.3,121.4 M145.5,128.4c-0.1-0.1-0.3-0.2-0.4-0.4c1-0.5,2.1-1,3.2-1.4c-0.3,1-0.7,2.1-1,3.1
		C146.6,129.3,146,128.9,145.5,128.4 M147.5,131.2c0-0.2,0.1-0.3,0.1-0.5c0.1,0.1,0.2,0.1,0.3,0.2
		C147.7,131,147.6,131.1,147.5,131.2 M151.9,131.7c-0.8-0.2-1.6-0.4-2.4-0.8c-0.1-0.1-0.2-0.1-0.3-0.2c0.1,0,0.1-0.1,0.2-0.1
		c0.5-0.3,1-0.6,1.5-1c0.3-0.2,0.5-0.3,0.8-0.5c0.2-0.1,0.4-0.2,0.6-0.3C152,129.9,151.9,130.8,151.9,131.7 M154.7,132.2
		c-0.3,0-0.6-0.1-0.8-0.1c0.6-0.6,1.3-1.2,1.9-1.8c0.4,0.7,0.7,1.4,1,2.2C156.1,132.4,155.4,132.3,154.7,132.2"/>
	<path class="st2" d="M92,131.1c-2.9-3.4-7-6.1-10.9-8.3c-0.2-0.1-0.4-0.1-0.5-0.2c-0.8-0.5-1.7-0.9-2.7-1.1c-2.3-0.4-4.7,0.4-6.9,1
		c-2.6,0.7-5.3,1.5-7.9,2.2c-0.1,0-0.2,0.1-0.3,0.1c-0.2,0-0.5,0.1-0.7,0.2c-0.7,0.1-1.4,0.2-1.8,0.8c-0.6,0.9-0.4,2.5-0.3,3.5
		c0,1.3,0,2.8,0.3,4c0.2,0.7,0.6,1,1.2,1.2c0.1,0.1,0.1,0.1,0.2,0.2c4.4,2.5,8.6-0.4,12.8-1.8c1.7,2.7,4.1,4.8,6.6,6.6
		c1.2,0.8,2.6,1.1,3.7,0c0.1-0.1,0.2-0.2,0.2-0.3c1,0.5,2.1,0.6,2.8-0.5c0.3-0.4,0.4-0.9,0.3-1.4c0.8,0.3,1.5,0.3,2.3-0.2
		c1-0.8,0.9-1.8,0.3-2.8C92.5,134.4,93.1,132.4,92,131.1"/>
	<path class="st1" d="M71.7,129.4c2.5-1.3,5,0.7,6.6,2.5c1.8,2,3.5,3.9,5.5,5.7c0.3,0.3,0.8-0.2,0.5-0.5c-1.1-1-2.2-2-3.3-3.2
		c-1-1-1.9-2.2-2.9-3.2c-1.8-1.8-4.4-3.2-6.8-2C71,129.1,71.4,129.6,71.7,129.4"/>
	<path class="st1" d="M72.7,126.9c1.4-0.3,2.8-0.3,4.2,0.2c1.4,0.4,2.5,1.3,3.6,2.3c2.2,2,4.3,4.3,6.4,6.4c0.3,0.3,0.8-0.2,0.5-0.5
		c-1.2-1.2-2.4-2.4-3.6-3.6c-1.1-1.1-2.2-2.3-3.4-3.3c-2.2-1.9-5-2.8-7.9-2.1C72.1,126.3,72.2,127,72.7,126.9"/>
	<path class="st1" d="M73.7,124.3c3-0.9,5.9,0.6,8.2,2.4c2.5,1.9,4.8,3.9,7,6.1c0.3,0.3,0.8-0.2,0.5-0.5c-2.4-2.3-4.8-4.4-7.5-6.4
		c-2.4-1.8-5.4-3.2-8.4-2.3C73.2,123.7,73.3,124.4,73.7,124.3"/>
</g>
</svg>
