<?xml version="1.0" encoding="utf-8"?>
<!-- Generator: Adobe Illustrator 20.1.0, SVG Export Plug-In . SVG Version: 6.00 Build 0)  -->
<svg version="1.1" id="Layer_1" xmlns="http://www.w3.org/2000/svg" xmlns:xlink="http://www.w3.org/1999/xlink" x="0px" y="0px"
	 viewBox="0 0 103.2 186.9" style="enable-background:new 0 0 103.2 186.9;" xml:space="preserve">
<style type="text/css">
	.st0{fill:#3D55CC;}
	.st1{fill:#191919;}
	.st2{fill:#FF4133;}
	.st3{fill:#FFBB00;}
	.st4{fill:#303C78;}
	.st5{fill:#F5EBE0;}
	.st6{fill:#25B89D;}
	.st7{fill:#CC9966;}
	.st8{fill:#DADFF5;}
	.st9{clip-path:url(#SVGID_2_);fill:#25B89D;}
	.st10{clip-path:url(#SVGID_2_);fill:#F5EBE0;}
</style>
<g>
	<path class="st6" d="M88.3,128.5c-4.1,4.2-10.1,4.2-15.3,2.4c-1.4-0.5-2.7-1-4-1.6c-0.3-0.1-0.6-0.2-0.9-0.4
		c-0.1,0-0.1-0.1-0.2-0.1c0,0-0.1,0-0.2-0.1c-0.6-0.2-1.2-0.4-1.8-0.6c-0.6-0.2-1.2-0.3-1.8-0.5c-0.2-0.1-0.5-0.1-0.7-0.1
		c0.5,0.1-0.3,0-0.5,0c-0.5,0-1,0-1.5,0c0,0-0.5,0.1-0.6,0.1c-0.3,0.1-0.6,0.2-0.9,0.2c-0.6,0.2-1.2,0.4-1.7,0.6
		c-0.2,0.1-0.4,0.2-0.6,0.3c-0.1,0-0.5,0.2-0.6,0.2c-1.3,0.6-2.6,1.2-3.9,1.7c-2.5,0.9-5.2,1.3-7.8,0.8c-2.7-0.5-5-2.2-6.5-4.5
		c-1.3-1.9-1.9-4.1-2.8-6.2c0-0.1-0.1-0.2-0.1-0.3c-0.1-0.2-0.2-0.3-0.3-0.5c-0.2-0.5-0.5-0.9-0.8-1.3c-0.2-0.4-0.5-0.8-0.8-1.1
		c-0.1-0.1-0.2-0.2-0.2-0.2c-0.2-0.2-0.3-0.4-0.5-0.6c-0.4-0.4-0.7-0.7-1.1-1c-0.2-0.2-0.4-0.3-0.6-0.5c0,0,0,0-0.1-0.1c0,0,0,0,0,0
		c-0.9-0.6-1.7-1.1-2.6-1.5c-0.2-0.1-0.4-0.2-0.6-0.3c-0.1,0-0.2,0-0.2-0.1c-0.5-0.2-1-0.3-1.5-0.4c-0.5-0.1-1-0.2-1.5-0.3
		c-0.2,0-0.3,0-0.5-0.1c0.1,0,0.3,0,0.4,0.1c-0.2-0.1-0.6,0-0.8,0c-2.7-0.1-5.3,0.5-7.9,0.7c-5,0.5-10.5-0.6-13.5-4.9
		c-3.2-4.5-1.6-10.7,1.9-14.5c3.4-3.8,8.4-5.4,13-7.4c0.2-0.1,0.4-0.2,0.6-0.3c0.1,0,0.5-0.2,0.5-0.3c0.5-0.3,1.1-0.5,1.6-0.8
		c0.5-0.3,1-0.6,1.5-1c0.2-0.1,0.3-0.2,0.5-0.4c-0.1,0,0.4-0.3,0.5-0.4c2-1.7,3.8-3.7,5.8-5.3c3.8-3,8.4-4.6,12.9-6.1
		c2.2-0.7,4.4-1.5,6.5-2.3c0.2-0.1,0.3-0.1,0.5-0.2c0.1-0.1,0.4-0.2,0.5-0.2c0.5-0.2,1-0.5,1.5-0.7c1-0.5,1.9-1.1,2.8-1.7
		c0.9-0.6,1.8-1.2,2.6-1.9c0.1-0.1,0.9-0.6,0.1-0.1c0.2-0.2,0.4-0.3,0.6-0.5c0.4-0.4,0.8-0.7,1.2-1.1c0.8-0.8,1.6-1.6,2.4-2.4
		c3.6-3.1,6.5-7,9-10.9c0.7-1.1,1.4-2.1,2.4-2.9c0.1,0,0.5-0.4,0.8-0.5c0.1,0,0.2-0.1,0.3-0.1c0,0,0.2-0.1,0.3-0.1
		c0.1,0,0.1,0,0.2-0.1c0.2,0.1,0.4,0.1,0.6,0.2c0,0,0,0,0,0c0.1,0,0.3-0.1,0.4-0.1c3-0.5,5.9-0.1,8.4,1.8c1.9,1.4,3.1,3.7,3.6,6
		c0.5,2.3,0.6,4.7,0.7,7c0,2.9,0,5.7-0.4,8.6c-0.4,2.5-1.2,5-2,7.4c-0.4,1.2-0.6,2.4-0.9,3.7c0,0.1,0,0.1,0,0.2c0,0,0,0.1,0,0.2
		c0,0.3,0,0.6,0,1c0,0.6,0,1.3,0,1.9c0,0.5,0.1,1.1,0.2,1.6c0-0.1,0.1,0.6,0.1,0.6c0.1,0.3,0.1,0.6,0.2,0.9c0.3,1.3,0.6,2.5,1.1,3.8
		c0.8,2.5,1.8,4.9,2.9,7.4c2.1,4.9,4,9.9,4.5,15.2C93.1,119,91.9,124.7,88.3,128.5"/>
	<path class="st0" d="M41,126.7c0,0,0-0.1,0-0.1c-0.2-0.1-0.5,0.1-0.6,0.1c-0.2,0.1-0.5,0.1-0.7,0.2c-0.3,0.1-0.6,0.2-1,0.2
		c0,0,0,0.1,0.1,0.1c0.2,0.2,0.3,0.4,0.5,0.7C39.9,127.6,40.4,127.2,41,126.7C41,126.8,41,126.8,41,126.7"/>
	<path class="st0" d="M57.4,127.5c-3.6,2.1-8.1,3.9-12.3,3.9c0.8-0.7,1.7-1.3,2.5-1.9c0.8-0.7,1.6-1.5,2.4-2.3
		c0.6-0.6,1.1-1.2,1.6-1.8c0.5-0.6,1-1.2,1.4-2c0-0.1,0.1-0.1,0.1-0.2c0-0.1,0-0.1,0-0.2c0-0.1-0.1-0.1-0.2-0.1
		c-0.3,0-0.5,0.2-0.7,0.4c-0.2,0.2-0.5,0.3-0.7,0.5c-0.5,0.3-1,0.6-1.5,0.8c2.6-2.8,4.6-6.3,5.8-9.9c0.2-0.7-0.2-0.9-0.6-0.3
		c-0.3,0.5-0.7,1-1,1.4c-0.7,1.1-1.5,2.1-2.3,3.2c-2,2.6-4.1,5-6.6,7.2c-1.4,1.2-2.8,2.4-4.4,3.4c1.3,1.1,2.7,1.8,4.4,2.1
		c2.6,0.5,5.3,0.1,7.8-0.8c1-0.4,1.9-0.8,2.8-1.2c0.7-0.5,1.4-1,2-1.6C58.2,127.8,57.8,127.3,57.4,127.5"/>
	<path class="st0" d="M35.6,117.1c0.6-0.7,1.1-1.4,1.5-2.2c0.2-0.4,0.4-0.8,0.6-1.2c0.2-0.4,0.4-0.8,0.4-1.2c0-0.1,0-0.2-0.1-0.2
		c-0.2-0.1-0.3,0.2-0.4,0.3c-1.1,1.2-2.4,2.3-3.9,2.8c0.1-0.1,0.2-0.3,0.3-0.4c0.1-0.1,0.2-0.3,0.3-0.4c0.2-0.3,0.4-0.6,0.5-0.9
		c0.4-0.6,0.7-1.3,0.9-2c0.1-0.2-0.2-0.4-0.4-0.2c-0.2,0.2-0.4,0.4-0.5,0.5c-1.2,1.1-2.5,2.1-3.9,3c0.2,0.1,0.5,0.3,0.7,0.4
		c0,0,0,0,0,0c0,0,0,0,0.1,0.1c0.2,0.2,0.4,0.3,0.6,0.5c0.4,0.3,0.8,0.7,1.1,1c0.2,0.2,0.4,0.4,0.5,0.6c0,0,0.1,0.1,0.2,0.2
		c0.1,0.1,0.2,0.3,0.4,0.5C34.9,118,35.3,117.5,35.6,117.1"/>
	<path class="st0" d="M82.3,120.8c0.2-0.3-0.1-0.6-0.4-0.4c-1.8,1.2-3.7,2-5.6,3.1c2.5-1.8,4.7-4.1,6.6-6.6c0.2-0.3-0.2-0.7-0.5-0.4
		c-1,0.9-1.9,1.7-3,2.5c-1.9,1.5-3.9,2.5-5.9,3.8c1.4-0.9,2.8-2.2,3.9-3.6c0.2-0.3-0.2-0.7-0.5-0.4c-1.7,1.5-3.6,2.8-5.6,4
		c1.3-1,2.4-2.2,3.4-3.5c0.2-0.3-0.2-0.7-0.5-0.4c-3.5,3.1-7.4,5.9-11.7,7.8c-0.3,0.1-0.2,0.6,0.1,0.6c0.7,0,1.4-0.1,2-0.3
		c-0.5,0.3-1,0.5-1.5,0.8c0.2,0,0.4,0.1,0.1,0c0.3,0,0.5,0.1,0.7,0.1c0.6,0.1,1.2,0.3,1.8,0.5c0.6,0.2,1.2,0.4,1.8,0.6
		c0.1,0,0.1,0,0.2,0.1c0,0,0.1,0,0.2,0.1c0.1,0.1,0.3,0.1,0.4,0.2c0.4-0.1,0.7-0.3,1.1-0.4c-0.2,0.2-0.4,0.4-0.6,0.6c0,0,0,0,0,0
		c0.6,0.2,1.1,0.5,1.7,0.7C76,127.5,80.2,123.5,82.3,120.8"/>
	<path class="st0" d="M42.5,122c0.2-0.2-0.1-0.5-0.3-0.4c-1.6,1-3.3,1.8-5.1,2.5c0.3,0.6,0.5,1.3,0.8,1.9
		C39.6,124.8,41.2,123.4,42.5,122"/>
	<path class="st0" d="M37.7,121.3c-0.5,0.2-0.9,0.4-1.4,0.5c0.1,0.3,0.3,0.7,0.4,1c0.4-0.4,0.8-0.8,1.2-1.1
		C38.1,121.5,37.9,121.2,37.7,121.3"/>
	<path class="st0" d="M44.5,104.7c0,0.7-0.1,1.4-0.3,2.1c-0.1,0.3,0.2,0.5,0.5,0.3c1-0.7,1.8-1.5,2.5-2.4c0.1,1.6-0.4,3.4-1.2,4.9
		c-0.1,0.3,0.2,0.6,0.4,0.4c1.9-1.2,3.7-2.6,5.1-4.4c0,0.6-0.2,1.2-0.4,1.7c-0.1,0.3,0.2,0.5,0.5,0.3c1.5-1.3,2.9-2.7,4.1-4.5
		c1.2-1.8,2.4-3.8,3-5.9c0.1-0.3-0.3-0.5-0.5-0.3c-0.8,0.7-2,1.4-2.4,1.6c-1.1,0.6-2.4,1.1-3.5,1.6c0.8-0.6,1.5-1.3,2.1-2.1
		c0.3-0.4,0.6-0.8,0.9-1.2c0.1-0.1,0.5-0.8,0.3-1c0,0-0.1,0-0.2,0c-0.1,0-0.3,0.3-0.4,0.3c-2.2,2-4.7,3.4-7.2,4.8
		c1.4-1.7,2.8-3.7,3.9-5.8c0.2-0.3-0.2-0.6-0.5-0.3c-1.7,1.7-3.7,3.3-5.7,4.5c0.7-0.8,1.3-1.8,1.7-2.8c0.1-0.3-0.2-0.5-0.5-0.4
		c-1.6,1.2-3.6,2.5-5.2,3.5c2.9-2.3,5.6-5.4,7.8-8.5c0.2-0.3-0.2-0.6-0.4-0.4c-1.6,1.3-3.4,2.4-5,3.5c1-1.3,1.7-2.8,2.1-4.3
		c0.1-0.3-0.3-0.5-0.5-0.3c-2.5,3.1-5.2,6-8.5,8.4c0.4-0.6,0.7-1.3,0.9-2c0.1-0.3-0.3-0.5-0.5-0.3c-0.6,0.5-1.2,1-1.8,1.4
		c0.5-1.1,1-2.2,1.3-3.3c0.1-0.3-0.3-0.5-0.5-0.3c-0.3,0.3-0.7,0.6-0.8,0.8c-0.1,0.2-0.3,0.3-0.4,0.5c-1.2,1.1-2.6,2.6-4.2,3.6
		c-0.3,0.2-0.1,0.6,0.2,0.5c0.7-0.2,1.3-0.4,2-0.7c-0.1,0.4-0.5,0.8-0.7,1.2c-0.3,0.5-0.6,0.9-0.9,1.3c-0.3,0.4-0.7,0.8-1.1,1.2
		c-0.2,0.1-0.4,0.2-0.5,0.4c-0.2,0.3,0,0.4,0.3,0.3c0.9-0.2,1.8-0.7,2.6-1.2c-0.5,1-1.1,1.9-1.9,2.8c-0.2,0.3,0.1,0.6,0.4,0.4
		c1.2-0.7,2.3-1.5,3.3-2.6c-0.3,0.6-0.6,1.2-1,1.8c-0.2,0.3,0.1,0.6,0.4,0.4c0.7-0.4,1.4-0.8,2-1.4c-0.6,1.6-1.6,2.9-2.8,4.1
		c-0.2,0.2,0,0.6,0.3,0.5c0.9-0.4,1.8-1,2.5-1.7c-0.5,1.5-1.2,2.9-2.1,4.2c-0.2,0.3,0.2,0.6,0.4,0.4c1.2-0.9,2.4-1.9,3.5-3
		c0,0.6,0,1.2-0.1,1.9c0,0.1-0.1,0.6-0.2,1.1c-0.1,0.3,0.2,0.5,0.4,0.3C40.5,109.4,42.7,107.1,44.5,104.7"/>
	<path class="st0" d="M31.1,112c0.1-0.3,0.2-0.7,0.1-0.9c-0.1-0.2-0.5,0.3-0.7,0.4c-0.3,0.2-0.5,0.4-0.8,0.5
		c-0.3,0.2-0.5,0.3-0.8,0.5c-0.2,0.1-0.7,0.3-0.8,0.4c1.4-1.9,2.6-4.1,3.5-6.3c0.1-0.3-0.2-0.4-0.4-0.2c-1.7,2.2-4.5,4.2-7.1,5.3
		c0.9-0.9,1.6-1.9,2.2-3c0.1-0.2-0.1-0.5-0.4-0.4c-0.3,0.1-0.6,0.2-1,0.3c1-0.8,1.9-1.9,2.5-3c0.1-0.2-0.1-0.5-0.4-0.4
		c-1.1,0.6-2.2,1.1-3.4,1.5c1.4-1.5,2.7-3.3,3.6-5.1c0.1-0.2-0.2-0.5-0.4-0.3c-1.4,1.5-3.1,2.8-4.7,3.9c0.9-1,1.8-2,2.4-3.2
		c0.1-0.3-0.2-0.5-0.4-0.3c-1.6,1.9-3.6,3.7-5.6,4.9c0.4-0.5,1-1.1,1.6-1.7c0.2-0.2-0.1-0.5-0.3-0.4c-3.8,2.3-7.3,4.8-10.4,7.8
		c-0.2,0.2,0,0.6,0.4,0.5c2.3-1.3,4.7-2.3,7.2-3.2c-0.8,0.8-1.9,1.9-2.9,2.8c-0.2,0.2,0,0.6,0.3,0.5c1.2-0.6,2.5-1.1,3.7-1.7
		c1.1-0.6,2.1-1.2,3.2-1.9c-0.5,0.9-1.2,1.8-2,2.5c-0.2,0.2,0,0.6,0.3,0.5c0.8-0.4,1.5-0.9,2.2-1.5c-0.3,0.7-0.7,1.3-1.1,2
		c1.2-0.1,2.3-0.2,3.5-0.2c0.2,0,0.6,0,0.8,0l-0.4,0c0.2,0,0.3,0,0.5,0.1c0.5,0.1,1,0.2,1.5,0.3c0.5,0.1,1,0.3,1.5,0.4
		c0,0,0.1,0,0.2,0.1c0.2,0.1,0.4,0.2,0.6,0.3c0.5,0.2,0.9,0.5,1.3,0.7c0.2-0.6,0.4-1.1,0.6-1.7C30.9,112.7,31,112.3,31.1,112"/>
	<path class="st0" d="M55.7,106.3c-1.9,3.4-4.8,6-8.3,7.8c0.7-0.3,1.4-1.6,1.8-2.2c0.3-0.4,0.5-0.8,0.8-1.1c0.2-0.3-0.1-0.6-0.4-0.4
		c-0.2,0.1-0.4,0.3-0.6,0.4c-0.1,0.1-0.3,0.2-0.4,0.3c-1.4,0.9-2.8,1.7-4.3,2.3c-0.2,0.1-0.5,0.2-0.7,0.3c-0.1,0.1-0.3,0.1-0.5,0.2
		c0.1-0.3,0.2-0.5,0.2-0.8c0-0.2,0-0.5-0.2-0.6c-0.3-0.1-0.4,0.3-0.5,0.5c-0.2,0.2-0.4,0.5-0.6,0.7s-0.4,0.4-0.7,0.6
		c-0.2,0.1-0.4,0.3-0.7,0.5c0.2-0.4,0.3-0.7,0.4-1.1c0.1-0.3-0.4-0.5-0.5-0.2c-0.6,1.3-1.6,2.5-2.4,3.5c-0.1,0.1-0.2,0.2-0.3,0.4
		c-0.2,0.3,0.1,0.7,0.4,0.5c0.8-0.4,1.5-0.9,2.2-1.4c-0.5,0.7-1.1,1.4-1.7,2.1c-0.2,0.3,0.1,0.7,0.4,0.5c1.6-0.9,3.2-1.9,4.6-3.1
		c-0.9,1.3-2,2.8-3.2,3.9c-0.3,0.2-0.1,0.6,0.3,0.6c0.2,0,0.3-0.1,0.5-0.1c0.9-0.3,1.8-0.6,2.6-0.9c1.7-0.7,3.3-1.6,4.8-2.7
		c-0.4,0.6-1,1.3-1.4,1.9c-0.6,0.8-1.2,1.5-1.8,2.3c-0.2,0.2-1.8,1.7-1.6,2c0,0,0.1,0.1,0.1,0.1c0.1,0,0.3,0,0.4-0.1
		c2-0.9,3.6-2.7,5-4.2c2.6-2.7,4.9-5.8,6.1-9.3c0.3-0.8,0.5-1.6,0.6-2.5C56.3,106.2,55.8,106,55.7,106.3"/>
	<path class="st0" d="M90.9,122.7c0.4-0.5,0.8-0.9,1.2-1.4c0.3-1.2,0.5-2.5,0.6-3.8c-1.2,0.9-2.4,1.7-3.5,2.6
		c0.3-0.8,0.6-1.6,0.9-2.5c0.1-0.4,0.3-0.8,0.5-1.2c0.1-0.3-0.3-0.5-0.5-0.3c-1.4,1.5-2.9,3-4.5,4.4c-1.5,1.4-3,2.8-4.5,4.1
		c-0.2,0.2,0,0.6,0.3,0.5c1.6-0.7,3.2-1.4,4.7-2.2c-2.2,3.2-4.8,6.2-7.5,9.1c1.1,0,2.1,0,3.1-0.2c0.5-0.4,1-0.9,1.5-1.3
		C86,128.2,88.5,125.5,90.9,122.7"/>
	<path class="st0" d="M76.6,130.7c0.1-0.2-0.1-0.4-0.2-0.3c-0.5,0.4-0.9,0.7-1.4,1.1c0.2,0.1,0.5,0.1,0.7,0.2
		C76,131.4,76.3,131,76.6,130.7"/>
	<path class="st0" d="M74.2,130c-0.4,0.3-0.8,0.6-1.2,0.9c0.2,0.1,0.4,0.1,0.6,0.2c0.3-0.3,0.5-0.6,0.8-0.9
		C74.6,130.1,74.3,129.9,74.2,130"/>
	<path class="st0" d="M38.5,86.8c0.7,1.6,0.8,3.8,0.6,5.6c0,0.2,0.3,0.4,0.4,0.2c2.9-3.3,5.8-6.4,8.3-10c0.2,0.4,0.3,0.9,0.3,1.3
		c0,0.2,0.2,0.2,0.3,0.1c1.8-2.7,3.1-5.3,4.2-8.1c0.6-1.5,1.1-3.1,1.4-4.7c0.2-1.1,0.5-2.4,0.5-3.6c0-0.3-0.4-0.4-0.5-0.1
		c-1.4,3.5-3.1,7.1-5.5,10c0.2-0.9,0.2-1.8,0.1-2.6c0-0.3-0.4-0.3-0.5,0c-0.5,1.6-1.2,3.1-2,4.5c-0.8,1.3-1.6,2.7-2.8,3.7
		c-0.1-0.3-0.2-0.7-0.3-1c-0.1-0.2-0.4-0.2-0.4,0c-0.2,0.5-0.5,1-0.9,1.5c-0.2,0.3-0.4,0.5-0.7,0.8c-0.2,0.2-0.5,0.5-0.7,0.8
		c0.5-1.2,0.7-3.4,0.4-4.9c-0.1-0.3-0.5-0.3-0.6,0c-0.8,2-2.6,2.9-2.6,2.9s0.1-2,0-2.9c-0.1-0.9-0.2-1.9-0.3-2.8
		c0-0.3-0.4-0.3-0.5,0c-0.3,1-0.6,2-1,3c-2,5.8-4.6,11.3-8.2,16.2c-0.1,0.1-0.1,0.2-0.2,0.3c-0.7,0.9-1.4,1.8-2.1,2.7
		c-0.2,0.2,0.1,0.5,0.3,0.4C30.6,97.3,36.4,91.7,38.5,86.8"/>
	<path class="st0" d="M27.6,86.7c1.3-1.5,2.6-3,3.7-4.6c-0.3,1.8-1,3.7-1.7,5.5c-0.1,0.3,0.3,0.6,0.5,0.3c1.9-3.1,3.7-6.7,5.2-10.2
		c0.5-1.2,0.9-2.3,1.3-3.5c-0.9,0.4-1.9,0.8-2.8,1.2c-0.1,0.2-0.2,0.4-0.3,0.5c0,0,0-0.2,0.1-0.4c-0.6,0.3-1.1,0.6-1.7,0.9
		c-1.3,3.5-2.9,6.9-4.8,10C26.9,86.6,27.4,86.9,27.6,86.7"/>
	<path class="st0" d="M81,49.9c-0.6-0.9-1.4-1.5-2.2-2.1l-1.6,0l0.3,2.2c-0.5-0.7-1-1.5-1.5-2.2l-1.9,0c0.1,0.2,0.1,0.4,0.2,0.6
		c1.4,5.9,2.2,12,1.8,18.1c0,0.1,0,0.2,0,0.4c-0.1,1.1-0.2,2.3-0.4,3.4c0,0.3,0.3,0.4,0.5,0.2c2.8-4.8,4.6-12.6,3.7-17.9
		c1.2,0.8,2.2,2.1,3,3.5c0,0,0,0.1,0,0.1c0,0.2,0.1,0.3,0.2,0.3c0.1,0.2,0.2,0.4,0.3,0.5c0.1,0.2,0.4,0.2,0.5-0.1
		c0.3-1.9,0.6-3.8,0.9-5.8c0.4,0.5,0.7,1.1,1.1,1.7c-0.6-1.7-1.7-3.3-3.1-4.4c-0.4-0.3-0.8-0.5-1.1-0.7l-0.5,0
		C81.1,48.6,81,49.4,81,49.9"/>
	<path class="st0" d="M63.6,63.5c1-1.3,1.9-2.7,2.8-4.1c-0.7,2.4-1.5,4.7-2.4,7c-0.1,0.2,0.2,0.4,0.4,0.2c1.3-1.4,2.3-3.3,3.2-4.9
		c1.3-2.2,2.3-4.5,3-6.9c0.1,2.1-0.2,4.3-0.9,6.4c-0.1,0.3,0.3,0.4,0.4,0.2c2.1-4.1,2.8-8.8,2.4-13.4L71,48
		c-0.5,0.5-0.9,1.1-1.3,1.7c-0.2,0.8-0.5,1.7-0.8,2.5c0.1-0.5,0.1-1,0.1-1.5c-0.9,1.3-1.8,2.6-2.7,3.9c-0.9,3-1.9,5.9-3.1,8.7
		C63.1,63.5,63.4,63.7,63.6,63.5"/>
	<path class="st0" d="M86.9,63.3c-0.4,0.8-0.8,1.6-1.3,2.3c0.6-2.6,0.9-5.2,0.4-7.7c0-0.2-0.4-0.2-0.4,0c-0.4,2.7-1.4,5.3-2.7,7.7
		c0.7-1.5,0.9-3,0.8-4.6c0-0.2-0.3-0.3-0.4,0c-0.2,0.6-0.4,1.2-0.7,1.7c0-1.1-0.3-2.2-0.7-3.3c-0.1-0.2-0.4-0.2-0.4,0.1
		c-0.2,3.5-1.3,6.9-2.4,10.3c-0.1,0.2,0.2,0.4,0.3,0.2c0.8-0.8,1.5-1.8,1.9-2.9c-0.2,1.9-0.8,3.8-1.6,5.5c-0.1,0.2,0.2,0.4,0.4,0.2
		c0.5-0.6,1-1.2,1.3-1.9c-0.2,0.4-0.2,0.9-0.4,1.3c-0.1,0.5-0.3,0.9-0.5,1.3c-0.2,0.4-0.4,0.9-0.6,1.3c-0.1,0.2-0.4,0.5-0.1,0.7
		c0.2,0.2,0.5-0.2,0.6-0.3c0.5-0.5,1-1.1,1.4-1.7c0.5-0.6,0.9-1.2,1.3-1.9c0.2-0.3,0.4-0.6,0.6-1c0-0.1,0.1-0.2,0.2-0.3
		c0,0.9-0.1,1.9-0.2,2.8c-0.1,0.5-0.3,1.1-0.5,1.6c-0.1,0.2,0.1,0.3,0.2,0.3c-0.6,3.7-1.8,7.3-3.5,10.6c-1.3,2.5-2.7,5-4.4,7.3
		c-0.7,1-1.3,2-2.1,2.9c-0.4,0.6-0.8,1.1-1.3,1.7c-0.1,0.2-0.6,0.6-0.8,1c-0.7,0.4-1.4,0.7-2.2,1c1.2-1.3,1.9-2.5,2.6-3.9
		c0.1-0.3-0.2-0.6-0.5-0.3c-3.9,3.7-8.3,6.9-13.1,9.4c-0.3,0.2-0.2,0.6,0.2,0.6c2.8-0.5,5.4-1.2,8-2.4c-1.4,1.3-2.9,2.4-4.5,3.5
		c-0.7,0.5-1.5,1-2.3,1.5c-0.3,0.2-1.3,0.6-0.9,1c0.2,0.2,0.8,0,1.1,0c0.5-0.1,0.9-0.1,1.4-0.2c0.9-0.2,1.9-0.4,2.8-0.6
		c1.8-0.5,3.6-1.2,5.3-2.1c-0.2,0.1-0.7,0.9-0.8,1c-0.4,0.4-0.7,0.8-1.1,1.2c-0.7,0.8-1.5,1.6-2.3,2.3c-1.5,1.5-3.1,2.9-4.8,4.3
		c0.2-1.1,0.1-2.3-0.1-3.4c-0.1-0.3-0.5-0.3-0.6,0c-0.6,1.7-1.5,3.3-2.2,4.9c-0.3,0.7-0.6,1.3-1,2c-0.2,0.4-0.4,0.8-0.7,1.2
		c-0.2,0.3-0.5,0.6-0.5,0.9c0,0,0,0.1,0,0.1c0.3,0.4,2.7-1.3,3.1-1.5c1-0.7,2-1.4,2.9-2.3c-2.1,3.3-4.5,6.5-7.3,9.2
		c-0.3,0.3,0.1,0.7,0.4,0.5c2.7-1.7,5.5-3.7,7.7-5.7c-1.1,1.5-2.5,3-3.6,4.6c-0.2,0.2,0.1,0.5,0.3,0.5c0.3-0.1,0.5-0.1,0.6-0.2
		c0.7-0.3,1.3-0.6,2-0.9c1.3-0.6,2.5-1.3,3.7-2c1.9-1.2,3.7-2.5,5.4-4c0.2-0.2,0-0.6-0.3-0.5c-1.1,0.4-2.2,0.8-3.3,1.1
		c1.1-0.3,2-1.3,2.8-2c1.1-0.9,2.1-1.8,3.1-2.7c0.9-0.8,1.7-1.6,2.5-2.5c0.4-0.4,0.7-0.8,1.1-1.3c0,0,0-0.1,0.1-0.1
		c0.2-0.3-0.1-0.6-0.4-0.4c-3,1.9-6.6,3.3-9.9,4.5c1.6-1.2,2.9-2.6,4.2-4.1c0.2-0.2-0.1-0.6-0.4-0.5l-3.4,1.5
		c0.2-0.1,0.5-0.4,0.7-0.6c0.2-0.2,0.5-0.4,0.7-0.6c0.5-0.4,0.9-0.8,1.4-1.2c0.9-0.8,1.8-1.7,2.7-2.6c1.3-1.4,2.6-2.8,3.8-4.3
		c0.6-0.7,1.2-1.5,1.7-2.3c0.5-0.7,1.1-1.4,1.4-2.3c0.6-0.4,1.3-0.8,1.8-1.1c0,0.2,0.1,0.4,0.4,0.3c1.6-0.5,3.1-1.2,4.5-2.1
		c-3.1,4.6-7.1,9.1-11.2,12.8c-0.2,0.2,0,0.6,0.3,0.5c1.6-0.5,3.3-1.3,4.5-2.4c-0.5,0.7-1.1,1.5-1.8,2.2c-0.2,0.3,0.1,0.6,0.4,0.5
		c2.8-1.8,5.4-3.9,7.8-6.1c0.9-0.9,1.8-1.8,2.7-2.7c-0.1-0.3-0.3-0.6-0.4-0.9c-0.8-1.9-1.6-3.8-2.3-5.8c-1,0.8-2.1,1.6-3.1,2.4
		c1-0.9,2-1.8,3-2.7c-0.1-0.4-0.3-0.8-0.4-1.2c-0.4-1.2-0.8-2.5-1.1-3.8c-0.1-0.3-0.1-0.6-0.2-0.9c0-0.1-0.1-0.7-0.1-0.6
		c-0.1-0.5-0.1-1.1-0.2-1.6c0-0.6-0.1-1.3,0-1.9c0-0.3,0-0.6,0-1c0-0.1,0-0.1,0-0.2c0,0,0-0.1,0-0.2c0.2-1.3,0.5-2.5,0.9-3.7
		c0.3-0.9,0.5-1.8,0.8-2.7c0-1-0.1-2-0.2-2.9c0.8-2,1.4-4,1.8-6.1C87,64.9,87,64,86.9,63.3C87,63.2,87,63.2,86.9,63.3 M78.6,96
		c-0.3,0.5-0.7,1-1,1.5c-0.1,0.1-0.5,0.5-0.6,0.8c-0.6,0.3-1.2,0.7-1.8,1c-1.3,0.7-2.7,1.3-4.1,1.8c2.2-1.6,4.2-3.3,6.1-5.2
		c1.1-0.8,2.2-1.8,3.2-2.8C79.8,94.1,79.2,95.1,78.6,96"/>
	<path class="st0" d="M84.3,107.1c-0.7,0.6-1.4,1.3-2.1,1.9c-0.4,0.4-0.9,0.8-1.3,1.2c-0.3,0.2-0.8,0.5-0.8,0.9
		c0,0.3,0.5,0.2,0.7,0.1c0.6-0.1,1.2-0.5,1.8-0.7c0.9-0.4,1.9-0.7,2.8-1.1c0.9-0.4,1.8-0.8,2.7-1.3c0.8-0.4,1.9-0.8,2.6-1.4
		c-3.3,3.2-7.6,6.2-11.9,8.3c-0.3,0.2-0.1,0.6,0.2,0.6c4.6-1.2,9.1-3.2,12.9-6c-0.6-2.5-1.4-5-2.4-7.4
		C87.9,103.8,86.2,105.5,84.3,107.1"/>
	<path class="st0" d="M84.3,116.6c-0.3,0.2,0,0.7,0.3,0.5c2.7-1.2,5.4-2.5,7.9-4c-0.1-1.1-0.3-2.2-0.6-3.3
		C89.6,112.3,87,114.6,84.3,116.6"/>
	<path class="st0" d="M60.5,62.6c0.1,0.1,0.3,0,0.3-0.1c0.1-0.2,0.3-0.5,0.4-0.7c0.3-0.7,0.5-1.4,0.8-2.1c-0.5,0.5-1,0.9-1.5,1.4
		c0,0.1,0,0.3,0,0.4C60.4,61.6,60.2,62.4,60.5,62.6"/>
	<path class="st0" d="M19.6,88.4c-0.2,0.3-0.4,0.6-0.6,0.9c-0.1,0.1-0.4,0.5-0.3,0.6c0,0.1,0.1,0.1,0.2,0.1c0.2,0,0.4-0.3,0.6-0.4
		c0.9-0.8,1.7-1.6,2.5-2.5c-0.1,0.7-0.3,1.4-0.5,2.1c-0.1,0.3,0.3,0.6,0.5,0.3c1-1.2,1.9-2.6,2.6-4c0.5-1,0.9-2.1,1.2-3.2
		c0.1-0.5,0.2-1.1,0.3-1.6c-1.1,1-2.1,2-3.2,3c-0.1,0-0.5,0.4-0.5,0.4c-0.2,0.1-0.3,0.3-0.5,0.4c-0.2,0.1-0.3,0.2-0.5,0.3
		c-0.1,0.1-0.1,0.2-0.2,0.4C20.8,86.3,20.2,87.4,19.6,88.4"/>
	<path class="st0" d="M26.9,82.2c0,0.3,0.4,0.4,0.6,0.2c1-1.5,1.8-3.1,2.4-4.7c-0.4,0.3-0.7,0.5-1.1,0.8c-0.7,0.6-1.3,1.1-2,1.7
		C26.9,80.8,26.9,81.5,26.9,82.2"/>
	<path class="st0" d="M49.5,87.7c-0.2,0.3,0.2,0.7,0.5,0.5c2.4-1.7,4.6-3.7,6.4-5.9c-0.9,1.9-2,4.4-3,6.4c-0.2,0.3,0.2,0.7,0.5,0.4
		c2.4-1.8,4.7-3.9,6.6-6.2c-1.3,3.4-3.3,6.8-5.6,9.8c-0.3,0.3,0.2,0.8,0.5,0.5c4.5-3.2,8.3-6.9,11.5-11.5c-2,4.6-5.1,9.3-8.7,13
		c-0.3,0.3,0.1,0.7,0.4,0.6c2.3-1.2,4.5-2.4,6.4-4.2c-1.7,3.4-3.9,7.1-6.3,10.2c-0.2,0.3,0.1,0.7,0.5,0.5c0.5-0.3,1.1-0.6,1.6-1
		c3-1.9,5.9-4,8.6-6.4c2.7-2.4,5.2-4.9,7.4-7.8c1.1-1.4,2.1-2.9,3-4.4c0.4-0.8,0.9-1.5,1.2-2.3c0.2-0.4,0.4-0.8,0.5-1.2
		c0.1-0.3,0.4-0.8,0.3-1.1c0,0,0,0,0-0.1c0,0-0.1,0-0.1,0c-0.2,0-0.3,0.1-0.4,0.2c-0.3,0.3-0.6,0.7-0.9,1.1c-0.3,0.4-0.7,0.7-1,1.1
		c-0.7,0.7-1.4,1.4-2.2,2c-1.5,1.2-3,2.4-4.7,3.4c2.5-3.3,4.3-7.5,5.5-11.6c0.1-0.4-0.4-0.6-0.7-0.3c-2.2,3.8-5.1,7.2-8.2,10.2
		c3.7-7.7,5.1-16.8,4.3-25.3c0-0.4-0.7-0.4-0.7,0c-0.8,6.4-3.3,12.5-7.3,17.8c1-2.9,1.6-5.8,1.8-8.9c0-0.4-0.6-0.5-0.7-0.1
		c-1.3,3.7-3.5,7.1-6.4,9.9c1.4-2.5,2-5.1,1.9-7.9c0-0.4-0.6-0.5-0.7-0.1c-0.6,2.1-1.7,4-3.3,5.6c1-3.2,0.8-7.1-0.3-10.4
		c0-0.1-0.1-0.2-0.2-0.2c-0.2,0.2-0.4,0.3-0.6,0.5c-0.6,8-3,15.9-7.2,22.8C49.7,87.3,49.6,87.5,49.5,87.7"/>
	<path class="st0" d="M2.8,107.7c-0.2,0.2,0.1,0.6,0.3,0.5c4.2-1.4,8.6-4.6,11.3-7.9c-0.3,1.1-0.8,2.2-1.4,3.2
		c-0.2,0.3,0.2,0.6,0.4,0.4c2.4-1.6,4.7-3.1,6.8-5.2c-0.4,0.9-0.8,1.7-1.4,2.5c-0.2,0.3,0.1,0.6,0.4,0.4c0.1-0.1,0.2-0.2,0.4-0.2
		c2.3-1.6,4.3-3.8,5.8-6.2c1.1-1.8,1.8-3.6,2.4-5.6c0.1-0.3-0.4-0.5-0.5-0.2c-1.6,2.5-4,4.6-6.6,6c0.7-0.9,1.5-2,2.1-3.1
		c0.2-0.3-0.2-0.6-0.5-0.4c-1.6,1.4-3.4,2.6-5.4,3.4c0.6-1,1.2-2.1,1.7-3.2c0.1-0.3-0.3-0.6-0.5-0.3c-1.9,1.9-4.1,3.6-6.4,5
		c1.9-2.8,3.8-6,4.6-9.3c-0.6,0.3-1.3,0.5-1.9,0.8c-0.4,0.3-0.9,0.6-1.4,1c0.1-0.1,0.1-0.3,0.2-0.4c-1.5,0.7-3.1,1.4-4.5,2.3
		c-0.6,1.5-1.3,3.1-2.1,4.5c-1.5,2.9-3.4,5.6-5.5,8.1c0,0.4,0,0.7,0.1,1.1c0.8-0.6,1.6-1.1,2.5-1.8c-0.8,0.9-1.5,1.9-2.3,2.8
		c0.1,0.4,0.2,0.8,0.4,1.1c1.8-1.4,3.5-2.8,5.2-4.3C5.7,104.3,4.2,105.9,2.8,107.7"/>
	<path class="st0" d="M12.9,106.1c-2.9,1.2-5.8,2.7-8.5,4.4c0.7,0.6,1.4,1.1,2.1,1.5c2.1-1.9,4.3-3.8,6.6-5.4
		C13.4,106.4,13.2,106,12.9,106.1"/>
	<path class="st0" d="M43.3,73.6c1-0.8,1.9-1.6,2.7-2.6c-0.3,0.7-0.5,1.3-0.9,2c-0.4,0.7-0.7,1.4-1.1,2.1c-0.4,0.7-0.8,1.4-1.2,2.1
		c-0.1,0.1-0.5,0.7-0.2,0.8c0.2,0.1,0.7-0.4,0.9-0.5c0.4-0.3,0.7-0.7,1-1c0.6-0.7,1.2-1.4,1.8-2.2c0.6-0.7,1.1-1.5,1.7-2.3
		c0.3-0.4,0.5-0.8,0.7-1.2c0.2-0.3,0.6-0.8,0.7-1.2c-0.1,0.5-0.3,1-0.4,1.5c-0.1,0.3,0.3,0.4,0.4,0.2c0.7-1,1.5-2,2.1-3.1
		c-0.3,0.2-0.7,0.4-1,0.6c-0.5,0.3-1,0.5-1.5,0.7c-0.1,0-0.4,0.2-0.5,0.2c-0.2,0.1-0.3,0.1-0.5,0.2c-1.3,0.5-2.6,1-3.9,1.5
		c-0.4,0.6-0.8,1.2-1.3,1.8C42.8,73.5,43.1,73.8,43.3,73.6"/>
	<path class="st0" d="M40.3,73.7c0.2-0.4,0.4-0.8,0.6-1.1c-0.3,0.1-0.6,0.2-0.9,0.3c-0.1,0.2-0.1,0.4-0.2,0.6
		C39.7,73.8,40.2,74,40.3,73.7"/>
	<path class="st2" d="M74.5,43.9c0-0.6-0.5-0.9-1-0.9c-0.2-0.1-0.5-0.2-0.8,0c0,0-0.1,0-0.1,0c-1.2,0.2-2.3,0.5-3.5,0.6
		c-0.8,0.1-1.6,0.2-2.4,0.3c-0.8,0-1.6,0-2.3,0c-0.8,0-1.7,0-2.5,0.3c0,0,0,0-0.1,0c-0.5,0.1-0.9,0.2-1.4,0.4c-0.1,0-0.2,0-0.3,0.1
		c-1.8,0.8-3.1,2.3-3.3,4.3c0,0.3,0,0.6,0,0.9c-2.2,1-4.2,2.5-5,4.9c-0.4,1.3-0.5,2.7,0,3.9c0.2,0.4,0.4,0.8,0.6,1.2
		c-1.4,1.6-2.1,4.2-1.4,6.1c0.9,2.6,3.8,3.5,6.2,2.9c0.4-0.1,0.5-0.3,0.6-0.6c0.8-0.4,1.4-0.9,1.9-1.6c2-2.6,2.4-6,4-8.7
		c0.8-1.4,1.9-2.4,3.4-3.2c1.4-0.7,2.9-1.3,4.1-2.3C73.6,50.2,74.7,46.9,74.5,43.9"/>
	<path class="st2" d="M96,16.1C96,16.1,96.1,16.1,96,16.1c0.2-1,0.2-1.9,0.3-2.9c0.2-1.9,1.1-3.7,0.4-5.6c-0.2-0.6-1-0.9-1.5-0.4
		c-0.6,0.6-1.1,1.2-1.5,1.9c0,0,0,0.1,0,0.1c-0.1-0.1-0.1-0.3-0.1-0.5c-0.3-1.3,0.4-2.7,0.6-4c0.1-0.5,0.2-1.1,0.2-1.6
		c0.1-0.4,0.1-0.7,0-1c0-0.5,0-0.9-0.1-1.4c-0.1-0.8-0.9-1.1-1.5-0.6c-1.4,1.1-1.6,2.8-2.1,4.4c-0.2,0.6-0.4,1.1-0.7,1.7
		c0.2-0.8,0.2-1.6-0.3-2.3c-0.3-0.4-0.8-0.5-1.2-0.3c-0.7,0.3-0.8,1.1-1,1.7c-0.3,0.9-0.7,1.7-1,2.6c-0.3,0.8-0.5,1.6-0.2,2.4
		c0.1,0.5,0.3,0.7,0.2,1.3c-0.1,0.5-0.3,1-0.4,1.4c-0.2,0.8-0.3,1.7-0.3,2.5c0,0.8,0.3,1.6,0.2,2.5c0,0.8-0.2,1.6-0.2,2.5
		c0,0.9,0.2,1.9,0.5,2.7c0.3,1.1,2,0.6,1.7-0.5c-0.4-1.3-0.4-2.5-0.3-3.8c0.3,0.3,0.8,0.5,1.1,0.2c0.3-0.2,0.5-0.4,0.6-0.7
		c0.3,0,0.5-0.1,0.7-0.4c0.1-0.3,0.2-0.5,0.3-0.8c0.2-0.1,0.3-0.2,0.4-0.4c-0.1,0.3-0.2,0.7-0.3,1c-0.3,1.1,1.4,1.5,1.7,0.5
		c0.2-0.5,0.3-1.1,0.4-1.6c0,0,0,0,0,0c0,0,0.1,0.1,0.1,0.1c0,0.1,0,0.1,0,0.2c0.1,0.3,0.3,0.5,0.6,0.6c0.2,0.1,0.4,0.1,0.6,0.1
		c-0.1,0.4-0.2,0.8-0.2,1.2c-0.1,0.7,0.7,1,1.3,0.7c0,0.2-0.1,0.4-0.1,0.6c-0.4,1.5-0.8,3-1.3,4.4c-0.4,1.1,1.3,1.5,1.7,0.5
		c0.4-1.3,0.8-2.5,1.1-3.8c0.3-1.2,0.8-2.5,0.8-3.8C97.2,16.9,96.7,16.2,96,16.1"/>
	<path class="st7" d="M95.3,16.3c-0.3-0.6-1.1-0.9-1.7-0.7c0-0.1-0.1-0.3-0.1-0.4c-0.3-0.7-0.9-1.1-1.7-1c-0.2,0-0.5,0.1-0.6,0.2
		c0,0,0,0,0,0c0-0.1,0-0.1-0.1-0.2c-0.1-0.3-0.3-0.5-0.6-0.5c-0.2,0-0.3,0-0.5,0c-0.1,0-0.2,0-0.3,0.1c-0.7,0.3-1,1-1.2,1.6
		c-0.2,0.6-0.3,1.1-0.3,1.7c-0.3,0.1-0.5,0.3-0.7,0.5c-0.4,0.5-0.4,1.1-0.4,1.7c0,1.3,0,2.7,0.2,4c0,0.3,0.2,0.5,0.5,0.5
		c0.1,0,0.2,0,0.3-0.1c0.1,0,0.1,0,0.2,0.1c2,0.2,3.9,0.4,5.9,0.7c0,0,0,0,0,0c0,0,0,0,0,0c0.3,0.1,0.6-0.1,0.6-0.4
		c0.3-1.8,0.6-3.6,0.7-5.4C95.6,18,95.7,17.1,95.3,16.3"/>
	<path class="st7" d="M102,67.7c-0.1-1.3-0.5-2.6-1.4-3.6c-0.7-0.8-1.6-1.2-2.6-1.5c-1.4-0.6-3.1-0.9-4.6-0.8
		c-3.3-0.2-6.6,1.4-9.2,3.3c-5.1,3.5-8.9,8.7-10.7,14.6c-0.6,2-1.3,4.8-0.6,7c0.1,1.5,0.8,2.9,2.2,3.4c0.3,0.2,0.8,0.3,1.2,0.2
		c1.6-0.2,3.2-0.6,4.8-1.1c-0.3,1.1-0.5,2.2-0.6,3.3c-0.1,0.6,0,1.3,0.6,1.6c1.6,0.8,3.2,1.5,4.9,2.1c0.7,0.3,1.4,0.5,2.2,0.8
		c0.8,0.3,1.6,0.6,2.5,0.5c1.5-0.2,2.4-1.9,3.2-3.1c0.9-1.3,1.7-2.7,2.5-4.1c3-5.6,5-11.7,5.7-18c0.1-0.9,0.1-1.8,0.1-2.7
		C102.1,68.9,102.1,68.3,102,67.7"/>
	<path class="st1" d="M90.7,66.5c-1.8,3.7-3.1,7.6-3.9,11.6c-0.2,1.1-0.4,2.3-0.6,3.4c0,0.3,0.5,0.5,0.5,0.1c0.5-4,1.6-7.9,3-11.7
		c0.4-1.1,0.9-2.1,1.4-3.2C91.3,66.5,90.8,66.2,90.7,66.5"/>
	<path class="st5" d="M99.8,83.8c0,0.1-0.1,0.2-0.1,0.2c0,0,0,0,0,0c-1.9,4.2-3.9,8.4-5.8,12.6c-0.3,0.6-0.5,1.1-0.8,1.7
		c0.7-0.2,1.4-0.2,1.9,0.5c0.7,1.1-0.5,2.1-1.3,2.6c-0.1,0-0.1,0.1-0.2,0.1c0.1,0.2,0.2,0.4,0.2,0.6c0.1,0.6-0.3,1-0.7,1.4
		c0.2,0.2,0.3,0.5,0.3,1c-0.1,1.1-1.3,1.4-2.2,1.8c-0.4,0.2-0.7,0.3-1.1,0.5c-0.3,4-0.6,8-0.7,12c0,0.1,0,0.1,0,0.2
		c0,0.2,0,0.5-0.2,0.7c-0.2,0.3-0.4,0.4-0.7,0.4c-0.2,0-0.4,0-0.5-0.1c-0.8-0.5-1.2-1.2-1.7-2c0-0.1-0.1-0.1-0.1-0.2
		c-0.1-0.1-0.2-0.2-0.2-0.3c-0.1-0.1-0.1-0.2-0.2-0.3c0,0-0.1-0.1-0.1-0.1c-1-1.2-1.8-2.5-2.5-3.9c-0.4-0.8-0.8-1.7-1.3-2.5
		c-0.9-1.6-1.9-3.2-2.8-4.8c0,0,0,0,0-0.1c0,0-0.1,0-0.1,0c-0.6-0.4-1.1-0.9-1.6-1.4c-1-0.9-2.3-2-1.6-3.6c0-0.1,0.1-0.2,0.2-0.3
		c-0.6-1.1-1.2-2.5-0.6-3.6c0.2-0.4,0.5-0.7,0.9-0.9c-0.3-1.5,0.1-3.5,2-3.2c0.6,0.1,1.1,0.5,1.5,1.1c1-4.3,2.4-8.5,4.2-12.5
		c0-0.1,0.1-0.2,0.1-0.2c0,0,0-0.1,0-0.1c0.2-0.5,0.7-1.1,1.3-1c0.1,0,0.2,0,0.2,0c0.3,0,0.6,0,0.9,0.1c2.2,0.3,4.3,0.7,6.5,1.1
		c1.2,0.2,2.5,0.5,3.7,0.8l2.1,0.4c0.3,0,0.6,0.1,0.8,0.2C99.7,83.1,99.9,83.4,99.8,83.8"/>
	<path class="st1" d="M75.8,101c1.3,0.4,2.5,1.3,3.4,2.3c0.2,0.3,0.6-0.1,0.4-0.4c-1-1.1-2.2-2-3.6-2.4
		C75.6,100.4,75.5,100.9,75.8,101"/>
	<path class="st1" d="M76,96.5c1.6,0.7,2.8,1.9,3.6,3.5c0.2,0.3,0.6,0,0.5-0.3c-0.8-1.6-2.2-2.9-3.8-3.7C76,95.9,75.7,96.3,76,96.5"
		/>
	<path class="st1" d="M79,94.2c0.2,0.1,0.3,0.2,0.4,0.3c0.1,0.2,0.2,0.3,0.3,0.5c0.2,0.3,0.4,0.7,0.6,1c0.4,0.7,0.6,1.5,0.8,2.2
		c0.1,0.3,0.6,0.2,0.5-0.1c-0.2-0.8-0.5-1.7-0.9-2.4c-0.2-0.4-0.4-0.7-0.6-1.1c-0.2-0.3-0.4-0.7-0.8-0.9
		C78.9,93.6,78.6,94.1,79,94.2"/>
	<path class="st1" d="M90.5,102.7c0.9-0.4,1.9-0.8,2.9-1c0.3-0.1,0.2-0.6-0.1-0.5c-1,0.3-2,0.6-3,1.1c-0.1,0.1-0.2,0.2-0.1,0.4
		C90.3,102.7,90.4,102.8,90.5,102.7"/>
	<path class="st1" d="M90.2,104.3c0.9-0.2,1.8-0.4,2.7-0.4c0.3,0,0.3-0.5,0-0.5c-0.9,0.1-1.9,0.2-2.8,0.4
		C89.8,103.9,89.9,104.4,90.2,104.3"/>
	<path class="st7" d="M84.5,40.1c0,0.9-0.2,1.9-0.4,2.8c-0.3,1.8-0.6,3.7-1,5.5c0,0.1-0.1,0.1-0.1,0.2c0,0,0,0,0,0.1
		c-0.1,0.1-0.3,0.2-0.4,0.2c-0.4,0-0.8,0-1.1,0c-0.8,0-1.6,0-2.4,0c-2.1,0.1-4.1,0.2-6.2-0.2c-0.3,0-0.4-0.3-0.4-0.6c0,0,0,0,0,0
		c0-0.2,0.1-0.4,0.1-0.5l0.2-1c0,0,0,0,0,0c0.1-0.7,0.2-1.4,0.4-2.1c0.2-0.8,0.5-1.7,0.8-2.5c0.2-0.4,0.3-0.8,0.5-1.2
		c0.1-0.3,0.3-0.7,0.5-1c0.5-0.6,1.3-1.1,2-0.7c0.4,0.2,0.6,0.5,0.7,0.9c0,0.3,0.1,0.6,0.1,0.9c1.2,0,2.4,0,3.6-0.2
		c0.4-0.7,0.7-1.6,1.6-1.8c0.4-0.1,0.9,0,1.2,0.3C84.5,39.2,84.5,39.7,84.5,40.1"/>
	<path class="st0" d="M97.5,26.9c0-0.3,0-0.7-0.1-1c0-0.2,0-0.5,0-0.7c-0.1,0-0.1,0-0.2,0c-0.3-0.6-0.8-1-1.6-1.3
		c-2-0.6-4.2-0.5-6.3-0.6c-0.7-0.1-1.4-0.1-2,0c-0.3-0.1-0.6-0.1-0.9-0.1c-0.7,0-1.1,0.4-1.4,0.9c0,0,0,0,0,0c0,0.1,0,0.1,0,0.2
		c-0.1,0.2-0.2,0.5-0.2,0.8c0,0.1,0,0.2,0,0.4c-0.3,1.4-0.4,2.9-0.7,4.3c-0.6,3.2-1.2,6.3-1.8,9.5c0.2-0.2,0.5-0.4,0.8-0.5
		c0.4-0.1,0.9,0,1.2,0.3c0.3,0.3,0.4,0.7,0.4,1.2c0,0.9-0.2,1.9-0.4,2.8c-0.3,1.8-0.6,3.6-1,5.4C83,48.1,82.7,48,82.4,48
		c-0.5,0-1,0-1.4-0.1c-0.5,0-1-0.1-1.5-0.1c-1-0.1-2-0.2-3-0.3c-0.3,0-0.5-0.1-0.8-0.1c-0.4-0.1-0.8-0.2-1.2-0.2
		c-0.4-0.1-0.8-0.1-1.1-0.1c-0.4,0-0.8,0-1.1,0.1c-0.8,0.3-1.1,1.2-1.3,1.9c0,0.1,0,0.2,0,0.3c0,0,0,0,0,0c-2.9,0.9-5.8,1.9-8.4,3.5
		c-2.9,1.8-5.1,4.4-6.4,7.5c-1.3,3.1-1.7,6.5-1.7,9.9c0,3.4,0.4,7,1.7,10.2c1.2,3.1,3.3,5.7,6.4,7c2.7,1.1,6.1,1.3,8.6-0.5
		c0.4-0.3,0.7-0.5,1-0.9c0.6,0.7,1.3,1.4,2,2.1c0.7,0.7,1.8,1,2.6,0.3c0.1-0.1,0.3-0.2,0.4-0.4c0.2-0.1,0.3-0.3,0.5-0.5
		c3.5-5.2,6.7-10.7,9.4-16.4c0.4-0.9,0.9-1.8,1.3-2.7c3.3-6.3,5.7-13.1,7.2-20.1c1.2-5.5,1.9-11.2,1.9-16.9
		C97.6,30.3,97.5,28.6,97.5,26.9"/>
	<path class="st2" d="M81.2,40.4c-1.1-0.1-2.2,0-3.3,0c-0.1,0-0.2,0.1-0.2,0.2c-0.9,0.6-1.8,1.2-2.8,1.6c-0.5,0.2-1.1,0.3-1.6,0.5
		c-0.6,0.2-1.2,0.3-1.8,0.5c0,0,0,0-0.1,0l-0.1,0c-0.3,0-0.3,0.5,0,0.5c1.4,0,2.8,0.1,4.1-0.2c1.3-0.3,2.6-0.9,3.8-1.5
		c0.7-0.4,1.4-0.7,2.1-1.2C81.6,40.7,81.5,40.4,81.2,40.4"/>
	<path class="st7" d="M70.9,58.5c-0.6-0.4-1.3-0.2-1.8,0.3c-0.2-0.1-0.4-0.1-0.7-0.1c-0.5,0-0.9,0.3-1.1,0.6
		c-0.3-0.2-0.7-0.3-1.1-0.1c-0.1,0-0.2,0.1-0.2,0.1c-0.5,0.2-0.8,0.6-0.9,1.2c0,0.2,0,0.5,0,0.7c-0.1,0-0.1,0-0.2,0
		c-0.4,0.1-0.6,0.3-0.6,0.7c0,0.1,0,0.2,0,0.2c0,0.2,0,0.4,0,0.7c0,0.6,0.2,1.2,0.5,1.5c0.3,0.3,0.9,0.3,1.3,0.4c0.6,0,1.2,0,1.8,0
		c0.9,0,1.8-0.1,2.7-0.3c0,0,0,0,0,0c0,0,0,0,0,0c0.2,0,0.3,0,0.5-0.1c0.1,0,0.2,0,0.3-0.1c0.4-0.1,0.6-0.4,0.6-0.7
		c0-0.1,0.1-0.2,0.1-0.3c0-0.9-0.1-1.8-0.3-2.7C71.7,59.8,71.5,58.9,70.9,58.5"/>
	<path class="st1" d="M95.4,18.7c0-0.1-0.1-0.2-0.2-0.2c-0.1,0-0.2,0.1-0.2,0.2c0,0.3,0,0.7-0.3,1c-0.2,0.3-0.6,0.4-1,0.3
		c-0.2,0-0.4-0.1-0.5-0.3c-0.1-0.4-0.1-0.8-0.1-1.2c0,0,0-0.1,0-0.1c0.2-0.9,0.4-1.8,0.7-2.7c0-0.1,0-0.1,0-0.1c0-0.1-0.2-0.1-0.2,0
		c-0.1,0.4-0.2,0.9-0.4,1.3c-0.1,0.2-0.2,0.4-0.3,0.6c0,0.1,0,0.1-0.1,0.2c0,0,0,0,0,0c0,0.1-0.1,0.3-0.1,0.4
		c-0.1,0.3-0.2,0.5-0.3,0.7c-0.2,0.3-0.6,0.5-0.9,0.5c-0.2,0-0.3,0-0.5-0.1c-0.1-0.1-0.2-0.3-0.2-0.5c0-0.2,0-0.5,0-0.7
		c0-0.2,0.1-0.4,0.1-0.6c0,0,0-0.1,0-0.1c0.2-0.8,0.3-1.6,0.3-2.5c0-0.1,0-0.1,0-0.2c0-0.2-0.2-0.2-0.3-0.1c0,0,0,0,0,0.1
		c0,0.1,0,0.1,0,0.2c-0.1,0.8-0.3,1.6-0.5,2.5c0,0,0,0,0,0c0,0.2-0.1,0.4-0.1,0.6c0,0.2-0.1,0.3-0.1,0.5c-0.1,0.3-0.4,0.5-0.7,0.5
		c-0.3,0.1-0.5,0-0.7-0.2c-0.2-0.2-0.3-0.5-0.3-0.8c0-0.1-0.1-0.2-0.2-0.2c-0.1,0-0.2,0.1-0.2,0.2c0,0.4,0.1,0.7,0.4,1
		c0.3,0.3,0.7,0.4,1,0.4c0.3,0,0.6-0.2,0.8-0.4c0,0.3,0.1,0.5,0.4,0.7c0.2,0.1,0.4,0.2,0.6,0.2c0,0,0,0.1,0,0.1
		c0.1,0.2,0,0.5-0.2,0.7c-0.2,0.2-0.5,0.3-0.8,0.3c-0.7,0-1.5-0.1-2.2-0.2C88,20.6,87.9,21,88.1,21c0.4,0.1,0.9,0.2,1.3,0.2
		c0.4,0,0.9,0.1,1.3,0c0.7-0.1,1.1-0.8,1-1.5c0,0,0,0,0,0c0,0,0.1,0,0.1,0c0.3-0.1,0.6-0.2,0.8-0.5c0,0.4,0.2,0.7,0.5,0.9
		c0,0,0.1,0.1,0.1,0.1c0,0,0,0,0,0.1c0,0.1,0.1,0,0.1,0c0.6,0.2,1.3,0,1.7-0.5C95.3,19.5,95.4,19.1,95.4,18.7"/>
	<path class="st7" d="M74.8,80.7c-1.8-2.3-4.6-3.7-7.4-3.8c-1-0.2-2-0.2-3,0c-0.8,0.2-1.4,0.5-2.1,0.9c-0.3,0.1-0.6,0.3-0.8,0.6
		c-0.6,0.6-1.2,1.4-1.5,2.2c-1,1.4-1.6,3-1.8,4.7c0,0,0,0.1,0,0.1c-0.4,1.6-0.6,3.2-0.8,4.8c-0.6,3.1-0.9,6.3-1.1,9.5
		c-0.2,3.7-0.2,7.4-0.1,11.1c0,1.6,0.2,3.3,1.3,4.6c1.1,1.3,2.9,1.6,4.5,1.7c1.6,0.1,3.3,0.2,4.8-0.3c1.7-0.6,2.9-1.8,3.7-3.4
		c0.9-1.8,1.6-3.7,2.4-5.5c0.4-0.8,0.7-1.7,1.1-2.5c1.4-2.7,2.3-5.5,3-8.5C78.2,91.5,78.4,85.4,74.8,80.7"/>
	<path class="st1" d="M93.6,98.6c-1.1,0.6-2.2,1.3-3.2,2c-0.3,0.2,0,0.6,0.3,0.5c1-0.7,2.1-1.3,3.2-2C94.1,98.9,93.9,98.4,93.6,98.6
		"/>
	<path class="st1" d="M85.8,62.6c0.1-0.7,0.1-1.5-0.1-2.2c-0.1-0.3-0.6-0.2-0.5,0.1c0.3,1.4,0.2,3-0.8,4.1c-0.8,0.9-2.3,1.4-3.5,0.8
		c-0.3-0.2-0.6,0.3-0.3,0.5c1,0.5,2.3,0.4,3.3-0.2C85,65,85.7,63.9,85.8,62.6"/>
	<path class="st1" d="M65.1,61.2c0-0.1-0.1-0.1-0.1,0v0c-0.1,0.5,0,0.9,0,1.4c0,0.1,0.1,0.1,0.1,0C65.1,62.2,65.1,61.7,65.1,61.2
		L65.1,61.2C65.1,61.2,65.1,61.2,65.1,61.2C65.1,61.2,65.1,61.2,65.1,61.2"/>
	<path class="st1" d="M93,17.3c0,0.4,0,0.7-0.1,1.1c0,0.3-0.1,0.7,0,1c0,0.5,0.4,1.1,1,0.9c0.2,0,0.1-0.3-0.1-0.3
		c-0.2,0-0.4-0.1-0.5-0.3c-0.1-0.2-0.1-0.5-0.1-0.8c0-0.6,0.1-1.1,0.1-1.7C93.3,17.2,93,17.2,93,17.3"/>
	<path class="st1" d="M92.6,19c0,0.7,0.4,1.5,1.2,1.5c0.3,0,0.8-0.1,1-0.3c0.2-0.2,0.3-0.6,0.4-0.9c0-0.2-0.2-0.2-0.3-0.1
		c-0.1,0.3-0.1,0.5-0.3,0.8c-0.2,0.2-0.6,0.3-0.8,0.3c-0.7,0-1-0.7-1-1.3C92.9,18.8,92.6,18.8,92.6,19"/>
	<path class="st1" d="M67.1,59.5c0,0.2,0.1,0.5,0.1,0.7c0,0.1,0,0.2,0.1,0.3c0,0.1,0,0.2,0,0.3c0,0.1,0.1,0.2,0.2,0.2
		c0.1,0,0.3-0.1,0.2-0.2c-0.1-0.5-0.1-1-0.2-1.5c0-0.1-0.2-0.2-0.3-0.2C67.1,59.2,67.1,59.3,67.1,59.5"/>
	<path class="st1" d="M69,59.1c0.1,0.2,0.1,0.5,0.2,0.7c0,0.3,0.1,0.5,0.1,0.7c0,0.1,0.1,0.2,0.2,0.2c0.1,0,0.3-0.1,0.2-0.2
		c-0.1-0.5-0.1-1.1-0.3-1.6c0-0.1-0.2-0.2-0.3-0.2C69,58.8,68.9,58.9,69,59.1"/>
	<path class="st5" d="M77.9,43.9c0-0.4-0.2-0.6-0.5-0.8c-0.3-0.2-0.6-0.3-1-0.4c-0.2,0-0.4-0.1-0.6-0.1c-0.1,0-0.2,0-0.3,0
		c-0.3,0-0.6,0.2-0.6,0.5c0,0.3,0.2,0.6,0.5,0.8c0.2,0.2,0.5,0.3,0.7,0.4c0.3,0.1,0.6,0.2,1,0.2c0.2,0,0.4,0,0.5-0.1
		C77.8,44.3,77.9,44.1,77.9,43.9"/>
	<path class="st5" d="M82.2,42.6c-0.5-0.2-1,0-1.5,0.2c-0.3,0.1-0.5,0.3-0.7,0.5c-0.1,0.1-0.2,0.2-0.3,0.3c-0.2,0.2-0.3,0.4-0.2,0.6
		c0.1,0.2,0.3,0.3,0.5,0.3c0.4,0,0.9-0.1,1.3-0.2c0.2-0.1,0.4-0.2,0.6-0.3c0.2-0.1,0.4-0.2,0.6-0.4C82.9,43.2,82.7,42.7,82.2,42.6"
		/>
	<path class="st4" d="M77.2,43c0-0.1,0-0.1-0.1-0.2c0,0,0,0,0-0.1c0,0-0.1-0.1-0.1-0.1c0,0,0,0-0.1-0.1c-0.1,0-0.2-0.1-0.2-0.1
		c0,0-0.1,0-0.1,0h0c0,0,0,0,0,0h0c-0.2,0-0.3,0-0.4,0.1c0,0,0,0,0,0c0,0,0,0,0,0c0,0,0,0,0,0c0,0,0,0,0,0.1
		c-0.1,0.1-0.1,0.3-0.1,0.4c0,0,0,0,0,0c0,0,0,0.1,0,0.1c0,0.1,0.1,0.1,0.2,0.2c0,0,0.1,0,0.1,0.1c0.1,0.1,0.2,0.1,0.4,0.1
		c0,0,0.1,0,0.1,0c0.1,0,0.1,0,0.2-0.1c0.1-0.1,0.2-0.1,0.2-0.2C77.2,43.2,77.2,43.1,77.2,43"/>
	<path class="st4" d="M81.8,42.7C81.8,42.7,81.8,42.7,81.8,42.7C81.8,42.6,81.8,42.6,81.8,42.7c0-0.1-0.1-0.1-0.1-0.2c0,0,0,0,0,0
		l0,0c0,0,0,0,0,0c0,0-0.1-0.1-0.1-0.1c-0.2-0.1-0.5-0.1-0.7,0c-0.1,0.1-0.2,0.2-0.3,0.3c-0.1,0.1-0.1,0.2-0.1,0.2
		c0,0.1,0,0.3,0.1,0.4c0.1,0.1,0.3,0.2,0.5,0.2c0.1,0,0.2,0,0.3,0c0.2-0.1,0.4-0.2,0.4-0.5C81.8,42.8,81.8,42.8,81.8,42.7"/>
	<path class="st2" d="M79.9,45c-0.3,0.1-0.6,0.2-0.9,0.2v-0.7c0-0.1-0.1-0.3-0.3-0.3c-0.1,0-0.3,0.1-0.3,0.3v0.7c0,0,0,0,0,0
		c-0.5,0-1-0.1-1.5-0.2c-0.3-0.1-0.5,0.4-0.1,0.5c1.1,0.3,2.2,0.3,3.3,0C80.3,45.4,80.2,44.9,79.9,45"/>
	<path class="st4" d="M78.6,43.9c-0.6,0-0.6,0.9,0,0.9C79.2,44.8,79.2,43.9,78.6,43.9"/>
	<path d="M87.8,180.7c-3.5-0.2-7-0.4-10.6-0.4c-7.1-0.2-14.1-0.1-21.2,0.3c-4,0.2-7.9,0.5-11.9,0.9c-0.1,0-0.2,0-0.3,0.1
		c-1.3,0.1-2.6,0.1-4,0.2c-0.9,0-1.2,1.4-0.2,1.6c6.8,1.5,13.8,1.1,20.8,0.6c7-0.5,13.9-1,20.8,0c3.9,0.5,7.9,1.1,11.8,0.3
		c0.3-0.1,0.5-0.3,0.6-0.6C94.3,180.5,89.7,180.8,87.8,180.7"/>
	<path class="st6" d="M79.3,60.4c-0.1-0.2-0.2-0.5-0.2-0.7c-0.1-0.6-0.3-1.3-0.3-1.9c0-0.2,0.1-0.5,0.1-0.7c0-0.1,0.1-0.3,0-0.4
		c-0.1-0.2-0.3-0.3-0.5-0.3c-0.7-0.1-1.4-0.2-2.1-0.3c-0.2,0-0.3,0-0.5,0c-0.2,0.1-0.3,0.2-0.3,0.4c0,0.2,0.2,0.3,0.3,0.4
		c0.7,0.6,1,1.9,1.1,2.8c0.3,1.7,0.9,3,1.3,4.7c0.1,0.3,0.2,0.6,0.5,0.6c0.2,0,0.3-0.2,0.4-0.3c0.2-0.3,0.3-0.5,0.5-0.8
		c0.1-0.2,0.3-0.3,0.4-0.5c0.1-0.2,0.1-0.4,0-0.6c0-0.3-0.1-0.6-0.2-0.9C79.6,61.4,79.4,60.9,79.3,60.4"/>
	<path class="st6" d="M75,57.9c0,0.1,0,0.1,0,0.2c0.1,0.6,0.2,1.3,0.4,1.9c0.2,0.5,0.3,1,0.5,1.5c0.1,0.5,0.3,1,0.2,1.4
		c-0.1,0.2-0.2,0.3-0.3,0.5c-0.2,0.3-0.4,0.6-0.6,0.9c-0.1,0.1-0.1,0.2-0.2,0.3c-0.1,0.1-0.2,0.1-0.3,0c-0.1,0-0.1-0.1-0.2-0.2
		c-0.2-0.5-0.3-1.2-0.5-1.7c-0.2-0.6-0.4-1.2-0.6-1.8c-0.3-1.1-0.4-2.2-0.9-3.3c-0.1-0.3-0.3-0.6-0.5-0.8c-0.2-0.2-0.5-0.4-0.4-0.7
		c0-0.2,0.2-0.3,0.4-0.3c0.4,0,0.8,0,1.1,0.1c0.2,0,0.4,0.1,0.6,0.1c0.2,0,0.4,0,0.5,0.1c0,0,0.1,0.1,0.1,0.2
		C74.7,56.8,74.9,57.3,75,57.9"/>
	<path class="st6" d="M79.7,58c0,1,1.1,1.3,1.9,1c1-0.3,0.7-1.4,0.1-1.9C81.1,56.3,79.8,56.9,79.7,58"/>
	<path class="st0" d="M73.8,64.5c-0.1-0.4-0.6-0.8-1-0.9c-1.5-0.1-3-0.2-4.5-0.3c-0.8,0-1.5-0.1-2.3-0.1c-0.7,0-1.5-0.2-2.2,0.1
		c-1.4,0.5-1.2,2.3-1.3,3.5c-0.1,1.5-0.3,3-0.4,4.5c-0.1,1.3-0.1,2.8-0.7,3.9C61,76.3,60,77.2,59.2,78c-0.7,0.7-1.3,1.4-1.4,2.4
		c-0.4,0.3-0.8,0.8-0.6,1.3c1.1,5.3,7.3,6.5,11.5,5.2c5.1-1.5,5.6-7.9,5.9-12.7C74.8,70.9,74.6,67.7,73.8,64.5"/>
	<path class="st1" d="M62.5,64.7c0,4-0.7,8-1.9,11.8c-0.1,0.3,0.4,0.4,0.5,0.1c1.2-3.9,1.9-7.9,1.9-11.9
		C63,64.4,62.5,64.4,62.5,64.7"/>
	<path class="st5" d="M68.5,139.6c-0.5-1.6-1-3.1-1.5-4.7l0.1-0.1c0.8-0.5,1.9-1.1,1.8-2.2c0-0.3-0.2-0.6-0.4-0.8
		c0.7-0.8,0.9-1.6,0.2-2.2c-0.2-0.1-0.3-0.2-0.5-0.3c0.5-0.7,0.9-1.6,0.5-2.3c-0.2-0.5-0.7-0.7-1.1-0.6c0.2-0.7,0.4-1.4,0.6-2.1
		c0.5-1.7,1.1-3.5,1.6-5.3c0.5-1.8,1.1-3.5,1.2-5.3c0-0.3-0.3-0.8-0.6-0.8c-1.8-0.3-3.5-0.6-5.3-0.9c-0.1,0-0.2-0.1-0.3-0.1
		c-2.7-0.8-5.4-1.4-8.1-2c-0.8-0.2-1.5,0.5-1.5,1.4c-0.1,4.9,0,9.8,0.2,14.6c0,0.1,0,0.2,0,0.3c0,0.5,0,0.9,0.1,1.4
		c-0.5-0.1-1,0-1.5,0.7c-0.7,0.9-0.4,1.8,0.1,2.6c-0.5,0.8-0.1,1.7,0.4,2.5c-0.1,0.2-0.1,0.4-0.1,0.5c0,1.3,1,2,1.9,2.4
		c0.6,0.3,1.2,0.6,1.8,0.9c1,1.2,1.9,2.3,3,3.5c0.7,0.9,1.3,1.7,2,2.6c0.9,1.1,1.8,2.1,2.9,3c0.8,0.7,2.3,2.1,3.5,1.8
		c1.5-0.4,0.9-2.2,0.6-3.1L68.5,139.6z"/>
	<path class="st1" d="M54.6,133.4c1.4,0.2,2.5,1.1,3.6,2c0.3,0.2,0.6-0.2,0.4-0.4c-1.1-0.9-2.3-1.9-3.8-2.1c-0.1,0-0.3,0-0.3,0.2
		C54.4,133.2,54.5,133.4,54.6,133.4"/>
	<path class="st1" d="M54.4,130.8c1.6,0.1,2.9,1.3,4,2.4c0.2,0.2,0.6-0.1,0.4-0.4c-1.2-1.2-2.5-2.4-4.3-2.5
		C54.1,130.2,54.1,130.7,54.4,130.8"/>
	<path class="st1" d="M55.5,127.9c1.4,1.1,2.7,2.2,3.8,3.5c0.2,0.2,0.6-0.1,0.4-0.4c-1.2-1.3-2.5-2.5-3.9-3.6
		c-0.1-0.1-0.3,0-0.4,0.1C55.4,127.6,55.4,127.8,55.5,127.9"/>
	<path class="st1" d="M68,129.1c-0.7,0.5-1.4,1.1-2.1,1.6c-0.1,0.1-0.2,0.2-0.1,0.4c0.1,0.1,0.2,0.2,0.4,0.1
		c0.7-0.5,1.4-1.1,2.1-1.6c0.1-0.1,0.2-0.2,0.1-0.4C68.3,129.1,68.1,129,68,129.1"/>
	<path class="st1" d="M68.2,131.5c-0.7,0.4-1.4,0.7-2,1.1c-0.1,0.1-0.2,0.2-0.1,0.4c0.1,0.1,0.2,0.2,0.4,0.1c0.7-0.4,1.4-0.7,2-1.1
		c0.1-0.1,0.2-0.2,0.1-0.4C68.5,131.4,68.3,131.4,68.2,131.5"/>
</g>
</svg>
