<svg xmlns="http://www.w3.org/2000/svg" width="14.728" height="14.728" viewBox="0 0 14.728 14.728">
  <g id="icon_close" data-name="icon/close" transform="translate(-0.636 -0.636)">
    <path id="close" d="M13.108,14.512l-.086-.078L7.364,8.777,1.707,14.433l-.087.078A1,1,0,0,1,.293,13.019L5.95,7.362.293,1.706A1,1,0,0,1,1.62.213l.087.078L7.364,5.948,13.021.292l.086-.078a1,1,0,0,1,1.328,1.492L8.778,7.362l5.657,5.657a1,1,0,0,1-1.328,1.492Z" transform="translate(0.636 0.638)" fill="#FFFFFF"/>
  </g>
</svg>
