<?xml version="1.0" encoding="utf-8"?>
<!-- Generator: Adobe Illustrator 20.1.0, SVG Export Plug-In . SVG Version: 6.00 Build 0)  -->
<svg version="1.1" id="Layer_1" xmlns="http://www.w3.org/2000/svg" xmlns:xlink="http://www.w3.org/1999/xlink" x="0px" y="0px"
	 viewBox="0 0 17 17" style="enable-background:new 0 0 17 17;" xml:space="preserve">
<style type="text/css">
	.st0{fill:#191919;}
</style>
<desc>Created with Lunacy</desc>
<path id="plus" class="st0" d="M9.5,1.3C9.4,0.9,9,0.5,8.5,0.5c-0.6,0-1,0.4-1,0.9v6.1H1.4l-0.1,0C0.9,7.6,0.5,8,0.5,8.5
	c0,0.6,0.4,1,0.9,1h6.1v6.1l0,0.1c0.1,0.5,0.5,0.8,1,0.8c0.6,0,1-0.4,1-0.9V9.5h6.1l0.1,0c0.5-0.1,0.8-0.5,0.8-1c0-0.6-0.4-1-0.9-1
	H9.5V1.4L9.5,1.3z"/>
</svg>
