<svg width="74" height="56" viewBox="0 0 74 56" fill="none" xmlns="http://www.w3.org/2000/svg">
<g filter="url(#filter0_d)">
<path fillRule="evenodd" clipRule="evenodd" d="M63.96 27.8186C62.6415 28.0878 61.4676 28.6113 60.2782 29.621C59.2296 30.4409 58.8695 32.2316 60.1094 32.7769C60.829 33.1177 61.596 33.1457 62.3482 33.3744C63.1432 33.6225 63.3486 34.3506 62.6306 34.8547C62.0705 35.2281 61.2802 35.5019 60.475 35.4972C60.0184 35.5097 59.6862 36.0216 59.4817 36.7995C59.2265 37.8605 59.5587 37.9663 60.0402 37.9982C61.6193 37.9064 63.4956 36.8158 64.566 35.5533C65.6457 34.4012 65.6271 32.3079 64.2424 31.7524C63.6442 31.5199 62.9379 31.3604 62.3412 31.2211C61.379 31.0531 61.3012 30.7645 62.16 30.395C62.566 30.2387 63.1323 30.0457 63.5571 29.9438C64.0845 29.8248 64.3435 29.6093 64.5186 28.9147C64.8818 27.8886 64.615 27.6296 63.96 27.8186ZM23.8298 18.1112C17.4222 20.0949 10.2733 27.0827 8.3068 32.7777C7.26831 37.0414 8.88634 38.4875 12.8552 37.8341C17.0659 37.4397 20.456 36.0247 26.5485 37.0056C28.8379 37.5143 28.1557 36.2137 27.1141 34.3654C26.54 33.4304 24.6162 33.2289 21.9084 33.5338C18.8131 34.0823 15.8633 34.8446 12.9205 35.3868C10.2585 35.9539 9.83304 34.1196 11.6339 31.1231C14.495 26.6658 19.4012 22.7405 22.6691 22.4091C23.5762 22.3655 24.302 21.9929 24.8947 20.5639C25.7893 18.5328 25.5948 17.674 23.8298 18.1112ZM28.0818 34.3312C27.8624 30.6564 28.1751 26.3266 30.5314 20.3578C30.8091 19.7394 31.2175 19.6382 31.7558 20.0544C32.1152 20.4107 32.4318 20.8051 32.6154 21.2399C32.9856 22.0217 32.8596 22.7646 32.5734 23.488C31.2782 27.2453 30.3789 31.3534 30.2155 33.8963C30.2397 35.2188 30.7056 36.0114 31.9899 34.6929C34.3687 31.9018 35.0269 29.4802 38.8907 29.2756C39.9704 29.2919 40.3103 29.3775 40.1229 30.4292C39.9393 31.4545 39.73 32.8337 39.7106 33.9072C39.5713 35.3347 40.2115 36.0099 41.2337 35.022C42.2006 33.8193 42.8338 31.6358 43.2772 29.4981C43.3753 28.6961 43.8576 28.6844 44.2792 29.0905C44.9311 29.5066 45.5767 29.8341 46.2216 29.9345C46.7848 30.1601 47.0197 30.6681 46.8898 31.6023C46.8214 32.5545 46.8284 33.6311 46.9614 34.5778C47.3153 35.6093 48.2325 35.4856 48.9933 34.1764C50.2216 32.1982 51.2647 28.0286 52.1912 21.5215C52.304 20.6557 52.6074 20.448 53.1006 20.8969C53.4249 21.1824 53.7268 21.5962 54.0053 22.1353C54.4525 22.6759 54.3545 23.1504 54.2627 23.6646C53.9314 26.525 53.5097 29.3301 53.0251 32.1313C54.6105 29.7735 56.1849 28.1702 57.9671 26.8035C58.6236 26.4581 58.864 26.7848 58.6866 27.593C58.5521 28.1811 58.4222 28.7233 58.2876 29.3114C58.1437 29.9306 57.5501 30.4674 57.1736 30.6541C56.6003 31.0399 56.1126 31.4506 55.8123 31.8139C56.1935 33.0616 57.1075 34.3545 58.4338 34.8858C59.0927 35.0655 59.2763 35.4444 58.9846 36.0239C58.8663 36.4292 58.6944 36.6563 58.4743 37.0639C58.0363 37.589 57.3432 37.4669 56.6027 37.1176C55.5766 36.5894 54.7606 35.4599 54.0123 33.7283C53.5338 34.2697 53.3028 34.5614 52.9325 35.2242C52.7412 35.8862 52.5848 36.3249 52.3934 36.9877C52.1889 37.4716 51.9143 37.5556 51.2686 37.5353C50.6245 37.5276 50.2807 37.3066 50.409 36.5964C50.5078 35.7353 50.6782 34.7863 50.777 33.9243C49.5852 36.4595 48.1586 37.8022 46.6051 37.5105C45.2368 37.2359 44.5476 35.4895 44.6767 31.9656L44.5172 31.9244C42.9809 37.9165 39.0019 38.9869 38.007 35.6194C36.0117 38.2596 33.7301 37.9873 33.0409 35.7462C31.0502 38.0394 28.5734 38.5785 28.0818 34.3312ZM38.168 31.2686C37.8615 33.7299 36.5616 35.7065 35.7277 35.2693C34.9358 34.8539 34.9965 33.5268 36.0272 32.3398C36.7211 31.5393 37.5869 31.2297 38.168 31.2686Z" fill="#191919"/>
</g>
<defs>
<filter id="filter0_d" x="4" y="18" width="65.3328" height="27.9982" filterUnits="userSpaceOnUse" color-interpolation-filters="sRGB">
<feFlood flood-opacity="0" result="BackgroundImageFix"/>
<feColorMatrix in="SourceAlpha" type="matrix" values="0 0 0 0 0 0 0 0 0 0 0 0 0 0 0 0 0 0 127 0"/>
<feOffset dy="4"/>
<feGaussianBlur stdDeviation="2"/>
<feColorMatrix type="matrix" values="0 0 0 0 0 0 0 0 0 0 0 0 0 0 0 0 0 0 0.25 0"/>
<feBlend mode="normal" in2="BackgroundImageFix" result="effect1_dropShadow"/>
<feBlend mode="normal" in="SourceGraphic" in2="effect1_dropShadow" result="shape"/>
</filter>
</defs>
</svg>
