<svg id="clients_sonos" data-name="clients/sonos" xmlns="http://www.w3.org/2000/svg" width="100" height="75.676" viewBox="0 0 100 75.676">
  <path id="sonos" d="M82.923,16.319l2.071-1.47a5.646,5.646,0,0,0,3.371,1.222c2.055,0,3.279-1.262,3.279-2.49,0-.854-.444-1.793-3.668-2.868l-.011,0a11.534,11.534,0,0,1-3.656-1.8,4.555,4.555,0,0,1-1.832-3.684,5.039,5.039,0,0,1,1.675-3.694A6.193,6.193,0,0,1,88.365,0,7.32,7.32,0,0,1,93.81,2.492L91.738,3.961A5.667,5.667,0,0,0,88.365,2.74c-2.054,0-3.281,1.265-3.281,2.49,0,.854.446,1.791,3.672,2.87l.012,0a11.549,11.549,0,0,1,3.656,1.8,4.558,4.558,0,0,1,1.828,3.684,5.035,5.035,0,0,1-1.672,3.695,6.207,6.207,0,0,1-4.214,1.532A7.309,7.309,0,0,1,82.923,16.319Zm-82.479,0,2.072-1.47a5.642,5.642,0,0,0,3.37,1.222c2.053,0,3.281-1.262,3.281-2.49,0-.854-.444-1.793-3.671-2.868l-.01,0a11.564,11.564,0,0,1-3.658-1.8A4.552,4.552,0,0,1,0,5.23,5.029,5.029,0,0,1,1.674,1.536,6.2,6.2,0,0,1,5.885,0a7.31,7.31,0,0,1,5.444,2.492L9.259,3.961A5.668,5.668,0,0,0,5.885,2.74c-2.052,0-3.279,1.265-3.279,2.49,0,.854.445,1.791,3.669,2.87l.012,0A11.563,11.563,0,0,1,9.944,9.9a4.55,4.55,0,0,1,1.83,3.684A5.03,5.03,0,0,1,10.1,17.276a6.2,6.2,0,0,1-4.212,1.532A7.309,7.309,0,0,1,.444,16.319ZM59.916,9.394a8.948,8.948,0,1,1,17.875,0,8.948,8.948,0,1,1-17.875,0Zm2.6,0a6.348,6.348,0,1,0,12.674,0,6.348,6.348,0,1,0-12.674,0Zm-46.054,0A9.185,9.185,0,0,1,25.4,0a9.184,9.184,0,0,1,8.937,9.394,9.182,9.182,0,0,1-8.937,9.39A9.183,9.183,0,0,1,16.46,9.394Zm2.6,0A6.546,6.546,0,0,0,25.4,16.117a6.547,6.547,0,0,0,6.338-6.723A6.547,6.547,0,0,0,25.4,2.67,6.546,6.546,0,0,0,19.062,9.394ZM42.755,6.669V18.027H40.237V.255L51.5,12.116V.7h2.52V18.534Z" transform="translate(2.703 28.378)" fill="#fbfcfd"/>
</svg>
