<svg id="clients_clarks" data-name="clients/clarks" xmlns="http://www.w3.org/2000/svg" width="100" height="75.676" viewBox="0 0 100 75.676">
  <path id="clarks" d="M70.326,27.024h0c-.349-.023-.595-.076-.74-.273-.174-.237-.179-.665-.014-1.347.3-1.135.763-1.744,1.343-1.76h.032a5.4,5.4,0,0,0,2.881-.868,1.147,1.147,0,0,0,.585-1.078,1.266,1.266,0,0,0-.967-.921c-.394-.12-.8-.2-1.185-.277a7.785,7.785,0,0,1-1.841-.53,1.712,1.712,0,0,1-1.043-1.421A3.313,3.313,0,0,1,70.649,15.7a10.721,10.721,0,0,1,4.976-2.435,1.711,1.711,0,0,1,.46-.077.478.478,0,0,1,.418.178c.163.231.123.683-.124,1.379-.247.985-.632,1.241-1.3,1.391a17.023,17.023,0,0,0-1.888.609c-.555.239-.826.455-.8.641s.376.358,1.048.476l.137.032a18.611,18.611,0,0,1,2.433.686,2.333,2.333,0,0,1,1.395,1.74,3.938,3.938,0,0,1-.958,3.4A9.708,9.708,0,0,1,70.326,27.024ZM4.344,27.005A4.243,4.243,0,0,1,.776,25.673c-.9-1.143-1.015-3.008-.359-5.7C1.7,16.25,4.7,11.953,8.655,8.179A33.967,33.967,0,0,1,21.394.15,4.442,4.442,0,0,1,22.431,0a1.04,1.04,0,0,1,.949.394c.328.5.154,1.478-.547,3.07-.874,2.107-1.962,2.443-3.008,2.493-2.124.215-4.846,1.564-7.662,3.8a33.718,33.718,0,0,0-7.25,7.978C3.551,20,3.111,21.8,3.677,22.8a1.886,1.886,0,0,0,1.794.835A5.743,5.743,0,0,0,6.651,23.5c1.869-.345,3.782-.764,5.632-1.17,2.112-.463,4.3-.942,6.514-1.335a25.711,25.711,0,0,1,2.835-.179c2.256,0,3.668.438,4.2,1.3.947,1.681,1.544,2.824,1.219,3.381-.132.226-.414.336-.86.336a5.384,5.384,0,0,1-1.123-.15,34.512,34.512,0,0,0-5.54-.459,45.647,45.647,0,0,0-8.2.884c-1.607.279-3.124.542-4.767.7A13.857,13.857,0,0,1,4.344,27.005Zm48.393-.587a3.068,3.068,0,0,1-.565-.053,2.874,2.874,0,0,1-2.063-2.1,15.134,15.134,0,0,1-.544-5.393l-.215-.055c-1.337,5.213-3.978,7.548-6,7.548-1.3,0-2.316-.931-2.8-2.555C39.3,25.46,37.9,26.369,36.59,26.37a2.934,2.934,0,0,1-2.749-2.389c-1.309,1.508-2.714,2.373-3.851,2.373-1.074,0-2.441-.743-2.851-4.285-.254-4.245-.107-10.227,3.311-18.883.223-.5.513-.75.862-.75a1.355,1.355,0,0,1,.792.34,5.1,5.1,0,0,1,1.161,1.6,3.582,3.582,0,0,1-.056,3.038,61.542,61.542,0,0,0-3.186,14.066c.024,1.284.352,1.991.926,1.991a2.431,2.431,0,0,0,1.471-.915c.743-.871,1.35-1.7,1.938-2.5,1.884-2.573,3.373-4.605,7.388-4.819.761.012,1.318.044,1.566.345.182.221.211.584.1,1.215a33.08,33.08,0,0,0-.557,4.7,2.547,2.547,0,0,0,.356,1.9.7.7,0,0,0,.534.242A1.853,1.853,0,0,0,44.912,23c1.1-1.367,2-3.808,2.762-7.464.071-.584.3-.906.652-.906a1.085,1.085,0,0,1,.7.355,6.959,6.959,0,0,0,2.625,1.141c.786.314,1.073,1.03.9,2.254a19.856,19.856,0,0,0,.1,4.021c.206.6.562.93,1,.93.565,0,1.2-.537,1.744-1.472,1.648-2.653,3.061-8.247,4.321-17.1.1-.766.314-1.155.636-1.155a.968.968,0,0,1,.593.311,5.7,5.7,0,0,1,1.222,1.674,2.144,2.144,0,0,1,.356,2.018l-.009.048C62.1,11.257,61.555,15,60.847,19.1a29.133,29.133,0,0,1,6.678-7.2,1.338,1.338,0,0,1,.59-.185.4.4,0,0,1,.327.144,1.414,1.414,0,0,1,.054,1.108c-.1.427-.193.837-.289,1.248-.083.356-.166.709-.249,1.074A3.115,3.115,0,0,1,66.453,17.1a8.954,8.954,0,0,0-1.839,1.568,6.545,6.545,0,0,0,3.543,4.151,1.223,1.223,0,0,1,.863.587,1.113,1.113,0,0,1-.119.952,4.282,4.282,0,0,1-.467,1.008c-.071.123-.144.25-.223.4a1.319,1.319,0,0,1-1.062.48,3.552,3.552,0,0,1-1.468-.407c-1.335-.688-2.448-2.143-3.5-4.58a9.693,9.693,0,0,0-1.459,2.021c-.13.448-.249.826-.364,1.191s-.235.744-.364,1.191c-.241.57-.546.744-1.308.744-.067,0-.138,0-.213,0a1.279,1.279,0,0,1-1.023-.334,1.113,1.113,0,0,1-.138-.934c.067-.582.159-1.2.249-1.805s.182-1.223.249-1.805C56.3,24.724,54.548,26.418,52.737,26.418Zm-12.1-8.492a3.869,3.869,0,0,0-2.761,1.452,3.77,3.77,0,0,0-1.1,2.966,1.351,1.351,0,0,0,.7.993.71.71,0,0,0,.333.082c1.076,0,2.572-2.347,2.964-5.488C40.731,17.928,40.688,17.926,40.637,17.926Z" transform="translate(10.808 24.325)" fill="#fbfcfd"/>
</svg>
