<svg id="clients_avis" data-name="clients/avis" xmlns="http://www.w3.org/2000/svg" width="100" height="75.676" viewBox="0 0 100 75.676">
  <path id="avis" d="M57.089,20.449l3.341-3.429a7.142,7.142,0,0,0,5.1,2.186c1.655,0,3.122-.64,3.122-2.453,0-1.72-1.722-2.295-4.684-3.255-2.865-.923-5.765-2.352-5.765-6.428,0-5,4.523-7.071,8.726-7.071a11.294,11.294,0,0,1,7.392,2.769L70.983,6.2a5.88,5.88,0,0,0-4.146-1.71c-1.4,0-3.155.48-3.155,2.265,0,1.495,1.34,2,3.476,2.673,3.058.988,7.008,2.263,7.008,6.755,0,5.191-4.174,7.516-8.634,7.516A11.9,11.9,0,0,1,57.089,20.449ZM47.395,22.62V1.078h5.387V22.62Zm-16.931,0L21.543,1.078h6.391l5.557,15.568,5.46-15.568h6.29L36.156,22.62ZM17.523,18.393H8.2L6.434,22.62H0L10.209,1.078H16l9.848,21.54-6.458,0ZM9.87,14.225h6.053L12.928,6.83Z" transform="translate(13.514 25.676)" fill="#fbfcfd"/>
</svg>
