<svg id="clients_samsonite" data-name="clients/samsonite" xmlns="http://www.w3.org/2000/svg" width="100" height="75.676" viewBox="0 0 100 75.676">
  <path id="samsonite" d="M54.809,14.193a4.537,4.537,0,0,1-.881-1.144,5.246,5.246,0,0,0,5.877-6.261,4.524,4.524,0,1,1-5,7.406Zm23.214-1.318V2.562h1.939V12.875Zm-3.438,0c0-.2,0-7.009,0-7.009a1.344,1.344,0,0,0-1.341-1.34H69.87a1.342,1.342,0,0,0-1.34,1.34v7.008H66.59V5.85a3.285,3.285,0,0,1,3.28-3.281h3.374A3.286,3.286,0,0,1,76.526,5.85v7.025Zm22.371,0H91.863a3.285,3.285,0,0,1-3.281-3.281l0-3.718A3.285,3.285,0,0,1,91.86,2.593h2.789a3.286,3.286,0,0,1,3.283,3.281s0,2.445,0,2.633c-.036,0-.3,0-.709,0h-6.7V9.586a1.342,1.342,0,0,0,1.341,1.34h5.094v1.946h0Zm-6.436-7v.694H95.99V5.874a1.342,1.342,0,0,0-1.341-1.34H91.86A1.341,1.341,0,0,0,90.519,5.874Zm-53.979,7V5.863A1.342,1.342,0,0,0,35.2,4.522H31.817v8.351h-1.94V4.523H26.7a1.343,1.343,0,0,0-1.341,1.341v7.01h-1.94V5.85A3.293,3.293,0,0,1,26.7,2.564h8.5A3.285,3.285,0,0,1,38.481,5.85v7.024Zm3.436,0V10.931h6.575a.861.861,0,0,0,.283-1.674s0,0-5.171-1.619a2.631,2.631,0,0,1,.972-5.076h5.682V4.524H42.634a.671.671,0,0,0-.221,1.305l3.059.972,2.116.669a2.8,2.8,0,0,1-1.037,5.4Zm-18.054,0h-6.4a3.281,3.281,0,0,1,0-6.563h4.461v-.46a1.333,1.333,0,0,0-1.341-1.323H13.206V2.565h5.436a3.286,3.286,0,0,1,3.281,3.284V12.87h0ZM14.182,9.59a1.343,1.343,0,0,0,1.34,1.341h4.461V8.248H15.523A1.343,1.343,0,0,0,14.182,9.59ZM0,12.871V10.93H7.849a1.293,1.293,0,0,0,.42-2.515l-6.379-2A3.015,3.015,0,0,1,3.017.6H10.1V2.562H3.017A1.07,1.07,0,0,0,1.959,3.618a1.056,1.056,0,0,0,.711,1L5.919,5.65l3.135,1a3.23,3.23,0,0,1-1.205,6.225Zm84.736,0a3.286,3.286,0,0,1-3.283-3.281l0-2s0-6.1,0-6.986H83.4V2.565h3.072V4.521H83.4V9.586a1.341,1.341,0,0,0,1.34,1.34h2.709v1.941Zm-33.2-1.77a4.522,4.522,0,0,1,.943-7.278A5.246,5.246,0,0,0,58.738,9.7a4.528,4.528,0,0,1-7.2,1.4ZM61.554,7.031A5.251,5.251,0,0,0,56.9,5.72,4.525,4.525,0,1,1,63.157,11.6,5.252,5.252,0,0,0,61.554,7.031Zm-6.924.792a4.525,4.525,0,0,1,6.193-6.6A4.424,4.424,0,0,1,61.7,2.369a5.244,5.244,0,0,0-5.877,6.26A4.521,4.521,0,0,1,54.63,7.823ZM97.381,1.885a1.3,1.3,0,1,1,1.3,1.289A1.28,1.28,0,0,1,97.381,1.885Zm.258,0a1.045,1.045,0,1,0,2.088,0,1.044,1.044,0,1,0-2.088,0Zm.775.747H98.19V1.147h.564c.358,0,.524.134.524.422a.389.389,0,0,1-.384.409l.42.651-.249,0-.392-.643h-.258v.643h0Zm0-.836h.269c.2,0,.36-.018.36-.241,0-.147-.106-.218-.324-.218h-.305Z" transform="translate(0 29.73)" fill="#fbfcfd"/>
</svg>
