<svg id="clients_refinery29" data-name="clients/refinery29" xmlns="http://www.w3.org/2000/svg" width="100" height="75.676" viewBox="0 0 100 75.676">
  <path id="refinery_29" data-name="refinery 29" d="M89.405,59.4H87.091l2.066-3.539h-.142A3.783,3.783,0,0,1,85.2,52.02a3.894,3.894,0,0,1,3.872-3.908A4.151,4.151,0,0,1,92.007,49.3a3.633,3.633,0,0,1,1.058,2.637,6.214,6.214,0,0,1-1.081,3.053l-2.577,4.405h0ZM87.174,52a1.96,1.96,0,1,0,1.961-1.959A1.962,1.962,0,0,0,87.174,52ZM53.61,59.4H46.924v-10.9h6.532v1.864H49.027V52.6h3.348v1.877H49.027v3.053h4.584v1.863h0Zm-36.14,0H10.784v-10.9h6.532v1.864H12.886V52.6h3.349v1.877H12.886v3.053h4.585v1.863h0Zm41-.011h-2.1v-10.9h3.978a3.266,3.266,0,0,1,2.375.808,3.045,3.045,0,0,1,0,4.465,2.964,2.964,0,0,1-1.1.63l4.1,5-2.612,0-3.871-4.822h-.76v4.822h0Zm-.011-6.7H60.2a1.3,1.3,0,0,0,1.057-.32,1.153,1.153,0,0,0,.309-.832,1.324,1.324,0,0,0-.309-.843c-.151-.17-.394-.344-1.057-.344H58.456Zm-22.293,6.7h-2.1v-10.9h1.472l6.081,7.1v-7.1h2.1v10.9H42.245l-6.081-7.1v7.1h0Zm-34.063,0H0v-10.9H3.978a3.266,3.266,0,0,1,2.375.808,3.045,3.045,0,0,1,0,4.465,2.8,2.8,0,0,1-1.092.63l4.072,5-2.587,0L2.862,54.561H2.1v4.822h0Zm.013-6.7H3.86a1.3,1.3,0,0,0,1.057-.32,1.289,1.289,0,0,0,0-1.675c-.151-.17-.394-.344-1.057-.344H2.114Zm81.508,6.7H75.583l4.679-5.7a3.121,3.121,0,0,0,.867-2.173,1.536,1.536,0,0,0-1.5-1.5,1.557,1.557,0,0,0-1.5,1.5h-2.1a3.651,3.651,0,0,1,1.131-2.452,3.547,3.547,0,0,1,2.431-.945h.072a3.5,3.5,0,0,1,3.562,3.432,4.715,4.715,0,0,1-1.187,3.183l-2.293,2.744h3.872v1.911h0Zm-12.506,0h-2.1V54.454l-3.742-5.973h2.387l2.412,3.836,2.375-3.836h2.386l-3.717,5.973v4.928h0Zm-40.06,0h-2.1v-10.9h2.1v10.9h0Zm-8.741,0h-2.1V48.492h6.532v1.864H22.316V52.6h3.349v1.877H22.316v4.9h0Zm5.1-40.262A19.121,19.121,0,1,1,46.532,38.243,19.143,19.143,0,0,1,27.411,19.121Zm2.268-.012A16.853,16.853,0,1,0,46.532,2.268,16.872,16.872,0,0,0,29.679,19.109Zm24.9,12.529H51.508L44.37,22.327a6.73,6.73,0,0,1-.7.024H42.244L39.525,26.33h6.021v2.28H35.332L39.6,22.375H37.149V20.106h3.99l.974-1.4a5.269,5.269,0,0,0,1.2-2.721A1.827,1.827,0,0,0,41.282,14,1.9,1.9,0,0,0,39.228,16H36.805A4.151,4.151,0,0,1,38.087,13a4.547,4.547,0,0,1,3.195-1.269c2.755,0,4.466,1.6,4.466,4.168a7.246,7.246,0,0,1-1.58,3.611l-.379.558h.06c3.449,0,5.427-1.857,5.427-5.1S47.3,9.881,43.848,9.881H37.161V7.612h6.508c4.076,0,6.822,1.729,7.731,4.87a5.1,5.1,0,0,1,2.791-.8A4.883,4.883,0,0,1,59.2,16.627c0,1.934-1.234,3.658-2.325,5.18l-.169.236-4.477,6.543,2.35,3.051h0Zm-7.539-9.787,3.683,4.763,3.634-5.083h-.131a4.885,4.885,0,0,1-3.943-1.817A6.6,6.6,0,0,1,47.042,21.852Zm4.62-5.665v.072a1.786,1.786,0,0,0-.023.356,2.522,2.522,0,0,0,2.553,2.66,2.467,2.467,0,0,0,1.8-.713,2.69,2.69,0,0,0,.741-1.947,2.523,2.523,0,0,0-2.554-2.66A2.485,2.485,0,0,0,51.662,16.187ZM62.115,2.209a1.746,1.746,0,0,1,3.492,0A1.771,1.771,0,0,1,63.86,3.955,1.748,1.748,0,0,1,62.115,2.209Zm.237,0A1.509,1.509,0,1,0,63.86.7,1.51,1.51,0,0,0,62.352,2.209Zm1.115.94h-.236V1.236H63.9a.6.6,0,0,1,.451.142.46.46,0,0,1,.142.344.5.5,0,0,1-.142.344A.519.519,0,0,1,64,2.209l.628.936-.26,0-.653-.939h-.249v.939h0Zm0-1.165h.416V2h.009a.37.37,0,0,0,.3-.095l.012-.021a.279.279,0,0,0,.058-.157.244.244,0,0,0-.071-.179.386.386,0,0,0-.309-.095h-.416Z" transform="translate(4.054 8.108)" fill="#fbfcfd"/>
</svg>
