<svg id="clients_uniqlo" data-name="clients/uniqlo" xmlns="http://www.w3.org/2000/svg" width="98" height="74" viewBox="0 0 98 74">
  <path id="uniqlo" d="M68.162,34.144H35.45V0H68.163V34.143h0Zm-24.495-4.75h0l.7,2.213h2.122L45.438,28.4a3.7,3.7,0,0,0,1.018-2.569V22.292a3.457,3.457,0,1,0-6.9,0v3.541a3.549,3.549,0,0,0,3.454,3.63,3.266,3.266,0,0,0,.66-.068Zm13.42-7.1v3.541a3.487,3.487,0,1,0,6.968,0V22.292a3.487,3.487,0,1,0-6.968,0Zm-7.919,7.137h6.9V27.314H51.232V18.652H49.168Zm2.1-20.022,2.768,6.043h2.036V4.7H54.037v6.112L51.266,4.7H49.173V15.45h2.093V9.407Zm-11.7,2.511a3.467,3.467,0,0,0,3.389,3.532h.119a3.466,3.466,0,0,0,3.39-3.532V4.7H44.368v7.187a1.357,1.357,0,1,1-2.712,0V4.7H39.565ZM59.52,15.449h2.063V4.673H59.52Zm-26.808,18.7H0V0H32.713V34.143h0Zm-28.595-4.7h7.918l2.051-10.393H6.168l-1.2,6.1H7.039l.793-3.89h3.783L10.4,27.239H4.552Zm14.466-.006h8.964v-10.4H18.583ZM5.149,15.113h8.92V12.948H12.036V4.7H6.2V6.847H10v6.1H5.149Zm13.474-.019h8.9V12.938h-8.9Zm1-8.267H26.49V4.672H19.623Zm1.024,20.489V21.191h4.809v6.126Zm38.542-1.5V22.275a1.369,1.369,0,1,1,2.737,0v3.543a1.37,1.37,0,1,1-2.737,0Zm-17.554,0V22.275a1.357,1.357,0,1,1,2.712,0v3.543a1.358,1.358,0,1,1-2.712,0Z" transform="translate(14.568 19.821)" fill="#191919"/>
</svg>
