<svg xmlns="http://www.w3.org/2000/svg" viewBox="0 0 1440 900"><defs><style>.cls-1{fill:#25b89d;}.cls-2{fill:#3d55cc;}</style></defs><title>Wunderkind_Patterns_WEB-Cropped</title><g id="Backgrounds"><rect class="cls-1" width="1440" height="900"/></g><g id="Color"><path class="cls-2" d="M378.31,38c-3.19,2.29-6.63,4.24-9.7,6.67s-5.76,5.34-8.74,7.88-6.27,4.74-9.19,7.37c-7.19,6.46-13.82,13.53-20.74,20.28s-14.14,13.2-21.07,19.95-13.58,13.8-20.79,20.24-14.95,12.23-22.7,18c-4.33,3.25-8.44,6.78-12.95,9.66a151,151,0,0,1-14.3,7.52c-4.81,2.38-9.57,5-14.7,6.67a102.46,102.46,0,0,1-15.77,3.42,115.73,115.73,0,0,1-19.78,2.07c-6.67,0-13.24-1.1-19.8-2s-13.17-1.66-19.67-3.11-12.77-3.6-19.2-5.28-12.69-2.73-19-4.16-12.6-3.22-19-4.15a154.83,154.83,0,0,0-19.4-1.15c-6.4-.13-12.89-.31-19.41.64-8.74,1.27-16.88,3.93-24.77,6.8A146.61,146.61,0,0,0,4.18,165.82c-1.53.89-3,1.83-4.51,2.79v31.28c3.34-2.7,6.78-5.28,10.25-7.8,6.69-4.89,13.53-9.64,21.14-13.21a117.36,117.36,0,0,1,23.73-7.61,94.17,94.17,0,0,1,17.48-2.75c5.93-.2,11.8.64,17.66,1.33s11.74,1.25,17.53,2.53,11.33,3.28,17,4.85c4.34,1.19,8.8,1.91,13.12,3.13s8.52,2.93,12.86,4.09,8.82,1.75,13.2,2.75,8.67,2.41,13.11,3.16a104.69,104.69,0,0,0,23.93.82,103.12,103.12,0,0,0,23.64-3.72c7.59-2.3,14.73-5.91,21.87-9.77a155.8,155.8,0,0,0,20.4-12.58c7.58-5.72,14.5-12.19,21.53-18.49s14.25-12.46,21-19.11,13-13.75,19.66-20.47S342.52,94,349.34,87.44c4.53-4.36,8.74-9,13.41-13.21s9.79-7.86,14.71-11.74,9.68-8,15-11.42A164.09,164.09,0,0,1,409,42.15c8.23-4.1,16.23-7.6,24.35-9.51A104.63,104.63,0,0,1,485,35.38c7.88,2.75,15.48,7.06,23.24,12a175.66,175.66,0,0,1,19.12,13.4c6,5,11.3,10.73,16.76,16.28S555.24,88,560.4,93.82s9.79,12.12,14.85,18.05,10.46,11.54,15.5,17.48,9.73,12.19,14.93,18S616.57,158.46,622.1,164,633,175.12,639,180.14a152.17,152.17,0,0,0,37.82,23.2c14.3,6.15,28.67,9.73,43.14,9.73s28.85-3.58,43.13-9.75A150.77,150.77,0,0,0,800.8,180c7.87-6.64,14.89-14.12,21.94-21.5S837,143.76,843.6,136s12.72-16.07,19.28-23.95,13.58-15.35,20.45-22.94c3.54-3.93,6.76-8.15,10.44-11.92s7.84-7.09,11.72-10.65,7.55-7.41,11.69-10.7,8.68-6,13.1-8.9c8.32-5.51,16.44-10.24,24.84-13.26a100.67,100.67,0,0,1,55.62-1.94c8.59,2.41,17,6.55,25.72,11.45,6.09,3.43,12.22,6.72,17.91,10.67s11,8.56,16.42,12.87,11.14,8.32,16.47,12.79,10.29,9.37,15.64,13.81c4.22,3.52,8.77,6.62,13,10s8.29,7.24,12.7,10.49,9.22,6,13.86,8.9,9.1,6.13,14,8.63a97.44,97.44,0,0,0,22.6,7.87c8,1.88,15.94,3,23.77,2.38s15.47-3,23.11-6.1a100.59,100.59,0,0,0,21.13-11.23c7.66-5.5,14.33-11.9,20.8-18.34a201.85,201.85,0,0,0,18.6-20.57C1292.1,78,1296.8,70,1301.61,62.07s9.65-15.73,13.89-24c2.52-4.93,4.6-10.09,7.15-15s5.59-9.58,8.17-14.48c1.66-3.17,3.13-6.43,4.65-9.66h-54.62c-.14.22-.28.44-.41.67-2.5,4.64-4.56,9.54-7.14,14.14s-5.7,8.91-8.49,13.38-5.28,9.18-8.39,13.44a156.07,156.07,0,0,1-10.35,12c-5.39,6-10.61,12-16.5,17a107.58,107.58,0,0,1-19.79,13c-6.94,3.65-14.15,6.85-22.08,8.36-7.36,1.4-15.22,1.25-23.61.37A97.84,97.84,0,0,1,1146,88c-5.87-1.78-11.36-4.53-16.91-7.12s-11.15-5-16.47-8.1-10.22-6.72-15.42-9.95c-5.55-3.45-11.33-6.54-16.83-10.06s-10.72-7.49-16.28-10.92-11.44-6.33-17.15-9.5-11.28-6.6-17.24-9.33a127.55,127.55,0,0,0-29.15-9c-10.3-2-20.42-3-30.4-1.89s-19.66,4.15-29.32,8.24a131.37,131.37,0,0,0-26.71,14.73c-4.41,3.22-8.34,7-12.48,10.51s-8.53,6.77-12.47,10.51-7.42,8-11.2,11.86-7.88,7.51-11.56,11.51c-6.69,7.26-12.82,15-19.35,22.46s-13.46,14.49-20.19,21.71-13.31,14.63-20.61,21.3a229,229,0,0,1-23.38,18.19c-10,7-19.83,12.82-30,16.62a104.3,104.3,0,0,1-33.62,6.24,105.45,105.45,0,0,1-34-4.05c-10.39-3.1-20.61-8.25-31.07-14.46a160.38,160.38,0,0,1-14.85-9.38c-4.67-3.54-8.83-7.69-13.19-11.61s-8.92-7.59-13-11.76-7.78-8.76-11.78-13c-6.7-7.17-13.59-14.19-20.06-21.59S568.85,85,562.27,77.72,548.56,63.64,541.5,56.8s-14-13.72-21.88-19.75A135.72,135.72,0,0,0,489,19.48c-11.34-4.75-22.67-7.9-34.22-8.43s-23.12,1.56-34.85,5.25A135.94,135.94,0,0,0,387.76,31C384.44,33.07,381.49,35.7,378.31,38Z"/><path class="cls-2" d="M655.84,891.67c-3.77-4.47-7-9.37-10.61-14s-7.55-9-11.09-13.62-6.69-9.64-10.32-14.23c-2.23-2.83-4.9-5.32-7.19-8.09s-4.22-5.88-6.61-8.59-5.19-5-7.69-7.62-4.67-5.52-7.3-8a111.12,111.12,0,0,0-22.94-16.31c-8.52-4.69-17.15-8.35-26.24-10.06s-18.48-1.44-28.12-.26a119.52,119.52,0,0,0-27.44,6.33c-7.4,2.75-14.22,6.52-21,10.25a196.07,196.07,0,0,0-20,12.09c-6.32,4.52-12.1,9.78-18.07,14.82s-12.08,9.84-17.82,15.12c-6.15,5.66-11.91,11.74-18,17.46S382.87,878,376.78,883.75c-5.26,5-10.27,10.16-15.48,15.16h13.34c3.51-3.4,6.77-7,10.33-10.39,3.81-3.58,8-6.78,11.77-10.38,5.76-5.48,11.19-11.31,17.06-16.65s12.22-10.18,18.37-15.2,12.16-10.25,18.72-14.75a216.11,216.11,0,0,1,20.6-12c12-6.42,23.3-11.41,34.34-14A86.75,86.75,0,0,1,542.7,805a84.88,84.88,0,0,1,33.87,14.58c9.17,6.64,17.61,15.66,26.08,26.34,4,5,8.21,9.77,12,14.92s7,10.67,10.65,15.9,7.68,10.19,11.31,15.43c1.54,2.21,3,4.47,4.45,6.73h21.56C660.26,896.56,658,894.19,655.84,891.67Z"/><path class="cls-2" d="M1439.67,884.05q-5.57-2.49-11.11-5c-24.12-11.06-47.91-22.87-71.92-34.21-11.85-5.59-23.83-10.95-35.63-16.7s-23.43-11.9-35.42-17.16-24.4-9.63-36.86-13.75-24.91-7.94-38-10.24c-8.36-1.47-16.25-3.16-23.43-6.05a97,97,0,0,1-20.9-12.15,100.6,100.6,0,0,1-18-16.17c-5-6-9.13-12.91-13.23-20.28-3.8-6.81-7.85-13.47-11.31-20.43s-6.33-14.24-9.6-21.3-7-13.93-10.23-21-6-14.37-9.4-21.39c-2.89-6-6.26-11.84-9.3-17.79s-5.77-12.11-9.18-17.85a191.53,191.53,0,0,0-11.52-16.43c-4-5.32-7.88-10.77-12.64-15.58a79.53,79.53,0,0,0-15.57-11.83c-5.76-3.51-11.56-6.5-17.81-8s-12.77-1.52-19.5-1.05A80.65,80.65,0,0,0,979.88,563c-6.13,2-11.86,4.78-17.63,7.42s-11.69,5.15-17.22,8.31-10.67,7-16,10.47-10.89,6.64-16.14,10.27c-6.32,4.36-12.28,9.25-18.55,13.7s-12.84,8.45-19.21,12.76-12.54,8.91-19.15,12.83-13.58,7.11-20.56,10.41c-11.86,5.6-22.91,9.84-33.52,11.74a81.1,81.1,0,0,1-66.5-18.11c-8.2-7-15.57-16.27-23-27.11-4-5.85-8.12-11.57-11.64-17.67s-6.4-12.58-9.65-18.84-6.89-12.33-10.06-18.63-5.91-12.83-9.21-19.07c-3.11-5.86-6.68-11.49-9.93-17.26s-6.24-11.77-10-17.26a145.73,145.73,0,0,0-12.57-15.43c-4.37-4.88-8.81-9.83-14.16-14A71.7,71.7,0,0,0,608.17,468c-6.27-2.56-12.52-4.46-18.93-4.69s-12.77,1.23-19.21,3.35a71.33,71.33,0,0,0-17.72,8.22c-4.52,3-8.5,6.66-12.62,10.09s-8.45,6.73-12.25,10.55-7.05,8.15-10.55,12.25-7.26,8-10.52,12.27c-9.69,12.8-18.68,26.1-27.88,39.23S459.85,585.42,451,598.79s-17.15,27.12-25.83,40.62-17.73,26.74-26.36,40.26c-6,9.35-11.5,19-17.67,28.17s-13,18-19.79,26.71S347.73,752.06,340,760a214,214,0,0,1-25.33,21.49c-6.1,4.52-12.07,8.67-18.45,11.54a84.63,84.63,0,0,1-20.92,5.88,85.69,85.69,0,0,1-21.7,1.37c-7-.6-14-2.52-21.23-4.74-4.57-1.4-9.23-2.49-13.64-4.22s-8.57-4.14-12.86-6.18-8.76-3.77-12.93-6.07-8-5.14-12-7.64c-10.27-6.31-20.51-12.6-30.27-19.6s-19-14.68-28.56-22S102.75,715.37,93.27,708s-18.69-15.15-28.38-22.26c-4.69-3.43-9.69-6.41-14.45-9.72s-9.32-7-14.25-10S26,660.54,20.76,657.93,10.51,652.5,5,650.48c-1.79-.66-3.58-1.2-5.35-1.66V672.6c1.19.34,2.38.69,3.6,1.07,2.19.67,4.53.92,6.69,1.73s4.08,2.15,6.19,3.06,4.42,1.39,6.48,2.39,3.88,2.52,5.9,3.6c6.15,3.29,12.39,6.39,18.23,10.13S58,702.71,63.69,706.77s11.52,7.8,17.06,12S91.49,727.62,97,731.82c9.54,7.22,19.32,14.14,28.85,21.37s18.85,14.8,28.67,21.63,20.13,12.92,30.51,18.92,20.71,11.86,31.82,16.58a121.9,121.9,0,0,0,28,7.83c9.92,1.65,19.59,2.29,29,.85s18.46-4.93,27.42-9.54A115.17,115.17,0,0,0,325.5,793.3c4.24-3.76,8-8,12-12s8.28-7.72,12-11.93,7-8.88,10.46-13.32,7.23-8.69,10.4-13.38c8.22-12.11,15.95-24.54,24.09-36.7s16.69-24,24.8-36.22,15.77-24.65,23.89-36.82,16.69-24.05,24.86-36.18c5.57-8.29,10.72-16.87,16.44-25s12-16,18.21-23.79,12.26-15.78,19.17-23A228.87,228.87,0,0,1,544.22,505c7.38-5.95,14.52-10.78,21.85-13.63a53.82,53.82,0,0,1,25.39-3.21,55,55,0,0,1,24.28,8.17c6.65,4.21,12.76,10.3,18.93,17.47a158.84,158.84,0,0,1,11.25,13.89c3.35,4.93,6,10.29,9,15.47s6.18,10.19,8.88,15.51,4.85,10.9,7.48,16.25c3.3,6.7,7,13.21,10.27,19.93s6.16,13.64,9.7,20.22,7.74,12.78,11.82,19,8,12.58,12.86,18.35a97.65,97.65,0,0,0,17.5,15.87c6.59,4.82,13.33,8.9,20.7,11.31s15.22,3.09,23.39,3.05A93.34,93.34,0,0,0,800.94,680c7.23-1.89,14-4.84,20.7-7.73a198,198,0,0,0,20-9.45c6.39-3.65,12.35-8,18.51-12.1s12.48-7.84,18.54-12.05c5.7-4,11.06-8.44,16.74-12.46s11.66-7.58,17.42-11.46,11.34-8.08,17.33-11.63,12.31-6.39,18.61-9.41c9.74-4.65,18.74-8.36,27.45-10.12a72.26,72.26,0,0,1,55.66,12.28c7.16,5.26,13.77,12.41,20.65,20.72,4.22,5.1,8.56,10.07,12.27,15.48s6.78,11.3,10.12,17,7,11.18,10.09,17,5.64,11.91,8.65,17.77c3.92,7.68,8.19,15.18,12,22.92s7.12,15.72,11,23.41,8.4,15.06,12.67,22.56,8.31,15.1,13.17,22.26a122.8,122.8,0,0,0,11.32,13.62c4,4.43,8,8.82,12.69,12.36a114.74,114.74,0,0,0,32,15c11.15,2.57,22.26,5.1,33.1,8.48s21.47,7.65,32.13,11.66,21.41,7.79,31.92,12.21,20.73,9.45,31.15,14.07c24.66,10.91,49.54,21.32,74.3,32l10.74,4.64h27.85Z"/><path class="cls-2" d="M1109.43,893.38a252,252,0,0,1-32.26-18.18c-10-6.85-19.4-14.89-28.8-23.29-5.34-4.77-11.09-9.08-16.58-13.68s-10.72-9.53-16.38-13.92-11.71-8.26-17.55-12.4-11.49-8.58-17.54-12.43c-5.05-3.21-10.43-5.84-15.64-8.67s-10.39-6-15.88-8.23a123.55,123.55,0,0,0-17.1-5.17c-5.7-1.43-11.49-2.94-17.55-3.38a79.93,79.93,0,0,0-22.89,2,78.81,78.81,0,0,0-21.69,7.61c-6.64,3.65-12.55,8.61-18.42,13.81a162.43,162.43,0,0,0-16.39,16.2c-3.64,4.3-6.83,9-10.4,13.36s-7.53,8.42-11.12,12.77-6.84,9-10.56,13.24-7.93,8.05-11.89,12.07c-7.59,7.72-15.26,14.12-23.49,18.37a68.47,68.47,0,0,1-28.79,7.34,70.64,70.64,0,0,1-29.36-4.64c-8.64-3.41-17-8.94-25.4-15.66-3.74-3-7.63-5.77-11-9.08s-6.27-7.16-9.4-10.74-6.55-6.92-9.5-10.66-5.4-7.84-8.25-11.65c-3.79-5.06-7.9-9.89-11.6-15s-7-10.58-10.76-15.64S615.15,788,611.1,783.1s-7.87-9.91-12.34-14.42A115.91,115.91,0,0,0,574.08,750c-9.33-5.39-18.84-9.4-28.83-11S525,738,514.38,740.09A117.26,117.26,0,0,0,485,749.77c-4.52,2.23-8.68,5.1-13,7.68s-8.78,4.94-12.84,7.89-7.68,6.46-11.5,9.73-7.84,6.29-11.4,9.85c-7,7-13.59,14.49-20.51,21.61s-14.18,13.91-21.07,21.06-13.42,14.65-20.35,21.76-14.29,13.8-21.34,20.79c-5.64,5.59-11.06,11.38-17.06,16.44a163.46,163.46,0,0,1-17.19,12.33h29c4.77-4,9.46-8.26,14-12.9,6.83-7,13.27-14.36,20.15-21.33s14.15-13.49,21.2-20.27,13.87-13.8,21.25-20.23,15.24-12.2,23.07-18.1c6.9-5.21,13.65-10.48,20.88-14.74a143,143,0,0,1,23.22-10.62c7.95-2.94,16.06-5.54,24.65-6.55,8.16-1,16.63-.43,25.49.76,6.4.87,12.52,1.94,18.17,4.09,5.88,2.24,11.15,5.56,16.38,8.91a123.76,123.76,0,0,1,15.16,10.86c4.63,4.06,8.7,8.82,13,13.39,5.86,6.19,11.78,12.33,17.16,18.94s10.2,13.66,15.47,20.36,11,13,16.53,19.5,10.92,13.09,17.09,19a120.36,120.36,0,0,0,10.64,8.93h106a72.67,72.67,0,0,0,5.91-6.35c3.7-4.6,6.9-9.59,10.46-14.3s7.49-9.13,11-13.87,6.63-9.79,10.22-14.48,7.64-9,11.39-13.57c6-7.28,12-13.65,18.8-18.39a75.54,75.54,0,0,1,23.94-10.74,79.88,79.88,0,0,1,26.07-3c8.31.51,16.84,2.67,25.75,5.43A187.63,187.63,0,0,1,956.15,819c8.14,3.87,15.74,8.7,23.41,13.39s15.42,9.25,22.81,14.4,14.35,10.86,21.64,16.12c2.54,1.83,5.4,3.22,8,5s4.81,4.07,7.34,5.91,5.37,3.3,7.86,5.21,4.61,4.28,7,6.31a160.83,160.83,0,0,0,18.88,13.54h48.18C1117.26,897.14,1113.33,895.28,1109.43,893.38Z"/><path class="cls-2" d="M1237.58,885.75c-16.14-5-32.35-9.93-49-13.45-9.58-2-18.91-4.1-27.69-7.28a168.72,168.72,0,0,1-25.79-12.4c-8.27-4.7-16.39-9.7-23.76-15.93-7.12-6-13.45-13.15-19.71-20.74-1.8-2.17-4-4-5.87-6.13s-3.3-4.6-5.17-6.72-4.13-3.89-6-6-3.34-4.58-5.18-6.71c-6.22-7.19-12.76-14.13-19-21.34s-12.12-14.71-18.63-21.62-13.65-13.25-20.79-19.55S996.82,715.33,988.82,710a112.46,112.46,0,0,0-25.29-12.38c-9.35-3.3-18.47-5.33-27.62-5.07s-18.15,2.8-27.29,6.62A112.85,112.85,0,0,0,884.07,713c-1.83,1.38-3.32,3.21-5.11,4.65s-3.89,2.51-5.65,4-3.14,3.4-4.87,4.92-3.79,2.66-5.5,4.19c-5.91,5.29-11.3,11.17-17,16.68s-11.81,10.65-17.68,16-11.55,10.94-17.87,15.77a166.17,166.17,0,0,1-20.14,12.71c-8,4.45-15.85,8.07-23.82,9.9A81.15,81.15,0,0,1,716,795.4c-7.28-3.76-14-9.21-20.63-15.49a149.64,149.64,0,0,1-10.84-10.67c-3.31-3.85-6-8.16-9-12.25s-6.29-8-9.08-12.21-5-8.81-7.73-13.11c-3.59-5.77-7.53-11.32-11-17.15s-6.57-11.91-10.21-17.65-7.83-11.1-11.83-16.6-7.79-11.13-12.35-16.22a97.31,97.31,0,0,0-21.81-18c-8.5-5.23-17.17-8.93-26.27-10.12s-18.44.17-28,3.07a96.62,96.62,0,0,0-25.65,11.87c-5.84,3.87-11.05,8.5-16.33,13s-10.76,8.83-15.7,13.73-9.33,10.3-14.05,15.41-9.75,9.93-14.42,15.08c-9.24,10.18-17.71,21-26.41,31.66S407,760.82,398.38,771.55s-16.84,21.75-25.74,32.21-18.46,20.35-28.1,30.18c-4.45,4.54-8.66,9.32-13.41,13.45A154.58,154.58,0,0,1,315.8,858.6c-5.23,3.55-10.45,7.16-16.24,9.82a99,99,0,0,1-18.06,5.79,95.35,95.35,0,0,1-23.56,3.25c-8-.08-15.82-1.66-23.55-3.42a167.34,167.34,0,0,1-22.9-6.56c-7.36-2.81-14.44-6.52-21.69-9.88s-14.63-6.5-21.72-10.19-13.89-7.94-21-11.69-14.4-7-21.57-10.52-14.21-7.37-21.62-10.42c-4.32-1.77-8.85-2.94-13.24-4.41s-8.75-3.28-13.27-4.31a110.19,110.19,0,0,0-13.84-1.74c-4.58-.44-9.21-1.09-13.93-.83-7.79.42-15.09,2.23-22.15,4.23a113.75,113.75,0,0,0-21.14,7.86c-2.29,1.18-4.51,2.48-6.7,3.86v55.89c4.91-2.41,9.84-4.62,14.82-6.55A188.42,188.42,0,0,1,61.3,857.49c15.81-1.84,31.84-2,48.12.72,15.13,2.54,30.34,7.65,45.94,14.49,4.21,1.84,8.67,3.08,13,4.73s8.43,3.71,12.77,5.24,8.85,2.53,13.2,4,8.53,3.49,12.86,5a143.1,143.1,0,0,0,31.41,7.19h34.06q3.89-.57,7.71-1.47c11.81-2.8,23-8,33.94-14.71a156.69,156.69,0,0,0,29.33-22.66c7.21-7.16,13.76-14.92,20.51-22.46s13.74-14.93,20.25-22.7,12.56-15.94,19-23.73S416.8,776,423.47,768.3c5.43-6.23,10.51-12.78,16.13-18.81s11.82-11.57,17.88-17.15,12.09-11.28,18.81-16.13a159.52,159.52,0,0,1,21.4-12.46c9.28-4.7,18.19-8.44,27-10.23a83.66,83.66,0,0,1,56,9.57c7.76,4.63,14.92,11.11,22.12,18.61,3.45,3.6,7.1,7,10.22,10.85s5.69,8.15,8.58,12.19,6.12,7.83,8.89,12,5.06,8.56,7.81,12.69c3.45,5.18,7.3,10.09,10.77,15.25s6.59,10.58,10.28,15.58,8,9.56,12,14.26,8,9.51,12.63,13.73a97.61,97.61,0,0,0,24.85,16.2c9.37,4.35,18.88,7.22,28.6,7.61s19.43-1.71,29.11-5.3a97.44,97.44,0,0,0,26.08-14.16c3.86-3,7.22-6.53,10.81-9.79s7.43-6.3,10.84-9.77,6.36-7.37,9.66-10.93,7-6.8,10.28-10.36c1.59-1.73,2.8-3.81,4.4-5.54s3.58-3.09,5.19-4.81,2.86-3.77,4.5-5.46,3.67-3,5.35-4.63c9.43-9.22,18.43-16.94,27.76-22.34a82.84,82.84,0,0,1,68.91-6.32c10.16,3.61,20.42,9.55,31.38,16.88a299.78,299.78,0,0,1,24.41,17.62c7.75,6.39,14.87,13.48,22.21,20.34s14.86,13.49,22,20.52,14,14.46,21.22,21.38c6.3,6,13.06,11.37,19.69,16.77s13.38,11,20.66,15.55A150.69,150.69,0,0,0,1135.21,883c7.83,3.17,15.91,6.16,24.63,7.8,12.87,2.43,25.69,5,38.34,8.09h79.62C1264.51,894.19,1251.05,889.93,1237.58,885.75Z"/><path class="cls-2" d="M1398.73,575.94c-13.18-.22-26.36-.22-39.5-1.26s-26.1-3.09-39.15-5.32c-5.88-1-11.83-1.6-17.65-2.82s-11.52-3.07-17.29-4.54-11.64-2.58-17.34-4.33-11.16-4.15-16.76-6.21c-16.14-5.94-30.4-13.09-42.59-22.11-13.25-9.8-24-21.64-33.33-34.49A198.92,198.92,0,0,1,1151.59,453c-5.9-14.43-10.07-30-13.85-46.06-1.92-8.19-4.28-16.28-6.26-24.45s-3.57-16.47-6-24.52-5.61-15.84-8.81-23.63-6.36-15.51-10.67-22.85a94.68,94.68,0,0,0-17.43-21.69c-7.72-7.16-15.7-11.74-24.3-12.84s-17.46,1.32-26.76,6.27a95.67,95.67,0,0,0-22.41,16.49c-.22.22-.07.81-.29,1s-.81.09-1,.32-.05.82-.26,1.05-.81.1-1,.32c-5.11,5.41-9.36,11.45-13.68,17.36s-8.79,11.86-12.58,18.18-6.89,13-10.35,19.54-7.29,12.82-10.68,19.36c-3.14,6.08-5.79,12.43-9,18.5s-6.85,11.86-10.24,17.8-6.5,12.08-10.32,17.77A196.48,196.48,0,0,1,923,447.09c-5.44,6.52-10.87,12.47-17,17.08a80.81,80.81,0,0,1-21.36,11.08,79,79,0,0,1-23.5,5.13c-7.64.34-15.6-.84-24-2.52a175,175,0,0,1-27.52-7.45c-8.93-3.37-17.34-7.84-25.77-12.24s-16.88-8.75-25-13.76-15.79-10.61-23.78-15.78c-9.69-6.27-19.56-12.29-29.17-18.71s-19-13.24-28.76-19.36-20-11.51-30.26-16.86S626.49,363.07,615.59,359a162.49,162.49,0,0,0-35.83-9c-13-1.78-25.22-1.82-36.81,1s-22.42,8.38-33.19,15.92a160.82,160.82,0,0,0-27.71,24.44c-8.05,9-15.26,18.6-22.55,28.14s-14.69,19-21.43,29S425.25,468.79,418.84,479s-13.13,20.15-19.42,30.39c-5.41,8.82-10.26,18-15.61,26.84S372.62,553.62,367,562.3,356,579.82,349.72,588.09a286,286,0,0,1-20.33,23.44c-8.11,8.64-16.14,16-24.72,21.13A81.75,81.75,0,0,1,241.75,641c-9.63-2.79-19.27-7.79-29.33-14.06-3.47-2.16-7.15-4-10.47-6.35s-6.28-5.22-9.48-7.73-6.7-4.7-9.81-7.33-5.84-5.71-8.89-8.43c-7.14-6.36-14.45-12.54-21.36-19.16s-13.39-13.68-20.3-20.29-14.24-12.79-21.39-19.14S96.59,525.59,89,519.76a160.59,160.59,0,0,0-21.53-13.44c-7.59-4.11-15.2-7.87-23.25-10.15A95.52,95.52,0,0,0,19,493,108.15,108.15,0,0,0-.33,494.35v25.08a90.24,90.24,0,0,1,28.87,1.73C40,523.79,51.37,529,62.68,535.9c3.63,2.21,7.45,4.1,10.9,6.54s6.52,5.43,9.81,8.1,6.84,5,10,7.9,5.79,6.19,8.75,9.23c5.91,6.06,12.17,11.79,18,17.9s11.33,12.6,17.18,18.72,12.06,11.9,17.91,18S166.56,634.9,172.45,641c3,3,6.33,5.65,9.41,8.55s5.91,6.11,9.15,8.84,6.87,5,10.27,7.49,6.56,5.38,10.11,7.7a115.66,115.66,0,0,0,27.85,13.13c10.33,3.37,20.4,5.18,30.37,4.4s19.64-4.15,29.3-9.1a114.86,114.86,0,0,0,25.37-17.44c7.57-6.94,14.24-14.66,20.9-22.31s13.4-15.39,19.43-23.61,11.36-16.91,17-25.42,11.56-16.8,17.06-25.39c7.89-12.32,15.27-25,23.18-37.28s16.37-24.28,24.65-36.34,16.41-24.25,25.4-35.81,18.74-22.4,28.73-33.18c8.66-9.34,16.93-17.32,25.69-23.22a90.53,90.53,0,0,1,31.77-13.41,93.07,93.07,0,0,1,34.47-1.26c10.46,1.59,21.38,5.2,33.23,9.76,6.73,2.59,13.47,5,19.86,8.2s12.44,7.1,18.61,10.74,12.5,7,18.5,10.93,11.62,8.38,17.53,12.43c7.88,5.42,16,10.52,23.79,16.05s15.33,11.47,23.24,16.85,16.19,10.18,24.37,15.16,16.23,10.11,24.81,14.41c4.13,2.07,8.52,3.55,12.73,5.35s8.34,4,12.69,5.45,8.91,2.27,13.39,3.34,8.88,2.41,13.48,3a81.33,81.33,0,0,0,23.12-.71c7.9-1.23,15.35-3.23,22.08-6.8s12.57-8.62,18.27-14.21a115.84,115.84,0,0,0,15.12-17.55c4.39-6.48,7.92-13.44,11.62-20.27s7.61-13.59,10.92-20.64,6-14.37,9.24-21.47,6.92-14,10.32-21c2.61-5.36,4.79-10.95,7.57-16.2s6.18-10.22,9.37-15.23,6.22-10.2,10-14.8a108.8,108.8,0,0,1,12.83-12.44c3.2-2.77,6.18-5.79,9.61-8.1a67.25,67.25,0,0,1,11.24-5.59c3.85-1.63,7.72-3.32,11.91-3.93,4-.59,8.17-.13,12.53.44,5.24.68,10,1.65,14.07,3.72,4.44,2.25,8,5.63,11.36,9.11a68.07,68.07,0,0,1,9.29,11.24c2.54,4.07,4.37,8.66,6.53,13.07a179.21,179.21,0,0,1,9.6,22.15c2.55,7.66,4.11,15.58,5.78,23.45s3.47,15.73,4.47,23.73,1.18,16.06,1.7,24.1a193.93,193.93,0,0,0,9,46.83c5,15.73,11.71,30.13,20.95,42.73s21,23.3,34.5,32.8a193.24,193.24,0,0,0,42,22.57c9.4,3.6,19.06,6.37,28.62,9.32s19.14,6.1,28.89,8.45,19.68,3.87,29.57,5.63,19.7,3.76,29.68,5c12.69,1.56,25.45,2,38.17,2.57s25.48,1.31,38.24,1.39c7.54,0,15.09-.13,22.63-.27V576.33l-1.43,0C1425.07,576.58,1411.89,576.15,1398.73,575.94Z"/><path class="cls-2" d="M1400,702.74c-11.57-.72-23.12-1.91-34.69-2.62s-23.19-1-34.74-1.88-23.06-2.54-34.58-3.89c-15.52-1.84-30.7-4.13-45.21-8.12a231.38,231.38,0,0,1-42.71-16.8c-13.6-6.84-26.72-14.72-38.65-24.72-11.35-9.53-21.51-21-31.09-33.74-4.6-6.13-9.31-12.14-13.35-18.59s-7.42-13.34-11.06-20-7.57-13.26-10.93-20.12-6.15-14-9.39-20.88c-2.5-5.37-5.56-10.44-8.31-15.65s-5.23-10.64-8.39-15.61A156.89,156.89,0,0,0,1066.22,486c-3.66-4.56-7.26-9.27-11.62-13.38a74,74,0,0,0-17-11.64c-6.35-3.3-12.77-5.85-19.49-6.65s-13.56.16-20.51,1.87a74.44,74.44,0,0,0-19.31,7.28c-4.3,2.44-8,5.62-11.77,8.61a114.14,114.14,0,0,0-11.11,9.44c-3.37,3.48-6.17,7.5-9.23,11.29s-6.36,7.35-9.22,11.31c-3.24,4.49-5.92,9.37-9,14s-6.56,8.93-9.67,13.52-5.83,9.45-9.14,13.9-7.14,8.45-10.82,12.62c-6.09,6.92-12.14,13.06-18.85,17.64a85,85,0,0,1-49.15,13.31c-8.09-.57-16.42-2.81-25.18-5.71a130.18,130.18,0,0,1-21.31-8.71c-6.78-3.69-12.93-8.33-19.1-12.89s-12.41-9-18.19-14.16-11-10.74-16.55-16.06c-6.72-6.42-13.63-12.66-20.15-19.31s-12.63-13.7-19.24-20.24-13.71-12.58-20.73-18.69-13.94-12.3-21.63-17.63a140.33,140.33,0,0,0-31.5-16.38c-12-4.45-23.53-6.7-34.85-5.71s-22.26,5.22-33.3,11.72A138.48,138.48,0,0,0,520.5,467c-9.62,9.64-18.14,20.16-26.58,30.69S477,518.88,469.25,530s-14.86,22.64-22.39,33.89-15.5,22.21-23.28,33.28c-5.71,8.12-10.81,16.66-16.3,24.94s-11.39,16.27-16.95,24.49-10.81,16.68-16.73,24.65-12.47,15.42-19,22.93c-2.69,3.08-5,6.44-7.86,9.38s-6.08,5.45-9,8.26-5.62,5.92-8.72,8.59-6.55,4.84-9.77,7.36c-7.56,5.92-14.93,10.94-22.64,14.22a77.54,77.54,0,0,1-26.06,5.69,81.8,81.8,0,0,1-26.58-2.36c-8.16-2.21-16.22-6.09-24.55-10.63A271.56,271.56,0,0,1,193,718.85c-8.4-5.89-16.17-12.58-24.08-19.09s-16-12.86-23.6-19.69-14.86-14.12-22.49-21c-7.15-6.42-14.59-12.54-21.73-19s-14-13.22-21.4-19.37S64.47,609.08,56.6,603.53s-15.66-11.11-24.19-15.72A109.2,109.2,0,0,0,0,576.5l-.29,0v19.11a41.94,41.94,0,0,1,4.34,1c3.78,1.06,7.33,2.81,11,4.21s7.47,2.45,11,4.09,6.84,3.85,10.33,5.64a289.89,289.89,0,0,1,26.37,14.84c8.44,5.53,16.32,11.85,24.35,18s16.21,12,24,18.41,15.23,13.25,23,19.64c7.52,6.15,15.34,11.95,22.88,18.09s14.81,12.63,22.53,18.53,15.88,11.2,23.95,16.64,16,11,24.57,15.71a96.73,96.73,0,0,0,23.52,9c8.48,2.13,16.78,3.3,25,2.51s16.13-3.51,24.08-7.15a103,103,0,0,0,21.62-12.91c5.51-4.39,10.43-9.41,15.46-14.23s10.29-9.55,14.93-14.79,8.69-11,13-16.55,8.76-10.93,12.7-16.75c8.92-13.14,17.36-26.61,26.21-39.81s18.11-26.1,26.94-39.31,17.22-26.71,26.06-39.9,18.15-26.09,27.05-39.25c3.28-4.85,6.24-9.94,9.73-14.64s7.51-9,11.24-13.5,7.2-9.26,11.21-13.54,8.5-8,12.79-12c3.42-3.18,6.55-6.7,10.13-9.64a112.87,112.87,0,0,1,11.58-7.81c3.94-2.48,7.83-5.11,12.19-6.81a60.8,60.8,0,0,1,13.61-3.07c7-1,13.64-1.52,20-.69,6.75.87,13,3.17,19.21,5.69a102.54,102.54,0,0,1,17.9,9c5.49,3.63,10.47,8.16,15.63,12.59a272.54,272.54,0,0,1,21.25,19.74c6.63,7,12.58,14.69,18.82,22.08s12.78,14.52,19,21.92,12.17,15.05,18.78,22.11c1.68,1.79,3.75,3.22,5.45,5s3.05,3.89,4.79,5.63,3.86,3.07,5.64,4.76,3.23,3.75,5.06,5.38a147.76,147.76,0,0,0,37.19,24.45c14.51,6.64,28.91,10.09,43.24,9.39s28.31-5.55,42.13-13.55a149.43,149.43,0,0,0,34.73-27.83c4.09-4.41,7.71-9.24,11.69-13.75S926,543.31,930,538.85s7.73-9.25,11.94-13.54,8.89-8.07,13.42-12c10-8.78,19.52-15.78,29-20.13a60.33,60.33,0,0,1,66.24,9.26c7.93,6.81,15.1,16.18,22.26,27.43,1,1.59,2.42,2.93,3.37,4.56s1.39,3.52,2.29,5.17,2.24,3.07,3.12,4.74,1.28,3.57,2.16,5.23c1.88,3.56,4.22,6.87,6.1,10.44s3.28,7.36,5.15,10.92,4.19,6.89,6,10.46,3.25,7.39,5.1,11a270.7,270.7,0,0,0,25.37,39.54c9.66,12.7,20,24.49,31.84,34.5s25.21,18.22,39.53,25.29a208.7,208.7,0,0,0,44,16.3c8.29,2,16.72,2.91,25.08,4s16.79,2.27,25.25,2.72,16.93.15,25.4.29,16.93.72,25.39.86c10,.16,19.79.32,29.41,1.58a222.55,222.55,0,0,1,28.78,6.22c9.46,2.54,18.91,5.25,28,9.17,1.83.79,3.63,1.63,5.42,2.51V705.2c-1.63-.2-3.26-.39-4.9-.52C1423.22,703.72,1411.61,703.46,1400,702.74Z"/><path class="cls-2" d="M577.89,895.83a79.85,79.85,0,0,0-14-18c-5.66-5.61-11.69-10.3-18.57-13.16s-14.47-3.82-22.44-3.85a78.31,78.31,0,0,0-22.63,2.93c-7.31,2.15-14.16,5.32-21,8.42a195.11,195.11,0,0,0-20.19,10.12c-6.45,3.88-12.41,8.52-18.53,12.94-1.71,1.24-3.44,2.46-5.17,3.68h44.37c5.63-2.67,11.54-4.83,17.48-7,6.22-2.3,12.3-4.14,18.35-4.55a67.65,67.65,0,0,1,36.11,9.73c.85.57,1.67,1.19,2.49,1.83h25.27C579,897.87,578.45,896.84,577.89,895.83Z"/><path class="cls-2" d="M597.68,1.66c7.59,5.3,15.54,10,23.39,14.64s15.88,9.5,24.3,13.05a136.71,136.71,0,0,0,26.44,7.74c8.77,1.76,17.85,3.11,27.4,2.76,7.4-.27,14.53-1.69,21.55-3.12a155.27,155.27,0,0,0,21.1-5.37c6.83-2.41,13.32-5.73,19.91-8.86s13.19-6,19.56-9.61c7.53-4.22,14.66-9.1,22-13.67l.5-.31H745.13A135.77,135.77,0,0,1,726.6,4.39,138.75,138.75,0,0,1,692,6.92a137,137,0,0,1-34.29-5.23c-2.72-.81-5.43-1.75-8.12-2.78H593.88C595.14-.16,596.4.77,597.68,1.66Z"/><path class="cls-2" d="M-.33,29q2.69,1.2,5.41,2.36C17.36,36.54,29.94,40.81,42.48,45s25.26,8.36,38.18,11.27A320.16,320.16,0,0,0,120,62.11c13.08,1.26,26.32,2.18,39.76,1.55,9.43-.44,18.42-2.33,27.2-4.48a163.49,163.49,0,0,0,26.26-8.37c8.4-3.64,16.31-8.38,24.28-13.11s15.8-9.33,23.34-14.72c8-5.67,15.45-12,23.19-17.94,2.69-2.08,5.42-4.11,8.15-6.13h-37a212.2,212.2,0,0,1-26.2,15.21,173.47,173.47,0,0,1-31,10.61c-10.56,2.68-21.29,4.76-32.35,5.06-10.63.29-21.46-1.1-32.57-3.27-24.51-4.8-48.74-10-72.35-16.87C49.66,6.41,38.69,2.8,27.84-1.09H-.33Z"/><path class="cls-2" d="M1041.86,10.63c5.56,2.4,11.31,4.38,16.84,6.87s10.82,5.49,16.33,8,11.23,4.59,16.74,7.1,10.82,5.5,16.36,8a99.07,99.07,0,0,0,25.41,7.17c9.09,1.41,17.87,1.72,26.34-.06s16.35-5.57,24.19-10.43a107.17,107.17,0,0,0,20.76-16.33c5.2-5.34,9.81-11.18,14.6-16.81,1.49-1.74,3-3.47,4.48-5.2H1132A93.49,93.49,0,0,1,1114.49,1a121,121,0,0,1-23.7-2.09h-85.27C1017.42,1.1,1029.45,5.27,1041.86,10.63Z"/><path class="cls-2" d="M68,421c11.9,3.52,23.76,9.65,36,17.44,6.84,4.37,13.78,8.56,20.3,13.36s12.61,10.19,19,15.23,12.95,9.75,19.24,14.85,12.29,10.6,18.68,15.57C187,502,193.08,506,199,510.41s11.53,9.06,17.62,13.09,12.62,7.41,19.06,10.9,12.78,7.09,19.64,9.8a103.67,103.67,0,0,0,26.14,6.36c9.34,1.12,18.3,1.14,26.82-1s16.43-6.31,24.16-11.67a103.82,103.82,0,0,0,20.15-17.82c5.1-6,9.21-12.51,13.31-19a217.1,217.1,0,0,0,11.74-20c3.42-6.92,6.06-14.22,9-21.37s6.27-14.15,9.08-21.36c3.14-8,5.67-16.29,8.72-24.35s6.64-15.93,9.91-23.9,6.26-16.08,10.05-23.83a254.51,254.51,0,0,1,12.91-22.41c6.9-11.1,14.17-20.92,22.59-28.79a111.36,111.36,0,0,1,66.24-28.31c11.51-.65,23.64.86,36.43,3.52a202,202,0,0,1,30.21,8.31c9.81,3.69,19.1,8.51,28.4,13.27s18.63,9.46,27.63,14.82,17.59,11.3,26.5,16.78,17.94,10.54,26.81,15.95,17.58,11.19,26.68,16.2S747.41,384.86,757,389s19,8.3,29.09,11.26a166.72,166.72,0,0,0,40.44,6.63c14.61.59,28.08-.88,40.45-5.53s23.49-12.43,34-22.54A161.21,161.21,0,0,0,926.68,347c3.18-5.16,5.78-10.66,8.75-15.94s6.31-10.36,9.16-15.71,5.2-11,8-16.33,6.12-10.47,9-15.79c3.38-6.21,6.38-12.63,10-18.66s7.9-11.71,12-17.44,8.07-11.6,12.82-16.84A145.76,145.76,0,0,1,1012.09,216c6-5,11.53-9.32,17.13-12.09a48.54,48.54,0,0,1,40.67-.53c5.68,2.63,11.27,6.8,17.46,11.63a164.7,164.7,0,0,1,13.54,11.18c4.2,4.09,7.82,8.72,11.68,13.13s8,8.58,11.63,13.17,6.8,9.54,10.37,14.18c3.09,4,6.56,7.75,9.63,11.78s5.74,8.38,8.9,12.35,6.78,7.54,10.14,11.34,6.43,7.85,10.08,11.4a172.83,172.83,0,0,0,37.74,27.55,169.48,169.48,0,0,0,43.48,17.09c15,3.5,30.6,4.61,46.53,4.79a326.42,326.42,0,0,0,46.76-2.54c15.77-2.08,31.26-5.38,46.67-8.73,15.16-3.3,30.28-6.67,45.17-10.91V275.2c-10,4-20.07,7.79-30.28,11.25-16.88,5.74-34.11,10.47-51.42,15.13-21.89,5.89-43,10.11-63.5,11.25a206.53,206.53,0,0,1-64-6.39,177.46,177.46,0,0,1-58.42-26.72c-16.35-11.57-31.44-26.75-45.89-45.14-4-5.1-8.61-9.72-13-14.49s-8.65-9.7-13.48-14.05a190.34,190.34,0,0,0-15.46-11.84c-5.23-3.79-10.41-7.75-16.1-10.95a74.75,74.75,0,0,0-17.8-6.92c-6.55-1.74-12.81-2.7-18.93-1.85s-11.88,3.48-17.72,6.91a76.32,76.32,0,0,0-15.32,11.4c-3.64,3.59-6.64,7.71-9.82,11.62s-6.63,7.71-9.48,11.9-5.12,8.76-7.72,13.11-5.56,8.5-8,12.94c-4.4,7.95-8.2,16.23-12.46,24.26s-9,15.82-13.33,23.79-8.42,16.13-13.18,23.88-10.18,15-15.58,22.37c-7,9.57-14.19,18-22.27,24.53A101.85,101.85,0,0,1,857.6,377.3a108,108,0,0,1-32.3,7.13c-10.52.58-21.52-.68-33-2.63A198.5,198.5,0,0,1,761,374.32c-10.17-3.48-19.82-8.14-29.47-12.8s-19.29-9.29-28.61-14.63S684.77,335.56,675.59,330c-7.92-4.79-16.07-9.19-24-14S636,306.15,627.84,301.7s-16.57-8.2-25-12-16.78-7.71-25.64-10.6a158.61,158.61,0,0,0-41.38-7.52c-14.7-.74-28.64.53-41.66,4.85s-25,11.63-36.3,21a157.85,157.85,0,0,0-28.61,30.82c-4.75,6.76-8.7,14-12.76,21s-8.33,14.17-11.79,21.6-6.15,15.18-9.06,22.88-6,15.24-8.4,23.12c-2.12,6.95-3.74,14.06-6,21s-5.13,13.6-7.75,20.37-5,13.65-8.24,20.17A183.19,183.19,0,0,1,354,497.06c-3.34,5.1-6.6,9.84-10.58,13.57A56.47,56.47,0,0,1,329.05,520a58,58,0,0,1-16.24,5.61c-5.4.87-11.16.56-17.21.14a82.12,82.12,0,0,1-9.86-.77c-3.24-.62-6.3-1.94-9.44-2.9s-6.42-1.6-9.47-2.84-5.82-3.09-8.78-4.55a214.32,214.32,0,0,1-20.57-11.07c-6.57-4.2-12.62-9.13-18.83-13.83s-12.6-9.16-18.6-14.14-11.59-10.42-17.54-15.45c-7.09-6-14.43-11.75-21.46-17.85s-13.75-12.57-21-18.45-14.88-11.15-22.51-16.49-15.18-10.72-23.42-15.18a106.12,106.12,0,0,0-26.41-9.71c-9.46-2.24-18.79-3.39-28-2.44s-18.1,4-26.91,8.09a121.85,121.85,0,0,0-13.18,7.1v30.11a100.26,100.26,0,0,1,28.67-7.57A98.4,98.4,0,0,1,68,421Z"/><path class="cls-2" d="M506.4,13.54c2.92,2,6.07,3.56,8.86,5.67s5.19,4.72,7.86,7,5.65,4.19,8.23,6.56,4.76,5.15,7.28,7.59c6.75,6.56,13.62,13,20,19.89S571,74.48,577.28,81.45,590.35,95,596.9,101.74s12.9,13.71,19.94,20a179.81,179.81,0,0,0,39.44,26.79c15.22,7.59,30.34,12.17,45.71,12.74s30.78-2.87,46.53-9.31a179.77,179.77,0,0,0,41.32-23.8c7.53-5.76,14.42-12.28,21.43-18.6s14.22-12.49,21-19.12,13.07-13.69,19.81-20.34,13.88-12.86,20.84-19.27c1.58-1.45,2.81-3.27,4.41-4.7s3.56-2.45,5.17-3.86,2.89-3.2,4.51-4.61,3.58-2.41,5.2-3.81C903,24.47,913.74,16.47,925.08,10.7a125.32,125.32,0,0,1,37-11.79H906.83a194.36,194.36,0,0,0-24.9,16.21C875.31,20.31,869.07,26,862.55,31.3S849.2,41.56,842.72,46.93s-12.61,11.15-19.09,16.52S810.32,73.77,803.8,79.08c-3.58,2.91-6.88,6.15-10.57,8.9s-7.74,5-11.55,7.56-7.42,5.48-11.37,7.84-8.21,4.14-12.31,6.26c-11.18,5.79-22.06,10.48-33,13.1a113.82,113.82,0,0,1-35.36,2.44,114.22,114.22,0,0,1-34.6-7.72c-10.43-4.22-20.51-10.46-30.72-17.81a278.85,278.85,0,0,1-22.53-17.5c-7.12-6.31-13.63-13.28-20.4-20S567.56,49.12,560.8,42.42s-13.24-13.69-20.32-20c-2.13-1.92-4.63-3.43-6.8-5.31s-4-4.15-6.24-6-4.78-3.23-7-5-4.25-3.91-6.57-5.6c-.75-.54-1.5-1-2.25-1.57H478.71C488,2.29,497.09,7.36,506.4,13.54Z"/><path class="cls-2" d="M534.94-.19c2.47,2,4.58,4.47,7,6.53,5.69,4.85,11.61,9.43,17.16,14.43s10.71,10.44,16.27,15.44,11.49,9.56,17.19,14.4S603.74,60.54,609.73,65A160.43,160.43,0,0,0,643.86,84.4c12.5,5.28,25,9,37.87,10s25.82-.45,39-3.56A162.12,162.12,0,0,0,757.68,77.6c8.65-4.42,16.75-9.72,24.9-14.86S799,52.57,806.92,47,822.26,35.18,830,29.41s15.82-11.13,23.66-16.78C860,8.09,866.1,3.33,872.42-1.09H831.86q-2.61,1.76-5.21,3.54c-6.37,4.4-12.43,9.24-18.82,13.58s-13.14,8.18-19.68,12.3-12.92,8.53-19.7,12.27-13.89,6.72-21,9.89c-11,4.93-21.78,8.95-32.58,11.1a125,125,0,0,1-34.33,1.58,125.5,125.5,0,0,1-33.67-6.93c-10.34-3.8-20.34-9.44-30.48-16-6.3-4.06-12.7-7.94-18.68-12.4s-11.55-9.5-17.37-14.19-11.91-9-17.68-13.79l-1.13-1H533.76C534.16-.79,534.56-.5,534.94-.19Z"/><path class="cls-2" d="M617.06,888.24c-2.79-5.09-5.16-10.42-8.11-15.41s-6.47-9.63-9.75-14.42-6.34-9.71-10.11-14.16a98.49,98.49,0,0,0-19.54-17.32c-7.48-5.18-15.15-9.29-23.43-11.38s-17-2.12-26-1.11a98.27,98.27,0,0,0-25.4,6c-4.5,1.77-8.68,4.2-13,6.32s-8.79,4-12.92,6.45-7.88,5.53-11.81,8.31-8.07,5.28-11.8,8.33c-9.29,7.62-18.27,15.63-27.58,23.24s-18.92,14.84-28.18,22.51c-1.31,1.09-2.6,2.2-3.89,3.3h10c6.53-5.58,13.08-11.15,19.78-16.54,11.76-9.46,24-18.36,36.06-27.43,3.65-2.73,7.05-5.79,10.84-8.3s7.94-4.47,11.89-6.71,7.75-4.8,11.89-6.72,8.51-3.16,12.81-4.69c7.43-2.66,14.56-4.75,21.57-5.29a73.3,73.3,0,0,1,42.27,11.44c5.78,4,10.88,9.41,16,15.44a141.84,141.84,0,0,1,10.47,13.3c3.09,4.73,5.46,9.88,8.12,14.86s5.6,9.81,8,14.93c.88,1.87,1.68,3.79,2.46,5.71h15.67C621.23,895.36,619,891.86,617.06,888.24Z"/><path class="cls-2" d="M962.68,889.86c-6.7-2.5-13.32-5.3-20.18-7.42A161.47,161.47,0,0,0,907.59,876c-12.24-1-24.08-.75-35.39,1.92s-22,7.75-32.32,14.45q-4.7,3-9.32,6.57H985.71c-1-.47-2-.94-2.94-1.38C976.24,894.59,969.41,892.37,962.68,889.86Z"/><path class="cls-2" d="M102.81,898.91h9.49C109.13,898.86,106,898.85,102.81,898.91Z"/><path class="cls-2" d="M1378.38,897.51c-14.6-5.81-29.28-11.48-43.75-17.65s-28.75-12.83-43.33-18.7-29.5-10.95-44.44-15.87-29.88-9.68-45.35-13c-7.62-1.63-15-3.3-21.7-6a106.09,106.09,0,0,1-19.62-11,101.51,101.51,0,0,1-17.45-14.2c-5-5.32-9.13-11.59-13.25-18.2-4.42-7.1-9.24-14-13.6-21.08s-8.23-14.57-12.55-21.72-9.09-14.05-13.41-21.2-8.22-14.58-12.59-21.7c-3.63-5.94-7.76-11.56-11.56-17.37s-7.34-11.85-11.49-17.42-8.92-10.65-13.56-15.84-9.14-10.45-14.39-15.1a99.42,99.42,0,0,0-19.7-13.3c-7.39-3.92-14.71-6.88-22.37-7.9s-15.5-.07-23.64,1.83A96.2,96.2,0,0,0,938.22,620c-3.06,1.58-5.83,3.69-8.82,5.42s-6.21,3.05-9.13,4.88-5.53,4.15-8.4,6.06-6,3.42-8.85,5.38c-6.66,4.6-12.89,9.81-19.4,14.65s-13.29,9.29-19.83,14.06-12.86,9.9-19.63,14.34-14,8.16-21.15,12c-4.61,2.44-9,5.16-13.79,7.15a123.21,123.21,0,0,1-14.81,4.63c-5,1.38-9.95,2.91-15.12,3.48a86.7,86.7,0,0,1-15.51-.22c-6.86-.49-13.26-1.34-19.1-3.42-6.22-2.23-11.68-5.73-16.95-9.44a94,94,0,0,1-14.93-12.43c-4.34-4.63-8-10-11.84-15.42-4.16-5.8-8.42-11.49-12.05-17.59s-6.59-12.6-9.9-18.89-7-12.39-10.22-18.72-6-12.91-9.35-19.17c-2.45-4.57-5.38-8.87-7.94-13.35s-4.8-9.21-7.64-13.53-6.27-8.23-9.52-12.27-6.28-8.21-10-11.84a80.17,80.17,0,0,0-18.77-13.23c-7.15-3.75-14.34-6.41-21.8-7s-15,.94-22.61,3.55a79.24,79.24,0,0,0-20.58,10.19c-3.56,2.52-6.68,5.58-10,8.33s-6.94,5.27-10.08,8.26-5.81,6.46-8.76,9.65-6.19,6.11-8.95,9.47c-11.09,13.44-21.37,27.49-31.79,41.41s-21,27.76-31,42-19.43,28.88-29.24,43.26-20,28.47-29.87,42.82c-4.81,7-9.28,14.21-14.36,21s-10.8,13.07-16.35,19.45-11,12.88-17.21,18.69A205.47,205.47,0,0,1,313,819.38c-5.91,4.29-11.67,8.27-17.83,11A84.08,84.08,0,0,1,275,836.11a83.51,83.51,0,0,1-20.89,1.51c-6.73-.52-13.5-2.32-20.51-4.4a187.24,187.24,0,0,1-22.38-7.68c-7.24-3.18-14-7.23-20.92-11.08s-13.87-7.53-20.51-11.82S157,793.5,150.46,789c-8.14-5.61-16.44-11-24.4-16.82s-15.59-12.16-23.58-18-16.37-11.09-24.59-16.57-16.32-11.14-25-16c-4.17-2.34-8.63-4.09-12.93-6.08s-8.56-4.29-13.06-5.77A91.21,91.21,0,0,0,13,707a82,82,0,0,0-13.3-1.43v54A85.17,85.17,0,0,1,19.8,755.4a80.81,80.81,0,0,1,21.57.21c6.82,1.13,13.59,3.62,20.6,6.48,5.69,2.33,11.45,4.42,16.88,7.18s10.57,6.17,15.85,9.25,10.76,5.83,15.94,9.09,10,7,15.16,10.34c6.8,4.4,13.85,8.42,20.65,12.84s13.33,9.24,20.23,13.47S180.85,832.13,188,836s14.15,7.87,21.62,11.1c5.28,2.27,10.78,3.85,16.15,5.62s10.82,3.77,16.39,4.83a102.77,102.77,0,0,0,17,1.33c5.6.13,11.31.28,17.07-.67,7.57-1.25,14.45-3.88,21-6.7a105.71,105.71,0,0,0,19.49-10.39c6-4.23,11.3-9.4,16.69-14.52s10.76-10,15.71-15.58c9.32-10.42,17.72-21.58,26.22-32.63s17.13-22,25.26-33.38,15.78-23,24-34.31,17-22.12,25.79-33c5.81-7.19,11.1-14.81,16.85-22s12-14.13,18-21.14,11.89-14.19,18.51-20.66a212.68,212.68,0,0,1,21.34-17.72c8-6,15.7-10.86,23.49-13.69a58.19,58.19,0,0,1,26.86-3A58.9,58.9,0,0,1,601,588.31c7,4.47,13.45,10.87,20,18.42,3.65,4.21,7.46,8.25,10.66,12.75s5.82,9.44,8.73,14.15,6.14,9.24,8.87,14.06,4.94,9.93,7.63,14.78c3,5.48,6.5,10.73,9.57,16.2s5.73,11.18,9,16.54,7.11,10.32,10.74,15.44,7.06,10.37,11.21,15.11A98.78,98.78,0,0,0,717.67,743c7.68,5.08,15.58,9.13,24.06,11.18s17.36,2.09,26.51,1.09a98.11,98.11,0,0,0,25.88-6.06c5.7-2.25,10.94-5.34,16.22-8.24s10.73-5.7,15.74-9.11,9.57-7.44,14.38-11.16,9.83-7.1,14.54-10.93c5-4.08,9.68-8.64,14.67-12.77s10.33-7.85,15.42-11.86,9.94-8.35,15.25-12.07,11-6.79,16.65-10c7-4,13.64-7.45,20.48-9.4a78.87,78.87,0,0,1,44.45,2.06c6.63,2.57,13,6.62,19.52,11.25a162.61,162.61,0,0,1,16.17,12.39c5,4.59,9.41,9.82,14,14.85s9.3,9.92,13.55,15.24,7.92,11,12,16.49c5.51,7.36,11.27,14.54,16.56,22.08s10.08,15.4,15.37,22.92,11.09,14.68,16.65,22,10.88,14.84,16.93,21.8a124.55,124.55,0,0,0,12.87,12.16c4.51,3.9,9,7.82,14,10.87a98.21,98.21,0,0,0,16.1,7.35,99.91,99.91,0,0,0,16.86,5.37c10.39,2,20.79,3.92,31,6.62s20.18,6.21,30.22,9.47,20.17,6.26,30.07,9.94,19.53,8,29.32,12q13,5.28,26,10.38h52.85Z"/><path class="cls-2" d="M1381.51,218.79c-13.08,5.38-26,10.73-39.28,14.82a325.1,325.1,0,0,1-40.89,9.42c-13.74,2.37-27.6,4.25-41.71,4.37a233.31,233.31,0,0,1-41.75-3.94,156.66,156.66,0,0,1-30.11-7.87c-9.77-3.8-18.8-8.93-27.7-14.22A282.44,282.44,0,0,1,1134,204.3c-8.24-6.22-16-13.22-23.94-20-5.35-4.52-11.06-8.62-16.52-13s-10.68-9.11-16.36-13.21-11.78-7.57-17.79-11.18-11.9-7.37-18.32-10.31a89.69,89.69,0,0,0-19.55-6.19c-7.33-1.52-14-2.08-20.39-.6s-12.13,5-18,9.57a90.39,90.39,0,0,0-14.8,14.2c-3.78,4.64-6.91,9.74-10.28,14.64S951,177.91,948,183s-5.53,10.56-8.37,15.8-6.06,10.28-8.78,15.58C927.14,221.57,923.88,229,920,236s-8.33,13.78-12.56,20.62-8.24,13.84-13,20.35-10.13,12.42-15.53,18.46c-6.81,7.62-13.69,14.45-21.31,19.81a112,112,0,0,1-26,13.06,121.48,121.48,0,0,1-28.19,7.16c-9.34,1.09-19.06.71-29.12,0a170.3,170.3,0,0,1-30.2-4.48c-9.91-2.56-19.36-6.4-28.76-10.3s-18.79-7.85-27.85-12.6S669.89,297.89,661,292.82c-7.67-4.38-15.54-8.4-23.19-12.83s-15.06-9.27-22.84-13.45-15.89-7.7-24-11.33-16-7.36-24.48-10.13a152.26,152.26,0,0,0-42.51-7.37c-14.95-.51-29.29,1-42.67,5.64s-25.66,12.17-37.13,21.77a151.55,151.55,0,0,0-28.95,32c-3.82,5.72-6.93,11.84-10.23,17.81s-6.82,11.9-9.59,18.16-4.77,12.81-7,19.3-4.64,12.86-6.3,19.55c-1.27,5.06-2,10.27-3.21,15.35s-3,10-4.33,15.07-2.24,10.22-3.79,15.21-3.73,9.76-5.62,14.64c-4.1,10.6-8.29,19.65-13.49,26.65-6.75,9.07-14.76,14.73-23.51,17.8s-18.54,3.68-29.48.82c-8.44-2.2-17.36-6.64-27.2-12.35-.95-.55-2.16-.65-3.1-1.22s-1.6-1.59-2.53-2.17-2.14-.73-3.06-1.33-1.54-1.64-2.45-2.25c-6.79-4.57-13.67-9-20.06-14S228,433.46,221.89,428.09s-12.51-10.48-18.48-16S191.88,400.51,186,394.9c-6.83-6.46-13.92-12.68-20.63-19.27s-13.08-13.56-19.9-20-14.13-12.43-21.29-18.54-14.2-12.34-21.91-17.8a91.77,91.77,0,0,0-21.4-11.05c-7.92-3-15.7-4.89-23.55-4.76s-15.54,2.28-23.4,5.45a95.93,95.93,0,0,0-21.19,11.48C8,323.8,3.91,327.87-.3,331.74l0,0v29c1.64-1.33,3.29-2.64,4.94-4C11.13,351.58,17.5,347,24.26,344A68.58,68.58,0,0,1,47,338.6a68.69,68.69,0,0,1,23.35,1.68c7.15,1.9,14.17,5.39,21.45,9.52,3.24,1.84,6.66,3.35,9.75,5.41s5.81,4.64,8.78,6.87,6.19,4.13,9,6.5,5.34,5.19,8.12,7.65c7.76,6.85,15.82,13.35,23.53,20.25s15.05,14.22,22.76,21.12,15.79,13.4,23.56,20.24,15.23,14,23.1,20.74c5.5,4.69,11.42,8.86,17.16,13.21s11.4,8.93,17.54,12.71a164.81,164.81,0,0,0,19.34,9.71c6.52,2.91,13.12,5.85,20.21,7.73a71.34,71.34,0,0,0,19.6,2.1c6.94-.09,13.45-.92,19.33-3.49s10.91-6.78,15.7-11.8A71.71,71.71,0,0,0,361.17,473c2.28-4.26,3.84-8.84,5.67-13.27s4-8.79,5.45-13.36,2.3-9.34,3.52-14,2.83-9.21,3.87-13.9c2.33-10.47,4.47-20.93,7.53-31.08a317.29,317.29,0,0,1,11.21-29.94c4.08-9.83,8.26-19.64,13.57-28.93a224.56,224.56,0,0,1,18.21-26.26c7.6-9.74,15.37-18.34,24.05-25.07a107,107,0,0,1,30.62-16.24,108.08,108.08,0,0,1,34.06-6.48c11-.19,22.44,1.63,34.46,4.41a204.5,204.5,0,0,1,28.42,8.33c9.22,3.59,18,8.23,26.74,12.74s17.64,8.9,26.18,13.89,16.72,10.55,25.21,15.6S677,319,685.46,323.83s16.82,10,25.54,14.42,17.83,7.95,27,11.48,18.17,7,27.78,9.33a171.17,171.17,0,0,0,38.67,4.77c13.8.17,26.58-1.33,38.44-5.6S865.54,347,876,338a169.82,169.82,0,0,0,26.65-28.43c2.7-3.67,4.89-7.69,7.41-11.46s5.4-7.34,7.75-11.23,4.16-8.09,6.34-12.09,4.73-7.78,6.74-11.87c3.41-6.93,6.25-14.15,9.6-21.13s7.2-13.7,10.74-20.57,6.82-13.91,10.84-20.53a215.56,215.56,0,0,1,13.47-18.88c5.77-7.52,11.08-13.94,16.82-18.57a48.85,48.85,0,0,1,47.3-8.14c7,2.43,14.13,6.7,22.09,11.83,5,3.24,10.16,6.29,14.86,9.92s9,7.86,13.47,11.77,9.25,7.53,13.63,11.57,8.37,8.5,12.74,12.55c5.25,4.86,10.73,9.5,15.87,14.49s10,10.34,15.3,15.1a197.28,197.28,0,0,0,17,13.07c5.78,4.11,11.61,8.28,18.16,11.44a180.79,180.79,0,0,0,34,11.85,187,187,0,0,0,35.52,6c11.94.69,23.95-.22,36-1.51a280,280,0,0,0,35.6-5.71c18.23-4.35,35.86-10.29,53.29-16.54s34.91-13,51.84-20.65q5.3-2.42,10.54-5V191.45c-2.84,1.57-5.69,3.13-8.56,4.64C1415.07,204.51,1398.43,211.83,1381.51,218.79Z"/><path class="cls-2" d="M455.23,870.22c4.24-2.88,8.87-5.16,13.33-7.69s8.77-5.33,13.44-7.48,9.59-3.58,14.44-5.3c7.94-2.82,15.52-4.89,22.85-5.22a64.16,64.16,0,0,1,43.11,15.84c5.37,5,9.8,11.48,14,18.78a162,162,0,0,1,10.18,19.76H597c-1.59-4-2.9-8.09-4.73-12-2-4.15-4.54-8-6.83-12s-4.3-8.13-7-11.9a81,81,0,0,0-15.28-15.66c-5.89-4.76-12-8.78-18.8-11.13s-14.09-3-21.66-2.83a79.14,79.14,0,0,0-21.67,3c-7.1,2.12-13.74,5.24-20.33,8.28a195.36,195.36,0,0,0-19.6,9.89c-6.24,3.8-12,8.34-17.95,12.65s-12,8.39-17.7,13c-7.56,6.11-15,12.42-22.42,18.64H418.6c8.19-6.38,16.45-12.68,24.57-19.15C447.18,876.57,451,873.1,455.23,870.22Z"/><path class="cls-2" d="M1022.31,877.19c-7.1-5.54-14.69-10.41-22.18-15.39s-14.92-10.1-22.84-14.38a249.58,249.58,0,0,0-24.61-11.06c-8.28-3.36-16.63-6.76-25.4-9.13a109.33,109.33,0,0,0-26.53-3.46c-9.25-.19-18.15.5-26.52,3.12S858.15,834,850.69,839.5a103.64,103.64,0,0,0-19.55,18.25c-3.54,4.39-6.58,9.18-10,13.68s-7.18,8.71-10.56,13.23-6.35,9.35-9.8,13.81c-.12.15-.25.29-.36.44h13.4c1.59-1.73,3.19-3.46,4.7-5.26,8.43-10,16.47-18.64,25.06-25.14a93.5,93.5,0,0,1,67-18c10.69,1.32,22,4.73,34.3,9.16,7.6,2.74,15.28,5.23,22.63,8.47s14.42,7.21,21.54,11,14.39,7.29,21.24,11.53c4.14,2.56,8.12,5.38,12.07,8.24h29.33C1041.76,892.05,1032,884.75,1022.31,877.19Z"/><path class="cls-2" d="M253.82,46.75c-6.85,4.6-13.61,9.38-20.89,13.31a189.68,189.68,0,0,1-22.72,9.85,150.9,150.9,0,0,1-33.07,8.83c-11.43,1.53-22.86,1.28-34.26.67a288.17,288.17,0,0,1-34.1-3.53C97.6,73.94,86.5,71,75.28,68.47A546.13,546.13,0,0,1,14.49,51.4Q7,48.78-.33,45.91V72.23c28.12,5.67,56.11,12,84.12,18.38,8.47,1.91,17,3.32,25.53,5s17,3.77,25.55,4.89a222.58,222.58,0,0,0,26,1.43c8.58.1,17.25.14,26-1.14,10-1.47,19.35-4.52,28.35-7.89A171.47,171.47,0,0,0,241.89,80.6c8.43-4.95,16.24-10.95,24.16-16.85s15.82-11.61,23.44-17.87c7.19-5.9,13.95-12.32,21.06-18.32S325.12,16,332.36,10.14C337,6.42,341.5,2.59,346.14-1.09h-29c-1.11.9-2.21,1.81-3.33,2.69-6.68,5.29-13.65,10.21-20.34,15.48-6.5,5.11-12.66,10.64-19.24,15.63S260.67,42.15,253.82,46.75Z"/><path class="cls-2" d="M313.81,46.49c-7.1,6.26-14.54,12.12-21.78,18.21-3.27,2.76-6.25,5.89-9.57,8.59s-7,4.95-10.39,7.59-6.45,5.66-9.88,8.24-7.18,4.7-10.64,7.21c-9.23,6.69-18.49,12.54-28.23,16.69a133,133,0,0,1-31.64,8.56A139.61,139.61,0,0,1,159,123.33c-10.66-.83-21.34-3.33-32.18-6.4-20.94-5.94-41.87-9.39-62.62-11.65A411.63,411.63,0,0,0,.48,102.92l-.81,0v33.19c7.74-2.17,15.68-3.84,23.78-5.32a172.75,172.75,0,0,1,25.81-3.23c8.72-.26,17.37.62,26,1.49a252.08,252.08,0,0,1,25.8,3.47c8.47,1.74,16.77,4.37,25.15,6.75a174,174,0,0,0,42.8,6.33c14.9.43,29.24-.8,43-4.59s26.7-10.08,39.43-17.79a211,211,0,0,0,34.7-25.91C293,90.92,299.53,84,306.41,77.53s14.14-12.6,21.13-19,13.76-13,21-19.08,15-11.46,22.74-17c10.74-7.72,20.93-14.33,31.18-18.93a108.74,108.74,0,0,1,12.27-4.65H373.21c-5.4,3.61-10.59,7.49-15.79,11.32-7.62,5.61-15.3,11.15-22.53,17.25S320.91,40.23,313.81,46.49Z"/><path class="cls-2" d="M1303.64,122.21a219.72,219.72,0,0,1-21.27,20.37c-9.59,8.29-19.12,15.35-29.13,20.29a110.22,110.22,0,0,1-69.43,8.14c-10.88-2.5-21.77-7.17-33-13a199,199,0,0,1-18.58-10.46c-5.91-4-11.31-8.62-16.86-13.05s-11.28-8.67-16.56-13.44-10.09-10-15.21-15c-3.65-3.52-7.66-6.67-11.33-10.16s-7-7.33-10.82-10.71-8-6.28-11.92-9.46-7.68-6.64-11.87-9.52a123.66,123.66,0,0,0-26-13.48c-9.61-3.71-19-6.14-28.5-6.26s-18.94,2-28.65,5.48a124.59,124.59,0,0,0-26.36,12.7c-5.94,3.83-11.25,8.42-16.61,12.86s-10.92,8.82-15.89,13.74-9.37,10.41-14,15.64-9.6,10.2-14.1,15.58c-5.14,6.12-9.79,12.66-14.84,18.86S842.16,153.37,837,159.46s-10.09,12.43-15.61,18.23-11.57,11-17.61,16.29c-8.66,7.6-17.28,14.63-26.49,20a121.06,121.06,0,0,1-30.73,12.41c-10.58,2.77-21.5,4.42-32.89,3.69-10.44-.68-21.12-3.44-32.3-7.46a116.08,116.08,0,0,1-18.14-7.8c-5.75-3.26-10.91-7.39-16.15-11.38s-10.57-7.87-15.44-12.35-9.19-9.44-13.83-14.13c-6.26-6.31-12.68-12.47-18.64-19s-11.45-13.61-17.38-20.23-12.27-12.86-18.41-19.28-12.06-13.06-18.66-19a211.33,211.33,0,0,0-18.78-14.66c-6.53-4.7-13-9.32-20.12-12.75a104.78,104.78,0,0,0-22.58-7.47,97.22,97.22,0,0,0-23.6-2.93c-6.82.12-13.33,1.43-19.7,2.78a114,114,0,0,0-19.16,5.36c-6.12,2.48-11.83,5.91-17.63,9.26s-11.51,6.52-16.95,10.45c-7.09,5.14-13.57,11-20.18,16.69s-13.41,11.18-19.78,17.16-12.28,12.42-18.6,18.45-13,11.63-19.51,17.46c-6.25,5.61-12.21,11.52-18.68,16.76a230.79,230.79,0,0,1-20.56,14.35c-7,4.52-14.09,9-21.82,12.34a123.76,123.76,0,0,1-24,7.09,92.61,92.61,0,0,1-16.27,2.38c-5.51.14-11-.71-16.39-1.4a150.42,150.42,0,0,1-16.27-2.48c-5.3-1.26-10.45-3.25-15.72-4.87s-10.92-2.91-16.28-4.67-10.57-4-16-5.64-11-2.65-16.47-3.93-10.93-2.84-16.56-3.54a99.32,99.32,0,0,0-25.83.58,95.42,95.42,0,0,0-25,6.43c-7.85,3.38-15,8.21-22.1,13.4A155.38,155.38,0,0,0,.38,222.67c-.24.24-.47.49-.71.74v23c2.07-2.24,4.18-4.43,6.38-6.51a164.29,164.29,0,0,1,18-14.14c6.23-4.39,12.56-8.68,19.61-11.79,6.81-3,14.21-4.83,22-6.3a82.42,82.42,0,0,1,16.18-1.91c5.47.07,10.82,1.17,16.16,2.15a132.9,132.9,0,0,1,15.94,3.48c5.15,1.63,10.09,4,15.16,6.05,3.88,1.56,7.94,2.68,11.79,4.3s7.5,3.74,11.34,5.39,7.88,2.83,11.72,4.48,7.48,3.79,11.33,5.42a134.3,134.3,0,0,0,29.2,8.26c10.19,1.83,20.26,2.84,30.27,2.07s19.8-3.32,29.63-6.54a155.6,155.6,0,0,0,28-11.84c7.79-4.36,15-9.6,22.27-14.66s14.7-10,21.72-15.45,13.64-11.41,20.62-16.9,14.34-10.51,21.54-15.72c6-4.32,11.71-8.88,17.88-12.72a207.85,207.85,0,0,1,19.44-10.18c6.57-3.18,13.14-6.43,20.15-8.67a134.61,134.61,0,0,1,21.47-4.46c9-1.33,17.76-2.13,26.24-1.49,8.88.66,17.38,2.85,25.74,5.37a145.49,145.49,0,0,1,24.54,9.46c7.67,3.94,14.89,9,22.24,14.09,6.19,4.3,12.52,8.39,18.44,13s11.42,9.83,17.21,14.63,11.88,9.25,17.68,14,11.32,10,17.27,14.56c6.78,5.25,13.94,9.92,21,14.64s14.17,9.64,21.74,13.42a136.16,136.16,0,0,0,24,8.85c8,2.27,16.28,4.24,25.08,4.7a125.18,125.18,0,0,0,31.05-2.68,121.56,121.56,0,0,0,29.69-9.48c9.28-4.51,17.75-10.59,26-17.18a187.64,187.64,0,0,0,23-21.1c6.23-6.9,11.9-14.29,17.9-21.41s12.3-14,18.21-21.14,11.41-14.7,17.39-21.82,12.44-13.84,18.65-20.76c5.28-5.9,10.43-11.88,16.24-17a143.42,143.42,0,0,1,19.05-13.79c6.62-4.16,13.39-8.16,20.85-10.88,7.17-2.61,14.88-4,23-5,4.37-.52,8.63-1.12,12.83-.82S1000.82,74,1005,75a91.13,91.13,0,0,1,12.37,3.52c3.94,1.59,7.59,3.91,11.42,5.94a173.48,173.48,0,0,1,15.45,8.67c4.91,3.29,9.37,7.2,14,10.82s9.57,6.94,14.12,10.71,8.73,8,13.28,11.75c3.71,3.07,7.77,5.69,11.55,8.66s7.29,6.3,11.18,9.14,8.12,5.15,12.13,7.81,7.81,5.64,12,8.08a181.86,181.86,0,0,0,40.18,17.36c14.74,4.4,29,6.65,43.27,5.73s28.11-5,42.2-11.18A187.84,187.84,0,0,0,1296,150c8.53-6.44,16-13.82,23.21-21.26A261.24,261.24,0,0,0,1340,105.11c6.35-8.34,11.85-17.3,17.55-26.16s11.55-17.51,16.92-26.57c3-5,5.54-10.33,8.57-15.33s6.53-9.72,9.63-14.69,5.78-10.19,9-15.1c1.85-2.85,3.85-5.6,5.86-8.35H1376.8c-.85,1.49-1.71,3-2.52,4.51-4,7.36-7.35,15-11.15,22.47s-8,14.67-11.83,22.12c-4.48,8.79-8.67,17.7-13.59,26.15s-10.65,16.54-16.28,24.56S1310.17,114.83,1303.64,122.21Z"/><path class="cls-2" d="M1348.39,170.76c-11.36,6.09-22.71,11.86-34.47,16.24a236.23,236.23,0,0,1-36.77,9.92c-12.41,2.44-25,4.33-37.81,4.53-12.45.18-25.07-1.26-37.93-3.41a201.32,201.32,0,0,1-27.22-6c-8.91-2.81-17.38-6.69-25.82-10.55a277.62,277.62,0,0,1-25-12.45c-8-4.66-15.52-10.14-23.23-15.45-6-4.12-12.27-7.81-18.33-11.81s-11.95-8.33-18.24-12-13-6.54-19.6-9.54-13.17-6.06-20.21-8.16a79.78,79.78,0,0,0-17-2.71c-5.88-.44-11.63-.65-17.2.44s-10.8,3.47-16.05,6.16A72.6,72.6,0,0,0,959,125.23c-4.4,3.77-8.15,8.16-12,12.35s-8,8.3-11.51,12.85-6.42,9.54-9.64,14.31-6.75,9.32-9.8,14.2c-4.33,6.93-8.26,14.09-12.76,20.88S893.7,213,888.86,219.58,879.37,232.85,874,239s-11.27,11.7-17.22,17.36c-7.67,7.29-15.36,14.05-23.72,19.47a143.64,143.64,0,0,1-27.58,13.42A142.91,142.91,0,0,1,776,297.5c-9.85,1.47-20.09,1.48-30.67,1.05a147.76,147.76,0,0,1-24.76-2.64c-8.17-1.73-16-4.59-23.79-7.41s-15.63-5.59-23.18-9.15-14.64-7.82-22-11.76c-6.86-3.68-13.91-7-20.7-10.83s-13.34-8.07-20.19-11.77-14-6.81-21.05-10.16-13.95-6.93-21.26-9.68a169.4,169.4,0,0,0-43.12-9.9c-15.21-1.53-30-1.12-44.1,2.24s-27.51,9.64-40.38,17.87a167.84,167.84,0,0,0-34,28.32c-3.64,4-6.76,8.41-10.14,12.58s-7.07,8.15-10.21,12.53-5.71,9.12-8.59,13.68-6.06,8.9-8.68,13.62-4.75,9.69-7.39,14.38-5.79,9.09-8.59,13.68-5.29,9.41-8.39,13.82-6.76,8.34-10.27,12.46c-4.79,5.63-9.48,10.7-14.77,14.44A68.34,68.34,0,0,1,280.57,396c-6.46-.43-13.1-2.31-20.13-4.63a119.9,119.9,0,0,1-18.22-7.2c-5.8-3-11.07-6.94-16.44-10.67S215,366.14,209.89,362s-9.65-8.82-14.57-13.14c-6.6-5.78-13.37-11.38-19.76-17.42S163.19,318.94,156.74,313s-13.34-11.43-20.13-17-13.45-11.27-20.82-16.14a103.45,103.45,0,0,0-24.28-11.57c-8.94-3-17.69-4.83-26.45-4.44s-17.32,3-26,6.77a104.44,104.44,0,0,0-23.19,13.64c-4.7,3.72-8.8,8.07-13,12.22q-1.59,1.56-3.2,3.1v18.36c.46-.39.91-.79,1.35-1.21,1.87-1.82,3.44-4,5.4-5.7s4.3-3,6.31-4.69c7.43-6.11,14.57-11.3,22-14.68a66.55,66.55,0,0,1,25.71-5.74,66.21,66.21,0,0,1,26,4c7.63,2.9,15.08,7.63,22.88,13.28,8.33,6,16.57,12.11,24.24,18.88s14.74,14.23,22.06,21.41,14.9,14.07,22.18,21.28,14.26,14.74,21.83,21.65c6.06,5.53,12.46,10.7,18.63,16.09s12.21,11.05,18.79,15.92a178.63,178.63,0,0,0,21,12.88c7.12,3.87,14.39,7.67,22.36,10.26a73.29,73.29,0,0,0,19.45,3.22c6.92.33,13.48-.06,19.54-2.17s11.44-5.89,16.67-10.43a73.83,73.83,0,0,0,13.28-14.57c2.34-3.49,4.06-7.34,6.06-11s4.35-7.17,6.1-11,2.88-7.86,4.41-11.76,3.46-7.63,4.85-11.58c2.28-6.52,4.12-13.19,6.58-19.62s5.53-12.64,8.31-19,5.27-12.76,8.49-18.87,7.1-11.78,10.87-17.6c5.5-8.5,10.9-16.88,17.18-24.32a152,152,0,0,1,21.55-20.5c7.72-6.16,15.83-11.86,25.06-16,8.7-3.88,18.3-6.25,28.64-7.91,8.54-1.37,16.9-2.37,25.14-2.09,8.49.29,16.76,1.91,25,3.68a173.85,173.85,0,0,1,24.34,6.69c7.81,2.93,15.29,6.86,22.88,10.69s15.2,7.23,22.62,11.2,14.56,8.44,21.95,12.47,15,7.58,22.45,11.55,14.63,8.34,22.14,12.13a223.68,223.68,0,0,0,24.64,10.13c8.4,3,16.79,6,25.46,7.81a168.54,168.54,0,0,0,26.47,2.88,164.78,164.78,0,0,0,26.62-.35,150.93,150.93,0,0,0,61.44-22.87c9-6.19,16.94-13.83,24.7-21.9a238.29,238.29,0,0,0,21.46-25.12c4.79-6.62,8.81-13.74,13.08-20.67s8.83-13.72,12.91-20.78,7.68-14.39,11.88-21.38,9-13.61,13.6-20.33c7-10.24,13.48-18.9,20.37-25.38,9-8.45,18.34-13.32,28.15-15.63s20.34-2.12,32.16,1.43c9.06,2.73,18.69,7.61,29.56,13.63,5.36,3,10.88,5.63,16.08,8.85s10,7,15.1,10.43,10.39,6.48,15.39,10,9.65,7.53,14.6,11.11A239.33,239.33,0,0,0,1162.35,202c16,7,32.28,12.41,49,15.25s33.9,3.12,51.3,1.9a254.27,254.27,0,0,0,50.69-8.42c20.28-5.66,39.68-13.13,58.63-21.27a515.63,515.63,0,0,0,55.92-27.63q5.94-3.45,11.76-7.11V114.47c-13.46,9.78-27.11,19.31-41.29,28.1C1382.17,152.63,1365.3,161.68,1348.39,170.76Z"/><path class="cls-2" d="M1419,420.57c-15.73,2.52-31.48,5-47.4,6.25a439.62,439.62,0,0,1-47.79.63c-11.34-.37-22.55-.72-33.46-2.32a204.67,204.67,0,0,1-32.57-7.9c-10.61-3.38-21.08-7.27-30.93-12.85-9.45-5.36-18.21-12.26-26.82-20.06a176.11,176.11,0,0,1-16.65-16.58c-5.07-6-9.33-12.6-13.73-19.09s-8.94-12.87-12.87-19.67-7.21-13.91-10.89-20.85c-3.31-6.24-7.11-12.21-10.59-18.34s-6.66-12.48-10.51-18.39-8.38-11.34-12.81-16.86-8.71-11.06-13.86-16A81.29,81.29,0,0,0,1080.71,226c-6.79-3.77-13.42-6.29-20.25-6.6s-13.67,1.61-20.77,4.75a81.59,81.59,0,0,0-18.43,10.94c-5.58,4.48-10.35,9.7-15.1,14.82a182.4,182.4,0,0,0-13.81,16c-4.16,5.69-7.6,11.87-11.31,17.9s-7.64,11.86-11.09,18c-3.91,7-7.21,14.4-11,21.53s-7.92,14-11.77,21.08-7.39,14.32-11.65,21.15-9.19,13.17-14.12,19.58c-5.77,7.49-11.57,14.36-18.17,19.86a94.22,94.22,0,0,1-23.09,13.74,90.59,90.59,0,0,1-25.82,7.4c-8.49,1-17.44.37-26.89-.82a182,182,0,0,1-21.35-3.47c-7-1.75-13.77-4.39-20.52-6.87s-13.6-4.85-20.11-8-12.6-7-18.86-10.63c-9.07-5.28-18.36-10.22-27.35-15.64S701.61,369.45,692.64,364s-18.2-10.5-27.2-15.92-17.76-11.24-26.84-16.52c-6.58-3.83-13.52-6.94-20.34-10.2s-13.65-6.7-20.79-9.24a184.07,184.07,0,0,0-22-5.82c-7.34-1.63-14.75-3.29-22.41-3.89a123,123,0,0,0-31.39,1.86c-10.63,1.88-20.71,4.74-30,9.46s-17.47,11.2-25.4,18.52a151.47,151.47,0,0,0-21,23.4c-5.36,7.54-9.8,15.6-14.34,23.56s-9.25,15.92-13.26,24.19-7.35,16.87-11.11,25.27-7.91,16.61-11.67,25c-3.51,7.82-6.53,15.87-10.15,23.64s-7.84,15.25-11.87,22.8-7.91,15.23-12.65,22.39a195,195,0,0,1-15.93,20.17c-7.11,8.16-14.15,15.23-21.82,20.42a82.32,82.32,0,0,1-57.26,12.37c-9.12-1.58-18.43-5.14-28.27-9.7a199.6,199.6,0,0,1-19.85-10.07c-6.35-3.87-12.2-8.46-18.21-12.82s-12.2-8.47-18-13.1-11.23-9.74-17-14.43-11.71-9-17.39-13.67-11.05-9.78-16.82-14.36-12-8.63-18-12.91-11.84-8.79-18.18-12.59A130.26,130.26,0,0,0,59.07,447.5c-12.55-3.27-25-4.69-37.11-3.25A89.6,89.6,0,0,0-.33,450v24.34a107.79,107.79,0,0,1,15.54-3,96.23,96.23,0,0,1,33.51,1.45c10.47,2.45,20.73,7.12,31,13.05,4.27,2.47,8.7,4.65,12.76,7.4s7.74,6.06,11.66,9,8.08,5.62,11.88,8.73,7.22,6.68,11,9.87c7,5.93,14.14,11.62,21,17.7s13.32,12.58,20.26,18.53,14.32,11.39,21.6,16.93,14.43,11.22,22.25,16.06a136.23,136.23,0,0,0,33.41,14.93c12.57,3.73,24.6,5.22,36.24,3.45s22.69-6.77,33.59-14a136.9,136.9,0,0,0,27.48-24.16c5.81-6.68,10.71-14,15.67-21.16s10-14.43,14.42-22,8-15.6,12.08-23.41,8.4-15.43,12.33-23.29c4.58-9.15,8.58-18.6,13.12-27.79s9.6-18.11,14.45-27.12,9.49-18.18,15-26.82A275.47,275.47,0,0,1,458.11,374c8.86-11,17.85-20.49,27.71-27.82a117.55,117.55,0,0,1,74-22c12.26.73,25,3.76,38.43,8.07,7.16,2.3,14.32,4.49,21.15,7.45s13.36,6.72,20,10.19,13.37,6.7,19.82,10.51,12.52,8.16,18.87,12.12c9.62,6,19.4,11.76,28.9,18s18.73,12.84,28.36,18.82S755,420.52,765,425.84s20,10.63,30.62,14.83c6,2.37,12.16,4,18.23,5.81s12.25,3.8,18.52,4.8a113.58,113.58,0,0,0,19.1.93c6.26-.08,12.65-.21,19.06-1.53A87,87,0,0,0,893.38,442a93,93,0,0,0,20.22-13.7c5.95-5.47,10.92-12,15.86-18.61a223.87,223.87,0,0,0,13.84-20.19c4-6.8,7.43-13.92,11.27-20.81s8.08-13.57,11.86-20.49,7.1-14.11,10.92-21,8.15-13.52,12.12-20.34c3-5.09,5.66-10.32,9-15.09a161.62,161.62,0,0,1,11.28-13.48c3.87-4.38,7.65-8.89,12.09-12.75a120.81,120.81,0,0,1,14.38-10.1c4.72-3,9.17-5.68,13.78-7.08a46.76,46.76,0,0,1,30.31,2.77c4.29,2.2,8.21,5.61,12.32,9.39,2.09,1.92,4.45,3.56,6.35,5.63s3.32,4.58,5.06,6.8,3.82,4.2,5.41,6.54,2.66,5,4.12,7.41c3.75,6.21,7.61,12.31,10.75,18.77s5.56,13.31,8.27,20,5.74,13.24,8.2,20,4.33,13.76,6.7,20.57a271.84,271.84,0,0,0,20.35,44.42c8.23,14.56,17.41,28,28.62,39.51a158.62,158.62,0,0,0,39.27,28.87,177.23,177.23,0,0,0,45.67,17.09c7.42,1.64,15,2.54,22.42,3.76s14.93,2.76,22.46,3.57,15.13.91,22.7,1.33,15.11,1.17,22.7,1.21c15.87.08,31.66-1.21,47.43-2.43,6.85-.54,13.69-1.06,20.54-1.63V417.16C1432.77,418.34,1425.86,419.46,1419,420.57Z"/><path class="cls-2" d="M1438.14,658.65c-17.73.2-35.4.49-53-.37s-35.24-2.87-52.71-5.16-35-4.86-52.21-8.92a451.76,451.76,0,0,1-50.6-15.59c-16-5.82-31-12.28-44.16-20.45a168.75,168.75,0,0,1-37.07-31.38,150.85,150.85,0,0,1-26.51-40.65c-6.08-14-9.92-29.76-12.4-47-1.08-7.52-2.87-14.91-4.44-22.31s-3-14.91-5.23-22.13a184.73,184.73,0,0,0-8.59-21.05c-3.12-6.82-6.26-13.73-10.44-20.19a86.37,86.37,0,0,0-20.61-22.18c-8.83-6.67-18.11-10.78-27.76-11.37s-19.34,2.38-28.94,7.93a87,87,0,0,0-23.23,19.42c-3,3.54-5.34,7.53-7.93,11.3s-5.49,7.41-7.81,11.38-4,8.27-6.16,12.36-4.61,8-6.63,12.11c-3.1,6.38-5.59,13.07-8.56,19.52s-6.42,12.7-9.55,19.07-6,12.93-9.54,19.08a182.48,182.48,0,0,1-12.16,17.5c-4.57,6.08-9.11,11.62-14.37,15.9a76,76,0,0,1-39.58,15c-6.76.28-13.82-.88-21.29-2.45-4.12-.86-8.29-1.41-12.27-2.63s-7.77-3.11-11.65-4.66-7.91-2.76-11.68-4.58-7.21-4.21-10.88-6.26c-7.64-4.27-15.33-8.43-22.58-13.26s-14.07-10.34-21.09-15.52-14.27-10.07-21.2-15.38-13.54-11-20.53-16.27c-6.16-4.61-12.65-8.75-18.91-13.18s-12.35-9.2-18.85-13.28-13.41-7.48-20.25-11-13.58-7.14-20.82-9.88a124.57,124.57,0,0,0-27.52-6.67c-9.68-1.33-19.11-1.76-28.26-.18s-17.88,5.17-26.48,9.85a108.23,108.23,0,0,0-23.07,16.38c-3.31,3.13-6.18,6.7-9.35,9.95s-6.66,6.22-9.69,9.6-5.6,7.18-8.49,10.69-6.1,6.77-8.83,10.41c-8.43,11.26-16.24,23-24.33,34.45s-16.49,22.78-24.37,34.42-15.23,23.64-23,35.36-15.94,23.16-23.71,34.88c-4.8,7.24-9.27,14.7-14.34,21.74s-10.74,13.64-16.21,20.36-10.8,13.6-16.81,19.88-12.6,11.86-19.23,17.55c-7,6-13.88,11.22-21.17,14.76a75,75,0,0,1-24.83,6.76,76.38,76.38,0,0,1-25.72-1.12c-7.92-1.82-15.8-5.33-24-9.53A160,160,0,0,1,209,701.8c-5.59-3.81-10.62-8.33-15.8-12.64s-10.53-8.44-15.44-13.08-9.32-9.75-14.08-14.54c-7.73-7.78-15.64-15.4-23.13-23.43S126,621.64,118.4,613.69s-15.64-15.41-23.62-22.94S78.91,575.61,70.2,568.84a175.76,175.76,0,0,0-22.28-14.33c-7.86-4.41-15.75-8.45-24.11-10.92a90.85,90.85,0,0,0-24.14-3.4v19.29a75.7,75.7,0,0,1,11,1.83c10.72,2.6,21.53,7.77,32.69,14.58,6.5,4,13,7.85,19.05,12.4s11.57,9.8,17.29,14.78S91.35,612.79,96.87,618,107.5,628.82,113,634.05c8,7.61,16.21,15,24.12,22.65s15.52,15.71,23.68,23.13,16.84,14.23,25.53,21,17.32,13.59,26.78,19.42a140.55,140.55,0,0,0,29.09,13.56c11,3.71,21.36,5.67,31.59,4.82s20.17-4.48,30.36-10a137,137,0,0,0,26.36-18.32c8.95-7.94,16.81-16.83,24.53-25.75s15.43-18,22.4-27.64,13.21-19.7,19.83-29.56,13.59-19.45,20.32-29.22c8-11.66,15.41-23.77,23.24-35.58S456.92,539.32,465,527.7s16-23.41,24.77-34.53,18.36-21.5,28.23-31.74c9.18-9.51,17.83-17.48,26.81-23.14a78.81,78.81,0,0,1,33.13-11.82,81.34,81.34,0,0,1,35,3.32c10.14,3.23,20.56,8.7,31.89,15.42,6.91,4.1,13.84,8.11,20.3,12.79s12.45,10,18.63,15.12,12.59,9.87,18.64,15.12,11.71,10.91,17.78,16.12c6.82,5.85,13.95,11.36,20.85,17.11s13.62,11.8,20.88,17.08a226,226,0,0,0,22.93,14.17c7.77,4.33,15.68,8.61,24.29,11.68A112.52,112.52,0,0,0,838,570.46c10.36.88,20.13.39,29.21-2.5s17.36-8.15,25.25-14.9a108.48,108.48,0,0,0,19.72-21.82c2.58-3.81,4.61-8,7-11.89s5.18-7.61,7.49-11.59,4.12-8.23,6.4-12.23,5-7.72,7.36-11.68c2.79-4.74,5.17-9.72,8.13-14.32s6.52-8.86,9.84-13.2,6.49-8.88,10.35-12.81a104.59,104.59,0,0,1,12.72-10.44c6-4.46,11.86-8.28,17.94-10.52a57.77,57.77,0,0,1,40.72,1.72c5.87,2.76,11.34,7.07,17,12.06a120.39,120.39,0,0,1,12.48,12.12c3.74,4.47,6.72,9.47,9.82,14.36a155,155,0,0,1,8.92,14.94c2.53,5.18,4.35,10.72,6.45,16.18,3.12,8.1,6.79,16,10.14,24s6.39,16.16,10.13,24,8.19,15.28,12.48,22.83,8.41,15.15,13.38,22.31a189.13,189.13,0,0,0,30.23,33.42,202.77,202.77,0,0,0,36.57,26.35c13.07,7.22,27.11,12.69,41.5,17.67a400.78,400.78,0,0,0,43.33,12.67c12.1,2.72,24.36,4.14,36.57,5.54s24.52,2.81,36.84,3.4,24.67.4,37,.7,24.51,1.1,36.76,1.62V658.65Z"/><path class="cls-2" d="M40.19,648.85c9.58,5.19,18.57,11.32,27.65,17.3s18.23,11.84,27,18.27S112,697.8,120.71,704.31c8.54,6.38,17.35,12.39,25.91,18.75s16.85,13.09,25.59,19.2,17.91,11.57,27,17.15,18.08,11.26,27.66,16.05a98.43,98.43,0,0,0,23.4,7.92c8.34,1.83,16.52,2.82,24.58,2s15.83-3.59,23.62-7.14a101.17,101.17,0,0,0,21.25-12.6c5.2-4.11,9.85-8.8,14.64-13.28s9.82-8.83,14.25-13.69,8.29-10.24,12.34-15.44,8.34-10.21,12-15.69c9.09-13.53,17.7-27.39,26.71-41S418.12,639.61,427.1,626s17.51-27.51,26.5-41.11,18.45-26.89,27.52-40.44c4.36-6.52,8.37-13.29,13-19.64s9.75-12.29,14.71-18.36,9.73-12.32,15.18-18a228.27,228.27,0,0,1,17.5-15.72c7.63-6.45,15-11.78,22.6-15.12a62.57,62.57,0,0,1,52.75,2c7.35,3.89,14.3,9.74,21.46,16.7a163.91,163.91,0,0,1,12.66,13.06c3.85,4.69,7,9.87,10.51,14.85s7.2,9.77,10.42,14.91,5.91,10.6,9,15.79c3.66,6,7.7,11.84,11.32,17.89s6.83,12.37,10.6,18.33,8.11,11.55,12.22,17.29,8,11.62,12.6,17a125.56,125.56,0,0,0,25.69,22.62c10,6.7,20.26,11.63,31.18,13.86s22.31,1.7,34.12-.56a125.48,125.48,0,0,0,32.5-10.77c5.88-2.92,11.3-6.61,16.81-10.07s11.22-6.74,16.51-10.57,10.16-8.22,15.32-12.24,10.6-7.66,15.75-11.68,10.24-8.65,15.57-12.67,11.08-7.54,16.63-11.25,11-7.67,16.89-10.85a151.39,151.39,0,0,1,18.45-7.89c6.76-2.55,13.09-4.71,19.27-5.47a64.77,64.77,0,0,1,38.45,8.9c5.23,3.39,10,8.1,14.92,13.36a142.58,142.58,0,0,1,10.39,11.54c3.12,4.14,5.6,8.71,8.37,13.08s5.84,8.56,8.37,13.08,4.53,9.31,7,13.88c3.76,7.06,7.85,14,11.45,21.08s6.7,14.53,10.36,21.64,7.85,13.93,11.77,20.9,7.56,14.1,11.94,20.81A137,137,0,0,0,1150.65,715c5.65,6,11.44,11.69,18.1,16.13a95.07,95.07,0,0,0,21.94,10.31,103.33,103.33,0,0,0,23.58,5.62c3.38.34,6.81.17,10.19.53s6.69,1.25,10.06,1.64,6.81.29,10.18.72,6.66,1.42,10,1.91A196.07,196.07,0,0,1,1284,758c9.56,3,18.69,7,27.84,11s18.34,7.9,27.23,12.47,17.43,9.78,26.22,14.49c21.76,11.65,43.85,22.65,65.84,33.77l8.54,4.32V782.79c-11.76-6.85-23.42-13.87-35.14-20.82A297.83,297.83,0,0,0,1377,748c-9.39-4.33-18.78-8.58-28.56-11.72a228,228,0,0,0-30.08-6.93c-10-1.76-20.17-3.37-30.64-3.72-6-.2-12,.08-18-.24s-12-1.25-18-1.8-12-.72-18-1.62-11.74-2.49-17.62-3.83c-11.88-2.71-22.91-6.15-32.89-11.14-10.56-5.29-19.84-12.21-28.55-19.74a165.66,165.66,0,0,1-24-25.07c-6.85-9-12.62-19.11-18.31-29.57-4-7.39-8.21-14.7-11.85-22.29s-6.69-15.45-10.32-23-7.82-14.9-11.83-22.3-7.83-14.89-12.58-21.88a91.08,91.08,0,0,0-16.89-18.47c-6.88-5.79-14-10.11-21.77-12.09s-16.08-1.56-24.92.17a94.56,94.56,0,0,0-23.78,7.82c-5.36,2.62-10.21,6-15.13,9.22s-10,6.26-14.7,9.9-8.83,7.83-13.29,11.72-9.18,7.45-13.55,11.42c-4.73,4.29-9.07,9-13.8,13.27s-9.86,8.11-14.76,12.17-9.62,8.41-14.85,12.08A163.5,163.5,0,0,1,861.8,610c-8.9,4.79-17.7,8.71-26.66,10.8a100,100,0,0,1-56.63-5.12c-8.44-3.67-16.39-9.12-24.27-15.44a168.56,168.56,0,0,1-13-10.89c-4-4-7.48-8.47-11.17-12.74s-7.65-8.32-11.12-12.78-6.43-9.29-9.78-13.84c-4.89-6.64-10.07-13.09-14.82-19.86s-9.06-13.83-13.93-20.49-10.3-12.91-15.59-19.26-10.41-12.8-16.36-18.6a142.9,142.9,0,0,0-13.22-10.84c-4.58-3.51-9.07-7.06-14.09-9.67a76.38,76.38,0,0,0-16.1-5.7,71,71,0,0,0-16.83-2.84,62.43,62.43,0,0,0-19.16,3.06,70.22,70.22,0,0,0-17.85,7.67c-5.43,3.43-10.19,7.92-15,12.36s-9.65,8.68-14.08,13.45c-10.35,11.16-19.61,23.16-28.8,35.17s-18.39,24.1-26.89,36.66-16.31,25.54-24.55,38.27S425,614.52,416.53,627.09c-6.35,9.45-12.07,19.32-18.26,28.89s-12.84,18.83-19.3,28.21S366.24,703.1,359.1,712a289.89,289.89,0,0,1-23.24,25c-3.86,3.78-7.47,7.85-11.57,11.3A127.91,127.91,0,0,1,311,757.58c-4.52,2.94-9,6-14,8.1a77.69,77.69,0,0,1-15.58,4.25c-6.93,1.36-13.55,2.13-20,1.54-6.75-.62-13.13-2.7-19.44-4.92a126.86,126.86,0,0,1-18.48-7.83c-5.84-3.18-11.29-7.17-17-10.81-8.09-5.2-16.34-10.18-24.18-15.73s-15.29-11.68-23-17.48-15.6-11.28-23.17-17.21-14.78-12.33-22.32-18.3S98.32,667.51,90.5,661.67,75,649.69,66.86,644.3s-16.76-10-25.37-14.69-17.14-9.3-26.29-13a110,110,0,0,0-15.53-4.9V631.6c3.49,1.11,7.07,2.43,10.79,3.89A268.16,268.16,0,0,1,40.19,648.85Z"/><path class="cls-2" d="M1384.15,86.33c-6.11,6.61-12,13.46-18.31,19.8s-13.26,12.16-20,18.14-13.26,12.16-20.37,17.68-14.67,10.31-22.23,15.27c-14.57,9.54-28.91,17.25-43.46,22.19a145.56,145.56,0,0,1-48.11,7.52,146.18,146.18,0,0,1-48-8c-14.53-5.1-28.8-12.93-43.28-22.56-6-4-12.11-7.66-17.92-11.84s-11.26-8.86-17-13.08-11.88-8-17.74-12.11-11.53-8.53-17.6-12.33a154.55,154.55,0,0,0-32.71-15.49c-12.46-4.21-24.16-6.19-35.65-4.91S959.31,92.33,948,99.06A164.05,164.05,0,0,0,919,120.83c-4.73,4.46-8.86,9.48-13.19,14.28s-8.92,9.44-13,14.48-7.62,10.5-11.54,15.66-8.22,10-12.14,15.2c-3.44,4.54-6.47,9.39-10,13.88s-7.47,8.62-11.12,13-7,9-10.88,13.19-8.25,7.84-12.43,11.74c-11.18,10.44-22.53,19.24-34.54,25.57a130.81,130.81,0,0,1-83.78,11.78c-13.3-2.76-26.63-8.11-40.25-15.06-6.87-3.5-13.8-6.83-20.37-10.8s-12.75-8.58-19.16-12.82-13.06-8.12-19.43-12.41-12.49-9-19-13.1c-7.13-4.55-14.6-8.47-21.94-12.48s-14.76-8.23-22.53-11.38a152.52,152.52,0,0,0-24.2-7.09c-8.06-1.8-16.31-3.41-25-3.61-9.68-.22-18.93,1.13-27.89,2.85a141.1,141.1,0,0,0-27,7.56c-8.6,3.52-16.67,8.3-24.74,13.22a247.29,247.29,0,0,0-23.32,15.6c-5.24,4.08-10.1,8.63-15.26,12.81s-10.62,8-15.77,12.16-10,8.77-15.2,12.87-10.81,7.73-16.16,11.66c-12.39,9.08-24,16.6-35.7,21.67A111.18,111.18,0,0,1,253,290.42a112.57,112.57,0,0,1-41.17-5.91c-12.07-4.11-24.3-10.61-37.41-18.56-4.11-2.49-8.48-4.57-12.57-7.08s-7.92-5.48-12-8-8.53-4.47-12.71-6.83S129,239,124.7,236.78a112.26,112.26,0,0,0-28-9.59c-10-2.13-19.82-3.07-29.45-1.81s-18.84,4.68-28,9.25a119.74,119.74,0,0,0-24.83,16.05c-3.83,3.27-7.17,7.06-10.74,10.56-1.32,1.29-2.66,2.55-4,3.8v17.71c4-4,8.49-7.65,12.86-11.39,5.28-4.51,10.39-9.07,16-12.65A94.09,94.09,0,0,1,46.9,250c6.33-2.34,12.82-4.36,19.74-4.85,6.46-.46,13.16.49,20.24,2a100.56,100.56,0,0,1,13.71,3.38c4.44,1.62,8.54,4,12.72,6.14a135.3,135.3,0,0,1,12.46,6.65c3.93,2.56,7.45,5.73,11.19,8.62,5,3.87,10.29,7.38,15.22,11.34s9.52,8.34,14.44,12.32,10.16,7.54,15.11,11.47,9.62,8.24,14.66,12.06a161.06,161.06,0,0,0,14,9c4.75,2.89,9.41,6,14.46,8.19a106.49,106.49,0,0,0,15.83,5.05c5.27,1.4,10.62,2.91,16.26,3.42A78.82,78.82,0,0,0,280.49,343a79.28,79.28,0,0,0,22.27-7.8c6.82-3.76,12.89-8.85,18.95-14.14a193,193,0,0,0,17.11-16.36c4.64-5.17,8.8-10.76,13.35-16s9.48-10.17,14.1-15.37,8.92-10.68,13.76-15.67,10.16-9.45,15.37-14.09c13.26-11.81,26.55-21.74,40.45-28.92a145.11,145.11,0,0,1,47.36-14.73,142.07,142.07,0,0,1,49.57,1.57c15.28,3.27,30.67,9.43,46.52,17.54,6.41,3.28,13,6.26,19.29,9.79s12.26,7.6,18.49,11.25,12.69,6.88,18.91,10.52,12.21,7.71,18.5,11.23c5.91,3.3,12.13,6,18.2,8.84s12.14,6,18.49,8.24a151.29,151.29,0,0,0,19.6,5c6.53,1.36,13.14,2.76,20,3.07a163.14,163.14,0,0,0,74.11-15.74c11.26-5.67,21.6-13.13,31.74-21.24a265.75,265.75,0,0,0,28.27-25.7c6.38-6.82,11.94-14.3,17.65-21.62s11.63-14.53,17.08-22.08,10.43-15.42,16-22.88,11.69-14.46,17.75-21.53c7.82-9.09,15.08-16.82,22.72-22.45A69.73,69.73,0,0,1,985.13,101a70.64,70.64,0,0,1,31.69,1.25c9.19,2.44,18.8,6.94,29.42,12.46,6.09,3.17,12.26,6.16,18.07,9.78s11.22,7.86,16.87,11.72,11.56,7.36,17.19,11.26,11,8.19,16.74,11.91a242.05,242.05,0,0,0,31.7,16.87c11,5,22.16,9.5,33.7,12.33a170.22,170.22,0,0,0,35.6,4.36,169.7,169.7,0,0,0,35.79-2.26c17-3.12,32.87-8.39,48.11-14.55a280.1,280.1,0,0,0,44.92-22.59c14.12-8.91,27.25-19.39,40.17-30.28,12.72-10.73,25.3-21.88,37.16-33.94,6.09-6.18,11.74-12.76,17.41-19.32V20.42c-4,4.57-7.9,9.16-11.71,13.86-7.15,8.81-13.84,18-21.08,26.72S1391.86,78,1384.15,86.33Z"/></g></svg>