<svg xmlns="http://www.w3.org/2000/svg" viewBox="0 0 1440 900"><defs><style>.cls-1{fill:#303c78;}.cls-2{fill:#fb0;}</style></defs><title>Wunderkind_Patterns_WEB-Cropped</title><g id="Backgrounds"><rect class="cls-1" width="1440" height="900"/></g><g id="Color"><path class="cls-2" d="M831.36,423.86c-7.79,4.18-15.62,8.3-23.33,12.65a364.52,364.52,0,0,1-39.33,19.07q-15.88,6.6-31.7,13.36a16.17,16.17,0,0,0-3.24,2.52c5.91,4.42,12.6,6.59,18,11.75-14.09,3.8-27.53,7.2-40.83,11.06-9.1,2.64-18.56,4.41-27.73,10.29,5.34,4.13,10.55,7.28,14.58,11.54s10.1,6.65,11.84,12.58c-5,3.59-9.63,7-14.36,10.25-5.31,3.66-10.71,7.19-16.1,10.76-3.18,2.1-6.54,4-9.56,6.29-2,1.57-3.29,4.33-5.47,5.49a7.81,7.81,0,0,0-4.32,5.3c13.07-6.14,25.94-12.29,38.92-18.23,12.35-5.64,24.83-11,37.2-16.62,1.84-.83,3.4-2.29,5.63-3.84l-23.91-18.93c8.83-4,17.6-5.48,26-7.87,8.76-2.49,17.7-4.36,26.56-6.51l26.91-6.55a46.51,46.51,0,0,0-4.87-3.42c-5.6-2.78-11.29-5.39-16.87-8.2-1.1-.56-1.89-1.74-3.19-3,21-16.06,42.45-30.58,61.16-49.17C832.19,424.08,831.64,423.71,831.36,423.86Z"/><path class="cls-2" d="M1404.61,263.49c-13.58,3.85-27.2,7.56-40.76,11.47-8.36,2.41-17.07,3.88-25.27,8.64,2.25,2.38,4.1,4.57,6.2,6.5,5.26,4.84,10.68,9.53,16,14.36,2,1.79,1.64,4-.61,5.37-3.46,2.15-6.76,4.64-10.43,6.35-13.21,6.14-25.08,14.43-37.07,22.55-1.55,1-3,2.32-4.41,3.49,28.75-9.22,56.24-21.21,85-32.09-6.79-8-15.68-12.61-21.84-21.06,23.14-6.39,45.73-12,68.53-18.88v-9.4c-3.59-2.15-7.2-4.27-10.73-6.52-1.26-.8-2.09-2.29-3.08-3.42l13.81-12.28v-17.3c-6.16,3.47-12.32,7-18.55,10.33-10.58,5.72-21.31,11.16-32.36,16.93,5.07,6.06,12.35,8.12,17.36,13.29C1405.61,262.56,1405.19,263.33,1404.61,263.49Z"/><path class="cls-2" d="M1326.47,475.85a12.19,12.19,0,0,0,1.92-2.87c-3.25.59-5.64,2-8.13,3.31-15.78,8-31.62,15.79-47.35,23.83-14.47,7.39-28.82,15-43.23,22.48-4,2.06-4.08,3-.45,5.59,4.6,3.26,9.21,6.5,14.47,10.21a23.85,23.85,0,0,1-3.71,2.06c-13.08,3.89-26.26,7.47-39.24,11.66-8.55,2.76-17.69,4-25.9,9.63,7.29,8.94,17.51,14.76,24.73,24.2-8.8,7-18.62,11.46-28,16.6-9.58,5.28-18,12.08-26.53,19.08,3-1.13,6-2.23,9-3.4q36.4-14.33,72.8-28.71c1.18-.47,2.16-1.47,3.81-2.64-7.72-6.53-14.91-12.62-22.57-19.12a38,38,0,0,1,4.9-2.34c3.9-1.16,7.89-2.06,11.81-3.17q28.37-8,56.7-16.17a59.4,59.4,0,0,0,6.83-3c-8.11-6.08-17.22-8.89-24.2-15.8,10.18-8.63,19.8-17,29.62-25C1304.58,493.34,1315.59,484.68,1326.47,475.85Z"/><path class="cls-2" d="M496.79,544.92c9.26-7.37,18.55-14.71,27.74-22.16,1.66-1.34,4-2.39,4.45-6.09-33.23,16.68-65.59,32.91-97.92,49.18a21.51,21.51,0,0,0-3.09,2.41c4.81,5.65,11.41,8.13,16.82,13a32.83,32.83,0,0,1-4.64,2.28c-7.81,2.32-15.65,4.49-23.47,6.77-9.21,2.67-18.34,5.59-27.61,8-4.4,1.15-8.15,3.18-12.37,5.49,8.09,8.65,17.34,15.17,24.94,24.25-7.47,4.59-14,9.5-21.28,12.89-11.11,5.18-20.92,12.22-30.81,19.21a47.26,47.26,0,0,0-3.72,3.44c16.52-5.13,79.86-30.52,86.27-34.64l-22.27-19a43.65,43.65,0,0,1,5.46-2.44q33.52-9.57,67.09-19c2.12-.59,4.17-1.07,5.24-3.85-6.93-5.21-15.66-7.7-22.58-14,1.92-1.71,3.44-3.19,5.08-4.5C479,559,487.9,552,496.79,544.92Z"/><path class="cls-2" d="M355.35,514.72q28.36-8,56.7-16.16a61.21,61.21,0,0,0,6.83-3c-8.11-6.08-17.22-8.9-24.2-15.81,10.18-8.62,19.8-16.95,29.62-25,10.82-8.91,21.84-17.57,32.71-26.41a11.52,11.52,0,0,0,1.92-2.87c-3.24.59-5.63,2.05-8.13,3.31-15.77,8-31.62,15.79-47.35,23.83-14.46,7.39-28.82,15-43.23,22.49-4,2.05-4.07,3-.45,5.59l14.47,10.2a22.6,22.6,0,0,1-3.71,2.06c-13.08,3.9-26.26,7.48-39.24,11.67-8.54,2.76-17.69,4-25.9,9.62,7.3,8.94,17.52,14.77,24.73,24.2-8.79,7-18.62,11.46-27.95,16.61-9.59,5.28-18,12.08-26.54,19.07,3-1.13,6-2.23,9-3.4Q321,556.38,357.4,542c1.19-.47,2.16-1.48,3.81-2.64l-22.57-19.12a35.48,35.48,0,0,1,4.9-2.34C347.45,516.73,351.43,515.83,355.35,514.72Z"/><path class="cls-2" d="M546.07,323.82a16.09,16.09,0,0,0-7.47,4.58c7,8.94,16.82,14.57,23.59,24.21-6.9,4.56-12.88,9.64-19.74,12.76-10.83,4.94-20.38,11.6-29.81,18.61a42.9,42.9,0,0,0-3.57,3.66c8.82-3.15,16.29-5.64,23.63-8.48,16.27-6.3,32.51-12.67,48.67-19.26,3.81-1.56,8.29-2.39,11.06-6.52-7-6.72-15-12-21.69-20.14,4.32-1,7.6-1.53,10.78-2.44,19.81-5.69,39.59-11.47,59.4-17.15,2.57-.74,5.11-1.35,6.83-4.25-3.91-2.33-7.74-4.6-11.55-6.91s-8.22-3.65-10.83-8.23l12.75-10.14c4.35-3.46,8.7-6.9,13-10.37q6.23-5,12.44-10c4.33-3.47,8.7-6.91,13-10.43,3.91-3.2,8.43-5.78,11.11-10.43a27.61,27.61,0,0,0-6.36,2.58q-22.54,11-45.09,21.88c-11.6,5.64-23.32,11.08-34.73,17.09-4.31,2.27-9.47,3.48-12.87,8.09,4.14,6.05,12.48,7.21,16.37,13.94-9.63,2.76-18.83,5.34-28,8C566.71,317.58,556.43,320.81,546.07,323.82Z"/><path class="cls-2" d="M62.12,594.59c13.81-11.63,28.62-22.07,41.45-34.87a6.77,6.77,0,0,1,2.28-1.75c3.78-1.27,5.58-4.46,7.63-7.56q-24.95,11.83-49.32,24.5C47.9,583.32,31.76,592,15.33,600.67c3.38,7.11,12.78,7.47,16.22,14.69a39.7,39.7,0,0,1-3.73,1.5Q13.87,620.94-.1,625v17.27a3.27,3.27,0,0,1,.93-.5c12.92-3.63,25.85-7.19,38.75-10.86,10.13-2.89,20.21-6,30.35-8.85,2.12-.61,4.12-1.13,5.53-3.81L52.58,604.67C55.31,600.3,58.71,597.46,62.12,594.59Z"/><path class="cls-2" d="M202.1,474.83a47.26,47.26,0,0,0-3.72,3.44c16.52-5.13,79.86-30.53,86.27-34.64l-22.27-19.05a45,45,0,0,1,5.46-2.43q33.53-9.57,67.09-19c2.12-.59,4.17-1.07,5.24-3.85-6.93-5.21-15.65-7.71-22.58-14,1.92-1.7,3.44-3.18,5.08-4.49q13.32-10.63,26.67-21.21c9.26-7.36,18.55-14.7,27.75-22.15,1.65-1.34,4-2.39,4.45-6.1-33.24,16.68-65.59,32.91-97.93,49.19a20.79,20.79,0,0,0-3.08,2.41c4.8,5.65,11.41,8.13,16.82,12.95a31.73,31.73,0,0,1-4.65,2.27c-7.8,2.33-15.65,4.5-23.47,6.77-9.2,2.68-18.34,5.6-27.6,8-4.4,1.15-8.16,3.18-12.38,5.49,8.1,8.65,17.34,15.16,24.95,24.24-7.48,4.6-14,9.51-21.29,12.89C221.8,460.8,212,467.84,202.1,474.83Z"/><path class="cls-2" d="M154.87,676.61l12.44-10c4.33-3.48,8.69-6.92,13-10.43,3.92-3.21,8.44-5.79,11.11-10.43a26.9,26.9,0,0,0-6.35,2.57q-22.55,11-45.09,21.88c-11.61,5.64-23.32,11.08-34.73,17.1-4.31,2.27-9.47,3.47-12.87,8.09,4.14,6,12.48,7.2,16.36,13.94-9.63,2.76-18.82,5.33-28,8-10.34,3.05-20.63,6.28-31,9.28a16.15,16.15,0,0,0-7.48,4.58c7,8.94,16.83,14.57,23.6,24.21C59,760,53,765.1,46.15,768.23c-10.83,4.93-20.38,11.6-29.81,18.61a40.87,40.87,0,0,0-3.57,3.65c8.82-3.15,16.29-5.63,23.62-8.47,16.28-6.31,32.52-12.68,48.68-19.27,3.81-1.55,8.28-2.38,11.06-6.52-7-6.72-15-12-21.69-20.13,4.32-1,7.6-1.54,10.77-2.45,19.81-5.68,39.6-11.47,59.41-17.15,2.57-.74,5.1-1.34,6.83-4.24-3.91-2.34-7.74-4.61-11.55-6.92s-8.23-3.64-10.83-8.22L141.81,687Z"/><path class="cls-2" d="M857.25,256.09a42.31,42.31,0,0,0-3.71,3.44c16.51-5.13,79.85-30.53,86.26-34.65l-22.27-19A43.72,43.72,0,0,1,923,203.4q33.53-9.57,67.08-19c2.12-.6,4.17-1.07,5.24-3.85-6.93-5.21-15.65-7.71-22.58-14,1.92-1.71,3.44-3.18,5.09-4.5,8.87-7.09,17.77-14.13,26.66-21.2,9.26-7.37,18.55-14.71,27.75-22.16,1.65-1.34,4-2.39,4.45-6.09-33.23,16.68-65.59,32.91-97.93,49.18a21.49,21.49,0,0,0-3.08,2.42c4.8,5.64,11.41,8.12,16.82,12.94a31.37,31.37,0,0,1-4.65,2.28c-7.8,2.32-15.65,4.5-23.47,6.77-9.2,2.67-18.34,5.59-27.6,8-4.4,1.15-8.15,3.19-12.38,5.49,8.1,8.65,17.34,15.17,25,24.25-7.48,4.6-14,9.5-21.29,12.89C877,242.05,867.15,249.09,857.25,256.09Z"/><path class="cls-2" d="M1045.09,373.54c-4.06,1.21-8.12,2.47-11.26,5.66L1058.16,402c-5.36,5.29-11.88,8-17.78,11.53-6.75,4.08-13.78,7.7-20.61,11.67-5.78,3.35-11.46,6.88-17.12,10.44-.49.3-.51,1.37-1,2.94,11.46-4.35,22-8.32,32.46-12.33,14.31-5.47,28.63-10.92,42.91-16.48,4.13-1.61,8.72-2.51,12-6.45-3.83-3.29-7.4-6.36-11-9.45s-8.18-5.33-10.81-10.23c5-1.26,9.47-2.26,13.83-3.49q20.09-5.67,40.1-11.49c7.13-2.08,14.22-4.3,21.32-6.49,1.82-.56,3.67-1.16,3.76-3.67l-22.61-13.2c-.12-3.38,2.5-4.3,4.28-5.75,12-9.78,24.07-19.42,36-29.24,4.06-3.34,7.71-7.18,11.74-10.56s8.81-5.58,12-10.8a40.92,40.92,0,0,0-5.51,1.87c-6.39,3.25-12.7,6.66-19,10q-14.61,7.63-29.24,15.26c-12.52,6.49-25.15,12.78-37.51,19.56-3.61,2-8.22,2.65-11,6.85,4.73,5.79,11.9,8,17.47,12.82-3.32,3.09-7.4,3.1-10.88,4.21C1076.4,364.42,1060.71,368.88,1045.09,373.54Z"/><path class="cls-2" d="M980.23,280.59c-7,2.12-14.2,3.68-20.7,7.94a25.2,25.2,0,0,0,3.18,3.92c6.08,5,12.31,9.81,18.39,14.82,1.58,1.3,3.57,2.56,3.43,5.84-6.21,3.79-12.64,7.94-19.28,11.7-8.35,4.72-16.79,9.22-24.41,15.14-2.62,2-5.73,3.43-8.53,5.25a12.6,12.6,0,0,0-2.13,2.46c1.11.34,1.61.7,1.93.57q20.64-8.25,41.23-16.57,19-7.64,37.89-15.29c2.19-.88,4.53-1.61,5.28-4.27l-22.63-17.48c1.35-2.59,3.43-3,5.57-3.45,3-.64,6.12-1.31,9.11-2.18q29-8.42,57.92-16.93c2.19-.64,4.4-1.19,6.53-3.45-8.5-4.82-17.43-7.61-26-12.88,2.21-1.93,3.68-3.46,5.37-4.67,6.63-4.76,13.4-9.33,20-14.15,4.68-3.42,8.92-7.49,13.79-10.57,3.43-2.16,7.73-3.46,9.82-7,2.34-3.92,7.16-3.75,9.62-7.08a28.35,28.35,0,0,1,2.64-2.54L1006.8,254.15l20.87,11.29a23,23,0,0,1-3.45,1.85C1009.56,271.75,994.88,276.13,980.23,280.59Z"/><path class="cls-2" d="M1408.05,375.92c7,8.95,16.83,14.57,23.6,24.21-6.91,4.56-12.88,9.64-19.74,12.77-10.83,4.93-20.38,11.6-29.81,18.61a40.87,40.87,0,0,0-3.57,3.65c8.82-3.15,16.29-5.63,23.62-8.47q18.91-7.33,37.75-14.85V364c-8.12,2.45-16.22,5-24.37,7.31A16.15,16.15,0,0,0,1408.05,375.92Z"/><path class="cls-2" d="M4,527l-4.1-2.45v5.82A7.72,7.72,0,0,0,4,527Z"/><path class="cls-2" d="M907.69,586.9c2.67-1.58,3.73-4.2,6.12-5.82s4.46-4.3,6.57-6.58c6.84-7.35,13.62-14.76,20.5-22.08.88-.94,2.26-1.41,3.63-2.24,3,5.45,5.66,10.48,8.42,15.49s3.92,10.63,9,14.87c14.35-20.41,24-42.87,37.58-64,2.81,7.66,5.26,14.32,8.16,22.19,12.92-15.16,25-29.32,37.06-43.46s24.23-28.33,36.34-42.5a108,108,0,0,0-16.14,10.07c-13,9.59-25.88,19.29-38.79,29-2.71,2-5.26,4.26-8,6.23a24.31,24.31,0,0,1-4.34,1.92c-1.86-6.37-3.64-12.26-5.29-18.19-.77-2.77-1.19-5.68-4.3-7.08-1.1,1.66-2.26,3.17-3.17,4.82-10.92,19.71-21.74,39.47-32.77,59.12-1.28,2.29-1.87,5.51-5.07,6.53-2.35-4.51-4.6-8.69-6.72-12.93s-2.79-9.6-7.27-12.62c-4.11,4-50,71.13-52,76.7C900.76,593.28,903.72,589.24,907.69,586.9Z"/><path class="cls-2" d="M1130.12,506.52c9.29-4,19.31-6.35,28.94-12.29l-23.24-20.43c3.65-1.12,6.29-2,9-2.74,3-.84,6-1.53,9-2.35q17-4.68,34-9.4,12.81-3.6,25.57-7.4c1.2-.36,2.2-1.37,3.76-2.39-7.3-4.15-13.94-7.93-20.59-11.69-3.77-2.14-4-3.41-.46-6.11,2.83-2.18,6.09-3.81,8.93-6,7.68-5.88,15.26-11.88,22.83-17.89q14.19-11.28,28.26-22.68c.89-.73,1.34-2,2.83-4.28-34.92,17.15-68.34,33.56-101.74,50-.57.28-.9,1-1.74,2.06a54.88,54.88,0,0,0,4.24,3.64c3.53,2.47,7.18,4.78,10.74,7.2a29.15,29.15,0,0,1,2.61,2.37c-4.43,1.33-8.08,2.47-11.75,3.52-15.68,4.48-31.38,8.89-47,13.41-4,1.16-8.16,2.27-10.83,5.4,7.53,8.86,17.06,15.13,24.29,24.6-9.22,5.38-17.86,10.36-26.44,15.47-4.32,2.57-8.34,5.71-12.81,8-6.28,3.2-11.25,8-16.3,13,9.56-3.75,19.13-7.46,28.68-11.25C1110.63,514.46,1120.45,510.66,1130.12,506.52Z"/><path class="cls-2" d="M601.76,386.25c-1.35,1.83-3.56,3.05-5.47,4.45-1.54,1.13-3.49,1.83-4.73,3.2-4.56,5-10.55,8.14-15.63,12.43-8.47,7.13-16.88,14.32-25.36,21.44a50.25,50.25,0,0,1-4.49,3,34,34,0,0,1-2.39-4.75c-1.7-5.48-3.2-11-4.85-16.53-.52-1.7-1.27-3.33-2-5.32a10,10,0,0,0-4.8,5q-17.28,31.9-34.75,63.71a28.63,28.63,0,0,1-3.14,3.83c-2-4.21-3.6-7.65-5.2-11.11-1.71-3.68-3.34-7.39-5.08-11.06-2.78-5.84-3.2-5.89-7-1-.59.75-1,1.62-1.56,2.4q-15.47,22.41-30.94,44.8C439,508.36,433.68,516,428.4,523.65c-.42.62-.47,1.5-1,3.36a24.37,24.37,0,0,0,3.33-2.07c2.38-2.34,4.42-5.1,7.05-7.1,6.75-5.13,12.1-11.57,17.77-17.76,5.32-5.82,10.92-11.37,16.45-17a28.75,28.75,0,0,1,3.4-2.46c5.41,10,10.59,19.5,16.58,30.51,4.34-6.67,8.16-12.11,11.54-17.82,8.39-14.2,16.58-28.53,24.88-42.79a17.6,17.6,0,0,1,2.15-2.45c3.71,6.71,4,14.29,9.18,20.53,22.78-27.43,45-54.48,67.1-81.69,1.42-1.76,2.65-3.66,4-5.5C607.16,382.24,604,383.2,601.76,386.25Z"/><path class="cls-2" d="M840.4,491.14c3.44-3.33,7.33-6.38,10.06-10.23,4.92-6.93,11.69-12,17.36-18.07,1.45-1.55,4.08-1.49,5,0,3.69,5.86,7.21,11.83,11,17.63,1.8,2.75,4.07,5.2,6.34,8.05,2-2.56,3.94-4.63,5.34-7q13.68-23.55,27.12-47.23c1-1.74,2-3.18,3.89-3.33l8.33,18.57a36.58,36.58,0,0,0,4.39-3.54c23.75-26.93,45.34-55.6,67.53-83.8a16.09,16.09,0,0,0,1.56-3.2c-5.3,3-9.55,7.07-13.88,11.21-9.37,8.95-19.52,17.07-29.27,25.63-5.93,5.22-12.93,9.23-17.73,15.75a10.57,10.57,0,0,1-2.8,2.27c-2.86,1.85-4.76,1.21-6-2.17-1.37-3.8-2.58-7.66-3.81-11.51s-2.33-7.54-3.77-12.24c-4,5.26-5.69,10.44-8.29,15.13-7.51,13.53-15.3,26.89-23,40.29-2.38,4.14-4.81,8.26-7.44,12.24-1.46,2.21-3.23,2-4.5-.12-3.45-5.7-6.88-11.42-10.41-17.08-1.91-3.06-3.68-3.1-5.89-.21-15.82,20.63-31.51,41.34-45.64,63.19-.54.83-.58,2-1.18,4.18,1.91-1.52,2.88-2.19,3.73-3C832.41,498.72,836.44,495,840.4,491.14Z"/><path class="cls-2" d="M19.86,481.35c4.34-3.47,8.7-6.91,13-10.43,3.91-3.2,8.43-5.78,11.11-10.43a27.61,27.61,0,0,0-6.36,2.58Q18.77,472.24-.1,481.37v15.92q3.77-3,7.52-6Q13.65,486.36,19.86,481.35Z"/><path class="cls-2" d="M18.72,660.84c-5.39-4.72-10.87-9.34-16.32-14a11.9,11.9,0,0,1-2.5-2.27v27.76q8.94-3.5,17.88-7C21.28,663.94,21.45,663.24,18.72,660.84Z"/><path class="cls-2" d="M619.85,414.39c-3.36,1-6.92,1.95-9.8,5.75,7.81,8.24,16.6,14.83,24.27,23.25-4.17,3-7.5,5.87-11.21,8-9.47,5.53-19.24,10.55-28.63,16.2-4.91,3-9.26,6.84-13.87,10.3a3.16,3.16,0,0,0,2.82.27c5.6-2.06,11.21-4.09,16.77-6.26,9.12-3.56,18.18-7.26,27.29-10.85,11.34-4.47,22.7-8.87,34-13.34,3.5-1.39,3.67-2.08.94-4.48-5.39-4.72-10.87-9.34-16.32-14-1.38-1.18-3.24-2-2.9-4.32a7.09,7.09,0,0,1,1.33-.77c12.92-3.62,25.85-7.18,38.75-10.86,10.13-2.88,20.21-6,30.35-8.85,2.12-.6,4.12-1.12,5.53-3.8L696.33,387.1c2.73-4.37,6.13-7.22,9.54-10.08,13.81-11.63,28.62-22.07,41.45-34.87a6.77,6.77,0,0,1,2.28-1.75c3.77-1.27,5.58-4.46,7.62-7.56q-24.93,11.84-49.31,24.49c-16.26,8.42-32.4,17.09-48.83,25.77,3.38,7.11,12.78,7.47,16.22,14.69a39.7,39.7,0,0,1-3.73,1.5C654.33,404.33,637.07,409.28,619.85,414.39Z"/><path class="cls-2" d="M155.42,592.68c7.68,9.05,10.37,20.75,18.27,29.81,2.38-3.22,4.62-5.72,6.27-8.56,9.25-16,18.33-32,27.53-48a48.33,48.33,0,0,1,3.72-4.89c3.89,6.65,3.9,14.36,8.8,19.74.93-.39,1.5-.45,1.76-.76q34.38-41.34,68.72-82.7a7.76,7.76,0,0,0,.79-1.2c.35-.63.68-1.28,1-1.94a1.19,1.19,0,0,0,.06-.7c0-.1-.27-.16-1-.53-6.75,5.37-13.73,10.9-20.68,16.46Q250.82,525.24,231,541.07c-1.63,1.3-3.13,3.26-5.91,1.6-1.87-7.23-3.75-14.67-5.76-22.07a12.28,12.28,0,0,0-1.79-2.92c-1.05.8-2.49,1.38-3.09,2.43-4.63,8.12-9.06,16.35-13.63,24.51C192.78,559,184.67,573.43,176,588.8c-6.13-8.45-8.71-17.77-14-26-5.21,3.87-8.1,9.4-11.59,14.46s-7.41,10-11,15-7.07,10.21-10.7,15.25-8,9.7-10.94,15.1c-2.82,5.11-7.46,9.23-9.6,16C126.07,624.62,139.38,607.61,155.42,592.68Z"/><path class="cls-2" d="M845.52,313c-5.21,9.41-10.56,18.74-15.54,28.27-4.74,9.08-9,18.44-13.72,27.52-1.21,2.3-2,5.39-5.8,6.56-5.65-8.7-9-18.61-15.1-27.36l-48.29,70.55c12.53-7.33,20.19-18.89,29.95-28.24.16-.16.15-.48.31-.64,3.18-3.19,6.33-6.42,9.59-9.53,1.88-1.8,4-1.75,5.64.27,2.13,2.6,4.5,5.16,5.92,8.14,3,6.38,8,11.18,12.48,16.94,4.69-5.15,7.76-10.71,10.86-16.2,8.55-15.14,16.94-30.36,25.47-45.51.52-.92,1.68-2.07,2.52-2.05s1.88,1.3,2.28,2.25c2.35,5.61,4.54,11.28,6.77,16.9,1-.35,1.59-.37,1.83-.68,23.79-30,46.88-60.65,72-89.8a42.08,42.08,0,0,0-9.3,5.13c-6,4.48-11.92,9-17.69,13.82-10.93,9-22.78,17-32.58,27.43-1.77,1.88-4,3.28-6.55,5.27-1.12-1.82-2.23-3.07-2.72-4.53-1.22-3.62-2-7.39-3.23-11-1.27-3.82-2.82-7.55-4.24-11.33l-3.41,2.71c0,.66.2,1.44-.08,2C850.46,304.19,848,308.55,845.52,313Z"/><path class="cls-2" d="M528.81,588.57c.16-.15.16-.48.32-.63,3.18-3.2,6.32-6.43,9.58-9.54,1.88-1.8,4-1.75,5.65.28,2.12,2.6,4.49,5.15,5.91,8.13,3.05,6.39,8,11.18,12.48,16.94,4.7-5.15,7.77-10.71,10.87-16.2,8.54-15.13,16.94-30.36,25.46-45.5.52-.93,1.68-2.07,2.52-2.06s1.88,1.3,2.28,2.26c2.35,5.6,4.54,11.28,6.77,16.89,1-.35,1.59-.36,1.84-.67,23.79-30.05,46.87-60.66,72-89.81a42.42,42.42,0,0,0-9.29,5.13c-6,4.48-11.93,9.06-17.69,13.83-10.94,9-22.79,17-32.59,27.42-1.77,1.88-4,3.29-6.54,5.28-1.13-1.83-2.24-3.08-2.73-4.53-1.21-3.63-2-7.39-3.23-11-1.27-3.83-2.82-7.56-4.24-11.33l-3.41,2.7c0,.66.2,1.44-.08,2-2.39,4.42-4.9,8.78-7.34,13.17-5.2,9.41-10.55,18.75-15.53,28.28-4.75,9.08-9,18.44-13.73,27.51-1.21,2.31-2,5.4-5.79,6.56-5.66-8.7-9-18.61-15.11-27.36l-48.28,70.55C511.4,609.49,519.06,597.92,528.81,588.57Z"/><path class="cls-2" d="M789.81,861c9.24-16,18.33-32,27.53-48a48.33,48.33,0,0,1,3.72-4.89c3.89,6.65,3.9,14.36,8.8,19.74.93-.39,1.5-.45,1.76-.76q34.38-41.34,68.72-82.7a7.31,7.31,0,0,0,.79-1.2c.35-.63.67-1.28,1-1.94a1.19,1.19,0,0,0,.06-.7c0-.1-.28-.16-1-.53-6.75,5.37-13.73,10.9-20.68,16.46q-19.82,15.83-39.61,31.66c-1.63,1.3-3.13,3.26-5.91,1.6-1.87-7.23-3.76-14.67-5.77-22.07a11.92,11.92,0,0,0-1.78-2.92c-1.06.8-2.5,1.38-3.1,2.43-4.63,8.12-9.06,16.35-13.62,24.51-8.06,14.42-16.18,28.81-24.81,44.18-6.13-8.45-8.71-17.77-14-26-5.21,3.87-8.1,9.4-11.6,14.46s-7.4,10-11,15-7.08,10.21-10.7,15.25-8,9.7-10.94,15.1c-2.83,5.11-7.46,9.23-9.6,16,17.93-14,31.24-31,47.28-45.93,7.68,9,10.37,20.76,18.27,29.81C785.92,866.29,788.16,863.79,789.81,861Z"/><path class="cls-2" d="M620.18,743.55c12-9.78,24.07-19.42,36-29.23,4.07-3.34,7.71-7.19,11.74-10.56s8.82-5.58,12-10.8a41.41,41.41,0,0,0-5.51,1.87c-6.39,3.25-12.7,6.66-19,10q-14.61,7.65-29.24,15.26c-12.51,6.5-25.14,12.79-37.51,19.56-3.6,2-8.21,2.66-11,6.85,4.72,5.8,11.89,8,17.47,12.83-3.32,3.08-7.41,3.1-10.88,4.2-15.54,4.94-31.22,9.39-46.85,14-4.06,1.21-8.12,2.47-11.26,5.67L550.45,806c-5.36,5.29-11.88,8-17.77,11.52-6.76,4.09-13.78,7.71-20.61,11.67-5.78,3.36-11.46,6.89-17.13,10.44-.49.31-.5,1.38-1,3,11.47-4.35,22-8.32,32.47-12.33,14.31-5.47,28.63-10.92,42.9-16.49,4.13-1.6,8.72-2.5,12-6.44-3.82-3.3-7.4-6.36-11-9.45s-8.18-5.34-10.8-10.23c5-1.27,9.46-2.26,13.83-3.49q20.07-5.67,40.1-11.49c7.13-2.08,14.22-4.31,21.31-6.49,1.82-.56,3.67-1.16,3.77-3.68l-22.61-13.19C615.78,745.93,618.41,745,620.18,743.55Z"/><path class="cls-2" d="M148.28,827c12.91-3.63,25.85-7.19,38.75-10.86,10.13-2.89,20.21-6,30.34-8.85,2.12-.6,4.13-1.13,5.54-3.81L200,790c2.72-4.37,6.13-7.21,9.53-10.08C223.38,768.24,238.18,757.8,251,745a6.71,6.71,0,0,1,2.29-1.76c3.77-1.27,5.57-4.46,7.62-7.56q-24.93,11.84-49.31,24.5c-16.27,8.42-32.4,17.08-48.83,25.77,3.38,7.11,12.78,7.47,16.21,14.68-1.54.63-2.6,1.18-3.72,1.51-17.24,5-34.5,10-51.72,15.1-3.37,1-6.92,1.94-9.8,5.74,7.81,8.24,16.59,14.83,24.26,23.25-4.17,3-7.49,5.87-11.21,8-9.46,5.54-19.23,10.55-28.62,16.21-4.91,3-9.26,6.84-13.87,10.3a3.15,3.15,0,0,0,2.82.26c5.6-2,11.21-4.08,16.77-6.25,9.11-3.57,18.18-7.26,27.29-10.86,11.33-4.46,22.7-8.86,34-13.34,3.51-1.38,3.67-2.08.94-4.47-5.38-4.73-10.87-9.35-16.31-14-1.39-1.18-3.24-2-2.91-4.32A6.74,6.74,0,0,1,148.28,827Z"/><path class="cls-2" d="M1002.67,765.2c2.58-.74,5.11-1.34,6.83-4.24-3.9-2.34-7.74-4.61-11.55-6.92s-8.22-3.65-10.83-8.23l12.75-10.14c4.35-3.46,8.71-6.9,13-10.37q6.23-5,12.44-10c4.34-3.47,8.7-6.91,13-10.43,3.91-3.2,8.43-5.78,11.11-10.43a27.61,27.61,0,0,0-6.36,2.58q-22.53,11-45.09,21.88C986.42,724.57,974.7,730,963.3,736c-4.31,2.27-9.48,3.48-12.88,8.09,4.15,6,12.48,7.21,16.37,13.95-9.63,2.75-18.83,5.33-28,8-10.35,3-20.63,6.27-31,9.28a16.09,16.09,0,0,0-7.47,4.58c7,8.94,16.83,14.57,23.59,24.21-6.9,4.56-12.87,9.64-19.74,12.77-10.82,4.93-20.38,11.59-29.8,18.6a41.1,41.1,0,0,0-3.58,3.66c8.82-3.15,16.29-5.64,23.63-8.48,16.27-6.3,32.52-12.67,48.67-19.26,3.81-1.56,8.29-2.39,11.07-6.52-7-6.72-15-11.95-21.7-20.14,4.32-1,7.6-1.53,10.78-2.44C963.08,776.66,982.86,770.88,1002.67,765.2Z"/><path class="cls-2" d="M300.89,891.07a47,47,0,0,0-4.87-3.42c-5.59-2.78-11.28-5.39-16.86-8.2-1.11-.56-1.9-1.74-3.2-3,21-16.06,42.46-30.58,61.17-49.17-1.25-.37-1.79-.73-2.07-.58-7.8,4.17-15.62,8.3-23.33,12.64a365.5,365.5,0,0,1-39.33,19.08q-15.88,6.59-31.71,13.35a16.75,16.75,0,0,0-3.24,2.52c5.91,4.42,12.61,6.6,18.05,11.76-14.09,3.79-27.53,7.2-40.83,11.06-3.36,1-6.77,1.83-10.19,2.81h59.64c3.29-.76,6.59-1.52,9.87-2.32Z"/><path class="cls-2" d="M398.63,138.53a16.17,16.17,0,0,0-7.48,4.59c7,8.94,16.83,14.57,23.6,24.2-6.91,4.56-12.88,9.65-19.74,12.77-10.83,4.93-20.39,11.6-29.81,18.61a40,40,0,0,0-3.57,3.66c8.82-3.15,16.29-5.64,23.62-8.48,16.27-6.3,32.52-12.67,48.67-19.27,3.82-1.55,8.29-2.38,11.07-6.51-7-6.72-15-12-21.69-20.14,4.32-1,7.59-1.53,10.77-2.44,19.81-5.69,39.59-11.47,59.41-17.16,2.57-.73,5.1-1.34,6.82-4.24-3.9-2.33-7.73-4.61-11.55-6.91s-8.22-3.65-10.83-8.23l12.75-10.14q6.52-5.19,13.05-10.37c4.16-3.31,8.3-6.65,12.44-10,4.34-3.47,8.7-6.91,13-10.43,3.92-3.2,8.43-5.79,11.11-10.43a27.15,27.15,0,0,0-6.36,2.57q-22.53,11-45.09,21.89c-11.6,5.64-23.31,11.07-34.72,17.09-4.31,2.27-9.48,3.47-12.87,8.09,4.14,6,12.48,7.21,16.36,13.94-9.63,2.76-18.82,5.33-28,8C419.27,132.3,409,135.53,398.63,138.53Z"/><path class="cls-2" d="M1024.22,894.82c-5.39-4.72-10.87-9.34-16.32-14-1.38-1.18-3.24-2.05-2.9-4.32a6.83,6.83,0,0,1,1.34-.77c12.91-3.62,25.84-7.18,38.74-10.86,10.14-2.88,20.22-6,30.35-8.84,2.12-.61,4.12-1.13,5.53-3.81l-22.88-13.57c2.73-4.37,6.13-7.21,9.54-10.08,13.81-11.63,28.62-22.07,41.45-34.87a6.77,6.77,0,0,1,2.28-1.75c3.78-1.27,5.58-4.46,7.63-7.56q-24.95,11.83-49.32,24.49c-16.26,8.42-32.4,17.09-48.83,25.77,3.38,7.11,12.78,7.47,16.22,14.69a39.7,39.7,0,0,1-3.73,1.5c-17.24,5-34.5,10-51.71,15.1-3.37,1-6.93,1.95-9.81,5.75,7.81,8.24,16.6,14.83,24.27,23.25-2.43,1.76-4.58,3.46-6.68,5h32.25l1.64-.64C1026.79,897.92,1027,897.22,1024.22,894.82Z"/><path class="cls-2" d="M564.68,640.94c4.67-3.42,8.91-7.49,13.79-10.57,3.43-2.16,7.73-3.46,9.81-7,2.35-3.93,7.16-3.76,9.63-7.08a25.81,25.81,0,0,1,2.64-2.55L499.1,658.18,520,669.46a21.44,21.44,0,0,1-3.45,1.86c-14.65,4.46-29.33,8.84-44,13.29-7,2.12-14.19,3.68-20.69,7.95a25.06,25.06,0,0,0,3.17,3.92c6.08,5,12.32,9.81,18.39,14.81,1.59,1.31,3.58,2.56,3.44,5.85-6.22,3.79-12.64,7.94-19.29,11.69-8.34,4.72-16.79,9.23-24.4,15.14-2.62,2-5.73,3.43-8.53,5.25a12,12,0,0,0-2.13,2.47c1.1.34,1.61.69,1.92.57Q445,744,465.64,735.68l37.89-15.28c2.19-.89,4.52-1.62,5.28-4.27l-22.64-17.49c1.36-2.58,3.43-3,5.57-3.44,3.06-.64,6.12-1.31,9.12-2.18q29-8.41,57.92-16.93c2.19-.64,4.4-1.19,6.52-3.46-8.49-4.82-17.43-7.61-26-12.87,2.2-1.94,3.67-3.46,5.37-4.68C551.33,650.33,558.09,645.75,564.68,640.94Z"/><path class="cls-2" d="M968.56,838.46c1.42-1.76,2.65-3.66,4-5.5-3.62.83-6.78,1.79-9,4.84-1.34,1.83-3.56,3.06-5.47,4.45-1.53,1.13-3.48,1.83-4.73,3.2-4.56,5-10.55,8.14-15.63,12.43-8.46,7.13-16.88,14.32-25.36,21.44a50.25,50.25,0,0,1-4.49,2.95,34.52,34.52,0,0,1-2.39-4.74c-1.7-5.49-3.2-11-4.85-16.54-.51-1.7-1.27-3.33-2-5.32a10,10,0,0,0-4.8,5q-10.65,19.68-21.39,39.29H892l.3-.31.17.31H918.2C935.19,879.39,951.93,859,968.56,838.46Z"/><path class="cls-2" d="M2.87,192.37l-3,1.75V200l17.28-6.58c14.31-5.46,28.63-10.92,42.9-16.48,4.13-1.61,8.72-2.5,12-6.44-3.82-3.3-7.4-6.36-10.95-9.45s-8.19-5.34-10.81-10.24c5-1.26,9.47-2.25,13.83-3.49q20.07-5.65,40.1-11.49c7.13-2.07,14.22-4.3,21.32-6.49,1.81-.56,3.67-1.15,3.76-3.67l-22.61-13.2c-.12-3.38,2.5-4.3,4.27-5.75,12-9.78,24.08-19.42,36-29.23,4.06-3.34,7.7-7.19,11.74-10.57s8.81-5.57,12-10.8A42.56,42.56,0,0,0,165.19,58c-6.38,3.26-12.69,6.66-19,10q-14.61,7.65-29.24,15.26C104.39,89.74,91.76,96,79.39,102.8c-3.6,2-8.21,2.66-11,6.85,4.72,5.8,11.89,8,17.47,12.82-3.32,3.09-7.4,3.11-10.88,4.21-15.53,4.94-31.22,9.39-46.84,14-4.06,1.21-8.12,2.47-11.26,5.67l24.32,22.77c-5.35,5.3-11.87,8-17.77,11.53C16.73,184.78,9.7,188.41,2.87,192.37Z"/><path class="cls-2" d="M1439.9,675.52q-9.78,4.9-19.55,9.88c-14.46,7.39-28.81,15-43.23,22.48-4,2.06-4.07,3-.44,5.6l14.47,10.2a23.4,23.4,0,0,1-3.72,2.06c-13.08,3.9-26.26,7.47-39.24,11.67-8.54,2.75-17.68,4-25.89,9.62,7.29,8.94,17.51,14.77,24.72,24.2-8.79,7-18.61,11.46-28,16.61-9.58,5.28-18,12.07-26.54,19.07,3-1.13,6-2.23,9-3.4q36.42-14.32,72.8-28.71c1.19-.47,2.16-1.47,3.81-2.63l-22.57-19.12a38.11,38.11,0,0,1,4.9-2.35c3.91-1.16,7.89-2.06,11.81-3.17q28.37-8,56.7-16.16a60.68,60.68,0,0,0,6.83-3c-8.1-6.07-17.22-8.89-24.19-15.8,9.73-8.24,18.94-16.21,28.31-24Z"/><path class="cls-2" d="M67.25,67c1.91-1.52,2.88-2.19,3.74-3,4-3.76,8.05-7.51,12-11.34,3.45-3.33,7.33-6.38,10.07-10.23,4.92-6.93,11.68-11.95,17.36-18.07,1.45-1.55,4.07-1.49,5,0,3.69,5.86,7.2,11.83,11,17.63,1.8,2.75,4.07,5.2,6.34,8.05,2-2.56,3.94-4.63,5.34-7q12.45-21.43,24.69-43H145.1q-1.38,2.42-2.78,4.82C139.93,8.9,137.51,13,134.88,17c-1.46,2.21-3.23,2-4.51-.11C127,11.22,123.55,5.55,120.05-.06H113.8C98.08,20.46,82.48,41.06,68.44,62.78,67.9,63.61,67.85,64.76,67.25,67Z"/><path class="cls-2" d="M1366.24,592.44c9.27-7.37,18.55-14.71,27.75-22.16,1.65-1.34,4-2.38,4.45-6.09-33.23,16.68-65.59,32.91-97.93,49.18a22.24,22.24,0,0,0-3.08,2.42c4.81,5.64,11.41,8.12,16.82,12.94a30.41,30.41,0,0,1-4.65,2.28c-7.8,2.33-15.65,4.5-23.47,6.77-9.2,2.67-18.33,5.59-27.6,8-4.4,1.15-8.15,3.19-12.37,5.5,8.09,8.64,17.33,15.16,24.94,24.24-7.47,4.6-14,9.5-21.29,12.89-11.1,5.18-20.91,12.22-30.8,19.22a40.79,40.79,0,0,0-3.72,3.44c16.51-5.13,79.85-30.53,86.27-34.65l-22.27-19a43,43,0,0,1,5.46-2.44q33.52-9.57,67.09-19c2.11-.6,4.16-1.07,5.24-3.85-6.94-5.21-15.66-7.71-22.58-14,1.91-1.71,3.43-3.18,5.08-4.5Q1352.89,603,1366.24,592.44Z"/><path class="cls-2" d="M1332.36,101.44c1.91-1.52,2.88-2.19,3.73-3,4-3.76,8.06-7.52,12-11.35,3.44-3.33,7.33-6.37,10.07-10.22,4.92-6.94,11.68-12,17.36-18.07,1.45-1.56,4.07-1.5,5-.06,3.69,5.86,7.2,11.84,11,17.63,1.8,2.76,4.07,5.2,6.34,8,2-2.56,3.94-4.62,5.33-7q13.69-23.55,27.13-47.24c1-1.74,2-3.18,3.88-3.33l5.72,12.75V-.06h-10c-7.34,13.19-14.93,26.23-22.47,39.31-2.39,4.13-4.81,8.25-7.44,12.23-1.46,2.21-3.23,2-4.51-.11-3.44-5.71-6.88-11.43-10.41-17.09-1.9-3.05-3.67-3.09-5.88-.21-15.82,20.63-31.52,41.35-45.64,63.2C1333,98.1,1333,99.25,1332.36,101.44Z"/><path class="cls-2" d="M976.41,604.32a33.4,33.4,0,0,0,2.52-2.66,312.45,312.45,0,0,0-32.76,15.86c-10.91,5.92-21.61,12.2-32.52,18.11-10.58,5.72-21.32,11.16-32.37,16.92,5.07,6.07,12.35,8.13,17.37,13.3-.75.74-1.16,1.5-1.74,1.67-13.58,3.85-27.2,7.56-40.77,11.47-8.36,2.41-17.06,3.88-25.26,8.63,2.25,2.38,4.1,4.58,6.19,6.5,5.27,4.85,10.69,9.53,16,14.37,2,1.79,1.64,4-.62,5.36C849,716,845.66,718.5,842,720.2c-13.2,6.15-25.08,14.44-37.06,22.56-1.55,1-2.95,2.32-4.42,3.49,28.76-9.22,56.25-21.22,85-32.09-6.79-8-15.69-12.62-21.84-21.06,26.15-7.22,51.59-13.45,77.44-21.63a39.38,39.38,0,0,0-4.35-3.87c-5.06-3.16-10.26-6.1-15.29-9.3-1.26-.81-2.09-2.29-3.09-3.43,8.69-7.7,16.9-15.07,25.22-22.31C954.49,623.09,965.48,613.74,976.41,604.32Z"/><path class="cls-2" d="M795.31,601.05c6.84-2.12,13.76-4,20.59-6.14,15.73-4.94,31.41-10,47.12-15,2.05-.65,4.15-1.14,6.15-1.91a2,2,0,0,0,.44-3.76c-.8-.53-1.71-.87-2.53-1.36l-19.91-12c2.85-2.91,5-5.49,7.52-7.6,7.8-6.48,15.74-12.8,23.65-19.14s15.89-12.59,23.75-19c1.71-1.4,4.49-2.35,3.69-5.56-65.57,30.83-89.69,43.43-94.87,49.66,4.88,3.38,9.78,6.71,14.59,10.16.87.63,2,1.79,1.93,2.62s-1.41,1.8-2.4,2.15c-10.13,3.51-20.32,6.88-30.47,10.34-8.58,2.92-17.08,6.07-25.72,8.77a18.41,18.41,0,0,0-8.23,5.34,29.85,29.85,0,0,0,3,3.66c5.35,4.7,10.89,9.19,16.1,14,1.83,1.69,4.35,3.25,4.21,6.38s-3.25,2.33-4.83,3.59c-9.56,7.7-21.1,12-31.56,18.18-5.74,3.38-11.09,7.44-16.61,11.22-.11.08-.08.38-.11.57.46.12,1,.45,1.37.32,5.17-1.78,10.37-3.49,15.47-5.48q22.3-8.7,44.53-17.6,9.95-4,19.81-8.16c2.27-1,2.37-2.36.38-4.09-5.92-5.17-11.91-10.25-17.82-15.44-.81-.71-1.88-1.93-1.74-2.69S794.3,601.37,795.31,601.05Z"/><path class="cls-2" d="M1286.76,222.22c-9.56,7.7-21.1,12-31.56,18.17-5.75,3.39-11.09,7.45-16.61,11.22-.12.08-.08.38-.12.58.46.11,1,.44,1.37.32,5.17-1.78,10.38-3.49,15.47-5.48q22.31-8.7,44.53-17.6,10-4,19.82-8.17c2.26-1,2.37-2.35.38-4.09-5.93-5.16-11.92-10.25-17.82-15.44-.81-.71-1.89-1.92-1.74-2.69s1.53-1.7,2.54-2c6.84-2.12,13.76-4,20.59-6.14,15.72-4.95,31.41-10,47.11-15,2-.65,4.16-1.14,6.16-1.91a2,2,0,0,0,.44-3.76c-.8-.52-1.72-.87-2.54-1.36-6.46-3.89-12.92-7.8-19.9-12,2.85-2.9,5-5.49,7.52-7.6,7.8-6.48,15.73-12.79,23.64-19.14s15.9-12.58,23.75-19c1.72-1.4,4.5-2.36,3.69-5.56-65.56,30.83-89.68,43.43-94.86,49.66,4.88,3.38,9.77,6.71,14.58,10.16.88.63,2,1.79,1.93,2.61s-1.41,1.81-2.39,2.15c-10.14,3.51-20.32,6.88-30.48,10.34-8.57,2.92-17.07,6.07-25.71,8.77a18.41,18.41,0,0,0-8.23,5.34,29.86,29.86,0,0,0,3,3.67c5.34,4.7,10.88,9.18,16.1,14,1.83,1.69,4.34,3.24,4.21,6.37S1288.33,221,1286.76,222.22Z"/><path class="cls-2" d="M179.18,198.92c2.84-2.19,6.1-3.82,8.94-6,7.68-5.88,15.26-11.88,22.83-17.89q14.18-11.26,28.26-22.68c.89-.72,1.34-2,2.82-4.27-34.91,17.14-68.33,33.55-101.74,50-.56.27-.89,1-1.73,2.05a52.77,52.77,0,0,0,4.24,3.64c3.53,2.47,7.18,4.78,10.74,7.21a28.63,28.63,0,0,1,2.61,2.36c-4.44,1.33-8.08,2.48-11.75,3.52-15.68,4.48-31.38,8.89-47,13.42-4,1.16-8.16,2.26-10.83,5.4,7.53,8.85,17.06,15.13,24.28,24.6-9.21,5.38-17.86,10.36-26.43,15.46-4.32,2.57-8.35,5.71-12.81,8-6.29,3.2-11.26,8-16.3,13,9.56-3.75,19.13-7.46,28.67-11.25,9.78-3.88,19.61-7.67,29.28-11.81,9.29-4,19.31-6.35,28.93-12.29L118.92,241c3.65-1.12,6.29-2,9-2.73,3-.84,6-1.53,9.05-2.36q17-4.67,34-9.4,12.82-3.6,25.58-7.4c1.19-.35,2.19-1.37,3.76-2.39L179.65,205C175.88,202.88,175.68,201.61,179.18,198.92Z"/><path class="cls-2" d="M709.81,70.81a44.92,44.92,0,0,0-3.72,3.43C722.61,69.11,786,43.72,792.36,39.6l-22.27-19a43.65,43.65,0,0,1,5.46-2.44Q807.62,9,839.74-.06H780.42l-3.48,1c-9.21,2.67-18.34,5.59-27.61,8-4.4,1.15-8.15,3.18-12.37,5.49,8.09,8.65,17.34,15.17,24.94,24.25-7.47,4.59-14,9.5-21.28,12.89C729.51,56.77,719.7,63.81,709.81,70.81Z"/><path class="cls-2" d="M472.41,229.11c-3.37,1-6.92,1.94-9.81,5.75,7.81,8.23,16.6,14.83,24.27,23.25-4.17,3-7.49,5.86-11.21,8-9.46,5.53-19.24,10.54-28.62,16.2-4.91,3-9.27,6.84-13.87,10.3a3.13,3.13,0,0,0,2.81.26c5.61-2.05,11.22-4.08,16.77-6.25,9.12-3.57,18.19-7.26,27.3-10.85,11.33-4.47,22.7-8.87,34-13.34,3.51-1.39,3.67-2.09.94-4.48-5.39-4.72-10.87-9.35-16.32-14-1.38-1.18-3.23-2.05-2.9-4.33a6.74,6.74,0,0,1,1.34-.76c12.91-3.63,25.85-7.18,38.75-10.86,10.13-2.89,20.21-6,30.34-8.85,2.12-.6,4.13-1.12,5.53-3.8l-22.87-13.58c2.72-4.37,6.13-7.21,9.53-10.08,13.81-11.62,28.62-22.06,41.45-34.86a6.59,6.59,0,0,1,2.29-1.75c3.77-1.27,5.57-4.46,7.62-7.56q-24.94,11.82-49.32,24.49c-16.26,8.42-32.39,17.09-48.82,25.77,3.38,7.11,12.78,7.47,16.21,14.68-1.54.63-2.6,1.18-3.72,1.51C506.89,219.05,489.63,224,472.41,229.11Z"/><path class="cls-2" d="M1058.27,23.74a49.23,49.23,0,0,1-4.48,3A33.42,33.42,0,0,1,1051.4,22c-1.7-5.49-3.21-11-4.86-16.54-.51-1.7-1.26-3.33-2-5.32a10,10,0,0,0-4.81,5Q1022.44,37,1005,68.78a29.14,29.14,0,0,1-3.13,3.84c-2-4.22-3.61-7.66-5.21-11.12-1.7-3.68-3.34-7.39-5.08-11-2.77-5.85-3.19-5.9-7-1-.58.75-1,1.62-1.55,2.41Q967.49,74.29,952,96.68c-5.3,7.65-10.64,15.27-15.91,22.95-.43.61-.48,1.49-1,3.35a22.5,22.5,0,0,0,3.32-2.07c2.38-2.34,4.43-5.1,7.05-7.1,6.75-5.13,12.11-11.57,17.77-17.76,5.32-5.81,10.93-11.37,16.46-17a28.06,28.06,0,0,1,3.39-2.47c5.42,10,10.6,19.5,16.58,30.52,4.35-6.68,8.17-12.12,11.54-17.82,8.4-14.21,16.58-28.54,24.89-42.8a17,17,0,0,1,2.15-2.44c3.7,6.7,4,14.28,9.17,20.52,18-21.69,35.7-43.14,53.22-64.63h-14c-1,.76-2,1.54-3,2.36C1075.17,9.44,1066.75,16.62,1058.27,23.74Z"/><path class="cls-2" d="M839,100.57c-8.54,2.76-17.68,4-25.89,9.63,7.29,8.94,17.51,14.76,24.73,24.2-8.8,7-18.62,11.46-28,16.6-9.58,5.28-18,12.08-26.54,19.08,3-1.13,6-2.23,9-3.4q36.41-14.33,72.8-28.71c1.18-.47,2.16-1.48,3.8-2.64l-22.57-19.12a38.66,38.66,0,0,1,4.91-2.34c3.9-1.16,7.88-2.06,11.81-3.17q28.37-8,56.7-16.17a58.59,58.59,0,0,0,6.82-3c-8.1-6.08-17.22-8.89-24.19-15.8,10.18-8.63,19.8-17,29.62-25,10.81-8.91,21.83-17.57,32.71-26.4a12.06,12.06,0,0,0,1.92-2.88c-3.25.6-5.64,2.06-8.13,3.32-15.78,8-31.62,15.79-47.35,23.82-14.47,7.39-28.82,15-43.24,22.49-4,2.06-4.07,3-.44,5.59,4.6,3.26,9.21,6.5,14.47,10.21a23.85,23.85,0,0,1-3.71,2.06C865.16,92.8,852,96.38,839,100.57Z"/><path class="cls-2" d="M1105,107.25c-5.21,9.41-10.56,18.74-15.54,28.27-4.75,9.08-9,18.44-13.72,27.52-1.21,2.3-2,5.39-5.8,6.56-5.65-8.71-9-18.62-15.1-27.37l-48.29,70.56c12.53-7.33,20.19-18.89,29.94-28.25.17-.15.16-.47.32-.63,3.18-3.19,6.33-6.42,9.59-9.54,1.88-1.79,4-1.75,5.64.28,2.12,2.6,4.49,5.16,5.92,8.13,3,6.39,8,11.18,12.48,16.95,4.69-5.16,7.76-10.71,10.86-16.2,8.55-15.14,16.94-30.36,25.47-45.51.52-.92,1.68-2.07,2.52-2.06s1.87,1.3,2.28,2.26c2.35,5.61,4.54,11.28,6.77,16.89,1-.34,1.59-.36,1.83-.67,23.79-30,46.88-60.65,72-89.8a41.68,41.68,0,0,0-9.3,5.13c-6,4.48-11.92,9-17.69,13.82-10.93,9-22.78,17-32.58,27.42-1.77,1.88-4,3.29-6.55,5.28-1.12-1.83-2.23-3.07-2.72-4.53-1.22-3.63-2-7.39-3.23-11-1.28-3.82-2.82-7.56-4.25-11.33l-3.4,2.71c0,.66.2,1.44-.08,1.95C1110,98.49,1107.45,102.85,1105,107.25Z"/><path class="cls-2" d="M183.84,319.32c-8.54,2.75-17.68,4-25.89,9.62,7.29,8.94,17.51,14.77,24.73,24.2-8.8,7-18.62,11.46-28,16.61-9.58,5.28-18,12.07-26.54,19.07,3-1.13,6-2.23,9-3.4q36.41-14.32,72.8-28.71c1.18-.47,2.15-1.47,3.8-2.63L191.19,335a37.54,37.54,0,0,1,4.91-2.35c3.9-1.16,7.88-2.06,11.8-3.17q28.36-8,56.7-16.16a59.89,59.89,0,0,0,6.83-3c-8.1-6.07-17.22-8.89-24.19-15.8,10.18-8.62,19.8-17,29.62-25,10.81-8.9,21.83-17.57,32.71-26.4a11.8,11.8,0,0,0,1.92-2.87c-3.25.59-5.64,2.05-8.13,3.31-15.78,8-31.62,15.79-47.36,23.83-14.46,7.39-28.81,15-43.23,22.48-4,2.06-4.07,3-.44,5.6l14.47,10.2a23.4,23.4,0,0,1-3.72,2.06C210,311.55,196.83,315.13,183.84,319.32Z"/><path class="cls-2" d="M873.54,14c-2.82,5.12-7.46,9.23-9.59,16,11.8-9.21,21.61-19.73,31.51-30.11H883.74C880.27,4.61,876.33,9,873.54,14Z"/><path class="cls-2" d="M929.49,13.93c2.38-3.21,4.62-5.72,6.27-8.56q1.57-2.71,3.13-5.43H920.74C923.21,4.82,925.77,9.67,929.49,13.93Z"/><path class="cls-2" d="M1127.56,10.37c-3.37,1-6.92,1.94-9.81,5.74,7.81,8.24,16.6,14.83,24.27,23.25-4.17,3-7.49,5.87-11.21,8-9.46,5.53-19.23,10.55-28.62,16.21-4.91,3-9.27,6.84-13.87,10.3a3.15,3.15,0,0,0,2.82.26c5.6-2,11.21-4.08,16.76-6.25,9.12-3.57,18.19-7.26,27.3-10.86,11.33-4.46,22.7-8.86,34-13.34,3.51-1.38,3.67-2.08.94-4.47-5.39-4.73-10.87-9.35-16.31-14-1.39-1.18-3.24-2-2.91-4.32a6.74,6.74,0,0,1,1.34-.76C1165.2,16.53,1178.14,13,1191,9.3c10.13-2.89,20.21-6,30.34-8.85.56-.16,1.11-.32,1.65-.51h-59.82C1151.32,3.4,1139.43,6.84,1127.56,10.37Z"/><path class="cls-2" d="M659.48,785.23c2.67-1.58,3.73-4.21,6.12-5.82s4.46-4.31,6.58-6.58c6.83-7.36,13.61-14.77,20.49-22.08.89-.94,2.26-1.42,3.64-2.24,3,5.44,5.66,10.47,8.41,15.48s3.92,10.63,8.95,14.87c14.35-20.41,24-42.87,37.58-64,2.82,7.66,5.27,14.32,8.16,22.2,12.93-15.16,25-29.33,37.06-43.47s24.23-28.33,36.35-42.5a107,107,0,0,0-16.14,10.07c-13,9.59-25.89,19.3-38.8,29-2.7,2-5.26,4.26-8,6.24a26,26,0,0,1-4.35,1.92c-1.86-6.37-3.63-12.27-5.28-18.19-.78-2.77-1.2-5.68-4.31-7.09-1.1,1.66-2.26,3.18-3.17,4.83C741.85,697.57,731,717.33,720,737c-1.29,2.29-1.87,5.52-5.07,6.53-2.36-4.51-4.61-8.69-6.73-12.93S705.42,721,701,718c-4.12,4-50,71.14-52,76.7C652.55,791.6,655.51,787.57,659.48,785.23Z"/><path class="cls-2" d="M221.69,18.8c-.12.08-.08.38-.12.58.46.12,1,.45,1.37.32,5.17-1.78,10.38-3.49,15.47-5.48Q256.53,7.15,274.58-.06H252.73C247.89,2.43,243,4.82,238.3,7.59,232.55,11,227.2,15,221.69,18.8Z"/><path class="cls-2" d="M392,103.13c-6.75,5.38-13.72,10.91-20.68,16.46q-19.81,15.84-39.61,31.67c-1.63,1.29-3.13,3.26-5.91,1.6-1.87-7.24-3.75-14.67-5.76-22.07a12.28,12.28,0,0,0-1.79-2.92c-1,.8-2.49,1.37-3.09,2.43-4.63,8.12-9.06,16.35-13.63,24.51-8.06,14.41-16.17,28.81-24.81,44.18-6.12-8.45-8.71-17.78-14-26-5.21,3.88-8.1,9.4-11.59,14.47s-7.41,10-11,15-7.07,10.21-10.7,15.25-8,9.7-10.94,15.1c-2.82,5.11-7.46,9.23-9.6,16,17.93-14,31.24-31,47.29-45.93,7.67,9,10.36,20.75,18.26,29.8,2.38-3.21,4.62-5.71,6.27-8.56,9.25-16,18.33-32,27.53-48a47,47,0,0,1,3.73-4.88c3.88,6.64,3.9,14.35,8.79,19.74.93-.39,1.5-.45,1.76-.77q34.38-41.32,68.72-82.7a6.91,6.91,0,0,0,.79-1.2c.35-.63.68-1.27,1-1.93a1.12,1.12,0,0,0,.06-.7C392.94,103.56,392.69,103.51,392,103.13Z"/><path class="cls-2" d="M307.48,24.34c-13,9.59-25.88,19.29-38.79,29-2.71,2-5.27,4.26-8,6.23a24.64,24.64,0,0,1-4.34,1.92c-1.86-6.37-3.64-12.26-5.29-18.19-.77-2.77-1.19-5.68-4.3-7.08-1.1,1.66-2.26,3.17-3.18,4.82-10.91,19.71-21.73,39.47-32.76,59.12-1.29,2.29-1.87,5.51-5.07,6.53-2.36-4.51-4.6-8.69-6.73-12.93s-2.78-9.6-7.26-12.62c-4.12,4-50,71.13-52,76.7,3.63-3,6.6-7.09,10.56-9.43,2.68-1.58,3.74-4.2,6.13-5.82s4.45-4.3,6.57-6.58c6.84-7.35,13.61-14.76,20.49-22.08.89-.93,2.26-1.41,3.64-2.24,3,5.45,5.66,10.48,8.41,15.49s3.92,10.63,8.95,14.87c14.36-20.41,24-42.87,37.58-64l8.17,22.19c12.92-15.16,25-29.32,37.06-43.46s24.22-28.33,36.34-42.5A107.48,107.48,0,0,0,307.48,24.34Z"/><path class="cls-2" d="M1196.91,879.76a27.07,27.07,0,0,0-6.35,2.57l-36.3,17.61h19.39c4.06-3.24,8.13-6.47,12.15-9.75S1194.24,884.4,1196.91,879.76Z"/><path class="cls-2" d="M1234.21,892c-.58.76-1,1.63-1.56,2.41l-3.81,5.52h15.6c-1.06-2.32-2.11-4.65-3.21-7C1238.46,887.14,1238,887.09,1234.21,892Z"/><path class="cls-2" d="M1241.46,67.43c5.91,4.42,12.61,6.6,18,11.76-14.09,3.79-27.53,7.2-40.84,11.06-9.09,2.64-18.56,4.4-27.72,10.28,5.34,4.14,10.55,7.28,14.57,11.54s10.11,6.65,11.85,12.59c-5,3.59-9.64,7-14.36,10.24-5.32,3.66-10.72,7.2-16.1,10.76-3.19,2.11-6.55,4-9.56,6.3-2,1.56-3.3,4.32-5.47,5.48a7.83,7.83,0,0,0-4.33,5.3c13.08-6.13,26-12.29,38.92-18.22,12.36-5.65,24.83-11,37.2-16.62,1.84-.84,3.4-2.3,5.64-3.85l-23.92-18.93c8.83-4,17.6-5.48,26-7.87,8.77-2.48,17.71-4.36,26.57-6.51l26.9-6.55a45.47,45.47,0,0,0-4.87-3.42c-5.6-2.78-11.28-5.39-16.86-8.2-1.11-.56-1.9-1.74-3.2-3,21-16.06,42.46-30.58,61.17-49.17-1.25-.37-1.8-.73-2.07-.59-7.8,4.18-15.63,8.31-23.33,12.65a366.42,366.42,0,0,1-39.33,19.08q-15.89,6.59-31.71,13.35A16.75,16.75,0,0,0,1241.46,67.43Z"/><path class="cls-2" d="M1317.49-.06l1.18,1.46c.44-.48.85-1,1.26-1.46Z"/><path class="cls-2" d="M1296.78,730.1c.35-.63.68-1.28,1-1.94a1.19,1.19,0,0,0,.06-.7c0-.1-.27-.16-1-.53-6.75,5.37-13.72,10.9-20.68,16.46q-19.82,15.83-39.61,31.66c-1.63,1.3-3.13,3.26-5.91,1.6-1.87-7.23-3.75-14.67-5.76-22.07a12.28,12.28,0,0,0-1.79-2.92c-1,.8-2.49,1.38-3.09,2.43-4.63,8.12-9.06,16.35-13.63,24.51-8.06,14.42-16.17,28.81-24.81,44.18-6.13-8.45-8.71-17.78-14-26-5.21,3.87-8.1,9.4-11.59,14.46s-7.41,10-11,15-7.07,10.21-10.7,15.25-8,9.7-10.94,15.1c-2.82,5.11-7.46,9.23-9.6,16,17.93-14,31.24-31,47.28-45.93,7.68,9.05,10.37,20.75,18.27,29.81,2.38-3.22,4.62-5.72,6.27-8.56,9.25-16,18.33-32,27.53-48a47.24,47.24,0,0,1,3.72-4.89c3.89,6.64,3.91,14.35,8.8,19.74.93-.39,1.5-.45,1.76-.76q34.38-41.34,68.72-82.7A7.76,7.76,0,0,0,1296.78,730.1Z"/><path class="cls-2" d="M528.14,143.4a22.47,22.47,0,0,0,3.33-2.07c2.38-2.34,4.42-5.09,7-7.1,6.75-5.13,12.11-11.57,17.77-17.76,5.32-5.81,10.92-11.37,16.45-17a27.52,27.52,0,0,1,3.4-2.47c5.41,10,10.59,19.5,16.58,30.52,4.34-6.68,8.16-12.12,11.54-17.82,8.39-14.21,16.58-28.54,24.89-42.8a17.44,17.44,0,0,1,2.14-2.44c3.71,6.7,4,14.28,9.18,20.52,22.78-27.43,45-54.48,67.1-81.69.87-1.08,1.68-2.22,2.47-3.36h-4.55a10.07,10.07,0,0,0-3,2.7c-1.34,1.84-3.56,3.06-5.47,4.45-1.53,1.13-3.48,1.83-4.73,3.2-4.56,5-10.55,8.14-15.63,12.43-8.46,7.14-16.88,14.32-25.36,21.44a48.15,48.15,0,0,1-4.49,3,34.52,34.52,0,0,1-2.39-4.74c-1.7-5.49-3.2-11-4.85-16.54-.51-1.7-1.27-3.32-2-5.32a10,10,0,0,0-4.8,5Q615.48,57.41,598,89.2A29.3,29.3,0,0,1,594.87,93c-2-4.22-3.6-7.66-5.2-11.11-1.71-3.69-3.34-7.4-5.08-11.06-2.78-5.85-3.19-5.9-7-1-.59.75-1,1.62-1.56,2.41Q560.55,94.7,545.08,117.1c-5.3,7.65-10.64,15.28-15.92,23C528.74,140.67,528.69,141.54,528.14,143.4Z"/><path class="cls-2" d="M1271.87-.06h-7.15l-9.94,14.52C1261.53,10.52,1266.86,5.34,1271.87-.06Z"/><path class="cls-2" d="M1287.93,886.58c2.38,4.29,3.34,8.94,5.09,13.36h10c20.71-25,41-49.69,61.16-74.52,1.42-1.76,2.66-3.66,4-5.5-3.63.83-6.79,1.79-9,4.84-1.34,1.83-3.56,3-5.46,4.45-1.54,1.13-3.49,1.83-4.74,3.2-4.56,5-10.54,8.14-15.63,12.43-8.46,7.13-16.88,14.32-25.36,21.44a50.25,50.25,0,0,1-4.49,3,32.81,32.81,0,0,1-2.38-4.75c-1.71-5.48-3.21-11-4.86-16.53-.51-1.7-1.26-3.33-2-5.32a10,10,0,0,0-4.8,5q-14.19,26.21-28.53,52.33h18.58q3.16-5.46,6.34-10.91A18.16,18.16,0,0,1,1287.93,886.58Z"/><path class="cls-2" d="M1439.9,838v-16.8l-6.32,1.82c-9.2,2.68-18.34,5.6-27.61,8-4.39,1.14-8.15,3.18-12.37,5.49,8.09,8.65,17.34,15.16,24.94,24.24-7.47,4.6-14,9.51-21.28,12.89-11.11,5.19-20.91,12.23-30.81,19.22a45.38,45.38,0,0,0-3.72,3.44c13.38-4.16,57.5-21.61,77.17-30.28V853.94l-13.17-11.27a46.79,46.79,0,0,1,5.46-2.44Z"/><path class="cls-2" d="M402.29-.06c-9.88,5.31-19.9,10.41-30.21,15.78,5.08,6.06,12.35,8.13,17.37,13.29-.75.74-1.16,1.51-1.74,1.67-13.58,3.86-27.2,7.57-40.76,11.47-8.36,2.41-17.07,3.89-25.27,8.64,2.25,2.38,4.1,4.58,6.19,6.5,5.27,4.85,10.69,9.53,16,14.36,2,1.8,1.64,4-.61,5.37-3.46,2.16-6.77,4.64-10.44,6.35-13.2,6.15-25.08,14.43-37.06,22.55-1.55,1-3,2.32-4.42,3.49,28.76-9.21,56.25-21.21,85-32.08-6.79-8-15.69-12.62-21.84-21.07,26.15-7.22,51.6-13.45,77.44-21.63-2-1.75-3-3-4.35-3.86-5.06-3.16-10.26-6.1-15.29-9.31-1.26-.8-2.09-2.29-3.09-3.42,7-6.21,13.71-12.21,20.41-18.1Z"/><path class="cls-2" d="M477.54,19.36c-3.64,5.06-8,9.71-10.94,15.1-2.83,5.12-7.46,9.23-9.6,16,17.93-14,31.24-31,47.28-45.92,7.68,9.05,10.37,20.75,18.27,29.8,2.38-3.21,4.62-5.71,6.27-8.56q7.47-12.9,14.84-25.85H525.29c-.14.24-.27.48-.4.72-.18-.24-.34-.48-.5-.72H491.3c-1,1.39-2.06,2.77-3.06,4.17C484.61,9.16,481.16,14.32,477.54,19.36Z"/><path class="cls-2" d="M177.41,10.94a36.37,36.37,0,0,0,4.38-3.54c2.18-2.46,4.32-5,6.46-7.46H172.47Z"/><path class="cls-2" d="M178.85,876.65c-6,4.48-11.92,9.05-17.69,13.82-3.92,3.24-7.95,6.35-12,9.47h15.37c7.72-9.57,15.55-19.08,23.59-28.42A42.08,42.08,0,0,0,178.85,876.65Z"/><path class="cls-2" d="M-.1,36.73V53.78q24.84-7.24,49.68-14.53c2.19-.63,4.4-1.19,6.52-3.45-8.49-4.82-17.42-7.61-26-12.87,2.2-1.94,3.68-3.46,5.37-4.68,6.63-4.76,13.39-9.33,20-14.15C57.29,2.78,59,1.36,60.77-.06h-22L-.1,17v9.78l10.87,5.88a22.12,22.12,0,0,1-3.45,1.85C4.85,35.24,2.37,36-.1,36.73Z"/><path class="cls-2" d="M648.43,899.94c1-.53,2-1.08,2.92-1.68l-23.23-20.43c3.65-1.12,6.28-2,9-2.74,3-.84,6-1.53,9.06-2.36q17-4.66,34-9.4,12.82-3.6,25.58-7.39c1.19-.36,2.19-1.38,3.76-2.4-7.31-4.14-14-7.92-20.59-11.69-3.77-2.13-4-3.41-.47-6.1,2.84-2.18,6.1-3.81,8.94-6,7.68-5.87,15.25-11.87,22.82-17.89q14.19-11.26,28.27-22.68c.88-.72,1.33-2,2.82-4.27-34.91,17.15-68.34,33.56-101.74,50-.56.28-.89,1-1.74,2.06,1.48,1.28,2.76,2.6,4.24,3.64,3.54,2.46,7.18,4.77,10.75,7.2a28.63,28.63,0,0,1,2.61,2.36c-4.44,1.34-8.08,2.48-11.75,3.53-15.68,4.47-31.38,8.88-47.05,13.41-4,1.16-8.15,2.26-10.82,5.4,7.52,8.86,17,15.13,24.28,24.6l-4.83,2.81Z"/><path class="cls-2" d="M820.69,877c-3.25.59-5.64,2.06-8.14,3.31-13,6.57-26.06,13.05-39.07,19.63h20.34c8.3-6.71,16.66-13.34,24.94-20.07A11.55,11.55,0,0,0,820.69,877Z"/><path class="cls-2" d="M584.72,855.63a108.81,108.81,0,0,0-16.14,10.07c-13,9.59-25.88,19.3-38.79,29-2.28,1.71-4.45,3.54-6.71,5.26h23.75l1.55-1.81Q566.53,876.88,584.72,855.63Z"/><path class="cls-2" d="M1224.64,190.05c-5.93,5.21-12.93,9.23-17.73,15.74a10.38,10.38,0,0,1-2.8,2.27c-2.86,1.85-4.76,1.21-6-2.16-1.37-3.8-2.58-7.66-3.81-11.51s-2.33-7.55-3.77-12.24c-4,5.26-5.69,10.44-8.29,15.13-7.51,13.52-15.3,26.89-23,40.29-2.38,4.14-4.81,8.25-7.44,12.23-1.46,2.21-3.23,2-4.5-.11-3.45-5.71-6.88-11.43-10.41-17.08-1.91-3.06-3.68-3.1-5.89-.21-15.82,20.62-31.52,41.34-45.64,63.19-.54.83-.58,2-1.18,4.18,1.91-1.52,2.88-2.19,3.73-3,4-3.76,8-7.51,12-11.34,3.45-3.33,7.34-6.38,10.07-10.23,4.92-6.93,11.68-11.95,17.36-18.07,1.45-1.56,4.08-1.49,5-.06,3.69,5.86,7.2,11.84,11,17.64,1.8,2.75,4.07,5.2,6.34,8,2-2.57,3.94-4.63,5.34-7q13.68-23.55,27.12-47.24c1-1.74,2-3.18,3.89-3.32,2.75,6.12,5.43,12.11,8.33,18.57a36.58,36.58,0,0,0,4.39-3.54c23.75-26.93,45.34-55.61,67.53-83.8a16.37,16.37,0,0,0,1.56-3.2c-5.3,3-9.55,7.07-13.88,11.21C1244.54,173.37,1234.38,181.49,1224.64,190.05Z"/><path class="cls-2" d="M59.38,228.87c-13,9.59-25.88,19.29-38.79,29-2.71,2-5.26,4.26-8,6.23A24.31,24.31,0,0,1,8.24,266C6.38,259.63,4.6,253.74,3,247.81,2.3,245.47,1.89,243-.1,241.48v57.25c.72,2,1.45,3.95,2.22,6C15,289.6,27.1,275.44,39.18,261.3S63.41,233,75.52,218.8A108,108,0,0,0,59.38,228.87Z"/><path class="cls-2" d="M143.84,310.83c.34-.63.67-1.27,1-1.93a1.29,1.29,0,0,0,.06-.7c0-.11-.28-.16-1-.54-6.76,5.38-13.73,10.91-20.68,16.46Q103.38,340,83.57,355.79c-1.62,1.29-3.12,3.26-5.9,1.6-1.88-7.24-3.76-14.67-5.77-22.07a12.28,12.28,0,0,0-1.79-2.92c-1,.8-2.49,1.38-3.09,2.43C62.39,343,58,351.18,53.4,359.34c-8.07,14.41-16.18,28.81-24.82,44.18-6.12-8.45-8.7-17.78-14-26C9.35,381.36,6.46,386.89,3,392c-1,1.44-2,2.86-3.06,4.27v19C2.54,412.61,5.22,410,8,407.4c7.67,9.05,10.36,20.75,18.26,29.8,2.38-3.21,4.63-5.71,6.27-8.56,9.25-16,18.33-32,27.54-48a46.82,46.82,0,0,1,3.72-4.88c3.88,6.64,3.9,14.35,8.79,19.74.93-.39,1.5-.45,1.76-.77q34.4-41.33,68.73-82.7A7.54,7.54,0,0,0,143.84,310.83Z"/><path class="cls-2" d="M43.07,694.44c.35-.63.68-1.28,1-1.93a1.23,1.23,0,0,0,.07-.71c0-.1-.28-.15-1-.53-6.75,5.37-13.72,10.9-20.68,16.46l-22.52,18v20.91q21.2-25.5,42.39-51A8,8,0,0,0,43.07,694.44Z"/><path class="cls-2" d="M280.71,793.1c.16-.15.16-.48.32-.63,3.18-3.2,6.33-6.43,9.58-9.54,1.89-1.8,4-1.75,5.65.28,2.12,2.6,4.49,5.15,5.91,8.13,3.06,6.39,8,11.18,12.49,16.94,4.69-5.15,7.76-10.71,10.86-16.2,8.55-15.13,16.94-30.36,25.46-45.5.52-.93,1.68-2.07,2.52-2.06s1.88,1.3,2.28,2.26c2.36,5.6,4.55,11.28,6.78,16.89,1-.34,1.59-.36,1.83-.67,23.79-30,46.87-60.66,72-89.81a42.49,42.49,0,0,0-9.3,5.13c-6,4.48-11.93,9.06-17.69,13.83-10.93,9-22.79,17-32.58,27.42-1.77,1.88-4.05,3.29-6.55,5.28-1.12-1.83-2.23-3.08-2.72-4.53-1.22-3.63-2-7.39-3.24-11-1.27-3.83-2.81-7.56-4.24-11.33l-3.4,2.71c0,.65.2,1.44-.08,2-2.4,4.42-4.91,8.78-7.34,13.17-5.21,9.41-10.56,18.75-15.54,28.28-4.75,9.08-9,18.44-13.73,27.51-1.2,2.31-2,5.4-5.79,6.56-5.65-8.7-9-18.61-15.11-27.36l-48.28,70.55C263.3,814,271,802.45,280.71,793.1Z"/><path class="cls-2" d="M206.22,405.5c-1.35,1.83-3.57,3.05-5.47,4.45-1.54,1.13-3.49,1.83-4.74,3.19-4.56,5-10.54,8.15-15.63,12.44C171.92,432.71,163.5,439.9,155,447a47.48,47.48,0,0,1-4.49,2.95,33.42,33.42,0,0,1-2.39-4.74c-1.7-5.48-3.2-11-4.86-16.53-.51-1.7-1.26-3.33-2-5.32a10,10,0,0,0-4.81,5q-17.26,31.9-34.75,63.7a28.5,28.5,0,0,1-3.13,3.84c-2-4.21-3.61-7.66-5.21-11.11-1.7-3.68-3.34-7.39-5.07-11.06-2.78-5.85-3.2-5.89-7-1-.59.76-1,1.62-1.56,2.41Q64.25,497.55,48.77,520c-5.29,7.66-10.64,15.28-15.91,22.95-.43.62-.47,1.5-1,3.36a24.37,24.37,0,0,0,3.33-2.07c2.38-2.34,4.42-5.1,7-7.1C49,532,54.32,525.52,60,519.33c5.33-5.82,10.93-11.38,16.46-17a29.2,29.2,0,0,1,3.39-2.47l16.59,30.52c4.34-6.67,8.16-12.11,11.53-17.82,8.4-14.2,16.58-28.54,24.89-42.79a17.6,17.6,0,0,1,2.15-2.45c3.71,6.71,4,14.28,9.17,20.52,22.79-27.42,45.05-54.47,67.11-81.69,1.42-1.75,2.65-3.66,4-5.49C211.61,401.49,208.45,402.45,206.22,405.5Z"/><path class="cls-2" d="M189.66,722.37c6.75-5.13,12.11-11.57,17.77-17.76,5.32-5.82,10.93-11.37,16.45-17a29.63,29.63,0,0,1,3.4-2.46l16.58,30.51c4.34-6.67,8.17-12.11,11.54-17.82,8.4-14.2,16.58-28.53,24.89-42.79a18.16,18.16,0,0,1,2.14-2.45c3.71,6.71,4,14.29,9.18,20.53,22.78-27.43,45-54.48,67.1-81.69,1.42-1.76,2.66-3.66,4-5.5-3.63.83-6.79,1.79-9,4.84-1.34,1.83-3.56,3.06-5.46,4.45-1.54,1.13-3.49,1.83-4.74,3.2-4.56,5-10.54,8.14-15.63,12.43C319.37,618,311,625.18,302.47,632.3a50.25,50.25,0,0,1-4.49,3,33.26,33.26,0,0,1-2.38-4.74c-1.71-5.49-3.21-11-4.86-16.54-.51-1.7-1.27-3.33-2-5.32a10,10,0,0,0-4.8,5q-17.28,31.9-34.75,63.71a28.48,28.48,0,0,1-3.13,3.83c-2-4.21-3.61-7.65-5.21-11.11-1.7-3.68-3.34-7.39-5.08-11.06-2.77-5.84-3.19-5.89-7-1-.58.75-1,1.62-1.56,2.4q-15.45,22.41-30.93,44.8c-5.3,7.65-10.64,15.27-15.91,22.94-.43.62-.48,1.5-1,3.36a24.37,24.37,0,0,0,3.33-2.07C185,727.13,187,724.37,189.66,722.37Z"/><path class="cls-2" d="M1415.39,182.88c2.68-1.58,3.74-4.21,6.13-5.82s4.45-4.31,6.57-6.58l11.81-12.76V139c-14.74,21.27-33.78,49.74-35.07,53.28C1408.46,189.25,1411.43,185.22,1415.39,182.88Z"/><path class="cls-2" d="M1307.22,565.37c6.74-5.14,12.1-11.58,17.76-17.77,5.33-5.81,10.93-11.37,16.46-17a28.06,28.06,0,0,1,3.39-2.47l16.59,30.52c4.34-6.68,8.16-12.12,11.53-17.82,8.4-14.21,16.58-28.54,24.89-42.8a17.57,17.57,0,0,1,2.15-2.44c3.71,6.7,4,14.28,9.17,20.52q15.52-18.69,30.74-37.18V458.49q-9.93,8.42-19.87,16.8a49.52,49.52,0,0,1-4.49,2.95,33.42,33.42,0,0,1-2.39-4.74c-1.7-5.49-3.2-11-4.86-16.54-.51-1.7-1.26-3.32-2-5.32a10,10,0,0,0-4.81,5q-17.27,31.9-34.75,63.7a29.14,29.14,0,0,1-3.13,3.84c-2-4.22-3.61-7.66-5.21-11.11-1.7-3.69-3.34-7.4-5.07-11.06-2.78-5.85-3.2-5.9-7-1-.59.75-1,1.62-1.56,2.41q-15.46,22.4-30.94,44.79c-5.29,7.65-10.64,15.28-15.91,22.95-.43.62-.48,1.49-1,3.35a21.65,21.65,0,0,0,3.32-2.07C1302.55,570.12,1304.59,567.37,1307.22,565.37Z"/><path class="cls-2" d="M539.41,288.42c-6.75,5.37-13.73,10.9-20.68,16.46q-19.82,15.83-39.62,31.66c-1.62,1.3-3.12,3.26-5.9,1.6-1.88-7.23-3.76-14.67-5.77-22.07a12,12,0,0,0-1.79-2.92c-1,.8-2.49,1.38-3.09,2.43-4.63,8.12-9.06,16.35-13.62,24.51-8.06,14.42-16.18,28.81-24.82,44.18-6.12-8.45-8.7-17.78-14-26-5.21,3.87-8.1,9.4-11.6,14.46s-7.4,10-11,15S380.4,397.93,376.78,403s-8,9.7-10.94,15.1c-2.83,5.11-7.46,9.23-9.6,16,17.92-14,31.24-31,47.28-45.93,7.68,9.05,10.37,20.75,18.27,29.81,2.37-3.22,4.62-5.72,6.27-8.56,9.24-16,18.33-32,27.53-48a48.33,48.33,0,0,1,3.72-4.89c3.88,6.64,3.9,14.35,8.8,19.74.93-.39,1.49-.45,1.76-.76q34.38-41.34,68.72-82.7a8.57,8.57,0,0,0,.79-1.2c.35-.63.67-1.28,1-1.94a1.19,1.19,0,0,0,.06-.7C540.39,288.85,540.13,288.79,539.41,288.42Z"/><path class="cls-2" d="M850,187.93c-1.35,1.83-3.57,3-5.47,4.45-1.54,1.12-3.49,1.83-4.74,3.19-4.56,5-10.54,8.14-15.63,12.43-8.46,7.14-16.88,14.33-25.35,21.44a48.81,48.81,0,0,1-4.49,2.95,33.42,33.42,0,0,1-2.39-4.74c-1.7-5.49-3.2-11-4.86-16.53-.51-1.7-1.26-3.33-2-5.33a10.06,10.06,0,0,0-4.81,5q-17.26,31.91-34.75,63.7a29.14,29.14,0,0,1-3.13,3.84c-2-4.22-3.61-7.66-5.21-11.11-1.7-3.68-3.34-7.4-5.07-11.06-2.78-5.85-3.2-5.9-7-1-.58.75-1,1.62-1.55,2.41Q708,280,692.52,302.38c-5.29,7.66-10.64,15.28-15.91,22.95-.43.62-.48,1.5-1,3.36a23.41,23.41,0,0,0,3.32-2.07c2.38-2.35,4.43-5.1,7.06-7.1,6.74-5.14,12.1-11.58,17.76-17.77,5.32-5.81,10.93-11.37,16.46-17a28.06,28.06,0,0,1,3.39-2.47l16.58,30.52c4.35-6.67,8.17-12.11,11.54-17.82,8.4-14.21,16.58-28.54,24.89-42.8a18.16,18.16,0,0,1,2.15-2.44c3.71,6.7,4,14.28,9.17,20.52C810.7,242.85,833,215.8,855,188.58c1.43-1.75,2.66-3.66,4-5.49C855.36,183.91,852.2,184.88,850,187.93Z"/><path class="cls-2" d="M1285.59,286.13c-2.71,2-5.27,4.25-8,6.23a24.64,24.64,0,0,1-4.34,1.92c-1.86-6.37-3.64-12.26-5.29-18.19-.77-2.77-1.19-5.68-4.3-7.09-1.1,1.66-2.26,3.18-3.17,4.83-10.92,19.71-21.74,39.47-32.77,59.12-1.28,2.29-1.87,5.51-5.07,6.53-2.35-4.51-4.6-8.69-6.72-12.93s-2.79-9.6-7.27-12.62c-4.11,4-50,71.13-52,76.7,3.63-3.06,6.6-7.09,10.57-9.43,2.67-1.58,3.73-4.2,6.12-5.82s4.45-4.3,6.57-6.58c6.84-7.35,13.61-14.77,20.5-22.08.88-.94,2.26-1.41,3.63-2.24,3,5.44,5.66,10.48,8.42,15.48s3.91,10.64,9,14.88c14.35-20.41,24-42.88,37.57-64l8.17,22.19c12.92-15.16,25-29.32,37.06-43.47s24.23-28.33,36.34-42.49a107.18,107.18,0,0,0-16.14,10.07C1311.4,266.73,1298.5,276.44,1285.59,286.13Z"/><path class="cls-2" d="M592.19,689.46c3.44-3.33,7.33-6.37,10.07-10.22,4.92-6.94,11.68-12,17.36-18.07,1.44-1.56,4.07-1.5,5-.06,3.69,5.86,7.2,11.84,11,17.63,1.8,2.76,4.07,5.2,6.33,8,2-2.56,4-4.62,5.34-7q13.68-23.55,27.12-47.24c1-1.74,2-3.18,3.89-3.33l8.33,18.57a36.63,36.63,0,0,0,4.39-3.53c23.75-26.94,45.35-55.61,67.54-83.8a16.92,16.92,0,0,0,1.55-3.2c-5.29,3-9.55,7.07-13.88,11.21-9.37,8.94-19.52,17.07-29.26,25.63-5.94,5.21-12.94,9.23-17.73,15.74a10.42,10.42,0,0,1-2.81,2.27c-2.85,1.85-4.76,1.21-6-2.17-1.38-3.79-2.59-7.66-3.82-11.51s-2.32-7.54-3.77-12.23c-4,5.26-5.69,10.43-8.29,15.12-7.5,13.53-15.3,26.9-23,40.3-2.39,4.13-4.82,8.25-7.45,12.23-1.46,2.21-3.22,2-4.5-.11-3.44-5.71-6.88-11.43-10.41-17.09-1.91-3-3.67-3.09-5.89-.21-15.81,20.63-31.51,41.35-45.64,63.2-.53.83-.58,2-1.18,4.17,1.91-1.52,2.88-2.19,3.73-3C584.21,697.05,588.23,693.29,592.19,689.46Z"/><path class="cls-2" d="M32.08,853.37a17.57,17.57,0,0,1,2.15-2.44c3.71,6.7,4,14.28,9.17,20.52C66.19,844,88.45,817,110.5,789.76c1.43-1.75,2.66-3.66,4-5.49-3.63.82-6.79,1.79-9,4.83-1.35,1.84-3.57,3.06-5.47,4.45-1.54,1.13-3.49,1.83-4.74,3.2-4.56,5-10.54,8.14-15.63,12.43-8.46,7.14-16.88,14.32-25.35,21.44a51,51,0,0,1-4.49,3,33.42,33.42,0,0,1-2.39-4.74c-1.7-5.49-3.2-11-4.86-16.54-.51-1.7-1.26-3.32-2-5.32a10,10,0,0,0-4.81,5Q18.43,843.87.94,875.66a8.25,8.25,0,0,1-1,1.45v22.83h5q1.18-1.87,2.31-3.77C15.59,882,23.77,867.63,32.08,853.37Z"/><path class="cls-2" d="M-.1,129.83c.45-.56.89-1.13,1.33-1.7a16.09,16.09,0,0,0,1.56-3.2c-1,.57-2,1.18-2.89,1.81Z"/><path class="cls-2" d="M111.84,896.29,108.43,899c0,.3,0,.63,0,.94h4.76C112.77,898.73,112.3,897.51,111.84,896.29Z"/><path class="cls-2" d="M454.32,201c-1.35,1.83-3.57,3.05-5.47,4.45-1.54,1.13-3.49,1.83-4.74,3.19-4.56,5-10.54,8.15-15.63,12.44-8.46,7.13-16.88,14.32-25.36,21.43a46.21,46.21,0,0,1-4.49,3,33.26,33.26,0,0,1-2.38-4.74c-1.71-5.48-3.21-11-4.86-16.53-.51-1.7-1.26-3.33-2-5.33a10.08,10.08,0,0,0-4.8,5q-17.28,31.91-34.75,63.7a28.5,28.5,0,0,1-3.13,3.84c-2-4.22-3.61-7.66-5.21-11.11-1.7-3.68-3.34-7.39-5.08-11.06-2.77-5.85-3.19-5.89-7-1-.58.76-1,1.62-1.56,2.41Q312.35,293,296.87,315.42c-5.3,7.66-10.64,15.28-15.91,22.95-.43.62-.48,1.5-1,3.36a23.1,23.1,0,0,0,3.33-2.07c2.38-2.34,4.43-5.1,7.05-7.1,6.75-5.14,12.11-11.57,17.77-17.76,5.32-5.82,10.93-11.38,16.45-17a29.18,29.18,0,0,1,3.4-2.47l16.58,30.52c4.34-6.67,8.17-12.11,11.54-17.82,8.4-14.2,16.58-28.54,24.89-42.79a18.16,18.16,0,0,1,2.14-2.45c3.71,6.71,4,14.28,9.18,20.52,22.78-27.42,45-54.47,67.1-81.69,1.42-1.75,2.66-3.66,4-5.49C459.71,197,456.55,197.92,454.32,201Z"/><path class="cls-2" d="M354.16,883.77c4.92-6.94,11.68-12,17.36-18.07,1.45-1.56,4.08-1.5,5-.06,3.69,5.86,7.2,11.84,11,17.63,1.8,2.76,4.07,5.2,6.34,8.05,2-2.56,3.94-4.62,5.34-7q13.68-23.55,27.12-47.24c1-1.74,2-3.18,3.88-3.33l8.34,18.57a36.42,36.42,0,0,0,4.38-3.53c23.76-26.94,45.35-55.61,67.54-83.8a16.33,16.33,0,0,0,1.55-3.2c-5.29,3-9.54,7.07-13.88,11.21-9.37,8.94-19.52,17.07-29.26,25.63-5.94,5.21-12.93,9.23-17.73,15.74a10.27,10.27,0,0,1-2.81,2.27c-2.85,1.85-4.75,1.21-6-2.17-1.38-3.79-2.58-7.66-3.81-11.51s-2.33-7.54-3.77-12.23c-4,5.26-5.69,10.43-8.29,15.12-7.51,13.53-15.3,26.9-23,40.3-2.38,4.13-4.81,8.25-7.44,12.23-1.46,2.21-3.23,2-4.5-.11-3.45-5.71-6.89-11.43-10.42-17.09-1.9-3-3.67-3.09-5.88-.21-14.8,19.3-29.47,38.69-42.87,59h5.54c2.09-2,4.18-4,6.24-6C347.54,890.66,351.42,887.62,354.16,883.77Z"/><path class="cls-2" d="M1037.34,780.24a24.37,24.37,0,0,0,3.33-2.07c2.38-2.34,4.42-5.1,7-7.1,6.74-5.14,12.1-11.57,17.77-17.76,5.32-5.82,10.92-11.38,16.45-17a28.06,28.06,0,0,1,3.39-2.47l16.59,30.52c4.34-6.67,8.16-12.11,11.53-17.82,8.4-14.2,16.59-28.54,24.89-42.79a17.6,17.6,0,0,1,2.15-2.45c3.71,6.71,4,14.28,9.17,20.52,22.79-27.42,45-54.47,67.11-81.69,1.42-1.75,2.65-3.66,4-5.49-3.63.83-6.79,1.79-9,4.84-1.35,1.83-3.57,3-5.47,4.45-1.54,1.12-3.49,1.83-4.73,3.19-4.57,5-10.55,8.15-15.64,12.44-8.46,7.13-16.87,14.32-25.35,21.43a47.48,47.48,0,0,1-4.49,3,33.42,33.42,0,0,1-2.39-4.74c-1.7-5.48-3.2-11-4.86-16.53-.51-1.7-1.26-3.33-2-5.33a10,10,0,0,0-4.8,5q-17.28,31.9-34.76,63.7a27.75,27.75,0,0,1-3.13,3.84c-2-4.22-3.61-7.66-5.2-11.11-1.71-3.68-3.34-7.4-5.08-11.06-2.78-5.85-3.2-5.89-7-1-.59.75-1,1.62-1.56,2.41q-15.46,22.4-30.94,44.79c-5.29,7.66-10.64,15.28-15.91,23C1037.93,777.5,1037.89,778.38,1037.34,780.24Z"/><path class="cls-2" d="M672.33,185.94c-6.12-8.44-8.7-17.77-14-26-5.21,3.88-8.09,9.4-11.59,14.46s-7.4,10-11,15-7.07,10.21-10.7,15.25-8,9.7-10.94,15.1c-2.82,5.11-7.46,9.23-9.59,16,17.92-14,31.24-31,47.28-45.93,7.67,9,10.36,20.75,18.26,29.8,2.38-3.21,4.63-5.71,6.27-8.56,9.25-16,18.33-32,27.54-48a46.57,46.57,0,0,1,3.72-4.89c3.88,6.65,3.9,14.36,8.79,19.75.93-.39,1.5-.45,1.76-.77q34.39-41.32,68.73-82.7a7.49,7.49,0,0,0,.78-1.2c.35-.63.68-1.27,1-1.93a1.2,1.2,0,0,0,.07-.7c0-.11-.28-.16-1-.54-6.75,5.38-13.72,10.91-20.68,16.46q-19.8,15.83-39.61,31.67c-1.63,1.29-3.12,3.26-5.9,1.6-1.88-7.24-3.76-14.67-5.77-22.08a12.43,12.43,0,0,0-1.79-2.91c-1.05.8-2.49,1.37-3.09,2.43-4.63,8.12-9.06,16.35-13.62,24.51C689.08,156.18,681,170.57,672.33,185.94Z"/><path class="cls-2" d="M1013.48,641.38c7.68,9,10.36,20.75,18.26,29.8,2.38-3.21,4.63-5.71,6.28-8.56,9.24-16,18.32-32,27.53-48a46.82,46.82,0,0,1,3.72-4.88c3.88,6.64,3.9,14.35,8.79,19.74.93-.39,1.5-.45,1.76-.77q34.4-41.33,68.73-82.7a7.54,7.54,0,0,0,.79-1.2c.34-.63.67-1.27,1-1.93a1.2,1.2,0,0,0,.06-.7c0-.11-.28-.16-1-.54-6.76,5.38-13.73,10.91-20.68,16.46q-19.82,15.82-39.62,31.67c-1.62,1.29-3.12,3.26-5.9,1.6-1.88-7.24-3.76-14.67-5.77-22.07a12.28,12.28,0,0,0-1.79-2.92c-1,.8-2.49,1.37-3.09,2.43-4.63,8.12-9.06,16.35-13.62,24.51-8.07,14.41-16.18,28.8-24.82,44.18-6.12-8.45-8.7-17.78-14-26-5.21,3.88-8.1,9.4-11.6,14.46s-7.4,10-11,15-7.07,10.21-10.7,15.25-8,9.7-10.93,15.1c-2.83,5.11-7.46,9.23-9.6,16C984.12,673.32,997.44,656.31,1013.48,641.38Z"/><path class="cls-2" d="M504.67,882.39q-4.86,8.77-9.7,17.55h21.62c-1.55-5.27-3-10.28-4.44-15.29-.77-2.77-1.19-5.68-4.3-7.09C506.75,879.22,505.59,880.74,504.67,882.39Z"/><path class="cls-2" d="M1408.86,335.94c-6.75,5.37-13.72,10.91-20.68,16.46q-19.8,15.83-39.61,31.66c-1.63,1.3-3.12,3.26-5.9,1.6-1.88-7.23-3.76-14.67-5.77-22.07a12.43,12.43,0,0,0-1.79-2.91c-1,.8-2.49,1.37-3.09,2.43-4.63,8.11-9.06,16.35-13.62,24.5-8.07,14.42-16.18,28.81-24.82,44.18-6.12-8.45-8.7-17.77-14-26-5.21,3.88-8.09,9.4-11.59,14.46s-7.4,10-11,15-7.07,10.21-10.7,15.26-8,9.7-10.94,15.09c-2.82,5.12-7.46,9.23-9.59,16,17.92-14,31.24-31,47.28-45.92,7.67,9.05,10.36,20.75,18.26,29.8,2.38-3.21,4.63-5.71,6.27-8.56,9.25-16,18.33-32,27.54-48a48,48,0,0,1,3.72-4.89c3.88,6.65,3.9,14.36,8.79,19.75.93-.39,1.5-.46,1.76-.77q34.4-41.33,68.73-82.7a8,8,0,0,0,.78-1.2c.35-.63.68-1.28,1-1.93a1.29,1.29,0,0,0,.06-.7C1409.85,336.37,1409.59,336.32,1408.86,335.94Z"/><path class="cls-2" d="M1420.42,621c7.68,9,10.37,20.75,18.27,29.8l1.21-1.6v-33.7c-5.34-8-7.92-16.68-12.9-24.42-5.21,3.88-8.1,9.4-11.59,14.46s-7.41,10-11,15-7.08,10.21-10.7,15.25-8,9.7-10.94,15.1c-2.83,5.11-7.46,9.23-9.6,16C1391.07,652.9,1404.38,635.89,1420.42,621Z"/></g></svg>