<svg xmlns="http://www.w3.org/2000/svg" viewBox="0 0 1440 900"><defs><style>.cls-1{fill:#ff4133;}.cls-2{fill:#fb0;}</style></defs><title>Wunderkind_Patterns_WEB-Cropped</title><g id="Backgrounds"><rect class="cls-1" width="1440" height="900"/></g><g id="Color"><path class="cls-2" d="M487.73,574.19c4.43-4.73,11.28-7.15,16.88-10.84,25.2-16.56,45.63-36.18,48.56-68.85.84-9.28,5.11-18.41,8.74-27.22,5-12.2,11-24,16.49-36L576.09,430c-12.47,7.92-23.89,17-30.9,30.54-10.07,19.5-21.41,38-37.8,53.06-12.72,11.7-25.49,23.51-36.87,36.46-6.77,7.71-11.5,17.44-16.06,26.79-4.32,8.87-5.51,19.67-11.1,27.44-10.13,14-21.15,27.31-26.92,44-.48,1.38-1.93,2.41-2.93,3.61v5.79c6.83-7.92,13.57-15.93,20.52-23.75C451.82,613.88,469.44,593.72,487.73,574.19Z"/><path class="cls-2" d="M482.57,410.08c-14.7,8.84-18.69,23.35-23.8,38-9.41,27-25.84,57.59-46.9,80.15a135.23,135.23,0,0,1-18,16.26c-3.16,2.35-15.38,11.73-5.44,13,6,.78,18.3-12.94,22.78-16.57,15-12.16,29.63-24.85,42-39.71a237.43,237.43,0,0,0,17.89-23.62c5.15-8,10.61-16.39,13.22-25.39,5.45-18.74,9.1-38,13.54-57.28C493.12,399.78,488.72,406.38,482.57,410.08Z"/><path class="cls-2" d="M380.12,530.76c2.77-6.84,13.28-36.61,21-38.39-8.28,1.91-15,8-20.21,14.68s-9.26,14.27-14.56,20.91c-6.89,8.61-15.68,15.45-23.72,23l-1.13,1.08c-9.17,8.79-29.74,30.42-25.47,44.48,14.65-11.34,31.46-20.7,44.37-34.29C369.75,552.38,375.14,543.1,380.12,530.76Z"/><path class="cls-2" d="M492.39,281.44a144.39,144.39,0,0,0-11.6,12.88c-29.34,37.19-69.45,63.36-98.31,100.8-15,19.44-34,33.89-47.12,55.38a217,217,0,0,0-26,62.74c-2.79,11.67-4.77,24-11.65,33.79-4,5.75-9.86,12.85-6,18.73-.19-.28,43.65-33,47-37,9.17-10.9,14.54-23.52,25.11-34,24.83-24.69,71-47.77,75.56-85.64.88-7.2,5.23-14.16,8.81-20.79,4.36-8.09,9.77-15.6,14.37-23.56,3-5.23,4.34-11.76,8.22-16.09,17.89-20,16.59-47.68,29-70.27C496.7,278.82,494.13,279.71,492.39,281.44Z"/><path class="cls-2" d="M188.51,572.78a2.7,2.7,0,0,0,1.91.12,2.87,2.87,0,0,0,1.08-1.13c7.09-10.6,20.09-16.5,30.75-22.75a164.77,164.77,0,0,0,38.69-30.62c9.19-9.88,17.3-21,26-34.08,9.57-14.46,16.35-30.54,23.4-46.3,3.54-7.9,12.79-38.66,21-41.8-14.25,5.42-25.52,16.5-36,27.55-27.41,28.81-61,60.91-75.47,98.23a90,90,0,0,1-14.65,25.83c-3.4,4.1-7.08,8-10.56,12C192.55,562.27,182.69,571,188.51,572.78Z"/><path class="cls-2" d="M119.18,558.31A280.61,280.61,0,0,0,66,640.93c-5.74,13.71-8.6,28.62-12.74,43L57,685.48c2-2.68,3.85-5.39,5.86-8,4.06-5.33,7.22-12,12.45-15.67a286.39,286.39,0,0,0,42.12-36.72c18.57-19.57,31-43.7,44.78-66.72a357.78,357.78,0,0,1,37.26-51.13c2.63-3,5.51-6.83,4.19-10.6C173.54,513.53,142.81,532.9,119.18,558.31Z"/><path class="cls-2" d="M531.65,639.59c8.75-10.21,16.09-22.06,26.3-30.45,11.91-9.79,20.61-20.51,25.3-35.18,2.81-8.76,5.7-18.68,11.78-25,18.31-18.89,27.46-43.07,40.57-64.94,2.36-3.93,3.69-8.48,5.5-12.74a16.48,16.48,0,0,0-9.77,4c-17.93,15.53-35.47,31.53-53.74,46.66-8.26,6.84-14.58,14.3-17,24.84-6.93,30.2-19.51,58.19-33.76,85.48-5.08,9.73-10.84,19.1-16.29,28.63l1.21,1.16C518.39,654.61,525.13,647.19,531.65,639.59Z"/><path class="cls-2" d="M383.15,631.22c8.53-5.32,18.1-8.87,26.5-14.42C426,606,422.85,593.66,429.23,578c7.19-17.7,18.54-33.42,30.06-48.5a60.51,60.51,0,0,0,3.88-6.63l-1.9-1.39c-12.68,12.07-24.44,25.22-38.76,35q-5.65,3.87-10.88,8.23a147.65,147.65,0,0,0-26.79,29.53c-12.64,18.32-21.53,39-28.26,60.22C364.81,646,373.14,637.46,383.15,631.22Z"/><path class="cls-2" d="M903.93,166.44c-23.6,11.08-39.75,30-54.29,48.52-11,14.06-13.71,34.63-20.47,53.32,2.63-.58,3.48-.51,3.8-.88a24.27,24.27,0,0,0,3.37-4.62c7.84-15.8,18.77-27.71,36.28-33.6,5.16-1.73,9.9-8.07,12.5-13.43,5.41-11.14,9.32-23,13.73-34.64C900.69,176.27,902.25,171.33,903.93,166.44Z"/><path class="cls-2" d="M775.52,324c12.93-7.78,19.51-18.51,22.56-32.87,1.46-6.86,5.73-13.14,8.82-19.64,5.64-11.87,11.35-23.71,17-35.56l-2-1.76c-5.76,4.7-12,8.94-17.2,14.17-15.53,15.55-26.31,35.59-45.37,47.87a12,12,0,0,0-4,5.32c-7,16.67-13.82,33.42-21.17,51.32,2.73-1.57,4.64-2.44,6.31-3.65C752.15,340.79,763.24,331.41,775.52,324Z"/><path class="cls-2" d="M96.75,520.77c-19.16,18.54-38.2,37.2-57.34,55.75-7.37,7.13-14.28,15-22.54,20.87A97.42,97.42,0,0,0-.35,613V716.9c1.5-1.54,3-3.07,4.5-4.62,4.54-4.73,10.45-9.25,12.57-15,10.33-28.15,19.47-56.74,29.36-85.06,1.76-5,5-9.59,7.74-14.24,5.86-9.89,11.77-19.74,17.84-29.5,5.69-9.14,11.45-18.23,17.47-27.15,5.1-7.57,10.61-14.85,15.94-22.26l-2.32-2.24C100.74,518.11,98.44,519.13,96.75,520.77Z"/><path class="cls-2" d="M762.81,257.23a78.27,78.27,0,0,0,4.14-7.6l-2.39-2.34c-5.74,4.17-11.94,7.85-17.12,12.63-8,7.36-15.37,15.36-22.73,23.33-3,3.26-5.29,7.2-8,10.79-13.56,18.28-26.66,37.25-49.14,45.71-11.08,4.18-19.68,11-25.73,20.74-7.92,12.76-15.25,25.9-22.44,39.09q-20,36.72-39.42,73.78c-1.3,2.5-.17,6.28-.17,11.81,3.37-3,4.5-3.71,5.19-4.71,13.84-20.06,32-34.38,54.06-45.06,8.49-4.12,14.78-13.6,20.88-21.56C666.77,405,670.43,393,678.6,386.1c13.44-11.34,20.93-26,30.74-39.71,16.14-22.53,19.1-52.06,40.45-71.41C755.12,270.16,758.63,263.29,762.81,257.23Z"/><path class="cls-2" d="M598.86,288.81c-4.27,15.22-13.62,26.66-25.65,35-25.18,17.38-35.59,44.65-46.55,70.35C520.74,408,514.91,422,508.71,435.82c-5.78,12.9-8.15,27.32-12.13,41-2.34,8.06-4.9,16.06-7.35,24.09l4.26,1.82C501,490.94,508.37,479.05,516,467.3c3.79-5.87,7.78-11.64,12-17.2,3.29-4.32,7.39-8,10.58-12.4,14.89-20.37,33.41-37,53.7-51.63,10.25-7.42,20.27-14.74,24.2-27.65,2.15-7,5.1-13.81,7-20.89,2.36-8.85,2.47-18.62,6.28-26.71,7.89-16.78,17.69-32.66,26.49-49,6.66-12.37,13-24.92,19.93-38.31-16.69,10.14-31.09,19.56-46.1,27.86C614.59,259.9,603.56,272.09,598.86,288.81Z"/><path class="cls-2" d="M761.51,80.52c-5.7,5.94-11.26,12.81-18.33,16.47-15,7.79-24.82,19.3-32.55,34.08-7.06,13.49-16.78,25.56-24.67,38.65-7.46,12.36-14.06,25.24-21,37.9l3.81,2.72c2.79-3.49,6-6.72,8.3-10.51,7.26-12,17.71-19.81,30.2-25.79a55,55,0,0,0,26.66-26.79c5.85-12.47,14.83-22.2,25.46-30.89a53.76,53.76,0,0,0,12.53-15.48c5.1-9.24,9.17-19.06,13.28-28.81,2.94-7,5.25-14.19,7.84-21.3L790.39,49C780.78,59.55,771.36,70.24,761.51,80.52Z"/><path class="cls-2" d="M364.84,302c-14.7,21.93-26.15,45.84-37.54,69.66q39-29,75.1-61.69c16.13-14.63,23.94-36.6,33.37-55.82,3.56-7.27,7.64-14.28,12.72-23.68-12.12,6.93-23.45,13.84-34,21.36C395.54,265.27,379.05,280.75,364.84,302Z"/><path class="cls-2" d="M150.44,132.43c-6.59,5-11.62,10.54-13.55,18.31-5.53,22.24-15.55,42.86-26.91,63-4,7.17-8.63,14.07-13,21.1l1,.85c5.29-5.53,10.66-11,15.85-16.61,7-7.51,12.83-16.24,21-22.43,9.49-7.2,16.42-15.11,20.16-25.91,2.23-6.45,4.54-13.77,9.39-18.39,14.59-13.92,21.88-31.73,32.33-47.84,1.88-2.9,2.94-6.25,4.38-9.39a13.69,13.69,0,0,0-7.79,3C179,109.5,165,121.29,150.44,132.43Z"/><path class="cls-2" d="M98.51,183.51c-16.57,13-28.08,31.57-44.68,44.52C38.64,239.89,20,246.38,3.27,255.88c-1.21.69-2.42,1.4-3.62,2.14v69.27C8.24,316,19,307.51,29.85,297.91c.66-.57,1.31-1.16,1.95-1.75a131.14,131.14,0,0,0,29.26-39.24c8.09-16.66,12.71-35.17,23.51-50.22,6.32-8.82,14.52-16.09,22.65-23.27C106.32,180.08,101.23,181.38,98.51,183.51Z"/><path class="cls-2" d="M259.83,102.15c3.56-7.26,7.64-14.27,12.72-23.67-12.12,6.93-23.45,13.83-34,21.35-18.94,13.49-35.43,29-49.64,50.17-14.7,21.93-26.15,45.85-37.54,69.66q39-29,75.1-61.69C242.59,143.34,250.4,121.37,259.83,102.15Z"/><path class="cls-2" d="M226,789.06a189.88,189.88,0,0,1,46.36-34.9,41.2,41.2,0,0,0,8.27-5.28c2.9-2.62,4.91-6.06,6.87-9.45,23.67-40.93,37.66-84.71,56-127.95-25.33,12.49-40.74,38.25-56.92,61.38a474.41,474.41,0,0,1-35.78,45q-3.25,3.63-6.6,7.2c-12.37,13.21-29.23,26-37.91,42.14-4.29,8-5.88,16.93-7.74,25.68-2.48,11.64-6,24-12.1,34.41C198.56,813.26,213.27,802.29,226,789.06Z"/><path class="cls-2" d="M23.38,466A108.67,108.67,0,0,0-.35,481.36V523a37.71,37.71,0,0,0,4.91-7.62c5.41-11.14,9.32-23,13.73-34.64C20.13,475.86,21.69,470.92,23.38,466Z"/><path class="cls-2" d="M351.87,709.62c10.11-9,22.74-17.64,30.26-29,5.39-8.16,7.71-17.9,9.93-27.42-7.91,12.27-22.52,18-34.42,26.46-17.86,12.69-41.64,42-31.95,65.18A110.31,110.31,0,0,1,351.87,709.62Z"/><path class="cls-2" d="M207.86,231c8.88-10.05,14.24-22.65,19.45-35,.94-2.22.68-6.07-1.68-5.58a3.39,3.39,0,0,0-1.75,1.37c-9.19,11.29-26.59,17.54-38.7,25.94a358.27,358.27,0,0,0-41.54,33.15c-22.28,20.36-44.45,47.24-45.82,78.92-.33,7.58-3.88,15.22-6.91,22.45-4,9.41-8.8,18.43-13.69,28.5,13.47-12.4,27-24.68,39.64-37.7,15.42-15.84,29.61-32.78,41-52.36,6.86-11.76,12.79-24.27,22-34.27C188.47,247.15,199.51,240.44,207.86,231Z"/><path class="cls-2" d="M299.24,867.76c16.19-32.38,47-54.51,76.61-75.32,8.94-6.28,16.86-13.94,26-19.91,10.06-6.55,22.87-8.06,31.41-16.7,6-6.1,9.6-13.81,15.83-19.92,8.26-8.1,16.83-14.87,20.69-26.28,1.67-5,5.71-9.1,8.4-13.77,3.44-6,8.44-11.8,9.55-18.24,5.3-30.5,17.51-57.94,33.75-84,2.92-4.68,3.41-10.87,5-16.36L524,576c-1.86,1.46-3.8,2.83-5.59,4.39-6.71,5.84-12.76,12.71-20.17,17.45-20.85,13.36-36,30.93-42.29,55-10.63,41-53.88,34.34-76.83,62.12-10,12.15-16.54,26.74-24.45,40.38C334,791.12,302.57,822.3,294.54,862.85,296.74,865.2,297.05,865.41,299.24,867.76Z"/><path class="cls-2" d="M34.8,744.06c4-8.94,7.16-18.23,10.7-27.37l-3.67-2.16c-2.87,3.59-5.81,7.12-8.6,10.77-10,13.15-18.84,27.55-33.58,36.1v49c7.92-10.42,13.6-22.61,19.58-34.55C24.52,765.32,30,754.83,34.8,744.06Z"/><path class="cls-2" d="M-.35,198.81v11c1.22-.92,2.47-1.82,3.79-2.68C12,201.47,7.84,196.61-.35,198.81Z"/><path class="cls-2" d="M50.8,379.81c7.79-16.07,17-31.47,24.84-47.49C80.23,323,87.12,313,90.06,303.21a47.85,47.85,0,0,0,1.31-5.66c1.56-8.89,1.2-18.15,4.21-26.79,1.76-5.08,4.56-9.73,6.53-14.73.21-.54.4-1.2,0-1.64a1.48,1.48,0,0,0-.78-.41c-2.75-.7-5.68.74-7.58,2.85s-3,4.8-4.13,7.4c-13.49,30.65-40,50.36-61.63,74.83-5.72,6.47-10.84,14.21-13.71,22.27-5,14.14-8,29-12.08,43.5a23.84,23.84,0,0,1-2.58,5.46V452.5c7.79-7.57,15.78-14.95,23.29-22.78,6-6.29,12.27-12.88,16.32-20.45C44.2,400,46.22,389.27,50.8,379.81Z"/><path class="cls-2" d="M116.62,380.31c-7.33,8.5-12.94,16-22.51,22.42C83.84,409.59,72.87,416,68.18,428.85,62.85,443.51,57.05,458,50.77,472.33,45.65,484,38.92,495,34,506.67c-6.33,15-11.64,30.49-17.23,45.82-1.3,3.54-1.95,7.32-2.9,11,6.79-5.2,11.22-11.34,16-17.17,6.3-7.62,14.82-14.07,18.92-22.68,5.7-11.95,13.57-20.81,24.56-27.31a80.62,80.62,0,0,0,24.82-22.8c6.55-9.25,9.23-20.06,16.84-28.37l1.83-2c18.4-20.22,35.87-41.41,49.52-65.19,9.3-16.21,16.93-33.69,29.57-47.46,5.81-6.33,12.82-12.1,15.63-20.22-28.09,6.79-44.32,35.87-68.69,51.4C133.66,367.54,123.88,371.88,116.62,380.31Z"/><path class="cls-2" d="M773.5,453.53c-7.08,5.85-16.08,11.36-19.61,19.13-9.8,21.5-22.58,40.62-37.5,58.73-4.82,5.86-7.21,13.73-10.71,20.67l2.76,2c4.26-4.48,8.9-8.66,12.68-13.51,7-8.93,14.27-16.86,25.25-21.37,10.38-4.26,17.44-12.51,21.89-23.15,4.3-10.27,8.84-20.58,14.58-30.09,7.09-11.74,15.52-22.68,23.37-34l-2.29-1.82C793.75,437.88,783.36,445.38,773.5,453.53Z"/><path class="cls-2" d="M4.29,856.87c16.42-12.12,34.54-22.26,49.25-36.56,13.13-12.78,20.19-33.93,36.52-42.77,9.26-5,17.52-12.19,25.55-19.52,4.37-4,8.68-8,13-11.76,13.61-11.7,26.52-24.42,36.55-39.39,5.94-8.85,10.81-18.38,16.93-27.09,8.41-12,19-22.23,28.45-33.45,10.65-12.7,19.74-26.63,28.8-40.52,7.46-14.92,18.86-29.06,28.36-42.8,1.09-1.58,2.22-3.29,2.2-5.21a4.85,4.85,0,0,0-4.1-4.6c-7.33,6.73-14.41,14.6-22.22,20.7s-17.94,10.3-26.83,14.7c-11.87,5.87-24.14,11.12-35.06,18.62-9.67,6.64-18.09,14.91-26.38,23.22C122.61,663.26,73,702,63,749.73c-2.49,12-6.4,24.5-12.84,34.79-9.1,14.53-21.37,27-31.82,40.77C11.17,834.74,2.2,843.42,1,856.65,2.52,856.78,3.74,857.27,4.29,856.87Z"/><path class="cls-2" d="M203.07,709.31c1.07-.24,3.51-4.37,4.34-5.3,1.68-1.87,3.44-3.67,5.28-5.37a81.16,81.16,0,0,1,12.52-9.54c8.56-5.3,17.23-10.07,25.68-15.61l41.82-68.4a171.93,171.93,0,0,1-27.28,24.85c-7.76,5.67-16,10.71-23.29,17-8.73,7.52-15.88,16.67-22.13,26.32s-10.52,20.31-17.49,29.22c-.93,1.19-2,2.45-2.07,4S201.59,709.63,203.07,709.31Z"/><path class="cls-2" d="M851.72,81.89c-4.2,1.21-6.43,3.4-8.82,5.4-11.77,9.84-22.7,21-35.58,29.1-21.42,13.43-39.22,29.45-51.27,52-3.42,6.41-10.19,11.15-15.79,16.24-5.81,5.27-12.29,9.81-18.08,15.09A147.34,147.34,0,0,0,709.73,213c-5.61,6.56-12.1,12.7-16.21,20.13-13.14,23.75-25.43,48-37.85,72.12-1.66,3.24-2.2,7.06-3.26,10.61l4.25,2.23c10.48-12,21.16-23.77,31.35-36,6.08-7.29,11.15-15.41,17.1-22.81,10-12.45,21.63-22.75,38.21-25.58a7.87,7.87,0,0,0,4-2.64c7.87-9,18.32-12.08,29.59-14.48,23.63-5,34.9-18.39,37.24-42.39a126.44,126.44,0,0,1,20.62-58.31c5.12-7.75,9.8-15.82,14.22-24C850.57,89,850.84,85.26,851.72,81.89Z"/><path class="cls-2" d="M753,588.22c5.78-14.18,12.1-28.15,18.62-42,3-6.34,7.34-12,10.48-18.3,1.28-2.56,1-5.9,1.77-11.33-6.41,5.62-10.9,8.8-14.47,12.81-13.28,15-30.32,26.94-36.89,47.29-1.06,3.27-4.34,6.45-7.41,8.34a324.4,324.4,0,0,1-29.39,16.48c-8.55,4.11-13.38,10.66-16.16,19.22-7,21.56-19.53,38.67-39.54,50-3.55,2-7.36,4.49-9.59,7.76-6.66,9.71-12.63,19.9-18.78,30-1.76,2.87-3.2,5.94-4.78,8.92l2,1.48c8.84-7.83,17.2-16.31,26.64-23.34,15.31-11.39,30.16-24.48,47.3-32.12C717.43,648,739.14,622.25,753,588.22Z"/><path class="cls-2" d="M1370,873.38c-10.17,7.78-20.56,15.28-30.42,23.43-1.27,1.05-2.6,2.09-4,3.13h19.22c5.63-8.36,11.69-16.45,17.45-24.73Z"/><path class="cls-2" d="M1188.71,102.57c-2,2.88-4.15,5.87-4.47,9.36s2.13,7.48,5.62,7.37c6.13-13.63,18-23.62,28.74-34A377,377,0,0,0,1283.73-.06H1226.1q-.49,2.69-1,5.34C1218.62,38,1207.8,74.92,1188.71,102.57Z"/><path class="cls-2" d="M688.75,674.5c-28.78,21.72-56,48.53-75.61,79,15.19-8.43,33.46-15.72,46.37-27.92,8.36-7.9,14.44-17.75,20.2-27.61,2.28-3.92,6.52-8.7,8.17-12.59C688.17,684.65,690.34,673.3,688.75,674.5Z"/><path class="cls-2" d="M650.2,152.6c10-13.16,19.83-26.52,29.83-39.71a64.4,64.4,0,0,1,8.33-9.2c16.22-14.47,33.4-28,48.54-43.51,7.2-7.37,11.55-18.08,15.5-27.95,4.24-10.61,5.13-21.75,8.62-32.29H709.2c-10.93,13.72-22.41,28.89-24.8,46.47-.55,4-1.54,8.58-3.89,11.73a100.43,100.43,0,0,0-17.46,39.12c-.61,2.73-2.5,5.16-3.4,7.86-5.52,16.67-10.93,33.38-17.16,52.5C646.68,155,649,154.2,650.2,152.6Z"/><path class="cls-2" d="M9.08,122.71q-4.73,4.61-9.43,9.23v35c2.47-1.61,5-3.13,7.43-4.81,19.55-13.6,30-39.22,25.41-62.6C33.39,104.15,12.36,119.52,9.08,122.71Z"/><path class="cls-2" d="M166.58,818.5c12.88-19.34,10.61-38.25,16.06-59.63,2.08-8.13,6.12-16,12.58-21.33a5.53,5.53,0,0,0,1.74-1.93c.91-2.14-1.28-4.25-3.2-5.56a292.42,292.42,0,0,1-68.09,59.7C103.8,803.42,84.1,824.09,67,843.41,55.83,856,45.2,869,27,873.39A56.13,56.13,0,0,0,.3,889.1l-.65.73v10.11H36.4a29.86,29.86,0,0,1,4.05-.79c11-1.38,24.64-1,34.62-6.36,16.7-9,33-18.38,47.61-29.64C139.13,850.52,155,835.84,166.58,818.5Z"/><path class="cls-2" d="M1158.37,829.34c10.25-7.41,20.27-14.74,24.21-27.64,2.14-7,5.09-13.82,7-20.9,2.36-8.85,2.47-18.61,6.28-26.7,7.89-16.78,17.69-32.66,26.5-49,6.65-12.36,13-24.91,19.92-38.31-16.68,10.15-31.08,19.57-46.1,27.87-15.46,8.55-26.49,20.73-31.18,37.45-4.28,15.23-13.62,26.67-25.66,35-25.17,17.38-35.58,44.65-46.55,70.35-5.91,13.85-11.75,27.82-18,41.69a130.51,130.51,0,0,0-6.9,20.84h21.37c1.57-2.21,3.16-4.41,4.8-6.57,3.29-4.32,7.39-8,10.59-12.4C1119.56,860.61,1138.08,844,1158.37,829.34Z"/><path class="cls-2" d="M1059,836.21c-25,21.06-55.95,40.33-81.53,63.73h49.13c.81-.87,1.58-1.76,2.29-2.68C1043,879.11,1041,850.48,1059,836.21Z"/><path class="cls-2" d="M943.48,811.79c2-9.93.95-17.68,9.41-25.13,11.2-9.87,17.62-21.42,19.14-36.43,3.16-31.2,41.93-60.76,61.45-82.71,1.65-1.85,3.42-4.17,2.77-6.56a2.74,2.74,0,0,0-2.56-2.12,4.23,4.23,0,0,0-2.51,1.54c-8.22,8.31-17.43,16.25-28.65,19.56-3.44,1-7.09,1.6-10.13,3.51-2.73,1.71-4.73,4.33-6.61,6.95a246.23,246.23,0,0,1-60.12,59c-5,3.41-9.18,8.76-12.31,14.06-7.38,12.52-15,25.34-21.78,38.16l-.4.78c-15.54,29.63-17.49,64.3-24.41,97.57H899a215.37,215.37,0,0,0,24.52-40.31C930.54,844.6,940.11,828.15,943.48,811.79Z"/><path class="cls-2" d="M126.67,488.78c-2.8,6.29-7.76,9.64-6.41,16.38,4.82-1.75,7.65-6.59,10.51-10.84C148.05,468.6,178,455,206.33,442.43s58.12-26.86,74.41-53.22c10-16.19,14.14-35.93,26.59-50.33,3.5-4.05,7.61-7.61,10.49-12.13,3.33-5.07,3.19-10.83,5.65-15.91,3.1-6.42,9.08-11.51,13.86-16.76-2-2.35-5.91-2.11-8.52-.42s-4.29,4.43-6.11,6.95a58.67,58.67,0,0,1-13.1,13.17c-3.4,2.47-7.05,4.56-10.59,6.84C278.24,334,262.29,353.86,242.79,369c-13.93,10.84-29.39,19.54-43.65,29.95A224.76,224.76,0,0,0,126.67,488.78Z"/><path class="cls-2" d="M211.11,829.59c-21.59,6-36.94,24.68-55.94,36.59-18.65,11.69-38.15,20.65-55.44,33.76h64c6.67-11.63,13.21-23.33,21.8-33.59C195.21,854.77,207.86,844.35,211.11,829.59Z"/><path class="cls-2" d="M384.16,22.72C375.88,38.45,373.72,56.56,370.27,74c-6.46,32.67-17.29,69.64-36.37,97.29-2,2.88-4.16,5.87-4.48,9.35s2.13,7.49,5.63,7.38c6.12-13.63,18-23.62,28.74-34C395.45,123.34,426,80.53,443,39.72c4.94-11.88,12.5-21.78,17.89-33.55.94-2.06,1.83-4.13,2.68-6.23h-62A95.19,95.19,0,0,0,384.16,22.72Z"/><path class="cls-2" d="M505.08,899.94h1.71c.34-.38.68-.77,1-1.14Q506.46,899.36,505.08,899.94Z"/><path class="cls-2" d="M1423,308.54c-9.68,6.61-4.16,11.67,5.5,8.36a48.41,48.41,0,0,0,11.15-5.62V293.49A82.42,82.42,0,0,1,1423,308.54Z"/><path class="cls-2" d="M1260,90.81a141,141,0,0,0-10.55,17c-6.93,13.2-12.4,27.32-21.54,39.09-11,14.17-26.56,24-39.07,36.85-5.19,5.34-9.92,12.18-8.08,20,15-20.39,44.45-29.74,66.11-41.56,16.1-8.78,31.43-19.63,42.66-34.13,13-16.81,12.86-33.37,17.8-52.49,5.07-19.63,16-40.45,28.11-56.61,1.22-1.64,1.83-3.72,2.73-5.59-3.6,1-5.66,3.11-7.63,5.32C1307.53,44.44,1280,63,1260,90.81Z"/><path class="cls-2" d="M1216.32,595.88c10-13.16,19.82-26.53,29.82-39.72a64.32,64.32,0,0,1,8.33-9.19c16.22-14.48,33.4-28,48.54-43.51,15-14.12,20.62-41.2,30.51-59.11,15.07-27.28,24.73-58,36.17-87,1.67-4.23,3.34-8.47,5.06-12.69,3.49-8.53,7.18-17,11.5-25.11,7.26-13.67,16.2-26.37,25.12-39-57,41.3-89.9,104.93-132.92,158.79-11.78,14.74-25.32,31.11-27.94,50.39-.55,4-1.54,8.58-3.89,11.72a100.5,100.5,0,0,0-17.46,39.12c-.6,2.74-2.5,5.16-3.4,7.86-5.52,16.68-10.92,33.39-17.16,52.51C1212.79,598.24,1215.1,597.47,1216.32,595.88Z"/><path class="cls-2" d="M1163.42,476.43c-7.87,21.95-13.67,44.63-21.58,66.56-3.6,10-10.12,18.92-15.43,28.26-3,5.23-6.94,10-9.11,15.54-3.84,9.77-6.66,20-9.89,30-1.26,3.88-2.49,7.77-3.73,11.66l2.84,1.28c2.79-4.05,5.38-8.26,8.42-12.12,7.72-9.81,14.35-21.05,23.8-28.81,14.66-12,24.08-27.15,33.11-43.18,4.62-8.18,11.33-15.18,17.14-22.68,6-7.75,15.25-14.66,17.44-23.36,4.63-18.31,3.87-35.91,4.93-54.22s8.79-34,15.08-50.76c.72-1.92,1.42-3.88,2.12-5.84,4.56-12.77,9.2-25.81,21.67-33.14a8.8,8.8,0,0,0-3.85-5.72c-29.47,25.07-56.27,52.09-68.91,90C1173.31,452.35,1167.83,464.1,1163.42,476.43Z"/><path class="cls-2" d="M1188.61,132.32c-.8-.57-5.29,3.68-5.71,4.16-10.2,11.7-19.94,24.11-32.61,33.09-12,8.53-26.59,14-36.07,25.23-6.72,8-10.11,18-13.81,27.61a90,90,0,0,1-14.65,25.83c-3.4,4.1-7.08,8-10.56,12-2.09,2.43-12,11.14-6.13,12.94a2.7,2.7,0,0,0,1.91.12,2.91,2.91,0,0,0,1.08-1.12c7.09-10.61,20.09-16.51,30.75-22.76,14.35-8.42,28.72-17.16,40.64-28.78,10.73-10.46,17.17-22.73,23.31-36.19,2.37-5.17,5.82-9.82,8.22-14.84,4.79-10,3.51-22.8,11.84-31.11a10.67,10.67,0,0,0,2.37-2.83A2.72,2.72,0,0,0,1188.61,132.32Z"/><path class="cls-2" d="M1319.17,293a4.17,4.17,0,0,0-1.61,1.76c-17.84,29.32-34.77,59.54-54.89,87.26A119.13,119.13,0,0,0,1244,420.86c-1.87,6.55-12.44,26.61-1.32,29.38,4.47-6.69,8.48-13.66,12.39-20.69,6.38-11.47,12.46-23.11,19.72-34,8.56-12.88,18.7-24.67,27-37.72,5.57-8.75,10.72-18.47,13-28.67,2.12-9.42-.13-19.23,5.44-27.61,1.09-1.65,2.45-3.28,2.57-5.25S1321,292.12,1319.17,293Z"/><path class="cls-2" d="M999.74,258.72a280.53,280.53,0,0,0-53.17,82.63c-5.74,13.7-8.6,28.61-12.74,43l3.72,1.56c2-2.68,3.86-5.39,5.87-8,4.06-5.33,7.22-12,12.45-15.67A286.91,286.91,0,0,0,998,325.48c18.57-19.57,31-43.7,44.78-66.72A357,357,0,0,1,1080,207.63c2.63-3,5.51-6.83,4.18-10.6C1054.1,213.94,1023.36,233.31,999.74,258.72Z"/><path class="cls-2" d="M336.56,213.52c-38.86,21-73.91,52.06-94,91.89-8,15.81-13.62,33-24.23,47.16a293.27,293.27,0,0,1,30.78-29.76C287.21,291,312.39,257,336.56,213.52Z"/><path class="cls-2" d="M1122.7,347.33c-8.74,7.52-15.88,16.67-22.13,26.32S1090,394,1083.08,402.87a7.94,7.94,0,0,0-2.08,4c-.12,1.51,1.15,3.21,2.62,2.89,1.08-.24,3.52-4.37,4.35-5.3,1.67-1.87,3.44-3.66,5.28-5.37a81.79,81.79,0,0,1,12.52-9.54c8.55-5.3,17.23-10.07,25.68-15.61,25.14-16.48,39-38.48,41.82-68.4A171.93,171.93,0,0,1,1146,330.35C1138.23,336,1130,341.06,1122.7,347.33Z"/><path class="cls-2" d="M1305.78,18.81A238.42,238.42,0,0,1,1324.23-.06h-12.47c-5.26,7.51-10.63,14.94-15.83,22.48l3,2.38C1301.23,22.81,1303.79,21.06,1305.78,18.81Z"/><path class="cls-2" d="M1249.43,205.12c5.11-8.2,8.11-26.64,15.5-32.46-7.47,5.89-13,13.81-20.77,19.64-3.65,2.75-7.31,5.44-10.94,8.15a230.63,230.63,0,0,0-18.13,14.7c-18,16.44-35.63,33-40.52,57.84l58-48.7A82.87,82.87,0,0,0,1249.43,205.12Z"/><path class="cls-2" d="M514.52,167.93c-1.82,3.43-3.62,6.87-5.45,10.28-8.15,15.22-16.13,30.52-24.51,45.6-6,10.8-10.54,23.49-19.27,31.48-19.65,18-25.67,42.5-35.88,65.11-.23.52.66,1.54,1.66,3.7,3-3.84,5.81-6.77,7.92-10.12,11.43-18.12,24.19-35,43.66-45.21C505,257.08,512.17,236.23,511.74,214c-.29-15.07,1.55-28.82,6.9-42.6Z"/><path class="cls-2" d="M1341.1,50.08c-6.77,23.29-18.19,45.7-22.38,69.69,5.2,1.4,10.83-1.13,14.57-5,11.77-12.22,9.34-27.75,27-36.54s28.9-22.87,36.2-40.73c1.3-3.19,4-5.81,5.41-9,3.1-6.79,6.94-13.51,8.44-20.69.55-2.62,1.05-5.26,1.54-7.9h-37.48C1359.78,14,1347.11,29.4,1341.1,50.08Z"/><path class="cls-2" d="M977.3,221.18c-19.16,18.54-38.19,37.2-57.34,55.75-7.36,7.13-14.27,15-22.53,20.87-19.19,13.73-31.14,31.73-37.39,54.35-2,7.36-7.67,13.65-11,20.73-6.32,13.49-13.36,26.8-17.89,40.9-6,18.7-6.21,39-18.73,56-6.81,9.2-10.46,20.74-15.54,31.22l2.21,1.75c2.49-1.66,5.45-2.89,7.4-5,16.69-18.43,33.21-37,49.76-55.59.42-.47.58-1.19,1-1.63,9.15-9.25,18.42-18.37,27.42-27.75,4.55-4.73,10.45-9.25,12.58-15,10.33-28.15,19.47-56.74,29.36-85.06,1.76-5,5-9.59,7.74-14.24,5.86-9.89,11.77-19.74,17.84-29.5,5.69-9.14,11.45-18.23,17.47-27.15,5.1-7.57,10.61-14.85,15.94-22.26l-2.32-2.24C981.29,218.52,979,219.54,977.3,221.18Z"/><path class="cls-2" d="M1227.13,322.89c22.33-12.05,48-21,65.37-40.54,18.8-21.19,22.94-54.75,34-80.1,3.24-7.45,9.75-13.41,14.1-20.47,9.86-16,19.62-32.14,28.81-48.55,4.68-8.38,8.05-17.49,12-26.27L1380,106a41.31,41.31,0,0,0-4.65,4.07c-10.19,11.91-19.69,24.47-30.6,35.66a190.33,190.33,0,0,1-29.32,24.5c-10.72,7.26-21.19,14.08-27.68,25.89-3.83,7-8.34,14-14,19.45-10.6,10.24-16.87,22.39-20.16,36.45-.57,2.42-.9,5.5-2.52,7-24.52,22.26-45,55-60.6,84-1.53,2.85-3,6.4-1.32,9.15A149.07,149.07,0,0,1,1227.13,322.89Z"/><path class="cls-2" d="M1390.71,185.3c-7.06,6.19-15.37,11.25-20.63,19-3.93,5.81-5.86,12.7-7.73,19.46-8.32,30.13-17.79,57.45-17.66,88.91,4.1-6.26,7.83-12.77,11.67-19.21,5.91-9.95,11.93-20,20.17-28.13,9.8-9.67,22.25-16.09,33.84-23.51,10-6.43,20.29-13.51,29.28-21.65V108.72c-5.78,10.52-11,20.18-12.36,22.71C1417.05,150.45,1407.23,170.82,1390.71,185.3Z"/><path class="cls-2" d="M814.23,654.64c-21.89,0-59.83,38.14-61.94,63C763.93,713.66,803.28,673.3,814.23,654.64Z"/><path class="cls-2" d="M688,765.72c7.42-7.26,15.11-14.27,22.32-21.73,4.18-4.32,7.08-10,11.57-13.87,7.91-6.83,11.8-15.13,11.6-25.31-.4-21.36,6.79-40.12,18.53-57.58,2.49-3.7,3.77-8.22,6.68-14.77-4.84,2-7.31,2.27-8.68,3.65-16.82,17-36,32-46.74,54.37-10.23,21.25-23.64,39.25-43.79,53.36-15,10.51-29.84,22-40.45,37.15-3.41,4.87-7,9.82-9.49,15.22a33.84,33.84,0,0,0-2.46,7.42c-2.14,10.71-1.91,21.73-3.59,32.51-2.48,16-9.07,31-17.45,44.76-4,6.58-8.43,12.89-13.06,19h16.44a145.51,145.51,0,0,0,14.87-12.2c15.16-14.22,28.05-31.18,35.79-50.47,3.93-9.8,6.52-20.13,11.09-29.65s11.2-14.47,18.42-21.65C676,779.59,681.49,772.11,688,765.72Z"/><path class="cls-2" d="M635.09,886.58a79.45,79.45,0,0,1-7.4,13.36h6.92A40.07,40.07,0,0,0,635.09,886.58Z"/><path class="cls-2" d="M840.67,596.13c10.7-9.91,14.73-22,17.52-37-11.9,9.91-21.71,20.37-33.55,27.43-19.64,11.72-33.18,28.08-43.56,47.8-3,5.69-6.28,11.22-10.42,18.57,15.69-9.31,30.18-15.9,42.12-25.61C823.45,618.6,830.48,605.56,840.67,596.13Z"/><path class="cls-2" d="M872,623.62c8.88-4.94,17.43-10.51,26.49-15.1,7.2-3.66,14.73-8,22.5-9,11-1.37,24.63-1,34.62-6.36,16.7-9,33-18.38,47.61-29.64,16.45-12.63,32.35-27.31,43.9-44.65,12.88-19.34,10.61-38.25,16.06-59.63,2.07-8.13,6.12-16,12.57-21.33a5.48,5.48,0,0,0,1.75-1.93c.91-2.14-1.28-4.25-3.2-5.55a292.66,292.66,0,0,1-68.1,59.69c-21.86,13.67-41.56,34.34-58.66,53.66-11.17,12.62-21.8,25.56-40,30a56.13,56.13,0,0,0-26.71,15.71c-13.11,14.3-23.9,30.73-36.52,47.41,4.06-1.74,7.4-3,10.6-4.58C860.68,629.54,866.44,626.73,872,623.62Z"/><path class="cls-2" d="M2.36,37.49C1.44,38.31.54,39.14-.35,40v59.8c1.41-.89,2.8-1.79,4.17-2.73,22.76-15.58,39.4-38,53-61.63C62.85,24.87,68.12,11.93,74.63-.06H49C34.21,13.4,17.3,24.24,2.36,37.49Z"/><path class="cls-2" d="M802.62,778.87c-1.94,2.75-2.91,6.18-5.07,10.93,3.31-1.14,4.37-1.22,5-1.78q27.81-23.35,55.53-46.82c1.21-1,2-2.55,3.2-3.58,5.72-4.91,11.19-10.21,17.36-14.49,12.53-8.71,24.51-18.23,29-33.29,6.54-22.19,6.4-46.37,20.15-66.43.89-1.3.35-3.56.53-6.14-1.91.7-3.25.85-4.12,1.57-9.85,8.07-20.3,15.55-29.27,24.51-12.64,12.64-24.22,26.34-36.11,39.72-1.42,1.6-1.95,4-2.88,6-6.74,14.58-12.28,29.88-20.52,43.55C825.67,748.77,813.52,763.43,802.62,778.87Z"/><path class="cls-2" d="M447,817.85c15-15.67,18.68-32.58,28.24-51.15-4.08,1.5-6.4,2.13-8.52,3.17-11.7,5.73-23.45,11.4-35,17.45a83.34,83.34,0,0,0-14.16,9.45c-14.9,12.26-25.6,29.14-34.2,46.38-4.56,9.15-8.7,18.49-13.27,27.63-3.88,7.74-9.21,13.87-14.91,20.33-1,1.19-2.11,2.54-2.13,4.12-.09,7.14,7.24-2.21,8.32-3.66,3.34-4.53,8.07-8.27,12.22-12.07,9-8.23,18.56-15.7,27.8-23.62C416.88,843.64,433.24,832.18,447,817.85Z"/><path class="cls-2" d="M568.13,796.76a38.64,38.64,0,0,0-3.65,5.81c-3.11,6.2-4.9,13-7.16,19.52-7.12,20.75-19.17,36.64-32.61,53.48,9.43-1.4,18.48-10.64,25.47-16.62a120.93,120.93,0,0,0,21.64-24.36,118.75,118.75,0,0,0,14-28.36c1.65-4.9,2.11-10.54,4-15.27,2.19-5.4,6-10.76,8.82-16l-3.44-2.67C586.74,779.87,575.28,787.31,568.13,796.76Z"/><path class="cls-2" d="M341,852.16c-16.52,7.48-28.93,21.93-38.27,37.48-2,3.37-3.93,6.82-5.77,10.3h23.52A254.82,254.82,0,0,1,341,852.16Z"/><path class="cls-2" d="M211.59,895.61c16-11.73,33.73-21.58,46.54-37,23.27-28.09,26.37-69.25,50.45-96.66-18.36,12.1-37.2,24.67-49.49,42.9-4.78,7.1-8.45,14.9-13.32,21.93-6.75,9.76-15.65,17.8-23.34,26.85-9,10.54-15.42,22.16-21.32,34.59-.9,1.89-4.45,6.85-7.46,11.76h13C208.88,897.93,210.67,896.28,211.59,895.61Z"/><path class="cls-2" d="M267.1,892.62q-6.44,3.48-12.67,7.32H263Z"/><path class="cls-2" d="M1254.12,725.4c6.08-7.28,11.15-15.4,17.11-22.8,10-12.45,21.62-22.76,38.2-25.59a7.71,7.71,0,0,0,4-2.63c7.88-9,18.32-12.08,29.59-14.48,23.63-5,34.9-18.4,37.24-42.39a126.47,126.47,0,0,1,20.62-58.32c5.12-7.75,9.8-15.81,14.22-24,1.61-3,1.88-6.67,2.77-10-4.21,1.21-6.44,3.4-8.83,5.4-11.77,9.83-22.7,21-35.58,29.1-21.41,13.43-39.22,29.45-51.27,52-3.41,6.41-10.18,11.14-15.79,16.23-5.81,5.27-12.28,9.81-18.08,15.1a148.79,148.79,0,0,0-12.45,13.26c-5.61,6.55-12.1,12.7-16.21,20.13-13.14,23.75-25.42,48-37.84,72.11-1.67,3.24-2.21,7.06-3.27,10.61l4.25,2.24C1233.25,749.41,1243.93,737.61,1254.12,725.4Z"/><path class="cls-2" d="M510.54,752.06c18.76-22.69,45.4-35.5,67.42-54.07,1.91-1.61,4.94-1.88,6.82-3.5,6.38-5.5,12.74-11.07,18.63-17.1,5.48-5.61,9.27-13.62,15.67-17.44,21.11-12.61,31-32.2,38.77-54.22,4.43-12.58,11.62-24.17,17.32-36.33,5-10.76,9.73-21.69,14.58-32.55L684.5,533c-1.85,3.25-3.44,6.7-5.61,9.73-6,8.34-12.47,16.33-18.3,24.78-12.71,18.42-33.44,24.52-52.15,33-14.43,6.57-22.64,15.8-25,31.22-2,12.71-10,21.52-19.23,30.15-7.22,6.74-14.71,15.28-17.37,24.39-5.46,18.7-16,33.27-28.75,47.18-7.07,7.74-13.14,16.41-19.66,24.66l2.61,2.35C504.21,757.67,507.88,755.28,510.54,752.06Z"/><path class="cls-2" d="M495.51,727.4c6.75-7.48,14.56-15.22,17.84-24.31A105.65,105.65,0,0,1,531.65,671a38.66,38.66,0,0,0,2.88-4.64c-35.75,16.48-47.39,51.56-65.19,81.92.73.79,1.47,1.57,2.2,2.35C479.58,742.91,488.09,735.64,495.51,727.4Z"/><path class="cls-2" d="M947.83,895.41c-5.2-3.25-11.17,0-16,4.53h12.71Z"/><path class="cls-2" d="M463.08,887.66c17.42-14.58,35.61-28.39,51.63-44.55,15.74-15.88,28.74-36.11,39.74-55.32,11.88-20.74,23.65-39.3,29.47-63,.55-2.22.08-4.7.08-7.06l-2.22-1.55c-9.43,8.79-18.73,17.72-28.32,26.33-10.39,9.33-20,20.32-31.88,27-15.8,8.87-27.83,17.86-36.83,33.9-8.57,15.3-13.82,32.2-22.88,47.27-8,13.39-20.38,23.69-29.26,36.56a126.6,126.6,0,0,0-7.54,12.67h23.6C453.4,895.78,458.22,891.72,463.08,887.66Z"/><path class="cls-2" d="M750.84,841.78c7.07-15.64,13-31.73,19.95-47.41,6.07-13.78,14.19-27.12,20.57-41,6.37-13.67,11.55-27.95,18.68-41.19,7.74-14.36,16.48-28.15,30.23-38.18,7.25-5.29,14.68-11.61,15.43-23.78-3.74,2.14-5.66,3.26-7.6,4.34-22.79,12.74-37.09,34.28-54.78,52.34-7.9,8.06-17,16.46-27.18,20.37-12.11,4.64-21.23,11.3-28.86,21.14A126.42,126.42,0,0,1,726,761.58c-11.94,11.71-25.66,22.53-35.72,35.64-6.61,8.62-11.64,18.22-13.56,29.72-2.13,12.77-1.86,25.85-4.1,38.6-2.11,12.05-6.39,23.43-11.78,34.4H711.2c10.39-10.72,20.16-22,27.82-34.75A226,226,0,0,0,750.84,841.78Z"/><path class="cls-2" d="M382,899.94h15.24c2.68-7.83,5.61-15.51,10.51-22.11C398.85,884.81,390.27,892.21,382,899.94Z"/><path class="cls-2" d="M881,750.8c-4.25,11.54-34.25,30.49-43.51,41-4.89,5.58-10.06,11-15.15,16.43A223.63,223.63,0,0,0,806,827.46c-12.6,17-24.72,34.15-35.2,52.56a105.52,105.52,0,0,0-8.95,19.92h47.12a293.09,293.09,0,0,0,20.41-29.54C852.08,832.47,865.8,792.15,881,750.8Z"/><path class="cls-2" d="M1321.47,744.84c-7,16.67-13.81,33.42-21.17,51.32,2.73-1.57,4.64-2.45,6.31-3.66,11.66-8.44,22.74-17.81,35-25.2,12.93-7.77,19.51-18.51,22.56-32.86,1.46-6.86,5.73-13.14,8.82-19.64,5.64-11.87,11.35-23.71,17-35.56l-2-1.76c-5.77,4.69-12,8.93-17.21,14.17-15.53,15.55-26.31,35.59-45.37,47.86A12.08,12.08,0,0,0,1321.47,744.84Z"/><path class="cls-2" d="M1122,899.94h5a71.9,71.9,0,0,1,2.24-8.38C1126.78,894.32,1124.36,897.12,1122,899.94Z"/><path class="cls-2" d="M97.27,21.34c3.31-1.13,4.37-1.21,5-1.76Q114.06,9.79,125.75-.06H110.06c-2.59,3.48-5.17,7-7.68,10.49C100.43,13.17,99.45,16.6,97.27,21.34Z"/><path class="cls-2" d="M1205.22,878.67c8.49-4.11,14.79-13.6,20.88-21.55,6.79-8.86,10.45-20.85,18.62-27.74,13.43-11.35,20.93-26,30.73-39.71,16.14-22.54,19.1-52.07,40.45-71.41,5.33-4.83,8.84-11.7,13-17.75a79.46,79.46,0,0,0,4.14-7.6l-2.39-2.34c-5.74,4.17-11.94,7.84-17.12,12.63-8,7.35-15.36,15.35-22.73,23.33-3,3.26-5.29,7.19-8,10.78-13.56,18.29-26.66,37.26-49.14,45.72-11.08,4.17-19.68,11-25.73,20.74-7.91,12.76-15.25,25.9-22.44,39.09q-15.51,28.44-30.65,57.08h17.55A148,148,0,0,1,1205.22,878.67Z"/><path class="cls-2" d="M680.83,8.18c2.26-2.78,4.54-5.51,6.8-8.24H672c-2.4,10.65-4.34,21.5-6.63,32.25C671.18,24.7,674.72,15.67,680.83,8.18Z"/><path class="cls-2" d="M971.47,52.65c-4,9.41-8.81,18.43-13.7,28.5,13.48-12.4,27-24.68,39.65-37.69,13.05-13.41,25.2-27.61,35.56-43.52H986a80.5,80.5,0,0,0-7.65,30.26C978.05,37.78,974.49,45.42,971.47,52.65Z"/><path class="cls-2" d="M283,60.84l3.25,2c2.06-2.22,4.42-4.23,6.15-6.69C306,36.89,321.6,19.73,341.44,6.53a48.87,48.87,0,0,0,7.77-6.59H314c-1.74,4.59-3.54,9-5.51,13.2C300.83,29.43,291.56,45,283,60.84Z"/><path class="cls-2" d="M1244.94,899.94H1293a92.45,92.45,0,0,1,28.9-23.8c7.66-4,15.58-7.51,23.48-11,10.94-4.86,17.91-12.79,21.51-24.38a119,119,0,0,1,10-22.48c6.86-12.26,14.63-24,21.63-36.2a27.75,27.75,0,0,0,3.29-11c1.3-13.51,6.9-25,14.26-36.23S1429,711,1435.35,699l-2.58-2c-4.44,4.65-9.17,9.07-13.28,14-19.85,23.81-40.23,47.21-59,71.84-10.82,14.2-23.12,25.37-39.24,32.85-11.61,5.39-24,10.19-33.88,18C1265.82,850.78,1252.31,873.73,1244.94,899.94Z"/><path class="cls-2" d="M471.67,46.48c-9.4,15.36-20.31,29.8-30.55,44.65l3,2.38c2.3-2,4.86-3.73,6.84-6,15.6-17.72,33-33.08,54.16-44.05,5.59-2.9,10.62-7.31,15.1-11.83C530.31,21.47,540.07,11,549.17-.06H495.52C486.94,15.45,480.12,32.66,471.67,46.48Z"/><path class="cls-2" d="M575.72,99.71c-3.6,10-10.11,18.92-15.42,28.26-3,5.23-6.94,10-9.11,15.55-3.84,9.77-6.66,19.94-9.89,29.95-1.26,3.88-2.49,7.77-3.73,11.66l2.84,1.29c2.79-4,5.38-8.27,8.42-12.12,7.72-9.82,14.35-21.06,23.8-28.82,14.66-12,24.08-27.15,33.11-43.17,4.62-8.19,11.33-15.19,17.14-22.69,6-7.75,15.25-14.66,17.44-23.36C645,38,644.19,20.35,645.25,2.05c0-.71.1-1.41.16-2.11H610.2c-4,11.24-8.88,22-12.9,33.21C589.44,55.1,583.64,77.79,575.72,99.71Z"/><path class="cls-2" d="M1204.12,660.86c11.09-16.87,18.17-36.38,27.73-56.31-29,12-51.22,41.68-66.61,88C1181,683.79,1195.29,674.3,1204.12,660.86Z"/><path class="cls-2" d="M1243.15,643.1c7.26-12,17.72-19.8,30.21-25.78A55.05,55.05,0,0,0,1300,590.53c5.85-12.47,14.83-22.21,25.46-30.89A53.76,53.76,0,0,0,1338,544.16c5.1-9.24,9.17-19.07,13.28-28.81,2.94-7,5.25-14.19,7.84-21.3l-2.62-1.74c-9.61,10.52-19,21.21-28.88,31.49-5.7,5.94-11.26,12.81-18.33,16.47-15,7.78-24.82,19.3-32.55,34.07-7.06,13.49-16.78,25.56-24.67,38.65-7.46,12.37-14.06,25.25-21,37.91l3.81,2.71C1237.64,650.13,1240.86,646.89,1243.15,643.1Z"/><path class="cls-2" d="M630.82,556.84C653,538.38,675.13,519.93,697,501.16a41,41,0,0,0,10.13-12.61c11.27-23,25.23-43.48,48.67-55.68,7.66-4,15.58-7.52,23.48-11,10.94-4.87,17.91-12.79,21.51-24.39a118.94,118.94,0,0,1,10-22.47c6.86-12.27,14.63-24,21.63-36.21a27.86,27.86,0,0,0,3.29-11c1.3-13.52,6.9-25,14.26-36.24s12.91-23.84,19.25-35.84l-2.57-2c-4.45,4.65-9.17,9.06-13.28,14-19.85,23.8-40.23,47.21-59,71.84-10.82,14.19-23.12,25.36-39.24,32.85-11.61,5.39-24,10.18-33.88,18-22.54,17.87-36.31,42.15-43.43,69.88-7.59,29.61-23.44,54.49-42.22,78-5.8,7.24-10.7,15.18-16,22.81l2.09,1.86C624.74,560.92,628,559.17,630.82,556.84Z"/><path class="cls-2" d="M1389.41,427.5c3.8-3.45,7.45-7,10.91-10.73a146.33,146.33,0,0,0,20.22-27.2c6.93-12.12,12.28-24.47,19.11-35.73v-22.1c-.62.6-1.24,1.2-1.85,1.81-8,8-15.47,17-25.42,22.48-7.58,4.16-16.37,6.1-23.25,11.33-4.48,3.4-7.9,8-10.75,12.9-9,15.42-10.08,33.54-14.25,50.54-.88,3.59-13.21,34.71-15.8,32.89l3.4,2.39C1352.8,466.83,1385.47,431.07,1389.41,427.5Z"/><path class="cls-2" d="M1409.52,630.54l3,1.43c8.85-9.56,17.5-19.32,26.62-28.62l.55-.55V566.17c-4.57,8.37-9.16,16.74-13.48,25.25-4.6,9.09-8.63,18.47-12.72,27.81C1411.86,622.88,1410.82,626.76,1409.52,630.54Z"/><path class="cls-2" d="M1415.16,816.16c-6.31,13.48-13.36,26.8-17.89,40.9s-5.76,29.1-11.45,42.88h23.54q6.51-7.29,13-14.6c.42-.47.59-1.18,1-1.62,5.41-5.47,10.85-10.89,16.26-16.35V765.44a102,102,0,0,0-13.5,30C1424.11,802.78,1418.48,809.07,1415.16,816.16Z"/><path class="cls-2" d="M1420.46,498.28a47.61,47.61,0,0,0,19.19-17.22v-75c-9.86,7.06-18.61,16-23.2,27.22-6.66,16.3-15.67,31.75-22,48.33-4.43,11.67-9.9,22-19,30.69-7.81,7.48-11.4,16.48-10.29,23.09C1380.22,517.58,1400,507.67,1420.46,498.28Z"/><path class="cls-2" d="M1096.93,772.89c4.27-9.28,12.34-14.76,21.54-19.66,6.69-3.57,14-10.28,16.23-17.15,10.13-31.34,18.22-63.34,27.85-94.86,2.38-7.77,8.17-14.43,11.69-21.94,8-17,15.85-34.15,23.11-51.5,3.71-8.85,6-18.29,9-27.46l-1.45-.78a42.68,42.68,0,0,0-4.16,4.57c-8.77,13-16.78,26.54-26.36,38.9A189.49,189.49,0,0,1,1148,610.68c-9.83,8.43-19.45,16.38-24.56,28.86-3,7.36-6.7,14.82-11.71,20.91-9.36,11.37-14.21,24.16-15.89,38.5-.29,2.47-.27,5.57-1.71,7.22-12.55,14.3-16.43,31.69-17.7,49.8-1.2,17.08-7.83,31.17-18.86,44.21-7.5,8.88-12.67,19.74-18.89,29.72l2.59,1.69C1060.7,812.9,1084.92,799,1096.93,772.89Z"/><path class="cls-2" d="M1399.08,710.67a23.78,23.78,0,0,0,3.37-4.61c7.84-15.81,18.77-27.72,36.28-33.6.31-.1.62-.23.92-.36V631c-8.87,8.46-16.59,17.87-23.9,27.21-11,14.06-13.71,34.62-20.47,53.31C1397.91,711,1398.76,711.05,1399.08,710.67Z"/><path class="cls-2" d="M1116.3,486.58c6.93-3.5,14.33-6.38,20.2-11.46,4.76-4.11,8.26-9.45,11.7-14.72,6.37-9.75,13.79-17.13,15.63-28.55,2-12.18,1.94-21.08,11.35-30.49,2.74-2.69,5.84-5.14,7.68-8.51s2-8-.78-10.64c-14.82,13.52-26.21,31.8-42.13,43.84-18.14,13.73-42.33,21.57-53.12,41.6-4.29,8-5.88,16.93-7.74,25.68-2.48,11.64-6,24-12.1,34.41C1080.81,511.71,1097.24,496.19,1116.3,486.58Z"/><path class="cls-2" d="M884.85,557.28c16.42-12.11,34.54-22.26,49.24-36.56,13.14-12.78,20.2-33.93,36.53-42.77,9.25-5,17.51-12.19,25.55-19.52,4.37-4,8.68-8,13-11.76,13.61-11.7,26.52-24.42,36.55-39.39,5.93-8.85,10.81-18.38,16.93-27.09,8.41-12,19-22.23,28.45-33.45,10.65-12.7,19.74-26.63,28.79-40.52,7.47-14.92,18.87-29.06,28.36-42.8,1.09-1.58,2.23-3.29,2.21-5.21a4.85,4.85,0,0,0-4.1-4.6c-7.34,6.73-14.42,14.6-22.22,20.7s-17.94,10.3-26.83,14.7c-11.87,5.87-24.14,11.12-35.06,18.62-9.67,6.64-18.09,14.91-26.38,23.22-32.74,32.82-82.4,71.57-92.32,119.29-2.5,12-6.4,24.5-12.85,34.79-9.09,14.53-21.36,27-31.81,40.77-7.2,9.45-16.18,18.13-17.33,31.36C883.08,557.19,884.3,557.68,884.85,557.28Z"/><path class="cls-2" d="M1009.73,760.33c-8.69,9.88-19.87,15.53-29,24.9-12.48,12.77-11.79,24-12.72,40.95-1,18.78-12.09,35.36-23.23,50.5,16.69-14.15,33.48-28.39,47.6-45.11s25.57-36.22,29.94-57.66c1.91-9.36,2.46-19,5.39-28.1A56.12,56.12,0,0,1,1043,721.87l5.56-3.33a24.79,24.79,0,0,0-19.83,7.15C1019.22,735.32,1018.66,750.19,1009.73,760.33Z"/><path class="cls-2" d="M837.94,540.45c5.06-4.45,12.37-6.3,18.61-9.44,22.91-11.51,32.61-33.49,43.24-54.72,5.29-10.56,10.74-21.05,15.56-31.82,4-8.93,7.17-18.23,10.71-27.37l-3.67-2.16c-2.87,3.59-5.82,7.12-8.6,10.77-10.27,13.48-19.26,28.29-34.67,36.74-9.8,5.38-18,11.14-21.56,22.87-1.57,5.17-7.15,10.56-12.27,12.94-14.79,6.88-27.06,15.66-32.93,31.55-.32.86-1.19,1.51-1.72,2.31-8.8,13.35-18,26.45-26.23,40.15-4.64,7.75-7.63,16.48-12.58,27.48,5.21-4,8.33-6.13,11-8.63C801.21,574.21,819.2,556.89,837.94,540.45Z"/><path class="cls-2" d="M968.23,610.62c-13.87,13.41-23.73,29.13-27.77,48.57-2.44,11.75-6.63,23.29-11.31,34.39-4.22,10-10.18,19.28-15.37,28.87,19-13.66,39-25.85,48.77-48,7.61-17.21,20.39-17.19,35.3-23.47l.41-.17c14.92-6.39,26.47-19.42,35.27-32.68,11.21-16.89,19.52-35.78,32.54-51.33,9.7-11.58,22.35-22,25.59-36.76-21.58,6-36.94,24.68-55.93,36.59C1012.59,581.09,988.14,591.39,968.23,610.62Z"/><path class="cls-2" d="M1048.88,694.56a15.14,15.14,0,0,1,1.86-2.77c5.23-5.56,12.22-9,18.78-13,4.86-2.9,10.42-6.36,13.65-11.14,2.79-4.12,3.2-10.14,4.21-15,2.91-13.92,2-27.92,3.37-41.94,1.45-14.45,6.45-28.27,12.72-41.28,7.27-15.12,16.25-29.35,23.84-44.31,1.62-3.2,2-7.81-2.56-8.11-15.36,22.22-31.13,44.87-44.31,68.48-6,10.71-11.25,18.68-13,31.46-1.67,12.26-1.5,24.91-6.1,36.58-3.56,9-9.36,16.91-13.89,25.44-4.37,8.23-5.72,17.12-8.74,25.55C1043.1,706.64,1046.27,699.22,1048.88,694.56Z"/><path class="cls-2" d="M971.53-.06h-25c-12.06,13.53-25.76,25.78-37.9,39.53-5.72,6.47-10.84,14.21-13.71,22.27-5,14.15-8,29-12.08,43.5-.76,2.7-2.48,5.15-3.83,7.67-6.31,11.74-12.88,23.35-18.9,35.24-4.6,9.08-8.63,18.47-12.72,27.81-1.59,3.64-2.64,7.52-3.93,11.3l3,1.44c8.85-9.56,17.5-19.32,26.62-28.62,10-10.18,20.65-19.67,30.51-30,6-6.29,12.27-12.88,16.32-20.45,4.94-9.23,7-20,11.54-29.46,7.79-16.07,17-31.47,24.84-47.49,4.59-9.33,11.48-19.34,14.42-29.11C971,2.4,971.27,1.18,971.53-.06Z"/><path class="cls-2" d="M547.12,97.24c3.09-6.78,6.93-13.51,8.43-20.68,4-19.1,5.54-38.76,18.43-55,3.54-4.46,5.24-10.39,7.79-15.64l-2.26-1.57C564.44,14.45,547.7,22.5,540.76,41.73c-2.11,5.85-5,12.26-9.54,16.26-19.3,17.18-37.38,34.81-44.94,60.81C481.64,134.75,475,150.11,470,166c-4.12,13-7.19,26.36-10.74,39.55-1.14,4.25-2.33,8.5-3.5,12.74l5.4,2.22c6.47-13.69,14-27,19.09-41.19,5-14,12-25.75,25.23-32.34,17.74-8.81,28.89-22.87,36.19-40.73C543,103,545.68,100.4,547.12,97.24Z"/><path class="cls-2" d="M1430.54,31c-3.6,10-10.11,18.91-15.42,28.26-3,5.23-6.95,10-9.12,15.54-3.84,9.77-6.65,20-9.89,30-1.25,3.88-2.48,7.77-3.72,11.65l2.84,1.29c2.79-4,5.37-8.26,8.41-12.12,7.73-9.81,14.36-21,23.81-28.82a100.05,100.05,0,0,0,12.2-12V3.23C1436.78,12.54,1433.85,21.84,1430.54,31Z"/><path class="cls-2" d="M599.13,249.31c15.77-8.8,30-18.29,38.88-31.73,11.08-16.87,18.17-36.37,27.73-56.31C636.73,173.24,614.52,203,599.13,249.31Z"/><path class="cls-2" d="M239.17-.06c-1.8,7.07-1.84,14.67-2.35,23.89-1.07,19.51-12.56,36.73-24.14,52.46C230,61.59,247.47,46.8,262.14,29.43A163.48,163.48,0,0,0,282.2-.06Z"/><path class="cls-2" d="M783,12.08c-.88,3.58-13.22,34.7-15.81,32.88l3.41,2.39c1.06.75,33.74-35,37.68-38.58Q813,4.5,817.39-.06H785.58C784.8,4,784,8.08,783,12.08Z"/><path class="cls-2" d="M475.69,87.36c-23,25.8-50.5,44.35-70.55,72.17a142.26,142.26,0,0,0-10.55,17c-6.92,13.19-12.4,27.31-21.53,39.09-11,14.16-26.57,24-39.07,36.85-5.19,5.33-9.93,12.18-8.09,20,15-20.39,44.46-29.75,66.11-41.56,16.11-8.78,31.43-19.63,42.66-34.14,13-16.8,12.87-33.36,17.8-52.48,5.07-19.64,16-40.45,28.11-56.62,1.22-1.63,1.84-3.71,2.73-5.58C479.72,83,477.66,85.15,475.69,87.36Z"/><path class="cls-2" d="M291.54,107.32c-5.17,7.79-9.27,16.51-11,25.72-1.82,9.84-.54,17.47-8.83,25-11,10-17.14,21.55-18.31,36.39-2.45,30.87-40.53,60.94-59.55,83-1.61,1.87-3.33,4.2-2.61,6.55a2.72,2.72,0,0,0,2.6,2,4.24,4.24,0,0,0,2.47-1.58c8-8.39,17.06-16.44,28.2-20,3.41-1.08,7.05-1.75,10.05-3.7,2.68-1.75,4.63-4.39,6.44-7a244.51,244.51,0,0,1,58.77-59.58c4.93-3.49,9-8.87,12-14.17,7.1-12.52,14.44-25.36,20.9-38.16l.39-.78c6.47-12.88,7.15-27.8,8.77-41.82a301.22,301.22,0,0,1,16.41-69q-18.78,23.94-39.83,46C309,86.21,299.1,95.91,291.54,107.32Z"/><path class="cls-2" d="M634.59,100.83c-8.77,13-16.79,26.55-26.36,38.9a190,190,0,0,1-26.35,27.67c-9.83,8.43-19.45,16.39-24.56,28.86-3,7.36-6.7,14.83-11.71,20.91-9.37,11.38-14.22,24.16-15.89,38.5-.29,2.47-.27,5.57-1.71,7.22-12.55,14.3-16.43,31.69-17.7,49.8-1.2,17.08-7.83,31.17-18.86,44.21-7.51,8.89-12.68,19.75-18.89,29.72l2.59,1.69c19.43-18.69,43.66-32.62,55.66-58.7,4.27-9.27,12.35-14.76,21.55-19.66,6.69-3.57,14-10.28,16.23-17.15,10.13-31.34,18.22-63.34,27.85-94.86,2.37-7.77,8.17-14.43,11.68-21.93,8-17,15.85-34.16,23.12-51.51,3.71-8.85,6-18.29,9-27.46l-1.45-.78A41.56,41.56,0,0,0,634.59,100.83Z"/><path class="cls-2" d="M828.38,38.37c-4.43,11.67-9.9,22-19,30.69-7.81,7.48-11.41,16.49-10.29,23.09,15-17.85,34.72-27.76,55.22-37.15,7.91-3.62,15.57-10.9,19.95-18.47,8.83-15.25,21.35-25.31,34.26-36.59H846C840.1,12.7,833.38,25.18,828.38,38.37Z"/><path class="cls-2" d="M1061.3-.06h-3.59a15,15,0,0,0,.39,4C1059.1,2.52,1060.17,1.21,1061.3-.06Z"/><path class="cls-2" d="M1190.16,14.19c-3.4,2.47-7.06,4.56-10.59,6.84-20.77,13.36-36.72,33.24-56.22,48.42C1109.42,80.29,1094,89,1079.7,99.4a224.86,224.86,0,0,0-72.48,89.79c-2.79,6.29-7.76,9.64-6.4,16.39,4.82-1.76,7.65-6.6,10.51-10.85,17.28-25.72,47.25-39.29,75.55-51.89S1145,116,1161.3,89.62c10-16.19,14.14-35.93,26.59-50.33,3.5-4,7.61-7.61,10.49-12.13,3.33-5.07,3.19-10.83,5.64-15.91,2-4.2,5.29-7.83,8.64-11.31H1204c-.26.37-.51.73-.77,1.08A58.67,58.67,0,0,1,1190.16,14.19Z"/><path class="cls-2" d="M1133.35,33.71c1.51,1.43,4.06,1.15,5.78,0s2.83-3,4-4.76c7.22-10.78,17.91-18.78,25.9-29h-10.81C1151.48,12.09,1143.94,23.38,1133.35,33.71Z"/><path class="cls-2" d="M80.77,99.82c-7.46,13.08-14.85,26.29-22.61,39.36-7.22,12.15-11.22,26.2-16.75,39.37-3.25,7.74-6.7,15.4-10.06,23.09l4,2.3c8.79-10.9,17.5-21.86,26.4-32.66,4.44-5.4,9.07-10.67,13.9-15.71,3.76-3.92,8.26-7.13,11.94-11.11,17.12-18.52,37.41-32.88,59.25-45.14,11-6.18,21.83-12.31,27.22-24.69,2.93-6.73,6.64-13.13,9.33-19.95,3.36-8.52,4.59-18.21,9.3-25.81,6.16-9.94,13-19.44,19.93-28.93H166.16c-.56,1.15-1.09,2.32-1.59,3.52-6,14.64-16.58,24.93-29.49,31.81C108.08,49.64,94.61,75.55,80.77,99.82Z"/><path class="cls-2" d="M997.18,80.72c-7.33,8.5-12.94,16-22.51,22.42-10.28,6.87-21.24,13.23-25.93,26.12-5.33,14.66-11.13,29.19-17.41,43.48-5.12,11.65-11.85,22.62-16.79,34.34-6.33,15-11.64,30.49-17.23,45.82-1.3,3.54-1.95,7.32-2.9,11,6.79-5.2,11.21-11.34,16-17.17,6.3-7.62,14.82-14.07,18.92-22.68,5.69-11.95,13.56-20.81,24.56-27.31a80.73,80.73,0,0,0,24.82-22.8c6.55-9.25,9.23-20.06,16.84-28.37,22.33-24.39,46.64-48.85,66.77-75,16.16-21,31.43-43.34,52.67-59.21,2.71-2,5.58-4,7.34-6.92a9.55,9.55,0,0,0,1.37-4.47H1111.8c-16.24,8-32.34,16.44-46.55,27.65s-26.48,24.72-41.81,34.49C1014.22,68,1004.44,72.29,997.18,80.72Z"/></g></svg>