<svg xmlns="http://www.w3.org/2000/svg" viewBox="0 0 1440 900"><defs><style>.cls-1{fill:#303c78;}.cls-2{fill:#c96;}</style></defs><title>Wunderkind_Patterns_WEB-Cropped</title><g id="Backgrounds"><rect class="cls-1" width="1440" height="900"/></g><g id="Color"><path class="cls-2" d="M1064.43,355.26C993,353.33,921.27,355,849.7,356c-21.66.29-43.32,1.32-64.89,2-23.08.73-46.83-1.19-69.94-1.69-22.89-.58-45.79-.92-68.69-1.29q-17.52-.28-35-.52c-12.24-.17-23.34-.48-35.75.39-20.1,1.41-40.17.24-60.32-.08-23.22-.37-46.45-.66-69.67-.67-24.12,0-48.25.3-72.35,1.14-125.32,4.39-245.85,4.28-373,3v4.6c21.18.31,42.36.63,63.59.84,97.32.95,194.31-.37,291.44-3.19,82.52-2.4,165.1.4,247.46-2.14,10.81-.33,21.62-.66,32.43-.42,10.25.24,20.47,1,30.7,1.66,47.13,3.05,94,2.88,141.24,3,22.47,0,45.3-2.08,67.85-2.78q34.82-1.08,69.67-1.22c46-.22,92,.6,138,1.94,97.13,2.82,194.12,4.14,291.44,3.19,22.06-.22,44.13-.83,66.2-1.53v-5.92C1317.19,358.78,1193,358.73,1064.43,355.26Z"/><path class="cls-2" d="M906,392.14c-34.34-.2-68.69,0-103-.2-24.25-.11-48.51-.36-72.76-.55a9.27,9.27,0,0,0-1.57-.15l-9.94.07-9.93-.07a9.27,9.27,0,0,0-1.57.15c-24.25.19-48.51.44-72.76.55-34.34.16-68.69,0-103,.2-75.69.45-151.38.83-227.06,1.6-101.45,1.05-202.89,2.83-304.34,3.7v5.82q79.14-.31,158.28-1.79C291,399,423.76,398.22,556.49,397c35.49-.33,71,.6,106.48.52,18.59,0,37.18-.56,55.76-1,18.59.45,37.18,1,55.77,1,35.49.08,71-.85,106.48-.52,132.73,1.24,265.48,2.06,398.17,4.49q80.46,1.47,160.89,1.8v-5.81c-102.31-.86-204.63-2.66-307-3.72C1057.41,393,981.72,392.59,906,392.14Z"/><path class="cls-2" d="M1438.61,280.19c-61.1.55-122.17,3-183.25,4.35-19.79.45-39.6.35-59.4.19-72.2-.56-144.39-1.44-216.59-1.85-54.15-.3-108.3-.05-162.44-.06q-38.31,0-76.6-.07H710.48q-6.68,0-13.34,0l-76.6.05c-54.14,0-108.29-.24-162.44.06-72.2.41-144.39,1.29-216.59,1.85-19.8.16-39.61.26-59.4-.19-30.87-.68-61.76,1.64-92.85.66-22.91-.72-45.69-3.44-68.53-5.24-7-.55-13.86-.73-20.69-.73v5.31c24.79.93,49.66,2.7,74.29,3.93,18.57.93,37.24,1.35,55.86,1.24,132.18-.8,264.35-2,396.53-2.62,38.4-.19,76.82,1.37,115.23,1.37,25.6,0,51.19-.73,76.78-1.37,25.6.64,51.19,1.37,76.79,1.37,38.41,0,76.83-1.56,115.23-1.37,132.18.65,264.35,1.82,396.53,2.62,18.62.11,37.29-.31,55.86-1.24q38.44-1.92,76.9-3.13v-5.16Z"/><path class="cls-2" d="M1042.13,319.82q-102.18-.26-204.36-.51-55.87-.1-111.77.07c-2.42,0-4.84.13-7.27.3-2.42-.17-4.84-.3-7.26-.3q-55.89-.18-111.77-.07-102.18.19-204.36.51c-117.61.3-235.23,1.19-352.84.73q-21.22-.09-42.46-.21v4.91c71.78.54,143.56,1.05,215.33,1.05,85.6,0,171.19-.8,256.78-1.39q123.3-.87,246.58-2,123.3,1,246.59,2c85.59.59,171.19,1.38,256.78,1.39,72.65,0,145.29-.52,217.94-1.07v-4.91q-22.53.14-45.07.23C1277.36,321,1159.74,320.12,1042.13,319.82Z"/><path class="cls-2" d="M1073.58,428.57c-65.74-.65-131.53.33-197.29,1-38.4.41-76.78,1.94-115.18,2.45-12.36.17-24.73-.67-37.11-1.17a9.41,9.41,0,0,0-2.3-.27l-3,.09c-1,0-2-.07-3-.09a9.41,9.41,0,0,0-2.3.27c-12.38.5-24.75,1.34-37.11,1.17-38.4-.51-76.78-2-115.18-2.45-65.76-.7-131.55-1.68-197.29-1-88.48.88-176.91,3.52-265.38,4.78Q49.28,434,0,434.29v5.78c87.78-.55,175.53-3.42,263.31-4.51q134.43-1.65,268.9-1.71c29.66,0,59.3,2.47,89,2.65,32.5.2,65-.74,97.51-1.33,32.51.59,65,1.53,97.52,1.33,29.67-.18,59.31-2.69,89-2.65q134.44.21,268.9,1.71c88.65,1.1,177.28,4,265.92,4.52v-5.77q-50.54-.29-101.08-1C1250.49,432.09,1162.06,429.45,1073.58,428.57Z"/><path class="cls-2" d="M1073.58,205.87c-65.74-.66-131.53.32-197.29,1-38.4.41-76.78,1.94-115.18,2.46-8.29.11-16.58-.23-24.85-.62-9.69-.44-18.69-.76-28.35-.31-10.51.48-21,1.07-31.55.93-38.4-.52-76.78-2-115.18-2.46-65.76-.7-131.55-1.68-197.29-1-88.48.87-176.91,3.51-265.38,4.77q-49.23.71-98.47,1v5.77c87.78-.55,175.53-3.42,263.31-4.5q134.43-1.67,268.9-1.71c29.66-.05,59.3,2.46,89,2.65,32.5.19,65-.74,97.51-1.34,32.51.6,65,1.53,97.52,1.34,29.67-.19,59.31-2.7,89-2.65q134.44.19,268.9,1.71c88.65,1.09,177.28,4,265.92,4.52V211.6q-50.54-.28-101.08-1C1250.49,209.38,1162.06,206.74,1073.58,205.87Z"/><path class="cls-2" d="M1222.1,576.59c-85.59,0-171.19.79-256.78,1.39q-123.3.85-246.58,2-123.3-1-246.59-2c-85.59-.6-171.18-1.39-256.78-1.39-71.77,0-143.55.5-215.33,1v4.92q21.23-.12,42.46-.22c117.61-.46,235.23.44,352.84.73q102.18.26,204.36.51,34.06.07,68.13,0c14.66,0,29.35-.43,44,.63,11.68.85,22.82-.69,34.6-.67q45.69.11,91.37,0,102.18-.18,204.36-.51c117.61-.29,235.23-1.19,352.84-.73q22.54.09,45.07.23v-4.91C1367.39,577.1,1294.75,576.59,1222.1,576.59Z"/><path class="cls-2" d="M241.51,26.53c72.2.57,144.39,1.45,216.59,1.85,54.15.31,108.3.06,162.44.07q38.31,0,76.61.06h43.18l76.6-.05c54.14,0,108.29.24,162.44-.07,72.2-.4,144.39-1.28,216.59-1.85,19.8-.15,39.61-.25,59.4.2,30.87.68,61.76-1.64,92.85-.67,22.91.72,45.69,3.44,68.53,5.24,7.88.62,15.61.78,23.3.73V26.82c-25.65-.89-51.41-2.75-76.9-4-18.57-.93-37.24-1.35-55.86-1.23-132.18.79-264.35,2-396.53,2.62-38.4.18-76.82-1.37-115.23-1.37-25.6,0-51.19.73-76.78,1.37-25.6-.64-51.19-1.38-76.79-1.37-38.41,0-76.83,1.55-115.23,1.37-132.18-.65-264.35-1.83-396.53-2.62-18.62-.12-37.29.3-55.86,1.23Q37.19,24.65,0,25.85v5.21c60.71-.57,121.38-3,182.07-4.33C201.9,26.28,221.71,26.38,241.51,26.53Z"/><path class="cls-2" d="M881,137c-35.49.33-71-.6-106.48-.52-18.59.05-37.18.56-55.76,1-18.59-.45-37.18-1-55.77-1-35.49-.08-71,.85-106.48.52-132.73-1.24-265.48-2.06-398.17-4.49Q79.16,131.06,0,130.71v5.83c101.45.86,202.89,2.65,304.34,3.69,75.68.78,151.37,1.16,227.06,1.6,34.34.21,68.69,0,103,.2q25.18.12,50.37.37c9.89.08,19.77-.1,29.66-.27,9.22-.15,18.19.44,27.32.36,20.4-.17,40.79-.36,61.18-.46,34.34-.16,68.69,0,103-.2,75.69-.44,151.38-.82,227.06-1.6,102.32-1,204.64-2.86,307-3.72v-5.8q-80.43.3-160.89,1.79C1146.46,134.93,1013.71,135.75,881,137Z"/><path class="cls-2" d="M905.22,100.12c-29.66,0-59.3-2.47-89-2.65-32.5-.2-65,.74-97.51,1.33-32.51-.59-65-1.53-97.52-1.33-29.67.18-59.31,2.69-89,2.65q-134.44-.2-268.9-1.71C175.57,97.33,87.82,94.46,0,93.9v5.78q49.25.28,98.47.95c88.47,1.26,176.9,3.9,265.38,4.77,65.74.65,131.53-.33,197.29-1,38.4-.41,76.78-1.94,115.18-2.46,8.29-.11,16.58.23,24.85.61,9.69.45,18.69.76,28.35.32,10.51-.49,21-1.07,31.55-.93,38.4.52,76.78,2,115.18,2.46,65.76.69,131.55,1.67,197.29,1,88.48-.87,176.91-3.51,265.38-4.77q50.54-.72,101.08-1V93.89c-88.64.51-177.27,3.43-265.92,4.52Q1039.69,100.07,905.22,100.12Z"/><path class="cls-2" d="M906,169.43c-34.34-.2-68.69,0-103-.2-16.79-.07-33.58-.22-50.37-.36-9.89-.08-19.77.09-29.66.26-9.22.16-18.19-.43-27.32-.35-20.4.17-40.79.36-61.18.45-34.34.16-68.69,0-103,.2-75.69.45-151.38.83-227.06,1.61-101.45,1-202.89,2.83-304.34,3.69v5.82q79.14-.31,158.28-1.79c132.69-2.43,265.44-3.25,398.17-4.48,35.49-.34,71,.6,106.48.51,18.59,0,37.18-.55,55.76-1,18.59.46,37.18,1,55.77,1,35.49.09,71-.85,106.48-.51,132.73,1.23,265.48,2.05,398.17,4.48q80.46,1.47,160.89,1.8v-5.81c-102.31-.85-204.63-2.66-307-3.71C1057.41,170.26,981.72,169.88,906,169.43Z"/><path class="cls-2" d="M241.51,618.15c72.2.57,144.39,1.44,216.59,1.85,54.15.3,108.3.06,162.44.07q38.31,0,76.61.06H727q6.68,0,13.34,0,38.29,0,76.6,0c54.14,0,108.29.23,162.44-.07,72.2-.41,144.39-1.28,216.59-1.85,19.8-.15,39.61-.25,59.4.19,32.77.74,66.93-.18,100.23.49,28.19.56,56.32,1.44,84.45,2.24v-3.53q-38.46-1.18-76.9-3.13c-18.57-.93-37.24-1.35-55.86-1.24-132.18.8-264.35,2-396.53,2.62-38.4.19-76.82-1.37-115.23-1.37-25.6,0-51.19.73-76.78,1.38-25.6-.65-51.19-1.38-76.79-1.38-38.41,0-76.83,1.56-115.23,1.37-132.18-.64-264.35-1.82-396.53-2.62-18.62-.11-37.29.31-55.86,1.24Q37.19,616.27,0,617.46v5.22c60.71-.57,121.38-3,182.07-4.34C201.9,617.9,221.71,618,241.51,618.15Z"/><path class="cls-2" d="M1318.66,648c-82.08-.16-164.17,2.18-246.25,3.46-53,.83-106,2.23-158.93,2.47-45.4.2-90.82-1.31-136.22-1.24-19.51,0-39,1.24-58.52,2.28-19.51-1-39-2.25-58.53-2.28-45.4-.07-90.82,1.44-136.22,1.24-53-.24-105.95-1.64-158.93-2.47C283,650.15,200.89,647.81,118.81,648c-39.59.08-79.18.6-118.77,1.22v4.2l4.76-.08c120.56-1.69,241.05.74,361.55,3.17,65.77,1.33,131.57,2.49,197.36,2.43,31.43,0,62.84-1.13,94.27-1.23,16.55,0,33.29.88,49.76,2.1,26.17,1.94,53.2-2.28,79.55-2.08,28.83.22,57.64,1.18,86.47,1.21,65.79.06,131.59-1.1,197.36-2.43,120.5-2.43,241-4.86,361.55-3.17l7.37.11v-4.19C1399.58,648.59,1359.12,648.05,1318.66,648Z"/><path class="cls-2" d="M1071.12,469.11c-65.77-1.33-131.57-2.49-197.36-2.43-31.43,0-62.84,1.13-94.27,1.23-16.55,0-33.29-.88-49.76-2.1-26.17-1.94-53.2,2.28-79.55,2.08-28.82-.22-57.64-1.18-86.47-1.21-65.79-.06-131.59,1.1-197.36,2.43-120.5,2.43-241,4.86-361.55,3.17L0,472.2v4.2c39.59.62,79.18,1.14,118.77,1.22,82.08.16,164.17-2.18,246.25-3.46,53-.83,106-2.23,158.93-2.47,45.4-.2,90.82,1.31,136.22,1.24,19.51,0,39-1.24,58.52-2.28,19.51,1,39,2.25,58.53,2.28,45.4.07,90.82-1.44,136.22-1.24,53,.24,105.95,1.64,158.93,2.47,82.08,1.28,164.17,3.62,246.25,3.46,40.46-.08,80.92-.62,121.38-1.26v-4.19l-7.37.11C1312.11,474,1191.62,471.54,1071.12,469.11Z"/><path class="cls-2" d="M1318.66,870.68c-82.08-.16-164.17,2.18-246.25,3.46-53,.82-106,2.23-158.93,2.46-45.4.2-90.82-1.31-136.22-1.23-19.51,0-39,1.23-58.52,2.28-19.51-1-39-2.25-58.53-2.28-45.4-.08-90.82,1.43-136.22,1.23-53-.23-105.95-1.64-158.93-2.46-82.08-1.28-164.17-3.62-246.25-3.46-39.59.07-79.18.59-118.77,1.21v4.2L4.8,876c120.56-1.69,241.05.73,361.55,3.17,65.77,1.33,131.57,2.49,197.36,2.43,45.53,0,91.27-2.4,136.72-.89,6,.19,12,.82,18,.89,11,.11,21.94-.76,32.91-1,11.65-.25,23.32-.28,35-.2,23.33.17,46.66.82,70,1.08q8.75.11,17.49.12c65.79.06,131.59-1.1,197.36-2.43,120.5-2.44,241-4.86,361.55-3.17l7.37.11v-4.19C1399.58,871.3,1359.12,870.75,1318.66,870.68Z"/><path class="cls-2" d="M1071.12,246.4c-65.77-1.33-131.57-2.49-197.36-2.43-45.53.05-91.27,2.4-136.72.89-6-.2-11.95-.82-18-.89-11-.11-21.94.76-32.91,1-11.65.25-23.32.28-35,.2-23.33-.17-46.65-.82-70-1.08q-8.75-.1-17.49-.12c-65.79-.06-131.59,1.1-197.36,2.43-120.5,2.44-241,4.86-361.55,3.17L0,249.5v4.2c39.59.62,79.18,1.14,118.77,1.21,82.08.16,164.17-2.18,246.25-3.46,53-.82,106-2.23,158.93-2.46,45.4-.2,90.82,1.31,136.22,1.23,19.51,0,39-1.23,58.52-2.28,19.51,1.05,39,2.25,58.53,2.28,45.4.08,90.82-1.43,136.22-1.23,53,.23,105.95,1.64,158.93,2.46,82.08,1.28,164.17,3.62,246.25,3.46,40.46-.07,80.92-.62,121.38-1.26v-4.19l-7.37.11C1312.11,251.26,1191.62,248.84,1071.12,246.4Z"/><path class="cls-2" d="M905.22,691.74c-29.66,0-59.3-2.47-89-2.65-32.5-.2-65,.74-97.51,1.33-32.51-.59-65-1.53-97.52-1.33-29.67.18-59.31,2.69-89,2.65q-134.44-.21-268.9-1.71c-87.78-1.09-175.53-4-263.31-4.51v5.78q49.25.29,98.47.94c88.47,1.26,176.9,3.9,265.38,4.78,65.74.65,131.53-.33,197.29-1,38.4-.4,76.78-1.94,115.18-2.45,12.36-.17,24.73.67,37.11,1.17a9.41,9.41,0,0,0,2.3.27l3-.09c1,0,2,.07,3,.09a9.41,9.41,0,0,0,2.3-.27c12.38-.5,24.75-1.34,37.11-1.17,38.4.51,76.78,2.05,115.18,2.45,65.76.7,131.55,1.68,197.29,1,88.48-.88,176.91-3.52,265.38-4.78q50.54-.72,101.08-1v-5.77c-88.64.51-177.27,3.42-265.92,4.52Q1039.69,691.68,905.22,691.74Z"/><path class="cls-2" d="M1318.66,56.35c-82.08-.15-164.17,2.19-246.25,3.47-53,.82-106,2.22-158.93,2.46-45.4.2-90.82-1.31-136.22-1.23-19.51,0-39,1.23-58.52,2.27-19.51-1-39-2.24-58.53-2.27C614.81,61,569.39,62.48,524,62.28,471,62,418,60.64,365.06,59.82,283,58.54,200.89,56.2,118.81,56.35,79.22,56.43,39.63,57,0,57.57v4.2L4.8,61.7c120.56-1.69,241.05.73,361.55,3.17,65.77,1.32,131.57,2.48,197.36,2.42,45.53,0,91.27-2.39,136.72-.89,6,.2,12,.83,18,.89,11,.12,21.94-.75,32.91-1,11.65-.26,23.32-.29,35-.2,23.33.17,46.66.82,70,1.08q8.75.1,17.49.11c65.79.06,131.59-1.1,197.36-2.42,120.5-2.44,241-4.86,361.55-3.17l7.37.11v-4.2C1399.58,57,1359.12,56.43,1318.66,56.35Z"/><path class="cls-2" d="M881,728.61c-35.49.33-71-.6-106.48-.52-18.59,0-37.18.56-55.76,1-18.59-.45-37.18-1-55.77-1-35.49-.08-71,.85-106.48.52-132.73-1.24-265.48-2.06-398.17-4.49Q79.16,722.67,0,722.33v5.82c101.45.87,202.89,2.65,304.34,3.7,75.68.77,151.37,1.15,227.06,1.6,34.34.2,68.69,0,103,.2,24.25.11,48.51.36,72.76.55a9.27,9.27,0,0,0,1.57.15l9.94-.07,9.93.07a9.27,9.27,0,0,0,1.57-.15c24.25-.19,48.51-.44,72.76-.55,34.34-.16,68.69,0,103-.2,75.69-.45,151.38-.83,227.06-1.6,102.32-1.06,204.64-2.86,307-3.72v-5.81q-80.43.3-160.89,1.8C1146.46,726.55,1013.71,727.37,881,728.61Z"/><path class="cls-2" d="M373,770.33c71.43,1.93,143.16.24,214.73-.71,21.66-.29,43.32-1.32,64.89-2,23.09-.73,46.83,1.19,69.94,1.68,22.89.59,45.79.93,68.69,1.3q17.52.28,35.05.52c12.24.17,23.34.48,35.76-.39,20.09-1.41,40.16-.24,60.31.08,23.22.37,46.45.66,69.67.67,24.13,0,48.25-.3,72.35-1.14,126.18-4.42,247.5-4.28,375.61-2.94V762.8c-22-.32-44.1-.66-66.2-.88-97.32-.95-194.31.37-291.44,3.19-82.52,2.4-165.1-.4-247.46,2.14-10.81.33-21.62.66-32.43.42-10.25-.24-20.47-1-30.7-1.66-47.13-3-94-2.88-141.24-3-22.47,0-45.3,2.08-67.85,2.78q-34.82,1.08-69.67,1.22c-46,.22-92-.6-138-1.94C257.94,762.29,161,761,63.63,761.92c-21.19.21-42.39.79-63.59,1.45v5.94C122,766.81,245.37,766.89,373,770.33Z"/><path class="cls-2" d="M1438.61,502.9c-61.1.54-122.17,3-183.25,4.35-19.79.44-39.6.34-59.4.19-72.2-.57-144.39-1.44-216.59-1.85-54.15-.3-108.3-.06-162.44-.07q-38.31,0-76.6-.06H710.48q-6.68,0-13.34,0-38.29,0-76.6,0c-54.14,0-108.29-.23-162.44.07-72.2.41-144.39,1.28-216.59,1.85-19.8.15-39.61.25-59.4-.19-32.77-.74-66.93.18-100.23-.49-27.32-.55-54.58-1.39-81.84-2.17v3.54q37.16,1.17,74.29,3.05c18.57.93,37.24,1.35,55.86,1.24,132.18-.8,264.35-2,396.53-2.62,38.4-.19,76.82,1.37,115.23,1.37,25.6,0,51.19-.73,76.78-1.38,25.6.65,51.19,1.38,76.79,1.38,38.41,0,76.83-1.56,115.23-1.37,132.18.64,264.35,1.82,396.53,2.62,18.62.11,37.29-.31,55.86-1.24q38.44-1.92,76.9-3.13v-5.16Z"/><path class="cls-2" d="M1042.13,542.53Q940,542.28,837.77,542q-34.07-.07-68.13,0c-14.66,0-29.35.43-44-.63-11.68-.85-22.82.69-34.6.67q-45.69-.1-91.37,0-102.18.18-204.36.51c-117.61.29-235.23,1.19-352.84.73Q21.28,543.17,0,543V548c71.78.54,143.56,1,215.33,1,85.6,0,171.19-.79,256.78-1.39q123.3-.86,246.58-2,123.3,1,246.59,2c85.59.6,171.19,1.39,256.78,1.39,72.65,0,145.29-.51,217.94-1.06V543q-22.53.13-45.07.23C1277.36,543.72,1159.74,542.82,1042.13,542.53Z"/><path class="cls-2" d="M241.51,840.86c72.2.56,144.39,1.44,216.59,1.84,54.15.31,108.3.06,162.44.07q38.31,0,76.61.06H727q6.68,0,13.34,0l76.6-.05c54.14,0,108.29.24,162.44-.07,72.2-.4,144.39-1.28,216.59-1.84,19.8-.16,39.61-.26,59.4.19,30.87.68,61.76-1.64,92.85-.66,22.91.72,45.69,3.44,68.53,5.24,7.88.62,15.61.77,23.3.72v-5.21c-25.65-.89-51.41-2.75-76.9-4-18.57-.93-37.24-1.35-55.86-1.24-132.18.8-264.35,2-396.53,2.62-38.4.19-76.82-1.37-115.23-1.37-25.6,0-51.19.73-76.78,1.37-25.6-.64-51.19-1.37-76.79-1.37-38.41,0-76.83,1.56-115.23,1.37-132.18-.65-264.35-1.82-396.53-2.62-18.62-.11-37.29.31-55.86,1.24Q37.19,839,0,840.17v5.22c60.71-.57,121.38-3,182.07-4.34C201.9,840.6,221.71,840.7,241.51,840.86Z"/><path class="cls-2" d="M1222.1,799.29c-85.59,0-171.19.8-256.78,1.39q-123.3.87-246.58,2-123.3-1-246.59-2c-85.59-.59-171.18-1.38-256.78-1.39-71.77,0-143.55.51-215.33,1.05v4.91q21.23-.12,42.46-.21c117.61-.46,235.23.43,352.84.73q102.18.26,204.36.51,55.88.11,111.77-.07c2.42,0,4.84-.13,7.27-.3,2.42.17,4.84.3,7.26.3q55.89.18,111.77.07,102.18-.19,204.36-.51c117.61-.3,235.23-1.19,352.84-.73q22.54.09,45.07.23v-4.91C1367.39,799.81,1294.75,799.29,1222.1,799.29Z"/></g></svg>