<svg xmlns="http://www.w3.org/2000/svg" viewBox="0 0 1440 900"><defs><style>.cls-1{fill:#c96;}.cls-2{fill:#3d55cc;}</style></defs><title>Wunderkind_Patterns_WEB-Cropped</title><g id="Backgrounds"><rect class="cls-1" width="1440" height="900"/></g><g id="Color"><path class="cls-2" d="M964.49,566.53C918,504.13,850.41,454,790.84,404.43c11.45,14.53,23.1,28.89,34.8,43.22,16.84,20.65,31.08,40.8,42.69,65.37,2.12,4.49,4.18,9.07,7.24,13,6.57,8.45,17.24,13.21,23,22.23a88.29,88.29,0,0,1,4.35,8.57c8.17,16.63,18.76,29.44,25.84,46.94,6.93,17.12,14.7,33.94,27.61,47.46,22.21,23.25,55.55,34.73,74.26,60.88,16.31,22.79,42.6,31.39,58.43,54.52,10.21,14.91,18.5,31.11,29.47,45.46,16.23,21.26,36.91,42,55.06,61.7,9.06,9.85,20,18.06,30.89,26.29h18.89c-18.07-24.27-32.62-50.65-55.12-72.33-21-20.17-37.06-35.52-52.13-60.39-17-28.13-50-42.14-72.55-66.09-8.27-8.77-12.66-19.92-19.93-28.88-8.12-10-19.31-16.64-29.06-25.35a216.82,216.82,0,0,1-51.37-68.59l47.07,41.72C987.24,600.34,976.46,582.59,964.49,566.53Z"/><path class="cls-2" d="M400.33,10.39c25.07,20.3,54.11,35.12,80.17,54.13,22.24,16.23,42.14,35.39,62,54.48C514.11,77.75,481.25,38.75,440,10.35,434.87,6.8,429.6,3.42,424.31.06h-35.9C392.27,3.61,396.24,7.07,400.33,10.39Z"/><path class="cls-2" d="M1065.45,193.44c13.37,8.72,27.21,17.75,40.71,26.82a532.83,532.83,0,0,1,43.39,32.14c37.13,30.78,63.12,63.24,79.47,99.23a93.22,93.22,0,0,0,22.9,30.54c18.19,15.43,30.11,32.91,39.37,48a164.33,164.33,0,0,0,35.48,41.16,167.93,167.93,0,0,0,18,13,227.41,227.41,0,0,1,24.07,17.44c19.17,15.89,36.17,35.08,52,58.67,7.17,10.7,13.16,19.12,19,26.63V558.18c-2-1.92-4.08-3.86-6.07-5.85-39-39-77.93-79.32-115.55-118.3l-20.6-21.34c-6.64-6.87-12.82-14.26-18.8-21.42-2.74-3.28-5.58-6.67-8.42-10l-2.14-2.49,3.24.51a14.56,14.56,0,0,1,7.29,3.22c.43.36.86.75,1.31,1.2,9,8.91,18,17.19,27,24.61a315.4,315.4,0,0,0,42.86,30.1,49.79,49.79,0,0,1,6.75,4.68,35.81,35.81,0,0,1,4,3.83,63.24,63.24,0,0,0,7.15,7,58.8,58.8,0,0,0,25.48,12.25c10.34,2.29,20.14,7.37,30,15.51,1.18,1,2.38,2,3.57,3.09,4.28,3.87,8.63,7.73,13,11.57v-23c-7.7-4.3-15.4-8.5-23-12.66-7.92-4.31-16.11-8.78-24.13-13.27a154.67,154.67,0,0,1-23.54-16A140.68,140.68,0,0,1,1348,409.65c-9.88-12.62-22.06-24.8-38.34-38.29-9.77-8.1-20.09-15.93-30.08-23.5-4.58-3.48-9.16-6.95-13.7-10.46-5.3-4.09-9.65-7.56-13.69-10.91-13.29-11-24.89-22.78-34.93-36.71-8.87-12.31-13.37-28.18-23.11-39.59-11.18-13.1-30.53-14.86-45.59-23.22-13.33-7.39-23-19.84-35.22-29-16.28-12.27-36-18.08-54.27-26.52-19.4-9-35.88-22.79-53.61-34.58a216.47,216.47,0,0,1-18.4-13.68c-17.73-14.69-33.29-32.25-47.59-53.68-16.17-24.22-36.92-47-63.33-69.44H849.72c2.32,2.26,4.69,4.41,7.1,6.41a158.41,158.41,0,0,1,29.33,31.61,118.67,118.67,0,0,0,12.59,15.76L907.87,63c20.13,20.2,40.94,41.09,62.07,61,5.64,5.31,11.48,10.47,17.34,15.33,7.71,6.4,15.57,12.35,23.36,17.7C1028.73,169.48,1047.4,181.66,1065.45,193.44Z"/><path class="cls-2" d="M1171.76,335.48c14.77,12.56,31.29,23.28,44,37.94,12.37,14.27,20.55,31.64,31.55,47,8.55,11.94,18.74,22.6,28.16,33.87,26.55,31.78,44.94,69.34,69.54,102,23.79,31.55,57,49.54,85.82,75.17,3,2.64,6,5.25,8.94,7.87V612.18c-22.62-26.37-43-54.4-69.49-77.11-19.66-16.84-43.54-31.21-60.67-50.72-15.69-17.86-28.16-39.41-42.54-58.41a1524.5,1524.5,0,0,0-157.82-177.78A222.87,222.87,0,0,0,1171.76,335.48Z"/><path class="cls-2" d="M480.23,885.9c-23.07-25.75-54.87-44.74-76.63-71-7.39-8.92-10.34-20-17.93-29.09q-3.33-4-7-7.69A181.3,181.3,0,0,0,349.82,755q-9.27-6.13-18.59-12.18c-18.3-11.93-37.23-24.26-55.16-37.66a377.58,377.58,0,0,1-41-35.23c-24-24.05-42.29-49.6-55.79-78.13-16-33.87-39.91-67.33-73-102.3-8.69-9.16-15.67-20.43-21.92-31.23-4.78-8.25-8-17.08-11-25.62l-.72-2c-15.16-41.86-39-78.8-72.79-112.89v51.73c2.79,3.14,5.63,6.16,8.55,9.08,3.62,3.62,7.41,7.14,11.27,10.46,5.05,4.33,9.79,8.71,14.1,13,15.55,15.55,26.85,31.4,34.58,48.47,4.58,10.13,10.65,21.11,19.09,34.56,7.89,12.57,16.14,25.29,24.11,37.58,14.46,22.31,29.42,45.38,42.85,68.47C164.9,609.4,175.6,627,190,641.39c1.55,1.55,3.14,3.06,4.74,4.5C226.51,674.47,260,702,292.44,728.62l1.87,1.53c6.05,5,12.28,9.91,18.31,14.68,15.44,12.23,31.4,24.88,45.69,39.16a227.65,227.65,0,0,1,15.33,16.87c17.23,21.07,29.21,42.72,50.11,61.23,14.22,12.59,29.44,24.32,42.67,38h25.95C488.44,895.34,484.44,890.6,480.23,885.9Z"/><path class="cls-2" d="M498.25,851.3c-32-25.15-66.74-48.34-90-82.5a205.69,205.69,0,0,0-24.47-29.95,152.35,152.35,0,0,0-43.41-30.69c-18.81-8.87-37.56-20.08-55.69-30.92-7.06-4.22-14.35-8.59-21.54-12.74a61.67,61.67,0,0,1-12.85-9.76,49.74,49.74,0,0,1-12.52-20.49c-7-22.35-20-44.43-42-71.6-4.15-5.11-8.5-10.21-12.72-15.14C170.64,533,157.84,518,148.74,501l-1.23-2.31C133.57,472.62,120.41,448,117,421.08c-2.54-19.94-11.37-40.79-26.22-62-5.14-7.33-8.81-15.48-12.35-23.36-1.13-2.51-2.3-5.1-3.49-7.61-1.38-2.92-2.49-6-3.55-9-1.91-5.31-3.71-10.32-7-14.57A339.75,339.75,0,0,0,35.72,272.2c-1.49-1.48-3-3-4.5-4.42L27.41,264c-12.1-12.1-21-23.09-27.65-34.17v31.49a201.76,201.76,0,0,0,19.77,23c.46.46.92.92,1.39,1.37l1.73,1.72c27.75,27.75,43.29,56.2,47.51,87,3.56,25.93,14.33,51.67,32,76.52,9.94,14,19.57,28.4,28.88,42.36,5.75,8.62,11.7,17.53,17.65,26.24q1.28,1.88,2.55,3.8c3.34,5,6.79,10.19,10.89,14.28.61.62,1.24,1.2,1.85,1.74,2.59,2.26,5.11,4.62,7.51,7,17.15,17.15,29.52,37.59,37.8,62.48,6.31,18.95,16.73,35.51,31.84,50.63a187.25,187.25,0,0,0,27.75,22.61c18.65,12.65,37.88,25,56.47,36.87,14.76,9.45,30,19.23,44.94,29.12a187.56,187.56,0,0,1,28.84,23.32c16,16,24.38,36.85,39.57,54a255.13,255.13,0,0,0,53.66,45.79c13.67,8.71,26.13,16.74,36.29,28.94h16.83c-1.14-2.3-2.3-4.68-3.52-7.17C533.75,876.15,512.64,862.62,498.25,851.3Z"/><path class="cls-2" d="M700.64,781.52c-6.08-23.76-3.62-48.74-8.64-72.72-5.18-24.68-20-45.61-33.15-66.86q-7.87-12.74-15.73-25.47c-5.43-8.79-10.9-17.63-17.89-25.23-8.06-8.76-18-15.65-28.29-21.54a199.72,199.72,0,0,0-60.46-22.43,435.11,435.11,0,0,1,80.4,54.1c-40.73-11.14-86.13-27.74-116.52-58.13a177.18,177.18,0,0,1-13.05-14.62c-2.71-3.39-5.57-6.8-8.33-10.09-10.42-12.42-21.2-25.27-26.54-40.35-4.5-12.67-12.52-24.5-25.24-37.22-1.29-1.29-2.6-2.56-3.94-3.83-2-1.9-4-3.82-5.86-5.7-29.31-29.32-46-58.76-51-90-4.43-27.77-16.87-55.51-37-82.47-8.83-11.85-17.12-24.26-25.13-36.26-5.75-8.62-11.7-17.54-17.8-26.17-4.24-6-9.16-11.82-13.92-17.45-2.68-3.17-5.45-6.44-8.08-9.73-2.1-2.63-4.35-5.29-6.52-7.86-5.61-6.65-11.42-13.54-15.61-20.81-5-8.59-9.1-17.56-13.1-26.24-2.84-6.16-5.78-12.54-9-18.72L218.91,93c-4.35-8.45-8.85-17.19-15.23-23.89-2.69-2.83-5.22-5.43-7.73-7.94C184.46,49.67,174,40.65,164,33.6,147.63,22.09,130.82,10.92,114.32.06H82c2.5,1.46,5,2.87,7.64,4.2,18.32,9.31,36.65,20.09,54.38,30.52,7.8,4.59,15.86,9.33,23.81,13.88a72.61,72.61,0,0,1,15.32,11.58,60.37,60.37,0,0,1,14,21.74c12.7,34.28,36.92,64.15,60.65,91.82,33.17,38.68,53.83,78.38,61.39,118,4.38,23,13.77,45,28.69,67.41,4.57,6.84,7.81,14.34,10.94,21.59,1.34,3.08,2.71,6.27,4.17,9.35,1.09,2.3,2,4.71,2.95,7,1.93,4.89,3.76,9.51,6.83,13.46,10.17,13.05,18.35,22.52,26.54,30.71,1.57,1.57,3.15,3.1,4.71,4.55,2.39,2.25,4.7,4.48,6.86,6.63,17.9,17.91,29.53,34.89,36.59,53.44a260.58,260.58,0,0,0,20.21,41.56A164.24,164.24,0,0,0,492,579.07c18.89,18.9,42.08,30.12,68.34,34.28,26,4.12,48,7.67,60.85,33.92,8.51,17.35,11.77,37.18,22.28,53.39,10.2,15.71,26.9,27.54,32.43,45.44,4.93,16-.13,33.86,5.41,49.64,3,8.4,8.67,15.49,13.52,23,17.67,27.21,13.36,60.77,39.55,81.36h35.19C739.22,867.31,711.81,825.21,700.64,781.52Z"/><path class="cls-2" d="M64.94,45.38c19.22,8.82,39.45,18.88,56.88,36.31.65.65,1.3,1.32,2,2,2.62,2.74,5.31,5.49,8,8.18,9.05,9,18.46,17.77,28,26,9.83,8.44,17.55,15.51,24.3,22.25,22.47,22.48,35.84,43.42,42.07,65.92,5.84,21,16.08,39.87,31.31,57.56,8.67,10.07,13.66,20.62,15.25,32.25,2.16,15.75,5,31.93,7.8,47.57l.07.37c3.92,22.06,14.92,41.87,33.63,60.58a197.75,197.75,0,0,0,19.25,16.79c10.71,8.25,21.41,16.93,31.76,25.32,6.69,5.43,13.61,11,20.46,16.48,7,5.57,13.36,10.21,19.39,14.18a14.39,14.39,0,0,0,5.28,1.7c.6.11,1.21.23,1.83.37l.41-.87c-1.45-1.68-2.88-3.38-4.31-5.08-3.16-3.76-6.43-7.65-9.92-11.15l-.73-.72q-3.63-3.54-7.21-7.12a679.88,679.88,0,0,1-72.79-85.16c-13.29-18.54-19.35-32.87-20.26-47.93-.94-15.62-3.26-29.14-7.09-41.33-7.48-23.8-20-48.07-38.25-74.2-5-7.19-10.41-14.4-15.61-21.37-7.87-10.53-16-21.42-23.09-32.5a207.34,207.34,0,0,0-28.59-35.95l-1-1C175.88,107,168,97.26,159,84.33a290.66,290.66,0,0,0-32.37-38.81A259.56,259.56,0,0,0,84.14,11.2,176.84,176.84,0,0,1,68.77.06H59.4C72.89,12,86,24.31,100.45,38c.37.34.74.7,1.09,1.06,2.5,2.49,4.76,5.2,7.16,8.06,1.28,1.53,2.58,3.09,4,4.67L114,53.32l-2,.45c-.81.19-1.42.38-1.88.52-.94.29-1.67.52-2.39,0C97.31,46.85,85.94,41,74.94,35.29,58.25,26.67,41,17.75,26.32,3.08c-1-1-1.95-2-2.9-3H-.24V1.23c.93,1,1.86,2,2.81,2.9C18.74,20.3,38,33,64.94,45.38Z"/><path class="cls-2" d="M248.76,519.8A150.28,150.28,0,0,0,262.66,532a232.4,232.4,0,0,1,21.83,18.81c8.84,8.84,15.37,17.68,20,27a117.18,117.18,0,0,0,22.61,31.56,146.46,146.46,0,0,0,34,24.91c5.91,3.22,11.33,8.43,16.59,13.48,1.76,1.69,3.58,3.44,5.38,5.06.92.84,1.88,1.76,3,2.83,1.23,1.23,2.43,2.49,3.64,3.75s2.38,2.49,3.59,3.7c1.71,1.71,3.17,3.06,4.59,4.24,21.22,17.67,44.09,33.48,68.8,45.89,10.13,5.09,21,9,30.56,15.14,10.26,6.6,17.89,16.52,28,23.29,14.13,9.42,31.53,12,47.95,16.3,32,8.32,62.86,24.51,83,50.67.66-13.63-10.29-24.83-21-33.22a255.81,255.81,0,0,0-79.59-42c-12.35-3.93-25.31-7.06-36.65-13.53-12.26-7-19.28-14.92-33.22-19.51-19.43-6.39-35.18-15.81-48.17-28.8A125.51,125.51,0,0,1,418,656.06a138.3,138.3,0,0,0-21.45-28.18A108.4,108.4,0,0,0,368,607.21a160.47,160.47,0,0,1-42.86-30.8c-4.26-4.26-8.44-8.9-12.45-13.8-3.13-3.82-6.77-7.79-11.12-12.15s-9.15-8.8-13.72-13-9.37-8.68-13.87-13.18c-1.64-1.63-3.13-3.17-4.56-4.69C254,503.15,251.52,488,262,474.49l.79-1,1,.86c3.28,2.92,6.59,5.94,9.78,8.86,7.15,6.53,14.54,13.28,22.13,19.37a165.07,165.07,0,0,1,13.64,12.11c10,10,17.15,20.38,22,31.85,2.71,6.45,8,13.88,14.49,20.37l.58.58c10,9.79,20.58,19.32,30.81,28.53,5.22,4.7,10.62,9.57,15.88,14.41l2,1.79c1.48,1.33,3,2.71,4.43,4.13a31.39,31.39,0,0,1,4.61,5.61,214.26,214.26,0,0,0,30.71,39.31c55.81,55.81,143.66,60,209.61,98.11-16.36-17.55-38.42-35.72-50.93-55.65,11.44.74,22.71,8.18,30.41,16.41.78-3-.22-6.16-1.36-9-7.89-20-22.6-36.67-39.43-50-13.21-10.46-28-17.72-42-26.86-10.73-7-18-16.82-29.21-23.6a209.7,209.7,0,0,1-39.5-30.82,202.52,202.52,0,0,1-24.08-29.12c-1.5-2.2-3-4.39-4.52-6.59-5-7.29-10.18-14.84-15-22.38a168.77,168.77,0,0,0-23.49-29.13,239.41,239.41,0,0,0-29.55-24.8l-12.09-8.67c-32-22.93-65.06-46.64-94.07-75.65-5.15-5.15-10.12-10.42-14.78-15.66-28.13-31.67-40.11-58-38.84-85.52a215.94,215.94,0,0,0-.75-24.15c-.19-2.7-.37-5.4-.52-8.09-1.14-20.24-9.54-37.92-25.67-54.05a135.12,135.12,0,0,0-13.43-11.68,216.08,216.08,0,0,1-22.13-19c-9.59-9.6-16.78-19.27-22-29.59a112.89,112.89,0,0,0-21-29.12A130.38,130.38,0,0,0,80.07,84.2a82.45,82.45,0,0,1-18.5-13.48c-1-.94-1.85-1.91-2.67-2.86-4.22-4.91-8.69-9.72-13.27-14.3A263.05,263.05,0,0,0-.24,16.94V33A110.82,110.82,0,0,1,12.65,49.77a196.33,196.33,0,0,0,27.08,34.3A163.59,163.59,0,0,0,80.9,114.13a110.33,110.33,0,0,1,28,20.76A160.92,160.92,0,0,1,121.36,149a121.43,121.43,0,0,0,9.69,10.72c2.91,2.91,6,5.81,9,8.62,2.6,2.45,5.29,5,7.87,7.52,2.28,2.25,4.67,4.47,7,6.62,2.59,2.41,5.27,4.91,7.83,7.46l.29.29c20.67,20.79,23.77,32,14.42,52.18l-.67,1.45-1.21-1.05c-4.36-3.78-8.86-7.57-13.22-11.23-10-8.43-20.38-17.15-29.78-26.54l-.66-.67a142.31,142.31,0,0,1-23.37-31.81,161.56,161.56,0,0,0-28.64-37.78A245.14,245.14,0,0,0,57.6,115.18,181.51,181.51,0,0,1,41,100.62,146.46,146.46,0,0,1,26.16,83.26,258.54,258.54,0,0,0,.39,53.11l-.63-.61V89.83l5.09,4c11,8.59,22.34,17.47,32.45,27.58,1.49,1.5,3,3,4.34,4.5,8.14,8.78,15.54,18.41,22.7,27.73,3.21,4.18,6.53,8.51,9.87,12.69,2.1,2.63,4.15,5.39,6.13,8.06,4,5.43,8.23,11.05,13,15.8l1.12,1.09c1,.91,1.89,1.82,2.8,2.74a135.88,135.88,0,0,1,24.36,32.68c4,7.51,10.27,14.72,16.29,21.68,1.86,2.15,3.71,4.3,5.51,6.45,3,3.68,6.36,7.31,9.55,10.82,4.36,4.79,8.87,9.76,12.86,14.93,6.38,8.28,7.55,16.32,3.39,23.24l-.88,1.45-1.08-1.3c-4.34-5.22-9.11-10.44-14.18-15.51-18.1-18.1-38.65-33-58.52-47.39-16.85-12.22-34.28-24.85-50-39.32-5.93-5.46-12.23-11.29-18.29-17.35C16.51,174.67,9.35,166.3,3.7,158.07q-2-2.9-3.94-5.69v30.48a259.7,259.7,0,0,0,31.8,38.62,292.83,292.83,0,0,0,42.1,34.65c38.78,26.43,68.83,50.73,94.58,76.49,5,5,9.91,10.12,14.57,15.23,27.67,30.31,40,57.83,38.9,86.61-.12,3.25,0,6.68.15,10,.15,3.67.31,7.47.11,11.1C220.64,479.44,229.41,500.45,248.76,519.8Zm10.42-116.65.3-2.24,1.69,1.5c.51.46,1.06.89,1.6,1.32a27.72,27.72,0,0,1,2.41,2.07,10.93,10.93,0,0,1,1.08,1.25,167,167,0,0,0,17.3,20.12c14.05,14,30.26,25.95,45.94,37.47q5,3.66,10,7.36c19.24,14.32,43.18,32.15,65,50.73,2.25,1.91,4.51,4,6.72,6.21a127.28,127.28,0,0,1,19.25,24.69C441.22,572,454.59,589,471.3,605.76c15,15,32.83,29.85,56,46.63a139.06,139.06,0,0,1,14.87,12.13l-1.24,2a177.46,177.46,0,0,1-59.39-36.37c-6.81-6.32-13.89-13.15-21.62-20.89-11.2-11.2-22.34-22.86-33.12-34.13q-7.43-7.77-14.87-15.51c-2.11-2.2-4.19-4.51-6.21-6.75-2.52-2.8-5.12-5.7-7.86-8.44a62.52,62.52,0,0,0-20.21-14.16l1.92,2.71c2.43,3.42,4.35,6.12,6.48,8.7,3.54,4.27,7.08,8.66,10.51,12.9,9.1,11.26,18.51,22.92,28.62,33.58,4.4,4.65,9,9.37,14.08,14.44,11.9,11.9,24.36,23.68,36.4,35.08l5.36,5.07c7.73,7.33,15.92,14.43,23.84,21.3q5.44,4.71,10.86,9.47l2.68,2.37-3.57-.26c-18.75-1.39-32.89-7.45-44.5-19.06A79.38,79.38,0,0,1,460.88,645a35.08,35.08,0,0,0-4.41-5.22c-2.51-2.52-5.43-4.93-8.25-7.26-1.53-1.26-3.11-2.56-4.59-3.86-7.32-6.39-14.79-12.83-22-19.07-13.62-11.75-27.7-23.9-41.31-36.15-.63-.56-1.25-1.14-1.86-1.75a58.8,58.8,0,0,1-11.28-16c-6.15-13.2-15.94-23.34-26.31-34.07-1.87-1.94-3.75-3.88-5.61-5.85-4.89-5.17-8.8-11.29-12.58-17.21-2.14-3.34-4.35-6.81-6.71-10.05q-1.92-2.64-3.82-5.31c-5.15-7.18-10.47-14.62-16.58-21.07-13.21-13.93-26.51-29.39-34.33-48C259.93,411.11,258.6,407.47,259.18,403.15Z"/><path class="cls-2" d="M988.65,165.62c-26.34-20-57.89-32.29-84.12-52.43-20-15.33-36.3-34.78-52.47-54.07Q834.24,37.87,816.41,16.6A160.34,160.34,0,0,1,803.77.06H785.89a109.94,109.94,0,0,0,5.24,13.66c7.64,15.85,21.41,27.79,31.62,42.13,7.13,10,12.55,21.22,20.34,30.73,10.59,12.94,25,22.06,39.17,31,15.38,9.67,30.81,19.36,47.12,27.38A261.59,261.59,0,0,0,988.65,165.62Z"/><path class="cls-2" d="M849.64,143.14c13.45,5.93,28.21,11,42.61,8.09-34-13-61.48-38.57-88-63.53-6.93-6.53-14-13.26-18.15-21.84-3.15-6.53-4.43-13.85-7.63-20.36C770,28.3,749.92,19.79,739.41,3.75q-1.18-1.8-2.19-3.69H719.64a92.4,92.4,0,0,1,10.78,13.42c5.56,8.89,8.26,19.2,12,29C760.62,89.39,803.59,122.85,849.64,143.14Z"/><path class="cls-2" d="M1321.78,12.1c22,19,38.86,33.54,55.21,57.59,15.28,22.47,40.92,34.76,62.77,51.18V98.37c-12.7-8.59-25.83-16.44-35.71-29.37-11-14.35-20.1-30.09-31.8-43.86C1365,16.64,1357,8.28,1348.78.06h-39.56C1313.19,4.22,1317.34,8.25,1321.78,12.1Z"/><path class="cls-2" d="M1336.26,347.74c-11.58-6.07-21.84-13.14-32.66-20.42-.41,2.58,1.71,4.79,3.64,6.53,16.81,15.15,34.31,29.76,50.31,45.67a937.19,937.19,0,0,0,81.33,71.88l.88.69V428.74c-11.66-10.33-22.42-21.65-33.92-32.18A329.94,329.94,0,0,0,1336.26,347.74Z"/><path class="cls-2" d="M1409.17,497.44c-3.93-3.38-8.14-6.93-13.26-11.17-3.77-3.13-7.57-6.25-11.36-9.36q-5.38-4.41-10.74-8.84l-1.73,1c1.16,1.81,2.27,3.67,3.34,5.48,2.75,4.63,5.6,9.43,9.36,13.3,18.4,19,37.09,37.43,55,54.92V522.19q-10.14-7.63-20.6-16.31C1415.9,503.19,1412.54,500.34,1409.17,497.44Z"/><path class="cls-2" d="M1295.78,78.89,1310.36,91l24,19.92,1.44-.6c-.4-1.06-.75-2.15-1.1-3.21-1-3.06-1.94-6-3.87-8.17-18.79-21.59-41.55-46.6-67.91-68.46A340.23,340.23,0,0,0,1234.07,9,74.49,74.49,0,0,0,1215.21.06H1147c46.61,8,93.27,32.77,148.19,78.3Z"/><path class="cls-2" d="M1439.76,68V8.18c-2.73-2.66-5.45-5.35-8.07-8.12h-30.11c7.06,14.36,11.44,30.09,19.39,44A109.54,109.54,0,0,0,1439.76,68Z"/><path class="cls-2" d="M990,5.5a122.56,122.56,0,0,1,22.63,24.71c15.79,22.91,29.81,43.69,42.85,63.51,14,21.28,28.48,37.79,45.57,52,5.46,4.52,11.28,8.87,17.31,12.92a140.94,140.94,0,0,1,11.45,8.61c11,9.09,21.2,19.92,31.09,30.38,3.74,4,7.61,8,11.43,12a187.39,187.39,0,0,0,14.13,13.22c8.51,7,16.54,11.85,25.29,15.11,11.81,4.4,23.29,11.3,35.1,21.09a314.74,314.74,0,0,1,25.94,24.84,127.12,127.12,0,0,0,10.68,10,101.08,101.08,0,0,0,31.73,18.06c42,14.36,82.82,37.47,124.52,70.49V356c-33.52-25-63-41.16-92.54-50.74-21.42-7-40.2-20.25-58.37-33.11-6.26-4.43-12.72-9-19.2-13.27-26.44-17.35-53.82-37.83-83.72-62.62-6.49-5.38-13.32-11.15-20.3-17.14-1.4-1.2-2.83-2.41-4.27-3.61a136.89,136.89,0,0,0-17-12.39,89,89,0,0,1-11.14-7.83,70.18,70.18,0,0,1-17.63-21.51c-11.4-21.84-27.88-41.89-43.82-61.28q-3.83-4.65-7.63-9.31c-7.81-9.6-15.51-19.39-23.65-29.76-3.87-4.93-7.88-10-12.1-15.36l-2.59-3.28,3.94,1.4c4,1.42,7.67,2.75,11.07,4,6.68,2.43,12.44,4.54,18.16,6.3,18.49,5.72,34.25,14.1,48.17,25.65,12.52,10.37,23.22,23,32.72,38.65,23.43,38.53,54.36,73.47,94.57,106.8,23.35,19.36,49.92,38.27,81.24,57.79a118.91,118.91,0,0,0,27.61,12.52c33.34,10.24,62.88,30,90.27,49.27l6.26,4.43V300.71c-2-2-3.94-3.91-5.7-5.69-2.9-2.93-5.93-5.71-9-8.26A119.92,119.92,0,0,0,1393.55,268c-4-1.63-7.93-3.22-11.91-4.82-14-5.61-28.45-11.41-42.2-18.72a477.87,477.87,0,0,1-80.17-54c-40.81-33.84-79.48-76.25-121.7-133.46l-1.85-2.51,3,.61c6.6,1.32,13.37,2.63,20.26,4,18.92,3.67,38.48,7.47,58.26,12.05,7,1.61,15.62,6.11,23.17,12,27.66,21.71,58,44,92.42,59.47a100.86,100.86,0,0,1,23.26,14.14,73.48,73.48,0,0,1,12.51,13.22c13.12,18,29.61,35,51.92,53.47,5.12,4.25,10.56,8.58,16.62,13.25l2.57,2V178.72a108.27,108.27,0,0,1-16.23-23c-10.51-19.76-23.06-35.54-38.37-48.23a143,143,0,0,0-22.67-15.36,51.08,51.08,0,0,1-6.68-4.72c-.78-.62-1.57-1.24-2.36-1.84-2.87-2.17-5.74-4.45-8.53-6.77-28.05-23.25-48.53-50.83-64.87-74.75-.92-1.35-1.85-2.67-2.78-4H1244.9a243.15,243.15,0,0,1,23.65,17.32A263.85,263.85,0,0,1,1295.25,43c24.26,26.7,49.76,53.29,74.42,79,15.13,15.77,30.76,32.07,46,48.24a187.23,187.23,0,0,1,23.87,32l-1.84,1.51q-5.82-5.26-11.6-10.59c-9.08-8.32-18.46-16.93-28-25l-.69-.58a171.59,171.59,0,0,0-14.49-10.4c-2.85-1.89-5.79-3.85-8.61-5.87-3.75-2.69-7.52-5.48-11.17-8.19-6.55-4.85-13.32-9.87-20.16-14.41l-.31-.2c-7.56-5-15.38-10.19-22.94-12.44a104.37,104.37,0,0,1-37.44-20.23c-2-1.65-4-3.42-6-5.27-6.36-6-13.14-11.74-19.69-17.34-4.46-3.81-9.07-7.75-13.52-11.71-1.38-1.23-2.78-2.44-4.17-3.59-22-18.27-45.6-27.16-68.13-25.71-25.16,1.63-74.64-.48-92-22.23a81.48,81.48,0,0,1-6.2-9.86H983C985.39,1.8,987.76,3.61,990,5.5Z"/><path class="cls-2" d="M777.43,153.17a258.7,258.7,0,0,1-35.69-32.66c-6.25-6.91-12.32-14.54-14.28-23.65-1.64-7.61-.3-15.81-3.13-23.07-4.34-11.13-16.76-16.4-25.56-24.48-10.88-10-19-33.65-34.27-36.69-2.18,22.2,12,59.73,23.85,78.19C708.22,121.79,743.78,138.27,777.43,153.17Z"/><path class="cls-2" d="M826,10.88c8.39,8.66,13.85,18.54,23.94,25.9,6.77,4.93,14.89,9.74,16.71,17.91,1.24-7.07-2.68-14.07-7.59-19.3s-10.92-9.39-15.43-15S836.14,7.87,830.94,2.84a35.15,35.15,0,0,0-3.3-2.78H814.81C818.65,3.6,822.42,7.2,826,10.88Z"/><path class="cls-2" d="M1039.38,122.5c1.66,1.17,1.73-.92.29-2.36C1016.49,97,1002.8,66.18,983.1,40,972,25.31,959.19,12.22,945.4.06H919.25C959.24,41.19,992.61,89.4,1039.38,122.5Z"/><path class="cls-2" d="M1373.42,221.29c-10.54-12.9-17.63-28.53-29.94-40-13-12.28-30.5-18.49-46-27.4-35.56-20.39-63.1-56-102.92-65.76,27.61,21.37,46.8,52,73.93,74,11.5,9.31,24.27,16.93,35.76,26.23,8.4,6.8,16.07,14.46,24.48,21.24,24.1,19.45,53.43,31.06,82.25,42.39C1399,240.39,1383.89,234.13,1373.42,221.29Z"/><path class="cls-2" d="M873.91,848.92c-6.7-12-11.45-25.22-19.67-36.26-15-20.18-39.5-30.65-58.75-46.84-16.9-14.21-29.58-32.69-42-50.91-19.18-28.07-33.58-60.29-57.38-84.86-5-5.11-11.59-10.33-18.48-8.5,13.12,12.07,27.78,29.73,32.53,47.34,2.09,7.75,2.33,13.71,5.2,21.22s6.78,14.44,9,22.38c9.53,33.72,4.9,70.12,17.74,103.11,12.77,32.78,41,56.54,62.42,84.46H839.2c-.52-.94-1-1.9-1.51-2.86-5-9.93-8-20.85-14.09-30.11-7.8-11.85-20-20.06-29-31.06-14-17.24-19.1-39.91-23.73-61.67,12.68,16.33,28.3,25.61,43.57,39.55,26.7,24.39,45.19,56.35,65.91,86.15h31.56l-13.64-17C889.53,872.14,880.72,861.15,873.91,848.92Z"/><path class="cls-2" d="M646.64,312.24c3.54,8,9.76,14.45,14.65,21.7,7.15,10.59,11.45,22.79,17,34.28,5,10.22,11.38,20.47,20.92,27-8.71-7.3-12.13-19.31-14.39-30-2.5-11.89-4.28-24.46-11.42-34.3-4.54-6.26-11-11.05-14.84-17.8-3.07-5.46-4.15-11.83-6.79-17.52-2.87-6.17-7.48-11.35-12.19-16.27a307.84,307.84,0,0,0-44.1-38.11l32.24,35.18c4.56,5,9.2,10.06,12.1,16.16C642.83,298.85,643.83,305.89,646.64,312.24Z"/><path class="cls-2" d="M405,182.33c27.11,22.79,53.41,49.81,84.06,67.79,15.67,9.2,32.68,15.81,45.35,29.07l.16.17c14.05,14.81,26.93,30.62,40.71,45.69,15.58,17,33.19,33,54.55,41.75-5.72-2.35-15.25-24.49-19.45-30.15a275.54,275.54,0,0,0-25.74-29.91c-8.91-9-18.59-16.79-28.32-24.84-7.89-6.53-11.92-14.85-19-22-26.87-27.2-61.56-45-93.39-65.55-35.6-22.94-69.33-49.28-101.16-77.17C358.33,143,381.87,162.91,405,182.33Z"/><path class="cls-2" d="M1091.44,843.09c-8.73-16.66-12.14-35.67-20.59-52.47-11.9-23.67-32.83-41-54.74-55.09s-39.81-14-54.7-38.53a451,451,0,0,0-45.56-62.27A100.58,100.58,0,0,0,931,670.13c5,7.37,11,14.15,14.63,22.31s4.51,17.07,8.62,24.82c3.36,6.34,8.61,11.45,13.87,16.33,14.93,13.88,31.12,25.53,43.82,41.64,12.53,15.89,22.74,33.52,36.55,48.41,7.62,8.2,15.3,16.51,20.79,26.27,6.85,12.16,10,26,13,39.63.8,3.57,1.55,7.08,2.3,10.52H1150C1126.74,884.1,1104.32,867.68,1091.44,843.09Z"/><path class="cls-2" d="M278,57.32c-16.76-17-28.78-38-42.84-57.26H219.62C238.72,20,252.88,46.05,278,57.32Z"/><path class="cls-2" d="M292.43,788.71a358.44,358.44,0,0,0-32-36.81,323.51,323.51,0,0,0-45.63-38A372.83,372.83,0,0,1,162,669.47c-12.59-12.59-25.59-27-39.72-44.13l-4.89-5.94c-10.23-12.45-20.82-25.32-32.2-36.7-4.83-4.83-9.42-9-14-12.82-14.83-12.18-29.27-25.44-43.23-38.26-9.22-8.47-18.56-17-28.13-25.42v28.88Q9.89,542,20.14,549c29.72,20.17,54.36,40.16,75.31,61.11,8.55,8.54,16.68,17.46,24.19,26.51,7.85,9.46,16.68,19.1,26.24,28.66,7.75,7.75,16.14,15.61,24.93,23.34,13.81,12.15,24.15,21.75,33.54,31.14a361.67,361.67,0,0,1,31.41,35.41c6.78,8.83,13.54,17.88,20.07,26.64,13.19,17.66,26.83,35.92,41.27,53.14,14.79,17.62,39.16,41.43,52.93,65.16h34.89c-16.48-18.71-34.27-36.23-49.57-55.83C320.52,825.21,306.5,807.24,292.43,788.71Z"/><path class="cls-2" d="M724.42,338.07C720,330,715.56,322.17,710,315c-1.2-1.57-2.41-3.18-3.62-4.8-4.3-5.73-8.75-11.65-13.63-16.53a52.85,52.85,0,0,0-6.5-5.59,192.57,192.57,0,0,1-24.57-20.92c-14.26-14.26-25.89-29.78-35.38-43.08-4.9-6.86-9.76-13.48-15.47-19.2a55.17,55.17,0,0,0-15.91-11.44c-14.69-6.76-28.12-16.5-42.26-30.64-9-9-17.26-18.82-23.49-26.41-2.61-3.18-5.37-6.23-8.2-9a120,120,0,0,0-29.62-21.63c-3.79-2-7.6-3.94-11.41-5.9-13.41-6.89-27.26-14-40.28-22.57a477.22,477.22,0,0,1-74.79-61.28Q357.2,8.23,349.67.06H319.82q9.33,10.38,19.61,20.67c21.45,21.44,46.15,42.74,75.51,65.09a119,119,0,0,0,26.33,15c32.24,13.31,59.82,35.68,85.3,57.46,27.39,23.42,54,46.51,78.94,71.4,6.25,6.26,12.29,12.52,17.93,18.62,1.46,1.57,2.92,3.09,4.33,4.5a99.11,99.11,0,0,0,14.61,12.31A88.4,88.4,0,0,1,655.57,276a91.12,91.12,0,0,1,20.23,31.35c14.28,35.73,31.8,77.41,59.06,119.76l2.15,3.34-3.65-1.59c-16.72-7.29-35.87-16.8-51.09-32a104.35,104.35,0,0,1-12-14.42,361.47,361.47,0,0,1-25-41.88c-19.71-38.8-48.06-76.44-86.68-115.06-8.29-8.28-17-16.55-26.51-25.28-32.22-29.45-60.91-49.07-90.29-61.72-20.68-8.92-38.15-23.91-55-38.41-5.82-5-11.83-10.15-17.89-15-24.7-19.74-50.06-42.68-77.53-70.14-4.71-4.72-9.62-9.7-14.62-14.84H255.3c3.75,4.6,7.41,9.26,11,13.87,3.36,4.29,6.83,8.72,10.27,13a189,189,0,0,0,12.84,14.48c7.81,7.81,15.36,13.33,23.77,17.39,11.35,5.49,22.14,13.42,33,24.27a313.46,313.46,0,0,1,23.51,27.15,127.93,127.93,0,0,0,9.71,10.94,101.35,101.35,0,0,0,29.9,20.93c43.9,19.75,85.52,49.63,127.25,91.36,11.73,11.72,23.34,24.24,35.51,38.24,17.05,19.62,32.91,40.66,48.24,61q4.76,6.31,9.52,12.61c6.07,8,10.71,17,15.23,25.65,3.57,6.88,4.33,10.6,2.62,12.84s-5,2.41-11.42,1.06c-26.67-5.6-46.92-14.95-63.7-29.42-24.27-20.94-50.58-38.65-76-55.78-7.48-5-15.21-10.24-22.79-15.46A155,155,0,0,1,451.79,266a141.75,141.75,0,0,1-19-23.54c-8.65-13.5-19.65-26.75-34.61-41.7-9-9-18.52-17.73-27.75-26.2q-6.36-5.82-12.68-11.68c-4.89-4.57-8.9-8.43-12.61-12.14-11.14-11.14-19.84-21.35-26.69-31.39-2.61-3.82-4.94-7.6-7.05-11.41a99.75,99.75,0,0,0-17-22.54,124.32,124.32,0,0,0-20.94-16.67C242.22,48.64,213.64,24.22,187.43.06H170.55l1.07.85c12.5,9.93,25.43,20.21,38,30.49a530.11,530.11,0,0,1,40.2,36c34.11,34.1,57,68.84,69.9,106.19a93.11,93.11,0,0,0,20,32.54c16.67,17.06,26.92,35.57,34.74,51.43A164.27,164.27,0,0,0,406,301.88a170.16,170.16,0,0,0,16.69,14.6A227.06,227.06,0,0,1,445,336.08c17.61,17.61,32.75,38.29,46.29,63.25,7.29,13.41,13.21,23.48,19.22,32.64A201.09,201.09,0,0,0,536,463.87c25.73,25.73,55.23,37.48,90.2,35.9,7.95-.36,15.94-1,23.66-1.68,5-.42,10.11-.86,15.21-1.2,21.54-1.47,40.83,5.52,58,18.48,13.6,10.26,25.66,22.59,40.08,31.66,22.51,14.17,49.13,22,62.72,47,10.32,19,11.31,43.07,26.21,58.69,7.08,7.43,16.57,12,24.69,18.3s15.31,15.49,14.46,25.72c4.09-1.89,4.13-7.72,2.77-12-4.2-13.22-15-23-23.2-34.24-13-17.84-17.95-39.62-30.22-58.17a181.8,181.8,0,0,0-50.09-50.55c-11.52-7.72-24-14.19-34-23.82-10.42-10-17.16-23.74-28.13-33.19-9.6-8.26-20.19-14.19-29.64-23.13-15.92-15.08-33.3-23.7-53.12-26.36a144.78,144.78,0,0,1-27.53-6.5c-41-14.05-80.19-40.69-123.35-83.84-3-3-6.07-6.13-9.16-9.34-3.59-3.73-7.46-7.65-12.16-12.35Q468.2,318,463,312.84,458,308,453.09,303l-1.81.83c1,1.91,1.91,3.86,2.81,5.76,2.31,4.87,4.7,9.91,8.08,14.12,19.08,23.73,38.6,46.82,57,68.42,2.61,3.07,5.32,6,8.07,8.76,16.36,16.36,35.22,27.05,56.07,31.76,11.73,2.65,23.64,5.13,35.16,7.53,9.85,2,20,4.17,30.08,6.39a27.07,27.07,0,0,1,13.62,7.12,24.63,24.63,0,0,1,6.92,15.16c.42,4.15-.39,7-2.48,8.77-2.77,2.33-7.49,2.45-14.85.36-9.52-2.69-19.23-6-28.61-9.12-4.54-1.53-9.24-3.11-13.85-4.6a221.11,221.11,0,0,1-88.85-54.72c-5.35-5.35-10.58-11.1-15.53-17.07C469.65,350,434.66,306.28,400.83,264L382.3,240.81c-6-7.46-11.43-15.4-16.72-23.08-2.43-3.52-4.93-7.17-7.45-10.71l-1.91-2.68,3.18.81a14.48,14.48,0,0,1,7,3.88c.4.4.79.83,1.2,1.32,8.08,9.71,16.35,18.79,24.57,27A316.25,316.25,0,0,0,432,271.32a50.38,50.38,0,0,1,6.29,5.29,36.19,36.19,0,0,1,3.61,4.18,63.28,63.28,0,0,0,6.47,7.6A58.88,58.88,0,0,0,472.61,303c10.08,3.24,19.36,9.21,28.39,18.23,1.08,1.08,2.18,2.23,3.26,3.41,10.86,11.83,22.19,23.63,33.14,35l4.8,5c.66.69,1.33,1.37,2,2.05,16.38,16.37,34.7,26.13,54.47,29l.23,0c13.55,2,27.57,4,41.1,5.09,11.33.91,21.65,5.16,31.55,13,24.3,19.24,52,32.87,79.37,46.79,22.49,11.44,21.62,35.31,39.72,51.22,5.76,5.06,13.16,7.82,19.55,12.05,13.89,9.19,22.14,24.63,33.62,36.7,9.54,10,21.38,17.8,30.06,28.59,16.58,20.59,19.21,48.68,27.9,73.64a153,153,0,0,0,49.39,69.33c-24.4-19.83-31.43-53.33-40.75-83.36-12.53-40.35-32.23-86.5-57.79-120.1-29-38.12-63.79-72.25-86.81-114.65C751.59,387.84,738.17,363.1,724.42,338.07Z"/><path class="cls-2" d="M1151.71,459a937.37,937.37,0,0,0-77.46-76c-16.94-14.79-39.24-32.63-62.64-34.44.19,4.37,7.21,9.31,10.06,12.18,4.94,5,10.17,9.66,15.48,14.24,10.66,9.18,21.72,17.89,31.93,27.58,12.35,11.73,23.35,24.79,35.29,36.93a329.68,329.68,0,0,0,66.94,52.4c11.25,6.66,21.12,14.26,31.54,22.09.55-2.54-1.45-4.87-3.29-6.71C1183.57,491.18,1166.85,475.68,1151.71,459Z"/><path class="cls-2" d="M1127.59,616.13c9.85,13.44,16.11,29.41,27.81,41.51,12.39,13,29.49,20.06,44.55,29.77,34.45,22.22,60.09,59.27,99.35,71.05-26.46-22.78-44-54.41-70-77.77-11-9.89-23.35-18.17-34.34-28.06-8-7.22-15.29-15.27-23.33-22.49-23.06-20.68-51.73-33.81-79.93-46.63C1103,595.72,1117.8,602.77,1127.59,616.13Z"/><path class="cls-2" d="M416.28,863.77c-13.63-11.58-28.6-21.46-40.08-35.19-13.5-16.13-25-33.65-40-48.59a341.28,341.28,0,0,0-27-24.33c-14.09-11.35-28.65-22.55-42.73-33.38-15.29-11.76-31.1-23.92-46.37-36.32a517.86,517.86,0,0,1-39.73-35.43c-33.59-33.59-54.58-67.49-64.2-103.65a46.42,46.42,0,0,0-5.75-13.29c-6.54-9.88-13.61-19.44-20.87-29.19-2.17-2.9-4.56-5.79-6.87-8.59A135.93,135.93,0,0,1,72,481.61c-5.32-8.54-9.61-17.59-13.77-26.34l-1.38-2.9a121.78,121.78,0,0,0-24-33.81,134.72,134.72,0,0,0-12.89-11.31c-7-5.4-13.77-11.12-20.18-17.07v20.64c16.1,20.42,32,40.85,47.66,60.92l10.28,13.2c4.84,6.21,9.1,12.88,13.22,19.33,1.89,3,3.84,6,5.82,9l.78,1.18-4,1.83-.59-.64c-2.87-3.1-5.73-6.31-8.5-9.41-5.16-5.76-10.48-11.72-16-17.25q-1.74-1.74-3.52-3.43c-7-6.63-14.48-12.95-21.74-19.06-5-4.19-10.1-8.52-15-12.91-2.83-2.52-5.6-5.16-8.32-7.8v35.47l6.08,5.41,17,15.17c15,13.32,27.73,25.26,39,36.5,29,29,51.27,56.8,68.08,85a57.5,57.5,0,0,0,8.68,10.86,67.6,67.6,0,0,0,10.29,8.49C185,666.49,218.15,696,250.19,724.43q6.45,5.73,12.91,11.45c3.53,3.12,7.08,6.34,10.52,9.46,8.67,7.86,17.63,16,26.91,23.14a330.85,330.85,0,0,1,32.16,27.84c16.95,16.95,25.85,37.18,39.9,55.46s34,32.08,50.37,48.28H454C442.46,887,429.53,875,416.28,863.77Z"/><path class="cls-2" d="M1407.13,872c-15.31-11.5-29.47-17.85-43.28-19.42-53.85-6.09-104.91-33.73-165.56-89.61l-.61-.56-13.93-12.85-23-21.15-1.47.52c.34,1.09.64,2.19.93,3.26.83,3.11,1.62,6.05,3.44,8.37,17.63,22.54,39.06,48.7,64.24,71.91a339.66,339.66,0,0,0,27.72,23,70.85,70.85,0,0,0,24.55,11.72c17.54,4.1,35.3,7.46,52.47,10.71,6.63,1.26,13.25,2.51,19.88,3.81,1.39.27,2.77.49,4.14.71a68.23,68.23,0,0,1,7.64,1.51,27.1,27.1,0,0,1,11.1,6.16,22.91,22.91,0,0,1,7.53,14.26c.41,3.8-.36,6.61-2.28,8.34-3.2,2.88-8.76,2.14-13.26,1.18-46-9.87-99.22-25.73-145.76-68.61a264.68,264.68,0,0,1-25.33-27c-22.83-27.93-46.91-55.82-70.19-82.78-14.28-16.54-29-33.64-43.37-50.59a187.33,187.33,0,0,1-22.17-33.17l1.92-1.42q5.54,5.56,11,11.18c8.63,8.79,17.55,17.88,26.66,26.45l.66.62a172.9,172.9,0,0,0,13.93,11.14c2.74,2,5.58,4.14,8.29,6.31,3.61,2.88,7.23,5.87,10.73,8.76,6.28,5.19,12.78,10.55,19.38,15.44l.3.23c7.29,5.39,14.82,11,22.26,13.62a104.3,104.3,0,0,1,36.33,22.16c1.9,1.75,3.81,3.63,5.68,5.57,6,6.28,12.51,12.41,18.76,18.35,4.25,4,8.65,8.21,12.89,12.4,1.31,1.3,2.65,2.58,4,3.8,21,19.4,44.11,29.5,66.69,29.23,25.21-.3,74.51,4.39,90.76,27,5,6.93,7.06,16.35,14.25,21,4.31,2.76,9.51,3.16,14.66,3.85v-37c-2.83-1.16-5.56-2.24-8.29-3.24A137.39,137.39,0,0,1,1384.71,799c-12-11-22-24.2-30.66-40.31-21.37-39.7-50.44-76.2-88.85-111.6-22.31-20.55-47.86-40.82-78.1-62a118.82,118.82,0,0,0-26.93-13.94c-32.76-12-61.22-33.21-87.57-53.93-28.33-22.28-55.9-44.26-81.8-68.12-6.5-6-12.78-12-18.67-17.86-1.53-1.52-3-3-4.51-4.32a99.11,99.11,0,0,0-15.1-11.71A88,88,0,0,1,938.9,405a91.22,91.22,0,0,1-21.5-30.5c-15.73-35.13-34.94-76.05-63.9-117.25L851.21,254l3.71,1.44c17,6.6,36.53,15.32,52.36,29.9a105.32,105.32,0,0,1,12.6,13.92,363.88,363.88,0,0,1,26.69,40.82c21.28,38,51.15,74.42,91.31,111.43,8.62,7.93,17.62,15.84,27.52,24.18,33.4,28.1,62.87,46.53,92.74,58,21,8.06,39.09,22.33,56.56,36.12,6,4.75,12.24,9.67,18.49,14.25,25.49,18.71,51.77,40.6,80.33,66.92,6.2,5.71,12.72,11.83,19.37,18.17q2,1.92,4.07,3.83a137.16,137.16,0,0,0,16.39,13.27,88.53,88.53,0,0,1,10.71,8.4,70.12,70.12,0,0,1,16.48,22.4c10.24,22.4,25.65,43.29,40.56,63.48,2.38,3.23,4.77,6.46,7.13,9.7,3.85,5.27,7.67,10.61,11.53,16V762.48c-.46-.78-.92-1.56-1.37-2.34-12.87-22-26.47-39.22-42.79-54.26A215.36,215.36,0,0,0,1379,692.07c-3.63-2.74-7.23-5.74-11-9.2-10.48-9.66-20.13-21-29.46-32-3.53-4.14-7.18-8.43-10.79-12.53a186,186,0,0,0-13.42-14c-8.12-7.48-15.9-12.69-24.46-16.41-11.56-5-22.67-12.5-33.95-22.9A311.26,311.26,0,0,1,1231.31,559a127.2,127.2,0,0,0-10.15-10.53,100.92,100.92,0,0,0-30.73-19.69c-44.67-17.94-87.48-46.1-130.87-86.08-12.2-11.24-24.32-23.27-37-36.76-17.84-18.91-34.54-39.29-50.69-59q-5-6.12-10-12.21c-6.39-7.76-11.39-16.5-16.26-25-3.85-6.72-4.76-10.41-3.15-12.72,1.5-2.16,4.9-2.61,11.37-1.53,26.88,4.51,47.49,13,64.85,26.8,25.1,19.92,52.11,36.55,78.23,52.62,7.68,4.73,15.62,9.61,23.41,14.52a154.58,154.58,0,0,1,22.67,17.24,141.75,141.75,0,0,1,19.9,22.74c9.2,13.13,20.73,25.92,36.28,40.25,9.33,8.6,19.23,17,28.81,25q6.58,5.57,13.13,11.16c5.08,4.37,9.25,8.05,13.11,11.61a197.61,197.61,0,0,1,33,38.49c8.21,12.75,11.88,28.84,21,40.74,10.49,13.66,29.72,16.44,44.32,25.57,12.93,8.08,22,21,33.65,30.81,15.62,13.11,35,19.94,52.82,29.32l.87.48V664.48l-6.07-4.44c-12.9-9.41-26.25-19.15-39.26-28.91a533.92,533.92,0,0,1-41.64-34.36c-35.48-32.68-59.74-66.46-74.19-103.25a93.14,93.14,0,0,0-21.27-31.7c-17.35-16.36-28.34-34.44-36.81-50a164.39,164.39,0,0,0-33.27-43A169.93,169.93,0,0,0,1170,355a228.82,228.82,0,0,1-23.12-18.67c-18.31-16.88-34.29-36.93-48.84-61.31-7.82-13.1-14.16-22.92-20.53-31.82a201,201,0,0,0-26.8-30.84c-26.76-24.66-56.72-35.18-91.6-32.18-7.93.68-15.88,1.68-23.57,2.65-35.73,4.49-61,6.94-92.9-13.65-1.79-1.16-25.59-17.89-24.11-18.8-21.16,12.62,40.82,55,53.51,62,23.17,12.89,42.61,30.46,70.34,33a143.6,143.6,0,0,1,27.77,5.37c41.54,12.36,81.79,37.37,126.67,78.73,3.11,2.86,6.32,5.87,9.54,8.95,3.74,3.58,7.76,7.35,12.65,11.85q5.41,5,10.86,9.94,5.13,4.7,10.26,9.39l1.78-.9c-1.07-1.87-2.07-3.78-3.05-5.64-2.51-4.78-5.1-9.71-8.65-13.78-20-22.94-40.48-45.2-59.71-66-2.73-2.95-5.56-5.79-8.42-8.42-17-15.68-36.3-25.58-57.32-29.44-11.83-2.17-23.83-4.16-35.44-6.09-9.93-1.64-20.19-3.34-30.31-5.15a27.15,27.15,0,0,1-13.9-6.56,24.59,24.59,0,0,1-7.54-14.87c-.59-4.13.11-7,2.12-8.86,2.68-2.44,7.38-2.75,14.82-1,9.63,2.31,19.46,5.17,29,8,4.6,1.34,9.36,2.72,14,4a221.11,221.11,0,0,1,91,51c5.57,5.13,11,10.65,16.22,16.42,36.94,41,73.68,83.28,109.21,124.18L1213.37,429c6.27,7.2,12.06,14.91,17.65,22.37,2.57,3.42,5.23,7,7.89,10.4l2,2.59-3.21-.68a14.47,14.47,0,0,1-7.11-3.59c-.41-.38-.82-.8-1.25-1.27-8.47-9.36-17.11-18.1-25.66-26a315.25,315.25,0,0,0-41.23-32.3,50.26,50.26,0,0,1-6.5-5,35.84,35.84,0,0,1-3.78-4,63.43,63.43,0,0,0-6.78-7.33,58.79,58.79,0,0,0-24.8-13.56c-10.2-2.83-19.73-8.41-29.11-17.05-1.13-1-2.27-2.15-3.4-3.28-11.34-11.37-23.14-22.7-34.54-33.65l-5-4.8c-.7-.67-1.39-1.32-2.09-2-17-15.69-35.74-24.69-55.6-26.75l-.24,0c-13.62-1.41-27.71-2.87-41.27-3.41-11.36-.45-21.85-4.27-32.06-11.7-34.72-25.25-79.82-35.31-112.84-62.63C782.91,187.47,755,176.75,730,164.06s-51-26.31-66.16-49.78c-17-26.37-17-59.74-19.78-91A143.84,143.84,0,0,0,640,.06H594.33c11.4,21.5,18,45.59,25.08,71.62,26.33,96.93,136.38,130.85,185,212.37a197.52,197.52,0,0,0-64.55-94.59c26.64,21.36,54.73,36,74.06,65.06,19.52,29.35,35.41,61,53.63,91.24,4.76,7.88,9.51,15.52,15.34,22.51,1.27,1.52,2.54,3.08,3.82,4.65,4.54,5.54,9.22,11.28,14.3,16a51,51,0,0,0,6.72,5.31,193.21,193.21,0,0,1,25.4,19.9c14.84,13.67,27.09,28.7,37.12,41.61,5.17,6.64,10.3,13.06,16.24,18.54A55.1,55.1,0,0,0,1002.85,485c15,6.15,28.78,15.33,43.49,28.88,9.32,8.59,18,18.1,24.55,25.43,2.74,3.07,5.62,6,8.56,8.71a120,120,0,0,0,30.48,20.4c3.87,1.83,7.75,3.63,11.65,5.43,13.67,6.33,27.8,12.88,41.15,20.9A477.21,477.21,0,0,1,1240,653c39,35.92,75.39,80.29,114.56,139.63l1.72,2.6-3-.76c-6.52-1.67-13.21-3.33-20-5-18.69-4.65-38-9.47-57.55-15.07-6.86-2-15.28-6.92-22.5-13.23-26.49-23.13-55.62-46.92-89.19-64.22a100.85,100.85,0,0,1-22.49-15.33,73.53,73.53,0,0,1-11.8-13.86c-12.16-18.65-27.75-36.48-49.06-56.11-4.89-4.51-10.09-9.12-15.9-14.1-3.24-2.79-6.46-5.65-9.57-8.51a342,342,0,0,1-49.23-56.4A110.61,110.61,0,0,0,990.63,515a75.83,75.83,0,0,0-10.74-8.36c-43.21-27.2-82-58.36-114.21-85.25l-8.22-6.92c-10.1-8.53-20.54-17.35-31.32-25a346.52,346.52,0,0,1-34.57-27.53c-23.09-21.28-37.34-43.44-47.89-73.15-2.38-6.68-4.81-13.61-7.72-20.22l1.37,1.25c9.74,8.93,19.81,18.17,30.27,26.27A346.09,346.09,0,0,1,801,325c18.25,18.25,36.5,35.52,54.76,54a389.43,389.43,0,0,0,66.67,54.09L865.7,378.34c-22.72-21.93-39.18-46.93-61.52-69.27a443.69,443.69,0,0,0-45.4-39.32c-5.7-4.36-11.53-8.76-17.17-13-17.61-13.28-35.82-27-52.69-41.87-13.06-11.5-26.42-24.08-39.71-37.36-9.08-9.08-18.35-18.73-27.56-28.66-19.72-21.28-29.21-46.29-36.56-68.07-5-14.73-10.9-30.2-24-43.26-.86-.85-1.75-1.7-2.65-2.52-1.31-1.19-2.61-2.42-3.84-3.66A104.57,104.57,0,0,1,533.16.06H514.39l8.05,10.3a187.47,187.47,0,0,1,20.79,34.06l-2,1.34Q536,40,530.7,34.14C522.43,25,513.89,15.56,505.14,6.61L504.5,6c-2-2-4.22-4-6.45-5.91H471.94c1.35,1.84,2.61,3.72,3.75,5.65,11.39,19.12,26.23,37.57,46.72,58.06,4.71,4.71,9.71,9.53,15.31,14.74,3.13,2.92,6.23,5.91,9.22,8.9a341.6,341.6,0,0,1,46.89,58.37,111.07,111.07,0,0,0,14.54,18.15,75.7,75.7,0,0,0,10.4,8.79c18.5,12.74,36.37,26.37,53.77,40.57,7.41,6.06,16.65,11.79,21.88,19.75,5.84,8.9,11.05,19,13.93,29.24,3.22,11.48,6.09,22.66,11.26,33.61A127.67,127.67,0,0,0,734.33,320c5.55,7.1,12.9,12.16,18.67,18.86,11.62,13.51,22.8,26.9,36.06,39.12a441.64,441.64,0,0,0,47,37.42c5.87,4.13,11.87,8.29,17.68,12.31,18.14,12.54,36.89,25.51,54.36,39.68,13.52,11,27.38,23,41.2,35.71,9.44,8.69,19.1,18,28.72,27.5,20.57,20.45,31.07,45.06,39.3,66.52,5.56,14.51,12.13,29.72,25.71,42.24.9.82,1.82,1.63,2.75,2.41,1.36,1.14,2.71,2.32,4,3.5a105.55,105.55,0,0,1,24.39,33.7c9.45,20.29,21.16,36.7,35.79,50.17a143.4,143.4,0,0,0,21.83,16.53,49.32,49.32,0,0,1,6.43,5.06c.75.66,1.5,1.32,2.26,2,2.75,2.32,5.5,4.74,8.17,7.2,26.79,24.69,45.8,53.3,60.87,78,11.37,18.68,23.89,34.37,37.2,46.63a144.91,144.91,0,0,0,20,15.48h173.12v-3.91c-10.68-7.7-21.22-15.61-31.56-23.37Z"/><path class="cls-2" d="M666,851.65a92.49,92.49,0,0,0-20.68-20.87c-25.85-19.18-60-27.13-88.21-41.73-42.42-22-86.11-43.12-120.93-76.57-17.27-16.59-35.05-29.23-54.36-38.65-17.88-8.72-35.38-18.45-54.76-29.34a31,31,0,0,1-6.48-5.25c-.73-.72-1.45-1.47-2.16-2.21s-1.41-1.46-2.12-2.17c-.36-.37-.73-.73-1.1-1.07-4-3.82-8-7.76-11.91-11.58-8.07-7.92-16.41-16.1-25-23.52-9.19-7.88-16.93-15-23.68-21.74-25.78-25.78-40.71-50.21-47-76.88-3.75-16-12.34-31.16-24.83-43.94-10.76-11-16.9-23.5-18.76-38.19-.84-6.62-1.9-13.4-2.91-20s-2-13.05-2.86-19.55c-3.18-24.79-14.55-46.66-34.77-66.87a185.38,185.38,0,0,0-17.29-15.18C96.08,288.53,86,280.28,76.31,272.3c-8.8-7.23-17.91-14.71-27-21.84A202.86,202.86,0,0,0,32.48,239c-2.22-1.41-4.51-2.85-6.75-4.33l-.8,1.51c.39.63.77,1.27,1.16,1.91a35.93,35.93,0,0,0,3.46,5.13c3.47,4.07,6.62,7.71,10.06,11.15.76.76,1.53,1.51,2.32,2.23,4.73,4.41,9.45,9,14,13.55a591.66,591.66,0,0,1,69.21,83.8c8.84,12.9,13.23,23.94,13.83,34.76,2.06,37.55,12.48,70.14,31.86,99.62,22.82,34.72,46.36,68.6,66.38,97.15a42.78,42.78,0,0,0,4.85,5.63c1.69,1.7,3.55,3.38,5.35,5s3.74,3.38,5.51,5.16c.81.81,1.53,1.57,2.21,2.32l2.67,2.95c5.9,6.49,12,13.21,16.44,20.41a228.25,228.25,0,0,0,33,41.62,264.41,264.41,0,0,0,45.24,36,151.14,151.14,0,0,1,26.25,21.32c1.9,1.9,3.82,3.89,5.86,6.08,5.27,5.64,11.12,11.67,17.87,18.43s13.46,13.28,20.08,19.74c24.56,23.94,50.13,44,80,61.18,30.16,17.34,61.94,33.52,86.09,59.19q4.36,4.65,8.33,9.61h35.84c-.13-.25-.25-.5-.39-.75-8.9-16-30.6-18.42-45.67-28.77-5.84-4-10.7-9.24-16-14-39.17-35.24-95.1-42.6-132.38-81.07C426.28,763,418,747.24,405.73,734.85,381.59,710.54,352.58,693,329,667.38l-2.5-2.71,3.62.71c5.48,1.08,10.07,3.62,14.51,6.08l.49.27c2.52,1.39,5.06,2.92,7.53,4.4,5.55,3.33,11.3,6.78,16.91,8.77A92.68,92.68,0,0,1,405,707.32c1.39,1.39,2.78,2.86,4.13,4.36,2.28,2.56,4.62,5,7,7.36,29.1,29.09,69.37,52.68,105.45,72.07,47.31,25.44,99.72,46.48,133,88.65a172.08,172.08,0,0,1,13.67,20.3h29.59C683,887.44,677.19,867.48,666,851.65Z"/><path class="cls-2" d="M30.89,739.34c2,2,4,4.06,6,6.1s4,4.07,6,6.07q2.25,2.25,4.53,4.44c15.9,15.19,34.19,25.67,51.88,35.8,9.16,5.25,18.64,10.68,27.7,16.71,1,.67,2.35.87,4.58,1.2.73.11,1.56.23,2.49.39-1.24-1.85-2.36-3.62-3.45-5.34-2.93-4.62-5.46-8.6-8.63-11.76l-.16-.17c-7.52-7.4-15.55-14.56-23.3-21.49-4.5-4-9.14-8.16-13.65-12.31-20-18.47-36.78-34-53.51-49.85-1.54-1.46-3.15-3-4.92-4.8-2.51-2.51-5-5.11-7.46-7.62s-4.93-5.09-7.42-7.58c-4.47-4.47-8.23-8-11.8-10.94V714.4c3.21,2.32,6.47,4.58,9.8,6.75C17.49,726.31,24.79,733.24,30.89,739.34Z"/><path class="cls-2" d="M-.24,875.4v19.77l4.6,4.89h19.3c-2.95-3.81-6-7.51-9.23-11A144.69,144.69,0,0,0-.24,875.4Z"/><path class="cls-2" d="M1055,891c2.16-27.42-12.72-49.64-29.46-71.47a150.88,150.88,0,0,0-14.66-16.4c-26.73-26-60.89-42.2-92.48-61.25-15-9-31.32-18.43-44.42-30.11-13.58-12.11-24.42-27-38.39-38.68C829.2,667.7,822.07,663,817,656.28c-4.3-5.64-6.9-12.36-10.49-18.47a65.65,65.65,0,0,0-33.72-28.13c11.93,9.93,24.43,20.66,29.2,35.44,1.2,3.7,1.89,7.61,3.67,11.08,4.2,8.16,13.6,12.38,18.67,20,2.52,3.81,3.84,8.28,5.88,12.38,4.67,9.39,12.83,16.18,21.17,22.22,13.43,9.71,24.88,22.63,38.6,32.56,14.37,10.41,29.31,20,44,30,28.46,19.37,56.88,40.88,74.18,71.36,9.68,17,15.35,36,18.81,55.35H1054C1054.4,897,1054.8,894,1055,891Z"/><path class="cls-2" d="M56.16,885.48c-17.62-18-35.57-38.42-54.86-62.35l-1.54-1.92V840c16.07,19.73,31.3,40.19,47.22,60.1H72.17A188.42,188.42,0,0,1,57.67,887C57.16,886.5,56.66,886,56.16,885.48Z"/><path class="cls-2" d="M56.39,180.31l7,7.05,1.45-.22c-.47-1.42-.87-2.9-1.25-4.33-1.12-4.14-2.18-8-4.63-10.8l-4-4.56c-9.22-10.42-18.76-21.2-28.69-31.14-4.65-4.65-9-8.75-13.37-12.56s-8.74-7.6-13.15-11.39v11.07q14.85,14.85,29.65,29.78Q42.9,166.77,56.39,180.31Z"/><path class="cls-2" d="M22.12,809.67c-7-7-14.25-14.19-21.49-21.11l-.87-.8v15.93c3.6,4.6,7.24,9.15,10.82,13.62,5,6.27,10.21,12.74,15.17,19.2a252.38,252.38,0,0,0,21.64,24.84c18,18,37,30.82,57.5,38.71H152.2c-29.93-9.45-59.1-26.1-87-49.77C50.18,837.61,35.92,823.41,22.12,809.67Z"/><path class="cls-2" d="M1.44,288.44A39.57,39.57,0,0,0-.24,280.5v9.2l2.08,1.42C1.69,290.22,1.57,289.33,1.44,288.44Z"/><path class="cls-2" d="M234.1,885.16c-3.14-2.86-6.26-5.83-9.25-8.83-20.24-20.24-37.12-43.36-51.6-70.7-20.09-37.93-46.92-73.43-82-108.52-19.8-19.8-42.24-39.5-68.62-60.22A130.75,130.75,0,0,0-.24,622.34v23.51c21.94,15.31,44.24,34.41,67.88,58,5.82,5.82,11.71,11.89,18,18.56,28,29.65,63.46,69.69,89.1,116.42,4.51,8.21,5.6,13.16,3.54,16-1.82,2.54-5.85,3.16-12.69,2-25.1-4.39-51.86-11.69-77.48-35.16-19-17.41-40.18-32.55-58.37-45.06-11.14-7.66-21-15-30-22.13v15.94a110.91,110.91,0,0,1,36.19,24c1.95,2,3.87,4,5.72,6.15,4.33,5,8.94,9.94,13.4,14.71,3.23,3.46,6.56,7,9.77,10.6,2.11,2.35,4.27,4.63,6.43,6.79,20,20,42.28,31.83,66.2,35.15l5,.71a266.6,266.6,0,0,0,26.89,2.91c12.17.45,23.47,5,34.57,14a193.16,193.16,0,0,0,20.82,14.5h27.38C245.94,895.43,239.91,890.45,234.1,885.16Z"/><path class="cls-2" d="M921,871.23c-2.87-5.41-4.57-11.38-7.38-16.82-2.58-5-6.07-9.49-9.53-13.94-8.53-11-17.73-28.07-29.71-35.34,3.5,7.79,5.86,16.51,10.2,23.91,2.87,4.9,6.93,9,10.27,13.55,6.87,9.39,10.57,20.68,16.15,30.88,5.33,9.73,12.29,18.36,19.82,26.59h14.39c-1.69-2-3.41-3.93-5.19-5.83C933.23,886.93,925.71,880.05,921,871.23Z"/><path class="cls-2" d="M857.73,752.33c-17.27-13.53-34.53-27.62-47.21-45.52-12.34-17.44-19.86-37.8-30.69-56.22-6.61-11.24-16.11-20.59-24.28-30.66-9.76-12-13.52-22.49-17.69-37.25a4.29,4.29,0,0,1-.1-3c.73-1.52,2.81-1.6,4.49-1.47,9.48.76,19,1.53,28.18,4.18s17.93,7.34,23.93,14.73c3.76,4.63,6.3,10.15,10,14.84s8.28,8.3,12.24,12.62a55.72,55.72,0,0,1,12.86,23.69c-7.49-31-25-61.73-54-75.11-5.55-2.57-11.41-4.45-16.8-7.32-5.74-3-10.85-7.16-16.46-10.45-7.63-4.48-16-5.76-23.9-9.15s-15.4-6.61-23.79-8.95c-28.86-8.05-56.42-18.61-86.37-23.23-27.33-4.21-50.43-14.7-70.6-32.09-5.25-4.52-10.42-9.32-15.35-14.25a297.44,297.44,0,0,1-51.24-69,275.28,275.28,0,0,0-48.24-64.8c-4-4-8.31-8.07-12.7-12-3.06-2.73-6-5.55-8.85-8.36-17.54-17.53-30.24-36.69-37.75-56.94-1.95-5.24-5.61-10.59-9.15-15.76-1-1.43-1.95-2.86-2.88-4.27-7.7-11.65-15.62-23.46-23.28-34.89-15.37-22.92-31.27-46.63-46.15-70.23-17.92-28.42-34.49-49.89-52.16-67.55-4.15-4.15-8.42-8.15-12.71-11.9-21.54-18.82-42.07-36-62.2-52H142.85c1.49,1.1,3,2.21,4.45,3.33a495.79,495.79,0,0,1,51.63,44.36c25.5,25.5,44.52,51.77,58.17,80.31a315.36,315.36,0,0,0,61,85.73c21.4,21.4,36,44.54,46,72.82,12,34.12,31.45,66.21,57.73,95.38q4.57,5.07,9.18,10.1c21.11,23.15,36.49,45.36,52.82,72.51,8.32,13.84,16.76,27.82,28.13,39.28,17.11,17.24,39.73,27.69,61.83,37.78a163.14,163.14,0,0,1-51.12-52.42c5.41,8.92,25.32,17.15,34.21,22.52,12.49,7.54,25.26,14.62,38,21.64,25.47,14,51.25,27.51,75.58,43.42,50.92,33.31,90.28,79.95,121.29,132,7.06,11.85,13.82,24.13,23.7,33.74,23.3,22.64,61,27.74,80.23,53.93,3.95,5.38,6.94,11.46,11.34,16.48,4.62,5.26,10.64,9.16,15.21,14.46,8.24,9.57,11.06,22.82,19,32.63,5.14,6.36,12.6,10.56,17.64,16.93s7.19,15.06,12.28,22c.28.37.52.75.78,1.13h27.69c-4-21.65-15.2-39.8-31-55.72C934.79,810.13,895.55,781.93,857.73,752.33Z"/><path class="cls-2" d="M298.15,887c-10.89-20.87-21.19-40.6-31.66-60.41-1.08-2-2.14-4.08-3.2-6.13C259,812.23,254.59,803.69,249,796c-1.09-1.52-2.2-3.07-3.31-4.64-5.92-8.31-12-16.91-19-23.86a66.73,66.73,0,0,0-7.07-6.18,238.63,238.63,0,0,1-25.88-22.5c-13.19-13.19-25.44-28.2-38.54-47.25a102,102,0,0,0-11.8-14.31,77.47,77.47,0,0,0-20.69-14.94,146.54,146.54,0,0,1-39.47-28.34c-1.69-1.68-3.37-3.44-5-5.22-3.41-3.74-6.9-7.38-10.36-10.84C48.69,598.66,28.76,583.55,7,571.69c-2.44-1.32-4.84-2.74-7.24-4.2v17.83C19.32,596,36,610.05,48.83,621.65c17.68,16,35.69,32.21,53.12,47.89,27.61,24.83,56.17,50.52,84.05,76,1.63,1.48,3.23,3,4.75,4.53,13.89,13.89,23.31,29.2,27.25,44.27,6.5,24.86,19.71,49,41.58,76a139,139,0,0,1,15.47,24.33,19.16,19.16,0,0,1,1.67,5.4h29C303.08,895.8,300.54,891.47,298.15,887Z"/></g></svg>