<svg xmlns="http://www.w3.org/2000/svg" xmlns:xlink="http://www.w3.org/1999/xlink" width="201.58" height="217.051" viewBox="0 0 201.58 217.051">
  <defs>
    <clipPath id="clip-path">
      <path id="Clip_2" data-name="Clip 2" d="M0,89.417a89.555,89.555,0,0,0,89.693,89.417h0a89.555,89.555,0,0,0,89.693-89.417h0A89.555,89.555,0,0,0,89.693,0h0A89.555,89.555,0,0,0,0,89.417Z" transform="translate(0.42 0.375)" fill="none"/>
    </clipPath>
    <clipPath id="clip-path-2">
      <path id="Clip_5" data-name="Clip 5" d="M0,89.417a89.555,89.555,0,0,0,89.693,89.417h0a89.555,89.555,0,0,0,89.693-89.417h0A89.555,89.555,0,0,0,89.693,0h0A89.555,89.555,0,0,0,0,89.417" transform="translate(0.42 0.375)" fill="none"/>
    </clipPath>
    <clipPath id="clip-path-12">
      <path id="Clip_6" data-name="Clip 6" d="M0,0H39.559V17.5H0Z" transform="translate(0.191 0.245)" fill="none"/>
    </clipPath>
    <clipPath id="clip-path-13">
      <path id="Clip_9" data-name="Clip 9" d="M0,0H26.8V18.374H0Z" transform="translate(0.008 0.195)" fill="none"/>
    </clipPath>
    <clipPath id="clip-path-14">
      <path id="Clip_20-2" data-name="Clip 20" d="M0,0H18.887V18.613H0Z" transform="translate(0 0.162)" fill="none"/>
    </clipPath>
  </defs>
  <g id="Group_25" data-name="Group 25" transform="translate(-416.42 -143.517)">
    <g id="roundel" transform="translate(416 143)">
      <g id="Group_3" data-name="Group 3" transform="translate(0 0.141)">
        <path id="Clip_2-2" data-name="Clip 2" d="M0,89.417a89.555,89.555,0,0,0,89.693,89.417h0a89.555,89.555,0,0,0,89.693-89.417h0A89.555,89.555,0,0,0,89.693,0h0A89.555,89.555,0,0,0,0,89.417Z" transform="translate(0.42 0.375)" fill="none"/>
        <g id="Group_3-2" data-name="Group 3" clip-path="url(#clip-path)">
          <path id="Fill_1" data-name="Fill 1" d="M0,0C.215,38.836.311,130.672.311,204.87c0,55.406-.05,100.634-.136,124.35H1.994c.276-43.334.42-155.517.42-244.462,0-36.95-.026-66.993-.073-84.758Z" transform="translate(25.549 -49.834)" fill="#fbfcfd"/>
        </g>
      </g>
      <g id="Group_6" data-name="Group 6" transform="translate(0 0.141)">
        <path id="Clip_5-2" data-name="Clip 5" d="M0,89.417a89.555,89.555,0,0,0,89.693,89.417h0a89.555,89.555,0,0,0,89.693-89.417h0A89.555,89.555,0,0,0,89.693,0h0A89.555,89.555,0,0,0,0,89.417" transform="translate(0.42 0.375)" fill="none"/>
        <g id="Group_6-2" data-name="Group 6" clip-path="url(#clip-path-2)">
          <path id="Fill_4" data-name="Fill 4" d="M1.894,84.269c-.119-8.553-.243-17.4-.312-26.1C1.53,51.636,1.5,44.732,1.5,37.061,1.5,23.7,1.585,10.316,1.657,0H0C.041,31.2.083,99.012.124,164.609S.206,298.02.248,329.221H1.694c.3-22.274.575-144.7.575-194.4,0-9.386-.009-15.874-.028-19.288-.056-10.423-.2-21.02-.347-31.269" transform="translate(41.449 -49.835)" fill="#fbfcfd"/>
        </g>
      </g>
      <g id="Group_9" data-name="Group 9" transform="translate(0 0.141)">
        <path id="Clip_8-2" data-name="Clip 8" d="M0,89.417a89.555,89.555,0,0,0,89.693,89.417h0a89.555,89.555,0,0,0,89.693-89.417h0A89.555,89.555,0,0,0,89.693,0h0A89.555,89.555,0,0,0,0,89.417" transform="translate(0.42 0.375)" fill="none"/>
        <g id="Group_9-2" data-name="Group 9" clip-path="url(#clip-path-2)">
          <path id="Fill_7" data-name="Fill 7" d="M3.16,0H1.48C1.233,31.186.983,98.986.74,164.572.5,230.18.247,298,0,329.221H1.49c.471-21.6.911-146.941,1.077-194.455.027-7.684.047-13.426.059-16.5.011-2.71.017-5.491.017-8.5,0-7.589-.035-15.306-.069-22.769s-.069-15.187-.069-22.781q0-1.666,0-3.331C2.537,40.371,2.852,18.646,3.16,0" transform="translate(90.072 -49.834)" fill="#fbfcfd"/>
        </g>
      </g>
      <g id="Group_12" data-name="Group 12" transform="translate(0 0.141)">
        <path id="Clip_11-2" data-name="Clip 11" d="M0,89.417a89.555,89.555,0,0,0,89.693,89.417h0a89.555,89.555,0,0,0,89.693-89.417h0A89.555,89.555,0,0,0,89.693,0h0A89.555,89.555,0,0,0,0,89.417" transform="translate(0.42 0.375)" fill="none"/>
        <g id="Group_12-2" data-name="Group 12" clip-path="url(#clip-path-2)">
          <path id="Fill_10" data-name="Fill 10" d="M3.16,0H1.48C1.233,31.187.983,98.993.74,164.584S.247,298.006,0,329.221H1.49C1.962,307.6,2.4,182.2,2.568,134.665c.027-7.634.047-13.339.059-16.4.011-2.714.017-5.5.017-8.514,0-7.588-.035-15.306-.069-22.769S2.506,71.8,2.506,64.2c0-1.108,0-2.212,0-3.32C2.537,40.369,2.852,18.645,3.16,0" transform="translate(8.5 -49.834)" fill="#fbfcfd"/>
        </g>
      </g>
      <g id="Group_15" data-name="Group 15" transform="translate(0 0.141)">
        <path id="Clip_14-2" data-name="Clip 14" d="M0,89.417a89.555,89.555,0,0,0,89.693,89.417h0a89.555,89.555,0,0,0,89.693-89.417h0A89.555,89.555,0,0,0,89.693,0h0A89.555,89.555,0,0,0,0,89.417" transform="translate(0.42 0.375)" fill="none"/>
        <g id="Group_15-2" data-name="Group 15" clip-path="url(#clip-path-2)">
          <path id="Fill_13" data-name="Fill 13" d="M0,329.221H1.82c.654-47.7,1.144-178.712,1.468-265.552.1-26.276.183-49.027.252-63.668H1.2C1.053,80.039.65,270.061,0,329.221" transform="translate(57.66 -49.834)" fill="#fbfcfd"/>
        </g>
      </g>
      <g id="Group_18" data-name="Group 18" transform="translate(0 0.141)">
        <path id="Clip_17-2" data-name="Clip 17" d="M0,89.417a89.555,89.555,0,0,0,89.693,89.417h0a89.555,89.555,0,0,0,89.693-89.417h0A89.555,89.555,0,0,0,89.693,0h0A89.555,89.555,0,0,0,0,89.417Z" transform="translate(0.42 0.375)" fill="none"/>
        <g id="Group_18-2" data-name="Group 18" clip-path="url(#clip-path)">
          <path id="Fill_16" data-name="Fill 16" d="M4.3,37.654C4.275,25.649,4.252,12.07,3.782,0H1.311c.157,4.213.233,8.494.305,12.641.038,2.17.077,4.413.127,6.611.411,17.88.647,52.653.647,95.4,0,79.4-.821,178.185-2.39,214.564H2.737C3.923,283.38,4.308,125.653,4.308,56.057c0-7.247,0-13.419-.013-18.345Z" transform="translate(72.876 -49.835)" fill="#fbfcfd"/>
        </g>
      </g>
      <g id="Group_21" data-name="Group 21" transform="translate(0 0.141)">
        <path id="Clip_20-3" data-name="Clip 20" d="M0,89.417a89.555,89.555,0,0,0,89.693,89.417h0a89.555,89.555,0,0,0,89.693-89.417h0A89.555,89.555,0,0,0,89.693,0h0A89.555,89.555,0,0,0,0,89.417Z" transform="translate(0.42 0.375)" fill="none"/>
        <g id="Group_21-2" data-name="Group 21" clip-path="url(#clip-path)">
          <path id="Fill_19" data-name="Fill 19" d="M1.472,0C.467,39.263,0,80.795,0,130.625c0,4.71,0,9.6.013,14.524,0,1.679.006,5.553.01,11.079C.052,195.6.141,314.139.7,329.221H3.181c-.248-8.605-.356-64.6-.443-109.931-.055-29.035-.1-54.11-.174-57.17-.429-18.669-.647-37.751-.647-56.717,0-35.365.748-70.825,2.222-105.4Z" transform="translate(107.148 -49.834)" fill="#fbfcfd"/>
        </g>
      </g>
      <g id="Group_24" data-name="Group 24" transform="translate(0 0.141)">
        <path id="Clip_23-2" data-name="Clip 23" d="M0,89.417a89.555,89.555,0,0,0,89.693,89.417h0a89.555,89.555,0,0,0,89.693-89.417h0A89.555,89.555,0,0,0,89.693,0h0A89.555,89.555,0,0,0,0,89.417Z" transform="translate(0.42 0.375)" fill="none"/>
        <g id="Group_24-2" data-name="Group 24" clip-path="url(#clip-path)">
          <path id="Fill_22" data-name="Fill 22" d="M0,0C.215,38.835.311,130.668.311,204.865c0,55.41-.05,100.639-.136,124.356H1.994c.276-43.333.42-155.513.42-244.455,0-36.954-.026-67-.073-84.766Z" transform="translate(140.302 -49.834)" fill="#fbfcfd"/>
        </g>
      </g>
      <g id="Group_27" data-name="Group 27" transform="translate(0 0.141)">
        <path id="Clip_26-2" data-name="Clip 26" d="M0,89.417a89.555,89.555,0,0,0,89.693,89.417h0a89.555,89.555,0,0,0,89.693-89.417h0A89.555,89.555,0,0,0,89.693,0h0A89.555,89.555,0,0,0,0,89.417" transform="translate(0.42 0.375)" fill="none"/>
        <g id="Group_27-2" data-name="Group 27" clip-path="url(#clip-path-2)">
          <path id="Fill_25" data-name="Fill 25" d="M3.16,0H1.48C1.233,31.187.983,98.993.74,164.584S.247,298.006,0,329.221H1.49C1.962,307.6,2.4,182.2,2.568,134.665c.027-7.634.047-13.339.059-16.4.011-2.714.016-5.5.016-8.514,0-7.588-.035-15.306-.069-22.769S2.506,71.8,2.506,64.2c0-1.108,0-2.212,0-3.32C2.537,40.369,2.852,18.645,3.16,0" transform="translate(172.14 -49.834)" fill="#fbfcfd"/>
        </g>
      </g>
      <g id="Group_30" data-name="Group 30" transform="translate(0 0.141)">
        <path id="Clip_29-2" data-name="Clip 29" d="M0,89.417a89.555,89.555,0,0,0,89.693,89.417h0a89.555,89.555,0,0,0,89.693-89.417h0A89.555,89.555,0,0,0,89.693,0h0A89.555,89.555,0,0,0,0,89.417" transform="translate(0.42 0.375)" fill="none"/>
        <g id="Group_30-2" data-name="Group 30" clip-path="url(#clip-path-2)">
          <path id="Fill_28" data-name="Fill 28" d="M3.16,0H1.48C1.233,31.186.983,98.988.74,164.576.5,230.183.247,298,0,329.221H1.491c.471-21.62.911-147.032,1.077-194.574.027-7.623.047-13.323.059-16.381.011-2.713.016-5.5.016-8.509,0-7.589-.035-15.307-.069-22.772S2.506,71.8,2.506,64.2c0-1.108,0-2.212,0-3.32C2.537,40.371,2.852,18.646,3.16,0" transform="translate(123.253 -49.834)" fill="#fbfcfd"/>
        </g>
      </g>
      <g id="Group_33" data-name="Group 33" transform="translate(0 0.141)">
        <path id="Clip_32-2" data-name="Clip 32" d="M0,89.417a89.555,89.555,0,0,0,89.693,89.417h0a89.555,89.555,0,0,0,89.693-89.417h0A89.555,89.555,0,0,0,89.693,0h0A89.555,89.555,0,0,0,0,89.417Z" transform="translate(0.42 0.375)" fill="none"/>
        <g id="Group_33-2" data-name="Group 33" clip-path="url(#clip-path)">
          <path id="Fill_31" data-name="Fill 31" d="M1.472,0C.467,39.264,0,80.8,0,130.631c0,4.709,0,9.594.013,14.518,0,1.678.006,5.548.01,11.068.029,39.378.118,157.921.675,173H3.181c-.248-8.605-.356-64.6-.443-109.931-.055-29.035-.1-54.11-.174-57.17-.429-18.669-.647-37.751-.647-56.717,0-35.365.748-70.825,2.222-105.4Z" transform="translate(156.035 -49.834)" fill="#fbfcfd"/>
        </g>
      </g>
    </g>
    <g id="illo" transform="translate(530 178)">
      <path id="Fill_1-2" data-name="Fill 1" d="M3.783,46.67A15.373,15.373,0,0,1,.469,39.408a45.845,45.845,0,0,1-.142-12.06A62.9,62.9,0,0,0,.866,17.4c-.043-.628-.16-1.349.623-1.7a4.334,4.334,0,0,0,4.043-.731c.478.041.6.347.655.777C6.541,18.5,6.731,21.276,7.281,24Q7.9,27.08,8.537,30.16c.271-.029.182-.274.222-.437.738-2.989.632-6.055.832-9.093.052-.787.114-1.574.2-2.357.527-4.577,4.558-7.7,8.486-8.473,2.264-.446,4.55-.787,6.78-1.407a8.918,8.918,0,0,0,3.45-1.947,1.469,1.469,0,0,0,.461-1.768c-.208-.5-.377-1.019-.563-1.53A2.073,2.073,0,0,1,28.831.806,5.755,5.755,0,0,0,32.357,1.83a3.3,3.3,0,0,0,3.19-1.7c.612.27.619.818.664,1.374.038.482-.17.96.054,1.446a2.228,2.228,0,0,0,2.971,1.08,22.461,22.461,0,0,0,4.724-2.2A11.8,11.8,0,0,1,49.163.06a6.17,6.17,0,0,1,3.664.562c3.1,1.635,6.324,3.085,9.036,5.347A107.2,107.2,0,0,1,71,13.979c1.9,1.994,3.78,4.095,3.974,7.121a19.428,19.428,0,0,1-1.1,6.651,22.092,22.092,0,0,1-4.623,8.286c-1.322,1.547-2.871,2.9-4.319,4.337a10.128,10.128,0,0,0-1.817,2.194.809.809,0,0,1-.945.457,2.014,2.014,0,0,0-1.047-2.812,13.291,13.291,0,0,0-1.737-.656,41.035,41.035,0,0,1,2.634-4.4,19.672,19.672,0,0,0,2.84-5.119,3.493,3.493,0,0,0-.544-3.838,15.7,15.7,0,0,0-3.651-2.974,13.117,13.117,0,0,1-3.4-2.366c-1.1-1.223-2.628-1.636-4.042-2.553.062.339.081.526.132.7a44.139,44.139,0,0,1,1.57,10.637,28.5,28.5,0,0,0,1.16,6.832,12.764,12.764,0,0,1,.73,3.426c-.636.137-1.265.319-1.908.4a13.06,13.06,0,0,0-9.44,5.864,3.309,3.309,0,0,0-1.12.343l-.806.3-5.729.848-.785.021c-1.383-.131-2.838.01-3.97-1.063-.679-.982-1.387-1.945-2.033-2.949-2.7-4.193-4.608-8.824-7.239-13.054-.532-.856-.978-1.765-1.523-2.757-.6,3.451-1,6.775-1.879,10.01A22.353,22.353,0,0,1,18.1,43.349a25.928,25.928,0,0,1-2.526,3.161,20.442,20.442,0,0,1-3.211,1.926,6.8,6.8,0,0,1-3.571.538,15.235,15.235,0,0,1-2.954-.546A14.986,14.986,0,0,1,3.783,46.67" transform="translate(13 22)" fill="#e33026"/>
      <path id="Fill_3" data-name="Fill 3" d="M3.779,0C4.831,2.3,5.957,4.571,6.917,6.9a28.358,28.358,0,0,1,1.845,8.423c.358,4.117.528,8.246.948,12.359.35,3.424.571,6.871,1.231,10.247A60.828,60.828,0,0,1,11.9,52.9c-.222,4.176-.616,8.349-.858,12.528-.19,3.28-.214,6.565-.108,9.843A64.1,64.1,0,0,1,9.642,89.026c-.293,1.586-.4,3.2-.606,4.8A1.207,1.207,0,0,1,7.712,95l-.447-.058a35.423,35.423,0,0,0,.4-5.418c.087-3.734.18-7.464.423-11.193.28-4.289.148-8.587.161-12.882.015-4.935.015-9.869-.056-14.8-.058-4.011-.768-7.965-.915-11.963a26.72,26.72,0,0,0-.357-3.821c-.929-5.071-1.637-10.174-2.4-15.267A105.84,105.84,0,0,0,.593,2.173,3.389,3.389,0,0,0,0,.779,1.051,1.051,0,0,1,1.1.2,12.315,12.315,0,0,0,3.779,0" transform="translate(68 68)" fill="#c96"/>
      <g id="Group_7" data-name="Group 7" transform="translate(25)">
        <path id="Clip_6-2" data-name="Clip 6" d="M0,0H39.559V17.5H0Z" transform="translate(0.191 0.245)" fill="none"/>
        <g id="Group_7-2" data-name="Group 7" clip-path="url(#clip-path-12)">
          <path id="Fill_5" data-name="Fill 5" d="M15.85,17.219c-2.26-.082-4.5-.379-6.741-.649a45.428,45.428,0,0,0-5.471-.022,7.3,7.3,0,0,1-2.27-.12C.639,16.2.058,15.874,0,15.013a1.713,1.713,0,0,1,1.175-1.707,7.66,7.66,0,0,1,2.777-.612c2.21-.132,4.413.115,6.62.1,2.27-.015,2.3,0,2.487-2.286a21.64,21.64,0,0,1,1.8-7.146c.078-.175.153-.352.237-.524,1.1-2.242,2.49-2.9,4.863-2.173A2.427,2.427,0,0,0,22.158.477a3.079,3.079,0,0,1,3.791.4,2.629,2.629,0,0,1,1.011,2.149,64.857,64.857,0,0,1-.472,7.558c-.308,2.25-.205,2.447,2.061,2.621,2.225.171,4.462.18,6.694.27.789.032,1.577.084,2.365.143a2.292,2.292,0,0,1,1.575.778,1.447,1.447,0,0,1-.231,2.15,4.161,4.161,0,0,1-2.376.757c-4.74.127-9.479.323-14.221.074-2.169-.018-4.341.047-6.506-.16" transform="translate(0.191 0.245)" fill="#ffc300"/>
        </g>
      </g>
      <g id="Group_10" data-name="Group 10" transform="translate(49 164)">
        <path id="Clip_9-2" data-name="Clip 9" d="M0,0H26.8V18.374H0Z" transform="translate(0.008 0.195)" fill="none"/>
        <g id="Group_10-2" data-name="Group 10" clip-path="url(#clip-path-13)">
          <path id="Fill_8" data-name="Fill 8" d="M25.966.855c.719.075.842.551.8,1.15a90.4,90.4,0,0,0-.012,10.568,15.635,15.635,0,0,1-.329,4.7,1.068,1.068,0,0,1-1.065.907,39.289,39.289,0,0,1-4.125.181c-.861-.043-1.072-.253-1.082-1.137-.008-.685,0-1.371,0-2.138a17.847,17.847,0,0,1-2.581,2.143,5.411,5.411,0,0,1-2.553.671c-1.3-.035-2.6-.021-3.9-.025-1.35,0-2.7.065-4.045.124-1.748.076-3.508-.059-5.261-.127a1.879,1.879,0,0,1-1.8-1.343C-.1,15.506.295,14.926,1.4,14.6a50.009,50.009,0,0,1,6.944-1.531,9.117,9.117,0,0,0,6.747-4.71,32.1,32.1,0,0,0,3.023-7.4A1.22,1.22,0,0,1,19.076,0c.2.129.461.057.675.218a6.534,6.534,0,0,0,2.852,1.2A4.333,4.333,0,0,0,25.966.855" transform="translate(0.008 0.195)" fill="#fbfcfd"/>
        </g>
      </g>
      <path id="Fill_11" data-name="Fill 11" d="M0,.834,5.882,0C5.895,1.931,6,3.867,5.9,5.792A32.293,32.293,0,0,0,7.272,15.8,108.854,108.854,0,0,1,9.761,28.435,36.4,36.4,0,0,0,11.4,35.974a60.017,60.017,0,0,1,1.928,7.075c1.02,4.4,1.4,8.905,2.278,13.33.661,3.344,1.508,6.651,1.988,10.032.438,3.089.392,6.216.835,9.294.873,6.068.468,12.157.52,18.24L18.414,94a1.519,1.519,0,0,1-1.148-1.369c-.488-2.378-.078-4.765-.253-7.138-.43-5.822-.647-11.662-1.907-17.408-.487-2.221-.622-4.511-.974-6.762a26.629,26.629,0,0,0-.7-3.059,23.443,23.443,0,0,1-.77-6.929,19.094,19.094,0,0,0-.658-5.9c-.649-2.19-1.408-4.35-2.023-6.549C8.736,34.443,7.33,30.03,6.839,25.422c-.054-.506-.144-1.01-.178-1.517-.033-.48-.254-.682-.751-.589a23.931,23.931,0,0,1-1.573-2.645,28.953,28.953,0,0,1-2.283-9.025A63.275,63.275,0,0,0,0,.834" transform="translate(50 69)" fill="#c96"/>
      <path id="Fill_13-2" data-name="Fill 13" d="M15.107.253c1.207-.488,1.538-.33,2.467,1.005a68.108,68.108,0,0,1,5.568,9.749c.239.5.5,1,.736,1.506a.793.793,0,0,1-.413,1.187c-1.032.483-2.076.941-3.116,1.409a.773.773,0,0,1-1.024-.314c-.416-.506-.532-1.195-1.04-1.74-.179.573-.307,1.053-.478,1.517-.4,1.086-1.4,1.649-2.188,2.367a31.276,31.276,0,0,1-7.652,4.791c-1.287.627-2.6,1.2-3.894,1.811a3.939,3.939,0,0,1-2.924.3A1.456,1.456,0,0,1,.4,21.407a4.538,4.538,0,0,1,1.367-.944c2.658-1.514,5.27-3.1,7.166-5.588a8.456,8.456,0,0,0,1.876-4.5,9.333,9.333,0,0,0-.972-4,3.767,3.767,0,0,0-.428-.855,1.633,1.633,0,0,1,.2-2.346c.1.011.219.06.306.028A18.524,18.524,0,0,0,13.43,1.613c.6-.374,1.336-.641,1.677-1.36" transform="translate(19 121)" fill="#fbfcfd"/>
      <path id="Fill_15" data-name="Fill 15" d="M43.153,0a64.365,64.365,0,0,1,2.032,10.854,29.416,29.416,0,0,0,2.258,9.06A24.1,24.1,0,0,0,49,22.57c-.327.181-.728-.031-1.049.185.129-.3-.061-.526-.216-.739A10.338,10.338,0,0,1,46.189,19c-.176-.564-.518-.681-1.059-.6a26.729,26.729,0,0,1-7.343-.18,57.276,57.276,0,0,1-6.615-.957c-2.1-.53-4.257-.8-6.329-1.532a26.332,26.332,0,0,0-9.926-1.439c-2.316.1-3.2,1.3-2.411,3.4a61.013,61.013,0,0,1,2.617,6.87,21.458,21.458,0,0,0,1.322,3.816c.978,2.144,2.334,4.091,3.307,6.234.695,1.532,1.067,3.168,1.64,4.738a45.435,45.435,0,0,1,2.669,8.471,12.779,12.779,0,0,0,.764,2.636c-.214.184-.386.427-.7.467A19.8,19.8,0,0,1,23.1,47.187a22.6,22.6,0,0,0-.993-3.579c-.7-1.955-1.5-3.877-2.1-5.869a20.941,20.941,0,0,0-1.9-4.55A28.155,28.155,0,0,1,15,26.954a95.847,95.847,0,0,0-3.36-9.269c-.794-1.982.055-3.539,2.171-4.06A5.467,5.467,0,0,1,15.13,13.5c1.133,0,2.266.04,3.4.069a23.548,23.548,0,0,1,6.609,1.415c2.164.7,4.395,1.006,6.578,1.555a62.26,62.26,0,0,0,6.215.877,24.73,24.73,0,0,0,7.259.177c.379-.056.552-.129.412-.539a30.1,30.1,0,0,1-.917-4.015c-.128-.657-.178-1.3-1.164-.857a1.681,1.681,0,0,1-.822.01c-4.434-.53-8.887-.869-13.309-1.566A116.11,116.11,0,0,0,11.709,9.592a7.715,7.715,0,0,0-3.088.475c-2.515,1.072-2.954,4.045-2.5,5.86.61,2.437,2.151,4.467,3.338,6.644,1.478,2.711,3.5,5.1,5.031,7.785a54.03,54.03,0,0,1,5.252,12.786c.787,2.941,2.053,5.745,2.608,8.75a.978.978,0,0,1-.861.209,8.839,8.839,0,0,0-.195-1.109c-1.129-3.686-2.2-7.391-3.43-11.045a44.2,44.2,0,0,0-5.7-11.707,86.177,86.177,0,0,1-6.188-10.3,6.945,6.945,0,0,1-.453-5.487A4.692,4.692,0,0,1,9.177,9.071a14.687,14.687,0,0,1,3.378-.307c4.005.067,8.008.2,12,.532a48.512,48.512,0,0,1,6.169.716,27.88,27.88,0,0,0,4.165.635c1.63.095,3.251.219,4.865.457a19.583,19.583,0,0,0,3.964.25c.357-.021.7-.06.616-.595-.326-2.044-.256-4.143-.911-6.2a1.688,1.688,0,0,1-1.155.3,25.059,25.059,0,0,1-4.624-.315c-1.966-.281-3.9-.718-5.828-1.192a76.164,76.164,0,0,0-9.633-1.56,77.813,77.813,0,0,0-9.354-.32,18.831,18.831,0,0,0-7.4,1.592C3.462,3.917,1.743,5.1,1.281,7.426A20.262,20.262,0,0,0,3.129,20.847c1.772,3.537,4.268,6.6,6.455,9.86A59.961,59.961,0,0,1,15.51,41.968c1.427,3.586,2.72,7.226,4.148,10.815l-.294.212-.6.005a1.686,1.686,0,0,0-.237-.844C17.484,49.4,16.4,46.666,15.385,43.9A62.873,62.873,0,0,0,9.561,32.148c-1.8-2.868-4-5.489-5.738-8.4C1.151,19.292-.587,14.606.184,9.3c.31-2.135.577-4.237,2.6-5.613A12.089,12.089,0,0,1,6.263,1.855c1.458-.409,2.94-.736,4.411-1.1a15.845,15.845,0,0,0,3,.539A7.077,7.077,0,0,0,17.3.765c3.168-.193,6.258.5,9.383.8a38.5,38.5,0,0,1,5.752,1.118A41.46,41.46,0,0,0,43.29,4.06L42.357.021l.8-.021" transform="translate(8 69)" fill="#fbfcfd"/>
      <path id="Fill_17" data-name="Fill 17" d="M12.33,35a12.247,12.247,0,0,1-.748-2.549,43.556,43.556,0,0,0-2.611-8.192c-.561-1.519-.925-3.1-1.6-4.582-.951-2.072-2.278-3.955-3.235-6.028a20.594,20.594,0,0,1-1.294-3.69A58.5,58.5,0,0,0,.277,3.316C-.5,1.283.37.117,2.636.024a26.046,26.046,0,0,1,9.712,1.391c2.027.707,4.134.969,6.193,1.481a56.607,56.607,0,0,0,6.472.925A26.468,26.468,0,0,0,32.2,4c.53-.076.865.036,1.036.582A9.955,9.955,0,0,0,34.747,7.5c.151.206.337.423.211.714-2.054.015-4.109.01-6.163.05-2.706.053-5.387-.32-8.084-.407-2.022-.065-4.04-.214-6.058-.345A28.975,28.975,0,0,1,3.932,5.132c-.163-.077-.348-.232-.521-.111-.21.147-.033.327.043.484,1.522,3.146,2.4,6.513,3.61,9.764,2.146,5.747,3.657,11.705,6.25,17.3.549,1.184.426,1.581-.575,2.228l-.408.2" transform="translate(20 84)" fill="#c96"/>
      <g id="Group_21-3" data-name="Group 21" transform="translate(0 20)">
        <path id="Clip_20-4" data-name="Clip 20" d="M0,0H18.887V18.613H0Z" transform="translate(0 0.162)" fill="none"/>
        <g id="Group_21-4" data-name="Group 21" clip-path="url(#clip-path-14)">
          <path id="Fill_19-2" data-name="Fill 19" d="M18.887,17.663a4.644,4.644,0,0,1-4.182.724,11.9,11.9,0,0,0-6.5-7.166,12.046,12.046,0,0,0-4-.894,6.412,6.412,0,0,1-2.615-.819C1.141,9.246.741,8.917.869,8.346c.139-.62.721-.587,1.213-.653A2.893,2.893,0,0,0,2.8,7.561a6.947,6.947,0,0,1-1.784-1.33C.905,6.145.785,6.073.681,5.984c-.436-.371-.9-.817-.569-1.38S1.1,4.239,1.633,4.38a8.789,8.789,0,0,1,2.7,1.291c.456.311.941.583,1.412.872l.2.1.309.2c.066.016.174.063.191.042.063-.077,0-.129-.082-.153L6.089,6.5l-.2-.125A17.315,17.315,0,0,1,3.4,3.24,4.335,4.335,0,0,1,2.761.771C2.772.089,3.369-.2,3.993.149a2.5,2.5,0,0,1,.916,1.129A11.87,11.87,0,0,0,8.495,5.789c.271.186.534.382,1.026.734A12.836,12.836,0,0,1,8.632.586c.292.072.312.356.455.542a2.621,2.621,0,0,0,1.732,1.283,15.442,15.442,0,0,0,2.2,4.613,1.963,1.963,0,0,0,.232-1.83,20.021,20.021,0,0,0-1.165-2.84c-.056-1.276.146-1.43,1.464-1.116,1.32,1.18,1.7,2.8,2.279,4.349a91.027,91.027,0,0,1,3.06,12.075" transform="translate(0 0.162)" fill="#191919"/>
        </g>
      </g>
      <path id="Fill_22-2" data-name="Fill 22" d="M13,1.705c-1.454.356-2.918.676-4.359,1.078A11.974,11.974,0,0,0,5.2,4.586C3.2,5.937,2.939,8,2.632,10.1c-.761,5.2.956,9.805,3.6,14.183,1.721,2.854,3.887,5.426,5.67,8.242a61.547,61.547,0,0,1,5.754,11.542c1.005,2.711,2.074,5.4,3.107,8.1a1.647,1.647,0,0,1,.234.829c-.644.061-.9-.349-1.137-.832-1.561-3.141-3.1-6.292-4.717-9.406-2.057-3.965-4.4-7.778-6.838-11.532a45.86,45.86,0,0,1-3.12-6.187c-.593-1.308-1.239-2.585-1.927-3.845A24.149,24.149,0,0,1,.01,10.581,17.018,17.018,0,0,1,.593,5.959,4.982,4.982,0,0,1,2.378,3.445,11.482,11.482,0,0,1,9.985.208,4.525,4.525,0,0,0,10.935,0,14.912,14.912,0,0,0,13,1.705" transform="translate(5 69)" fill="#c96"/>
      <path id="Fill_24" data-name="Fill 24" d="M13.562,6.823a10.3,10.3,0,0,1-2.512.208.964.964,0,0,0-1.026.611L9.578,8.764a6.756,6.756,0,0,0-.829,2.064,7.186,7.186,0,0,1-.959,2.1.6.6,0,0,1-.7.268c-.327-.1-.344-.4-.322-.682.033-.418.121-.833.131-1.25.017-.743.442-1.414.3-2.2a12.008,12.008,0,0,0-1.623,3.2l-.706,1.3c-.309.249-.607.586-1.042.359-.454-.236-.323-.712-.321-1.109a9.292,9.292,0,0,1,1.01-3.635,6.033,6.033,0,0,0,.935-2.03A3.149,3.149,0,0,0,4.4,8.435c-.1.129-.2.26-.3.389a34.767,34.767,0,0,1-2.109,2.931.854.854,0,0,1-1.15.215c-.414-.275-.2-.7-.1-1.063A14.488,14.488,0,0,1,2.369,7.752c.117-.21.338-.393.289-.587-.476.452-.963.92-1.456,1.382a.724.724,0,0,1-1.011.11C-.12,8.408.01,8.048.15,7.737s.291-.592.438-.886A12.6,12.6,0,0,1,9.741.825c.623-.087,1.234-.274,1.85-.415.853.045,1.619-.592,2.5-.358a12.408,12.408,0,0,1,1.684.674,2.118,2.118,0,0,1,1.015,2.889,6.816,6.816,0,0,1-3.225,3.209" transform="translate(58 62)" fill="#191919"/>
      <path id="Fill_26" data-name="Fill 26" d="M26.23,7c-.07,0-.142,0-.214,0a6.461,6.461,0,0,1-3.649-.949,3.435,3.435,0,0,1-1.014-2.034c-.076-.46-.294-.639-.8-.658-2.278-.087-4.589-.245-6.824-.4-1.491-.1-3.032-.206-4.55-.289a47.971,47.971,0,0,1-8.1-.968,3.225,3.225,0,0,1-.636-.192C.189,1.392-.06,1.231.014.928A.667.667,0,0,1,.58.429,6.171,6.171,0,0,1,1.887.275a4.372,4.372,0,0,1,.62.043C4.839.653,7.229.766,9.539.876c.866.041,1.761.084,2.64.137,1.46.089,2.946.124,4.382.157,1.469.035,2.985.07,4.474.163q.055,0,.1,0a.651.651,0,0,0,.669-.416A5.839,5.839,0,0,1,22.2.278c.061-.091.123-.184.182-.278,1.566.132,3.141.143,4.752.143h.853c.416,0,.765,0,1.119,0,1.438,1.79.864,3.662.213,5.276A3.471,3.471,0,0,1,26.23,7ZM26.153.97A3.536,3.536,0,0,0,23.65,2.1a.685.685,0,0,0-.244.665.869.869,0,0,0,.67.566,4.542,4.542,0,0,0,.671.114c.085.01.165.02.238.03a3.463,3.463,0,0,0,2.284-.825.982.982,0,0,0,.294-1.118c-.151-.391-.545-.478-.935-.533A3.436,3.436,0,0,0,26.153.97Z" transform="translate(19 16)" fill="#191919"/>
      <path id="Fill_28-2" data-name="Fill 28" d="M13.761,0c.363,0,.725,0,1.088,0A1.884,1.884,0,0,1,16.87,1.186a1.707,1.707,0,0,1-.6,2.062,30.317,30.317,0,0,1-3.612,2.4A16.529,16.529,0,0,1,8.4,7.626,2.626,2.626,0,0,0,7.3,8.317c-2.189,2-4.814,3.611-6.284,6.254-.142.255-.336.54-.712.385-.353-.146-.331-.488-.251-.761C.8,11.621,1.431,9.037,3.643,7.058A26.57,26.57,0,0,0,7.153,2.881,7.31,7.31,0,0,1,12.506.021c.414-.038.836-.005,1.254-.005Z" transform="translate(9 1)" fill="#fbfcfd"/>
      <path id="Fill_30" data-name="Fill 30" d="M2.14,7.965A2.5,2.5,0,0,1,.5,6.692C.36,6.507.341,6.225.064,6.154.041,5.458,0,4.764,0,4.069a.765.765,0,0,1,.913-.853,10.339,10.339,0,0,0,2.234-.052c.73-.114.612.567.765,1.053A5.574,5.574,0,0,0,5.227,2.734,6.479,6.479,0,0,1,12.311.2c.312.064.7.111.688.527-.016.457-.42.391-.735.4a1.167,1.167,0,0,1-.16,0C8.831.763,6.916,2.555,5.567,5.255A7.278,7.278,0,0,1,4.73,6.8c-1.251-.312-1.443-.16-1.39,1.107a3.991,3.991,0,0,1-1.2.056" transform="translate(8 14)" fill="#c96"/>
      <path id="Fill_32" data-name="Fill 32" d="M.029.054.556,0A1.275,1.275,0,0,0,1.4.131l2.01.242a1.717,1.717,0,0,0,.905.1A3.37,3.37,0,0,0,5.683.8a1.12,1.12,0,0,0,.877.072L7,.924q0,.707,0,1.414a4.508,4.508,0,0,1-3.417.56,6.741,6.741,0,0,1-2.9-1.189C.468,1.55.208,1.622,0,1.494Q.014.774.029.054" transform="translate(69 163)" fill="#191919"/>
      <path id="Fill_34" data-name="Fill 34" d="M5.727.192,6.165,0,7,1.227C6.627,1.9,5.821,2.149,5.168,2.5A22.015,22.015,0,0,1,1.326,3.99a.968.968,0,0,1-.334-.026L0,2.545l.308-.2a9.375,9.375,0,0,0,1.921-.632,1.129,1.129,0,0,0,.9-.193,7.09,7.09,0,0,0,1.862-.9A1.474,1.474,0,0,0,5.727.192" transform="translate(27 119)" fill="#191919"/>
      <path id="Fill_36" data-name="Fill 36" d="M15.52,95l-2.091-.247c0-2.873,0-5.746.007-8.619a48.954,48.954,0,0,0-.361-7.875,45.767,45.767,0,0,1-.514-5.45,59.851,59.851,0,0,0-1.516-11C10.218,58.154,9.453,54.5,8.935,50.8A82.571,82.571,0,0,0,5.944,37.341,35.43,35.43,0,0,1,4.266,31.11,113.9,113.9,0,0,0,1.29,15.761,29.947,29.947,0,0,1,.029,6.376C.137,4.368.029,2.351.019.338A3.648,3.648,0,0,1,1.2,0C1.036.282.867.561.721.849s-.292.643.046.882a.857.857,0,0,0,1.1-.106C2.4,1.183,2.924.735,3.44.3c.053.185-.186.361-.313.562A13.4,13.4,0,0,0,1.364,3.886c-.109.35-.341.755.107,1.019A1.007,1.007,0,0,0,2.717,4.7,33.648,33.648,0,0,0,5,1.89c.109-.123.215-.248.322-.372l.134.715A8.128,8.128,0,0,0,4.363,5.716c0,.381-.145.836.347,1.062.472.217.795-.105,1.129-.343.249,1.292.553,2.576.737,3.876.724,5.1,1.195,10.252,2.554,15.247a160.136,160.136,0,0,1,4.338,26.2c.277,2.749.422,5.51.642,8.264.156,1.952.666,3.868.717,5.831.148,5.74.932,11.442,1.135,17.182A109.87,109.87,0,0,1,15.52,95" transform="translate(57 68)" fill="#c96"/>
      <path id="Fill_38" data-name="Fill 38" d="M.843,0c.011,2,.116,4.012.01,6.01a30.245,30.245,0,0,0,1.236,9.341A114.972,114.972,0,0,1,5.006,30.628a35.7,35.7,0,0,0,1.644,6.2A83.28,83.28,0,0,1,9.583,50.224c.507,3.682,1.257,7.322,2.068,10.956a60.417,60.417,0,0,1,1.485,10.953,46.247,46.247,0,0,0,.5,5.425,49.438,49.438,0,0,1,.354,7.839c-.011,2.859-.005,5.719-.007,8.578a1.31,1.31,0,0,1-.865-.133c-.052-6.057.354-12.12-.522-18.163-.444-3.065-.4-6.178-.838-9.255-.481-3.367-1.331-6.66-1.994-9.99-.878-4.407-1.261-8.891-2.285-13.274a59.418,59.418,0,0,0-1.934-7.045A36.019,36.019,0,0,1,3.9,28.607a107.693,107.693,0,0,0-2.5-12.585A31.937,31.937,0,0,1,.03,6.059c.1-1.917,0-3.844-.018-5.767Z" transform="translate(55 68)" fill="#fbfcfd"/>
      <path id="Fill_40" data-name="Fill 40" d="M3.138,0c2.9.6,5.91.508,8.8,1.237a7.859,7.859,0,0,0,2.136.158A7.136,7.136,0,0,1,16.56,1.8a13.853,13.853,0,0,0,3.131.469c.332.033.41-.1.4-.4A5.751,5.751,0,0,1,20.223.1c1.106,1.018,2.528.884,3.879,1.009L25,5A39.913,39.913,0,0,1,14.56,3.668,37.1,37.1,0,0,0,9.027,2.593C6.02,2.311,3.048,1.643,0,1.829A20.1,20.1,0,0,0,3.138,0" transform="translate(25 69)" fill="#c96"/>
      <path id="Fill_42" data-name="Fill 42" d="M7.966,94.945a1.221,1.221,0,0,1-.925-.073,18.192,18.192,0,0,0,.395-4.246c.165-4.784.286-9.568.576-14.348.224-3.709.119-7.423.106-11.134-.027-7.741.329-15.493-.723-23.21-.337-2.479-.16-5.007-.629-7.475C5.8,29.4,5.1,24.305,4.317,19.223A113.047,113.047,0,0,0,.806,3.195,7.711,7.711,0,0,0,0,1.078L.49,0A3.374,3.374,0,0,1,1.1,1.405,104.918,104.918,0,0,1,5.144,18.97c.785,5.136,1.513,10.281,2.469,15.394a26.414,26.414,0,0,1,.367,3.853c.152,4.031.882,8.018.942,12.062.073,4.977.074,9.952.058,14.928-.014,4.33.122,8.664-.165,12.989-.25,3.76-.346,7.521-.435,11.285a34.978,34.978,0,0,1-.413,5.464" transform="translate(68 69)" fill="#fbfcfd"/>
      <path id="Fill_44" data-name="Fill 44" d="M20.4,51.309A8.016,8.016,0,0,1,18.586,52c-1.411-3.636-2.691-7.323-4.1-10.957A61.3,61.3,0,0,0,8.624,29.635c-2.162-3.3-4.631-6.405-6.383-9.989A20.975,20.975,0,0,1,.414,6.049C.871,3.691,2.571,2.494,4.522,1.623A18.242,18.242,0,0,1,11.835.01a75.059,75.059,0,0,1,9.249.324A73.6,73.6,0,0,1,30.61,1.915a58.207,58.207,0,0,0,5.763,1.207,24.2,24.2,0,0,0,4.572.319,1.638,1.638,0,0,0,1.142-.3c.648,2.088.578,4.215.9,6.285.085.542-.256.582-.609.6a18.927,18.927,0,0,1-3.92-.253c-1.6-.24-3.2-.367-4.811-.463a26.93,26.93,0,0,1-4.118-.643,46.865,46.865,0,0,0-6.1-.725c-3.948-.334-7.906-.471-11.866-.539a14.212,14.212,0,0,0-3.34.311,4.686,4.686,0,0,0-3.614,3.427A7.19,7.19,0,0,0,5.055,16.7a87.793,87.793,0,0,0,6.119,10.434A45.26,45.26,0,0,1,16.812,39c1.217,3.7,2.275,7.455,3.392,11.19a9.053,9.053,0,0,1,.193,1.124" transform="translate(9 70)" fill="#c96"/>
      <path id="Fill_46" data-name="Fill 46" d="M17.847,41.037A6.334,6.334,0,0,1,16.1,42c-.546-2.984-1.79-5.767-2.563-8.688a53.958,53.958,0,0,0-5.161-12.7c-1.5-2.662-3.491-5.039-4.943-7.73C2.269,10.726.755,8.71.155,6.29-.292,4.489.139,1.537,2.611.472A7.52,7.52,0,0,1,5.646,0,112.951,112.951,0,0,1,23.022,1.025c4.345.692,8.72,1.028,13.078,1.554a1.639,1.639,0,0,0,.807-.01c.969-.441,1.018.2,1.144.851a30.2,30.2,0,0,0,.9,3.986c.138.407-.033.479-.405.535a24.047,24.047,0,0,1-7.133-.176,60.517,60.517,0,0,1-6.108-.871c-2.145-.544-4.337-.849-6.464-1.543a22.937,22.937,0,0,0-6.5-1.405c-1.113-.029-2.226-.064-3.34-.068A5.319,5.319,0,0,0,7.716,4C5.637,4.521,4.8,6.067,5.583,8.035a95.86,95.86,0,0,1,3.3,9.2,28.1,28.1,0,0,0,3.051,6.191A20.905,20.905,0,0,1,13.8,27.948c.589,1.978,1.374,3.886,2.064,5.827a22.6,22.6,0,0,1,.976,3.553,19.815,19.815,0,0,0,1.007,3.709" transform="translate(14 79)" fill="#c96"/>
      <path id="Fill_48" data-name="Fill 48" d="M4.2,0a7.967,7.967,0,0,1,.77,2.122A118.009,118.009,0,0,1,8.331,18.185c.75,5.093,1.422,10.2,2.341,15.269.448,2.473.278,5.007.6,7.492,1.005,7.734.665,15.5.691,23.26.012,3.719.113,7.442-.1,11.159-.277,4.79-.393,9.585-.551,14.379A19.1,19.1,0,0,1,10.936,94a3.37,3.37,0,0,1-1.375-.333c.061-1.427.055-2.86.195-4.279a68.553,68.553,0,0,0-.116-12.435c-.516-6.2-.7-12.424-1.506-18.608-.563-4.325-.647-8.7-1.166-13.041A133.8,133.8,0,0,0,4.749,30.193c-.966-4.07-1.972-8.134-2.643-12.258C1.319,13.093.695,8.228,0,3.373A11.212,11.212,0,0,1,1.706.3c.15.755-.3,1.4-.315,2.115-.01.4-.1.8-.137,1.2-.023.275-.005.556.339.656a.662.662,0,0,0,.732-.258A6.653,6.653,0,0,0,3.332,1.986,6.192,6.192,0,0,1,4.2,0" transform="translate(64 70)" fill="#c96"/>
      <path id="Fill_50" data-name="Fill 50" d="M.761,0C1.473,4.784,2.113,9.579,2.92,14.349c.687,4.064,1.719,8.069,2.708,12.079A127.036,127.036,0,0,1,7.9,41.319c.531,4.277.618,8.588,1.195,12.85.825,6.094,1.014,12.226,1.543,18.336a64.979,64.979,0,0,1,.118,12.253c-.143,1.4-.137,2.81-.2,4.216a1.826,1.826,0,0,1-.937-.1,108.1,108.1,0,0,0,.441-11.841c-.2-5.68-.981-11.323-1.128-17-.05-1.943-.557-3.839-.713-5.771C8,51.537,7.86,48.806,7.585,46.085a157.822,157.822,0,0,0-4.313-25.93C1.92,15.212,1.452,10.116.732,5.066.549,3.781.247,2.509,0,1.231L.761,0" transform="translate(63 74)" fill="#fbfcfd"/>
      <path id="Fill_52" data-name="Fill 52" d="M.117,1,0,.632A2.415,2.415,0,0,1,1,0,2.76,2.76,0,0,1,.117,1" transform="translate(62 68)" fill="#fff"/>
      <path id="Fill_54" data-name="Fill 54" d="M1.5,2h0c-.071-.009-.148-.017-.23-.025a5,5,0,0,1-.626-.09C.3,1.8.059,1.626.009,1.409A.515.515,0,0,1,.246.9,3.635,3.635,0,0,1,2.6,0a3.82,3.82,0,0,1,.449.027c.368.044.738.113.88.424a.708.708,0,0,1-.277.892A3.638,3.638,0,0,1,1.5,2ZM1.394.685a.342.342,0,0,0-.355.3.214.214,0,0,0,.025.171.629.629,0,0,0,.408.176.733.733,0,0,0,.126.012.372.372,0,0,0,.373-.306C2,.8,1.739.746,1.531.7A.656.656,0,0,0,1.394.685Z" transform="translate(43 19)" fill="#dfe2e1"/>
      <path id="Fill_56" data-name="Fill 56" d="M1,.534C.923.852.8,1.066.467.981.206.915-.047.811.007.454.052.165.2-.079.529.024c.243.075.5.162.469.51" transform="translate(43 18)" fill="#040404"/>
    </g>
  </g>
</svg>
