<svg xmlns="http://www.w3.org/2000/svg" xmlns:xlink="http://www.w3.org/1999/xlink" width="230.234" height="220.642" viewBox="0 0 230.234 220.642">
  <defs>
    <style>
      .cls-1 {
        fill: none;
      }

      .cls-2 {
        clip-path: url(#clip-path);
      }

      .cls-3 {
        fill: #fbfcfd;
      }

      .cls-4 {
        clip-path: url(#clip-path-42);
      }

      .cls-5 {
        clip-path: url(#clip-path-48);
      }

      .cls-6 {
        fill: #ffc300;
      }

      .cls-7 {
        fill: #cc9725;
      }

      .cls-8 {
        fill: #3d55cc;
      }

      .cls-9 {
        fill: #191919;
      }
    </style>
    <clipPath id="clip-path">
      <path id="Clip_2" data-name="Clip 2" class="cls-1" d="M0,89.693a89.693,89.693,0,0,0,89.693,89.693h0a89.693,89.693,0,0,0,89.693-89.693h0A89.693,89.693,0,0,0,89.693,0h0A89.693,89.693,0,0,0,0,89.693" transform="translate(0.516 0.261)"/>
    </clipPath>
    <clipPath id="clip-path-42">
      <path id="Clip_125" data-name="Clip 125" class="cls-1" d="M0,89.693a89.693,89.693,0,0,0,89.693,89.693h0a89.693,89.693,0,0,0,89.693-89.693h0A89.693,89.693,0,0,0,89.693,0h0A89.693,89.693,0,0,0,0,89.693Z" transform="translate(0.516 0.261)"/>
    </clipPath>
    <clipPath id="clip-path-48">
      <path id="Clip_2-2" data-name="Clip 2" class="cls-1" d="M0,0H140.749V182.695H0Z" transform="translate(0 0.208)"/>
    </clipPath>
  </defs>
  <g id="Group_26" data-name="Group 26" transform="translate(-25.516 -143.261)">
    <g id="Group_33" data-name="Group 33">
      <g id="roundel" transform="translate(25 143)">
        <g id="Group_3" data-name="Group 3">
          <path id="Clip_2-3" data-name="Clip 2" class="cls-1" d="M0,89.693a89.693,89.693,0,0,0,89.693,89.693h0a89.693,89.693,0,0,0,89.693-89.693h0A89.693,89.693,0,0,0,89.693,0h0A89.693,89.693,0,0,0,0,89.693" transform="translate(0.516 0.261)"/>
          <g id="Group_3-2" data-name="Group 3" class="cls-2">
            <path id="Fill_1" data-name="Fill 1" class="cls-3" d="M10.261,10.946a2.219,2.219,0,0,0,1.426-1.955C12.454,4.658,5.771.97,2.855.162h0C1.368-.249.659.2.325.646a1.987,1.987,0,0,0-.3,1.466c.225,1.9,1.685,3.381,2.75,4.462,1.387,1.408,4.652,4.459,6.882,4.459a2.041,2.041,0,0,0,.606-.087" transform="translate(0.107 -2.906)"/>
          </g>
        </g>
        <g id="Group_6" data-name="Group 6">
          <path id="Clip_5-2" data-name="Clip 5" class="cls-1" d="M0,89.693a89.693,89.693,0,0,0,89.693,89.693h0a89.693,89.693,0,0,0,89.693-89.693h0A89.693,89.693,0,0,0,89.693,0h0A89.693,89.693,0,0,0,0,89.693" transform="translate(0.516 0.261)"/>
          <g id="Group_6-2" data-name="Group 6" class="cls-2">
            <path id="Fill_4" data-name="Fill 4" class="cls-3" d="M10.167,9.821A2.039,2.039,0,0,0,11.313,9.5a2.273,2.273,0,0,0,.814-2.428A7.625,7.625,0,0,0,9.163,2.888,15.86,15.86,0,0,0,3.28.131,2.678,2.678,0,0,0,.376.8,2.358,2.358,0,0,0,.187,3.024,6.642,6.642,0,0,0,2.194,5.668a20.383,20.383,0,0,0,6.477,3.84,4.522,4.522,0,0,0,1.5.312" transform="translate(-3.369 21.077)"/>
          </g>
        </g>
        <g id="Group_9" data-name="Group 9">
          <path id="Clip_8-2" data-name="Clip 8" class="cls-1" d="M0,89.693a89.693,89.693,0,0,0,89.693,89.693h0a89.693,89.693,0,0,0,89.693-89.693h0A89.693,89.693,0,0,0,89.693,0h0A89.693,89.693,0,0,0,0,89.693" transform="translate(0.516 0.261)"/>
          <g id="Group_9-2" data-name="Group 9" class="cls-2">
            <path id="Fill_7" data-name="Fill 7" class="cls-3" d="M12.966,8.925a2.848,2.848,0,0,0,.513.049,1.5,1.5,0,0,0,1.263-.546A2.088,2.088,0,0,0,14.7,6.239a8.231,8.231,0,0,0-3.741-3.533A18.371,18.371,0,0,0,2.263,0H2.222L2.18.006A2.521,2.521,0,0,0,.169,1.085,2.1,2.1,0,0,0,.317,3,4.984,4.984,0,0,0,1.7,4.784C5.05,7.5,9.256,8.257,12.966,8.925" transform="translate(-4.039 112.967)"/>
          </g>
        </g>
        <g id="Group_12" data-name="Group 12">
          <path id="Clip_11-2" data-name="Clip 11" class="cls-1" d="M0,89.693a89.693,89.693,0,0,0,89.693,89.693h0a89.693,89.693,0,0,0,89.693-89.693h0A89.693,89.693,0,0,0,89.693,0h0A89.693,89.693,0,0,0,0,89.693" transform="translate(0.516 0.261)"/>
          <g id="Group_12-2" data-name="Group 12" class="cls-2">
            <path id="Fill_10" data-name="Fill 10" class="cls-3" d="M11.723,3.6A44.834,44.834,0,0,0,4.928.9C4.366.715,3.8.527,3.229.328,2.45.058,1-.444.284.828c-.548.974-.3,2.085.727,3.3a4.149,4.149,0,0,0,.925.821,23.161,23.161,0,0,0,9.449,3.18l.041,0h.041c.837-.029,1.984-.068,2.456-1.115A1.993,1.993,0,0,0,13.238,4.8a5.48,5.48,0,0,0-1.515-1.2" transform="translate(-2.509 144.158)"/>
          </g>
        </g>
        <g id="Group_15" data-name="Group 15">
          <path id="Clip_14-2" data-name="Clip 14" class="cls-1" d="M0,89.693a89.693,89.693,0,0,0,89.693,89.693h0a89.693,89.693,0,0,0,89.693-89.693h0A89.693,89.693,0,0,0,89.693,0h0A89.693,89.693,0,0,0,0,89.693" transform="translate(0.516 0.261)"/>
          <g id="Group_15-2" data-name="Group 15" class="cls-2">
            <path id="Fill_13" data-name="Fill 13" class="cls-3" d="M.259,3.162a6.749,6.749,0,0,0,2.18,2.5,20.372,20.372,0,0,0,6.72,3.4,4.856,4.856,0,0,0,1.319.219,2.115,2.115,0,0,0,1.315-.4,2.272,2.272,0,0,0,.65-2.476A7.626,7.626,0,0,0,9.207,2.427,15.867,15.867,0,0,0,3.153.068,2.679,2.679,0,0,0,.3.926a2.358,2.358,0,0,0-.04,2.236" transform="translate(-1.328 82.358)"/>
          </g>
        </g>
        <g id="Group_18" data-name="Group 18">
          <path id="Clip_17-2" data-name="Clip 17" class="cls-1" d="M0,89.693a89.693,89.693,0,0,0,89.693,89.693h0a89.693,89.693,0,0,0,89.693-89.693h0A89.693,89.693,0,0,0,89.693,0h0A89.693,89.693,0,0,0,0,89.693" transform="translate(0.516 0.261)"/>
          <g id="Group_18-2" data-name="Group 18" class="cls-2">
            <path id="Fill_16" data-name="Fill 16" class="cls-3" d="M2.748.1C1.237-.214.558.28.255.75a2,2,0,0,0-.2,1.482C.4,4.113,1.96,5.493,3.094,6.5,4.536,7.779,7.86,10.5,10.087,10.5a2.129,2.129,0,0,0,.772-.133A2.218,2.218,0,0,0,12.15,8.318C12.626,3.94,5.711.708,2.748.1" transform="translate(1.76 51.032)"/>
          </g>
        </g>
        <g id="Group_21" data-name="Group 21">
          <path id="Clip_20-2" data-name="Clip 20" class="cls-1" d="M0,89.693a89.693,89.693,0,0,0,89.693,89.693h0a89.693,89.693,0,0,0,89.693-89.693h0A89.693,89.693,0,0,0,89.693,0h0A89.693,89.693,0,0,0,0,89.693" transform="translate(0.516 0.261)"/>
          <g id="Group_21-2" data-name="Group 21" class="cls-2">
            <path id="Fill_19" data-name="Fill 19" class="cls-3" d="M10.008,9.422a4.522,4.522,0,0,0,1.011.131A2.262,2.262,0,0,0,13.231,8.1,2.642,2.642,0,0,0,12.084,4.56l-.727-.492c-1.146-.777-2.331-1.581-3.547-2.3A10.559,10.559,0,0,0,2.709,0,2.465,2.465,0,0,0,.226,1.64,2.181,2.181,0,0,0,.794,4.283a18.639,18.639,0,0,0,9.213,5.14" transform="translate(-2.72 169.398)"/>
          </g>
        </g>
        <g id="Group_24" data-name="Group 24">
          <path id="Clip_23-2" data-name="Clip 23" class="cls-1" d="M0,89.693a89.693,89.693,0,0,0,89.693,89.693h0a89.693,89.693,0,0,0,89.693-89.693h0A89.693,89.693,0,0,0,89.693,0h0A89.693,89.693,0,0,0,0,89.693" transform="translate(0.516 0.261)"/>
          <g id="Group_24-2" data-name="Group 24" class="cls-2">
            <path id="Fill_22" data-name="Fill 22" class="cls-3" d="M11.588,4.263a44.928,44.928,0,0,0-6.6-3.143C4.441.894,3.892.669,3.332.432,2.572.111,1.158-.487.359.735c-.611.935-.441,2.059.505,3.34a4.121,4.121,0,0,0,.869.882,23.151,23.151,0,0,0,9.215,3.8l.081.01c.142,0,.292.009.448.009a2.118,2.118,0,0,0,2.078-.958,1.992,1.992,0,0,0-.536-2.256,5.472,5.472,0,0,0-1.431-1.3" transform="translate(28.87 70.22)"/>
          </g>
        </g>
        <g id="Group_27" data-name="Group 27">
          <path id="Clip_26-2" data-name="Clip 26" class="cls-1" d="M0,89.693a89.693,89.693,0,0,0,89.693,89.693h0a89.693,89.693,0,0,0,89.693-89.693h0A89.693,89.693,0,0,0,89.693,0h0A89.693,89.693,0,0,0,0,89.693" transform="translate(0.516 0.261)"/>
          <g id="Group_27-2" data-name="Group 27" class="cls-2">
            <path id="Fill_25" data-name="Fill 25" class="cls-3" d="M9.163,2.888A15.879,15.879,0,0,0,3.281.13,2.679,2.679,0,0,0,.376.8a2.359,2.359,0,0,0-.19,2.229A6.658,6.658,0,0,0,2.194,5.669,20.4,20.4,0,0,0,8.672,9.508a4.508,4.508,0,0,0,1.5.313A2.033,2.033,0,0,0,11.313,9.5a2.272,2.272,0,0,0,.813-2.427A7.621,7.621,0,0,0,9.163,2.888" transform="translate(31.702 9.057)"/>
          </g>
        </g>
        <g id="Group_30" data-name="Group 30">
          <path id="Clip_29-2" data-name="Clip 29" class="cls-1" d="M0,89.693a89.693,89.693,0,0,0,89.693,89.693h0a89.693,89.693,0,0,0,89.693-89.693h0A89.693,89.693,0,0,0,89.693,0h0A89.693,89.693,0,0,0,0,89.693" transform="translate(0.516 0.261)"/>
          <g id="Group_30-2" data-name="Group 30" class="cls-2">
            <path id="Fill_28" data-name="Fill 28" class="cls-3" d="M2.855.162C1.369-.249.658.2.325.646a1.992,1.992,0,0,0-.3,1.467c.227,1.9,1.685,3.381,2.75,4.461,1.387,1.408,4.652,4.46,6.882,4.46a2.059,2.059,0,0,0,.606-.087,2.22,2.22,0,0,0,1.426-1.956C12.454,4.658,5.771.97,2.855.162" transform="translate(25.743 37.885)"/>
          </g>
        </g>
        <g id="Group_33-2" data-name="Group 33">
          <path id="Clip_32-2" data-name="Clip 32" class="cls-1" d="M0,89.693a89.693,89.693,0,0,0,89.693,89.693h0a89.693,89.693,0,0,0,89.693-89.693h0A89.693,89.693,0,0,0,89.693,0h0A89.693,89.693,0,0,0,0,89.693" transform="translate(0.516 0.261)"/>
          <g id="Group_33-3" data-name="Group 33" class="cls-2">
            <path id="Fill_31" data-name="Fill 31" class="cls-3" d="M8.5,7.936c.537.247,1.074.5,1.621.754a4.147,4.147,0,0,0,1.685.5,1.517,1.517,0,0,0,1.3-.679c.65-.909.528-2.039-.363-3.359a4.106,4.106,0,0,0-.83-.918A23.157,23.157,0,0,0,2.863.047L2.782.034C1.946-.028.8-.113.219.874A1.993,1.993,0,0,0,.658,3.151,5.455,5.455,0,0,0,2.033,4.512,44.971,44.971,0,0,0,8.5,7.936" transform="translate(24.244 101.215)"/>
          </g>
        </g>
        <g id="Group_36" data-name="Group 36">
          <path id="Clip_35-2" data-name="Clip 35" class="cls-1" d="M0,89.693a89.693,89.693,0,0,0,89.693,89.693h0a89.693,89.693,0,0,0,89.693-89.693h0A89.693,89.693,0,0,0,89.693,0h0A89.693,89.693,0,0,0,0,89.693" transform="translate(0.516 0.261)"/>
          <g id="Group_36-2" data-name="Group 36" class="cls-2">
            <path id="Fill_34" data-name="Fill 34" class="cls-3" d="M12.892,5.681C9.914,2.559,6.015,1.326,2.244.132A1.687,1.687,0,0,0,.418.4,2.086,2.086,0,0,0,.182,2.575,8.23,8.23,0,0,0,3.439,6.558a18.408,18.408,0,0,0,8.278,3.8l.041,0H11.8a2.52,2.52,0,0,0,2.133-.812,2.1,2.1,0,0,0,.1-1.917,5,5,0,0,0-1.139-1.947" transform="translate(25.722 127.628)"/>
          </g>
        </g>
        <g id="Group_39" data-name="Group 39">
          <path id="Clip_38-2" data-name="Clip 38" class="cls-1" d="M0,89.693a89.693,89.693,0,0,0,89.693,89.693h0a89.693,89.693,0,0,0,89.693-89.693h0A89.693,89.693,0,0,0,89.693,0h0A89.693,89.693,0,0,0,0,89.693" transform="translate(0.516 0.261)"/>
          <g id="Group_39-2" data-name="Group 39" class="cls-2">
            <path id="Fill_37" data-name="Fill 37" class="cls-3" d="M12.084,4.56l-.727-.492c-1.146-.777-2.331-1.58-3.547-2.3A10.557,10.557,0,0,0,2.71,0,2.471,2.471,0,0,0,.226,1.641,2.179,2.179,0,0,0,.794,4.282a18.64,18.64,0,0,0,9.214,5.14,4.51,4.51,0,0,0,1.01.132A2.264,2.264,0,0,0,13.232,8.1,2.642,2.642,0,0,0,12.084,4.56" transform="translate(26.186 151.241)"/>
          </g>
        </g>
        <g id="Group_42" data-name="Group 42">
          <path id="Clip_41-2" data-name="Clip 41" class="cls-1" d="M0,89.693a89.693,89.693,0,0,0,89.693,89.693h0a89.693,89.693,0,0,0,89.693-89.693h0A89.693,89.693,0,0,0,89.693,0h0A89.693,89.693,0,0,0,0,89.693" transform="translate(0.516 0.261)"/>
          <g id="Group_42-2" data-name="Group 42" class="cls-2">
            <path id="Fill_40" data-name="Fill 40" class="cls-3" d="M9.535,9.9a4.209,4.209,0,0,0,1.207.206A2.241,2.241,0,0,0,12.84,8.8a2.643,2.643,0,0,0-.909-3.607l-.688-.537C10.15,3.8,9.02,2.919,7.853,2.12A10.567,10.567,0,0,0,2.883.018,2.467,2.467,0,0,0,.3,1.486,2.181,2.181,0,0,0,.686,4.16,18.648,18.648,0,0,0,9.535,9.9" transform="translate(56.011 49.699)"/>
          </g>
        </g>
        <g id="Group_45" data-name="Group 45">
          <path id="Clip_44-2" data-name="Clip 44" class="cls-1" d="M0,89.693a89.693,89.693,0,0,0,89.693,89.693h0a89.693,89.693,0,0,0,89.693-89.693h0A89.693,89.693,0,0,0,89.693,0h0A89.693,89.693,0,0,0,0,89.693" transform="translate(0.516 0.261)"/>
          <g id="Group_45-2" data-name="Group 45" class="cls-2">
            <path id="Fill_43" data-name="Fill 43" class="cls-3" d="M13.554,7.82a1.992,1.992,0,0,0-.536-2.256,5.493,5.493,0,0,0-1.431-1.3,44.937,44.937,0,0,0-6.6-3.143C4.441.894,3.891.669,3.332.432,2.572.111,1.157-.487.359.735c-.611.935-.442,2.059.5,3.34a4.124,4.124,0,0,0,.869.882,23.167,23.167,0,0,0,9.215,3.8l.081.009c.142,0,.292.009.448.009a2.117,2.117,0,0,0,2.078-.959" transform="translate(56.232 -8.417)"/>
          </g>
        </g>
        <g id="Group_48" data-name="Group 48">
          <path id="Clip_47-2" data-name="Clip 47" class="cls-1" d="M0,89.693a89.693,89.693,0,0,0,89.693,89.693h0a89.693,89.693,0,0,0,89.693-89.693h0A89.693,89.693,0,0,0,89.693,0h0A89.693,89.693,0,0,0,0,89.693" transform="translate(0.516 0.261)"/>
          <g id="Group_48-2" data-name="Group 48" class="cls-2">
            <path id="Fill_46" data-name="Fill 46" class="cls-3" d="M6.957,1.4,6.509,1.21A16.448,16.448,0,0,0,3.672.192,7.63,7.63,0,0,0,1.342.026a1.492,1.492,0,0,0-1,.388,1.385,1.385,0,0,0-.33.851,5,5,0,0,0,.7,2.841c1.819,3.334,6.164,6.645,10.441,6.644.148,0,.3,0,.444-.012a1.628,1.628,0,0,0,.84-.228A1.444,1.444,0,0,0,12.993,9.1c-.328-2.972-3.035-6.426-6.035-7.7" transform="translate(57.635 77.684)"/>
          </g>
        </g>
        <g id="Group_51" data-name="Group 51">
          <path id="Clip_50-2" data-name="Clip 50" class="cls-1" d="M0,89.693a89.693,89.693,0,0,0,89.693,89.693h0a89.693,89.693,0,0,0,89.693-89.693h0A89.693,89.693,0,0,0,89.693,0h0A89.693,89.693,0,0,0,0,89.693" transform="translate(0.516 0.261)"/>
          <g id="Group_51-2" data-name="Group 51" class="cls-2">
            <path id="Fill_49" data-name="Fill 49" class="cls-3" d="M10.742,10.109A2.239,2.239,0,0,0,12.84,8.8a2.642,2.642,0,0,0-.908-3.607l-.691-.538C10.149,3.8,9.019,2.919,7.854,2.12A10.57,10.57,0,0,0,2.882.018,2.467,2.467,0,0,0,.3,1.486,2.179,2.179,0,0,0,.686,4.16,18.642,18.642,0,0,0,9.535,9.9a4.228,4.228,0,0,0,1.207.205" transform="translate(53.646 21.312)"/>
          </g>
        </g>
        <g id="Group_54" data-name="Group 54">
          <path id="Clip_53-2" data-name="Clip 53" class="cls-1" d="M0,89.693a89.693,89.693,0,0,0,89.693,89.693h0a89.693,89.693,0,0,0,89.693-89.693h0A89.693,89.693,0,0,0,89.693,0h0A89.693,89.693,0,0,0,0,89.693" transform="translate(0.516 0.261)"/>
          <g id="Group_54-2" data-name="Group 54" class="cls-2">
            <path id="Fill_52" data-name="Fill 52" class="cls-3" d="M3.095,6.5c1.441,1.279,4.765,4,6.992,3.995a2.141,2.141,0,0,0,.772-.132A2.22,2.22,0,0,0,12.15,8.317C12.626,3.941,5.712.708,2.749.1,1.238-.214.559.28.256.749a2,2,0,0,0-.2,1.483C.4,4.113,1.959,5.493,3.095,6.5" transform="translate(53.193 106.732)"/>
          </g>
        </g>
        <g id="Group_57" data-name="Group 57">
          <path id="Clip_56-2" data-name="Clip 56" class="cls-1" d="M0,89.693a89.693,89.693,0,0,0,89.693,89.693h0a89.693,89.693,0,0,0,89.693-89.693h0A89.693,89.693,0,0,0,89.693,0h0A89.693,89.693,0,0,0,0,89.693" transform="translate(0.516 0.261)"/>
          <g id="Group_57-2" data-name="Group 57" class="cls-2">
            <path id="Fill_55" data-name="Fill 55" class="cls-3" d="M1.973.04A2.764,2.764,0,0,0,.044,3.266,5.63,5.63,0,0,0,2.068,6.325c1.319,1.151,5.164,3.969,7.7,3.968a2.47,2.47,0,0,0,1.052-.21c.881-.411,1.314-1.341,1.286-2.764C12.04,3.78,7.786,2,4.97.814,4.675.69,4.394.573,4.131.459A3.687,3.687,0,0,0,1.973.04" transform="translate(55.59 166.676)"/>
          </g>
        </g>
        <g id="Group_60" data-name="Group 60">
          <path id="Clip_59-2" data-name="Clip 59" class="cls-1" d="M0,89.693a89.693,89.693,0,0,0,89.693,89.693h0a89.693,89.693,0,0,0,89.693-89.693h0A89.693,89.693,0,0,0,89.693,0h0A89.693,89.693,0,0,0,0,89.693" transform="translate(0.516 0.261)"/>
          <g id="Group_60-2" data-name="Group 60" class="cls-2">
            <path id="Fill_58" data-name="Fill 58" class="cls-3" d="M6.936,1.082,6.477.922a16.343,16.343,0,0,0-2.9-.827h0A7.659,7.659,0,0,0,1.243.084a1.491,1.491,0,0,0-.97.455A1.39,1.39,0,0,0,0,1.409,5.009,5.009,0,0,0,.887,4.2c1.948,3.063,6.2,5.951,10.295,5.951a8.287,8.287,0,0,0,1.009-.06,1.638,1.638,0,0,0,.823-.284,1.443,1.443,0,0,0,.459-1.445c-.526-2.945-3.458-6.209-6.536-7.278" transform="translate(56.836 134.322)"/>
          </g>
        </g>
        <g id="Group_63" data-name="Group 63">
          <path id="Clip_62-2" data-name="Clip 62" class="cls-1" d="M0,89.693a89.693,89.693,0,0,0,89.693,89.693h0a89.693,89.693,0,0,0,89.693-89.693h0A89.693,89.693,0,0,0,89.693,0h0A89.693,89.693,0,0,0,0,89.693" transform="translate(0.516 0.261)"/>
          <g id="Group_63-2" data-name="Group 63" class="cls-2">
            <path id="Fill_61" data-name="Fill 61" class="cls-3" d="M9.655,11.033a2.034,2.034,0,0,0,.606-.087,2.219,2.219,0,0,0,1.426-1.955C12.454,4.657,5.771.97,2.855.163,1.368-.249.658.2.325.646a1.985,1.985,0,0,0-.3,1.466c.225,1.9,1.685,3.381,2.75,4.462,1.388,1.408,4.653,4.459,6.882,4.459" transform="translate(84.766 89.429)"/>
          </g>
        </g>
        <g id="Group_66" data-name="Group 66">
          <path id="Clip_65-2" data-name="Clip 65" class="cls-1" d="M0,89.693a89.693,89.693,0,0,0,89.693,89.693h0a89.693,89.693,0,0,0,89.693-89.693h0A89.693,89.693,0,0,0,89.693,0h0A89.693,89.693,0,0,0,0,89.693" transform="translate(0.516 0.261)"/>
          <g id="Group_66-2" data-name="Group 66" class="cls-2">
            <path id="Fill_64" data-name="Fill 64" class="cls-3" d="M13.373,10.36A2.1,2.1,0,0,0,13.6,8.454a4.988,4.988,0,0,0-1.006-2.018C9.829,3.121,5.849,1.563,2.339.189A1.686,1.686,0,0,0,.5.332,2.083,2.083,0,0,0,.119,2.487,8.226,8.226,0,0,0,3.1,6.679a18.381,18.381,0,0,0,8.005,4.339l.083.011c.083,0,.162,0,.24,0a2.34,2.34,0,0,0,1.942-.673" transform="translate(84.754 32.618)"/>
          </g>
        </g>
        <g id="Group_69" data-name="Group 69">
          <path id="Clip_68-2" data-name="Clip 68" class="cls-1" d="M0,89.693a89.693,89.693,0,0,0,89.693,89.693h0a89.693,89.693,0,0,0,89.693-89.693h0A89.693,89.693,0,0,0,89.693,0h0A89.693,89.693,0,0,0,0,89.693" transform="translate(0.516 0.261)"/>
          <g id="Group_69-2" data-name="Group 69" class="cls-2">
            <path id="Fill_67" data-name="Fill 67" class="cls-3" d="M11.931,5.191l-.691-.538C10.149,3.8,9.02,2.918,7.853,2.12A10.557,10.557,0,0,0,2.883.018,2.467,2.467,0,0,0,.3,1.487a2.18,2.18,0,0,0,.39,2.674A18.653,18.653,0,0,0,9.535,9.9a4.233,4.233,0,0,0,1.208.205A2.24,2.24,0,0,0,12.84,8.8a2.643,2.643,0,0,0-.909-3.607" transform="translate(87.434 5.25)"/>
          </g>
        </g>
        <g id="Group_72" data-name="Group 72">
          <path id="Clip_71-2" data-name="Clip 71" class="cls-1" d="M0,89.693a89.693,89.693,0,0,0,89.693,89.693h0a89.693,89.693,0,0,0,89.693-89.693h0A89.693,89.693,0,0,0,89.693,0h0A89.693,89.693,0,0,0,0,89.693" transform="translate(0.516 0.261)"/>
          <g id="Group_72-2" data-name="Group 72" class="cls-2">
            <path id="Fill_70" data-name="Fill 70" class="cls-3" d="M11.154,10.751c.148,0,.3,0,.444-.012a1.633,1.633,0,0,0,.84-.229A1.443,1.443,0,0,0,12.993,9.1c-.328-2.973-3.035-6.426-6.035-7.7L6.509,1.21A16.4,16.4,0,0,0,3.673.192,7.629,7.629,0,0,0,1.343.026a1.5,1.5,0,0,0-1,.388,1.39,1.39,0,0,0-.331.851,5.008,5.008,0,0,0,.7,2.841c1.819,3.334,6.164,6.645,10.441,6.645" transform="translate(81.708 61.844)"/>
          </g>
        </g>
        <g id="Group_75" data-name="Group 75">
          <path id="Clip_74-2" data-name="Clip 74" class="cls-1" d="M0,89.693a89.693,89.693,0,0,0,89.693,89.693h0a89.693,89.693,0,0,0,89.693-89.693h0A89.693,89.693,0,0,0,89.693,0h0A89.693,89.693,0,0,0,0,89.693" transform="translate(0.516 0.261)"/>
          <g id="Group_75-2" data-name="Group 75" class="cls-2">
            <path id="Fill_73" data-name="Fill 73" class="cls-3" d="M12.084,4.56l-.724-.491c-1.147-.778-2.332-1.581-3.55-2.3A10.557,10.557,0,0,0,2.71,0,2.467,2.467,0,0,0,.226,1.641,2.179,2.179,0,0,0,.794,4.282a18.641,18.641,0,0,0,9.213,5.141,4.522,4.522,0,0,0,1.011.131A2.262,2.262,0,0,0,13.231,8.1,2.642,2.642,0,0,0,12.084,4.56" transform="translate(84.368 115.959)"/>
          </g>
        </g>
        <g id="Group_78" data-name="Group 78">
          <path id="Clip_77-2" data-name="Clip 77" class="cls-1" d="M0,89.693a89.693,89.693,0,0,0,89.693,89.693h0a89.693,89.693,0,0,0,89.693-89.693h0A89.693,89.693,0,0,0,89.693,0h0A89.693,89.693,0,0,0,0,89.693" transform="translate(0.516 0.261)"/>
          <g id="Group_78-2" data-name="Group 78" class="cls-2">
            <path id="Fill_76" data-name="Fill 76" class="cls-3" d="M4.97.813C4.675.69,4.394.572,4.132.458A3.7,3.7,0,0,0,1.973.04,2.763,2.763,0,0,0,.044,3.265,5.633,5.633,0,0,0,2.068,6.324c1.319,1.151,5.163,3.968,7.7,3.968a2.471,2.471,0,0,0,1.053-.21c.881-.411,1.314-1.341,1.286-2.764-.069-3.539-4.324-5.324-7.14-6.5" transform="translate(86.491 173.653)"/>
          </g>
        </g>
        <g id="Group_81" data-name="Group 81">
          <path id="Clip_80-2" data-name="Clip 80" class="cls-1" d="M0,89.693a89.693,89.693,0,0,0,89.693,89.693h0a89.693,89.693,0,0,0,89.693-89.693h0A89.693,89.693,0,0,0,89.693,0h0A89.693,89.693,0,0,0,0,89.693" transform="translate(0.516 0.261)"/>
          <g id="Group_81-2" data-name="Group 81" class="cls-2">
            <path id="Fill_79" data-name="Fill 79" class="cls-3" d="M6.936,1.083,6.477.922A16.315,16.315,0,0,0,3.578.1h0A7.624,7.624,0,0,0,1.243.085a1.492,1.492,0,0,0-.97.455A1.388,1.388,0,0,0,0,1.41,5.007,5.007,0,0,0,.886,4.2c1.948,3.064,6.2,5.952,10.3,5.952a8.407,8.407,0,0,0,1.009-.06,1.634,1.634,0,0,0,.823-.285,1.442,1.442,0,0,0,.459-1.444c-.526-2.945-3.458-6.209-6.536-7.278" transform="translate(84.133 147.178)"/>
          </g>
        </g>
        <g id="Group_84" data-name="Group 84">
          <path id="Clip_83-2" data-name="Clip 83" class="cls-1" d="M0,89.693a89.693,89.693,0,0,0,89.693,89.693h0a89.693,89.693,0,0,0,89.693-89.693h0A89.693,89.693,0,0,0,89.693,0h0A89.693,89.693,0,0,0,0,89.693" transform="translate(0.516 0.261)"/>
          <g id="Group_84-2" data-name="Group 84" class="cls-2">
            <path id="Fill_82" data-name="Fill 82" class="cls-3" d="M3.1,6.679a18.4,18.4,0,0,0,8.006,4.339l.082.011c.083,0,.162,0,.24,0a2.339,2.339,0,0,0,1.942-.672A2.1,2.1,0,0,0,13.6,8.454a4.979,4.979,0,0,0-1.006-2.018C9.829,3.121,5.85,1.563,2.339.189A1.686,1.686,0,0,0,.5.332,2.084,2.084,0,0,0,.119,2.488,8.234,8.234,0,0,0,3.1,6.679" transform="translate(111.632 10.893)"/>
          </g>
        </g>
        <g id="Group_87" data-name="Group 87">
          <path id="Clip_86-2" data-name="Clip 86" class="cls-1" d="M0,89.693a89.693,89.693,0,0,0,89.693,89.693h0a89.693,89.693,0,0,0,89.693-89.693h0A89.693,89.693,0,0,0,89.693,0h0A89.693,89.693,0,0,0,0,89.693" transform="translate(0.516 0.261)"/>
          <g id="Group_87-2" data-name="Group 87" class="cls-2">
            <path id="Fill_85" data-name="Fill 85" class="cls-3" d="M11.931,5.191l-.689-.537C10.15,3.8,9.02,2.919,7.853,2.12A10.562,10.562,0,0,0,2.882.018,2.466,2.466,0,0,0,.3,1.487a2.18,2.18,0,0,0,.39,2.674A18.645,18.645,0,0,0,9.535,9.9a4.21,4.21,0,0,0,1.208.206A2.241,2.241,0,0,0,12.84,8.8a2.643,2.643,0,0,0-.909-3.607" transform="translate(112.594 40.633)"/>
          </g>
        </g>
        <g id="Group_90" data-name="Group 90">
          <path id="Clip_89-2" data-name="Clip 89" class="cls-1" d="M0,89.693a89.693,89.693,0,0,0,89.693,89.693h0a89.693,89.693,0,0,0,89.693-89.693h0A89.693,89.693,0,0,0,89.693,0h0A89.693,89.693,0,0,0,0,89.693" transform="translate(0.516 0.261)"/>
          <g id="Group_90-2" data-name="Group 90" class="cls-2">
            <path id="Fill_88" data-name="Fill 88" class="cls-3" d="M11.154,10.75c.148,0,.3,0,.444-.012a1.638,1.638,0,0,0,.84-.229A1.444,1.444,0,0,0,12.993,9.1c-.328-2.973-3.035-6.426-6.035-7.7l-.448-.192A16.43,16.43,0,0,0,3.673.192,7.615,7.615,0,0,0,1.342.026a1.49,1.49,0,0,0-1,.388,1.383,1.383,0,0,0-.331.851,5.006,5.006,0,0,0,.7,2.842C2.532,7.44,6.877,10.75,11.154,10.75" transform="translate(110.829 74.392)"/>
          </g>
        </g>
        <g id="Group_93" data-name="Group 93">
          <path id="Clip_92-2" data-name="Clip 92" class="cls-1" d="M0,89.693a89.693,89.693,0,0,0,89.693,89.693h0a89.693,89.693,0,0,0,89.693-89.693h0A89.693,89.693,0,0,0,89.693,0h0A89.693,89.693,0,0,0,0,89.693" transform="translate(0.516 0.261)"/>
          <g id="Group_93-2" data-name="Group 93" class="cls-2">
            <path id="Fill_91" data-name="Fill 91" class="cls-3" d="M4.97.814C4.675.69,4.393.572,4.131.458A3.69,3.69,0,0,0,1.973.04,2.763,2.763,0,0,0,.044,3.266,5.629,5.629,0,0,0,2.068,6.324c1.319,1.151,5.164,3.969,7.7,3.968a2.47,2.47,0,0,0,1.052-.21c.881-.411,1.314-1.341,1.286-2.763C12.04,3.779,7.786,2,4.97.814" transform="translate(115.938 133.099)"/>
          </g>
        </g>
        <g id="Group_96" data-name="Group 96">
          <path id="Clip_95-2" data-name="Clip 95" class="cls-1" d="M0,89.693a89.693,89.693,0,0,0,89.693,89.693h0a89.693,89.693,0,0,0,89.693-89.693h0A89.693,89.693,0,0,0,89.693,0h0A89.693,89.693,0,0,0,0,89.693" transform="translate(0.516 0.261)"/>
          <g id="Group_96-2" data-name="Group 96" class="cls-2">
            <path id="Fill_94" data-name="Fill 94" class="cls-3" d="M3.095,6.5c1.441,1.279,4.765,4,6.992,4a2.127,2.127,0,0,0,.772-.133A2.219,2.219,0,0,0,12.15,8.317C12.626,3.941,5.712.708,2.748.1,1.236-.214.559.28.256.75a2,2,0,0,0-.2,1.483C.4,4.113,1.959,5.493,3.095,6.5" transform="translate(110.339 159.051)"/>
          </g>
        </g>
        <g id="Group_99" data-name="Group 99">
          <path id="Clip_98-2" data-name="Clip 98" class="cls-1" d="M0,89.693a89.693,89.693,0,0,0,89.693,89.693h0a89.693,89.693,0,0,0,89.693-89.693h0A89.693,89.693,0,0,0,89.693,0h0A89.693,89.693,0,0,0,0,89.693" transform="translate(0.516 0.261)"/>
          <g id="Group_99-2" data-name="Group 99" class="cls-2">
            <path id="Fill_97" data-name="Fill 97" class="cls-3" d="M6.936,1.083,6.478.922a16.375,16.375,0,0,0-2.9-.827h0A7.641,7.641,0,0,0,1.243.085,1.487,1.487,0,0,0,.273.54,1.388,1.388,0,0,0,0,1.41,5.009,5.009,0,0,0,.887,4.2c1.948,3.063,6.2,5.951,10.295,5.951a8.4,8.4,0,0,0,1.009-.06,1.641,1.641,0,0,0,.823-.285,1.442,1.442,0,0,0,.459-1.444c-.526-2.945-3.458-6.209-6.536-7.278" transform="translate(114.046 98.07)"/>
          </g>
        </g>
        <g id="Group_102" data-name="Group 102">
          <path id="Clip_101-2" data-name="Clip 101" class="cls-1" d="M0,89.693a89.693,89.693,0,0,0,89.693,89.693h0a89.693,89.693,0,0,0,89.693-89.693h0A89.693,89.693,0,0,0,89.693,0h0A89.693,89.693,0,0,0,0,89.693" transform="translate(0.516 0.261)"/>
          <g id="Group_102-2" data-name="Group 102" class="cls-2">
            <path id="Fill_100" data-name="Fill 100" class="cls-3" d="M2.194,5.669a20.374,20.374,0,0,0,6.478,3.84,4.516,4.516,0,0,0,1.5.312A2.035,2.035,0,0,0,11.314,9.5a2.273,2.273,0,0,0,.813-2.428A7.628,7.628,0,0,0,9.163,2.888,15.878,15.878,0,0,0,3.281.131,2.679,2.679,0,0,0,.377.8a2.357,2.357,0,0,0-.19,2.229A6.646,6.646,0,0,0,2.194,5.669" transform="translate(138.841 57.565)"/>
          </g>
        </g>
        <g id="Group_105" data-name="Group 105">
          <path id="Clip_104-2" data-name="Clip 104" class="cls-1" d="M0,89.693a89.693,89.693,0,0,0,89.693,89.693h0a89.693,89.693,0,0,0,89.693-89.693h0A89.693,89.693,0,0,0,89.693,0h0A89.693,89.693,0,0,0,0,89.693" transform="translate(0.516 0.261)"/>
          <g id="Group_105-2" data-name="Group 105" class="cls-2">
            <path id="Fill_103" data-name="Fill 103" class="cls-3" d="M2.855.162h0C1.369-.249.659.2.325.646a1.989,1.989,0,0,0-.3,1.467c.226,1.9,1.685,3.381,2.75,4.461,1.387,1.408,4.652,4.459,6.882,4.459a2.038,2.038,0,0,0,.606-.087,2.219,2.219,0,0,0,1.426-1.955C12.454,4.658,5.771.97,2.855.162" transform="translate(142.177 84.398)"/>
          </g>
        </g>
        <g id="Group_108" data-name="Group 108">
          <path id="Clip_107-2" data-name="Clip 107" class="cls-1" d="M0,89.693a89.693,89.693,0,0,0,89.693,89.693h0a89.693,89.693,0,0,0,89.693-89.693h0A89.693,89.693,0,0,0,89.693,0h0A89.693,89.693,0,0,0,0,89.693" transform="translate(0.516 0.261)"/>
          <g id="Group_108-2" data-name="Group 108" class="cls-2">
            <path id="Fill_106" data-name="Fill 106" class="cls-3" d="M5.095.988C4.81.845,4.536.709,4.283.579A3.69,3.69,0,0,0,2.157.016,2.764,2.764,0,0,0,.017,3.106,5.625,5.625,0,0,0,1.833,6.293c1.274,1.272,5.1,4.482,7.635,4.482a2.33,2.33,0,0,0,.85-.147c.907-.351,1.4-1.25,1.468-2.671.167-3.537-3.959-5.6-6.69-6.967" transform="translate(141.96 -1.933)"/>
          </g>
        </g>
        <g id="Group_111" data-name="Group 111">
          <path id="Clip_110-2" data-name="Clip 110" class="cls-1" d="M0,89.693a89.693,89.693,0,0,0,89.693,89.693h0a89.693,89.693,0,0,0,89.693-89.693h0A89.693,89.693,0,0,0,89.693,0h0A89.693,89.693,0,0,0,0,89.693" transform="translate(0.516 0.261)"/>
          <g id="Group_111-2" data-name="Group 111" class="cls-2">
            <path id="Fill_109" data-name="Fill 109" class="cls-3" d="M2.773,6.574c1.387,1.408,4.652,4.459,6.882,4.459a2.041,2.041,0,0,0,.606-.087,2.219,2.219,0,0,0,1.426-1.955C12.454,4.657,5.771.97,2.855.163h0C1.368-.249.658.2.325.646a1.985,1.985,0,0,0-.3,1.466c.225,1.9,1.685,3.381,2.75,4.462" transform="translate(140.524 29.202)"/>
          </g>
        </g>
        <g id="Group_114" data-name="Group 114">
          <path id="Clip_113-2" data-name="Clip 113" class="cls-1" d="M0,89.693a89.693,89.693,0,0,0,89.693,89.693h0a89.693,89.693,0,0,0,89.693-89.693h0A89.693,89.693,0,0,0,89.693,0h0A89.693,89.693,0,0,0,0,89.693" transform="translate(0.516 0.261)"/>
          <g id="Group_114-2" data-name="Group 114" class="cls-2">
            <path id="Fill_112" data-name="Fill 112" class="cls-3" d="M.259,3.162a6.744,6.744,0,0,0,2.179,2.5,20.372,20.372,0,0,0,6.72,3.4,4.864,4.864,0,0,0,1.32.219,2.118,2.118,0,0,0,1.315-.4,2.274,2.274,0,0,0,.65-2.476A7.625,7.625,0,0,0,9.207,2.427,15.876,15.876,0,0,0,3.153.068,2.68,2.68,0,0,0,.3.925a2.358,2.358,0,0,0-.04,2.236" transform="translate(140.799 142.005)"/>
          </g>
        </g>
        <g id="Group_117" data-name="Group 117">
          <path id="Clip_116-2" data-name="Clip 116" class="cls-1" d="M0,89.693a89.693,89.693,0,0,0,89.693,89.693h0a89.693,89.693,0,0,0,89.693-89.693h0A89.693,89.693,0,0,0,89.693,0h0A89.693,89.693,0,0,0,0,89.693" transform="translate(0.516 0.261)"/>
          <g id="Group_117-2" data-name="Group 117" class="cls-2">
            <path id="Fill_115" data-name="Fill 115" class="cls-3" d="M3.095,6.5C4.536,7.78,7.86,10.5,10.087,10.5a2.129,2.129,0,0,0,.772-.133A2.218,2.218,0,0,0,12.15,8.317C12.626,3.942,5.712.709,2.749.1,1.237-.214.559.281.256.75a2,2,0,0,0-.2,1.483C.4,4.113,1.959,5.493,3.095,6.5" transform="translate(141.469 170.29)"/>
          </g>
        </g>
        <g id="Group_120" data-name="Group 120">
          <path id="Clip_119-2" data-name="Clip 119" class="cls-1" d="M0,89.693a89.693,89.693,0,0,0,89.693,89.693h0a89.693,89.693,0,0,0,89.693-89.693h0A89.693,89.693,0,0,0,89.693,0h0A89.693,89.693,0,0,0,0,89.693" transform="translate(0.516 0.261)"/>
          <g id="Group_120-2" data-name="Group 120" class="cls-2">
            <path id="Fill_118" data-name="Fill 118" class="cls-3" d="M3.095,6.5c1.441,1.279,4.765,4,6.992,4a2.129,2.129,0,0,0,.772-.133A2.218,2.218,0,0,0,12.15,8.317C12.626,3.941,5.712.708,2.749.1,1.238-.214.559.281.256.75a2,2,0,0,0-.2,1.483C.4,4.113,1.959,5.493,3.095,6.5" transform="translate(140.993 112.697)"/>
          </g>
        </g>
        <g id="Group_123" data-name="Group 123">
          <path id="Clip_122-2" data-name="Clip 122" class="cls-1" d="M0,89.693a89.693,89.693,0,0,0,89.693,89.693h0a89.693,89.693,0,0,0,89.693-89.693h0A89.693,89.693,0,0,0,89.693,0h0A89.693,89.693,0,0,0,0,89.693" transform="translate(0.516 0.261)"/>
          <g id="Group_123-2" data-name="Group 123" class="cls-2">
            <path id="Fill_121" data-name="Fill 121" class="cls-3" d="M1.5,4.738C4.662,7.672,8.808,8.708,12.465,9.622a2.734,2.734,0,0,0,.661.088,1.457,1.457,0,0,0,1.145-.466,2.085,2.085,0,0,0,.1-2.187,8.228,8.228,0,0,0-3.5-3.775A18.388,18.388,0,0,0,2.382,0L2.341,0,2.3,0A2.52,2.52,0,0,0,.22.945a2.1,2.1,0,0,0,.02,1.92A4.987,4.987,0,0,0,1.5,4.738" transform="translate(168.844 10.407)"/>
          </g>
        </g>
        <g id="Group_126" data-name="Group 126">
          <path id="Clip_125-2" data-name="Clip 125" class="cls-1" d="M0,89.693a89.693,89.693,0,0,0,89.693,89.693h0a89.693,89.693,0,0,0,89.693-89.693h0A89.693,89.693,0,0,0,89.693,0h0A89.693,89.693,0,0,0,0,89.693Z" transform="translate(0.516 0.261)"/>
          <g id="Group_126-2" data-name="Group 126" class="cls-4">
            <path id="Fill_124" data-name="Fill 124" class="cls-3" d="M11.241,4.653C10.149,3.8,9.019,2.918,7.853,2.12A10.558,10.558,0,0,0,2.882.018,2.465,2.465,0,0,0,.3,1.485,2.181,2.181,0,0,0,.686,4.16,18.645,18.645,0,0,0,9.535,9.9a4.225,4.225,0,0,0,1.207.206A2.24,2.24,0,0,0,12.84,8.8a2.643,2.643,0,0,0-.909-3.607Z" transform="translate(172.309 95.59)"/>
          </g>
        </g>
        <g id="Group_129" data-name="Group 129">
          <path id="Clip_128-2" data-name="Clip 128" class="cls-1" d="M0,89.693a89.693,89.693,0,0,0,89.693,89.693h0a89.693,89.693,0,0,0,89.693-89.693h0A89.693,89.693,0,0,0,89.693,0h0A89.693,89.693,0,0,0,0,89.693" transform="translate(0.516 0.261)"/>
          <g id="Group_129-2" data-name="Group 129" class="cls-2">
            <path id="Fill_127" data-name="Fill 127" class="cls-3" d="M1.732,4.957a23.159,23.159,0,0,0,9.215,3.8l.082.01c.142,0,.292.009.448.009a2.117,2.117,0,0,0,2.077-.958,1.992,1.992,0,0,0-.535-2.256,5.467,5.467,0,0,0-1.431-1.3,44.923,44.923,0,0,0-6.6-3.144C4.44.894,3.891.669,3.332.432,2.572.111,1.158-.487.359.735c-.611.935-.441,2.059.505,3.34a4.119,4.119,0,0,0,.868.882" transform="translate(168.644 64.153)"/>
          </g>
        </g>
        <g id="Group_132" data-name="Group 132">
          <path id="Clip_131-2" data-name="Clip 131" class="cls-1" d="M0,89.693a89.693,89.693,0,0,0,89.693,89.693h0a89.693,89.693,0,0,0,89.693-89.693h0A89.693,89.693,0,0,0,89.693,0h0A89.693,89.693,0,0,0,0,89.693" transform="translate(0.516 0.261)"/>
          <g id="Group_132-2" data-name="Group 132" class="cls-2">
            <path id="Fill_130" data-name="Fill 130" class="cls-3" d="M11.931,5.191l-.691-.538C10.149,3.8,9.019,2.919,7.853,2.12A10.568,10.568,0,0,0,2.883.018,2.468,2.468,0,0,0,.3,1.486,2.18,2.18,0,0,0,.686,4.16,18.646,18.646,0,0,0,9.535,9.9a4.233,4.233,0,0,0,1.208.205A2.24,2.24,0,0,0,12.84,8.8a2.643,2.643,0,0,0-.909-3.607" transform="translate(169.549 37.887)"/>
          </g>
        </g>
        <g id="Group_135" data-name="Group 135">
          <path id="Clip_134-2" data-name="Clip 134" class="cls-1" d="M0,89.693a89.693,89.693,0,0,0,89.693,89.693h0a89.693,89.693,0,0,0,89.693-89.693h0A89.693,89.693,0,0,0,89.693,0h0A89.693,89.693,0,0,0,0,89.693" transform="translate(0.516 0.261)"/>
          <g id="Group_135-2" data-name="Group 135" class="cls-2">
            <path id="Fill_133" data-name="Fill 133" class="cls-3" d="M3.439,6.557a18.392,18.392,0,0,0,8.277,3.8l.042.006H11.8a2.521,2.521,0,0,0,2.133-.812,2.1,2.1,0,0,0,.1-1.917,4.989,4.989,0,0,0-1.139-1.946C9.914,2.559,6.015,1.326,2.244.132A1.687,1.687,0,0,0,.419.4,2.085,2.085,0,0,0,.182,2.575,8.224,8.224,0,0,0,3.439,6.557" transform="translate(166.622 124.035)"/>
          </g>
        </g>
        <g id="Group_138" data-name="Group 138">
          <path id="Clip_137-2" data-name="Clip 137" class="cls-1" d="M0,89.693a89.693,89.693,0,0,0,89.693,89.693h0a89.693,89.693,0,0,0,89.693-89.693h0A89.693,89.693,0,0,0,89.693,0h0A89.693,89.693,0,0,0,0,89.693" transform="translate(0.516 0.261)"/>
          <g id="Group_138-2" data-name="Group 138" class="cls-2">
            <path id="Fill_136" data-name="Fill 136" class="cls-3" d="M12.084,4.56l-.726-.491c-1.146-.778-2.332-1.581-3.548-2.3A10.551,10.551,0,0,0,2.71,0,2.465,2.465,0,0,0,.226,1.64,2.18,2.18,0,0,0,.794,4.282a18.645,18.645,0,0,0,9.213,5.14,4.516,4.516,0,0,0,1.011.132A2.264,2.264,0,0,0,13.232,8.1,2.642,2.642,0,0,0,12.084,4.56" transform="translate(172.681 153.433)"/>
          </g>
        </g>
        <g id="Group_141" data-name="Group 141">
          <path id="Clip_140-2" data-name="Clip 140" class="cls-1" d="M0,89.693a89.693,89.693,0,0,0,89.693,89.693h0a89.693,89.693,0,0,0,89.693-89.693h0A89.693,89.693,0,0,0,89.693,0h0A89.693,89.693,0,0,0,0,89.693" transform="translate(0.516 0.261)"/>
          <g id="Group_141-2" data-name="Group 141" class="cls-2">
            <path id="Fill_139" data-name="Fill 139" class="cls-3" d="M11.182,10.15a8.4,8.4,0,0,0,1.009-.06,1.63,1.63,0,0,0,.822-.285,1.442,1.442,0,0,0,.459-1.444c-.526-2.945-3.458-6.209-6.536-7.278L6.478.922A16.315,16.315,0,0,0,3.579.1,7.624,7.624,0,0,0,1.244.085a1.491,1.491,0,0,0-.97.454A1.4,1.4,0,0,0,0,1.41,5.016,5.016,0,0,0,.887,4.2c1.948,3.064,6.2,5.952,10.3,5.952" transform="translate(168.277 179.241)"/>
          </g>
        </g>
      </g>
      <g id="illo" transform="translate(115 181)">
        <g id="Group_3-3" data-name="Group 3">
          <path id="Clip_2-4" data-name="Clip 2" class="cls-1" d="M0,0H140.749V182.695H0Z" transform="translate(0 0.208)"/>
          <g id="Group_3-4" data-name="Group 3" class="cls-5">
            <path id="Fill_1-2" data-name="Fill 1" class="cls-6" d="M93.743,182.695h-.092a1.871,1.871,0,0,1-2.081-1.572l-.01-.056,0-.013c-.046-.263-.079-.452-.416-.577-.733-.272-1.216-.515-1.357-.886s.061-.89.464-1.643c-.086-.252-.285-.268-.478-.284a.949.949,0,0,1-.254-.044,1.432,1.432,0,0,1-.96-1.566,1.494,1.494,0,0,1,1.21-1.535,10.632,10.632,0,0,1,1.385-.286c.149-.024.3-.048.444-.074a6.055,6.055,0,0,0,4.736-3.8c.291-.021.587-.037.874-.052a19.369,19.369,0,0,0,1.977-.172,3.616,3.616,0,0,0,2.8-2.857c.04-1.435-1.024-2.082-2.071-2.525a6.315,6.315,0,0,0-2.484-.556c-.1,0-.2,0-.305.009a104.933,104.933,0,0,0-3.071-10.327c-.462-1.249-.948-2.513-1.417-3.734-1.2-3.114-2.434-6.333-3.391-9.594a3.831,3.831,0,0,1-.108-.584c-.012-.09-.024-.183-.039-.274.3-.011.6-.013.89-.015,1.452-.009,2.952-.019,4.2-1.1l.137-.118c.717-.617,1.459-1.254,1.177-2.365-.292-1.154-1.312-1.485-2.245-1.7a20.464,20.464,0,0,0-4.784-.466c-.475,0-.977.008-1.63.026a32.291,32.291,0,0,1-2.389-5.917,47.65,47.65,0,0,0-3.158-7.513c-.74-1.511-1.505-3.074-2.151-4.659a74.26,74.26,0,0,0-4.038-8.483,37.449,37.449,0,0,1-2.737-5.641,51.626,51.626,0,0,1-3.958,9.044c-.347-.013-.7-.02-1.053-.02a25.929,25.929,0,0,0-3.776.273A9.713,9.713,0,0,0,58.6,112.81a2.48,2.48,0,0,0-1.092,2.113,2.378,2.378,0,0,0,1.441,1.775,12.4,12.4,0,0,0,4.972,1.429,5.931,5.931,0,0,1-1.073,2.254c-.089.134-.181.272-.268.409-1.57,2.452-3.215,4.912-4.806,7.291-.571.854-1.161,1.736-1.739,2.6a12.6,12.6,0,0,0-4.975-3.83,3.839,3.839,0,0,0-1.439-.312,2.052,2.052,0,0,0-1.668.759c-.788.962-.2,2.036.4,2.864a37.545,37.545,0,0,0,5.023,6A94.748,94.748,0,0,1,46.532,151.2a45.646,45.646,0,0,0-2.555,5.032,36.413,36.413,0,0,1-7.512,11.3,8,8,0,0,0-4.4-1.357h-.056c-2.044.015-3.284.445-3.792,1.314s-.275,2.153.709,3.932a2.932,2.932,0,0,1-1.179.228,8.056,8.056,0,0,1-1.321-.148,10.154,10.154,0,0,0-1.046-.139,16.985,16.985,0,0,1-8.276-2.4c-.083-.052-.17-.1-.26-.159-.691-.417-1.55-.935-1.28-1.729a6.44,6.44,0,0,0,.221-1.022c.173-1.071.353-2.179,1.831-2.41.232-.036.358-.089.42-.176.081-.114.049-.287,0-.548v-.008c-.123-.663-.089-1.065.11-1.3a1.3,1.3,0,0,1,1.055-.315c.082,0,.171,0,.265.007a11.725,11.725,0,0,1,3.2.756l.008,0,.287.1a5.991,5.991,0,0,0,1.906.328,5.042,5.042,0,0,0,4.655-3.351l.111-.257A73.1,73.1,0,0,1,33,151.79c.264.4.51.815.748,1.22a10.594,10.594,0,0,0,2.05,2.752,3.076,3.076,0,0,0,1.875.982,1.786,1.786,0,0,0,.68-.142c1.067-.437,1.029-1.46,1-2.363-.111-3.068-1.291-5.969-3.711-9.127a42.573,42.573,0,0,1,2.067-5.732c.383-.921.779-1.873,1.134-2.822a110.056,110.056,0,0,0,3.745-13.342l.006-.025q.16-.68.321-1.36a213.968,213.968,0,0,1,6.455-21.464c.449-1.282.873-2.6,1.284-3.867.193-.6.393-1.217.594-1.828.209.176.418.36.619.537a10.306,10.306,0,0,0,2.25,1.646,4.574,4.574,0,0,0,1.892.6A1.59,1.59,0,0,0,57.144,97c.922-.869.426-2.075.028-3.045a18.456,18.456,0,0,0-4.554-5.936c-.453-.447-.921-.91-1.369-1.377-.1-1.133-.1-2.288-.1-3.406a29.362,29.362,0,0,0-.23-4.451c.211-.056.426-.111.634-.163a11.231,11.231,0,0,0,3-1.072,3.707,3.707,0,0,0,1.883-2.877,3.886,3.886,0,0,0-1.444-3.3A18.76,18.76,0,0,0,49.938,68.6c-.312-.131-.634-.267-.95-.4l-.006-.038a71.513,71.513,0,0,1-1.015-9.587c-.269.409-.548.822-.817,1.221l0,.007c-.606.9-1.233,1.828-1.8,2.774-1.791,2.99-4.7,4.663-7.519,6.28l-.365.21c-.207.119-.413.253-.612.382a4.364,4.364,0,0,1-2.059.875q-.057-.513-.113-1.026l0-.04c-.078-.714-.159-1.452-.244-2.18a11.139,11.139,0,0,0-1.487-4.882,1.8,1.8,0,0,0-1.5-1.042l-.089,0A1.835,1.835,0,0,0,29.8,62.419a10.161,10.161,0,0,0-.4,1.055,22.292,22.292,0,0,0-.841,6.277c-.024.635-.049,1.291-.09,1.935a11.138,11.138,0,0,1-6.056-3.364c-.082-.08-.162-.168-.239-.252a2.005,2.005,0,0,0-.9-.671c-.015-.036-.028-.076-.04-.115a.507.507,0,0,0-.11-.222,60.2,60.2,0,0,1-8.858-10.446q-.316-.56-.631-1.122l.485-.377.009-.007c.323-.252.656-.512.989-.763a11.929,11.929,0,0,0,3.011-2.974c.535-.822.979-1.78.211-2.654a1.332,1.332,0,0,0-1.044-.5,3.806,3.806,0,0,0-1.48.453l-.024.011a1.847,1.847,0,0,0-.306.164,20.378,20.378,0,0,1-2.836,1.607c-.47.234-.956.476-1.424.732A19.312,19.312,0,0,1,7.508,47.17a53.426,53.426,0,0,0-3.043-7.1c-.744-1.526-1.513-3.1-2.167-4.7A28.723,28.723,0,0,1,.022,23.143c.189.169.377.346.559.516A9.5,9.5,0,0,0,2.528,25.19a3.323,3.323,0,0,0,1.5.473A1.778,1.778,0,0,0,5.1,25.3,2.222,2.222,0,0,0,5.8,22.906a9.7,9.7,0,0,0-.439-1.7c-.394-1.033-.818-2.073-1.228-3.078l0-.009q-.249-.611-.5-1.222A6,6,0,0,1,7.3,15.66a8.379,8.379,0,0,1,2.856.549,4.375,4.375,0,0,0,.931.378,3.831,3.831,0,0,1,1.1.482,18.494,18.494,0,0,1,6.156,6.679,5.763,5.763,0,0,1,.437,2.412,3.161,3.161,0,0,1-1.292,1.695,5.409,5.409,0,0,1-1.572.63,10.083,10.083,0,0,0-1.058.349.226.226,0,0,1-.087.018c-.173,0-.337-.2-.494-.394-.059-.073-.115-.141-.17-.2a3.974,3.974,0,0,1-.727-1.233,6.206,6.206,0,0,0-.406-.817,3.494,3.494,0,0,0-.864-1.629c-.075-.081-.15-.168-.222-.253-.322-.376-.655-.765-1.156-.765a1.293,1.293,0,0,0-.543.133,1.31,1.31,0,0,0-.97,1.3,8.653,8.653,0,0,0,.471,3.927c.561,1.361,1.1,2.754,1.623,4.1.229.592.466,1.2.7,1.808a35.71,35.71,0,0,0-2.671,4.521,4.936,4.936,0,0,0-.5,3.164c.227,1.134.865,1.785,1.752,1.785a2.525,2.525,0,0,0,1.3-.418,9.7,9.7,0,0,0,3.5-3.659c.146.23.291.466.431.7.308.505.626,1.026.984,1.5.279.372.555.757.821,1.13a15.967,15.967,0,0,0,3.807,4.166,1.8,1.8,0,0,0,.647.868c.065.058.132.117.195.177a63.129,63.129,0,0,0,6.1,5.053c.143.106.282.228.416.346a2.212,2.212,0,0,0,1.461.736h.007a4.194,4.194,0,0,0,2.428,1.25,2.513,2.513,0,0,0,1.675-.837c.122.181.244.368.361.549a8.335,8.335,0,0,0,1.712,2.1,2.514,2.514,0,0,0,1.483.656c.662,0,1.191-.509,1.572-1.513,1.275-3.367-.365-6.068-2-8.335.908-2.757,1.621-5.618,2.31-8.385l0-.01c.2-.82.415-1.667.628-2.5.037-.143.066-.291.094-.434a2.928,2.928,0,0,1,.378-1.107l.236.369c.1.158.2.313.3.468q.171.27.341.542a15.235,15.235,0,0,0,3.07,3.88,2.481,2.481,0,0,0,1.519.664c.729,0,1.3-.537,1.638-1.554a6.028,6.028,0,0,0-.446-4.612,35.022,35.022,0,0,0-3.68-5.927,7.514,7.514,0,0,1,3.356-2.13c.213-.087.43-.175.642-.265,1.7-.725,1.827-.823,1.516-2.651a25.833,25.833,0,0,1-.084-6.009c.044-.687.09-1.4.115-2.1a1.407,1.407,0,0,1,.632.97,1.441,1.441,0,0,0,.6.951,3.312,3.312,0,0,0,1.595,1.72.957.957,0,0,0,.678.278,2.448,2.448,0,0,0,.685-.138c.117-.035.237-.071.356-.1a1.849,1.849,0,0,1-.027.651,2.847,2.847,0,0,0-.048.439c0,.934-.821,1.289-1.435,1.475a.932.932,0,0,1-.269.044c-.464,0-.655-.441-.841-.867l-.024-.055c-.061-.14-.124-.28-.186-.42-.14-.311-.283-.63-.4-.953-.1-.284-.248-.417-.45-.417a.641.641,0,0,0-.2.035c-.3.1-.312.366-.3.612a3.723,3.723,0,0,0,2.719,3.114c-.795,2.96-1.129,5.452-.176,8,.277.738.656,1.75,1.613,1.75a1.537,1.537,0,0,0,.213-.015c1.164-.165,1.17-1.343,1.174-2.2a29.34,29.34,0,0,1,.85-6.691,4.438,4.438,0,0,0,.832.081,5.871,5.871,0,0,0,3.852-1.845l.025-.022c.249-.223.507-.454.2-.808a.43.43,0,0,0-.326-.181.863.863,0,0,0-.463.224l-.069.05c-.186.135-.371.278-.55.416a9.6,9.6,0,0,1-1.16.812,2.764,2.764,0,0,1-1.348.349,2.268,2.268,0,0,1-1.814-.8.861.861,0,0,1-.26-.647.581.581,0,0,1,.36-.354l.05-.023c.372-.176.757-.358.6-.869a1.217,1.217,0,0,0-1.043-.777,5.7,5.7,0,0,0-.746-.079c-.107-.007-.227-.014-.342-.024a5.591,5.591,0,0,0-1.361-3.941c-.085-.111-.166-.23-.244-.345a2.047,2.047,0,0,0-1.237-1.042.814.814,0,0,0-.351-.081,1.575,1.575,0,0,0-.719.247l-.139.073a11.84,11.84,0,0,1,2.3-5.851,2.813,2.813,0,0,0,.515-2.092A33.434,33.434,0,0,1,52.687,2.9,2.126,2.126,0,0,1,54.724.661a2.483,2.483,0,0,1,1.251.368c-.12.11-.242.218-.364.326-.273.243-.555.494-.814.758a1.451,1.451,0,0,0-.456,1.778,1.777,1.777,0,0,0,1.681,1.019c.049,0,.1,0,.149,0a2.952,2.952,0,0,0,1.57-.721c.125-.091.254-.185.383-.271l.038.2,0,.023q.106.573.213,1.146a8.848,8.848,0,0,0-3.713,5.546c-.142.659-.191,1.385.526,1.769a1.132,1.132,0,0,0,.535.142,1.708,1.708,0,0,0,1.138-.577,15.051,15.051,0,0,0,3.343-5.317l.016-.008.016-.008.416-.216-.076.26,0,.008c-.044.15-.088.3-.134.449a15.475,15.475,0,0,0-.612,5.44,1.56,1.56,0,0,0,1,1.455,1.054,1.054,0,0,0,.4.084,1.1,1.1,0,0,0,.82-.435,8.791,8.791,0,0,0,1.035-4.1,8.9,8.9,0,0,0-.371-4.242.173.173,0,0,0-.066-.052l-.034-.02c.061-.161.115-.328.167-.488a4.179,4.179,0,0,1,.626-1.346l.227.232c.155.157.315.319.466.485a1.872,1.872,0,0,0,1.259.771,1.114,1.114,0,0,0,.468-.11c.661-.305.744-.99.776-1.725A5.077,5.077,0,0,0,65.841.753c-.086-.169-.175-.344-.258-.518A2,2,0,0,1,66.509,0a2.452,2.452,0,0,1,2.062,1.447,6.73,6.73,0,0,1,.47,4.27,10.3,10.3,0,0,0,.6,5.578A14.23,14.23,0,0,0,65,15.146c-.67.981-.761,1.759-.284,2.448a1.521,1.521,0,0,0,1.343.664,4.761,4.761,0,0,0,1.034-.146A11.469,11.469,0,0,0,69.915,16.9c.221-.119.447-.241.67-.357a4.85,4.85,0,0,1,.6,2.339,6.988,6.988,0,0,0,.265,1.641c-.047.06-.094.122-.14.183l0,0c-.1.135-.208.274-.32.4-.3.343-.608.682-.909,1.011a19.811,19.811,0,0,0-2.286,2.831,2.28,2.28,0,0,0-.134,2.7,1.126,1.126,0,0,0,.91.48,3.047,3.047,0,0,0,1.236-.4c.114-.055.231-.111.343-.161a9.937,9.937,0,0,0,3.734-3.5c.152-.2.325-.434.494-.652l3.307.008h.293l2.933.007a9.678,9.678,0,0,1,3.223.755l.087.031c-.333.392-.676.787-1.009,1.168L83.2,25.4a37.188,37.188,0,0,0-2.849,3.55,8.6,8.6,0,0,0-1.5,4.7,2.177,2.177,0,0,0,1.128,2.221,2.461,2.461,0,0,0,1.01.223,2.557,2.557,0,0,0,1.669-.659,21.348,21.348,0,0,0,3-3.163c.852-1.107,1.742-2.212,2.6-3.281.368-.457.749-.929,1.123-1.4a78.455,78.455,0,0,0,6.149,5.069l.018.014q.583.448,1.165.9c.448.347.914.683,1.365,1.008.211.152.421.3.629.456-.209.785-.414,1.572-.611,2.334-.627,2.417-1.275,4.915-2.076,7.326-.248.745-.441,1.523.152,2.135a1.783,1.783,0,0,0,1.333.541,3.5,3.5,0,0,0,1.008-.168,7.018,7.018,0,0,0,3.383-2.24,11.419,11.419,0,0,0,2.4-5.7,55.127,55.127,0,0,0,8.145,5.22,65.718,65.718,0,0,1,6.9,4.252q.2.148.4.295a8.691,8.691,0,0,1,2.418,2.276,6.137,6.137,0,0,1-1.5,1.06c-.258.146-.524.3-.773.463a10.363,10.363,0,0,0-3.969,4.715,2.09,2.09,0,0,0-.068,1.781,2.188,2.188,0,0,0,1.571,1,3.828,3.828,0,0,0,.838.092,5.607,5.607,0,0,0,1.966-.408,29.225,29.225,0,0,0,6.288-3.533c1.312,2.845.3,7.4-2.211,9.949a16.264,16.264,0,0,1-9.765,4.5c-.33.046-.66.094-.99.142a32.931,32.931,0,0,1-4.729.459c-.461,0-.912-.02-1.338-.059a7.206,7.206,0,0,0-2.476-3.723c-.186-.182-.379-.369-.566-.559l-.054-.054a2.094,2.094,0,0,0-1.38-.833,1.378,1.378,0,0,0-.589.144c-1.011.473-.988,1.4-.832,2.245s.354,1.667.548,2.476c.082.342.167.695.248,1.048-1.951.462-3.981,1.032-6.206,1.744-3.08.985-5.569,2.959-7.977,4.869l-.133.106a.774.774,0,0,0-.483-.223.694.694,0,0,0-.482.252c-.243.247-.5.487-.749.719A8.247,8.247,0,0,0,84.4,82.037a1.352,1.352,0,0,1-1.1.889,5.174,5.174,0,0,1,.263-2.509c.015-.051.032-.1.049-.155.12-.367.242-.742-.21-.939a.622.622,0,0,0-.245-.059c-.271,0-.39.264-.5.519-.033.074-.064.143-.1.206-.11.2-.211.4-.318.612a8,8,0,0,1-1.255,1.956,4.281,4.281,0,0,1,.561-2.966l.031-.065c.159-.333.257-.671-.1-.89a.492.492,0,0,0-.253-.083c-.218,0-.36.211-.486.4l-.046.068c-.327.474-.649.968-.99,1.492l0,0c-.146.225-.3.458-.46.7-.025-.126-.048-.221-.067-.3a.624.624,0,0,1-.035-.254,3.611,3.611,0,0,1,.2-.72,20.417,20.417,0,0,1,7.643-9.291.75.75,0,0,0,.378-.81A32.2,32.2,0,0,1,98.8,64.227c1.589-.408,3.2-.839,4.76-1.256l1.009-.27.048-.013c.353-.093.754-.2.816-.6.06-.381-.225-.492-.5-.6a2.152,2.152,0,0,1-.237-.1l-1.147-.622-.043-.023-.78-.423.192-.324.005-.009c.145-.244.294-.5.436-.747a13.959,13.959,0,0,0,2.156-6.848,2.041,2.041,0,0,0-1.255-2.226,1.616,1.616,0,0,0-.505-.087c-.726,0-1.214.584-1.652,1.182-1.123,1.534-2.25,3.085-3.34,4.584l-1.22,1.679c-.967-.394-1.975-.726-2.95-1.048a26.231,26.231,0,0,1-5.139-2.112,2.6,2.6,0,0,0-.978-.447c-.294,0-.311.4-.32,1.3,0,.3,0,.6,0,.888a19.355,19.355,0,0,1-.259,3.868c-.083.036-.165.074-.247.112-.178.082-.362.167-.549.235a19.819,19.819,0,0,0-6.084,3.323c-1.278,1.07-1.761,2.386-1.29,3.52.532,1.281,1.666,1.5,2.983,1.636a4.3,4.3,0,0,0,.446.023,8.285,8.285,0,0,0,2.622-.571c.414-.139.843-.283,1.273-.389q-.008.443-.016.887v.018q-.009.461-.017.922a2.559,2.559,0,0,0-1.445.657,28.653,28.653,0,0,0-4.728,4.97,14.642,14.642,0,0,0-2.606,4.959c-.216.745-.237,1.111-.077,1.348.178.264.6.356,1.221.419.263.027.395.04.553.32.449.8.712,1.157,1.083,1.157a2.419,2.419,0,0,0,1.144-.564c.326.748.659,1.081,1.081,1.081a1.856,1.856,0,0,0,1.056-.485,2.91,2.91,0,0,0,.838-.908A8.492,8.492,0,0,1,87.709,79.8c.022.119.046.239.069.356.049.247.1.5.132.751a9.174,9.174,0,0,0,4.541,6.827c.368.234.738.479,1.1.716a27.106,27.106,0,0,0,3.04,1.825,4.968,4.968,0,0,0,.512,2.718c.052.133.1.265.155.4a1.79,1.79,0,0,0,1.736,1.329l.125,0a2.105,2.105,0,0,0,2.046-1.126A5.953,5.953,0,0,0,101.7,91.8l.021-.112c.322.018.65.039.967.059.7.044,1.413.089,2.119.11.185.005.371.008.554.008,5.645,0,10.475-2.624,14.766-8.022.271-.34.532-.7.784-1.044a15.9,15.9,0,0,1,1.613-1.979c.19.292.381.59.566.878.432.673.878,1.369,1.342,2.035.4.576.9,1.293,1.7,1.293a1.685,1.685,0,0,0,.5-.082c.983-.308,1.136-1.219,1.208-2.126a13.988,13.988,0,0,0-1.836-7.4,55.285,55.285,0,0,0,3.875-19.2c0-1.221.019-2.464.035-3.666a87.161,87.161,0,0,0-.526-13.527,10.56,10.56,0,0,1-.022-2.052c.017-.314.034-.639.038-.956a12.076,12.076,0,0,0,3.962.536c.412,0,.825-.009,1.212-.017,1.231-.029,2.626-.061,3.2-1.616.563-1.531-.391-2.536-1.314-3.507l-.009-.009a3.9,3.9,0,0,0-.671-.525c-.077-.052-.151-.1-.223-.152a23.614,23.614,0,0,0-5.833-2.692l-.152-.054a24.406,24.406,0,0,1,.477-5.5,5.891,5.891,0,0,1,2.164-3.469,6.2,6.2,0,0,1,3.842-1.421,5.124,5.124,0,0,1,.534.028,4.028,4.028,0,0,1,2.279,1.185,4.753,4.753,0,0,1,1.349,2.36,37.045,37.045,0,0,1,.436,9.143c-.179,3.741-.623,7.522-1.053,11.178-.223,1.9-.454,3.869-.646,5.809a3.53,3.53,0,0,1-.128.586c-.023.083-.049.177-.071.269a8.065,8.065,0,0,0-2.226.756,4.712,4.712,0,0,0-2.857,2.769,1.571,1.571,0,0,0,1.012,2.191,5.482,5.482,0,0,0,2.143.312c.3,0,.615.006.92.032a130.231,130.231,0,0,1-2.8,15.9,56.308,56.308,0,0,1-7.533,17.352c-2.072,3.294-5.307,5.438-7.895,6.938l-.568.33A30.808,30.808,0,0,1,113.1,97.61a12.3,12.3,0,0,0-.639-3.444,1.872,1.872,0,0,0-1.824-1.393h-.051c-.847.019-1.139.715-1.366,1.427a22.754,22.754,0,0,0-.882,4.423c-.9-.042-1.813-.064-2.7-.085a41.941,41.941,0,0,1-7.448-.625,14.517,14.517,0,0,1-4.553-1.865,98.85,98.85,0,0,1,4.68,19.451,31.869,31.869,0,0,0-3.385,4.214c-.491.688-1,1.395-1.518,2.07a3.155,3.155,0,0,0-.507,1.785,2.441,2.441,0,0,0,.509,1.855,1.646,1.646,0,0,0,1.252.488,3.353,3.353,0,0,0,.962-.157,13.946,13.946,0,0,0,3.7-1.745,11.267,11.267,0,0,1,.686,3.271c.036.332.072.674.118,1.01a30.835,30.835,0,0,0,1.2,4.842c.169.554.344,1.126.5,1.691.354,1.251.633,2.545.9,3.8a33.784,33.784,0,0,0,1.979,6.815,28.017,28.017,0,0,0-3.14,3.653l-.005.007-.379.494a11.64,11.64,0,0,0-2.013,4.136,2.151,2.151,0,0,0,.658,2.594,1.652,1.652,0,0,0,.94.307,2.84,2.84,0,0,0,1.575-.654,17.335,17.335,0,0,0,3.406-3.588c.18-.23.366-.468.552-.7a18.288,18.288,0,0,1,.942,6.034q.026.74.056,1.481v.008a48.4,48.4,0,0,1-.516,11.9,12.353,12.353,0,0,1-1.638,4.157,9.609,9.609,0,0,1-3.236,3.1,23.924,23.924,0,0,0-2.162,1.5,14.973,14.973,0,0,1-3.583,2.193l-.208.08A6.261,6.261,0,0,1,93.743,182.695ZM88.882,92.016a2.16,2.16,0,0,0-1.146.387,6.654,6.654,0,0,0-3.018,3.548,30.225,30.225,0,0,0-1.707,7.309c-.13,1.928.344,3.3,1.269,3.659a1.8,1.8,0,0,0,.664.124,3.837,3.837,0,0,0,2.857-1.911l.012-.017a.723.723,0,0,0,.058-.087,24.042,24.042,0,0,0,2.941-9.379,5.038,5.038,0,0,0-.373-2.218C90.133,92.519,89.58,92.016,88.882,92.016Zm-4.432-50.3a3.094,3.094,0,0,0-.986.177,4.324,4.324,0,0,0-2.409,2.232c-1.105,2.027-2.239,4.075-3.336,6.055l-.035.063q-.7,1.266-1.4,2.533c-.495.9-.843,1.854-.049,2.787a1.829,1.829,0,0,0,1.462.694,3.735,3.735,0,0,0,1.592-.433c3.1-1.484,4.5-4.358,5.677-7.175l.137-.329a12.474,12.474,0,0,0,1.223-4.334,2.349,2.349,0,0,0-.562-1.754A1.777,1.777,0,0,0,84.45,41.715ZM61.569,17.225a3.487,3.487,0,0,0-1.806.474,3.365,3.365,0,0,0-1.433.712c-.157.112-.318.228-.484.331-.082.1-.168.195-.252.289a5.673,5.673,0,0,0-.526.652c-.385.587-.507,1.023-.382,1.371s.521.629,1.235.853a2.134,2.134,0,0,0,.674.116,1.877,1.877,0,0,0,1.058-.336,6,6,0,0,0,3.194-2.206,1.57,1.57,0,0,0,.3-1.632c-.231-.573-.785-.595-1.273-.614l-.1,0C61.707,17.226,61.638,17.225,61.569,17.225Z" transform="translate(0 0.207)"/>
          </g>
        </g>
        <path id="Fill_4-2" data-name="Fill 4" class="cls-3" d="M.588.351C1.032.138,1.462-.147,2,.089A19.549,19.549,0,0,0,1.437,4C.559,3.543.915,2.332,0,1.9A2.047,2.047,0,0,1,.588.351" transform="translate(49 15)"/>
        <path id="Fill_6" data-name="Fill 6" class="cls-7" d="M.421.6S.384.395.384.4s.231.04.231.04Z" transform="translate(98 123)"/>
        <path id="Fill_8" data-name="Fill 8" class="cls-8" d="M6,1.229A17.212,17.212,0,0,0,4.848,7.064c-.006.789-.037,1.781-1.591,1.922A2.378,2.378,0,0,1,.782,7.474C-.578,5.136.056,2.812,1.021.5,2.442-.182,3.714-.244,4.843.8A3.99,3.99,0,0,0,6,1.229" transform="translate(50 25)"/>
        <path id="Fill_10-2" data-name="Fill 10" class="cls-3" d="M.114.638A2.084,2.084,0,0,1,1.776.006c.432.033.927.012,1.13.832a3.19,3.19,0,0,1-.247,2.2A5.78,5.78,0,0,1,.023,6,53.358,53.358,0,0,1,.114.638" transform="translate(59 16)"/>
        <path id="Fill_12" data-name="Fill 12" class="cls-9" d="M28.962,170h0c-.982-1.76-1.216-3.034-.715-3.894s1.75-1.3,3.8-1.313h.056a8.07,8.07,0,0,1,4.4,1.347,2.9,2.9,0,0,1-1.559,1.374c-.105.055-.214.111-.317.167-.341.186-.682.386-1.013.578A9.879,9.879,0,0,1,28.963,170Zm67.528-1.051v0a10.335,10.335,0,0,0,.788-6.109c.109-.007.212-.009.307-.009a6.375,6.375,0,0,1,2.487.552c1.048.44,2.115,1.082,2.075,2.507a2.83,2.83,0,0,1-.909,1.783,3.554,3.554,0,0,1-1.892,1.055,19.543,19.543,0,0,1-1.974.171h-.006c-.287.015-.584.031-.875.052ZM37.722,155.425a3.088,3.088,0,0,1-1.879-.976,10.551,10.551,0,0,1-2.056-2.736c-.238-.4-.483-.815-.747-1.208a35.731,35.731,0,0,1,2.071-5.349c.19-.421.385-.854.572-1.282,2.425,3.137,3.606,6.017,3.718,9.064.033.9.07,1.911-1,2.346A1.808,1.808,0,0,1,37.722,155.425Zm63.219-.118A1.667,1.667,0,0,1,100,155a2.126,2.126,0,0,1-.659-2.577,11.508,11.508,0,0,1,2.017-4.107l.384-.5a27.784,27.784,0,0,1,3.148-3.629c.184.787.427,1.574.663,2.334a20.959,20.959,0,0,1,.933,3.869c-.184.23-.37.465-.549.693a17.292,17.292,0,0,1-3.416,3.569A2.858,2.858,0,0,1,100.941,155.307Zm-11.7-16.812h0l-1.412-3.555-.852-2.144c.673-.018,1.176-.025,1.633-.025a20.66,20.66,0,0,1,4.794.463c.935.218,1.956.547,2.249,1.693.281,1.1-.459,1.734-1.176,2.345l0,0-.135.116c-1.247,1.072-2.748,1.081-4.2,1.091-.294,0-.6,0-.9.015Zm-35.783-3.5h0a37.316,37.316,0,0,1-5.032-5.962c-.6-.822-1.187-1.889-.4-2.844a2.063,2.063,0,0,1,1.671-.754,3.869,3.869,0,0,1,1.442.311,12.591,12.591,0,0,1,4.985,3.8,23.944,23.944,0,0,1-1.764,3.738c-.3.556-.616,1.13-.9,1.706Zm41.37-10.189h0a1.655,1.655,0,0,1-1.259-.49,2.416,2.416,0,0,1-.506-1.837,3.124,3.124,0,0,1,.509-1.772c.524-.671,1.03-1.374,1.519-2.054a31.673,31.673,0,0,1,3.393-4.186,41.283,41.283,0,0,1,1.109,7.9l.009.052-.105.5a14.039,14.039,0,0,1-3.7,1.732A3.384,3.384,0,0,1,94.824,124.805Zm-30.8-7.73h0a12.489,12.489,0,0,1-4.982-1.418A2.364,2.364,0,0,1,57.6,113.89a2.456,2.456,0,0,1,1.094-2.1,9.8,9.8,0,0,1,4.981-1.758,26.235,26.235,0,0,1,3.785-.271c.347,0,.7.007,1.053.02a43.626,43.626,0,0,1-4.486,7.289Zm21.059-11.007h0a1.822,1.822,0,0,1-.665-.123c-.927-.361-1.4-1.72-1.271-3.634a29.752,29.752,0,0,1,1.711-7.258,6.621,6.621,0,0,1,3.024-3.523,2.173,2.173,0,0,1,1.147-.384c.7,0,1.253.5,1.56,1.406a4.968,4.968,0,0,1,.373,2.2,23.711,23.711,0,0,1-2.947,9.314.769.769,0,0,1-.057.085l-.013.018A3.847,3.847,0,0,1,85.081,106.068Zm24.1-8.319h0a5.123,5.123,0,0,1-.66-.043,22.406,22.406,0,0,1,.885-4.392c.227-.707.52-1.4,1.369-1.418h.051a1.872,1.872,0,0,1,1.826,1.383,12.156,12.156,0,0,1,.641,3.421c-.248.084-.5.174-.742.262A10.052,10.052,0,0,1,109.177,97.749ZM56.088,96.543h0a4.621,4.621,0,0,1-1.9-.592,10.3,10.3,0,0,1-2.248-1.63c-.2-.179-.415-.362-.626-.538a13.593,13.593,0,0,0,.152-5,22.719,22.719,0,0,1-.149-2.976c.448.463.917.923,1.371,1.367a18.352,18.352,0,0,1,4.564,5.9c.4.963.894,2.161-.029,3.023A1.6,1.6,0,0,1,56.088,96.543Zm43.192-2.714-.126,0a1.79,1.79,0,0,1-1.74-1.32c-.051-.133-.1-.265-.156-.4a4.887,4.887,0,0,1-.513-2.7,10.922,10.922,0,0,0,2.4.626,9.548,9.548,0,0,1,2.737.783l-.02.1a5.9,5.9,0,0,1-.538,1.786A2.114,2.114,0,0,1,99.281,93.829ZM126.348,84.2c-.806,0-1.306-.712-1.707-1.284-.465-.662-.911-1.352-1.343-2.019-.186-.287-.377-.583-.568-.874a44.078,44.078,0,0,0,3.455-5.3l.038-.065a13.807,13.807,0,0,1,1.839,7.349c-.071.9-.223,1.8-1.211,2.11A1.7,1.7,0,0,1,126.348,84.2Zm-42.973-.987c-.423,0-.757-.331-1.084-1.074a2.435,2.435,0,0,1-1.145.561c-.371,0-.635-.354-1.085-1.148a.557.557,0,0,0-.553-.32c-.624-.062-1.047-.154-1.225-.417-.159-.236-.138-.6.078-1.338a14.505,14.505,0,0,1,2.61-4.925,28.587,28.587,0,0,1,4.738-4.935,2.524,2.524,0,0,1,1.448-.653l.083.04.254.121a.739.739,0,0,1-.379.8,20.32,20.32,0,0,0-7.657,9.226,3.575,3.575,0,0,0-.2.716.614.614,0,0,0,.036.252c.019.076.043.169.068.294.163-.247.315-.477.461-.7.357-.544.665-1.014.993-1.486l.044-.064,0-.005c.125-.184.268-.393.486-.393a.5.5,0,0,1,.253.082c.361.218.263.554.1.885l-.031.064a4.221,4.221,0,0,0-.562,2.947,7.933,7.933,0,0,0,1.256-1.942c.107-.211.208-.41.319-.609.035-.062.066-.131.1-.2.115-.254.234-.516.507-.516a.628.628,0,0,1,.245.058c.452.2.33.568.211.928-.018.054-.035.107-.05.159a5.117,5.117,0,0,0-.264,2.492,1.352,1.352,0,0,0,1.107-.883A8.215,8.215,0,0,1,86.5,78.9c.249-.23.506-.467.748-.711a.7.7,0,0,1,.482-.25.781.781,0,0,1,.485.222l-.014.032-.352.82a8.446,8.446,0,0,0-2.579,2.825,2.889,2.889,0,0,1-.84.9A1.866,1.866,0,0,1,83.375,83.217ZM50.989,78h0q-.962-5.233-1.923-10.465l-.008-.045c.314.134.634.268.943.4a18.892,18.892,0,0,1,5.064,2.752,3.848,3.848,0,0,1,1.447,3.277,3.678,3.678,0,0,1-1.887,2.859,11.305,11.305,0,0,1-3,1.063c-.209.052-.424.107-.638.163Zm51.572-6.52h0c-.082-.353-.168-.707-.251-1.05-.194-.8-.394-1.626-.547-2.447-.164-.881-.177-1.761.832-2.229a1.393,1.393,0,0,1,.591-.143,2.1,2.1,0,0,1,1.383.828l.052.052c.186.186.379.372.565.552a7.156,7.156,0,0,1,2.483,3.7l-2.555.369-2.554.368ZM30.212,71.1h0a10.9,10.9,0,0,1-1.71-.143c.041-.638.066-1.29.09-1.919a21.953,21.953,0,0,1,.843-6.236,10.074,10.074,0,0,1,.4-1.049A1.834,1.834,0,0,1,31.4,60.5l.088,0a1.806,1.806,0,0,1,1.5,1.036,10.979,10.979,0,0,1,1.49,4.847c.086.737.17,1.487.25,2.212v.01q.055.5.111,1A7.439,7.439,0,0,1,30.212,71.1Zm53.077-2.99h0a4.362,4.362,0,0,1-.447-.023c-1.321-.137-2.457-.353-2.99-1.625-.471-1.127.012-2.433,1.291-3.495a19.906,19.906,0,0,1,6.1-3.3c.183-.067.364-.149.539-.229.087-.04.172-.079.258-.116-.038.53-.07,1.068-.1,1.588a35.946,35.946,0,0,1-.745,6.246c-.43.106-.86.248-1.275.386A8.366,8.366,0,0,1,83.288,68.109Zm35.182-8.339h0a3.858,3.858,0,0,1-.839-.092,2.189,2.189,0,0,1-1.576-1,2.063,2.063,0,0,1,.071-1.764,10.3,10.3,0,0,1,3.976-4.682c.25-.165.516-.315.774-.46a6.164,6.164,0,0,0,1.5-1.054c.239.2.485.4.723.592,1.508,1.221,3.068,2.484,3.641,4.541a29.308,29.308,0,0,1-6.3,3.508A5.653,5.653,0,0,1,118.471,59.77ZM102.9,59.663h0A15.584,15.584,0,0,1,97.7,56.885l1.414-1.927.013-.018c1.027-1.4,2.088-2.847,3.141-4.273.44-.594.93-1.175,1.655-1.175a1.631,1.631,0,0,1,.507.086,2.025,2.025,0,0,1,1.257,2.21,13.768,13.768,0,0,1-2.161,6.8c-.141.249-.29.5-.434.738l-.2.334ZM37.974,57.98h0a2.532,2.532,0,0,1-1.486-.652,8.248,8.248,0,0,1-1.708-2.073c-.12-.183-.243-.371-.369-.555.341-.7.708-1.409,1.063-2.091A38.976,38.976,0,0,0,37.542,48.2c1.642,2.253,3.284,4.936,2.007,8.276C39.168,57.474,38.638,57.98,37.974,57.98Zm39.845-2.348a1.841,1.841,0,0,1-1.466-.689c-.8-.927-.446-1.878.049-2.768q.682-1.223,1.365-2.445l.036-.064c1.112-1.99,2.262-4.048,3.382-6.083A4.308,4.308,0,0,1,83.6,41.368a3.122,3.122,0,0,1,.989-.176,1.787,1.787,0,0,1,1.321.518,2.325,2.325,0,0,1,.558,1.737,12.3,12.3,0,0,1-1.227,4.308l0,.009-.133.314c-1.175,2.8-2.581,5.651-5.687,7.125A3.777,3.777,0,0,1,77.819,55.632Zm-66.186-.757h0A14.721,14.721,0,0,1,9.218,50.6c.47-.255.957-.5,1.429-.728a20.44,20.44,0,0,0,2.84-1.595,1.766,1.766,0,0,1,.3-.161l.027-.012a3.832,3.832,0,0,1,1.483-.45,1.339,1.339,0,0,1,1.046.493c.768.867.324,1.819-.212,2.636a11.918,11.918,0,0,1-3.018,2.954c-.333.249-.667.507-.99.757l-.495.382ZM137.991,53.6h0c-.306-.026-.619-.029-.922-.032a5.535,5.535,0,0,1-2.146-.31,1.555,1.555,0,0,1-1.013-2.174,4.7,4.7,0,0,1,2.861-2.751A8.161,8.161,0,0,1,139,47.583v.022a33.956,33.956,0,0,1-1.008,6ZM97.67,46.813h0a1.794,1.794,0,0,1-1.336-.538c-.593-.607-.4-1.38-.152-2.12.8-2.39,1.45-4.866,2.077-7.261.2-.764.407-1.553.616-2.331a20.662,20.662,0,0,1,3.3,2.407,28.9,28.9,0,0,0,2.3,1.795,11.289,11.289,0,0,1-2.408,5.657,7.029,7.029,0,0,1-3.389,2.225A3.537,3.537,0,0,1,97.67,46.813ZM10.588,43.766c-.889,0-1.529-.646-1.756-1.773a4.861,4.861,0,0,1,.506-3.141,35.5,35.5,0,0,1,2.676-4.489l1.655,2.613.04.064,1.7,2.677a9.655,9.655,0,0,1-3.512,3.635A2.545,2.545,0,0,1,10.588,43.766Zm35.849-2.032h0a2.5,2.5,0,0,1-1.522-.659,15.151,15.151,0,0,1-3.074-3.85q-.171-.271-.344-.541t-.34-.527l-.2-.3a9.914,9.914,0,0,1,2.984-6.128A34.778,34.778,0,0,1,47.63,35.61a5.94,5.94,0,0,1,.448,4.58C47.734,41.2,47.167,41.733,46.437,41.733ZM133.6,36.066a12.213,12.213,0,0,1-3.972-.532,52.859,52.859,0,0,1,.172-7.981l.148.052A23.78,23.78,0,0,1,135.8,30.28c.073.051.148.1.223.151a3.913,3.913,0,0,1,.672.521l.011.012c.924.965,1.878,1.962,1.314,3.481-.573,1.544-1.971,1.576-3.2,1.6C134.425,36.057,134.013,36.066,133.6,36.066Zm-52.482-.454a2.482,2.482,0,0,1-1.012-.221,2.155,2.155,0,0,1-1.13-2.206,8.486,8.486,0,0,1,1.5-4.666A36.989,36.989,0,0,1,83.325,25c.337-.383.686-.779,1.023-1.174,2,.734,3.908,1.541,5.184,3.342-.373.463-.754.932-1.123,1.385-.864,1.063-1.757,2.162-2.612,3.262a21.266,21.266,0,0,1-3.007,3.142A2.577,2.577,0,0,1,81.117,35.612Zm-12.448-7.9a1.131,1.131,0,0,1-.911-.476,2.251,2.251,0,0,1,.134-2.684,19.794,19.794,0,0,1,2.292-2.814c.3-.326.612-.663.909-1,.115-.131.224-.273.329-.41l.136-.176c.032.055.068.109.1.162a1.69,1.69,0,0,1,.2.366c.384,1.127,1,2.287,2.626,2.352-.166.214-.333.434-.494.646a9.935,9.935,0,0,1-3.743,3.477c-.112.049-.229.105-.342.159A3.076,3.076,0,0,1,68.669,27.713ZM4.013,25.252h0a3.349,3.349,0,0,1-1.5-.47A9.452,9.452,0,0,1,.564,23.264c-.183-.17-.372-.347-.564-.516.186-3.1,1.335-5.07,3.617-6.2.165.4.333.812.5,1.207.413,1,.841,2.041,1.236,3.072a9.421,9.421,0,0,1,.439,1.688,2.194,2.194,0,0,1-.695,2.373A1.791,1.791,0,0,1,4.013,25.252ZM57.1,24.864h0a4.487,4.487,0,0,1-.835-.081c-.092-.049-.2-.092-.3-.134a1.254,1.254,0,0,1-.56-.349,1.767,1.767,0,0,0-1.432-.916,2.409,2.409,0,0,0-1.393.568,3.709,3.709,0,0,1-2.724-3.092c-.009-.244.007-.513.3-.608a.645.645,0,0,1,.2-.035c.2,0,.347.132.452.414.12.32.264.637.4.944.063.14.126.278.188.418l.022.05c.186.426.378.866.844.866a.941.941,0,0,0,.269-.043c.614-.184,1.432-.537,1.436-1.465a2.825,2.825,0,0,1,.048-.433,1.816,1.816,0,0,0,.027-.649l.011-.006c.112.01.225.017.335.023a5.856,5.856,0,0,1,.755.079,1.219,1.219,0,0,1,1.045.772c.161.508-.224.689-.6.863l-.049.023c-.21.1-.328.214-.361.352a.851.851,0,0,0,.261.641,2.282,2.282,0,0,0,1.817.8,2.79,2.79,0,0,0,1.351-.347,9.638,9.638,0,0,0,1.159-.8c.18-.139.367-.282.554-.416l.066-.048a.871.871,0,0,1,.466-.224.432.432,0,0,1,.327.18c.3.351.044.58-.2.8l-.027.024A5.9,5.9,0,0,1,57.1,24.864Zm1.579-3.228a2.154,2.154,0,0,1-.674-.115q-.019-.785-.037-1.57v-.005h0q-.019-.784-.037-1.568c.166-.1.329-.218.486-.33a3.377,3.377,0,0,1,1.434-.706,22,22,0,0,0-.117,3.631l.007.328A1.89,1.89,0,0,1,58.681,21.635Zm-6.353-1.358h0a3.307,3.307,0,0,1-1.6-1.709c.026-.268.048-.542.07-.806a13.367,13.367,0,0,1,.414-2.74,2.041,2.041,0,0,1,1.238,1.032c.079.115.161.234.246.345a7.4,7.4,0,0,0-.321,2.561c0,.432-.006.88-.049,1.316ZM66.164,17.9a1.527,1.527,0,0,1-1.346-.66c-.478-.683-.388-1.455.283-2.43a14.255,14.255,0,0,1,4.649-3.821l0,0,.089.256A10.375,10.375,0,0,1,70.7,16.2c-.228.117-.457.239-.679.358a11.5,11.5,0,0,1-2.818,1.2A4.819,4.819,0,0,1,66.164,17.9Zm-4.838-3.919a1.06,1.06,0,0,1-.4-.084,1.547,1.547,0,0,1-1.006-1.445,15.247,15.247,0,0,1,.613-5.4c.048-.153.094-.31.139-.461l0-.005.073-.246a1.625,1.625,0,0,0,.443.067c.677,0,1.052-.537,1.415-1.056l.107-.153c.011.008.023.014.035.021a.171.171,0,0,1,.065.051,8.764,8.764,0,0,1,.371,4.212,8.671,8.671,0,0,1-1.037,4.07A1.1,1.1,0,0,1,61.325,13.979ZM55.809,12.42a1.142,1.142,0,0,1-.537-.141c-.719-.381-.67-1.1-.527-1.757a8.784,8.784,0,0,1,3.721-5.506c-.114,1.038.535,1.191,1.163,1.339a3.076,3.076,0,0,1,.669.211,14.928,14.928,0,0,1-3.349,5.28A1.716,1.716,0,0,1,55.809,12.42ZM65.463,4.85A1.878,1.878,0,0,1,64.2,4.084c-.154-.166-.316-.329-.473-.487l-.223-.224c.064-.209.121-.426.177-.635.3-1.129.61-2.294,2-2.738.083.172.172.345.258.513a5,5,0,0,1,.766,2.515c-.032.73-.115,1.41-.778,1.714A1.124,1.124,0,0,1,65.463,4.85ZM56.1,4.643a1.779,1.779,0,0,1-1.682-1.011,1.433,1.433,0,0,1,.457-1.767c.258-.261.539-.509.81-.748.122-.107.247-.218.369-.329a1.89,1.89,0,0,1,.362-.037,1.473,1.473,0,0,1,1.11.486,3.294,3.294,0,0,1,.679,2.416c-.13.086-.259.179-.383.269a2.965,2.965,0,0,1-1.574.716C56.2,4.641,56.152,4.643,56.1,4.643Z" transform="translate(0 1)"/>
        <path id="Fill_14" data-name="Fill 14" class="cls-3" d="M0,3.734C.147,2.49-.111,1.213.426,0A4.787,4.787,0,0,1,2,3.769l-.012.005C1.319,3.9.647,4.236,0,3.734" transform="translate(52 17)"/>
        <path id="Fill_16-2" data-name="Fill 16" class="cls-3" d="M1.884,0,2,4C-.14,3.457-.527,2.666.669,1.188A14.3,14.3,0,0,1,1.884,0" transform="translate(56 18)"/>
      </g>
    </g>
  </g>
</svg>
