<?xml version="1.0" encoding="utf-8"?>
<!-- Generator: Adobe Illustrator 26.5.0, SVG Export Plug-In . SVG Version: 6.00 Build 0)  -->
<svg version="1.1" id="Layer_1" xmlns="http://www.w3.org/2000/svg" xmlns:xlink="http://www.w3.org/1999/xlink" x="0px" y="0px"
	 viewBox="0 0 100 100" style="enable-background:new 0 0 100 100;" xml:space="preserve">
<style type="text/css">
	.st0{fillRule:evenodd;clipRule:evenodd;fill:#191919;}
	.st1{fillRule:evenodd;clipRule:evenodd;fill:#FFFFFF;}
</style>
<circle class="st0" cx="50" cy="50" r="50"/>
<path id="arrow" class="st1" d="M53.3,44.2c-0.5,0.6-0.4,1.6,0.2,2.2c0.7,0.7,1.8,0.7,2.4,0.1l16.7-16.7l0,13.4l0,0.2
	c0.1,0.9,0.8,1.6,1.8,1.6c1,0,1.8-0.8,1.8-1.8l0-17.7l0-0.2c-0.1-0.9-0.8-1.6-1.8-1.6l-17.7,0l-0.2,0c-0.9,0.1-1.6,0.8-1.6,1.8
	l0,0.2c0.1,0.9,0.8,1.6,1.8,1.6h13.4L53.4,44.1L53.3,44.2z"/>
<path id="arrow_00000152978844977697391020000004791100518708627584_" class="st1" d="M46.7,55.8c0.5-0.6,0.4-1.6-0.2-2.2
	c-0.7-0.7-1.8-0.7-2.4-0.1L27.4,70.1l0-13.4l0-0.2c-0.1-0.9-0.8-1.6-1.8-1.6c-1,0-1.8,0.8-1.8,1.8l0,17.7l0,0.2
	c0.1,0.9,0.8,1.6,1.8,1.6l17.7,0l0.2,0c0.9-0.1,1.6-0.8,1.6-1.8l0-0.2c-0.1-0.9-0.8-1.6-1.8-1.6H29.9l16.7-16.7L46.7,55.8z"/>
</svg>
