<svg xmlns="http://www.w3.org/2000/svg" xmlns:xlink="http://www.w3.org/1999/xlink" width="370" height="481" viewBox="0 0 370 481"><defs><style>.a{fill:none;}.b{fill:#303d78;}.c{fill:#fb0;}.d{clip-path:url(#a);}.e{clip-path:url(#b);}.f{clip-path:url(#c);}.g{fill:#c96;}</style><clipPath id="a"><path class="a" d="M5,0H365a5,5,0,0,1,5,5V208a0,0,0,0,1,0,0H0a0,0,0,0,1,0,0V5A5,5,0,0,1,5,0Z"/></clipPath><clipPath id="b"><path class="a" d="M0,336q-229.848-40.362-366.764-157.375Q-444.415,112.192-485,0H0Z" transform="translate(485.043 0.221)"/></clipPath><clipPath id="c"><rect class="b" width="370" height="208.125"/></clipPath></defs><g transform="translate(-928 -13992)"><rect class="c" width="369" height="480" rx="5" transform="translate(928 13993)"/><g transform="translate(928 13992)"><path class="a" d="M5,0H365a5,5,0,0,1,5,5V208a0,0,0,0,1,0,0H0a0,0,0,0,1,0,0V5A5,5,0,0,1,5,0Z"/><g class="d"><g transform="translate(-115.043 -128.221)"><path class="a" d="M0,336q-229.848-40.362-366.764-157.375Q-444.415,112.192-485,0H0Z" transform="translate(485.043 0.221)"/><g class="e"><g transform="translate(115.043 128.221)"><rect class="b" width="370" height="208.125"/><g class="f"><path class="g" d="M390.994,528.812c-2.807-2.451-5.633-2.081-8.7-1.833-5.483.444-11.23-3.135-13.89-8.653-2.061-4.28-1.439-8.988,3.263-12.966,5.809-4.916,12.284-9.06,18.636-13.29,2.445-1.626,4.631-2.955,5.177-6.26.514-3.113,3.088-4.668,6.059-4.376,11.617,1.139,18.686,11.034,18,21.542a6.252,6.252,0,0,1-3.357,4.528c-1.1.4-3.7-1.232-4.52-2.621-1.472-2.5-2.108-5.491-3.325-8.932a14.016,14.016,0,0,0-10.266,5.053c-1.97,2.24-3.812,4.607-5.916,6.71a6.5,6.5,0,0,1-3.618,1.952c-2.314.2-4.179.334-3.9,3.386.252,2.8,1.446,4.673,4.415,5.047,2.058.258,4.119.507,6.165.844,2.92.483,5.318,1.961,5.767,4.986a5.585,5.585,0,0,1-1.7,4.354,7.557,7.557,0,0,1-4.741,1.851A5.3,5.3,0,0,1,390.994,528.812Zm51.579-4.092a14.383,14.383,0,0,1-6.812-4.707,13.621,13.621,0,0,1-2.1-3.676,12.144,12.144,0,0,1-.732-7.23,12.523,12.523,0,0,1,3.879-6.143,4.467,4.467,0,0,0,1.169-2.893,15.6,15.6,0,0,1,.469-3.908,7.6,7.6,0,0,1,1.382-2.836,6.8,6.8,0,0,1,2.405-1.875,12.346,12.346,0,0,1,3.538-1.024,9.959,9.959,0,0,1,1.51-.114A11.317,11.317,0,0,1,453.6,492.3a10.282,10.282,0,0,1,2.37,2.225,8.342,8.342,0,0,1,1.431,2.816,34.883,34.883,0,0,1,1.408,10.047,31.142,31.142,0,0,1-.526,5.247,35.3,35.3,0,0,1-1.516,5.514,13.42,13.42,0,0,1-1.4,3.07,8.484,8.484,0,0,1-1.981,2.213,10.383,10.383,0,0,1-6.144,1.934c-.173.007-.349.01-.523.01A13.555,13.555,0,0,1,442.573,524.721Zm6.149-23.584c-1.045.845-2.125,1.718-3.165,2.605a2.743,2.743,0,0,0-.481.612,2.9,2.9,0,0,1-.457.591c-1.768,1.6-2.59,2.952-2.663,4.4s.6,3.064,2.184,5.23l.082-.019c3.627-.857,5.448-1.288,6.369-2.387a4.088,4.088,0,0,0,.8-2.284,36.834,36.834,0,0,0,.081-4.1,12.079,12.079,0,0,0-.954-3.857c-.211-.579-.43-1.177-.6-1.765C449.522,500.49,449.115,500.819,448.722,501.137Zm79.752,15.979c-2.58-2.337-2.851-4.879-2.2-7.647a6.158,6.158,0,0,1,6.279-4.882,92.473,92.473,0,0,1,10,.87c1.221.126,2.427.385,3.641.585.341-.28.683-.558,1.026-.838-1.479-3.461-2.815-7-4.557-10.322-.34-.648-2.273-.7-3.44-.614-2.123.162-4.272,1.1-6.324.879-4-.427-6.476-3.624-6.721-7.832-.229-3.919,1.586-6.677,5.694-7.661a20.664,20.664,0,0,1,18.268,4.094c1.463,1.161,1.956,3.76,2.532,5.8,1.285,4.563,2.108,9.266,3.564,13.767,1.168,3.608,2.3,7.027-.584,10.213a9.371,9.371,0,0,1-3.542,2.44c-3.855,1.439-7.722,3.226-11.732,3.764a28.681,28.681,0,0,1-3.793.3A11.451,11.451,0,0,1,528.474,517.116Zm-33.782-.067c-3.746-.3-7.51-.776-10.831-1.193-1.191-.15-2.315-.291-3.387-.418a21.969,21.969,0,0,1-3.783-1.86A26.858,26.858,0,0,1,473.186,511a31.28,31.28,0,0,1-3.147-3.149,33.722,33.722,0,0,1-2.706-3.577,33.166,33.166,0,0,1-2.183-3.859,29.614,29.614,0,0,1-1.578-4,24.132,24.132,0,0,1-.89-3.987,18.392,18.392,0,0,1-.12-3.834,11.467,11.467,0,0,0-.812-4.253l-.069-.216a9.727,9.727,0,0,1-.389-4.42,9.159,9.159,0,0,1,1.508-3.852,9.616,9.616,0,0,1,7.459-4.106,10.668,10.668,0,0,0,5.706-2.114,10.405,10.405,0,0,1,2.267-1.417,5.23,5.23,0,0,1,4.089-.142,8.95,8.95,0,0,1,2.013,1.076c3.032,2.093,6.175,4.132,9.215,6.1,3.886,2.521,7.9,5.128,11.728,7.872a14.219,14.219,0,0,1,4.455,5.261,19.211,19.211,0,0,1,1.85,6.807c.013.14.029.284.045.423h0a5.291,5.291,0,0,1-.009,1.889c-.092.351-.171.737-.255,1.145a14.519,14.519,0,0,1-.47,1.879,2.036,2.036,0,0,1-.839,1.2c-2.86,1.485-4.121,4.277-5.339,6.978a24.159,24.159,0,0,1-2.239,4.206,9.049,9.049,0,0,1-1.585,1.717,7.824,7.824,0,0,1-2.146,1.26c-.236.093-.48.195-.716.294a8.459,8.459,0,0,1-3.075.865C494.866,517.059,494.777,517.055,494.692,517.048ZM476.177,483.2c-.979.35-2.089.746-3.3,1.1a13.512,13.512,0,0,1,1.6,1.464,9.4,9.4,0,0,1,1.119,1.47,7.276,7.276,0,0,1,.688,1.469,6.611,6.611,0,0,1,.311,1.462,7.766,7.766,0,0,1-.3,2.88,14.053,14.053,0,0,1-1.158,2.783,7.631,7.631,0,0,0,.15,7.572,8.535,8.535,0,0,0,7.58,3.973,11.948,11.948,0,0,0,1.391-.083c7-.823,10.809-5.891,14.115-11.011a2.872,2.872,0,0,0-.05-1.939,2.191,2.191,0,0,0-.787-1.321,5.79,5.79,0,0,1-1.531-.946,2.474,2.474,0,0,1-.737-1.092,2.562,2.562,0,0,1,.006-1.446,6.761,6.761,0,0,1,.766-1.709,3.01,3.01,0,0,0,.45-2.769,3.049,3.049,0,0,0-2.423-1.491l-1.352-.241-.008,0a71.119,71.119,0,0,0-11.235-1.4h-.11A16.134,16.134,0,0,0,476.177,483.2Zm-133.3,15.373a3.929,3.929,0,0,1-2.459-6.089A23.773,23.773,0,0,1,345.8,487c1.773-1.32,1.828-2.508,1.622-4.557-.308-3.08.3-6.247.473-9.38.087-1.566.077-3.141.112-4.711l-1.506-.642c-1.665,1.884-3.408,3.706-4.976,5.669-1.614,2.021-2.945,4.27-4.593,6.26-3.554,4.294-8.243,5.473-13.293,3.281-2.693-1.168-3.911-3.265-3-6.305,2.541-8.517,21.213-21.646,30.245-21.362,4.144.13,6.6,2.608,6.815,6.15.316,5.213-.315,10.5-.78,15.732-.336,3.8-1.229,7.553-1.549,11.354-.328,3.873-7.666,10.145-11.821,10.145A3.506,3.506,0,0,1,342.873,498.573ZM425.8,475.132a22.242,22.242,0,0,1-6.021-8.307c-.656-1.672.541-4.823,1.917-6.414,3.105-3.6,7.1-6.418,10.266-9.973,5.717-6.42,15.66-5.516,20.979-1.729.524.373,1.245.791,1.392,1.324,1.487,5.409,3.76,10.825,3.891,16.283.059,2.478-3.849,5.539-6.576,7.429-2.13,1.477-4.356-.209-4.7-2.863a7.987,7.987,0,0,1,.947-4.438c2.97-5.632.651-10.03-5.737-10.236a22.388,22.388,0,0,0-14.451,4.878c-3.171,2.409-3.029,6.033.1,8.558,2.436,1.964,4.9,3.884,7.734,6.12a8.73,8.73,0,0,1-4.622,1.473A7.785,7.785,0,0,1,425.8,475.132Zm-45.648-3.943c-7.471-.826-11.263-8.005-7.084-14.19.979-1.448,3.337-2.281,5.225-2.748,2.234-.554,4.649-.387,6.983-.558,4.3-.315,6.314-4.1,4.569-7.948a8.665,8.665,0,0,1-.234-4.775c1.5-8.676-1.682-12.3-10.706-11.782a26.984,26.984,0,0,0-6.084,1.22c-4.879,1.46-6.157,3.818-4.945,8.749.524,2.128,1.172,4.229,1.594,6.376.624,3.176-.841,5.01-3.983,4.24a13.424,13.424,0,0,1-6.489-3.74c-3.379-3.768-4.075-8.538-3.3-13.457a8.264,8.264,0,0,1,6.021-6.985c7.47-2.172,14.947-4.65,22.606-5.787,13.619-2.021,23.468,10.757,18.526,23.8a5.687,5.687,0,0,1-.927,1.752c-2.244,2.218-1.824,4.519-1,7.287,1.8,6.031-.5,9.778-5.771,13.53-4.115,2.932-8.13,5.127-13.084,5.127A17.436,17.436,0,0,1,380.147,471.189Zm171.822-1.081a20.059,20.059,0,0,1-7.721-1.823c-.574-.242-1.171-.458-1.748-.666-.266-.1-.542-.2-.813-.3-.06.1-.12.206-.18.305l0,0-.1.171c-1.647-.948-3.335-1.891-4.968-2.8-3.708-2.071-7.543-4.212-11.155-6.56a10.526,10.526,0,0,1-1.907-1.6,12.841,12.841,0,0,1-1.561-2.042,15.184,15.184,0,0,1-1.19-2.368,16.817,16.817,0,0,1-1.164-5.258,15.4,15.4,0,0,1,.078-2.663,13.124,13.124,0,0,1,.552-2.535,10.844,10.844,0,0,1,1.051-2.293,7.906,7.906,0,0,0,.865-6.519,16.223,16.223,0,0,1-.3-5.639,10.84,10.84,0,0,1,1.636-4.578,8.486,8.486,0,0,1,2.378-2.407,8.9,8.9,0,0,1,3.3-1.324,12.692,12.692,0,0,1,2.368-.211,14.212,14.212,0,0,1,3.461.421,8.68,8.68,0,0,1,2.94,1.293,41.494,41.494,0,0,0,19.609,7.936,10.9,10.9,0,0,1,3.188.867,8.687,8.687,0,0,1,2.5,1.691,8.515,8.515,0,0,1,1.731,2.43,10.313,10.313,0,0,1,.9,3.084,58.6,58.6,0,0,1,.292,8.619c-.022,1.44-.045,2.928-.012,4.386a6.49,6.49,0,0,0,.512,2.9,7.887,7.887,0,0,1,.977,5.169,9.181,9.181,0,0,1-2.361,4.534,31.2,31.2,0,0,1-6.316,5.718,13.479,13.479,0,0,1-3.257,1.534,11.889,11.889,0,0,1-3.569.531Zm-12.172-40.2a4,4,0,0,0-1.914,1.153,2.827,2.827,0,0,0-1.016,1.743,9.1,9.1,0,0,1-.96,4.723,10.243,10.243,0,0,1-1.294,1.922,15.927,15.927,0,0,1-1.741,1.75c-.772.672-1.515,2.107-1.28,2.823a121.274,121.274,0,0,0,5.013,13.3,9.232,9.232,0,0,0,2.737,2.993c.374.3.7.563.942.805a6.53,6.53,0,0,0,2.111.333c3.113,0,6.85-1.932,9.3-4.807,1.558-1.83,2.277-3.7,2.023-5.278-.124-.767-.252-1.542-.376-2.291-.391-2.359-.795-4.8-1.1-7.211a15.3,15.3,0,0,0-4.027-8.4,10.555,10.555,0,0,0-7.377-3.634A7.142,7.142,0,0,0,539.8,429.909Zm-59.55,29.827a7.526,7.526,0,0,0-3.124-1.486,16.749,16.749,0,0,1-11.4-8.641c-1.443-2.678-4.117-4.69-5.6-7.354-3.993-7.156-3.14-12.5,2.151-18.674,1.661-1.939,2.614-4.481,4.279-6.414a20.4,20.4,0,0,1,5.335-4.4c3.042-1.716,5.93-.981,7.7,2.073a22.566,22.566,0,0,1,2.508,6.489c.748,3.479-1.063,5.761-4.827,6.68-1.668.407-3.351.755-6.263,1.4,5.7,2.9,7.8,6.472,8.54,11.755.315,2.261,4.669,4.736,7.643,5.677,4.3,1.359,8.9,1.256,13-1.734,2.135-1.558,2.45-3.259.754-4.776a43.064,43.064,0,0,0-8.715-6.354c-5.758-2.961-7.327-8.907-3.215-14.04.48-.6,1.049-1.411,1.7-1.546,2.53-.523,5.218-1.359,7.608-.881.784.157.844,3.941,1.373,6.815a16.064,16.064,0,0,1,10.251,7.775c2.677,4.564,2.335,7.643-1.148,11.537a3.407,3.407,0,0,0-.857,2.279c1.028,11.253-4.306,17.527-15.321,17.643l-.4,0C487.89,463.57,483.705,462.816,480.247,459.736ZM304.4,450.219c-5.306-3.779-6.347-11.688-2.761-17.841,4.721-8.1,12.578-10.85,20.918-12.657,7.716-1.673,15.517-2.988,23.326-4.167a25.46,25.46,0,0,1,7.316.482c2.756.4,3.5,2.141,2.11,4.49-3.87,6.518-7.183,13.3-14.358,17.369-3.636,2.064-6.515,5.563-11.089,5.58-1.628.006-3.259-.851-4.888-1.313.7-1.58.978-3.767,2.193-4.622,3.362-2.37,7.151-4.125,10.7-6.24,2.1-1.253,4.074-2.73,6.1-4.105q-.351-.687-.7-1.377c-2.665.234-5.343.373-7.992.721-5.779.76-11.547,1.6-17.31,2.458-9.382,1.4-10.725,4.1-6.364,12.665,2.468-.582,4.919-1.505,7.408-1.613,1.391-.059,3.513.9,4.079,2.012s.063,3.327-.755,4.517a13.643,13.643,0,0,1-11.153,5.7A11.641,11.641,0,0,1,304.4,450.219Zm120.257-10.844a12.3,12.3,0,0,1,.881-7.992c.984-1.765,3.86-2.75,6.092-3.43,2.171-.66,4.61-.365,6.9-.718,4.813-.745,5.215-1.946,3.489-6.435a8.023,8.023,0,0,1,.345-5.775c1.077-2.184.522-3.336-1.031-4.655-3.61-3.063-9.321-2.818-13.558.558a70.23,70.23,0,0,1-7.113,5.325c-2.358,1.432-4.262.494-4.023-2.374.18-2.185.653-5.039,2.106-6.3,7.67-6.669,17-8.819,26.928-8.788a7.37,7.37,0,0,1,2.1.626,12.738,12.738,0,0,1,8.645,11.972c.28,5.61-2.057,10.237-7.36,12.612-2.562,1.146-3.19,2.514-3.046,5.31.1,2.024-.79,5.045-2.275,6.023a67.986,67.986,0,0,1-12.931,6.416,6.406,6.406,0,0,1-2.271.425A3.619,3.619,0,0,1,424.661,439.375Zm-295.74-9.565c-3.682-2.646-7.211-1.983-11.028-1.776-7.607.414-15.165-9.888-11.93-18.206,1.345-1.433,3.316-4.276,5.958-6.2,5.739-4.178,11.855-7.84,17.738-11.829a6.721,6.721,0,0,0,2.573-3.05c2.012-5.978,3.6-6.929,9.683-5.306a19.5,19.5,0,0,1,14.974,18.375,11.1,11.1,0,0,1-.731,4.5c-1.126,2.826-3.962,3.571-5.769,1.215a21.192,21.192,0,0,1-3.614-7.895c-.587-2.506-1.781-3.225-3.7-2.257a34.767,34.767,0,0,0-8.022,5.119c-3.564,3.294-5.391,8.759-11.653,8.481-.424-.018-1.528,2.008-1.276,2.714a13.179,13.179,0,0,0,2.957,4.914c.741.726,2.465.449,3.744.632,1.153.166,2.311.315,3.458.52,2.873.512,5.362,1.823,5.908,4.828.246,1.361-.507,3.953-1.412,4.27a20.546,20.546,0,0,1-5.981,1.421A3.206,3.206,0,0,1,128.921,429.811Zm46.558-5.672a13.839,13.839,0,0,1-5.174-6.4,12.628,12.628,0,0,1-.631-7.382,10.865,10.865,0,0,1,1.348-3.228,12.888,12.888,0,0,1,2.408-2.825,4.176,4.176,0,0,0,1.251-2.775c0-3.105.55-5.26,1.741-6.782s3.087-2.47,5.93-2.941a10.823,10.823,0,0,1,8.027,1.865,10.26,10.26,0,0,1,2.333,2.3,9.639,9.639,0,0,1,1.471,2.973,31.285,31.285,0,0,1,1.333,9.932,36.236,36.236,0,0,1-2.178,10.958,12.137,12.137,0,0,1-1.362,2.936,8.045,8.045,0,0,1-2,2.127,10.96,10.96,0,0,1-6.372,1.827c-.1,0-.192,0-.288,0A14.055,14.055,0,0,1,175.479,424.138Zm7.717-20.713a4.851,4.851,0,0,0-.846,1.3,4.967,4.967,0,0,1-.826,1.28c-3.573,3.568-3.709,5.173-.852,10.106.606-.193,1.21-.373,1.794-.548a36.825,36.825,0,0,0,4.165-1.423,4.012,4.012,0,0,0,1.219-.887,2.012,2.012,0,0,0,.642-1.177,40.437,40.437,0,0,0-.428-7.731,5,5,0,0,0-.733-1.773c-.4-.621-.817-.991-1.143-1.014-.028,0-.058,0-.087,0C185.125,401.555,183.918,402.726,183.2,403.426Zm82.469,14.77c-2.655-2.1-2.632-4.683-2.094-7.267a6.059,6.059,0,0,1,6.109-5.061,82.959,82.959,0,0,1,9.629.817c1.375.143,2.734.44,5.261.861-1-3.3-1.5-5.7-2.448-7.907-2.081-4.868-2.291-4.881-7.244-3.305a8.488,8.488,0,0,1-11.167-6.109c-1.212-5.235,1.418-8.794,7.3-9.621a20.656,20.656,0,0,1,15.489,3.68c1.736,1.278,2.837,3.855,3.515,6.059,1.467,4.76,2.184,9.759,3.756,14.477,1.284,3.854,1.717,7.315-1.007,10.608a5.444,5.444,0,0,1-2,1.686c-2.757,1.058-5.561,2.007-8.384,2.884a26.13,26.13,0,0,1-7.676,1.374A14.049,14.049,0,0,1,265.666,418.2Zm-34.127-.389h-.067a76.5,76.5,0,0,1-10.459-1.024h0c-1.356-.2-2.637-.385-3.852-.527a21.9,21.9,0,0,1-3.778-1.844,26.615,26.615,0,0,1-3.5-2.559,30.873,30.873,0,0,1-3.14-3.135,33.324,33.324,0,0,1-4.883-7.438,29.906,29.906,0,0,1-1.583-4.024,24.918,24.918,0,0,1-.9-4.041,19.531,19.531,0,0,1-.146-3.919,9.219,9.219,0,0,0-.583-3.738,10.868,10.868,0,0,1-.7-4.737,9.1,9.1,0,0,1,.443-2.136,8.6,8.6,0,0,1,2.287-3.542,9.153,9.153,0,0,1,1.771-1.289,10.857,10.857,0,0,1,4.593-1.317,11.3,11.3,0,0,0,5.745-2.255,7.212,7.212,0,0,1,4.378-1.8,5.557,5.557,0,0,1,1.938.363,9.594,9.594,0,0,1,2.09,1.112c2.746,1.87,5.654,3.6,8.466,5.271,2.57,1.528,5.227,3.108,7.755,4.792a37.307,37.307,0,0,1,3.679,2.765,24.841,24.841,0,0,1,3.147,3.211,19.493,19.493,0,0,1,2.417,3.787,18.563,18.563,0,0,1,1.488,4.493,14.067,14.067,0,0,1,.273,3.318,10.444,10.444,0,0,1-.567,2.99,10.306,10.306,0,0,1-1.434,2.691,13.646,13.646,0,0,1-2.33,2.42,9.848,9.848,0,0,0-2.947,4.45,11.609,11.609,0,0,1-3.464,5.442,9.238,9.238,0,0,1-2.757,1.629,9.6,9.6,0,0,1-3.377.594ZM212.2,384.219c-.709.351-1.514.748-2.41,1.11a12.667,12.667,0,0,1,1.574,1.462,8.469,8.469,0,0,1,1.057,1.449,6.257,6.257,0,0,1,.843,2.86,12.666,12.666,0,0,1-1.44,5.558,7.961,7.961,0,0,0,.315,7.768,8.863,8.863,0,0,0,7.559,3.765h0a11.131,11.131,0,0,0,1.7-.133c6.3-.977,10.033-5.11,13.7-11.013a2.357,2.357,0,0,0-.034-1.643A3.159,3.159,0,0,0,234,393.6a3.542,3.542,0,0,1-1.978-1.94,2.618,2.618,0,0,1,.015-1.458,7.453,7.453,0,0,1,.714-1.667,3.123,3.123,0,0,0,.367-2.907,2.881,2.881,0,0,0-2.373-1.332c-4.745-.6-9.835-1.169-14.914-1.3h-.082A8.568,8.568,0,0,0,212.2,384.219Zm177.317,22.993c1.228-2.446-.139-3.31-1.929-3.319a26.6,26.6,0,0,0-6.816,1.128c-2.242.592-2.935-.334-2.755-2.288.27-2.957,1.583-5.432,4.794-5.641,3.8-.248,7.638.111,11.46.207,0,.237,0,.473,0,.709.823.379,1.671.71,2.461,1.141,3.952,2.162,7.383,6.7,5.841,8.092a22.6,22.6,0,0,1-9.435,5.047,5.713,5.713,0,0,1-1.337.171C389.123,412.458,388.06,410.108,389.514,407.213Zm99.556,4.651a12.609,12.609,0,0,1-3.348-.44,11.964,11.964,0,0,1-2.966-1.274,14,14,0,0,1-2.606-2.037,18.854,18.854,0,0,1-2.267-2.728A12.985,12.985,0,0,1,475.5,399.1a11.492,11.492,0,0,1,.2-3.281,13.789,13.789,0,0,1,1.168-3.342,4.757,4.757,0,0,1,1.655-2.1c2.068-1.092,2.4-2.578,2.316-5.111a8.564,8.564,0,0,1,.447-3.166,6.835,6.835,0,0,1,1.521-2.469,8.207,8.207,0,0,1,2.5-1.741,12.785,12.785,0,0,1,3.385-.982,9.956,9.956,0,0,1,1.527-.117,10.551,10.551,0,0,1,3.184.5,10.952,10.952,0,0,1,2.873,1.4,10.245,10.245,0,0,1,2.3,2.145,8.978,8.978,0,0,1,1.478,2.748,30.3,30.3,0,0,1,1.55,10.027,37.214,37.214,0,0,1-1.954,10.943,9.411,9.411,0,0,1-.95,2.415,8.9,8.9,0,0,1-1.66,2.114,9.381,9.381,0,0,1-2.409,1.629,11.7,11.7,0,0,1-3.2.961,15.329,15.329,0,0,1-2.36.19Zm1.553-24.462a13.946,13.946,0,0,0-1.438,1.154l-.375.329,0,0a11.8,11.8,0,0,0-3.062,3.453,10.522,10.522,0,0,0-.731,5.034,7.857,7.857,0,0,0,.968,2.731c.26.539.555,1.15.847,1.852.918-.545,1.866-1.011,2.783-1.461,1.993-.978,3.876-1.9,4.855-3.4a4.272,4.272,0,0,0,.477-2.622,24.62,24.62,0,0,0-.513-3.236c-.115-.565-.223-1.1-.308-1.612a5.215,5.215,0,0,0-.718-1.77c-.389-.618-.8-.994-1.139-1.032a1.3,1.3,0,0,0-.141-.008A2.843,2.843,0,0,0,490.623,387.4ZM297.573,399.175c-2.895-6.376-1.775-12.213,2.637-15.844,4.676-3.849,11.8-3.963,17.286-.276a1.954,1.954,0,0,1,.612.464c1.352,2.162,2.679,4.337,4.014,6.51-2.2.681-4.392,1.384-6.6,2.039-1.864.551-4.629.469-5.427,1.693-1.525,2.338-.169,4.83,1.776,6.879a8.427,8.427,0,0,1,2.311,3.888c.294,1.61.259,3.776-.627,4.94-.468.614-1.758.6-2.822.589a9.473,9.473,0,0,0-1.092.024C304.248,407.179,299.859,404.212,297.573,399.175Zm277.83,6.754c-3.543-.979-6.863-4.93-6.626-8.759.225-3.641,3.181-6.377,7.552-6.25,4.215.121,8.413.871,13.6,1.455-.975-3.172-1.553-5.669-2.508-8.013-1.3-3.19-2.609-5.5-7.106-3.1-4.673,2.487-9.758-.656-11.115-5.808-1.3-4.932,1.278-8.708,6.82-9.626a20.874,20.874,0,0,1,16.542,4.059c1.665,1.281,2.372,4.08,3.035,6.328,1.267,4.283,1.835,8.794,3.35,12.973,1.465,4.037,2.26,7.7-.676,11.315-.405.5-.713,1.353-1.2,1.461-5.819,1.3-11.249,4.557-17.336,4.556A16.155,16.155,0,0,1,575.4,405.929Zm-227.61-1.385c-4.524-1.622-6.815-5.249-8.319-9.323a99.516,99.516,0,0,1-3.422-11.929c-1.272-5.456-4.769-8.506-10.006-9.53-3.4-.665-3.975-2.326-2.713-5.209a23.2,23.2,0,0,1,14.251-13.334,10.22,10.22,0,0,1,5.662-.022c4.492,1.256,5.305,3.855,2.753,7.651-5.844,8.693-5.895,8.743,1.466,16.212,2.811,2.853,2.618,6.242,2.53,9.765-.081,3.235,1.158,5.962,4.318,7.146,3.341,1.249,6.116-.314,8.3-2.732,2.143-2.377,1.649-4.648-.226-7.291a44.8,44.8,0,0,1-6.017-11.073c-.606-1.759.52-5.418,1.977-6.249,1.736-.991,5.264-.717,6.976.491a21.594,21.594,0,0,1,9,15.266,10.911,10.911,0,0,1-.824,6.034c-4.333,8.495-11.32,13.573-20.807,14.868a4.622,4.622,0,0,1-.626.041A27.881,27.881,0,0,1,347.792,404.544Zm188.538-1a15.106,15.106,0,0,1-4.412-.7,23.925,23.925,0,0,0-6.611-.742c-.71-.009-1.324-.018-1.834-.057a27.13,27.13,0,0,1-7.572-4.688,31.205,31.205,0,0,1-3.171-3.176,32.377,32.377,0,0,1-2.681-3.572,31.647,31.647,0,0,1-2.13-3.849,29.053,29.053,0,0,1-1.52-4.008,25.158,25.158,0,0,1-.848-4.048,20.915,20.915,0,0,1-.117-3.969,8.356,8.356,0,0,0-.685-3.338,10.787,10.787,0,0,1-.729-4.813,9.052,9.052,0,0,1,.459-2.167,8.586,8.586,0,0,1,2.37-3.577,9.159,9.159,0,0,1,1.833-1.282,10.851,10.851,0,0,1,4.732-1.22,9.4,9.4,0,0,0,5.362-2.13,6.964,6.964,0,0,1,4.5-1.994,5.6,5.6,0,0,1,1.882.34,9.4,9.4,0,0,1,2.023,1.033c2.214,1.449,4.541,2.809,6.793,4.124,3.048,1.78,6.2,3.62,9.1,5.7a32.9,32.9,0,0,1,8.945,8.993c1.435,2.317,1.814,5.34,2.18,8.264.086.686.175,1.4.276,2.075a4.421,4.421,0,0,1-.289,1.991,2.642,2.642,0,0,1-1.044,1.475c-2.961,1.454-4.218,4.253-5.434,6.96a25.426,25.426,0,0,1-2.031,3.9,9.6,9.6,0,0,1-1.4,1.652,7.889,7.889,0,0,1-1.863,1.294,13.338,13.338,0,0,1-6.083,1.519Zm-17.559-33.715c-.89.354-1.811.72-2.845,1.057a10.283,10.283,0,0,1,2.57,2.971,6.649,6.649,0,0,1,.822,2.911,9.633,9.633,0,0,1-.343,2.869c-.244.951-.59,1.913-.924,2.844-.131.365-.267.742-.395,1.114a7.443,7.443,0,0,0,6.826,10.168c.237.015.481.022.725.022h0c6.6,0,14.3-5.271,16.15-11.058a3.4,3.4,0,0,0-.2-1.956,2.784,2.784,0,0,0-1.054-1.53,5.231,5.231,0,0,1-1.342-.893,2.228,2.228,0,0,1-.626-.987,2.294,2.294,0,0,1,.036-1.29,6.148,6.148,0,0,1,.7-1.487,3.277,3.277,0,0,0,.562-3.074,3.487,3.487,0,0,0-2.845-1.628,90.022,90.022,0,0,0-13.1-1.33h-.038A13.251,13.251,0,0,0,518.771,369.829ZM77.35,397.388a5.22,5.22,0,0,1,.03-4.793c1.249-2,3.539-3.329,5.04-5.214.873-1.1,1.709-2.865,1.443-4.092-.733-3.382-.962-6.489.6-9.762.6-1.257.031-3.063,0-4.62l-1.249-.533c-1.72,1.935-3.518,3.809-5.142,5.821-1.7,2.1-3.072,4.471-4.863,6.482a10.809,10.809,0,0,1-13.071,2.754c-2.68-1.26-3.668-3.412-2.731-6.391C60.017,368.71,78.463,355.678,87.276,356c4.129.152,6.414,2.446,7.364,7.041,1.479,7.142-1.025,13.749-2.55,20.5-.2.874-.436,1.74-.606,2.619-.418,2.151-.115,4.91-1.363,6.327a28.847,28.847,0,0,1-8.2,6.1,2.22,2.22,0,0,1-1.016.2A5.143,5.143,0,0,1,77.35,397.388Zm372.9-14c-3.558-1.1-5.411-5.759-4.072-8.856,1.445-3.345,5.019-4.251,9.492-2.306,2.361,1.421,4.7,1.743,6.822-.771,1.97-2.33,4.051-.812,4.631.83.879,2.491,1.8,5.912.7,7.873A11.158,11.158,0,0,1,460.573,385a11.944,11.944,0,0,1-1.719.119A30.3,30.3,0,0,1,450.248,383.39Zm-39.214-2.217a17.061,17.061,0,0,1-8.648-8.887,5.655,5.655,0,0,1,2.136-7.516c2.673-1.851,5-1.114,7.228,1.167,6.1,6.26,6.149,6.214,13.57,1.55,4.821-3.031,7.929-2.782,9.43.915.373.921.439,2.7-.11,3.153-5.057,4.185-9.842,9.012-16.764,9.9a12.225,12.225,0,0,1-1.57.094C414.566,381.554,412.787,381.262,411.034,381.173Zm-249.693-6.049c-3.134-2.658-5.526-5.914-4.948-10.287.159-1.2,1.362-2.388,2.328-3.339,3.005-2.956,6.284-5.647,9.168-8.712,5.54-5.888,12.89-7.366,20.032-3.737,4.08,2.073,5.521,4.956,5.187,9.617a6.876,6.876,0,0,0,1.14,3.451c2.314,4.168-1.555,12.334-6.27,12.923-2.4.3-4.063-.825-4.307-3.312a5.939,5.939,0,0,1,.592-3.337c1.473-2.582,3.525-4.993.979-8.009a8.507,8.507,0,0,0-9.127-2.649,46.867,46.867,0,0,0-11.31,4.573c-3.409,1.985-3.22,5.83-.119,8.32,2.433,1.956,4.934,3.83,8.233,6.379a13.037,13.037,0,0,1-4.7.981A10.326,10.326,0,0,1,161.341,375.124ZM117.2,372.5c-7.178-.894-10.878-8.119-7.09-14.252a4.788,4.788,0,0,1,2.657-2.012,43.981,43.981,0,0,1,8.431-1.3,7.017,7.017,0,0,0,5.86-2.876c1.966-2.372.885-3.647-.086-5.725-.672-1.436-.254-3.505.024-5.235,1.208-7.546-1.34-10.8-8.985-11.06a20.683,20.683,0,0,0-5.411.538c-7.654,1.817-8.884,3.98-6.844,11.578a11.71,11.71,0,0,1,.657,3.041c-.019,1.711.182,4.541-.609,4.894a8.31,8.31,0,0,1-5.86.041c-4.815-1.881-7.708-8.491-7.164-15.267.391-4.881,2.879-7.787,8.54-9.328,6.769-1.844,13.564-3.661,20.445-5,2.808-.549,5.868.178,8.812.325,9.983,4.449,14.014,17.612,8.16,26.771a6.724,6.724,0,0,0-.663,4.79c1.828,6.978-.026,10.932-5.811,15.158-4.052,2.96-8.043,5.054-12.886,5.054A17.577,17.577,0,0,1,117.2,372.5Zm171.98-1.051a19.612,19.612,0,0,1-7.422-1.713c-.66-.272-1.343-.519-2-.759-.3-.11-.62-.224-.929-.34-.082.138-.166.279-.247.416l-.018.03c-1.618-.927-3.279-1.847-4.885-2.737h0c-3.642-2.017-7.407-4.1-10.935-6.418a12.253,12.253,0,0,1-3.6-3.692,15.085,15.085,0,0,1-1.99-4.861,16.814,16.814,0,0,1-.318-5.346,15.5,15.5,0,0,1,1.412-5.145,13,13,0,0,0,.858-4.894c.019-.381.038-.776.064-1.156a25.765,25.765,0,0,0-.012-2.768,16.543,16.543,0,0,1,.174-4.1,11.3,11.3,0,0,1,1.312-3.382,10.287,10.287,0,0,1,2.167-2.592,9.461,9.461,0,0,1,2.779-1.66,8.751,8.751,0,0,1,5.833-.163,9.829,9.829,0,0,1,2.636,1.32,49.471,49.471,0,0,0,21.741,8.882,7.421,7.421,0,0,1,6.632,6.328,91.189,91.189,0,0,1,.71,9.71c.053,1.43.108,2.908.193,4.358.016.282.011.584.005.876a3.947,3.947,0,0,0,.3,2.046,7.648,7.648,0,0,1,1.108,5.579,9.916,9.916,0,0,1-2.66,4.756c-1.177,1.253-2.208,2.27-3.152,3.109a22.468,22.468,0,0,1-3.077,2.337,13.469,13.469,0,0,1-3.188,1.471,11.793,11.793,0,0,1-3.488.512h0ZM278.1,330.974c-2.4,0-3.757,1.484-4.264,4.669a13.035,13.035,0,0,1-2.154,4.612c-.354.561-.721,1.142-1.041,1.715a7.982,7.982,0,0,1-.909,1.2c-.576.67-1.12,1.3-1.018,1.845,1.066,5.669,2.273,12.094,7.63,16.474a7.57,7.57,0,0,0,4.722,1.806,5.129,5.129,0,0,0,3.542-1.331,22.429,22.429,0,0,0,5.955-9.7c.537-1.863.009-4.062-.5-6.189-.227-.944-.461-1.92-.6-2.853-.72-4.849-3.434-8.735-8.066-11.548a9.9,9.9,0,0,0-3.3-.692h0Zm104.252,33.932a98.653,98.653,0,0,1-12.137-5.189c-4.406-2.3-5.661-5.567-4.021-8.814,1.63-3.227,4.281-3.873,8.975-2.212.211.075.494-.053,1.017-.124-.153-.854-.607-1.781-.394-2.511.609-2.084.965-5.177,2.387-5.863,2.079-1,5.54-1.192,7.467-.08,6.118,3.527,7.508,10.061,4.423,16.385a26.875,26.875,0,0,0-1.269,4.862c-.757,2.834-1.759,4.147-3.689,4.147A8.353,8.353,0,0,1,382.356,364.907ZM217.28,360.9a3.3,3.3,0,0,0-1.3-.81c-7.758-1-11.594-7.027-15.994-12.371a20.972,20.972,0,0,1-5.044-13.139,11.891,11.891,0,0,1,1.436-6.279,85.569,85.569,0,0,1,8.295-11.053c2.408-2.722,5.418-5.089,9.5-3.55,2.586.975,5.533,7.57,5.047,10.764a5.226,5.226,0,0,1-4.435,4.728c-1.828.375-3.653.781-6.7,1.435,5.726,2.875,7.656,6.577,8.649,11.723.47,2.44,4.814,4.964,7.869,5.872a13.782,13.782,0,0,0,12.232-1.661c2.7-1.893,2.728-3.746.568-5.586a40.091,40.091,0,0,0-8.217-5.677c-2.779-1.348-5.554-2.094-5.322-6.028.233-3.979.528-8.1,4.572-9.947a10.837,10.837,0,0,1,7.156-.313c.822.255.667,3.687.957,5.671l-.972.56c1.275.48,2.573.91,3.821,1.452a14.362,14.362,0,0,1,8.981,11.325c.3,1.936-.8,4.528-2.1,6.139-1.175,1.457-1.789,2.331-1.238,4.261a11.539,11.539,0,0,1-6.242,13.934,23.5,23.5,0,0,1-10.168,2.568A18.44,18.44,0,0,1,217.28,360.9Zm344.284.318c-2.807-2.451-5.633-2.081-8.7-1.833-5.483.443-11.23-3.135-13.89-8.654-2.061-4.279-1.439-8.987,3.263-12.965,5.809-4.916,12.284-9.06,18.637-13.29,2.445-1.626,4.631-2.955,5.177-6.261.514-3.113,3.088-4.667,6.058-4.375,11.618,1.139,18.687,11.034,18,21.543a6.252,6.252,0,0,1-3.357,4.528c-1.1.4-3.7-1.232-4.52-2.621-1.472-2.5-2.109-5.492-3.326-8.932a14.015,14.015,0,0,0-10.266,5.053c-1.97,2.24-3.812,4.607-5.917,6.71a6.494,6.494,0,0,1-3.618,1.952c-2.314.2-4.18.334-3.9,3.386.252,2.8,1.446,4.673,4.415,5.047,2.058.258,4.12.507,6.165.844,2.92.483,5.318,1.961,5.767,4.986a5.586,5.586,0,0,1-1.7,4.354,7.555,7.555,0,0,1-4.74,1.85A5.306,5.306,0,0,1,561.564,361.215Zm-99.172-9.069a7.591,7.591,0,0,1,1.991-5.067c3.322-3.571,7.069-6.738,10.545-10.17a16.126,16.126,0,0,1,20.879-1.566c2.626,1.978,4.107,4.461,3.537,8.046a7.78,7.78,0,0,0,1.126,4.237c2.016,4.015-1.908,12.054-6.341,12.762a3.8,3.8,0,0,1-4.457-4.081,6.146,6.146,0,0,1,.8-2.952c1.491-2.345,3.142-4.562,1.114-7.42a7.805,7.805,0,0,0-8.568-3.123A44.127,44.127,0,0,0,471.536,347c-4.341,2.437-4.209,6.151-.288,9.314q3.455,2.789,6.906,5.582a11.867,11.867,0,0,1-3.838.639C468.228,362.535,462.809,357.847,462.391,352.146Zm150.752,4.977a14.382,14.382,0,0,1-6.812-4.707,13.634,13.634,0,0,1-2.1-3.676,12.144,12.144,0,0,1-.732-7.231,12.522,12.522,0,0,1,3.878-6.143,4.466,4.466,0,0,0,1.169-2.893,15.612,15.612,0,0,1,.469-3.908,7.6,7.6,0,0,1,1.382-2.836,6.8,6.8,0,0,1,2.405-1.875,12.345,12.345,0,0,1,3.537-1.024,9.971,9.971,0,0,1,1.51-.114,11.317,11.317,0,0,1,6.318,1.988,10.287,10.287,0,0,1,2.37,2.225,8.342,8.342,0,0,1,1.431,2.816,34.89,34.89,0,0,1,1.408,10.048,31.155,31.155,0,0,1-.526,5.247,35.29,35.29,0,0,1-1.516,5.514,13.428,13.428,0,0,1-1.4,3.07,8.482,8.482,0,0,1-1.981,2.213,10.382,10.382,0,0,1-6.144,1.934c-.173.007-.349.01-.523.01A13.557,13.557,0,0,1,613.143,357.122Zm6.122-23.563c-1.036.838-2.108,1.7-3.138,2.585a2.737,2.737,0,0,0-.482.612,2.9,2.9,0,0,1-.457.591c-1.768,1.6-2.59,2.952-2.663,4.4s.6,3.064,2.183,5.23l.082-.02c3.627-.857,5.447-1.288,6.368-2.387a4.09,4.09,0,0,0,.8-2.284,36.836,36.836,0,0,0,.08-4.1,12.076,12.076,0,0,0-.953-3.856c-.212-.579-.43-1.178-.6-1.767C620.083,332.9,619.668,333.234,619.266,333.559ZM423.388,357.721c-5.671-.468-9.427-4.367-9.1-9.52.3-4.8,2.264-6.978,7.1-7.618,2.187-.29,4.418-.237,6.621-.42,4.335-.361,6.142-4.022,4.683-7.97-.772-2.089-.31-4.725-.022-7.068.7-5.639-1.367-8.889-7.128-9.2a38.9,38.9,0,0,0-11.436,1.532c-3.423.868-4.52,3.628-3.75,7.011.6,2.637,1.3,5.252,1.88,7.893.631,2.887-.743,4.113-3.589,3.972a9.373,9.373,0,0,1-1.928-.24c-4.669-1.226-8.28-6.821-8.508-13.135-.223-6.177,1.807-9.715,7.227-11.335,6.726-2.01,13.522-3.892,20.405-5.256,3.311-.654,6.89.007,10.347.071,9.947,4.442,13.9,17.633,7.921,26.709a5.871,5.871,0,0,0-.663,4.311c2.05,7.255.339,10.948-5.75,15.323-4.031,2.9-8.006,5.006-12.877,5.006Q424.118,357.781,423.388,357.721ZM41.12,351.386c-5.513-4.1-6.361-11.779-2.445-18.141,3.039-4.94,7.291-8.452,12.656-9.781,10.72-2.654,21.589-4.8,32.489-6.608,2.788-.464,5.92,1.115,8.894,1.755a77.444,77.444,0,0,1-2.738,7.346c-3.833,7.874-10.543,12.973-17.823,17.288-2.086,1.237-4.916,1.536-7.434,1.658-2.9.141-3.849-1.789-2.2-4.058a18.014,18.014,0,0,1,5.128-4.525c3.2-1.965,6.678-3.487,9.965-5.327a24.777,24.777,0,0,0,3.228-2.561q-.221-.648-.443-1.295c-2.1.2-4.214.338-6.309.607-6.716.86-13.451,1.614-20.133,2.692-8.809,1.422-10.083,4.586-5.365,12.526,2.378-.58,4.736-1.552,7.111-1.59a5.779,5.779,0,0,1,4.392,2.189c.589.974-.074,3.3-.945,4.448a14.013,14.013,0,0,1-11.068,5.609A11.592,11.592,0,0,1,41.12,351.386Zm657.924-1.869c-2.58-2.337-2.851-4.879-2.2-7.647a6.157,6.157,0,0,1,6.279-4.882,92.505,92.505,0,0,1,10,.87c1.221.126,2.428.385,3.64.585l1.027-.838c-1.479-3.462-2.816-7-4.557-10.322-.34-.649-2.273-.7-3.44-.614-2.123.161-4.272,1.1-6.324.879-4-.427-6.476-3.624-6.721-7.832-.229-3.92,1.586-6.677,5.694-7.661a20.661,20.661,0,0,1,18.268,4.094c1.463,1.161,1.956,3.759,2.532,5.8,1.285,4.563,2.108,9.266,3.564,13.767,1.168,3.608,2.3,7.027-.584,10.213a9.381,9.381,0,0,1-3.542,2.44c-3.856,1.439-7.722,3.227-11.732,3.764a28.686,28.686,0,0,1-3.792.3A11.451,11.451,0,0,1,699.044,349.517Zm-33.519-.651c-.089,0-.177,0-.262-.01-3.744-.3-7.507-.776-10.827-1.193-1.192-.15-2.318-.291-3.392-.419a21.957,21.957,0,0,1-3.782-1.86,26.857,26.857,0,0,1-3.506-2.577,31.246,31.246,0,0,1-3.147-3.149,33.721,33.721,0,0,1-2.706-3.577,33.131,33.131,0,0,1-2.183-3.859,29.592,29.592,0,0,1-1.578-4,24.112,24.112,0,0,1-.89-3.987,18.366,18.366,0,0,1-.119-3.834,11.513,11.513,0,0,0-.817-4.267l-.065-.2a9.73,9.73,0,0,1-.388-4.42,9.164,9.164,0,0,1,1.509-3.853,9.616,9.616,0,0,1,7.458-4.106,10.668,10.668,0,0,0,5.706-2.114,10.425,10.425,0,0,1,2.268-1.417,5.23,5.23,0,0,1,4.089-.142,8.966,8.966,0,0,1,2.013,1.076c3.033,2.094,6.179,4.135,9.22,6.108,3.884,2.52,7.9,5.125,11.723,7.869A14.219,14.219,0,0,1,680.3,320.2a19.194,19.194,0,0,1,1.849,6.807c.013.14.029.285.045.424a5.29,5.29,0,0,1-.009,1.889c-.092.351-.171.736-.255,1.145a14.525,14.525,0,0,1-.47,1.879,2.037,2.037,0,0,1-.839,1.2c-2.86,1.485-4.121,4.278-5.339,6.979a24.143,24.143,0,0,1-2.239,4.207,9.054,9.054,0,0,1-1.585,1.717,7.821,7.821,0,0,1-2.146,1.26c-.235.093-.48.195-.716.293a8.459,8.459,0,0,1-3.074.866Zm-18.779-33.858c-.979.35-2.088.746-3.3,1.1a13.526,13.526,0,0,1,1.6,1.464,9.387,9.387,0,0,1,1.119,1.47,7.28,7.28,0,0,1,.688,1.469,6.611,6.611,0,0,1,.31,1.462,7.765,7.765,0,0,1-.3,2.88,14.074,14.074,0,0,1-1.158,2.783,7.632,7.632,0,0,0,.149,7.573,8.534,8.534,0,0,0,7.579,3.973,11.952,11.952,0,0,0,1.391-.083c7-.823,10.81-5.891,14.116-11.011a2.875,2.875,0,0,0-.051-1.94,2.19,2.19,0,0,0-.786-1.319,5.793,5.793,0,0,1-1.531-.946,2.472,2.472,0,0,1-.737-1.093c-.261-.827-.015-1.83.773-3.155a3.009,3.009,0,0,0,.45-2.77,3.049,3.049,0,0,0-2.424-1.49l-1.363-.243h-.006a70.889,70.889,0,0,0-11.225-1.4h-.11A16.132,16.132,0,0,0,646.746,315.008ZM326.313,348.862a34.193,34.193,0,0,1-9.739-1.758,7.188,7.188,0,0,1-4.043-9.233c1.46-3.114,5.093-4,9.092-2.1,2.438,1.6,4.705,1.61,7.044-.819.574-.6,2.868-.386,3.7.292,2.63,2.15,2.636,5.3,1.574,8.162a7.764,7.764,0,0,1-7.365,5.46C326.488,348.866,326.4,348.865,326.313,348.862ZM161,339.4c-1.122-3.163.206-7.689,3.236-9.173,2.254-1.1,4.923-1.425,7.441-1.924,1.778-.352,3.666-.215,5.415-.652,3.582-.894,3.707-2.017,2.412-5.489a9.317,9.317,0,0,1,.043-6.419c.883-2.016.621-3.051-.815-4.327-3.533-3.141-9.085-3.259-13.346-.161-2.416,1.758-4.631,3.822-7.166,5.38-3.3,2.031-5.229,1.065-4.84-2.643.244-2.318,1.36-5.264,3.112-6.578,7.519-5.636,16.331-7.812,25.685-7.881a9.149,9.149,0,0,1,2.522.585c5.817,2.249,8.62,6.378,9,11.765s-1.708,10.084-6.864,12.53c-2.882,1.368-4.191,2.759-3.6,6.155.278,1.584-.642,4.242-1.907,5.065a70.425,70.425,0,0,1-12.908,6.749,7.647,7.647,0,0,1-2.709.537A4.77,4.77,0,0,1,161,339.4Zm186.376-2.246c-5.406-3.229-7.265-11.457-4.1-17.318,4.272-7.917,11.516-11.358,19.681-13.2,7.819-1.766,15.713-3.246,23.627-4.519a31.267,31.267,0,0,1,8.466.26c3.173.372,3.958,2.353,2.292,4.975-2.847,4.48-5.225,9.569-9.023,13.055-4.676,4.294-9.445,9.335-16.57,9.637-1.405.059-2.845-.659-4.267-1.018.535-1.616.585-3.909,1.7-4.719,3.327-2.417,7.1-4.2,10.64-6.333,2.222-1.344,4.325-2.887,6.48-4.341q-.322-.715-.645-1.426c-2.133.234-4.272.43-6.4.707-6.415.834-12.852,1.544-19.232,2.587-9.361,1.532-10.585,4.285-6.1,12.729,2.624-.627,5.189-1.584,7.813-1.778,3.661-.271,5.281,2.873,3.4,6.1-2.28,3.918-7.029,6.216-11.63,6.216A11.941,11.941,0,0,1,347.38,337.158Zm166.063-6.777a3.929,3.929,0,0,1-2.459-6.089,23.8,23.8,0,0,1,5.386-5.483c1.773-1.318,1.828-2.507,1.622-4.556-.308-3.08.3-6.247.472-9.38.087-1.566.078-3.141.111-4.711l-1.505-.642c-1.665,1.884-3.408,3.706-4.976,5.669-1.614,2.021-2.945,4.27-4.593,6.26-3.554,4.294-8.243,5.473-13.293,3.281-2.693-1.168-3.911-3.265-3-6.305,2.541-8.518,21.213-21.646,30.246-21.362,4.144.131,6.6,2.609,6.814,6.15.316,5.213-.314,10.5-.779,15.732-.336,3.8-1.229,7.553-1.549,11.354-.327,3.873-7.667,10.145-11.822,10.145A3.5,3.5,0,0,1,513.444,330.381ZM298.8,320.925c-4.767-3.086-8.616-6.4-10.147-12.086-1.95-7.249,3.365-13.423,10.657-11.823,1.707.376,3.345,2.26,4.467,3.841,1.33,1.873,2.055,4.177,3.064,6.284,1.859,3.876,6.129,4.352,9.077,1.311a8.746,8.746,0,0,1,4.37-1.982c8.64-1.809,10.866-6.105,7.091-14.3a26.732,26.732,0,0,0-3.354-5.2c-3.137-3.995-5.8-4.312-9.962-1.365-1.795,1.273-3.519,2.651-5.368,3.835-2.735,1.753-4.979,1.069-5.407-2.135a13.44,13.44,0,0,1,1.126-7.412c2.284-4.532,6.48-6.939,11.351-8.037a8.24,8.24,0,0,1,8.709,3.016c4.747,6.14,9.782,12.173,13.633,18.871,6.845,11.909-1.487,25.779-15.453,26-.124-.011-.279-.01-.454-.008a3.743,3.743,0,0,1-1.517-.206c-2.886-1.267-4.879-.027-7.16,1.765a10.615,10.615,0,0,1-6.655,2.612C304.314,323.9,301.712,322.812,298.8,320.925Zm173.432,1.717a110.069,110.069,0,0,1-13.517-5.779c-4.907-2.565-6.3-6.2-4.479-9.816,1.817-3.595,4.768-4.313,10-2.464.235.084.55-.059,1.133-.138-.171-.951-.676-1.984-.439-2.8.677-2.32,1.073-5.765,2.658-6.529,2.315-1.117,6.169-1.326,8.315-.089,6.813,3.928,8.361,11.2,4.925,18.248-.8,1.642-.929,3.609-1.412,5.414-.844,3.156-1.96,4.619-4.109,4.619A9.3,9.3,0,0,1,472.231,322.642Zm-469.65-2.77C-.261,317.484-.355,314.725.407,311.9a6.288,6.288,0,0,1,6.463-4.68c3.209.031,6.415.561,9.619.912,1.229.135,2.446.375,4.564.71-.721-2.908-1.035-4.958-1.74-6.863-2.005-5.418-2.619-5.673-8.164-4.157A8.411,8.411,0,0,1,.431,291.5c-1.054-4.769,1.542-8.636,6.758-9.472A20.642,20.642,0,0,1,23.7,286c1.673,1.318,2.477,4.05,3.146,6.3,1.311,4.417,1.913,9.063,3.438,13.392,1.434,4.07,2.109,7.748-.884,11.3-.488.579-.993,1.348-1.641,1.557-4.4,1.418-8.759,3.227-13.281,3.885a25.051,25.051,0,0,1-3.595.291A12.337,12.337,0,0,1,2.581,319.872Zm215.663-9.333a14.086,14.086,0,0,1-5.194-6.655,14.912,14.912,0,0,1-.84-3.764,10.7,10.7,0,0,1,.258-3.419,10.231,10.231,0,0,1,1.336-3.079,13.277,13.277,0,0,1,2.394-2.746,4.254,4.254,0,0,0,1.242-2.835,17.239,17.239,0,0,1,.463-4.007,7.652,7.652,0,0,1,1.337-2.859c1.189-1.526,3.05-2.445,5.858-2.892a11.334,11.334,0,0,1,1.771-.141,10.96,10.96,0,0,1,3.33.515,10.633,10.633,0,0,1,2.93,1.458,10.179,10.179,0,0,1,2.316,2.27,9.878,9.878,0,0,1,1.487,2.951,31.52,31.52,0,0,1,1.108,4.98,30.56,30.56,0,0,1,.272,4.957,32.24,32.24,0,0,1-.52,4.936,36.539,36.539,0,0,1-1.27,4.917,17.494,17.494,0,0,1-1.672,3.585,9.9,9.9,0,0,1-2.174,2.5,8.424,8.424,0,0,1-2.767,1.475,11.975,11.975,0,0,1-3.452.525l-.224,0A14.055,14.055,0,0,1,218.244,310.539Zm7.811-20.813a38.169,38.169,0,0,0-3.018,3.5c-.5.631-1.077,1.346-1.718,2.12l.171.85c.34,1.685.8,3.993,1.348,6.69.888-.3,1.71-.561,2.435-.792a39.014,39.014,0,0,0,4.277-1.534c.808-.367,1.794-1.385,1.807-2.1a45.239,45.239,0,0,0-.553-7.687c-.157-1.012-1.062-2.623-1.606-2.623h0A5.156,5.156,0,0,0,226.055,289.725Zm-99.8,18.527c1.645-3.283-.312-3.876-2.578-3.738a63.419,63.419,0,0,0-8.095,1.517c-.96-5.484.434-7.9,5.016-8.6a19.023,19.023,0,0,1,16.161,4.661c4.258,3.784,3.824,7.11-1.239,9.545a15.107,15.107,0,0,1-6.222,1.574h-.045C126.137,313.207,124.855,311.049,126.257,308.252Zm-79.308,2.729c-5.427-2.024-9.833-5.4-12.488-10.6-2.647-5.191-2.452-10.363,1.409-14.923,3.537-4.175,9.669-5.232,16.052-3.627a74.142,74.142,0,0,1,6.747,6.634c1.617,2.018.515,3.767-1.9,4.26-1.763.361-3.655.1-5.422.452-1.521.3-4.022.855-4.192,1.685a10.837,10.837,0,0,0,.9,5.768c.922,2.337,2.91,4.347,3.459,6.721.606,2.619-.413,4.076-2.4,4.076A6.258,6.258,0,0,1,46.949,310.981Zm549.416-4.041a22.273,22.273,0,0,1-6.021-8.307c-.656-1.672.542-4.823,1.917-6.414,3.106-3.6,7.1-6.418,10.268-9.973,5.717-6.42,15.66-5.516,20.978-1.729.524.373,1.246.791,1.393,1.324,1.487,5.409,3.759,10.825,3.89,16.283.059,2.478-3.848,5.539-6.576,7.429-2.129,1.477-4.356-.209-4.7-2.863a8,8,0,0,1,.947-4.438c2.971-5.633.651-10.03-5.737-10.236a22.39,22.39,0,0,0-14.451,4.878c-3.171,2.409-3.028,6.033.1,8.558,2.436,1.964,4.9,3.884,7.733,6.12a8.728,8.728,0,0,1-4.621,1.473A7.788,7.788,0,0,1,596.365,306.939Zm-511.242-1.6c-6.075-2.3-8.069-7.7-9.818-13.214-.823-2.594-1.332-5.29-1.961-7.944-1.236-5.221-4.52-8.459-9.7-9.446-3.794-.724-4.324-2.618-2.886-5.783a23.6,23.6,0,0,1,13.8-12.912,10.373,10.373,0,0,1,5.341-.261c5.136,1.025,6.2,4.059,3.133,8.283-.076.105-.143.217-.221.321-5.952,7.96-6.053,8.069,1.212,14.785,3.313,3.062,3.489,6.741,3.326,10.705-.138,3.362,1.275,6.486,4.42,6.9,2.538.331,5.806-.88,7.926-2.5,2.515-1.918,2.157-4.6-.005-7.478a47.806,47.806,0,0,1-6.141-11.5,6.039,6.039,0,0,1,1.547-5.46,7.44,7.44,0,0,1,6.06-.921c6.77,2.291,12.459,15.378,9.987,22.126-3.013,8.23-13.522,15.031-21.752,15.03A11.938,11.938,0,0,1,85.123,305.344Zm188.184-1.052a13.475,13.475,0,0,1-1.82-.127c-2.989-.409-6-.855-8.657-1.248h-.005q-1.7-.252-3.213-.473a24.471,24.471,0,0,1-7.194-4.468,30.465,30.465,0,0,1-3.07-3.119,32.5,32.5,0,0,1-2.623-3.537,32.168,32.168,0,0,1-2.1-3.824,29.374,29.374,0,0,1-1.512-3.982,24.914,24.914,0,0,1-.849-4.009,20.03,20.03,0,0,1-.114-3.907,8.9,8.9,0,0,0-.782-3.649,9.59,9.59,0,0,1-.617-4.424,8.868,8.868,0,0,1,1.362-3.9,9.048,9.048,0,0,1,1.369-1.657,9.338,9.338,0,0,1,1.756-1.315,9.82,9.82,0,0,1,2.092-.9,10.629,10.629,0,0,1,2.378-.425,10.732,10.732,0,0,0,3.727-1.248,18.4,18.4,0,0,1,2.384-1c.493-.153,1.019-.35,1.577-.558a11.743,11.743,0,0,1,3.588-.963,1.887,1.887,0,0,1,.986.232c4.7,2.794,8.451,5.116,11.817,7.306,4.236,2.757,7.948,5.366,11.348,7.976a10.086,10.086,0,0,1,1.829,1.868,16.824,16.824,0,0,1,1.486,2.35,36.55,36.55,0,0,1,2.174,5.23,9.489,9.489,0,0,1,.031,6.542,11.982,11.982,0,0,1-4.235,5.294,6.364,6.364,0,0,0-2.416,3.1,13.987,13.987,0,0,1-1.538,3.708,10.974,10.974,0,0,1-2.372,2.781A10,10,0,0,1,277,303.686a11.152,11.152,0,0,1-3.694.606Zm-15.2-34.458c-2.145.154-3.177.491-3.563,1.164a2.077,2.077,0,0,0-.038,1.61,15.352,15.352,0,0,0,1.09,2.6,4.951,4.951,0,0,1,.45,1.805,7.548,7.548,0,0,1-.107,1.909,27.681,27.681,0,0,1-1.181,4.026c-.171.49-.348,1-.51,1.5a7.541,7.541,0,0,0,6.561,10.018c.336.032.686.048,1.039.048,6.556,0,14.2-5.283,16.027-11.084a3.136,3.136,0,0,0-.21-1.869,3.065,3.065,0,0,0-1.066-1.532,6.745,6.745,0,0,1-1.338-.989,2.27,2.27,0,0,1-.65-1.087,2.014,2.014,0,0,1,.04-1.009,4.334,4.334,0,0,1,.583-1.207c.83-1.357,1.043-2.538.616-3.416a3.383,3.383,0,0,0-2.861-1.553l-1.447-.172a90.937,90.937,0,0,0-10.675-.852C259.91,269.739,258.982,269.771,258.105,269.833ZM550.718,303.59c-7.472-.826-11.264-8.005-7.085-14.19.979-1.448,3.338-2.281,5.225-2.748,2.235-.554,4.649-.387,6.984-.558,4.3-.315,6.314-4.1,4.569-7.947a8.666,8.666,0,0,1-.235-4.775c1.5-8.676-1.682-12.3-10.706-11.782a27,27,0,0,0-6.083,1.22c-4.878,1.46-6.157,3.818-4.945,8.749.523,2.128,1.172,4.229,1.593,6.376.624,3.176-.841,5.009-3.982,4.24a13.429,13.429,0,0,1-6.49-3.74c-3.378-3.768-4.075-8.539-3.3-13.457a8.264,8.264,0,0,1,6.021-6.985c7.47-2.172,14.947-4.65,22.607-5.787,13.618-2.02,23.467,10.758,18.525,23.8a5.681,5.681,0,0,1-.926,1.752c-2.245,2.216-1.824,4.519-1,7.287,1.8,6.031-.5,9.778-5.772,13.53-4.115,2.932-8.13,5.127-13.084,5.127A17.43,17.43,0,0,1,550.718,303.59Zm171.821-1.081a20.054,20.054,0,0,1-7.72-1.823c-.574-.243-1.171-.458-1.749-.667-.266-.1-.541-.2-.812-.3l-.18.306,0,0-.1.171c-1.644-.946-3.33-1.887-4.959-2.8-3.711-2.072-7.549-4.215-11.164-6.566a10.517,10.517,0,0,1-1.907-1.6,12.861,12.861,0,0,1-1.561-2.042,15.166,15.166,0,0,1-1.19-2.368,16.81,16.81,0,0,1-1.164-5.257,15.381,15.381,0,0,1,.078-2.663,13.14,13.14,0,0,1,.551-2.535,10.849,10.849,0,0,1,1.051-2.294,7.908,7.908,0,0,0,.865-6.519,16.226,16.226,0,0,1-.3-5.639,10.843,10.843,0,0,1,1.636-4.578,8.481,8.481,0,0,1,2.378-2.407,8.892,8.892,0,0,1,3.3-1.324,12.689,12.689,0,0,1,2.369-.212,14.2,14.2,0,0,1,3.459.421,8.679,8.679,0,0,1,2.94,1.293,41.491,41.491,0,0,0,19.609,7.936,10.893,10.893,0,0,1,3.188.867,8.686,8.686,0,0,1,2.5,1.691,8.515,8.515,0,0,1,1.731,2.43,10.31,10.31,0,0,1,.9,3.084,58.615,58.615,0,0,1,.292,8.619c-.022,1.44-.045,2.928-.012,4.386a6.478,6.478,0,0,0,.512,2.9,7.89,7.89,0,0,1,.977,5.17,9.182,9.182,0,0,1-2.361,4.534,31.205,31.205,0,0,1-6.316,5.718,13.486,13.486,0,0,1-3.258,1.533,11.888,11.888,0,0,1-3.569.531Zm-12.172-40.2a4,4,0,0,0-1.914,1.153,2.828,2.828,0,0,0-1.016,1.743,9.1,9.1,0,0,1-.959,4.723,10.244,10.244,0,0,1-1.294,1.922,15.881,15.881,0,0,1-1.741,1.75,4.515,4.515,0,0,0-1.007,1.371,2.1,2.1,0,0,0-.273,1.451,121.218,121.218,0,0,0,5.013,13.3,9.226,9.226,0,0,0,2.737,2.993c.374.3.7.563.942.805a6.53,6.53,0,0,0,2.11.333c3.114,0,6.851-1.932,9.3-4.807,1.558-1.83,2.277-3.7,2.023-5.277-.124-.764-.252-1.54-.376-2.291-.391-2.36-.795-4.8-1.1-7.212a15.3,15.3,0,0,0-4.027-8.4,10.554,10.554,0,0,0-7.377-3.633A7.173,7.173,0,0,0,710.367,262.31ZM356.083,300.131a9.349,9.349,0,0,1-3.445-2.562c-2.614-3.193-5.555-6.279-7.377-9.917s-3.361-7.63-1.475-12.2a7.047,7.047,0,0,1,6.42-4.625,6.126,6.126,0,0,1,6.628,4.359,94.709,94.709,0,0,1,2.48,9.806c.283,1.2.439,2.438.652,3.657l1.121.7c2.747-2.553,5.613-4.995,8.142-7.752.495-.538-.091-2.395-.558-3.475-.849-1.967-2.431-3.7-2.9-5.727-.918-3.945,1.254-7.361,5.1-8.986,3.586-1.514,6.759-.7,9.031,2.882a21.142,21.142,0,0,1,2.188,18.736c-.6,1.776-2.869,3.106-4.587,4.329-3.838,2.733-7.962,5.071-11.687,7.948-2.251,1.737-4.41,3.418-7.016,3.417A6.82,6.82,0,0,1,356.083,300.131Zm43.582-1.681a23.083,23.083,0,0,1-6.749-18.226,10.221,10.221,0,0,1,2.162-5.219c2.884-3.653,5.584-3.406,8.085.4,5.729,8.709,5.756,8.775,15.45,4.864,3.7-1.494,6.74-.018,9.941,1.414,2.939,1.315,5.92,1.219,8.224-1.236,2.436-2.6,2.07-5.748.689-8.682-1.355-2.882-3.631-3.3-6.781-2.586a44.557,44.557,0,0,1-12.485,1.294c-1.848-.116-4.774-2.556-4.977-4.214-.239-1.977,1.371-5.119,3.142-6.232a21.494,21.494,0,0,1,17.485-2.433,10.8,10.8,0,0,1,5.221,3.07c6.13,7.243,8.1,15.619,5.631,24.847-.409,1.526-1.689,2.821-2.568,4.221-3.233,3.542-7.446,4.26-11.767,4.085a99.044,99.044,0,0,1-12.271-1.423c-5.5-.92-9.648,1.128-12.607,5.556-1,1.494-1.948,2.182-2.933,2.182A4.327,4.327,0,0,1,399.665,298.45Zm251.152-6.908a7.545,7.545,0,0,0-3.124-1.485,16.748,16.748,0,0,1-11.4-8.641c-1.443-2.678-4.117-4.69-5.6-7.354-3.993-7.156-3.14-12.5,2.151-18.674,1.661-1.939,2.614-4.482,4.279-6.414a20.4,20.4,0,0,1,5.335-4.4c3.042-1.716,5.93-.981,7.7,2.073a22.542,22.542,0,0,1,2.507,6.489c.749,3.479-1.062,5.76-4.826,6.68-1.668.407-3.351.754-6.263,1.4,5.7,2.9,7.8,6.472,8.54,11.755.314,2.261,4.669,4.736,7.642,5.677,4.3,1.358,8.9,1.255,13-1.734,2.135-1.558,2.45-3.259.754-4.776a43.069,43.069,0,0,0-8.715-6.354c-5.758-2.961-7.327-8.907-3.215-14.04.48-.6,1.049-1.411,1.7-1.546,2.53-.523,5.218-1.359,7.608-.881.784.156.844,3.941,1.373,6.816a16.059,16.059,0,0,1,10.251,7.775c2.677,4.564,2.336,7.643-1.146,11.537a3.4,3.4,0,0,0-.857,2.279c1.028,11.253-4.306,17.527-15.322,17.643l-.4,0C658.46,295.377,654.275,294.623,650.817,291.542Zm-448.27-2.583c-.518-.37-.924-.9-1.431-1.284-2.326-1.79-4.225-4.964-7.655-.892-.736.875-5.431-.053-6.61-1.529-1.891-2.367-2.367-5.885-3.8-9.931,3.252-1.111,5.768-2.941,7.7-2.447,5.493,1.4,10.773,3.686,16.066,5.806a3.07,3.07,0,0,1,1.19,2.476,41.533,41.533,0,0,1-.881,6.086c-.363,1.87-1.037,2.785-2.1,2.785A4.637,4.637,0,0,1,202.547,288.959Zm272.428-6.932c-5.306-3.78-6.346-11.69-2.761-17.842,4.721-8.1,12.578-10.85,20.918-12.657,7.715-1.672,15.518-2.988,23.326-4.166a25.424,25.424,0,0,1,7.315.481c2.756.4,3.5,2.141,2.11,4.491-3.87,6.518-7.183,13.3-14.358,17.368-3.636,2.066-6.515,5.563-11.089,5.581-1.628.006-3.259-.851-4.888-1.314.7-1.579.978-3.766,2.191-4.622,3.363-2.368,7.152-4.125,10.7-6.24,2.1-1.253,4.074-2.729,6.1-4.1q-.351-.689-.7-1.378c-2.665.235-5.343.373-7.993.721-5.778.761-11.547,1.6-17.31,2.459-9.382,1.4-10.724,4.1-6.364,12.664,2.468-.581,4.919-1.505,7.408-1.612,1.391-.06,3.513.894,4.079,2.011s.062,3.327-.755,4.517a13.646,13.646,0,0,1-11.154,5.7A11.641,11.641,0,0,1,474.974,282.027Zm-327.109.678c-4.37-2.212-7.416-5.227-8.982-9.685-1.067-3.037.027-5.452,2.582-7.075,2.376-1.509,4.578-1.006,6.646.992,6.488,6.26,6.521,6.226,14.412,1.589,4.857-2.853,7.875-2.279,9.085,1.82.222.755.233,2.082-.217,2.456-4.866,4.033-9.416,8.74-15.946,9.895a14.889,14.889,0,0,1-2.594.2C151.2,282.9,149.519,282.72,147.865,282.706Zm447.366-11.523a12.3,12.3,0,0,1,.881-7.992c.983-1.765,3.86-2.75,6.091-3.43,2.171-.66,4.611-.365,6.9-.718,4.813-.745,5.215-1.947,3.489-6.435a8.022,8.022,0,0,1,.345-5.775c1.077-2.183.522-3.337-1.032-4.655-3.611-3.063-9.321-2.818-13.558.558a70.355,70.355,0,0,1-7.114,5.326c-2.358,1.432-4.262.494-4.023-2.375.18-2.184.653-5.039,2.1-6.3,7.671-6.669,17-8.819,26.929-8.788a7.371,7.371,0,0,1,2.1.626,12.737,12.737,0,0,1,8.645,11.972c.28,5.61-2.057,10.237-7.359,12.612-2.562,1.146-3.19,2.515-3.046,5.309.1,2.024-.79,5.047-2.275,6.024a67.916,67.916,0,0,1-12.931,6.415,6.4,6.4,0,0,1-2.272.426A3.618,3.618,0,0,1,595.231,271.183Zm-473.617.51c-5.527-2.142-9.985-5.578-12.552-11.1-2.444-5.257-1.92-10.219,1.866-14.568,3.457-3.969,9.634-4.991,15.692-3.455,2.275,2.046,4.9,3.826,6.729,6.213,1.934,2.522.864,4.414-2.3,4.932a11.855,11.855,0,0,1-1.971.1,9.745,9.745,0,0,0-2.317.169c-1.729.413-4.716,1.105-4.778,1.872-.166,2.071.754,4.312,1.573,6.357.752,1.878,2.371,3.481,2.831,5.391.709,2.933-.295,4.6-2.437,4.6A6.6,6.6,0,0,1,121.614,271.693Zm77.491-18.71a7.031,7.031,0,0,1,2.067-4.629c3.374-3.522,7.107-6.7,10.581-10.126a16.06,16.06,0,0,1,19.9-2.162c3.222,2.083,5.3,4.773,4.285,9.081-.263,1.115.591,2.617,1.205,3.8,2.094,4.034-1.759,12.036-6.257,12.66-2.624.363-4.467-.895-4.383-3.583a12.387,12.387,0,0,1,1.719-4.971c1.883-3.629.964-6.562-2.771-8.207-4.967-2.19-16.19.717-19.176,5.163-1.7,2.531-1.665,5.068,1.075,7.139,2.557,1.932,5.021,3.984,8.022,6.379a8.73,8.73,0,0,1-3.982.946C205.438,264.472,199.532,258.741,199.105,252.983Zm100.386,9.229c-3.682-2.646-7.211-1.983-11.028-1.776-7.607.414-15.165-9.888-11.93-18.206,1.345-1.433,3.316-4.276,5.958-6.2,5.739-4.178,11.855-7.84,17.738-11.829a6.711,6.711,0,0,0,2.572-3.05c2.013-5.978,3.6-6.929,9.685-5.306a19.5,19.5,0,0,1,14.973,18.375,11.1,11.1,0,0,1-.73,4.5c-1.126,2.825-3.963,3.571-5.769,1.215a21.2,21.2,0,0,1-3.615-7.895c-.587-2.506-1.781-3.225-3.7-2.257a34.768,34.768,0,0,0-8.021,5.118c-3.564,3.294-5.391,8.759-11.653,8.481-.424-.018-1.528,2.008-1.276,2.714a13.167,13.167,0,0,0,2.957,4.913c.741.726,2.465.45,3.744.633,1.153.166,2.311.315,3.458.519,2.873.513,5.362,1.824,5.908,4.828.246,1.362-.507,3.954-1.412,4.271a20.551,20.551,0,0,1-5.981,1.421A3.206,3.206,0,0,1,299.491,262.212ZM159.515,259c-5.352-.634-8.623-4.279-8.433-9.353.19-5.052,1.86-7.019,6.847-7.793a28.912,28.912,0,0,1,5.819-.411c2.461.118,3.894-.87,5.472-2.787,1.869-2.273,1-3.6.008-5.763-.76-1.653-.234-4.013.057-6.008.949-6.517-1.256-9.835-7.858-10.1a33.717,33.717,0,0,0-10.984,1.839c-3.194.984-3.964,3.862-3.264,7.023.562,2.536,1.214,5.052,1.813,7.579.754,3.18-.843,4.3-3.753,4.262a6.979,6.979,0,0,1-1.161-.084c-4.169-.766-8.121-5.77-8.91-11.269-.914-6.358.528-11.108,5.188-12.586,8.49-2.693,17.226-4.656,25.932-6.6,2.009-.448,4.312.407,6.48.662,10.147,4.228,14.1,17.529,7.939,26.811a5.511,5.511,0,0,0-.641,4.063c2.116,7.4.449,10.952-5.878,15.743-3.937,2.983-7.886,4.894-12.559,4.894A17.954,17.954,0,0,1,159.515,259Zm186.534-3.051a13.839,13.839,0,0,1-5.174-6.4,12.627,12.627,0,0,1-.631-7.382,10.866,10.866,0,0,1,1.348-3.228A12.881,12.881,0,0,1,344,236.106a4.175,4.175,0,0,0,1.251-2.775c0-3.105.55-5.26,1.741-6.782s3.087-2.47,5.93-2.941a10.823,10.823,0,0,1,8.027,1.865,10.259,10.259,0,0,1,2.333,2.3,9.639,9.639,0,0,1,1.471,2.973,31.281,31.281,0,0,1,1.333,9.933,36.235,36.235,0,0,1-2.178,10.958,12.145,12.145,0,0,1-1.362,2.936,8.043,8.043,0,0,1-1.995,2.127,10.958,10.958,0,0,1-6.372,1.827c-.1,0-.192,0-.288,0A14.053,14.053,0,0,1,346.049,255.946Zm9.127-21.951a13.667,13.667,0,0,0-1.409,1.238,4.859,4.859,0,0,0-.846,1.3,4.963,4.963,0,0,1-.826,1.28c-3.573,3.568-3.708,5.173-.852,10.106.606-.193,1.209-.373,1.793-.548a36.847,36.847,0,0,0,4.165-1.423,4.011,4.011,0,0,0,1.219-.887,2.012,2.012,0,0,0,.642-1.177,40.6,40.6,0,0,0-.428-7.731,5,5,0,0,0-.733-1.773c-.4-.621-.817-.991-1.144-1.014-.029,0-.058,0-.088,0A2.681,2.681,0,0,0,355.176,233.995Zm81.06,16.6c-2.655-2.1-2.632-4.682-2.094-7.266a6.058,6.058,0,0,1,6.109-5.061,82.937,82.937,0,0,1,9.629.817c1.375.143,2.733.44,5.261.861-1-3.3-1.5-5.7-2.448-7.907-2.081-4.868-2.291-4.881-7.244-3.306a8.488,8.488,0,0,1-11.167-6.109c-1.213-5.235,1.417-8.794,7.3-9.621a20.662,20.662,0,0,1,15.489,3.679c1.736,1.279,2.837,3.856,3.515,6.06,1.466,4.76,2.184,9.759,3.756,14.477,1.284,3.854,1.717,7.315-1.007,10.608a5.442,5.442,0,0,1-2,1.686c-2.757,1.059-5.561,2.007-8.384,2.884a26.131,26.131,0,0,1-7.675,1.374A14.047,14.047,0,0,1,436.236,250.6Zm-34.127-.388h-.067a76.505,76.505,0,0,1-10.459-1.024c-1.357-.2-2.638-.385-3.853-.527a21.918,21.918,0,0,1-3.778-1.844,26.6,26.6,0,0,1-3.5-2.559,30.877,30.877,0,0,1-3.14-3.135,33.322,33.322,0,0,1-4.883-7.437,29.928,29.928,0,0,1-1.583-4.024,24.923,24.923,0,0,1-.9-4.041,19.529,19.529,0,0,1-.145-3.919,9.212,9.212,0,0,0-.583-3.738,10.874,10.874,0,0,1-.7-4.738,9.1,9.1,0,0,1,.444-2.137,8.6,8.6,0,0,1,2.288-3.542,9.157,9.157,0,0,1,1.771-1.289,10.855,10.855,0,0,1,4.592-1.317,11.3,11.3,0,0,0,5.745-2.255,7.212,7.212,0,0,1,4.378-1.8,5.561,5.561,0,0,1,1.938.363,9.584,9.584,0,0,1,2.09,1.112c2.744,1.869,5.65,3.6,8.46,5.267,2.572,1.529,5.231,3.11,7.76,4.8a37.3,37.3,0,0,1,3.679,2.765,24.83,24.83,0,0,1,3.147,3.211,19.493,19.493,0,0,1,2.417,3.787,18.555,18.555,0,0,1,1.488,4.493,14.055,14.055,0,0,1,.273,3.318,10.433,10.433,0,0,1-.567,2.99,10.3,10.3,0,0,1-1.434,2.691,13.659,13.659,0,0,1-2.33,2.42,9.845,9.845,0,0,0-2.947,4.45,11.61,11.61,0,0,1-3.464,5.442,9.235,9.235,0,0,1-2.757,1.63,9.6,9.6,0,0,1-3.377.594Zm-19.341-33.588c-.71.351-1.514.748-2.41,1.11a12.657,12.657,0,0,1,1.574,1.462,8.482,8.482,0,0,1,1.057,1.449,6.258,6.258,0,0,1,.843,2.859,12.661,12.661,0,0,1-1.44,5.558,7.962,7.962,0,0,0,.316,7.768,8.863,8.863,0,0,0,7.559,3.765h0a11.158,11.158,0,0,0,1.7-.133c6.3-.978,10.033-5.11,13.7-11.013a2.356,2.356,0,0,0-.033-1.644,3.157,3.157,0,0,0-1.064-1.8,3.542,3.542,0,0,1-1.977-1.94,2.616,2.616,0,0,1,.015-1.458,7.461,7.461,0,0,1,.714-1.667,3.123,3.123,0,0,0,.367-2.907,2.881,2.881,0,0,0-2.372-1.332c-4.745-.6-9.835-1.168-14.914-1.3h-.082A8.57,8.57,0,0,0,382.767,216.621Zm-332.58,28.9c-1.618-2.452-2.209-5.239-.058-7.787a5.467,5.467,0,0,1,7.284-1.448c3.142,1.754,5.821,2.491,8.5-.736.362-.435,2.422-.124,3.144.482,2.717,2.275,2.581,5.316,1.662,8.8a25.761,25.761,0,0,1-2.828,3.113c-1.392,1.142-3.8,1.662-6.412,1.662C56.992,249.614,51.876,248.081,50.187,245.524Zm609.454-1.259a12.608,12.608,0,0,1-3.348-.441,11.957,11.957,0,0,1-2.966-1.274,14,14,0,0,1-2.606-2.037,18.854,18.854,0,0,1-2.268-2.729,12.986,12.986,0,0,1-2.386-6.281,11.493,11.493,0,0,1,.2-3.281,13.8,13.8,0,0,1,1.167-3.342,4.779,4.779,0,0,1,1.655-2.1c2.069-1.092,2.4-2.577,2.316-5.11a8.565,8.565,0,0,1,.447-3.166,6.836,6.836,0,0,1,1.522-2.469,8.208,8.208,0,0,1,2.5-1.741,12.78,12.78,0,0,1,3.385-.982,9.93,9.93,0,0,1,1.527-.118,10.544,10.544,0,0,1,3.184.5,10.961,10.961,0,0,1,2.873,1.4,10.25,10.25,0,0,1,2.3,2.146,8.971,8.971,0,0,1,1.478,2.748,30.294,30.294,0,0,1,1.55,10.027,37.239,37.239,0,0,1-1.954,10.943,9.419,9.419,0,0,1-.95,2.415,8.9,8.9,0,0,1-1.659,2.114,9.378,9.378,0,0,1-2.409,1.629,11.693,11.693,0,0,1-3.2.961,15.353,15.353,0,0,1-2.36.19Zm1.552-24.462a14.063,14.063,0,0,0-1.439,1.154l-.376.329a11.784,11.784,0,0,0-3.062,3.454,10.52,10.52,0,0,0-.732,5.034,7.848,7.848,0,0,0,.968,2.73c.261.539.556,1.15.848,1.853.918-.545,1.866-1.011,2.783-1.461,1.993-.979,3.876-1.9,4.855-3.4a4.277,4.277,0,0,0,.477-2.623,24.719,24.719,0,0,0-.513-3.237c-.115-.565-.223-1.1-.308-1.611a5.211,5.211,0,0,0-.718-1.77c-.389-.618-.8-.994-1.138-1.031a1.258,1.258,0,0,0-.141-.008A2.846,2.846,0,0,0,661.194,219.8ZM560.084,239.02c1.228-2.446-.139-3.31-1.93-3.32a26.594,26.594,0,0,0-6.814,1.128c-2.242.592-2.935-.334-2.755-2.288.27-2.957,1.583-5.432,4.794-5.641,3.8-.248,7.638.111,11.46.207,0,.236,0,.473,0,.709.823.379,1.671.71,2.461,1.141,3.951,2.162,7.383,6.7,5.841,8.092a22.6,22.6,0,0,1-9.435,5.047,5.719,5.719,0,0,1-1.337.171C559.693,244.266,558.63,241.916,560.084,239.02Zm-91.942-7.444c-2.895-6.376-1.775-12.213,2.637-15.844,4.676-3.849,11.8-3.963,17.286-.276a1.966,1.966,0,0,1,.612.464c1.351,2.162,2.68,4.337,4.014,6.51-2.2.681-4.391,1.384-6.6,2.039-1.864.552-4.629.47-5.428,1.693-1.525,2.338-.168,4.83,1.777,6.879a8.427,8.427,0,0,1,2.311,3.888c.293,1.61.259,3.775-.627,4.94-.468.614-1.758.6-2.823.589a9.47,9.47,0,0,0-1.091.024C474.818,239.581,470.428,236.613,468.143,231.576ZM83.879,237.209c-5.513-4.2-6.337-11.666-2.337-18.171a20.747,20.747,0,0,1,12.71-9.706c10.577-2.631,21.288-4.813,32.044-6.585,2.886-.476,6.13,1.194,9.209,1.878-.943,2.46-1.746,4.986-2.859,7.368-3.734,7.99-10.706,12.764-17.8,17.308a10.193,10.193,0,0,1-5.159,1.316c-1.628.018-3.268-.765-4.9-1.2.757-1.681,1.067-3.976,2.362-4.919,3.124-2.274,6.739-3.861,10.1-5.827,2.268-1.326,4.434-2.826,6.646-4.248q-.25-.673-.5-1.344c-1.948.159-3.905.247-5.845.489-6.713.839-13.44,1.594-20.122,2.637-9.353,1.457-10.526,3.964-6.129,12.59,2.627-.614,4.993-1.57,7.366-1.577a5.656,5.656,0,0,1,4.3,2.291c.562,1.014-.148,3.307-1.043,4.45a14.152,14.152,0,0,1-11.031,5.548A11.472,11.472,0,0,1,83.879,237.209Zm662.094,1.121c-3.544-.979-6.863-4.93-6.626-8.759.225-3.641,3.181-6.377,7.552-6.25,4.215.121,8.413.871,13.6,1.455-.975-3.172-1.553-5.669-2.508-8.013-1.3-3.19-2.609-5.5-7.106-3.1-4.673,2.487-9.758-.656-11.115-5.808-1.3-4.932,1.278-8.708,6.82-9.626a20.872,20.872,0,0,1,16.541,4.059c1.666,1.281,2.373,4.08,3.036,6.328,1.267,4.283,1.835,8.794,3.351,12.973,1.464,4.037,2.26,7.7-.677,11.315-.4.5-.713,1.353-1.2,1.461-5.818,1.3-11.249,4.556-17.336,4.556A16.148,16.148,0,0,1,745.972,238.33Zm-227.61-1.979c-4.524-1.622-6.815-5.249-8.319-9.323A99.515,99.515,0,0,1,506.62,215.1c-1.272-5.456-4.769-8.506-10.006-9.53-3.4-.665-3.975-2.326-2.713-5.208a23.2,23.2,0,0,1,14.251-13.334,10.211,10.211,0,0,1,5.662-.021c4.493,1.256,5.305,3.855,2.753,7.651-5.844,8.693-5.895,8.743,1.466,16.212,2.811,2.853,2.619,6.242,2.53,9.765-.082,3.235,1.159,5.962,4.318,7.146,3.341,1.249,6.116-.314,8.3-2.732,2.143-2.376,1.649-4.648-.226-7.291a44.762,44.762,0,0,1-6.017-11.073c-.606-1.759.52-5.418,1.977-6.25,1.736-.991,5.264-.717,6.976.491a21.589,21.589,0,0,1,9,15.266,10.9,10.9,0,0,1-.823,6.033c-4.333,8.495-11.32,13.573-20.807,14.867a4.627,4.627,0,0,1-.626.041A27.886,27.886,0,0,1,518.362,236.351Zm188.538-1a15.105,15.105,0,0,1-4.411-.7,23.927,23.927,0,0,0-6.611-.742c-.71-.009-1.324-.018-1.834-.057a27.132,27.132,0,0,1-7.572-4.688,31.193,31.193,0,0,1-3.171-3.176,32.371,32.371,0,0,1-2.681-3.572,31.611,31.611,0,0,1-2.13-3.849,29.05,29.05,0,0,1-1.52-4.008,25.177,25.177,0,0,1-.848-4.048,20.922,20.922,0,0,1-.117-3.969,8.359,8.359,0,0,0-.685-3.338,10.787,10.787,0,0,1-.73-4.813,9.055,9.055,0,0,1,.459-2.167,8.582,8.582,0,0,1,2.37-3.577,9.149,9.149,0,0,1,1.833-1.282,10.853,10.853,0,0,1,4.733-1.221,9.393,9.393,0,0,0,5.361-2.13,6.965,6.965,0,0,1,4.5-1.994,5.6,5.6,0,0,1,1.882.34,9.389,9.389,0,0,1,2.023,1.033c2.214,1.449,4.541,2.809,6.793,4.124,3.048,1.78,6.2,3.62,9.1,5.705a32.884,32.884,0,0,1,8.945,8.993c1.435,2.317,1.814,5.34,2.18,8.264.086.686.175,1.4.276,2.075a4.426,4.426,0,0,1-.289,1.991,2.641,2.641,0,0,1-1.044,1.475c-2.961,1.454-4.218,4.253-5.434,6.96a25.408,25.408,0,0,1-2.031,3.9,9.618,9.618,0,0,1-1.4,1.652,7.9,7.9,0,0,1-1.863,1.294,13.338,13.338,0,0,1-6.083,1.519Zm-17.557-33.716c-.891.354-1.812.72-2.847,1.057a10.287,10.287,0,0,1,2.57,2.972,6.652,6.652,0,0,1,.822,2.912,9.638,9.638,0,0,1-.343,2.869c-.244.951-.59,1.914-.924,2.844-.131.365-.267.742-.394,1.114a7.444,7.444,0,0,0,6.826,10.168c.237.015.481.022.725.022h0c6.6,0,14.3-5.271,16.15-11.059a3.394,3.394,0,0,0-.2-1.955,2.786,2.786,0,0,0-1.054-1.53,5.237,5.237,0,0,1-1.343-.893,2.229,2.229,0,0,1-.626-.987,2.293,2.293,0,0,1,.036-1.29,6.143,6.143,0,0,1,.7-1.487,3.277,3.277,0,0,0,.562-3.074,3.485,3.485,0,0,0-2.844-1.628,90.018,90.018,0,0,0-13.1-1.33h-.038A13.249,13.249,0,0,0,689.343,201.635ZM247.92,229.79A5.221,5.221,0,0,1,247.95,225c1.249-2,3.539-3.329,5.04-5.214.873-1.1,1.709-2.865,1.443-4.092-.732-3.382-.961-6.488.6-9.762.6-1.256.032-3.063,0-4.62l-1.25-.532c-1.72,1.934-3.517,3.808-5.141,5.82-1.7,2.1-3.072,4.472-4.864,6.482a10.807,10.807,0,0,1-13.069,2.755c-2.68-1.261-3.67-3.412-2.732-6.392,2.618-8.331,21.063-21.363,29.875-21.037,4.13.153,6.414,2.447,7.365,7.041,1.478,7.142-1.026,13.749-2.551,20.495-.2.875-.434,1.741-.606,2.62-.418,2.15-.114,4.91-1.361,6.327a28.849,28.849,0,0,1-8.2,6.1,2.218,2.218,0,0,1-1.017.2A5.14,5.14,0,0,1,247.92,229.79Zm372.9-14c-3.558-1.1-5.411-5.758-4.072-8.857,1.444-3.344,5.019-4.25,9.492-2.305,2.361,1.421,4.7,1.743,6.822-.771,1.97-2.33,4.052-.812,4.631.83.879,2.491,1.8,5.912.7,7.873a11.158,11.158,0,0,1-7.251,4.841,11.943,11.943,0,0,1-1.719.119A30.275,30.275,0,0,1,620.818,215.791ZM581.6,213.575a17.059,17.059,0,0,1-8.648-8.887,5.656,5.656,0,0,1,2.136-7.516c2.673-1.851,5-1.114,7.228,1.167,6.1,6.26,6.149,6.214,13.571,1.55,4.821-3.031,7.929-2.782,9.43.915.373.921.439,2.7-.11,3.153-5.057,4.185-9.842,9.012-16.764,9.9a12.225,12.225,0,0,1-1.57.094C585.136,213.955,583.357,213.664,581.6,213.575Zm-249.693-6.643c-3.134-2.659-5.526-5.915-4.948-10.288.159-1.2,1.362-2.388,2.328-3.338,3.005-2.957,6.284-5.648,9.168-8.713,5.54-5.888,12.89-7.366,20.032-3.736,4.08,2.072,5.521,4.957,5.187,9.617a6.875,6.875,0,0,0,1.14,3.452c2.314,4.168-1.555,12.333-6.27,12.922-2.4.3-4.064-.824-4.307-3.311a5.945,5.945,0,0,1,.592-3.338c1.473-2.582,3.525-4.993.979-8.009a8.506,8.506,0,0,0-9.127-2.648,46.868,46.868,0,0,0-11.31,4.572c-3.41,1.986-3.22,5.83-.121,8.32,2.434,1.956,4.935,3.83,8.234,6.379a13.034,13.034,0,0,1-4.7.981A10.33,10.33,0,0,1,331.911,206.932ZM45.5,205.652a6.007,6.007,0,0,1-2.177-7.494,9.233,9.233,0,0,1,5.766-4.782c3.141-.631,6.6.3,9.921.614,1.35.128,2.689.38,4.3.615a16.762,16.762,0,0,0-3.9-11.494c-.47-.594-2.493-.433-3.536.008-6.3,2.672-12.462-.77-12.712-7.249-.144-3.751,1.7-6.539,5.391-7.533,6.833-1.838,13.139-.149,18.623,4,1.466,1.109,1.948,3.763,2.512,5.811,1.226,4.445,1.912,9.058,3.387,13.408,1.373,4.048,2.183,7.753-.9,11.292-.492.565-.954,1.333-1.59,1.564-3.246,1.175-6.5,2.358-9.834,3.25a24.538,24.538,0,0,1-6.325.945A14.442,14.442,0,0,1,45.5,205.652ZM287.77,204.9c-7.178-.894-10.878-8.119-7.09-14.252a4.788,4.788,0,0,1,2.657-2.012,43.98,43.98,0,0,1,8.431-1.3,7.016,7.016,0,0,0,5.86-2.876c1.966-2.372.885-3.647-.086-5.725-.672-1.437-.254-3.505.023-5.235,1.208-7.546-1.34-10.8-8.984-11.06a20.677,20.677,0,0,0-5.411.538c-7.653,1.817-8.884,3.979-6.844,11.577a11.725,11.725,0,0,1,.657,3.043c-.02,1.711.182,4.541-.609,4.894a8.309,8.309,0,0,1-5.86.041c-4.815-1.882-7.708-8.491-7.164-15.267.391-4.881,2.879-7.787,8.54-9.328,6.769-1.844,13.564-3.661,20.445-5,2.807-.549,5.867.178,8.811.325,9.983,4.449,14.014,17.612,8.16,26.771a6.724,6.724,0,0,0-.664,4.79c1.828,6.978-.026,10.932-5.812,15.158-4.051,2.96-8.042,5.055-12.885,5.054A17.58,17.58,0,0,1,287.77,204.9Zm171.979-1.645a19.611,19.611,0,0,1-7.422-1.712c-.661-.273-1.345-.52-2.006-.76-.3-.11-.616-.224-.925-.338-.082.138-.166.279-.247.416l-.018.03c-1.619-.928-3.28-1.848-4.886-2.737-3.641-2.017-7.407-4.1-10.935-6.418a12.25,12.25,0,0,1-3.6-3.692,15.091,15.091,0,0,1-1.99-4.861,16.817,16.817,0,0,1-.318-5.346,15.5,15.5,0,0,1,1.412-5.145,13,13,0,0,0,.857-4.894c.019-.382.038-.776.065-1.156a25.829,25.829,0,0,0-.012-2.768,16.546,16.546,0,0,1,.173-4.1,11.3,11.3,0,0,1,1.312-3.382,10.288,10.288,0,0,1,2.167-2.592,9.458,9.458,0,0,1,2.779-1.66,8.751,8.751,0,0,1,5.833-.162,9.825,9.825,0,0,1,2.635,1.32,49.484,49.484,0,0,0,21.742,8.882A7.421,7.421,0,0,1,473,168.5a91.194,91.194,0,0,1,.71,9.71c.053,1.43.108,2.908.193,4.357.016.282.011.584.005.876a3.948,3.948,0,0,0,.3,2.046,7.649,7.649,0,0,1,1.108,5.579,9.915,9.915,0,0,1-2.661,4.756c-1.177,1.253-2.208,2.27-3.152,3.108a22.435,22.435,0,0,1-3.076,2.337,13.464,13.464,0,0,1-3.188,1.472,11.8,11.8,0,0,1-3.488.512Zm-11.075-40.476c-2.4,0-3.757,1.484-4.263,4.669a13.042,13.042,0,0,1-2.154,4.613c-.354.561-.721,1.141-1.041,1.715a7.942,7.942,0,0,1-.909,1.2c-.575.67-1.119,1.3-1.018,1.844,1.067,5.669,2.275,12.095,7.63,16.474a7.569,7.569,0,0,0,4.722,1.807,5.129,5.129,0,0,0,3.542-1.331,22.428,22.428,0,0,0,5.955-9.7c.537-1.863.009-4.062-.5-6.189-.227-.944-.462-1.92-.6-2.853-.721-4.851-3.435-8.737-8.067-11.548a9.9,9.9,0,0,0-3.295-.692h0Zm104.253,34.527a98.958,98.958,0,0,1-12.137-5.19c-4.406-2.3-5.661-5.567-4.022-8.814,1.63-3.228,4.281-3.874,8.975-2.213.211.075.494-.052,1.017-.124-.153-.855-.607-1.781-.394-2.51.609-2.084.965-5.177,2.387-5.864,2.079-1,5.54-1.19,7.467-.08,6.117,3.527,7.508,10.062,4.423,16.385a26.872,26.872,0,0,0-1.269,4.863c-.757,2.834-1.76,4.147-3.689,4.147A8.351,8.351,0,0,1,552.927,197.309Zm-165.077-4.6a3.287,3.287,0,0,0-1.3-.81c-7.758-1-11.594-7.027-15.994-12.371a20.974,20.974,0,0,1-5.044-13.139,11.892,11.892,0,0,1,1.436-6.279,85.562,85.562,0,0,1,8.295-11.053c2.406-2.723,5.417-5.089,9.5-3.551,2.585.976,5.533,7.57,5.047,10.765a5.227,5.227,0,0,1-4.435,4.728c-1.828.375-3.653.781-6.7,1.435,5.726,2.875,7.656,6.577,8.649,11.723.471,2.44,4.813,4.963,7.869,5.872a13.783,13.783,0,0,0,12.232-1.661c2.7-1.893,2.728-3.747.568-5.587a40.05,40.05,0,0,0-8.217-5.677c-2.779-1.348-5.553-2.094-5.322-6.028.233-3.979.528-8.1,4.572-9.947a10.835,10.835,0,0,1,7.156-.313c.822.255.667,3.688.957,5.671q-.487.279-.972.56c1.275.48,2.573.91,3.821,1.451a14.364,14.364,0,0,1,8.981,11.326c.3,1.936-.795,4.528-2.1,6.139-1.176,1.457-1.789,2.331-1.238,4.261a11.541,11.541,0,0,1-6.242,13.934A23.5,23.5,0,0,1,399.2,196.72,18.441,18.441,0,0,1,387.849,192.7Zm245.112-8.751a7.585,7.585,0,0,1,1.991-5.066c3.321-3.571,7.068-6.738,10.544-10.171a16.127,16.127,0,0,1,20.879-1.566c2.626,1.978,4.106,4.461,3.538,8.046a7.768,7.768,0,0,0,1.125,4.237c2.016,4.014-1.908,12.054-6.34,12.762a3.8,3.8,0,0,1-4.458-4.081,6.144,6.144,0,0,1,.8-2.951c1.491-2.345,3.142-4.562,1.114-7.42a7.8,7.8,0,0,0-8.568-3.123,44.115,44.115,0,0,0-11.48,4.187c-4.342,2.437-4.21,6.151-.288,9.314q3.454,2.789,6.9,5.582a11.863,11.863,0,0,1-3.838.639C638.8,194.342,633.379,189.654,632.962,183.953Zm-39,5.575c-5.671-.468-9.427-4.367-9.1-9.52.3-4.8,2.263-6.978,7.1-7.618,2.186-.29,4.417-.237,6.621-.421,4.335-.36,6.141-4.021,4.683-7.969-.773-2.089-.31-4.725-.022-7.068.7-5.639-1.367-8.889-7.128-9.2a38.892,38.892,0,0,0-11.436,1.532c-3.423.868-4.521,3.628-3.751,7.011.6,2.637,1.3,5.252,1.881,7.893.631,2.887-.744,4.113-3.59,3.972a9.358,9.358,0,0,1-1.927-.24c-4.671-1.226-8.281-6.821-8.508-13.135-.223-6.177,1.806-9.715,7.227-11.335,6.725-2.011,13.522-3.892,20.4-5.256,3.311-.654,6.89.007,10.347.071,9.947,4.441,13.9,17.633,7.921,26.709a5.871,5.871,0,0,0-.663,4.311c2.05,7.255.339,10.947-5.75,15.323-4.031,2.9-8,5.006-12.877,5.006Q594.687,189.588,593.957,189.528ZM211.69,183.194c-5.513-4.1-6.361-11.779-2.445-18.141,3.039-4.94,7.291-8.452,12.656-9.781,10.72-2.654,21.589-4.8,32.489-6.609,2.788-.463,5.92,1.116,8.894,1.756a77.523,77.523,0,0,1-2.738,7.346c-3.833,7.874-10.543,12.972-17.822,17.288-2.086,1.237-4.916,1.536-7.434,1.658-2.9.141-3.849-1.789-2.2-4.058a18.009,18.009,0,0,1,5.128-4.525c3.2-1.965,6.677-3.487,9.965-5.326a24.864,24.864,0,0,0,3.228-2.561q-.221-.648-.443-1.295c-2.1.2-4.214.338-6.309.607-6.716.859-13.451,1.614-20.133,2.692-8.808,1.422-10.083,4.586-5.365,12.525,2.378-.58,4.736-1.552,7.11-1.59a5.776,5.776,0,0,1,4.392,2.189c.59.974-.073,3.3-.944,4.448a14.013,14.013,0,0,1-11.068,5.609A11.592,11.592,0,0,1,211.69,183.194Zm285.194-2.524a34.193,34.193,0,0,1-9.739-1.758,7.187,7.187,0,0,1-4.043-9.233c1.459-3.114,5.093-4,9.092-2.1,2.437,1.6,4.705,1.609,7.043-.82.575-.6,2.869-.386,3.7.292,2.631,2.15,2.637,5.3,1.575,8.162a7.764,7.764,0,0,1-7.366,5.46C497.058,180.673,496.97,180.672,496.883,180.669Zm-165.309-8.864c-1.122-3.163.206-7.689,3.236-9.173,2.254-1.1,4.923-1.425,7.441-1.924,1.778-.352,3.667-.216,5.415-.652,3.582-.894,3.707-2.017,2.412-5.489a9.317,9.317,0,0,1,.043-6.419c.883-2.016.62-3.05-.815-4.327-3.533-3.14-9.085-3.259-13.346-.161-2.417,1.758-4.631,3.822-7.166,5.38-3.3,2.03-5.229,1.065-4.84-2.643.244-2.318,1.36-5.264,3.112-6.578,7.519-5.636,16.331-7.812,25.685-7.881a9.107,9.107,0,0,1,2.522.585c5.817,2.249,8.62,6.378,9,11.765s-1.709,10.084-6.864,12.53c-2.883,1.368-4.191,2.759-3.6,6.155.278,1.585-.642,4.242-1.908,5.065A70.409,70.409,0,0,1,339,174.787a7.648,7.648,0,0,1-2.709.537A4.77,4.77,0,0,1,331.575,171.805Zm186.376-2.84c-5.406-3.229-7.266-11.457-4.1-17.319,4.272-7.916,11.516-11.357,19.681-13.2,7.819-1.766,15.713-3.246,23.627-4.519a31.267,31.267,0,0,1,8.466.26c3.173.372,3.958,2.353,2.292,4.975-2.847,4.48-5.225,9.568-9.023,13.055-4.676,4.293-9.445,9.335-16.57,9.637-1.4.059-2.844-.659-4.266-1.018.535-1.616.585-3.909,1.7-4.719,3.327-2.417,7.1-4.2,10.64-6.333,2.222-1.344,4.325-2.887,6.48-4.341l-.645-1.426c-2.133.234-4.273.43-6.4.707-6.415.834-12.851,1.544-19.231,2.587-9.361,1.532-10.585,4.283-6.1,12.728,2.623-.626,5.189-1.583,7.813-1.777,3.661-.271,5.281,2.873,3.4,6.1-2.28,3.917-7.029,6.216-11.63,6.216A11.942,11.942,0,0,1,517.951,168.965Zm-344.8-17.286c-2.842-2.388-2.936-5.146-2.174-7.974a6.288,6.288,0,0,1,6.462-4.68c3.209.031,6.416.561,9.619.912,1.229.135,2.446.375,4.564.71-.721-2.908-1.035-4.958-1.741-6.863-2-5.417-2.618-5.673-8.164-4.157A8.411,8.411,0,0,1,171,123.307c-1.055-4.769,1.542-8.636,6.757-9.472a20.642,20.642,0,0,1,16.508,3.969c1.673,1.318,2.477,4.05,3.146,6.3,1.311,4.417,1.913,9.063,3.438,13.392,1.434,4.07,2.109,7.748-.884,11.3-.488.579-.993,1.348-1.641,1.557-4.4,1.418-8.759,3.227-13.281,3.885a25.043,25.043,0,0,1-3.594.29A12.338,12.338,0,0,1,173.151,151.679Zm123.677-11.025c1.645-3.283-.312-3.878-2.578-3.738a63.19,63.19,0,0,0-8.095,1.517c-.96-5.484.434-7.9,5.016-8.6a19.023,19.023,0,0,1,16.161,4.661c4.258,3.784,3.824,7.11-1.239,9.545a15.107,15.107,0,0,1-6.222,1.574h-.044C296.708,145.608,295.425,143.45,296.827,140.654Zm99.974,4.36a14.6,14.6,0,0,1-13.181-9.324,14.9,14.9,0,0,1-.84-3.763,10.692,10.692,0,0,1,.258-3.418,10.227,10.227,0,0,1,1.336-3.079,13.281,13.281,0,0,1,2.394-2.746,4.253,4.253,0,0,0,1.242-2.835,17.262,17.262,0,0,1,.463-4.007,7.653,7.653,0,0,1,1.337-2.859c1.189-1.526,3.05-2.445,5.858-2.891a11.333,11.333,0,0,1,1.772-.141,10.959,10.959,0,0,1,3.33.515,10.633,10.633,0,0,1,2.93,1.458,10.175,10.175,0,0,1,2.316,2.269,9.884,9.884,0,0,1,1.487,2.951,31.524,31.524,0,0,1,1.108,4.98,30.561,30.561,0,0,1,.272,4.957,32.218,32.218,0,0,1-.52,4.936,36.569,36.569,0,0,1-1.27,4.917,17.515,17.515,0,0,1-1.672,3.585,9.907,9.907,0,0,1-2.174,2.5,8.424,8.424,0,0,1-2.767,1.475,11.975,11.975,0,0,1-3.452.525l-.223,0Zm-.177-23.481a38.174,38.174,0,0,0-3.018,3.5c-.5.631-1.077,1.346-1.718,2.12l.222,1.1c.328,1.628.778,3.859,1.3,6.44.885-.3,1.7-.559,2.427-.789a38.825,38.825,0,0,0,4.284-1.538c.809-.366,1.8-1.383,1.807-2.1a45.172,45.172,0,0,0-.552-7.687c-.157-1.012-1.062-2.623-1.606-2.623h0A5.156,5.156,0,0,0,396.624,121.533Zm-179.105,21.85c-5.427-2.024-9.833-5.4-12.488-10.6-2.648-5.191-2.452-10.363,1.409-14.923,3.537-4.175,9.669-5.232,16.052-3.627a74.334,74.334,0,0,1,6.746,6.634c1.617,2.017.515,3.767-1.9,4.26-1.764.361-3.655.1-5.422.452-1.521.3-4.022.855-4.192,1.685a10.831,10.831,0,0,0,.9,5.767c.922,2.337,2.91,4.348,3.459,6.723.606,2.618-.413,4.076-2.405,4.076A6.257,6.257,0,0,1,217.519,143.383Zm261.4-7.19c-1.442-1.519-2.528-4.423-2.124-6.348.416-1.984,2.626-4.716,4.437-5.048,3.7-.681,7.662-.013,11.511.185,1.355.069,2.694.387,5,.737-.851-3.111-1.254-5.277-2.036-7.3-1.892-4.89-2.662-5.205-7.691-3.794-5.4,1.515-9.979-1.029-11.108-6.168-1.151-5.236,1.485-8.691,7.433-9.561a20.809,20.809,0,0,1,15.846,3.987c1.764,1.324,2.531,4.264,3.248,6.62,1.3,4.273,1.935,8.756,3.384,12.969,1.282,3.731,2.347,7.269-.376,10.641a9.326,9.326,0,0,1-3.643,2.35,60.808,60.808,0,0,1-8.737,3.21,28.08,28.08,0,0,1-6.667.989A11.07,11.07,0,0,1,478.923,136.193Zm-223.23,1.553c-6.075-2.3-8.069-7.7-9.818-13.215-.823-2.594-1.332-5.29-1.961-7.944-1.235-5.221-4.52-8.459-9.7-9.446-3.794-.724-4.324-2.618-2.886-5.784a23.6,23.6,0,0,1,13.8-12.911,10.373,10.373,0,0,1,5.341-.261c5.136,1.025,6.2,4.06,3.134,8.283-.076.105-.144.217-.221.321-5.953,7.96-6.053,8.069,1.212,14.785,3.313,3.062,3.488,6.741,3.326,10.705-.137,3.361,1.275,6.486,4.42,6.9,2.538.331,5.806-.88,7.925-2.5,2.516-1.919,2.157-4.6,0-7.478a47.8,47.8,0,0,1-6.141-11.5,6.039,6.039,0,0,1,1.547-5.46,7.44,7.44,0,0,1,6.06-.921c6.77,2.291,12.458,15.378,9.987,22.127-3.012,8.23-13.522,15.031-21.752,15.03A11.937,11.937,0,0,1,255.693,137.746Zm188.184-1.052a13.478,13.478,0,0,1-1.82-.127c-2.99-.409-6-.855-8.66-1.249h0c-1.137-.168-2.211-.327-3.214-.473a24.472,24.472,0,0,1-7.194-4.468,30.444,30.444,0,0,1-3.07-3.12,32.547,32.547,0,0,1-2.623-3.537,32.188,32.188,0,0,1-2.1-3.824,29.356,29.356,0,0,1-1.513-3.982,24.917,24.917,0,0,1-.849-4.009,20.032,20.032,0,0,1-.114-3.907,8.9,8.9,0,0,0-.782-3.648,9.6,9.6,0,0,1-.617-4.425,8.864,8.864,0,0,1,1.362-3.9,9.032,9.032,0,0,1,1.369-1.657,9.337,9.337,0,0,1,1.756-1.315,9.817,9.817,0,0,1,2.092-.9,10.633,10.633,0,0,1,2.378-.425A10.742,10.742,0,0,0,424,90.476a18.394,18.394,0,0,1,2.384-1c.493-.153,1.019-.349,1.577-.558a11.753,11.753,0,0,1,3.588-.962,1.888,1.888,0,0,1,.986.231c4.7,2.794,8.451,5.116,11.816,7.306,4.236,2.757,7.948,5.366,11.348,7.976a10.081,10.081,0,0,1,1.829,1.868,16.815,16.815,0,0,1,1.486,2.349,36.6,36.6,0,0,1,2.174,5.23,9.489,9.489,0,0,1,.031,6.542,11.979,11.979,0,0,1-4.235,5.293,6.357,6.357,0,0,0-2.414,3.1,13.991,13.991,0,0,1-1.538,3.708,10.969,10.969,0,0,1-2.372,2.781,10,10,0,0,1-3.091,1.747,11.152,11.152,0,0,1-3.694.606Zm-15.2-34.459c-2.145.154-3.176.491-3.562,1.164a2.076,2.076,0,0,0-.038,1.61,15.372,15.372,0,0,0,1.089,2.6,4.956,4.956,0,0,1,.45,1.805,7.541,7.541,0,0,1-.107,1.909,27.706,27.706,0,0,1-1.181,4.028c-.171.489-.347.994-.51,1.494a7.542,7.542,0,0,0,6.561,10.019c.336.032.686.048,1.039.048,6.555,0,14.194-5.283,16.027-11.084a3.136,3.136,0,0,0-.21-1.869,3.066,3.066,0,0,0-1.066-1.532,6.747,6.747,0,0,1-1.338-.988,2.271,2.271,0,0,1-.65-1.087,2.013,2.013,0,0,1,.04-1.009,4.337,4.337,0,0,1,.583-1.207c.83-1.358,1.043-2.539.616-3.417a3.382,3.382,0,0,0-2.861-1.552l-1.44-.171h-.006a90.917,90.917,0,0,0-10.677-.853C430.48,102.14,429.551,102.172,428.674,102.235Zm-55.557,19.126c-.518-.37-.924-.9-1.431-1.284-2.326-1.79-4.226-4.964-7.655-.892-.736.875-5.431-.053-6.61-1.529-1.891-2.367-2.367-5.885-3.8-9.931,3.252-1.111,5.768-2.941,7.7-2.446,5.493,1.4,10.773,3.686,16.066,5.806a3.07,3.07,0,0,1,1.19,2.476,41.667,41.667,0,0,1-.882,6.085c-.364,1.87-1.038,2.785-2.1,2.785A4.637,4.637,0,0,1,373.117,121.361Zm-54.681-6.847c-4.37-2.213-7.416-5.228-8.983-9.685-1.067-3.038.028-5.453,2.582-7.076,2.376-1.509,4.578-1.005,6.646.992,6.487,6.261,6.521,6.226,14.413,1.59,4.857-2.854,7.875-2.28,9.085,1.82.223.754.233,2.081-.216,2.454-4.866,4.033-9.416,8.741-15.947,9.9a14.875,14.875,0,0,1-2.591.2C321.773,114.7,320.09,114.527,318.435,114.513Zm-26.251-10.418c-5.527-2.142-9.985-5.578-12.552-11.1-2.444-5.257-1.921-10.218,1.866-14.568,3.457-3.968,9.634-4.991,15.692-3.454,2.275,2.046,4.9,3.826,6.729,6.212,1.934,2.523.864,4.415-2.3,4.933a11.888,11.888,0,0,1-1.972.1,9.764,9.764,0,0,0-2.316.168c-1.729.414-4.717,1.107-4.778,1.873-.166,2.071.754,4.312,1.573,6.358.752,1.878,2.371,3.481,2.831,5.391.709,2.933-.295,4.6-2.437,4.6A6.593,6.593,0,0,1,292.184,104.095Zm77.491-19.3a7.025,7.025,0,0,1,2.067-4.629c3.374-3.522,7.107-6.7,10.582-10.126a16.06,16.06,0,0,1,19.9-2.162c3.222,2.083,5.3,4.773,4.285,9.081-.263,1.115.591,2.616,1.205,3.8,2.094,4.035-1.759,12.037-6.257,12.661-2.624.363-4.466-.895-4.383-3.583a12.386,12.386,0,0,1,1.719-4.971c1.882-3.629.964-6.561-2.771-8.207-4.967-2.19-16.19.717-19.177,5.163-1.7,2.531-1.664,5.068,1.076,7.138,2.557,1.932,5.021,3.984,8.022,6.379a8.73,8.73,0,0,1-3.982.946C376.008,96.279,370.1,90.549,369.675,84.791ZM330.086,90.8c-5.353-.634-8.623-4.279-8.433-9.353.19-5.052,1.86-7.019,6.847-7.794a28.986,28.986,0,0,1,5.819-.41c2.461.118,3.894-.87,5.472-2.787,1.869-2.273,1-3.6.008-5.763-.76-1.653-.234-4.013.057-6.008.948-6.517-1.256-9.835-7.858-10.1a33.723,33.723,0,0,0-10.984,1.839c-3.193.984-3.964,3.862-3.264,7.023.561,2.536,1.214,5.052,1.813,7.579.754,3.18-.843,4.3-3.753,4.262a6.959,6.959,0,0,1-1.161-.084c-4.169-.765-8.121-5.77-8.91-11.269-.914-6.358.528-11.108,5.187-12.587,8.491-2.693,17.227-4.655,25.934-6.6,2.009-.448,4.313.407,6.48.662,10.147,4.228,14.095,17.528,7.939,26.811a5.512,5.512,0,0,0-.641,4.063c2.116,7.4.449,10.952-5.877,15.743-3.938,2.983-7.886,4.894-12.56,4.894A17.956,17.956,0,0,1,330.086,90.8ZM220.757,77.332c-1.618-2.452-2.209-5.239-.058-7.787a5.467,5.467,0,0,1,7.284-1.448c3.142,1.754,5.821,2.491,8.5-.736.362-.435,2.422-.124,3.144.482,2.717,2.275,2.579,5.316,1.662,8.8a25.751,25.751,0,0,1-2.829,3.113c-1.392,1.142-3.8,1.662-6.412,1.662C227.561,81.422,222.446,79.888,220.757,77.332Zm33.691-7.72c-5.513-4.2-6.337-11.666-2.337-18.171a20.747,20.747,0,0,1,12.71-9.706c10.577-2.631,21.288-4.813,32.044-6.585,2.886-.477,6.13,1.194,9.209,1.878-.943,2.46-1.746,4.986-2.859,7.368-3.734,7.99-10.706,12.764-17.8,17.308a10.194,10.194,0,0,1-5.159,1.316c-1.628.018-3.268-.765-4.9-1.2.756-1.681,1.066-3.976,2.362-4.92,3.124-2.274,6.74-3.861,10.1-5.827,2.268-1.326,4.434-2.826,6.646-4.248q-.25-.673-.5-1.344c-1.948.159-3.9.246-5.845.488-6.713.839-13.44,1.594-20.122,2.636-9.353,1.458-10.526,3.965-6.129,12.591,2.627-.614,4.994-1.57,7.366-1.577a5.656,5.656,0,0,1,4.3,2.291c.562,1.014-.148,3.307-1.043,4.45a14.153,14.153,0,0,1-11.031,5.548A11.471,11.471,0,0,1,254.449,69.611ZM216.068,38.055a6.006,6.006,0,0,1-2.177-7.495,9.235,9.235,0,0,1,5.766-4.783c3.141-.631,6.6.3,9.921.615,1.35.127,2.69.38,4.3.614a16.761,16.761,0,0,0-3.9-11.494c-.47-.593-2.493-.433-3.536.009-6.3,2.671-12.462-.771-12.712-7.249-.144-3.751,1.7-6.54,5.391-7.533,6.833-1.839,13.138-.15,18.623,4,1.466,1.108,1.947,3.764,2.512,5.811,1.226,4.444,1.912,9.058,3.387,13.408,1.373,4.048,2.183,7.754-.9,11.294-.492.564-.954,1.332-1.59,1.563-3.246,1.175-6.5,2.359-9.834,3.251a24.565,24.565,0,0,1-6.325.945A14.443,14.443,0,0,1,216.068,38.055Z" transform="matrix(1, 0.017, -0.017, 1, -238.706, -164.9)"/></g></g></g></g></g></g></g></svg>