<svg xmlns="http://www.w3.org/2000/svg" width="369" height="480" viewBox="0 0 369 480"><defs><style>.a{fill:#f5ebe1;}.b{fill:#191919;}</style></defs><g transform="translate(-535 -13993)"><rect class="a" width="369" height="480" rx="5" transform="translate(535 13993)"/><g transform="translate(567 14033)"><path class="b" d="M61.363,12.076,62.9,10.988a4.178,4.178,0,0,0,2.495.9c1.521,0,2.426-.934,2.426-1.842,0-.632-.328-1.327-2.714-2.122l-.008,0A8.535,8.535,0,0,1,62.389,6.6a3.371,3.371,0,0,1-1.355-2.726,3.729,3.729,0,0,1,1.239-2.733A4.583,4.583,0,0,1,65.39,0,5.416,5.416,0,0,1,69.42,1.844L67.886,2.931a4.194,4.194,0,0,0-2.5-.9c-1.52,0-2.428.936-2.428,1.842,0,.632.33,1.326,2.717,2.124l.009,0a8.547,8.547,0,0,1,2.705,1.328,3.373,3.373,0,0,1,1.353,2.726,3.726,3.726,0,0,1-1.237,2.734,4.593,4.593,0,0,1-3.118,1.134A5.409,5.409,0,0,1,61.363,12.076Zm-61.034,0,1.534-1.088a4.175,4.175,0,0,0,2.494.9c1.519,0,2.428-.934,2.428-1.842,0-.632-.329-1.327-2.716-2.122l-.007,0A8.557,8.557,0,0,1,1.354,6.6,3.368,3.368,0,0,1,0,3.87,3.722,3.722,0,0,1,1.238,1.137,4.588,4.588,0,0,1,4.355,0,5.409,5.409,0,0,1,8.384,1.844L6.852,2.931a4.2,4.2,0,0,0-2.5-.9c-1.518,0-2.426.936-2.426,1.842,0,.632.329,1.326,2.715,2.124l.009,0A8.556,8.556,0,0,1,7.358,7.324,3.367,3.367,0,0,1,8.713,10.05a3.722,3.722,0,0,1-1.24,2.734,4.588,4.588,0,0,1-3.117,1.134A5.409,5.409,0,0,1,.329,12.076ZM44.338,6.952a6.622,6.622,0,1,1,13.227,0,6.622,6.622,0,1,1-13.227,0Zm1.923,0a4.7,4.7,0,1,0,9.379,0,4.7,4.7,0,1,0-9.379,0Zm-34.08,0A6.8,6.8,0,0,1,18.795,0a6.8,6.8,0,0,1,6.613,6.952A6.8,6.8,0,0,1,18.795,13.9,6.8,6.8,0,0,1,12.181,6.952Zm1.925,0a4.844,4.844,0,0,0,4.689,4.975,4.845,4.845,0,0,0,4.69-4.975,4.845,4.845,0,0,0-4.69-4.976A4.844,4.844,0,0,0,14.106,6.952ZM31.639,4.935V13.34H29.776V.189l8.337,8.777V.516h1.865v13.2Z" transform="translate(2 21)"/></g></g></svg>