<svg xmlns="http://www.w3.org/2000/svg" xmlns:xlink="http://www.w3.org/1999/xlink" width="370" height="481" viewBox="0 0 370 481"><defs><style>.a{fill:none;}.b{fill:#303d78;}.c{fill:#3d55cc;}.d{clip-path:url(#a);}.e{clip-path:url(#b);}.f{fill:#25b89d;}.g{clip-path:url(#c);}</style><clipPath id="a"><path class="a" d="M5,0H365a5,5,0,0,1,5,5V208a0,0,0,0,1,0,0H0a0,0,0,0,1,0,0V5A5,5,0,0,1,5,0Z"/></clipPath><clipPath id="b"><path class="a" d="M-366.877,0,0,312.725-302.09,667-594.408,417.828-645,101.483Z" transform="matrix(0.469, -0.883, 0.883, 0.469, 303.442, 0.181)"/></clipPath><clipPath id="c"><rect class="b" width="370" height="208.125"/></clipPath></defs><g transform="translate(-142 -13992)"><rect class="c" width="369" height="480" rx="5" transform="translate(142 13993)"/><g transform="translate(142 13992)"><path class="a" d="M5,0H365a5,5,0,0,1,5,5V208a0,0,0,0,1,0,0H0a0,0,0,0,1,0,0V5A5,5,0,0,1,5,0Z"/><g class="d"><g transform="translate(-149.043 -515.221)"><path class="a" d="M-366.877,0,0,312.725-302.09,667-594.408,417.828-645,101.483Z" transform="matrix(0.469, -0.883, 0.883, 0.469, 303.442, 0.181)"/><g class="e"><g transform="translate(149.043 515.221)"><rect class="f" width="370" height="208.125"/><g class="g"><path class="b" d="M200.039,288.87h0a6.7,6.7,0,0,1-2.551-.5,7.539,7.539,0,0,1-2.4-1.6,15.941,15.941,0,0,1-1.2-6.712,10.309,10.309,0,0,1,.509-2.647,8.789,8.789,0,0,1,1.072-2.158,8.26,8.26,0,0,1,1.356-1.532,8.141,8.141,0,0,1,1.613-1.106,7.815,7.815,0,0,1,3.592-.9,6.675,6.675,0,0,1,2.589.5,5.9,5.9,0,0,1,2.156,1.535c1.411,1.589,1.979,3.927,1.641,6.761a8.987,8.987,0,0,1-.867,3.285,9.277,9.277,0,0,1-1.9,2.651,8.788,8.788,0,0,1-2.613,1.77A7.445,7.445,0,0,1,200.039,288.87Zm36.393-4.24h0a10.418,10.418,0,0,1-3.205-.544,6.315,6.315,0,0,1-3.032-1.381,8.169,8.169,0,0,1-2.061-2.658,12.236,12.236,0,0,1-1.1-3.447,15,15,0,0,1-.161-3.749,13.642,13.642,0,0,1,.635-3.187,9.779,9.779,0,0,1,1.356-2.7,6.461,6.461,0,0,1,2.067-1.87,5.638,5.638,0,0,1,2.768-.7,7.426,7.426,0,0,1,1.791.232,10.341,10.341,0,0,1,4.175,1.247,8.986,8.986,0,0,1,2.86,2.547,10.31,10.31,0,0,1,1.6,3.375,12.02,12.02,0,0,1,.409,3.731,11.846,11.846,0,0,1-.65,3.4,9.7,9.7,0,0,1-1.6,2.91,7.561,7.561,0,0,1-2.5,2.031A7.449,7.449,0,0,1,236.432,284.63Zm-69.059-15.417h0a6.674,6.674,0,0,1-.843-.054,11.167,11.167,0,0,1-4.217-1.292,8.705,8.705,0,0,1-2.8-2.473,9.514,9.514,0,0,1-1.512-3.24,11.644,11.644,0,0,1-.341-3.591,12.636,12.636,0,0,1,.72-3.555,10.967,10.967,0,0,1,1.665-3.066,8.063,8.063,0,0,1,2.485-2.151,6.592,6.592,0,0,1,3.183-.812,8.33,8.33,0,0,1,3.47.817,15.1,15.1,0,0,1,3.866,2.677,6.12,6.12,0,0,1,1.7,1.922,7.668,7.668,0,0,1,.862,2.454,10.392,10.392,0,0,1,.1,2.745,12.762,12.762,0,0,1-1.783,5.41,10.424,10.424,0,0,1-1.742,2.174,7.813,7.813,0,0,1-2.208,1.485A6.435,6.435,0,0,1,167.373,269.214ZM373.122,266.9a9.351,9.351,0,0,1-2.722-.4,8.476,8.476,0,0,1-2.527-1.253,8.578,8.578,0,0,1-2.093-2.2,10.8,10.8,0,0,1-1.419-3.227,4.724,4.724,0,0,1-.284-2.425,5.187,5.187,0,0,1,.886-2.162,7.609,7.609,0,0,1,1.528-1.614,10.3,10.3,0,0,1,2.008-1.246,11,11,0,0,1,4.62-1.087,6.919,6.919,0,0,1,2.93.59,4.673,4.673,0,0,1,2.117,1.9,11.289,11.289,0,0,1,2.952,4.679,6.345,6.345,0,0,1,.242,2.085,5.6,5.6,0,0,1-.431,1.86,6.206,6.206,0,0,1-1.234,1.862,7.807,7.807,0,0,1-1.838,1.416,9.368,9.368,0,0,1-2.254.9,9.926,9.926,0,0,1-2.481.316h0ZM57.1,264.974h0a9.194,9.194,0,0,1-3.889-.871,14.08,14.08,0,0,1-2.995-4.061,9.424,9.424,0,0,1-.744-2.212,6.734,6.734,0,0,1-.082-2.188,5.587,5.587,0,0,1,1.048-2.59,7.661,7.661,0,0,1,2.573-2.148,22.986,22.986,0,0,0,3.348-2.294c1.037-.822,1.723-1.365,2.618-1.365.971,0,2.165.643,4.258,2.292a10.172,10.172,0,0,1,2.039,2.112,7.752,7.752,0,0,1,1.112,2.271,7.2,7.2,0,0,1,.288,2.319,7.825,7.825,0,0,1-.432,2.257,9.7,9.7,0,0,1-3.472,4.584,10.031,10.031,0,0,1-2.656,1.386A9.292,9.292,0,0,1,57.1,264.974Zm52.718-.193h0a6.076,6.076,0,0,1-2.33-.464,7.375,7.375,0,0,1-2.251-1.5,8.76,8.76,0,0,1-2.256-1.78,7.07,7.07,0,0,1-1.322-2.139,7.619,7.619,0,0,1-.208-4.728,9.517,9.517,0,0,1,1.192-2.706,9.967,9.967,0,0,1,1.987-2.271,9.269,9.269,0,0,1,2.624-1.563,8.571,8.571,0,0,1,3.1-.582,9.324,9.324,0,0,1,3.433.676,9.222,9.222,0,0,1,2.833,1.093,6.022,6.022,0,0,1,1.81,1.673,5.7,5.7,0,0,1,.9,2.086,7.321,7.321,0,0,1,.1,2.333,9.728,9.728,0,0,1-.371,1.774,11.76,11.76,0,0,1-.7,1.752,13.271,13.271,0,0,1-2.195,3.172,12.093,12.093,0,0,1-1.409,1.288,10.219,10.219,0,0,1-1.558,1A7.351,7.351,0,0,1,109.816,264.781Zm218.359-1.349h0a11.089,11.089,0,0,1-2.6-.336,12.725,12.725,0,0,1-2.548-.924,8.884,8.884,0,0,1-2.085-1.388,4.32,4.32,0,0,1-1.214-1.728,7.482,7.482,0,0,1-1.179-3.744,6.229,6.229,0,0,1,.2-1.709,6.578,6.578,0,0,1,.631-1.554,7.589,7.589,0,0,1,1.347-1.733,8.772,8.772,0,0,1,1.795-1.334,9.143,9.143,0,0,1,2.083-.857,8.413,8.413,0,0,1,2.211-.3,7.281,7.281,0,0,1,1.924.253,6.512,6.512,0,0,1,1.792.793,7.246,7.246,0,0,1,2.752,3.419,28.843,28.843,0,0,1,1.149,2.892,5.071,5.071,0,0,1,.283,2.063,3.949,3.949,0,0,1-.715,1.813,15.417,15.417,0,0,1-1.846,2.142,2.617,2.617,0,0,1-1.412,1.71,4.489,4.489,0,0,1-1.181.4A7.14,7.14,0,0,1,328.175,263.432ZM13.749,260.927h0a10.546,10.546,0,0,1-3.1-.5,14.057,14.057,0,0,1-3.055-1.372,13.756,13.756,0,0,1-2.648-2.045,10.056,10.056,0,0,1-1.88-2.518,6.315,6.315,0,0,1-.749-3.114,5.735,5.735,0,0,1,1.143-3.182A11.7,11.7,0,0,1,7.5,244.82a10.119,10.119,0,0,1,2.206-.79,9.88,9.88,0,0,1,2.22-.253,9.723,9.723,0,0,1,4.94,1.336,8.492,8.492,0,0,1,3.361,3.575,7.731,7.731,0,0,1,.693,2.23,8.282,8.282,0,0,1-.013,2.5A12.139,12.139,0,0,1,18.292,259a5.008,5.008,0,0,1-2.011,1.471A6.707,6.707,0,0,1,13.749,260.927Zm245.667-.578h0a6.049,6.049,0,0,1-2.657-.646,14.865,14.865,0,0,1-3.447-2.348,10.666,10.666,0,0,1-2.143-2.718,8.457,8.457,0,0,1-.957-2.84,7.263,7.263,0,0,1,.113-2.712,6.566,6.566,0,0,1,.805-1.949,6.168,6.168,0,0,1,1.378-1.561,6.633,6.633,0,0,1,4.216-1.412,9.6,9.6,0,0,1,2.97.5,14.647,14.647,0,0,1,3.339,1.626,6.312,6.312,0,0,1,1.866,1.526,6.067,6.067,0,0,1,1.069,1.953,7.211,7.211,0,0,1,.354,2.2,8.79,8.79,0,0,1-.28,2.262,9.228,9.228,0,0,1-2.418,4.277,6.778,6.778,0,0,1-1.933,1.343A5.484,5.484,0,0,1,259.416,260.349ZM214.988,259h0c-1.3,0-2.59-.089-3.84-.175-1-.069-1.938-.133-2.748-.14a10.7,10.7,0,0,1-2.932-1.6,7.348,7.348,0,0,1-1.828-2.081,6.739,6.739,0,0,1-.832-2.4,7.953,7.953,0,0,1,.056-2.562,11.971,11.971,0,0,1,4.006-6.695,12.725,12.725,0,0,1,3.569-2.2,11.158,11.158,0,0,1,4.206-.836,10.906,10.906,0,0,1,3.279.51,6.43,6.43,0,0,1,1.589.726,5.6,5.6,0,0,1,1.195,1.032,7.126,7.126,0,0,1,1.431,2.76,25.181,25.181,0,0,1,.606,6.742c0,.78,0,1.516.027,2.211a4.946,4.946,0,0,1-.869,2.4,4.636,4.636,0,0,1-1.77,1.435,8.383,8.383,0,0,1-2.4.7A18.145,18.145,0,0,1,214.988,259Zm72.934-3.083a5.85,5.85,0,0,1-4.624-2.2,9.021,9.021,0,0,1-1.912-5.041,10.475,10.475,0,0,1,.234-3.182,9.166,9.166,0,0,1,1.235-2.947,7.876,7.876,0,0,1,2.294-2.312,8.618,8.618,0,0,1,3.411-1.277,7.008,7.008,0,0,1,1.607-.2,5.372,5.372,0,0,1,2.377.533,5.653,5.653,0,0,1,1.821,1.435,7.729,7.729,0,0,1,1.25,2.092,10.325,10.325,0,0,1,.662,2.5,11.586,11.586,0,0,1,.008,3.1,10.165,10.165,0,0,1-.835,2.941,7.559,7.559,0,0,1-1.7,2.392,6.3,6.3,0,0,1-2.6,1.456A8.554,8.554,0,0,1,287.922,255.917Zm-146.095-3.276a16.8,16.8,0,0,1-3.939-.548,9.865,9.865,0,0,1-4.695-3.916,6.223,6.223,0,0,1-.752-2.272,6.857,6.857,0,0,1,.119-2.327A9.505,9.505,0,0,1,134,240.324a13.015,13.015,0,0,1,2.539-2.768,12.79,12.79,0,0,1,3.194-1.924,8.991,8.991,0,0,1,3.4-.721,6.365,6.365,0,0,1,2.1.343,5.754,5.754,0,0,1,1.882,1.1,8.95,8.95,0,0,1,2.616,4.837c-.089.41-.174.813-.257,1.2-.633,2.982-1.18,5.557-2.249,7.372a5.6,5.6,0,0,1-2.075,2.12,6.625,6.625,0,0,1-3.326.759h0Zm210.3-3.084h0a10.114,10.114,0,0,1-4.876-1.254,9.9,9.9,0,0,1-3.655-3.485,10.19,10.19,0,0,1-1.129-2.593,11.324,11.324,0,0,1-.408-3.037,15.881,15.881,0,0,1,1.873-7.164,4.927,4.927,0,0,1,1.266-2.111,8.274,8.274,0,0,1,2.22-1.576,13.18,13.18,0,0,1,5.733-1.327,8.464,8.464,0,0,1,3.908.829,4.262,4.262,0,0,1,1.343,1.072,3.443,3.443,0,0,1,.711,1.542,12.507,12.507,0,0,1,1.3,3.416c.277,1.175.44,2.4.6,3.575h0c.128.959.26,1.95.453,2.907a14.416,14.416,0,0,0,.831,2.794,15.666,15.666,0,0,1-2.222,2.892,12.551,12.551,0,0,1-2.521,1.993,10.953,10.953,0,0,1-2.691,1.153A10.3,10.3,0,0,1,352.125,249.557ZM80.189,247.63h0a9.98,9.98,0,0,1-3.226-.57,11.2,11.2,0,0,1-3.012-1.6A9.3,9.3,0,0,1,71.643,243a7.267,7.267,0,0,1-1.112-3.164,14.106,14.106,0,0,1,1.5-4.415,11.162,11.162,0,0,1,2.486-3.1,10.084,10.084,0,0,1,3.069-1.824,9.285,9.285,0,0,1,3.251-.6,7.814,7.814,0,0,1,3.506.8,6.485,6.485,0,0,1,1.439.984,6.111,6.111,0,0,1,1.122,1.362,6.556,6.556,0,0,1,.774,1.935,8.366,8.366,0,0,1,.178,2.373,15.168,15.168,0,0,1-1.871,6.009,5.965,5.965,0,0,1-.846,1.929,5.023,5.023,0,0,1-1.331,1.327,5.647,5.647,0,0,1-1.692.765A7.34,7.34,0,0,1,80.189,247.63Zm-40.452-6.359h0a16.133,16.133,0,0,1-5.005-.776,11.687,11.687,0,0,1-2.263-1.012,8.487,8.487,0,0,1-1.867-1.467,6.64,6.64,0,0,1-1.42-2.269,7.266,7.266,0,0,1-.407-2.942,11.505,11.505,0,0,0,.005-2.41h0a16.964,16.964,0,0,1-.034-2.431,3.064,3.064,0,0,1,.68-1.884,1.8,1.8,0,0,1,.673-.447,2.746,2.746,0,0,1,.981-.161c.076,0,.152,0,.233.007a12.6,12.6,0,0,1,3.3-1.584c1.15-.376,2.355-.643,3.521-.9h0c.947-.21,1.926-.426,2.864-.7a14.535,14.535,0,0,0,2.718-1.064,7.463,7.463,0,0,1,3.248,1.8,11.116,11.116,0,0,1,2.352,3.177,14.667,14.667,0,0,1,1.32,3.93,14.337,14.337,0,0,1,.23,2.054,12.627,12.627,0,0,1-.08,2.01,8.308,8.308,0,0,1-2.093,4.812,6.229,6.229,0,0,1-2.174,1.467,7.964,7.964,0,0,1-2.994.54c-.271,0-.553-.011-.838-.033A14.932,14.932,0,0,1,39.737,241.271Zm272.915-1.542h0a9.266,9.266,0,0,1-3.389-.616,7.764,7.764,0,0,1-2.893-1.958,5.8,5.8,0,0,1-1.42-3.269,9.889,9.889,0,0,1-.061-2.025,11.35,11.35,0,0,1,.338-2.069,9.632,9.632,0,0,1,1.561-3.354,6.236,6.236,0,0,1,1.2-1.222,4.647,4.647,0,0,1,1.452-.754,23.571,23.571,0,0,1,5.178-.728,9.56,9.56,0,0,1,2.137.22,5.525,5.525,0,0,1,1.832.761,4.306,4.306,0,0,1,1.357,1.456,6.046,6.046,0,0,1,.71,2.3,7.756,7.756,0,0,1,1.167,3.73,6,6,0,0,1-.807,3.177,7.36,7.36,0,0,1-1.47,1.8,9.3,9.3,0,0,1-2.006,1.37,10.86,10.86,0,0,1-4.885,1.175Zm-131.608-1.734a4.716,4.716,0,0,1-1.634-.518,6.726,6.726,0,0,1-1.491-1.082A11.26,11.26,0,0,1,175.551,233a14.518,14.518,0,0,1-.933-2.621,13.391,13.391,0,0,1-.4-2.732,8.317,8.317,0,0,1,1.151-4.884,9.821,9.821,0,0,1,1.756-2.171,9.5,9.5,0,0,1,2.162-1.5,10.441,10.441,0,0,1,2.447-.866,12.09,12.09,0,0,1,2.612-.279,13.872,13.872,0,0,1,3.284.4,14.628,14.628,0,0,1,3.124,1.153,13.541,13.541,0,0,1,2.735,1.82,11.355,11.355,0,0,1,2.118,2.4,9.28,9.28,0,0,1,1.505,4.342,10.488,10.488,0,0,1-.961,5.137c-1.929,2.639-5.694,3.126-9.335,3.6h0c-1.016.132-2.066.268-3.042.449A14.793,14.793,0,0,0,181.044,237.995Zm97.1-5.4h0a5.3,5.3,0,0,1-1.742-.3,6.118,6.118,0,0,1-1.583-.837,8.161,8.161,0,0,1-2.438-2.949,9.823,9.823,0,0,1-.844-2.446,10.2,10.2,0,0,1,.42-5.551,11,11,0,0,1,1.509-2.777,8.74,8.74,0,0,1,2.656-1.75,7.094,7.094,0,0,1,2.708-.543,7.288,7.288,0,0,1,3.953,1.191,7.907,7.907,0,0,1,2.767,3.074,7.591,7.591,0,0,1,.664,1.907,7.423,7.423,0,0,1,.124,2.084,7.86,7.86,0,0,1-.5,2.18,9.4,9.4,0,0,1-1.219,2.2,11.38,11.38,0,0,1-3.207,3.467A5.87,5.87,0,0,1,278.146,232.6Zm-163.621-1.156h0a8.241,8.241,0,0,1-3.138-.622,7.607,7.607,0,0,1-1.387-.753,6.978,6.978,0,0,1-1.184-1.025,6.394,6.394,0,0,1-1.349-2.259,7.011,7.011,0,0,1-.333-2.888c-.261-.445-.543-.855-.815-1.251a7.287,7.287,0,0,1-1.217-2.28,3.147,3.147,0,0,1,.643-2.616,7.461,7.461,0,0,1,2.931-3.091,7.2,7.2,0,0,1,1.832-.717,8.339,8.339,0,0,1,1.966-.228,11.4,11.4,0,0,1,5.93,1.8,10.583,10.583,0,0,1,4.1,4.509,7.416,7.416,0,0,1,.569,1.931,6.687,6.687,0,0,1-.012,2.038,8.216,8.216,0,0,1-2.136,4.181,7.715,7.715,0,0,1-4.629,3.076A8.114,8.114,0,0,1,114.525,231.443Zm120.331-2.312h0a7.178,7.178,0,0,1-1.956-.266,6.755,6.755,0,0,1-1.84-.835,8.3,8.3,0,0,1-2.962-3.592,7.251,7.251,0,0,1-.007-.91h0a9.931,9.931,0,0,0-.045-1.636,2.384,2.384,0,0,0-.6-1.415,7.8,7.8,0,0,1-1.177-3.166,4.025,4.025,0,0,1,.472-2.438,4.371,4.371,0,0,1,1.1-1.262,6.409,6.409,0,0,1,1.578-.9,10.931,10.931,0,0,1,4.082-.726,13.976,13.976,0,0,1,3.325.4,12.182,12.182,0,0,1,3.108,1.213,7.549,7.549,0,0,1,3.877,4.888,8.292,8.292,0,0,1-.142,3.881,8.643,8.643,0,0,1-.692,1.723,9.285,9.285,0,0,1-1.023,1.53,9.935,9.935,0,0,1-3.222,2.564A8.751,8.751,0,0,1,234.856,229.13ZM63.685,224.7h0a3.1,3.1,0,0,1-.937-.146,7.857,7.857,0,0,1-2.72-1.333,6.419,6.419,0,0,1-1.71-2.017,8.431,8.431,0,0,1-.79-5.2,12.569,12.569,0,0,1,2.977-6.463,9.454,9.454,0,0,1,2.691-2.143,6.933,6.933,0,0,1,3.221-.815,7.987,7.987,0,0,1,4.979,1.925A10.958,10.958,0,0,1,74.21,211.6a10.373,10.373,0,0,1,1.036,2.052,3.953,3.953,0,0,1,.27,1.858,21.074,21.074,0,0,1-2.087,4.471c-1.089,1.673-2.237,2.521-3.413,2.522a2.76,2.76,0,0,1-1.18-.28,15.562,15.562,0,0,0-1.564.948A6.95,6.95,0,0,1,63.685,224.7Zm84.248-1.734a18.036,18.036,0,0,1-3.476-.363,19.128,19.128,0,0,1-3.37-1,11.947,11.947,0,0,1-2.739-1.5,4.733,4.733,0,0,1-1.583-1.874,14.639,14.639,0,0,1-.889-5.454,6.952,6.952,0,0,1,1.219-3.713,6.015,6.015,0,0,1,2.544-2.016,7.686,7.686,0,0,1,1.61-.49,9.341,9.341,0,0,1,1.749-.161,11.17,11.17,0,0,1,2.537.3,12.31,12.31,0,0,1,2.5.88,11.375,11.375,0,0,1,4.188,3.366A9.508,9.508,0,0,1,154,214.968a11.11,11.11,0,0,1-.323,5.1,2.905,2.905,0,0,1-.7,1.318,3.963,3.963,0,0,1-1.282.9,7.1,7.1,0,0,1-1.729.513A11.929,11.929,0,0,1,147.934,222.964Zm223.012-3.276h0a12.325,12.325,0,0,1-5.366-1.207,9.534,9.534,0,0,1-3.93-3.42,8.327,8.327,0,0,1-1.281-4.341,12.3,12.3,0,0,1,1.32-5.5,9.277,9.277,0,0,1,3.381-4.408,7.83,7.83,0,0,1,2.219-1.026,8.8,8.8,0,0,1,2.412-.327,11.558,11.558,0,0,1,4.945,1.189,13.756,13.756,0,0,1,4.273,3.213,12.782,12.782,0,0,1,1.395,1.881,11.659,11.659,0,0,1,1.011,2.117,10.536,10.536,0,0,1,.557,4.773,12.327,12.327,0,0,1-2.029,3.171,11.34,11.34,0,0,1-2.65,2.2A12.156,12.156,0,0,1,370.946,219.688ZM15.21,217.76h0a6.859,6.859,0,0,1-2.361-.414,7.334,7.334,0,0,1-2.244-1.327,6.748,6.748,0,0,1-2.53-3.8,6.848,6.848,0,0,1-.15-2.111,8.605,8.605,0,0,1,.455-2.121,11.163,11.163,0,0,1,1.467-2.811,12.536,12.536,0,0,1,2.172-2.353A10.491,10.491,0,0,1,14.6,201.21a6.906,6.906,0,0,1,2.712-.6c1.523,0,3.627.637,5,3.673a7.923,7.923,0,0,1,1.225,1.987,6.953,6.953,0,0,1,.518,2.051,7.223,7.223,0,0,1-.1,2.036,8.238,8.238,0,0,1-.636,1.94,9.5,9.5,0,0,1-1.406,2.16,10.068,10.068,0,0,1-1.932,1.733,9.269,9.269,0,0,1-2.29,1.153A7.787,7.787,0,0,1,15.21,217.76Zm317.648-1.542h0a9.72,9.72,0,0,1-2.206-.249,8.748,8.748,0,0,1-2.092-.778,9,9,0,0,1-3.48-3.332,10.888,10.888,0,0,1-1.326-5.276,8.762,8.762,0,0,1,1.307-4.382,10.564,10.564,0,0,1,1.985-2.363,12.654,12.654,0,0,1,2.575-1.774,13.476,13.476,0,0,1,2.906-1.116,12.054,12.054,0,0,1,2.979-.387,7.939,7.939,0,0,1,4.949,1.529,6.145,6.145,0,0,1,1.665,2,7.9,7.9,0,0,1,.829,2.907,8.424,8.424,0,0,1,.817,4.3,8.256,8.256,0,0,1-1.307,3.771A11.743,11.743,0,0,1,332.857,216.219Zm-156-5.4-12.756-.232c-2.316-1.513-3.325-3.138-3.173-5.114a8.4,8.4,0,0,1,.795-2.774c.428-.959.981-1.95,1.567-3h0l.032-.057.262-.47a8.613,8.613,0,0,1,1.062-2.186,5.486,5.486,0,0,1,1.381-1.4,5.9,5.9,0,0,1,3.456-.957,23.093,23.093,0,0,1,6.106,1.2c.471.136.915.264,1.361.386a6.482,6.482,0,0,1,1.818,1.2,6.975,6.975,0,0,1,1.3,1.671,8.7,8.7,0,0,1,1.074,4.155,9.511,9.511,0,0,1-.247,2.287,8.751,8.751,0,0,1-.8,2.139,7.57,7.57,0,0,1-1.349,1.819A6.869,6.869,0,0,1,176.855,210.823ZM299,209.859h0a8.735,8.735,0,0,1-3.27-.678,11.875,11.875,0,0,1-3-1.786,12.222,12.222,0,0,1-2.358-2.524,8.618,8.618,0,0,1-1.334-2.892,5.8,5.8,0,0,1-.152-1.758,4.755,4.755,0,0,1,.435-1.677,6.125,6.125,0,0,1,2.958-2.79,8.555,8.555,0,0,1,2.493-1.443,7.393,7.393,0,0,1,2.532-.448,7.942,7.942,0,0,1,2.857.545,9.377,9.377,0,0,1,2.525,1.47,10.063,10.063,0,0,1,1.985,2.149,9.088,9.088,0,0,1,1.236,2.582,7.523,7.523,0,0,1,.309,2.182,6.581,6.581,0,0,1-.389,2.177,6.844,6.844,0,0,1-1.191,2.052,9.01,9.01,0,0,1-2.094,1.806A6.341,6.341,0,0,1,299,209.859Zm-89.24,0h0a7.735,7.735,0,0,1-2.578-.47,10.245,10.245,0,0,1-2.471-1.29,10.114,10.114,0,0,1-3.554-4.318,7.339,7.339,0,0,1-.5-1.9,6.408,6.408,0,0,1,.064-1.973,7.458,7.458,0,0,1,2.221-3.91,5.166,5.166,0,0,1,2.213-1.29,10.139,10.139,0,0,1,3.085-.461,10.438,10.438,0,0,1,2.291.248,7.922,7.922,0,0,1,2.1.777,5.454,5.454,0,0,1,1.64,1.354,4.663,4.663,0,0,1,.925,1.981,14.856,14.856,0,0,0,.676,1.914,16.3,16.3,0,0,1,.8,2.3,3.147,3.147,0,0,1-.073,2.051,2.033,2.033,0,0,1-.578.729,3.326,3.326,0,0,1-1.045.541,6.07,6.07,0,0,1-2.2,2.843A5.32,5.32,0,0,1,209.761,209.859Zm49.47-.385a8.1,8.1,0,0,1-2.842-.511,8.9,8.9,0,0,1-2.728-1.647,11.262,11.262,0,0,1-1.619-2.941,12.071,12.071,0,0,1-.707-3.175,11.488,11.488,0,0,1,1.053-5.978,8.566,8.566,0,0,1,1.049-1.642A7.014,7.014,0,0,1,254.8,192.3a6.128,6.128,0,0,1,1.658-.834,6.27,6.27,0,0,1,1.929-.3,9.634,9.634,0,0,1,4.945,1.578,13.7,13.7,0,0,1,2.918,2.268,9.032,9.032,0,0,1,1.712,2.476,7.327,7.327,0,0,1,.653,2.552,7.482,7.482,0,0,1-.258,2.493,8.761,8.761,0,0,1-1.286,2.7,10.068,10.068,0,0,1-2.115,2.206A9.493,9.493,0,0,1,259.231,209.474Zm-165.058-.385a7.582,7.582,0,0,1-4.282-1.365c-1.977-3.925-1.909-9.214.162-12.577a6.932,6.932,0,0,1,2.27-2.328,6.113,6.113,0,0,1,3.237-.881,10.911,10.911,0,0,1,5.16,1.532,7.724,7.724,0,0,1,1.717,1.937,7,7,0,0,1,.879,2.193,8.5,8.5,0,0,1-.377,4.627,11.107,11.107,0,0,1-3.416,4.822A9.512,9.512,0,0,1,97,208.538a7.725,7.725,0,0,1-2.828.551h0Zm-60.9-6.938A7.583,7.583,0,0,1,29,200.786c-1.978-3.924-1.91-9.212.161-12.575a6.932,6.932,0,0,1,2.271-2.329A6.114,6.114,0,0,1,34.665,185a10.907,10.907,0,0,1,5.158,1.531,7.727,7.727,0,0,1,1.718,1.938,7,7,0,0,1,.879,2.193,8.5,8.5,0,0,1-.377,4.627,11.106,11.106,0,0,1-3.416,4.822,9.51,9.51,0,0,1-2.521,1.489,7.725,7.725,0,0,1-2.828.551h0Zm94.287-.193h0a9.562,9.562,0,0,1-1.1-.066,11.6,11.6,0,0,1-3.745-1.212,10.412,10.412,0,0,1-2.814-2.163,9.249,9.249,0,0,1-1.762-2.753,7.6,7.6,0,0,1-.588-2.982,6.342,6.342,0,0,1,.481-2.366,6.254,6.254,0,0,1,1.422-2.078,8,8,0,0,1,2.43-1.589,12.676,12.676,0,0,1,3.506-.9,8.31,8.31,0,0,1,1.112-.077,6.874,6.874,0,0,1,5.386,2.529,9.118,9.118,0,0,1,1.52,2.593,10.544,10.544,0,0,1,.681,2.972,8.126,8.126,0,0,1-1.828,6.187,5.688,5.688,0,0,1-1.976,1.391A6.939,6.939,0,0,1,127.565,201.958Zm224.88-10.021h0a8.831,8.831,0,0,1-3.336-.667,10.475,10.475,0,0,1-2.91-1.37,6.733,6.733,0,0,1-1.824-1.852,5.966,5.966,0,0,1-.86-2.182,7.166,7.166,0,0,1-.019-2.358,9.219,9.219,0,0,1,.437-1.717,11.085,11.085,0,0,1,.763-1.672,12.777,12.777,0,0,1,2.321-2.982,12.233,12.233,0,0,1,1.468-1.2,10.814,10.814,0,0,1,1.612-.925,8.281,8.281,0,0,1,3.476-.808,6.847,6.847,0,0,1,3.258.818,9.144,9.144,0,0,1,3,2.7,8.022,8.022,0,0,1,1.292,2.071,7.446,7.446,0,0,1,.556,2.191,8.423,8.423,0,0,1-.778,4.323,9.845,9.845,0,0,1-1.413,2.215,10,10,0,0,1-1.964,1.787A8.922,8.922,0,0,1,352.445,191.938Zm-120.651-.193h0a16.1,16.1,0,0,1-2.866-.26,16.312,16.312,0,0,1-2.724-.743,15.512,15.512,0,0,1-2.483-1.172,13.748,13.748,0,0,1-2.144-1.547,9.436,9.436,0,0,1-2.339-4.3,6.145,6.145,0,0,1,.43-3.818,8.254,8.254,0,0,1,1.865-2.564,12.3,12.3,0,0,1,2.812-1.981,15.367,15.367,0,0,1,3.381-1.277,14.761,14.761,0,0,1,3.572-.452,9.712,9.712,0,0,1,5.533,1.527,6.775,6.775,0,0,1,1.938,2.027,7.889,7.889,0,0,1,1.056,2.974A10.343,10.343,0,0,0,241.076,183a7.174,7.174,0,0,1,1.153,2.9,2.661,2.661,0,0,1-.327,1.457,4.983,4.983,0,0,1-1.379,1.524A14.355,14.355,0,0,1,231.795,191.745Zm-172.6-.771h0a11.1,11.1,0,0,1-2.742-.354,11.929,11.929,0,0,1-2.624-1.012,10.757,10.757,0,0,1-2.271-1.6,8.627,8.627,0,0,1-1.683-2.106,7.023,7.023,0,0,1-.917-3.741,9.132,9.132,0,0,1,1.446-4.413,24.182,24.182,0,0,1,2.116-2.962,2.1,2.1,0,0,1,1.663-.774,11.423,11.423,0,0,1,2.024.3c.573.115,1.223.245,2.022.377.7.257,1.427.477,2.13.69a13.82,13.82,0,0,1,4.3,1.817,4.528,4.528,0,0,1,1.388,1.647,5.8,5.8,0,0,1,.538,2.552,12,12,0,0,1-.207,4.333,7,7,0,0,1-1.529,2.96,6.491,6.491,0,0,1-2.535,1.732A8.6,8.6,0,0,1,59.191,190.974Zm131.339-3.661h0a12.911,12.911,0,0,1-2.314-.2,10.7,10.7,0,0,1-2.175-.634,8.424,8.424,0,0,1-3.546-2.7,9.688,9.688,0,0,1-1.916-5.223,9.2,9.2,0,0,1,.23-2.532,10.311,10.311,0,0,1,.874-2.37,11.9,11.9,0,0,1,1.847-2.632A12.85,12.85,0,0,1,186,168.94a12.055,12.055,0,0,1,2.876-1.369,10.067,10.067,0,0,1,3.057-.493,8.481,8.481,0,0,1,2.538.38,8.153,8.153,0,0,1,2.379,1.205,11.4,11.4,0,0,1,3.76,5.267c2,2.5,2.452,5.075,1.312,7.447a8.142,8.142,0,0,1-1.835,2.421,12.035,12.035,0,0,1-2.731,1.874A15.338,15.338,0,0,1,190.529,187.313Zm-37.98-.385h0a12.223,12.223,0,0,1-2.185-.192,10.009,10.009,0,0,1-2.038-.593,7.555,7.555,0,0,1-3.257-2.5,10.273,10.273,0,0,1-1.168-3.15,16.6,16.6,0,0,1-.328-3.822,18.344,18.344,0,0,1,.534-3.984,14.466,14.466,0,0,1,1.42-3.638,9.038,9.038,0,0,1,2.746-3.087,6.96,6.96,0,0,1,3.974-1.2,8.551,8.551,0,0,1,1.037.065,11.726,11.726,0,0,0,2.419.215,16.966,16.966,0,0,1,2.481.184,3,3,0,0,1,1.835.878,1.821,1.821,0,0,1,.38.779,3.04,3.04,0,0,1,.019,1.1,12.474,12.474,0,0,1,1.3,3.414c.278,1.175.441,2.394.6,3.573v0c.128.958.26,1.95.454,2.9a14.376,14.376,0,0,0,.832,2.791,7.473,7.473,0,0,1-1.669,2.58,10.877,10.877,0,0,1-2.644,1.972,14.037,14.037,0,0,1-3.252,1.26A14.265,14.265,0,0,1,152.549,186.927Zm162.8-1.542h0a4.768,4.768,0,0,1-2.061-.46,5.37,5.37,0,0,1-1.662-1.254,7.371,7.371,0,0,1-1.217-1.863,9.754,9.754,0,0,1-.725-2.285,11.251,11.251,0,0,1-.132-3.284,10.751,10.751,0,0,1,.871-3.276,9.27,9.27,0,0,1,5.153-4.916,6.511,6.511,0,0,1,2.247-.392,7.6,7.6,0,0,1,1.712.2,9.046,9.046,0,0,1,1.666.568,10.975,10.975,0,0,1,2.98,2.015,10.717,10.717,0,0,1,2.15,2.82,8.446,8.446,0,0,1,.629,1.574,6.811,6.811,0,0,1,.259,1.611,20.79,20.79,0,0,1-2.068,4.419c-1.079,1.653-2.217,2.491-3.381,2.492a2.74,2.74,0,0,1-1.17-.277,11.409,11.409,0,0,1-2.784,1.763A6.314,6.314,0,0,1,315.35,185.385Zm-24.761-1.156h0a10.8,10.8,0,0,1-4.5-.973,9.334,9.334,0,0,1-1.95-1.2,8.14,8.14,0,0,1-1.565-1.666c-1.154-1.65-2.2-4.533-.6-8.9a10.517,10.517,0,0,1,1.044-2.012,5.759,5.759,0,0,1,1.191-1.3,4.313,4.313,0,0,1,2.757-.908,16.082,16.082,0,0,1,5.322,1.4,23.557,23.557,0,0,0,5.051,1.506,15.791,15.791,0,0,1,1.551,6.217,7.778,7.778,0,0,1-1.176,4.374,6.861,6.861,0,0,1-1.351,1.524,7.683,7.683,0,0,1-1.712,1.079A9.73,9.73,0,0,1,290.588,184.229ZM21.511,177.87h0a19.681,19.681,0,0,1-4.99-.968l-.145-.041a18.466,18.466,0,0,0-4.6-.927c-.077,0-.154,0-.228,0a3.934,3.934,0,0,1-1.107-.875,5.263,5.263,0,0,1-.812-1.243,8.5,8.5,0,0,1-.749-3.2,10.958,10.958,0,0,1,.7-4.427,6.87,6.87,0,0,1,2.511-3.321,7.608,7.608,0,0,1,2.262-1.2,7.729,7.729,0,0,1,2.4-.375,9.279,9.279,0,0,1,3.068.543,11.366,11.366,0,0,1,2.835,1.481,11.194,11.194,0,0,1,3.933,4.888,8.287,8.287,0,0,1,.538,2.141,7.157,7.157,0,0,1-.1,2.2,7.944,7.944,0,0,1-2.5,4.232A4.047,4.047,0,0,1,21.511,177.87Zm100.327-.771h0a5.89,5.89,0,0,1-2.023-.356,6.319,6.319,0,0,1-1.748-.984A8.276,8.276,0,0,1,115.6,172.4a10,10,0,0,1-.634-5.307,9.232,9.232,0,0,1,.844-2.678,9.07,9.07,0,0,1,1.739-2.41,10.629,10.629,0,0,1,2.789-2.014,5.977,5.977,0,0,1,2.564-.619,4.979,4.979,0,0,1,1.939.393,5.87,5.87,0,0,1,1.668,1.082,8.971,8.971,0,0,1,2.322,3.648,11.473,11.473,0,0,1,.483,5.876,8.577,8.577,0,0,1-2.968,5.164A8.013,8.013,0,0,1,121.838,177.1Zm137.385-4.047h0a13.4,13.4,0,0,1-2.951-.305,6.87,6.87,0,0,1-2.3-.924,10.332,10.332,0,0,1-2.561-4.964,7.483,7.483,0,0,1-.046-2.314,7.68,7.68,0,0,1,.621-2.128A9.054,9.054,0,0,1,253.607,160a11.221,11.221,0,0,1,7.929-3.525,8.044,8.044,0,0,1,2.976.544,6.948,6.948,0,0,1,2.542,1.734,8.527,8.527,0,0,1,1.789,3.076,14.733,14.733,0,0,1,.717,4.569,4.172,4.172,0,0,1-1.085,3.406,9.158,9.158,0,0,1-4.029,2.423A17.077,17.077,0,0,1,259.223,173.052ZM83.683,171.7a3.486,3.486,0,0,1-1.986-.72,7.894,7.894,0,0,1-2.278-1.777,6.961,6.961,0,0,1-1.309-2.243,8.932,8.932,0,0,1-.14-5.153,12.2,12.2,0,0,1,3.288-5.715,9.5,9.5,0,0,1,2.619-1.824,7.16,7.16,0,0,1,3.007-.683,6.854,6.854,0,0,1,2.607.524,9.137,9.137,0,0,1,2.628,1.7,7.736,7.736,0,0,1,2.957,4.161,8.061,8.061,0,0,1,.312,2.4A8.208,8.208,0,0,1,95,164.726a7.719,7.719,0,0,1-.921,1.917,6.9,6.9,0,0,1-1.416,1.556,6.382,6.382,0,0,1-1.87,1.044,6.823,6.823,0,0,1-2.284.382c-.217,0-.44-.01-.662-.028-.443.261-.851.541-1.246.813h0a12.692,12.692,0,0,1-1.443.9A3.219,3.219,0,0,1,83.683,171.7ZM377.7,169.2h0a8.314,8.314,0,0,1-3.272-.668,9.784,9.784,0,0,1-3.114-2.163,14.494,14.494,0,0,1-1.146-3,11.33,11.33,0,0,1-.36-2.8,9.545,9.545,0,0,1,.343-2.545,8.743,8.743,0,0,1,.965-2.22,8.641,8.641,0,0,1,1.473-1.8,9.026,9.026,0,0,1,1.915-1.364,9.761,9.761,0,0,1,2.279-.864,10.855,10.855,0,0,1,2.565-.3,12.6,12.6,0,0,1,3.33.462,15.5,15.5,0,0,1,3.494,1.458,9.085,9.085,0,0,1,1.368,2.342,8.261,8.261,0,0,1,.552,2.429,8.773,8.773,0,0,1-.167,2.415,10.019,10.019,0,0,1-.787,2.3,11.348,11.348,0,0,1-1.646,2.5,11.748,11.748,0,0,1-2.239,2,10.714,10.714,0,0,1-2.656,1.334A9.126,9.126,0,0,1,377.7,169.2ZM55.969,162.26h0a10.473,10.473,0,0,1-4.171-.785,6.207,6.207,0,0,1-1.624-1.021,4.82,4.82,0,0,1-1.134-1.474A10.74,10.74,0,0,1,48,153.908a8.431,8.431,0,0,1,1.342-4.1,9.727,9.727,0,0,1,3.691-3.309,10.62,10.62,0,0,1,2.327-.886A10.023,10.023,0,0,1,57.8,145.3a8.527,8.527,0,0,1,3.068.549,7.378,7.378,0,0,1,2.637,1.721,8.4,8.4,0,0,1,1.92,3.176,13.691,13.691,0,0,1,.667,4.706,4.312,4.312,0,0,1-.3,1.917,5.321,5.321,0,0,1-1.069,1.648,9.783,9.783,0,0,1-3.85,2.384,14.685,14.685,0,0,1-4.9.856Zm141.547-3.854h0a8.312,8.312,0,0,1-3.271-.668,9.782,9.782,0,0,1-3.114-2.163,14.493,14.493,0,0,1-1.146-3,11.332,11.332,0,0,1-.36-2.8,9.54,9.54,0,0,1,.343-2.545,8.744,8.744,0,0,1,.964-2.22,8.642,8.642,0,0,1,1.473-1.8,9.022,9.022,0,0,1,1.915-1.364,9.761,9.761,0,0,1,2.279-.863,10.855,10.855,0,0,1,2.565-.3,12.6,12.6,0,0,1,3.331.463,15.5,15.5,0,0,1,3.494,1.458,9.083,9.083,0,0,1,1.368,2.342,8.258,8.258,0,0,1,.552,2.428,8.773,8.773,0,0,1-.167,2.415,10.021,10.021,0,0,1-.787,2.3,11.355,11.355,0,0,1-1.647,2.5,11.751,11.751,0,0,1-2.239,2.005,10.714,10.714,0,0,1-2.657,1.334A9.128,9.128,0,0,1,197.516,158.406Zm33.362-2.7h0a9.667,9.667,0,0,1-1.821-.173,3.188,3.188,0,0,1-.822.14.653.653,0,0,1-.492-.16,1.208,1.208,0,0,1-.156-.862c.021-.617.045-1.315-.931-1.509a6.217,6.217,0,0,1-3.306-2.688,4.794,4.794,0,0,1-.543-1.73,6.067,6.067,0,0,1,.084-1.868,8.454,8.454,0,0,1,.533-1.7,11.212,11.212,0,0,1,.9-1.681,14.428,14.428,0,0,1,2.677-3.039,13.917,13.917,0,0,1,3.444-2.191,9.361,9.361,0,0,1,3.735-.842,6.958,6.958,0,0,1,1.483.157,12.2,12.2,0,0,1,3.445,1.039,7.133,7.133,0,0,1,2.256,1.687,5.742,5.742,0,0,1,1.185,2.158,6.727,6.727,0,0,1,.234,2.449,8.949,8.949,0,0,1-.377,1.921,11.244,11.244,0,0,1-.8,1.909,13.932,13.932,0,0,1-4.391,4.9,12.786,12.786,0,0,1-1.965,1.109A10.619,10.619,0,0,1,230.879,155.708Zm92.2-.193h0a8.4,8.4,0,0,1-3.882-.975A11.166,11.166,0,0,1,316,152a13.629,13.629,0,0,1-1.268-1.676,14.27,14.27,0,0,1-1-1.851,13.765,13.765,0,0,1-.709-1.954,12.238,12.238,0,0,1-.382-1.985,8.269,8.269,0,0,1,1.039-5.287,6.455,6.455,0,0,1,1.9-1.956,8.414,8.414,0,0,1,2.948-1.2h.048a26.724,26.724,0,0,0,3.252-.293l.115-.015a28.757,28.757,0,0,1,3.562-.308,8.368,8.368,0,0,1,1.83.176,4.233,4.233,0,0,1,1.528.641,3.4,3.4,0,0,1,1.094,1.274,5.579,5.579,0,0,1,.527,2.076,24.33,24.33,0,0,1,.711,4.155,18.973,18.973,0,0,1-.136,4.643,9.744,9.744,0,0,1-1.552,4.083A6.31,6.31,0,0,1,325.962,155,8.473,8.473,0,0,1,323.081,155.516Zm-294.129,0h0a5.89,5.89,0,0,1-2.023-.356,6.319,6.319,0,0,1-1.748-.984,8.275,8.275,0,0,1-2.462-3.361,10,10,0,0,1-.634-5.307,9.227,9.227,0,0,1,.844-2.678,9.068,9.068,0,0,1,1.739-2.41,10.629,10.629,0,0,1,2.789-2.014,5.977,5.977,0,0,1,2.564-.619,4.979,4.979,0,0,1,1.939.393,5.872,5.872,0,0,1,1.668,1.082,8.97,8.97,0,0,1,2.322,3.648,11.472,11.472,0,0,1,.483,5.875,8.577,8.577,0,0,1-2.968,5.164A8.013,8.013,0,0,1,28.952,155.516Zm325.78-.578h0a8.538,8.538,0,0,1-2.934-.582,7.852,7.852,0,0,1-2.685-.939,5.561,5.561,0,0,1-1.746-1.6,6.653,6.653,0,0,1-1.039-4.433,10.917,10.917,0,0,1,.9-3.419,12.24,12.24,0,0,1,1.954-3.085,9.764,9.764,0,0,1,2.758-2.232,7.021,7.021,0,0,1,3.311-.859,7.25,7.25,0,0,1,3.966,1.249,12.982,12.982,0,0,1,1.71,6.238,15.348,15.348,0,0,1-.244,3.5,10.558,10.558,0,0,1-1.067,3.1,6.159,6.159,0,0,1-1.961,2.219A5.185,5.185,0,0,1,354.733,154.937ZM152.511,153.4a9.259,9.259,0,0,1-3.388-.616,7.763,7.763,0,0,1-2.893-1.958,5.79,5.79,0,0,1-1.42-3.267,9.889,9.889,0,0,1-.061-2.024,11.348,11.348,0,0,1,.337-2.068,9.636,9.636,0,0,1,1.561-3.356,6.242,6.242,0,0,1,1.2-1.223,4.647,4.647,0,0,1,1.453-.755,23.559,23.559,0,0,1,5.178-.728,9.563,9.563,0,0,1,2.137.22,5.526,5.526,0,0,1,1.832.762,4.307,4.307,0,0,1,1.357,1.456,6.046,6.046,0,0,1,.71,2.3,7.754,7.754,0,0,1,1.167,3.73,6,6,0,0,1-.807,3.176,7.356,7.356,0,0,1-1.47,1.8,9.3,9.3,0,0,1-2.006,1.37,10.861,10.861,0,0,1-4.886,1.175Zm138.529-.578h0a10.75,10.75,0,0,1-3.316-.539,11.461,11.461,0,0,1-3.107-1.559,10.545,10.545,0,0,1-2.51-2.5,9.676,9.676,0,0,1-1.523-3.35,12.446,12.446,0,0,1,.662-3.791,7.769,7.769,0,0,1,1.591-2.7,6.9,6.9,0,0,1,5.22-2.143,13.3,13.3,0,0,1,6.954,2.278,5.463,5.463,0,0,1,1.877.3,2.056,2.056,0,0,1,.99.756,4.841,4.841,0,0,1,.511,2.5v0a11.23,11.23,0,0,0,.31,2.517,10.2,10.2,0,0,1-.579,3.595,6.985,6.985,0,0,1-1.59,2.527,6.829,6.829,0,0,1-2.5,1.584A8.6,8.6,0,0,1,291.04,152.818Zm-172.782-7.708h0a10.387,10.387,0,0,1-4.181-.918,11.26,11.26,0,0,1-6.069-6.612,12.836,12.836,0,0,1-.623-5.243,8.345,8.345,0,0,1,.219-2.089,5.537,5.537,0,0,1,.664-1.6,4.975,4.975,0,0,1,1.035-1.186,6.177,6.177,0,0,1,1.333-.838,11.79,11.79,0,0,1,3.27-.906c1.175-.177,2.4-.259,3.587-.338h0c.863-.058,1.678-.112,2.447-.2a6.137,6.137,0,0,1,1.107-.107,4.17,4.17,0,0,1,1.609.3,3.716,3.716,0,0,1,1.214.825,7.186,7.186,0,0,1,1.7,3.733,21.329,21.329,0,0,1,.33,4.286,14.021,14.021,0,0,1-.216,5.053,8.052,8.052,0,0,1-1.748,3.437,6.911,6.911,0,0,1-2.57,1.816A8.152,8.152,0,0,1,118.257,145.109Zm-41.693-.578h0c-.135,0-.271-.005-.405-.016a16.806,16.806,0,0,1-4.723-1.744A11.24,11.24,0,0,1,68.3,140.2a8.275,8.275,0,0,1-1.967-6.183,7.274,7.274,0,0,1,4.737-6.1,8.8,8.8,0,0,1,3.091-.534,12.294,12.294,0,0,1,3.616.582,19.059,19.059,0,0,1,4.138,1.894,4.113,4.113,0,0,1,1.319,1.4,5.765,5.765,0,0,1,.67,1.92,8.843,8.843,0,0,1,.08,2.237,11.789,11.789,0,0,1-.451,2.356A11.653,11.653,0,0,1,80.9,142.47,6.03,6.03,0,0,1,76.564,144.531Zm103.89-7.516h0a9.894,9.894,0,0,1-3.224-.543,10.536,10.536,0,0,1-5.031-3.708,9.682,9.682,0,0,1-1.415-2.743,8.679,8.679,0,0,1-.429-2.677,8.4,8.4,0,0,1,.473-2.774,9.589,9.589,0,0,1,1.509-2.728,13.171,13.171,0,0,1,2.678-2.538,21.151,21.151,0,0,1,7.259-1.56,8.9,8.9,0,0,1,3.579.673,6.2,6.2,0,0,1,2.464,1.922,9.194,9.194,0,0,1,1.67,5.164,23.476,23.476,0,0,1-.927,7.3A11.689,11.689,0,0,1,180.454,137.016Zm78.728-3.854a6.477,6.477,0,0,1-3.652-1.208,13.95,13.95,0,0,1-3.715-4.04,7.484,7.484,0,0,1-.674-3.974,8.349,8.349,0,0,1,1.322-3.619,11.058,11.058,0,0,1,1.884-2.207,12.917,12.917,0,0,1,5.193-2.856,10.952,10.952,0,0,1,2.893-.4,9.494,9.494,0,0,1,1,.052,5.938,5.938,0,0,1,2.38.695,4.645,4.645,0,0,1,1.579,1.448,7.191,7.191,0,0,1,1.04,4.4,14.992,14.992,0,0,1-2.858,7.822,12.478,12.478,0,0,1-1.353,1.566,9.667,9.667,0,0,1-1.539,1.231,6.472,6.472,0,0,1-3.5,1.093h0Zm-46.112-4.24h0a8.009,8.009,0,0,1-2.86-.495,5.938,5.938,0,0,1-2.3-1.547,6.29,6.29,0,0,1-1.39-2.59,10.454,10.454,0,0,1-.258-3.751,10.751,10.751,0,0,1,3.879-5.357,9.993,9.993,0,0,1,2.717-1.394,9.22,9.22,0,0,1,2.9-.475,8.225,8.225,0,0,1,2.677.438,7.651,7.651,0,0,1,2.4,1.342,8.277,8.277,0,0,1,1.9,2.285,10.985,10.985,0,0,1,1.2,3.268,9.029,9.029,0,0,1-1.485,3.418,10.921,10.921,0,0,1-2.619,2.609A11.953,11.953,0,0,1,213.07,128.922Zm-194.014-.964h0a7.349,7.349,0,0,1-5.582-2.59,10.186,10.186,0,0,1-1.695-2.654,11.5,11.5,0,0,1-.877-3.043,9.967,9.967,0,0,1,.1-3.51,7.325,7.325,0,0,1,.527-1.564,5.885,5.885,0,0,1,.864-1.336,5.193,5.193,0,0,1,1.864-1.369,6.547,6.547,0,0,1,2.629-.507,9.447,9.447,0,0,1,1.193.079,8.054,8.054,0,0,1,3.289.859,8.61,8.61,0,0,1,2.551,1.984,10.008,10.008,0,0,1,2.458,5.786,8.368,8.368,0,0,1-.18,2.542,6.832,6.832,0,0,1-.982,2.284,6.387,6.387,0,0,1-1.846,1.8,8.024,8.024,0,0,1-2.773,1.091A8.311,8.311,0,0,1,19.056,127.958Zm29.2-.963a10.153,10.153,0,0,1-5.941-1.985,6.982,6.982,0,0,1-3-5.1,10.576,10.576,0,0,1,3.05-7.7,11.086,11.086,0,0,1,1.772-1.445,11.623,11.623,0,0,1,1.981-1.042,11.136,11.136,0,0,1,4.169-.844,9,9,0,0,1,1.791.175,7.322,7.322,0,0,1,1.628.529,5.987,5.987,0,0,1,1.387.889,5.37,5.37,0,0,1,1.07,1.255,6.693,6.693,0,0,1,.857,4.068,16.034,16.034,0,0,1-1.855,5.927,7.8,7.8,0,0,1-1.073,2.4,6.346,6.346,0,0,1-1.616,1.637,7.321,7.321,0,0,1-4.216,1.236h0Zm312.734-1.349h0a10.223,10.223,0,0,1-3.622-.662,10.8,10.8,0,0,1-3.414-2.1,5.669,5.669,0,0,1-.884-6.386,9.3,9.3,0,0,1,1.781-2.524,12.975,12.975,0,0,1,2.6-2.054,13.7,13.7,0,0,1,3.059-1.381,10.76,10.76,0,0,1,3.16-.505,6.876,6.876,0,0,1,3.287.762,5.726,5.726,0,0,1,2.4,2.491,9.915,9.915,0,0,1,.808,4.612,7.971,7.971,0,0,1-.423,2,7.866,7.866,0,0,1-.879,1.755,8.773,8.773,0,0,1-3.358,2.926A10.066,10.066,0,0,1,360.99,125.646Zm-208.234-5.781a22.639,22.639,0,0,1-3.561-.294,18.093,18.093,0,0,1-2.951-.715,10.489,10.489,0,0,1-1.822-2.745,9.645,9.645,0,0,1-.794-2.905,11.134,11.134,0,0,1,.945-5.7,12.943,12.943,0,0,1,1.636-2.729,12.361,12.361,0,0,1,2.195-2.192,10.153,10.153,0,0,1,2.57-1.459,7.753,7.753,0,0,1,2.762-.53,6.712,6.712,0,0,1,2.143.348,7.244,7.244,0,0,1,2.064,1.105,12.1,12.1,0,0,1,3.558,4.839,4.153,4.153,0,0,1,.118,1.939,11.373,11.373,0,0,1-.505,1.82,10.145,10.145,0,0,0-.532,2.021,4.163,4.163,0,0,0,0,1.057,3.932,3.932,0,0,0,.323,1.114,4.534,4.534,0,0,1-2.665,3.952,9.3,9.3,0,0,1-2.563.83,16.246,16.246,0,0,1-2.923.246h0Zm174.225,0h0c-3.666,0-6.585-1.592-7.807-4.257a7.014,7.014,0,0,1-.614-2.553,9.538,9.538,0,0,1,.353-3.022,14.9,14.9,0,0,1,1.456-3.424,24.206,24.206,0,0,1,2.695-3.759A5.944,5.944,0,0,1,327,101.557a22.392,22.392,0,0,1,6.069,1.227,28.524,28.524,0,0,0,4.134,1.02c.654.017,1.158.49,1.5,1.407a9.19,9.19,0,0,1,.456,2.764,20.737,20.737,0,0,1-.157,3.29,17.826,17.826,0,0,1-.6,2.952,4.146,4.146,0,0,1-.875,1.751,21.049,21.049,0,0,1-5.445,2.962A15.192,15.192,0,0,1,326.981,119.865Zm-31.766-1.734h0a11.5,11.5,0,0,1-5.642-1.406,8.233,8.233,0,0,1-3.528-3.712,7.127,7.127,0,0,1-.6-2.192,7.782,7.782,0,0,1,.13-2.432,10.007,10.007,0,0,1,.959-2.6,14.45,14.45,0,0,1,1.884-2.711,9.23,9.23,0,0,1,3.127-2.489,7.926,7.926,0,0,1,3.417-.76,9.519,9.519,0,0,1,3.571.725,11.87,11.87,0,0,1,3.187,1.933,12.462,12.462,0,0,1,1.336,1.306,11.75,11.75,0,0,1,1.1,1.472,9.516,9.516,0,0,1,1.333,3.259,7.229,7.229,0,0,1,.061,2.507,6.646,6.646,0,0,1-.89,2.424,8.264,8.264,0,0,1-1.987,2.2,13.318,13.318,0,0,1-3.231,1.819A14.078,14.078,0,0,1,295.215,118.13Zm-51.785-7.323a12.212,12.212,0,0,1-4.216-.734,9.583,9.583,0,0,1-1.847-.916,7.68,7.68,0,0,1-1.526-1.28,6.429,6.429,0,0,1-1.36-2.307,7.2,7.2,0,0,1-.3-2.968,11.786,11.786,0,0,1,1.3-4.521,10.956,10.956,0,0,1,2.656-3.284,11.554,11.554,0,0,1,5.362-2.51,10.744,10.744,0,0,1,1.889-.17,9.587,9.587,0,0,1,1.9.186,8.246,8.246,0,0,1,1.759.562,7.158,7.158,0,0,1,1.544.944,6.661,6.661,0,0,1,1.254,1.333A7.856,7.856,0,0,1,253.2,99.3a15.646,15.646,0,0,1-1.01,6.008,6.147,6.147,0,0,1-1.194,2.41,7.284,7.284,0,0,1-2.043,1.718,9.909,9.909,0,0,1-2.614,1.029A12.278,12.278,0,0,1,243.43,110.807ZM84.863,108.88a12.675,12.675,0,0,1-3.051-.376A12.033,12.033,0,0,1,79,107.427a9.786,9.786,0,0,1-2.312-1.7,7.466,7.466,0,0,1-1.56-2.259,6.57,6.57,0,0,1-.534-2.138,7.363,7.363,0,0,1,.227-2.4,13.094,13.094,0,0,1,3.247-5.452,7.3,7.3,0,0,1,6.111-2.706,12.465,12.465,0,0,1,4.829,1.013,11.025,11.025,0,0,1,3.964,2.777,6.77,6.77,0,0,1,1.781,5.43,11.278,11.278,0,0,1-1.2,4.047,8.747,8.747,0,0,1-2.287,2.762,9.307,9.307,0,0,1-3.018,1.581,11.3,11.3,0,0,1-3.391.5h0Zm114.076-.964a9.331,9.331,0,0,1-3.433-.676,9.222,9.222,0,0,1-2.832-1.093,6.021,6.021,0,0,1-1.809-1.673,5.7,5.7,0,0,1-.9-2.086,7.321,7.321,0,0,1-.1-2.333,9.728,9.728,0,0,1,.371-1.774,11.772,11.772,0,0,1,.7-1.752,13.272,13.272,0,0,1,2.195-3.172,12.1,12.1,0,0,1,1.409-1.288,10.212,10.212,0,0,1,1.558-1,7.35,7.35,0,0,1,3.385-.881,6.074,6.074,0,0,1,2.33.463,7.375,7.375,0,0,1,2.251,1.5,8.761,8.761,0,0,1,2.256,1.781,7.07,7.07,0,0,1,1.322,2.14,7.618,7.618,0,0,1,.207,4.728,9.514,9.514,0,0,1-1.192,2.706,9.97,9.97,0,0,1-1.988,2.271,9.269,9.269,0,0,1-2.624,1.562,8.573,8.573,0,0,1-3.1.581h0Zm-79.117,0h0a9.615,9.615,0,0,1-3.768-.682,5.938,5.938,0,0,1-2.405-1.815,6.227,6.227,0,0,1-1.224-3.022,8.434,8.434,0,0,1-.051-1.737,10.248,10.248,0,0,1,.3-1.8,12.169,12.169,0,0,1,1.415-3.325,12.678,12.678,0,0,1,2.422-2.9A11.423,11.423,0,0,1,119.8,90.58a10.694,10.694,0,0,1,4.023-.778,14.014,14.014,0,0,1,7.3,2.269c1.226.353,1.8.674,2.064,1.145a1.71,1.71,0,0,1,.15,1.029,9.217,9.217,0,0,1-.355,1.57,13.172,13.172,0,0,1-.143,4.814,8.228,8.228,0,0,1-1.746,3.485,9.906,9.906,0,0,1-4.454,2.837,20.851,20.851,0,0,1-6.246.954C120.2,107.913,120.008,107.917,119.822,107.917Zm198.411-11.37h0a10.844,10.844,0,0,1-7.786-3.535,7.749,7.749,0,0,1-.95-4.152,9,9,0,0,1,.347-2.125,8.649,8.649,0,0,1,.83-1.951,7.573,7.573,0,0,1,.965-1.316,6.447,6.447,0,0,1,1.213-1.034,5.531,5.531,0,0,1,3.073-.919,6.962,6.962,0,0,1,2.714.59,18.3,18.3,0,0,1,4.027,1.521,9.762,9.762,0,0,1,2.592,1.947,5.462,5.462,0,0,1,1.532,4.472,6.131,6.131,0,0,1-.9,2.459A7.994,7.994,0,0,1,324,94.578,9.4,9.4,0,0,1,318.233,96.547ZM20.567,96.161h0a9.569,9.569,0,0,1-6.5-2.288,8.132,8.132,0,0,1-1.821-2.346,7.8,7.8,0,0,1-.825-2.689,6.922,6.922,0,0,1,.209-2.714,6,6,0,0,1,1.29-2.361,7.479,7.479,0,0,1,5.79-2.247,13.411,13.411,0,0,1,1.561.1,9.352,9.352,0,0,1,6.747,3.628,8.518,8.518,0,0,1,1.207,2.15,7.482,7.482,0,0,1,.454,1.893,6.676,6.676,0,0,1-.753,3.856,7.779,7.779,0,0,1-1.333,1.8A16.992,16.992,0,0,1,20.567,96.161ZM273.5,95.2a9.285,9.285,0,0,1-4.77-1.207,7.448,7.448,0,0,1-4.114-4.9,13.331,13.331,0,0,1-.592-3.576,16.376,16.376,0,0,1,.313-3.776,15.483,15.483,0,0,1,1.077-3.375,11.74,11.74,0,0,1,1.79-2.84,8.116,8.116,0,0,1,2.458-1.958,6.775,6.775,0,0,1,3.081-.73c.081,0,.16,0,.242,0a11.458,11.458,0,0,1,2.011-.191,7.737,7.737,0,0,1,2.174.293,6.123,6.123,0,0,1,1.748.826,6.521,6.521,0,0,1,1.37,1.278,8.777,8.777,0,0,1,1.039,1.65,15.861,15.861,0,0,1,1.277,4.093,37.1,37.1,0,0,1,.527,4.616,5.772,5.772,0,0,1,.519,2.889,5.552,5.552,0,0,1-.906,2.531,7.812,7.812,0,0,1-1.657,1.8,10.815,10.815,0,0,1-2.238,1.378,12.849,12.849,0,0,1-2.6.881,12.578,12.578,0,0,1-2.746.31h0Zm90.328-.193h0a11.044,11.044,0,0,1-2.71-.349,12.174,12.174,0,0,1-2.61-.994,11.226,11.226,0,0,1-2.284-1.56,9.043,9.043,0,0,1-1.731-2.047,7.052,7.052,0,0,1-1.058-3.433,8,8,0,0,1,.968-3.992,10.8,10.8,0,0,1,1.092-2.163,6.141,6.141,0,0,1,1.287-1.415,4.628,4.628,0,0,1,1.453-.772,5.25,5.25,0,0,1,1.592-.234,8.037,8.037,0,0,1,1.769.214,14.555,14.555,0,0,1,1.857.563c1.261.466,2.58,1.1,3.855,1.705q.456.218.889.423a4.7,4.7,0,0,1,.848-.087,1.681,1.681,0,0,1,1.263.434c.566.575.549,1.639.53,2.765h0a6.311,6.311,0,0,0,.314,2.667,10.553,10.553,0,0,1-.478,3.693,6.668,6.668,0,0,1-1.515,2.543,6.389,6.389,0,0,1-2.414,1.548A8.448,8.448,0,0,1,363.824,95.005ZM174.788,91.536h0a11.648,11.648,0,0,1-4.024-.686,8.485,8.485,0,0,1-1.731-.873,6.8,6.8,0,0,1-1.413-1.242,6.137,6.137,0,0,1-1.284-2.487,8.211,8.211,0,0,1-.1-3.325,6.739,6.739,0,0,1,.262-3.005,7.13,7.13,0,0,1,1.433-2.5,8.463,8.463,0,0,1,6.277-2.841,7.538,7.538,0,0,1,4.617,1.559,1.783,1.783,0,0,1,.872.838,6.013,6.013,0,0,1,.425,1.2,4.529,4.529,0,0,0,.654,1.57,1.856,1.856,0,0,0,.666.545,2.728,2.728,0,0,0,1.071.251c.857.051,1.111.533,1.375,1.209a7.294,7.294,0,0,1,.5,3.333,5.72,5.72,0,0,1-1,2.687,8.269,8.269,0,0,1-3.653,2.8,12.22,12.22,0,0,1-2.4.723A13.342,13.342,0,0,1,174.788,91.536ZM51.266,91.344h0a9.823,9.823,0,0,1-2.611-.351,9.687,9.687,0,0,1-2.354-1,9.911,9.911,0,0,1-2.007-1.57,10.289,10.289,0,0,1-1.571-2.06A10.836,10.836,0,0,1,41.6,83.6a11.792,11.792,0,0,1-.355-3.166,13.557,13.557,0,0,1,.539-3.455,16.7,16.7,0,0,1,1.555-3.635,4.92,4.92,0,0,1,1.28-1.927,8.1,8.1,0,0,1,2.116-1.426,11.938,11.938,0,0,1,2.619-.885,13.121,13.121,0,0,1,2.788-.3,8.972,8.972,0,0,1,3.955.809A4.649,4.649,0,0,1,57.5,70.647a3.548,3.548,0,0,1,.8,1.492c.173.658.448,1.531.766,2.541l0,.01c1.3,4.124,3.263,10.357,1.521,12.209A15.882,15.882,0,0,1,55.9,90.292,11.107,11.107,0,0,1,51.266,91.344Zm175.258-2.12h0a12.359,12.359,0,0,1-4.045-.666,9.7,9.7,0,0,1-1.79-.834,7.742,7.742,0,0,1-1.5-1.169,7.106,7.106,0,0,1-1.407-3.569,5.946,5.946,0,0,1,.677-3.226,8.566,8.566,0,0,1,1.813-2.336,12.231,12.231,0,0,1,2.586-1.82,14.06,14.06,0,0,1,3.014-1.182,12.172,12.172,0,0,1,3.1-.421,8.22,8.22,0,0,1,2.91.489,5.419,5.419,0,0,1,2.259,1.556,5.628,5.628,0,0,1,1.191,2.539,10.171,10.171,0,0,1-.014,3.7,6.124,6.124,0,0,1-.417,2.444,5.854,5.854,0,0,1-1.258,1.918,7.222,7.222,0,0,1-1.433,1.127,9.218,9.218,0,0,1-1.727.806A12.1,12.1,0,0,1,226.523,89.224Zm-79.791-8.672h0a9.418,9.418,0,0,1-3.356-.641,13.084,13.084,0,0,1-3.511-2.064A11.443,11.443,0,0,1,137.4,75.1a9.969,9.969,0,0,1-1.277-3.044,10.987,10.987,0,0,1,.415-6.2,12.488,12.488,0,0,1,1.5-2.92,11.821,11.821,0,0,1,2.163-2.371,9.861,9.861,0,0,1,2.652-1.591,8.031,8.031,0,0,1,2.967-.582,7.907,7.907,0,0,1,3.816,1,12.108,12.108,0,0,1,3.707,3.3,12.644,12.644,0,0,1,1.864,3.1,11.436,11.436,0,0,1,.819,3.195,11.181,11.181,0,0,1-1.022,5.988,10.23,10.23,0,0,1-3.351,4.011,8.821,8.821,0,0,1-2.31,1.155A8.441,8.441,0,0,1,146.732,80.552Zm57.143-2.7h0a7.365,7.365,0,0,1-3.317-.787,8.678,8.678,0,0,1-2.65-2.082,10.757,10.757,0,0,1-1.822-2.959,11.3,11.3,0,0,1-.834-3.418,9.886,9.886,0,0,1,.243-3.2,8.162,8.162,0,0,1,3.91-5.2,11.488,11.488,0,0,1,3.917-1.346,5.631,5.631,0,0,1,1.016-.092,7.061,7.061,0,0,1,3.825,1.238,11.521,11.521,0,0,1,1.715,1.365,14.9,14.9,0,0,1,1.517,1.7A16.824,16.824,0,0,1,213.632,67a10.769,10.769,0,0,1,.852,3.809,5.055,5.055,0,0,1-.165,1.38,3.032,3.032,0,0,1-.539,1.093,2.873,2.873,0,0,1-2.331,1,14.817,14.817,0,0,1-3.948,2.739A8.778,8.778,0,0,1,203.875,77.854Zm130.715-2.12h0a7.788,7.788,0,0,1-3.63-.928,10.9,10.9,0,0,1-3.052-2.429,14.476,14.476,0,0,1-3.441-7.247,9.136,9.136,0,0,1,.63-5.369,6.368,6.368,0,0,1,1.594-2.08,7.292,7.292,0,0,1,2.571-1.393,14.262,14.262,0,0,1,5.376-1.174,9.219,9.219,0,0,1,3.19.544,8.122,8.122,0,0,1,2.522,1.486,8.768,8.768,0,0,1,1.823,2.208,10.245,10.245,0,0,1,1.093,2.712,11.857,11.857,0,0,1-.533,7.253,11.437,11.437,0,0,1-5.328,5.868A7.669,7.669,0,0,1,334.59,75.734ZM105.6,72.458h0a16.492,16.492,0,0,1-2.554-.209,6.279,6.279,0,0,1-2.673-.908,5.933,5.933,0,0,1-1.814-1.81,8.472,8.472,0,0,1-1.219-5.061,9.653,9.653,0,0,1,.509-2.612,7.857,7.857,0,0,1,1.2-2.253,5.741,5.741,0,0,1,1.841-1.582,5.154,5.154,0,0,1,2.444-.6,7.126,7.126,0,0,1,2.541.509,14.645,14.645,0,0,1,3.933,1.347,9.629,9.629,0,0,1,2.675,2.024,6.466,6.466,0,0,1,1.777,4.993,6.219,6.219,0,0,1-2.464,4.3A9.985,9.985,0,0,1,105.6,72.458ZM27.01,69.76h0a6.271,6.271,0,0,1-2.56-.549,7.315,7.315,0,0,1-2.137-1.468,8.735,8.735,0,0,1-1.586-2.121,9.053,9.053,0,0,1-.906-2.508,8.051,8.051,0,0,1-.129-2.356A6.827,6.827,0,0,1,20.3,58.5a6.472,6.472,0,0,1,1.446-1.975,7.913,7.913,0,0,1,2.372-1.5c1.061-.466,1.918-.826,2.654-1.072a6.154,6.154,0,0,1,1.934-.379,3.629,3.629,0,0,1,2,.616,14.151,14.151,0,0,1,2.326,1.964,2.591,2.591,0,0,1,1.644,1.293,5.18,5.18,0,0,1,.583,2.353,10.551,10.551,0,0,1-.266,2.665,12.8,12.8,0,0,1-.908,2.653,9.127,9.127,0,0,1-1.413,2.189,4.376,4.376,0,0,1-1.781,1.273A7.421,7.421,0,0,1,27.01,69.76Zm221.447-.193a7.356,7.356,0,0,1-2.559-.436,5.68,5.68,0,0,1-2.118-1.357,5.786,5.786,0,0,1-1.311-2.153,8.65,8.65,0,0,1-.431-3.073,4.976,4.976,0,0,1-.02-2.653,7.006,7.006,0,0,1,1.222-2.45,9.708,9.708,0,0,1,1.477-1.555,10.732,10.732,0,0,1,1.781-1.226,9.531,9.531,0,0,1,1.922-.8,6.864,6.864,0,0,1,1.9-.288,3.732,3.732,0,0,1,3.4,1.781,3.309,3.309,0,0,0,1.559.793,2.778,2.778,0,0,1,1.252.6,2.145,2.145,0,0,1,.433,1.745,8.575,8.575,0,0,1,.414,4.026,7.4,7.4,0,0,1-1.33,3.245,9.058,9.058,0,0,1-3.388,2.8,9.988,9.988,0,0,1-2.071.743,9.207,9.207,0,0,1-2.128.256h0Zm50.1-1.735h0a7.787,7.787,0,0,1-3.63-.928,10.9,10.9,0,0,1-3.052-2.43,14.477,14.477,0,0,1-3.441-7.247,9.137,9.137,0,0,1,.63-5.369,6.366,6.366,0,0,1,1.594-2.08,7.291,7.291,0,0,1,2.571-1.393,14.262,14.262,0,0,1,5.377-1.174,9.217,9.217,0,0,1,3.189.544,8.119,8.119,0,0,1,2.521,1.486,8.766,8.766,0,0,1,1.822,2.208,10.245,10.245,0,0,1,1.093,2.712,11.858,11.858,0,0,1-.533,7.253,11.436,11.436,0,0,1-5.328,5.868A7.668,7.668,0,0,1,298.553,67.833ZM76.38,63.787h0a9.488,9.488,0,0,1-7.29-3.162,10.71,10.71,0,0,1-1.972-3.241,11.983,11.983,0,0,1-.807-3.715,11.735,11.735,0,0,1,.065-2.065,10.742,10.742,0,0,1,.432-1.987,9.506,9.506,0,0,1,.8-1.831,8.474,8.474,0,0,1,1.184-1.6,8.055,8.055,0,0,1,2.8-1.919,10.124,10.124,0,0,1,3.879-.718,16.1,16.1,0,0,1,4.105.58,4.232,4.232,0,0,1,2.079.85,5.893,5.893,0,0,1,1.521,1.8,10.028,10.028,0,0,1,.97,2.483,14.915,14.915,0,0,1,.426,2.9,17.38,17.38,0,0,1-.209,3.726,14.428,14.428,0,0,1-1,3.459,8.779,8.779,0,0,1-1.78,2.7,5.24,5.24,0,0,1-2.546,1.454A13.362,13.362,0,0,1,76.38,63.787ZM369.6,62.63h0a17.233,17.233,0,0,1-1.858-.1,10.5,10.5,0,0,1-3.319-.577,6.153,6.153,0,0,1-2.237-1.38,5.82,5.82,0,0,1-1.629-4.341,11.566,11.566,0,0,1,3.028-7.2A12.026,12.026,0,0,1,365.1,47.6a10.608,10.608,0,0,1,1.732-1.124,8.623,8.623,0,0,1,3.974-1c.135,0,.271,0,.406.01a10.64,10.64,0,0,1,3.475,1.671,9.9,9.9,0,0,1,2.424,2.552,9.58,9.58,0,0,1,1.321,3.055,8.678,8.678,0,0,1,.169,3.181,7.536,7.536,0,0,1-.821,2.559,7.089,7.089,0,0,1-1.751,2.129,8.228,8.228,0,0,1-2.714,1.455A12.055,12.055,0,0,1,369.6,62.63ZM176.76,60.318a8.2,8.2,0,0,1-3.686-.845,8.606,8.606,0,0,1-2.776-2.227,11,11,0,0,1-1.812-3.148,12.78,12.78,0,0,1-.8-3.609,9.92,9.92,0,0,1,2.275-7.5,7.007,7.007,0,0,1,2.427-1.7,8.553,8.553,0,0,1,3.337-.63,11.64,11.64,0,0,1,1.2.064,9.792,9.792,0,0,1,1.069-.06,7.672,7.672,0,0,1,2.993.576,7,7,0,0,1,2.284,1.56,8.209,8.209,0,0,1,1.208,1.588,10,10,0,0,1,.848,1.871,12.6,12.6,0,0,1,.627,4.215,12.938,12.938,0,0,1-.571,3.6,10.36,10.36,0,0,1-1.567,3.143,7.33,7.33,0,0,1-6.069,3.066l-.211,0C177.281,60.307,177.017,60.318,176.76,60.318Zm42.582-6.552h0a13.531,13.531,0,0,1-4.6-.792,8.66,8.66,0,0,1-3.551-2.292A5.346,5.346,0,0,1,210.1,48.8a5.2,5.2,0,0,1-.194-2.287,13.047,13.047,0,0,1,1.532-4,10.391,10.391,0,0,1,2.4-2.782,9.766,9.766,0,0,1,6.112-2.155,9.129,9.129,0,0,1,3.841.831,7.941,7.941,0,0,1,1.633,1.016,7.309,7.309,0,0,1,1.326,1.4,7.453,7.453,0,0,1,1.353,3.567,11.111,11.111,0,0,1-.584,4.734,5.472,5.472,0,0,1-1.177,2.068,6.738,6.738,0,0,1-1.909,1.447,9.643,9.643,0,0,1-2.412.85A12.72,12.72,0,0,1,219.342,53.766Zm-97.9-.771h0a22.107,22.107,0,0,1-4.879-.618,7.184,7.184,0,0,1-1.321-1.437,13.757,13.757,0,0,1-1.247-2.1,12.105,12.105,0,0,1-.862-2.372,6.135,6.135,0,0,1-.168-2.24,2.951,2.951,0,0,1,.495-1.322,2.543,2.543,0,0,1,1.151-.882c.172-.009.4-.354.606-.922a4.987,4.987,0,0,0,.322-1.557,11.272,11.272,0,0,1,2.764-4.032,4.615,4.615,0,0,1,3.03-1.207c1.7,0,3.485,1.037,5.024,2.921a14.589,14.589,0,0,1,2.942,6.426,10.525,10.525,0,0,1,.06,3.712,6.644,6.644,0,0,1-1.406,3.152,6.328,6.328,0,0,1-2.541,1.806A10.665,10.665,0,0,1,121.445,52.995Zm-113.17-7.9h0a16.487,16.487,0,0,1-2.552-.208,6.28,6.28,0,0,1-2.673-.909,5.936,5.936,0,0,1-1.814-1.81A8.474,8.474,0,0,1,.016,37.1a9.654,9.654,0,0,1,.509-2.612,7.855,7.855,0,0,1,1.2-2.253,5.74,5.74,0,0,1,1.841-1.581A5.154,5.154,0,0,1,6,30.063a7.126,7.126,0,0,1,2.542.509,14.643,14.643,0,0,1,3.932,1.346,9.629,9.629,0,0,1,2.674,2.024,6.466,6.466,0,0,1,1.777,4.992,6.22,6.22,0,0,1-2.465,4.3A9.989,9.989,0,0,1,8.275,45.094Zm256.867-.385h0a2.615,2.615,0,0,1-1.542-.571,5.181,5.181,0,0,1-2.165-1.18A5.741,5.741,0,0,1,260.067,41a8.388,8.388,0,0,1-.626-2.488,11.771,11.771,0,0,1,.056-2.764,13.639,13.639,0,0,1,.892-3.34,11.874,11.874,0,0,1,1.7-2.933,8.223,8.223,0,0,1,2.4-2.084,6.1,6.1,0,0,1,3-.793,7.092,7.092,0,0,1,2.706.569,8,8,0,0,1,4.734,3,8.9,8.9,0,0,1,1.8,5.012,8.211,8.211,0,0,1-.243,2.369,7.267,7.267,0,0,1-.946,2.171A6.906,6.906,0,0,1,273.85,41.5,7.938,7.938,0,0,1,271.4,42.7a2.49,2.49,0,0,0-1.351-.437,4.237,4.237,0,0,0-2.456,1.22l0,0h0a9.636,9.636,0,0,1-1.171.837A2.569,2.569,0,0,1,265.142,44.708Zm87.513-.578a16.444,16.444,0,0,1-4.85-.838,3.381,3.381,0,0,1-1.383-1.224,12.358,12.358,0,0,1-1.317-2.306,14.415,14.415,0,0,1-.909-2.684,6.425,6.425,0,0,1-.16-2.358,1.876,1.876,0,0,1,.467-1.033,1.4,1.4,0,0,1,1.035-.389c.059,0,.12,0,.181.007a5.446,5.446,0,0,1,.388-2.471,6.907,6.907,0,0,0,.42-1.915A12.019,12.019,0,0,1,349.7,26.25a6.133,6.133,0,0,1,2.945-.812,5.362,5.362,0,0,1,2.792.8,7.987,7.987,0,0,1,2.262,2.117,12.058,12.058,0,0,1,1.6,2.994,13.9,13.9,0,0,1,.8,3.432,12.573,12.573,0,0,1,.048,1.993,10.471,10.471,0,0,1-.283,1.911,7.435,7.435,0,0,1-1.658,3.246,6.287,6.287,0,0,1-2.284,1.6,8.538,8.538,0,0,1-3.273.595h0Zm-30.831,0a9.563,9.563,0,0,1-6.375-2.191,8.2,8.2,0,0,1-1.867-2.333,8.475,8.475,0,0,1-.918-2.8,8.992,8.992,0,0,1,1.461-6.3,10.264,10.264,0,0,1,2.606-2.651,13.332,13.332,0,0,1,3.94-1.874,12.3,12.3,0,0,1,1.966-.162,10.509,10.509,0,0,1,3.679.646,9.743,9.743,0,0,1,5.031,4.232,9.351,9.351,0,0,1,1.114,2.964,8.52,8.52,0,0,1,.071,2.8,7.907,7.907,0,0,1-.9,2.7,8.414,8.414,0,0,1-1.955,2.367,11.03,11.03,0,0,1-3.1,1.811A15.933,15.933,0,0,1,321.824,44.13ZM151.07,43.745a8.47,8.47,0,0,1-4.427-1.02,5.772,5.772,0,0,1-1.7-1.548,7.947,7.947,0,0,1-1.182-2.482,13.507,13.507,0,0,1,0-4.608,6.475,6.475,0,0,1,1.385-3,6.222,6.222,0,0,1,4.9-1.988,13.272,13.272,0,0,1,6.8,2.1,11.978,11.978,0,0,1,2.684,2.253,7.259,7.259,0,0,1,1.556,2.721,4.755,4.755,0,0,1-.263,3.438,8.354,8.354,0,0,1-3.248,3.337l-.871.147A34.285,34.285,0,0,1,151.07,43.745Zm-106.375,0h0a5.135,5.135,0,0,1-2.25-.574,7.236,7.236,0,0,1-2-1.485,5.306,5.306,0,0,1-1.633-3.776,15.47,15.47,0,0,1,.353-5.37A8.4,8.4,0,0,1,41.036,29a7.135,7.135,0,0,1,2.692-1.836,8.705,8.705,0,0,1,3.185-.574,10.814,10.814,0,0,1,2.977.428,11.166,11.166,0,0,1,2.741,1.2,9.281,9.281,0,0,1,2.2,1.837A6.79,6.79,0,0,1,56.184,32.4a5.721,5.721,0,0,1,.269,2.123,6.51,6.51,0,0,1-.6,2.3,12.933,12.933,0,0,1-4.38,4.858,3.657,3.657,0,0,1-.395.017c-.159,0-.335-.005-.521-.01h-.039c-.212-.006-.42-.011-.631-.011a3.455,3.455,0,0,0-2.4.652,3.547,3.547,0,0,1-1.288,1.085A3.437,3.437,0,0,1,44.695,43.745Zm51.837-4.818h0a11.273,11.273,0,0,1-3.909-.682,10.569,10.569,0,0,1-3.556-2.19,8.778,8.778,0,0,1-1.755-4.687,8.25,8.25,0,0,1,.189-2.287,9.165,9.165,0,0,1,.781-2.15,10.617,10.617,0,0,1,1.729-2.442A11.861,11.861,0,0,1,95.2,21.273a10.744,10.744,0,0,1,3.086-.461,9.9,9.9,0,0,1,3.66.695,10.855,10.855,0,0,1,3.469,2.248,9.672,9.672,0,0,1,2.392,4.668,7.164,7.164,0,0,1,.04,2.212,7.46,7.46,0,0,1-.6,2.059,9.049,9.049,0,0,1-1.73,2.512,11.508,11.508,0,0,1-2.534,1.972,13.013,13.013,0,0,1-3.08,1.288A12.72,12.72,0,0,1,96.532,38.927Zm103.041-5.588a6.491,6.491,0,0,1-1.432-.165,7.017,7.017,0,0,1-2.667-1.763,13.567,13.567,0,0,1-2.2-2.986,16.326,16.326,0,0,1-1.461-3.579,11.576,11.576,0,0,1-.439-3.541,5.482,5.482,0,0,1,.849-2.849,3.815,3.815,0,0,1,2.4-1.58,8.153,8.153,0,0,0,2.449-1.084,13.161,13.161,0,0,1,1.5-.789,4.2,4.2,0,0,1,1.631-.358,4.1,4.1,0,0,1,1.974.545,7.048,7.048,0,0,1,2.723,1.35,6.677,6.677,0,0,1,1.729,2.176,8.584,8.584,0,0,1,.821,2.717,11.366,11.366,0,0,1,0,2.974,12.9,12.9,0,0,1-.877,3.3,11.345,11.345,0,0,1-1.687,2.859,8.086,8.086,0,0,1-2.374,2.012,6.1,6.1,0,0,1-2.938.761h0Zm36.8-1.735h0a8.274,8.274,0,0,1-1.732-.18,7.341,7.341,0,0,1-1.647-.561,6.956,6.956,0,0,1-2.752-2.392,8.226,8.226,0,0,1-2.443-3.686,5.241,5.241,0,0,1,.165-3.41,6.5,6.5,0,0,1,1.28-2.006,8.639,8.639,0,0,1,1.973-1.581,10.213,10.213,0,0,1,5.126-1.409,8.965,8.965,0,0,1,2.269.286,8.035,8.035,0,0,1,4.044,2.5,9.759,9.759,0,0,1,1.512,2.353,6.441,6.441,0,0,1,.76,3.236,5.858,5.858,0,0,1-.884,2.823,7.426,7.426,0,0,1-1.4,1.654A9.045,9.045,0,0,1,240.8,30.5a9.851,9.851,0,0,1-2.146.815A9.361,9.361,0,0,1,236.371,31.6ZM181.256,22.74a9.417,9.417,0,0,1-3.167-.57,11.5,11.5,0,0,1-2.895-1.542,12.054,12.054,0,0,1-2.363-2.262,10.244,10.244,0,0,1-1.57-2.731,8.031,8.031,0,0,1-.488-2.047,6.72,6.72,0,0,1,.111-2.068,7.1,7.1,0,0,1,2.37-3.857,4.277,4.277,0,0,1,.619-.978,3.086,3.086,0,0,1,.753-.64,3.468,3.468,0,0,1,1.829-.455,14.988,14.988,0,0,1,4.62,1.147A14.885,14.885,0,0,0,185.132,7.8a5.149,5.149,0,0,1,2.986,2.368,5.65,5.65,0,0,1,.611,1.709,7.662,7.662,0,0,1,.109,1.9,11.639,11.639,0,0,1-2,5.636,9.343,9.343,0,0,1-1.905,2.1,5.327,5.327,0,0,1-2.224,1.1A8.166,8.166,0,0,1,181.256,22.74Zm117.289-1.734h0a6.322,6.322,0,0,1-1.656-.218,5.9,5.9,0,0,1-2.729-1.622,6.215,6.215,0,0,1-.965-1.326,7.723,7.723,0,0,1-.806-4.513,11.221,11.221,0,0,1,.663-2.748A15.475,15.475,0,0,1,294.57,7.6a6.244,6.244,0,0,1,2.448-2.429,6.447,6.447,0,0,1,3.091-.744,9.035,9.035,0,0,1,7.92,4.916,5.788,5.788,0,0,1,.446,1.543,5.321,5.321,0,0,1-.025,1.636,6.761,6.761,0,0,1-1.763,3.382,13.737,13.737,0,0,1-4.068,3.9,8.938,8.938,0,0,1-2.074.909A7.218,7.218,0,0,1,298.546,21.005ZM76.853,16.573h0a10.392,10.392,0,0,1-4.032-.683,4.819,4.819,0,0,1-2.249-1.839A6.877,6.877,0,0,1,69.9,9.225,21.705,21.705,0,0,1,71.8,3.52a12.93,12.93,0,0,1,3.49-2.7A7.147,7.147,0,0,1,78.5,0a5.857,5.857,0,0,1,2.6.6,6.8,6.8,0,0,1,2.09,1.612A8.448,8.448,0,0,1,84.639,4.54a9.215,9.215,0,0,1,.691,2.741,8.613,8.613,0,0,1-.218,2.932,7.785,7.785,0,0,1-1.295,2.737,8.376,8.376,0,0,1-2.51,2.223,11.989,11.989,0,0,1-3.863,1.39C77.244,16.57,77.045,16.573,76.853,16.573Z" transform="translate(-12.526 -53.38)"/></g></g></g></g></g></g></g></svg>