<svg width="101" height="76" viewBox="0 0 101 76" fill="none" xmlns="http://www.w3.org/2000/svg">
<path fillRule="evenodd" clipRule="evenodd" d="M9.1905 36.4805C10.8687 37.0404 11.9992 37.5958 12.847 38.2754C14.0612 39.2486 14.6768 40.4879 14.6768 41.9602C14.6768 43.3389 14.0666 44.6848 13.0011 45.6542C11.9174 46.6433 10.4212 47.1876 8.78948 47.1876C5.37858 47.1876 3.42846 44.8005 3.34686 44.6974L5.41886 43.2275C5.89761 43.605 7.15749 44.4496 8.78948 44.4496C10.8426 44.4496 12.0705 43.1869 12.0705 41.9602C12.0708 41.1065 11.6263 40.1677 8.40007 39.0917L8.39 39.0874C6.70715 38.5256 5.58077 37.9722 4.73224 37.2904C3.51909 36.3193 2.90271 35.08 2.90271 33.6077C2.90271 32.229 3.51264 30.8853 4.57575 29.914C5.66185 28.923 7.15853 28.3784 8.78845 28.3784C12.2006 28.3784 14.1505 30.7677 14.2321 30.8702L12.1619 32.3401C11.6824 31.9637 10.4225 31.1186 8.78845 31.1186C6.73607 31.1186 5.50924 32.384 5.50924 33.6077C5.50924 34.4614 5.95468 35.4002 9.17811 36.4783L9.1905 36.4805ZM95.3267 38.2754C94.4777 37.5958 93.3513 37.0404 91.671 36.4805L91.6584 36.4783C88.4326 35.4002 87.9864 34.4614 87.9864 33.6077C87.9864 32.384 89.2135 31.1186 91.2677 31.1186C92.902 31.1186 94.1619 31.9637 94.6404 32.3401L96.7134 30.8702C96.6305 30.7677 94.6796 28.3784 91.2677 28.3784C89.6331 28.3784 88.138 28.923 87.0558 29.9137C85.9919 30.8853 85.3799 32.2287 85.3799 33.6074C85.3799 35.0797 85.9994 36.319 87.2115 37.2904C88.0587 37.9722 89.1861 38.5256 90.8674 39.0874L90.8785 39.0917C94.1035 40.1677 94.5474 41.1065 94.5477 41.9602C94.5477 43.1869 93.3234 44.4496 91.268 44.4496C89.6336 44.4496 88.3774 43.605 87.8973 43.2275L85.8261 44.6974C85.9085 44.8005 87.857 47.1876 91.268 47.1876C92.901 47.1876 94.3974 46.6433 95.4827 45.6542C96.5453 44.6848 97.155 43.3389 97.155 41.9602C97.155 40.4879 96.5376 39.2486 95.3267 38.2754ZM21.9645 37.7723C21.9645 41.4789 24.8055 44.4957 28.3005 44.4957C31.7943 44.4957 34.6384 41.4789 34.6382 37.7723C34.6382 34.0651 31.7943 31.0487 28.3005 31.0487C24.8055 31.0487 21.9645 34.0651 21.9645 37.7723ZM19.3631 37.7723C19.3631 32.5907 23.3718 28.3785 28.3005 28.3785C33.2306 28.3785 37.238 32.5907 37.238 37.7723C37.238 42.9515 33.2303 47.1632 28.3005 47.1632C23.3718 47.1632 19.3631 42.9515 19.3631 37.7723ZM71.7559 44.4957C68.2623 44.4957 65.4177 41.4789 65.4177 37.7723C65.4177 34.0651 68.2623 31.0487 71.7559 31.0487C75.2507 31.0487 78.0922 34.0651 78.0922 37.7723C78.0922 41.4789 75.2507 44.4957 71.7559 44.4957ZM71.7558 28.3785C66.8268 28.3785 62.8184 32.5907 62.8184 37.7723C62.8184 42.9515 66.8268 47.1632 71.7558 47.1632C76.6833 47.1632 80.6935 42.9515 80.6935 37.7723C80.6935 32.5907 76.6833 28.3785 71.7558 28.3785ZM54.406 40.4944L43.1397 28.6335V46.4055H45.6574V35.0472L56.9253 46.9127V29.0756H54.406V40.4944Z" fill="#CC9966"/>
</svg>
