<?xml version="1.0" encoding="utf-8"?>
<!-- Generator: Adobe Illustrator 20.1.0, SVG Export Plug-In . SVG Version: 6.00 Build 0)  -->
<svg version="1.1" id="Layer_1" xmlns="http://www.w3.org/2000/svg" xmlns:xlink="http://www.w3.org/1999/xlink" x="0px" y="0px"
	 viewBox="0 0 155 140.6" style="enable-background:new 0 0 155 140.6;" xml:space="preserve">
<style type="text/css">
	.st0{fill:#3D55CC;}
	.st1{fill:#191919;}
	.st2{fill:#FF4133;}
	.st3{fill:#FFBB00;}
	.st4{fill:#303C78;}
	.st5{fill:#F5EBE0;}
	.st6{fill:#25B89D;}
	.st7{fill:#CC9966;}
	.st8{fill:#DADFF5;}
	.st9{clip-path:url(#SVGID_2_);fill:#25B89D;}
	.st10{clip-path:url(#SVGID_2_);fill:#F5EBE0;}
</style>
<g>
	<path class="st0" d="M73,101.4c-1.2,0.3-2.3,0.6-3.5,0.8c-0.1-0.4-0.4-0.8-0.9-0.9c-6.1-1.1-12-3.1-17.5-6.1
		c-0.1-0.7-0.7-1.2-1.5-0.9c-1.4,0.4-2.8,0.8-4.3,0.9c-1.3,0.1-2.7,0-3.7,1c-1.2,1.3-0.9,2.9,0.1,3.9c-0.9,1-0.7,2.2,0,3
		c-0.6,1-0.3,2.2,0.5,3c1,1,2.5,1,3.8,1c5.9,0,11.8-0.4,17.6-1.3c3.3-0.5,6.6-1.2,9.9-2C75.2,103.4,74.6,101,73,101.4"/>
	<path class="st1" d="M42.2,103.4c2.2-0.5,4.5-0.7,6.8-0.7c0.5,0,0.5-0.7,0-0.7c-2.3,0-4.7,0.2-7,0.7
		C41.6,102.9,41.8,103.5,42.2,103.4"/>
	<path class="st1" d="M42.1,100.4l6.1-0.8c0.4-0.1,0.4-0.8,0-0.7l-6.1,0.8C41.7,99.7,41.7,100.4,42.1,100.4"/>
	<path class="st2" d="M141.3,67c-1-3-3.1-5.8-5.4-8c-2.2-2.2-5-4-8.1-4.5c-0.1,0-0.2,0-0.3-0.1c-2.2-0.5-4.5-0.5-6.6-0.3
		c-5.5,0.7-10.7,2.6-15.6,5.1c-4.5,2.3-8.4,5.5-12.8,7.8c-0.5,0.3-1,0.5-1.5,0.8c-0.1,0-0.1,0.1-0.2,0.1c-0.1-1.2-0.2-2.3-0.3-3.5
		c0-0.3-0.5-0.6-0.8-0.6L88.1,64c-9.4,0.3-18.8,0.3-28.2-0.1c-0.6,0-0.8,0.5-0.8,1c0,0.3,0.1,0.6,0.1,0.9c0,0.5,0,0.9,0,1.4
		c-2.3-1-4.6-1.9-6.9-2.8c-4.2-1.7-8.4-3.4-12.8-4.4c-4.4-1-9.4-1.3-13.7,0.2c-5.3,1-9.3,6.1-10.7,11.1c-1.5,5.1-0.5,10.8,2.7,15.1
		c1.7,2.2,3.7,4.1,6.1,5.3c0.7,0.3,1.3,0.6,2,0.9c0.4,0.2,0.8,0.4,1.3,0.5c1.9,0.7,3.8,1.2,5.7,1.6c2.1,0.5,4.2,1,6.2,1.4
		c8.3,1.9,16.6,3.8,24.9,5.7c1.9,0.4,3.9,1,5.9,1.3c3.3,1.1,6.6,2.3,9.9,3.6c1.2,0.5,2.9-0.1,3.8-1c1.7-1.8,3.3-3.9,4.5-6.1
		c0.3,0,0.6,0,1-0.1c10.9-1.6,21.5-4.8,31.7-9.2c5-2.2,9.9-4.5,14.2-7.9C139.5,79,143.2,72.9,141.3,67"/>
	<path class="st0" d="M111.2,100.1c-2.2-0.4-4.4-0.7-6.6-1c-0.5-0.1-1-0.1-1.4-0.2c-1.3-0.4-2.6-0.8-4-1.2c-1.8-0.5-3.6-1-5.5-1.4
		c-1.5-0.4-3-0.8-4.5-1.1c0,0.1,0,0.3,0,0.4c0,1.4-0.8,2.8-1.3,4c-0.5,1.2-1.2,2.4-1.9,3.5c-0.8,1.2-2,3.1-3.5,3.6
		c0.2,0.2,0.4,0.3,0.6,0.4c5.7,2.3,11.4,4.6,17.1,6.9c1.3,0.5,2.6,1.1,4,1.4c1.1,0.2,2.6,0.2,3.2-0.9c0.1-0.2,0.2-0.4,0.2-0.6
		c0.7-0.2,1.3-0.6,1.7-1.3c0.2-0.5,0.3-0.9,0.2-1.3c0.3-0.1,0.5-0.1,0.7-0.3c0.8-0.5,1-1.4,0.8-2.2c-0.1-0.2-0.2-0.4-0.3-0.6
		c1.5-0.1,3.2-1,2.7-2.8c0.7-0.3,1.3-0.8,1.6-1.8C115.4,101.3,112.9,100.4,111.2,100.1"/>
	<path class="st1" d="M39.1,72.5c3.4,1.6,6.8,3.1,10.3,4.7c3.3,1.5,6.7,3,9.8,4.9c3.1,1.8,6.1,3.5,9.4,4.9c3.2,1.3,6.4,2.5,9.6,3.6
		c1.8,0.6,3.6,1.3,5.4,2c0.9,0.3,1.8,0.7,2.7,1.1c0.4,0.2,0.9,0.4,1.3,0.6c0.4,0.2,0.8,0.4,0.9,0.8c0.1,0.4,0.8,0.3,0.7-0.2
		c-0.2-0.7-0.8-1-1.4-1.3c-0.8-0.3-1.6-0.7-2.4-1c-1.6-0.6-3.2-1.2-4.9-1.8c-3.3-1.2-6.6-2.3-9.9-3.6c-3.4-1.3-6.6-2.9-9.7-4.8
		c-1.6-0.9-3.2-1.9-4.8-2.7c-1.7-0.8-3.4-1.6-5-2.4c-3.9-1.8-7.8-3.6-11.7-5.3C39.1,71.7,38.7,72.3,39.1,72.5"/>
	<path class="st1" d="M107.7,113.2c-2-0.9-4-1.8-6.1-2.6c-0.4-0.2-0.6,0.5-0.2,0.7c2,0.8,4,1.6,5.9,2.5
		C107.7,114,108.1,113.4,107.7,113.2"/>
	<path class="st1" d="M109.3,110.6c-1.8-1.1-3.7-1.8-5.7-2.2c-0.4-0.1-0.6,0.6-0.2,0.7c2,0.4,3.9,1.1,5.6,2.2
		C109.3,111.4,109.7,110.8,109.3,110.6"/>
	<path class="st1" d="M110.4,107.6c-1.8-0.6-3.5-1.3-5.3-1.9c-0.4-0.2-0.6,0.5-0.2,0.7c1.8,0.6,3.5,1.3,5.3,1.9
		C110.6,108.4,110.8,107.8,110.4,107.6"/>
	<path class="st1" d="M113.2,104.6c-2.2-0.5-4.4-1.1-6.6-1.9c-0.4-0.2-0.6,0.5-0.2,0.7c2.1,0.8,4.3,1.5,6.6,1.9
		C113.5,105.4,113.7,104.7,113.2,104.6"/>
	<path class="st0" d="M151.8,35.1c-0.1,0-0.2,0-0.3,0c0.9-0.8,1.6-1.6,1.7-2.8c0-0.4-0.4-0.8-0.8-0.8c-0.3,0-0.6,0-0.9,0.1
		c0-0.1,0-0.1,0.1-0.2c0.5-0.8,0.7-1.6-0.3-2.2c-1.5-1-3.3,0.9-4.3,1.8c-0.6,0.5-1.3,1.1-1.9,1.6c0.1-0.4,0.1-0.7,0.2-1.1
		c0.2-1.8,0-5.9-2.6-5.9c-0.3,0-0.6,0.1-0.9,0.2c-0.1-0.1-0.2-0.2-0.4-0.3c-1-0.6-2.4-0.6-3.5-0.2c-2.4,0.8-3.7,3.2-3.8,5.7
		c0,0.8,0.1,1.5-0.1,2.3c-0.2,0.7-0.5,1.3-0.8,2c-0.6,1.4-0.7,2.8-0.5,4.3c0,0.1,0,0.2,0.1,0.3c0,0.4,0.1,0.8,0.2,1.1
		c-2.3,2.6-3.8,5.9-6.5,8.2c-1.7,1.4-3.8,2.5-6,2.8c-0.9,0-1.8-0.1-2.6-0.3c-1.4-0.3-2.7-0.9-3.9-1.8c-1.3-1-2.2-2.4-3.1-3.8
		c-2.2-3.7-4.2-7.4-6.4-11.1c-1.8-3.1-3.7-6.3-6.9-8c-2-1.1-4.3-1.5-6.5-1.9l-7.1-1.3c-0.6-0.6-1-1.3-1.1-2.2c0-0.8-0.7-1.6-1.6-1.6
		c-1.7,0.1-3.5,0.1-5.2,0.2c0,0,0,0,0,0c0,0-0.1,0-0.1,0c-1,0-1.5,0.9-1.5,1.7c-0.7,1.6-2.7,1.9-4.3,2c-2.5,0.2-5,0.3-7.4,0.7
		c-3.3,0.5-6.6,1.8-9,4.2c-0.6,0.5-1.2,1-1.8,1.7c-2.6,3.1-3.3,7.2-4.6,11c-1.3,3.9-3.5,7.8-6.6,10.5c-1.3,1.1-2.8,2.1-4.5,2.5
		c-2,0.5-4,0.1-5.9-0.5c-3.7-1.3-7.1-3.8-9.5-6.9c1.3-2.3,2.4-4.8,2.4-7.5c0-1.3-0.3-2.6-0.8-3.7c-0.5-1-1.2-2.3-2.4-2.6
		c-0.6-0.2-1.3-0.1-1.8,0.3c-0.3-0.3-0.7-0.5-1.2-0.6c-1.7-0.3-3.4,0.7-4.3,2c-0.7,1-1,2.2-0.9,3.4c-0.8-0.9-1.7-1.7-2.6-2.4
		c-1-0.8-2.8-1.7-3.8-0.3c-0.6,0.9-0.3,2,0.2,2.9c-1-0.5-2.1-0.7-2.8,0c-0.8,0.9-0.4,1.8,0.2,2.6c0.1,0.2,0.2,0.4,0.3,0.6
		c-0.1,0-0.2,0-0.3,0c-1-0.1-1.7,0.5-1.5,1.5c0.2,1.1,1,1.9,1.8,2.6c3.1,2.8,6.6,5.7,10.8,6.5c2.2,3.4,4.6,6.8,7.4,9.7
		c1.2-0.8,2.5-1.4,4-1.6c4.3-1.6,9.3-1.2,13.7-0.2c3.7,0.8,7.2,2.1,10.6,3.5c1.4-1.2,2.6-2.6,3.7-4.1c1.8-2.4,3.3-5,4.6-7.7
		c0.3,1.1,0.6,2.3,0.9,3.4c0.4,2.8,0.7,5.7,0.9,8.5c0,0.1,0,0.1,0,0.2c9.3,0.4,18.6,0.4,27.9,0.1l1.4-0.2c0.2,0,0.4,0.1,0.5,0.2
		c0-0.1,0.1-0.2,0.1-0.3c0.9-6,1.9-12,3-17.9c2.7,5.3,5.8,10.4,10.1,14.5c0.6-0.4,1.3-0.7,2-1.1c4.9-2.5,10.2-4.4,15.6-5.1
		c2.2-0.3,4.5-0.2,6.6,0.3c0.1,0,0.2,0,0.3,0.1c2.7,0.4,5.1,1.9,7.1,3.6c0.2-0.3,0.4-0.6,0.6-0.9c1.1-1.4,2-2.9,2.8-4.5
		c1.3-2.5,2.2-5.1,3-7.8c2.2-0.9,4.3-2.1,6.2-3.5c1-0.7,1.9-1.5,2.8-2.4c0.9-0.9,1.7-1.8,2-3.1C152.4,35.7,152.2,35.2,151.8,35.1
		 M19.1,40.1c-0.2,0.1-0.5,0.1-0.8,0.2c-1.4,0.1-2.5-1-2.7-2.4c0-0.1,0-0.2-0.1-0.3c0.1-0.3,0.3-0.5,0.6-0.6c0.8-0.4,1.7-0.3,2.4-1
		c0.4,0.5,1,0.9,1.3,1.4c0.2,0.2,0.3,0.5,0.4,0.8C20,38.9,19.7,39.6,19.1,40.1 M138,33.3c-0.4-1-0.4-2,0.1-3
		c0.3-0.6,0.7-1.1,1.3-1.4c0.5-0.3,1-0.4,1.6-0.7c0.1,0,0.2,0,0.3,0c0.1,0.1,0.2,0.3,0.3,0.4c0.3,0.5,0.5,1,0.6,1.7
		C142.1,32.4,140,33.9,138,33.3 M141.9,43C141.9,43,141.9,43,141.9,43c0,0,0-0.1,0-0.1c0.2-0.1,0.4-0.1,0.6-0.2
		C142.3,42.8,142.1,42.9,141.9,43"/>
	<path class="st0" d="M84.1,7.5c-1.4-1.2-3.4-1.7-5.2-1.6c-0.6,0-1.1,0.2-1.5,0.5c-0.6,0.2-1.1,0.5-1.5,0.9
		c-0.2,0.1-0.4,0.4-0.5,0.7c-0.5,1.9-0.5,4-0.4,5.9c0.1,1.9,1,3.5,2.8,4.2c1.6,0.6,3.4,0.2,4.8-0.8c1.5-1.1,2.4-2.9,2.8-4.7
		C85.8,10.7,85.6,8.8,84.1,7.5"/>
	<path class="st0" d="M74.6,11.1c0-0.8-0.6-1.6-1.4-1.7c-0.8-0.1-1.7,0.4-2,1.1c-0.4,0.7-0.4,1.6-0.4,2.4c0,0.8,0.2,1.6,0.6,2.3
		c0.4,0.7,1,1.3,1.7,1.6c0.3,0.1,0.8,0.1,1-0.3c0.1-0.2,0.1-0.6-0.1-0.8c0-0.1,0-0.1,0-0.2c0-1.2,0-2.5,0-3.7
		C74.3,11.7,74.6,11.4,74.6,11.1"/>
	<path class="st0" d="M89.5,12.3c-0.1-0.8-0.4-1.6-1.3-1.8c-0.9-0.2-1.7,0.4-2.1,1.1C86,11.7,86,11.8,86,11.9
		c-0.1,0.1-0.1,0.1-0.1,0.2c-0.2,1.2-0.3,2.5-0.5,3.7c0,0.1-0.1,0.1-0.1,0.2c-0.1,0.4,0.1,0.7,0.5,0.9c0.4,0.2,0.8-0.2,1.2-0.4
		c0.3-0.2,0.6-0.4,0.8-0.7c0.5-0.4,1-1,1.3-1.6C89.4,13.7,89.5,13,89.5,12.3"/>
	<path class="st3" d="M88.5,15.1c-0.1,0.1-0.2,0.3-0.3,0.4c0.1,0.4,0.2,0.8,0.2,1.2c0,0.3-0.1,0.8-0.4,1c-0.3,0.2-0.7-0.1-0.9-0.4
		c-0.2-0.4-0.1-1,0-1.4c0.1-0.3-0.4-0.4-0.5-0.1c-0.1,0.5-0.2,1-0.1,1.5c0.1,0.4,0.4,0.8,0.8,0.9c0.4,0.1,0.8,0,1.1-0.3
		c0.3-0.3,0.3-0.8,0.3-1.2C88.9,16.1,88.7,15.6,88.5,15.1"/>
	<path class="st1" d="M71.8,10.9c0.3,1.1,0.7,2.2,1.3,3.2c0.2,0.4,0.8,0,0.6-0.4c-0.6-0.9-1-1.9-1.3-3
		C72.3,10.3,71.6,10.5,71.8,10.9"/>
	<path class="st1" d="M87.8,11.5c-0.6,1.1-1.3,2.1-2.2,3c-0.3,0.3,0.2,0.8,0.5,0.5c0.9-0.9,1.7-2,2.3-3.1
		C88.6,11.4,88,11.1,87.8,11.5"/>
	<path class="st2" d="M87.5,8.4c-0.5-2.5-2.4-4.5-4.7-5.5c-2.3-0.9-5-0.5-7,1c-1.2,0.9-2.1,2.1-2.6,3.4c-0.1,0.2,0,0.5,0.2,0.7
		c0.1,0.1,0.2,0.2,0.3,0.2c-0.4,2.6-0.8,5.2-0.6,7.8c0.1,1.3,0.3,2.5,0.7,3.7c0.2,0.6,0.4,1.2,0.7,1.8c0.3,0.5,0.6,1.1,1,1.5
		c0.3,0.4,0.7,0.6,1.2,0.7c0.7,0.5,1.6,1,2.5,0.9c0.3-0.1,0.6-0.2,0.8-0.4c0.5,0.1,1,0.1,1.5-0.1c0.7-0.3,1-0.8,1.4-1.4
		c0.6-0.8,1.1-1.5,1.6-2.4c0.4-0.4,0.7-0.9,0.9-1.4c0.8-1.8,0.9-3.8,0.9-5.7c0-0.2,0-0.5,0-0.7c0-0.1,0-0.3,0.1-0.4
		c0.1-1,0.3-1.9,0.4-2.9c0.1,0,0.1,0,0.2,0C87.4,9.1,87.6,8.8,87.5,8.4 M84.4,12.6c-0.4,1.3-0.9,2.7-1.9,3.6
		c-0.2,0.2-0.5,0.4-0.8,0.5c0,0,0,0,0,0c0,0-0.1,0-0.1,0l-2.5-0.1c-0.2,0.1-0.4,0.2-0.7,0.3c-0.2,0.1-0.4-0.2-0.3-0.3c0,0,0,0,0,0
		c-0.5,0-0.9,0-1.4-0.1c-0.4-0.1-0.7-0.3-1-0.6c-0.5-0.6-0.7-1.5-0.8-2.3c-0.1-0.9,0-1.8,0.1-2.7c0.1-0.9,0.3-1.7,0.5-2.5
		c0.4,0,0.8,0,1.2,0c0.2-0.1,0.4-0.2,0.6-0.2c0.1,0,0.3,0.1,0.4,0.1c0,0,0,0,0,0c1.9,0,3.9,0.2,5.8,0.4c0.1,0,0.1,0,0.2,0l0.1,0
		c0,0,0,0,0,0c0.1,0,0.2,0,0.3,0c0.2,0,0.5,0.1,0.7,0.1C85,9,85.1,9,85.2,9C85.1,10.2,84.8,11.4,84.4,12.6"/>
	<path class="st1" d="M78.9,11.1c-0.5,1.8-0.9,3.5-1.4,5.3c-0.1,0.3-0.2,0.7,0.1,1c0.3,0.2,0.7,0.2,1,0.1c0.7-0.1,1.3-0.6,1.8-1.1
		c0.3-0.4-0.2-0.9-0.5-0.5c-0.3,0.4-0.8,0.8-1.4,0.9c-0.1,0-0.3,0-0.4,0.1c0.1,0,0,0.2,0.1,0c0-0.1,0-0.1,0.1-0.2
		c0.1-0.4,0.2-0.7,0.3-1.1c0.4-1.4,0.7-2.8,1.1-4.2C79.7,10.9,79,10.7,78.9,11.1"/>
	<path class="st1" d="M75.2,11.9c0.1,0.6,0.6,1.1,1.2,1.2c0.3,0.1,0.7,0,1-0.1c0.3-0.2,0.5-0.4,0.6-0.7c0.1-0.2,0-0.4-0.1-0.5
		c-0.2-0.1-0.4,0-0.5,0.1c0,0-0.1,0.1-0.1,0.1c0,0,0,0.1-0.1,0.1c0,0,0,0,0,0c0,0-0.1,0.1-0.1,0.1c0,0,0,0-0.1,0.1c0,0,0,0,0,0
		c-0.1,0.1-0.2,0.1-0.3,0.1c0,0-0.1,0-0.1,0c0,0-0.1,0-0.1,0c0,0-0.1,0,0,0c0,0-0.1,0-0.1,0c0,0-0.1,0-0.1,0c0,0-0.1,0,0,0
		c0,0-0.1,0-0.1-0.1c0,0,0,0-0.1,0c0,0,0,0,0,0c0,0-0.1-0.1-0.1-0.1c0,0,0,0-0.1-0.1c0,0,0,0,0,0c0,0-0.1-0.1-0.1-0.1c0,0,0-0.1,0,0
		c0,0,0,0,0-0.1c0-0.1,0-0.1,0-0.2c0-0.2-0.3-0.3-0.4-0.2C75.3,11.6,75.2,11.7,75.2,11.9"/>
	<path class="st1" d="M80.5,12.1c-0.1,0.7,0.6,1.2,1.2,1.3c0.3,0.1,0.7,0.1,1-0.1c0.3-0.1,0.5-0.4,0.6-0.6c0.1-0.1,0.1-0.4,0-0.5
		c-0.1-0.1-0.4-0.2-0.5,0c-0.1,0.1-0.1,0.2-0.2,0.2c0,0-0.1,0.1-0.1,0.1c0,0-0.1,0.1,0,0c0,0,0,0,0,0c0,0-0.1,0.1-0.1,0.1
		c-0.1,0,0,0,0,0c0,0-0.1,0-0.1,0c-0.1,0,0,0,0,0c0,0-0.1,0-0.1,0c-0.1,0-0.1,0-0.1,0c-0.1,0-0.2,0-0.3-0.1c0,0-0.1,0,0,0
		c0,0,0,0-0.1,0c0,0-0.1,0-0.1,0c0,0-0.1,0,0,0c0,0-0.1-0.1-0.1-0.1c0,0,0,0,0,0c0,0,0,0,0,0c0,0,0,0,0-0.1c0-0.1,0,0,0,0
		c0,0,0-0.1,0-0.1c0,0,0,0,0,0c0,0,0-0.1,0-0.1c0-0.2-0.2-0.4-0.4-0.4C80.6,11.7,80.5,11.9,80.5,12.1"/>
	<path class="st1" d="M77.4,18.7c0.9,0.7,2.1,0.3,3,0.1c0.2,0,0.3-0.3,0.2-0.4c-0.1-0.2-0.2-0.3-0.4-0.2c-0.8,0.2-1.8,0.5-2.5,0
		c-0.1-0.1-0.4,0-0.5,0.1C77.2,18.4,77.2,18.6,77.4,18.7"/>
	<path class="st1" d="M74.2,8.1c1,0.8,2.4,0.6,3.4-0.1c0.5-0.3,0.9-0.8,1.3-1.3c0.3-0.5,0.6-1.1,1.1-1.5c0.3-0.3-0.2-0.8-0.5-0.5
		c-0.8,0.8-1.1,1.9-1.9,2.5c-0.7,0.6-2.1,1-2.8,0.4C74.4,7.4,73.9,7.9,74.2,8.1"/>
	<path class="st1" d="M77.2,8.2c1.2,0.6,2.5,0.6,3.7,0c1.1-0.5,1.8-1.5,2.2-2.6c0.1-0.4-0.6-0.6-0.7-0.2c-0.3,0.9-0.9,1.7-1.8,2.2
		c-0.9,0.5-2.1,0.5-3.1,0C77.2,7.4,76.8,8,77.2,8.2"/>
	<path class="st1" d="M80.5,8.7c1,0.3,2.1,0.4,3.2,0.1c1-0.2,1.7-0.9,2.3-1.7c0.3-0.3-0.2-0.8-0.5-0.5c-0.5,0.7-1.1,1.3-2,1.5
		c-0.9,0.2-1.9,0.2-2.8-0.1C80.3,7.9,80.1,8.6,80.5,8.7"/>
	<path class="st1" d="M17.8,40.3c-0.8,0.1-1.4,0.5-2.1,0.9c-0.6,0.4-1.2,0.8-1.7,1.3c-0.5,0.5-0.8,1.2-1,1.9
		c-0.2,0.8-0.5,1.7-0.7,2.5c-0.1,0.4,0.6,0.6,0.7,0.2c0.2-0.7,0.4-1.5,0.6-2.2c0.2-0.7,0.4-1.3,0.9-1.8c0.5-0.5,1-0.9,1.6-1.2
		c0.6-0.4,1.2-0.7,1.9-0.8C18.5,40.9,18.3,40.2,17.8,40.3"/>
	<path class="st1" d="M3.4,42c2.6,1.5,5.2,3.1,7.8,4.8c0.4,0.3,0.7-0.4,0.4-0.6c-2.5-1.7-5.1-3.3-7.8-4.8C3.4,41.2,3,41.8,3.4,42"/>
	<path class="st1" d="M5.7,38.6c2.1,1.9,4.4,3.7,6.7,5.3c0.4,0.3,0.7-0.4,0.4-0.6c-2.3-1.6-4.5-3.3-6.6-5.2
		C5.9,37.8,5.4,38.2,5.7,38.6"/>
	<path class="st1" d="M8.4,35.5c2,1.9,4,3.8,6.1,5.7c0.3,0.3,0.8-0.2,0.5-0.5c-2-1.9-4-3.8-6.1-5.7C8.6,34.7,8.1,35.2,8.4,35.5"/>
	<path class="st1" d="M138,33.9c2.2,1.4,3.4,3.8,4.4,6.2c0.2,0.4,0.8,0.2,0.7-0.2c-1-2.5-2.3-5.1-4.7-6.6
		C137.9,33,137.6,33.6,138,33.9"/>
	<path class="st1" d="M143.5,26.7c1.6,2.9,0.9,6.6-1.6,8.7c-0.3,0.3,0.2,0.8,0.5,0.5c2.8-2.3,3.5-6.4,1.7-9.5
		C143.9,25.9,143.3,26.3,143.5,26.7"/>
	<path class="st1" d="M151,31.2c-0.5,0.6-1.1,1-1.8,1.4c-0.7,0.5-1.4,1-2.1,1.5c-1.4,1-2.8,2-4.2,2.9c-0.4,0.3,0,0.9,0.4,0.6
		c1.4-1,2.9-2,4.3-3c0.7-0.5,1.4-1,2.1-1.5c0.6-0.4,1.3-0.9,1.8-1.5C151.8,31.4,151.3,30.9,151,31.2"/>
	<path class="st1" d="M151.2,35c-2.2,1.6-4.5,3-6.9,4.3c-0.4,0.2,0,0.8,0.4,0.6c2.4-1.2,4.7-2.7,6.9-4.3
		C151.9,35.3,151.5,34.7,151.2,35"/>
	<path class="st2" d="M78.8,9.6c-0.3,0-0.6,0-1,0c-0.2,0-0.3,0.1-0.5,0.1c-0.1,0-0.3,0-0.4,0c-0.5,0-1.1-0.1-1.6,0.3
		c-0.1,0.1-0.1,0.4,0.1,0.4c0,0,0,0,0,0c0,0.2,0.1,0.3,0.3,0.3c0.2,0,0.3,0,0.5-0.1c0.6-0.2,1.3-0.5,2-0.5c0.1,0,0.1,0,0.2-0.1
		c0.1,0,0.3,0,0.4,0c0.1,0,0.1,0,0.1-0.1C79.1,10,79.1,9.7,78.8,9.6"/>
	<path class="st2" d="M84.5,11.2c0-0.2-0.2-0.2-0.3-0.3L84,10.8c0-0.3-0.4-0.4-0.6-0.5c-0.3-0.1-0.6-0.1-0.9-0.2
		C82,10,81.6,9.9,81.3,9.7c-0.1,0-0.2,0-0.3,0.1c-0.1,0.1-0.1,0.3,0,0.4c0.3,0.2,0.7,0.3,1.1,0.5c0.3,0.1,0.6,0.3,1,0.4l0.4,0.2
		c0.2,0.1,0.6,0.4,0.9,0.3C84.4,11.5,84.5,11.4,84.5,11.2"/>
	<path class="st1" d="M76.3,89.7c2.6-0.3,4.9-1.7,7.3-2.8l7.7-3.9c2.5-1.2,5-2.5,7.4-3.7c2.4-1.2,4.6-2.7,6.9-4.2
		c2.5-1.7,5.1-3.3,7.9-4.4c-0.1-0.1-0.3-0.1-0.4-0.2c0.2,0.3-1.9,1.2-2.2,1.3c-0.8,0.4-1.7,0.7-2.5,1c-1.6,0.7-3.2,1.5-4.5,2.7
		c-0.3,0.3,0.2,0.8,0.5,0.5c1.5-1.4,3.5-2.2,5.4-3c0.9-0.4,1.9-0.8,2.8-1.2c0.6-0.3,1.8-0.9,1.2-1.7c-0.1-0.1-0.2-0.2-0.4-0.2
		c-2.5,1-4.8,2.2-7,3.7c-2.2,1.5-4.3,3-6.6,4.3c-2.4,1.3-4.9,2.5-7.3,3.7c-2.5,1.3-5,2.5-7.5,3.8c-1.4,0.7-2.8,1.4-4.2,2.1
		c-1.3,0.7-2.7,1.2-4.2,1.4C75.8,89.1,75.8,89.8,76.3,89.7"/>
	<path class="st1" d="M39.9,72c-0.4-0.3-0.8-0.6-1.3-0.8c-0.3-0.1-0.6-0.1-0.8,0.1c-0.7,0.8,1.2,1.3,1.6,1.5c2,0.9,4.1,1.7,6.1,2.4
		c0.4,0.2,0.6-0.5,0.2-0.7c-1.5-0.5-3-1.1-4.5-1.7c-0.7-0.3-1.5-0.6-2.2-0.9c-0.1-0.1-0.4-0.2-0.5-0.2l-0.2,0.1c0,0,0.1,0,0.1,0
		c0,0,0.1,0.1,0.2,0.1c0.3,0.2,0.7,0.4,1,0.7C39.9,72.8,40.2,72.2,39.9,72"/>
	<path class="st1" d="M112.6,48.5C112.6,48.5,112.6,48.4,112.6,48.5c-0.4-0.8-1-1.4-1.4-2.1c-0.3-0.6-0.6-1.1-0.9-1.6
		c-0.4,0.2-0.8,0.4-1.3,0.7c-0.3,0.2-0.5-0.3-0.2-0.4c0.4-0.2,0.8-0.5,1.2-0.7c0,0,0,0,0,0c-0.1-0.2-0.2-0.4-0.3-0.6
		c-0.3,0.4-0.6,0.8-1,1.1c-0.1,0.1-0.2,0.1-0.3,0c-0.1-0.1-0.1-0.3,0-0.3c0.4-0.3,0.7-0.8,1.1-1.2c-0.1-0.3-0.3-0.5-0.4-0.8
		c0,0,0,0,0,0c0,0.1-0.1,0.1-0.1,0.2c0,0,0,0.1,0,0.1c-0.1,0.1-0.1,0.3-0.2,0.4c0-0.1,0-0.2,0-0.3c0-0.2,0-0.3-0.1-0.5
		c0-0.1-0.1-0.3-0.2-0.4c-0.1-0.1-0.1-0.2-0.2-0.3c0,0,0-0.1,0.1-0.1c0,0,0,0,0.1-0.1c0-0.1,0.1-0.2,0.1-0.3
		c-0.1-0.2-0.2-0.4-0.3-0.6c-0.3-0.5-0.7-1-0.9-1.5c0,0,0,0,0,0c-0.7-1.3-1.4-2.5-2.2-3.8c-0.1-0.1-0.2-0.1-0.2,0.1l0,0.2
		c0,0.1,0,0.2,0,0.3c0,0,0,0,0,0c0,0.8,0.1,1.6,0.1,2.4c0,0.2,0,0.3-0.1,0.5c-0.1,0.1-0.3,0.2-0.4,0.3l-1,0.8
		c-0.2,0.1-0.3,0.2-0.5,0.4c-0.1,0.1-0.3,0.3-0.5,0.3c-0.2,0-0.4,0-0.5,0c-0.2,0-0.4,0-0.7,0c-0.8-0.1-1.5-0.1-2.3-0.2
		c-0.7,0-1.4,0.1-1.8,0.6c-0.1,0.1-0.1,0.2,0,0.3c0.6,0.6,1.2,1.3,2,1.7c0.6,0.4,1.6,0.8,1.6,1.7c0,0,0,0,0,0c0,0,0,0,0,0.1
		c-0.1,0.3-0.2,0.7-0.3,1c0.5,0,0.9,0,1.4,0c1.3,0,2.5,0.2,3.8,0c0.3,0,0.4,0.4,0.1,0.5c-1.3,0.2-2.5,0-3.8,0c-0.5,0-1.1,0-1.6,0
		c-0.1,0.4-0.1,0.9,0,1.3c0.6-0.2,1.2-0.4,1.8-0.5c1.1-0.3,2.3-0.1,3.4-0.5c0.3-0.1,0.4,0.4,0.1,0.5c-1.1,0.3-2.3,0.2-3.4,0.5
		c-0.7,0.1-1.3,0.3-2,0.6c0.1,0.5,0.2,1.1,0.5,1.5c0,0.1,0.1,0.1,0.1,0.2c0.1,0.2,0.3,0.3,0.5,0.4c0.1,0.1,0.3,0,0.3-0.1
		c0.2-0.5,0.3-1,0.4-1.5c0.2,0.7,0.4,1.4,0.7,2c0.3,0.5,0.6,0.9,1,1.2c0.2,0.2,0.5,0.3,0.8,0.1c0.2-0.2,0.2-0.4,0.2-0.7
		c0-0.4,0.1-0.9,0.1-1.3c0.3,0.7,0.7,1.5,1.3,2c0.2,0.2,0.5,0.4,0.8,0.4c0.3,0.1,0.5-0.2,0.5-0.5c0-0.1,0-0.1,0-0.2
		c0-0.1,0-0.2,0-0.4c0,0,0,0,0,0c0-0.6-0.1-1.1-0.2-1.7c0.4,0.4,0.8,0.7,1.3,1c0.3,0.2,0.6,0.3,0.9,0.5c0.2,0.1,0.5,0.2,0.8,0.2
		c0.7-0.1,0.7-0.8,0.6-1.3c-0.1-0.3-0.2-0.6-0.3-0.9c0.1,0,0.1,0.1,0.2,0.1c0.3,0.1,0.7,0.3,1,0.4c0.3,0,0.6,0,0.8-0.3
		C112.7,49,112.8,48.7,112.6,48.5 M101.7,44.3c-0.1-0.1-0.1-0.3,0-0.4c0.4-0.3,1-0.4,1.5-0.4c0.1,0,0.1,0,0.2,0c0,0.1,0,0.1-0.1,0.2
		c0,0.1-0.1,0.2-0.1,0.2c0,0.1,0,0.2,0,0.3c0,0.1,0,0.3,0.1,0.4c0,0.1,0.1,0.2,0.1,0.3C102.8,44.8,102.1,44.7,101.7,44.3
		 M105.9,44.7c-0.4,0.4-1.1,0.3-1.7,0.3c0.1-0.1,0.1-0.2,0.2-0.3c0.1-0.3,0.1-0.6,0-0.9c0-0.1,0-0.1-0.1-0.2c0,0,0.1,0,0.1,0
		c0.6,0.1,1.2,0.2,1.5,0.8C106,44.5,106,44.6,105.9,44.7 M107.6,45.6C107.6,45.6,107.6,45.6,107.6,45.6
		C107.5,45.7,107.5,45.7,107.6,45.6c-0.1,0.1-0.2,0.2-0.3,0.2c-0.1,0-0.1,0-0.2,0c-0.1,0-0.1,0-0.2-0.1c0,0-0.1-0.1-0.1-0.1
		c-0.1-0.1-0.1-0.2-0.2-0.3c0-0.1,0-0.1,0-0.2c0-0.1,0-0.1,0-0.2c0-0.1,0.1-0.1,0.1-0.1c0.1,0,0.1-0.1,0.2-0.1c0.1,0,0.2,0,0.3,0
		c0.1,0,0.2,0.1,0.2,0.2c0.1,0.1,0.1,0.2,0.1,0.3c0,0,0,0,0,0.1c0,0,0,0.1,0,0.1C107.7,45.5,107.7,45.5,107.6,45.6 M107.7,44.1
		c-0.1,0.2-0.4,0.1-0.4-0.1c0-0.5,0.1-0.9,0.3-1.3c0,0.1,0.1,0.3,0.2,0.4c0,0.1,0.1,0.1,0.2,0.2c0,0,0.1,0.1,0.1,0.1
		c0.1,0.1,0.2,0.1,0.3,0.1c0,0,0,0,0.1,0c0,0,0,0-0.1,0C108.1,43.7,107.9,43.9,107.7,44.1"/>
	<path class="st1" d="M24,51.9C23.9,51.9,23.9,51.9,24,51.9c-0.1-0.1-0.1-0.1-0.1-0.2c-0.2-0.3-0.5-0.5-0.8-0.7
		c-0.7-0.7-1.8-1-2.8-0.8c-0.6,0.1-1.3,0.3-1.7,0.9C18.1,51.6,18,52.3,18,53c0,0.4,0.1,0.8,0.3,1.1c0,0.2,0.1,0.3,0.1,0.5
		c0.2,0.6,0.7,1,1.1,1.4c0.2,0.1,0.4,0,0.4-0.2c0-0.3-0.1-0.6-0.2-0.9c0,0,0,0,0,0c0-0.2-0.1-0.5-0.1-0.7c0-0.3,0-0.6,0-0.9
		c0-0.1,0-0.1,0-0.2c0-0.1,0-0.1,0-0.2c0-0.4,0.2-0.7,0.5-0.9c0.4-0.2,0.9-0.3,1.3-0.3c0.4,0,0.7,0,1.1,0.1c0.4,0.1,0.9,0.3,1.3,0.4
		C24,52.4,24.1,52,24,51.9"/>
	<path class="st1" d="M53.8,43.5c-0.4-0.9-1.1-1.7-1.9-2.3c-1.1-0.7-2.3-1.1-3.6-1.5c-0.1,0-0.2,0-0.3,0.1c0,0,0,0,0,0
		c-0.4,1.4-0.9,2.8-1.5,4.1c-0.3,0.5-0.6,1.1-0.8,1.6c0,0,0,0.1,0,0.1c0,0,0,0,0,0c-0.2,0.1-0.1,0.4,0.1,0.4c0,0,0.1,0,0.1,0
		c0.3,0,0.5,0.1,0.7,0.3c0.2,0.3,0.2,0.6,0.2,0.9c0,0.4-0.1,0.8-0.1,1.2c-0.1,0.4-0.1,0.8-0.2,1.1c-0.2,1.6-0.5,3.2-0.7,4.7
		c0,0.2,0.2,0.4,0.4,0.2c0.2-0.2,0.3-0.4,0.4-0.7c0.1-0.3,0.2-0.7,0.3-1c0.2-0.7,0.4-1.4,0.6-2c0.4-1.3,0.7-2.7,0.9-4.1
		c0.1-0.4,0.1-0.9,0-1.3c0.3,0.2,0.5,0.4,0.6,0.7c0.3,0.6,0.2,1.2,0.1,1.8c-0.1,0.7-0.3,1.4-0.4,2c-0.1,0.7-0.2,1.3-0.3,2
		c-0.1,0.8-0.2,1.6-0.3,2.4c0,0.2,0.3,0.3,0.4,0.1c0.6-1.3,1.1-2.5,1.6-3.8c0.5-1.3,1-2.5,1.2-3.9c0-0.4,0.1-0.8,0-1.1
		c0.3,0.6,0.4,1.4,0.4,2.1c-0.1,1.3-0.5,2.6-0.7,3.8c-0.1,0.7-0.1,1.4,0,2.2c0,0.2,0.4,0.2,0.5,0c0.3-1.2,0.6-2.4,1-3.6
		c0.4-1.2,0.9-2.3,1.2-3.5C54.2,45.9,54.3,44.6,53.8,43.5"/>
	<path class="st1" d="M140,46.7c-0.5-1.3-1.8-2.1-3.1-2.2c-0.1-0.1-0.2-0.2-0.3-0.3c0.3-0.4,0.6-0.8,1.1-0.9
		c0.2-0.1,0.3-0.3,0.1-0.4c-0.4-0.2-0.8-0.1-1.2,0c-0.4,0.1-0.9,0.1-1.3,0.3c-0.4,0.2-0.8,0.4-1.1,0.7c-0.1,0-0.1,0.1-0.2,0.1
		c-0.4-0.3-0.7-0.7-1.1-1.1c-0.1-0.2-0.4,0-0.4,0.2c-0.1,1,0,1.9,0.2,2.8c-0.6,0.2-1.2,0.5-1.8,0.7c-0.1,0.1-0.1,0.3,0,0.4
		c0.6,0.5,1.3,0.7,2.1,0.7c0.1,0.2,0.2,0.3,0.4,0.5c0,0,0,0,0,0c-0.1,0.5-0.2,1.1-0.5,1.5c-0.1,0.2,0.1,0.4,0.3,0.3
		c0.6-0.1,1.1-0.3,1.5-0.7c0.2-0.1,0.3-0.3,0.4-0.5c0.1,0,0.2,0,0.3,0c0.1,0,0.2,0,0.3,0c0.3,0.5,0.5,1,0.5,1.6
		c0,0.2,0.2,0.3,0.4,0.2c0.9-0.7,1.1-1.7,0.9-2.8c0.2-0.3,0.3-0.6,0.3-1c0.3,0,0.7,0,1,0c0.4,0.1,0.8,0.3,1.2,0.2
		C140,47,140.1,46.9,140,46.7"/>
	<path class="st1" d="M135.2,46.2C135.2,46.2,135.2,46.2,135.2,46.2C135.2,46.2,135.2,46.2,135.2,46.2
		C135.2,46.2,135.2,46.2,135.2,46.2C135.2,46.2,135.2,46.2,135.2,46.2"/>
	<polyline class="st1" points="135.1,46.3 135.1,46.3 135.1,46.3 135.1,46.3 	"/>
	<path d="M111.5,131.2c-0.9-0.6-1.8-0.9-2.9-1c-1.3-0.2-2.6-0.4-3.9-0.5c-4.5-0.6-9.1-1-13.7-1.3c-4.5-0.3-9-0.4-13.6-0.3
		c-5.2,0.1-10.4,0.2-15.5,0.3l-7.9,0.2c-2.5,0.1-5.2-0.1-7.6,0.7c-0.2,0.1-0.4,0.2-0.6,0.3c-0.3,0.1-0.6,0.2-0.8,0.3
		c-0.9,0.3-1.8,1.2-1.7,2.3c0.1,1.3,0.7,2.3,1.8,3c1,0.6,2.2,0.7,3.4,0.8c2.3,0.2,4.5,0.4,6.8,0.5c4.6,0.3,9.3,0.5,13.9,0.6
		c9.2,0.3,18.4,0.6,27.6,0.8c2.4,0.1,4.8,0.1,7.1,0.2c2.1,0.1,4.5,0.4,6.5-0.4c1.3-0.5,2.2-1.3,2.5-2.7
		C113.3,133.5,112.6,132.1,111.5,131.2"/>
	<path class="st3" d="M92,24.2c-0.1-0.1-0.2-0.1-0.3-0.2c-0.9-0.3-1.8-0.5-2.7-0.7c-0.3-0.1-0.6,0-0.7,0.2c-0.2,0.1-0.3,0.2-0.4,0.5
		c-2,6.6-5.1,12.7-8.3,18.7c-0.7,1.2-1.3,2.7-2.4,3.6c-0.2,0.2-0.5,0.3-0.7,0.5c-1.2,0.5-2.5-0.1-3.2-1.3c-0.8-1.3-1-3-1.4-4.5
		c-0.4-1.7-0.8-3.5-1.1-5.2c-0.7-4-1.2-8-1.4-12c0-0.4-0.3-0.8-0.8-0.8c-1.1,0-2.2,0-3.3,0c-0.4,0-0.6,0.2-0.7,0.5
		c-0.1,0.2-0.2,0.4-0.2,0.6c0.9,5.8,0.9,11.8,0.1,17.6c-0.7,4.5-1.9,9.3-5.6,12.4c-0.3,0.3-0.3,0.7-0.1,0.9c0.4,2.7,0.7,5.3,0.7,8
		c0,0.4,0.4,0.8,0.8,0.8c8.7,0.4,17.4,0.9,26.2,1.3c0.8,0.1,1.6,0.2,2.4,0.1c1.3-0.1,1.3-1.2,1.4-2.2c0.4-2.7,0.6-5.5,0.8-8.2
		c0-0.1,0-0.2,0-0.2c0-0.2,0-0.3,0-0.5c-4-9.4-1.2-19.7,1.3-29.1C92.5,24.7,92.3,24.4,92,24.2 M67.7,24.6
		C67.7,24.6,67.7,24.5,67.7,24.6c0.1,0,0.1,0,0.2,0c0,0,0,0.1,0,0.1C67.9,24.6,67.8,24.6,67.7,24.6"/>
	<path class="st0" d="M85.6,63.8c-0.2-0.2-0.4-0.4-0.6-0.3c-0.1,0.1-0.2,0.3-0.2,0.4c0,0.2,0.2,0.3,0.2,0.4c0.2,0.3,0.3,0.5,0.5,0.8
		c0.3,0,0.6,0,0.9,0c0.2,0,0.5,0.1,0.7,0.1C86.6,64.8,86.1,64.3,85.6,63.8"/>
	<path class="st0" d="M87.6,55.7c0.2,1.6,1.1,3.1,2.1,4.3c0.3,0.3,0.6,0.6,0.9,0.9c0-0.4,0.1-0.8,0.1-1.2c-1.1-1.3-1.9-2.9-2.3-4.5
		C88.2,54.3,87.5,55,87.6,55.7"/>
	<path class="st0" d="M87.1,60.6c-0.8-1-1.3-2.2-1.6-3.4c-0.1-0.6-0.2-1.2-0.2-1.8c0-0.6,0.2-1.3,0-1.9c0-0.2-0.1-0.4-0.3-0.5
		c-0.1-0.1-0.3-0.2-0.4-0.1c-0.1,0.1-0.2,0.2-0.2,0.4c-0.5,2.2-0.2,4.6,0.9,6.7c0.6,1.1,1.4,2,2.3,2.8c0.5,0.4,1,0.7,1.5,1
		c0.1,0.1,0.6,0.4,1,0.5c0.1-0.3,0.1-0.6,0.1-0.9c-0.6-0.4-1.3-0.7-1.8-1.2C88,61.6,87.5,61.1,87.1,60.6"/>
	<path class="st0" d="M90.5,54.4c0.1,0.6,0.3,1.3,0.5,1.9c0-0.4,0.1-0.9,0.1-1.3c0-0.1,0-0.2,0-0.2c0-0.2,0-0.3,0-0.5
		c-0.3-0.6-0.5-1.2-0.7-1.8C90.4,53,90.4,53.7,90.5,54.4"/>
	<path class="st0" d="M67.5,26.4c1.4,1.9,2.1,4.6,2,7c-0.1,1,0.8,0.5,0.9-0.2c0-0.1,0-0.2,0-0.3c-0.2-1.2-0.3-2.5-0.5-3.7
		c-0.1-0.2-0.2-0.5-0.3-0.7c-0.6-1.5-1.6-3.1-2.8-4.2c-0.5-0.5-1.2-0.9-1.8-1.2c-0.2,0.1-0.3,0.2-0.4,0.4c-0.1,0.1-0.1,0.2-0.2,0.4
		C65.7,24.5,66.7,25.3,67.5,26.4"/>
	<path class="st0" d="M70.3,37.2c-0.1,0.2,0,0.6,0.2,0.7c0.1,0,0.2,0,0.3,0c0.1,0,0.3-0.1,0.4-0.2c-0.1-0.4-0.2-0.8-0.2-1.3
		c-0.1,0.1-0.1,0.1-0.2,0.2C70.6,36.8,70.4,37,70.3,37.2"/>
	<path class="st0" d="M65.9,37.1c0.2-0.2,0.3-0.4,0.4-0.6c0.5-0.9,0.8-1.9,0.9-2.9c0.2-1.4,0.1-2.9-0.3-4.3
		c-0.1-0.4-0.5-0.5-0.7-0.2c-0.2,0.3-0.1,0.8,0,1.1c0.1,0.4,0.1,0.7,0.1,1.1c0.2,1.8,0,3.9-1.2,5.4c0,0.4,0,0.7-0.1,1.1
		C65.3,37.7,65.7,37.4,65.9,37.1"/>
	<path class="st0" d="M63.4,48.4c0.4-0.6,0.8-1.2,1.1-1.8c0.2-0.4,0.6-1.4-0.3-0.9c-0.3,0.1-0.4,0.4-0.6,0.7
		c-0.1,0.1-0.1,0.2-0.2,0.3c-0.3,1.1-0.7,2.1-1.2,3.1C62.7,49.3,63.1,48.9,63.4,48.4"/>
	<path class="st0" d="M61.6,54c0.3-0.3,0.5-0.9-0.2-0.8c-0.4,0-0.7,0.5-1,0.7c-0.4,0.3-0.7,0.5-1.1,0.7c-0.2,0.1-0.4,0.2-0.5,0.2
		c0,0.1,0.1,0.2,0.1,0.3c0,0.2,0.1,0.3,0.1,0.5c0.4-0.2,0.9-0.4,1.3-0.6C60.7,54.7,61.2,54.4,61.6,54"/>
	<path class="st0" d="M67.5,40.4c0.3,0.6,0.9,1.1,1.5,1.4c1.1,0.7,2.3,1.4,3.6,1.8c-0.1-0.4-0.2-0.8-0.3-1.2c-1.6-0.6-3-1.5-4.3-2.6
		C67.5,39.5,67.3,40,67.5,40.4"/>
	<path class="st0" d="M84.8,43c0.5-0.3,1.2-0.8,1.4-1.4c0.4-0.9-0.4-0.7-0.9-0.3c-1.4,1-2.8,1.8-4.6,2c-0.5,0.1-1,0.1-1.5,0.1
		c-0.2,0.4-0.5,0.9-0.7,1.3c2.1-0.1,4.4-0.5,6.1-1.6C84.7,43,84.8,43,84.8,43"/>
	<path class="st0" d="M83.5,37.2c0.3-0.5,0.5-1.2,0.2-1.7c-0.1-0.2-0.2-0.3-0.3-0.3c-0.8,1.6-1.6,3.1-2.4,4.7
		C82.1,39.1,83,38.2,83.5,37.2"/>
	<path class="st0" d="M69.8,43.9c-0.7,0.2,0.6,1.1,0.8,1.3c0.5,0.4,1.1,0.8,1.6,1.2c1.1,0.7,2.4,1.2,3.6,1.6c2.4,0.7,4.9,1,7.3,0.5
		c1.4-0.3,2.8-0.8,4-1.6c0.6-0.4,1.2-0.8,1.7-1.3c0,0,0.1-0.1,0.2-0.2c0-0.3,0-0.6,0-0.8c0,0-0.1,0-0.1,0c-0.3,0-0.5,0.2-0.8,0.4
		c-0.2,0.1-0.3,0.3-0.5,0.4c-1.9,1.4-4.2,2.2-6.5,2.3c-1.6,0.1-3.6-0.1-5.2-0.7c-1,0.2-1.9-0.2-2.6-1.1c-0.8-0.4-1.6-0.9-2.4-1.4
		C70.7,44.2,70.3,43.7,69.8,43.9"/>
	<path class="st0" d="M83.7,50.6c-0.4-0.1-0.8,0.2-1.2,0.3c-0.4,0.1-0.8,0.2-1.3,0.2c-0.8,0.1-1.7,0-2.5-0.2c-1.7-0.4-3.4-1.1-5-1.8
		c-0.2-0.1-0.5-0.2-0.6,0.1c-0.1,0.2,0.1,0.3,0.2,0.4c0.3,0.3,0.7,0.5,1,0.7c2.3,1.2,5,2,7.6,1.5c0.5-0.1,1.1-0.2,1.6-0.4
		C84,51.3,84.4,50.8,83.7,50.6"/>
	<path class="st0" d="M75.2,53c-1.1-0.3-2-1-2.8-1.6c-0.9-0.7-1.8-1.5-2.4-2.5c-0.3-0.5-0.6-1-0.9-1.5c-0.3-0.5-0.5-1.1-0.7-1.7
		c-0.1-0.3-0.2-0.5-0.2-0.8c0-0.2,0-0.4-0.1-0.7c-0.1-0.2-0.4-0.4-0.6-0.2c-0.1,0.1-0.2,0.5-0.1,0.6c0.4,2,1.3,4.3,2.8,5.7
		c0.7,0.7,1.4,1.4,2.2,2c0.6,0.4,1.2,0.8,1.8,1.1c0.4,0.2,1.5,0.7,1.9,0.3c0,0,0.1-0.1,0.1-0.1C76.5,53.3,75.4,53,75.2,53"/>
	<path class="st0" d="M65.1,41.2c-0.1,0-0.3,0.1-0.4,0.1c0,0-0.1,0-0.1,0c0,0.1,0,0.3-0.1,0.4c0,0.1,0,0.3-0.1,0.4
		c0.2-0.1,0.3-0.1,0.4-0.2C65.1,41.8,65.8,41.1,65.1,41.2"/>
	<path class="st0" d="M90.1,31c0,0.2,0.2,0.3,0.6,0.2c0.1,0,0.1,0,0.2,0c0.1-0.3,0.1-0.6,0.2-0.9c-0.3,0.1-0.5,0.3-0.7,0.4
		C90.2,30.8,90.1,30.9,90.1,31"/>
	<path class="st0" d="M86.8,38.2c-0.1,0.2-0.1,0.4-0.1,0.6c0.1,0.8,0.8,0.2,0.9-0.2c0.5-1.4,1.3-2.5,2.4-3.4c0.1-0.5,0.2-1,0.3-1.4
		C88.7,34.8,87.5,36.3,86.8,38.2"/>
	<path class="st0" d="M92,26.5c-1.8,0.1-3.6,0.6-5.3,1.3c0,0-0.1,0-0.1,0.1c-0.2,0.6-0.4,1.1-0.7,1.7c1.8-1,3.7-1.7,5.8-1.8
		C91.8,27.3,91.9,26.9,92,26.5"/>
	<path class="st0" d="M65.4,54.2c-0.2-0.6-0.6-1.3-1.1-1.7c-0.4-0.3-0.9-0.3-0.6,0.3c1.2,2.4,2,5.4,1.7,8.1
		c-0.1,1.1-0.4,2.2-0.7,3.2c0.4,0,0.9,0,1.3,0.1c0.2-0.7,0.3-1.4,0.4-2C66.8,59.5,66.4,56.7,65.4,54.2"/>
	<path class="st0" d="M63.4,58.1c-0.2,0.5-0.2,1-0.2,1.5c-0.3,1.4-1,2.8-1.9,3.9c-0.1,0.2-0.3,0.3-0.4,0.5c0.5,0,1,0,1.4,0.1
		c1.2-1.5,1.9-3.4,2-5.4C64.2,58,63.8,57.1,63.4,58.1"/>
	<path class="st0" d="M69.8,62.3c-0.1-1.3-0.4-2.6-0.8-3.9c-0.2-0.6-0.5-1.3-0.8-1.9c-0.1-0.2-0.7-1.7-1.1-1.1
		c-0.2,0.4,0.2,1,0.3,1.3c0.5,1.5,0.9,3,1.2,4.5c0.2,0.9,0.2,2,0.1,3c0.3,0,0.7,0,1,0.1C69.9,63.7,69.9,63,69.8,62.3"/>
	<path class="st0" d="M72,60.1c-0.1-0.1-0.2-0.3-0.4-0.3c-0.3,0-0.3,0.3-0.2,0.6c0.3,1.3,0.5,2.7,0.6,4.1c0.3,0,0.6,0,0.9,0
		c-0.1-1.1-0.2-2.2-0.5-3.2C72.4,60.9,72.2,60.5,72,60.1"/>
	<path class="st0" d="M75,59.8c-0.4-0.9-1-1.7-1.5-2.6c-1.1-1.8-3.1-3.2-5-4c-0.2-0.1-0.5-0.1-0.7,0c-0.2,0.1-0.1,0.5,0.1,0.6
		c0.2,0.2,0.4,0.2,0.6,0.3c0.2,0.1,0.5,0.3,0.7,0.4c0.5,0.3,1,0.6,1.5,1c0.4,0.4,0.9,0.8,1.3,1.2c0.8,0.8,1.4,1.9,1.9,2.9
		c0.4,1,0.9,2,1,3.1c0,0.3,0,1.4,0.5,1.2c0,0,0.1,0,0.1-0.1c0.4-0.3,0.2-1.4,0.1-1.9C75.5,61.2,75.3,60.5,75,59.8"/>
	<path class="st0" d="M60.5,60.3c0-0.1,0.1-0.3,0-0.4c0-0.1-0.1-0.2-0.3-0.3c-0.1,0-0.3,0.1-0.4,0.2c-0.1,0.1-0.3,0.2-0.4,0.4
		c0,0.4,0.1,0.9,0.1,1.3C59.9,61.2,60.3,60.8,60.5,60.3"/>
	<path class="st0" d="M80.7,58.5C80.7,58.5,80.7,58.5,80.7,58.5C80.7,58.5,80.7,58.5,80.7,58.5c0.1-0.1,0.2-0.2,0.3-0.3
		c0.1-0.1,0.1-0.2,0.1-0.3L80.7,58.5z"/>
	<path class="st0" d="M80.8,58.5C80.7,58.5,80.7,58.5,80.8,58.5C80.8,58.5,80.8,58.4,80.8,58.5c0.2-0.1,0.2-0.2,0.3-0.3
		C80.9,58.3,80.8,58.4,80.8,58.5"/>
	<path class="st0" d="M80.8,58.5c0.1-0.1,0.2-0.2,0.3-0.3C80.9,58.3,80.8,58.4,80.8,58.5"/>
	<path class="st0" d="M80.8,58.5c0.1-0.1,0.2-0.2,0.3-0.3C80.9,58.3,80.8,58.4,80.8,58.5"/>
	<path class="st0" d="M80.7,58.5C80.7,58.5,80.7,58.5,80.7,58.5C80.7,58.5,80.7,58.5,80.7,58.5L80.7,58.5z"/>
	<path class="st0" d="M80.1,54.3c-0.5-0.2-1.1,0.1-1.5,0.5c-0.3,0.3-0.6,0.7-0.6,1.1c0,0.1,0,0.1,0,0.2c0.1,0.1,0.2,0.1,0.3,0.1
		c0.1,0,0.2-0.1,0.3-0.2c0.2-0.3,0.5-0.5,0.8-0.6c0.4-0.1,0.7,0.2,0.9,0.5c0.3,0.4,0.4,0.9,0.2,1.4c-0.1,0.3-0.3,0.6-0.3,0.9
		c0,0.2,0,0.3,0.1,0.4c0.1,0.1,0.3,0.1,0.4,0l0.4-0.6c0,0.1-0.1,0.2-0.1,0.3c0.2-0.3,0.3-0.6,0.4-1c0.1-0.5,0-1-0.1-1.5
		C81.1,55.1,80.7,54.4,80.1,54.3"/>
	<path class="st0" d="M68.1,51.5c0.1,0,0.3-0.1,0.3-0.2c0-0.1,0-0.2,0-0.3c-0.3-0.7-1.1-1.4-1.7-1.8c-0.3-0.2-0.7-0.5-1.1-0.4
		c-0.1,0-0.2,0-0.2,0.1c-0.5,0.2-0.2,0.7,0.4,0.8c0.7,0.2,1.4,0.5,1.8,1.1c0.1,0.2,0.3,0.5,0.4,0.7C68,51.4,68.1,51.5,68.1,51.5"/>
	<path class="st0" d="M81.2,62.4c0-1.2-1-2.4-2.3-2.4c-0.2,0-0.3,0-0.5,0.2c-0.2,0.2-0.2,0.5,0,0.7c0.2,0.2,0.4,0.1,0.7,0.1
		c0.6-0.1,1.2,0.6,1.2,1.3c0,0.6-0.4,1.2-0.9,1.7c-0.3,0.3-0.7,0.6-1,0.8c0.5,0,0.9,0,1.4,0.1C80.6,64.1,81.2,63.3,81.2,62.4"/>
</g>
</svg>
