<?xml version="1.0" encoding="utf-8"?>
<!-- Generator: Adobe Illustrator 20.1.0, SVG Export Plug-In . SVG Version: 6.00 Build 0)  -->
<svg version="1.1" id="Layer_1" xmlns="http://www.w3.org/2000/svg" xmlns:xlink="http://www.w3.org/1999/xlink" x="0px" y="0px"
	 viewBox="0 0 121.2 195.1" style="enable-background:new 0 0 121.2 195.1;" xml:space="preserve">
<style type="text/css">
	.st0{fill:#3D55CC;}
	.st1{fill:#191919;}
	.st2{fill:#FF4133;}
	.st3{fill:#FFBB00;}
	.st4{fill:#303C78;}
	.st5{fill:#F5EBE0;}
	.st6{fill:#25B89D;}
	.st7{fill:#CC9966;}
	.st8{fill:#DADFF5;}
	.st9{clip-path:url(#SVGID_2_);fill:#25B89D;}
	.st10{clip-path:url(#SVGID_2_);fill:#F5EBE0;}
</style>
<g>
	<path class="st6" d="M97.3,56.9c0.1-1.3-0.2-2.6-0.4-3.9c-0.3-1.4-0.6-2.9-1-4.3c-0.3-1.1-0.6-2.3-1.4-3.2
		c-0.9-1.1-2.1-1.5-3.5-1.6c-1.7-0.1-3.4-0.2-5-0.3c-1.8-0.1-3.5-0.2-5.3-0.2c-1.8,0-1.7,2.7,0.1,2.8c0.2,0,0.3,0,0.5,0
		c-0.2,0.7,0,1.5,1,1.7c3.7,0.7,5.1,4,5.9,7.3c-0.1,1.8-0.3,3.6-0.6,5.4c-0.3,1.3-0.7,2.6-1.1,3.8c-1.1,1-1.8,2.3-2,3.7
		c-0.4,0.6-0.7,1.3-1.1,1.9c-0.2,0.4-0.2,0.9,0,1.3c-0.3-0.1-0.6-0.2-0.9-0.2c-0.1,0-0.2-0.1-0.3-0.1c-0.4-0.1-0.7-0.3-1-0.5
		c-1.6-0.9-2.9,1.6-1.3,2.4c2.7,1.5,6,1.8,8.9,0.8c1.5-0.5,2.8-1.5,3.6-2.9c0.8-1.4,1-3,1.1-4.6c0.2-2,0.5-4.1,0.8-6.1
		C95.8,59.9,97.1,59,97.3,56.9"/>
	<path class="st5" d="M82.4,71.3c0.1,0,0.2-0.1,0.3-0.1c-0.1,0-0.2-0.1-0.3-0.1c-0.1,0-0.2-0.1-0.3-0.1c-0.4-0.1-0.7-0.3-1-0.5
		c-0.2-0.1-0.3-0.1-0.5-0.2C80.8,71.1,81.5,71.6,82.4,71.3"/>
	<path class="st5" d="M83.7,69.3c-0.2,0.3-0.3,0.5-0.5,0.8c-0.1,0.3-0.2,0.5-0.1,0.8C83.6,70.5,83.8,69.9,83.7,69.3"/>
	<path class="st5" d="M87.2,64.7c-0.2-0.3-0.4-0.5-0.6-0.7c-0.1,0.2-0.1,0.3-0.2,0.5c-0.7,0.6-1.2,1.4-1.6,2.3
		C86,67.5,88,66.9,87.2,64.7"/>
	<path class="st5" d="M85.3,70.1c-0.4,0.6,0.3,1.8,1.1,1.5c0.2-0.1,0.6,0.2,0.7,0.2C90.8,71.2,86.7,66.5,85.3,70.1"/>
	<path class="st5" d="M89.4,67.8c0.8,2,4.3,1.7,3.7-0.6C92.3,65,89,65.7,89.4,67.8"/>
	<path class="st5" d="M91.3,70.7c-1.8,0.2-2,1.6-1.4,2.6c1-0.5,1.8-1.3,2.3-2.3C91.9,70.7,91.6,70.6,91.3,70.7"/>
	<path class="st5" d="M83.5,73.7c-0.5-1.1-2.1-1-2.6-0.1c0.8,0.3,1.7,0.6,2.6,0.7C83.5,74.1,83.6,73.8,83.5,73.7"/>
	<path class="st5" d="M84.6,47c1.6-0.1,2.5-2.2,1.7-3.3c-0.1,0-0.1,0-0.2,0c-0.9-0.1-1.8-0.1-2.7-0.1C82.5,44.6,82.9,46.6,84.6,47"
		/>
	<path class="st5" d="M86.6,50c-0.3,1.6,1.8,2.8,2.8,1.5C91.1,49.5,86.9,47.2,86.6,50"/>
	<path class="st5" d="M96.6,56.7c0.2,0.1,0.5,0.2,0.7,0.2c0.1-1-0.1-2.1-0.3-3.1C95.8,54.1,94.8,56.2,96.6,56.7"/>
	<path class="st5" d="M88.2,53.8c-0.1,0-0.3,0-0.4,0c0.1,0.5,0.3,1,0.4,1.5c0,0.7-0.1,1.5-0.2,2.2C89.7,57.8,90.7,54.3,88.2,53.8"/>
	<path class="st5" d="M92.1,61.9c-0.3-0.8-2.8-1.5-3.1-0.5C88,64.2,93,65.3,92.1,61.9"/>
	<path class="st5" d="M92.2,55.6c-1.7-0.5-1.9,0.4-2.3,1.9C90.5,60.5,95.1,57.1,92.2,55.6"/>
	<path class="st5" d="M92.9,50.6c-1.2,1.4,0.2,3.6,1.3,2.5c0.6-0.5,0.8-2,0.3-2.4C94.1,50.8,93.3,50.1,92.9,50.6"/>
	<path class="st5" d="M92.8,44.8c-1.9-1.1-3.1,0.8-2.2,2.5C92.2,49.9,95.1,46.1,92.8,44.8"/>
	<path class="st5" d="M96,49c0-0.1,0-0.2-0.1-0.2c-0.1-0.5-0.3-1-0.4-1.4C95.2,48.2,95.5,48.8,96,49"/>
	<path class="st5" d="M81.5,43.5c-0.3,0-0.5,0-0.8,0c-1.2,0-1.5,1.2-1.1,2C81,45.8,81.8,44.6,81.5,43.5"/>
	<path class="st2" d="M57,18C57,18,57,18,57,18c0-0.1,0-0.2,0-0.3c0.1-2.1,0.2-4.6-0.6-6.6c-0.4-1.1-1.2-1.7-2.1-1.9
		c-0.5-1.7-1.1-3.5-1.7-5.1c-0.5-1.2-1.2-3.6-3-3c-1.7,0.6-1.2,2.7-0.9,4c0.2,0.9,0.4,1.9,0.6,2.8c-0.1-0.1-0.2-0.1-0.4-0.1
		c-1-0.3-2.2,0.3-2.6,1.2c-1.9-0.1-2.8,2.1-2,3.8c0.2,0.5,0.6,0.9,0.9,1.1c0,0.1,0,0.3,0,0.4c1,2.9,2.9,5.4,5.6,7
		c0.4,0.2,0.7,0.1,1-0.1c0.1,0,0.2,0,0.3,0c0.7-0.1,1.3-0.2,2-0.4c0.9-0.2,2.7-0.3,3.1-1.3C57.4,19,57.2,18.5,57,18"/>
	<path class="st1" d="M45.1,14c0.5,0.3,1.1,0.4,1.6,0.2c0.5-0.2,0.9-0.6,1-1.1c0.1-0.3-0.4-0.5-0.5-0.1c-0.1,0.4-0.4,0.7-0.7,0.8
		c-0.4,0.2-0.8,0.1-1.2-0.1c-0.1-0.1-0.3,0-0.4,0.1C44.9,13.8,45,13.9,45.1,14"/>
	<path class="st1" d="M47.7,13.1c0.6,0.4,1.4,0.4,2,0c0.6-0.3,1-0.9,1-1.6c0-0.1-0.1-0.3-0.3-0.3c-0.1,0-0.2,0.1-0.3,0.3
		c-0.1,1-1.4,1.7-2.3,1.1C47.6,12.5,47.4,12.9,47.7,13.1"/>
	<path class="st1" d="M54.1,9c-0.8,0-1.6,0.1-2.3,0.5c-0.6,0.3-1,0.9-1.1,1.5c-0.1,0.7,0.3,1.4,0.9,1.8c0.3,0.2,0.6,0.3,1,0.4
		c0.4,0.1,0.8,0.2,1,0.5c0.2,0.3,0.6,0,0.4-0.3c-0.2-0.3-0.4-0.5-0.7-0.6c-0.3-0.1-0.7-0.2-1-0.3c-0.6-0.2-1.1-0.7-1.2-1.3
		c-0.1-0.6,0.3-1.1,0.8-1.4c0.6-0.3,1.3-0.4,2-0.4C54.4,9.5,54.4,8.9,54.1,9"/>
	<path class="st1" d="M52.8,13c-1.8,0.2-3.4,1.1-4.9,1.9c-0.3,0.2,0,0.6,0.3,0.4c1.5-0.8,3-1.7,4.7-1.9C53.1,13.5,53.1,13,52.8,13"
		/>
	<path class="st1" d="M46.1,9.4c0.4,1.2,0.9,2.4,1.3,3.6c0.1,0.3,0.6,0.2,0.5-0.1c-0.4-1.2-0.9-2.4-1.3-3.6C46.5,9,46,9.1,46.1,9.4"
		/>
	<path class="st1" d="M49,8.3c0.3,0.5,0.6,1,0.8,1.6c0.1,0.3,0.2,0.6,0.3,0.8c0.1,0.3,0.2,0.6,0.1,0.9c-0.1,0.3,0.4,0.5,0.5,0.1
		c0.1-0.3,0-0.7,0-1c-0.1-0.3-0.2-0.6-0.3-1c-0.2-0.6-0.5-1.2-0.9-1.8C49.3,7.8,48.8,8,49,8.3"/>
	<path class="st0" d="M88.2,56.6c-0.3-2.6-1.1-5.2-2.6-7.4c-1.1-1.5-2.6-2.8-4.2-3.8c-2.7-2.2-6.1-3.9-9.1-5.2
		c-1.7-1.3-3.3-2.7-4.8-4.2c-1.6-1.6-2.9-3.4-4.1-5.4c-2.3-3.9-3.9-8.1-5.4-12.4c-0.3-0.9-1.2-1.2-2-0.8c-1.6,0.8-3.2,1.6-4.7,2.5
		c-0.2,0.1-0.5,0.2-0.7,0.3c-0.8,0.4-1.6,0.7-2.4,1.1c-0.8,0.3-2.1,0.5-2.6,1.3c-0.5,0.6-0.4,1.8-0.4,2.6c0,0.9,0.2,1.8,0.4,2.7
		c0.4,1.6,0.9,3.2,1.5,4.7c2.2,6.1,5.6,11.6,9.8,16.5c2.1,2.4,4.5,4.6,7,6.6c-0.8,2-0.8,4.1-1.1,6.2c-0.3,2.3-0.7,4.6-1.2,6.9
		c-0.1,0.3,0,0.7,0.1,0.9c-0.2,0.7,0.3,1.4,1,1.6c6.3,1.9,12.6,3.9,18.9,6c0.7,0.2,1.5-0.4,1.7-1l1.1-3.9
		C86.5,67.7,88.7,62.3,88.2,56.6"/>
	<path class="st2" d="M86.8,30.7c-0.2-1.1-1.6-1.2-2.3-0.6c-0.7,0.7-1.4,1.5-2,2.3c-0.3,0.4-0.5,0.7-0.7,1.1
		c-0.1,0.2-0.3,0.4-0.4,0.6c-0.3-0.1-1.1-0.1-1.4-0.1c-0.6,0-1.1-0.1-1.7-0.1c-0.5,0-1.1-0.1-1.6-0.1c0.2-1.4,0.4-2.8,0.4-4.3
		c0.1-1.4-2-1.7-2.6-0.6c-1.9,3.3-2.3,7.1-2.5,10.8c-2,1.9-4,3.7-6.1,5.4c-0.5,0.4-0.5,1.2-0.2,1.7c0.3,0.6,1,0.7,1.6,0.6
		c1.5-0.3,2.9-1.1,4.2-1.9c0.3-0.2,0.6-0.4,0.9-0.6c0.2,0.3,0.5,0.5,0.9,0.7c1.2,0.6,2.8,0.5,4.2,0.4c1.3-0.1,2.8-0.3,3.6-1.5
		c0.8-1.2,1.2-2.7,1.8-4c0-0.1,0.1-0.2,0.1-0.3c0.6-1.4,1.4-2.8,2.1-4.1C86.1,34.4,87.2,32.8,86.8,30.7"/>
	<path class="st4" d="M67.9,46.9c0-0.1,0-0.2,0-0.3c-0.1-0.3-0.3-0.5-0.5-0.7c-0.3-0.4-0.7-1.1-1.3-0.9c-0.5,0.1-0.9,0.7-1.1,1.2
		c-0.2,0.4-0.2,1,0.1,1.4c0.4,0.5,1,0.4,1.5,0.3C67.1,47.8,68,47.7,67.9,46.9"/>
	<path class="st8" d="M76.3,37.8c-0.1-0.3-0.4-0.5-0.7-0.7c-0.3-0.2-0.6-0.3-0.9-0.4c-0.5-0.2-1.2-0.3-1.6,0.1
		c-0.2,0.1-0.2,0.4,0,0.6c0,0,0,0,0,0c0,0,0,0,0,0.1c0,0.1,0,0.1,0,0.2c0,0,0,0.1,0.1,0.1c0,0.1,0.1,0.1,0.1,0.2c0,0,0,0,0,0
		c0,0,0.1,0.1,0.1,0.1c0.2,0.2,0.4,0.4,0.6,0.5c0.4,0.3,1,0.5,1.5,0.5c0.3,0,0.6-0.1,0.8-0.4C76.4,38.5,76.4,38.1,76.3,37.8"/>
	<path class="st8" d="M81.3,37.5c-0.3-0.1-0.7-0.2-1-0.2c-0.7,0-1.3,0.3-1.8,0.8c-0.2,0.2-0.2,0.5,0,0.6c0,0,0.1,0,0.1,0.1
		c0.1,0.3,0.4,0.4,0.6,0.5c0.3,0.1,0.6,0.1,0.9,0.1c0.3,0,0.6-0.1,0.9-0.3c0.3-0.1,0.6-0.3,0.8-0.6C81.9,38.1,81.7,37.7,81.3,37.5"
		/>
	<path class="st1" d="M74.7,37c0,0,0-0.1,0-0.1c0-0.1-0.1-0.2-0.1-0.3c0,0-0.1-0.1-0.2-0.1c-0.2-0.1-0.4-0.2-0.6-0.1
		c-0.1,0-0.2,0.1-0.3,0.2c-0.1,0-0.1,0-0.2,0.1c-0.1,0.1-0.3,0.2-0.3,0.4c-0.1,0.1-0.1,0.2-0.1,0.3c0,0.1,0,0.3,0,0.4c0,0,0,0,0,0
		c0,0,0,0.1,0,0.1c0,0.1,0,0.1,0.1,0.2c0,0.1,0.1,0.1,0.1,0.2c0.1,0.1,0.3,0.2,0.4,0.2c0.4,0.1,0.8-0.3,0.9-0.6
		C74.7,37.5,74.7,37.2,74.7,37"/>
	<path class="st1" d="M79.9,38.4c0-0.1,0-0.1,0-0.2c0-0.1,0-0.3,0-0.4c0-0.1,0-0.1,0-0.2c0-0.1-0.1-0.2-0.2-0.3
		c-0.1-0.1-0.3-0.1-0.4-0.1c-0.1,0-0.3,0.1-0.4,0.1c-0.1,0.1-0.1,0.1-0.2,0.2c-0.1,0.1-0.2,0.2-0.2,0.3c-0.1,0.1-0.1,0.3-0.1,0.4
		c0,0,0,0,0,0.1c-0.1,0.3,0,0.6,0.2,0.8c0.1,0.1,0.1,0.1,0.2,0.2c0.2,0.1,0.3,0.1,0.5,0c0.1,0,0.2-0.1,0.3-0.1
		c0.2-0.1,0.3-0.4,0.4-0.6C79.8,38.5,79.8,38.4,79.9,38.4"/>
	<g>
		<defs>
			<path id="SVGID_1_" d="M84,44.7c-0.7,0.4-1.4,0.9-2.1,1.4c-1.8,1.1-3.5,2.4-5.1,3.9c-2.5,2.3-4.6,5.1-5.3,8.6
				c0,0.1-0.1,0.2-0.1,0.3c0,0.1,0,0.3,0,0.4c0,0.1,0,0.2,0,0.3c0,0.2,0,0.3,0,0.5c0,1.8,0.4,3.6,1.2,5.1c0.4,0.8,0.9,1.6,1.6,2.3
				c1.3,1.3,3.1-0.7,1.9-2C75.6,65,75.3,64.5,75,64c-1.3-2.7-0.3-6.2,1.1-8.7c0.8-1.4,1.8-2.6,3-3.7c1.3-1.1,2.7-2.1,4.1-3.1
				c0.7-0.4,1.3-0.8,2-1.1c0.4-0.2,0.6-0.5,0.7-0.8c0.5-0.9-0.2-2.1-1.2-2.1C84.5,44.5,84.2,44.6,84,44.7"/>
		</defs>
		<clipPath id="SVGID_2_">
			<use xlink:href="#SVGID_1_"  style="overflow:visible;"/>
		</clipPath>
		<path class="st9" d="M84,44.7c-0.7,0.4-1.4,0.9-2.1,1.4c-1.8,1.1-3.5,2.4-5.1,3.9c-2.5,2.3-4.6,5.1-5.3,8.6c0,0.1-0.1,0.2-0.1,0.3
			c0,0.1,0,0.3,0,0.4c0,0.1,0,0.2,0,0.3c0,0.2,0,0.3,0,0.5c0,1.8,0.3,3.6,1.2,5.1c0.4,0.8,0.9,1.6,1.6,2.3c1.3,1.3,3.1-0.7,1.9-2
			C75.6,65,75.3,64.5,75,64c-1.3-2.7-0.3-6.2,1.1-8.7c0.8-1.4,1.8-2.6,3-3.7c1.3-1.1,2.7-2.1,4.1-3.1c0.7-0.4,1.3-0.8,2-1.1
			c0.4-0.2,0.6-0.5,0.7-0.8C86.5,45.5,85.3,43.9,84,44.7"/>
		<path class="st10" d="M75.8,50.7c-0.3,0.6-1.5,1.3-1.2,2c0.6,2,3.7,0.9,3.3-0.8C77.8,51,76.5,50.2,75.8,50.7"/>
		<path class="st10" d="M72.6,58.1c1,0.5,1.4-0.3,2.1-0.9c0.7-0.9,0.8-0.7,0.2-1.8C73.2,52.7,69.3,56.9,72.6,58.1"/>
		<path class="st10" d="M75.8,69.5c0.6,0.3,1.7,0.8,2-0.2c0.3-0.9,1.1-2-0.1-2.6C75.4,65.2,73,68.5,75.8,69.5"/>
		<path class="st10" d="M69.9,58.9c-0.5,0.3-0.3,0.6-0.3,1.1c-0.7,1.2,0.7,2.5,1.9,1.8C73.6,61,71.6,57.7,69.9,58.9"/>
		<path class="st10" d="M74.5,61c-0.6,0.1-1.1,1.8-1.3,2.4c-0.4,0.9,1.5,2,2.3,1.5C78.1,63.8,77.4,60.6,74.5,61"/>
		<path class="st10" d="M82.2,49.6c0.6-0.9,2.1-1.5,1-2.6C80.9,44.6,78.3,49.5,82.2,49.6"/>
		<path class="st10" d="M83.9,45c-0.2,3.6,4.8,1.5,3.1-1C86.3,42.7,83.9,43.6,83.9,45"/>
	</g>
	<path class="st1" d="M75.2,68.2c1-0.6,1.6-1.6,2.1-2.6c0.6-1.2,1-2.4,1.4-3.6c0.9-2.6,1.5-5.3,1.9-8.1c0.1-0.4-0.6-0.6-0.6-0.2
		c-0.4,2.6-1,5.1-1.8,7.6c-0.4,1.2-0.9,2.4-1.4,3.6c-0.5,1-1,2-2,2.6C74.5,67.8,74.8,68.4,75.2,68.2"/>
	<path class="st1" d="M76.9,41.6c0.4,0.5,1,0.7,1.7,0.6c0.6-0.1,1.2-0.6,1.5-1.1c0.1-0.1,0-0.3-0.1-0.4c-0.1-0.1-0.3,0-0.4,0.1
		c-0.3,0.4-0.7,0.7-1.1,0.8c-0.4,0.1-0.9,0-1.2-0.4c-0.1-0.1-0.2-0.2-0.4-0.1C76.8,41.3,76.8,41.5,76.9,41.6"/>
	<path class="st2" d="M81.4,74.5c-0.1-2-1.1-3.7-2.4-5.3c-0.4-0.5-0.9-0.3-1.2,0c-0.2,0-0.4,0-0.6,0.1c-0.3-0.2-0.7-0.2-1,0
		c-0.5,0-1,0.6-0.8,1.1c0.6,2.2,2.8,3.6,4.6,4.8C80.6,75.6,81.5,75.2,81.4,74.5"/>
	<path class="st2" d="M16.4,98.4c-0.4-0.4-0.9-0.8-1.3-1.2c-0.2,0.2-0.3,0.4-0.4,0.6c-0.3,0.3-0.5,0.7-0.6,1.1c-0.1,1.1,1,1.6,2,1.6
		c0.6,0,1.2-0.1,1.7-0.3c-0.3-0.3-0.5-0.7-0.7-1C16.9,99,16.6,98.7,16.4,98.4"/>
	<path class="st2" d="M31.5,83.3c0,0-0.1,0-0.1-0.1c-2.9-1-5.3,0.8-8,1.5c-1.3,0.3-2.9,0-4.1,0.6c-1,0.5-1.4,1.8-0.9,2.8
		c0.2,0.4,0.4,0.7,0.7,1c-1.1,0.3-2.2,0.7-3.2,1.1c-1.5,0.5-3.6,0.9-4.1,2.7c-0.2,0.8,0.2,1.6,0.9,2c0.4,0.2,0.7,0.3,1.1,0.3
		c-0.1-0.2-0.2-0.3-0.2-0.5c-0.2-0.5-0.1-1.3,0.4-1.6c1.4-0.9,2.8-1.6,4.4-2.2c0.7-0.3,1.4-0.6,2-0.9c0,0,0.1,0,0.1,0
		c0.1,0,0.2,0.1,0.3,0.1c0.4,0.1,0.8,0.1,1.2,0c0.7,0,1.4-0.2,2-0.5c0.7-0.3,1.3-0.7,1.7-1.3c0.5-0.5,0.9-1.2,1.3-1.7
		c0.1-0.2,0.3-0.4,0.4-0.6C28.7,85.1,30.1,84.2,31.5,83.3"/>
	<path class="st2" d="M25,105.2c-0.3-0.4-0.7-0.6-1.2-0.6c0-0.1-0.1-0.2-0.1-0.2c0,0,0,0,0,0c1.1-0.9,0.2-2.9-1.2-2.2l-4.6,2.4
		c-0.7,0.4-1.1,1.3-0.5,2c1.2,1.4,2.4,2.7,3.5,4.1c0.4,0.5,1.2,0.7,1.8,0.2c1.1-0.9,2.1-1.9,3.2-2.8c0.2-0.2,0.4-0.4,0.4-0.7
		c0,0,0,0,0,0C27.5,106.2,26.3,104.6,25,105.2"/>
	<path class="st7" d="M22.8,110.8c-0.1-0.4-0.5-0.7-0.8-1.1c-0.5-0.5-1-1-1.5-1.6c-0.4-0.5-0.9-1.1-1.2-1.7c-0.3-0.5-0.6-1.1-1-1.6
		c-0.4-0.4-0.9-0.5-1.4-0.4c-0.4,0.1-0.7,0.1-1,0.2c-0.9-0.2-1.7-0.7-2.5-1.1c-1.4-0.8-2.7-1.5-4.1-2.3c-1.1-0.6-2.5-1.8-3.8-1.8
		c-1.4-0.1-2.4,1.2-1.8,2.5c0.3,0.6,0.8,1,1.2,1.5c0.5,0.6,1,1.1,1.6,1.7c1.1,1.1,2.1,2.2,3.2,3.3c2.2,2.2,4.4,4.3,6.7,6.3
		c0.3,0.3,0.7,0.3,1.1,0.2c0.5,0.1,1.2,0,1.8-0.5c0.5-0.3,1-0.7,1.4-1c0.5-0.3,0.9-0.5,1.4-0.8c0.4-0.3,0.8-0.6,0.9-1.1
		C22.9,111.3,22.9,111,22.8,110.8"/>
	<path class="st0" d="M18.2,114.7c-0.1-0.1-0.1-0.1-0.2-0.2c-0.2-0.2-0.4-0.3-0.6-0.4c-0.2-0.1-0.5-0.2-0.7-0.4
		c-3.9-2.8-7.6-5.9-10.5-9.7c-0.9-1.1-1.7-2.3-2.4-3.6c0,0,0,0,0,0c0,0,0,0,0,0c-0.1-0.1-0.2-0.2-0.3-0.2c-0.2-0.1-0.4,0-0.5,0.1
		c-0.2,0.1-0.4,0.3-0.4,0.5c-0.2,0.3-0.2,0.7,0,1c0.1,0.1,0.1,0.2,0.2,0.3c3,4.3,7,7.8,11,11.3c0.4,0.3,0.8,0.7,1.3,1
		c0.2,0.2,0.5,0.4,0.7,0.5c0.2,0.2,0.4,0.3,0.7,0.4c0.2,0.1,0.4,0.2,0.6,0.3c0.4,0.1,0.9,0.1,1.2-0.2c0,0,0,0,0,0
		c0.1,0,0.1-0.1,0.2-0.2C18.4,115,18.3,114.9,18.2,114.7"/>
	<path class="st0" d="M43.2,93.9c0-0.1-0.1-0.2-0.2-0.3c-0.1-0.1-0.2-0.3-0.4-0.3c0.1-0.4,0-0.8-0.1-1.1c0.6-0.7,0.4-1.7-0.3-2.2
		c0.2-0.5,0.1-1-0.2-1.4c0,0,0-0.1-0.1-0.1c0.5-1-0.7-2.5-1.8-1.9c-0.1,0-0.1,0.1-0.2,0.1c0-0.7-0.7-1.4-1.5-1.4
		c0.2-0.4,0.1-0.9-0.2-1.3c0,0,0.1,0,0.1-0.1c0.6-0.4,0.7-1.4,0.2-1.9c0.1,0,0.2-0.1,0.2-0.1c1.6-0.7,0.5-3.2-1.1-2.5
		c-2.1,0.9-3.9,2.4-5.8,3.6c-1.5,1-3,2-4.6,2.9c-0.2,0.2-0.3,0.4-0.4,0.6c-0.4,0.6-0.8,1.2-1.3,1.7c-0.5,0.5-1.1,1-1.7,1.3
		c-0.6,0.3-1.3,0.4-2,0.5c-0.4,0.1-0.8,0.1-1.2,0c-0.1,0-0.2-0.1-0.3-0.1c0,0-0.1,0-0.1,0c-0.6,0.3-1.3,0.6-2,0.9
		c-1.2,0.5-2.3,1-3.4,1.6c-0.6,0.3-1.3,0.6-1.6,1.2c-0.1,0.2-0.2,0.4-0.2,0.6c-0.1,0.4-0.1,0.8,0.1,1.2c0.3,0.7,0.8,1.3,1.2,1.9
		c0.9,1.2,2,2.2,2.8,3.4c1.6,2.4,3.4,4.5,5.5,6.5c0.5,0.5,1.1,1.1,1.7,1.6c0.1,0.1,0.3,0.2,0.4,0.3c0.5,0.3,1,0.2,1.5-0.1
		c3.3-2.1,6.5-4.3,9.6-6.7c3-2,6-4.1,8.9-6.2C46.3,95,44.6,92.9,43.2,93.9"/>
	<path d="M120,191.2c0,0-0.1,0-0.1-0.1c0-0.4-0.2-0.9-0.6-1.1c-2-1-4.1-1.3-6.2-1.4c-3.4-0.4-7,0-10.5,0c-1.1,0-2.2-0.1-3.3-0.1
		c-0.3,0-0.5-0.1-0.8-0.1c-0.2,0-0.3,0-0.4,0c-9.3-0.4-5.3-0.2-14.6-0.5c-14.5-0.4-29-0.6-43.4-0.7c-1.4,0-2.8,0-4.2,0l-20.2-0.8
		c-1.6-0.1-3.3-0.3-4.9-0.1c-0.1,0-0.2,0-0.3,0c-2.3-0.1-4.7,0.2-7,0.9c-0.9,0.3-2.3,0.5-2.6,1.7c-0.3,1.2,0.6,1.9,1.4,2.4
		c2.1,1.2,4.5,1.2,6.7,1c0,0,0,0,0.1,0c7.3,1.2,14.7,1.1,22,0.7c1.1-0.1,2.3-0.1,3.4-0.2c11.1,2.4,22.4,0.4,33.7-0.5
		c0.5,0,1.1,0,1.6,0c11.3,0.7,9.1,0.5,20.4,0.2c1.9,0,3.9-0.1,5.8-0.1c5.2,0,10.3,0.1,15.5,0.1c2.7,0.3,5.3,0.4,8,0.4
		C120.3,193.1,120.7,191.7,120,191.2"/>
	<path class="st2" d="M107.5,154.6c-1.1-0.5-12.3-4.6-13.3-5.1c-0.5-0.2-1.2,0.2-1.3,0.7c-0.1,0.2-0.1,0.4,0,0.6
		c-0.4,0.3-0.5,0.9-0.4,1.4c-0.2,0.2-0.3,0.6-0.3,0.9c-0.4,0.3-0.7,0.9-0.4,1.4c-0.2,0.2-0.3,0.5-0.3,0.7c-0.4-0.1-0.9,0-1.2,0.4
		c-0.3,0.5,9.9,4.9,10.4,5.2c1.5,0.8,3,1.6,4.5,2.4c0.5,0.3,1.1,0.2,1.5-0.3c0.9-1.4,1.6-2.8,2.2-4.3c0.1-0.2,0.2-0.3,0.3-0.5
		c0.3-0.5,0.7-0.9,0.8-1.5C110,155.4,108.4,155,107.5,154.6"/>
	<path class="st5" d="M113.8,155.8c-0.2,0-0.3,0-0.5-0.1c-0.2,0-0.5-0.1-0.7-0.1c-0.7-0.1-1.4-0.3-2.2-0.4c-0.4-0.1-0.8-0.2-1.1-0.2
		c-0.2,0-0.3,0-0.4,0c-0.1,0-0.2,0-0.3,0.1c-1,0.5-1,1.9-1.2,2.8c-0.4,2-0.8,4-1.2,6c-0.1,0.3,0.1,0.6,0.2,0.8
		c1.4,2.4,1.4,5.3,1.4,8c0,1.5,0,2.9-0.1,4.4c0,1.3,0.2,2.6,1.3,3.4c0.3,0.2,0.7,0.2,0.9-0.1c0.5-0.8,0.6-1.6,0.7-2.5
		c0.3-1.1,0.6-2.2,0.9-3.3c1.3-4.3,2-8.8,3-13.2c0.4-1.5,0.7-3.1,1.1-4.6C115.4,156.1,114.6,155.9,113.8,155.8"/>
	<path class="st0" d="M117.1,156c-0.9-0.3-2.2,0.1-2.4,1.2c0,0,0,0,0,0c-0.2,0.4-0.2,0.9-0.2,1.3c-0.1,0.5-0.1,1.1-0.2,1.6
		c-0.4,2.3-1.1,4.5-1.6,6.8c-1,4.3-1,8.9-2.8,13c-0.2,0.4,0.1,0.9,0.5,0.9c0,0,0.1,0,0.1,0c0.1,0,0.2,0,0.2,0c0,0,0,0,0.1,0
		c0.7,0.3,1.3-0.1,1.6-0.8c0.3-0.9,0.5-2,0.8-2.9c0.4-1.6,0.9-3.1,1.3-4.7c0.7-2.4,1.4-4.8,2-7.2c0.5-1.8,0.9-3.6,1.1-5.5
		c0.1-0.3,0.1-0.6,0.1-0.9c0-0.1,0.1-0.2,0.1-0.2c0-0.5,0.2-1,0.2-1.5C117.9,156.6,117.6,156.2,117.1,156"/>
	<path class="st2" d="M31.8,155.6c-0.6-0.2-1.2,0.1-1.7,0.6c-0.2,0-0.5,0-0.8,0.1c-0.2-0.1-0.4-0.1-0.6-0.1
		c-0.2-0.2-0.4-0.4-0.6-0.5c-0.4-0.1-0.8,0-1.1,0.1c0,0,0,0,0,0c-0.7-0.5-1.9-0.3-2.5,0.9c-0.6,1.1-1.1,2.2-1.6,3.3
		c-0.2,0.5-4.1,14.4-4.1,15c-0.1,1,0.3,1.7,0.9,2.2c1.4,1.1,2.9,1.8,4.5,2.4c0.7,0.2,1.6-0.2,2.1-1.1c1.1-2.2,5.8-17.8,6.6-20.1
		C33.1,157.2,32.7,155.9,31.8,155.6"/>
	<path class="st4" d="M62.6,94c-0.1-0.1-0.3-0.1-0.4,0c-0.7,0.9-1.4,1.9-2,2.9c-0.1,0.3,0.2,0.5,0.4,0.3c0.4-0.4,0.8-0.9,1.1-1.4
		c0.1-0.1,0-0.2,0-0.3c0.3-0.4,0.6-0.8,0.9-1.2C62.7,94.3,62.7,94.1,62.6,94"/>
	<path class="st4" d="M104.3,152.3c-0.7-1-2.4-1.7-3.5-2.3c-1.5-0.9-3.1-1.7-4.7-2.5c-2.8-1.6-5.7-3.1-8.4-4.9c-2-1.3-3.6-3.4-5-5.3
		c0-0.1-0.1-0.1-0.1-0.2c-0.2-0.2-0.3-0.5-0.5-0.7c-0.4-0.5-0.7-1.1-1.1-1.6c-0.7-1-1.3-2-1.9-3.1c-1.2-2.1-2.3-4.3-3.2-6.6
		c-0.1-0.3-0.2-0.5-0.3-0.8c0,0,0,0,0,0c0,0,0-0.1,0-0.1c-0.2-0.6-0.4-1.1-0.6-1.7c-0.5-1.3-0.9-2.7-1.3-4
		c-1.5-5.4-2.6-10.9-3.8-16.4c-0.3-1.4-0.6-2.8-0.9-4.1c-0.3-1.3-1.3-2.3-2.5-2.8c-1.2-5-4.2-9.3-5.4-14.3c-0.1,0.2-0.2,0.3-0.3,0.5
		c-0.1,0.1-0.2,0.2-0.3,0.1c-0.1-0.1-0.2-0.2-0.1-0.3c-0.1,0-0.2,0-0.2-0.1c-0.1,0-0.1,0-0.2,0c0,0,0,0,0,0.1c0,0.1-0.1,0.1-0.1,0.2
		c0,0-0.1,0.1-0.1,0.1c-0.1,0.1-0.2,0.2-0.4,0.1c-0.1-0.1-0.2-0.2-0.1-0.4c0.2-0.3,0.3-0.6,0.5-0.9c0,0-0.1,0-0.1,0.1c0,0,0,0-0.1,0
		c-0.4,0.1-0.9,0.2-1.3,0.2c0,0,0,0,0,0c0,0,0,0,0,0c-0.6,0.1-1.2,0-1.8-0.2c-0.1,0-0.1-0.1-0.2-0.1c-0.2-0.1-0.3-0.2-0.5-0.3
		c-0.1-0.1-0.2-0.1-0.2-0.2c-2.7,1.9-6.7,2.1-9.9,2.4c-0.8,0.1-1.7,0.1-2.5,0.2c-0.4,0-0.7,0-1.1,0.1c-0.2,0-0.3,0-0.5,0.1
		c-1.4,0.2-2.9,0.5-4.4,0.5c0,0,0,0,0,0.1c0,0.1,0,0.1,0.1,0.2c0.4,2.3,0.8,4.6,1.2,6.9c0.3,3.3,0.2,6.6,0,9.8
		c-2.1,7.8-4.7,15.5-7.7,23c-3.9,10-2.7,7.3-5.3,17.6l-0.4,2.4c-0.6,1.8-1.1,3.7-1.7,5.5c-0.8,2.5-1.6,5.1-1.9,7.7c0,0,0,0,0,0
		c0,0.1,0,0.1-0.1,0.2c-0.4,1.3-0.5,2.7,0.7,3.6c0.4,0.3,0.9,0.4,1.5,0.5c1.3,0.5,2.9,0.5,4.1,0.7c2.2,0.3,4.3,0.5,6.5,0.7
		c2.2,0.2,4.4,0.3,6.6,0.5c2.8,0.4,5.6,0.6,8.4,0.8c2.7,0.5,5.4,0.8,8.1,1c8.3,1,16.2,1.8,20,1.6c2.1,0,4.3-0.3,6.4-0.6
		c2.4-0.4,4.9-0.8,7.2-1.7c4.3-1.7,7.8-4.7,11.3-7.7c0.1-0.1,0.1-0.1,0.2-0.2c0.5-0.4,1.2-0.9,1.6-1.5
		C104.4,153.5,104.8,153,104.3,152.3"/>
	<path class="st5" d="M27.2,174.8c-0.5-0.3-1.1-0.3-1.7-0.4c-0.7-0.1-1.4-0.3-2-0.4c-1.3-0.3-2.6-0.6-3.9-0.8
		c-1-0.2-1.9-0.2-2.7,0.6c-0.4,0.4-0.6,0.9-0.8,1.4c-0.1,0.1-0.2,0.1-0.3,0.2c-1,0.6-2.2,0.9-3.4,1c-0.6,0-1.1,0-1.7,0.1L7,176.4
		c-1.3,0-2.7-0.1-3.9,0.2c-1.3,0.2-2,1.4-1.8,2.6c0.2,1.2,1.2,1.8,2.3,2.2c0.1,0,0.3,0.1,0.4,0.1c0.3,0.1,0.5,0.3,0.8,0.4
		c0.8,0.3,1.7,0.7,2.5,1c1.7,0.6,3.4,1.1,5.1,1.6c2.3,0.6,4.7,1.1,7.1,1.4c0.3,0.1,0.6,0.2,0.9,0.2c0.9,0.5,1.9,0.6,2.9,0.6
		c0.5,0,1.1,0,1.6-0.3c0.4-0.4,0.6-1.1,0.8-1.6c0.4-1.2,0.7-2.5,1-3.8c0,0,0-0.1,0-0.1c0.4-1.2,1-2.5,1.3-3.7
		C28.2,176.3,28.1,175.3,27.2,174.8"/>
	<path class="st0" d="M25.5,185.3c-0.3-0.3-0.6-0.3-0.9-0.4l-1.3-0.3c-0.1,0-0.2,0-0.3,0c-2.8-0.7-5.6-1.2-8.5-1.7
		c-4.2-1.1-8.4-2.3-12.6-3.3c-0.3-0.2-0.8-0.1-1,0.3c-0.2,0.6,0.1,1,0.6,1.3c0.7,0.4,1.6,0.5,2.4,0.8c1.6,0.5,3.2,1.1,4.8,1.6
		c0.1,0,0.2,0,0.3,0c2.4,0.9,4.9,1.5,7.4,2c1.3,0.5,2.6,0.8,4,1.1c0.3,0,0.5,0.1,0.8,0.1c0,0,0.1,0,0.1,0c0.8,0.2,1.9,0.8,2.9,0.6
		c0.3,0.1,0.6,0.1,0.9-0.2C25.6,186.9,26.1,186,25.5,185.3"/>
	<path class="st2" d="M50.3,114.8c0.6-1,1.3-2,1.9-3.1c0.3-0.5,0.1-1.3-0.3-1.6c-1.2-0.9-2.5-1.7-3.8-2.4c-0.5-0.3-1.2-0.1-1.6,0.3
		c-0.9,0.9-1.6,2-2.3,3.1c-0.2,0.3-0.2,0.7-0.1,1c0,0.2,0.1,0.4,0.1,0.6c0.3,0.7,1.2,1,1.8,1.4l2.3,1.3
		C49.2,115.7,49.9,115.4,50.3,114.8"/>
	<path class="st0" d="M73.4,82.8c-0.1,0-0.1-0.1-0.2-0.1c0,0-0.1-0.1-0.1-0.1c-1.6-1.1-3.2-2.1-5-2.9c-1.8-0.8-3.7-1.4-5.7-1.9
		c-0.5-0.1-1.1-0.4-1.7-0.1c-0.4,0.2-0.6,0.5-0.6,0.9c-0.1,0.2-0.3,0.4-0.4,0.7c-0.3,0.6-0.5,1.1-0.7,1.8c0,0.1,0,0.1,0,0.2
		l-7.8,12.7c-2.7,4.4-5.9,8.7-7.5,13.7c-0.2,0.7,0.3,1.4,1,1.7c4.3,1.5,8.6,3,12.9,4.5c0.4,0.1,0.8,0.1,1-0.1
		c0.3-0.1,0.6-0.3,0.8-0.6c4.7-7.5,6.6-16.3,10.9-24c1.2-1.8,2.3-3.7,3.2-5.7C73.6,83.2,73.6,82.9,73.4,82.8"/>
	<path class="st2" d="M67.9,106.7c0-2.5,0.1-4.9,0.5-7.3c0-0.1,0.1-0.1,0.1-0.2c0.2-0.8,0.4-1.7,0.5-2.5c0.1-0.7,0.3-1.3,0.1-2
		c-0.1-0.2-0.1-0.4-0.2-0.5c-0.4-1-1-2-1.6-3c-0.5-0.8-1.2-2.1-2.4-1.6c-1.1,0.5-0.7,1.9-0.4,2.8c0.2,0.8,0.5,1.5,0.8,2.3
		c-1.5-0.6-3-1.3-4.4-1.9c-1.4-0.6-4.4-2.3-5.4-0.1c-0.9,2,2,3.2,3.3,3.9c0.7,0.4,1.5,0.9,2.3,1.3c-0.8,0-1.5,0-2.2,0
		c-1.2,0-2.4,0.1-3.6,0.2c-0.9,0.1-2,0.5-2.2,1.5c-0.6,2.5,3.3,2.6,4.8,2.8c0.9,0.1,1.8,0.2,2.7,0.2c-0.4,0.1-0.8,0.2-1.2,0.3
		c-1.3,0.3-4.5,0.7-4,2.8c0.5,2,3.3,1.4,4.9,1.5c2.3,0,4.7,0.2,7,0.3C67.5,107.6,67.9,107.1,67.9,106.7"/>
	<path class="st7" d="M15.3,176.9c-1.4,1.2-2.7,2.4-4.1,3.6c-0.3,0.3,0,0.7,0.4,0.6c4.4-1.2,8.7-3.1,12.5-5.6l-0.5-0.6
		c-2,2.1-4.1,4.3-6.1,6.4c-0.2,0.2,0,0.8,0.4,0.6c1.5-0.6,3.1-1.2,4.6-1.9c0.4-0.2,0.2-0.9-0.2-0.7c-1.5,0.6-3.1,1.2-4.6,1.9
		c0.1,0.2,0.2,0.4,0.4,0.6c2-2.1,4.1-4.3,6.1-6.4c0.3-0.3-0.1-0.8-0.5-0.6c-3.8,2.5-8,4.4-12.3,5.5c0.1,0.2,0.2,0.4,0.4,0.6
		c1.4-1.2,2.7-2.4,4.1-3.6C16.2,177.1,15.7,176.6,15.3,176.9"/>
	<path class="st7" d="M12.7,181.1c2.5-0.7,4.9-1.4,7.4-2.1c-0.1-0.2-0.3-0.4-0.4-0.6c-0.6,0.9-1.2,1.7-1.8,2.6
		c-0.2,0.4,0.3,0.8,0.6,0.5c0.4-0.4,0.8-0.8,1.2-1.2c0.3-0.4-0.2-0.9-0.5-0.5c-0.4,0.4-0.8,0.8-1.2,1.2c0.2,0.2,0.4,0.3,0.6,0.5
		c0.6-0.9,1.2-1.7,1.8-2.6c0.2-0.3-0.1-0.6-0.4-0.6c-2.5,0.7-4.9,1.4-7.4,2.1C12,180.5,12.2,181.2,12.7,181.1"/>
	<path class="st7" d="M19.5,178.6c0.8-0.3,1.5-0.7,2.3-1l-0.5-0.6C20.7,177.5,20.1,178,19.5,178.6c-0.1,0.1-0.1,0.3,0,0.5
		c0.2,0.1,0.4,0.1,0.5,0c0.6-0.5,1.2-1,1.8-1.5c0.1-0.1,0.1-0.4,0-0.5c-0.1-0.2-0.3-0.2-0.5-0.1c-0.8,0.3-1.5,0.7-2.3,1
		c-0.2,0.1-0.2,0.4-0.1,0.5C19.1,178.6,19.3,178.7,19.5,178.6"/>
	<path class="st7" d="M108.3,165.5c1.1,0.6,2,1.5,2.8,2.6c0.2,0.3,0.8,0.1,0.6-0.3c-1.1-3.4-2.2-6.8-3.3-10.2
		c-0.2,0.1-0.4,0.2-0.6,0.3c1.5,1.9,3,3.8,4.4,5.7c0.2,0.3,0.6,0,0.6-0.3c-0.2-1.4-0.5-2.7-0.7-4.1c-0.1-0.4-0.8-0.3-0.7,0.2
		c0.2,1.4,0.5,2.7,0.7,4.1c0.2-0.1,0.4-0.2,0.6-0.3c-1.5-1.9-3-3.8-4.4-5.7c-0.2-0.3-0.7,0-0.6,0.3c1.1,3.4,2.2,6.8,3.3,10.2
		c0.2-0.1,0.4-0.2,0.6-0.3c-0.8-1.2-1.8-2.1-3-2.8C108.2,164.6,107.9,165.2,108.3,165.5"/>
	<path class="st7" d="M111.3,165.3c-0.4-2-1-4-1.9-5.8c-0.2,0.1-0.4,0.2-0.6,0.4c0.9,1.7,2.2,3.2,3.8,4.3c0.4,0.3,0.7-0.4,0.4-0.6
		c-1.5-1-2.7-2.4-3.6-4c-0.2-0.4-0.8,0-0.6,0.4c0.9,1.8,1.5,3.7,1.9,5.6C110.7,166,111.4,165.8,111.3,165.3"/>
	<path class="st7" d="M111.6,160.5c0,0.6,0,1.2,0,1.8c0,0.2,0.2,0.4,0.4,0.4c0.2,0,0.4-0.2,0.4-0.4c0-0.6,0-1.2,0-1.8
		c0-0.2-0.2-0.4-0.4-0.4C111.8,160.1,111.6,160.3,111.6,160.5"/>
	<path class="st7" d="M25.8,176.1c-0.4-0.1-0.8,0-1.2,0.3c-0.3,0.3-0.5,0.6-0.5,1c0,0.8,0.7,1.5,1.5,1.4c0.4,0,0.8-0.3,1.1-0.6
		c0.2-0.3,0.3-0.7,0.2-1.1c-0.1-0.4-0.3-0.7-0.7-0.9c-0.4-0.2-0.8-0.1-1.1,0.1c-0.4,0.2-0.6,0.7-0.5,1.2c0.1,0.3,0.3,0.5,0.6,0.5
		c0.3,0,0.6-0.1,0.7-0.3c0.1-0.2,0.1-0.4-0.1-0.5c-0.2-0.1-0.4-0.1-0.5,0.1c0,0,0,0,0,0c0,0,0-0.1,0.1-0.1c0,0,0,0,0,0
		c0,0-0.1,0,0,0c-0.1,0,0.1,0,0,0c-0.1,0,0,0,0,0c0,0,0,0,0,0c0,0,0.1,0,0,0c0,0,0,0,0,0c0,0,0,0,0,0c0,0,0,0,0,0c0,0,0,0.1,0,0
		c0,0,0,0,0,0c0-0.1,0,0,0,0c0,0,0-0.1,0-0.1c0,0,0,0,0,0c0-0.1,0,0.1,0,0c0,0,0-0.1,0-0.1c0-0.1,0,0.1,0,0c0,0,0-0.1,0-0.1
		c0,0-0.1,0.1,0,0c0,0,0,0,0,0c0,0,0,0,0.1-0.1c0,0-0.1,0,0,0c0,0,0.1,0,0.1,0c0,0,0,0,0,0c0,0-0.1,0,0,0c0,0,0,0,0.1,0
		c0,0,0.1,0,0.1,0c0.1,0,0,0,0,0c0,0,0,0,0,0c0,0,0.1,0,0.1,0c0,0,0,0,0,0c0,0-0.1,0,0,0c0,0,0.1,0,0.1,0c0.1,0,0,0,0,0c0,0,0,0,0,0
		c0,0,0,0,0.1,0c0,0,0,0,0,0c0,0,0,0,0,0c0,0,0,0,0.1,0.1c0,0,0,0,0,0c0,0,0,0,0,0c0,0,0,0.1,0,0.1c0,0,0,0.1,0,0c0-0.1,0,0,0,0.1
		c0,0,0,0.1,0,0.1c0,0,0,0,0,0c0,0.1,0-0.1,0,0c0,0,0,0.1,0,0.1c0,0,0,0.1,0,0.1c0,0,0,0,0,0c0,0,0,0,0,0c0,0,0,0,0,0
		c0,0,0,0.1,0,0.1c0,0,0,0.1,0,0c0,0,0,0,0,0c0,0,0,0,0,0c0,0,0,0.1-0.1,0.1c0,0,0-0.1,0,0c0,0,0,0,0,0c0,0,0,0-0.1,0.1c0,0,0,0,0,0
		c0,0,0,0,0,0c0,0-0.1,0.1-0.1,0.1c0,0,0,0-0.1,0c-0.1,0,0.1,0,0,0c-0.1,0-0.1,0-0.2,0.1c-0.1,0,0.1,0,0,0c0,0-0.1,0-0.1,0
		c0,0-0.1,0-0.1,0c0,0,0.1,0,0,0c0,0,0,0-0.1,0c0,0-0.1,0-0.1,0c0,0,0,0,0,0c0,0,0.1,0,0,0c0,0-0.1,0-0.1,0c0,0,0,0,0,0
		c-0.1,0,0,0,0,0c0,0-0.1-0.1-0.1-0.1c0,0,0,0,0,0c0,0,0,0.1,0,0c0,0,0-0.1-0.1-0.1c0,0,0,0,0-0.1c0-0.1,0,0.1,0,0
		c0-0.1-0.1-0.1,0-0.2c0,0,0,0.1,0,0c0,0,0,0,0-0.1c0,0,0-0.1,0-0.1c0,0,0-0.1,0,0c0,0.1,0,0,0,0c0,0,0-0.1,0-0.1c0,0,0,0,0,0
		c0,0,0,0.1,0,0c0,0,0,0,0,0c0,0,0-0.1,0.1-0.1c0,0,0,0,0,0c0,0,0,0.1,0,0c0,0,0-0.1,0.1-0.1c0,0,0.1-0.1,0,0c0,0,0.1,0,0.1-0.1
		c0,0,0.1,0,0.1-0.1c0,0,0,0,0,0c-0.1,0,0,0,0,0c0,0,0.1,0,0.1,0c0,0,0,0,0,0c0,0,0.1,0,0,0c-0.1,0,0,0,0,0c0,0,0,0,0.1,0
		c0,0,0.2,0,0.1,0c0.2,0,0.4,0,0.5-0.3C26.1,176.4,26,176.1,25.8,176.1"/>
	<path class="st7" d="M109.8,156c-0.2,0.5-0.4,1.1,0,1.5c0.2,0.2,0.4,0.4,0.6,0.4c0.3,0,0.6,0,0.7-0.2c0.3-0.3,0.3-0.8,0.2-1.3
		c-0.1-0.3-0.3-0.5-0.5-0.6c-0.2-0.1-0.5-0.2-0.8-0.1c-0.3,0.1-0.5,0.5-0.4,0.8c0.1,0.2,0.2,0.3,0.3,0.4c0.1,0.1,0.3,0.1,0.5,0.1
		c0.1,0,0.2-0.1,0.2-0.2c0-0.1,0.1-0.2,0-0.3c-0.1-0.2-0.3-0.3-0.5-0.3c0,0-0.1,0,0,0c-0.1,0,0.1,0,0.1,0c0,0,0,0,0,0c0,0,0,0,0,0
		c0,0-0.1,0,0,0c0.1,0,0,0,0,0c0,0,0,0.1,0,0c0,0,0,0,0,0c0,0.1,0,0.1,0,0c0,0,0,0,0,0c0-0.1,0,0.1,0,0c0-0.1,0,0.1,0,0.1
		c0-0.1,0,0.1,0,0c0-0.1-0.1,0.1,0,0c0,0,0,0,0,0c0,0.1-0.1,0,0,0c0,0,0,0,0,0c0,0,0,0,0.1,0c0,0,0.1,0,0,0c0,0,0,0,0,0
		c0,0,0,0,0.1,0c-0.1,0-0.1,0,0,0c0,0,0,0,0,0c-0.1,0-0.1,0,0,0c0,0,0,0,0,0c0.1,0-0.1-0.1,0,0c0,0,0.1,0.1,0.1,0.1c0,0,0,0,0,0
		c0,0,0,0,0,0c0,0,0,0,0,0c0,0,0,0.1,0.1,0.1c0,0,0-0.1,0,0c0,0,0,0,0,0.1c0,0,0,0.1,0,0.1c0,0,0,0.1,0,0.1c0-0.1,0,0,0,0.1
		c0,0,0,0.1,0,0.1c0,0,0,0,0,0.1c0-0.1,0-0.1,0,0c0,0,0,0.1,0,0.1c0,0,0,0,0,0c0-0.1,0-0.1,0,0c0,0,0,0,0,0c0,0.1,0,0,0,0
		c0,0-0.1,0.1,0,0c0.1,0,0,0,0,0c0,0,0.1,0,0,0c0,0,0,0,0,0c0,0,0.1,0,0,0c0,0,0,0,0,0c0.1,0,0.1,0,0.1,0c0,0-0.1,0-0.1,0
		c0.1,0,0,0-0.1,0c0,0,0,0,0,0c0,0,0,0,0,0c0,0,0,0,0,0c0,0,0,0,0,0c0,0,0,0.1,0,0c0,0,0-0.1-0.1-0.1c0-0.1,0,0.1,0,0c0,0,0,0,0-0.1
		c0,0,0,0,0,0c0,0,0,0,0,0c0,0,0-0.1,0-0.1c0,0,0-0.1,0-0.2c0,0,0,0,0,0c0,0,0,0,0,0c0,0,0-0.1,0-0.1c0-0.1,0-0.1,0-0.2
		c0-0.1,0.1-0.2,0.1-0.3c0-0.1,0-0.2,0-0.3c0-0.1-0.1-0.2-0.2-0.2C110.1,155.7,109.9,155.8,109.8,156"/>
	<path class="st1" d="M69.8,67.5c-0.2,0.1-0.4,0.3-0.6,0.4c0,0-0.1,0-0.1,0.1c0,0,0,0.1,0,0.1c0,0.1,0.1,0.1,0.2,0
		c0.2-0.1,0.4-0.3,0.6-0.4c0,0,0.1,0,0.1-0.1c0,0,0-0.1,0-0.1C70,67.5,69.9,67.4,69.8,67.5"/>
	<path class="st1" d="M70,67.4c-0.3,0.2-0.5,0.4-0.8,0.5c-0.1,0.1-0.1,0.2,0,0.2c0.2,0.1,0.4,0.1,0.5,0.2c0,0,0.1,0,0.1,0
		c0.2-0.2,0.4-0.4,0.5-0.6c0.1-0.1-0.1-0.3-0.2-0.2c-0.2,0.2-0.4,0.4-0.5,0.6c0,0,0.1,0,0.1,0c-0.2-0.1-0.4-0.1-0.5-0.2
		c0,0.1,0,0.2,0,0.2c0.3-0.1,0.6-0.3,0.8-0.5c0.1,0,0.1-0.1,0-0.2C70.1,67.3,70,67.3,70,67.4"/>
	<path class="st1" d="M69.7,68c0,0,0.1-0.1,0.1-0.1L69.7,68c0.2-0.1,0.2-0.2,0.3-0.2c0-0.1-0.1-0.1-0.1-0.2
		c-0.1,0.1-0.2,0.2-0.3,0.2C69.6,67.9,69.7,67.9,69.7,68C69.8,68,69.8,68,69.7,68C69.8,68,69.8,68,69.7,68c0.1-0.1,0.1-0.1,0.2-0.1
		c0,0,0,0,0,0c0,0,0.1,0,0.1,0c0-0.1-0.1-0.1-0.1-0.2c0,0,0,0,0,0.1l0,0c0,0,0,0.1-0.1,0.1c0,0,0,0,0,0c0,0,0,0-0.1,0
		c0.1,0.1,0.1,0.1,0.2,0.2l0.1-0.1c0,0,0-0.1,0-0.1c0,0,0-0.1,0-0.1c0,0-0.1,0-0.1,0c0,0,0,0,0,0c0,0,0,0-0.1,0l-0.1,0.1
		c0,0,0,0.1,0,0.1C69.6,68,69.6,68,69.7,68C69.7,68.1,69.7,68.1,69.7,68c0.2,0,0.3-0.1,0.3-0.2c0,0,0-0.1,0-0.1c0,0-0.1-0.1-0.1,0
		c-0.1,0-0.2,0.1-0.3,0.2c0,0,0,0.1,0,0.2c0,0,0,0,0.1,0C69.6,68.1,69.7,68.1,69.7,68c0.1-0.1,0.2-0.1,0.3-0.2c0,0,0,0,0.1-0.1
		c0,0,0-0.1,0-0.1c0-0.1-0.1-0.1-0.2,0c-0.1,0.1-0.2,0.2-0.3,0.3c0,0-0.1,0.1,0,0.2C69.6,68.1,69.7,68.1,69.7,68"/>
	<path class="st1" d="M69.9,68.3c0.4-0.3,0.7-0.6,1-1c0-0.1,0.1-0.1,0-0.2c0,0-0.1-0.1-0.2,0c-0.3,0.4-0.7,0.7-1,1
		c-0.1,0,0,0.1,0,0.2C69.8,68.3,69.8,68.3,69.9,68.3"/>
	<path class="st1" d="M69.3,67.9c-0.1,0-0.1,0-0.2,0.1c-0.1,0,0,0.1,0,0.1c0.1,0,0.1,0,0.2,0C69.4,68,69.4,67.9,69.3,67.9
		c-0.1,0-0.2,0.1-0.2,0.1c0,0,0,0.1,0.1,0.1c0,0,0,0,0,0c0,0,0.1,0,0.1,0C69.2,68,69.2,68,69.3,67.9c-0.1,0-0.2,0-0.2,0.1
		c0,0,0,0.1,0,0.1c0,0,0.1,0,0.1,0.1c0,0,0.1,0,0.1,0c0.2,0.1,0.3,0.1,0.5,0.1c0.1,0,0.1-0.1,0-0.1c-0.1,0-0.2,0-0.3-0.1
		c-0.1,0-0.1,0-0.2-0.1c0,0-0.1,0-0.1,0C69.2,68,69.2,68,69.3,67.9C69.2,68,69.2,68,69.2,68c0,0,0,0,0,0c0,0,0,0,0,0c0,0,0,0,0,0
		c0,0,0,0,0,0c0,0,0,0,0,0l0,0l0,0c0,0,0,0,0,0c0,0,0,0,0,0c0,0,0,0,0,0c0,0,0,0,0,0c0,0,0-0.1,0.1-0.1c-0.1,0-0.1,0-0.1,0.1
		c0,0,0,0.1,0.1,0.1c0.1,0,0.1,0,0.2,0C69.3,68,69.3,68,69.3,67.9c-0.1,0-0.1,0.1-0.2,0.1c0,0,0,0.1,0,0.1c0,0,0.1-0.1,0.2-0.1
		C69.4,68,69.4,67.9,69.3,67.9"/>
	<path class="st1" d="M69.1,68.1c0.2-0.1,0.4-0.2,0.7-0.2c0,0,0.1,0,0.1-0.1c0,0,0-0.1-0.1-0.1c-0.3,0-0.5,0.1-0.7,0.2
		C68.9,68,69,68.1,69.1,68.1"/>
	<path class="st6" d="M96.6,101.4c0.1,0,0.2,0,0.3,0c0.3-0.8,0.5-1.6,0.7-2.5c0.1-0.9,0.1-1.8,0.1-2.7c-1-0.2-1.8-1.3-1.5-2.6
		c0.2-0.5,0.6-0.8,1.1-0.9c-0.4-2-1.3-3.9-2.5-5.6c-0.5-0.2-0.8-0.5-0.9-1.1c-0.2-0.3-0.5-0.5-0.8-0.8c-1.6-2.3-3.7-4.3-6-6
		c-0.1-0.1-0.3-0.3-0.4-0.4c0.1,0.2,0.1,0.4,0,0.7c-0.1,2-3.4,1.9-3.1-0.2c0.1-1,1.4-1.4,2.3-1.1c-0.5-0.5-1.1-0.9-1.7-1.3
		c-0.9-0.7-1.8-1.4-2.8-2.1c-0.8,0.5-2,0.2-2.2-1c-0.1-0.3-0.1-0.5-0.1-0.7c-1.9-1.3-3.7-2.6-5.7-3.9c-0.4-0.3-0.8-0.5-1.2-0.8
		c-0.6,0-1.1-0.3-1.4-0.9c-1-0.6-2-1.2-3-1.7c-0.1,0.1-0.1,0.1-0.2,0.2c-0.9,0.9-2.5,0.5-2.6-0.8c0.1-0.3,0.2-0.5,0.4-0.7
		c-1.6-0.8-3.2-1.5-4.8-2.2c-0.3,0.4-0.8,0.7-1.4,0.6c-0.8-0.1-1.3-0.8-1.4-1.6c-0.6-0.2-1.3-0.4-2-0.6c-0.1,0.1-0.2,0.1-0.4,0.1
		c-0.4,0.1-1-0.2-1.4-0.6c-1.4-0.3-2.7-0.5-4.1-0.6c-0.6,0-1.1-0.1-1.7-0.1c0.2,0.3,0.3,0.6,0.2,0.9c-0.1,1.8-3.3,2.1-3.4,0
		c0-0.3,0.2-0.6,0.5-0.8c-1,0.1-2,0.3-3,0.5c1,0.4,1.6,1.6,0.2,2.9c-1,1.2-3.7-0.5-2.7-2c0.1-0.1,0.2-0.2,0.3-0.3
		c-0.8,0.3-1.6,0.6-2.4,1c0.1,0.1,0.2,0.3,0.2,0.4c0.7,2.2-2.3,3.2-3.2,1.9c-1.2,1.2-2.2,2.7-2.8,4.3c-0.7,2-0.9,4.1,0,6.1
		c0.5,1.2,1.1,2.4,1.8,3.5c0.5-0.3,1-0.4,1.3,0c0.3,0.4,0.9,0.5,0.9,1.2c0.1,0.6-0.1,1-0.5,1.3c0.1,0.2,0.3,0.3,0.5,0.4
		c0.2,0.1,0.4,0.2,0.7,0.2c2,0.1,3.9-0.4,5.8-0.9c-0.9-1.1,1-3.5,2.3-2.5c0.6,0.6,0.7,1.3,0.4,1.9c0.3-0.1,0.6-0.1,0.9-0.2
		c0.2-0.5,0.7-0.9,1.6-0.8c0.3,0.1,0.5,0.2,0.7,0.4c0.2,0,0.5-0.1,0.7-0.1c0.7-0.1,1.5-0.2,2.2-0.4c0.3,0,0.6-0.1,0.9-0.2
		c0,0,0-0.1,0-0.1c0.1-1.4,1.4-2.4,2.5-2.5c2.9,0,0.9,4.6-1.1,3.6c0.2,0.2,0.4,0.4,0.7,0.6c0.3,0.2,0.5,0.4,0.8,0.6
		c0.9-0.7,2.5-0.7,2.9,0.6c0.5-0.1,1-0.3,1.5-0.6c-0.5-0.2-0.8-0.8-0.7-1.8c0.1-0.1,0.4-0.4,0.4-0.6c-0.2-0.8,1.1-1.2,1.7-0.7
		c1.3,0.9,1.2,2,0.5,2.6c2.3,0.8,4.5,1.8,6.7,2.9c0.9-0.3,2-0.3,2.2,0.7c0,0.2,0.1,0.4,0,0.6c0.8,0.4,1.5,0.9,2.2,1.4
		c0.5,0,1,0.1,1.3,0.3c0.3,0.2,0.5,0.5,0.5,0.8c0.4,0.3,0.9,0.6,1.3,0.9c0.1-0.5,0.4-0.9,0.9-1.2c2.1-1.2,2.9,2.1,1.4,2.9
		c0.3,0.3,0.6,0.5,0.9,0.8c0.6,0.5,1.4,1.2,1.4,2c0.1,0.9-0.9,1.6-1.7,1.8c-1.3,0.4-2.6,0.1-3.9-0.1c-0.4-0.1-0.8-0.1-1.2-0.2
		c-0.2,0.4-0.6,0.6-1.2,0.4c-0.6,0-1-0.3-1.2-0.7c-0.3,0-0.7-0.1-1-0.1c-0.4-0.1-0.8,0-1.2,0.3c-0.4,0.2-0.6,0.5-0.7,0.9l-0.1,0.5
		c0.7,0.8,0.9,2.3-0.3,2.8l-0.9,8.6c-0.1,0.5,0.1,1.1,0.5,1.4c-0.3-0.5-0.3-1.1,0.2-1.6c0.1-0.5,0-0.9,0.5-1c1.8-0.7,3,2.5,1.2,3.2
		c3.8,1,7.9,1.9,11.9,1.9c-0.3-0.2-0.6-0.6-0.9-1.2c-1-1.4,1.1-2.8,2.1-2c1.2,1,0.7,2.6-0.1,3.1c1.2-0.1,2.3-0.2,3.4-0.4
		c0.5-0.7,1.3-0.9,2.1-0.6c1-0.4,2.1-0.8,3.1-1.4c-1.1-0.4-1.9-1.7-0.9-2.7c0.5-0.6,1.7,0.1,2.4,0c0.4,0.2,0.6,0.7,0.5,1.2
		c0.9-0.8,1.8-1.8,2.5-2.8C95.3,102.9,95.3,102.1,96.6,101.4 M33.8,75.2c-0.8-1.2,0.3-3.4,1.8-2.7c1,0,0.6,1.3,0.9,2
		C36.6,75.8,34.3,76,33.8,75.2 M34,69.8c-1.1-2.4,2.9-4.4,2.8-0.9C37.1,70.5,34.7,70.9,34,69.8 M40.9,78.3c-1.4,1.5-4.3-1.2-2.8-2.5
		C40.1,73.6,42.3,76.5,40.9,78.3 M41.2,73.4c-3.1,0.7-3.5-3.3-0.2-2.9C42.1,70.6,42.3,73,41.2,73.4 M40.2,68.6
		c-1.2-1-1.6-3.4,0.7-3.2C42.7,65.8,42.1,68.9,40.2,68.6 M74.4,72.2c0.8-2.1,3.7-0.1,2.6,1.7C76.1,75.4,73.7,73.6,74.4,72.2
		 M64.6,70.5c-0.1,1.8-3.4,2-3.4-0.1c0-0.8,1.3-1.1,1.7-1.7C63.6,68.5,64.7,69.6,64.6,70.5 M50.2,61c1-1.8,4.2,0.2,2.6,1.6
		C51.6,63.8,49.3,62.6,50.2,61 M43.2,68.7c0.9-1.5,2.3-1.2,3,0.2c0.8,0.4,0.2,0.8,0.1,1.4C45.2,72.4,42.7,70.6,43.2,68.7 M46.6,75.4
		c-0.3,0.4-0.4,0.8-0.9,0.7c-2.1-0.1-1.6-4,0.6-3.3C47.6,73.1,47.9,75,46.6,75.4 M47.9,67.7c-1.9-0.4-2.6-2.5-0.5-3.3
		C49.8,63.5,51,68.1,47.9,67.7 M52.4,75.2c-0.1,1.4-2.4,1.2-3.1,0.1c-1-1.3,1-3.9,2.5-3C53.3,72.8,53,74.1,52.4,75.2 M53.9,68.7
		c-0.1,2.1-3.5,2-3.6-0.1C50.3,65.8,54.8,66.6,53.9,68.7 M54.4,65.3c-1.8-1.4,1.5-3.7,2.6-1.8C57.1,64.6,55.7,66.7,54.4,65.3
		 M57.6,75.3c-0.6-0.3-2.3-0.9-2.3-1.5c-0.3-2.8,3-3.3,3.9-0.8C59.7,74,58.5,75.8,57.6,75.3 M57.7,70.1c-1.9-0.4-2.6-2.5-0.5-3.3
		C59.6,65.8,60.8,70.4,57.7,70.1 M62.7,63.8c2,1.8-0.9,5.2-2.2,1.9C59.6,64.3,61.7,63,62.7,63.8 M60.3,74.6c0-1.1,1.4-2.1,2.3-1.1
		C65.1,75.9,61.1,77.3,60.3,74.6 M66.1,80c-1.9,1.5-3.5-0.5-1.7-2.1C65.7,76.8,67.8,79.2,66.1,80 M65.4,72.3c1.2-1,1.7,0.5,2.6,1.1
		C67.7,77.2,63,74.4,65.4,72.3 M68,70.4c-2.5,0.5-1.7-3.1,0.5-2.9c1,0.1,1.6,1.5,1.1,2.4C69.2,70.3,68.3,71,68,70.4 M71.5,74.4
		c1.2,0.5,0.3,2.9-0.9,2.6C67.6,77.1,69.2,73.2,71.5,74.4 M70.4,82c-0.8-0.2-1.4-0.9-2.1-1.1c-0.8-2.7,2.7-4,3.8-1.1
		C72.6,80.6,71.3,82.5,70.4,82 M72.3,72.9c-1.6,0.1-2.5-3.1-0.5-3C73.7,69.5,74.4,72.7,72.3,72.9 M73.7,78.1
		c-0.4-0.7,1.1-1.7,1.8-1.4c1.9,0.4,1,3.3-0.8,2.7C73.9,79.1,73.7,79,73.7,78.1 M74.5,84.4c-1-2.4,2.4-4.5,3.5-1.9
		C79.1,84.6,75.9,85.9,74.5,84.4 M94.4,90.1c1.9,0.1,1.1,3.8-0.6,3.3C91.9,92.8,92.6,90.3,94.4,90.1 M93.3,87.5
		c0.1,0.7-1,0.8-1.5,1.1c-0.3,0.3-1.7-1-1.8-1.3C89.9,85.1,92.5,84.9,93.3,87.5 M87.3,82.1c0.1-2.6,3.4-0.9,2.7,1.2
		c-0.4,0.9-1.9,1.1-2.6,0.5C87.1,83.3,86.7,82.4,87.3,82.1 M88.3,89.6c2.1,0.6,2,2.9-0.1,3.6C86.2,93.1,86.1,89.7,88.3,89.6
		 M87,97.6c-0.8,0.2-2-0.8-1.8-1.6c0.2-0.8,0.6-1.9,1.6-1.5C88.7,94.5,88.5,97.2,87,97.6 M84.4,86.1c0.8-2,4.6-0.6,3.5,1.3
		c-0.5,0.6-1,1.9-2,1.2C85.1,88.2,83.8,87.2,84.4,86.1 M83,90.9c-1.2-0.2-2.9-2.1-1.2-2.9C83.6,86.6,85.1,90.3,83,90.9 M80.7,94.1
		c-0.4-2,2.8-2.7,3-0.6C83.8,95.1,80.6,96.1,80.7,94.1 M80.3,76.4c0.8,0,1.7,1.2,1.4,2c-0.4,0.7-1,1.7-1.9,1
		C77.9,79,78.8,76.4,80.3,76.4 M82,81.4c2.7,0.7,0.9,4.9-1,3.5C79,84.3,79.9,81,82,81.4 M72.3,102.9c-0.8,0.4-1.4,1.1-2.2,0.4
		c-3-2,1.9-5.1,2.8-2.1C73.2,102.3,73.1,102.1,72.3,102.9 M72.2,98.9c-1.8,0.3-2.6-2.8-0.7-3.2C73,96.1,74.3,98.1,72.2,98.9
		 M75,108.9c-1,0.3-2.2-1.7-1.4-2.6C76.2,104.4,78.2,107.8,75,108.9 M74.9,103.4c-1-0.7,0.4-3.1,1.5-2.8
		C79.1,101.4,77.2,105.5,74.9,103.4 M76.6,97.3c-0.1-0.8,1.2-1.2,1.7-1.7c0.7-0.3,1.9,0.8,1.8,1.7C79.9,99,76.7,99.3,76.6,97.3
		 M81.7,104.8c-2.3,1.6-3.3-2.1-1.4-3.2C82.4,100.7,83.4,103.7,81.7,104.8 M81.7,97.7c1-1.8,4.2,0.2,2.6,1.6
		C83.2,100.6,80.8,99.3,81.7,97.7 M87.1,105.5c-0.1,1.8-3.4,2-3.4,0c0-0.8,1.3-1.1,1.7-1.7C86.1,103.5,87.2,104.6,87.1,105.5
		 M86.3,100.3c-0.5-1.7,1.9-2.5,2.7-0.9C90.3,101.6,87.3,102.2,86.3,100.3 M89.6,96.2c-2.1-1.8,1.8-4,2.6-1.8
		c0.7,1.3-0.5,1.7-1.5,2.1C90.4,97.1,90,96.3,89.6,96.2 M93.6,103.6c-0.3,0.9-1.5,0.1-2.2,0.1c-1.3-0.3-0.7-2.5,0.2-2.8
		C93.1,100.6,94.8,102.4,93.6,103.6 M93.4,96.3c1.6-1.7,3.2,1.4,1.9,2.6C93.7,100,91.5,98,93.4,96.3"/>
	<path class="st5" d="M90,83.3c0.8-2-2.6-3.7-2.7-1.2c-0.6,0.3-0.2,1.2,0.1,1.7C88.1,84.4,89.6,84.2,90,83.3"/>
	<path class="st5" d="M79.2,73.7c0.3,1.2,1.5,1.5,2.2,1c-0.8-0.6-1.5-1.1-2.3-1.7C79.1,73.2,79.1,73.4,79.2,73.7"/>
	<path class="st5" d="M93.8,93.5c1.7,0.5,2.5-3.2,0.6-3.3C92.6,90.3,91.9,92.8,93.8,93.5"/>
	<path class="st5" d="M74.5,84.4c1.4,1.5,4.5,0.2,3.5-1.9C76.9,79.8,73.5,82,74.5,84.4"/>
	<path class="st5" d="M70.6,77c1.2,0.3,2.1-2.2,0.9-2.6C69.2,73.2,67.6,77.1,70.6,77"/>
	<path class="st5" d="M68.3,80.8c0.8,0.3,1.3,1,2.1,1.1c0.9,0.5,2.2-1.4,1.7-2.3C70.9,76.8,67.5,78.1,68.3,80.8"/>
	<path class="st5" d="M75.5,76.7c-0.7-0.3-2.3,0.8-1.8,1.4c0.1,0.9,0.2,1,1.1,1.3C76.6,80,77.4,77,75.5,76.7"/>
	<path class="st5" d="M77,73.9c1.2-1.8-1.8-3.8-2.6-1.7C73.7,73.6,76.1,75.4,77,73.9"/>
	<path class="st5" d="M94.7,87.1c-0.3-0.4-0.6-0.7-0.9-1.1C93.9,86.5,94.2,86.9,94.7,87.1"/>
	<path class="st5" d="M76.7,86.6c-0.5,0.3-0.8,0.7-0.9,1.2c0.8,0.6,1.6,1.1,2.3,1.8C79.6,88.7,78.8,85.3,76.7,86.6"/>
	<path class="st5" d="M81.7,78.4c0.4-0.8-0.6-2-1.4-2c-1.6,0-2.4,2.6-0.6,3C80.7,80,81.3,79.1,81.7,78.4"/>
	<path class="st5" d="M82,81.4c-2.1-0.4-3,2.9-1,3.5C82.9,86.3,84.7,82.1,82,81.4"/>
	<path class="st5" d="M83.5,79.2c-0.4,2.1,3,2.2,3.1,0.2c0.1-0.3,0.1-0.5,0-0.7c-0.3-0.2-0.5-0.5-0.8-0.7
		C84.9,77.9,83.7,78.3,83.5,79.2"/>
	<path class="st5" d="M92.3,94.4c-0.8-2.2-4.7,0-2.6,1.8c0.4,0.1,0.8,1,1.2,0.3C91.8,96.1,92.9,95.7,92.3,94.4"/>
	<path class="st5" d="M85.9,88.6c0.9,0.7,1.4-0.6,2-1.2c1.1-2-2.7-3.3-3.5-1.3C83.8,87.2,85.1,88.2,85.9,88.6"/>
	<path class="st5" d="M88.3,89.6c-2.2,0.1-2.1,3.5-0.1,3.6C90.3,92.6,90.4,90.2,88.3,89.6"/>
	<path class="st5" d="M96.6,101.4c-1.2,0.7-1.3,1.6-0.9,2.2c0.5-0.7,0.9-1.5,1.2-2.3C96.8,101.3,96.7,101.3,96.6,101.4"/>
	<path class="st5" d="M81.8,88c-1.7,0.9,0,2.7,1.2,2.9C85.1,90.3,83.6,86.6,81.8,88"/>
	<path class="st5" d="M96.1,93.6c-0.3,1.3,0.5,2.4,1.5,2.6c0-0.2,0-0.5-0.1-0.7c0-0.9-0.1-1.9-0.3-2.8
		C96.7,92.8,96.3,93.1,96.1,93.6"/>
	<path class="st5" d="M93.4,96.3c-1.9,1.7,0.3,3.6,1.9,2.6C96.6,97.7,95,94.6,93.4,96.3"/>
	<path class="st5" d="M90,87.3c0.1,0.3,1.5,1.6,1.8,1.3c0.5-0.3,1.6-0.4,1.5-1.1C92.5,84.9,89.9,85.1,90,87.3"/>
	<path class="st5" d="M76.4,100.6c-1.2-0.3-2.5,2.1-1.5,2.8C77.2,105.5,79.1,101.4,76.4,100.6"/>
	<path class="st5" d="M81.7,97.7c-0.9,1.6,1.5,2.8,2.6,1.6C85.9,97.9,82.7,96,81.7,97.7"/>
	<path class="st5" d="M80,97.2c0.1-0.9-1-1.9-1.8-1.7c-0.4,0.5-1.7,0.9-1.7,1.7C76.7,99.3,79.9,99,80,97.2"/>
	<path class="st5" d="M82.8,107.1c-1.1-0.8-3.1,0.6-2.1,2c0.3,0.6,0.6,1,0.9,1.2c0.4,0,0.8,0,1.1,0
		C83.5,109.7,83.9,108.1,82.8,107.1"/>
	<path class="st5" d="M70.4,83.7c-0.2-0.9-1.3-1-2.2-0.7c0.8,0.4,1.5,0.8,2.2,1.3C70.4,84.1,70.4,83.9,70.4,83.7"/>
	<path class="st5" d="M80.3,101.7c-1.8,1-0.9,4.7,1.4,3.2C83.4,103.7,82.4,100.7,80.3,101.7"/>
	<path class="st5" d="M70,103.3c0.8,0.7,1.5,0,2.2-0.4c0.9-0.7,0.9-0.5,0.6-1.7C71.9,98.2,67.1,101.3,70,103.3"/>
	<path class="st5" d="M86.1,109.8c0.7-0.2,1.4-0.3,2.1-0.6C87.4,109,86.6,109.2,86.1,109.8"/>
	<path class="st5" d="M71.5,95.7c-1.8,0.5-1.1,3.6,0.7,3.2C74.3,98.1,73,96.1,71.5,95.7"/>
	<path class="st5" d="M72.5,94.3c0.6,0.2,1,0,1.2-0.4c-0.8-0.1-1.6-0.2-2.4-0.3C71.5,94,71.9,94.3,72.5,94.3"/>
	<path class="st5" d="M68.4,95.1l-0.3,2.8C69.3,97.4,69.1,95.9,68.4,95.1"/>
	<path class="st5" d="M73.6,106.3c-0.8,0.8,0.4,2.9,1.4,2.6C78.2,107.8,76.2,104.4,73.6,106.3"/>
	<path class="st5" d="M68.4,105.3c-0.5,0.1-0.5,0.6-0.5,1c-0.5,0.5-0.5,1.1-0.2,1.6c0.1,0.1,0.3,0.2,0.5,0.2c0.1,0,0.2,0,0.3,0
		c0.1,0,0.1,0.1,0.2,0.1c0.3,0.1,0.6,0.1,0.9,0.2C71.4,107.8,70.2,104.5,68.4,105.3"/>
	<path class="st5" d="M64.4,77.9c-1.9,1.6-0.2,3.6,1.7,2.1C67.8,79.2,65.7,76.8,64.4,77.9"/>
	<path class="st5" d="M61,77.5c-0.5-0.5-1.8-0.2-1.7,0.7c0,0.3-0.3,0.5-0.4,0.6c-0.1,1,0.2,1.5,0.7,1.8c0.3-0.2,0.6-0.5,0.9-0.8
		c0.3,0.1,0.7,0.2,1,0.3C62.1,79.4,62.3,78.4,61,77.5"/>
	<path class="st5" d="M55.3,73.9c0.1,0.6,1.8,1.2,2.3,1.5c0.9,0.4,2.1-1.3,1.6-2.2C58.3,70.5,55,71.1,55.3,73.9"/>
	<path class="st5" d="M55.2,80.5c0.5,0.3,1,0.5,1.5,0.6c0.5,0.1,0.9,0.1,1.4,0C57.7,79.8,56.2,79.8,55.2,80.5"/>
	<path class="st5" d="M35.6,72.5c-1.5-0.7-2.6,1.5-1.8,2.7c0.6,0.8,2.8,0.6,2.7-0.7C36.2,73.9,36.5,72.5,35.6,72.5"/>
	<path class="st5" d="M36.2,79.2c0-0.7-0.6-0.8-0.9-1.2c-0.3-0.4-0.8-0.4-1.3,0c0.5,0.8,1,1.6,1.6,2.4c0,0,0.1,0.1,0.1,0.1
		C36,80.3,36.3,79.8,36.2,79.2"/>
	<path class="st5" d="M34,69.8c0.6,1.2,3,0.8,2.8-0.9C36.9,65.3,32.9,67.3,34,69.8"/>
	<path class="st5" d="M38.2,62.2c-0.1-0.2-0.1-0.3-0.2-0.4c-1.1,0.6-2.1,1.4-3,2.3C35.9,65.4,38.9,64.5,38.2,62.2"/>
	<path class="st5" d="M46.3,79.4c0.7-0.1,1.5-0.3,2.2-0.4c-0.2-0.2-0.4-0.3-0.7-0.4C46.9,78.6,46.4,78.9,46.3,79.4"/>
	<path class="st5" d="M41.1,70.5c-3.4-0.4-3,3.6,0.2,2.9C42.3,73,42.1,70.6,41.1,70.5"/>
	<path class="st5" d="M46.3,72.8c-2.2-0.7-2.7,3.2-0.6,3.3c0.6,0.1,0.7-0.3,0.9-0.7C47.9,75,47.6,73.1,46.3,72.8"/>
	<path class="st5" d="M40.9,65.3c-2.3-0.2-1.9,2.3-0.7,3.2C42.1,68.9,42.7,65.8,40.9,65.3"/>
	<path class="st5" d="M44.9,77.7c-1.3-1-3.1,1.4-2.3,2.5c0.7-0.2,1.5-0.4,2.2-0.5c0.2,0,0.3-0.1,0.5-0.1
		C45.6,79,45.6,78.3,44.9,77.7"/>
	<path class="st5" d="M38.1,75.8c-1.5,1.4,1.4,4,2.8,2.5C42.3,76.5,40.1,73.6,38.1,75.8"/>
	<path class="st5" d="M69.6,69.9c0.4-0.8-0.1-2.2-1.1-2.4c-2.2-0.3-3,3.4-0.5,2.9C68.3,71,69.2,70.3,69.6,69.9"/>
	<path class="st5" d="M51.9,72.3c-1.5-0.9-3.6,1.8-2.5,3c0.7,1.1,3,1.3,3.1-0.1C53,74.1,53.3,72.8,51.9,72.3"/>
	<path class="st5" d="M65.4,72.3c-2.4,2.1,2.3,5,2.6,1.1C67.1,72.7,66.6,71.2,65.4,72.3"/>
	<path class="st5" d="M47.4,64.4c-2.1,0.8-1.4,2.9,0.5,3.3C51,68.1,49.8,63.5,47.4,64.4"/>
	<path class="st5" d="M46.3,70.4c0.1-0.6,0.7-1-0.1-1.4c-0.8-1.4-2.2-1.7-3-0.2C42.7,70.6,45.2,72.4,46.3,70.4"/>
	<path class="st5" d="M74,86c-0.4-0.3-0.9-0.4-1.3-0.3c0,0,0,0,0,0c0.6,0.4,1.2,0.8,1.7,1.2C74.5,86.5,74.3,86.2,74,86"/>
	<path class="st5" d="M50.2,68.6c0.1,2.1,3.5,2.2,3.6,0.1C54.8,66.6,50.3,65.8,50.2,68.6"/>
	<path class="st5" d="M71.8,69.8c-1.9-0.1-1.1,3.2,0.5,3C74.4,72.7,73.7,69.5,71.8,69.8"/>
	<path class="st5" d="M59.1,62.9c0.6,0.1,1-0.2,1.4-0.6c-0.9-0.4-1.8-0.7-2.8-1C57.9,62.1,58.3,62.8,59.1,62.9"/>
	<path class="st5" d="M72.2,68.4c-0.5-0.3-0.9-0.6-1.4-0.9C71.1,68.1,71.6,68.3,72.2,68.4"/>
	<path class="st5" d="M60.3,74.6c0.8,2.7,4.8,1.3,2.3-1.1C61.7,72.5,60.3,73.5,60.3,74.6"/>
	<path class="st5" d="M57,63.5c-1-1.9-4.3,0.5-2.6,1.8C55.7,66.7,57.1,64.6,57,63.5"/>
	<path class="st5" d="M54.8,75.7c-1.1,0.1-2.4,1.1-2.5,2.5c0,0.1,0,0.1,0,0.1c0.2,0,0.4-0.1,0.6-0.1c0.2,0.2,0.4,0.5,0.5,0.7
		c0.1,0.1,0.2,0.2,0.3,0.3C55.7,80.3,57.7,75.8,54.8,75.7"/>
	<path class="st5" d="M42.7,63.1c1.4-1.3,0.8-2.5-0.2-2.9c-0.4,0.1-0.8,0.2-1.3,0.3c-0.2,0-0.4,0-0.6,0c-0.1,0-0.2,0.1-0.4,0.1
		c-0.1,0.1-0.2,0.2-0.3,0.3C39,62.7,41.7,64.3,42.7,63.1"/>
	<path class="st5" d="M62.8,68.8c-0.4,0.5-1.8,0.9-1.7,1.7c0,2.1,3.3,1.8,3.4,0.1C64.7,69.6,63.6,68.5,62.8,68.8"/>
	<path class="st5" d="M57.2,66.8c-2.1,0.8-1.4,2.9,0.5,3.3C60.8,70.4,59.6,65.8,57.2,66.8"/>
	<path class="st5" d="M67.6,65.9c0.1-0.1,0.1-0.1,0.2-0.2c-0.8-0.4-1.6-0.9-2.4-1.3c-0.1,0.2-0.3,0.4-0.4,0.7
		C65.1,66.5,66.7,66.8,67.6,65.9"/>
	<path class="st5" d="M62.7,63.8c-1-0.8-3.1,0.5-2.2,1.9C61.8,69,64.7,65.6,62.7,63.8"/>
	<path class="st5" d="M91.7,100.9c-0.9,0.3-1.6,2.4-0.2,2.8c0.7,0,1.8,0.8,2.2-0.1C94.8,102.4,93.1,100.6,91.7,100.9"/>
	<path class="st5" d="M92.7,105.2c-0.7,0.1-1.9-0.6-2.4,0c-1,1-0.1,2.3,0.9,2.7c0,0,0.1,0,0.1-0.1c0.7-0.4,1.3-0.9,1.9-1.4
		C93.2,105.9,93.1,105.4,92.7,105.2"/>
	<path class="st5" d="M86.3,100.3c0.9,1.9,3.9,1.3,2.7-0.9C88.2,97.8,85.9,98.6,86.3,100.3"/>
	<path class="st5" d="M85.2,96c-0.2,0.8,1,1.8,1.8,1.6c1.5-0.4,1.7-3.1-0.2-3.1C85.8,94.1,85.4,95.2,85.2,96"/>
	<path class="st5" d="M80.7,94.1c0,1.9,3.2,1,3-0.6C83.5,91.4,80.2,92.1,80.7,94.1"/>
	<path class="st5" d="M85.4,103.8c-0.4,0.5-1.7,0.9-1.7,1.7c0.1,2.1,3.3,1.8,3.4,0C87.2,104.6,86.1,103.5,85.4,103.8"/>
	<path class="st5" d="M52.8,62.6c1.6-1.5-1.6-3.4-2.6-1.6C49.3,62.6,51.6,63.8,52.8,62.6"/>
	<path class="st5" d="M45.1,60.6c0.1,2.1,3.4,1.7,3.4,0c0-0.3-0.1-0.6-0.2-0.9c-0.9,0-1.8,0-2.7,0.1C45.2,60,45,60.2,45.1,60.6"/>
	<path class="st5" d="M55.4,60.9c0.1,0,0.2-0.1,0.4-0.1c-0.6-0.2-1.2-0.3-1.8-0.4C54.4,60.7,55,61,55.4,60.9"/>
	<path class="st4" d="M55,80.3C55,80.3,54.9,80.3,55,80.3C54.9,80.3,54.9,80.3,55,80.3c-0.1-0.1-0.2-0.2-0.2-0.3
		c-0.3-0.4-0.5-0.9-0.4-1.4C54,73.9,54,69,54.3,64.2c0.2-1.4,0.4-2.7,0.3-4.1c0-0.2-0.1-0.3-0.3-0.4c-0.4-0.1-1-0.4-1.6-0.4
		c-0.2-0.1-0.5-0.1-0.7-0.1c-0.2,0-0.4,0.1-0.5,0.3c-0.1,0.2-0.1,0.3-0.1,0.5c-0.1,0.4-0.1,0.9-0.2,1.2c0,0,0,0,0,0
		c0,0.1,0,0.1,0,0.2c-0.5,5.5-0.6,11-0.3,16.5c-2.7,0.7-5.4,1.2-8.1,1.7c-0.6-3.2-1.3-6.4-2-9.6c-0.4-2.9-1-5.8-2-8.5c0,0,0,0,0,0
		c0,0,0-0.1,0-0.1c0-0.2-0.2-0.4-0.4-0.3c-0.1,0-0.2,0.1-0.4,0.2c0,0,0,0,0,0c0,0,0,0,0,0c0,0,0,0,0,0c-0.1,0.1-0.2,0.2-0.3,0.2
		c-0.5,0.4-1,0.7-1.5,1.1c-0.2,0.1-0.4,0.3-0.5,0.4c-0.1,0.1-0.2,0.2-0.2,0.3c0,0,0,0.1,0,0.1c0,0,0,0,0,0c0,0,0,0,0,0
		c0,0,0,0.1,0,0.1c0,0,0,0,0,0c0,0,0,0.1,0,0.1c0,0,0,0,0,0l0,0c0,0,0,0,0,0c0,0,0,0,0,0c0.3,1,0.6,1.9,1,2.8c1.1,4.5,2.1,9,3,13.6
		c-0.6,0.1-1.1,0.2-1.7,0.2c-0.1,0-0.2,0-0.3,0.1c-0.2,0.1-0.4,0.1-0.6,0.2c-0.2,0.1-0.3,0.3-0.2,0.5c0.1,0.2,0.2,0.5,0.3,0.7
		c0.1,0.3,0.2,0.5,0.2,0.8c0.1,0.6,0.2,1.2,0.4,1.9c0.2,1.2,0.4,2.4,0.6,3.5c0.3,0,0.7-0.1,1,0c1.8,0.2,3.7,0.2,5.5,0
		c1.5-0.3,3-0.7,4.5-1.2c0.9-0.4,1.7-0.9,2.5-1.4c0.5-0.5,1-1,1.5-1.5C53.8,82.7,54.5,81.6,55,80.3C55,80.4,55,80.4,55,80.3
		C55,80.4,55,80.3,55,80.3"/>
	<path class="st2" d="M50.6,61.8c0.1-3.2-0.1-6.4-0.1-9.6c0-0.1,0-0.2,0-0.2c0.8-2.5,2.3-4.8,2.9-7.5c0.3-1.3,0.5-2.9-0.2-4.1
		c-0.4-0.7-1.1-1.1-1.9-1c-0.9,0.1-1.4,0.7-1.8,1.4C48.6,42,48,43.5,47.5,45c-0.2,0.8-0.4,1.6-0.5,2.4c-0.1,0.5-0.1,1.1-0.1,1.6
		c-0.2,0-0.5,0.1-0.7,0.2c-0.5,0.1-1,0.2-1.5,0.3L43,49.8c-0.4-1.3-0.8-2.7-1.2-4c-0.5-1.5-1.5-4.6-3.8-3.3c-1.7,1-1.1,3.8-0.6,5.3
		c0.2,0.9,0.5,1.8,0.8,2.7c0.1,0.4,0.3,0.8,0.4,1.3c0,0.2,0.2,0.5,0.2,0.8c-0.2,0.1-0.4,0.2-0.6,0.3c-0.4,0.3-0.9,0.5-1.3,0.8
		l-2.5,1.5l-5,3c-0.6,0.3-0.7,0.9-0.6,1.4c-0.1,0.4-0.1,0.9,0.2,1.3c0.4,0.5,0.9,0.7,1.6,0.6c3.1-0.6,6.3-1.1,9.4-1.5
		c-0.2,4.2,0.6,8.8,5.4,7.4C48.2,66.7,50.5,64.8,50.6,61.8"/>
	<path class="st1" d="M39.3,57c-0.4,0.6-0.8,1.3-1.5,1.4c-0.3,0.1-0.6,0-0.8-0.2c-0.2-0.2-0.3-0.6-0.3-0.9c0-0.3-0.5-0.3-0.5,0
		c0,0.4,0.1,0.9,0.4,1.2c0.3,0.3,0.8,0.4,1.2,0.4c1-0.1,1.6-0.9,2-1.7C40,57,39.5,56.7,39.3,57"/>
	<path class="st1" d="M47.2,51.7c0.6,0.1,1.2,0,1.7-0.4c0.5-0.3,0.9-0.8,1-1.4c0-0.2-0.1-0.4-0.3-0.5c-0.2,0-0.4,0.1-0.5,0.3
		c0,0.1,0,0.1-0.1,0.2c0,0,0,0,0,0.1c0,0,0,0,0,0c0,0,0,0,0,0c0,0.1-0.1,0.2-0.2,0.3c0,0,0,0,0,0.1c0-0.1,0,0,0,0
		c0,0-0.1,0.1-0.1,0.1c0,0-0.1,0.1-0.1,0.1c0,0-0.1,0.1,0,0c0,0-0.1,0-0.1,0.1c-0.1,0.1-0.2,0.1-0.3,0.2c0,0-0.1,0,0,0
		c0,0,0,0-0.1,0c-0.1,0-0.1,0-0.2,0.1c-0.1,0-0.1,0-0.2,0c-0.1,0,0,0,0,0c0,0-0.1,0-0.1,0c-0.1,0-0.1,0-0.2,0c0,0-0.1,0-0.1,0
		c0,0-0.1,0,0,0c-0.2,0-0.4,0-0.5,0.3C46.9,51.4,47,51.7,47.2,51.7"/>
	<path class="st1" d="M38.5,50.3c0,0.2,0.1,0.5,0.2,0.7c0.1,0.2,0.3,0.4,0.5,0.5c0.2,0.1,0.4,0,0.5-0.1c0.1-0.2,0-0.4-0.1-0.5
		c0,0-0.1,0-0.1-0.1l0.1,0.1c-0.1-0.1-0.1-0.1-0.2-0.2l0.1,0.1c-0.1-0.1-0.1-0.2-0.2-0.3c0,0,0,0.1,0,0.1c0-0.1-0.1-0.2-0.1-0.3
		c0,0,0,0.1,0,0.1c0,0,0,0,0,0c0-0.1,0-0.2-0.1-0.3c-0.1-0.1-0.2-0.1-0.3-0.1c-0.1,0-0.2,0-0.3,0.1C38.5,50.1,38.4,50.2,38.5,50.3"
		/>
	<path class="st5" d="M41.8,53.5c0.1-0.5-0.2-1-0.6-1.4c-0.4-0.5-1-0.9-1.6-1c-0.1,0-0.1,0-0.2,0c-0.1,0-0.1,0-0.2,0
		c-0.1,0-0.3,0-0.3,0.2c-0.1,0.5,0.3,1.1,0.5,1.5c0.3,0.5,0.7,0.9,1.1,1.2c0.2,0.2,0.5,0.3,0.8,0.1C41.6,54,41.7,53.7,41.8,53.5"/>
	<path class="st5" d="M48.3,51.9c0-0.1-0.1-0.1-0.2-0.2c-0.1-0.1-0.2-0.2-0.3-0.3c-0.1,0-0.2,0-0.3,0c-0.1,0-0.1,0-0.2,0
		c-0.4,0-0.8,0-1.1,0.1c-0.3,0.1-0.6,0.2-0.9,0.4c-0.3,0.1-0.7,0.3-1,0.5c-0.5,0.3-1.2,0.9-1.1,1.5c0.1,0.9,1.1,0.6,1.7,0.4
		c0.7-0.3,1.5-0.6,2.2-1c0.3-0.2,0.7-0.4,0.9-0.6C48.2,52.6,48.5,52.2,48.3,51.9"/>
	<path class="st1" d="M47.9,52.4c0-0.2,0.1-0.5,0-0.8c0-0.2-0.1-0.4-0.3-0.4c0,0,0,0,0,0c0,0,0,0,0,0c-0.1-0.1-0.2-0.2-0.4-0.1
		c0,0-0.1,0.1-0.1,0.1c-0.1,0-0.2,0-0.2,0.1c-0.3,0.3-0.4,0.7-0.6,1.1c-0.1,0.2-0.1,0.4-0.1,0.6c0,0.2-0.1,0.4,0,0.6
		c0,0.1,0.1,0.2,0.3,0.3c0,0.1,0.1,0.2,0.3,0.3c0.4,0.2,0.7-0.3,0.9-0.6C47.7,53.2,47.8,52.8,47.9,52.4"/>
	<path class="st1" d="M41.5,53.2c0.1-0.2,0.1-0.4,0.2-0.6c0-0.1,0-0.3,0-0.4c0,0,0,0,0,0c0-0.2,0.1-0.5-0.1-0.6
		c-0.1-0.1-0.2-0.1-0.3-0.1c-0.1,0-0.2,0-0.3,0c-0.6,0.6-0.9,1.3-0.9,2.1c0,0.2,0,0.4,0.1,0.6c0.2,0.2,0.4,0.1,0.6,0
		C41.1,54,41.3,53.6,41.5,53.2"/>
	<path class="st4" d="M30.3,61.4c0.1-0.2,0.1-0.5,0.1-0.9c0-0.1,0-0.2,0-0.3c0.1-0.7,0.1-1.3,0.2-2c0-0.2,0.1-0.4,0.1-0.5
		c0-0.2-0.2-0.3-0.3-0.2c0,0-0.1,0-0.1,0c-1.2,0.5-3.5,1.3-3.5,3c0,0.8,0.5,1.2,1.1,1.3c0.4,0.1,0.9,0.1,1.4,0
		C29.8,61.8,30.2,61.7,30.3,61.4"/>
	<path class="st7" d="M50.5,114.1c-0.1-0.1-0.3-0.2-0.4-0.2c0,0,0,0,0,0c0,0-0.1-0.1-0.2-0.1c-1.8-1-3.6-2.1-5.3-3.2
		c-0.4-0.3-0.8-0.1-1,0.1c0,0-0.1,0-0.1,0.1c-2.2,1.7-4.9,2.2-7.7,2.3c-1.2,0-2.3,0-3.5-0.1c-1-0.2-1.9-0.3-2.8,0
		c-0.1,0-0.1,0-0.2,0c-0.4,0.1-0.9,0.4-1.1,0.8c-0.2,0.4-0.2,0.8-0.2,1.3c0,0,0,0,0,0c0,0,0,0,0,0c0.1,1.1,1.2,1.8,2.1,2.2
		c1.3,0.6,2.8,0.7,4.2,1c3.2,0.5,6.5,1,9.7,1.5c0.1,0,0.2,0,0.4,0.1c0.5,0.1,1,0.2,1.5,0.3c0.7,0.1,1.4-0.1,1.8-0.7
		c0.5-0.6,0.8-1.3,1.2-2c0-0.1,0.1-0.1,0.1-0.2c0.4-0.6,0.7-1.2,1.1-1.8c0.2-0.3,0.3-0.5,0.5-0.8C50.7,114.5,50.7,114.3,50.5,114.1"
		/>
	<path class="st0" d="M47.4,120c-0.1-0.1-0.2-0.1-0.3-0.1c0,0,0,0-0.1,0c-5.2,0-10.3-1.3-15-3.4c-1.1-0.5-2.2-1-3.2-1.6l-0.7-0.5
		c-0.1-0.1-0.2-0.1-0.3,0c-0.3,0.1-0.5,0.2-0.6,0.5c-0.1,0.3-0.2,0.8,0,1.1c0.1,0.3,0.6,0.6,0.9,0.7c0,0,0.1,0,0.1,0
		c1.3,0.6,2.5,1.2,3.8,1.7c2.8,1.1,5.7,1.9,8.7,2.4c1.8,0.3,3.5,0.4,5.3,0.5c0,0,0.1,0,0.1,0c0.4,0,0.9-0.1,1.2-0.5
		c0.1-0.2,0.3-0.5,0.2-0.7C47.5,120.1,47.5,120,47.4,120"/>
	<path class="st2" d="M79.7,70.4c-0.4-2.3-3.1-4.1-5.1-4.9c-2.2-0.9-4.7-0.8-6.9-0.1c-1.3,0.2-2.6,0.8-3.7,1.8
		c-1,0.9-0.9,2.1,0.3,2.7c1.4,0.7,2.8-0.2,4.2-0.7c0,0,0,0,0,0c-0.2,0.2-0.5,0.4-0.7,0.7c-0.8,1-1.4,2.5-0.3,3.5
		c1.1,0.9,2.5,0.3,3.5-0.5c0.5-0.4,1-0.9,1.5-1.4c-0.1,0.3-0.2,0.6-0.3,0.9c-0.3,1-0.7,2.3,0.3,3c1.1,0.8,2.2-0.2,2.8-1.1
		c0.7-0.9,1.3-1.8,1.8-2.8c0.5,0,0.9,0.1,1.3-0.1C79.1,71.6,79.9,71.2,79.7,70.4"/>
</g>
</svg>
