<?xml version="1.0" encoding="utf-8"?>
<!-- Generator: Adobe Illustrator 20.1.0, SVG Export Plug-In . SVG Version: 6.00 Build 0)  -->
<svg version="1.1" id="Layer_1" xmlns="http://www.w3.org/2000/svg" xmlns:xlink="http://www.w3.org/1999/xlink" x="0px" y="0px"
	 viewBox="0 0 111.3 116.2" style="enable-background:new 0 0 111.3 116.2;" xml:space="preserve">
<style type="text/css">
	.st0{fill:#3D55CC;}
	.st1{fill:#191919;}
	.st2{fill:#FF4133;}
	.st3{fill:#FFBB00;}
	.st4{fill:#303C78;}
	.st5{fill:#F5EBE0;}
	.st6{fill:#25B89D;}
	.st7{fill:#CC9966;}
	.st8{fill:#DADFF5;}
	.st9{clip-path:url(#SVGID_2_);fill:#25B89D;}
	.st10{clip-path:url(#SVGID_2_);fill:#F5EBE0;}
</style>
<g>
	<path class="st0" d="M71.9,95.6c-0.2-2.7-1.4-5.2-2.9-7.4c-1.3-2.5-2.6-4.9-4-7.3c-2.2-3.7-5.7-7.3-10.3-7.1
		c-4.5,0.2-7.7,3.7-9.1,7.7c-0.7,2.1-1,4.3-1.3,6.5c-0.3,2.1-0.4,4.3-0.5,6.4c-0.1,1.7-0.1,3.4,0,5.1c0,0.2-0.1,0.3-0.1,0.5
		c-0.1,3.2,0.2,6.5,0.9,9.6c0.2,0.8,0.8,1.4,1.6,1.8c0.6,1,1.6,1.7,2.9,1.8c2.5,0.3,4.5-1.2,6.5-2.4l5.4-3.3
		c1.8-1.1,3.6-2.2,5.4-3.3c1.6-1,3.3-2.1,4.3-3.7c0.4-0.7,0.7-1.4,0.8-2.1C71.8,97.5,72,96.6,71.9,95.6"/>
	<path class="st4" d="M47.9,77.5c-0.6,0.7-1.1,1.5-1.5,2.3C47,79.2,47.6,78.4,47.9,77.5"/>
	<path class="st4" d="M49.8,92.4c1-0.7,1.5-1.9,1.6-3.1c0.1-1.2,0-2.4-0.2-3.6c-0.1-0.4-0.1-0.8-0.2-1.2c-0.4-2.4-2.7-2.4-4.7-2.2
		c-0.4,0.1-0.8,0.1-1.1,0.3c-0.5,1.7-0.7,3.5-0.9,5.3c-0.2,1.5-0.3,2.9-0.4,4.4c0.4,0.2,0.9,0.3,1.3,0.4
		C46.8,93.2,48.5,93.3,49.8,92.4"/>
	<path class="st4" d="M49.6,78.6c-0.2,0.6-0.5,1.4,0,1.9c0.2,0.2,0.5,0.3,0.8,0.4c0.6,0.2,1.2,0.3,1.9,0.2c1.6-0.2,2.7-1.8,2.9-3.4
		c0.1-1.3-0.2-2.6-0.7-3.9c-1.5,0.1-2.9,0.6-4,1.4C50.4,76.4,50,77.6,49.6,78.6"/>
	<path class="st4" d="M57.7,76.2c0.2,0.3,0.6,0.5,1,0.5c0.2,0,0.4-0.2,0.5-0.3c0.4-0.3,0.7-0.6,1-0.9c-1-0.7-2.2-1.2-3.4-1.5
		c0.2,0.4,0.3,0.8,0.5,1.2C57.4,75.6,57.5,75.9,57.7,76.2"/>
	<path class="st4" d="M53.5,87.2c0,0.1,0.1,0.3,0.2,0.4c0.4,0.4,1,0.2,1.5,0.3c0.8,0.2,1.2,1,2,1.2c0.7,0.2,1.4-0.2,1.8-0.8
		c0.4-0.6,0.4-1.3,0.3-2c-0.2-1-1.1-2-0.6-3c0.3-0.7,1.2-0.9,1.9-1.2c0.4-0.2,0.8-0.5,1.1-0.9c0.4-0.5,0.7-1.3,0.3-1.8
		c-0.4-0.6-1.3-0.5-1.9-0.3c-0.7,0.2-1.4,0.6-2,0.4c-1-0.3-1.7-0.8-1.8,0.7c0,1-0.5,2-1.2,2.8c-0.5,0.5-1.3,0.8-1.6,1.4
		c-0.3,0.5-0.2,1-0.2,1.5C53.3,86.2,53.4,86.7,53.5,87.2"/>
	<path class="st4" d="M60.8,84c-0.1,0.4,0,0.7,0.1,1.1c0.2,0.7,0.6,1.4,1,2.1c0.2,0.4,0.5,0.7,0.8,0.9c0.3,0.2,0.7,0.4,1.1,0.5
		c1.4,0.3,3-0.5,3.8-1.7c0.1-0.2,0.2-0.4,0.3-0.7c-0.8-1.6-1.7-3.2-2.6-4.7c-0.8,0.2-1.7,0.6-2.6,0.9C61.9,82.7,61,83.1,60.8,84"/>
	<path class="st4" d="M69.4,89.1c0.1,0,0.1,0,0.2,0c-0.2-0.3-0.4-0.6-0.5-0.8C69,88.6,69.1,89,69.4,89.1"/>
	<path class="st4" d="M66.1,98.5c0.1,0.6,0.4,1.2,0.8,1.7c0.4,0.5,1,0.8,1.6,0.7c0.4,0,0.8-0.2,1.1-0.3c0.4-0.2,0.9-0.4,1.3-0.6
		c0.2-0.5,0.4-1,0.5-1.5c0.3-0.9,0.5-1.8,0.5-2.8c-0.1-1.2-0.3-2.3-0.8-3.4c-0.6,0-1.3,0-1.9,0.1C66.7,92.5,65.7,96.4,66.1,98.5"/>
	<path class="st4" d="M64.1,105c-0.2,0.3-0.2,0.6-0.2,0.9c0.8-0.5,1.7-1,2.5-1.5c0.2-0.1,0.4-0.3,0.6-0.4c-0.7,0.1-1.3,0.2-1.9,0.4
		C64.7,104.5,64.4,104.6,64.1,105"/>
	<path class="st4" d="M49.3,108.8c0.2-0.3,0.4-0.7,0.4-1.1c0-0.4-0.3-0.8-0.5-1.1c-0.5-0.6-2.4-2.3-3.3-1.8c-0.8,0.5-1,3.5-1.1,4.4
		c0,0.2,0,0.4,0,0.6c0.2,0.7,0.8,1.3,1.5,1.7c0,0,0,0,0,0c0.2-0.1,0.4-0.2,0.6-0.3C47.8,110.5,48.6,109.7,49.3,108.8"/>
	<path class="st4" d="M44.1,97.6c0-0.5-0.1-1-0.3-1.5c0,1.1,0,2.3,0,3.4c0,0.2-0.1,0.3-0.1,0.5c0,0.4,0,0.9,0,1.3
		c0.1-0.2,0.2-0.4,0.2-0.6C44.1,99.7,44.1,98.6,44.1,97.6"/>
	<path class="st4" d="M59.5,106.5c-0.3,0.3-0.6,0.7-1,1c-1.1,0.9-2.8,0.5-4.2,0.8c-0.8,0.2-1.5,0.5-2.1,1.1
		c-0.3,0.3-0.6,0.7-0.6,1.1c0,0.3,0.2,0.5,0.3,0.7c0.4,0.4,0.8,0.8,1.2,1.1c0.8-0.4,1.6-1,2.4-1.5l5.4-3.3c0.3-0.2,0.6-0.3,0.8-0.5
		c0-0.3,0-0.6-0.2-0.8C61.1,105.5,60,106.1,59.5,106.5"/>
	<path class="st4" d="M65,92c0-0.2,0-0.5-0.1-0.6c-0.1-0.2-0.3-0.2-0.5-0.3c-0.8-0.3-1.7-0.4-2.6-0.4c-0.3,0-0.6,0-0.9,0.1
		c-0.6,0.3-0.8,1-1,1.7c-0.4,1.4-0.9,2.9-0.7,4.4c0.2,1.5,0.8,2.8,1.5,4c0.3,0.6,0.7,1.2,1.2,1.7c1,0.9,2.3,0.9,3.1-0.2
		c0.9-1,0-2-0.5-3C63.1,96.7,64.8,94.6,65,92"/>
	<path class="st4" d="M57.3,99.2c-0.2-0.3-0.3-0.7-0.6-1c-0.3-0.3-0.7-0.4-1-0.3c-0.2,0.1-0.4,0.2-0.5,0.4c-1.7,1.7-2.8,4-3.2,6.3
		c-0.1,0.5-0.1,1.1,0.2,1.5c1,1.2,3.8,0.8,5,0c0.6-0.4,1-1,1.5-1.6c0.8-1.1,1.1-1.7,0.2-2.8C58.2,101,57.7,100.1,57.3,99.2"/>
	<path class="st4" d="M50.4,97.5c-0.5-0.4-0.8-1-1.4-1.3c-0.6-0.3-1.4-0.2-2,0.2c-0.6,0.4-1,1-1.2,1.6c-0.1,0.3-0.2,0.6-0.3,0.9
		c-0.4,1.9,1,3.8,2.5,4.7c2,1.1,2.9-2.3,3.5-3.7c0.2-0.4,0.4-1,0.2-1.4C51.4,98,50.8,97.8,50.4,97.5"/>
	<path class="st4" d="M52.2,96.2c0.5,0.3,1.2,0.2,1.7,0c1.5-0.6,5.2-2.1,3.3-4.3c-0.5-0.6-1.3-0.7-1.8-1.2c-0.2-0.3-0.4-0.7-0.7-0.9
		c-1.1-0.7-1.5,1.1-1.6,1.7c-0.1,0.6-0.4,1.1-0.7,1.6c-0.3,0.5-0.6,1-0.7,1.6C51.6,95.2,51.7,95.9,52.2,96.2"/>
	<path d="M107.3,111.4c-2.1-1.4-4.7-1.7-7.1-1.7c-2.8,0-5.5,0.3-8.3,0.5c-5.8,0.4-11.6,0.8-17.4,1.1c-5.8,0.3-11.7,0.4-17.5,0.1
		c-5.7-0.3-11.4-0.9-17-1.3c-5.7-0.4-11.4-0.6-17,0.1c-0.1,0-2.4,0.1-2.5,0.2c-2.5,0-5,0.1-7.4,0.3c-0.7,0.1-1.4,0.6-1.4,1.4
		c0.1,1.5,1.4,2.2,2.7,2.4c1.5,0.2,3,0.3,4.6,0.3c0.8,0,1.6,0,2.4-0.1c1.2,0.2,2.6,0,3.8-0.2c2.7-0.5,5.3-1,8-1.1
		c5.8-0.2,11.5,0.5,17.2,0.9c5.9,0.4,11.9,0.4,17.8,0.3c6-0.1,12-0.2,18.1-0.3c6.8-0.1,13.5-0.2,20.3-0.3
		C108,113.9,108.5,112.1,107.3,111.4"/>
	<path class="st5" d="M102,109.8c-0.1-0.1-0.1-0.2-0.2-0.2c0,0,0,0,0,0c-2.7-2.2-4.7-5.2-7-7.9c-1.7-2.1-3.5-4.1-5.3-6
		C88.6,94.8,87.7,94,87,93c-0.1-0.1-0.2-0.2-0.2-0.3c0,0,0,0,0,0c0,0-0.1-0.1-0.1-0.2c-1.3,0.5-2.7,0.9-4.1,1.4
		c-0.7,0.2-1.5,0.5-2.2,0.7c-0.4,0.1-0.7,0.6-0.6,1c0,0,0,0.1,0,0.1c-0.2,0.1-0.3,0.4-0.3,0.6c-0.1,1.4,0.3,2.7,0.6,4
		c0.3,1.3,0.6,2.5,0.9,3.8c0.1,0.3,0.3,0.5,0.6,0.6c0.1,0.1,0.2,0.1,0.4,0.1c1.1-0.1,2-0.6,2.9-1.1c0.2-0.1,0.4-0.2,0.7-0.3
		c0.1,0,0.1-0.1,0.2-0.1c0,0,0,0,0,0c0,0,0,0,0,0c0.1,0,0.2-0.1,0.4-0.1c0.4-0.1,0.7-0.2,1.1-0.3c1.9,1.9,3.9,3.8,6,5.6
		c1.1,0.9,2.1,1.9,3.5,2.4c1.4,0.5,2.9,0.3,4.3-0.3C101.4,110.3,101.7,110.1,102,109.8C102.1,109.8,102,109.8,102,109.8"/>
	<path class="st6" d="M102.1,109.8c0,0,0.1-0.1,0.2-0.1c0.1-0.1,0.2-0.1,0.4-0.2c0.3-0.2,0.5-0.3,0.8-0.5c0.2-0.2,0.4-0.3,0.6-0.5
		c0.1-0.1,0.3-0.3,0.4-0.4c0.2-0.2,0.3-0.4,0.4-0.6c0-0.1,0-0.1,0-0.2c0-0.2,0-0.4-0.2-0.6l-1.5-1.5c-0.4-0.4-0.9-1-1.4-1.4
		c-0.5-0.3-0.9-0.1-1.4,0.2c-0.2,0.1-0.7,0.5-0.6,0c0-0.2,0.5-0.4,0.7-0.6c0.2-0.2,0.3-0.3,0.4-0.5c0.2-0.2,0.3-0.5,0.1-0.8
		c-0.2-0.3-0.5-0.6-0.7-0.8c-0.2-0.3-0.5-0.5-0.8-0.7c-0.2-0.2-0.5-0.5-0.8-0.6c-0.1-0.1-0.3-0.1-0.4-0.1c-0.5,0-1.1,0.4-1.5,0.6
		c-0.1,0-0.2,0.1-0.2,0.2c0,0,0,0,0,0c0,0,0,0,0,0c0,0,0,0,0-0.1c0,0,0-0.1,0-0.1c0,0,0,0,0.1-0.1l0.5-0.6c0.2-0.2,0.4-0.3,0.5-0.6
		c0,0,0.1-0.1,0.1-0.2c0.1-0.2,0-0.3,0-0.5c-0.1-0.5-0.6-1-0.9-1.4c-0.5-0.5-1.3-1.5-2-1.6c-0.6-0.1-1.2,0.3-1.8,0.7
		c0.1-0.1,0.2-0.3,0.3-0.3c0.2-0.2,0.4-0.3,0.5-0.5c0.2-0.2,0.4-0.5,0.3-0.9c0-0.2-0.1-0.4-0.2-0.5c0,0,0-0.1-0.1-0.1
		c-0.2-0.5-0.7-0.9-1.1-1.2c0,0,0,0,0,0c-0.3-0.3-0.6-0.6-0.9-0.8c-0.1-0.1-0.2-0.2-0.4-0.3c-0.1-0.1-0.2-0.2-0.4-0.2
		c-0.1,0-0.2-0.1-0.3-0.1c-0.2,0-0.4-0.1-0.6,0c-0.1,0-0.2,0.1-0.4,0.1c-0.4,0.2-0.8,0.4-1.2,0.6c-0.3,0.1-0.7,0.3-1,0.4
		c-0.3,0.1-0.5,0.2-0.8,0.3c0,0.1,0.1,0.1,0.2,0.2c0,0,0,0,0,0c0.1,0.1,0.1,0.2,0.2,0.3c0.8,0.9,1.6,1.8,2.5,2.6c1.8,2,3.6,4,5.3,6
		c2.2,2.7,4.3,5.7,7,7.9c0,0,0,0,0,0C101.9,109.6,101.9,109.7,102.1,109.8C102,109.8,102.1,109.8,102.1,109.8"/>
	<path class="st6" d="M84.7,25.7c0-0.8,0-1.6,0-2.5c0,0,0-0.1,0-0.1c0-0.4,0-0.9-0.1-1.3c0-0.1-0.1-0.3-0.1-0.5
		c-0.1-0.4-0.1-0.8-0.3-1.2c-0.2-0.7-0.7-1.3-1.4-1.4c-0.5-0.1-0.9,0.1-1.2,0.4c-0.2-0.4-0.4-0.8-0.8-1.1c-0.9-0.9-2.1-0.7-2.9,0.1
		c-0.3-0.6-0.7-1-1.4-1.3c-1.3-0.5-2.9,0-3.5,1.4c-0.1,0.2-0.3,0.4-0.3,0.7c0,0.1,0,0.2,0.1,0.2c0.1,0,0.1,0,0.2,0
		c0.3,0.1,0.6,0.3,0.9,0.5c0.2,0.4,0.4,0.7,0.6,1c0,0.1,0,0.1,0.1,0.2c1,1.5,0.9,3.1,1.3,4.8c0.2,1.4,1.1,2.5,2.1,3.4
		c0.3,0.6,0.6,1.2,0.8,1.8c0.1,0.3,0.5,0.6,0.8,0.5c0.1,0,0.3-0.1,0.4-0.3c0.3,0.2,0.8,0.1,0.8-0.2c0.1,0,0.1-0.1,0.2-0.2
		c0.1,0,0.2,0,0.3,0c0.2,0.1,0.4,0.2,0.6,0c0.1,0.1,0.1,0.1,0.2,0.1c0.2,0.1,0.6,0.1,0.7-0.2c0,0,0-0.1,0.1-0.1c0.1,0,0.3,0,0.5,0
		c0.2-0.1,0.4-0.3,0.4-0.6c0.2,0,0.3-0.1,0.5-0.2c0.1-0.1,0.1-0.1,0.1-0.2c0.2,0,0.4-0.2,0.4-0.5c0-0.2,0-0.4,0-0.6
		c0.2-0.1,0.3-0.3,0.3-0.5C85.2,27.2,84.9,26.4,84.7,25.7"/>
	<path class="st6" d="M74.9,23.6c0,0-0.1,0-0.1,0c-0.1-0.2-0.3-0.2-0.5-0.1c-0.1-0.1-0.2-0.2-0.3-0.2c0-0.1,0-0.1-0.1-0.2
		c-0.1-0.1-0.3-0.2-0.4-0.1c-0.1-0.3-0.2-0.6-0.2-1c0-0.1-0.1-0.2-0.2-0.3c0-0.1,0-0.2,0-0.2c0-0.4-0.7-0.4-0.7,0
		c0,0.6,0.1,1.2,0.2,1.9c0.1,0.5,0.2,1,0.4,1.5c0.3,0.5,0.8,0.7,1.4,0.6c0.7-0.1,0.7-1,0.8-1.5C75.3,23.7,75.1,23.6,74.9,23.6"/>
	<path class="st3" d="M35,35.3l0.8,0.5c0-0.1,0.1-0.1,0.1-0.2c-0.2-0.3-0.2-0.7-0.3-1C35.4,34.9,35.2,35.2,35,35.3"/>
	<path class="st3" d="M74.5,20.9c0-0.1-0.1-0.1-0.1-0.2c-0.2-0.3-0.4-0.7-0.6-1c-0.3-0.2-0.6-0.3-0.9-0.5c-0.1,0-0.1,0-0.2,0
		c0,0-0.1,0-0.1-0.1c-1.1-0.5-2.3-1-3.4-1.5l-10.8-4.8c-0.2-1.2-0.6-2.4-1.2-3.5c-2.4-4.8-8.1-7.8-13.5-7.2
		c-6,0.7-10.8,5.3-11.9,11.2c-1.3-0.2-2.6-0.1-3.8,0.5c-1.7-3.4-4.8-6.1-8.6-7.2c-6-1.8-12.7,0.9-15.9,6.2c-2.9,4.6-2.9,11,0.4,15.4
		c3.5,4.7,9.5,6.9,15.1,5.1c2.4-0.7,4.7-2.2,6.4-4.1c0.2,0.1,0.4,0.2,0.6,0.4c1.2,0.8,2.3,1.5,3.5,2.3c0-0.1,0-0.1,0-0.2
		c0.2-1.1,0.6-2.1,1.1-3.1c0.1-0.2,0.2-0.5,0.3-0.7c-1.1-0.7-2.1-1.4-3.2-2.1c1-1.9,1.6-4.1,1.5-6.2c0-0.6,0-1.2-0.1-1.7
		c0,0,0.1-0.1,0.1-0.1c0,0,0.1,0,0.1-0.1c0.1,0,0.3-0.2,0.3-0.2c0.2-0.1,0.4-0.1,0.6-0.2c0,0,0,0,0,0c0.1,0,0.2,0,0.3,0
		c0.1,0,0.5,0,0.4,0c0.2,0,0.3,0.1,0.5,0.1c0.1,0,0.2,0.1,0.3,0.2c0.4,4.7,3.6,8.9,8,10.7C45,30.4,51.5,29,55.2,25
		c1.9-2.1,3.1-4.8,3.4-7.5c5.3,2.3,10.7,4.7,16,7c0.4,0.2,0.7,0.3,1.1,0.5C75.5,23.5,75.4,22.2,74.5,20.9 M19.1,28.9
		c0,0-0.1,0.1-0.2,0.1c-0.1,0-0.2,0.1-0.3,0.1c-0.3,0.1-0.5,0.2-0.8,0.3c-0.2,0.1-0.5,0.1-0.7,0.2c-0.1,0-0.3,0.1-0.4,0.1
		c-0.1,0-0.3,0-0.3,0c-0.5,0.1-1.1,0.1-1.6,0.1c-0.3,0-0.6,0-0.8,0c0,0-0.1,0-0.2,0c-0.1,0-0.3,0-0.4-0.1c-0.5-0.1-1-0.2-1.5-0.4
		c-0.1,0-0.2-0.1-0.3-0.1c0,0-0.1,0-0.1-0.1c-0.3-0.1-0.5-0.3-0.8-0.4c-0.2-0.1-0.5-0.3-0.7-0.4c-0.1-0.1-0.2-0.1-0.3-0.2
		c0,0-0.2-0.1-0.2-0.2c0,0-0.1-0.1-0.1-0.1c-0.1-0.1-0.2-0.2-0.3-0.3c-0.3-0.2-0.5-0.5-0.7-0.7c-0.2-0.2-0.4-0.4-0.6-0.7
		c0-0.1-0.1-0.1-0.1-0.2c0,0-0.2-0.3-0.2-0.3c-0.3-0.5-0.6-1-0.9-1.6c0,0-0.1-0.1-0.1-0.2c0-0.1-0.1-0.2-0.1-0.4
		c-0.1-0.3-0.2-0.6-0.3-0.9c-0.1-0.3-0.1-0.6-0.2-1c0,0,0-0.1,0-0.1c0,0,0,0,0,0c0-0.2,0-0.4-0.1-0.5c0-0.7,0-1.3,0-2
		c0-0.1,0-0.1,0-0.1c0-0.2,0.1-0.4,0.1-0.6C5.8,18,5.9,17.7,6,17.4c0.1-0.3,0.2-0.6,0.3-0.9c0.1,0.1,0.1,0.1,0.2,0.2
		c5.2,3.4,10.4,6.8,15.6,10.2C21.2,27.7,20.3,28.3,19.1,28.9 M25.2,21.1c-0.2,0.9-0.4,1.6-0.8,2.4c-1.4-0.9-2.8-1.8-4.1-2.7
		L8.5,13.1c0,0,0,0,0,0C8.6,13,8.6,13,8.7,12.9c0.2-0.2,0.3-0.3,0.5-0.5c0.1-0.1,0.2-0.1,0.2-0.2c0,0,0.1-0.1,0.1-0.1
		c0.5-0.3,1-0.6,1.5-0.9c0.6-0.3,0.7-0.3,1.2-0.5c0.5-0.2,1.1-0.3,1.7-0.4c0.1,0,0.2,0,0.4-0.1c0,0,0.1,0,0.1,0c0.2,0,0.5,0,0.7,0
		c0.5,0,1.1,0,1.6,0.1c0,0,0.5,0.1,0.6,0.1c0.3,0.1,0.5,0.1,0.8,0.2c0.3,0.1,0.5,0.2,0.8,0.3c0.1,0,0.2,0.1,0.4,0.1c0,0,0.1,0,0.1,0
		c0.5,0.2,1,0.5,1.4,0.8c0.2,0.1,0.5,0.3,0.7,0.5c0,0,0.1,0.1,0.1,0.1c0.1,0.1,0.2,0.2,0.3,0.3c0.9,0.8,1.4,1.4,2,2.3
		c0.6,1,1,1.9,1.2,3.2C25.3,18.8,25.3,20.3,25.2,21.1 M54.5,16.8c0-0.1-0.1,0.4-0.1,0.5c-0.1,0.3-0.1,0.6-0.2,1
		c-0.1,0.3-0.2,0.5-0.2,0.8c0,0.1-0.2,0.5-0.2,0.5c-0.2,0.5-0.5,1-0.8,1.4c-0.1,0.2-0.3,0.4-0.4,0.7c0,0,0,0,0,0c0,0,0,0,0,0
		c-0.1,0.1-0.2,0.2-0.3,0.3c-0.4,0.4-0.8,0.8-1.2,1.2c-0.3,0.3-0.1,0.1-0.1,0c-0.1,0.1-0.2,0.2-0.3,0.2c-0.2,0.1-0.4,0.3-0.7,0.4
		c-0.2,0.1-0.5,0.3-0.7,0.4c-0.1,0-0.2,0.1-0.2,0.1c0,0-0.3,0.1-0.4,0.1c-0.5,0.2-1,0.3-1.5,0.5C47,25,46.7,25,46.5,25
		c0,0-0.1,0-0.1,0c-0.1,0-0.3,0-0.4,0c-0.5,0-1.1,0-1.6,0c-0.1,0-0.3,0-0.4,0c0,0-0.1,0-0.2,0c-0.1,0-0.2,0-0.2,0
		c-0.2,0-0.3-0.1-0.5-0.1c-0.6-0.1-1.2-0.3-1.8-0.5c0,0,0,0-0.1,0c-0.1-0.1-0.3-0.1-0.4-0.2c-0.3-0.1-0.5-0.3-0.8-0.4
		c-0.1-0.1-0.2-0.1-0.3-0.2c-0.1,0-0.2-0.1-0.2-0.2c-0.2-0.2-0.5-0.4-0.7-0.6c-0.2-0.2-0.4-0.4-0.6-0.7c-0.1-0.1-0.2-0.2-0.3-0.3
		c0,0,0-0.1,0,0c0,0,0,0-0.1-0.1c-0.1-0.1-0.2-0.3-0.3-0.4c-0.1-0.1-0.2-0.3-0.2-0.4c-0.4-0.7-0.7-1.5-1-2.3
		c-0.4-1.5-0.5-3.2-0.2-4.8c0.2-0.8,0.4-1.6,0.8-2.4c0.1-0.2,0.2-0.5,0.4-0.7c0.1-0.2,0.3-0.4,0.4-0.6c0,0,0.1-0.1,0.1-0.1
		c0.1-0.1,0.2-0.2,0.3-0.3c0.3-0.4,0.7-0.8,1.1-1.1c0.1-0.1,0.2-0.2,0.3-0.3c0,0,0.1-0.1,0.2-0.1c0.1,0,0.2-0.1,0.2-0.1
		c0.1-0.1,0.3-0.2,0.4-0.3c0.4-0.3,0.9-0.5,1.4-0.8c0.1,0,0.2-0.1,0.3-0.1c0,0,0.1,0,0.1,0c0.3-0.1,0.5-0.2,0.8-0.3
		c0.3-0.1,0.5-0.1,0.8-0.2c0.1,0,0.3,0,0.4-0.1c0,0,0,0,0,0c0,0,0,0,0,0c0.5-0.1,1.1-0.1,1.7,0c0.2,0,0.4,0,0.7,0.1
		c-0.1,0,0.4,0.1,0.5,0.1c0.6,0.1,1.1,0.3,1.7,0.5C48.5,6.8,49,7,48.9,7c0.2,0.1,0.4,0.2,0.6,0.3c0.5,0.3,1,0.6,1.4,0.9
		c0,0,0.1,0.1,0.2,0.1c0.1,0,0.2,0.1,0.2,0.1c0.2,0.2,0.4,0.3,0.6,0.5c0.2,0.2,0.4,0.4,0.5,0.6c0.1,0.1,0.2,0.2,0.3,0.3
		c0,0.1,0.1,0.2,0.2,0.2c0.3,0.4,0.5,0.8,0.8,1.2c0.1,0.2,0.2,0.4,0.3,0.6c0,0,0.1,0.1,0.1,0.2c0.1,0.2,0.1,0.4,0.2,0.6
		c0.2,0.5,0.3,1,0.4,1.5c0,0,0,0.1,0,0.1c0,0.1,0,0.2,0,0.3c0,0.3,0,0.6,0,0.9C54.6,15.9,54.6,16.4,54.5,16.8"/>
	<path class="st3" d="M32.2,33.5c0.1,0.1,0.3,0.2,0.4,0.3c0,0,0-0.1,0-0.1c0.1-0.4,0.1-0.8,0.2-1.2c0,0.1-0.1,0.1-0.1,0.2
		C32.6,32.9,32.4,33.2,32.2,33.5"/>
	<path class="st3" d="M87.9,27.2c-0.6-1.5-1.9-2.2-3.2-2.8c0,0.4,0,0.8,0,1.3c0,0,0,0,0,0c0,0,0,0,0,0c0,0.6-0.1,1.2-0.2,1.7
		c-0.1,0.3-0.1,0.6-0.2,1c-0.1,0.4-0.2,0.9-0.3,1.3c0,0.2-0.1,0.4-0.1,0.6c-0.4,1.5-0.9,2.6-1.6,4c-1.7,3.3-3.6,6.4-5.5,9.6
		c-0.6,1-0.2,2.3,0.7,2.8c1,0.6,2.3,0.2,2.8-0.7c1.8-3,3.6-6,5.2-9c0.8-1.5,1.6-3.1,2.1-4.8C88.1,30.6,88.5,28.7,87.9,27.2"/>
	<path class="st6" d="M41.9,34.9c0-1.1-0.6-2-1.3-2.7c0-0.1,0-0.1,0.1-0.2c0.2-0.6,0.7-1.6,0.2-2.3c-0.4-0.6-1.5-0.9-2.2-0.8
		c-0.2,0.1-0.4,0.1-0.6,0.3c-0.1,0-0.2,0.1-0.3,0.2c-0.1,0.1-0.2,0.2-0.3,0.4c0.1-0.8,0.1-1.6-0.6-2.1c-0.8-0.5-1.8-0.2-2.4,0.4
		c0-0.7-0.2-1.3-1.1-1.5c-0.2,0-0.4,0-0.6,0c-0.2,0-0.4,0-0.5,0.1c-0.8,0.3-1.3,1-1.5,1.8c-0.6,0.9-1,2-1.1,3.1
		c-0.1,0.6-0.3,1.4,0.1,2.1c0,0.1,0.1,0.1,0.1,0.2c0,0.1-0.1,0.1-0.1,0.2c-0.6,1.6-0.4,3.4,0,5c0,0.1,0,0.1,0.1,0.2
		c-0.1,0.2-0.2,0.5-0.2,0.7l0,0.4c-0.2,0.8-0.2,1.7-0.3,2.5c-0.2,1.5-0.3,3.1-0.5,4.6c-0.1,0.7,0.7,1.4,1.4,1.4
		c0.5,0,0.8-0.2,1.1-0.5c0.3,0,0.5,0,0.7-0.1c0.1,0,0.3,0.1,0.4,0.1c0.4,0.6,1.1,0.8,1.8,0.4c0.4-0.2,0.6-0.5,0.8-0.8
		c0.2,0,0.3,0,0.5-0.1c0.2,0.3,0.4,0.5,0.8,0.6c0.7,0.2,1.6-0.2,1.7-1c0.2-1.3,0.4-2.5,0.5-3.8c0.1-0.7,0.3-1.6,0.2-2.4
		c0,0,0.1-0.1,0.1-0.1C40,39.4,42,37.3,41.9,34.9"/>
	<path class="st6" d="M71.5,34.2c-0.6,0-1.2,0-1.8,0.2c-0.1,0-0.6,0.2-1.1,0.3c0-0.9,0-1.8,0-2.6c0-0.9,0.9-2.3-0.2-2.9
		c-0.4-0.2-0.9-0.1-1.3,0.2c-0.4,0.4-0.4,0.9-0.3,1.5c0.1,1,0,2.1-0.1,3.1c-0.6,0-1.1,0-1.7,0l0.5-2.8c0.1-0.1,0.1-0.2,0.1-0.3
		c0.1-0.7,0.4-1.5-0.3-2c-0.6-0.4-1.4-0.1-1.6,0.5c-0.3,0.7,0,1.7,0,2.4c0,0.3,0,0.7-0.1,1c-0.2-0.7-0.5-1.3-0.7-2
		c-0.3-0.6-1.2-0.5-1.3,0.2c-0.1,1.1,0,2.1,0.4,3.1c-0.4,0-0.9,0-1.3,0.1c-1.1,0.1-2.2,0.1-3.3,0.2c-1,0.1-2.1,0.1-3.1,0.4
		c-0.7,0.2-1.2,0.8-1.1,1.6c0.2,1,1.1,1.3,1.9,1.6c2,0.7,4,1.4,6.1,2.1c-0.1,2.5-0.1,5.1-0.2,7.6c0,0.1,0,0.1,0,0.2
		c0.1,0,0.2,0,0.4,0c0.2,0,0.3,0,0.5,0c0.1,0,0.1,0,0.2,0c1.3-0.1,2.6-0.2,4-0.4c0.8-0.1,1.6-0.3,2.4-0.4c0-3.4,0.1-6.7,0.2-10.1
		c0.8,0,1.5-0.1,2.3-0.1c0.8-0.1,2.8,0.1,2.9-1.1C74,34.4,72.3,34.2,71.5,34.2"/>
	<path class="st5" d="M67.9,35.4c-0.8-0.5-1.8-0.6-2.7-0.4c-0.8,0.2-1.4,0.7-1.9,1.3c0,0-0.1,0-0.1,0.1C63,36.6,63,36.9,63.2,37
		c0.3,0.1,0.6,0.2,1,0.2c0.3,0.1,0.7,0.1,1,0.1c0.6,0,1.2-0.1,1.6-0.5c0.5-0.3,0.8-0.8,1.1-1.2C68,35.6,68,35.4,67.9,35.4"/>
	<path class="st1" d="M65,38.4c-0.1-0.1-0.2,0-0.3,0c-0.3,0.3-0.6,0.6-1,0.6c-0.3,0-0.6-0.2-0.6-0.5c0-0.1-0.1-0.2-0.2-0.2
		c-0.1,0-0.2,0.1-0.2,0.2c-0.1,0.5,0.4,1,0.9,1c0.6,0,1-0.3,1.4-0.8C65.1,38.6,65,38.4,65,38.4"/>
	<path class="st4" d="M63.1,40.7c-0.4-0.4-1.2-0.3-1.7-0.4c0,0,0,0,0,0c0,0,0,0,0,0c0,0,0,0,0,0c0,0,0,0-0.1,0h0c0,0,0,0,0,0
		c0,0,0,0,0,0c0,0,0,0,0,0c0,0,0,0,0,0c0,0,0,0,0,0c0,0.2,0,0.5,0,0.7c0,0,0,0,0,0.1c0,0.1,0,0.2,0,0.3c0,0.1,0,0.1,0,0.2v0
		c0,0,0,0,0,0c0,0,0,0,0,0c0,0,0,0,0,0l0,0c0,0.2,0,0.4,0,0.5c0,0.1,0,0.2,0,0.4c0,0.1,0,0.3,0,0.4c0,0.1,0,0.2,0,0.2
		c0,0,0,0.1,0,0.1c0,0.2,0,0.4,0,0.7c0,0.1,0,0.2,0,0.3c0,0.2,0,0.4,0,0.6c0,0,0,0,0,0c0,0,0,0,0,0c0,0,0,0,0,0c0,0,0,0,0.1,0
		c0.5,0,1-0.2,1.3-0.6c0.4-0.5,0.5-1.4,0.6-2C63.3,41.8,63.5,41.1,63.1,40.7"/>
	<path class="st4" d="M65.9,44.7c-0.2-0.4-0.8-0.8-1.3-0.7c0,0-0.1,0-0.1,0c0,0-0.1,0-0.1,0c-0.5,0.2-0.7,0.7-0.8,1.3
		c-0.2,0.6-0.2,1.2,0,1.7c0,0.2,0.1,0.4,0.2,0.6c0.2,0.3,0.5,0.3,0.8,0.2c0.1,0,0.2,0,0.3-0.1c0.1,0,0.2,0,0.3,0
		c0.3-0.1,0.5-0.2,0.6-0.5c0-0.1,0-0.2,0-0.3c0.1-0.5,0.1-1.1,0.2-1.6C65.9,45.3,66,45,65.9,44.7"/>
	<path class="st4" d="M68.6,39.3c0-0.1,0-0.1-0.1-0.1c0,0,0,0-0.1,0c-0.7-0.2-1.2,0.3-1.5,0.9c-0.4,0.9-0.6,1.9-0.4,2.8
		c0.2,0.7,0.4,1.5,1.2,1.5c0.2,0,0.3,0,0.5,0c0.1,0,0.1-0.1,0.1-0.2C68.6,42.6,68.6,41,68.6,39.3"/>
	<path class="st1" d="M63.8,31.5C63.8,31.5,63.8,31.5,63.8,31.5l0-0.1c0,0-0.1,0-0.1,0C63.7,31.4,63.7,31.5,63.8,31.5
		c-0.1,0.4-0.1,0.7-0.1,1c0,0.3-0.1,0.6-0.3,0.9c-0.2,0.3-0.5,0.4-0.8,0.4c-0.3,0.1-0.7,0.1-1,0.1c0,0,0,0,0,0.1c0,0,0,0,0,0
		c0.3,0,0.6,0,0.9,0c0.2,0,0.5-0.1,0.7-0.2c0.1,0,0.1-0.1,0.2-0.1c0.2-0.1,0.2-0.4,0.3-0.6C63.8,32.5,63.8,32,63.8,31.5
		C63.8,31.5,63.8,31.5,63.8,31.5"/>
	<path class="st3" d="M45.7,37.6c-1.2-1-2.5-1.9-3.8-2.7c0,1.4-0.7,2.7-1.5,3.9c0.2,0.1,0.3,0.2,0.5,0.3c0.6,0.4,1.4,0.9,1.8,1.2
		c0.3,0.2,0.5,0.5,0.8,0.7c0,0,0.1,0.1,0.1,0.1c0.1,0.2,0.3,0.4,0.4,0.6c0,0,0.1,0.2,0.1,0.2c0.1,0.3,0.2,0.5,0.2,0.8
		c0,0,0,0.1,0,0.1c0,0.3,0,0.5,0,0.8c0,0.1,0,0.3,0,0.4c0,0.1,0,0.3,0,0.4c0,0,0,0.1,0,0.1c-0.1,0.4-0.2,0.9-0.3,1.3
		c-0.5,1.6-1.6,3.3-2.6,4.8c-0.6,0.9-0.2,2.3,0.7,2.8c1,0.6,2.2,0.2,2.8-0.7c2-3,4-6.4,3.5-10.1C48,40.7,47.2,38.9,45.7,37.6"/>
	<path class="st1" d="M35.6,33.8c-0.2,0.6-0.3,1.3,0.1,1.8c0.1,0.2,0.5,0,0.4-0.2c-0.3-0.5-0.2-1,0-1.5
		C36.1,33.7,35.7,33.6,35.6,33.8"/>
	<path class="st5" d="M28.1,107.3c0.4,0,0.9,0.1,1.3,0.1c0.2,0,0.3,0,0.5,0c0,0,0.1,0,0.2,0c0.8,0,1.7,0,2.5,0c2.7,0,5.4,0,8.1-0.1
		c2.7-0.1,5.4-0.2,8.1-0.3c0,0,0.1,0,0.1,0c0.1,0,0.2,0,0.3,0l0-2.4c0-0.3,0-0.5,0-0.8c0-0.3,0-0.7,0-1c-0.1-0.4-0.4-0.7-0.8-0.9
		c-0.3-0.1-0.6-0.1-0.9-0.1c-1.1-0.1-2.2-0.2-3.3-0.2c-1.2,0-2.4-0.1-3.7,0c0,0-0.1,0-0.1,0c-0.1,0-0.2,0-0.3,0
		c-2.1,0.6-4.1,1.3-6.2,2.1c-1.1,0.4-2.1,0.8-3.2,1.3c-0.5,0.2-1,0.4-1.5,0.6c-0.5,0.2-0.9,0.4-1.2,0.8c-0.2,0.2-0.3,0.4-0.4,0.6
		C27.9,107.3,28,107.3,28.1,107.3"/>
	<path class="st6" d="M49.3,107.2c-0.1,0-0.2,0-0.3,0c0,0-0.1,0-0.1,0c-2.7,0.1-5.4,0.2-8.1,0.3c-2.7,0.1-5.4,0.1-8.1,0.1
		c-0.8,0-1.7,0-2.5,0c-0.1,0-0.1,0-0.2,0c-0.2,0-0.3,0-0.5,0c-0.4,0-0.9-0.1-1.3-0.1c-0.1,0-0.3,0-0.4,0c0,0-0.1,0-0.1,0
		c0,0,0,0,0,0c0,0-0.1,0.1-0.1,0.1c0,0,0,0,0,0.1c0,0.1,0,0.1-0.1,0.2c0,0,0,0,0,0c0,0,0,0,0,0c-0.1,0.5-0.2,0.9-0.2,1.4
		c0,0.3,0,0.7,0.1,1c0.1,0.3,0.1,0.5,0.4,0.7c0.5,0.4,1.3,0.5,1.9,0.5c0.4,0,0.8,0,1.2,0c0.1,0,0.2,0,0.3,0c0.1,0,0.1,0,0.2,0
		c0.2,0,0.4,0,0.6-0.1c0.3-0.2,0.4-0.5,0.5-0.9c0-0.2,0-0.4,0.1-0.5c0-0.2,0-0.4,0.1-0.5c0.1-0.1,0.2-0.1,0.3,0
		c0.2,0.2,0.2,0.4,0.2,0.7c0,0.1,0,0.2,0,0.3c0,0.2,0,0.4,0,0.6c0,0.2,0.1,0.4,0.2,0.5c0.1,0.1,0.1,0.1,0.2,0.2c0,0,0.1,0,0.1,0
		c0.3,0,0.7,0,1,0c0.6,0,1.1,0,1.6-0.2c0.3-0.1,0.5-0.4,0.6-0.7c0.1-0.4,0-0.9,0.3-1.2c0,0,0.1,0,0.1,0c0.4,0.3,0.3,0.9,0.4,1.3
		c0,0.2,0.1,0.3,0.2,0.5c0.4,0.3,0.9,0.3,1.4,0.4c0.7,0.1,1.4,0.2,2,0.1c0.2,0,0.3-0.1,0.4-0.2c0.2-0.2,0.3-0.5,0.3-0.8
		c0-0.2,0-0.3,0-0.5c0-0.1,0-0.3,0.1-0.5c0-0.1,0.2-0.2,0.3-0.1c0.1,0.1,0.1,0.3,0.2,0.4c0,0.4,0,0.9,0.2,1.2
		c0.1,0.2,0.4,0.3,0.6,0.4c0.8,0.2,1.7,0.2,2.5,0.2c0.9,0,1.8-0.2,2.6-0.3c0.3,0,0.8,0,0.9-0.5c0-0.2,0-0.3,0-0.5
		c0.1-0.1,0.1-0.2,0.2-0.4c0.1-0.8,0.1-1.6,0.2-2.4C49.8,107.4,49.6,107.2,49.3,107.2"/>
	<path class="st5" d="M96.9,46.7c-0.4-1.7-1.1-3.4-1.7-5.1c-0.6-1.5-1.3-3-1.9-4.5c-1.4-3-2.9-5.9-4.9-8.5c0,0,0,0,0,0
		c-0.3-0.5-0.6-1.2-1.3-1.4c-0.7-0.3-1.4,0.3-1.9,0.6c-0.7,0.4-1.4,0.8-2.2,1.2c0,0,0,0-0.1,0c-1.9,1-3.8,2.1-5.6,3.2
		c-0.5,0.3-0.6,0.8-0.5,1.2c0,0,0,0.1,0,0.1c1.9,5,4,10,6.1,14.9c-2.6,1.1-5.3,2.2-8,2.7c-0.6,0.1-1.4,0.3-2.1,0.3
		c-0.7-0.1-1.3-0.3-1.9-0.7c-0.8-0.7-1.3-1.6-1.5-2.7c0-0.1,0-0.2,0-0.3c0,0,0-0.1,0-0.1c0-0.1,0-0.1,0-0.2c-0.1-0.4-0.2-0.8-0.4-1
		c-0.2-0.2-0.6-0.4-0.9-0.4c-0.2,0-0.4,0-0.6,0l-6.1,1.3c-0.2,0-0.3,0.1-0.4,0.2c-0.2,0.1-0.3,0.2-0.4,0.4c-0.2,0.3-0.2,0.8-0.2,1.2
		c0.1,0.9,0.2,1.8,0.3,2.7c0.1,0.4,0.1,0.9,0.1,1.3c0,0.1,0,0.1,0,0.2c-0.1,0.1-0.2,0.2-0.3,0.3c-3.2,1.9-6.8,3.3-10.5,4
		c-2.5,0.5-5.6,0.8-8.1-0.3c-0.6-0.4-1.1-0.8-1.5-1.4c-0.4-0.7-0.5-1.5-0.5-2.3c-0.2-2.2-0.2-4.4-0.1-6.7c0-0.7-0.6-1.4-1.4-1.4
		l-8.8-0.1c-0.2,0-0.4,0-0.7-0.1c-0.7-0.1-1.3,0.1-1.7,0.7c-0.3,0.6-0.3,1.4-0.3,2c0,0.6,0,1.1,0,1.7c-0.5,5.7,0.9,11.6,3.9,16.4
		c1.9,2.9,4.2,5.5,7.5,6.7c3.3,1.1,6.9,0.9,10.1,0c2-0.5,3.9-1.3,5.8-2.2c0.7-0.3,1.3-0.6,2-1c1.9,2.9,3.8,5.8,5.6,8.7
		c1.1-0.2,2.2-0.3,3.3-0.5c2.3-0.4,4.5-0.9,6.8-1.2c1.1-0.1,2.2-0.3,3.3-0.5c0.2-0.1,0.5-0.1,0.7-0.2c0.9-3.6,1.8-7.3,2.7-10.9
		c3.1-1.2,6.2-2.3,9.2-3.7c2.8-1.4,5.5-3.2,7.3-5.9C97.1,52.9,97.6,49.8,96.9,46.7"/>
	<path class="st1" d="M60.5,61.9c-2.5,0.8-3.4,4.9-1.1,6.4c0.3,0.2,0.5-0.3,0.2-0.4c-2-1.3-1.1-4.8,1-5.5
		C61,62.3,60.8,61.8,60.5,61.9"/>
	<path class="st1" d="M70.1,60.9c-1.2,0.8-2,2-2.1,3.4c-0.2,1.3,0.3,2.9,1.6,3.5c0.3,0.1,0.5-0.3,0.2-0.4c-1.1-0.5-1.5-1.9-1.3-3.1
		c0.2-1.2,0.9-2.3,1.9-3C70.6,61.2,70.4,60.8,70.1,60.9"/>
	<path class="st1" d="M68.1,46c-1.2,8.2-2.5,16.5-3.7,24.7c-0.3,2.3-0.7,4.6-1,6.9c0,0.3,0.4,0.4,0.5,0.1c1.2-8.2,2.5-16.5,3.7-24.7
		c0.3-2.3,0.7-4.6,1-6.9C68.6,45.9,68.1,45.7,68.1,46"/>
	<path class="st1" d="M63.8,48.7c-1,0-1,1.6,0,1.6C64.9,50.3,64.9,48.7,63.8,48.7"/>
	<path class="st1" d="M65.3,35c-0.1-0.1-0.2-0.2-0.3-0.2c-0.1,0-0.2,0-0.3,0c-0.1,0-0.2,0.1-0.3,0.1c0,0,0,0-0.1,0.1
		c-0.1,0.1-0.1,0.2-0.2,0.2c-0.2,0.3-0.2,0.6-0.2,0.9c0,0.1,0.1,0.2,0.1,0.2c0,0,0.1,0.1,0.1,0.1c0.1,0.1,0.3,0.2,0.4,0.1
		c0.2-0.1,0.3-0.2,0.4-0.4c0.1-0.1,0.1-0.3,0.2-0.5c0-0.1,0.1-0.3,0.1-0.4C65.4,35.2,65.4,35.1,65.3,35"/>
	<path class="st1" d="M33.8,30.2c-0.9,0.7-0.4,1.9,0.2,2.6c0.4,0.4,0.9,0.7,1.4,1c0.5,0.2,1.1,0.4,1.6,0.8c0-0.1,0-0.2,0-0.3
		c-1.3,0.7-2.3,2-2.1,3.5c0,0.3,0.4,0.3,0.4,0c-0.2-1.4,0.7-2.5,1.9-3.1c0.1-0.1,0.1-0.2,0-0.3c-0.7-0.6-1.7-0.8-2.5-1.3
		c-0.7-0.5-1.8-1.7-0.8-2.5C34.3,30.3,34,30.1,33.8,30.2"/>
	<path class="st1" d="M34,30.6c1-0.7,2.3-0.4,3.3,0c1.1,0.4,2.2,1,3.1,1.7c0.2,0.2,0.5-0.1,0.3-0.3c-1-0.8-2.1-1.5-3.4-1.9
		c-1.1-0.4-2.5-0.6-3.5,0.1C33.6,30.4,33.8,30.7,34,30.6"/>
	<path class="st1" d="M31.1,27.7c-0.5,0.9-0.9,1.9-1.2,2.9c-0.3,0.9-0.6,2-0.3,2.9c0.2,0.7,1,1.2,1.7,0.9c0.9-0.3,1.2-1.2,1.5-2
		c0.5-1.2,1-2.4,1.4-3.6c0.1-0.2-0.3-0.3-0.4-0.1c-0.4,1.1-0.9,2.2-1.3,3.3c-0.2,0.5-0.4,1-0.7,1.5c-0.3,0.4-0.9,0.8-1.4,0.6
		c-1-0.5-0.6-2.2-0.3-3c0.3-1.1,0.8-2.1,1.3-3.1C31.5,27.6,31.2,27.4,31.1,27.7"/>
	<path class="st1" d="M33.3,30.6c-0.3,0.9-0.6,1.7-0.8,2.6c-0.2,0.8-0.3,1.7,0.3,2.3c0.5,0.5,1.3,0.4,1.9,0.1c0.7-0.4,1-1.1,1.4-1.8
		c0.1-0.2-0.2-0.4-0.4-0.2c-0.3,0.6-0.6,1.2-1.1,1.6c-0.5,0.3-1.3,0.4-1.6-0.2c-0.4-0.6-0.1-1.5,0.1-2.1c0.2-0.7,0.4-1.5,0.7-2.2
		C33.8,30.4,33.4,30.3,33.3,30.6"/>
	<path class="st7" d="M74,57.7c0-0.1-0.1-0.2-0.1-0.3c-0.1-0.2-0.2-0.5-0.2-0.7c0-0.1,0-0.2,0-0.3c0-0.1,0-0.1,0-0.2
		c0-0.1-0.1-0.1-0.2-0.1c-0.3,0-0.6,0-0.9,0c-0.1,0-0.1,0-0.2,0c-0.1,0-0.1,0.1-0.1,0.2c0,0.1,0.1,0.1,0.1,0.1
		c0.3,0.2,0.5,0.7,0.6,1.1c0.2,0.7,0.5,1.2,0.7,1.8c0,0.1,0.1,0.2,0.2,0.2c0.1,0,0.1-0.1,0.2-0.2c0.1-0.1,0.1-0.2,0.2-0.3
		c0-0.1,0.1-0.1,0.1-0.2c0-0.1,0-0.2,0-0.2c0-0.1-0.1-0.2-0.1-0.3C74.2,58.1,74.1,57.9,74,57.7"/>
	<path class="st7" d="M72.2,56.9C72.2,56.9,72.2,57,72.2,56.9c0.1,0.3,0.2,0.6,0.3,0.8c0.1,0.2,0.2,0.4,0.2,0.6
		c0.1,0.2,0.2,0.4,0.1,0.6c0,0.1,0,0.1-0.1,0.2c-0.1,0.1-0.1,0.3-0.2,0.4c0,0,0,0.1-0.1,0.1c0,0-0.1,0-0.1,0c0,0-0.1,0-0.1-0.1
		c-0.1-0.2-0.2-0.5-0.3-0.7c-0.1-0.2-0.2-0.5-0.3-0.7c-0.1-0.4-0.3-0.9-0.5-1.3c-0.1-0.1-0.1-0.2-0.2-0.3c-0.1-0.1-0.2-0.1-0.2-0.2
		c0-0.1,0.1-0.1,0.1-0.1c0.2,0,0.3,0,0.5,0c0.1,0,0.2,0,0.2,0c0.1,0,0.1,0,0.2,0c0,0,0,0,0.1,0.1C72,56.4,72.1,56.7,72.2,56.9"/>
	<path class="st7" d="M74.1,56.7c0,0.4,0.5,0.5,0.8,0.3c0.4-0.1,0.2-0.6,0-0.8C74.5,56,74,56.3,74.1,56.7"/>
	<path class="st0" d="M83,98c-0.6-1.5-1.4-2.7-2.9-3.4c1-0.8,1.9-1.7,2.7-2.7c2.4-3,3.5-6.5,2.9-10.3c-0.6-3.7-3.2-6.7-6.7-7.9
		c-3.7-1.2-7.8-0.1-11.1,1.6c-3.3,1.8-6.3,4.1-9.3,6.4c-2.9,2.3-5.6,4.7-8.3,7.2c-3,2.8-6,5.7-8.8,8.7c-1.3,1.4-2.5,2.9-3,4.8
		c-0.1,0.1-0.1,0.3-0.2,0.4c-0.8,2.2,0,4.6,1.5,6.3c1.3,1.5,3.3,2.4,5.2,2.8c1.5,0.3,3.1,0.4,4.7,0.4c1.3,0.2,2.6,0.3,3.8,0.3
		c2,0,4-0.1,6.1-0.3c3.5-0.1,7.1-0.4,10.6-0.8c1.2-0.1,2.4-0.3,3.5-0.4c1.2-0.1,2.5-0.2,3.7-0.4c0.8-0.1,1.6-0.2,2.3-0.3
		c0.7-0.1,1.3-0.3,1.8-0.6c0.6-0.2,1.2-0.5,1.7-0.9c1.2-1.1,1.3-2.5,0.9-3.8C84.4,102.7,83.8,99.9,83,98"/>
	<path class="st4" d="M71.3,84.3c0.2,0.2,0.4,0.3,0.6,0.3c0.2,0,0.4-0.2,0.5-0.4c0.5-1.1-0.1-2.6,0.6-3.5c0.7-1,2.4-0.6,3-1.7
		c0.4-0.8,0-1.8-0.4-2.5c-0.7-1.1-1.6-2.2-2.5-3.1c-1.9,0.3-3.7,1.1-5.3,1.9c-0.6,0.3-1.2,0.7-1.8,1c1.1,2.1,2.7,4.4,3.1,5
		C69.8,82.4,70.5,83.4,71.3,84.3"/>
	<path class="st4" d="M64.6,81.1c1.5-1.1,0.8-2.4,0-3.5c0-0.1-0.1-0.1-0.1-0.2c-1.8,1.2-3.5,2.5-5.2,3.8
		C61,81.8,63.3,82.1,64.6,81.1"/>
	<path class="st4" d="M72,87.1c-0.6,0-1.3,0-1.8-0.4c-0.2-0.2-0.4-0.5-0.6-0.7c-0.8-1.2-1.4-2.6-2.4-3.6c-1.4-1.5-1.1-0.1-2.1,0.6
		c-0.3,0.2-0.8,0.1-1.2,0.2c-1.1,0.1-0.7,1.6-0.4,2.2l1,2.6c0.5,1.2,1.1,2.6,2.3,3.1c0.3,0.1,0.7,0.2,1.1,0c0.6-0.3,0.9-1.1,1.5-1.2
		c0.7-0.1,1.1,0.7,1.4,1.4c0.4,0.8,0.8,1.5,1.4,2.1c0.4,0.5,0.9,0.9,1.6,1.1s1.3,0,1.7-0.4c0.4-0.5,0.4-1.3,0.3-2
		C75.3,89.4,75.1,86.9,72,87.1"/>
	<path class="st4" d="M79.6,75.5c0,0,0,0.1,0.1,0.1c0.3,0.7,0.3,1.6,0.8,2.1c0.6,0.7,2.3,0.1,2.7-0.6c0.1-0.2,0.2-0.3,0.2-0.5
		c-1.2-1.3-2.7-2.4-4.4-3c-0.7-0.2-1.5-0.4-2.2-0.5c0.5,0.3,0.9,0.6,1.4,0.9C78.8,74.5,79.2,74.8,79.6,75.5"/>
	<path class="st4" d="M83.7,88.7c0-0.4-0.4-0.9-0.7-0.9c-0.8-0.2-1.6-0.4-2.5-0.6c-0.6-0.2-1.3-0.3-2-0.2c-0.6,0.1-1.2,0.3-1.5,0.9
		c-0.4,0.8-0.4,1.6-0.2,2.4c0.1,0.2,0.2,0.3,0.3,0.4c0.8,1.1,1.9,1.8,3.2,2.2c0.4,0.1,0.8,0.2,1.2,0.2c0.4-0.4,0.8-0.8,1.1-1.3
		c0.3-0.4,0.6-0.8,0.9-1.3C83.7,89.9,83.7,89.2,83.7,88.7"/>
	<path class="st4" d="M75.3,85.4c1.7,0.3,3.4,0.2,5-0.3c1-0.3,1.3-0.8,1.3-1.8c0-0.7-0.1-1.4-0.3-2.1c-0.2-1.2-1.1-1.8-2.3-1.6
		c-0.4,0.1-0.8,0.2-1.2,0.4c-1.1,0.5-2.1,1.5-3,2.2c-0.5,0.4-0.7,0.9-0.8,1.6C74,84.6,74.5,85.2,75.3,85.4"/>
	<path class="st4" d="M83.2,81.2c-0.2,1,0,1.9,0.4,2.9c0.2,0.6,0.6,0.8,1.2,0.8c0.2,0,0.3,0,0.5,0c0.1,0,0.3,0,0.4-0.1
		c0.1-1,0.1-2.1-0.1-3.2c-0.1-0.7-0.3-1.4-0.6-2.1c-0.2,0.1-0.5,0.2-0.7,0.3C83.8,80.1,83.3,80.5,83.2,81.2"/>
	<path class="st4" d="M56,90.1c-0.1,0.7-0.1,1.5-0.1,2.3c0,2.6,3.8,3.9,5.9,3.6c0.6-0.1,1.2-0.3,1.7-0.6c0.5-0.4,0.9-1,0.9-1.6
		c0-0.4-0.1-0.8-0.2-1.1c-0.9-2.5-1.7-5-2.5-7.5c-0.1-0.4-0.3-0.9-0.4-1.3c-0.1-0.3-0.2-0.7-0.5-0.9c-0.4-0.3-0.9-0.2-1.4,0
		c-0.5,0.2-1.1,0.4-1.6,0.7c-0.8,0.4-1.5,0.9-1.8,1.8c-0.3,0.8-0.1,1.6,0.1,2.4C56.2,88.6,56,89.2,56,90.1"/>
	<path class="st4" d="M54,85.9c0-0.1,0-0.2,0-0.3c-1.3,1.1-2.5,2.3-3.7,3.4l-0.2,0.2c1,0.4,2,0.6,3,0.7C55.9,90.1,54.1,87.7,54,85.9
		"/>
	<path class="st4" d="M47.4,99.8c1.2,0.1,2.4-0.1,3.6-0.4c0.4-0.1,0.8-0.2,1.1-0.2c2.4-0.5,2.3-2.8,1.9-4.8c-0.2-1-0.7-2-1.5-2.7
		c-0.7-0.5-1.6-0.7-2.4-0.9c-0.5-0.1-1.1-0.2-1.6-0.2c-1.8,1.7-3.5,3.4-5.2,5.1c0,0.9,0.3,1.8,0.8,2.6C45,99.2,46.2,99.7,47.4,99.8"
		/>
	<path class="st4" d="M69.1,93c-0.4-0.2-1-0.2-1.4,0.2c-0.3,0.3-0.3,0.6-0.4,1c-0.2,1.1-0.1,2.3,0.2,3.4c0.1,0.4,0.2,0.7,0.5,1
		c0.3,0.3,0.7,0.3,1.2,0.3c0.8,0,3.3-0.2,3.5-1.2c0.2-0.9-1.9-3.1-2.5-3.7C69.9,93.5,69.5,93.2,69.1,93"/>
	<path class="st4" d="M78.6,94.6c-0.7,0.2-1.2,0.8-1.6,1.4c-0.2,0.3-0.4,0.7-0.5,1.1c-0.2,0.9,0.4,1.7,1.1,2.2
		c0.7,0.5,1.6,0.6,2.5,0.6c0.9,0,1.9-0.1,2.7-0.6c0.2-0.1,0.3-0.2,0.5-0.4c-0.1-0.3-0.2-0.6-0.3-0.9c-0.6-1.5-1.4-2.7-2.9-3.4
		c-0.1,0-0.1,0-0.2,0C79.5,94.5,79,94.4,78.6,94.6"/>
	<path class="st4" d="M76.7,110.9c0.2,0,0.4-0.1,0.6-0.1c0.8-0.1,1.5-0.2,2.3-0.3c0.7-0.1,1.3-0.3,1.8-0.6c0,0,0.1,0,0.2-0.1
		C80.1,109.3,78,110,76.7,110.9"/>
	<path class="st4" d="M82.6,102.1c-0.3,0.3-0.5,0.6-0.8,0.9c-1.6,1.8-0.1,3.6,1.4,5c0.1,0.1,0.3,0.3,0.5,0.4c0.7-1,0.8-2.2,0.5-3.3
		c0.1-1.4,0-2.9-0.3-4.3C83.4,101.2,83,101.7,82.6,102.1"/>
	<path class="st4" d="M77.5,107.6c0.7-0.2,1.7-0.1,2-0.8c0.3-0.6-0.1-1.3-0.3-1.9c-0.3-0.8,0.2-1.5,0-2.3c-0.2-0.8-1-0.8-1.6-0.9
		c-0.1,0-0.2,0-0.2-0.1c-0.7-0.2-1.2-0.5-1.8-1c-0.6-0.5-1.3-0.9-2.1-0.8c-0.5,0.1-1,0.4-1.4,0.7c-0.6,0.3-1.2,0.4-1.9,0.4
		c-0.4,0-0.8-0.1-1.2,0.1c-0.8,0.5-0.3,1.6,0.1,2.1c0.3,0.4,0.7,0.7,0.9,1.1c0.8,1.2,0.3,2.8,0.4,4.3c0.1,0.8,0.4,1.6,0.9,2.2
		c0.2,0.3,0.5,0.6,0.8,0.6c0.2,0,0.4-0.1,0.6-0.1c0.1,0,0.2-0.1,0.3-0.2C74.8,110.1,75.7,108,77.5,107.6"/>
	<path class="st4" d="M65.5,100.6c1-0.9,1-2.2,0.1-3.1c-1-1-2-0.2-3.1,0.3c-1.4,0.6-3.1,0.2-4.5-0.3c-0.6-0.2-1.4-0.4-1.9,0.1
		c-0.2,0.2-0.3,0.5-0.4,0.8c-0.2,0.6-0.3,1.3-0.1,1.9c0.3,1.6,1.9,2.6,3.5,2.7c1.6,0.1,3.1-0.5,4.6-1.2
		C64.3,101.4,64.9,101.1,65.5,100.6"/>
	<path class="st4" d="M67.2,104c-1-0.9-1.6-1.3-2.8-0.5c-0.8,0.6-1.7,1-2.7,1.4c-0.3,0.1-0.7,0.2-1,0.5s-0.5,0.6-0.4,1
		c0.1,0.2,0.2,0.4,0.3,0.5c1.6,1.8,3.7,3.1,6.1,3.7c0.5,0.1,1.1,0.2,1.5-0.1c1.3-0.9,1.1-3.7,0.4-5C68.3,105,67.7,104.5,67.2,104"/>
	<path class="st4" d="M57.6,106c0.3-1,0.7-1.8-0.8-1.8c-1,0-2-0.4-2.8-1.1c-0.5-0.5-0.8-1.3-1.5-1.6c-0.5-0.2-1-0.2-1.5-0.1
		c-0.5,0.1-0.9,0.1-1.4,0.3c-0.1,0.1-0.3,0.1-0.4,0.2c-0.4,0.4-0.2,1-0.2,1.5c-0.1,0.8-0.9,1.3-1.1,2c-0.2,0.7,0.3,1.4,0.9,1.8
		c0.6,0.3,1.4,0.4,2,0.2c1-0.3,1.9-1.2,3-0.7c0.7,0.3,0.9,1.2,1.3,1.9c0.2,0.4,0.5,0.8,0.9,1.1c0.5,0.4,1.3,0.6,1.8,0.2
		c0.6-0.4,0.5-1.3,0.2-2C57.8,107.3,57.4,106.6,57.6,106"/>
	<path class="st4" d="M60.5,110.4c-0.5,0.2-0.7,0.8-1,1.2c-0.3,0.4-0.8,0.6-1.2,1c0.4,0,0.8-0.1,1.2-0.1c1.7-0.1,3.4-0.1,5.1-0.3
		c-0.8-0.7-2.1-1.2-2.8-1.5C61.5,110.4,61,110.2,60.5,110.4"/>
	<path class="st4" d="M53.1,108.9c-0.4,0-0.7,0.1-1.1,0.2c-0.7,0.3-1.4,0.6-2,1.1c-0.3,0.2-0.7,0.5-0.9,0.9
		c-0.2,0.3-0.4,0.7-0.4,1.1c0,0.1,0,0.1,0,0.2c0.3,0,0.6,0,0.9,0c1.3,0.2,2.6,0.3,3.8,0.3c0.7,0,1.5,0,2.2,0
		c-0.2-0.6-0.6-1.3-0.9-1.9C54.5,109.9,54,109,53.1,108.9"/>
	<path class="st4" d="M41.7,98.6c-0.1-0.2-0.3-0.4-0.5-0.5c-1.1,1.3-2.2,2.7-2.6,4.4c-0.1,0.1-0.1,0.3-0.2,0.4
		c-0.7,2-0.1,4.2,1.1,5.8c1-2,1.9-4.1,2.5-6.3C42.2,101.1,42.4,99.6,41.7,98.6"/>
	<path class="st4" d="M44.3,102.4c-0.3,0.3-0.4,0.7-0.5,1c-0.6,1.9-1.4,3.8-1.9,5.8c-0.1,0.2-0.1,0.5,0,0.7c0.1,0.3,0.4,0.5,0.6,0.6
		c0.4,0.3,0.9,0.5,1.4,0.7c0.5,0.1,1,0.1,1.5-0.2c0.5-0.4,0.7-1.1,0.8-1.7c0-0.5,0-1,0-1.5c0-0.8-0.1-1.7,0.2-2.5
		c0.3-0.8,0.8-1.3,0.8-2.2c0-0.2,0-0.5-0.2-0.7C46.5,101.6,44.7,101.8,44.3,102.4"/>
</g>
</svg>
