<svg xmlns="http://www.w3.org/2000/svg" width="105" height="83" viewBox="0 0 105 83">
  <g id="glassdoor-vector-logo" transform="translate(0)" opacity="0.3">
    <path id="Shape" d="M5.782,21A7.066,7.066,0,0,1,.909,19.359c-.1-.079-.08-.248.049-.464l1.123-1.922a.218.218,0,0,1,.2-.12.235.235,0,0,1,.167.071,4.587,4.587,0,0,0,3.221,1.243c2.214,0,3.337-1,3.337-2.966v-.73a4.263,4.263,0,0,1-3.651,1.757C2.1,16.226,0,13.9,0,10.31A6.289,6.289,0,0,1,1.569,5.876a5.033,5.033,0,0,1,3.7-1.549A4.325,4.325,0,0,1,8.987,6.215V4.873a.272.272,0,0,1,.265-.265l2.462-.017a.272.272,0,0,1,.265.265V15.348C11.977,17.926,10.9,21,5.782,21Zm.3-13.723a2.906,2.906,0,0,0-2.991,3.082A2.907,2.907,0,0,0,6.08,13.442a2.861,2.861,0,0,0,2.957-3.083A2.86,2.86,0,0,0,6.08,7.277ZM60.3,16.409a4.894,4.894,0,0,1-3.653-1.564,6.479,6.479,0,0,1-1.534-4.486,6.5,6.5,0,0,1,1.528-4.486,4.825,4.825,0,0,1,3.61-1.564A4.539,4.539,0,0,1,64.08,6.265v-6A.272.272,0,0,1,64.345,0l2.495.016a.243.243,0,0,1,.247.249v15.6a.243.243,0,0,1-.247.249H64.328a.255.255,0,0,1-.248-.249V14.5A4.437,4.437,0,0,1,60.3,16.409Zm.892-9.116a2.906,2.906,0,0,0-2.99,3.083,2.992,2.992,0,1,0,5.98,0A2.907,2.907,0,0,0,61.189,7.293Zm27.82,9.1a6.2,6.2,0,0,1-4.37-1.668A6,6,0,0,1,82.9,10.359a5.9,5.9,0,0,1,1.666-4.3,6.168,6.168,0,0,1,4.43-1.73,6.256,6.256,0,0,1,4.393,1.668,5.978,5.978,0,0,1,1.753,4.365,5.985,5.985,0,0,1-1.751,4.359A6.222,6.222,0,0,1,89.009,16.393Zm-.017-9.1a2.945,2.945,0,0,0-3.023,3.066,2.956,2.956,0,0,0,3.023,3.05,2.914,2.914,0,0,0,3.04-3.05A2.953,2.953,0,0,0,88.992,7.293ZM75.1,16.393a6.254,6.254,0,0,1-4.392-1.668,5.98,5.98,0,0,1-1.753-4.365A5.99,5.99,0,0,1,70.7,5.994a6.6,6.6,0,0,1,8.768,0,5.99,5.99,0,0,1,1.745,4.365,5.991,5.991,0,0,1-1.749,4.359A6.2,6.2,0,0,1,75.1,16.393Zm0-9.1a2.945,2.945,0,0,0-3.023,3.066,3.009,3.009,0,0,0,.835,2.2,2.972,2.972,0,0,0,2.138.847h.034a2.913,2.913,0,0,0,3.039-3.05A2.945,2.945,0,0,0,75.1,7.293Zm-26.563,9.1a6.449,6.449,0,0,1-4.923-1.741.253.253,0,0,1,0-.331l1.437-1.906a.245.245,0,0,1,.2-.1.24.24,0,0,1,.183.085,4.624,4.624,0,0,0,3.4,1.276c.574,0,1.536-.114,1.536-.878,0-.627-.634-.764-2.514-1.17l-.029-.006c-1.624-.336-3.784-1.077-3.784-3.63,0-2.294,1.8-3.663,4.808-3.663a6.091,6.091,0,0,1,4.361,1.541.258.258,0,0,1,.016.348L51.855,8.022a.244.244,0,0,1-.2.1.276.276,0,0,1-.16-.052A4.4,4.4,0,0,0,48.6,7.094c-.91,0-1.453.3-1.453.8,0,.578.608.708,2.621,1.139l.022,0c1.9.411,3.668,1.133,3.668,3.613A3.293,3.293,0,0,1,52.136,15.5,6.169,6.169,0,0,1,48.535,16.393Zm-11.564,0a6.521,6.521,0,0,1-4.939-1.741.3.3,0,0,1,0-.331l1.454-1.89a.222.222,0,0,1,.191-.1.247.247,0,0,1,.189.085,4.625,4.625,0,0,0,3.4,1.276c.574,0,1.536-.114,1.536-.878,0-.626-.633-.763-2.51-1.17l-.034-.007c-1.624-.336-3.783-1.077-3.783-3.63A3.249,3.249,0,0,1,33.761,5.3a5.852,5.852,0,0,1,3.525-.955,6.084,6.084,0,0,1,4.361,1.542.256.256,0,0,1,.016.347l-1.371,1.79a.256.256,0,0,1-.21.1.238.238,0,0,1-.153-.052,4.391,4.391,0,0,0-2.891-.978c-.911,0-1.454.3-1.454.8,0,.578.608.708,2.621,1.139l.022,0c1.9.412,3.651,1.135,3.667,3.613A3.293,3.293,0,0,1,40.573,15.5,6.169,6.169,0,0,1,36.971,16.393Zm-13.579-.017a3.561,3.561,0,0,1-3.849-3.58c0-1.984,1.433-3.4,3.651-3.613L26.316,8.9c.411-.05.579-.185.579-.464V8.254c0-.726-.723-1.143-1.983-1.143a3,3,0,0,0-2.726,1.243.21.21,0,0,1-.192.117.265.265,0,0,1-.154-.051L20.022,7.094a.239.239,0,0,1-.067-.315c.764-1.55,2.53-2.4,4.973-2.4V4.359A5.306,5.306,0,0,1,28.668,5.5a4.551,4.551,0,0,1,1.249,3.537v6.862a.257.257,0,0,1-.265.248H27.142a.243.243,0,0,1-.248-.248v-1.31A3.96,3.96,0,0,1,23.392,16.376Zm3.5-5.37-2.809.348c-.892.128-1.4.587-1.4,1.26,0,.768.605,1.227,1.619,1.227a2.688,2.688,0,0,0,1.94-.755,2.243,2.243,0,0,0,.653-1.616v-.464Zm-9.648,5.122H14.72a.272.272,0,0,1-.265-.266V.266A.255.255,0,0,1,14.7.016h2.528a.257.257,0,0,1,.264.249v15.6A.257.257,0,0,1,17.247,16.127Zm82.533-.016H97.268A.257.257,0,0,1,97,15.862V4.856a.243.243,0,0,1,.248-.248h2.379a.257.257,0,0,1,.265.248V6.481a3.854,3.854,0,0,1,3.618-2.138,2.635,2.635,0,0,1,1.288.215.366.366,0,0,1,.182.3L105,4.84V7.525a.244.244,0,0,1-.238.26.265.265,0,0,1-.076-.012,3.886,3.886,0,0,0-1.157-.166,3.159,3.159,0,0,0-3.5,3.3v4.955A.255.255,0,0,1,99.779,16.111Z" transform="translate(0 62)" fill="#fbfcfd"/>
    <path id="Shape-2" data-name="Shape" d="M28.016,50H7.033a6.891,6.891,0,0,1-4.954-2.085A7.16,7.16,0,0,1,.033,42.867H28.016V13.53a.262.262,0,0,1,.248-.268h6.488A.272.272,0,0,1,35,13.53V42.867A7.068,7.068,0,0,1,28.016,50ZM6.753,36.755H.265A.274.274,0,0,1,0,36.487V7.15A7.184,7.184,0,0,1,2.045,2.093,6.882,6.882,0,0,1,7,0H28.016a6.858,6.858,0,0,1,4.941,2.093A7.191,7.191,0,0,1,35,7.15H7.016V36.487A.273.273,0,0,1,6.753,36.755Z" transform="translate(35)" fill="#fbfcfd"/>
  </g>
</svg>
