<svg xmlns="http://www.w3.org/2000/svg" viewBox="0 0 1440 900"><defs><style>.cls-1{fill:#c96;}.cls-2{fill:#fb0;}</style></defs><title>Wunderkind_Patterns_WEB-Cropped</title><g id="Backgrounds"><rect class="cls-1" width="1440" height="900"/></g><g id="Color"><path class="cls-2" d="M467,310.25a11,11,0,0,1,5.29,5.95c3.86,12.88,12.74,20.11,27,21.26,14.65,1.18,30.35-8.34,36.21-21.94,5.26-12.2,2.81-22-8.05-32.45-13-12.1-28-19.77-45.82-21.95-13-1.6-25.49,7.15-29.22,20.61C448.5,295.73,452.61,303.47,467,310.25Zm12.91-27.79c.59-1.32,5.38-1.72,7.86-1a114.35,114.35,0,0,1,18.56,6.83c1.69.81,3,4.27,3,6.51,0,5.29-1,10.58-1.78,18.4l-19.27-4.39c-3.52-7.37-6.23-12.12-8-17.19C479.15,288.77,478.72,285,479.86,282.46Z"/><path class="cls-2" d="M402.07,847.25c-12.74,5.83-21,16-24.79,29.37C374.4,886.82,378,892,390.1,895c1.55-6.48,2.39-12.63,4.56-18.28,1.86-4.85,4.92-8.38,10.06-1.92,4.41,5.54,10.06,4.83,13-1.75a35.07,35.07,0,0,0,2.67-14.43C420.19,845.86,413.82,841.87,402.07,847.25Z"/><path class="cls-2" d="M466,353.61c6.24-3.66,6.52-7.09.8-11.17a93.12,93.12,0,0,0-11.73-7.54c-1.68-.86-5.09-.94-6.23.17-9.39,9.06-19.11,17.95-27.2,28.11-2.85,3.58-1.45,10.54-2.24,18.37,9.71.8,17.42,3.1,24.09,1.36,4.17-1.08,10.52-10,9.42-12.37-5.16-11,3.19-12,9.08-15.15C463.31,354.7,464.78,354.34,466,353.61Z"/><path class="cls-2" d="M586.67,506.17c1.07,2.9,2.41,6.52,4.77,8,8.57,5.33,17.61,3.44,26.11-.56,7.91-3.73,14.1-9.21,14.83-22.27-8.42,4.44-14.69,7.87-21.06,11.07-8.11,4.09-16.3.85-17.23-8.11a106.81,106.81,0,0,1,1.12-27.82c1.25-7.68,5.79-14.12,14.12-16.46,8.68-2.44,11.78,4.1,15.77,9.6a13.67,13.67,0,0,0,6.4,4.39c5.42,1.85,9.32-.54,11-5.82,3.22-10.35-10.16-26.11-21-25.24-2.75.22-6,.33-8.27-.89-9.4-5.1-16.77-4.83-24.94,1.68-14.29,11.41-18.14,28.08-11.08,45.15C580.81,487.77,583.34,497.13,586.67,506.17Z"/><path class="cls-2" d="M647,177.17c-9.86,15.44-22.7,27-38.63,36.3-14,8.22-13.41,26.64-.31,36.32,4.12,3,9.49,4.32,14.08,6.79,4.09,2.2,8.79,4.17,11.67,7.57,10.44,12.31,30.21,17.05,43.61,8.64,11.64-7.31,22.48-15.88,33.68-23.9l-.68-1c1.67-1.67,3.28-3.38,5-5,16.6-15.49,15-28.05,7.1-47.1-3.39-8.12-9.62-14.06-20-12.89-2,.23-4.24-1.3-6.34-2.11-10-3.84-19.73-8.39-30-11.35C658.59,167.27,651.27,170.42,647,177.17Zm40.44,31.27A51,51,0,0,1,702,229.78c2,6-1.44,13-8.68,16.52-13.8,6.76-27.55,3.57-41.21.21-1.94-.48-2.85-4.59-4.5-6.81-3.22-4.33-5.85-9.69-10.12-12.5-8-5.23-9.18-11.15-1.2-19.26,8.92-6,19.51-9.14,31.42-5.72C674.36,204.15,682.56,204.33,687.4,208.44Z"/><path class="cls-2" d="M557.76,263.26c7.32-2.55,16.2,4.29,22.72.1,4.18-2.68,4.73-9.19,1.74-13.15s-8.54-5.4-13.41-4.42l-5.34-1.93a29.47,29.47,0,0,0-22.14,25c2.34,2.05,6.06,1.18,8.67-.51S554.82,264.29,557.76,263.26Z"/><path class="cls-2" d="M174.18,324.85c1.35-13.77-5.56-27.46-16.69-33.1-6.22-3.15-12.12-5.78-14.67-13.82-2.18-6.89-9.48-9.84-16.67-8.81-3.14.46-7.19,3.49-8.41,6.37-2.69,6.35.21,12,5.29,16.42,3.56,3.07,7.26,6,10.94,8.92,5.3,4.24,5.4,9.26,2.6,14.94-3.06,6.2-6.84,4.25-11.54,1.89-2.58-1.29-6.36-1.23-9.3-.53-6.55,1.55-12.9,3.93-19.35,5.9-9.09,2.79-17.77,2.06-25.81-2.43,1.69-8.06,4-14.58,4.08-21.12,0-3.64-3.06-9.86-5.66-10.4-3.58-.73-9.66,1.67-11.83,4.74-13.7,19.4-11.67,46.81,9.47,62.76,5.41,4.07,12.22,4.13,16.88-1.25,4.95-5.71,10.74-5.68,17.38-5.91,17.28-.61,34.69-.92,51.71-3.5C166.38,343.84,173.13,335.52,174.18,324.85Z"/><path class="cls-2" d="M592.42,391.5c15.2-4.11,31.28-6.41,40.64-21.57.56-.9,1.88-1.38,2.9-1.94,17.21-9.36,23.65-24.7,23.24-43.27-.3-13.7-9.64-24.05-23-26-4.51-.67-5.75-2.77-7.65-6.57-2.11-4.21-6.45-8.92-10.73-10.11-11.66-3.24-22.69-.34-31.89,8-2.29,2.09-4.4,4.38-6.59,6.57-.09-.85-.17-1.69-.25-2.54-4.37-1.26-11.33-4.8-12.63-3.34-3.45,3.89-6.1,10-6.08,15.14,0,10.12,8.26,14.6,16.28,18.82s12.07-.89,17.48-5.39c5.76-4.8,12.64-8.49,19.47-11.72,5.84-2.75,9.65-.95,11,6.42,2,10.65-1.9,19.81-8.07,26.93-4.75,5.49-14.06,12.13-19.55,10.82-11.58-2.77-21.06-2.24-32.39,6.94,1.51-6.93,2.38-11.09,3.32-15.24,1.35-5.89-.66-10.42-5.61-13.64-6.15-4-22.57-4.07-27,.37-7,7-5,15.49-1.58,23a193.91,193.91,0,0,0,15.07,27.58c2.55,3.88,7.24,7,11.64,8.87C570.74,394,581.52,394.46,592.42,391.5Z"/><path class="cls-2" d="M446.76,808.31c6.82-11.46,6.11-23,3.58-35.61-2.88-14.38-8.5-22.66-22.71-24.62-6.52-.9-11.69-2.21-14.2-8.91-.59-1.57-2.14-2.77-2.78-3.56-22.46-22.45-58.19-14.21-66.71,15.73-4.78,16.84-6.62,34.56-9.08,52-1.09,7.7,2.11,14.52,8.88,19,9.5,6.22,20.05,9.28,31,5.87a30.27,30.27,0,0,0,13.83-9.84c4.53-5.74,2.09-10.48-5.09-12.19-4.85-1.15-9.82-1.8-14.73-2.72-11.37-2.15-15.07-7-13.55-18.42a60.35,60.35,0,0,1,3.15-13.67c7.34-19.07,17.84-22.2,34.46-11,3,2,6.73,4,10.13,4,9.61,0,15.6,7.74,12.24,16.88-1.82,5-4.42,9.78-5.36,14.9-.79,4.33-1.26,10,.83,13.35C419.62,824,438.07,822.91,446.76,808.31Z"/><path class="cls-2" d="M399,280.48c6.92-6.21,13.86-5.36,19.6,2,2.46,3.12,5.25,6.55,8.68,8.23,5.49,2.7,9.83.05,11.55-5.73,2.94-9.92-10-25.43-20.34-24.87-3,.16-6.94.52-9-1.07-8-6.15-15.49-4.36-22.84.36a36.66,36.66,0,0,0-14.24,43.33c3.83,10.43,6.89,21.15,11,31.46,1.37,3.43,4.42,7.45,7.64,8.64,15.12,5.54,37.9-6,37.14-23.85-7.78,4-14.35,7.16-20.76,10.65-6.86,3.74-12.15,1.44-15.79-4.47C385.27,314.75,389.81,288.73,399,280.48Z"/><path class="cls-2" d="M498,750.23c3.86,2,7.52,4.6,11.6,6,2.71.92,4.19,1.67,4.84,4.67a33.08,33.08,0,0,0,3.85,10,5.46,5.46,0,0,0,9.12.38c3.27-4.58-.62-18.8-5.6-21.59-4.63-2.59-8.87-5.87-13.49-8.48-6.36-3.59-12.69-7.42-19.47-10-4.6-1.77-9.15-.08-11.69,5.08-5.54,11.27.37,42.42,9.7,50.53,3.33,2.89,6.68,2.55,9.7-.18,5.68-5.13,6.87-11.74,3.47-18.7-1.57-3.23-3.65-6.2-5.29-9.4s-2.89-6.36-4.32-9.55l1.68-1.54C494.05,748.33,496.05,749.22,498,750.23Z"/><path class="cls-2" d="M99.45,462.74c13.12,4.12,26.29,2,38.24-4.81,10.42-5.93,12.86-16.18,6.83-25.42-6.19-9.47-18.38-11.58-27.8-4.79-10.58,7.64-12.08,7.59-20.65-2.26-3-3.46-5.31-7.54-9.15-13.11,4.77-1,7.54-1.45,10.26-2.14,7.09-1.82,14.32-3.27,21.17-5.77,6.65-2.42,10.68-8.07,10-15.05-.62-6.58-3-12.34-11-15.11-10.28-3.59-19.22-.34-27.3,4.11C81,383.39,73.19,390.7,65,397.21c-1.21,1-1.68,3-2.25,4.6-3.54,9.9.82,17.13,7.1,24.58,6.68,7.93,11.65,17.27,18,25.56C91,456.16,94.85,461.29,99.45,462.74Z"/><path class="cls-2" d="M349,329.58a12.47,12.47,0,0,1-7.77-5.11c-13.35-21.35-44.41-25.62-62.59-8.66-2.55,4.23-6.46,8.17-7.42,12.73-4.13,19.76-8.26,39.59-10.65,59.6-1.3,11,7.12,18.38,21.06,22.43,12.06,3.51,26.05,0,31.52-7.84a16.2,16.2,0,0,0,1.26-2.32c2.8-6,2-10.29-5.27-11.71-5.76-1.12-11.55-2.12-17.29-3.33-7.16-1.51-12.37-5.78-11.41-13.28,1.06-8.29,2.78-17,6.48-24.35,6.71-13.36,15.59-14.81,28.12-6.77,3.83,2.46,8.2,5.75,12.31,5.72,5.38,0,8.92-.57,11.85,5.4,2.48,5,3.17,8.91.63,13.87a65.24,65.24,0,0,0-4.59,12.38c-3.07,11-.58,16.27,9.64,21.38s20.82,1.79,27.13-8.65c6.63-11,6.72-22.18,3.9-34.69C372,338.88,366.23,332.13,349,329.58Z"/><path class="cls-2" d="M434,450.49c0-18.16-5.68-31.94-14.82-44.45-6.26-8.55-20.29-10.94-30.37-5.4-11.2,6.16-13.75,13.86-9.25,26.53a9.91,9.91,0,0,1-.26,7c-5.83,11.5-4.86,21,3.64,30.73a32.43,32.43,0,0,0,36.22,8.32C430.14,468.7,434.33,461.56,434,450.49ZM404,452.93c-9.81-6.41-11.39-11.53-6.46-20.72.54-1,.52-2.3,1.08-3.28,2.12-3.71,4.38-7.35,6.59-11,2.63,3.53,6.2,6.69,7.72,10.65C418.65,443.41,418.39,443.5,404,452.93Z"/><path class="cls-2" d="M314.45,475c-6,2.44-9.11,6.53-8.26,12.85.91,6.79,4.8,11.29,12,11.89,10.56.87,19.56-2.65,28.18-9.65,2.42-5.22,5.68-10.23,7.1-15.7,3.77-14.6-1.55-28.37-5.21-42.18-.34-1.27-3.05-2.48-4.8-2.71-9.49-1.29-13.5,4.43-12.24,17.13C333.26,467.21,333.3,467.32,314.45,475Z"/><path class="cls-2" d="M267.07,734.49c-5.88,3.94-8.45,10.39-6.14,17,2.18,6.24,5.87,11.26,14.24,12.07,10.84,1,18.75-4.25,25.54-10.49,7.63-7,13.5-16,19.93-24.27.95-1.22.91-3.3,1.09-5,1.08-10.45-4.87-16.44-12.75-22.18-8.38-6.11-15.43-14-23.52-20.54-4.11-3.33-9.1-7.39-13.92-7.7-13.72-.89-26,4.31-36,13.77-8.7,8.24-8.64,18.78-.58,26.31,8.26,7.74,20.61,6.87,28.14-2,8.45-9.94,9.93-10.25,20.59-2.73,3.75,2.65,6.95,6.07,12,10.56-4.39,2.09-7,3.21-9.45,4.53C279.81,727.31,273.12,730.44,267.07,734.49Z"/><path class="cls-2" d="M291.11,553.69A23.77,23.77,0,0,0,286.64,565c-1.17,15.31,3.47,28.91,13.62,40.56,5.17,5.92,9.56,6.59,14.6-.58,6.89-9.78,16.62-13.55,28.52-11.24,6.05,1.18,12.07,2.64,18.17,3.36,13,1.53,26,2.44,36.38-8,14.4-14.3,11.69-50.65-5-67.12-11.56-11.4-43.8-11.85-54.86,0-2.92,3.13-4.75,9.37-3.79,13.38.84,3.49,6.19,8.09,9.78,8.29a107.77,107.77,0,0,0,29.41-2c7.95-1.78,13.79,0,15.38,7,1.34,5.88.76,13.77-2.3,18.71-3.79,6.11-11.54,6.12-18.32,2.7-8-4-15.73-7.1-25.13-3.11-20.62,8.76-20.75,8.45-31.54-11.28-.14-.25-.31-.49-.46-.75C305.27,544.66,298,544,291.11,553.69Z"/><path class="cls-2" d="M239,187.93c10.28-7.09,16.67-17.8,19.16-30.65,3.28-16.94-4.4-32.07-19.4-36.58-14.35-4.32-30.49,5-35.57,21.22-1,3.13-.66,8.54,1.34,10.24,2.41,2.06,7.76,2.63,10.92,1.43,5-1.91,9.25-5.81,14.32-9.2,16.16,14.75,15.68,21-2.94,31.51-13.31,7.52-26.94,14.47-40.47,21.58-3.91,2.06-8,3.8-12,5.69l-2.13-2.45c3.55-4.77,6.94-9.66,10.68-14.27,5.54-6.83,11.92-13.06,16.72-20.36,2-3,.82-8.13,1.08-12.29-3.8.39-7.89,0-11.32,1.37-3.66,1.43-7.56,3.81-9.86,6.89-11.4,15.26-22.34,30.9-23.88,50.78-.46,5.92-.15,11.9-.19,17.86,7.06-1,15.25,0,21-3.35C197.8,215,218.72,201.91,239,187.93Z"/><path class="cls-2" d="M1063.29,848.63a59.71,59.71,0,0,0,22.55-17.14c5.86-7.27-16.22-18.92-21.08-20.3-11.1-3.16-24.21-.66-34.72,1.71-8.29,1.87-10.69,8.92-10.18,16.8.34,5.22,2.53,7.37,8.14,4.89s11.39-4.86,17.33-5.76c4.67-.71,8.6,1,6.41,7.94C1048.74,846.23,1054.17,852.42,1063.29,848.63Z"/><path class="cls-2" d="M963.37,820.6a13.73,13.73,0,0,0,7.22,16.46c5.28,2.77,10.88,4.41,17.1-.09,12.43-9,14.6-21.57,14.28-35.36-.16-6.7-.48-13.41-1.07-20.08a12.39,12.39,0,0,0-2.43-5.41c-5.47-8-13.27-9.17-22.44-8.75-11.24.52-22.55-1-33.81-.74-5.22.12-11.5.92-15.36,3.92-10,7.81-15.84,18.8-17.6,31.53-1.85,13.35,4.26,21.29,16.39,21.88,11.59.56,20.57-8.6,20.21-20.6-.36-11.77-.2-12.22,11.68-13.76,5.38-.7,10.91-.31,18.71-.46-2.48,5.26-4,8-5.14,11C968.4,806.88,965.27,813.58,963.37,820.6Z"/><path class="cls-2" d="M1306.87,488.26c3.41.39,7.13.74,10,2.34,19.63,10.85,54.35,5.85,72.07-12,4.86-8.06,11.06-17.83,16.66-27.93,1.46-2.62,1.28-6.27,1.44-9.46.82-15.62-17.77-21.47-18.54-36.64-.12-2.53-4.54-5-7.23-7.18-1.3-1.06-3.14-1.51-4.79-2.08-10.49-3.61-21.26-3.72-30.77,1.79-16.47,9.54-32.13,20.46-48.43,30.31-7.34,4.44-8.83,9.78-6.86,17.78a24.49,24.49,0,0,1-1,13.78C1284.25,472.44,1292.42,486.61,1306.87,488.26Zm14.05-43.05c4.09-8.65,9.77-16.59,15.2-24.54,3.1-4.54,7.17-5.09,10.62-.11s6.91,6.34,12.1,1.75c1.25-1.11,6.52-.22,7.5,1.31,7.66,12,14.24,24.39,9.41,39.5-5.43,17-23.52,19.44-32.15,8.18-5.66-7.38-13.18-12.73-25.87-6.06C1319,456.76,1318.5,450.31,1320.92,445.21Z"/><path class="cls-2" d="M1344.34,63.75a4.15,4.15,0,0,0-2.46-1.28c-5.77-1.31-11.88.87-16.59,4.44-14.46,11-19.08,24.11-14.55,41,3.37,12.59,14.43,20.41,30.39,20.39,12.6,0,22.89-6.35,34-14.84,4.79-15-6.45-13.67-18.45-15.57-19.29-3.06-13.44-16.47-11.78-30.82A4.49,4.49,0,0,0,1344.34,63.75Z"/><path class="cls-2" d="M778.27,382.41c4.69-10.15.9-20.32-6.7-27.11a22.1,22.1,0,0,1-6.38-10.23c-2.81-10.53-9.25-16.57-19.68-19-14.59-3.43-27.41,1.42-39.34,8.89l0,0c-12.88,8.07-49.79,24.51-46.81,43.8.76,4.93,3.78,9.61,3,14.53-1.47,9.39-15.62,13.8-15,23.27.48,6.75,8.65,10.3,15.39,9.73s13.13-3.69,19.89-3.8c30.05-.5,53.18,14.26,79-12C766.59,402.38,773.46,392.86,778.27,382.41Zm-29.46,11.73c-4.23,15.12-20.88,22.1-32.41,9.16-6-6.7-12.51-12.93-25.19-6.36.28-6.4-.8-11.2.88-14.66,4.93-10.17,10.72-19.95,16.64-29.6,3-4.81,7.08-4.88,10.59-.19,3.26,4.37,6.34,6.33,11.58,2.14,1.57-1.26,7.07-.61,8.1.94C746.71,367.17,752.93,379.37,748.81,394.14Z"/><path class="cls-2" d="M685.22.33H664.29Q662.54,8,660.92,15.72c-3.87,18.6-3.59,36.78,8.66,53,9.07,12,27.7,15.81,39.4,7.64,12.36-8.63,15.89-28.73,7.2-41-4.86-6.88-12.84-6.46-15.71,1.36-2.06,5.61-2.5,11.81-3.68,17.81-21.55,1.42-26-3.67-20.42-24.45C679.08,20.06,682.14,10.19,685.22.33Z"/><path class="cls-2" d="M1440.37,415.5V400.13a20.93,20.93,0,0,0-.77,4.25A36.59,36.59,0,0,0,1440.37,415.5Z"/><path class="cls-2" d="M1337.66,297.74c18.07-16.67,16.55-30.28,7.48-50.8-3.57-8.09-9.89-13.17-19.64-12.5-2.22.15-4.64-.83-6.78-1.74-9.48-4-18.61-9.2-28.41-12.16-10.36-3.12-19.79.46-25.59,10-9,14.85-21.18,25.81-36.34,34.46-5.56,3.17-10.25,10.91-11.82,17.42-3.3,13.68,6.76,25.26,23.34,28.79,5.64,1.19,9.69,3,13.27,8.26,8.91,13.11,31.48,17.86,44.65,9.49,12.41-7.89,24-17,36-25.56l-.76-1.08C1334.6,300.79,1336.07,299.2,1337.66,297.74Zm-19.38,1.51c-2.74,1.05-7.27,4.17-11.81,4.2a285.72,285.72,0,0,1-33.68-2.24c-1.85-.21-4.19-3.32-4.86-5.54-2.36-7.79-6.17-13.63-14.26-16.84-2.12-.84-4.17-6.51-3.41-9.15,3.67-12.84,22.54-19.9,38-15.09,7.27,2.26,14.66,4.15,22,6.15C1321.54,263.81,1328,289,1318.28,299.25Z"/><path class="cls-2" d="M1413.48,477c-13.28,7.84-21.52,19.94-23.64,35.4-1.3,9.51,3,15.61,11.46,18.32,9.07,2.92,17.84.27,22-7.85,2.14-4.17,1.93-9.5,3.34-14.13.77-2.55,2.48-6.6,4.12-6.79,3.18-.37,6.37-.59,9.58-.74V477.9c-4.19-.57-8.38-1.13-12.59-1.53C1423,475.92,1417.13,474.85,1413.48,477Z"/><path class="cls-2" d="M865.42,443.1c6.75-2.35,8.62-5.87,4.44-12.57-6.41-10.31-6.77-20.85.32-31.39A226.41,226.41,0,0,0,884.68,375c4.43-8.8,6.9-18.22,2.58-28.26-2.08-3.15-3.57-7-6.36-9.31C864,323.62,844.78,319.81,824,325.71c-4.22,1.19-8.44,4.48-11.3,7.94-9.18,11.11-13.34,24.42-11.39,38.57.65,4.73,5.66,11,10,12.4,3.64,1.14,11.46-2.63,13.44-6.36,4.43-8.32,7.15-17.8,9.06-27.13,1.48-7.21,4.49-11.54,11.75-11.63s14.3,2.11,17.4,9.61c2.94,7.1.33,13.37-5.17,18.23-6,5.3-11.91,10.21-12.29,19.3-1,23.8-1.15,23.8-24.65,27.48-10.26,1.6-13.31,7-8.44,16.4a23.4,23.4,0,0,0,8.82,9.41C835.31,447.63,850.22,448.38,865.42,443.1Z"/><path class="cls-2" d="M791.66,544.7c9.19-.4,18.3-3.64,27.32-6.1a21.44,21.44,0,0,0,8.52-4.78c7.16-6.58,5.29-14.51,3.37-22.86-2.4-10.43-3.31-21.18-5.31-31.71-.89-4.71-1.49-10.66-4.57-13.56-11.21-10.59-25.12-15.16-40.56-12.91-9.5,1.39-14.16,7.23-14.43,16.09-.29,9.52,4.68,17.22,13.65,19,4.6.91,9.66-.76,14.5-.69,2.66,0,7,.54,7.67,2.07,3.28,7.83,5.59,16.06,8.25,24.15l-2.5,1.68c-2.7-.69-5.38-1.52-8.12-2-7.48-1.45-14.94-3.35-22.49-4-7-.58-12.94,2.91-15.2,9.72-2,6.1-1.93,11.87,3.45,17.65C772.81,544.58,782.43,545.1,791.66,544.7Z"/><path class="cls-2" d="M1017.09.33a33.76,33.76,0,0,0,2.68,16.44c4.7,10.72,6.9,22.56,11.76,33.2,2.15,4.7,8,10.59,12.35,10.8a54.71,54.71,0,0,0,24.68-5.15c7-3.24,12.86-9.44,11.36-21.31-7.88,4.11-14.68,7.73-21.54,11.23-8.84,4.49-17.06,1.15-19.2-8.42-2.8-12.56-2-25.09,3.56-36.79Z"/><path class="cls-2" d="M798,171.09c-5.77.7-11.54,1.39-17.3,2.14a4.42,4.42,0,0,0-1.55.83c-12.85,7.87-19.4,22.77-15.88,36.13,3.32,12.6,14.34,20.47,30.3,20.52,12.6,0,22.93-6.25,34.07-14.68.72-2.21,3.61-6.54,2.46-8.71-1.57-2.94-6-5.07-9.63-6-3.15-.8-7,0-10.25,1.1-6.1,2.09-12.55,2.54-15.94-2.85-1.77-2.82,1-8.47,1.66-12.87C796.71,181.51,797.35,176.3,798,171.09Z"/><path class="cls-2" d="M796.75,641.66c-5.29.12-10.72-.53-15.83.47-4.31.85-9.73,2.48-12.11,5.67-10.15,13.6-2.41,30.38,14.36,33.12,13.16,2.14,23.6-2.73,34.44-9.72,12.32-8,18-16.22,14.59-30.16-1.55-6.39-2.24-11.68,3.08-16.47,1.25-1.12,1.8-3,2.3-3.89,12.65-29.13-8.11-59.35-39.08-56.3-17.43,1.71-34.59,6.5-51.7,10.6-7.57,1.81-12.75,7.28-14.4,15.22-2.31,11.11-1.29,22,5.91,31a30.4,30.4,0,0,0,14.22,9.26c7,2.11,10.52-1.9,9.48-9.21-.71-4.93-1.93-9.79-2.87-14.7-2.17-11.36,1-16.59,12.17-19.35a60.77,60.77,0,0,1,13.88-2.09c20.43-.16,27.19,8.47,22.81,28-.79,3.5-1.26,7.73,0,10.9C811.48,633,806.49,641.43,796.75,641.66Z"/><path class="cls-2" d="M955,26.18c1.7,5.79,7,11.66,12.29,14.94,6.12,3.8,12.17-1.3,14.49-6.7,4.61-10.7,8.62-21.89,10.85-33.27a7.35,7.35,0,0,0,.1-.82h-25.9c-2.7,3.06-5.6,6-7.42,9.49C956.81,14.85,953.63,21.5,955,26.18Z"/><path class="cls-2" d="M538.88,653.58c5.34,6.3,12,8.75,19.71,10.42,2.8.61,5.68,4,7.14,6.84,2.51,4.88,3.12,10.86,6.1,15.32,1.82,2.72,7,5.22,9.93,4.58s7-5.53,6.77-8.32c-.48-7.7-1.83-15.75-5-22.7-1.77-3.91-7.78-5.88-11.85-8.77-1.67-1.18-3.25-2.49-4.88-3.72-12.57-9.5-23.94-20.9-40.15-24.56-10.43-2.36-17.34.2-21.53,8.59-8.93,17.91.83,68.31,15.67,81.57,5.31,4.74,10.71,4.72,15.83.37,8.83-7.49,11.36-18.8,6.54-29.62-2.5-5.59-6.13-10.67-8.9-16.15-2.66-5.25-4.86-10.73-7.27-16.11l2.28-2.08C532.55,650.63,536.83,651.16,538.88,653.58Z"/><path class="cls-2" d="M428.07,527.16c1.55-6.48,2.4-12.63,4.56-18.28,1.86-4.85,4.92-8.38,10.07-1.91,4.4,5.53,10.05,4.83,13-1.76a35,35,0,0,0,2.67-14.43C458.17,478,451.79,474,440,479.37c-12.74,5.83-21,15.95-24.79,29.37C412.37,518.94,416,524.08,428.07,527.16Z"/><path class="cls-2" d="M903.3,544.86c-4.85-6.88-12.83-6.46-15.7,1.36-2.07,5.61-2.51,11.81-3.68,17.81-21.55,1.43-26-3.67-20.42-24.45,3.84-14.17,8.42-28.14,12.72-42.18,1.43-4.66,3-9.26,4.55-13.89h3.53c1.66,10,.76,24.48,4.55,33.73,3,7.25,9.61,13.24,16,7.54,8.32-7.48-2.07-31-4.71-39.13-3.59-11.1-11.81-20.75-18.34-30.81-3.82-5.89-8.63-6.11-12.37.11-3.3,5.49-6.8,11.18-8.47,17.26-4.8,17.55-9.17,35.25-12.87,53.07-3.87,18.6-3.6,36.78,8.65,53,9.08,12,27.71,15.81,39.41,7.64C908.47,577.26,912,557.16,903.3,544.86Z"/><path class="cls-2" d="M1010.51,448.85c6.11-11,5.54-22,3-34.06-3.41-16.63-9.49-23.62-26.47-26.24a13.53,13.53,0,0,1-8.34-5.42c-13.28-20.83-44.37-25.14-62.86-8.89-3.35,7-8.06,13.77-9.78,21.19-3.58,15.43-6,31.16-8.09,46.87-1.69,12.66,3.77,20.16,16.81,25.52,13.33,5.48,28.31,3.34,35.21-5.1a21.33,21.33,0,0,0,2.3-3.74c2.94-5.71,1.67-9.69-4.91-11.11-6-1.3-12.11-2.32-18.15-3.57-7.74-1.61-12.45-6.46-11.07-14.31,1.51-8.52,3.52-17.36,7.47-24.94,6-11.54,14.7-12.71,25.76-6,4.6,2.8,9.65,6.23,14.71,6.61,9.55.72,15.48,7.88,12.19,17.13-1.67,4.7-3.86,9.23-5.3,14-3.17,10.54-.47,16.62,9.21,21.76C992.66,464.1,1004.25,460.06,1010.51,448.85Z"/><path class="cls-2" d="M868.94,638c-7.72,6.57-9.33,15-4.26,21s16.92,6.75,23,.23a78.9,78.9,0,0,0,12.86-18.69c3.66-7.45,1.72-15.27-4.08-21-4.91-4.9-11.45-7.85-18.4-4.38-2.19,1.1-4.8,5.69-4.1,7.45C876.73,629.7,874.57,634.43,868.94,638Z"/><path class="cls-2" d="M620.9,642.42c.43,4.65,4.05,8.5,8.25,10.52s9,2.52,13.59,3c12.73,1.21,34.63-6.06,39.73-19.15,3.15-8.09,5.09-16,14-21.14,3.93-2.26,4.89-11.13,5.42-17.15.19-2.16-4.47-6.15-7.51-6.92-6.73-1.69-11.78,2.23-15.53,7.69s-6.9,15.92-13.65,18.68c-5.41,2.21-16-.24-16.93-6.9-.41-2.79,1-5.92-.5-8.33-1.93-3.15-7-2.37-9.69-4.89s-1.9-6.75-.94-10.24c3-11,6-20.34,5.51-31.64-.2-4.88,2.4-6.67,8.14-5.53a48.21,48.21,0,0,0,19.73-.07c6.57-1.53,7.69-8.09,2.89-13.07a25.29,25.29,0,0,0-8.63-5.74c-19.09-7.6-39-2.24-52,13.71-11.68,14.25,3.82,25.25-.47,40.91-2.09,7.64-6.58,14.35-10.57,21.19-2,3.46-4,7.11-4.26,11.1s1.48,8.39,5.13,10c5.59,2.47,13.82-1.85,17.38,3.11C622.14,634.54,620.56,638.72,620.9,642.42Z"/><path class="cls-2" d="M681.82,128.46c-7.73,6.57-9.33,15-4.26,21s16.91,6.75,23,.23A78.94,78.94,0,0,0,713.38,131c3.65-7.45,1.71-15.27-4.09-21.05-4.91-4.9-11.45-7.85-18.4-4.38-2.18,1.1-4.79,5.69-4.1,7.45C689.61,120.15,687.45,124.88,681.82,128.46Z"/><path class="cls-2" d="M397.64,161.89c9,9,17.15,9.35,28.06,1.5a9.93,9.93,0,0,1,6.83-1.71c12.67,2.4,21.55-1.18,28.5-12.05a32.44,32.44,0,0,0-2.08-37.1c-7.45-9.32-15.48-11.36-26-7.91-17.43,5-29.1,14.34-38.56,26.6C387.91,139.61,389.52,153.76,397.64,161.89Zm20.09-31c12.67-9.59,12.84-9.37,25.89,1.79-3.43,11.21-7.91,14.15-18.1,12-1.11-.23-2.36.14-3.46-.12-4.15-1-8.27-2.17-12.4-3.27C412.31,137.75,414.36,133.43,417.73,130.88Z"/><path class="cls-2" d="M718.8,540.82a11.55,11.55,0,0,0-3.57-.17,16.42,16.42,0,0,0-7.82,3.39,11.81,11.81,0,0,0-4.28,10.84c.8,4.41,4.66,7.93,9,8.91a16.12,16.12,0,0,0,12.7-3c4.19-3,9.09-11.4,4.09-16C727.15,543.22,722.49,541.46,718.8,540.82Z"/><path class="cls-2" d="M740.72,498.65c4.88-11.5,2.82-19.48-5-26.64-13.56-13.07-26.87-19.1-42-21.17-11.41-1.56-22.65,6.32-25.79,18-3.37,12.46.3,19.39,12.7,25a9.25,9.25,0,0,1,4.51,5.18c3.43,11.33,12,18.17,24.61,19S735.79,510.31,740.72,498.65ZM716.2,494.9c-13,1.37-16-.56-19.92-11.17-.78-2.13-3-3.74-3.71-5.87-.9-2.56-2.06-6-1-8,.78-1.43,5.15-2,7.49-1.31a90,90,0,0,1,16.25,6.3c1.48.73,2.52,3.81,2.48,5.79C717.68,485.31,716.81,489.94,716.2,494.9Z"/><path class="cls-2" d="M612.81.33h-28C593.86,4.14,604.78,4.46,612.81.33Z"/><path class="cls-2" d="M1382.77,791.24c-20.34,10.38,6.46,18.41,13.77,24,4.16,3.18,7.81,7.3,12.78,8.94A14.56,14.56,0,0,0,1425,800.93C1416.58,791,1394.73,785.14,1382.77,791.24Z"/><path class="cls-2" d="M1211.46,726.41c6.29,2.86,14.7-1.57,15.89-8.38.49-2.79.18-6.22,2.51-7.83,4-2.76,8.79,3.78,13.61,3.12,3.17-.43,5.07-3.93,5.26-7.13.64-10.77-13.31-16.66-21.68-19.69-13.54-4.91-28.17-4-41.44,1.29-7.94,3.18-19.37,18.6-7.21,23.23,7.73,2.94,16.09-6.73,23.66-5.78C1213.09,706.62,1198.79,720.65,1211.46,726.41Z"/><path class="cls-2" d="M1437.52,742.55a42.61,42.61,0,0,0,2.85-8.77V723.4c-1.16-5-4.11-9.53-8.78-13.8-15.56-15.3-32.54-21.66-51.62-23.73-13-1.41-27.92,9.59-32.38,23.6-5,15.56-.7,24.42,14.27,30.92a11,11,0,0,1,5.78,6.18c4.52,15.1,13.57,22.23,29.65,22.52C1413.91,769.4,1430.55,758.42,1437.52,742.55Zm-31.19-3.17c-14.46,3.7-20.29.84-23.65-11.47-.37-1.34-1.49-2.42-1.82-3.77-1.24-5.09-2.28-10.25-3.4-15.38,5.42.53,11.4-.11,16.16,1.82C1411.52,717.82,1411.38,718.13,1406.33,739.38Z"/><path class="cls-2" d="M814.6,119.46c-7.19-3.48-14-7-22.55-3.89-22.34,8.27-22.39,8.11-34.85-12.14-5.44-8.85-11.57-9.6-18.39-1.46a23.37,23.37,0,0,0-5.28,11.76c-1.66,16,3.4,30.05,14.14,42,4.77,5.32,8.73,5.69,13.3-.75,7-9.9,16.63-14.29,29.09-11.82a226.31,226.31,0,0,0,27.85,4.08c9.83.69,19.47-.66,27.08-8.53,2.09-3.13,5.1-6,6.13-9.45,6.25-20.89,2.33-40.13-11.14-57.07-2.73-3.42-7.39-6-11.69-7.35-13.79-4.19-27.67-2.89-40,4.37-4.11,2.42-8,9.47-7.58,14,.35,3.8,6.85,9.56,11,10,9.38.87,19.18-.27,28.52-2.11,7.23-1.41,12.38-.31,15.27,6.36s3.57,14-2.15,19.76C828,122.64,821.21,122.66,814.6,119.46Z"/><path class="cls-2" d="M1189.89,512.11a156.12,156.12,0,0,0-1-32.86c-.62-4-6-8.68-10.26-10.35-5.89-2.31-8.12-4.9-8.06-11.29.11-13.24-7.22-22.41-19-27.07s-23.15-2.72-32.8,6.79c-1,1.11-2.56,2.24-3.26,3.78-9.42,20.6-13.79,42-7.28,64.16,1.22,4.19,6.66,7.84,11,10.25,5.68,3.18,9.41.1,8.68-6.14-.77-6.66-2.64-13.21-4.26-19.75-3-12,1.92-24.05,11.63-28.7,4.18-2,7.07-2.07,10.55,2.21a18,18,0,0,0,11.57,6.1c10.87.61,13,2.57,10,13.26-1.43,5.08-4.33,9.88-5,15-.7,5.28-1.38,12.17,1.32,15.86,3.35,4.58,9.89,8.09,15.63,9.3C1185.84,524.05,1189.56,517.62,1189.89,512.11Z"/><path class="cls-2" d="M1082.14,551.43c10.83,4.94,19-.63,15.79-12-3-10.63-13.94-38.27-28-26.95-5,4-4.65,7.17-5.28,13-1.07,9.79-.53,9.68-9.49,12.08s-5.18,30-4.55,36.3c1,10.14,9.06,14,18.53,14.56,6.26.35,9.14-2,7-9s-4.14-14.26-4.35-21.46C1071.59,552.24,1074.19,547.81,1082.14,551.43Z"/><path class="cls-2" d="M944.18,561.89c5.38,6.71,13.63,7.18,22.89-.07a234.81,234.81,0,0,0,23-21.12c6.78-7,6.14-11.23-1.33-17.36-3.06-2.52-6.75-4.49-9.22-7.48C969,503,953.56,499.67,940,509.42c-4.28,3.07-7.26,10.72-7.13,16.18.08,3.74,6.39,7.52,10.28,10.87,1.36,1.17,3.8,1.09,5.78,1.6-.35,1.19-.36,1.93-.72,2.31C940,548.88,938.83,555.23,944.18,561.89Z"/><path class="cls-2" d="M1128.69,535.13a25.61,25.61,0,0,0-16.1,15.58,4.27,4.27,0,0,0-.08,3.56c.91,1.52,3.1,1.48,4.85,1.17,13-2.26,26.21-8.26,38.84-4.47,5.62,1.69,12,5.13,16.77,1.65,4.23-3.12,3.43-10.16-.25-13.92s-9.14-5.07-14.3-6.1C1148.42,530.6,1136.68,529.54,1128.69,535.13Z"/><path class="cls-2" d="M30.16,374.48c3.21-16.58-4.7-32.16-19.61-36.47a25.46,25.46,0,0,0-10.18-.76v25.31c.37-.26.73-.53,1.11-.78,16.2,13,16.1,20.7-1.11,30.63v20.15q5.45-3.63,10.85-7.32C21.49,398.16,27.67,387.35,30.16,374.48Z"/><path class="cls-2" d="M.37,310.74a21.69,21.69,0,0,0,1.36-3.08A14.94,14.94,0,0,0,.37,294.2Z"/><path class="cls-2" d="M73.15,480.72C77.67,468,74,456.87,64.23,448S42.48,435.39,29.4,435.41c-8,0-11.16,4.66-6.73,11.33,3,4.59,8.85,7.28,12.66,11.5,3,3.26,5.84,7.4,6.49,11.51.3,1.89-4.54,5.06-7.51,6.9-3.45,2.15-7.66,3.1-11.09,5.27-4.72,3-5.65,7.55-.63,10.54,6.08,3.62,13,5.86,19.54,8.7C56.9,499.49,69,492.38,73.15,480.72Z"/><path class="cls-2" d="M.37,242.53V264c13.73,1.21,14.31,3.43,18.15,20.72,1.41,6.34,4.93,10.07,11.3,10.28,6.85.23,11.93-2.86,13.71-9.86,2.62-10.27.65-19.73-4.83-29.39-4.75-3.25-9.14-7.3-14.31-9.61C16.55,242.65,8.49,242.11.37,242.53Z"/><path class="cls-2" d="M15.5,565.88c11.67-10,18-22.89,19-38.31.54-7.84-2.09-11.41-10.73-9.91C14.52,519.27,6.62,517,.37,511v60.09a27,27,0,0,0,4-.38A23.61,23.61,0,0,0,15.5,565.88Z"/><path class="cls-2" d="M33.45,85.09c-7.38,4.35-36.76,36.5-19.05,43.33,6,2.31,11.83-3.92,15.16-8,13.13-16,13.18-16.13,31.92-8.2,6,2.53,11.06,1.82,14.92-3.24,4.16-5.45,4.59-11.38-.08-16.9C69.48,84,60.62,80.15,49.57,79,44.17,81,38.33,82.22,33.45,85.09Z"/><path class="cls-2" d="M31.25,706.33c3.91-.23,7.64-3.22,11.38-2.08s5.27,6,8.68,8.09c3.83,2.37,9.2.47,11.88-3.15s3.2-8.39,3-12.89A49,49,0,0,0,64.38,685c-8.59-30.23-33.15,1.56-36.15,17.12-.24,1.26-.33,2.75.62,3.61A3.21,3.21,0,0,0,31.25,706.33Z"/><path class="cls-2" d="M422.57,52.32c8.24,2.19,13.33-2.72,9.7-10.38A51.08,51.08,0,0,0,416.66,23.3c-6-4.4-15.53,14.36-16.92,18.24-3.44,9.56.69,21.06,3.25,30.35,1.93,7,8.07,8.81,14.82,8,4.45-.51,6.21-2.47,3.86-7.18S417,63.2,416,58.14C415.23,54.16,416.54,50.72,422.57,52.32Z"/><path class="cls-2" d="M31.77,625.65c-4.47-15.72-17-25.55-31.4-24.2v26L.62,627c21.08,5.86,23.47,11.65,11.6,29.44C8.36,662.2,4.39,667.91.37,673.59v36.08q14.79-23.58,28.14-48C34.49,650.68,35.35,638.24,31.77,625.65Z"/><path class="cls-2" d="M128.93,121.1c-2.63,1.78-6.05,2.36-8.83,4-6.25,3.6-7,8.44-.92,12.24,5.74,3.59,12.69,5.27,19.11,7.79,14-1.56,26.19-8.61,30.32-19.73,4.52-12.19,1.68-23.08-7.64-32.25-9.8-9.63-21.92-13.36-35.27-13.5-8.88-.1-11.83,5-6.81,12.43,2.49,3.66,7.17,5.77,10.25,9.14,3.35,3.67,7.07,7.68,8.36,12.18C138,115,132.24,118.86,128.93,121.1Z"/><path class="cls-2" d="M232,292.6c-2.77,6.22-1.47,12.7,4,16.93,4.9,3.79,10.19,5.53,17.16,2.48,9.86-4.31,13.4-12.9,16-21.42s2.52-17.81,3.15-26.81a20.48,20.48,0,0,0-1.63-9.26c-3.71-8.62-11.52-9.44-19.73-10.36-10.25-1.14-20.33-3.72-30.54-5.26-4.57-.69-10.17-2-13.8-.16-13.21,6.83-21.79,18-24.66,32.79-1.77,9.09,2.06,15.19,10,18.26,8.57,3.29,17.16,1.22,21.62-6.38,2.29-3.9,2.38-9,4-13.42.88-2.4,2.73-6.22,4.33-6.31,8.17-.49,16.39,0,24.6.19.24.93.49,1.86.73,2.8-1.49,2.24-3.1,4.42-4.45,6.74C239.13,279.76,235,285.93,232,292.6Z"/><path class="cls-2" d="M287,463.45a35,35,0,0,0,13.53-5.68c10.61-7.17,10.44-14.69-.5-21.57-11.86-7.46-24.85-8.8-38.15-4.62-4.57,1.44-8.22,3.69-9.88,8.31-5.66,15.75,12.74,7.73,19.29,6.3,5.08-1.11,9.71-.48,7.12,7.37C276.17,460.28,279.87,464.61,287,463.45Z"/><path class="cls-2" d="M163.9,500.06c.48,3.68.76,6.77,1.31,9.81,1.36,7.47,1.46,15.63,4.77,22.14,2.33,4.6,8.81,9,14,9.73,5.74.78,12.06-1.65,15-9.35,4.86-12.84,1.34-23.9-5-34.67-4-6.76-8.57-13.18-13.13-19.59-.89-1.25-2.85-1.8-4.38-2.53-9.6-4.61-17.17-.57-25.14,4.91-8.56,5.89-18.18,10.22-27.1,15.62-4.11,2.49-9.59,5.16-11.1,9.06-5.65,14.56-5.45,29.42,2.76,43.29,4.43,7.49,11.64,9.83,19.71,7.23,13.95-4.5,17.65-20.12,8-32.31-1.6-2-3.19-6.36-2.19-7.76C146.61,508.22,153.55,502.58,163.9,500.06Z"/><path class="cls-2" d="M86,521.14c-6-5.78-13-4.85-19.4-1.32-10.57,5.82-16.37,33.25-9.35,43.15,2.16,3,5.18,5.46,7.22,7.56,8.52,2.92,16.06,3.83,22.23-2.43,1.64-1.67,2.8-6.68,1.79-7.66-7.54-7.21-5.2-13.67-.25-21.08C92.42,533.14,91.5,526.48,86,521.14Z"/><path class="cls-2" d="M109.38,168.6a16.25,16.25,0,0,0-2.53.74c-6.19,2.23-8.68,5.88-4.56,12,3.29,4.86,6.67,9.67,9.87,14.58,4,6.13,4.66,12.83-1.32,17.46-6.61,5.11-14,10-21.8,12.64-14.19,4.7-21.49-.56-24.67-15.1-1-4.45-1.74-9.86-4.66-12.75-3.82-3.78-6.72-5.9-4.56-12.2,1.81-5.31,4.06-8.54,9.37-10.25a65.6,65.6,0,0,0,12-5.51c9.95-5.61,11.92-11.1,8.3-21.93s-13.45-16-25.29-13.07C47.07,138.29,39.07,146.15,32.23,157c-9.59,15.17-10.3,24,.08,38a12.47,12.47,0,0,1,1.87,9.1c-5.66,24.54,13.29,49.53,38.14,50.39,4.79-1.19,10.35-1.21,14.24-3.76,16.9-11,33.84-22.15,49.67-34.61,8.69-6.84,8-18,1-30.76C131.17,174.33,118.82,166.89,109.38,168.6Z"/><path class="cls-2" d="M527.87,438.32c-1.46,6.29-3.5,12.75-3.3,19.07.28,8.5,9.33,16.27,17.78,17,10,.87,14.16-6.43,14.59-13.9a176.51,176.51,0,0,0-2.13-36.65c-.58-3.76-5.75-8.65-9.69-9.67-8.45-2.18-10.29-6.64-10.45-14.67-.28-14.38-8.91-24.07-21.74-28.83S487.69,368,476.46,379c-.82,1-2.94,2.86-4,5.17-9.57,21.52-13.72,44-8.54,67.13,1.21,5.38,6.83,11,11.92,14,8.14,4.77,12.37,1.36,11.12-8.33-.95-7.44-3.41-14.68-4.95-22.05-2.7-13,3.34-25.61,14.25-30.43,4.43-2,7.09-1.48,10.82,2.65,3.38,3.75,9.58,6.44,14.75,6.8,9.35.66,11.81,2.12,10.14,11.27C531.19,429.69,528.91,433.87,527.87,438.32Z"/><path class="cls-2" d="M87.83,31.53c8.25-7,8.89-14,1.3-16-5-1.33-11.47-1-17.63.38C55.14,19.43,48.34,28.58,52,42.1c4,14.67,14.59,22.51,30.64,23.83,7.13.59,17-3,20.84-9.31,8.15-13.44-8-11.27-15.93-12.8C81.85,42.72,78.2,39.75,87.83,31.53Z"/><path class="cls-2" d="M1378.66,556.93c4.5-11,2.36-19-5.79-26.56-12.93-12.75-26.72-18.39-42-20.66-10.48-1.55-22,6.76-25.17,17.83-3.48,12.29.22,19.52,12.4,25.21a9.91,9.91,0,0,1,4.82,5.13c4.09,12.23,11.56,18.23,24.44,19A32.39,32.39,0,0,0,1378.66,556.93Zm-44.34-13.49c-.34-1.09-1.28-2-1.58-3.08-1.15-4.12-2.15-8.28-3.21-12.42,4.36.6,9.12.28,13,2,14.55,6.38,14.44,6.62,11.07,23.46C1342.15,555.87,1337.4,553.4,1334.32,543.44Z"/><path class="cls-2" d="M1042.15,638.84c6.25-20.89,2.33-40.13-11.14-57.07-2.73-3.42-7.4-6-11.69-7.35-13.79-4.19-27.67-2.89-40,4.37-4.11,2.42-8,9.47-7.58,14,.35,3.8,6.85,9.56,11,10,9.38.88,19.18-.27,28.52-2.1,7.22-1.42,12.38-.32,15.27,6.35s3.57,14-2.16,19.76c-5.41,5.45-12.21,5.46-18.81,2.26-7.2-3.48-14-7-22.55-3.89-22.34,8.27-22.4,8.11-34.86-12.14-5.44-8.85-11.57-9.6-18.38-1.46a23.28,23.28,0,0,0-5.28,11.76c-1.67,16,3.4,30.05,14.14,42,4.76,5.32,8.73,5.69,13.3-.74,7-9.9,16.63-14.3,29.09-11.83a224.42,224.42,0,0,0,27.85,4.08c9.83.69,19.47-.66,27.08-8.52C1038.11,645.16,1041.12,642.29,1042.15,638.84Z"/><path class="cls-2" d="M1098.62,741.13c-1.69-2.8-5.76-5.91-8.6-5.78s-6.79,3.61-8,6.54c-2.11,5.25-2.5,11.18-3.62,16.82-21.74,1-26-4.29-20.14-25,3.63-12.71,7.3-25.42,11.15-38.07,1.76-5.8,4-11.47,6-17.19l3.5-.17c.93,5.48,2.13,10.94,2.74,16.45,1,9.32,1.1,18.79,2.84,28,.62,3.31,4.87,5.92,7.47,8.85,2.48-2.93,5.78-5.5,7.29-8.87,4.25-9.47-.26-18.69-1.11-28.13-1.68-18.64-12.55-31.82-22.36-45.91-3.53-5.08-7.82-5.16-11.23.16-3,4.67-6.37,9.45-7.85,14.67-4.89,17.24-9.48,34.59-13.27,52.1-4.09,18.93-5.78,37.73,6.49,55.06,9.33,13.16,26.61,18.41,39.37,11S1106.87,754.84,1098.62,741.13Z"/><path class="cls-2" d="M795.15,759.34c4.12,3,9.49,4.32,14.08,6.79,4.09,2.2,8.79,4.17,11.66,7.57,10.45,12.31,30.22,17,43.61,8.64,29.06-18.25,60.92-39,45.1-77-3.38-8.12-9.61-14.06-19.94-12.89-2,.23-4.24-1.3-6.34-2.11-10-3.84-19.73-8.39-30-11.35-7.64-2.21-15,.93-19.27,7.68-9.86,15.44-22.7,26.95-38.63,36.31C781.46,731.24,782.05,749.66,795.15,759.34Zm28.22-41.84c8.92-6,19.51-9.15,31.42-5.73,6.7,1.93,14.89,2.11,19.74,6.22a51,51,0,0,1,14.54,21.34c2.06,6-1.43,13-8.67,16.52-13.8,6.76-27.55,3.57-41.21.21-1.94-.48-2.85-4.59-4.5-6.81-3.22-4.33-5.85-9.69-10.13-12.5C816.62,731.52,815.39,725.6,823.37,717.5Z"/><path class="cls-2" d="M1110.61,670.07c9.49,6.22,20.05,9.28,31,5.87a30.29,30.29,0,0,0,13.82-9.84c4.53-5.74,2.09-10.48-5.09-12.19-4.85-1.15-9.82-1.79-14.72-2.72-11.37-2.15-15.08-7-13.55-18.42a60.46,60.46,0,0,1,3.14-13.67c7.34-19.07,17.84-22.2,34.46-10.94,3,2,6.73,4,10.14,4,9.6,0,15.59,7.74,12.23,16.89-1.82,5-4.42,9.78-5.36,14.9-.79,4.32-1.26,10,.83,13.34,9,14.43,27.39,13.38,36.08-1.22,6.82-11.46,6.11-23,3.58-35.61-2.87-14.37-8.5-22.66-22.71-24.62-6.52-.9-11.69-2.2-14.2-8.91-.58-1.57-2.13-2.77-2.77-3.56-22.47-22.45-58.2-14.2-66.71,15.73-4.79,16.84-6.62,34.57-9.09,52C1100.64,658.8,1103.83,665.63,1110.61,670.07Z"/><path class="cls-2" d="M1014.66,724.51c-7.74-14.41-25.25,3.17-33.87-11.24-9.06-15.14,12.85-19.56,19-30.8a4.84,4.84,0,0,0,.75-2.43c-.09-2.56-3.3-3.64-5.85-3.8-24.6-1.55-53.77,25.68-46.87,51.43,3.38,12.58,14.43,20.4,30.39,20.38,12.6,0,22.9-6.34,34-14.83C1013,731,1015.83,726.67,1014.66,724.51Z"/><path class="cls-2" d="M1144.11,812.48c5.43,4.71,10.89,4.16,15.82-.3,9.24-8.36,11.19-19.12,5.65-30.47-2.56-5.25-6-10.1-8.62-15.32-2.58-5.06-4.71-10.36-7-15.56l2.73-2.5c3.21,1.54,6.46,3,9.62,4.64,6.29,3.29,12.26,7.5,18.9,9.75,4.42,1.49,6.82,2.71,7.89,7.6a53.59,53.59,0,0,0,6.27,16.23,8.9,8.9,0,0,0,14.86.63c5.32-7.47-1-30.64-9.12-35.18-7.54-4.22-14.45-9.57-22-13.82-10.36-5.85-20.67-12.09-31.72-16.32-7.51-2.87-14.91-.12-19.06,8.29C1119.28,748.51,1128.92,799.27,1144.11,812.48Z"/><path class="cls-2" d="M1414.25,899.28c6.81-15.79,3.63-28.43-10.41-42-16.76-15.65-36.27-25.56-59.25-28.39-16.83-2.06-33,9.25-37.78,26.66-5,18.1.31,28.1,18.84,36.87a14.12,14.12,0,0,1,6.84,7.69l.06.18h81.22Q1414,899.81,1414.25,899.28Zm-36.22-3-24.91-5.67c-4.55-9.53-8.06-15.67-10.39-22.23-1.3-3.65-1.86-8.53-.39-11.8.77-1.7,7-2.22,10.16-1.34a147,147,0,0,1,24,8.84c2.19,1,3.84,5.52,3.82,8.42C1380.29,879.29,1379.1,886.12,1378,896.23Z"/><path class="cls-2" d="M1440.37,883.37V859.09C1438.89,865.56,1439,874.4,1440.37,883.37Z"/><path class="cls-2" d="M1184.32,836.68c4.45-2.67,11.06-4.72,14.11-.51,1.27,1.76,1.39,4.13,2.46,6,2.57,4.56,9.69,4.45,13.72,1.1s5.75-8.64,7.27-13.65c.85-2.81,1.7-5.87.61-8.59-5.85-14.69-21.41-14.43-34.45-8.64-7.27,3.22-13.76,8.17-17.36,13.2-2.81,3.94-4.35,10-.7,13.2C1173.9,842.23,1179.87,839.36,1184.32,836.68Z"/><path class="cls-2" d="M1295.81,896.75c-5.77-9.66-9.78-20.35-15.34-30.14-2.57-4.54-6.26-9.7-10.73-11.68-11.62-5.14-24-5-36.1-.59-12.64,4.69-16.74,13.83-11.52,24.8,5,10.47,17.31,14.05,27.71,8.06,10.2-5.89,10.68-6,17.65,3.77a83,83,0,0,1,5.51,9.36h24.8C1297.19,899.14,1296.53,898,1295.81,896.75Z"/><path class="cls-2" d="M461.12,682.39c-1.55-2.86-5.72-6.39-8.28-6.09-3.19.37-7.24,3.84-8.6,7-2.14,4.92-2.33,10.67-3.35,16.1-20.76,2.28-26.09-3.3-20.81-22.73,4-14.74,8.73-29.29,13.22-43.89,1.4-4.56,3.08-9,4.63-13.54l3.08.3c.78,3,2,6,2.27,9,.72,8.48.62,17,1.69,25.46a40.37,40.37,0,0,0,4.54,14.76c3.13,5.51,8,5.37,10.41-.73,2.09-5.29,4.11-11.38,3.51-16.82-2.11-19-6.36-37.55-19-52.78-3.76-4.53-8.36-8.35-12.58-12.49-4.09,5.51-10.26,10.48-11.91,16.64-6.43,24.09-12.14,48.43-16.66,72.95-2.27,12.27,1,24.28,8.35,35.15,9.46,14,26.07,19.41,39.65,11.91C464.41,715.35,469.13,697.12,461.12,682.39Z"/><path class="cls-2" d="M340.93,689.07c14.72-.66,32.8-10.53,40.09-23.55,3.36-6,6.52-19.29-2.69-22.32-3.67-1.21-25.21,9.85-25.3,2.35a3.36,3.36,0,0,1,.54-1.61c2-3.62,5.1-6.55,7.59-9.87s4.47-7.41,3.81-11.52a4.08,4.08,0,0,0-1.25-2.57,4.92,4.92,0,0,0-3.45-.69c-22.9,1.35-61.81,25.6-48.8,52.93C317.27,684.42,327.76,689.65,340.93,689.07Z"/><path class="cls-2" d="M504.52,600.46a18.77,18.77,0,0,0,5.38-12.08c0-2-6-4.17-9.49-5.81-2.07-1-4.55-1.1-6.86-1.48-17.51-2.88-20.81-7.43-17.41-24.84a46.74,46.74,0,0,1,3.94-11.62c7.65-15.47,16.71-17.67,31.09-8.16,3.29,2.18,7.15,5,10.73,4.92,5.17,0,8.8-1.09,11.84,5.16,2.66,5.46,2.64,9.43.45,14.72a98.82,98.82,0,0,0-5.2,18.52,10.85,10.85,0,0,0,1.66,7.34c9.07,13.49,27.36,12.62,35.88-1.29,7-11.36,6.58-22.83,3.94-35.53-3.29-15.82-9.69-23.31-25.73-26.06a15.13,15.13,0,0,1-9.22-5.82c-13.36-20.56-44.16-24.54-62.59-8.17-3.05,5.91-7.39,11.52-8.88,17.8-3.65,15.39-6.25,31-8.77,46.67-2.11,13.06,1.55,20.88,11.2,26.23C479.9,608.39,496.17,608.6,504.52,600.46Z"/><path class="cls-2" d="M255.5,544c13.74-.11,24.94-6.05,34.48-15.39,6.36-6.21,4.82-11.92-4-13.6-4.35-.84-9.15,1-13.71.78-6.82-.31-17.67.14-14.41-9.23,1.84-5.3,7.68-10.78,1.33-16.3-1-.83-2.13-1.38-3-2.27-2.91-2.92-1.67-7.89-3.14-11.74a3.68,3.68,0,0,0-.85-1.39,3.76,3.76,0,0,0-2.13-.82c-4.1-.49-8.14,1.75-10.87,4.85s-4.38,7-6,10.79c-4.89,11.6-11.73,24.27-5.93,36.92C232.72,538.38,242.42,544.08,255.5,544Z"/><path class="cls-2" d="M677.83,814.05c3.39,11.31,11.19,17.66,23.73,18.67,12.86,1,26.65-7.32,31.8-19.26,4.61-10.72,2.46-19.31-7.08-28.5-11.38-10.62-24.63-17.35-40.23-19.27-11.43-1.4-22.38,6.28-25.66,18.1-3.4,12.29.21,19.09,12.8,25A9.6,9.6,0,0,1,677.83,814.05Zm6.69-29.62c.52-1.16,4.73-1.51,6.9-.91a99.76,99.76,0,0,1,16.3,6c1.49.71,2.61,3.75,2.6,5.72,0,4.64-.84,9.28-1.57,16.15l-16.91-3.85c-3.09-6.48-5.47-10.64-7.06-15.1C683.9,790,683.52,786.65,684.52,784.43Z"/><path class="cls-2" d="M208.87,467.79c4.24-4.72,9.59-9.83,12.52-15.46,3-5.87,4.61-13.38,6.75-19.66q7.11-21,13.19-42.23c3.42-12,1.54-24.34-4.71-35.83-8.24-15.17-23.79-22-38.24-15.89-13.82,5.8-20.33,23.27-13.95,39,1.23,3,4.93,7,7.55,7.06,3.17.05,7.66-2.91,9.33-5.85,2.66-4.65,3.45-10.37,5.21-16.2,21.85,1.1,25.44,6.22,17.77,26.18-5.48,14.27-11.58,28.3-17.49,42.39-1.71,4.08-3.75,8-5.63,12l-3.2-.53c-.29-5.93-.79-11.86-.84-17.8-.07-8.79.89-17.67,0-26.35-.38-3.6-4.54-6.79-7-10.17-2.68,2.72-6.06,5.05-7.86,8.26-1.92,3.43-3.41,7.75-3.23,11.59.68,14.28,1.69,28.94,7.26,42.29C189.64,458.67,197.74,480.17,208.87,467.79Z"/><path class="cls-2" d="M664.79,844.57c-1.27-2.72-5.13-3-7.95-2-8.45,3.19-11.8,13.7-19.55,18.35-1.63,1-3.78,1.64-5.35.58a4.58,4.58,0,0,1-1.7-3.48c-.36-4.11,2-8,4.5-11.21,9.65-12.34,8.58-25.74-9.07-20.79-14.32,4-27.45,11.58-35.8,24.19a8.36,8.36,0,0,0-1.73,4.24c-.06,2.42,1.85,4.53,4.06,5.53s4.69,1.18,7.09,1.52c6.8,1,14.11,4.08,16.63,10.47s.13,15.81,6.17,19.36c4.14,2.43,9.37.07,13.45-2.47,7.52-4.68,14.7-10.09,20.25-17s9.36-15.43,9.47-24.29A7,7,0,0,0,664.79,844.57Z"/><path class="cls-2" d="M564.05,807.47c1.58,3.95,5.09,8.59,8.81,9.95,16,5.88,31.45-4.56,43.66-13.68,3.38-2.53,6.94-5.27,8.41-9.24s-.25-9.4-4.39-10.26c-2.36-.5-4.75.59-6.89,1.72-11.38,6-29,29.16-40.13,11.09-7.36-12-2.13-41.92,8.48-51.43,8-7.15,16-6.17,22.59,2.26,2.83,3.6,6,7.55,10,9.49,6.33,3.1,11.33.06,13.3-6.61,3.39-11.43-11.52-29.3-23.43-28.66-3.49.19-8,.61-10.37-1.23-9.18-7.09-17.85-5-26.32.42-16.54,10.65-23.11,31.69-16.41,49.92C555.78,783.23,559.3,795.59,564.05,807.47Z"/><path class="cls-2" d="M598.61,889.25c-.34-1.27-3.06-2.48-4.8-2.71-8.62-1.17-12.69,3.45-12.44,13.79h20.32C600.68,896.63,599.58,892.94,598.61,889.25Z"/><path class="cls-2" d="M757.88,712.13c7.55-12,4.9-25-6.3-34.14-2.15-1.74-3.52-5.08-4.15-7.92-2.5-11.32-9.29-18.76-20.58-19.84-8.19-.79-17.93-1.14-24.75,2.5-18.54,9.91-36.17,21.64-53.45,33.67-2.9,2-2.5,9.14-3.11,14s.58,10.36-1.1,14.78c-5.28,14,3.38,28.25,18.33,29.17,2.81.17,5.91.5,8.3,1.8,20.38,11.09,54,6.65,72.07-11C747.34,728.59,752.67,720.4,757.88,712.13Zm-30.16,13a17.17,17.17,0,0,1-26.94,4.18c-3.24-3-6.28-6.2-9.85-8.69a14.3,14.3,0,0,0-8-2.78c-10.08.34-12.24-.88-8.77-10.26,3.89-10.52,10.07-20.29,15.92-30,3.54-5.88,8.28-6.07,12.41,0,2.92,4.61,5.91,4.19,10.18,1.2,1.83-1.27,6.56-1,8.25.55C732,689.34,735.11,712.26,727.72,725.16Z"/><path class="cls-2" d="M1420.76,21.34c1.43,8.07,6.49,12.52,14.92,12.69a42.74,42.74,0,0,0,4.69-.15V2.3c-2.51,1.08-5.6,2.22-9.4,3.61C1423.44,8.67,1419.33,13.27,1420.76,21.34Z"/><path class="cls-2" d="M1028.82,885c6.47-6.64,5.86-10.72-1.27-16.57-2.92-2.4-6.44-4.29-8.8-7.14-10.1-12.24-24.82-15.46-37.77-6.15-4.08,2.93-6.92,10.23-6.8,15.44.08,3.57,6.1,7.18,9.81,10.38,1.3,1.11,3.62,1,5.52,1.52-.34,1.15-.34,1.85-.69,2.21-5.8,6-7.92,10.94-6.51,15.68h30.34C1018.28,895.48,1023.64,890.27,1028.82,885Z"/><path class="cls-2" d="M820.19,879.48c.56-.9,1.87-1.38,2.9-1.94,17.2-9.36,23.64-24.7,23.24-43.27-.31-13.7-9.64-24-23-26-4.51-.67-5.74-2.77-7.65-6.57-2.1-4.21-6.44-8.92-10.73-10.11-11.65-3.24-22.68-.34-31.88,8-2.29,2.08-4.4,4.37-6.6,6.56l-.24-2.54c-4.38-1.26-11.33-4.8-12.63-3.34-3.45,3.9-6.1,10-6.09,15.14,0,10.12,8.27,14.6,16.29,18.82s12.07-.89,17.47-5.39c5.77-4.79,12.64-8.49,19.48-11.71,5.84-2.76,9.65-1,11,6.41,2,10.65-1.89,19.81-8.06,26.93-4.76,5.49-14.06,12.13-19.55,10.82-11.59-2.77-21.06-2.24-32.4,6.94,1.51-6.93,2.39-11.09,3.33-15.24,1.34-5.89-.66-10.42-5.61-13.64-6.15-4-22.57-4.07-27,.38-7,7-5,15.48-1.58,23A193.91,193.91,0,0,0,736,890.32c2.55,3.88,7.24,7,11.64,8.87,1,.42,2,.79,2.94,1.14H782.3C796.66,896.62,811.4,893.73,820.19,879.48Z"/><path class="cls-2" d="M700.4,880.81c-11.46-4.26-22.58-2.37-32.63,7.46-.73.92-2.63,2.56-3.55,4.63-1.09,2.46-2.11,4.94-3,7.43h57.87C716.81,890.89,709.9,884.33,700.4,880.81Z"/><path class="cls-2" d="M945.22,867.13a22.17,22.17,0,0,1-7.47-9.48c-3.94-10.15-11-15.45-21.64-16.75C901.23,839.08,889,845.3,878,854c-11.3,8.93-21.64,19.09-33,27.91-6.8,5.27-7.93,10.58-5.22,18.35v0H870c3.63-9.84,8-19.43,12.45-28.92,2.41-5.12,6.5-5.64,10.51-1.35,3.72,4,7,5.59,11.74.86,1.42-1.43,7-1.39,8.15,0,7.32,8.74,13.67,18,14.38,29.37h25c1-2.29,1.86-4.62,2.65-7C958.39,882.73,953.52,873,945.22,867.13Z"/><path class="cls-2" d="M1096.28,899.76a60.48,60.48,0,0,1,3.15-13.67c7.34-19.07,17.84-22.2,34.46-11,3,2,6.73,4,10.13,4,9.61,0,15.6,7.74,12.24,16.88-.53,1.44-1.12,2.86-1.72,4.29h38.58a87.47,87.47,0,0,0-1.73-12.87c-2.88-14.38-8.5-22.66-22.71-24.62-6.52-.9-11.69-2.2-14.2-8.91-.59-1.57-2.14-2.77-2.77-3.56-22.47-22.45-58.2-14.21-66.71,15.73-3.17,11.14-5,22.66-6.66,34.23h17.88C1096.25,900.14,1096.26,900,1096.28,899.76Z"/><path class="cls-2" d="M231.21,884.14c-4.8-18.22-13-30.28-24.93-39.93-8.94-7.26-22.64-6.35-31.37,2-9.35,8.9-9.81,16.72-2.12,28A9.32,9.32,0,0,1,174,880.9c-1.82,7.07-1.07,13.69,2.19,19.43h54.05C232.78,895.5,233,890.23,231.21,884.14Zm-28.61,9.4c-11.78-5.56-13.4-8.8-11.22-19.89.44-2.22-.59-4.74-.12-6.95.56-2.66,1.37-6.21,3.27-7.32,1.41-.83,5.42,1,7.08,2.76A90.85,90.85,0,0,1,212.23,876c.88,1.39.17,4.56-.89,6.23C208.85,886.11,205.7,889.61,202.6,893.54Z"/><path class="cls-2" d="M140.65,894.55c-1.68-2.8-5.76-5.9-8.6-5.78s-6.79,3.62-8,6.55a33.74,33.74,0,0,0-1.52,5h20.72A27.81,27.81,0,0,0,140.65,894.55Z"/><path class="cls-2" d="M703,19.29c.62,3.06,5.28,5.3,8.09,7.91,2.08-2.61,4.9-4.91,6.1-7.88a37.84,37.84,0,0,0,2.26-19H700.83A157.42,157.42,0,0,0,703,19.29Z"/><path class="cls-2" d="M496.29,898.26c-5.76-1.13-11.55-2.13-17.29-3.34-7.17-1.51-12.37-5.78-11.41-13.28,1.06-8.29,2.77-17,6.48-24.35,6.7-13.36,15.59-14.81,28.12-6.77,3.83,2.46,8.2,5.75,12.31,5.72,5.38,0,8.92-.57,11.85,5.4,2.47,5,3.17,8.91.63,13.88a65.62,65.62,0,0,0-4.6,12.37c-1.46,5.25-1.64,9.19-.34,12.44h37.28c6.46-10.88,6.53-22,3.74-34.4-3.95-17.5-9.7-24.25-26.92-26.8a12.43,12.43,0,0,1-7.76-5.11C515,812.67,484,808.4,465.79,825.36c-2.55,4.23-6.47,8.17-7.42,12.73-4.13,19.76-8.26,39.59-10.65,59.6a18.2,18.2,0,0,0-.12,2.64h53.59A10.44,10.44,0,0,0,496.29,898.26Z"/><path class="cls-2" d="M268.36,900.33h90.87a105.38,105.38,0,0,0-53.47-22.61C290,875.78,274.82,885.18,268.36,900.33Z"/><path class="cls-2" d="M745,16.41c.08,3.57,6.1,7.18,9.81,10.37,1.3,1.12,3.62,1,5.52,1.53-.34,1.14-.34,1.84-.69,2.21-7.8,8.11-8.94,14.17-3.84,20.53s13,6.85,21.85-.07a224,224,0,0,0,22-20.15c6.47-6.64,5.86-10.72-1.27-16.58-2.92-2.4-6.44-4.28-8.8-7.13A35.39,35.39,0,0,0,782.16.33H752.69c-.32.21-.63.41-.94.64C747.67,3.9,744.83,11.2,745,16.41Z"/><path class="cls-2" d="M447,44.63a24.4,24.4,0,0,1-1,13.78c-5.19,13.51,3,27.67,17.43,29.32,3.4.39,7.13.74,10,2.34,19.63,10.85,54.34,5.85,72.06-12,4.87-8.05,11.07-17.82,16.67-27.93,1.45-2.62,1.27-6.27,1.44-9.46C564.48,25,545.9,19.19,545.13,4c-.06-1.25-1.18-2.49-2.62-3.68H496c-14.17,8.57-27.86,18-42.05,26.52C446.56,31.29,445.08,36.63,447,44.63Zm30.47,0c4.09-8.65,9.77-16.59,15.21-24.54,3.1-4.54,7.17-5.09,10.62-.11s6.9,6.34,12.1,1.75c1.25-1.11,6.51-.22,7.49,1.31,7.66,12,14.25,24.39,9.42,39.5-5.43,17-23.52,19.44-32.16,8.18C494.54,63.4,487,58,474.33,64.71,475.55,56.23,475.1,49.78,477.51,44.68Z"/><path class="cls-2" d="M1245.83,602.74c-3.38,5.87-2.6,12.63,3.31,16.6,6.28,4.21,7,10,8,16.52,2.74,17.07,5.19,34.31,9.84,50.89,3.77,13.42,12.85,19.09,23.58,18.81,13.82-.35,26.56-8.89,30.78-20.64,2.36-6.56,4.25-12.74,11.91-16.25,6.57-3,8.6-10.63,6.69-17.64-.84-3-4.34-6.7-7.36-7.55-6.63-1.89-11.91,1.69-15.64,7.27-2.61,3.91-5,7.94-7.51,12-3.55,5.79-8.52,6.51-14.5,4.42-6.53-2.27-5.06-6.26-3.3-11.22,1-2.72.44-6.46-.62-9.29-2.35-6.31-5.48-12.32-8.24-18.47-3.88-8.68-4.23-17.39-.76-25.92,8.21.69,15,2.16,21.46,1.45,3.62-.4,9.41-4.25,9.62-6.9.28-3.64-2.84-9.38-6.16-11.16C1286,574.41,1259.05,579.8,1245.83,602.74Z"/><path class="cls-2" d="M334.17,15.36c1.5,1.57,6.1,2.78,7,1.87,6.88-6.76,12.78-4.43,19.49.35,5.62,4,11.8,3.35,16.88-1.57,4.84-4.69,4.91-10.31,2.76-15.68H330.8C329.5,5.88,329.93,10.93,334.17,15.36Z"/><path class="cls-2" d="M126.55,876.12c.63,3.3,4.88,5.92,7.47,8.85,2.48-2.94,5.78-5.51,7.29-8.88,4.25-9.46-.26-18.68-1.11-28.13-1.67-18.63-12.54-31.82-22.35-45.91-3.54-5.08-7.82-5.15-11.24.16-3,4.67-6.36,9.46-7.84,14.68-4.89,17.23-9.49,34.59-13.27,52.1-2.29,10.56-3.82,21.08-2.6,31.34h15a51.86,51.86,0,0,1,2.4-13.18c3.63-12.72,7.31-25.42,11.15-38.08,1.77-5.8,4-11.46,6-17.19l3.49-.16c.93,5.48,2.13,10.93,2.74,16.45C124.75,857.48,124.82,867,126.55,876.12Z"/><path class="cls-2" d="M243.87,871.14c5.43,4.72,10.89,4.17,15.82-.29,9.24-8.36,11.19-19.12,5.65-30.47-2.56-5.25-6-10.1-8.62-15.32-2.58-5.07-4.71-10.36-7-15.56l2.73-2.5c3.21,1.54,6.46,3,9.62,4.64,6.29,3.29,12.26,7.5,18.9,9.74,4.42,1.5,6.82,2.72,7.89,7.61a53.69,53.69,0,0,0,6.27,16.23,8.91,8.91,0,0,0,14.86.63c5.32-7.47-1-30.65-9.12-35.18-7.54-4.22-14.45-9.57-22-13.82-10.36-5.85-20.67-12.1-31.72-16.32-7.51-2.87-14.91-.13-19.06,8.29C219,807.17,228.68,857.94,243.87,871.14Z"/><path class="cls-2" d="M240.16,615.06c-1.83,5-4.42,9.78-5.36,14.9-.79,4.32-1.26,10,.83,13.34,8.94,14.43,27.39,13.38,36.08-1.22,6.82-11.46,6.11-23,3.58-35.61-2.88-14.38-8.51-22.66-22.71-24.62-6.52-.9-11.7-2.2-14.2-8.91-.59-1.57-2.14-2.77-2.78-3.56-22.46-22.45-58.19-14.2-66.71,15.73-4.78,16.84-6.62,34.56-9.08,52-1.09,7.7,2.11,14.53,8.88,19,9.5,6.22,20.05,9.28,31,5.87a30.27,30.27,0,0,0,13.83-9.84c4.53-5.74,2.09-10.48-5.09-12.19-4.85-1.15-9.82-1.79-14.73-2.72-11.37-2.15-15.07-7-13.55-18.42a60.48,60.48,0,0,1,3.15-13.67c7.33-19.07,17.84-22.2,34.46-10.94,3,2,6.73,4,10.13,4C237.53,598.19,243.52,605.91,240.16,615.06Z"/><path class="cls-2" d="M160.59,788.31c1.22,1.15,3.14,1.53,4.06,2,30.1,10.14,58.46-13.1,52.8-43.71-3.18-17.21-9.41-33.91-14.94-50.62-2.44-7.38-8.33-12.08-16.38-13.05-11.27-1.36-22.08.58-30.41,8.51a30.24,30.24,0,0,0-8,15c-1.51,7.16,2.78,10.32,10,8.67,4.86-1.12,9.6-2.75,14.41-4.1,11.14-3.12,16.61-.42,20.31,10.49a59.91,59.91,0,0,1,3.25,13.65c1.89,20.34-6.13,27.81-26,25.1-3.55-.49-7.81-.6-10.86.9-8.62,4.25-17.41,0-18.46-9.7-.57-5.26-.38-10.72-1.81-15.73-1.21-4.23-3.3-9.49-6.67-11.59-14.42-9-30.48.17-31.79,17.11-1,13.29,4.72,23.29,12.6,33.5,9,11.6,17.68,16.53,31.28,12C150.15,784.55,155.37,783.41,160.59,788.31Z"/><path class="cls-2" d="M819.59,20.49c1.55,8.71,7,13.52,16.11,13.7,11.86.24,22.08-3.65,31.63-11.56,2.86-5.54,6.61-10.82,8.41-16.68A49.3,49.3,0,0,0,877.1.33H839.84c-2.54,1-5.58,2.17-9.23,3.5C822.48,6.81,818,11.78,819.59,20.49Z"/><path class="cls-2" d="M1050.16,96.76c-4.64,4.94-5.42,11.7-.58,16.92,5.15,5.53,4.49,11.29,4,17.92-1.25,17.24-2.82,34.58-2.09,51.78.59,13.93,8.14,21.53,18.64,23.72,13.53,2.83,27.89-2.57,34.69-13,3.81-5.85,7.06-11.43,15.33-13.1,7.08-1.42,10.8-8.37,10.54-15.63-.11-3.16-2.69-7.52-5.42-9-6-3.36-12-1.09-16.9,3.49-3.43,3.21-6.73,6.57-10.05,9.92-4.78,4.81-9.78,4.37-15.13,1-5.83-3.71-3.49-7.25-.63-11.67,1.56-2.43,1.9-6.19,1.52-9.19-.84-6.68-2.51-13.25-3.78-19.87-1.79-9.34-.14-17.89,5.2-25.4,7.83,2.55,14.06,5.53,20.56,6.33,3.61.44,10.13-2,10.94-4.51,1.11-3.48-.62-9.79-3.44-12.27C1095.76,78.39,1068.29,77.46,1050.16,96.76Z"/><path class="cls-2" d="M989.84,203.12c6.3,3.29,12.27,7.5,18.91,9.75,4.42,1.49,6.82,2.71,7.88,7.6a53.87,53.87,0,0,0,6.28,16.23,8.9,8.9,0,0,0,14.86.63c5.32-7.47-1-30.64-9.13-35.18-7.54-4.22-14.44-9.57-22-13.82C996.31,182.48,986,176.24,974.94,172c-7.5-2.87-14.91-.12-19.05,8.29-9,18.36.6,69.12,15.8,82.32,5.42,4.72,10.89,4.17,15.81-.29,9.25-8.36,11.2-19.12,5.66-30.47-2.57-5.25-6-10.1-8.62-15.32-2.59-5.06-4.71-10.36-7-15.56l2.74-2.5C983.44,200,986.69,201.48,989.84,203.12Z"/><path class="cls-2" d="M924.06,311.9c1.47,1.26,4.09,1.18,6.22,1.72-.38,1.29-.38,2.08-.78,2.49-8.77,9.14-10.07,16-4.32,23.12s14.65,7.72,24.61-.08a254.12,254.12,0,0,0,24.76-22.69c7.29-7.48,6.6-12.07-1.43-18.67-3.29-2.7-7.25-4.82-9.91-8-11.38-13.78-28-17.41-42.53-6.93-4.6,3.3-7.8,11.52-7.66,17.39C913.11,304.24,919.88,308.31,924.06,311.9Z"/><path class="cls-2" d="M1042.08,307.43c8.81-1.72,12.23,4.5,16.11,10.47a15.72,15.72,0,0,0,6,5c6.08,3,12.53.11,14.23-6.11,3-11.12-11.55-28.83-23-28.36-3.7.15-8.2,0-11.06-1.86-7.75-5.13-15.11-4.29-22.5-.24-17.68,9.68-25.42,31.53-18.45,50.53,4.32,11.77,7.73,23.9,12.54,35.46,1.69,4.06,5.71,8.55,9.7,10,16.58,6.11,37.44-6.41,39.41-26.57L1044.74,366c-11.52,5.83-20.32,2.2-21.4-10.54-.88-10.33.37-21.09,2.39-31.31C1027.37,315.85,1032.75,309.25,1042.08,307.43Z"/><path class="cls-2" d="M905.5,129.85c-1.09,7.7,2.1,14.52,8.88,19,9.49,6.22,20,9.28,31,5.87a30.24,30.24,0,0,0,13.82-9.84c4.53-5.74,2.09-10.48-5.08-12.19-4.85-1.15-9.82-1.79-14.73-2.72-11.37-2.15-15.08-7-13.55-18.42A60.46,60.46,0,0,1,929,97.85c7.34-19.07,17.85-22.2,34.46-10.95,3,2,6.73,4,10.14,4,9.61,0,15.59,7.74,12.24,16.88-1.83,5-4.43,9.79-5.36,14.91-.8,4.32-1.26,10,.83,13.34,8.94,14.43,27.39,13.38,36.08-1.22,6.81-11.46,6.1-23,3.57-35.61-2.87-14.38-8.5-22.66-22.71-24.62-6.52-.9-11.69-2.2-14.2-8.91-.58-1.57-2.13-2.77-2.77-3.56-22.47-22.45-58.19-14.21-66.71,15.73C909.79,94.7,908,112.42,905.5,129.85Z"/><path class="cls-2" d="M1220.68,548.53c2,4.32,7.3,9.72,11.34,9.92a50.16,50.16,0,0,0,22.66-4.73c6.4-3,11.81-8.67,10.43-19.57-7.23,3.78-13.48,7.1-19.78,10.31-8.11,4.13-15.66,1.06-17.63-7.73-2.62-11.76-1.81-23.49,3.56-34.41,6.41-13,17.59-13.73,26.34-2.36a17.78,17.78,0,0,0,8.2,6.08c5.76,1.76,11.3-1.28,10.27-7.05-1.31-7.4-3.92-18.32-9-20.5-11.3-4.79-24.52-5.13-37-7.07-1.22-.2-2.76.91-4,1.65-12.74,7.47-23.92,27.19-16.13,45C1214.19,527.89,1216.22,538.76,1220.68,548.53Z"/><path class="cls-2" d="M1218.84,452.13c6.89-.57,13.55-4.2,20.43-4.67,12.13-.83,21.18-6.15,28.51-15.41a17.06,17.06,0,0,1,6-5.05c9.9-4.38,15.4-12.67,19.48-21.92,10.06-22.82,2.09-39.7-22.12-48.12a7.74,7.74,0,0,1-3.91-3.9c-4.78-10.83-10.83-14.42-22.76-13.17-11.45,1.19-20.42,6.83-25.65,13.86-6.43-1.61-14.3-5-15.36-3.56-3.22,4.48-4,10.81-5.29,16.52-.33,1.46.82,3.39,1.61,4.94,6.75,13.29,20.5,15.63,32,6.52,6.32-5,13.84-8.74,21.27-12,4.72-2.07,7.94.17,9.16,6,2.35,11.25-1.74,20.84-8.57,28.43-4.72,5.25-13.91,11.91-18.87,10.44-11.6-3.43-21-2.43-32.27,6.6,1.38-6.61,2.24-10.41,3-14.23,1.63-8.62-1.39-14.49-9.28-16.21a51.13,51.13,0,0,0-15.75-.91c-8,.8-12.19,6.06-11.49,13.95a46.23,46.23,0,0,0,4.1,15.11c2.43,5.25,6.79,9.6,9.25,14.84C1190.09,446.89,1200.32,453.66,1218.84,452.13Z"/><path class="cls-2" d="M1021.31,514.73c11.54.24,21.48-3.55,30.76-11.24,2.78-5.39,6.43-10.52,8.18-16.22,5.45-17.7-.87-34.5-5.36-51.27-.48-1.82-4.81-3.59-7.43-3.69-10.5-.39-14.5,6.85-12.52,21.79,3,23,3.1,23.16-18.58,31.11-7.9,2.9-12.22,7.73-10.72,16.2S1012.46,514.55,1021.31,514.73Z"/><path class="cls-2" d="M1108.37,373.39c-3.79-5-13.6-6.7-21-7.4-4.86-.46-11.12,3-7.38,10.62,4,8.25.56,13.72-5.76,18-10.06,8.93-11.79,18.93-4.86,26.43,6.43,6.95,20.47,7.73,27.33.11,6.41-7.12,13.33-15.15,15.84-24C1114.6,390,1112.79,379.27,1108.37,373.39Z"/><path class="cls-2" d="M1277.69,52.87c-3.25-2.68-7.17-4.78-9.79-7.95-11.25-13.62-27.63-17.21-42.05-6.85-4.54,3.27-7.71,11.39-7.58,17.2.09,4,6.79,8,10.92,11.54,1.45,1.25,4,1.17,6.15,1.7-.38,1.27-.38,2-.77,2.46-8.67,9-10,15.78-4.27,22.86s14.48,7.63,24.33-.08a249.61,249.61,0,0,0,24.47-22.44C1286.31,63.92,1285.63,59.38,1277.69,52.87Z"/><path class="cls-2" d="M1431.26,195.71c-8.64,14.18-20.21,24.64-34.69,32.9-5.3,3-9.78,10.42-11.28,16.63-3.15,13.06,6.45,24.12,22.28,27.48,5.38,1.15,9.25,2.87,12.67,7.89,4.31,6.35,12,10.64,20.13,12.29V263.34l-1.4-.15c-1.77-.2-4-3.17-4.64-5.28-2.25-7.44-5.89-13-13.62-16.08-2-.81-4-6.22-3.25-8.75,2.47-8.65,12.2-14.56,22.91-15.66V187.06A22.17,22.17,0,0,0,1431.26,195.71Z"/><path class="cls-2" d="M1370.84,298.22c-14.84,7.68-24.48,20.26-27.71,36.85-2,10.22,2.32,17.07,11.29,20.52,9.63,3.71,19.28,1.38,24.29-7.16,2.58-4.38,2.68-10.15,4.48-15.08,1-2.71,3.08-7,4.87-7.1,9.18-.55,18.42,0,27.65.21.27,1.05.55,2.1.82,3.15-1.68,2.52-3.48,5-5,7.58-4.15,7.13-8.77,14.07-12.11,21.57-3.12,7-1.66,14.27,4.49,19,5.51,4.26,11.46,6.22,19.29,2.79,10.14-4.43,14.32-12.88,17.18-21.62V311.8c-4.66-5.82-12-6.62-19.7-7.48-11.51-1.28-22.84-4.19-34.32-5.92C1381.22,297.63,1374.92,296.11,1370.84,298.22Z"/><path class="cls-2" d="M1188.1,38.08c-16.49-16.26-34.09-23.46-53.65-26.36-13.37-2-28.12,8.63-32.12,22.75-4.44,15.69.28,24.91,15.82,32.17a12.66,12.66,0,0,1,6.16,6.54c5.22,15.61,14.74,23.26,31.17,24.23,17,1,33.54-9.53,40-25.44C1201.23,57.87,1198.5,47.66,1188.1,38.08Zm-24.59,29.37c-14.61,3.17-20.67,0-24.6-12.7-.43-1.38-1.63-2.53-2-3.92-1.46-5.25-2.74-10.56-4.09-15.85,5.56.77,11.64.36,16.58,2.53C1168,45.65,1167.81,46,1163.51,67.45Z"/><path class="cls-2" d="M1374,664.39c3.41.34,7.14.63,10.06,2.19,14.91,7.94,38.21,6.75,56.27-2.06V643.29c-6.88,12.39-22,13.47-29.87,3.57-5.77-7.28-13.38-12.52-26-5.66,1.09-8.49.54-14.94,2.87-20.07,3.95-8.71,9.51-16.74,14.82-24.78,3-4.58,7.09-5.2,10.62-.27s7,6.23,12.12,1.56c1.24-1.13,6.51-.32,7.52,1.19a96.94,96.94,0,0,1,7.88,13.77V569.77c-9.95-2.85-20-2.49-28.89,2.83-16.32,9.8-31.81,21-48,31.07-7.28,4.55-8.68,9.92-6.59,17.88a24.43,24.43,0,0,1-.78,13.8C1351.18,648.93,1359.56,663,1374,664.39Z"/><path class="cls-2" d="M1280.2,170.86c-3.81,12.93,1,21.69,13,24.07,11.37,2.27,21.62-5.45,23-17.37,1.39-11.7,1.62-12.12,13.59-11.88,5.43.11,10.84,1.31,18.57,2.33-3.23,4.82-5.12,7.35-6.7,10.06-3.7,6.31-7.79,12.47-10.7,19.13s-1,13.16,4.69,17.35c4.82,3.52,10.11,6,16.92,2.45,13.63-7,17.65-19.17,19.38-32.85.84-6.65,1.51-13.33,1.92-20a12.42,12.42,0,0,0-1.6-5.7c-4.23-8.7-11.76-11-20.9-12-11.18-1.15-22.15-4.34-33.32-5.75-5.18-.66-11.51-.79-15.77,1.61C1291.21,148.53,1283.83,158.54,1280.2,170.86Z"/><path class="cls-2" d="M1199,258c5.9-6.73,8.44-13.75,8.11-22.37-.57-14.56-18-20.17-18.42-35-.06-2.12-3.46-5.28-5.89-6-7.73-2.21-16-5.57-23.57-4.59-9.26,1.2-18.63,5.28-26.86,10-12.17,7-23.18,16-35.07,23.55-7.2,4.56-8.84,9.88-6.57,17.88a21.4,21.4,0,0,1-.62,13c-6.07,14.86,2.56,29,18.8,30a18.64,18.64,0,0,1,7.51,1.71c20.68,11.16,53.58,6.9,73-11.65C1191.58,270.91,1194.22,263.52,1199,258Zm-25.64,6.84c-5.7,10.74-18.45,12.92-27.3,4.56-7.22-6.81-13.74-15.16-27.78-8.3.82-7.34.15-13.19,2.26-17.76,4.14-9,9.54-17.41,15-25.72,3.33-5.1,7.75-6.32,11.82-.31,3,4.36,5.88,5.79,10.73,1.81,1.62-1.33,6.63-.88,8.35.67C1177.25,229.6,1180.38,251.71,1173.4,264.87Z"/><path class="cls-2" d="M1135.53,315.12c-10.56-1.12-21.42,6.68-24.44,17.47-3.16,11.28,0,20.14,9.75,24.15,4.84,2,8,4,8.32,9.59.1,1.86,1.48,3.85,2.74,5.4,7.13,8.8,16.57,11.94,27.49,9.9,12.78-2.39,22-9.23,25.72-22.37,3-10.72-.77-18.95-6.86-23.75C1164.59,323,1151.09,316.78,1135.53,315.12Zm14.13,44.18c-3.54-1.32-7.3-3.38-9.65-6.21s-3.42-7-4.53-10.69c-.78-2.62-1.79-6.13-.66-8,.87-1.45,5.16-1.88,7.52-1.26,5.55,1.48,13.24,2.37,15.68,6.25,3.13,5,2,12.68,2.77,20.44C1155.73,359.65,1152.38,360.32,1149.66,359.3Z"/><path class="cls-2" d="M1187.66,114.79a47.36,47.36,0,0,0-23.87,30.37c-3.3,12.31,2.09,21.17,13.49,23.1,11.9,2,23.15-5.54,22.4-17.52-.73-11.53,5.25-12.08,13.06-11.77,5.73.22,11.43,1.36,18.89,2.31-6.07,10.18-11.55,18.15-15.75,26.74-4.35,8.92-1.47,17.58,5.83,21.45,7.69,4.08,19,.92,24.29-5.48,12-14.34,8.71-32.2,12.11-48.49.23-1.1-1.25-2.54-1.9-3.84-4.71-9.45-13-11.24-22.72-12-10-.78-19.89-3.83-29.92-5.23C1198.31,113.71,1191.86,112.55,1187.66,114.79Z"/><path class="cls-2" d="M1253,815.61a20.83,20.83,0,0,1,8.23,2.28c20.24,10.91,54.59,5.93,72.2-11.92,4.91-8.16,11.78-17.67,16.59-28.12,4.69-10.16.91-20.32-6.7-27.11a22.1,22.1,0,0,1-6.38-10.23c-2.81-10.53-9.25-16.57-19.67-19-14.6-3.44-27.42,1.41-39.35,8.88-12.21,7.65-23.6,16.61-35.88,24.13-7.33,4.5-9,9.65-7.19,17.68a25.67,25.67,0,0,1-.75,14C1228.58,800.89,1237.1,814.53,1253,815.61Zm10.84-37.89c4.93-10.17,10.72-20,16.64-29.6,3-4.82,7.08-4.89,10.59-.19,3.26,4.36,6.34,6.33,11.58,2.14,1.57-1.26,7.07-.61,8.1.94,7.72,11.59,13.93,23.8,9.81,38.56-4.23,15.12-20.88,22.11-32.41,9.16-6-6.69-12.5-12.93-25.19-6.35C1263.21,786,1262.14,781.18,1263.81,777.72Z"/><path class="cls-2" d="M28.44,899.85c12.61,0,22.9-6.35,34-14.84.7-2.21,3.58-6.55,2.42-8.71-1.58-2.94-6-5-9.66-5.95-3.15-.79-7,0-10.25,1.15-6.08,2.11-12.53,2.59-15.94-2.78-5.8-9.13,12.15-22.55-6.75-26.36-6.09-1.22-10.46,1.67-14.74,5.77a34.68,34.68,0,0,0-7.16,9.93v27.23C5.24,894.41,15.13,899.86,28.44,899.85Z"/><path class="cls-2" d="M361.18,53.56a7.7,7.7,0,0,1-3.91-3.9c-4.79-10.83-10.83-14.42-22.76-13.17a40.67,40.67,0,0,0-20.13,8.16c-4.21,3.09-9.2,7.2-12.26-.18-1.94-4.68-1.35-10.06-3-14.86a2.63,2.63,0,0,0-1-1.49c-1-.63-2.31.2-3.14,1.08-3.64,3.85-5.44,9.14-6,14.41-.67,6.35-2.09,19,.75,24.65,6.76,13.28,20.51,15.62,32,6.52,6.33-5,13.85-8.75,21.28-12,4.72-2.08,7.94.16,9.16,6,2.34,11.25-1.75,20.84-8.57,28.43-4.73,5.25-13.91,11.91-18.87,10.44-11.61-3.43-20.95-2.43-32.28,6.6,1.39-6.61,2.24-10.41,3-14.23,1.62-8.62-1.4-14.49-9.29-16.21a51.42,51.42,0,0,0-15.75-.91c-8,.8-12.18,6.07-11.48,13.95A46.33,46.33,0,0,0,263.07,112c2.44,5.24,6.8,9.59,9.25,14.83,7.81,16.7,18.05,23.46,36.57,21.93,6.89-.57,13.54-4.2,20.43-4.67,12.12-.82,21.17-6.15,28.51-15.41a17,17,0,0,1,6-5.05c9.89-4.38,15.4-12.67,19.48-21.92C393.36,78.86,385.39,62,361.18,53.56Z"/><path class="cls-2" d="M184.63,11.42c1.89,9.37,4.41,17.89,14,23.15,20.95,11.55,20.77,11.86,11.32,33.92-.12.29-.22.59-.34.88C204.76,81,209,87.52,221.68,87a25.26,25.26,0,0,0,12.42-3.68c13.64-9.1,22-22,25.09-38.17,1.57-8.24-.76-12.37-10.11-11.88-12.75.67-22.33-5-28.23-16.54-2.8-5.47-5.39-11.08-8.5-16.36H178.64C181.66,2.82,183.72,6.88,184.63,11.42Z"/><path class="cls-2" d="M549.42,105.71c-3.76,13.06.91,21.73,12.79,24.25,11.66,2.49,21.18-4.57,23.1-17.1,1.78-11.68,3.15-13,15-12.3a81.63,81.63,0,0,1,17.92,3.25c-18.74,12.18-24.62,43.7-24.94,64.56-.07,4.78.67,10.44,4.89,12.7,5.77,3.08,12.18-2.77,15.8-8.22,14-21.15,51.24-87,5.07-91.38-10-1-19.89-3.84-29.92-5.16-5.53-.73-12.31-1.9-16.69.49A47,47,0,0,0,549.42,105.71Z"/><path class="cls-2" d="M509.64,142.66c-18.89,10.3-36.89,22.43-54.54,34.86-3,2.08-2.67,9.28-3.36,14.16s.42,10.46-1.34,15c-5.56,14.21,3,28.49,18.06,29.18,2.84.13,6,.41,8.36,1.69,20.42,10.89,54.44,5.88,73-12.23,4.34-6.68,9.86-15,15.25-23.48,7.82-12.25,5.35-25.39-5.83-34.4-2.14-1.72-3.48-5.07-4.07-7.94-2.34-11.39-9.09-18.8-20.48-19.72C526.43,139.08,516.59,138.87,509.64,142.66Zm24.75,72.78c-5.94,10.17-18.82,12.36-27.28,4.65-3.23-2.94-6.26-6.17-9.83-8.63a14.05,14.05,0,0,0-8.06-2.68c-10.2.5-12.35-.7-8.71-10.23,4.1-10.7,10.5-20.66,16.56-30.55,3.67-6,8.47-6.26,12.54-.18,2.88,4.62,5.9,4.14,10.27,1.06,1.87-1.32,6.65-1.08,8.33.42C539.24,179.18,542.06,202.3,534.39,215.44Z"/><path class="cls-2" d="M377.07,178.47c-2.11.14-4.43-.79-6.46-1.66-9.06-3.87-17.78-8.79-27.14-11.61-9.88-3-18.89.44-24.43,9.53-8.64,14.18-20.21,24.64-34.68,32.9-5.31,3-9.79,10.42-11.29,16.63-3.15,13.07,6.45,24.12,22.29,27.49,5.37,1.14,9.24,2.86,12.66,7.88,8.51,12.52,30.06,17.06,42.63,9.06,11.84-7.53,23-16.21,34.38-24.39-.24-.35-.48-.69-.73-1,1.46-1.46,2.87-3,4.38-4.37,17.26-15.91,15.81-28.91,7.15-48.5C392.42,182.68,386.39,177.83,377.07,178.47Zm-6.89,61.88c-2.62,1-6.94,4-11.28,4a272.78,272.78,0,0,1-32.15-2.15c-1.77-.2-4-3.17-4.64-5.28-2.25-7.44-5.89-13-13.62-16.08-2-.8-4-6.22-3.25-8.74,3.5-12.25,21.52-19,36.32-14.4,6.94,2.15,14,3.95,21,5.87C373.29,206.5,379.43,230.53,370.18,240.35Z"/><path class="cls-2" d="M164.13,68.44c4.55.39,11-2.19,13.74-5.65,2.38-3,2.7-10.52.51-13.67a114.57,114.57,0,0,0-21-23.39c-6.74-5.51-9.12-11.57-4.29-17.51A32.3,32.3,0,0,1,162.75.33H136.68c-4.65,6.92-7.87,14.54-8.72,22C126,39.6,146.88,67,164.13,68.44Z"/><path class="cls-2" d="M93.78,682c14.94,4.38,29.69,2.89,42.75-6.48,7.05-5.06,8.76-12.44,5.48-20.26-5.66-13.51-21.48-15.86-32.76-5.15-1.87,1.77-6,3.73-7.51,2.86-7.83-4.66-14-11.1-17.41-21.19,3.61-.8,6.65-1.34,9.63-2.15,7.3-2,15.39-2.8,21.57-6.66,4.36-2.72,8.2-9.56,8.46-14.74.28-5.78-2.68-11.87-10.57-14.11-13.17-3.74-23.85.71-34,8-6.37,4.56-12.35,9.68-18.32,14.77-1.17,1-1.54,3-2.14,4.58-3.76,10,.91,17.16,7,24.62,6.59,8,11.71,17.24,17.84,25.66C86.66,675.55,89.79,680.78,93.78,682Z"/><path class="cls-2" d="M82,800.43c6.25-20.88,2.33-40.12-11.14-57.06-2.72-3.43-7.39-6.06-11.68-7.36-13.79-4.19-27.68-2.89-40,4.37-4.1,2.42-8,9.48-7.57,14,.35,3.8,6.84,9.56,11,10,9.39.87,19.19-.28,28.53-2.11,7.22-1.41,12.37-.31,15.27,6.36s3.56,14-2.16,19.76c-5.41,5.44-12.21,5.46-18.82,2.26-7.19-3.48-14-7.06-22.54-3.9-12.43,4.6-18,6.59-22.57,4v27.08c5.73-3.73,12.55-5,20.58-3.41a226,226,0,0,0,27.85,4.07c9.82.69,19.47-.66,27.07-8.52C78,806.75,81,803.89,82,800.43Z"/><path class="cls-2" d="M28.26,30c2.64-4.17,2.65-11.3,1.31-16.41-2.13-8.16-7-8.68-12.3-1.76C13.16,17.1,10.14,23.23,6.45,28.87A27,27,0,0,1,.37,35.44V57.19A86.48,86.48,0,0,0,28.26,30Z"/><path class="cls-2" d="M858.16,274.1c10.28,14.5,29.31,20.28,43.38,12.09s19.33-29.48,10.24-44.59c-1.85-3.09-6.34-6.51-9.47-6.37s-7.49,4-8.79,7.21c-2.32,5.78-2.75,12.32-4,18.53-24,1.11-28.7-4.72-22.2-27.53,4-14,8-28,12.29-41.95,2-6.39,4.4-12.63,6.62-18.94l3.85-.18c1,6,2.35,12,3,18.12,1.14,10.27,1.22,20.7,3.13,30.8.69,3.64,5.37,6.52,8.23,9.75,2.73-3.23,6.36-6.07,8-9.78,4.68-10.43-.29-20.59-1.23-31-1.84-20.53-13.82-35.06-24.62-50.58-3.9-5.6-8.62-5.68-12.38.18-3.31,5.14-7,10.41-8.65,16.16-5.38,19-10.45,38.12-14.62,57.41C846.5,234.28,844.63,255,858.16,274.1Z"/><path class="cls-2" d="M1256.88,2c-.11-.56-.18-1.1-.25-1.64H1229c6.13,5.25,13.59,7.94,22.1,8.28C1255.82,8.8,1257.82,7.09,1256.88,2Z"/><path class="cls-2" d="M909.75,12.29c4.54,5.23,9.38,3.49,10.91-3A89.51,89.51,0,0,0,922.22.33H902.64C903.47,4.44,906.84,9,909.75,12.29Z"/><path class="cls-2" d="M1080.67,3.7c4.61,1.41,9.09,0,10.69-3.37h-16.51A16.9,16.9,0,0,0,1080.67,3.7Z"/><path class="cls-2" d="M1304.18,50.75c4.77,5.31,8.73,5.68,13.31-.75,7-9.9,16.62-14.3,29.08-11.83a224.57,224.57,0,0,0,27.86,4.08c9.82.69,19.47-.66,27.07-8.52,2.1-3.14,5.1-6,6.13-9.46A63.78,63.78,0,0,0,1410.31.33h-16.09a14.4,14.4,0,0,1-4.29,11.85c-5.42,5.45-12.21,5.47-18.82,2.27-7.19-3.49-14-7.06-22.54-3.9-21.62,8-22.38,8.11-33.68-10.22H1293A21.6,21.6,0,0,0,1290,8.71C1288.38,24.72,1293.44,38.76,1304.18,50.75Z"/><path class="cls-2" d="M740.56,300c11.37,2.27,21.61-5.45,23-17.37,1.4-11.7,1.62-12.12,13.59-11.88,5.44.11,10.84,1.31,18.58,2.32-3.24,4.83-5.12,7.36-6.7,10.07-3.7,6.31-7.79,12.47-10.71,19.13a13.74,13.74,0,0,0,4.7,17.35c4.82,3.52,10.11,6,16.92,2.45,13.63-7,17.65-19.17,19.38-32.86.83-6.64,1.51-13.32,1.91-20a12.18,12.18,0,0,0-1.6-5.7c-4.22-8.71-11.75-11-20.89-12-11.19-1.16-22.15-4.34-33.33-5.75-5.17-.66-11.51-.79-15.77,1.6-11.08,6.24-18.45,16.24-22.08,28.57C723.78,288.81,728.64,297.56,740.56,300Z"/><path class="cls-2" d="M872.82,75.27c3.9,2.21,6.47,1.66,7.34-3.53s1.88-10.46,4-15.15c1.69-3.69,4.77-5.7,8.71-.85,5.38,6.61,12.38,5.63,14-2.7C918.87-10.38,839.33,56.26,872.82,75.27Z"/><path class="cls-2" d="M619.35,31.18c-5.64,5.24-10.83,5-16.22,1-8.94-4.79-17.36-3.22-21.07,3.68s-.12,18.21,8.16,21.46a79.16,79.16,0,0,0,22.09,5.16c8.27.69,14.85-4,18.11-11.48,2.77-6.36,3.13-13.53-2.63-18.73C626,30.65,620.74,29.9,619.35,31.18Z"/><path class="cls-2" d="M1415.55,62.77c-13.39,6.78-17.93,13.58-16.23,28.66a11.92,11.92,0,0,1-2.68,8.37c-14.67,16.16-11.12,43.66,7,55.64,6.78,1.22,13.61,3.67,20.34,3.42,5.46-.21,10.92-.58,16.37-1.06V141.08a57.05,57.05,0,0,1-12.72-1.14c-11.23-2.45-14.25-9.57-11.07-20.57,1.32-4.57,3.07-9.67,2.22-14.07-1.61-8.31,3.12-15,11.76-14.37,3.28.25,6.54.77,9.81,1.06V56.64C1431.64,55.81,1423.75,58.62,1415.55,62.77Z"/></g></svg>