<svg xmlns="http://www.w3.org/2000/svg" viewBox="0 0 1440 900"><defs><style>.cls-1{fill:#303c78;}.cls-2{fill:#ff4133;}</style></defs><title>Wunderkind_Patterns_WEB-Cropped</title><g id="Backgrounds"><rect class="cls-1" width="1440" height="900"/></g><g id="Color"><path class="cls-2" d="M645,308.74a14.48,14.48,0,0,0-3.67.06c-1.69.46-4.29-.06-4.48,2.62-.18,2.44,2.2,2.87,3.82,3.77a7.86,7.86,0,0,0,2,.68c11.77,2.79,23.51,5.66,35.32,8.28a100.12,100.12,0,0,0,12,1.61c2.56.25,4.7-1,5.27-3.45.7-3-2.18-3-4-3.66-1.49-.51-3-.84-4.56-1.25C672.9,313.71,659.31,309.44,645,308.74Z"/><path class="cls-2" d="M663.78,510c14.1-1.48,28.18-3.2,42.27-4.83,3.72-.43,5.36-2.3,4.15-6.47-16-1.25-31.44.5-46.89,2.73-2.92.42-6.15.93-5.91,4.5C657.63,509.26,660.88,510.27,663.78,510Z"/><path class="cls-2" d="M629,359.46a13.34,13.34,0,0,0,9.91,2.68c13.79-1.41,27.17-5.05,40.71-7.83,2.5-.51,5.59-1.45,4.59-5.12-.91-3.37-3.23-4.52-6.87-3.65-12.78,3-25.65,5.71-38.4,8.86C635.53,355.23,631.64,355.73,629,359.46Z"/><path class="cls-2" d="M682.92,435.51C673.21,432,663.1,430,653,427.89c-2.73-.55-5.45-1.54-8.25-.49-2.06.78-4.87,1.19-5,3.88s2.4,3.74,4.63,4.24c4.77,1.06,9.6,1.87,14.42,2.76,7.56,1.39,15,3.66,23,4.16,1.87-.36,4.78.26,5.43-2.59C687.9,436.76,684.91,436.24,682.92,435.51Z"/><path class="cls-2" d="M683.38,472.4c-2.16-3.28-5.48-3.82-8.42-4.4-13.42-2.61-26.89-4.95-40.35-7.32a5.74,5.74,0,0,0-6.4,3.2c1.6,3.46,4.73,4.33,7.71,5.28,13.13,4.21,26.84,5.14,40.39,6.91C678.93,476.41,681.39,475.06,683.38,472.4Z"/><path class="cls-2" d="M785.1,224.62c1.18,2.62,3.38,2.86,5.3,3.6,10.39,4,21.32,5.27,32.24,6.74,5.84.79,7.44-.33,8.61-7.08-12.91-2-25.53-5.62-38.63-6.54A7.86,7.86,0,0,0,785.1,224.62Z"/><path class="cls-2" d="M794.12,188.5c1.3.62,2.23,1.43,3.18,1.45,14.17.28,28.37,1.18,42.45-1.33,2.83-.51,4.72-1.87,3.88-5.49s-3.67-3.4-5.69-2.92c-7.47,1.77-15,1.3-22.49,1.24-4.91,0-9.86-.16-14.6,1.37C798.11,183.7,795.16,184.56,794.12,188.5Z"/><path class="cls-2" d="M595.25,409c-3.22.78-6,2-6,6.38,1.59,1.31,3.23,1.15,4.76,1.16,13.93.08,27.58-2.55,41.26-4.63,3.58-.54,6.62-3.44,7.62-7.79-6.75-2-12.9.57-19.13.71A134.06,134.06,0,0,0,595.25,409Z"/><path class="cls-2" d="M685.33,270c-6.94.93-13.93,1.33-20.9,1.95a126.12,126.12,0,0,0-22.76,4c-3.17.89-5.41,2.4-5.21,6.27,1.83,1.52,3.66,1.12,5.37,1.13,13.56.06,26.83-2.76,40.2-4.5a9.77,9.77,0,0,0,7.87-7.33A4.68,4.68,0,0,0,685.33,270Z"/><path class="cls-2" d="M572.35,272.58c.29,1.91,2,2.16,3.66,2.18,13.51.22,26.92-1.39,40.37-2.27,2.23-.14,5-1.14,4.92-3.83s-2.95-3-5.17-3.37c-6.3-1-12.6-.1-18.9.68-5.22,0-10.44-.15-15.65.06-2.53.1-5.17,0-7.43,2A4.8,4.8,0,0,0,572.35,272.58Z"/><path class="cls-2" d="M612.4,240.1c6.09.84,7.45-.11,8.75-7-13-2.06-25.64-5.62-38.78-6.61a7.37,7.37,0,0,0-7.33,3.47c1.32,2.64,3.59,2.76,5.49,3.53C590.76,237.59,601.63,238.6,612.4,240.1Z"/><path class="cls-2" d="M87.18,272.08c-12.66-.9-25.25.69-37.86,1.39-4.22.23-6.37,2.58-5.21,7.63a24.79,24.79,0,0,0,4.84.74c12.46-.61,24.92-1.23,37.37-2.11,2.84-.2,6-.89,6.77-4.46C91.81,272.67,89.33,272.23,87.18,272.08Z"/><path class="cls-2" d="M26,492.2c1,.13,2.1,0,4.35,0,12.08-1.39,25.34-2.85,38.57-4.52,2.47-.32,5.7-.7,5.25-4.52-.41-3.36-3.29-2.5-5.42-2.6-14.47-.65-28.73,1.5-43,3.22-2.39.29-4.75,1.43-4.78,4.07C20.93,490.81,23.38,491.88,26,492.2Z"/><path class="cls-2" d="M51.37,242.86c-11.3,1.59-22.47-1.1-33.69-.65-4.34.17-8.86.55-11.59,5.27,1.71,2.65,4.15,2.58,6.34,2.73,9.83.69,19.65,1.36,29.49,1.78a54.84,54.84,0,0,0,10-.85c2.42-.36,4.11-1.47,4.08-4.51C55.92,243.22,53.35,242.58,51.37,242.86Z"/><path class="cls-2" d="M48.05,531.74c7,1.47,14.08,2.76,21.13,4.08,4.64.86,9.19,2.26,14,2.1,2.61-.08,4.91-.48,5.72-3.8-3.75-3.11-7.93-4.3-12.13-5.39-8.8-2.29-17.59-4.61-26.63-5.78-3.83-.49-8.39-.27-9.18,3.6C40.13,530.64,44.9,531.08,48.05,531.74Z"/><path class="cls-2" d="M66.37,598.81c10,4.08,20.66,5.4,31.27,6.91,6.66.94,7.7.54,9.77-6.11-2.29-2-5.33-1.64-8-2.12-10.67-1.94-21.08-5.54-32.13-5.13-2.35.09-5.25.14-5.68,2.69C61.08,598.08,64.38,598,66.37,598.81Z"/><path class="cls-2" d="M895.87,32.59c-6.94,1.87-14.06,3-21,4.77-8.63,2.15-17.46,3.85-25.27,9.2,1.32,3.38,3.26,4.36,6.31,4.52,6.93.37,12.91-2.84,19.29-4.51,7.78-2,15.83-3.11,23.23-6.45,2-.9,4.58-2,3.4-5C900.79,32.58,898.92,31.76,895.87,32.59Z"/><path class="cls-2" d="M625.2,524.64a13.81,13.81,0,0,0-1.28-2,7.16,7.16,0,0,0-2-1.69c-13.15-6-27.27-7.47-41.45-8.4-1.75-.11-4.56.56-4.86,3.19s2.33,3.3,4.16,4a112.28,112.28,0,0,0,39.15,7.09A8.59,8.59,0,0,0,625.2,524.64Z"/><path class="cls-2" d="M575.5,607.79c-.45,3.15,3.24,2.88,5.38,3.77,10,4.14,20.76,5.05,31.36,6.57,6.11.87,7.4.08,9-6.89-7.11-1.37-13.83-2.56-20.5-4A120.38,120.38,0,0,0,582,604.58C579.5,604.44,575.92,604.84,575.5,607.79Z"/><path class="cls-2" d="M107.64,381.59c.53-1.26,1-2.68-.46-3.84s-2.42-.61-3.81.08a71.7,71.7,0,0,1-13.72,5.37c-8,2.08-16,4.16-23.87,6.68-4.34,1.39-9.12,2.52-12.06,7.06,2.35,2.51,4.63,1.58,6.56,1.48,14.21-.77,27.57-5.33,41-9.48C104.73,387.88,106.33,384.71,107.64,381.59Z"/><path class="cls-2" d="M5.89,307.9c13,3.86,26.39,5.46,39.84,6.66,3.14.28,5.86-.56,7.64-3.77-1.8-2.47-4.56-3-7.24-3.74-12.54-3.33-25.52-4.28-38.2-6.92-2.91-.61-6.76-2-8.38.64V305C.87,306.7,3.86,307.3,5.89,307.9Z"/><path class="cls-2" d="M40.62,434.77c12.86,6.91,27,9.94,41,13.3,3.24.78,6.16-.86,8.71-2.86,1.28-1,2.43-2.12,1.71-4-.63-1.67-2-1.5-3.44-1.64a78.3,78.3,0,0,1-16-2.95c-7.23-2.19-14.51-4.32-21.88-5.95-4.55-1-9.38-2.69-14.24-.11C38.47,433.56,38.45,433.6,40.62,434.77Z"/><path class="cls-2" d="M573.28,484.75c3.05-.28,8.17-.13,8-4.2-.16-4.43-5.29-4.73-8.81-4.63-8.94.25-17.87-.1-26.79.09-5.74.12-12,0-17.56,4.29a10,10,0,0,0,6.72,3.95A182.76,182.76,0,0,0,573.28,484.75Z"/><path class="cls-2" d="M942.12,11.75c-3.55-.7-7.29-1.35-11-.56-1.57.34-3.93-.2-4.24,2.21s2,2.63,3.47,3.36c6.38,3.23,13.41,3.93,20.35,4.88C961,23.05,971,26.16,981.35,26.46c3.29.1,6.41-.26,7.63-4.91-2.68-1-5.09-2-7.6-2.74C968.53,15.19,955.17,14.35,942.12,11.75Z"/><path class="cls-2" d="M1420.4,112.7c-.16,2.33,1.74,3.38,3.56,4a19.14,19.14,0,0,0,4.28.48l11.31-1.28v-9c-5.11.58-10.23,1.27-15.33,2A4.21,4.21,0,0,0,1420.4,112.7Z"/><path class="cls-2" d="M1427.74,73c.13,3.46,3.15,4.59,6,4.84l5.84.51V69.55q-3.3-.21-6.59-.45C1430.46,68.91,1427.63,69.71,1427.74,73Z"/><path class="cls-2" d="M1410.11,197.19c.63,3.46,3.87,3.55,7,4l22.46-2.71v-8.86c-8.15.68-16.28,1.86-24.42,2.78C1412.61,192.65,1409.47,193.64,1410.11,197.19Z"/><path class="cls-2" d="M1417.53,632.06a184.32,184.32,0,0,0,22,4.24v-9.51c-3.54-.58-7.08-1.17-10.64-1.61-5.89-.71-12.22-1.76-18.38,1.65A10.24,10.24,0,0,0,1417.53,632.06Z"/><path class="cls-2" d="M1363.3,123.33c-2.84.39-6.25.9-5.93,4.51s3.87,4.48,6.89,4.16c13.91-1.5,27.8-3.31,41.7-4.92,3.78-.44,5.35-2.23,4.21-6.41C1394.19,119.21,1378.74,121.21,1363.3,123.33Z"/><path class="cls-2" d="M1383.63,159.66c-4.64-.81-9.36-1.7-14.1-.65-1.73.39-3.61,1-3.57,3.22a3.66,3.66,0,0,0,3.43,4c1,.13,2,.6,3,.76,12,2,24.1,2,36.19,2.36,3.85.13,6.45-2.12,8.6-5.92-4.09-2.37-8.12-2.51-12.12-2.62C1397.94,160.57,1390.76,160.91,1383.63,159.66Z"/><path class="cls-2" d="M1410.21,575.55c.46,4.15,3.88,4.8,6.81,4.47,7.52-.86,15-1.83,22.53-2.81v-9.48c-8,.69-16,1.86-24,2.95C1413,571,1409.77,571.62,1410.21,575.55Z"/><path class="cls-2" d="M889.19,71.59c1.86,3.63,5,4.2,7.77,4.39,12.4.89,24.83,2.32,37.25.22,3.16-.54,7.89-.41,7.7-4.48-.19-3.72-4.79-3.82-8.09-4.25a4.53,4.53,0,0,0-.52,0c-10.51.11-21,0-31.52.41C897.52,68,893.06,68.32,889.19,71.59Z"/><path class="cls-2" d="M1426.26,487.87c0,2.94,2.42,4,5,4.33,1,.13,2.1,0,4.35,0l3.89-.45v-9c-2.84.35-5.67.71-8.51,1.05C1428.65,484.09,1426.29,485.23,1426.26,487.87Z"/><path class="cls-2" d="M1423,242.21c-4.34.17-8.86.55-11.59,5.27,1.71,2.65,4.15,2.58,6.34,2.73,7.27.51,14.55,1,21.82,1.4v-8.67A145.71,145.71,0,0,0,1423,242.21Z"/><path class="cls-2" d="M1404.31,302.18c-.94,4,4,4.86,6.88,5.72a167.32,167.32,0,0,0,28.36,5.48v-8.87c-8.76-1.54-17.61-2.57-26.32-4.38C1409.91,299.44,1405.36,297.66,1404.31,302.18Z"/><path class="cls-2" d="M1439.55,353v-9.7a45.39,45.39,0,0,0-11.14,5.43C1430.8,354.39,1435.22,354,1439.55,353Z"/><path class="cls-2" d="M1142.88,91c-5.75,1.1-11.53,1.12-17.33,1.13-6.49,0-13-.54-19.43,1.08-3.13.79-6,1.85-7.39,5.37a3.7,3.7,0,0,0,3.85,2.09c13.83,0,27.69.76,41.44-1.36,2.41-.37,4.78-1.29,4.24-4.82S1145.38,90.48,1142.88,91Z"/><path class="cls-2" d="M1093.38,51.16c-10.47-3.09-21.32-4.34-32.08-5.93-3.22-.48-6.25.49-8.93,3.5,1.85,3.43,5,4.22,7.94,5.16a115.27,115.27,0,0,0,32.08,5.71c3.32.11,8.76,1.42,9.33-2.06C1102.41,53.35,1096.94,52.22,1093.38,51.16Z"/><path class="cls-2" d="M1055.42,3.05c-10.35-.12-20.72-.11-31.05.42-4.14.21-8.77.2-12.44,3.84a7.69,7.69,0,0,0,6.33,4.22c12.6.8,25.22,2.33,37.84.37,3.33-.52,8.61-.1,8.54-4.19C1064.55,3,1059.11,3.1,1055.42,3.05Z"/><path class="cls-2" d="M981.89,64.22c-1.57.5-3.18,1.08-3.21,3A3.59,3.59,0,0,0,981.59,71c1.19.28,2.35.7,3.56.92,12,2.19,24.1,1.86,36.17,2.45,3.85.19,6.44-2.21,8.49-5.49-1.81-2.35-4-2.15-6.08-2.51-9-1.62-18.19,0-27.25-1.68C991.74,63.85,986.81,62.65,981.89,64.22Z"/><path class="cls-2" d="M140.14,566.53c2.26-.52,4.15-1.49,3.67-4.71s-2.86-4-4.88-3.51c-11.15,2.43-22.47.36-33.62,1.63-4.25.48-8.73,1.21-11.17,5.89,2,2.59,4.37,2.45,6.62,2.44,9.84,0,19.68,0,29.51-.21A49.55,49.55,0,0,0,140.14,566.53Z"/><path class="cls-2" d="M1228.89,203.91c.79,3.37,4,3.9,6.78,3.61,13.94-1.45,27.85-3.08,41.77-4.74,3.61-.43,5.42-2.27,3.81-6.29a23.29,23.29,0,0,0-3-.59c-15.15-1.08-30.06,1.44-45,3.22C1230.79,199.42,1228.16,200.75,1228.89,203.91Z"/><path class="cls-2" d="M1346.25,185.32c-1.7-.08-3.43.57-5.15.86-9.22,1.52-18.57-.56-27.8.91-4.33.69-8.74,1.18-11.11,6.08a7.44,7.44,0,0,0,6.08,2.33c11.91,0,23.82.05,35.71-1a24,24,0,0,0,4.1-.8c2.57-.7,4.34-1.72,3.7-5.13C1351.11,185,1348.51,185.41,1346.25,185.32Z"/><path class="cls-2" d="M1266.12,154.77c5.57,7.74,40.55,14.11,49.65,9C1310.94,155,1273.7,148.23,1266.12,154.77Z"/><path class="cls-2" d="M1229.94,161.33q-21.54-1.49-43.08-2.74c-1.95-.12-4.13.45-4.39,2.87-.32,2.84,1.65,3.93,4.14,4.51,12.79,3,25.89,2.13,38.85,3,3.45.22,6.06-2.27,7.93-5.23A3.74,3.74,0,0,0,1229.94,161.33Z"/><path class="cls-2" d="M1358.82,235.27c11.54-3,23-6.13,34.54-9.27a16.51,16.51,0,0,0,3.88-1.62c1.88-1.11,4.56-1.95,3.33-5-1.1-2.74-3.23-3.2-6-2.52-9,2.2-18.13,4.11-27.15,6.34-6.62,1.64-13.2,3.52-19.09,7.72C1350.47,236.05,1354.49,236.38,1358.82,235.27Z"/><path class="cls-2" d="M1137.84,127.92c2.45,3.38,5.81,4.6,9.21,5.28,9.61,1.93,19.29,3.53,28.93,5.34,6,1.13,12,2.54,18.21,2.2,3-.16,5.44-1,5.65-4.55C1185.72,129.05,1144,123.36,1137.84,127.92Z"/><path class="cls-2" d="M72.08,342.2c2.09-1,4.36-2.22,3.23-5.11s-3.43-3-6.14-2.38c-6.3,1.51-12.66,2.74-18.94,4.31-9.29,2.34-18.86,4-27.12,9.67,2.48,5.91,7.14,5.29,11.63,4.15,10.69-2.72,21.31-5.69,31.94-8.61A33.44,33.44,0,0,0,72.08,342.2Z"/><path class="cls-2" d="M305.29,524.18c1.5-1.5,3.12-3.15,1.74-5.48-1.19-2-3.09-.92-4.75-.68-1.38.21-2.77.41-4.15.57-12.22,1.44-24.53-.34-36.75,1-3.73.42-7.69.25-10.64,3.73,1.39,2.29,3.25,2.24,4.9,2.65,14.18,3.52,28.6,1.91,42.94,2C301.35,528,303.42,526.05,305.29,524.18Z"/><path class="cls-2" d="M292.32,184c-2.08.26-4.13.8-6.21,1-12.25,1.17-24.57-.47-36.81,1-3.47.41-7,.62-9.86,3.37.21.78.2,1.3.4,1.39a18.42,18.42,0,0,0,3.36,1.38c14.53,3.67,29.33,2.25,44,2.13,3.46,0,6-2.73,8-5.48.82-1.13,1.38-2.46.4-3.9S293.5,183.88,292.32,184Z"/><path class="cls-2" d="M113.78,469.41a5.53,5.53,0,0,0,3.21,2.77c11.71,4.47,24,6.46,36.36,7.57,4.92.43,6.74-2.37,6.6-7.17-12.46-2-24.48-5.2-36.85-6.48C119.43,465.73,116.23,466.31,113.78,469.41Z"/><path class="cls-2" d="M108.35,424.87c1.23,3.37,4,4.45,6.65,5q21.58,4.47,43.26,8.49c2.47.46,5.46.9,6.09-3,.58-3.64-2.12-3.85-4.46-4.45-14.62-3.71-29.61-5.38-44.43-7.95C113.05,422.51,110.56,422.6,108.35,424.87Z"/><path class="cls-2" d="M125.32,334.75c-3.48-.11-7.32-.85-10.16,2.47,1.54,2.7,3.75,3.72,6.44,4.35,8,1.87,16,4.1,24,5.87,7.54,1.66,15.17,2.9,22.76,4.32,3.19.59,5.37-1,5.86-3.85S172,345,170,344.45c-3.05-.8-6.08-1.69-9.13-2.51C149.15,338.77,137.55,335.14,125.32,334.75Z"/><path class="cls-2" d="M257.47,227.45c2.22,4.23,6.5,5.16,10.39,6,8.38,1.81,16.89,3,25.34,4.51,6.38,1.12,12.66,2.93,19.2,2.93,3.15,0,6.44-.17,7.3-4.25C310.78,230.24,265,223.4,257.47,227.45Z"/><path class="cls-2" d="M212.83,241.07c-14.13,3.31-28.49,5.62-42.35,10-2.22.71-4.83,1.05-6.19,3.93A13.21,13.21,0,0,0,175,257.72a355.78,355.78,0,0,0,40-8.15c2.61-.68,5.09-1.45,4.32-4.64S216.11,240.31,212.83,241.07Z"/><path class="cls-2" d="M347.42,498.94c.8-4.11-3.87-5.77-7.09-6.32-11.93-2-23.15-7.13-35.31-7.95-2.88-.2-5.95-.9-8.5,1.31,1.66,3.29,2.38,4.33,4.76,5.25a179,179,0,0,0,37.56,10C341.82,501.73,346.6,503.19,347.42,498.94Z"/><path class="cls-2" d="M391.71,478.41a4.46,4.46,0,0,0,5-3.72c.58-2.42-1.63-2.8-3.27-3.24-14.22-3.74-28.21-8.5-42.93-10-4.22-.42-8.71-1.19-12.89,1.93,1.43,3.52,4.13,4.37,6.85,5.05,8.5,2.1,17,4.2,25.55,6.14C377.16,476.23,384.32,478,391.71,478.41Z"/><path class="cls-2" d="M402.15,400.88c.44-1.91-1.29-2.69-2.52-3.6a20.83,20.83,0,0,0-7.15-3.17c-10.16-2.74-20.59-4-31-5.66-3.36-.53-6.5.52-9.34,3.85,4.8,4.86,10.75,5.79,16.44,7.16,9.72,2.34,19.56,3.92,29.62,3.27C399.76,402.63,401.68,402.88,402.15,400.88Z"/><path class="cls-2" d="M364.36,182.29c-14.79-3.81-30-5.18-44.36-8.23-3,.82-6.85-1.1-7.39,2.23s3.32,4.19,5.93,4.77c14.69,3.27,29.41,6.46,44.32,8.61,2.11.3,4.3.44,4.87-2.55C368.26,184.29,367,183,364.36,182.29Z"/><path class="cls-2" d="M411.65,217.33c0-4.5-5.94-4.88-9.38-4.5-11.22,1.25-22.48-.85-33.62.86-3.32.51-7,.48-9.69,3.81,2.49,3.44,6.11,4.15,9.77,4.3,11.22.45,22.46,1.54,33.67.13C406,221.47,411.71,222,411.65,217.33Z"/><path class="cls-2" d="M221.44,281.15c-3.55.41-7.33.24-10.06,3.64,1.39,2.29,3.26,2.28,4.9,2.69,14.18,3.49,28.61,2,43,1.95,3.46,0,6-2.65,8-5.38a3.31,3.31,0,0,0,.42-3.93c-.92-1.44-2.43-1.1-3.81-.9-1.9.28-3.78.74-5.69.91C246,281.21,233.66,279.75,221.44,281.15Z"/><path class="cls-2" d="M478,513.64c6.39,1.19,12.72,2.91,19.24,2.91,2.51,0,5.91-.25,6.25-3.69.32-3.17-3.06-3.09-5-3.66-15.06-4.44-30.63-6.11-46.05-8.51-3.43-.54-7.37-1.12-11.11,2.16,3.23,4.26,7.59,5.37,11.78,6.27C461.34,510.88,469.7,512.1,478,513.64Z"/><path class="cls-2" d="M399,555.4c13.14,1.12,26.29,2.16,39.43.22,2.92-.43,7.51-.11,7.17-4.3-.31-3.9-4.76-3.82-8-4.32a4.58,4.58,0,0,0-.53,0c-10.17.06-20.37-.23-30.52.33-4.63.26-9.84.16-13.67,4C395.21,553.92,396.88,555.22,399,555.4Z"/><path class="cls-2" d="M533.53,541.49a7.36,7.36,0,0,0-6.11-2.66c-12.24-.17-24.41-1.29-36.59-2.3-3-.24-7.75-1.41-8.18,3.22-.46,5,4.65,4.53,7.78,5,11.27,1.83,22.71,1.53,34.08,2.25C528.64,547.3,531.26,544.92,533.53,541.49Z"/><path class="cls-2" d="M460.18,589.94c13.13,4,26.73,5.57,40.36,6.77a7.23,7.23,0,0,0,7.45-3.6c-2.11-2.35-4.53-3.11-7.09-3.81-12.55-3.43-25.56-4.31-38.23-7-3.39-.73-8.06-2.09-9.23,1.85S457.28,589.05,460.18,589.94Z"/><path class="cls-2" d="M402.12,515.81c1.95-1,4.5-2.1,3.31-5.09-1.11-2.81-3.42-3-6.16-2.39-7.68,1.83-15.44,3.37-23.11,5.27s-15.66,3.8-22.81,8.56c2.85,4.84,5.28,5.85,10.87,4.42,10.69-2.74,21.35-5.62,32-8.52A29.2,29.2,0,0,0,402.12,515.81Z"/><path class="cls-2" d="M192,698.36c14.36,3.45,28.93,2.23,43.46,1.9,3.32-.07,5.15-2.72,7.28-4.7a3.47,3.47,0,0,0,1-4.28c-1-2-2.54-1.25-4.1-1a86.18,86.18,0,0,1-18.3,1.35,223.06,223.06,0,0,0-23.13.37c-3.69.26-8.12-.16-10.83,4C188.8,698.06,190.5,698,192,698.36Z"/><path class="cls-2" d="M160.14,508c-.25-2.81-3-3.07-5.3-3.22-12.82-.83-25.59.38-38.37,1.18-4.19.26-5.45,3.12-5.2,7.42a11.74,11.74,0,0,0,2.69.82c13.88.47,27.66-1.32,41.48-2.23C157.61,511.84,160.41,510.91,160.14,508Z"/><path class="cls-2" d="M166.13,627.18q19.67-3.43,39.2-7.56c2.39-.5,6.22-1.32,5.07-5.29-1-3.57-3.86-4.45-7.58-3.58-9.37,2.2-18.88,3.87-28.21,6.24-6.51,1.65-13.41,2.51-19.77,7C158.47,627.63,162.42,627.82,166.13,627.18Z"/><path class="cls-2" d="M367.83,563.22c-.15-2.52-2.25-2.5-3.8-2.9-14.26-3.7-28.91-5.36-43.4-7.82-2.7-.46-5.94-1.12-8.39,1.47.52,3.38,3.19,4.31,5.63,4.9,15,3.64,30.07,6.58,45.29,8.94C366.5,568.33,368,566.6,367.83,563.22Z"/><path class="cls-2" d="M259.59,655.77c.88-1.18,1.41-2.54.48-3.89s-2.35-1-3.8-.76a80.83,80.83,0,0,1-15.69,1.57c-8.08-.13-16.17-.19-24.24.17-4.36.19-9.07.09-13.08,3.77,1,1,1.3,1.47,1.75,1.62a35.65,35.65,0,0,0,4.52,1.37c13.91,3,28,1.91,42,1.6C255.07,661.14,257.54,658.5,259.59,655.77Z"/><path class="cls-2" d="M307,620.8a21.61,21.61,0,0,0,9.92-.27,3.47,3.47,0,0,0,2.8-2.82c.24-2-1.37-2.24-2.6-2.74a31.78,31.78,0,0,0-5-1.67,411.62,411.62,0,0,0-42.41-7.18c-3.9-.45-8.26-1.24-12.07,1.35,2.7,3.86,5.93,5.68,13.61,7.11Q289.06,617.9,307,620.8Z"/><path class="cls-2" d="M543.71,434.69c-1.69.46-4.28-.06-4.48,2.62-.18,2.44,2.2,2.86,3.82,3.76a7.76,7.76,0,0,0,2,.69c11.77,2.79,23.52,5.66,35.32,8.28a100,100,0,0,0,12,1.6c2.55.26,4.69-1,5.26-3.44.7-3-2.17-3-4-3.66-1.49-.51-3-.84-4.56-1.25-13.71-3.69-27.3-8-41.62-8.66A14.56,14.56,0,0,0,543.71,434.69Z"/><path class="cls-2" d="M406.44,339.6c-.94,4,4,4.87,6.88,5.73,13,3.85,26.39,5.46,39.84,6.65,3.14.28,5.85-.56,7.64-3.77-1.81-2.47-4.57-3-7.24-3.73-12.55-3.33-25.53-4.29-38.2-6.93C412,336.86,407.49,335.09,406.44,339.6Z"/><path class="cls-2" d="M398.45,442.4c3.66,2.07,7.19,1.9,10.64,1.87,8.77-.08,17.54-.23,26.3-.54a44.67,44.67,0,0,0,8.84-1.2c2.38-.58,4.69-1.51,4-5-.57-3.12-2.77-3.73-5-3.3-10.64,2-21.4.48-32,1.38C406.53,436,401.27,436.31,398.45,442.4Z"/><path class="cls-2" d="M376.5,243.6c-7.8,2-15.67,3.6-23.51,5.41-6.83,1.57-13.6,3.37-19.87,6.64-1.17.62-2.91.94-2.72,2.76a4.15,4.15,0,0,0,3,3.35,25.1,25.1,0,0,0,4.26.76,60.94,60.94,0,0,0,6.05-1.27c9.5-3,19.15-5.43,28.85-7.68a33.25,33.25,0,0,0,6.81-2.65c1.95-.95,3.78-2.37,2.68-4.92C381,243.64,379.26,242.89,376.5,243.6Z"/><path class="cls-2" d="M480.52,294.17c-13.15.05-26.18-1.86-39.28-2.41-2.42-.1-5.5,0-5.89,3.08-.42,3.39,2.59,4.12,5.23,4.71,1.19.27,2.4.51,3.61.69,10.46,1.5,21,1.24,31.53,2.07,4.7.38,8.11-1.43,10.76-5.61A6.91,6.91,0,0,0,480.52,294.17Z"/><path class="cls-2" d="M357.09,291.76c-3.55.55-7.39.45-10.47,3.83,2.55,3.68,6.16,4.19,9.54,4.35,11.55.55,23.13,1.47,34.69.12a22.37,22.37,0,0,0,6.56-1.72c3.19-1.45,3.14-3.56.25-5.41a12.7,12.7,0,0,0-8.57-2.07C378.43,292.57,367.7,290.1,357.09,291.76Z"/><path class="cls-2" d="M311.81,350.83a10.33,10.33,0,0,0,8.1,4.09c12.24.72,24.5,2.16,36.77.24a17.69,17.69,0,0,0,6.49-1.94c2.58-1.52,2.46-3.15.24-4.86a11.94,11.94,0,0,0-8.49-2.18c-10.52,1-21.07-.35-31.55.61C319.52,347.15,315.31,347.19,311.81,350.83Z"/><path class="cls-2" d="M531.12,329.38c-4-.14-8.08-.05-12.12-.05,0-.16,0-.32,0-.49-10.3,1.1-20.61,2.14-30.89,3.33-3,.34-6.79.9-6.33,4.76s4.21,4.38,7.48,4.07c9.43-.89,18.85-1.95,28.26-3.05,4.71-.55,9.4-1.27,14.07-2.08a3.71,3.71,0,0,0,3.36-4C534.89,329.09,532.72,329.44,531.12,329.38Z"/><path class="cls-2" d="M569.8,398.64a8.39,8.39,0,0,0-3.14-.26c-11.58.35-23.16.7-34.73,1.13-4.59.18-7.06,2.51-6.69,8.42,15.18.59,30-.87,44.77-2.3,2-.2,4.37-1.23,4.19-3.9C574,399.29,571.5,399.29,569.8,398.64Z"/><path class="cls-2" d="M467.39,471.14c9.43-.9,18.85-1.95,28.26-3.06,4.7-.55,9.39-1.27,14.06-2.07a3.72,3.72,0,0,0,3.37-4c0-2.74-2.22-2.4-3.82-2.45-4-.14-8.07,0-12.11,0l0-.49c-10.3,1.1-20.6,2.13-30.89,3.33-3,.34-6.79.89-6.33,4.76S464.11,471.45,467.39,471.14Z"/><path class="cls-2" d="M461.47,423.7c6.16,1.29,12.38,2.24,18.56,3.44,5.49,1.07,11,2.3,15.17,3.19,4-.36,7.76.82,8.46-2.79.65-3.39-3.19-3.82-5.46-4.53-6-1.88-12.09-3.49-18.22-4.86-5.92-1.31-11.73-3.66-18-2.86-2.56.33-5.78.78-5.81,4.12C456.18,422.31,459.11,423.21,461.47,423.7Z"/><path class="cls-2" d="M488,377.3c-.16-3.91-3.47-2.8-5.61-2.91-13.2-.73-26.21,1.27-39.26,2.85-3.44.42-8.24.12-8,4.68.28,4.84,5,4.35,8.74,4l.52-.06,0,.24c12.69-1.53,25.38-3,38.05-4.62C485,381.14,488.15,381.1,488,377.3Z"/><path class="cls-2" d="M168.62,586.27c8.36,2,16.66,4.26,25,6.11,7.2,1.59,14.5,2.7,21.73,4.11,3,.58,4.8-1,5.81-3.37s-.95-3.25-2.67-3.66c-15-3.58-29.58-9.06-45.16-10-3.78-.24-7.65-.61-11.34,2.1A9.11,9.11,0,0,0,168.62,586.27Z"/><path class="cls-2" d="M290,449.69c1.57.07,3.15.28,4.72.23,11.43-.36,22.69-2.32,34-3.83,4.09-.54,6.26-3.36,8.16-7.57a22.07,22.07,0,0,0-10-.7c-9.49,1.6-19,3.24-28.68,3.13a33,33,0,0,0-8.8,1.52c-1.8.48-3.94,1.39-3.53,3.86A4,4,0,0,0,290,449.69Z"/><path class="cls-2" d="M149.75,392.88c1,3.61,3.27,4.44,6.42,4.61,6.38.32,11.88-2.68,17.76-4.24,8.09-2.15,16.47-3.27,24.2-6.67,2-.87,4.65-2,3.77-4.82s-3-3.65-6.27-2.76c-7.6,2.06-15.37,3.48-23,5.31C164.65,386.21,156.63,388,149.75,392.88Z"/><path class="cls-2" d="M243.77,317.75c-1,.17-2.09.27-3.13.42-12.21,1.84-24.53-.16-36.76,1.05-4.07.4-8.41.2-12.14,4a10.12,10.12,0,0,0,1.81,1.34,32.85,32.85,0,0,0,3.5,1.07c14.19,3.48,28.61,1.93,43,2,2.84,0,4.84-2,6.74-3.77,1.54-1.43,3-3.3,1.75-5.56C247.34,316.22,245.42,317.48,243.77,317.75Z"/><path class="cls-2" d="M287.51,572.29c3.13,0,5.32-2.53,7.25-4.81,1-1.14,2.16-2.44,1-4.22s-2.61-1.36-4.2-1a60.49,60.49,0,0,1-16.21,1.42c-9-.65-17.92-.07-26.85.54-3.26.22-7,.24-9.29,4.06a7.49,7.49,0,0,0,4.2,2C258,573.91,272.8,572.4,287.51,572.29Z"/><path class="cls-2" d="M260.24,485.2c-.93-2.59-2.44-4.46-5.91-3.67-14.35,3.24-28.88,5.74-43,10.09-2.21.69-4.85,1.07-6.08,4,2.3,2.31,5.36,2.78,8.18,2.57,14.73-1.09,28.95-5,43.3-8.17C259,489.55,261.29,488.15,260.24,485.2Z"/><path class="cls-2" d="M162.51,547.3c2.72,1.53,5.56,1.07,8.29,1,11.95-.41,23.69-2.65,35.52-4.14,4.93-.63,7.58-3.6,10.12-7.66-2.64-1.74-4.75-1.29-6.82-1.2-5.08.22-10.08,1.12-15.17,1.41A134,134,0,0,0,168,540.88C164.77,541.72,162.16,543.21,162.51,547.3Z"/><path class="cls-2" d="M328.59,406.14c-3.84-2.83-7.95-2.85-11.87-2.84a174.23,174.23,0,0,1-27.19-1.9,32.08,32.08,0,0,0-8.36.11c-1.66.17-3.68.58-3.91,2.83s1.44,3.44,3.29,4.17a19.27,19.27,0,0,0,4.05,1c11.63,1.87,23.39,1.8,35.12,2.28C323.61,412,326.2,409.69,328.59,406.14Z"/><path class="cls-2" d="M316,315.32c-14-2.64-28-5.25-42-7.56-2.9-.47-6.32-1.19-9.32,1.95,2.1,3.5,5.28,4.55,8.55,5.2q20.64,4.13,41.33,8c2.55.48,5.44,1.17,6.18-2.77S318.49,315.79,316,315.32Z"/><path class="cls-2" d="M233,426.67c3.44-.25,7.56-.33,9.53-4.58-1.85-3.43-5.22-4.41-8.49-4.44-10.33-.12-20.68.1-31,.41a56.35,56.35,0,0,0-9.35,1.42c-1.63.33-3.78.46-3.82,2.84s2.25,2.4,3.69,3.19a7.1,7.1,0,0,0,2.55.57A199.56,199.56,0,0,0,233,426.67Z"/><path class="cls-2" d="M238.81,465.25c3.65-.08,7.06-2.57,8.62-6.76-6.52-2.8-13-1.07-19.24-1.72a136.33,136.33,0,0,0-29.12.5c-3.33.36-6.29,1.25-6.76,5.57,1.43,1.5,3.09,1.55,4.62,1.75C210.86,466.45,224.86,465.58,238.81,465.25Z"/><path class="cls-2" d="M230.88,366.47c2.18,3.67,6,4.71,9.62,5.46,9.76,2,19.61,3.6,29.42,5.4,5.68,1,11.3,2.51,17.15,2.14,2.93-.19,5.62-.75,5.94-4.44C281.25,368.17,237.23,362,230.88,366.47Z"/><path class="cls-2" d="M1422.15,392c-.25-2.6-2.27-2.43-3.89-2.48-4.2-.14-8.41-.05-12.61-.05,0-.13,0-.26,0-.39-10.28,1.06-20.57,2.05-30.83,3.25-2.75.32-6.4,1-6.11,4.49.32,3.84,4,4.61,7.31,4.31,9.59-.87,19.17-1.91,28.73-3,4.69-.55,9.36-1.28,14-2.25C1420.45,395.45,1422.4,394.61,1422.15,392Z"/><path class="cls-2" d="M957.44,227.45c2.22,4.23,6.5,5.16,10.39,6,8.38,1.81,16.88,3,25.33,4.51,6.38,1.12,12.67,2.93,19.2,2.93,3.16,0,6.44-.17,7.31-4.25C1010.75,230.24,965,223.4,957.44,227.45Z"/><path class="cls-2" d="M1017.84,558.87c15,3.64,30.07,6.58,45.29,8.94,3.33.52,4.86-1.21,4.66-4.59-.14-2.52-2.25-2.5-3.79-2.9-14.27-3.7-28.92-5.36-43.41-7.82-2.7-.46-5.93-1.12-8.38,1.47C1012.72,557.35,1015.4,558.28,1017.84,558.87Z"/><path class="cls-2" d="M982,414.32a20.17,20.17,0,0,0,4.06,1c11.63,1.87,23.39,1.8,35.11,2.27,3.9.16,6.49-2.13,8.87-5.68-3.83-2.84-7.94-2.85-11.86-2.85a174.35,174.35,0,0,1-27.2-1.89,32.52,32.52,0,0,0-8.36.1c-1.65.18-3.67.58-3.9,2.83S980.12,413.59,982,414.32Z"/><path class="cls-2" d="M1102.11,400.88c.45-1.91-1.29-2.69-2.52-3.6a20.83,20.83,0,0,0-7.15-3.17c-10.16-2.74-20.58-4-30.94-5.66-3.36-.53-6.5.52-9.35,3.85,4.81,4.86,10.76,5.79,16.45,7.16,9.72,2.34,19.55,3.92,29.61,3.27C1099.72,402.63,1101.65,402.88,1102.11,400.88Z"/><path class="cls-2" d="M1111.62,217.33c-.06-4.5-5.95-4.88-9.38-4.5-11.22,1.25-22.48-.85-33.62.86-3.32.51-7,.48-9.69,3.81,2.49,3.44,6.11,4.15,9.76,4.3,11.23.45,22.46,1.54,33.68.13C1106,221.47,1111.68,222,1111.62,217.33Z"/><path class="cls-2" d="M1064.32,182.29c-14.78-3.81-30-5.18-44.35-8.23-3,.82-6.86-1.1-7.39,2.23s3.32,4.19,5.93,4.77c14.69,3.27,29.41,6.46,44.32,8.61,2.1.3,4.3.44,4.86-2.55C1068.23,184.29,1067,183,1064.32,182.29Z"/><path class="cls-2" d="M1044.41,465.56c8.5,2.11,17,4.21,25.55,6.14,7.17,1.63,14.32,3.4,21.71,3.81a4.48,4.48,0,0,0,5-3.73c.58-2.42-1.63-2.8-3.28-3.23-14.21-3.74-28.2-8.5-42.92-10-4.22-.42-8.71-1.19-12.9,1.94C1039,464,1041.69,464.89,1044.41,465.56Z"/><path class="cls-2" d="M987,379.47c2.93-.19,5.63-.75,6-4.44-11.76-6.86-55.78-13.06-62.14-8.56,2.19,3.67,6,4.71,9.62,5.46,9.76,2,19.62,3.6,29.42,5.4C975.56,378.37,981.18,379.84,987,379.47Z"/><path class="cls-2" d="M1413.8,436.21c-.15-3.16-3.17-2.86-5.29-3-10.3-.81-20.58,0-30.86.69-2.78.2-5.67,0-8.08,1.74-1.78,1.3-4.37,2.45-3.77,5.08s3.32,3,5.6,2.84c4.88-.26,9.75-.77,14.62-1.21,7.66-.69,15.4-.49,23.25-2.15C1411,439.31,1413.94,439.13,1413.8,436.21Z"/><path class="cls-2" d="M1057.05,291.76c-3.54.55-7.38.45-10.46,3.83,2.55,3.68,6.16,4.19,9.53,4.35,11.56.55,23.14,1.47,34.7.12a22.31,22.31,0,0,0,6.55-1.72c3.2-1.45,3.15-3.56.25-5.41a12.66,12.66,0,0,0-8.56-2.07C1078.4,292.57,1067.67,290.1,1057.05,291.76Z"/><path class="cls-2" d="M1016,315.32c-14-2.64-28-5.25-42-7.56-2.9-.47-6.33-1.19-9.32,1.95,2.1,3.5,5.28,4.55,8.54,5.2q20.66,4.13,41.34,8c2.54.48,5.43,1.17,6.18-2.77S1018.45,315.79,1016,315.32Z"/><path class="cls-2" d="M1011.77,350.83a10.34,10.34,0,0,0,8.1,4.09c12.25.72,24.5,2.16,36.78.24a17.7,17.7,0,0,0,6.48-1.94c2.59-1.52,2.47-3.15.25-4.86a12,12,0,0,0-8.5-2.18c-10.52,1-21.06-.35-31.55.61C1019.49,347.15,1015.27,347.19,1011.77,350.83Z"/><path class="cls-2" d="M1040.36,496.84c3-.29,8,0,7.74-4.37s-5.17-4.64-8.43-4.38c-12.06,1-24.19-1.22-36.18,1-2.84.52-6,.59-7.92,3.36,2.43,2.78,3.38,3.62,5.9,3.92A178.08,178.08,0,0,0,1040.36,496.84Z"/><path class="cls-2" d="M987.48,572.29c3.13,0,5.32-2.53,7.25-4.81.95-1.14,2.15-2.44,1-4.22s-2.62-1.36-4.2-1a60.52,60.52,0,0,1-16.21,1.42c-9-.65-17.92-.07-26.85.54-3.26.22-7,.24-9.3,4.06a7.52,7.52,0,0,0,4.21,2C958,573.91,972.76,572.4,987.48,572.29Z"/><path class="cls-2" d="M957.3,480.85c-.92-2.59-2.44-4.46-5.91-3.68-14.35,3.24-28.88,5.75-43,10.1-2.21.68-4.84,1.07-6.08,4,2.31,2.31,5.37,2.78,8.19,2.57,14.72-1.09,28.94-5,43.29-8.18C956.11,485.2,958.35,483.8,957.3,480.85Z"/><path class="cls-2" d="M868.59,586.27c8.36,2,16.65,4.26,25,6.11,7.2,1.59,14.5,2.7,21.73,4.11,3,.58,4.8-1,5.81-3.37s-.95-3.25-2.68-3.66c-15-3.58-29.58-9.06-45.15-10-3.79-.24-7.65-.61-11.35,2.1A9.14,9.14,0,0,0,868.59,586.27Z"/><path class="cls-2" d="M1005.26,524.18c1.49-1.5,3.11-3.15,1.74-5.48-1.2-2-3.09-.92-4.75-.68-1.39.21-2.77.41-4.16.57-12.22,1.44-24.52-.34-36.74,1-3.74.42-7.69.25-10.64,3.73,1.38,2.29,3.25,2.24,4.89,2.65,14.18,3.52,28.61,1.91,42.95,2C1001.32,528,1003.38,526.05,1005.26,524.18Z"/><path class="cls-2" d="M918,448.09c5.87,2.54,12.06,1.64,18.12,2.22,8.33.8,16.58,2.68,25,2.18,2.15-.13,5.06-.28,5.21-3.21s-1.54-4.46-4.91-4.76c-7.84-.72-15.62-2.1-23.44-3-8.12-1-16.26-2.09-24.4.07C913.21,445.27,915.05,446.85,918,448.09Z"/><path class="cls-2" d="M912.8,241.07c-14.13,3.31-28.5,5.62-42.36,10-2.21.71-4.83,1.05-6.19,3.93a13.21,13.21,0,0,0,10.69,2.69,356,356,0,0,0,40-8.15c2.6-.68,5.09-1.45,4.31-4.64S916.08,240.31,912.8,241.07Z"/><path class="cls-2" d="M992.29,184c-2.08.26-4.13.8-6.22,1-12.24,1.17-24.56-.47-36.81,1-3.47.41-6.94.62-9.86,3.37.21.78.21,1.3.4,1.39a18.51,18.51,0,0,0,3.37,1.38c14.53,3.67,29.33,2.25,44,2.13,3.45,0,6-2.73,8-5.48.83-1.13,1.38-2.46.41-3.9S993.46,183.88,992.29,184Z"/><path class="cls-2" d="M921.41,281.15c-3.55.41-7.33.24-10.06,3.64,1.39,2.29,3.26,2.28,4.9,2.69,14.18,3.49,28.61,2,42.94,1.95,3.47,0,6-2.65,8-5.38a3.32,3.32,0,0,0,.42-3.93c-.93-1.44-2.44-1.1-3.82-.9-1.9.28-3.78.74-5.69.91C945.91,281.21,933.62,279.75,921.41,281.15Z"/><path class="cls-2" d="M825.29,334.75c-3.49-.11-7.33-.85-10.16,2.47,1.54,2.7,3.75,3.72,6.44,4.35,8,1.87,16,4.1,24,5.87,7.54,1.66,15.17,2.9,22.76,4.32,3.19.59,5.36-1,5.86-3.85s-2.28-2.94-4.28-3.46c-3-.8-6.08-1.69-9.12-2.51C849.12,338.77,837.51,335.14,825.29,334.75Z"/><path class="cls-2" d="M862.48,547.3c2.72,1.53,5.55,1.07,8.29,1,12-.41,23.69-2.65,35.51-4.14,4.94-.63,7.58-3.6,10.12-7.66-2.63-1.74-4.75-1.29-6.81-1.2-5.08.22-10.08,1.12-15.17,1.41A134.2,134.2,0,0,0,868,540.88C864.74,541.72,862.13,543.21,862.48,547.3Z"/><path class="cls-2" d="M856.13,397.49c6.39.32,11.88-2.68,17.76-4.24,8.09-2.15,16.48-3.27,24.2-6.67,2-.87,4.65-2,3.78-4.82s-3-3.65-6.28-2.76c-7.59,2.06-15.36,3.48-23,5.31-8,1.9-16,3.7-22.85,8.57C850.71,396.49,853,397.32,856.13,397.49Z"/><path class="cls-2" d="M1006.78,449.34c1.58-.12,3.17-.1,4.72-.34,11.31-1.73,22.25-5,33.29-7.88,4-1,5.81-4.1,7.19-8.5a21.85,21.85,0,0,0-10,.51c-9.24,2.73-18.45,5.49-28.1,6.55a32.84,32.84,0,0,0-8.55,2.56c-1.73.7-3.75,1.86-3,4.26A4,4,0,0,0,1006.78,449.34Z"/><path class="cls-2" d="M164.32,813.74c.76-3.83-2-4.21-4.57-4.86-14.46-3.62-29.26-5.32-43.91-7.85-2.54-.44-5.2-.33-7.38,1.59.64,3.41,3.29,4.45,5.71,5q22,5.21,44.3,8.71C160.68,816.7,163.59,817.41,164.32,813.74Z"/><path class="cls-2" d="M1113.72,2.22c13,3.8,26.41,5.33,39.85,6.53a7.21,7.21,0,0,0,7.23-3.39c-1.77-3.18-4.91-3.46-7.67-4.19l-2.28-.58h-41.19l.15.09A17.88,17.88,0,0,0,1113.72,2.22Z"/><path class="cls-2" d="M1427.74,794.25c.13,3.46,3.15,4.59,6,4.84l5.84.51v-8.75c-2.2-.15-4.4-.29-6.59-.46C1430.46,790.21,1427.63,791,1427.74,794.25Z"/><path class="cls-2" d="M1336.67,660.54c2.71,1.14,5.36.8,7.95.71,12.11-.44,24-2.66,36-4.26,4.76-.64,7.15-3.63,9.68-7.33-2.4-2-4.33-1.6-6.23-1.46-5.76.41-11.47,1.16-17.24,1.55a132.61,132.61,0,0,0-24.83,4.06C1338.56,654.71,1335.79,656.18,1336.67,660.54Z"/><path class="cls-2" d="M154.86,848.09c-12.8-.92-25.55.28-38.31,1.15-4.25.29-5.51,3.06-5.28,7.3a10.2,10.2,0,0,0,2.69,1c13.87.39,27.63-1.38,41.44-2.26,2.14-.13,5-1,4.75-4S157.08,848.25,154.86,848.09Z"/><path class="cls-2" d="M1351.84,566.72a3.78,3.78,0,0,0-4.88-3.39c-11.09,2.84-22.4.41-33.51,1.77-4.33.54-8.65,1.36-11.27,5.9,2.09,2.65,4.63,2.49,7,2.5,8.76,0,17.53.1,26.29-.16a85.24,85.24,0,0,0,12.5-1.56C1350.57,571.32,1352.3,570.15,1351.84,566.72Z"/><path class="cls-2" d="M864.29,813.74c.76-3.83-2-4.21-4.57-4.86-14.46-3.62-29.26-5.32-43.92-7.85-2.54-.44-5.2-.33-7.37,1.59.64,3.41,3.29,4.45,5.7,5q22,5.21,44.31,8.71C860.64,816.7,863.55,817.41,864.29,813.74Z"/><path class="cls-2" d="M854.83,848.09c-12.81-.92-25.56.28-38.31,1.15-4.25.29-5.52,3.06-5.29,7.3a10.2,10.2,0,0,0,2.69,1c13.87.39,27.64-1.38,41.44-2.26,2.14-.13,5-1,4.76-4S857,848.25,854.83,848.09Z"/><path class="cls-2" d="M625.91,823.15c-.3-4.14-5.17-4.47-8.48-4.36-9.1.29-18.21-.22-27.27.1-5.65.2-12-.2-16.9,4.16a7.15,7.15,0,0,0,6.1,4,179.33,179.33,0,0,0,38.89.49C621.21,827.29,626.23,827.54,625.91,823.15Z"/><path class="cls-2" d="M413.75,2.22c13,3.8,26.41,5.33,39.86,6.53a7.19,7.19,0,0,0,7.22-3.39c-1.77-3.18-4.9-3.46-7.67-4.19L450.88.59H409.7l.15.09A17.8,17.8,0,0,0,413.75,2.22Z"/><path class="cls-2" d="M613.57,869.73a146.56,146.56,0,0,0-24.15-6.88c-1.12-.22-18.73-3.84-15.13,1.61l0,0c5.17,7.64,15.64,10,24.09,11.75,3.47.7,25.75,6.08,21-2.48C618.24,871.65,615.83,870.59,613.57,869.73Z"/><path class="cls-2" d="M811.53,298.6a8.3,8.3,0,0,0,6.06,1.41c13.47-1,26.92-2.35,40.14-5.25,3.66-.81,6.32-3.31,7.59-7.53-5-1.85-9.63,0-14.24.3a185.69,185.69,0,0,0-32.37,4.29C815.39,292.6,811.49,293.18,811.53,298.6Z"/><path class="cls-2" d="M1295.21,409c-3.22.78-6,2-6,6.38,1.6,1.31,3.24,1.15,4.77,1.16,13.93.08,27.58-2.55,41.26-4.63,3.57-.54,6.62-3.44,7.62-7.79-6.76-2-12.9.57-19.13.71A134.06,134.06,0,0,0,1295.21,409Z"/><path class="cls-2" d="M946.72,323.86c1.54-1.43,3-3.3,1.75-5.56-1.16-2.08-3.09-.82-4.73-.55-1,.17-2.09.27-3.13.42-12.21,1.84-24.54-.16-36.76,1.05-4.08.4-8.41.2-12.14,4a9.77,9.77,0,0,0,1.81,1.34,32.16,32.16,0,0,0,3.5,1.07c14.18,3.48,28.61,1.93,43,2C942.82,327.64,944.81,325.64,946.72,323.86Z"/><path class="cls-2" d="M889.33,409.32c-1.63.33-3.78.46-3.82,2.84s2.26,2.4,3.69,3.19a6.79,6.79,0,0,0,2.55.57,198.78,198.78,0,0,0,36.91.59c3.44-.25,7.55-.33,9.52-4.58-1.85-3.43-5.22-4.41-8.48-4.44-10.34-.12-20.69.1-31,.41A56.35,56.35,0,0,0,889.33,409.32Z"/><path class="cls-2" d="M1275.47,607.79c-.45,3.15,3.23,2.88,5.38,3.77,10.05,4.14,20.76,5.05,31.36,6.57,6.1.87,7.4.08,9-6.89-7.11-1.37-13.84-2.56-20.51-4a120.38,120.38,0,0,0-18.76-2.66C1279.47,604.44,1275.88,604.84,1275.47,607.79Z"/><path class="cls-2" d="M1328.94,359.46a13.32,13.32,0,0,0,9.9,2.68c13.8-1.41,27.18-5.05,40.72-7.83,2.49-.51,5.59-1.45,4.59-5.12-.92-3.37-3.23-4.52-6.87-3.65-12.78,3-25.65,5.71-38.41,8.86C1335.49,355.23,1331.61,355.73,1328.94,359.46Z"/><path class="cls-2" d="M1323.71,534.8a13.81,13.81,0,0,0-1.28-2,7,7,0,0,0-2-1.69c-13.14-6-27.27-7.47-41.44-8.4-1.76-.11-4.56.56-4.87,3.19s2.33,3.29,4.16,4a112.28,112.28,0,0,0,39.15,7.09A8.59,8.59,0,0,0,1323.71,534.8Z"/><path class="cls-2" d="M1341.79,283.26c13.57.06,26.84-2.76,40.21-4.5a9.77,9.77,0,0,0,7.87-7.33,4.68,4.68,0,0,0-4.57-1.48c-7,.93-13.94,1.33-20.91,1.95a126,126,0,0,0-22.75,4c-3.18.89-5.41,2.4-5.22,6.27C1338.25,283.65,1340.09,283.25,1341.79,283.26Z"/><path class="cls-2" d="M1272.32,272.58c.28,1.91,2,2.16,3.66,2.18,13.5.22,26.92-1.39,40.36-2.27,2.24-.14,5-1.14,4.93-3.83s-3-3-5.18-3.37c-6.29-1-12.59-.1-18.9.68-5.21,0-10.43-.15-15.64.06-2.54.1-5.17,0-7.43,2A4.8,4.8,0,0,0,1272.32,272.58Z"/><path class="cls-2" d="M860.12,130c-.22-2.89-3.08-3-5.29-3.21-12.81-.92-25.56.29-38.31,1.15-4.25.29-5.52,3.06-5.29,7.3a10.27,10.27,0,0,0,2.69,1c13.87.38,27.64-1.39,41.44-2.27C857.5,133.82,860.34,132.91,860.12,130Z"/><path class="cls-2" d="M1332.44,310c-.18,2.44,2.2,2.86,3.82,3.77a7.86,7.86,0,0,0,2,.68c11.77,2.79,23.52,5.66,35.32,8.28a100.1,100.1,0,0,0,12,1.6c2.56.26,4.7-1,5.27-3.44.7-3-2.17-3-4-3.66-1.49-.51-3-.84-4.56-1.25-13.71-3.69-27.3-8-41.62-8.66a14.56,14.56,0,0,0-3.68.06C1335.23,307.81,1332.63,307.29,1332.44,310Z"/><path class="cls-2" d="M1312.37,240.1c6.08.84,7.45-.11,8.75-7-13-2.06-25.65-5.62-38.79-6.61a7.36,7.36,0,0,0-7.32,3.47c1.32,2.64,3.58,2.76,5.49,3.53C1290.73,237.59,1301.59,238.6,1312.37,240.1Z"/><path class="cls-2" d="M1076.46,243.6c-7.79,2-15.67,3.6-23.5,5.41-6.84,1.57-13.61,3.37-19.87,6.64-1.17.62-2.92.94-2.72,2.76a4.13,4.13,0,0,0,3,3.35,25.15,25.15,0,0,0,4.25.76,59.77,59.77,0,0,0,6-1.27c9.51-3,19.15-5.43,28.86-7.68a33.48,33.48,0,0,0,6.81-2.65c1.94-.95,3.78-2.37,2.67-4.92C1081,243.64,1079.22,242.89,1076.46,243.6Z"/><path class="cls-2" d="M892,698.36c14.36,3.45,28.94,2.23,43.46,1.9,3.33-.07,5.16-2.72,7.29-4.7a3.47,3.47,0,0,0,1-4.28c-1-2-2.54-1.25-4.1-1a86.18,86.18,0,0,1-18.3,1.35,223.25,223.25,0,0,0-23.14.37c-3.69.26-8.12-.16-10.83,4C888.77,698.06,890.47,698,892,698.36Z"/><path class="cls-2" d="M959.56,655.77c.88-1.18,1.41-2.54.48-3.89s-2.35-1-3.81-.76a80.75,80.75,0,0,1-15.69,1.57c-8.07-.13-16.17-.19-24.23.17-4.37.19-9.07.09-13.09,3.77,1,1,1.31,1.47,1.75,1.62a36.15,36.15,0,0,0,4.52,1.37c13.92,3,28,1.91,42,1.6C955,661.14,957.51,658.5,959.56,655.77Z"/><path class="cls-2" d="M866.1,627.18q19.67-3.43,39.2-7.56c2.39-.5,6.22-1.32,5.06-5.29-1-3.57-3.85-4.45-7.57-3.58-9.38,2.2-18.88,3.87-28.21,6.24-6.52,1.65-13.41,2.51-19.78,7C858.44,627.63,862.39,627.82,866.1,627.18Z"/><path class="cls-2" d="M973,692.89q20.65,4.18,41.38,8.09c2.43.46,5.48,1.34,6.28-2.62.78-3.8-2-4.32-4.57-5-14.18-3.48-28.7-5.1-43-7.72-2.66-.48-5.65-.72-8.35,2C966.53,691.26,969.77,692.24,973,692.89Z"/><path class="cls-2" d="M1006.92,620.8a21.61,21.61,0,0,0,9.92-.27,3.48,3.48,0,0,0,2.81-2.82c.23-2-1.38-2.24-2.61-2.74a31.67,31.67,0,0,0-5-1.67,412.27,412.27,0,0,0-42.42-7.18c-3.89-.45-8.25-1.24-12.07,1.35,2.71,3.86,5.93,5.68,13.62,7.11Q989,617.9,1006.92,620.8Z"/><path class="cls-2" d="M813.92,514.22c13.89.47,27.66-1.32,41.48-2.23,2.18-.15,5-1.08,4.71-4s-3.05-3.07-5.3-3.22c-12.82-.83-25.59.38-38.37,1.18-4.19.26-5.46,3.12-5.2,7.42A11.83,11.83,0,0,0,813.92,514.22Z"/><path class="cls-2" d="M813.74,469.41a5.59,5.59,0,0,0,3.21,2.77c11.72,4.47,24,6.46,36.36,7.57,4.93.43,6.74-2.37,6.6-7.17-12.45-2-24.47-5.2-36.84-6.48C819.4,465.73,816.2,466.31,813.74,469.41Z"/><path class="cls-2" d="M1055.37,649c1.85-1,4.11-2.14,3.05-4.74s-3-3.43-6-2.63c-5.91,1.57-12,2.57-17.91,4-9.65,2.39-19.56,4.11-28.37,9.88,2.92,4.86,5.66,6.09,11.93,4.18,10.56-3.22,21.25-5.87,31.93-8.61A25.49,25.49,0,0,0,1055.37,649Z"/><path class="cls-2" d="M951.12,99.13c-10.55,2.57-21.3,4.35-31.82,7-5.77,1.48-12,2.24-17.1,6.38,2.38,3.38,5.78,3.45,8.75,3.23,14.55-1.06,28.59-5,42.78-8.07,2.54-.54,4.83-2.2,3.48-5.29C956.17,100,954.67,98.26,951.12,99.13Z"/><path class="cls-2" d="M867.7,162.91c-3.15.88-5.4,2.39-5.23,6.46,2.81,1.39,5.48,1,8.06.87,12-.43,23.71-2.66,35.55-4.16,5.25-.67,7.71-3.76,10.3-7.46-2.3-2-4.41-1.66-6.51-1.46-5.76.56-11.52,1.17-17.3,1.6A129.08,129.08,0,0,0,867.7,162.91Z"/><path class="cls-2" d="M960.15,141.67c-3.42.41-6.89.54-9.4,4,1.67,1.88,3.48,1.95,5.15,2.36,14.06,3.4,28.36,1.92,42.58,1.91,3.48,0,6-2.64,8.13-5.33a3.31,3.31,0,0,0,.46-3.93c-.93-1.56-2.47-1.11-3.79-1-2.09.2-4.15.76-6.24.94C984.77,141.72,972.42,140.2,960.15,141.67Z"/><path class="cls-2" d="M868.69,208.25c7,1.71,13.94,3.52,20.94,5.17a262.55,262.55,0,0,0,25.81,5c3.07.39,4.73-1.07,5.74-3.43.78-1.85-.61-3-2.28-3.44-15.61-4-30.89-9.49-47.17-10.38-3.23-.17-6.61-.26-9.44,2.13C863.34,206.62,865.9,207.56,868.69,208.25Z"/><path class="cls-2" d="M815,429.87q21.59,4.47,43.26,8.49c2.46.46,5.45.9,6.08-3,.59-3.64-2.11-3.85-4.46-4.45-14.62-3.71-29.6-5.38-44.43-7.95-2.4-.42-4.89-.33-7.1,1.94C809.55,428.24,812.32,429.32,815,429.87Z"/><path class="cls-2" d="M1281.26,574.55a23,23,0,0,0-2.5-.49c-15.21-1.28-30.16,1.35-45.17,3.05-2.55.29-5,1.87-4.68,4.69.47,3.47,3.81,4.16,6.6,3.87,14.15-1.49,28.28-3.2,42.41-4.94C1281.49,580.29,1282.66,578.15,1281.26,574.55Z"/><path class="cls-2" d="M1049.25,687.75a24.22,24.22,0,0,0,4.54,1.09c6.61,1.08,13.29.81,19.94.82,4.21,0,8.43.17,12.62-.06a49.53,49.53,0,0,0,8.79-1.41c1.64-.4,3.56-1.12,3.62-3.29s-1.84-2.8-3.43-3.49a14.73,14.73,0,0,0-7.2-1.2c-8,.71-16.05.31-24.08.12a51.68,51.68,0,0,0-14.54,1.94c-1.34.36-2.92.7-3.17,2.31C1046,686.6,1047.82,687.21,1049.25,687.75Z"/><path class="cls-2" d="M1208.86,668.5c5.64,1.22,11.35,2.15,17,3.19,6,1.1,11.92,2.94,17.91,3.26,2.68-.28,6.18.85,7-2.47.83-3.59-3-3.91-5.22-4.68a193.72,193.72,0,0,0-26.45-6.72c-3.24-.64-6.42-1.79-9.8-1.14-2.58.5-5.91.77-6,4S1206.31,668,1208.86,668.5Z"/><path class="cls-2" d="M1383.35,472.4c-2.16-3.28-5.48-3.82-8.42-4.4-13.42-2.61-26.89-4.95-40.36-7.32a5.72,5.72,0,0,0-6.39,3.2c1.59,3.46,4.72,4.33,7.7,5.28,13.13,4.21,26.85,5.14,40.39,6.91C1378.89,476.41,1381.36,475.06,1383.35,472.4Z"/><path class="cls-2" d="M1363.75,510c14.1-1.48,28.18-3.2,42.27-4.83,3.71-.43,5.36-2.3,4.14-6.47-16-1.25-31.43.5-46.88,2.73-2.92.42-6.16.93-5.92,4.5C1357.59,509.26,1360.85,510.27,1363.75,510Z"/><path class="cls-2" d="M1276,652.77c2.29,0,4.57,0,6.86,0a1.09,1.09,0,0,1,0,.18c11.22-.81,22.45-1.53,33.67-2.48,2.26-.19,4.93-1.18,4.77-4-.14-2.48-2.82-2.8-4.86-3.2a18.53,18.53,0,0,0-4.21-.28c-11.07.38-22.13.81-33.19,1.23a9.26,9.26,0,0,0-5,1.55,4.32,4.32,0,0,0-1.7,4.68C1272.7,652.43,1274.28,652.77,1276,652.77Z"/><path class="cls-2" d="M1077.25,520.77c10.69-2.74,21.35-5.61,32-8.51a29.37,29.37,0,0,0,5.89-2.26c2-1,4.5-2.09,3.32-5.08-1.12-2.81-3.42-3.05-6.16-2.39-7.69,1.83-15.45,3.36-23.12,5.27s-15.65,3.8-22.8,8.55C1069.23,521.19,1071.66,522.21,1077.25,520.77Z"/><path class="cls-2" d="M1104.29,649.27a110.11,110.11,0,0,0,37.49,6.91c2.54,0,5.29.41,8.13-2-2.16-3.92-5.69-5.37-9.34-6.44a164.24,164.24,0,0,0-23.66-4.6c-4-.56-7.82-2.12-11.89-1.07-2,.51-4.63.68-4.92,3.18S1102.45,648.57,1104.29,649.27Z"/><path class="cls-2" d="M1109.81,722a17.88,17.88,0,0,0,3.91,1.54c13,3.8,26.41,5.32,39.85,6.53a7.21,7.21,0,0,0,7.23-3.39c-1.77-3.18-4.91-3.46-7.67-4.19-13.4-3.55-27.3-4.45-40.81-7.49-2.46-.55-5.16-.28-6,2.56C1105.43,720.22,1108.08,721,1109.81,722Z"/><path class="cls-2" d="M1188.54,630.79q21.24-2.2,42.45-4.75c3.26-.38,5.16-2.2,3.72-6.26a10.15,10.15,0,0,0-1.65-.47c-15.75-1.35-31.24,1.27-46.77,3.11-2.31.28-4.79,1.65-4.32,4.42C1182.55,630.2,1185.59,631.09,1188.54,630.79Z"/><path class="cls-2" d="M1186.66,674.48c-3.64-2.31-7.26-2.67-11-2.68-9.12,0-18.22-.2-27.25-1.83a34.19,34.19,0,0,0-8.93-.12c-1.83.15-4.17.62-4.28,3.09s1.42,3.81,3.81,4.26c1.21.23,2.37.67,3.58.85,11.67,1.76,23.44,1.82,35.2,2.24C1181.75,680.43,1184.26,678,1186.66,674.48Z"/><path class="cls-2" d="M1111.63,595.47c-.13-4.65-5.87-4.84-9.35-4.53-11.06,1-22.14-.63-33.13.7-3.47.42-7.41.39-10.2,3.88a9.82,9.82,0,0,0,8.12,4.21c11.91.44,23.83,2,35.74.18C1106.25,599.37,1111.75,600,1111.63,595.47Z"/><path class="cls-2" d="M1233.49,541.49a7.35,7.35,0,0,0-6.11-2.66c-12.24-.17-24.4-1.29-36.59-2.3-3-.24-7.74-1.41-8.17,3.22-.47,5,4.64,4.53,7.77,5,11.27,1.83,22.72,1.53,34.08,2.25C1228.61,547.3,1231.22,544.92,1233.49,541.49Z"/><path class="cls-2" d="M1049.69,101.61a4.07,4.07,0,0,0-1.57-.13c-10.34,0-20.69-.22-31,.3-4.65.23-9.86,0-13.87,4.16a7.88,7.88,0,0,0,6,3.89c13.47,1.16,27,2.27,40.42.11,2.7-.43,6.43-.51,6.4-4S1052.13,102.67,1049.69,101.61Z"/><path class="cls-2" d="M1188,377.3c-.17-3.91-3.47-2.8-5.61-2.91-13.2-.73-26.22,1.27-39.26,2.85-3.44.42-8.24.12-8,4.68.27,4.84,5,4.35,8.74,4l.52-.06,0,.24c12.68-1.53,25.37-3,38-4.62C1185,381.14,1188.12,381.1,1188,377.3Z"/><path class="cls-2" d="M1164.66,496.27c8.25,1.71,16.61,2.9,24.91,4.4,6.39,1.15,12.72,2.82,19.24,2.82,2.5,0,5.91-.24,6.25-3.58.31-3.08-3.06-3-5-3.56-15.06-4.31-30.63-5.93-46-8.27-3.43-.52-7.38-1.08-11.11,2.1C1156.12,494.33,1160.47,495.4,1164.66,496.27Z"/><path class="cls-2" d="M1160.15,589.94c13.13,4,26.73,5.57,40.35,6.77a7.24,7.24,0,0,0,7.46-3.6c-2.12-2.35-4.53-3.11-7.09-3.81-12.55-3.43-25.56-4.31-38.24-7-3.39-.73-8.06-2.09-9.22,1.85S1157.24,589.05,1160.15,589.94Z"/><path class="cls-2" d="M1180.49,294.17c-13.16.05-26.18-1.86-39.28-2.41-2.42-.1-5.51,0-5.89,3.08-.43,3.39,2.58,4.12,5.22,4.71,1.2.27,2.41.51,3.62.69,10.45,1.5,21,1.24,31.52,2.07,4.71.38,8.12-1.43,10.77-5.61A6.91,6.91,0,0,0,1180.49,294.17Z"/><path class="cls-2" d="M1234.9,331.83c0-2.74-2.21-2.39-3.81-2.45-4-.14-8.08-.05-12.12-.05l0-.49c-10.3,1.1-20.6,2.14-30.89,3.33-3,.34-6.78.9-6.33,4.76s4.22,4.38,7.49,4.07c9.43-.89,18.85-1.95,28.26-3.05,4.7-.55,9.4-1.27,14.07-2.08A3.71,3.71,0,0,0,1234.9,331.83Z"/><path class="cls-2" d="M1148.24,437.53c-.57-3.12-2.77-3.73-5-3.3-10.64,2-21.39.48-32,1.38-4.68.39-9.93.7-12.76,6.79,3.66,2.07,7.2,1.9,10.64,1.87,8.77-.08,17.54-.23,26.31-.54a44.67,44.67,0,0,0,8.84-1.2C1146.58,442,1148.88,441,1148.24,437.53Z"/><path class="cls-2" d="M1098.94,555.4c13.14,1.12,26.29,2.16,39.43.22,2.92-.43,7.5-.11,7.17-4.3-.31-3.9-4.76-3.82-8-4.32a4.71,4.71,0,0,0-.53,0c-10.18.06-20.38-.23-30.53.33-4.62.26-9.83.16-13.67,4C1095.18,553.92,1096.85,555.22,1098.94,555.4Z"/><path class="cls-2" d="M1195.17,430.33c4-.36,7.75.82,8.45-2.79.66-3.39-3.18-3.82-5.45-4.53-6-1.88-12.09-3.49-18.22-4.86-5.92-1.31-11.73-3.66-18-2.86-2.56.33-5.77.78-5.81,4.12,0,2.9,2.91,3.8,5.27,4.29,6.15,1.29,12.38,2.24,18.55,3.44C1185.48,428.21,1190.94,429.44,1195.17,430.33Z"/><path class="cls-2" d="M1175.15,466l.52-.06,0,.24c12.68-1.53,25.37-3,38-4.62,2.5-.32,5.67-.36,5.51-4.16s-3.47-2.79-5.61-2.91c-13.2-.73-26.22,1.27-39.26,2.85-3.44.42-8.24.12-8,4.68C1166.69,466.9,1171.4,466.41,1175.15,466Z"/><path class="cls-2" d="M1106.4,339.6c-.94,4,4,4.87,6.88,5.73,13,3.85,26.39,5.46,39.84,6.65,3.15.28,5.86-.56,7.65-3.77-1.81-2.47-4.57-3-7.24-3.73-12.55-3.33-25.53-4.29-38.21-6.93C1112,336.86,1107.46,335.09,1106.4,339.6Z"/><path class="cls-2" d="M1143.82,255.85c-9.28-2.64-18.85-3.84-28.35-5.34-2.36-.37-4.68-1.49-7.19-.29-1.83.88-4.65.77-4.84,3.29s2.51,3.25,4.33,3.93a107.48,107.48,0,0,0,39.07,6.9c2,0,4.29.31,6.4-2.26C1150.92,258.5,1147.56,256.91,1143.82,255.85Z"/><path class="cls-2" d="M1274.17,401.73c-.17-2.44-2.7-2.44-4.41-3.09a8.34,8.34,0,0,0-3.13-.26c-11.58.35-23.16.7-34.74,1.13-4.59.18-7.05,2.51-6.69,8.42,15.18.59,30-.87,44.77-2.3C1272,405.43,1274.35,404.4,1274.17,401.73Z"/><path class="cls-2" d="M1228.79,241c-13.55-.5-26.92,1.36-40.31,3.05-3.12.39-6.63.8-6.44,4.54s3.72,4.32,6.86,4q20.88-2.18,41.75-4.58c3.42-.4,5.64-2,3.92-6.68C1232.59,241.25,1230.69,241.11,1228.79,241Z"/><path class="cls-2" d="M1137.43,169c-10.7,0-21.42-.16-32.1.35-4.3.2-9.17.18-12.46,4.26a8.35,8.35,0,0,0,6.71,3.84c12.78.87,25.58,2.28,38.36.2,3.08-.5,7.88-.13,7.57-4.49C1145.24,169.38,1140.74,169,1137.43,169Z"/><path class="cls-2" d="M1099,130.31c-7.7,1.76-15.45,3.3-23.1,5.27s-15.71,3.66-22.54,8.63c2.05,5.56,6.39,5.4,10.53,4.37,11.23-2.8,22.37-6,33.53-9a21.51,21.51,0,0,0,4.43-1.68c2-1,4.58-2,3.67-5C1104.49,129.74,1101.8,129.66,1099,130.31Z"/><path class="cls-2" d="M1201.33,211.35c-4.45-1-8.86-2.19-13.34-3-9.32-1.63-18.68-3-28-4.6-2.77-.47-5.91-.37-6.78,2.23-1,2.87,2.33,3.89,4.47,4.92a32.29,32.29,0,0,0,5.46,1.88c11.89,3.24,24.12,4.45,36.3,5.91,3.23.38,6.26-.21,8.47-3.57A10.93,10.93,0,0,0,1201.33,211.35Z"/><path class="cls-2" d="M1257.45,450.49c3.1,2.84,6.58,3.48,9.94,4.22,8.56,1.9,17.14,3.74,25.75,5.43a44.08,44.08,0,0,0,8.88.82c2.45,0,4.91-.41,5.07-3.95.15-3.17-1.86-4.26-4.15-4.35-10.82-.44-21-4.37-31.52-5.91C1266.77,446.08,1261.58,445.19,1257.45,450.49Z"/><path class="cls-2" d="M1246.43,488.6a183.54,183.54,0,0,0,38.43.51c3-.28,8.16-.13,8-4.21-.17-4.43-5.29-4.73-8.81-4.63-8.94.26-17.88-.1-26.79.09-5.75.13-12,0-17.56,4.29A10,10,0,0,0,1246.43,488.6Z"/><path class="cls-2" d="M1241.84,363.19c1.17,2.52,3.35,2.76,5.29,3.53,10.25,4,21.09,5.16,31.87,6.71,6.06.88,7.55,0,9.13-6.93-13.29-2.19-26.26-6-39.8-6.57C1246,359.84,1243.39,360.46,1241.84,363.19Z"/><path class="cls-2" d="M1255.16,326.42c1.89,2.53,4.32,2.29,6.51,2.3,9.85,0,19.7,0,29.55-.19a53.92,53.92,0,0,0,9.88-1.51c2.39-.51,4-1.73,3.77-4.77-.27-3.39-2.88-3.87-4.84-3.46-11.16,2.35-22.48.41-33.65,1.6C1262.06,320.84,1257.58,321.53,1255.16,326.42Z"/><path class="cls-2" d="M1245.46,289.73a143.78,143.78,0,0,0-21.3-5.57c-5.25-1-10.34-3.33-15.86-2.06-2.14.49-4.67.69-4.76,3.86s2.53,3.79,4.51,4.31c4,1.07,8.24,1.49,12.38,2.21,7.91,1.38,15.64,3.79,23.2,4.48,3.07-.11,6.52.56,7.16-2.64C1251.49,290.85,1247.75,290.54,1245.46,289.73Z"/><path class="cls-2" d="M808.43,81.32c.64,3.41,3.29,4.45,5.7,5q22,5.22,44.31,8.71c2.2.35,5.11,1.06,5.85-2.61.76-3.83-2-4.21-4.57-4.86-14.46-3.62-29.26-5.31-43.92-7.84C813.26,79.3,810.6,79.41,808.43,81.32Z"/><path class="cls-2" d="M1413.37,15c-.78,4.19,3.91,4.61,7.07,5.28,6.35,1.34,12.74,2.47,19.11,3.69V14.79c-5.74-1.31-11.52-2.56-17.33-3.48C1418.72,10.76,1414.08,11.19,1413.37,15Z"/><path class="cls-2" d="M1357.2,10.72c-14.34,3.27-28.89,5.69-42.94,10.14-2.24.71-4.84,1.11-6,3.71,3.2,2.27,4.77,3.13,8.09,2.88,14.75-1.11,29-5.07,43.34-8.22,2.29-.5,4.44-1.9,3.49-4.87C1362.3,11.55,1360.4,10,1357.2,10.72Z"/><path class="cls-2" d="M1371.79,49.84a3.75,3.75,0,0,0-3.21,3.7c0,2,1.6,2.88,3.25,3.71,3.33,1.68,6.58.19,9.81-.13,12-1.2,24.06-2.1,36-4.18,3.33-.58,5-2.17,4.11-6.32C1404.93,44.84,1388.35,47.24,1371.79,49.84Z"/><path class="cls-2" d="M1347.09,80.09c-3.49-.55-8.13-.12-8.84,3.66-.79,4.18,3.91,4.6,7.07,5.27,6.35,1.34,12.75,2.47,19.12,3.69l13.11,2.51c4-.15,7.52.56,8.14-2.67.66-3.4-3.15-3.79-5.41-4.59a123.34,123.34,0,0,0-13.64-3.88C1360.16,82.57,1353.66,81.13,1347.09,80.09Z"/><path class="cls-2" d="M1232.07,26.64c.85,2.29,2.73,2.8,4.49,3.49,10.72,4.17,22,5.52,33.3,7,5.21.7,7.92-1.53,8.56-7.19-12-2.12-23.73-4.24-35.45-6.22C1239,23.07,1235,22.91,1232.07,26.64Z"/><path class="cls-2" d="M1289.51,72.62a19.13,19.13,0,0,0,3.2.62c14.47.34,28.65-2.38,42.83-4.67a9,9,0,0,0,7.29-7.31c-2.08-1.58-4.26-1.06-6.26-1-4.36.22-8.71.77-13.07,1.13A176.15,176.15,0,0,0,1295,65.81C1291.66,66.63,1288.58,68.08,1289.51,72.62Z"/><path class="cls-2" d="M1279.32,105.79a180.06,180.06,0,0,0,38.9.5c3-.29,8-.05,7.66-4.43-.3-4.15-5.17-4.48-8.48-4.37-9.11.29-18.21-.22-27.28.1-5.64.2-12-.2-16.89,4.16A7.14,7.14,0,0,0,1279.32,105.79Z"/><path class="cls-2" d="M1400.66,604.7c-1-2.89-3.52-3.09-6.14-2.48-10.23,2.39-20.49,4.68-30.67,7.26-5.42,1.37-10.74,3.2-15.47,6.66,2.18,5.63,6.62,5.42,11,4.32,11.2-2.83,22.34-5.93,33.48-9a21.92,21.92,0,0,0,4.39-1.77C1399.18,608.66,1401.72,607.68,1400.66,604.7Z"/><path class="cls-2" d="M1395.88,703.62c-19.65-4.84-38.39-13.37-60.55-10.39,2,4,4,5.38,6.44,5.87,15.44,3.08,30.43,8.16,46.13,10.18C1392.19,709.84,1394.52,708.76,1395.88,703.62Z"/><path class="cls-2" d="M1413,679.36a194.41,194.41,0,0,0,26.53,1v-9.28c-5.42,0-10.84-.26-16.24-.14-5.93.13-12.35,0-18,4.24A10.23,10.23,0,0,0,1413,679.36Z"/><path class="cls-2" d="M1420.44,741.53c6.35,1.35,12.74,2.48,19.11,3.7v-9.14c-5.74-1.32-11.52-2.56-17.33-3.48-3.5-.55-8.14-.12-8.85,3.65C1412.59,740.45,1417.28,740.87,1420.44,741.53Z"/><path class="cls-2" d="M1417.05,541.94c-2.16-2.18-4.61-2.33-7-2.69-8.88-1.34-17.91.11-26.8-1.58-4.44-.84-9-1.77-13.61-.59-1.75.45-3.57,1.18-3.67,3.21s1.2,3.56,3.46,3.94c1,.18,2,.56,3.07.75,11.82,2.15,23.81,1.79,35.74,2.43C1412.08,547.62,1414.81,545.39,1417.05,541.94Z"/><path class="cls-2" d="M647.13,80.09c-3.49-.55-8.13-.12-8.84,3.66-.79,4.18,3.9,4.6,7.06,5.27,6.35,1.34,12.75,2.47,19.13,3.69l13.1,2.51c4-.15,7.52.56,8.15-2.67.65-3.4-3.16-3.79-5.41-4.59a123.51,123.51,0,0,0-13.65-3.88C660.2,82.57,653.69,81.13,647.13,80.09Z"/><path class="cls-2" d="M714.37,85.1c-.16,2.33,1.74,3.38,3.56,4a18.56,18.56,0,0,0,4.28.49c8.63-1,17.35-2,26.08-2.94,5.58-.61,11.21-.94,16.67-2.4a3.26,3.26,0,0,0,2.71-3.88,2.54,2.54,0,0,0-2.76-2.48c-15.71-.8-31.23,1.23-46.72,3.35A4.23,4.23,0,0,0,714.37,85.1Z"/><path class="cls-2" d="M671.82,49.84a3.76,3.76,0,0,0-3.21,3.7c0,2,1.6,2.88,3.26,3.71,3.32,1.68,6.57.19,9.81-.13,12-1.2,24.05-2.1,36-4.18,3.33-.58,5-2.17,4.11-6.32C705,44.84,688.38,47.24,671.82,49.84Z"/><path class="cls-2" d="M1316.37,748.75c14.75-1.11,29-5.08,43.34-8.22,2.29-.5,4.44-1.9,3.49-4.87-.9-2.81-2.8-4.37-6-3.64-14.34,3.27-28.89,5.68-42.94,10.14-2.24.71-4.84,1.11-6,3.71C1311.48,748.14,1313.05,749,1316.37,748.75Z"/><path class="cls-2" d="M589.54,72.62a19.33,19.33,0,0,0,3.2.62c14.48.34,28.65-2.38,42.83-4.67a9,9,0,0,0,7.3-7.31c-2.09-1.58-4.27-1.06-6.26-1-4.37.22-8.72.77-13.08,1.13A176.32,176.32,0,0,0,595,65.81C591.69,66.63,588.61,68.08,589.54,72.62Z"/><path class="cls-2" d="M657.24,10.72c-14.35,3.27-28.89,5.69-43,10.14-2.24.71-4.83,1.11-6,3.71,3.2,2.27,4.78,3.13,8.1,2.88,14.74-1.11,29-5.07,43.34-8.22,2.28-.5,4.43-1.9,3.49-4.87C662.34,11.55,660.43,10,657.24,10.72Z"/><path class="cls-2" d="M537.83,719.66c2-.32,3.81-1.3,3.62-3.77s-2.2-2.85-4.23-2.87c-2.82,0-5.64,0-8.45,0-11.46.11-22.79,1.58-34.13,3-3.14.41-6.77.86-6.56,4.51.23,3.94,4,4.34,7.35,4,8.41-.74,16.81-1.48,25.2-2.42C526.38,721.52,532.11,720.6,537.83,719.66Z"/><path class="cls-2" d="M1225.14,61.37c1.47,1.62,3.43,1.27,5,1.2,12.45-.52,24.89-1.14,37.32-2,2.82-.19,7-.45,6.51-4.41-.35-3.22-4.25-2.89-7-3.27a3.2,3.2,0,0,0-.53,0c-11.58.38-23.15.7-34.73,1.16C1227.19,54.23,1224.82,56.67,1225.14,61.37Z"/><path class="cls-2" d="M1211.17,126.51c.51,1.34,1.91,1.32,3.13,1.53,6.51,1.13,13,0,20.37,0,6.67-.3,14.29.72,21.73-1.25,2.56-.67,4.61-1.79,4.12-5.06-.52-3.47-3.23-3.73-5.58-3.26-9.79,2-19.67.64-29.49,1.15-4.4.23-8.8.72-12.5,3.49C1211.86,123.88,1210.53,124.84,1211.17,126.51Z"/><path class="cls-2" d="M869.5,11.43c4,.55,6.41-.53,7.83-5.17-4.77-2.82-10.06-3.39-15-4.83L859.45.59H821.7a8.37,8.37,0,0,0,1.63.52C838.76,4.39,853.82,9.24,869.5,11.43Z"/><path class="cls-2" d="M751.57,48.71c14.4,3.58,29,2,43.59,2,3.29,0,5.61-2.7,7.61-5.18.86-1.05,1.69-2.29.85-3.85-1-1.87-2.58-1.39-4.14-1.12-1.73.3-3.45.61-5.19.82-11.73,1.46-23.56-.49-35.26,1-4.09.52-8.72-.1-12.13,3.81C748.45,48.18,750.06,48.33,751.57,48.71Z"/><path class="cls-2" d="M1184.57,35c-15.33-.77-30.45,1.46-45.58,3.29-2.08.25-4.09,1.61-4.08,4.13s2,3.55,4.15,4a23.43,23.43,0,0,0,4,.27c11.64-1.31,23.13-2.57,34.61-3.92,2.6-.31,5.16-.9,7.73-1.43,2.14-.44,2.72-2,2.53-3.94S1186.22,35.12,1184.57,35Z"/><path class="cls-2" d="M1213.82,88.34c-5.84-1.79-11.75-3.39-17.7-4.76-5.77-1.33-11.46-3.4-17.48-3.15-2.78.11-6.33.52-6.8,3.76-.52,3.57,3.06,4.31,5.74,4.9,5.11,1.14,10.3,1.94,15.46,2.88,6.54,1.19,12.91,3.3,20.38,3.53,1.5-.78,5.25,1.18,5.8-2.58C1219.73,89.45,1216.13,89.06,1213.82,88.34Z"/><path class="cls-2" d="M803.47,612.85c6.67.89,7.71.48,9.72-6.19-2.32-2-5.35-1.59-8-2-10.69-1.84-21.14-5.35-32.18-4.84-2.35.11-5.24.19-5.65,2.74-.49,3,2.81,2.92,4.81,3.72C782.21,610.22,792.84,611.44,803.47,612.85Z"/><path class="cls-2" d="M754.46,686.49a34.27,34.27,0,0,0,7.18-1.61,3.2,3.2,0,0,0,2.69-2.9c0-1.54-1.2-2.48-2.56-3.07a14.77,14.77,0,0,0-7.12-1.66c-8.59.72-17.19,0-25.76.19-5.93.13-12.35,0-18,4.24a10.21,10.21,0,0,0,7.67,4.18A215.82,215.82,0,0,0,754.46,686.49Z"/><path class="cls-2" d="M743.07,727.53c10.38-2.57,20.69-5.47,31-8.29a28.56,28.56,0,0,0,5.41-2c2.13-1.1,4.89-2.17,3.52-5.43-1.18-2.82-3.58-2.89-6.23-2.21-4.08,1-8.22,1.87-12.31,2.86-11.4,2.77-23.16,4.43-33.76,11C733.53,729.71,738.48,728.67,743.07,727.53Z"/><path class="cls-2" d="M815.44,680.5a6.85,6.85,0,0,0,4.95,1.28A260.63,260.63,0,0,0,862,676.7a8,8,0,0,0,6.7-7.58c-6.2-1.86-11.84.48-17.57.66A146.54,146.54,0,0,0,821,674.14C817.79,674.93,815.09,676.4,815.44,680.5Z"/><path class="cls-2" d="M840.1,566.53c2.26-.52,4.16-1.49,3.67-4.71s-2.85-4-4.87-3.51c-11.15,2.43-22.47.36-33.62,1.63-4.26.48-8.73,1.21-11.18,5.89,2,2.59,4.38,2.45,6.62,2.44,9.84,0,19.69,0,29.52-.21A49.56,49.56,0,0,0,840.1,566.53Z"/><path class="cls-2" d="M695.92,703.62c-19.65-4.84-38.4-13.37-60.55-10.39,2,4,4,5.38,6.43,5.87,15.44,3.08,30.44,8.16,46.13,10.18C692.22,709.84,694.55,708.76,695.92,703.62Z"/><path class="cls-2" d="M671.32,761.74c2.76,2.5,6.29,1.93,9.49,2.48,11.9,2,23.75,4.36,35.79,5.52,3.36.32,5.42-.76,5.64-5-15.71-6.17-32.34-8.26-49-10.15a3.75,3.75,0,0,0-4.08,2.71C668.63,759.17,670,760.5,671.32,761.74Z"/><path class="cls-2" d="M605,698.94c2.62-.56,5.8-1.13,5.07-5.28s-3.83-3.63-6.49-3.15a95.8,95.8,0,0,1-18.91,1.09,109.14,109.14,0,0,0-13.17.38c-4.32.44-8.78,1.13-11.07,6.1,2.23,2.48,4.81,2.21,7.2,2.22,9,0,17.94,0,26.91-.16A56.55,56.55,0,0,0,605,698.94Z"/><path class="cls-2" d="M536.59,750.21c10.72,3.43,22,4.53,33.31,5.77,5.2.58,7.91-1.25,8.56-5.9-12-1.74-23.74-3.47-35.46-5.1-4-.55-8-.69-10.89,2.37C533,749.23,534.84,749.65,536.59,750.21Z"/><path class="cls-2" d="M616.41,748.75c14.74-1.11,29-5.08,43.34-8.22,2.28-.5,4.43-1.9,3.49-4.87-.9-2.81-2.81-4.37-6-3.64-14.35,3.27-28.89,5.68-43,10.14-2.24.71-4.83,1.11-6,3.71C611.51,748.14,613.09,749,616.41,748.75Z"/><path class="cls-2" d="M808.78,716.94a7.57,7.57,0,0,0,5.46,4.16c15.42,3.28,30.48,8.14,46.16,10.33,4,.55,6.41-.53,7.83-5.18-4.77-2.82-10.06-3.38-15-4.82-11.26-3.28-22.58-6.54-34.42-6.88C815.39,714.45,811.48,713.47,808.78,716.94Z"/><path class="cls-2" d="M981.59,792.32c1.19.28,2.35.7,3.56.92,12,2.19,24.1,1.85,36.17,2.45,3.85.19,6.44-2.21,8.49-5.49-1.81-2.35-4-2.15-6.08-2.51-9-1.62-18.19,0-27.25-1.68-4.74-.86-9.67-2.06-14.59-.49-1.57.5-3.18,1.08-3.21,3A3.59,3.59,0,0,0,981.59,792.32Z"/><path class="cls-2" d="M1177.58,810.39c5.11,1.13,10.3,1.94,15.46,2.88,6.54,1.19,12.91,3.3,20.38,3.53,1.5-.78,5.25,1.17,5.8-2.58.51-3.47-3.09-3.86-5.4-4.58q-8.76-2.7-17.7-4.76c-5.77-1.34-11.46-3.4-17.48-3.15-2.78.11-6.33.51-6.8,3.76C1171.32,809.06,1174.9,809.8,1177.58,810.39Z"/><path class="cls-2" d="M1102.58,821.93c13.83,0,27.69.75,41.44-1.36,2.41-.37,4.78-1.29,4.24-4.82s-2.88-4-5.38-3.49c-5.75,1.1-11.53,1.12-17.33,1.13-6.49,0-13-.54-19.43,1.08-3.13.79-6,1.85-7.39,5.37A3.7,3.7,0,0,0,1102.58,821.93Z"/><path class="cls-2" d="M1185.45,762.72c2.14-.44,2.72-2,2.53-3.94s-1.76-2.36-3.41-2.44c-15.33-.77-30.45,1.46-45.58,3.29-2.08.25-4.09,1.61-4.08,4.13s2,3.55,4.15,4a23.43,23.43,0,0,0,4,.27c11.64-1.31,23.13-2.57,34.61-3.92C1180.32,763.84,1182.88,763.25,1185.45,762.72Z"/><path class="cls-2" d="M1237.8,719.66c2-.32,3.8-1.3,3.62-3.77s-2.21-2.85-4.24-2.87c-2.81,0-5.63,0-8.45,0-11.45.11-22.79,1.58-34.13,3-3.13.41-6.76.86-6.55,4.51.22,3.94,4,4.34,7.35,4,8.4-.74,16.81-1.48,25.19-2.42C1226.35,721.52,1232.08,720.6,1237.8,719.66Z"/><path class="cls-2" d="M1236.56,751.43c10.72,4.17,22,5.51,33.3,7,5.21.7,7.92-1.53,8.56-7.19-12-2.12-23.73-4.24-35.45-6.22-4-.68-8-.84-10.9,2.89C1232.92,750.23,1234.8,750.74,1236.56,751.43Z"/><path class="cls-2" d="M1060.31,775.19a115.63,115.63,0,0,0,32.08,5.71c3.32.1,8.76,1.42,9.33-2.06.69-4.2-4.78-5.32-8.34-6.38-10.47-3.1-21.32-4.34-32.08-5.93-3.22-.48-6.25.49-8.93,3.5C1054.22,773.46,1057.4,774.25,1060.31,775.19Z"/><path class="cls-2" d="M897,797.28c12.4.88,24.83,2.32,37.25.22,3.16-.54,7.89-.41,7.7-4.48-.19-3.73-4.79-3.82-8.09-4.25a3,3,0,0,0-.52,0c-10.51.1-21,0-31.52.41-4.26.15-8.72.47-12.59,3.74C891.05,796.52,894.23,797.09,897,797.28Z"/><path class="cls-2" d="M981.35,747.76c3.29.1,6.41-.26,7.63-4.91-2.68-1-5.09-2-7.6-2.75-12.85-3.61-26.21-4.45-39.26-7.05-3.55-.7-7.29-1.36-11-.56-1.57.34-3.93-.2-4.24,2.2s2,2.64,3.47,3.37c6.38,3.22,13.41,3.93,20.35,4.88C961,744.35,971,747.45,981.35,747.76Z"/><path class="cls-2" d="M1056.1,733.19c3.33-.51,8.61-.09,8.54-4.18-.09-4.74-5.53-4.61-9.22-4.66-10.35-.12-20.72-.11-31.05.42-4.14.21-8.77.2-12.44,3.84a7.68,7.68,0,0,0,6.33,4.21C1030.86,733.63,1043.48,735.16,1056.1,733.19Z"/><path class="cls-2" d="M855.88,772.38c6.93.37,12.91-2.84,19.29-4.51,7.78-2,15.83-3.12,23.23-6.45,2-.9,4.58-2,3.4-5-1-2.53-2.88-3.35-5.93-2.53-6.94,1.88-14.06,3-21,4.78-8.63,2.15-17.46,3.84-25.27,9.2C850.89,771.24,852.83,772.22,855.88,772.38Z"/><path class="cls-2" d="M1304.93,698.94c2.62-.56,5.79-1.13,5.07-5.28s-3.84-3.63-6.49-3.15a95.9,95.9,0,0,1-18.92,1.09,109.14,109.14,0,0,0-13.17.38c-4.31.44-8.77,1.13-11.06,6.1,2.23,2.48,4.8,2.21,7.2,2.22,9,0,17.94,0,26.9-.16A56.65,56.65,0,0,0,1304.93,698.94Z"/><path class="cls-2" d="M579.36,105.79a180,180,0,0,0,38.89.5c3-.29,8-.05,7.66-4.43-.3-4.15-5.17-4.48-8.48-4.37-9.1.29-18.21-.22-27.27.1-5.65.2-12-.2-16.9,4.16A7.15,7.15,0,0,0,579.36,105.79Z"/><path class="cls-2" d="M555.2,326.42c1.89,2.53,4.31,2.29,6.51,2.3,9.85,0,19.7,0,29.54-.19a53.65,53.65,0,0,0,9.88-1.51c2.39-.51,4-1.73,3.77-4.77-.26-3.39-2.87-3.87-4.83-3.46-11.17,2.35-22.49.41-33.66,1.6C562.1,320.84,557.61,321.53,555.2,326.42Z"/><path class="cls-2" d="M870.53,891.54c12-.44,23.71-2.66,35.55-4.16,5.25-.67,7.71-3.76,10.3-7.46-2.3-2-4.41-1.66-6.51-1.46-5.76.56-11.52,1.17-17.3,1.6a129.08,129.08,0,0,0-24.87,4.15c-3.15.87-5.4,2.39-5.23,6.46C865.28,892.06,868,891.64,870.53,891.54Z"/><path class="cls-2" d="M1342.83,782.55c-2.08-1.58-4.26-1.06-6.26-.95-4.36.22-8.71.77-13.07,1.13a176.15,176.15,0,0,0-28.55,4.38c-3.29.82-6.37,2.26-5.44,6.8a18.23,18.23,0,0,0,3.2.63c14.47.34,28.65-2.38,42.83-4.67A9,9,0,0,0,1342.83,782.55Z"/><path class="cls-2" d="M1176,859.84c6,1.13,12,2.54,18.21,2.2,3-.16,5.44-1,5.65-4.56-14.12-7.14-55.89-12.82-62-8.26,2.45,3.38,5.81,4.6,9.21,5.28C1156.66,856.43,1166.34,858,1176,859.84Z"/><path class="cls-2" d="M1315.77,885.12c-4.83-8.8-42.07-15.59-49.65-9C1271.69,883.8,1306.67,890.18,1315.77,885.12Z"/><path class="cls-2" d="M1325.88,823.15c-.3-4.14-5.17-4.47-8.48-4.36-9.11.29-18.21-.22-27.28.1-5.64.2-12-.2-16.89,4.16a7.14,7.14,0,0,0,6.09,4,179.42,179.42,0,0,0,38.9.49C1321.18,827.29,1326.2,827.54,1325.88,823.15Z"/><path class="cls-2" d="M1186.61,887.27c12.79,3,25.89,2.13,38.85,3,3.45.22,6.06-2.28,7.93-5.24a3.77,3.77,0,0,0-3.45-2.39q-21.54-1.47-43.08-2.74c-1.95-.11-4.13.46-4.39,2.88C1182.15,885.6,1184.12,886.69,1186.61,887.27Z"/><path class="cls-2" d="M957.21,823.72c-1-2.39-2.54-4.16-6.09-3.29-10.55,2.57-21.3,4.35-31.82,7-5.77,1.48-12,2.24-17.1,6.38,2.38,3.38,5.78,3.45,8.75,3.23,14.55-1.06,28.59-5,42.78-8.07C956.27,828.47,958.56,826.81,957.21,823.72Z"/><path class="cls-2" d="M998.48,871.25c3.48,0,6-2.65,8.13-5.33a3.32,3.32,0,0,0,.46-3.93c-.93-1.56-2.47-1.12-3.79-1-2.09.21-4.15.77-6.24,1-12.27,1.06-24.62-.45-36.89,1-3.42.41-6.89.54-9.4,4,1.67,1.88,3.48,1.95,5.15,2.35C970,872.74,984.26,871.26,998.48,871.25Z"/><path class="cls-2" d="M1063.86,869.87c11.23-2.8,22.37-5.94,33.53-9a22.1,22.1,0,0,0,4.43-1.68c2-1,4.58-2,3.67-5-1-3.21-3.69-3.29-6.52-2.65-7.7,1.77-15.45,3.3-23.1,5.28s-15.71,3.66-22.54,8.63C1055.38,871.06,1059.72,870.91,1063.86,869.87Z"/><path class="cls-2" d="M1099.58,898.76c12.78.87,25.58,2.27,38.36.2,3.08-.5,7.88-.13,7.57-4.49-.27-3.79-4.77-4.14-8.08-4.16-10.7,0-21.42-.16-32.1.35-4.3.2-9.17.17-12.46,4.26A8.35,8.35,0,0,0,1099.58,898.76Z"/><path class="cls-2" d="M1049.71,831.24c2.7-.43,6.43-.51,6.4-4s-4-3.23-6.42-4.29a4.07,4.07,0,0,0-1.57-.13c-10.34.05-20.69-.22-31,.3-4.65.23-9.86,0-13.87,4.16a7.88,7.88,0,0,0,6,3.89C1022.76,832.29,1036.24,833.39,1049.71,831.24Z"/><path class="cls-2" d="M1274,777.49c-.35-3.22-4.25-2.89-7-3.27a2.39,2.39,0,0,0-.53,0c-11.58.38-23.15.7-34.73,1.16-4.59.18-7,2.62-6.64,7.31,1.47,1.63,3.43,1.28,5,1.21,12.45-.53,24.89-1.14,37.32-2C1270.31,781.71,1274.44,781.45,1274,777.49Z"/><path class="cls-2" d="M735.27,3.64c3.92-1,7.82-2,11.73-3.05H723.44C726.33,5.68,731,4.71,735.27,3.64Z"/><path class="cls-2" d="M495.43,3.3c8.41-.75,16.81-1.49,25.2-2.43.74-.08,1.47-.18,2.21-.28h-34.5C489.27,3.28,492.53,3.55,495.43,3.3Z"/><path class="cls-2" d="M11.93,884.68c-4.09-2.38-8.12-2.51-12.12-2.62H-.45v8.43l3.78.11C7.18,890.73,9.78,888.48,11.93,884.68Z"/><path class="cls-2" d="M312.61,897.59a3,3,0,0,0,1.24,3h36.49c-10.24-1.84-20.49-3.14-30.34-5.23C317,896.18,313.15,894.26,312.61,897.59Z"/><path class="cls-2" d="M1012.58,897.59a3,3,0,0,0,1.24,3h36.49c-10.24-1.84-20.49-3.14-30.34-5.23C1017,896.18,1013.11,894.26,1012.58,897.59Z"/><path class="cls-2" d="M1369.39,887.48c1,.13,2,.59,3,.76,12,2,24.1,2,36.19,2.36,3.85.13,6.45-2.12,8.6-5.92-4.09-2.38-8.12-2.51-12.12-2.62-7.17-.19-14.35.15-21.48-1.1-4.64-.82-9.36-1.7-14.1-.65-1.73.39-3.61,1-3.57,3.22A3.66,3.66,0,0,0,1369.39,887.48Z"/><path class="cls-2" d="M1195.4,3.3c8.4-.75,16.81-1.49,25.19-2.43.74-.08,1.48-.18,2.21-.28h-34.5C1189.24,3.28,1192.5,3.55,1195.4,3.3Z"/><path class="cls-2" d="M1345.32,810.32c6.35,1.34,12.75,2.47,19.12,3.69l13.11,2.51c4-.16,7.52.56,8.14-2.67.66-3.4-3.15-3.79-5.41-4.6a125.51,125.51,0,0,0-13.64-3.87c-6.48-1.51-13-3-19.55-4-3.49-.55-8.13-.12-8.84,3.65C1337.46,809.23,1342.16,809.65,1345.32,810.32Z"/><path class="cls-2" d="M1364.26,853.3c13.91-1.5,27.8-3.31,41.7-4.92,3.78-.44,5.35-2.23,4.21-6.41-16-1.46-31.43.54-46.87,2.65-2.84.39-6.25.91-5.93,4.51S1361.24,853.62,1364.26,853.3Z"/><path class="cls-2" d="M1424,838a18.56,18.56,0,0,0,4.28.49l11.31-1.28v-9c-5.11.58-10.23,1.26-15.33,2a4.23,4.23,0,0,0-3.82,3.84C1420.24,836.33,1422.14,837.38,1424,838Z"/><path class="cls-2" d="M1421.72,767.92c-16.79-1.78-33.37.62-49.93,3.22a3.75,3.75,0,0,0-3.21,3.69c0,2,1.6,2.89,3.25,3.72,3.33,1.68,6.58.19,9.81-.13,12-1.2,24.06-2.1,36-4.18C1420.94,773.66,1422.64,772.07,1421.72,767.92Z"/><path class="cls-2" d="M746.73,872.83c12.15,2.54,24.35,4.84,35.55,7,3.65-.09,7,.25,7.62-2.91s-2.95-3.51-5-4.26c-11-4-22.6-6.1-34.07-8.33-3-.58-7.27.16-8.54,3.78C741.19,871.17,744.44,872.35,746.73,872.83Z"/><path class="cls-2" d="M16.42,767.92A119,119,0,0,0-.45,767.4v8.67c4.27-.5,8.52-1.09,12.76-1.83C15.64,773.66,17.34,772.07,16.42,767.92Z"/><path class="cls-2" d="M820.89,646.74c-.12-3.52-4.27-3.45-7.2-3.61-11.76-.61-23.47.92-35.21,1.17-4.43.1-7.38,2.22-6.08,8.25,14,1,27.76-1.09,41.53-1.69C816.86,650.74,821,650.25,820.89,646.74Z"/><path class="cls-2" d="M363.89,869.87c11.23-2.8,22.37-5.94,33.54-9a22.34,22.34,0,0,0,4.43-1.68c2-1,4.58-2,3.66-5-1-3.21-3.69-3.29-6.51-2.65-7.7,1.77-15.46,3.3-23.1,5.28s-15.72,3.66-22.54,8.63C355.41,871.06,359.76,870.91,363.89,869.87Z"/><path class="cls-2" d="M4.87,842c-1.78-.17-3.55-.28-5.32-.36v6.9l1.11-.13C4.44,847.94,6,846.15,4.87,842Z"/><path class="cls-2" d="M399.62,898.76c12.77.87,25.57,2.27,38.35.2,3.09-.5,7.88-.13,7.57-4.49-.27-3.79-4.76-4.14-8.08-4.16-10.7,0-21.42-.16-32.1.35-4.29.2-9.16.17-12.46,4.26A8.38,8.38,0,0,0,399.62,898.76Z"/><path class="cls-2" d="M123.37,1.11c15.42,3.28,30.49,8.13,46.16,10.32,4,.55,6.42-.53,7.84-5.17-4.78-2.82-10.07-3.39-15-4.83L159.48.59H121.73A8.25,8.25,0,0,0,123.37,1.11Z"/><path class="cls-2" d="M525.17,61.37c1.47,1.62,3.43,1.27,5,1.2,12.44-.52,24.88-1.14,37.31-2,2.82-.19,7-.45,6.52-4.41-.36-3.22-4.26-2.89-7-3.27a3.08,3.08,0,0,0-.53,0c-11.57.38-23.15.7-34.72,1.16C527.22,54.23,524.85,56.67,525.17,61.37Z"/><path class="cls-2" d="M511.2,126.51c.52,1.34,1.91,1.32,3.14,1.53,6.5,1.13,13,0,20.36,0,6.68-.3,14.3.72,21.74-1.25,2.56-.67,4.61-1.79,4.11-5.06-.52-3.47-3.22-3.73-5.58-3.26-9.79,2-19.67.64-29.49,1.15-4.39.23-8.8.72-12.49,3.49C511.9,123.88,510.56,124.84,511.2,126.51Z"/><path class="cls-2" d="M476,859.84c6,1.13,12,2.54,18.2,2.2,3-.16,5.45-1,5.66-4.56-14.12-7.14-55.9-12.82-62-8.26,2.45,3.38,5.8,4.6,9.2,5.28C456.7,856.43,466.38,858,476,859.84Z"/><path class="cls-2" d="M484.6,35c-15.32-.77-30.44,1.46-45.58,3.29-2.07.25-4.08,1.61-4.07,4.13s2,3.55,4.15,4a23.43,23.43,0,0,0,4,.27c11.63-1.31,23.12-2.57,34.61-3.92,2.59-.31,5.15-.9,7.72-1.43,2.14-.44,2.72-2,2.53-3.94S486.26,35.12,484.6,35Z"/><path class="cls-2" d="M513.85,88.34C508,86.55,502.11,85,496.16,83.58c-5.78-1.33-11.47-3.4-17.49-3.15-2.77.11-6.32.52-6.8,3.76-.51,3.57,3.07,4.31,5.74,4.9,5.12,1.14,10.31,1.94,15.47,2.88,6.53,1.19,12.9,3.3,20.37,3.53,1.51-.78,5.26,1.18,5.81-2.58C519.77,89.45,516.17,89.06,513.85,88.34Z"/><path class="cls-2" d="M349.75,831.24c2.69-.43,6.42-.51,6.39-4s-4-3.23-6.42-4.29a4,4,0,0,0-1.56-.13c-10.34.05-20.7-.22-31,.3-4.66.23-9.87,0-13.88,4.16a7.91,7.91,0,0,0,6.06,3.89C322.79,832.29,336.28,833.39,349.75,831.24Z"/><path class="cls-2" d="M760,804.94c3.09-.5,7.88-.13,7.57-4.49-.27-3.79-4.76-4.14-8.08-4.16-10.7,0-21.42-.16-32.1.35-4.29.2-9.17.18-12.46,4.26a8.38,8.38,0,0,0,6.72,3.84C734.42,805.61,747.22,807,760,804.94Z"/><path class="cls-2" d="M737.43,837.72a18.56,18.56,0,0,0,4.28.49c8.63-1,17.35-2,26.08-2.94,5.58-.62,11.21-.94,16.67-2.41a3.25,3.25,0,0,0,2.71-3.87,2.53,2.53,0,0,0-2.76-2.48c-15.71-.8-31.23,1.23-46.72,3.35a4.23,4.23,0,0,0-3.82,3.84C733.71,836,735.61,837.07,737.43,837.72Z"/><path class="cls-2" d="M806.67,759c.86-1.06,1.69-2.29.85-3.85-1-1.87-2.58-1.39-4.14-1.12-1.73.29-3.45.6-5.19.82-11.73,1.46-23.56-.49-35.26,1-4.09.52-8.72-.1-12.13,3.8,1.55,2,3.16,2.14,4.67,2.52,14.4,3.57,29,2,43.59,2C802.35,764.19,804.67,761.5,806.67,759Z"/><path class="cls-2" d="M486.64,887.27c12.8,3,25.9,2.13,38.85,3,3.46.22,6.06-2.28,7.93-5.24a3.75,3.75,0,0,0-3.45-2.39q-21.53-1.47-43.08-2.74c-1.95-.11-4.12.46-4.39,2.88C482.18,885.6,484.15,886.69,486.64,887.27Z"/><path class="cls-2" d="M669.42,887.48c1,.13,2,.59,3.05.76,12,2,24.11,2,36.19,2.36,3.86.13,6.45-2.12,8.6-5.92-4.08-2.38-8.11-2.51-12.12-2.62-7.16-.19-14.34.15-21.47-1.1-4.65-.82-9.36-1.7-14.1-.65-1.73.39-3.62,1-3.57,3.22A3.65,3.65,0,0,0,669.42,887.48Z"/><path class="cls-2" d="M532.11,26.64c.85,2.29,2.73,2.8,4.48,3.49,10.72,4.17,22,5.52,33.31,7,5.2.7,7.91-1.53,8.56-7.19-12-2.12-23.74-4.24-35.46-6.22C539,23.07,535,22.91,532.11,26.64Z"/><path class="cls-2" d="M556.44,848c2.56-.68,4.61-1.79,4.11-5.06-.52-3.47-3.22-3.73-5.58-3.26-9.79,2-19.67.64-29.49,1.15-4.39.22-8.8.72-12.49,3.49-1.09.81-2.43,1.78-1.79,3.45.52,1.34,1.91,1.32,3.14,1.53,6.5,1.13,13,0,20.36-.06C541.38,849,549,850,556.44,848Z"/><path class="cls-2" d="M574,777.49c-.36-3.22-4.26-2.89-7-3.27a2.33,2.33,0,0,0-.53,0c-11.57.38-23.15.7-34.72,1.16-4.6.18-7,2.62-6.65,7.31,1.47,1.63,3.43,1.28,5,1.21,12.44-.53,24.88-1.14,37.31-2C570.34,781.71,574.47,781.45,574,777.49Z"/><path class="cls-2" d="M650,855.9c13.92-1.5,27.8-3.31,41.71-4.92,3.77-.44,5.34-2.23,4.2-6.41-16-1.46-31.43.54-46.87,2.65-2.84.39-6.25.91-5.93,4.51S647,856.22,650,855.9Z"/><path class="cls-2" d="M642.87,782.55c-2.09-1.58-4.27-1.06-6.26-.95-4.37.22-8.72.77-13.08,1.13A176.32,176.32,0,0,0,595,787.11c-3.29.82-6.37,2.26-5.44,6.8a18.41,18.41,0,0,0,3.2.63c14.48.34,28.65-2.38,42.83-4.67A9,9,0,0,0,642.87,782.55Z"/><path class="cls-2" d="M645.35,810.32c6.35,1.34,12.75,2.47,19.13,3.69l13.1,2.51c4-.16,7.52.56,8.15-2.67.65-3.4-3.16-3.79-5.41-4.6a125.68,125.68,0,0,0-13.65-3.87c-6.47-1.51-13-3-19.54-4-3.49-.55-8.13-.12-8.84,3.65C637.5,809.23,642.19,809.65,645.35,810.32Z"/><path class="cls-2" d="M1256.4,848c2.56-.68,4.61-1.79,4.12-5.06-.52-3.47-3.23-3.73-5.58-3.26-9.79,2-19.67.64-29.49,1.15-4.4.22-8.8.72-12.5,3.49-1.09.81-2.42,1.78-1.78,3.45.51,1.34,1.91,1.32,3.13,1.53,6.51,1.13,13,0,20.37-.06C1241.34,849,1249,850,1256.4,848Z"/><path class="cls-2" d="M123.37,722.4c15.42,3.28,30.49,8.14,46.16,10.33,4,.55,6.42-.53,7.84-5.18-4.78-2.82-10.07-3.38-15-4.82-11.27-3.28-22.59-6.54-34.43-6.88-3.42-.1-7.32-1.08-10,2.39A7.57,7.57,0,0,0,123.37,722.4Z"/><path class="cls-2" d="M120.42,681.78A260.9,260.9,0,0,0,162,676.7a8,8,0,0,0,6.69-7.58c-6.2-1.86-11.84.48-17.56.66a146.63,146.63,0,0,0-30.09,4.36c-3.25.79-5.95,2.26-5.6,6.36A6.87,6.87,0,0,0,120.42,681.78Z"/><path class="cls-2" d="M155.92,772.38c6.93.37,12.91-2.84,19.29-4.51,7.77-2,15.82-3.12,23.22-6.45,2-.9,4.59-2,3.4-5-1-2.53-2.87-3.35-5.93-2.53-6.93,1.88-14.05,3-21,4.78-8.62,2.15-17.46,3.84-25.27,9.2C150.93,771.24,152.86,772.22,155.92,772.38Z"/><path class="cls-2" d="M124.73,637.19c-.11-3.52-4.26-3.46-7.19-3.61-11.77-.62-23.47.92-35.22,1.17-4.42.09-7.38,2.22-6.08,8.25,14,1,27.76-1.09,41.53-1.69C120.7,641.18,124.85,640.7,124.73,637.19Z"/><path class="cls-2" d="M281.39,747.76c3.29.1,6.41-.26,7.62-4.91-2.68-1-5.09-2-7.6-2.75-12.85-3.61-26.21-4.45-39.25-7.05-3.55-.7-7.29-1.36-11-.56-1.56.34-3.93-.2-4.23,2.2s2,2.64,3.46,3.37c6.39,3.22,13.41,3.93,20.35,4.88C261,744.35,271,747.45,281.39,747.76Z"/><path class="cls-2" d="M197,797.28c12.4.88,24.83,2.32,37.25.22,3.16-.54,7.9-.41,7.7-4.48-.18-3.73-4.79-3.82-8.08-4.25a3.08,3.08,0,0,0-.53,0c-10.5.1-21,0-31.52.41-4.25.15-8.72.47-12.58,3.74C191.09,796.52,194.27,797.09,197,797.28Z"/><path class="cls-2" d="M12.23,632.06a216.57,216.57,0,0,0,35.4,5.73,34.45,34.45,0,0,0,7.34-.58c1.46-.18,2.84-.94,3.07-2.49s-.83-2.62-2.09-3.4a14.81,14.81,0,0,0-6.82-2.65c-8.6-.51-17-2.45-25.52-3.49-5.89-.71-12.22-1.76-18.38,1.65A10.24,10.24,0,0,0,12.23,632.06Z"/><path class="cls-2" d="M16.85,392c-.25-2.6-2.27-2.43-3.89-2.48-4.2-.14-8.41-.05-12.61-.05,0-.13,0-.26,0-.39l-.78.08v8.91c4.65-.54,9.28-1.26,13.86-2.23C15.15,395.45,17.1,394.61,16.85,392Z"/><path class="cls-2" d="M8.5,436.21c-.15-3.16-3.17-2.86-5.29-3C2,433.09.77,433-.45,433v8c1.47-.2,2.94-.43,4.42-.74C5.68,439.31,8.64,439.13,8.5,436.21Z"/><path class="cls-2" d="M320.71,698.36c.77-3.8-2-4.32-4.58-5-14.18-3.48-28.7-5.1-43-7.72-2.66-.48-5.64-.72-8.34,2,1.82,3.64,5.05,4.62,8.29,5.27q20.67,4.18,41.38,8.09C316.86,701.44,319.9,702.32,320.71,698.36Z"/><path class="cls-2" d="M60,717.68c10.38-2.58,20.68-5.47,31-8.3a27.75,27.75,0,0,0,5.42-2c2.13-1.1,4.88-2.16,3.52-5.43-1.18-2.82-3.58-2.88-6.24-2.2-4.08,1-8.21,1.86-12.31,2.86-11.39,2.77-23.15,4.42-33.76,11C50.44,719.85,55.39,718.82,60,717.68Z"/><path class="cls-2" d="M4.91,575.55c.46,4.15,3.88,4.8,6.81,4.47,13.93-1.6,27.82-3.55,41.74-5.29,4-.49,5.07-2.59,3.74-6.85-2-.23-4.09-.62-6.16-.69-13.73-.45-27.28,1.65-40.84,3.49C7.65,571,4.47,571.62,4.91,575.55Z"/><path class="cls-2" d="M576,652.77c2.29,0,4.58,0,6.87,0a1.09,1.09,0,0,0,0,.18c11.22-.81,22.45-1.53,33.66-2.48,2.26-.19,4.93-1.18,4.77-4-.14-2.48-2.82-2.8-4.86-3.2a18.53,18.53,0,0,0-4.21-.28c-11.06.38-22.12.81-33.18,1.23a9.26,9.26,0,0,0-5,1.55,4.3,4.3,0,0,0-1.69,4.68C572.73,652.43,574.32,652.77,576,652.77Z"/><path class="cls-2" d="M508.89,668.5c5.65,1.22,11.36,2.15,17,3.19,6,1.1,11.91,2.94,17.91,3.26,2.67-.28,6.17.85,6.94-2.47.84-3.59-3-3.91-5.22-4.68a193.59,193.59,0,0,0-26.44-6.72c-3.24-.64-6.42-1.79-9.8-1.14-2.58.5-5.91.77-6.05,4S506.34,668,508.89,668.5Z"/><path class="cls-2" d="M581.29,574.55a22.55,22.55,0,0,0-2.5-.49c-15.2-1.28-30.16,1.35-45.16,3.05-2.56.29-5.06,1.87-4.68,4.69.46,3.47,3.81,4.16,6.59,3.87,14.16-1.49,28.29-3.2,42.42-4.94C581.52,580.29,582.69,578.15,581.29,574.55Z"/><path class="cls-2" d="M635.55,573.34A85.1,85.1,0,0,0,648,571.78c2.57-.46,4.3-1.63,3.83-5.06a3.77,3.77,0,0,0-4.88-3.39c-11.09,2.84-22.4.41-33.5,1.77-4.33.54-8.65,1.36-11.28,5.9,2.09,2.65,4.63,2.49,7,2.5C618,573.51,626.79,573.6,635.55,573.34Z"/><path class="cls-2" d="M4.86,498.66c-1.77-.14-3.54-.24-5.31-.31v6.92l1.17-.14C4.43,504.7,6.08,502.83,4.86,498.66Z"/><path class="cls-2" d="M488.57,630.79q21.26-2.2,42.45-4.75c3.26-.38,5.16-2.2,3.73-6.26a10.23,10.23,0,0,0-1.66-.47c-15.74-1.35-31.23,1.27-46.77,3.11-2.31.28-4.79,1.65-4.31,4.42C482.59,630.2,485.62,631.09,488.57,630.79Z"/><path class="cls-2" d="M486.69,674.48c-3.63-2.31-7.26-2.67-10.95-2.68-9.12,0-18.21-.2-27.24-1.83a34.2,34.2,0,0,0-8.93-.12c-1.83.15-4.17.62-4.28,3.09s1.42,3.81,3.81,4.26c1.2.23,2.37.67,3.58.85,11.66,1.76,23.44,1.82,35.19,2.24C481.79,680.43,484.3,678,486.69,674.48Z"/><path class="cls-2" d="M355.4,649c1.85-1,4.11-2.14,3.06-4.74s-3-3.43-6-2.63c-5.92,1.57-12,2.57-17.92,4-9.65,2.39-19.55,4.11-28.37,9.88,2.93,4.86,5.67,6.09,11.94,4.18,10.55-3.22,21.25-5.87,31.93-8.61A25.2,25.2,0,0,0,355.4,649Z"/><path class="cls-2" d="M349.28,687.75a24.14,24.14,0,0,0,4.55,1.09c6.6,1.08,13.28.81,19.94.82,4.2,0,8.42.17,12.62-.06a49.28,49.28,0,0,0,8.78-1.41c1.64-.4,3.57-1.12,3.62-3.29s-1.84-2.8-3.43-3.49a14.73,14.73,0,0,0-7.2-1.2c-8,.71-16,.31-24.08.12a51.61,51.61,0,0,0-14.53,1.94c-1.35.36-2.93.7-3.17,2.31C346.07,686.6,347.86,687.21,349.28,687.75Z"/><path class="cls-2" d="M411.66,595.47c-.13-4.65-5.87-4.84-9.35-4.53-11.06,1-22.14-.63-33.13.7-3.46.42-7.41.39-10.19,3.88a9.8,9.8,0,0,0,8.12,4.21c11.91.44,23.83,2,35.74.18C406.28,599.37,411.79,600,411.66,595.47Z"/><path class="cls-2" d="M409.85,722a17.8,17.8,0,0,0,3.9,1.54c13,3.8,26.41,5.32,39.86,6.53a7.19,7.19,0,0,0,7.22-3.39c-1.77-3.18-4.9-3.46-7.67-4.19-13.4-3.55-27.3-4.45-40.8-7.49-2.46-.55-5.17-.28-6.05,2.56C405.47,720.22,408.11,721,409.85,722Z"/><path class="cls-2" d="M404.33,637.65a109.78,109.78,0,0,0,37.48,6.92c2.55,0,5.3.41,8.14-2-2.17-3.92-5.7-5.37-9.35-6.44a163.71,163.71,0,0,0-23.66-4.6c-3.95-.56-7.82-2.12-11.89-1.07-2,.51-4.62.68-4.91,3.18S402.48,637,404.33,637.65Z"/><path class="cls-2" d="M-.45,160.76v8.43l3.78.11c3.85.13,6.45-2.12,8.6-5.92C7.84,161,3.81,160.87-.19,160.76Z"/><path class="cls-2" d="M167.74,162.91c-3.15.88-5.4,2.39-5.23,6.46,2.8,1.39,5.47,1,8.05.87,12-.43,23.71-2.66,35.55-4.16,5.25-.67,7.72-3.76,10.3-7.46-2.3-2-4.41-1.66-6.5-1.46-5.77.56-11.52,1.17-17.31,1.6A129,129,0,0,0,167.74,162.91Z"/><path class="cls-2" d="M437.46,169c-10.7,0-21.42-.16-32.1.35-4.29.2-9.16.18-12.46,4.26a8.38,8.38,0,0,0,6.72,3.84c12.77.87,25.57,2.28,38.35.2,3.09-.5,7.88-.13,7.57-4.49C445.27,169.38,440.78,169,437.46,169Z"/><path class="cls-2" d="M399,130.31c-7.7,1.76-15.46,3.3-23.1,5.27s-15.72,3.66-22.54,8.63c2,5.56,6.39,5.4,10.52,4.37,11.23-2.8,22.37-6,33.54-9a21.73,21.73,0,0,0,4.43-1.68c2-1,4.58-2,3.66-5C404.52,129.74,401.83,129.66,399,130.31Z"/><path class="cls-2" d="M251.16,99.13c-10.56,2.57-21.31,4.35-31.83,7-5.76,1.48-12,2.24-17.09,6.38,2.38,3.38,5.78,3.45,8.74,3.23,14.55-1.06,28.59-5,42.79-8.07,2.53-.54,4.83-2.2,3.48-5.29C256.21,100,254.7,98.26,251.16,99.13Z"/><path class="cls-2" d="M260.19,141.67c-3.42.41-6.89.54-9.41,4,1.68,1.88,3.49,1.95,5.15,2.36,14.06,3.4,28.36,1.92,42.58,1.91,3.49,0,6.05-2.64,8.13-5.33a3.32,3.32,0,0,0,.47-3.93c-.94-1.56-2.47-1.11-3.8-1-2.09.2-4.14.76-6.23.94C284.8,141.72,272.46,140.2,260.19,141.67Z"/><path class="cls-2" d="M349.72,101.61a4,4,0,0,0-1.56-.13c-10.34,0-20.7-.22-31,.3-4.66.23-9.87,0-13.88,4.16a7.91,7.91,0,0,0,6.06,3.89c13.46,1.16,26.95,2.27,40.42.11,2.69-.43,6.42-.51,6.39-4S352.16,102.67,349.72,101.61Z"/><path class="cls-2" d="M541.87,363.19c1.17,2.52,3.35,2.76,5.29,3.53,10.26,4,21.1,5.16,31.87,6.71,6.07.88,7.56,0,9.13-6.93-13.29-2.19-26.25-6-39.79-6.57C546,359.84,543.42,360.46,541.87,363.19Z"/><path class="cls-2" d="M545.49,289.73a143.14,143.14,0,0,0-21.3-5.57c-5.24-1-10.34-3.33-15.85-2.06-2.15.49-4.68.69-4.76,3.86s2.53,3.79,4.5,4.31c4,1.07,8.25,1.49,12.38,2.21,7.92,1.38,15.64,3.79,23.2,4.48,3.07-.11,6.52.56,7.16-2.64C551.52,290.85,547.79,290.54,545.49,289.73Z"/><path class="cls-2" d="M443.86,255.85c-9.29-2.64-18.85-3.84-28.35-5.34-2.36-.37-4.69-1.49-7.2-.29-1.82.88-4.65.77-4.84,3.29s2.51,3.25,4.34,3.93a107.41,107.41,0,0,0,39.07,6.9c2,0,4.28.31,6.4-2.26C451,258.5,447.59,256.91,443.86,255.85Z"/><path class="cls-2" d="M501.36,211.35c-4.44-1-8.86-2.19-13.34-3-9.32-1.63-18.68-3-28-4.6-2.78-.47-5.91-.37-6.79,2.23-1,2.87,2.33,3.89,4.48,4.92a32,32,0,0,0,5.46,1.88c11.89,3.24,24.11,4.45,36.29,5.91,3.23.38,6.26-.21,8.47-3.57A10.9,10.9,0,0,0,501.36,211.35Z"/><path class="cls-2" d="M528.82,241c-13.55-.5-26.91,1.36-40.3,3.05-3.13.39-6.64.8-6.45,4.54s3.73,4.32,6.86,4q20.9-2.18,41.75-4.58c3.42-.4,5.65-2,3.92-6.68C532.63,241.25,530.73,241.11,528.82,241Z"/><path class="cls-2" d="M151.12,287.53a185.69,185.69,0,0,0-32.37,4.29c-3.33.78-7.22,1.36-7.18,6.78a8.28,8.28,0,0,0,6.05,1.41c13.48-1,26.93-2.35,40.15-5.25,3.66-.81,6.31-3.31,7.58-7.53C160.32,285.38,155.72,287.28,151.12,287.53Z"/><path class="cls-2" d="M15.1,112.7c-.16,2.33,1.74,3.38,3.56,4a19.14,19.14,0,0,0,4.28.48c8.63-1,17.35-2,26.08-2.93,5.58-.62,11.21-1,16.67-2.41A3.25,3.25,0,0,0,68.4,108a2.52,2.52,0,0,0-2.76-2.48c-15.71-.81-31.23,1.22-46.72,3.35A4.21,4.21,0,0,0,15.1,112.7Z"/><path class="cls-2" d="M477.61,810.39c5.12,1.13,10.31,1.94,15.47,2.88,6.53,1.19,12.9,3.3,20.37,3.53,1.51-.78,5.26,1.17,5.81-2.58.51-3.47-3.09-3.86-5.41-4.58-5.83-1.8-11.74-3.39-17.69-4.76-5.78-1.34-11.47-3.4-17.49-3.15-2.77.11-6.32.51-6.8,3.76C471.36,809.06,474.94,809.8,477.61,810.39Z"/><path class="cls-2" d="M644.66,661.25c12.11-.44,24-2.66,36-4.26,4.76-.64,7.16-3.63,9.69-7.33-2.41-2-4.34-1.6-6.24-1.46-5.75.41-11.47,1.16-17.23,1.55A132.71,132.71,0,0,0,642,653.81c-3.43.9-6.19,2.37-5.32,6.73C639.41,661.68,642.07,661.34,644.66,661.25Z"/><path class="cls-2" d="M72.45,74.56c-14.67-4-29.78-4.35-44.79-5.46-2.5-.19-5.33.61-5.22,3.85.13,3.46,3.15,4.59,6,4.84,14,1.25,27.92,2.32,41.89,3.36,3.63.27,5.76-1.19,5-5.45A23.4,23.4,0,0,0,72.45,74.56Z"/><path class="cls-2" d="M4.81,197.19c.63,3.46,3.87,3.55,7,4,13.62-1.64,27.53-3.3,41.44-5,2.33-.29,4.59-.82,4.54-4-.06-3.74-3.05-2.82-5-2.94-14.43-.89-28.66,1.52-42.92,3.14C7.31,192.65,4.17,193.64,4.81,197.19Z"/><path class="cls-2" d="M154.86,126.79c-12.8-.92-25.55.29-38.31,1.15-4.25.29-5.51,3.06-5.28,7.3a10.27,10.27,0,0,0,2.69,1c13.87.38,27.63-1.39,41.44-2.27,2.14-.13,5-1,4.75-3.95S157.08,127,154.86,126.79Z"/><path class="cls-2" d="M84.91,151.38c-11-4-22.6-6.1-34.08-8.33-3-.57-7.26.16-8.54,3.78-1.07,3,2.19,4.22,4.47,4.7,12.15,2.54,24.35,4.84,35.56,7,3.65-.1,7,.25,7.61-2.91S87,152.14,84.91,151.38Z"/><path class="cls-2" d="M-.45,120.31v6.9l1.11-.13c3.78-.44,5.35-2.23,4.21-6.41C3.09,120.51,1.32,120.39-.45,120.31Z"/><path class="cls-2" d="M168.72,208.25c7,1.71,13.94,3.52,20.94,5.17a262.75,262.75,0,0,0,25.82,5c3.07.39,4.73-1.07,5.73-3.43.79-1.85-.6-3-2.28-3.44-15.61-4-30.89-9.49-47.16-10.38-3.24-.17-6.61-.26-9.45,2.13C163.38,206.62,165.94,207.56,168.72,208.25Z"/><path class="cls-2" d="M94.15,188.5c1.31.62,2.24,1.43,3.18,1.45,14.17.28,28.38,1.18,42.45-1.33,2.84-.51,4.73-1.87,3.88-5.49s-3.67-3.4-5.68-2.92c-7.47,1.77-15,1.3-22.5,1.24-4.9,0-9.86-.16-14.59,1.37C98.15,183.7,95.19,184.56,94.15,188.5Z"/><path class="cls-2" d="M83.2,224.81a7.94,7.94,0,0,0,4.73,3.92q18.67,5.93,37.57,10.88c3.21.84,6.8,1.6,9.62-.34a3.36,3.36,0,0,0,1.33-1.57c.75-2.07-1.29-4-3.1-4.87-7-3.34-14.95-3-22.25-5.38-7.74-2.57-15.52-5.14-23.57-6.08C83.24,220.87,82.29,222.77,83.2,224.81Z"/><path class="cls-2" d="M50.11,19.17A124.09,124.09,0,0,0,36.46,15.3c-6.48-1.51-13-3-19.54-4-3.5-.55-8.14-.12-8.85,3.65-.78,4.19,3.91,4.61,7.07,5.28,6.35,1.34,12.75,2.47,19.12,3.69l13.11,2.51c4-.16,7.52.56,8.14-2.67C56.17,20.37,52.36,20,50.11,19.17Z"/><path class="cls-2" d="M12.31,52.94c3.33-.58,5-2.17,4.11-6.32A119,119,0,0,0-.45,46.1v8.67C3.82,54.27,8.07,53.68,12.31,52.94Z"/><path class="cls-2" d="M114,36.2c-1.73.29-3.46.6-5.19.82-11.73,1.46-23.56-.49-35.27,1-4.08.53-8.71-.09-12.13,3.81,1.56,2,3.16,2.14,4.68,2.52,14.39,3.57,29,2,43.58,2,3.3,0,5.61-2.7,7.62-5.17.86-1.06,1.69-2.29.85-3.85C117.16,35.45,115.59,35.93,114,36.2Z"/><path class="cls-2" d="M108.46,81.32c.64,3.41,3.29,4.45,5.71,5q22,5.22,44.3,8.71c2.21.35,5.12,1.06,5.85-2.61.76-3.83-2-4.21-4.57-4.86-14.46-3.62-29.26-5.31-43.91-7.84C113.3,79.3,110.64,79.41,108.46,81.32Z"/><path class="cls-2" d="M11.75,541.94c-2.16-2.18-4.61-2.33-7-2.69-1.73-.26-3.46-.41-5.2-.51v8.51l3.39.16C6.78,547.62,9.51,545.39,11.75,541.94Z"/><path class="cls-2" d="M15.14,741.53c6.35,1.35,12.75,2.48,19.12,3.7l13.11,2.51c4-.16,7.52.56,8.14-2.67.66-3.41-3.15-3.79-5.4-4.6a126.38,126.38,0,0,0-13.65-3.88c-6.48-1.5-13-2.94-19.54-4-3.5-.55-8.14-.12-8.85,3.65C7.29,740.45,12,740.87,15.14,741.53Z"/><path class="cls-2" d="M7.72,679.36a215.82,215.82,0,0,0,35.86.63,34.18,34.18,0,0,0,7.17-1.61,3.2,3.2,0,0,0,2.7-2.9c0-1.54-1.2-2.48-2.56-3.07a14.8,14.8,0,0,0-7.12-1.66c-8.6.72-17.19,0-25.76.19-5.94.13-12.35,0-18,4.24A10.23,10.23,0,0,0,7.72,679.36Z"/><path class="cls-2" d="M195.9,32.59c-6.93,1.87-14.05,3-21,4.77-8.62,2.15-17.46,3.85-25.27,9.2,1.33,3.38,3.26,4.36,6.32,4.52,6.93.37,12.91-2.84,19.29-4.51,7.77-2,15.82-3.11,23.22-6.45,2-.9,4.59-2,3.4-5C200.82,32.58,199,31.76,195.9,32.59Z"/><path class="cls-2" d="M22.44,794.25c.13,3.46,3.15,4.59,6,4.84,14,1.25,27.92,2.32,41.89,3.36,3.63.27,5.76-1.19,5-5.45a23.4,23.4,0,0,0-2.8-1.14c-14.67-4-29.78-4.36-44.79-5.47C25.16,790.21,22.33,791,22.44,794.25Z"/><path class="cls-2" d="M281.93,64.22c-1.57.5-3.19,1.08-3.22,3A3.6,3.6,0,0,0,281.62,71c1.19.28,2.36.7,3.56.92,12,2.19,24.1,1.86,36.18,2.45,3.84.19,6.43-2.21,8.48-5.49-1.8-2.35-4-2.15-6.07-2.51-9-1.62-18.2,0-27.25-1.68C291.78,63.85,286.85,62.65,281.93,64.22Z"/><path class="cls-2" d="M355.45,3.05c-10.35-.12-20.72-.11-31.05.42-4.14.21-8.77.2-12.43,3.84a7.68,7.68,0,0,0,6.33,4.22c12.6.8,25.21,2.33,37.83.37,3.34-.52,8.61-.1,8.54-4.19C364.58,3,359.14,3.1,355.45,3.05Z"/><path class="cls-2" d="M189.23,71.59c1.86,3.63,5,4.2,7.76,4.39,12.4.89,24.83,2.32,37.25.22,3.16-.54,7.9-.41,7.7-4.48-.18-3.72-4.79-3.82-8.08-4.25a4.58,4.58,0,0,0-.53,0c-10.5.11-21,0-31.52.41C197.56,68,193.09,68.32,189.23,71.59Z"/><path class="cls-2" d="M393.41,51.16c-10.47-3.09-21.32-4.34-32.08-5.93a9.5,9.5,0,0,0-8.92,3.5c1.84,3.43,5,4.22,7.94,5.16a115.26,115.26,0,0,0,32.07,5.71c3.33.11,8.76,1.42,9.33-2.06C402.44,53.35,397,52.22,393.41,51.16Z"/><path class="cls-2" d="M242.16,11.75c-3.55-.7-7.29-1.35-11-.56-1.56.34-3.93-.2-4.23,2.21s2,2.63,3.46,3.36c6.39,3.23,13.41,3.93,20.35,4.88C261,23.05,271,26.16,281.39,26.46c3.29.1,6.41-.26,7.62-4.91-2.68-1-5.09-2-7.6-2.74C268.56,15.19,255.2,14.35,242.16,11.75Z"/><path class="cls-2" d="M360.35,775.19a115.63,115.63,0,0,0,32.07,5.71c3.33.1,8.76,1.42,9.33-2.06.69-4.2-4.77-5.32-8.34-6.38-10.47-3.1-21.32-4.34-32.08-5.93a9.5,9.5,0,0,0-8.92,3.5C354.25,773.46,357.43,774.25,360.35,775.19Z"/><path class="cls-2" d="M356.13,733.19c3.34-.51,8.61-.09,8.54-4.18-.09-4.74-5.53-4.61-9.22-4.66-10.35-.12-20.72-.11-31.05.42-4.14.21-8.77.2-12.43,3.84a7.67,7.67,0,0,0,6.33,4.21C330.9,733.63,343.51,735.16,356.13,733.19Z"/><path class="cls-2" d="M329.84,790.2c-1.8-2.35-4-2.15-6.07-2.51-9-1.62-18.2,0-27.25-1.68-4.74-.86-9.67-2.06-14.59-.49-1.57.5-3.19,1.08-3.22,3a3.6,3.6,0,0,0,2.91,3.85c1.19.28,2.36.7,3.56.92,12,2.19,24.1,1.85,36.18,2.45C325.2,795.88,327.79,793.48,329.84,790.2Z"/><path class="cls-2" d="M485.48,762.72c2.14-.44,2.72-2,2.53-3.94s-1.75-2.36-3.41-2.44c-15.32-.77-30.44,1.46-45.58,3.29-2.07.25-4.08,1.61-4.07,4.13s2,3.55,4.15,4a23.43,23.43,0,0,0,4,.27c11.63-1.31,23.12-2.57,34.61-3.92C480.35,763.84,482.91,763.25,485.48,762.72Z"/><path class="cls-2" d="M402.62,821.93c13.82,0,27.69.75,41.43-1.36,2.41-.37,4.78-1.29,4.24-4.82s-2.87-4-5.38-3.49c-5.75,1.1-11.52,1.12-17.33,1.13-6.49,0-13-.54-19.43,1.08-3.12.79-6,1.85-7.38,5.37A3.7,3.7,0,0,0,402.62,821.93Z"/><path class="cls-2" d="M298.51,871.25c3.49,0,6.05-2.65,8.13-5.33a3.32,3.32,0,0,0,.47-3.93c-.94-1.56-2.47-1.12-3.8-1-2.09.21-4.14.77-6.23,1-12.28,1.06-24.62-.45-36.89,1-3.42.41-6.89.54-9.41,4,1.68,1.88,3.49,1.95,5.15,2.35C270,872.74,284.29,871.26,298.51,871.25Z"/><path class="cls-2" d="M109.7,767.64c3.3,0,5.61-2.7,7.62-5.18.86-1.05,1.69-2.28.85-3.84-1-1.87-2.58-1.39-4.14-1.13-1.73.3-3.46.61-5.19.83-11.73,1.46-23.56-.5-35.27,1-4.08.53-8.71-.09-12.13,3.81,1.56,2,3.16,2.14,4.68,2.52C80.51,769.23,95.15,767.67,109.7,767.64Z"/><path class="cls-2" d="M46.76,872.83c12.15,2.54,24.35,4.84,35.56,7,3.65-.09,7,.25,7.61-2.91s-2.94-3.51-5-4.26c-11-4-22.6-6.1-34.08-8.33-3-.58-7.26.16-8.54,3.78C41.22,871.17,44.48,872.35,46.76,872.83Z"/><path class="cls-2" d="M170.56,891.54c12-.44,23.71-2.66,35.55-4.16,5.25-.67,7.72-3.76,10.3-7.46-2.3-2-4.41-1.66-6.5-1.46-5.77.56-11.52,1.17-17.31,1.6a129,129,0,0,0-24.86,4.15c-3.15.87-5.4,2.39-5.23,6.46C165.31,892.06,168,891.64,170.56,891.54Z"/><path class="cls-2" d="M15.1,834c-.16,2.33,1.74,3.38,3.56,4a18.56,18.56,0,0,0,4.28.49c8.63-1,17.35-2,26.08-2.94,5.58-.61,11.21-.94,16.67-2.4a3.26,3.26,0,0,0,2.71-3.88,2.52,2.52,0,0,0-2.76-2.47C49.93,826,34.41,828,18.92,830.16A4.23,4.23,0,0,0,15.1,834Z"/><path class="cls-2" d="M257.25,823.72c-1-2.39-2.55-4.16-6.09-3.29-10.56,2.57-21.31,4.35-31.83,7-5.76,1.48-12,2.24-17.09,6.38,2.38,3.38,5.78,3.45,8.74,3.23,14.55-1.06,28.59-5,42.79-8.07C256.3,828.47,258.6,826.81,257.25,823.72Z"/><path class="cls-2" d="M530,161.33q-21.53-1.49-43.08-2.74c-1.95-.12-4.12.45-4.39,2.87-.32,2.84,1.65,3.93,4.14,4.51,12.8,3,25.9,2.13,38.85,3,3.46.22,6.06-2.27,7.93-5.23A3.72,3.72,0,0,0,530,161.33Z"/><path class="cls-2" d="M787.15,489.77c-.39-3.36-3.27-2.51-5.4-2.61-14.47-.71-28.74,1.39-43,3.07-2.39.28-4.75,1.41-4.79,4,0,2.94,2.41,4,5,4.35,1,.13,2.1,0,4.35,0,12.08-1.35,25.34-2.76,38.58-4.39C784.37,494,787.6,493.59,787.15,489.77Z"/><path class="cls-2" d="M780.7,541.67c2.6-.09,4.91-.48,5.71-3.8-3.75-3.11-7.93-4.3-12.13-5.39-8.79-2.29-17.58-4.61-26.62-5.78-3.84-.49-8.4-.27-9.18,3.6-.84,4.08,3.94,4.53,7.09,5.19,7,1.47,14.08,2.76,21.13,4.08C771.34,540.43,775.89,541.83,780.7,541.67Z"/><path class="cls-2" d="M781,131.88c-11-4-22.6-6.1-34.07-8.33-3-.57-7.27.16-8.54,3.78-1.07,3,2.18,4.22,4.47,4.7,12.15,2.54,24.35,4.84,35.55,7,3.65-.1,7,.25,7.62-2.91S783.05,132.64,781,131.88Z"/><path class="cls-2" d="M806.8,373.71c.84-1.08,1.66-2.32.58-3.83s-2.18-1.22-3.7-.93A72.66,72.66,0,0,1,789,370.5c-8.26-.11-16.54-.24-24.79.11-4.55.19-9.46,0-13.5,3.62,1.6,3,4,2.75,5.94,3.16,13.9,3,28,2.16,42.05,1.72C802.33,379,804.71,376.37,806.8,373.71Z"/><path class="cls-2" d="M790,415.79c1-1.31,1.76-2.69.57-4.32-1-1.43-2.31-.91-3.76-.65a78.67,78.67,0,0,1-16.23,1.45c-7.55-.18-15.13-.29-22.67.12-4.66.25-9.76-.08-13.76,3.71,2.75,2.35,2.74,2.39,5.15,2.94,14.24,3.22,28.67,2.35,43.06,1.83C785.67,420.75,788,418.4,790,415.79Z"/><path class="cls-2" d="M710.75,627.32c.85,1.88,2.73,2.3,4.49,2.86,10.71,3.42,22,4.53,33.3,5.77,5.21.57,7.92-1.25,8.56-5.9-12-1.74-23.73-3.48-35.45-5.1C717.65,624.39,713.65,624.26,710.75,627.32Z"/><path class="cls-2" d="M717.08,541.94c-2.16-2.18-4.61-2.33-7-2.69-8.88-1.34-17.9.11-26.8-1.58-4.44-.84-9-1.77-13.6-.59-1.76.45-3.57,1.18-3.67,3.21s1.2,3.56,3.45,3.94c1,.18,2,.56,3.07.75,11.82,2.15,23.82,1.79,35.74,2.43C712.12,547.62,714.84,545.39,717.08,541.94Z"/><path class="cls-2" d="M442.91,91c-5.75,1.1-11.52,1.12-17.33,1.13-6.49,0-13-.54-19.43,1.08-3.12.79-6,1.85-7.38,5.37a3.7,3.7,0,0,0,3.85,2.09c13.82,0,27.69.76,41.43-1.36,2.41-.37,4.78-1.29,4.24-4.82S445.42,90.48,442.91,91Z"/><path class="cls-2" d="M740.81,294.39c12.46-.62,24.93-1.23,37.37-2.11,2.85-.2,6-.89,6.77-4.46-1.28-2.6-3.75-3-5.91-3.19-12.65-.9-25.24.69-37.85,1.39-4.23.23-6.37,2.57-5.22,7.62A25.08,25.08,0,0,0,740.81,294.39Z"/><path class="cls-2" d="M764,568c-2-.22-4.09-.58-6.16-.64-13.73-.42-27.28,1.52-40.84,3.23-2.55.32-5.73.87-5.29,4.5.46,3.84,3.88,4.45,6.81,4.14,13.93-1.48,27.83-3.29,41.74-4.89C764.25,573.86,765.36,571.91,764,568Z"/><path class="cls-2" d="M710.93,452.75c.45,3.75,4.22,4.38,7.49,4.07,9.43-.9,18.85-1.95,28.26-3.05,4.71-.56,9.4-1.28,14.07-2.08a3.71,3.71,0,0,0,3.36-4c0-2.74-2.21-2.4-3.81-2.45-4-.14-8.08-.05-12.12-.05l0-.49c-10.29,1.1-20.6,2.13-30.89,3.33C714.31,448.33,710.48,448.88,710.93,452.75Z"/><path class="cls-2" d="M734.71,347c10.68-2.71,21.31-5.68,31.94-8.61a33.68,33.68,0,0,0,5.39-2c2.1-1,4.37-2.22,3.23-5.11s-3.42-3-6.14-2.38c-6.29,1.52-12.65,2.74-18.93,4.32-9.3,2.33-18.86,4-27.13,9.67C725.55,348.8,730.22,348.17,734.71,347Z"/><path class="cls-2" d="M528.93,203.91c.78,3.37,4,3.9,6.78,3.61,13.93-1.45,27.85-3.08,41.76-4.74,3.61-.43,5.43-2.27,3.82-6.29a23.64,23.64,0,0,0-3-.59c-15.16-1.08-30.07,1.44-45,3.22C530.82,199.42,528.2,200.75,528.93,203.91Z"/><path class="cls-2" d="M608,153.5a70.2,70.2,0,0,1-21.92-2.41c-3.53-1-7.11-2.22-10.75-1.87s-7.39,2.93-7.64,6.58l1.1,1.08c11.73,4.38,24.2,6.31,36.58,8.21,3.14.49,6.46.95,9.43-.17s5.38-4.46,4.33-7.46C617.77,153.45,612.28,153.29,608,153.5Z"/><path class="cls-2" d="M437.88,127.92c2.45,3.38,5.8,4.6,9.2,5.28,9.62,1.93,19.3,3.53,28.94,5.34,6,1.13,12,2.54,18.2,2.2,3-.16,5.45-1,5.66-4.55C485.76,129.05,444,123.36,437.88,127.92Z"/><path class="cls-2" d="M697.24,609.71c2-1.05,4.52-2,3.45-5s-3.52-3.09-6.13-2.48c-10.24,2.39-20.49,4.68-30.68,7.26-5.42,1.37-10.73,3.2-15.46,6.66,2.18,5.63,6.61,5.42,11,4.32,11.2-2.83,22.33-5.93,33.48-9A21.6,21.6,0,0,0,697.24,609.71Z"/><path class="cls-2" d="M646.28,185.32c-1.7-.08-3.42.57-5.14.86-9.23,1.52-18.57-.56-27.81.91-4.32.69-8.73,1.18-11.1,6.08a7.42,7.42,0,0,0,6.07,2.33c11.91,0,23.83.05,35.71-1a24,24,0,0,0,4.1-.8c2.57-.7,4.35-1.72,3.71-5.13C651.14,185,648.55,185.41,646.28,185.32Z"/><path class="cls-2" d="M705.69,389.45l0-.39c-10.27,1.06-20.56,2.05-30.83,3.25-2.75.32-6.39,1-6.1,4.49.31,3.84,4,4.61,7.3,4.31,9.59-.87,19.17-1.91,28.74-3,4.68-.55,9.36-1.28,14-2.25,1.74-.37,3.7-1.21,3.45-3.84s-2.27-2.43-3.9-2.48C714.09,389.36,709.89,389.45,705.69,389.45Z"/><path class="cls-2" d="M723.34,197.35c.63,3.45,3.87,3.54,7,4,13.62-1.64,27.53-3.3,41.44-5,2.33-.29,4.59-.82,4.54-4-.06-3.74-3-2.82-5-2.94-14.43-.89-28.65,1.53-42.92,3.14C725.84,192.81,722.7,193.79,723.34,197.35Z"/><path class="cls-2" d="M658.85,242.52c11.54-3,23-6.13,34.54-9.26a16.51,16.51,0,0,0,3.88-1.62c1.89-1.11,4.57-1.95,3.33-5-1.09-2.75-3.23-3.21-6-2.52-9,2.2-18.13,4.11-27.15,6.34-6.62,1.64-13.19,3.52-19.09,7.72C650.5,243.3,654.53,243.64,658.85,242.52Z"/><path class="cls-2" d="M717.5,249.46c0,1.94,1.71,2.43,3.3,2.69,13.34,2.16,26.84,2.51,40.28,3.59,2.23.18,5.1-.41,5.42-3.09s-2.48-3.42-4.63-4.08c-6.09-1.85-12.45-1.92-18.8-2.06-5.16-.75-10.31-1.65-15.49-2.19-2.52-.27-5.12-.75-7.64.88A4.77,4.77,0,0,0,717.5,249.46Z"/><path class="cls-2" d="M683.67,159.66c-4.65-.81-9.36-1.7-14.1-.65-1.73.39-3.62,1-3.57,3.22a3.65,3.65,0,0,0,3.42,4c1,.13,2,.6,3.05.76,12,2,24.11,2,36.19,2.36,3.86.13,6.45-2.12,8.6-5.92-4.08-2.37-8.11-2.51-12.12-2.62C698,160.57,690.8,160.91,683.67,159.66Z"/><path class="cls-2" d="M663.33,123.33c-2.84.39-6.25.9-5.93,4.51s3.87,4.48,6.89,4.16c13.92-1.5,27.8-3.31,41.71-4.92,3.77-.44,5.34-2.23,4.2-6.41C694.22,119.21,678.77,121.21,663.33,123.33Z"/></g></svg>