<svg xmlns="http://www.w3.org/2000/svg" viewBox="0 0 1440 900"><defs><style>.cls-1{fill:#303c78;}.cls-2{fill:#25b89d;}</style></defs><title>Wunderkind_Patterns_WEB-Cropped</title><g id="Backgrounds"><rect class="cls-1" width="1440" height="900"/></g><g id="Color"><path class="cls-2" d="M37.67,604.66C42,609.32,46,614.94,53.59,611.3c7.92-9.07,9.75-22,20-30.7l28.16,34c10.61.51,11.41,0,15.2-8.42,3.12-7,6.33-13.91,10.42-22.86,7.72,10,13.84,18.17,20.16,26.15,5.83,7.37,10.5,7,15.77-.79,5.7-8.48,11.43-16.93,18-26.69,3.08,4.25,5.74,7.42,7.84,10.93,3.1,5.19,5.81,10.6,8.69,15.92,2.49,4.59,6,7,11.59,5L227,585.6c5.23,8.66,9.35,15.21,13.19,21.91,2.55,4.47,5.14,8.91,11,8.74,5.21-.15,6.49-4.87,8.55-8.53,3.58-6.34,7.19-12.67,11-19.31,11.68,9.89,14.27,26.45,29.47,31.06,9.53-8.85,8.78-22.26,17.49-32.72,4.2,6.71,8.15,13.6,12.35,20.29,2.75,4.37,6.42,6.94,10,6.76,2.38-.12,4.7-1.46,6.66-4.29,1.36-2,16.34-25,16.61-24.56l20.56,30.48c6.58.71,9.1-2.71,11.49-7.09,3.65-6.72,7.9-13.11,13-21.45l22,31.88c6.57,1.87,9.31-2.24,12-6.66,6.3-10.23,12.72-20.39,19.95-32,7.88,12.66,11.12,26.32,21.86,35.82,15.51-3.14,14.55-21.18,25.91-28.28,8.29,8.76,6.84,23.08,17.09,31.45,14.87-5.08,17.43-21.75,29.32-31,4,7.1,7.33,13.69,11.33,19.86,2,3,4.81,6.8,7.89,7.51,5.07,1.17,8.09-3.23,10.4-7.5s4.76-8.75,7.45-12.93c1.8-2.8,4.13-5.25,7.16-9l16.54,27.24c7.15,2.43,10-1.83,12.9-6.75,4.78-8.09,7.57-17.58,16-24.14,6.1,8.92,11.9,17.36,17.65,25.83,5.24,7.73,9.8,8,15.72.76,1.57-1.92,2.82-4.1,4.37-6.05,4.8-6,9.68-12,16.11-19.95,3.9,8.91,6.91,15.94,10,22.93,4,8.89,5.35,9.54,15.46,7.86l29.22-35,17.92,31.66c7.84,3.7,11.89-1.1,16.08-5.57,6-6.4,12-12.78,19.21-20.43l26.09,30c7.17-.32,6.85-.57,10.72-5.39,6.36-7.92,13.18-15.47,20.72-24.24,7.06,7.5,12.87,13.64,18.65,19.8,4.36,4.66,8.31,10.28,15.91,6.64,7.92-9.07,9.75-22,20-30.7l28.15,34c10.61.51,11.41,0,15.2-8.42,3.12-7,6.33-13.91,10.42-22.86,7.72,10,13.84,18.17,20.16,26.15,5.83,7.37,10.5,7,15.77-.79,5.7-8.48,11.43-16.93,18-26.69,3.08,4.25,5.74,7.42,7.84,10.93,3.1,5.19,5.82,10.6,8.69,15.92,2.49,4.59,6,7,11.6,5,5.41-8.71,10.91-17.56,17.57-28.26,5.23,8.66,9.34,15.21,13.18,21.91,2.56,4.47,5.14,8.91,11,8.74,5.21-.15,6.49-4.87,8.55-8.53,3.58-6.34,7.19-12.67,11-19.31,11.68,9.89,14.28,26.45,29.47,31.06,9.53-8.85,8.79-22.26,17.49-32.72,4.14,6.62,8,12.37,11.44,18.42a30,30,0,0,0,10.7,11.46c3,1.76,3.3,1.14,5.86-.8a31,31,0,0,0,5.92-5.37c3.26-4.07,5.63-8.72,8.23-13.21.62-1.08,8.86-12.8,9.2-12.3L1236,615.43c6.58.71,9.1-2.71,11.49-7.09,3.65-6.72,7.9-13.11,13-21.45l22,31.88c6.57,1.87,9.31-2.24,12-6.66,6.3-10.23,12.72-20.39,20-32,7.88,12.66,11.12,26.32,21.86,35.82,15.51-3.14,14.55-21.18,25.91-28.28,8.29,8.76,6.84,23.08,17.09,31.45,14.87-5.08,17.43-21.75,29.32-31,4,7.1,7.33,13.69,11.33,19.86,2,3,4.81,6.8,7.89,7.51,5.07,1.17,8.09-3.23,10.4-7.5.69-1.27,1.38-2.54,2.08-3.81V582.37c-3.08,5.11-6.43,10.39-10.63,17.17-7.22-11.85-13.33-21.89-19-31.25-8-.15-9.36,4.93-11.07,9.62-3.42,9.39-9.85,16.58-17.58,26.43-4.24-11.78-7.72-21-10.79-30.25-1.31-4-2.87-8.23-7.3-7.8-2.75.26-5.31,3.69-7.69,6-.95.9-1.07,2.61-1.76,3.85a181.33,181.33,0,0,1-16.37,24.08c-7.06-14.07-13.13-26.19-19.27-38.42-11.08,3.36-12.39,13-17.24,19.53-5,6.75-9.47,13.89-14.2,20.91-8.56-6.92-13.2-13.52-17.75-25.73-1.54-4.16-2.91-8.07-9.21-9-9.61,7.63-10.72,22.24-22.06,30.87l-23.59-32.95c-3.24,4.22-5.43,6.7-7.19,9.45-3.84,6-6.84,12.46-10.78,18.37s-9.26,8.88-13.94,2.1l-.31-.45c-4.76-7-8.62-14.73-13.18-21.88-1.77-2.77-4.25-5.09-6-7.08-7,1.23-8.45,5.43-9.44,10.22-1.95,9.41-6,17.91-11.59,26.45-1.56-1.48-2.78-2.23-3.44-3.33-4.74-7.86-9.14-15.92-14.12-23.62-1.77-2.74-4.51-5.86-7.39-6.65-4.11-1.13-5.9,2.83-7.22,6.31a27.52,27.52,0,0,1-2.69,5.79c-3.82,5.65-5.9,12.75-11.82,16-12.09-7.82-11.14-24.2-23.27-32.19-10.68,8.39-10.38,24.16-23,30.83-5.18-9.15-10.15-17.75-14.92-26.45-2.27-4.14-4.84-7.1-10.56-4.64-7.82,10.9-12.4,25-25.31,33.73-3.6-4.4-6.73-7.77-9.31-11.51-4-5.83-7.48-12.09-11.66-17.81-1.46-2-4.48-4.23-6.59-4s-4.58,2.91-5.84,5.12c-1.34,2.38-1.11,5.59-2.16,8.2-3,7.38-4.52,15.83-13.86,19.82-8.48-9.18-17.46-17.72-23.35-28.87-2.18-4.13-4-8.63-11.26-7.29q-9.46,16.71-20.07,35.4c-2.75-2.17-4.35-3-5.42-4.33-6-7.37-12.19-14.68-17.87-22.33-5.13-6.93-10.53-6.69-14.39,1.17-.93,1.91-1.51,4-2.37,5.94-3.83,8.71-10.85,14.48-18.11,21.23-5.34-5.75-10.49-10.27-14.31-15.71s-6.24-11.74-9.09-17.31c-8.68.31-9,.16-12.33,6.72-5,9.74-13.23,16.2-21.77,24.33-4.15-6.87-7.77-12.49-11-18.32S762,567,759.43,562c-7.51-1.83-9.59,2.34-11.85,6.56-6.1,11.37-14.88,20.46-23.93,29.21-9-4.27-10.35-12.51-13.39-19.51-1.26-2.88-1.19-6.33-2.41-9.23-2.54-6-7.34-6.75-11.42-1.82-1.34,1.62-2,3.77-3.23,5.5-5.88,8.33-11.84,16.59-18.17,25.44-13.68-9.15-17.81-23.65-26.5-34.61-1.68,0-3.87-.57-4.33.08C637,573.91,630,584.37,622.36,595.69c-2.35-2.89-4.85-5.35-6.59-8.26-3.09-5.17-5.41-10.82-8.66-15.87-1.55-2.41-4.55-5.45-6.81-5.39s-4.93,3.27-6.72,5.64c-1.67,2.21-2.2,5.25-3.63,7.69-3.56,6.06-7.35,12-12.34,20-7.22-11.85-13.33-21.89-19-31.25-8-.15-9.36,4.93-11.07,9.62-3.42,9.39-9.85,16.58-17.58,26.43-4.24-11.78-7.72-21-10.79-30.25-1.31-4-2.87-8.23-7.3-7.8-2.75.26-5.31,3.69-7.69,6-.95.9-1.07,2.61-1.76,3.85A181.33,181.33,0,0,1,486,600.2C479,586.13,472.88,574,466.74,561.78c-11.08,3.36-12.39,13-17.24,19.53-5,6.75-9.47,13.89-14.2,20.91-8.56-6.92-13.2-13.52-17.75-25.73-1.55-4.16-2.91-8.07-9.21-9-9.61,7.63-10.72,22.24-22.06,30.87l-23.6-32.95c-3.23,4.22-5.42,6.7-7.18,9.45-4.8,7.46-8.37,15.76-13.75,22.47-2.06-.67-4.34-1.18-5.31-2.6-4.8-7-8.82-14.55-13.4-21.73-1.77-2.77-4.25-5.09-6-7.08-7,1.23-8.45,5.43-9.44,10.22-1.95,9.41-6,17.91-11.59,26.45-1.56-1.48-2.78-2.23-3.44-3.33-4.74-7.86-9.15-15.92-14.12-23.62-1.78-2.74-4.51-5.86-7.39-6.65-4.11-1.13-5.9,2.83-7.22,6.31a27.52,27.52,0,0,1-2.69,5.79c-3.82,5.65-5.9,12.75-11.82,16-12.09-7.82-11.14-24.2-23.27-32.19-10.69,8.39-10.38,24.16-23,30.83C198,586.6,193,578,188.24,569.3c-2.28-4.14-4.85-7.1-10.56-4.64-7.82,10.9-12.4,25-25.32,33.73-3.59-4.4-6.72-7.77-9.3-11.51-4-5.83-7.48-12.09-11.66-17.81-1.46-2-4.48-4.23-6.59-4s-4.58,2.91-5.84,5.12c-1.34,2.38-1.11,5.59-2.16,8.2-3,7.38-4.53,15.83-13.86,19.82C94.47,589,85.49,580.45,79.6,569.3c-2.18-4.13-4-8.63-11.26-7.29l-20.07,35.4c-2.75-2.17-4.35-3-5.42-4.33C36.8,585.71,30.66,578.4,25,570.75c-5.13-6.93-10.53-6.69-14.39,1.17-.94,1.91-1.51,4-2.37,5.94A40.58,40.58,0,0,1,.44,589.22v17.27c5.75-7,11.88-13.83,18.59-21.63C26.09,592.36,31.9,598.5,37.67,604.66Z"/><path class="cls-2" d="M1419.43,285.08c-12,8.7-13.67,23.69-22.94,33-12.1-6.75-11.09-23.21-23.14-30.22-10.83,8.95-10.5,24.93-24,32.84-4.36-7.75-8.45-15.5-13.05-22.93-1.51-2.45-4.64-5.95-6.5-5.65-2.82.45-5.4,3.61-7.64,6-1.1,1.19-1,3.39-1.84,4.95-4.15,8.06-8.71,15.83-17.36,23.09-3.8-10.22-7.45-19-10.25-28-1.5-4.84-3-8.68-10.39-9.15-6.63,10.44-13.69,21.53-21,33.05-12.24-10.08-11.95-26.52-22.89-37.66-3.06,2.92-5.89,4.92-7.81,7.58-3.11,4.31-5.5,9.14-8.44,13.59-4.39,6.66-9,13.18-13.86,20.27a60.79,60.79,0,0,1-17.43-26.63c-1.57-4.64-3.4-8.72-10.6-8l-19.43,32c-8.76-12.16-16.29-22.6-25-34.7-8.95,10.83-13.28,23.16-21,32.51l-2.88,1.39c-5.3-9.07-10.22-18.07-15.79-26.64-1.68-2.58-5.4-5.72-7.78-5.42s-4.67,4.34-6.64,7c-.76,1-.43,2.79-.87,4.13-2.76,8.32-5.64,16.58-11.63,24.28-7.18-8-13.55-15.43-16.65-25.11-1.36-4.23-3-8.36-8.24-8.46-5-.09-5.86,4.22-7.61,7.73-3.74,7.47-7.07,15.31-13.78,20.62-12-7.83-11.42-24-22.19-31.57-8.5,2.59-8.27,10.33-11.84,15.31s-5,11.84-11.79,14.06c-9.38-9.71-10.65-25-23.63-32.73-10.25,11.59-14.07,27.24-28.53,36.47-6.87-10.15-12.79-19.34-19.22-28.14-1.86-2.54-5.45-5.81-7.76-5.46s-4.72,4.41-6.27,7.28c-1.3,2.42-.95,5.73-2.24,8.17-3.29,6.26-3.92,14.77-13.39,17.05-8.66-8.9-17.51-17.6-23.32-28.8-2-3.92-3.89-7.7-10.75-7.12-8.26,10-10.66,25.1-21.63,35-8.42-8.07-16.86-15.07-22-25.26-1.23-2.47-4.93-5.62-7-5.29-2.78.44-5.16,3.86-7.55,6.18-.69.67-.83,1.94-1.17,2.95-3.39,9.87-11,16.23-18.7,23a49.88,49.88,0,0,1-4.42-3.44c-6.87-6.76-13-13.83-16.43-23.27-3.06-8.39-9-8.63-14-1.36-1.2,1.76-2,3.79-3.15,5.57-5.25,8-12.07,14.5-19.31,20.37-11.48-10.34-12.49-26.4-23.55-36.14-9.23,4-9.88,13.65-15.55,19.3-5.91,5.89-11.16,12.45-17.62,19.76-3.59-4.44-6.6-7.06-8.17-10.36-2.42-5.07-3.94-10.59-5.68-16-1.21-3.75-2-8.59-6.79-8.18-2.78.23-5.44,3.5-7.83,5.74-1.23,1.16-1.56,3.21-2.61,4.62-5.67,7.55-9.88,16.35-18.15,22.08-13.8-8-16.09-25-27.87-35.24-12,8.7-13.67,23.69-22.94,33-12.1-6.75-11.1-23.21-23.14-30.22-10.83,8.95-10.5,24.93-24,32.84-4.35-7.75-8.44-15.5-13-22.93-1.51-2.45-4.65-5.95-6.51-5.65-2.82.45-5.39,3.61-7.63,6-1.1,1.19-1,3.39-1.84,4.95-4.15,8.06-8.71,15.83-17.36,23.09-3.8-10.22-7.45-19-10.25-28-1.5-4.84-3.05-8.68-10.39-9.15-6.63,10.44-13.69,21.53-21,33.05C402.64,312,402.93,295.56,392,284.42c-3.07,2.92-5.89,4.92-7.81,7.58-3.11,4.31-5.51,9.14-8.44,13.59-4.39,6.66-9,13.18-13.86,20.27a60.79,60.79,0,0,1-17.43-26.63c-1.57-4.64-3.4-8.72-10.6-8l-19.43,32-25-34.7c.25.39-12,18.76-13.22,20.8A109,109,0,0,1,270,319c-1.18,1.62-4,7.1-6.36,7.15a1.21,1.21,0,0,1-.79-.4,21.55,21.55,0,0,1-3-3.36c-2.54-3.45-4.41-7.6-6.47-11.17-3-5.21-6.06-10.41-9.34-15.46-1.68-2.58-5.4-5.72-7.78-5.42s-4.67,4.34-6.64,7c-.76,1-.43,2.79-.87,4.13-2.76,8.32-5.64,16.58-11.63,24.28-7.18-8-13.55-15.43-16.65-25.11-1.36-4.23-3-8.36-8.24-8.46-5-.09-5.86,4.22-7.61,7.73-3.74,7.47-7.07,15.31-13.78,20.62-12-7.83-11.42-24-22.19-31.57-8.5,2.59-8.27,10.33-11.85,15.31s-5,11.84-11.78,14.06c-9.38-9.71-10.65-25-23.63-32.73-10.25,11.59-14.07,27.24-28.53,36.47C66,311.9,60.05,302.71,53.62,293.91c-1.86-2.54-5.45-5.81-7.76-5.46s-4.72,4.41-6.27,7.28c-1.3,2.42-1,5.73-2.24,8.17C34.06,310.16,33.43,318.67,24,321c-8.66-8.9-17.51-17.6-23.32-28.8-.06-.13-.13-.26-.2-.39V310.7L23,337.87c10.25.88,11.29.32,15.1-8.1,3.15-7,6.26-14,10.58-23.61,2.88,3.95,4.25,5.91,5.7,7.8,4.74,6.23,9.64,12.33,14.21,18.67,3.07,4.27,6.66,6.23,12.33,4.2l22.42-32.07,19,32.27h9.15c2.56-4.84,4.67-9.36,7.26-13.59s5.79-8.42,9.8-14.17c5.1,8.52,9.17,15.1,13,21.8,3.22,5.6,6.82,10.13,14.92,7.43,5-8.65,10.21-17.62,16-27.66,6.87,9.45,12.53,17.17,18.1,25,3.12,4.35,6.66,7.44,13.79,4.92,1.89-4.36,4.11-9.52,6.36-14.66,2.17-4.95,4.37-9.88,7.57-17.1,5.35,8.62,9.27,14.84,13.09,21.13,2.12,3.48,4.54,7.31,7.64,10,4,3.5,6.39,1.45,9.67-1.92a74.39,74.39,0,0,0,11-15.28c.75-1.29,10.13-15.13,10.39-14.74,7.16,10.55,14.24,21,21,31,9.65.33,10.11-7.56,13.68-12.41s5-11.71,12.12-14.61c5.8,8.67,11.43,16.86,16.81,25.21,4.35,6.74,9.21,7.23,14,.75,2.73-3.71,4.75-7.94,7.22-11.85,4.5-7.13,9.1-14.21,14.29-22.29l20.34,35.9c16.82-3.76,16.26-21.46,28.19-29.29,4.77,10.63,9.43,21,14.51,32.37,16.66-5.29,19.52-22.16,31-31.68,3.26,5.62,5.93,10.58,8.94,15.31s3.43,12.67,11.4,12.39c7.35-.26,9-7.14,11.92-12.29,3.25-5.7,6.24-11.62,12.51-16.7,6,9.73,11.24,18.41,16.24,26.61,7.41,2.29,10.19-2,13-6.95,4.65-8.16,7.67-17.49,15.76-24,7.36,10.77,14.36,21,21.18,31,8.8.27,8.75.23,13.58-6.13,5.72-7.52,11.54-15,18.08-23.42,2.31,3.76,3.75,5.69,4.76,7.84,2.55,5.47,4.7,11.15,7.4,16.56,4.22,8.44,11.5,9.24,17.48,2,4.77-5.75,9.23-11.75,14.09-17.42,3.57-4.17,7.55-8,12.54-13.19l17.48,31.1c8.48,3.17,12.3-1.87,16.47-6.31,6-6.37,12-12.65,19-19.9l25.67,30c5,1.65,8-1.3,11.39-5.84,5.85-7.89,12.73-15,20.22-23.68,7.26,7.69,13.57,14.28,19.77,21,4.31,4.65,8.72,8.65,15.61,4.92,6.62-9.39,9.77-21,18.8-30.53l28.56,34.34c10.25.88,11.29.32,15.1-8.1,3.15-7,6.26-14,10.58-23.61,2.88,3.95,4.25,5.91,5.7,7.8,4.74,6.23,9.64,12.33,14.21,18.67,3.07,4.27,6.66,6.23,12.33,4.2l22.42-32.07,19,32.27h9.15c2.56-4.84,4.67-9.36,7.26-13.59s5.79-8.42,9.8-14.17c5.1,8.52,9.17,15.1,13,21.8,3.22,5.6,6.82,10.13,14.92,7.43,5-8.65,10.21-17.62,16-27.66,6.87,9.45,12.53,17.17,18.1,25,3.12,4.35,6.66,7.44,13.79,4.92,1.89-4.36,4.11-9.52,6.36-14.66,2.17-4.95,4.37-9.88,7.57-17.1,5.35,8.62,9.27,14.84,13.09,21.13,1.66,2.74,5.49,10.16,8.89,10.75a3,3,0,0,0,2.1-.58c3.55-2.31,7.54-10.57,9.32-13.49,3.91-6.43,7.16-13.32,12.64-18.62l21,31c9.64.33,10.11-7.56,13.67-12.41s5-11.71,12.12-14.61c5.8,8.67,11.43,16.86,16.81,25.21,4.35,6.74,9.22,7.23,14,.75,2.74-3.71,4.75-7.94,7.22-11.85,4.5-7.13,9.1-14.21,14.29-22.29l20.35,35.9c16.81-3.76,16.25-21.46,28.19-29.29l14.5,32.37c16.66-5.29,19.52-22.16,31-31.68,3.26,5.62,5.93,10.58,8.94,15.31s3.43,12.67,11.4,12.39c7.36-.26,9-7.14,11.93-12.29,3.24-5.7,6.23-11.62,12.51-16.7l16.23,26.61c7.41,2.29,10.2-2,13-6.95,4.64-8.16,7.66-17.49,15.75-24L1440.44,336V314.76C1432.27,306,1428.93,293.32,1419.43,285.08Z"/><path class="cls-2" d="M1420.4,426.92c-11.82,7.37-10.72,23.87-23.08,30.19-9.22-9.61-10.75-24.68-23-32.9-11.38,10.7-14.08,27.35-28.94,35.86-5.88-8-11.62-15.51-17.09-23.25-2.9-4.11-3.37-11.24-10.61-9.93-6.24,1.12-5.45,7.43-7,12-2.7,7.9-4.42,16.54-13.83,21.14-9.08-9.2-18.2-18.05-24.09-29.61-2-4-4.14-7.53-10.74-6.74-6.33,11.24-13,23.14-20.36,36.19-8.71-8.49-17-15.09-21.94-24.86-2.15-4.26-4.54-8.25-12.05-6.74-2.55,5-4.95,11.29-8.73,16.63-4,5.66-9.29,10.4-14.38,15.93-9-8.08-16.67-15.14-20.58-25.65-1.17-3.13-4.83-7.28-7.48-7.38s-6.52,3.68-8.21,6.68c-5.33,9.5-13.18,16.33-21.18,23.51-11.33-10.08-13.08-25.67-24.83-37.57-10.56,14-18.49,28.82-32.78,39.66-2.74-3.45-6-6.3-7.64-9.89-2.63-5.75-3.82-12.16-6.39-18-1.14-2.55-3.92-5.34-6.45-6-1.71-.42-4.58,2.5-6.43,4.41-1.42,1.47-1.86,3.85-3.09,5.56-5.68,8-10.42,16.72-18.55,23-13-8.76-16.57-23.66-26.74-35.15-13.64,6.95-14.2,23.74-24.22,32.64-12.06-6.84-10.84-23.42-23.68-30.53-9.52,9.92-10.46,24.94-22.89,33.4-6.15-10.29-12-20.13-17.77-29.69-8.24,2.81-8.5,2.72-10.52,8.68-3.36,9.95-10.18,17.32-17.86,27.55-4.27-11.28-8-20-10.81-29-1.49-4.8-2.92-8.71-9.75-9.52-9.21,9.08-12.21,23.64-24.06,33.71-6.35-12.87-12.23-24.78-18.25-37-11.59,1.38-12.31,11.68-17.06,18-5.25,7-9.92,14.42-15.18,22.16-9-7.49-14-16.34-17.49-26.11-1.5-4.18-2.86-8.08-8.91-9.15-10,7.52-10.69,22.45-21.63,30.44-10.46-8.21-13.89-22.6-25.53-31.48l-20.41,31.69-2.62,1c-5.22-8.95-10.13-18-15.69-26.55-1.67-2.59-5.34-5.79-7.7-5.5-2.53.31-4.85,4.23-6.75,6.93-.92,1.31-.38,3.56-1,5.17-3.21,7.94-5.68,16.32-12.55,25.38-6.16-11-11.35-19.75-16-28.78-2.61-5-5.5-8.2-12.1-5.57-4.85,9.35-8.58,19.81-16.78,27.26-12.1-7.78-11.85-23.7-22.94-32.28-11.82,7.37-10.71,23.87-23.07,30.19-9.22-9.61-10.75-24.68-23-32.9-11.38,10.7-14.08,27.35-28.94,35.86-5.88-8-11.62-15.51-17.09-23.25-2.91-4.11-3.38-11.24-10.61-9.93-6.24,1.12-5.45,7.43-7,12-2.7,7.9-4.42,16.54-13.83,21.14-9.08-9.2-18.2-18.05-24.09-29.61-2-4-4.14-7.53-10.75-6.74l-20.36,36.19c-8.7-8.49-17-15.09-21.94-24.86-2.14-4.26-4.54-8.25-12-6.74-2.55,5-4.95,11.29-8.73,16.63-4,5.66-9.29,10.4-14.38,15.93-9-8.08-16.67-15.14-20.59-25.65-1.16-3.13-4.82-7.28-7.47-7.38s-6.52,3.68-8.21,6.68c-5.33,9.5-13.19,16.33-21.18,23.51-11.34-10.08-13.08-25.67-24.83-37.57-10.57,14-18.49,28.82-32.78,39.66-2.74-3.45-6-6.3-7.64-9.89-2.63-5.75-3.82-12.16-6.39-18-1.14-2.55-3.92-5.34-6.46-6-1.71-.42-4.57,2.5-6.42,4.41-1.42,1.47-1.86,3.85-3.09,5.56-5.68,8-10.42,16.72-18.55,23-13-8.76-16.58-23.66-26.74-35.15-13.64,6.95-14.2,23.74-24.23,32.64-12-6.84-10.83-23.42-23.67-30.53-9.52,9.92-10.46,24.94-22.89,33.4-6.15-10.29-12-20.13-17.77-29.69-8.24,2.81-8.51,2.72-10.52,8.68-3.36,9.95-10.19,17.32-17.86,27.55-4.28-11.28-8-20-10.81-29-1.49-4.8-2.92-8.71-9.75-9.52-4,4-6.86,9-9.77,14.2v21.37c3-5.37,5.91-10.84,11.41-14.16,2.37,5.83,4.3,11.07,6.61,16.14,2.44,5.35,3,11.9,9.89,15.62,14.34-4.76,17.08-21.22,28.8-31,4.39,8,8.24,15.51,12.49,22.76,3.9,6.67,9.57,7.18,14.57,1.33,2-2.38,3.14-5.54,4.84-8.23,3.51-5.55,7.14-11,11.83-18.26l17.39,28c7,2,9.81-1.91,12.4-6.53,4.6-8.24,9.37-16.39,15-26.11l22.54,32.73c8.57-.1,8.6-.08,12.92-5.82,5.89-7.85,11.34-16.07,19.69-23.57l14.15,29.92H226c10.53-11,17.24-24.34,30.39-33.92l16.92,30.42c8.74,3.44,12.59-1.82,16.55-6.33,5.8-6.6,11.09-13.72,20.11-18.51L334.35,476h6l25.91-29.12c7,7.48,13.09,13.83,19,20.29,4.2,4.56,8.29,9.13,16,5.68l18.12-31.54,29.17,34.88c10.2,1.48,11.46.82,15.47-8.13,3.11-7,5-14.58,11.52-21.35,6.52,8.44,12.69,16.12,18.49,24.06,3.31,4.54,6.94,7,13,4.49l22-32.16c5.5,9.59,10.33,17.67,14.81,25.94,3,5.63,6.59,9.32,13.89,6,2.16-4.14,4.22-8.69,6.81-12.91s5.85-8.36,10-14.2c5.27,8.89,9.33,15.88,13.53,22.79,6.3,10.36,12.72,10.17,18.53-.52,2-3.75,3.82-7.65,6-11.32,1.66-2.84,3.74-5.43,5.55-8,11.63,9.38,13.79,26.38,30.88,30.67,4.94-11,9.58-21.3,15.22-33.83,4.59,7.41,8.85,15.21,13.81,22.38a20.3,20.3,0,0,0,5,5.38c7.43,5.37,8.07-.28,11.54-5.27,5.33-7.65,8.59-16.93,15.8-23.15,7.29,10.71,14.41,21.17,21.73,31.94,13.7-5.28,12.78-21.89,24.72-28.33l20.52,29.82c6.27,1.87,9.39-1.62,12.14-6.24q7.08-11.93,14.53-23.63a89.55,89.55,0,0,1,5.8-7.34c7,12.48,13.39,23.78,19.83,35.2,17-3.44,16.21-22,28.66-29.47,2.36,5.83,4.29,11.07,6.6,16.14,2.44,5.35,3,11.9,9.9,15.62,14.33-4.76,17.07-21.22,28.79-31,4.39,8,8.24,15.51,12.49,22.76,3.91,6.67,9.57,7.18,14.57,1.33,2-2.38,3.14-5.54,4.84-8.23,3.51-5.55,7.14-11,11.84-18.26l17.38,28c7,2,9.81-1.91,12.4-6.53,4.6-8.24,9.37-16.39,15-26.11l22.54,32.73c8.57-.1,8.6-.08,12.92-5.82,5.89-7.85,11.34-16.07,19.69-23.57l14.15,29.92h11.05c10.53-11,17.24-24.34,30.39-33.92l16.92,30.42c8.74,3.44,12.59-1.82,16.55-6.33,5.81-6.6,11.09-13.72,20.11-18.51L1180.81,476h6l25.91-29.12c7,7.48,13.09,13.83,19,20.29,4.19,4.56,8.28,9.13,16,5.68l18.12-31.54,29.17,34.88c10.2,1.48,11.46.82,15.47-8.13,3.12-7,5-14.58,11.52-21.35,6.52,8.44,12.69,16.12,18.49,24.06,3.31,4.54,6.94,7,13,4.49l22-32.16c5.5,9.59,10.34,17.67,14.81,25.94,3,5.63,6.59,9.32,13.89,6,2.16-4.14,4.22-8.69,6.81-12.91s5.85-8.36,10-14.2c5.27,8.89,9.33,15.88,13.53,22.79q3,4.84,5.91,6.61V457C1431.19,448.7,1430.51,434.75,1420.4,426.92Z"/><path class="cls-2" d="M10.69,683.45c2.66-4.62,5.26-9.29,8.15-13.77,4.1-6.35,8.45-12.54,13.61-20.13,3.68,7.66,6.16,13.53,9.25,19,3.27,5.81,7.13,11.28,10.87,17.12,16.5-3.25,15.71-21.72,28-29.34,2.37,5.76,4.33,11,6.65,16,2.45,5.35,3,11.87,9.64,15.72,14.69-4.59,17.29-21.16,28.23-30.23,8.61,7.79,9.53,20.81,18.14,27.3,8.19.06,10.8-5.09,13.7-10.09,3.66-6.32,7.58-12.49,12.57-20.65l17.57,28.36c8.74-.3,8.53-.43,12.75-7.41,4.82-8,7.53-17.44,15.79-23.65l21.44,31c7.51,1.72,10.36-2.34,13.43-6.46,5.65-7.58,11.56-15,18.56-24,5.5,11.56,10,21.06,14.75,31h10.86c10.6-11,17.37-24.27,30.41-33.82,6.24,11.09,11.92,21.21,17.36,30.87,9.88.44,10.12.11,17-7.55,5.56-6.23,11.56-12.07,18.27-19l25.53,29.69c7.32.06,7.05-.16,10.84-4.86,6.41-7.93,13.2-15.55,20.85-24.5C442,661.69,448.09,668,454,674.47c4.48,4.91,8.93,9.46,16.25,5.69l17.44-30.51c12.76,10.67,20.19,23.83,30.07,34.23,10.35.87,11.39.3,15.09-8.19,3-7,5.16-14.51,11.37-21.88,6.66,8.66,12.8,16.31,18.55,24.25,3.29,4.54,6.92,7.05,13,4.73l22.35-32.32c5.76,10.17,10.6,18.4,15.13,26.8,3,5.45,6.61,8.27,13.24,5,5.33-8.11,8-18.51,17.56-25.66,4.18,6.89,8.11,13.14,11.8,19.53,2.53,4.38,4.78,9.08,10.65,9.33s7.14-5,9.35-8.92c1.93-3.4,3.58-7,5.6-10.32,1.71-2.83,3.76-5.46,5.66-8.19C698.23,668,701,684.35,717.89,689c4.9-11,9.53-21.3,15.19-33.94,5.31,8.57,9.27,14.77,13,21.08,1.85,3.12,6.39,10.69,10.86,9.75,2.64-.55,22-31.83,22.24-31.44,7.23,10.61,14.34,21.07,21.85,32.11,13.37-5.62,12.85-21.91,24.53-28.47l20.78,30.05c4.65.9,8.3-.35,10.78-4.65,2.66-4.62,5.26-9.29,8.15-13.77,4.11-6.35,8.46-12.54,13.61-20.13,3.69,7.66,6.16,13.53,9.26,19,3.26,5.81,7.12,11.28,10.86,17.12,16.5-3.25,15.71-21.72,28-29.34,2.37,5.76,4.34,11,6.65,16,2.45,5.35,3,11.87,9.64,15.72,14.7-4.59,17.29-21.16,28.23-30.23,8.61,7.79,9.53,20.81,18.15,27.3,8.18.06,10.79-5.09,13.69-10.09,3.66-6.32,7.58-12.49,12.57-20.65l17.57,28.36c8.75-.3,8.53-.43,12.75-7.41,4.82-8,7.53-17.44,15.79-23.65l21.44,31c7.51,1.72,10.36-2.34,13.44-6.46,5.64-7.58,11.55-15,18.55-24,5.51,11.56,10,21.06,14.76,31h10.85c10.6-11,17.37-24.27,30.41-33.82,6.24,11.09,11.92,21.21,17.36,30.87,9.88.44,10.12.11,17-7.55,5.56-6.23,11.56-12.07,18.27-19l25.53,29.69c7.32.06,7-.16,10.84-4.86,6.41-7.93,13.2-15.55,20.86-24.5,7.09,7.53,13.18,13.84,19.09,20.31,4.48,4.91,8.92,9.46,16.24,5.69l17.44-30.51c12.77,10.67,20.19,23.83,30.07,34.23,10.35.87,11.39.3,15.09-8.19,3-7,5.16-14.51,11.37-21.88,6.66,8.66,12.8,16.31,18.55,24.25,3.29,4.54,6.92,7.05,13,4.73l18.23-26.36V635.14a42.25,42.25,0,0,0-3.9,4.82c-3.27,4.64-5.64,9.95-9.07,14.45s-6,10.71-14.34,12.33c-.57-.92-1.45-2.48-2.46-4-5.41-7.9-10.67-15.92-16.4-23.58-1.7-2.27-4.93-5-7.17-4.79s-4.63,3.63-6.12,6.14c-1.21,2-.77,5-1.79,7.18-3.31,7.11-4.14,16.1-14.11,19.47-8.38-9.14-17.44-17.63-23.27-28.84-2-3.82-3.71-7.89-10.77-7.46l-20.12,35.16c-2.09-1-2.92-1.12-3.34-1.6-6.64-7.8-13.11-15.76-19.93-23.4-2.18-2.44-5.42-5.8-7.92-5.59s-4.92,4.16-7,6.76c-1.07,1.31-1.32,3.28-2.07,4.89-4,8.53-10.46,14.85-18.27,20.71-8.2-8.24-16.43-15.41-20.12-26.48a11.08,11.08,0,0,0-7.25-6.28c-2-.37-5,3-7.14,5.09-1.22,1.16-1.62,3.15-2.6,4.62-5.32,8-12,14.64-20.8,21.12-7.15-12.58-13.89-24.41-22.11-38.85-12.41,13.91-19.21,30.21-34.34,40.22-2.59-3.21-5.56-5.83-7.14-9.13a114,114,0,0,1-5.71-15.94c-1.18-3.84-2.1-8.54-6.79-8.21-2.79.2-5.47,3.47-7.95,5.64-1,.87-1.18,2.59-2,3.74-5.67,8-10.3,16.89-18.85,23.28-12.51-8.68-16.41-23.36-26.61-35.48-13.56,7.13-14.06,24-25.27,33.93-3.71-5.54-7.32-10.7-10.68-16-3.24-5.13-3.29-12.73-10.93-14.41-7.38,2.78-7.51,10.16-10.74,15.42-3.46,5.61-7.16,11.07-11.34,17.5-3-3.68-5.26-5.93-6.85-8.59-2.9-4.86-5.06-10.2-8.2-14.89-1.76-2.63-5-6.18-7.32-6-2.56.17-5,4-7.19,6.54-.86,1-.73,2.79-1.47,4-4.84,7.68-9.8,15.29-14.72,22.91l-3-.28c-3.39-8.81-7.21-17.49-10-26.48-1.47-4.77-2.67-8.81-8.39-9.67-8.14,1.91-7.39,10.54-11.4,15.61-4.29,5.44-7.93,11.39-11.91,17.19-12.19-10.15-11.71-26.74-22.19-36.5-9.83,3.6-11.06,12.81-15.82,19.1-5,6.7-9.43,13.92-14.48,21.46-9.18-7.56-14.12-16.42-17.56-26.23-1.6-4.55-3.19-8.78-10.51-8.78l-19,31.22c-11.24-9.29-15.09-23.32-26.68-32.61l-20.17,31.53-2.76,1.07c-5.17-8.65-10.4-17-15.22-25.67-2-3.6-3.78-7.24-8.55-6.49-4.53.72-6.12,4.41-6.8,8.53a19.29,19.29,0,0,1-.51,3.16c-3,8.22-5.53,16.64-11.75,24.17-6.87-8.17-13.42-15.52-16.54-25.22-1.36-4.2-3-8.3-8.31-8.38-5-.07-5.8,4.25-7.53,7.75-3.71,7.5-7,15.39-13.67,20.49-12.22-7.59-11.34-23.94-23-32.09-11.39,7.64-10.56,23.93-23,30.27-1.52-2.18-2.85-3.83-3.89-5.64-3.54-6.17-6.68-12.59-10.58-18.51-2-3-4.92-6.32-8-7.15-1.64-.44-5,3.91-6.91,6.59-3.28,4.64-5.64,9.95-9.08,14.45s-6,10.71-14.33,12.33c-.57-.92-1.45-2.48-2.46-4-5.41-7.9-10.67-15.92-16.4-23.58-1.7-2.27-4.93-5-7.18-4.79s-4.62,3.63-6.11,6.14c-1.21,2-.77,5-1.8,7.18-3.3,7.11-4.13,16.1-14.1,19.47-8.38-9.14-17.44-17.63-23.27-28.84-2-3.82-3.71-7.89-10.77-7.46l-20.12,35.16c-2.09-1-2.92-1.12-3.34-1.6-6.65-7.8-13.11-15.76-19.93-23.4-2.18-2.44-5.42-5.8-7.92-5.59s-4.92,4.16-7,6.76c-1.08,1.31-1.32,3.28-2.08,4.89-4,8.53-10.45,14.85-18.26,20.71-8.21-8.24-16.43-15.41-20.13-26.48a11.06,11.06,0,0,0-7.24-6.28c-2-.37-5,3-7.14,5.09-1.22,1.16-1.62,3.15-2.6,4.62-5.32,8-12,14.64-20.8,21.12l-22.11-38.85c-12.42,13.91-19.21,30.21-34.34,40.22-2.59-3.21-5.56-5.83-7.14-9.13a114,114,0,0,1-5.72-15.94c-1.17-3.84-2.09-8.54-6.78-8.21-2.79.2-5.47,3.47-8,5.64-1,.87-1.18,2.59-2,3.74-5.68,8-10.3,16.89-18.85,23.28-12.51-8.68-16.41-23.36-26.61-35.48-13.57,7.13-14.07,24-25.27,33.93-3.72-5.54-7.32-10.7-10.68-16-3.24-5.13-3.29-12.73-10.93-14.41-7.38,2.78-7.51,10.16-10.74,15.42-3.46,5.61-7.16,11.07-11.34,17.5-3-3.68-5.26-5.93-6.85-8.59-2.9-4.86-5.06-10.2-8.2-14.89-1.76-2.63-5-6.18-7.32-6-2.56.17-5,4-7.19,6.54-.87,1-.73,2.79-1.47,4-4.85,7.68-9.8,15.29-14.72,22.91l-3-.28c-3.39-8.81-7.21-17.49-10-26.48-1.47-4.77-2.67-8.81-8.4-9.67C72.28,637,73,645.63,69,650.7c-4.29,5.44-7.94,11.39-11.91,17.19-12.19-10.15-11.71-26.74-22.19-36.5-9.83,3.6-11.07,12.81-15.82,19.1-5,6.7-9.43,13.92-14.48,21.46a51.89,51.89,0,0,1-4.19-3.84v20.08C4.83,688.89,8.3,687.59,10.69,683.45Z"/><path class="cls-2" d="M1413.55,390.88c-1.06-1.93-1.65-3.27-2.46-4.46-5.43-7.89-10.7-15.9-16.47-23.52-1.92-2.53-5.48-5.88-7.76-5.51-2.44.39-4.57,4.52-6.25,7.36-1,1.74-.63,4.26-1.45,6.19-3.08,7.29-4.57,15.8-14.57,19.76-7.09-8.81-14.27-17.56-21.23-26.47-2.91-3.72-3.2-10.37-9.63-10.08-6.85.31-7,7.12-9.46,11.57-4.36,7.94-7.61,16.6-15,23.29-8.38-8-16.6-15-21.83-25.12-4.09-7.9-10.16-7.67-14.14-.18a26.64,26.64,0,0,0-1.62,4c-3.4,9.87-11,16.22-18.69,23.09a46.41,46.41,0,0,1-4.41-3.46c-6.76-6.83-13-13.79-16.45-23.26-3-8.25-9.17-8.48-14-1.33-1.19,1.75-2,3.79-3.12,5.58-5.19,8.08-12.43,14-19.56,20.9-2.33-3.26-4-5.14-5.17-7.29-4.07-7.49-7.91-15.11-11.94-22.63s-9-7.69-13.49-.85c-1,1.48-1.56,3.2-2.48,4.72-6.23,10.36-14.5,18.83-22.87,27C1131,383.8,1128.3,379,1125.21,366c-1.29-5.42-2.82-10.55-10.82-9-7.74,10.83-13.36,23.73-25.62,33.36-4.23-5.17-8.29-9.52-11.64-14.38-3.62-5.25-6.4-11.09-9.88-16.45s-8.08-5.28-11.75.07c-1.2,1.74-1.93,3.8-3,5.65-4.33,7.54-8.7,15.06-13,22.51-12.56-7.34-11.67-23.64-24.48-31-9.47,9.83-10.33,24.91-22.1,32.72-1.72-2.11-3.55-3.82-4.75-5.89-3.36-5.84-6.24-12-9.8-17.67-1.34-2.16-4.22-5-6.07-4.81-2.6.31-5.15,2.95-7.23,5.07-1.13,1.15-1.12,3.33-1.83,5-3.84,8.76-9.42,16.23-17.59,24.89-4-10.94-7.52-20.08-10.59-29.38-1.3-3.95-2.63-8.29-7.17-7.86-2.8.27-5.45,3.51-7.88,5.72-1,.86-1,2.63-1.67,3.88-4.3,8-9.57,15.33-15,22.64-12-10.33-11.49-26.91-22.11-36.73-9.45,4-11,12.91-15.71,19.29-5,6.81-9.48,14-14.61,21.63a59.72,59.72,0,0,1-17.31-26.07c-1.45-4.22-2.8-8.13-9.18-9.19-9.81,7.45-11,22-22,31.12-3.87-5.41-7.32-11.12-11.66-16s-5.32-13.59-14.45-14.87L756.8,390.79c-2.38-.28-3.86-2.1-5.2-4.43-4.25-7.38-8.43-14.8-13.11-21.9-1.58-2.4-4.94-5.69-6.83-5.31-2.76.56-5.19,3.85-7.23,6.4-1,1.22-.46,3.53-1.12,5.14-3.26,8.08-6.69,16.08-10.92,26.17-7.12-10.09-14.14-17.13-17.22-26.8-1.48-4.69-3.43-8.62-10.53-9.26-1.62,2.58-3.6,5.67-5.52,8.8-4.3,7-6.94,15.28-14,20-11.19-8.3-11.56-23.26-22.11-32.2-12,7.36-11.14,23.6-23.57,30.7-2.06-3.36-4.12-6.55-6-9.84-3.18-5.55-6.35-11.12-9.33-16.79-2.28-4.32-5.13-6.78-10.2-4.45-8.63,10.76-12.27,25.53-26.75,33.9-1.06-1.93-1.65-3.27-2.47-4.46-5.42-7.89-10.69-15.9-16.47-23.52-1.91-2.53-5.47-5.88-7.75-5.51-2.45.39-4.57,4.52-6.26,7.36-1,1.74-.62,4.26-1.44,6.19-3.08,7.29-4.57,15.8-14.58,19.76-7.09-8.81-14.26-17.56-21.22-26.47-2.91-3.72-3.2-10.37-9.63-10.08-6.85.31-7,7.12-9.47,11.57-4.35,7.94-7.6,16.6-15,23.29-8.38-8-16.6-15-21.83-25.12-4.09-7.9-10.16-7.67-14.15-.18a27.71,27.71,0,0,0-1.61,4c-3.4,9.87-11,16.22-18.69,23.09a46.41,46.41,0,0,1-4.41-3.46c-6.76-6.83-13-13.79-16.45-23.26-3-8.25-9.18-8.48-14-1.33-1.19,1.75-2,3.79-3.13,5.58-5.18,8.08-12.42,14-19.55,20.9-2.34-3.26-4-5.14-5.17-7.29-4.07-7.49-7.91-15.11-11.94-22.63s-9-7.69-13.49-.85c-1,1.48-1.56,3.2-2.48,4.72-6.23,10.36-14.5,18.83-22.87,27C284.59,383.8,281.85,379,278.76,366c-1.3-5.42-2.82-10.55-10.82-9-7.74,10.83-13.36,23.73-25.62,33.36-4.23-5.17-8.3-9.52-11.64-14.38-3.63-5.25-6.4-11.09-9.88-16.45s-8.08-5.28-11.75.07c-1.2,1.74-1.93,3.8-3,5.65-4.33,7.54-8.7,15.06-13,22.51-12.57-7.34-11.67-23.64-24.48-31-9.47,9.83-10.34,24.91-22.1,32.72-1.73-2.11-3.55-3.82-4.75-5.89-3.36-5.84-6.24-12-9.8-17.67-1.35-2.16-4.22-5-6.07-4.81-2.61.31-5.15,2.95-7.23,5.07-1.13,1.15-1.12,3.33-1.83,5C113,379.83,107.36,387.3,99.2,396c-4-10.94-7.52-20.08-10.59-29.38-1.3-3.95-2.63-8.29-7.17-7.86-2.8.27-5.45,3.51-7.88,5.72-1,.86-1,2.63-1.67,3.88-4.3,8-9.57,15.33-15,22.64-12-10.33-11.5-26.91-22.12-36.73-9.44,4-11,12.91-15.71,19.29-5,6.81-9.48,14-14.6,21.63-1.43-1.27-2.77-2.56-4-3.89v20.05c5.31,1.29,8.43-1.54,10.88-5.7s4.85-8.71,7.54-12.89c4.09-6.37,8.42-12.58,13.05-19.45l19.34,34.34c9.48.85,12.38-4.66,15.6-9.82,3.82-6.12,7.71-12.19,12.72-20.09l14.8,33.64c17.41-4,19.72-21.39,31.37-31,5.47,9.38,10.74,18.43,15.75,27,9.61,0,10.56-.71,15-8.4,3.79-6.6,7.86-13,13-21.6l17.17,28c6.59,2.47,9.94-.94,12.84-6.18,4.57-8.25,8-17.33,15.9-24.75l21.39,31c7.75,2.29,10.75-2.09,14-6.59,5.48-7.56,10.63-15.48,19.15-22.47l9.53,21.67c3.92,8.92,5.36,9.66,15.49,8l29.09-34.87,18.13,31.53c8.1,3.53,12.29-1.5,16.69-6.34,5.68-6.24,11.52-12.33,18.45-19.72L403.73,407c4.25,1.18,7.27-1.08,10.47-5.39,6.06-8.15,13.11-15.55,20.81-24.48,7.17,7.67,13.17,14.07,19.17,20.48,4.17,4.46,8.18,9.35,15.83,5.74,6.85-9.07,10-21.13,19-31L517.76,407c10.49.66,11.3.18,15-8.24,3.1-7,6.3-13.94,10.44-23.07,7.28,9.38,13.16,16.76,18.8,24.32,3.08,4.12,6,8.13,13.24,6.36L598,373.56c5.68,10,10.46,18.2,15.07,26.53,2.86,5.19,6.27,8.71,12.56,5.79l17.2-27.9c5,8.19,9,14.39,12.72,20.75,2.72,4.66,5,9.83,11.48,9.69,5.87-.13,6.83-5.46,9.06-9.34,3.43-6,6.82-12,10.54-18.58,11.5,10.35,14.41,26.6,31,31.86l15.29-34.18c4.51,7.07,8.22,12.15,11.14,17.65a126.8,126.8,0,0,0,10.11,15.26c3.25,4.38,9.52-10.75,10.73-12.7,4.47-7.21,8.07-15,14.08-21.14,7.44,10.85,14.56,21.25,22,32.08,13.87-5.13,12.56-22.21,24.84-28l20.51,29.86c5.66,1.66,8.92-1.24,11.45-5.55s4.85-8.71,7.54-12.89c4.1-6.37,8.42-12.58,13.05-19.45,7.13,12.66,13.5,24,19.35,34.34,9.47.85,12.37-4.66,15.59-9.82,3.82-6.12,7.71-12.19,12.72-20.09l14.8,33.64c17.41-4,19.72-21.39,31.38-31l15.75,27c9.61,0,10.55-.71,15-8.4,3.79-6.6,7.86-13,13-21.6,6.65,10.85,12,19.48,17.18,28,6.58,2.47,9.93-.94,12.84-6.18,4.56-8.25,8-17.33,15.89-24.75l21.39,31c7.75,2.29,10.75-2.09,14-6.59,5.48-7.56,10.64-15.48,19.15-22.47L1126,398.1c3.92,8.92,5.36,9.66,15.5,8l29.08-34.87,18.13,31.53c8.1,3.53,12.29-1.5,16.69-6.34,5.68-6.24,11.52-12.33,18.46-19.72L1250.19,407c4.25,1.18,7.26-1.08,10.46-5.39,6.06-8.15,13.12-15.55,20.81-24.48l19.17,20.48c4.17,4.46,8.18,9.35,15.84,5.74,6.84-9.07,10-21.13,19-31l28.77,34.6c10.49.66,11.29.18,15-8.24,3.11-7,6.3-13.94,10.44-23.07,7.28,9.38,13.16,16.76,18.8,24.32,3.08,4.12,6,8.13,13.24,6.36,5.74-8.28,11.86-17.1,18.71-27V356.93l-.14.05C1431.67,367.74,1428,382.51,1413.55,390.88Z"/><path class="cls-2" d="M32.62,512.34C39.78,524.25,43.23,537.83,54,547.1c15-3.66,14.34-21.46,26.39-28.88,4.71,10.69,9.2,20.87,14.11,32,17.13-4.52,19.51-21.89,31.33-31.18l15.82,27c8.72,1.86,12.13-3.1,14.93-8.72,3.43-6.89,7.22-13.48,13.66-20.29l16.52,27c7,2.49,10.05-1.51,12.91-6.56,4.65-8.21,7.86-17.43,15.82-24.38l21.3,31c7.17,2,10.31-1.44,13.45-5.78,5.54-7.67,11.51-15,18-23.48,2.27,3.39,3.84,5.22,4.83,7.32,2.72,5.79,4.92,11.85,7.85,17.52,4,7.82,11.24,8.45,16.89,1.67,4.56-5.46,8.78-11.21,13.39-16.62,3.83-4.5,8-8.7,13.14-14.23,3.64,6.18,6.52,10.92,9.26,15.74,3,5.22,5.81,10.51,8.25,15,8.2,3.51,12.3-.94,16.51-5.58,5.89-6.51,12-12.81,19.1-20.35l26.24,30.37c4,1.5,7.16-1,10.62-5.66,6-8.14,13.15-15.49,20.77-24.28,7.21,7.81,13.21,14.27,19.17,20.77,4.23,4.61,8.55,8.88,15.89,5.21l18.21-31.36,29.16,35c10,1.26,11.29.59,15-7.44,3.36-7.21,5-15.41,12-22C551,524.29,557.18,532,563,540c3,4.12,6.36,6.61,12.55,4.65,6.76-9.8,13.93-20.18,21.91-31.73,3,4.26,5.38,7.25,7.3,10.5,3.08,5.2,6,10.53,8.71,15.91,2.64,5.18,6.37,7.41,12.09,5.38,5.36-8.75,10.69-17.43,17.28-28.17,5.29,8.75,9.5,15.57,13.57,22.47,4.51,7.63,5.32,8.09,15,6.85l14.92-26.34c12,9.25,14.18,26.21,29.57,30.88,10-8.4,8.49-22.68,17.95-32.39,4.5,7.3,9.86,14.54,13.77,22.16.9,1.76,1.43,5.72,3,6.88,8.11,5.92,23.72-26.67,28.31-31.23l21.89,32c13.9-5.13,12.9-21.82,24-27.72,9.71,9.19,14.09,22.13,24.2,31.88,14.42-10.51,17.61-28.26,30-39.64,7.16,11.91,10.61,25.49,21.38,34.76,15-3.66,14.33-21.46,26.38-28.88,4.71,10.69,9.2,20.87,14.11,32,17.14-4.52,19.51-21.89,31.33-31.18,5.54,9.46,10.84,18.52,15.83,27,8.71,1.86,12.12-3.1,14.92-8.72,3.43-6.89,7.22-13.48,13.66-20.29l16.52,27c7,2.49,10-1.51,12.91-6.56,4.65-8.21,7.86-17.43,15.82-24.38l21.3,31c7.17,2,10.31-1.44,13.45-5.78,5.54-7.67,11.51-15,18-23.48,2.27,3.39,3.84,5.22,4.83,7.32,2.72,5.79,4.92,11.85,7.85,17.52,4,7.82,11.24,8.45,16.9,1.67,4.55-5.46,8.78-11.21,13.39-16.62,3.82-4.5,8-8.7,13.13-14.23,3.64,6.18,6.52,10.92,9.26,15.74,3,5.22,5.81,10.51,8.25,15,8.2,3.51,12.3-.94,16.51-5.58,5.89-6.51,12-12.81,19.11-20.35l26.23,30.37c4,1.5,7.16-1,10.62-5.66,6-8.14,13.15-15.49,20.77-24.28,7.22,7.81,13.21,14.27,19.17,20.77,4.24,4.61,8.55,8.88,15.89,5.21l18.21-31.36,29.16,35c10,1.26,11.29.59,15-7.44,3.36-7.21,5-15.41,12-22,6.44,8.37,12.59,16.11,18.43,24.07,3,4.12,6.36,6.61,12.55,4.65L1440.44,518V495.47l-.14,0c-8,10.68-12.54,24.79-25.62,34.16-6.5-8.74-12.34-16.25-17.78-24-2.74-3.92-3.34-10.52-9.64-9.94-7,.65-6.21,7.47-7.82,12.36-2.63,7.94-4.58,16.47-13.29,20.79-1.46-1-2.89-1.56-3.71-2.6-7.21-9.21-14.21-18.59-21.51-27.73-1.84-2.3-4.86-5.7-6.8-5.38-2.8.47-5.43,3.61-7.53,6.12-1.53,1.84-1.88,4.6-3.11,6.75-4.14,7.31-8.44,14.54-13,22.33-2.48-2-4.07-2.89-5.15-4.21-6.06-7.36-12.22-14.66-17.91-22.31-5.14-6.92-10.51-6.74-14.45,1-1,1.9-1.52,4-2.39,5.95-3.85,8.66-10.83,14.44-17.12,20.36-14.1-8-18.12-22.57-27.25-35.19-12.62,10-17,26.09-32.16,33.11-6.59-11.76-13.25-23.62-19.9-35.48-11.69,1.69-11.52,12.78-17.33,18.39-6,5.81-11.14,12.55-16.72,19-14.21-7.81-12.15-23.14-18.33-32.71-7.07-2.7-9.29,1.32-11.69,5.59-5.4,9.57-11.59,18.56-19.78,26.6-14-8.51-16.94-25-28.24-35.79-12.08,8.62-13.95,23.49-23.77,34-2.54-3.18-5-5.65-6.75-8.58-3.23-5.51-5.76-11.43-9-16.92-3.59-6-8.7-6-12.37,0-1.49,2.4-2.32,5.2-3.55,7.76-3.35,7-6.69,13.93-13.6,19.49a98.12,98.12,0,0,1-14.66-23.77c-1-2.21-4.06-5.1-5.92-4.93-2.59.25-5.19,2.82-7.31,4.89-1.15,1.12-1.23,3.28-1.9,4.93-3.67,8.9-9.42,16.31-17.42,24.81-4-10.28-7.76-19-10.6-28-1.37-4.33-2.26-8.52-7.34-9.21-4.82-.66-6.76,3-8.24,6.83a26.31,26.31,0,0,1-1.29,2.93,165.7,165.7,0,0,1-15.07,22.72c-11.66-10.42-11.63-26.68-21.87-36.78-9.66,3.77-11.12,12.81-15.83,19.15-5,6.77-9.44,14-14.67,21.81a61,61,0,0,1-17.33-26.21c-1.59-4.54-3.07-8.83-10.65-9-5.89,9.7-12.2,20.1-19.54,32.21-4.77-6.6-8.28-12.28-12.64-17.23s-5.29-13.61-14.6-14.83c-7.2,9.23-11.32,20.64-18.95,29.89l-1.87,1.2a47.7,47.7,0,0,1-3.35-4.4c-4.55-7.6-8.78-15.42-13.67-22.81-1.54-2.32-4.86-5-7.17-4.82s-4.71,3.45-6.53,5.79c-1,1.26-.66,3.46-1.22,5.13-2.87,8.59-5.77,17.18-11.72,25.33-7.26-9.55-14.25-17.48-17.63-28-.85-2.66-4.7-5.49-7.55-5.95-1.81-.3-4.56,3.42-6.42,5.72-1.29,1.6-1.54,4-2.69,5.77-3.79,5.73-6,12.74-12.14,16.52C653.94,520,653.43,505,643.11,496c-12.17,7.16-11.1,23.7-23.87,30.46-2.11-3.51-4.13-6.73-6-10q-4.76-8.34-9.36-16.78c-2.09-3.86-4.78-6.18-10-4.14-8,10.68-12.55,24.79-25.62,34.16-6.5-8.74-12.34-16.25-17.78-24-2.74-3.92-3.34-10.52-9.64-9.94-7,.65-6.21,7.47-7.83,12.36-2.62,7.94-4.58,16.47-13.28,20.79-1.46-1-2.9-1.56-3.71-2.6-7.21-9.21-14.21-18.59-21.51-27.73-1.84-2.3-4.86-5.7-6.8-5.38-2.8.47-5.43,3.61-7.53,6.12-1.53,1.84-1.89,4.6-3.11,6.75-4.14,7.31-8.44,14.54-13,22.33-2.49-2-4.08-2.89-5.16-4.21-6.05-7.36-12.21-14.66-17.9-22.31-5.15-6.92-10.51-6.74-14.45,1-1,1.9-1.52,4-2.39,5.95-3.85,8.66-10.83,14.44-17.12,20.36-14.1-8-18.13-22.57-27.25-35.19-12.62,10-17,26.09-32.16,33.11-6.59-11.76-13.25-23.62-19.91-35.48C316,493.3,316.2,504.39,310.39,510c-6,5.81-11.14,12.55-16.72,19-14.21-7.81-12.16-23.14-18.33-32.71-7.07-2.7-9.29,1.32-11.7,5.59-5.39,9.57-11.58,18.56-19.77,26.6-14-8.51-17-25-28.24-35.79-12.08,8.62-13.95,23.49-23.77,34-2.54-3.18-5-5.65-6.75-8.58-3.23-5.51-5.76-11.43-9-16.92-3.58-6-8.69-6-12.37,0-1.48,2.4-2.31,5.2-3.54,7.76-3.35,7-6.69,13.93-13.6,19.49a98.48,98.48,0,0,1-14.67-23.77c-1-2.21-4.05-5.1-5.91-4.93-2.6.25-5.19,2.82-7.31,4.89-1.15,1.12-1.23,3.28-1.91,4.93-3.67,8.9-9.41,16.31-17.42,24.81-4-10.28-7.75-19-10.6-28-1.37-4.33-2.25-8.52-7.33-9.21-4.83-.66-6.76,3-8.24,6.83a26.31,26.31,0,0,1-1.29,2.93,166.62,166.62,0,0,1-15.07,22.72C45.16,519.2,45.19,502.94,35,492.84c-9.66,3.77-11.13,12.81-15.83,19.15-5,6.77-9.45,14-14.67,21.81-1.43-1.28-2.76-2.59-4-3.93v19.85c.7.77,1.42,1.52,2.18,2.26C17.05,541.47,20.24,523.72,32.62,512.34Z"/><path class="cls-2" d="M14.92,754.54c5.36,0,6.67-4.62,8.73-8.26,3.61-6.4,7.15-12.85,10.81-19.44,11.9,9.44,14.36,26.11,29,30.94,6.54-4,7.07-10.48,9.75-15.73s2.8-11.62,8.9-16.47c4.52,7.37,8.43,14,12.64,20.52,3,4.71,7,7.33,11,11.11.29.27,7.32-5.5,8.1-6.34a54.46,54.46,0,0,0,6.46-9.26c3.8-6.37,7.13-13.14,12.61-18.29l21.76,32.09c13.67-5.21,13.07-21.63,24.71-28.31l21,30.48c8.09-1.33,8.13-1.31,12.05-7.54,6.36-10.1,12.67-20.24,19.88-31.77,7.57,13.32,11.09,26.83,21.92,36.42,14.7-4,14.57-21.27,25.65-28.74,8.08,9,6.76,22.73,17.21,31.66,14.38-5.29,17.44-21.37,28.85-31.31,5.46,9.41,10.7,18.47,15.63,27,8.52,2.46,11.84-2.48,15-8,3.84-6.63,7.91-13.12,13.12-21.7l17.48,28c6.22,1.81,9.59-.81,12-5.33,3-5.64,5.91-11.37,9.21-16.85,1.87-3.1,4.43-5.79,7.11-9.2L437,751.46c7.1,2.06,10.31-1.23,13.47-5.62,5.54-7.68,11.54-15,18.31-23.77,5.74,8.08,8.2,15.79,11.46,23.09,3.58,8,5.3,8.73,15,7l29.17-34.88c6.87,12,12.61,22,18.21,31.69,9.64,1.23,10.2,1,16.67-6.59,5.66-6.68,10.88-13.83,19.88-18.2L604,753.09c3.87,1.53,7.09-.88,10.58-5.55,6-8.12,13.12-15.48,20.74-24.29,7.3,7.8,13.36,14.19,19.31,20.68,4.27,4.66,8.62,8.79,16,5.13,6.56-9,9.58-20.83,18.7-30.5l28.51,34.31c10,1.06,11.51.3,15.08-7.64,3.27-7.25,5-15.36,11.91-21.91,5.82,7.54,11.34,14.45,16.59,21.54,8.22,11.1,12,11.08,19.47-.1,5.27-7.86,10.8-15.55,17.41-25,5.59,9.8,10.46,17.94,14.93,26.29,2.9,5.42,6.55,8.28,12.73,6l17.25-28.16c5.29,8.82,9.52,15.68,13.54,22.65,2.41,4.16,5,8,10.38,8s6.67-4.62,8.73-8.26c3.61-6.4,7.15-12.85,10.81-19.44,11.9,9.44,14.36,26.11,29,30.94,6.54-4,7.07-10.48,9.75-15.73s2.8-11.62,8.9-16.47c4.56,7.43,8.81,15.1,13.43,22.48,1.54,2.46,4.75,5.21,7.67,5.76a11.65,11.65,0,0,0,1.6.19c3.62.12,3.82-2.5,5.54-5.77,4.38-8.34,9.93-18.43,16.84-24.92l21.76,32.09c13.67-5.21,13.07-21.63,24.71-28.31l21,30.48c8.1-1.33,8.13-1.31,12.05-7.54,6.36-10.1,12.67-20.24,19.89-31.77,7.56,13.32,11.09,26.83,21.91,36.42,14.71-4,14.57-21.27,25.66-28.74,8.07,9,6.76,22.73,17.2,31.66,14.38-5.29,17.44-21.37,28.85-31.31,5.46,9.41,10.7,18.47,15.63,27,8.52,2.46,11.84-2.48,15-8,3.84-6.63,7.92-13.12,13.12-21.7l17.48,28c6.22,1.81,9.59-.81,12-5.33,3-5.64,5.92-11.37,9.21-16.85,1.87-3.1,4.43-5.79,7.11-9.2l21.41,31.22c7.1,2.06,10.32-1.23,13.48-5.62,5.53-7.68,11.53-15,18.3-23.77,5.74,8.08,8.2,15.79,11.46,23.09,3.58,8,5.3,8.73,15,7l29.17-34.88c6.87,12,12.61,22,18.21,31.69,9.64,1.23,10.2,1,16.67-6.59,5.66-6.68,10.88-13.83,19.89-18.2l14.86,17.28V724.42a35.61,35.61,0,0,1-6.65-11.32c-1.48-4.28-2.73-9.14-10.75-9.65-8.42,9.71-14.72,23.39-28.43,31.46L1374.26,699c-11.8,1.9-11.24,13.22-17.28,18.73s-10.36,13.35-18.63,18.54c-2.48-3-5.24-5.28-6.7-8.24a100.6,100.6,0,0,1-6.1-15.84c-1.23-4.17-1.72-8.83-7-9.51-5.51-.71-6.8,4.12-8.74,7.85a14.6,14.6,0,0,1-1,1.87c-5.8,7.89-10.32,16.87-19.56,23.79-3.81-4.38-7.55-8.06-10.54-12.27-3.7-5.21-6.79-10.85-10.12-16.33-5-8.26-8.8-8.4-13.59-.39-2.37,4-4.49,8.08-6.82,12.08-2.77,4.76-5.65,9.47-9.31,15.56-3.55-4.76-6.36-7.92-8.46-11.48-2.88-4.89-4.93-10.27-7.87-15.12-3.3-5.45-8.32-5.41-11.81-.07-1.55,2.35-2.26,5.23-3.67,7.69-3.84,6.67-7.84,13.24-12.16,20.48-8-6.68-11.49-14.39-15.07-22.05-1.66-3.55-2.82-7.68-7.82-7.47-4.74.2-6.42,3.8-7.66,7.72-3.2,10.08-10,17.75-17.27,26.68-5.18-9.05-9.66-17.4-11.58-26.79-1-4.87-2-9.47-7.8-9.86-5.39-.37-6.39,4.57-8.53,8.22-4.75,8.15-9.86,16.1-15.09,24.56-12.28-10.41-12.06-26.82-22.5-37.3-9.35,4.21-11.28,13.29-16,20s-9.37,13.76-14.49,21.32c-8.69-8.36-14.16-16.93-17.39-26.88-1.41-4.33-3.16-7.94-10.21-8.58-6,9.78-12.5,20.33-20,32.59-6.88-9.9-12.54-18-18.1-26.1-2.44-3.58-4.48-7.69-9.42-5.21-6.33,9.93-12.45,19.55-19,29.84-2.77-.43-4.16-3-5.59-5.43-4.33-7.34-8.39-14.84-13-22-1.36-2.1-4.52-4.68-6.41-4.36-2.57.43-5,3.19-6.91,5.43-1,1.18-.64,3.46-1.28,5.1-3.32,8.41-6.76,16.77-10.73,26.58-8.11-9.52-14.7-17.23-17.91-27.27-1.64-5.14-4.26-9.13-11.71-7.22-2.31,4.45-4.67,9.57-7.54,14.38s-6.18,9.13-9.65,14.2c-8.83-7.8-12.32-17.1-16.67-25.95C848.27,708,845,705,842.7,705s-5,3.21-6.8,5.55-2.11,5.32-3.64,7.68c-3.54,5.52-5.61,12.3-12.88,15.95-5.08-9-10.08-17.59-14.76-26.32-2.54-4.74-5.52-7.38-11.08-4.49-3.48,5.74-6.83,11.6-10.53,17.24s-6.63,12.67-15.7,15.2c-8.06-11.13-16.23-22.42-24.23-33.49-7.58,3.88-7.42,3.93-9.44,11.34-2.4,8.8-4.65,17.8-14.46,23.25-8.84-10.36-18.66-19.09-24.6-31.19-1.2-2.44-4.58-5.28-6.93-5.26s-4.92,3.18-6.78,5.47c-1.52,1.86-2,4.57-3.17,6.73-4.28,7.57-8.69,15.06-13.49,23.36-9.25-8.43-17.37-15.31-22.24-25.09-1.84-3.7-4.25-7.59-8.63-6.27-2.79.85-5.85,4.14-6.84,7-3.65,10.64-11.41,17.65-19.88,25.55-7.55-7.63-15.72-13.84-19.28-24.11-1.48-4.28-2.74-9.14-10.75-9.65-8.43,9.71-14.72,23.39-28.43,31.46L527.81,699c-11.81,1.9-11.24,13.22-17.28,18.73s-10.36,13.35-18.63,18.54c-2.48-3-5.25-5.28-6.71-8.24a101.55,101.55,0,0,1-6.09-15.84c-1.24-4.17-1.72-8.83-7-9.51-5.51-.71-6.81,4.12-8.74,7.85a14.6,14.6,0,0,1-1,1.87c-5.8,7.89-10.32,16.87-19.56,23.79-3.82-4.38-7.55-8.06-10.54-12.27-3.7-5.21-6.8-10.85-10.12-16.33-5-8.26-8.8-8.4-13.59-.39-2.37,4-4.49,8.08-6.82,12.08-2.78,4.76-5.66,9.47-9.31,15.56-3.56-4.76-6.36-7.92-8.46-11.48-2.88-4.89-4.93-10.27-7.87-15.12-3.3-5.45-8.32-5.41-11.82-.07-1.54,2.35-2.25,5.23-3.66,7.69-3.84,6.67-7.84,13.24-12.16,20.48-8-6.68-11.49-14.39-15.07-22.05-1.66-3.55-2.83-7.68-7.82-7.47-4.74.2-6.42,3.8-7.66,7.72-3.21,10.08-10,17.75-17.27,26.68-5.19-9.05-9.66-17.4-11.58-26.79-1-4.87-2-9.47-7.8-9.86-5.39-.37-6.4,4.57-8.53,8.22-4.75,8.15-9.86,16.1-15.09,24.56-12.28-10.41-12.06-26.82-22.5-37.3-9.35,4.21-11.28,13.29-16,20s-9.37,13.76-14.5,21.32c-8.68-8.36-14.15-16.93-17.38-26.88-1.41-4.33-3.16-7.94-10.21-8.58-6,9.78-12.5,20.33-20,32.59-6.87-9.9-12.53-18-18.09-26.1-2.44-3.58-4.48-7.69-9.42-5.21l-11.33,17.79c-1.88,3-4.22,5.91-5.76,9.05-1.11,2.25-1.52,4.64-3,6.76a1.63,1.63,0,0,1-3,.06,50.18,50.18,0,0,1-7.29-9.25c-4.33-7.34-8.39-14.84-13-22-1.36-2.1-4.52-4.68-6.41-4.36-2.57.43-5,3.19-6.91,5.43-1,1.18-.64,3.46-1.28,5.1-3.32,8.41-6.76,16.77-10.73,26.58-8.11-9.52-14.7-17.23-17.91-27.27-1.64-5.14-4.26-9.13-11.71-7.22-2.31,4.45-4.67,9.57-7.54,14.38s-6.18,9.13-9.65,14.2C7.3,730.54,3.68,723.81.44,717.06v22.48c1.41,2.36,2.77,4.66,4.1,7C7,750.67,9.55,754.51,14.92,754.54Z"/><path class="cls-2" d="M1419.47,841.5c-10.19,8.53-10.59,23.31-22.58,31-5.11-9.05-10-17.59-14.75-26.18-2.18-3.92-4.43-7.5-10.45-5.53-8.26,10.59-12.32,25.1-26.06,34.17-6.24-8.39-12.26-16.15-17.87-24.19-2.72-3.91-3.36-10.4-10-9.28-6.23,1-5.65,7.22-7.12,11.83-2.55,8-4.52,16.48-13.89,21.42-9.15-9-18-18.12-24-29.51-2.08-3.92-4-7.67-10.71-6.93l-20.5,36.15c-8.71-8.44-17-15-21.89-24.79-2.14-4.29-4.52-8.24-11.73-6.82-6.61,10.7-11,24.44-24.34,31.66-8.23-6.89-16-14-19.48-24.63-1.22-3.71-2.67-7.59-7.55-7.92s-6.71,3.44-8.45,6.92c-4.89,9.78-12.83,16.63-22.11,24.45-3.87-6.43-7.43-12-10.67-17.77-3.41-6.06-6.51-12.29-9.57-18.12-7.89,2-8,1.93-11.32,8.13-6,11.07-14.82,19.72-24.59,29.73-3.15-3.91-6.43-6.71-8-10.27-2.62-5.76-3.76-12.19-6.32-18-1.11-2.52-4-5.25-6.48-5.83-1.8-.42-4.6,2.37-6.54,4.16-1.23,1.14-1.54,3.2-2.56,4.64-5.72,8-11.52,15.95-17.68,24.45-14.42-8.72-17.67-24.38-28.22-35.78-13.42,7.15-14.2,23.75-24.15,32.77-11.85-7.07-10.81-23.48-23.66-30.6-9.51,9.89-10.29,25-22.88,33.16l-17.58-29c-7.19-.3-9.27,3.69-10.76,8.33-3.22,10-9.91,17.41-18,27-4.13-11-7.82-19.74-10.64-28.76-1.5-4.78-3-8.69-10.17-9.47L834,876.79c-4.37-7.73-7.83-13.32-10.76-19.18s-5.43-12.13-8.25-18.53c-12.51.82-12.86,12-18,18.26-5.5,6.66-8.9,15-15.64,21.33a61.57,61.57,0,0,1-16.9-26.31c-1.46-4.31-3.17-7.92-9.32-8.31-9.27,7.93-10.56,22.41-21.66,30.87-4.09-5.64-7.5-11-11.58-15.81-4.21-5-5.53-12.48-13.94-15.37l-19.8,30.72-2.56,1c-5.11-8.67-10.25-17.12-15.1-25.73-2-3.54-3.72-7.29-8.55-6.57-4.58.68-6.18,4.32-6.88,8.43a18.45,18.45,0,0,1-.74,4.2c-3.4,7.85-5.48,16.43-12.69,24.88-5.91-10.57-11.13-19.35-15.77-28.41-2.58-5-5.39-8.26-11.72-6-5.56,9.49-9,20.49-17.36,27.51-12.29-8.08-11.28-24.54-23.74-32.29-10.19,8.53-10.59,23.31-22.58,31-5.11-9.05-10-17.59-14.75-26.18-2.18-3.92-4.43-7.5-10.45-5.53-8.26,10.59-12.32,25.1-26.06,34.17-6.24-8.39-12.26-16.15-17.87-24.19-2.73-3.91-3.36-10.4-9.95-9.28-6.24,1-5.65,7.22-7.13,11.83-2.54,8-4.51,16.48-13.88,21.42-9.15-9-18-18.12-24-29.51-2.08-3.92-4-7.67-10.71-6.93-6.34,11.17-13.07,23-20.5,36.15-8.71-8.44-17-15-21.9-24.79-2.13-4.29-4.52-8.24-11.72-6.82-6.61,10.7-11.05,24.44-24.35,31.66-8.23-6.89-16-14-19.47-24.63-1.23-3.71-2.68-7.59-7.55-7.92s-6.71,3.44-8.45,6.92c-4.89,9.78-12.83,16.63-22.11,24.45-3.88-6.43-7.43-12-10.67-17.77-3.41-6.06-6.51-12.29-9.57-18.12-7.89,2-7.95,1.93-11.32,8.13-6,11.07-14.82,19.72-24.59,29.73-3.15-3.91-6.43-6.71-8.05-10.27-2.61-5.76-3.75-12.19-6.31-18-1.12-2.52-4-5.25-6.49-5.83-1.79-.42-4.59,2.37-6.54,4.16-1.23,1.14-1.53,3.2-2.56,4.64-5.71,8-11.52,15.95-17.67,24.45-14.42-8.72-17.67-24.38-28.22-35.78-13.42,7.15-14.2,23.75-24.15,32.77-11.85-7.07-10.81-23.48-23.66-30.6-9.51,9.89-10.29,25-22.88,33.16L59.31,845c-7.18-.3-9.26,3.69-10.76,8.33-3.21,10-9.9,17.41-18,27-4.13-11-7.82-19.74-10.64-28.76-1.5-4.78-3-8.69-10.17-9.47L.44,856.61v20.94c2.8-5,5.85-10.08,11.05-14.77,2.74,6.69,4.74,11.94,7,17.05,2.41,5.37,3.18,11.78,9.65,15.59,14.49-4.9,17.38-21.21,28-30.35,8.92,7.95,9.65,21.14,19.48,28,15.15-4.19,13.66-22.38,26.45-29.31l15.88,26c8.71.54,8.78.47,12.73-6.44,4.68-8.18,9.44-16.33,14.92-25.8L161.38,880c10.45,14.92,11.86,14.8,23-.16,4.74-6.36,8.9-13.41,16.83-18.71l13.68,29.56h10.89c9.54-11.35,18.81-22.38,29.55-35.14l18.1,31.58c8.35,3.7,12.37-1.81,16.61-6.59,5.78-6.52,10.87-13.81,19.92-18.17L334.78,891l5.54-.31,25.9-29.28c6.91,7.34,12.72,13.48,18.49,19.66,4.38,4.71,8.48,10,16.67,6.38l18-31.6,29.68,35.41c10.3.32,11.05-.1,14.61-7.79,3.35-7.22,5.14-15.32,12-21.94,6,7.79,11.77,15,17.29,22.27,7.48,9.92,11.51,9.9,18.15-.05,5.46-8.17,11.14-16.2,18-26.1,5.58,9.78,10.34,18,14.94,26.23,2.83,5.09,6.16,8.81,12.72,6.23,5.33-8.65,10.66-17.31,17.28-28.08,5.49,9.14,9.77,16.35,14.12,23.51,5.95,9.8,12.52,9.75,18-.08,3.77-6.75,7.55-13.5,12-21.5,6.55,9.06,12.14,16.72,17.65,24.45,3,4.24,6.37,7.76,13.88,6.1l14.42-32.31c5.72,9.23,9.74,22.21,19.26,28.4a9.3,9.3,0,0,0,4.21,1.7c3.81.28,5.17-4.25,7.53-8.58,1.13-2.09,15-22.38,15-22.37l21.92,32.16c13.77-5.26,12.72-21.95,24.69-28.28l20.56,29.86c5.61,1.6,9-1,11.56-5.4,4.76-7.93,9.52-15.86,14.45-23.69,1.75-2.77,4-5.23,6.33-8.28l19.51,34.4c9.32.16,12.32-5.18,15.37-10.5,3.58-6.26,6.71-12.88,13.34-18.86,2.75,6.69,4.74,11.94,7,17.05,2.4,5.37,3.17,11.78,9.64,15.59,14.49-4.9,17.38-21.21,28-30.35,8.92,7.95,9.65,21.14,19.48,28,15.15-4.19,13.67-22.38,26.46-29.31q8.06,13.2,15.87,26c8.71.54,8.78.47,12.73-6.44,4.69-8.18,9.44-16.33,14.93-25.8L1007.83,880c10.45,14.92,11.86,14.8,23-.16,4.73-6.36,8.89-13.41,16.82-18.71l13.68,29.56h10.89l29.55-35.14,18.1,31.58c8.35,3.7,12.37-1.81,16.61-6.59,5.79-6.52,10.87-13.81,19.92-18.17l24.84,28.7,5.53-.31,25.9-29.28c6.91,7.34,12.72,13.48,18.49,19.66,4.38,4.71,8.48,10,16.67,6.38l18-31.6,29.68,35.41c10.3.32,11-.1,14.62-7.79,3.34-7.22,5.13-15.32,12-21.94,6,7.79,11.77,15,17.29,22.27,7.48,9.92,11.51,9.9,18.15-.05,5.46-8.17,11.14-16.2,18-26.1,5.58,9.78,10.34,18,14.94,26.23,2.83,5.09,6.16,8.81,12.73,6.23l17.28-28.08c5.48,9.14,9.76,16.35,14.11,23.51,1.89,3.11,3.84,5.22,5.8,6.35V871.63C1431,863.06,1430.9,848.61,1419.47,841.5Z"/><path class="cls-2" d="M1419.74,83.37c-7,2.65-7.26,10.1-10.73,15.23s-6.83,10.4-11.08,16.89c-4.81-6.66-8.27-12-12.26-16.86-4.15-5.07-5.79-12.33-13.8-15.69-1.94,2.71-4,5.36-5.8,8.17-3.23,5-5.89,10.3-9,15.35-1.67,2.71-6.31,11.83-10.39,11.22-3.69-.55-7.76-10.57-9.53-13.53-3-5-6-10-8.84-15.07-2-3.54-3.73-7.22-8.55-6.57-4.66.64-6.12,4.37-6.91,8.41-.27,1.39-.12,2.93-.66,4.2-3.31,7.89-5.63,16.33-12.44,25-6-10.38-10.72-19-15.92-27.37-1.91-3.06-4.52-6.9-7.55-7.77-4.57-1.31-5.94,3.52-7.83,7-4,7.34-8.44,14.39-13.16,22.34-2.34-2.22-3.58-3-4.22-4.07-4.08-7-7.82-14.31-12.15-21.19-1.75-2.78-4.62-6.5-7.15-6.64-2.38-.12-5.22,3.71-7.39,6.2-1.34,1.53-1.69,3.89-2.72,5.75-3.36,6.09-6.16,12.66-13.32,17.45-5.23-9.26-10.11-17.82-14.9-26.42-2.2-3.93-4.52-7.44-10.47-5.25-8.16,10.66-12.36,25-25.92,34.1-6.16-8.28-12-15.79-17.41-23.55-2.91-4.14-3.52-11.21-10.63-9.9-6.11,1.13-5.38,7.43-7,12-2.72,7.84-4.31,16.63-14,21-8.92-9.25-17.84-18.19-24.06-29.6-1.52-2.79-4.47-6-7.29-6.6-4.65-1-6.25,3.66-7.93,7.18-.93,1.92-1.51,4-2.56,5.86-4.16,7.32-8.45,14.56-13,22.41-2.72-2.23-4.6-3.32-5.9-4.9-5.85-7.08-11.75-14.13-17.21-21.52-5.18-7-10.43-6.9-14.33.85-1,1.91-1.59,4-2.43,5.93-3.75,8.79-10.67,14.71-17.92,20.9-8.29-7.79-16.15-14.76-20-25.34-1.13-3.15-4.84-7.31-7.49-7.41s-6.54,3.69-8.23,6.71c-5.33,9.5-13,16.47-22.41,24.39L917.09,77.1c-7.33-.74-9.1,3.76-11.32,7.84-6,11.07-14.84,19.68-24.21,29.72-3.25-3.85-6.36-6.36-7.9-9.61-2.57-5.4-3.79-11.43-6.24-16.89-1.32-3-3.5-6.44-6.2-7.62-3.91-1.71-6.3,1.9-8,5.22a28.25,28.25,0,0,1-2,3.78c-5.75,8-11.56,15.9-17.67,24.26-14.13-9-17.82-24.38-28.08-35.89-13.17,7.51-14.43,23.27-23.88,32.8-11.92-6.63-11.29-22.77-22.9-30.31-11.27,8.62-10.88,24.66-23.91,32.93-4.23-7.23-8.6-14.36-12.61-21.7-1.88-3.43-2.86-7.72-7.86-7.39-4.61.29-6.48,3.82-7.67,7.78-3.06,10.16-9.91,17.76-17.47,26.58-5-9.26-9.63-17.49-11.35-27-1-5.33-2.71-9.58-10.43-10-6.7,10.55-13.75,21.66-21,33-12.53-10-11.81-26.73-21.91-36.36-2.08.48-3.61.37-4.06,1-8.92,12.71-17.72,25.5-27.21,39.26a62.2,62.2,0,0,1-17-25.72c-1.58-4.52-3-8.84-8.71-9.41-7,2.65-7.26,10.1-10.73,15.23S550,109,545.73,115.49c-4.81-6.66-8.27-12-12.26-16.86-4.15-5.07-5.79-12.33-13.8-15.69-1.94,2.71-4,5.36-5.8,8.17-4.8,7.41-8.43,15.64-13.92,22.48l-2.84,1.23c-5.19-8.71-10.37-17.14-15.24-25.74-2-3.54-3.73-7.22-8.55-6.57-4.66.64-6.12,4.37-6.91,8.41-.27,1.39-.13,2.93-.66,4.2-3.31,7.89-5.64,16.33-12.44,25-6-10.38-10.72-19-15.93-27.37-1.91-3.06-4.51-6.9-7.54-7.77-4.57-1.31-5.94,3.52-7.83,7-4,7.34-8.44,14.39-13.17,22.34-2.33-2.22-3.57-3-4.21-4.07-4.09-7-7.82-14.31-12.15-21.19-1.75-2.78-4.63-6.5-7.16-6.64-2.37-.12-5.21,3.71-7.38,6.2-1.34,1.53-1.69,3.89-2.72,5.75-3.36,6.09-6.16,12.66-13.33,17.45-5.22-9.26-10.1-17.82-14.9-26.42-2.19-3.93-4.51-7.44-10.46-5.25-8.16,10.66-12.36,25-25.92,34.1-6.16-8.28-12-15.79-17.41-23.55-2.91-4.14-3.52-11.21-10.63-9.9-6.11,1.13-5.38,7.43-7,12-2.73,7.84-4.32,16.63-14.05,21-8.91-9.25-17.83-18.19-24.05-29.6-1.52-2.79-4.47-6-7.29-6.6-4.65-1-6.25,3.66-7.94,7.18-.92,1.92-1.5,4-2.55,5.86-4.17,7.32-8.46,14.56-13,22.41-2.72-2.23-4.6-3.32-5.9-4.9-5.85-7.08-11.76-14.13-17.21-21.52-5.18-7-10.43-6.9-14.33.85-1,1.91-1.59,4-2.43,5.93-3.75,8.79-10.67,14.71-17.92,20.9-8.29-7.79-16.16-14.76-20-25.34-1.13-3.15-4.84-7.31-7.49-7.41s-6.54,3.69-8.23,6.71c-5.33,9.5-13,16.47-22.41,24.39L70.64,77.1c-7.34-.74-9.11,3.76-11.32,7.84-6,11.07-14.84,19.68-24.21,29.72-3.25-3.85-6.36-6.36-7.91-9.61-2.56-5.4-3.78-11.43-6.23-16.89-1.32-3-3.5-6.44-6.2-7.62-3.91-1.71-6.3,1.9-8,5.22a30.78,30.78,0,0,1-2,3.78c-1.44,2-2.89,4-4.34,6v17.52c3.36-4.84,7-9.51,12.39-12.36,4.59,10,9,19.54,13.44,29.25H37.21L66.79,94.79l18.13,31.72c7.73,3.27,11.77-1.38,16-5.91,6-6.45,12-12.8,19.15-20.39,9.09,10.49,17.13,19.75,26.17,30.17l5.53-.42,26-29.22c7.17,7.68,13.25,14.07,19.2,20.58,4.23,4.63,8.48,8.88,15.92,5.37l17.71-30.95c4,4.28,6.84,6.92,9.28,9.86,5.91,7.11,11.55,14.44,17.5,21.52,5.32,6.34,12.27,5.81,16.26-1.45,2.89-5.28,4.9-11,7.49-16.49,1.27-2.69,3-5.18,5.3-9.21,7.16,9.22,13.36,16.9,19.2,24.86,3.05,4.16,6.39,6.55,12.63,4.61L340.53,97c5.56,9.7,10.41,17.82,14.92,26.11,2.82,5.2,6.09,8.8,12.85,6.23l16.34-26.62c2.43,2.59,4.11,3.88,5.16,5.56,3.2,5.11,6.17,10.37,9.2,15.58,3.23,5.57,7,10,14.28,7.34,7.07-8,8.63-19.44,17.44-26.71,6,8.42,11.64,16.2,17.24,24,3.1,4.3,6.71,7.44,13.77,4.75,1.89-4.38,4.1-9.55,6.34-14.7,2.16-4.94,4.35-9.85,7.55-17.09,5.37,8.67,9.26,14.91,13.11,21.18,13.27,21.57,24.39-13.42,32.93-22l21.62,32c14.34-4.42,12.83-21.6,24.93-28l20.69,30c8.24-.79,8.26-.78,12.12-6.9,6.4-10.13,12.76-20.29,20.13-32,7.31,13.43,11.42,26.6,21.71,36.31,15-3.9,14.79-21.18,25.78-28.79,8.23,8.86,6.77,23.17,17.35,31.73,14.5-5.36,17.32-21.73,28.86-31.11L731,131.38c9,1,11.9-4,14.61-9.13,3.55-6.77,6.76-13.8,14.09-19.65L776,129.17c7,2.39,9.93-1.76,12.72-6.77,4.6-8.23,7.93-17.36,15.81-24.39L827,130.73c16.51-3.75,18.43-22.79,32.26-30,4.59,10,9,19.54,13.44,29.25h10.94l29.58-35.15,18.13,31.72c7.73,3.27,11.78-1.38,16-5.91,5.95-6.45,12-12.8,19.15-20.39,9.09,10.49,17.13,19.75,26.17,30.17l5.53-.42,26-29.22c7.17,7.68,13.25,14.07,19.2,20.58,4.23,4.63,8.48,8.88,15.92,5.37L1077,95.74c4,4.28,6.84,6.92,9.28,9.86,5.91,7.11,11.56,14.44,17.5,21.52,5.32,6.34,12.27,5.81,16.26-1.45,2.89-5.28,4.91-11,7.49-16.49,1.28-2.69,3-5.18,5.3-9.21,7.16,9.22,13.36,16.9,19.2,24.86,3,4.16,6.39,6.55,12.63,4.61L1187,97c5.57,9.7,10.41,17.82,14.92,26.11,2.83,5.2,6.09,8.8,12.85,6.23l16.34-26.62c2.43,2.59,4.11,3.88,5.16,5.56,3.2,5.11,6.17,10.37,9.2,15.58,3.23,5.57,7,10,14.28,7.34,7.07-8,8.63-19.44,17.44-26.71,6.06,8.42,11.64,16.2,17.24,24,3.11,4.3,6.71,7.44,13.77,4.75,1.89-4.38,4.1-9.55,6.35-14.7,2.15-4.94,4.34-9.85,7.54-17.09,5.37,8.67,9.26,14.92,13.11,21.18a36,36,0,0,0,7.27,8.88c6.49,5.41,13.41-4,16.83-9.26,4.74-7.28,8.38-15.39,14.58-21.63l21.62,32c14.34-4.42,12.83-21.6,24.93-28l20,29.07V113.35a61.35,61.35,0,0,1-12-20.57C1426.87,88.26,1425.5,83.94,1419.74,83.37Z"/><path class="cls-2" d="M1420.79,12.31c-8.41,2.83-8.29,10.43-11.73,15.53s-5.33,11.57-12.46,14.53c-4.91-8.72-9.65-17-14.28-25.4-2.14-3.88-4.2-7.65-10.26-6.12-9,10.37-12.48,25.78-26.89,34.4l-23.7-33.45c-8.28-1.48-9,4.61-10.53,10.18-2.36,8.82-4.63,17.76-14,23.26-9-9.51-18.09-17.94-23.84-29.23-2.12-4.16-4-8.63-11.24-7.33l-20,35.51c-2.59-2-4.2-2.88-5.29-4.19-6.09-7.34-12.3-14.6-18-22.25-5.26-7.1-10.39-7.08-14.34.69a48.28,48.28,0,0,0-2,5c-3.55,9.37-10.89,15.36-18.35,21.81-8.14-7.49-16-14-19.5-24.39-1.32-3.93-2.58-8.53-8.15-8.55-5.37,0-6.74,4.45-8.79,8.14-5.08,9.15-12.81,15.71-21.57,23.54L1105.11,7.31c-11.56,2.23-11.48,13.16-17.32,18.84-6,5.83-11.15,12.52-16.8,19-9.88-6.38-12.27-15.34-14.51-24.27-1.16-4.62-2-9.17-9.32-10.53l-25,34.54c-13.75-9.21-17.89-23.7-26.53-34.57-1.74,0-3.93-.56-4.38.08-7.18,10.32-14.14,20.78-21.14,31.21-12-6.59-11-23-24-30.77-7,11.65-13.5,22.58-21.27,35.57l-19.4-31.51c-7.22.36-9.07,4.53-10.61,9.08-3.25,9.64-9.72,17.1-17.58,26.4-4-10.14-8-18.73-10.72-27.69-1.46-4.71-2.41-8.88-9.27-10.45-10,8.46-12.43,23.48-23.7,33.14-2.17-3.2-4.45-5.84-5.92-8.87-3.41-7-6.26-14.32-9.66-21.35s-8.2-7.36-12.89-1.16c-1.49,2-2.55,4.28-3.89,6.38-6.11,9.54-12.25,19-19.08,29.66-8.22-8.14-14-16.45-17.29-26.35-1.4-4.15-2.71-8.16-7.94-9.23-7.83,1.48-7.66,9.33-11.06,14.34C742.14,34.17,738.56,39.62,735,45c-11.92-8.76-14.31-24-26.88-31.4L688.59,44.09c-1.81-.27-3.73-.46-4.42-1.49-4.79-7-9.22-14.33-13.35-21.76-2.14-3.83-3.69-7.82-11-7.75-7.71,9.93-7.06,25.38-17.45,36.61-5.92-8.51-13-15.46-16-25.16-1.6-5.09-3.72-9.29-11.37-8.89-6.59,8.67-8.91,21.44-18.24,28.08-12.54-7.47-11.4-24-22.42-31.42-8.41,2.83-8.29,10.43-11.73,15.53s-5.34,11.57-12.47,14.53c-4.9-8.72-9.64-17-14.27-25.4-2.14-3.88-4.2-7.65-10.27-6.12-9,10.37-12.47,25.78-26.88,34.4L475,11.8c-8.28-1.48-9,4.61-10.53,10.18-2.36,8.82-4.63,17.76-14,23.26-9-9.51-18.1-17.94-23.84-29.23-2.12-4.16-4-8.63-11.24-7.33l-20,35.51c-2.58-2-4.2-2.88-5.28-4.19-6.09-7.34-12.31-14.6-18-22.25-5.27-7.1-10.39-7.08-14.35.69a50.66,50.66,0,0,0-2,5c-3.54,9.37-10.88,15.36-18.34,21.81-8.14-7.49-16.05-14-19.5-24.39-1.32-3.93-2.59-8.53-8.15-8.55-5.37,0-6.74,4.45-8.79,8.14C296,29.56,288.23,36.12,279.47,44L258.66,7.31c-11.56,2.23-11.48,13.16-17.32,18.84-6,5.83-11.15,12.52-16.8,19-9.88-6.38-12.27-15.34-14.52-24.27-1.15-4.62-2-9.17-9.31-10.53l-25,34.54c-13.74-9.21-17.88-23.7-26.52-34.57-1.74,0-3.93-.56-4.38.08-7.18,10.32-14.14,20.78-21.14,31.21-12-6.59-11-23-24-30.77L78.36,46.39,59,14.88c-7.23.36-9.07,4.53-10.61,9.08-3.26,9.64-9.73,17.1-17.59,26.4-4-10.14-8-18.73-10.72-27.69-1.45-4.71-2.4-8.88-9.26-10.45C6.31,16,3.35,21.11.44,26.45V47.94c2.72-5,5.36-10.2,10.65-13.78,7.55,9.77,6.81,23.22,16.66,31.7C42.6,60.78,45.5,44.5,57.13,34.54c4.47,8.2,8.3,15.69,12.57,22.92,3.87,6.55,9.83,7,14.64,1,2-2.44,3.1-5.57,4.81-8.26,3.52-5.52,7.18-11,11.86-18.06l17,27.88c6.81,2.59,9.89-1.44,12.71-6.46,4.63-8.23,7.93-17.36,15.71-24.85l23.22,33.42c15.52-5.47,18.34-22.82,31.62-30.91,3.36,7.6,6.46,14.69,9.64,21.75,3.88,8.62,5.63,9.38,15.72,7.13,9.65-10.61,17-23.38,29.56-33.55L273.06,57c8.8,4.42,12.95-1.76,17.39-6.7,5.62-6.27,10.56-13.25,19.44-17.82l24.78,28.87c4.79,1.4,7.8-1.4,11.16-6,5.77-7.93,12.75-15,19.78-23,3.64,3.17,6.43,5.27,8.82,7.75,4.44,4.61,8.63,9.45,12.93,14.18,3.58,3.93,7.57,6.51,13.71,3.73,7.14-8.73,9.51-21.37,19.45-30.71,10,12.08,19.29,23.2,28.81,34.67l10.19-.52c4.76-9.74,9.49-19.43,15.15-31,7.26,9.4,13.4,17.07,19.2,25,3.22,4.4,6.61,7.47,12.91,5L529.19,28c5.63,9.88,10.46,18.1,15,26.46,2.87,5.25,6.31,8.59,12.57,5.94l17.32-28.07c5.27,8.77,9.51,15.63,13.55,22.61,2.41,4.15,5.08,8,10.39,8.08s6.62-4.67,8.66-8.27c3.63-6.38,7.11-12.84,11.47-20.75,6.79,9.45,12.31,17.21,17.9,24.9,3,4.15,6.39,7.71,12.57,6.24,8.06-8.4,7.43-21.68,16.36-31.36,4.54,7.3,8.63,13.48,12.29,19.9,1.74,3.07,4.79,11.46,8.89,11.26s9.62-11.63,11.59-15c3.76-6.34,6.88-13.22,12.65-18,7.15,10.52,14.26,21,21.52,31.68,14.21-4.75,12.79-21.85,25-28q10.17,14.91,20.3,29.73c4.91,1.69,8.35-.17,10.85-4.29,3-4.86,5.72-9.85,8.82-14.62,3.94-6.05,8.12-12,12.94-19,7.51,12.81,11,25.92,20.86,34.84,7.78.42,10.63-5.11,13.83-10.29,3.8-6.11,6.24-13.28,13-17.85,7.55,9.77,6.81,23.22,16.66,31.7C889.06,60.78,892,44.5,903.58,34.54c4.47,8.2,8.31,15.69,12.57,22.92,3.87,6.55,9.83,7,14.64,1,2-2.44,3.1-5.57,4.82-8.26,3.52-5.52,7.17-11,11.85-18.06l17,27.88c6.81,2.59,9.89-1.44,12.71-6.46,4.63-8.23,7.93-17.36,15.71-24.85l23.22,33.42c15.52-5.47,18.34-22.82,31.62-30.91,3.37,7.6,6.46,14.69,9.64,21.75,3.88,8.62,5.63,9.38,15.73,7.13,9.64-10.61,16.94-23.38,29.55-33.55L1119.51,57c8.8,4.42,13-1.76,17.39-6.7,5.62-6.27,10.56-13.25,19.44-17.82l24.78,28.87c4.79,1.4,7.8-1.4,11.16-6,5.77-7.93,12.75-15,19.78-23,3.64,3.17,6.43,5.27,8.83,7.75,4.43,4.61,8.62,9.45,12.92,14.18,3.58,3.93,7.57,6.51,13.71,3.73,7.14-8.73,9.51-21.37,19.46-30.71l28.81,34.67,10.18-.52c4.76-9.74,9.49-19.43,15.15-31,7.26,9.4,13.4,17.07,19.2,25,3.23,4.4,6.61,7.47,12.91,5L1375.64,28c5.63,9.88,10.46,18.1,15,26.46,2.87,5.25,6.32,8.59,12.57,5.94l17.33-28.07c5.27,8.77,9.5,15.63,13.54,22.61,1.7,2.93,3.54,5.67,6.33,7.09V41.75C1430.79,33.64,1430.92,19.15,1420.79,12.31Z"/><path class="cls-2" d="M1414.51,252.57c-1.89-2.4-3.29-4-4.49-5.75-5.25-7.59-10.23-15.37-15.76-22.74-1.69-2.26-5-4.92-7.26-4.66s-4.61,3.67-6.09,6.19c-1.2,2-.71,5-1.76,7.18-3.4,7.05-4.34,16-15,19.78-7.41-9.76-15.08-19.43-22.23-29.48-2.51-3.54-4.09-7.54-10.61-7.29-8.65,10-11,25.23-21.92,35.15-8.44-8-16.71-15.09-21.94-25.18-1.35-2.6-5.22-5.16-8.06-5.31-2-.11-4.39,3.74-6.42,6a8.5,8.5,0,0,0-1.17,3c-3.47,9.8-11,16.21-18.6,23-12.47-8.11-18.7-20.4-24.05-32-7.76-2.24-10.21,2.24-12.57,6.81-5,9.63-13,16.21-21.23,23.62-2.71-3.9-4.78-6.36-6.28-9.13-3.89-7.19-7.31-14.64-11.32-21.75-3.55-6.3-8.29-6.41-12.38-.63-1.23,1.73-1.82,3.92-3.11,5.58-7.13,9.19-14.39,18.28-22.55,28.6-3.64-4.11-6.84-6.52-8.41-9.73-2.62-5.37-4.38-11.19-6.18-16.92-1.2-3.82-2.09-8.57-6.74-8.27-2.75.18-5.39,3.61-7.86,5.83-1,.9-1.21,2.58-2,3.72-5.75,7.92-11.56,15.8-18.47,25.21-5.33-6.44-9.61-11.07-13.25-16.16-3.3-4.61-5.84-9.76-8.82-14.61-4.45-7.21-8.69-7.09-13.16.34-1.1,1.83-2,3.77-3.07,5.62-4,7-8.08,13.93-13.17,22.69-4.57-6.82-8.13-12-11.54-17.26-3.28-5.06-3-12.91-12.73-14.59-6.28,10.54-12.79,21.46-20.61,34.56l-19.4-31.78c-7.21.43-9.05,4.67-10.58,9.16-3.3,9.62-9.57,17.19-17.63,26.31-4-10.06-7.9-18.65-10.71-27.59-1.6-5.09-2.7-9.59-10.41-10.18L903.63,253.2c-11.68-10.56-12.34-26-21-36.46-2.27.44-4.32.22-4.9,1-8.92,12.71-17.66,25.56-26.92,39.07-8.54-7.27-13.64-16-17.19-25.78-1.63-4.46-2.88-8.92-10.52-9.24L804,253c-11.22-9.24-15-23.31-26.6-32.75l-19.85,31.17c-1.84-.22-3.82-.34-4.51-1.35-4.81-7-9-14.48-13.53-21.68-2-3.08-4.36-5.89-7.52-10.11-12.18,11-9.41,28.5-22,39.17-5.43-9.7-10.21-18.72-15.49-27.42-1.7-2.81-4.37-6.07-7.22-6.86-3.86-1.07-6.19,2.51-7.43,6.15a16.12,16.12,0,0,1-1.53,4c-4.3,6.22-6.37,14.19-13.09,18.1-11.73-8-11-24.17-22.88-32.24-11.14,8-10.44,24.16-22.56,30.26-9.48-9.84-10.81-25.06-23.68-32.93-10.32,11.63-14.1,27.32-28,36.07-1.89-2.4-3.29-4-4.49-5.75-5.25-7.59-10.23-15.37-15.76-22.74-1.69-2.26-5-4.92-7.26-4.66s-4.61,3.67-6.09,6.19c-1.2,2-.71,5-1.77,7.18-3.4,7.05-4.33,16-15,19.78-7.41-9.76-15.09-19.43-22.23-29.48-2.51-3.54-4.09-7.54-10.61-7.29-8.66,10-10.95,25.23-21.93,35.15-8.43-8-16.71-15.09-21.94-25.18-1.35-2.6-5.21-5.16-8.05-5.31-2-.11-4.39,3.74-6.42,6a8.5,8.5,0,0,0-1.17,3c-3.47,9.8-11,16.21-18.6,23-12.47-8.11-18.7-20.4-24-32-7.77-2.24-10.21,2.24-12.57,6.81-5,9.63-13,16.21-21.23,23.62-2.71-3.9-4.78-6.36-6.28-9.13-3.89-7.19-7.31-14.64-11.32-21.75-3.56-6.3-8.29-6.41-12.38-.63-1.23,1.73-1.82,3.92-3.11,5.58-7.14,9.19-14.39,18.28-22.55,28.6-3.64-4.11-6.84-6.52-8.41-9.73-2.62-5.37-4.38-11.19-6.18-16.92-1.2-3.82-2.09-8.57-6.74-8.27-2.75.18-5.39,3.61-7.86,5.83-1,.9-1.21,2.58-2,3.72-5.75,7.92-11.56,15.8-18.47,25.21-5.33-6.44-9.61-11.07-13.25-16.16-3.3-4.61-5.84-9.76-8.82-14.61-4.45-7.21-8.7-7.09-13.16.34-1.1,1.83-2,3.77-3.07,5.62-4,7-8.08,13.93-13.17,22.69-4.57-6.82-8.13-12-11.54-17.26-3.28-5.06-3-12.91-12.74-14.59L147.17,254l-19.4-31.78c-7.21.43-9,4.67-10.59,9.16-3.29,9.62-9.56,17.19-17.62,26.31-4-10.06-7.91-18.65-10.71-27.59-1.6-5.09-2.7-9.59-10.41-10.18L57.18,253.2c-11.68-10.56-12.34-26-21-36.46-2.27.44-4.32.22-4.9,1-8.93,12.71-17.66,25.56-26.92,39.07-1.4-1.19-2.69-2.42-3.91-3.68V273c5.65,1.46,8.66-1.91,11.33-6.35q7.69-12.81,15.76-25.39c1.2-1.87,3-3.32,4.83-5.23q10.29,18.12,19.18,33.8C60.81,270,64,264.71,67,259.4c3.6-6.25,6.51-13,12.56-18.16,7.9,10.12,7.19,23.56,17,32.11,14.74-5.29,17.75-21.47,29.32-31.29,4.33,7.84,8.14,14.94,12.14,21.94,4.46,7.8,10.34,8.23,15.7,1.07,1.9-2.53,3-5.62,4.76-8.32,3.33-5.21,6.82-10.32,11.28-17l17,27.74c7,2.69,10-1.5,12.76-6.49,4.59-8.25,9.37-16.39,14.93-26.05l22.39,32.77c8.56.05,8.52,0,12.95-5.75,6-7.77,12-15.5,19.05-24.6,5.69,11.73,10.44,21.51,15.06,31h10.34c11-11,17.72-24.36,30.49-33.92,2.55,4.12,4.68,7.29,6.54,10.62,2.76,5,5.16,10.16,8,15.09,4.28,7.38,9,8.08,15.41,2.27,2.35-2.13,4.16-4.85,6.4-7.13,5.15-5.24,10.41-10.36,16.62-16.51l25.61,29.92c4.7,1.39,7.88-1.22,11.27-5.85,5.8-7.92,12.7-15,19.66-23.11,3.65,3.13,6.46,5.21,8.87,7.68,4.7,4.85,9.23,9.85,13.71,14.9,3.78,4.25,8,5.6,13.21,2.79,7-9.14,9.48-21.26,19.18-30.46l28.91,34.67,9.43-.67c8-8.88,7.64-21.51,17-29.41,6.53,8.49,12.75,16.24,18.57,24.28,3.09,4.27,6.51,6.41,12.36,4.29L598,235.41c5.54,9.7,10.33,17.9,14.94,26.21,2.82,5.08,6,8.93,12.72,6.22l17.11-27.94c4.75,7.6,8.59,13.4,12.07,19.42,2.85,4.94,4.91,10.9,11.7,11.11s7.68-6.48,10.35-10.79c3.41-5.53,5.35-12.08,10.48-16.4,11,9.57,13.6,26.13,30.59,30.74l15-34.13c5.27,8.42,9.16,14.25,12.63,20.32,1.73,3.05,3.91,7,7,9.18,5,3.52,5.53,1,8.06-3.05,5.6-9.1,11.06-19.6,18.31-27.49l22,32.6c13.69-5.46,12.77-22.06,24.65-28.53l20.58,29.93c6.09,1.92,9.22-1.56,12-6.17q7.69-12.81,15.76-25.39c1.2-1.87,3-3.32,4.84-5.23L898,269.82c9.27.14,12.41-5.11,15.47-10.42,3.6-6.25,6.51-13,12.56-18.16,7.9,10.12,7.19,23.56,17,32.11,14.74-5.29,17.76-21.47,29.32-31.29,4.33,7.84,8.14,14.94,12.14,21.94,4.47,7.8,10.35,8.23,15.7,1.07,1.9-2.53,3-5.62,4.76-8.32,3.33-5.21,6.83-10.32,11.28-17l17,27.74c7,2.69,10-1.5,12.76-6.49,4.59-8.25,9.38-16.39,14.93-26.05l22.4,32.77c8.55.05,8.51,0,12.94-5.75,6-7.77,12-15.5,19.05-24.6,5.7,11.73,10.44,21.51,15.06,31h10.35c11-11,17.71-24.36,30.48-33.92,2.55,4.12,4.69,7.29,6.54,10.62,2.76,5,5.16,10.16,8,15.09,4.28,7.38,9,8.08,15.4,2.27,2.35-2.13,4.16-4.85,6.4-7.13,5.15-5.24,10.41-10.36,16.62-16.51l25.62,29.92c4.69,1.39,7.88-1.22,11.26-5.85,5.81-7.92,12.7-15,19.67-23.11,3.64,3.13,6.45,5.21,8.86,7.68,4.7,4.85,9.23,9.85,13.72,14.9,3.77,4.25,8,5.6,13.2,2.79,7-9.14,9.48-21.26,19.18-30.46l28.91,34.67,9.43-.67c8-8.88,7.64-21.51,17-29.41,6.53,8.49,12.75,16.24,18.58,24.28,3.09,4.27,6.5,6.41,12.35,4.29l18.37-26.62V219C1431.62,230.31,1427.44,244.44,1414.51,252.57Z"/><path class="cls-2" d="M1427.44,158.31c-1.75-2.78-4.33-6.28-7.1-6.9-4.57-1-6.3,3.51-7.86,7.19a45.86,45.86,0,0,1-3.15,6.77c-3.34,5.23-6.91,10.31-11.34,16.86-3.12-5.1-5.21-8.3-7.09-11.62q-4.74-8.36-9.26-16.83c-2.33-4.39-5.4-6.48-10.57-4-3.44,5.62-6.85,11.45-10.51,17.1-3.8,5.86-7,12.41-15.69,15.74L1320.59,149c-7.78,3.37-7.63,3.41-9.8,11.8s-4.62,17.08-14.16,22.58c-8.33-9.41-17.46-17.77-23.32-28.93-2.21-4.2-4.33-8.37-11.47-7.55-6.28,11.14-13,23-20.19,35.79-9.34-8.68-17.54-15.79-22.8-25.84-1.4-2.66-5.29-5.75-7.83-5.59s-5,4.05-7.18,6.54c-.89,1-1.07,2.6-1.6,3.93-3.66,9.27-11.28,15-18.15,22.05-8.13-8.09-16.31-14.46-19.59-24.91-1.27-4.06-2.89-8.51-8.21-8.6s-6.8,4.41-8.82,8.14c-5,9.23-12.76,15.77-21.38,23.37-4.09-6.82-7.5-13-11.37-18.8s-3.79-14-11.57-17.27c-9.55,2.4-9.49,12.71-15.13,18.27-6,5.89-11.21,12.53-17.73,19.93-3.54-4.24-6.67-6.77-8.16-10-2.61-5.76-3.89-12.12-6.4-17.94-1.13-2.62-3.66-6-6-6.37s-5.15,2.51-7.38,4.42c-1.25,1.07-1.53,3.2-2.56,4.63-5.74,8-11.58,15.83-18.17,24.8-4.22-4.25-7.6-6.86-10-10.2-4.3-6.08-8-12.55-11.91-18.94-5.14-8.51-9.32-8.5-14.25.14l-15.24,26.73c-2.71-3-4.93-4.86-6.29-7.18-3.58-6.13-6.62-12.58-10.21-18.7s-8.64-6.24-12.35-.35c-1.5,2.39-2.21,5.27-3.63,7.72-3.8,6.62-7.78,13.12-13.13,22.1-5.62-9.66-10-16.82-14-24.17-1.89-3.47-3.22-8.38-7.88-7-3,.91-6.28,4.55-7.45,7.71-3.69,9.93-10.3,17.61-18,27.52-4.13-10.41-8-19.06-10.92-28-1.37-4.22-1.82-8.74-6.87-9.63-6.06-1.07-7.22,4.16-9.52,8.16-4.71,8.17-9.87,16.08-15.56,25.24-7.61-9.08-11.47-18.11-15-27.34-1.62-4.28-2.59-9.12-10.16-9.9-10.37,11.57-16.44,27.46-27.75,40a60.37,60.37,0,0,1-16.94-26.09c-1.51-4.56-3.2-8.82-10.67-8.45l-19.45,31.81c-4.8-6.51-8.32-11.76-12.34-16.59-4.2-5.05-5.6-12.49-13.93-15.8-1.88,2.52-4,5.05-5.77,7.8-4.57,7.17-9.08,14.38-14.06,22.34-2.12-1-4.37-2-5.52-3.63-4.79-7-8.67-14.67-13.38-21.75-1.58-2.37-5-5.61-6.87-5.19-2.77.62-5.15,3.93-7.17,6.51-1,1.23-.43,3.53-1.09,5.14-3.29,8-6.76,16-10.16,24l-2.94.23c-5-8.38-10.44-16.57-14.92-25.24-2.38-4.6-3.83-9.24-11-8.71L596.1,185.62c-1.67-3.56-2.2-4.9-2.9-6.14-4-7.09-7.86-14.29-12.21-21.17-1.75-2.78-4.33-6.28-7.1-6.9-4.57-1-6.3,3.51-7.86,7.19a45.86,45.86,0,0,1-3.15,6.77c-3.34,5.23-6.91,10.31-11.34,16.86-3.12-5.1-5.21-8.3-7.09-11.62-3.16-5.57-6.27-11.17-9.27-16.83-2.32-4.39-5.4-6.48-10.57-4-3.44,5.62-6.84,11.45-10.5,17.1-3.8,5.86-7,12.41-15.69,15.74L474.14,149c-7.78,3.37-7.63,3.41-9.81,11.8s-4.62,17.08-14.15,22.58c-8.33-9.41-17.46-17.77-23.32-28.93-2.21-4.2-4.33-8.37-11.47-7.55-6.29,11.14-13,23-20.19,35.79-9.35-8.68-17.54-15.79-22.81-25.84-1.39-2.66-5.28-5.75-7.82-5.59s-5,4.05-7.18,6.54c-.89,1-1.08,2.6-1.6,3.93-3.67,9.27-11.28,15-18.16,22.05-8.12-8.09-16.31-14.46-19.58-24.91-1.27-4.06-2.89-8.51-8.21-8.6s-6.81,4.41-8.82,8.14c-5,9.23-12.76,15.77-21.38,23.37-4.09-6.82-7.5-13-11.37-18.8s-3.79-14-11.57-17.27c-9.55,2.4-9.49,12.71-15.14,18.27-6,5.89-11.21,12.53-17.72,19.93-3.54-4.24-6.67-6.77-8.16-10-2.61-5.76-3.89-12.12-6.4-17.94-1.14-2.62-3.66-6-6-6.37-2.18-.36-5.14,2.51-7.37,4.42-1.25,1.07-1.53,3.2-2.56,4.63-5.74,8-11.58,15.83-18.17,24.8-4.22-4.25-7.6-6.86-10-10.2-4.29-6.08-8-12.55-11.9-18.94-5.14-8.51-9.32-8.5-14.25.14l-15.24,26.73c-2.71-3-4.93-4.86-6.29-7.18-3.58-6.13-6.62-12.58-10.21-18.7s-8.64-6.24-12.35-.35c-1.5,2.39-2.22,5.27-3.63,7.72-3.8,6.62-7.78,13.12-13.14,22.1-5.61-9.66-10-16.82-14-24.17-1.89-3.47-3.22-8.38-7.88-7-3,.91-6.28,4.55-7.45,7.71-3.69,9.93-10.3,17.61-18,27.52-4.13-10.41-8-19.06-10.92-28-1.37-4.22-1.83-8.74-6.87-9.63-6.06-1.07-7.22,4.16-9.52,8.16-1,1.8-2.1,3.58-3.18,5.37v21.59C3.3,181,6.13,175.54,11.51,172.12c4.63,10.5,9.12,20.7,13.25,30,7.33,2.15,10.79-1.24,13.84-5.49l17.78-24.76,16.2,28c9.62.09,10.31-.33,14.44-7.3s8.26-13.72,13.67-22.67c6.61,10.75,11.92,19.37,17.28,28.1,5.7,2.09,9.45-.11,12.12-5.27,2.95-5.68,5.94-11.35,9.24-16.83,1.86-3.09,4.39-5.77,7.08-9.24L167.91,198c7.05,2.15,10.34-1.13,13.37-5.6a211.47,211.47,0,0,1,19.47-24.23c4.38,9.88,7.56,17.73,11.29,25.31,3.9,7.91,11.22,8.71,16.89,2,4.37-5.14,8.37-10.61,12.71-15.78,4-4.8,8.32-9.39,13.75-15.48,3.68,6.25,6.54,11,9.26,15.74,3,5.23,5.84,10.53,8.41,15.19,7.85,3.4,12.2-.56,16.31-5.42,5.88-7,11.33-14.45,20.63-19.28,8.16,9.65,16.14,19.07,24.62,29.08,4.36,1.35,7.4-.79,10.63-5.14,6.05-8.16,13.09-15.58,20.22-23.88,3.82,3.21,6.7,5.23,9.1,7.71,4.18,4.34,8,9,12.1,13.46s8.56,7.74,14.94,3.78c5.54-9.73,11.1-19.49,17.8-31.23L449,199.55c10.19.76,11.23.16,15-8.22,3.14-7,6.33-13.94,10.44-23,7.25,9.3,13.21,16.63,18.8,24.24,3.1,4.22,6.13,7.91,13.12,6.52l22.91-33c5.42,9.58,10,17.51,14.41,25.52,2.71,4.92,5.56,9.31,12.82,7.25l17.66-28.37c5.28,8.83,9.4,15.76,13.55,22.66,2.43,4,5,8,10.49,7.88s6.6-4.76,8.66-8.37c3.64-6.38,7.16-12.84,11-19.76,11.15,10.3,14.29,26.31,29.13,31.49,9.92-8.67,9.09-22.55,18-32.75,4.48,7.31,8.47,15.5,13.83,22.2a41.87,41.87,0,0,0,5.55,5.67,6.12,6.12,0,0,0,3.53,1.72c4,.22,5.74-6.6,8.19-10.43,4.55-7.09,8-15,14.12-21l21.68,31.79c14.13-4.53,13.06-21.38,24.94-28L779.2,206c15.92-9.55,18.06-28.63,31.2-39.64,6.91,11.65,10.3,25.26,21.14,34.77,15.07-3.67,14.45-21.39,26.42-29l13.25,30c7.33,2.15,10.79-1.24,13.84-5.49l17.78-24.76c6,10.39,11.23,19.42,16.2,28,9.63.09,10.31-.33,14.45-7.3s8.26-13.72,13.66-22.67c6.61,10.75,11.92,19.37,17.28,28.1,5.7,2.09,9.45-.11,12.13-5.27,2.94-5.68,5.93-11.35,9.23-16.83,1.86-3.09,4.39-5.77,7.09-9.24L1014.36,198c7,2.15,10.34-1.13,13.38-5.6a210.24,210.24,0,0,1,19.46-24.23c4.38,9.88,7.56,17.73,11.29,25.31,3.9,7.91,11.22,8.71,16.89,2,4.37-5.14,8.37-10.61,12.72-15.78,4-4.8,8.31-9.39,13.74-15.48,3.69,6.25,6.54,11,9.26,15.74,3,5.23,5.84,10.53,8.42,15.19,7.84,3.4,12.2-.56,16.3-5.42,5.88-7,11.33-14.45,20.63-19.28,8.16,9.65,16.15,19.07,24.62,29.08,4.36,1.35,7.4-.79,10.63-5.14,6-8.16,13.1-15.58,20.22-23.88,3.83,3.21,6.7,5.23,9.1,7.71,4.18,4.34,8,9,12.1,13.46s8.56,7.74,14.94,3.78c5.54-9.73,11.11-19.49,17.8-31.23l29.57,35.26c10.19.76,11.23.16,15-8.22,3.14-7,6.33-13.94,10.45-23,7.24,9.3,13.21,16.63,18.79,24.24,3.1,4.22,6.13,7.91,13.12,6.52l22.91-33c5.43,9.58,10,17.51,14.41,25.52,2.71,4.92,5.56,9.31,12.83,7.25l17.65-28.37c5.28,8.83,9.4,15.76,13.55,22.66,1.71,2.84,3.49,5.63,6.3,7V181c-.28-.6-.52-1.08-.79-1.55C1435.64,172.39,1431.8,165.19,1427.44,158.31Z"/><path class="cls-2" d="M11,821.21c2.43-3.93,4.6-8,7.07-11.93,4.29-6.78,8.72-13.46,13.71-21.13l19.58,34.56c9.36.58,12.42-4.75,15.57-10,3.71-6.19,6.68-13,12.64-18.19,8.23,10.11,7,24.29,17.58,32.14,14.39-5.91,17.31-21.64,28.81-31.32,4.3,7.79,8.1,14.88,12.11,21.86,4.39,7.64,10.65,8,15.86,1,1.68-2.26,2.6-5.06,4.12-7.45,3.5-5.51,7.15-10.91,11.81-18l17,27.9c7.16,2.69,10.06-1.7,12.86-6.6,4.68-8.19,7.69-17.51,15.86-24.31,7.72,11.11,15.1,21.75,22.82,32.85,15.91-5.1,18.43-22.79,31.88-30.57l9.21,21c3.93,9,5.16,9.61,15.46,8.15l29.29-35c4.55,8,8.06,14,11.38,20.07C345,823.61,348,823.86,360.9,809c5-5.76,9.64-12.16,18.12-15.55,7.94,9.22,15.75,18.31,24.16,28.09,7.15.58,6.84.33,11.07-5,6.34-7.94,13.17-15.49,20.75-24.33,7.29,7.8,13.31,14.23,19.32,20.67,4.19,4.47,8.26,9.27,15.82,5.46l18.16-31.6,29.44,35.26h10.75l15-31c7.2,9.32,13.14,16.73,18.76,24.37,3.12,4.24,6.21,7.9,13.27,5.84l21.88-31.87c3,4.24,5.58,7.47,7.68,11,3.08,5.18,5.83,10.58,8.68,15.9,2.48,4.62,5.95,7,11.76,5L643,793.1c5,8.29,9,14.51,12.69,20.91,2.71,4.72,5.2,9.78,11.53,9.73,5.85-.06,6.68-5.62,8.89-9.48,3.46-6,6.83-12.11,10.37-18.4,12,9.62,14.26,26.52,31,31.47,2.64-5.53,5.15-10.47,7.38-15.52,2.4-5.43,4.54-11,7.79-18.87,5,7.85,8.92,13.6,12.38,19.62,13.73,23.87,24.48-11,34-20.23l22.19,32.19c13.39-5.82,12.78-21.57,24.47-28.39l20.5,30c5.06,1.92,8.61-.55,11.28-4.89,2.43-3.93,4.6-8,7.07-11.93,4.29-6.78,8.73-13.46,13.71-21.13l19.58,34.56c9.36.58,12.42-4.75,15.57-10,3.71-6.19,6.68-13,12.64-18.19,8.23,10.11,7,24.29,17.58,32.14,14.39-5.91,17.31-21.64,28.81-31.32,4.3,7.79,8.1,14.88,12.11,21.86,4.39,7.64,10.65,8,15.86,1,1.68-2.26,2.6-5.06,4.12-7.45,3.5-5.51,7.15-10.91,11.81-18l17,27.9c7.16,2.69,10.06-1.7,12.87-6.6,4.67-8.19,7.69-17.51,15.85-24.31l22.82,32.85c15.91-5.1,18.43-22.79,31.88-30.57,3.28,7.47,6.24,14.25,9.21,21,3.93,9,5.16,9.61,15.46,8.15l29.29-35c4.55,8,8.07,14,11.38,20.07,9.4,17.25,12.44,17.5,25.34,2.65,5-5.76,9.64-12.16,18.12-15.55,7.94,9.22,15.75,18.31,24.16,28.09,7.15.58,6.84.33,11.07-5,6.34-7.94,13.17-15.49,20.75-24.33l19.33,20.67c4.18,4.47,8.25,9.27,15.81,5.46,5.6-9.73,11.36-19.76,18.16-31.6l29.44,35.26h10.75l15-31c7.2,9.32,13.14,16.73,18.76,24.37,3.12,4.24,6.21,7.9,13.27,5.84l18.51-27V771.9l-.26.1c-7.94,10.73-12.29,25-25.82,33.93-6.16-8.39-11.89-16-17.39-23.75-2.75-3.89-3.32-10.57-9.67-10-7,.66-6.15,7.51-7.85,12.37-2.74,7.86-4.44,16.56-14.34,21.26-7.88-9.61-17.35-17.68-23.08-29-2.11-4.15-4-8.63-11.26-7.46l-20.1,35.43c-2.72-2.13-4.32-3-5.39-4.29-6.07-7.35-12.26-14.63-17.93-22.29-5.2-7-10.47-6.88-14.36,1-1,1.9-1.51,4-2.37,6-3.84,8.69-10.64,14.67-17.51,20.4-12.48-8.19-18.35-20.4-23.73-31.67-7.59-2.62-10.27,1.55-12.64,6.23-4.92,9.73-13.13,16.32-21.62,24.29-3.34-5.26-6.21-9.27-8.54-13.57-3.22-5.94-5.76-12.25-9.1-18.11-3.21-5.62-8-5.71-11.85-.57-1.27,1.69-2,3.77-3.06,5.62-6.08,10.53-14.73,18.78-23.07,27.72-9.39-6.23-12.13-15-14.23-24-1.15-5-2.08-10-10.5-10.07-7.64,10.47-13.48,23.71-24.94,33.42-12.74-8.82-16.81-23.36-25.67-34.12-1.71.1-3.9-.36-4.38.34-7.09,10.36-14,20.89-20.86,31.34-11.91-6.77-11.06-23.05-24-31l-21.33,35.73-19.35-31.72c-7.19.53-8.46,5-10.69,9.18-4.61,8.62-10,16.85-16.3,27.35-5.31-11-10.34-19.11-12-28.63-1-5.35-2.56-9.63-10.37-10.22l-21.08,33.16c-12.35-10.22-11.76-26.86-23.57-38-12.46,12.39-18,28.73-29.48,41.17-1.38-1-3.24-1.72-4-3.06-4.67-7.91-8.89-16.08-13.69-23.9-1.7-2.78-4.47-6.6-6.94-6.74s-5.39,3.51-7.65,5.94c-1.38,1.49-1.67,3.92-2.78,5.73-3.77,6.17-7.68,12.26-12.39,19.73L778,772.41c-8.63,11.57-13.32,24-20.91,33.19-2,.13-3.57-.69-4.91-3.08-4.15-7.43-8.59-14.71-13.16-21.9-1.78-2.79-4.23-5.17-7.29-8.84-12.2,10.59-9,28.38-21.85,39-5.4-9.72-10.15-18.74-15.41-27.46-1.69-2.81-4.34-6-7.21-6.9-4-1.17-6.09,2.61-7.41,6.13a20.32,20.32,0,0,1-1.58,4c-4.15,6.36-6.58,14.06-13,18.15-11.75-8-11.44-23.93-23.12-32.41-10.73,8.48-10.73,24-23.06,31.07-5.14-9.12-10-17.74-14.87-26.42-2.22-4-4.6-7.4-10.54-4.89-7.94,10.73-12.29,25-25.82,33.93-6.17-8.39-11.89-16-17.39-23.75-2.76-3.89-3.32-10.57-9.67-10-7,.66-6.16,7.51-7.85,12.37-2.75,7.86-4.45,16.56-14.34,21.26-7.88-9.61-17.35-17.68-23.09-29-2.1-4.15-4-8.63-11.25-7.46l-20.1,35.43c-2.72-2.13-4.32-3-5.4-4.29-6.07-7.35-12.25-14.63-17.92-22.29-5.2-7-10.47-6.88-14.37,1-.94,1.9-1.5,4-2.36,6-3.84,8.69-10.65,14.67-17.51,20.4-12.48-8.19-18.35-20.4-23.73-31.67-7.59-2.62-10.28,1.55-12.64,6.23-4.92,9.73-13.13,16.32-21.62,24.29-3.34-5.26-6.21-9.27-8.54-13.57-3.22-5.94-5.76-12.25-9.1-18.11-3.21-5.62-8-5.71-11.85-.57-1.27,1.69-2,3.77-3.06,5.62-6.08,10.53-14.73,18.78-23.07,27.72-9.4-6.23-12.13-15-14.23-24-1.15-5-2.08-10-10.5-10.07-7.64,10.47-13.49,23.71-24.95,33.42-12.73-8.82-16.8-23.36-25.66-34.12-1.71.1-3.9-.36-4.38.34-7.1,10.36-14,20.89-20.86,31.34-11.91-6.77-11.06-23.05-24-31l-21.34,35.73c-7.51-12.33-13.62-22.35-19.34-31.72-7.19.53-8.46,5-10.69,9.18-4.61,8.62-10,16.85-16.3,27.35-5.32-11-10.34-19.11-12-28.63-1-5.35-2.56-9.63-10.37-10.22-6.68,10.51-13.74,21.62-21.09,33.16-12.34-10.22-11.75-26.86-23.57-38-12.46,12.39-18,28.73-29.47,41.17-1.27-.93-2.95-1.62-3.82-2.77v19.68C5.1,827.76,8.42,825.33,11,821.21Z"/></g></svg>