<svg xmlns="http://www.w3.org/2000/svg" viewBox="0 0 1440 900"><defs><style>.cls-1{fill:#c96;}.cls-2{fill:#303c78;}</style></defs><title>Wunderkind_Patterns_WEB-Cropped</title><g id="Backgrounds"><rect class="cls-1" width="1440" height="900"/></g><g id="Color"><path class="cls-2" d="M557.63,121.1a10.37,10.37,0,0,1-11.46-1.26c-3.5-3-4.46-8-6.28-12.28S534,99,529.5,100.09c-3.45.85-5.44,4.62-5.77,8.16-.62,6.56,2.89,12.78,6.79,18.11,10.33,14.11,26.21,30.45,41,39.87a5.2,5.2,0,0,0,3,1.11,5,5,0,0,0,2.72-1.32c5.43-4.29,9.52-10,13.54-15.64,1.74-2.44,3.52-5,4.1-7.93a29.55,29.55,0,0,0,.48-6.69c-.54-16.56-12.07-38.8-22.7-47.92-2.9-2.48-6.24-4.7-10-5.2s-8.05,1.13-9.64,4.6c-1.84,4,.43,8.74,3.15,12.25s6.07,6.92,6.7,11.31A10.36,10.36,0,0,1,557.63,121.1Z"/><path class="cls-2" d="M740.6,253.83c-3.37.28-6.38-2.13-7.65-4.93s-1.22-6-1.3-9A98.47,98.47,0,0,0,728,215.5c-.84-3-2.72-6.53-6.13-6.37-2.9.13-4.62,2.91-6,5.25-8.44,14.56-23.68,24.75-37.47,35.53-2.73,2.14-5.64,4.75-5.59,8,0,3.4,3.44,6,6.92,7.24s7.34,1.68,10.62,3.32c6.2,3.08,9,9.84,9.52,16.24.44,5.74-4.76,23.21,3.07,25.76,9.62,3.13,11.88-10.1,17-13.45,11.93-7.78,28.34,2.53,42.7-4.92,36.7-19.05,17.55-63.72,6.1-89.17-1.13-2.5-2.44-5.2-5.09-6.46-3.56-1.69-8,0-11.22,2.26-11.56,8.43-13,24.31-8.11,36.82,1.33,3.4,3.06,6.79,3,10.41S744.6,253.5,740.6,253.83Z"/><path class="cls-2" d="M141.48,689.38a51.51,51.51,0,0,0,8.07,7.27,30.07,30.07,0,0,0,22.24,4.7c.59-.1,1.18-.23,1.76-.38,21.15-5.31,30.44-32.16,32.85-51.3,3.4-27.15-20.13-11.66-37.05-11.45a55.93,55.93,0,0,1-7.36-.35c-9.35-1.13-19.11-4.12-28.6-5.51-4.7-.68-9.82-1.29-13.89,1.14-4.4,2.63-6.29,8.23-5.92,13.33C114.72,662.49,131.26,678.58,141.48,689.38Z"/><path class="cls-2" d="M119.08,602c10.45-13.88,21.52-48.89,10.12-65.17-10-14.31-22.07-8.29-33.41-1.73a74.85,74.85,0,0,1-7,3.55C74,545.26,59.7,546.21,43.73,552.1c-4.19,1.55-8.49,4.23-9.36,8.6s2,8.72,5.71,11.2,8.26,3.39,12.64,4.13c19.75,3.34,28.66,7.42,40.47,23C102.28,610.93,108.41,616.13,119.08,602Z"/><path class="cls-2" d="M418.84,475.47a13,13,0,0,0-2.38-7c-9.31-15.1-28.55-24.46-31.48-42-1.18-7.05-.13-15.93-6.22-19.68-5.29-3.25-12,0-18,1.62-7.74,2-14.52-2.24-21.6-1.18-7.74,1.16-8.26,8.81-9.61,14.86-.18.8-.38,1.56-.61,2.31-1.9,6.26-5.41,10.77-9.86,16.11s-9,12-8.21,19c.53,5,3.52,9.27,5.54,13.84a36.66,36.66,0,0,1,2.95,18.11c-.36,3.8-1.24,7.91.65,11.22,4.2,7.31,14.9,3.83,20.26.1,3.64-2.54,6.57-6,10.35-8.36,11.64-7.19,26.65-1.43,40.31-2.18a41.54,41.54,0,0,0,21.24-7.29C415.52,482.77,418.73,479.51,418.84,475.47Z"/><path class="cls-2" d="M362,509.16C356,512,351.1,517.28,346.39,521.9c-9.21,9-12.73,14.35-5.66,26.25A124.23,124.23,0,0,1,352.32,574c1.06,3.37,2,6.86,4.11,9.71s5.61,5,9.07,4.26a13,13,0,0,0,5.18-2.85,113,113,0,0,0,38-55.4c1.43-4.66,2.48-10,0-14.18C401,502.82,373.93,503.59,362,509.16Z"/><path class="cls-2" d="M335.66,376.08l7.94,7.66c16.63,16.05,34,3,47.67-10.75,7-7,12.29-16.16,12.69-26,.32-8.12-2.66-16-6-23.4-5.38-11.93-12.06-23.66-22.13-32-5-4.11-10.89-7.4-17.31-7.92-6.64-.54-13.15,1.89-19.21,4.65-13.46,6.14-27,15.38-31.26,29.56-3.25,10.86-.28,22.82,5.45,32.61S327.5,368.21,335.66,376.08Z"/><path class="cls-2" d="M540.42,448.53c5-12.14,12.52-25.14,15.34-38,4-18.48-4.67-8.88-15.46-12.92-3.7-1.38-5.28-5.63-7.87-8.61-7-8-16.06,3.14-19.63,8.46l-14.73,21.9c-7,10.34-14.25,22.37-11.25,34.47.84,3.36,2.6,6.68,5.58,8.44,5.25,3.12,13,.85,17.18,5.33,4.64,5,.41,12.84-3.11,18.67a76.38,76.38,0,0,0-9,22.38c-1.33,5.86-1.95,12.12,0,17.82s6.86,10.71,12.86,11.18c6.59.52,12.33-4.22,17-8.88,17.51-17.34,35.43-32.52,17.31-55.94-3.59-4.64-7-10-6.65-15.88A26.62,26.62,0,0,1,540.42,448.53Z"/><path class="cls-2" d="M631.54,480.77c-10.1-5.49-23-8-33.22-10.92a21.58,21.58,0,0,0-16.42,2c-7.41,4-9.85,10.68-6.37,18.28a103.75,103.75,0,0,0,29.16,37.32c7.56,6.19,13.15,6.34,20.8.26a176.27,176.27,0,0,0,15.09-13.43c7.89-7.93,8.07-18,.49-26.31A36.3,36.3,0,0,0,631.54,480.77Z"/><path class="cls-2" d="M658.52,369.7c-.39-4.61-1.42-9.83-5.62-11.92-5.93-2.95-14,2.38-20.11-.27-5.46-2.37-6.37-9.82-11.45-12.84-16.29-9.68-43,64.23-47.76,75.27-4.7,10.85-9,21.93-11.07,33.38-.39,2.21-.64,4.68.75,6.38s4,2.05,6.33,1.73c11.25-1.56,19.2-14.86,30.45-14.43,11.56.44,18,15.37,29.59,14.46,8.4-.65,13.75-9.22,16.91-16.83A161.31,161.31,0,0,0,658.52,369.7Z"/><path class="cls-2" d="M37.1,741.52A221.07,221.07,0,0,0,81,724.31c28.68-15,17.89-58.43,14.22-85-2.2-15.93-15.09-14.74-26.3-8-5.81,3.49-13,8.78-16.77,14.5-5.17,7.77-1.5,15-5.23,23.61-2.48,5.71-8.69,10.25-14.76,8.86-4.59-1-7.91-5-12.2-7A14.87,14.87,0,0,0,6,672.4a20.81,20.81,0,0,0-5.68,5.54v47.7a42.28,42.28,0,0,0,2.9,5.47C10.68,742.83,24.62,744.93,37.1,741.52Z"/><path class="cls-2" d="M938.83,189.85c-1.35-2.9-2.87-6-5.66-7.54-3.9-2.17-8.76-.59-12.81,1.28a102.67,102.67,0,0,0-14,7.86C899.54,196,892.9,202,891,210c-1.81,7.7,1.2,15.18,3.67,22.35,2.84,8.23,1.6,13.84,1.92,22.4.27,7.09.62,14.21,1.4,21.26.87,7.8,5.41,12.66,13.14,14.4a55.88,55.88,0,0,0,6.49,1.26c11.24,1.1,22.47,2.21,33.72,3.07a101.35,101.35,0,0,0,16.15.3c8.17-.69,12-6.6,10.11-14.54a29,29,0,0,0-1.53-4.52c-10.39-24.77-20.67-49.52-31.71-74Q941.64,195.91,938.83,189.85Z"/><path class="cls-2" d="M871,316c-2.45,10.75,7.83,16.21,12.76,24.15,5.07,8.17,7.76,17.58,10,26.87,3.34,14.21,14.15,17.22,28.17,12.84,15.85-4.95,25.41-11.8,36.67-23.43a14.29,14.29,0,0,0,3.42-6.62,9.43,9.43,0,0,0-.42-6,17.92,17.92,0,0,0-4.31-5.21c-16.56-15.57-36.3-36-60.82-34.54-6.91.41-14.17,1-20,4.83C873.93,310.62,871.69,313,871,316Z"/><path class="cls-2" d="M23.45,799.19c-.8-13.26-11.41-23.42-19.78-33.74-1.09-1.35-2.23-2.79-3.39-4.29v69a40.76,40.76,0,0,0,8.23-4C17.56,820.31,24.09,809.94,23.45,799.19Z"/><path class="cls-2" d="M1038.32,337.05c-1.32-9.38-7.56-18.62-11.31-27.17-3.87-8.81-16.67-33.13-22.93-10.61-1.36,4.92-2.07,10.66-6.24,13.61-5.53,3.9-13.6.36-19.77,3.13a4.57,4.57,0,0,0-2.22,1.81c-1,1.79.08,4,1.14,5.72q10.05,16.63,20.32,33.14C1013.25,382.3,1041.88,362.42,1038.32,337.05Z"/><path class="cls-2" d="M231.11,624c24.46,1.22,38.72-33.94,37-54-.49-5.86-2-11.76-5.29-16.62s-8.61-8.58-14.47-9c-3.64-.28-7.26.68-10.77,1.69-24.21,7-47.78,13.76-72.16,20.34Q159,568.16,152.57,570c-3.08.87-6.36,1.87-8.35,4.38-2.76,3.5-2,8.55-.77,12.85A103.76,103.76,0,0,0,149,602.27c3.43,7.47,8.25,15,15.85,18.11,7.32,3,15.18,1.24,22.65-.06,8.58-1.48,13.92.63,22.42,1.68C216.94,622.87,224,623.66,231.11,624Z"/><path class="cls-2" d="M472.22,684.84c-2.15,4.31-6.6,7.84-8,12.39-.89,3,.2,6.81,3.12,7.89,2.32.87,4.85-.2,7.19-1,11.93-4,25-.68,37,3.09,5.83,1.83,12.14,3.77,17.9,1.74,7.15-2.53,10.91-10.23,13.42-17.37,2.93-8.34,2.95-15,.07-23.2-2.48-7.11-3.31-16.21-7.89-22.28-2.26-3-5.84-5.2-9.58-5a24,24,0,0,0-6.15,1.78c-14.58,5.12-24.32,2.54-32.36-11.21-4-6.89-5.8-15.93-13.51-18-4.37-1.18-9,2.35-10.26,6.7s.11,9.06,2.29,13,5.13,7.46,7.39,11.38a37.77,37.77,0,0,1,4.66,23.77A53,53,0,0,1,472.22,684.84Z"/><path class="cls-2" d="M13.7,606.75C16.64,616,18,625.69,20.91,635c1.52,4.92,4.48,10.5,9.59,10.71,2.5.1,4.86-1.19,6.89-2.68C44.8,637.49,65,607.9,59.08,598.71c-2.66-4.13-11.45-5.5-16.07-5.93-5.87-.55-12.19-.15-17.17-3.28-9.34-5.86-6.67-17.52-12.58-25.17-3.43-4.44-8.1-5.34-13-4.44v24.78C6.89,590.21,11,598.4,13.7,606.75Z"/><path class="cls-2" d="M16,503.16c-4-4.69-9.78-4.73-15.75-2.59v43.84a112.39,112.39,0,0,0,18-6.27c5.13-2.3,10.63-5.68,11.7-11.2s-2.88-10.81-6.59-15.15Z"/><path class="cls-2" d="M384.5,637.91a31.94,31.94,0,0,0,10.7-8.13c4-4.68,6.51-11.84,2.95-16.86-3.86-5.44-12.1-4.89-18.41-2.73s-13,5.39-19.33,3.38c-9.06-2.87-16.43-7.28-16.91,6.28a39.47,39.47,0,0,1-11.2,26c-4.78,4.85-12.21,7.4-15.57,13.5-2.36,4.29-2.19,9.46-1.81,14.34a49.1,49.1,0,0,0,2.33,13.09,9.87,9.87,0,0,0,1.93,3.47c3.37,3.6,9.29,1.93,14.11,3,7.16,1.54,11.68,9.15,18.74,11.11,6.36,1.77,13.41-1.82,16.93-7.41s4-12.68,2.6-19.15c-1.95-9.34-10.19-18.82-5.44-28.66C369.32,642.51,377.84,641,384.5,637.91Z"/><path class="cls-2" d="M875.44,243.69a7.17,7.17,0,0,0-3.72,1.37,98.5,98.5,0,0,0-21.2,17.23,10.79,10.79,0,0,0-2.52,3.64c-1.14,3.26.82,6.75,2.91,9.51,5.89,7.79,21.54,25.76,30.85,14,6.46-8.18,1.69-30.1-.7-39.11C880.26,247.29,878.56,243.73,875.44,243.69Z"/><path class="cls-2" d="M392.8,63.65c-4.95-3.25-11.4-3.4-17.17-2.07s-11.15,4-16.7,6.06a85.2,85.2,0,0,1-44.34,4c-8.33-1.47-20-6-24.79,3.1-5.19,9.79-6.21,24.63-8.78,35.42-.71,3-1.41,6-.65,9,.85,3.34,3.44,5.94,6.14,8.08,19.4,15.37,50.32,13.47,67.69-4.16,3.69-3.75,6.79-8.06,10.39-11.9,6.72-7.18,15.07-12.59,23.31-17.94,3.4-2.21,6.88-4.5,9.18-7.83C401.75,78.63,399.69,68.17,392.8,63.65Z"/><path class="cls-2" d="M300.54,232.48c3,10.57,5.23,20.88,5.12,31.94-.05,4.5.47,10.3,4.79,11.52,2.79.78,5.59-1,8-2.51a85.26,85.26,0,0,1,38.83-12.82c7.15-.54,16-1.22,18.76-7.84,2.53-6.11-2.23-12.54-6.14-17.88-4.62-6.32-8.5-13.39-9.78-21.12-1.31-7.92.17-16,1.3-24s1.87-16.26-.8-23.83S351,151.81,343,152.07c-9.63.32-16.36,9.79-19.5,18.91-2.85,8.26-4.15,17.44-9.29,24.73-4.5,6.4-12.46,10.18-15.23,17.85C296.69,219.81,298.82,226.37,300.54,232.48Z"/><path class="cls-2" d="M272,365.14c-3,4.25-4.1,9.47-5.16,14.54q-1.9,9.15-3.83,18.3c-.86,4.14-1.73,8.43-.83,12.57C263.68,417.22,269.38,422,275,426c3.12,2.2,6.4,4.34,10.11,5.21,8,1.87,16.45-2.71,21.13-9.43s6.16-15.17,6.49-23.36c.35-8.75-.57-17.8-4.62-25.57C301.2,359.65,282.56,350.14,272,365.14Z"/><path class="cls-2" d="M499.56,164.9a221.28,221.28,0,0,0-24.38,40.34c-13.68,29.31,21.3,57.27,40.36,76.13,11.42,11.31,20.93,2.53,25.74-9.63,2.49-6.31,5-14.85,4.5-21.71-.62-9.31-7.95-12.87-10.19-21.93-1.5-6,.67-13.42,6.33-16,4.29-2,9.34-.8,13.93-1.87a14.89,14.89,0,0,0,10.46-9.35c6.79-19.2-17.41-42.49-33.48-48.32C519.75,147.81,507.4,154.61,499.56,164.9Z"/><path class="cls-2" d="M410.8,112c-31-12.9-34.48,55.47-33.56,72.09a10.93,10.93,0,0,0,1.1,5c1.51,2.62,4.92,3.64,7.9,3.18s5.63-2.1,8.14-3.79a152.29,152.29,0,0,0,28.9-25.33c3.73-4.21,7.33-8.88,8.35-14.41,1.17-6.35-1.26-12.8-4.18-18.57C423.67,122.61,418.54,115.18,410.8,112Z"/><path class="cls-2" d="M489.66,114c-2.94.28-5.59,1.85-8,3.48a137.78,137.78,0,0,0-29,26.34c-6.05,7.23-17.6,20.37-15.52,30.69.66,3.26,2.76,6,4.8,8.65l6.91,8.9c1.23,1.6,2.58,3.27,4.49,3.92,4.47,1.52,8.43-3.15,10.82-7.21,7-12,13.77-24.17,22.86-34.61,3.84-4.41,8.1-8.5,11.25-13.42s5.16-10.92,3.87-16.62S495.47,113.45,489.66,114Z"/><path class="cls-2" d="M177,491.45c-11.36,6.59-25.22,12.35-35.26,20.84-14.44,12.21-1.69,9.89,4.43,19.66,2.09,3.34.77,7.67,1,11.62.67,10.61,14.66,7.26,20.73,5.21l25-8.44c11.81-4,24.91-9.11,29.88-20.55,1.38-3.17,2-6.87.7-10.09-2.28-5.66-9.83-8.59-10.41-14.67-.64-6.79,7.48-10.45,13.82-12.94a76.15,76.15,0,0,0,20.76-12.29c4.63-3.84,8.92-8.44,10.86-14.13S259.61,443,255.13,439c-4.92-4.42-12.36-4.14-18.92-3.3-24.44,3.13-47.91,4.29-47.75,33.9,0,5.87-.51,12.23-4.36,16.65A26.73,26.73,0,0,1,177,491.45Z"/><path class="cls-2" d="M209.19,359.67c-3.61-.28-8.22,3.13-9.11,6-2.38,7.63-4.81,15.25-7.11,22.9-1.81,6-3.4,12.06-2.6,18.41.72,5.69,2.27,11.23,7.55,14.3,7.38,4.27,15.39,4.36,23,2.56,1.84-1,3.16-1.55,4.36-2.31,11-7,18.05-17.05,22.64-29,2.18-5.69,3.36-11.56,2.31-17.7C247.57,359.38,220.16,360.5,209.19,359.67Z"/><path class="cls-2" d="M278.43,253.24c-2-4-4.55-7.87-8.25-10.37-4-2.73-9-3.53-13.83-4.26-8.54-1.3-17.7-2.51-25.46,1.28-5.07,2.48-8.93,6.83-12.65,11.07-9.64,11-22.87,21.31-29.28,34.5-6.21,12.78-6.2,27.19-2.87,40.77C189,338,194.83,342.43,206.9,343c10.64.54,21.26,1.46,31.88,2.33,12.32,1,22.84,4.77,32.87-2.94,9.29-7.14,14.78-18.4,16.87-29.73,3.63-19.74.2-37.67-7.95-55.09Q279.55,255.42,278.43,253.24Z"/><path class="cls-2" d="M252.28,489.49c-3.51,2.92-7,6.1-8.92,10.25s-1.9,9.49,1.19,12.86c2.3,2.52,5.81,3.49,9.16,4.13a79.58,79.58,0,0,0,31.73-.39c3.52-.76,7.18-1.88,9.64-4.51,2.62-2.82,3.41-6.87,3.7-10.71.58-7.79-.32-31.3-10.13-34C279.8,464.77,258.67,484.18,252.28,489.49Z"/><path class="cls-2" d="M655.41,159c-2.42-1.47-5.36-1.76-8.19-2q-8.62-.69-17.27-1.11c-7.14-.35-14.59-.51-21.11,2.45-8.75,4-14.34,13.12-16.21,22.55s-.52,19.19,1.38,28.61c3.4,16.88,10.44,38,30.09,40.68,11.84,1.63,23.61-2.65,34.69-7.12,9.32-3.74,19.67-8.9,22.2-18.62,5-19.36-10.87-42.45-19.74-58.28C659.73,163.43,658.07,160.6,655.41,159Z"/><path class="cls-2" d="M489.22,604.86c5,7.17,11.27,13.8,19.21,17.51,13.46,6.29,34.05,2.52,33.28-15.79-.21-5.17-2.49-10-4.73-14.68q-4.05-8.43-8.08-16.86c-1.83-3.81-3.75-7.75-7-10.48-5.21-4.42-12.67-4.78-19.49-4.52-3.82.14-7.72.44-11.21,2-7.47,3.36-11.41,12.15-11,20.33S484.5,598.17,489.22,604.86Z"/><path class="cls-2" d="M466.53,535.65c8.48-3.47,13.47-31.73,15.31-39.83,1-4.45,1.85-9.1.86-13.55s-4.26-8.7-8.76-9.5c-3.36-.6-6.73.76-9.78,2.29a79.38,79.38,0,0,0-25,19.59c-2.33,2.75-4.56,5.85-4.91,9.44-.37,3.83,1.46,7.53,3.57,10.75C442.12,521.39,457.12,539.5,466.53,535.65Z"/><path class="cls-2" d="M457.32,327.31a55.92,55.92,0,0,1,6.05-4.19c8.12-4.79,17.68-8.35,26.07-13,4.14-2.3,8.58-4.94,10.34-9.34,1.89-4.76,0-10.35-3.41-14.18-10.42-11.75-33.34-14.47-48-16.84a52,52,0,0,0-10.84-.87A30.08,30.08,0,0,0,417,278.66c-.4.44-.79.9-1.16,1.36-13.58,17.08-4.64,44.05,5.09,60.71C434.73,364.36,444,337.76,457.32,327.31Z"/><path class="cls-2" d="M578.42,364.52c1-2.48,2.16-4.82,3.36-7,7.72-14.27,18.54-23.74,27.64-38.12,2.39-3.77,4.17-8.52,2.21-12.52s-6.86-5.73-11.35-5.42-8.61,2.33-12.55,4.4c-17.71,9.35-27.26,11.53-46.09,6.37-14.48-4-22.5-4.37-22.37,13.36.13,17.37,12.62,51.9,31.57,57.9C567.49,388.73,573.4,376.63,578.42,364.52Z"/><path class="cls-2" d="M434.6,451.46c5.58,1.86,12,1.58,17-1.62,3.06-2,5.35-4.95,7.52-7.89,15-20.24,29.59-40,44.95-60q4.06-5.29,8.07-10.64c1.92-2.56,3.92-5.35,4-8.55.06-4.46-3.63-8-7.2-10.67a102.25,102.25,0,0,0-13.54-8.61c-7.26-3.86-15.65-6.89-23.59-4.76-7.64,2.06-12.81,8.25-18,13.82-5.9,6.39-11.43,7.95-18.82,12.28-6.13,3.6-12.23,7.27-18.08,11.3-20.17,13.9-10.12,50.49,3.39,65.36C424.25,445.83,429,449.61,434.6,451.46Z"/><path class="cls-2" d="M754.89,423.33c10.39,2.81,20.78-6,27.69-12.59,10.76-10.24,15.73-19.42,9.73-33.81q-13.42-32.12-28.9-63.32c-1.18-2.4-2.47-4.89-4.67-6.4-4.49-3.1-10.6-.92-15.45,1.58-13.54,7-27.42,18.45-27.3,33.68,0,4.37,1.27,8.64,2.57,12.81A305.54,305.54,0,0,0,734,394.66C738.42,404,743.64,420.29,754.89,423.33Z"/><path class="cls-2" d="M681.8,506.84c2.82-.07,5.4-1.57,7.76-3.12,8.35-5.49,15.21-12.39,23.92-17.39,7.42-4.25,15.26-10,17.09-18.87,3.4-16.55-3.63-31.83-9.31-46.89-6-15.84-11.7-31.79-15.86-48.21q-.75-2.94-1.42-5.91c-1.31-5.72-3-13.48-7-17.95-4.44-5-9.73-4-14.6-.26-5.43,4.13-4.2,22.82-4.56,28.84q-.75,12.84-.73,25.73c0,16.2.3,31.94,1.4,48.17.49,7.35,0,12.67-3.25,18.85-.22.41-.45.83-.69,1.25-3.46,6.05-10.69,10.87-12,18C661,497.65,674.15,507,681.8,506.84Z"/><path class="cls-2" d="M568.9,291.68c4.62,1.65,12.44-2.6,16.37-5.07,5-3.13,9.77-7.28,15.63-7.82,11-1,15.94,9.85,25.28,12.34,11.5,3.07,17.77-9.95,21.06-19.77a5.07,5.07,0,0,0,.35-2.81c-.44-1.78-2.49-2.58-4.29-2.81-5.45-.72-10.89,1.09-16.38,1.36-9.62.47-18.91-3.84-26.86-9.39s-15-12.4-22.87-18c-4.19-3-9.94-5.61-14.13-2.66-2,1.43-3.13,3.88-3.83,6.31C556.67,252.2,558.59,288,568.9,291.68Z"/><path class="cls-2" d="M683.65,307.76c1.14-8.76-1-18.44-7.72-24.22a9.74,9.74,0,0,0-6.3-2.75c-2.83,0-5.27,1.93-7.39,3.82A112,112,0,0,0,638.09,315c-2.67,4.94-5,11-2.48,16s8.86,6.83,14.44,8l11.11,2.37C676,344.56,682.2,318.9,683.65,307.76Z"/><path class="cls-2" d="M933.57,400.61c-1.55,1.32-3.22,2.85-3.37,4.88-.13,1.78,1,3.4,2.14,4.75,5.83,6.73,14.33,10.4,22.53,13.86a10.94,10.94,0,0,0,5.24,1.25,10,10,0,0,0,3.36-1.13c16.63-8,36.07-33.61,23.72-53.05C976.23,353.93,943.16,392.49,933.57,400.61Z"/><path class="cls-2" d="M1382.46,452.26c4.24-7.28.24-16.56-4.22-23.49a161.39,161.39,0,0,0-54.78-52.51c-4-2.3-8.89-4.43-13-2.16-5.8,3.19-6,12.88-11.67,16.38-5,3.14-11.7-.35-17.07,2.1-17.24,7.88,28.33,71.91,34.68,82.12,6.25,10,12.9,19.9,21.15,28.1,1.59,1.58,3.48,3.19,5.67,3s4-2.13,5-4.22c5.13-10.14-1.28-24.24,5.48-33.25C1360.66,459.1,1376.59,462.32,1382.46,452.26Z"/><path class="cls-2" d="M1191.19,578.56c-.06,24.5,35.74,37.07,55.66,34.42,5.83-.77,11.65-2.55,16.35-6.08s8.16-9,8.33-14.88c.11-3.65-1-7.22-2.2-10.68-8.1-23.85-16-47.07-23.74-71.11-1.36-4.24-2.74-8.46-4.15-12.69-1-3-2.17-6.27-4.77-8.13-3.63-2.59-8.64-1.57-12.87-.16a104.27,104.27,0,0,0-14.79,6.23c-7.3,3.78-14.57,8.95-17.34,16.69-2.66,7.45-.52,15.23,1.13,22.63,1.89,8.49,0,13.93-.61,22.47C1191.66,564.35,1191.2,571.46,1191.19,578.56Z"/><path class="cls-2" d="M1258.07,36.38a192.79,192.79,0,0,0-50.23,19.73c-17.76,10,1.74,20.93,10.58,28q15.22,12.14,30.68,24c3.78,2.9,8.1,6,12.84,5.4,3.92-.46,7.09-3.32,9.85-6.14,12.36-12.65,32.44-33.94,25.44-52.66-1.65-4.41-5.52-7.54-9.23-10.44-5.12-4-10.55-8.16-17-9.12C1266.7,34.5,1262.31,35.37,1258.07,36.38Z"/><path class="cls-2" d="M182.63,88.57c2,2.25,4.76,3.7,7.09,5.62,8.43,7,10.3,18.94,11.51,29.8.62,5.56,1,10,6.41,12.24,14.74,6.05,32.52-10.86,41.31-20.36A104,104,0,0,0,273.6,70.54c1.59-6.44,2.54-13.35.33-19.61-7.05-20-34-7.67-46.86-1.72-5.93,2.74-11.7,6-18,7.65s-13.43,1.69-19-1.77c-1.75-1.09-3.32-2.51-5.24-3.25s-4.42-.6-5.67,1c-1,1.29-.91,3.07-.79,4.69C179.08,66.92,175.83,81,182.63,88.57Z"/><path class="cls-2" d="M1157,163.73a16.13,16.13,0,0,0-.62,7.75c.74,3.34,3.22,6,6,8.07,6.73,5,15.22,6.94,23.52,8.21,9.69,1.47,21.82,3.79,31.59,2.27,9-1.41,18.66-8.87,26.07-14.14,7.24-5.15,14.57-11.85,15.45-20.7.62-6.23-2.21-12.41-6.3-17.15s-9.38-8.27-14.6-11.73q-15.43-10.29-30.89-20.56c-6-4-12.07-8-18.77-10.72-5.07-2-10.86-3.28-16-1.32-13.58,5.21-5.14,35.58-7.59,47.1C1163.11,148.71,1159.11,155.94,1157,163.73Z"/><path class="cls-2" d="M1273.61,439.17a75.85,75.85,0,0,1-3.88-6.77c-7.34-14.48-9-28.75-15.61-44.42-1.74-4.12-4.63-8.28-9-9s-8.61,2.38-10.92,6.24-3,8.41-3.52,12.82c-2.4,19.89-6,29-21,41.52-11.5,9.65-16.41,16-1.75,26,14.36,9.78,49.85,19.17,65.58,7C1287.28,461.94,1280.7,450.19,1273.61,439.17Z"/><path class="cls-2" d="M1258,251.14a31,31,0,0,0,9.4-5c15.44-11.11,27.46-26.26,38.66-41.63,5.08-7,10.28-14.95,9.11-23.49-5-36.52-57.11,6.37-68.84,14.23-4.12,2.77-8.29,5.58-11.53,9.34-3.6,4.2-5.86,9.38-7.84,14.55a192.91,192.91,0,0,0-7,22.3c-.5,2-.87,4.37.54,5.87a6.28,6.28,0,0,0,3.93,1.46l19,2.47C1248.32,251.86,1253.33,252.48,1258,251.14Z"/><path class="cls-2" d="M1346.67,337c-5.45-2.18-12.79-5.21-18.72-4.5-6.67.79-8.8,5.74-8.52,11.86.3,6.81,16.36,16.44,21.11,20.16q10.13,7.94,20.73,15.26c13.33,9.21,26.43,17.93,40.4,26.27,6.32,3.77,10.41,7.22,13.65,13.4.22.41.43.84.64,1.28,3,6.29,2.84,15,8,20.15,3.64,3.68,10.5,3.22,16.35.89V368.54c-11.21-8.81-25.61-11.48-39.28-14.9-16.42-4.11-32.8-8.47-48.67-14.4Q1349.5,338.17,1346.67,337Z"/><path class="cls-2" d="M1361.12,311.4c-1.91,2.64-4,5.83-2.92,8.9,1,2.71,4.15,4,7,4s5.61-1.17,8.4-1.85c15.74-3.87,31.23,5.65,45.55,13.22,3.29,1.74,7.28,3.41,10.58,1.69,4-2.08,4.27-8,2-11.88s-6.31-6.31-9.78-9.18c-11.58-9.59-17.63-27-10.64-40.31,1.86-3.56,4.53-6.67,6.23-10.31s2.3-8.21,0-11.5c-3.31-4.73-10.48-4.36-15.89-2.35s-10.82,5.18-16.53,4.35c-6.42-.95-13.34-11.74-19.66-7.07-7.6,5.61,1.47,15.52,4.27,20.8,3.5,6.59,3.65,14.59,1.67,21.78S1365.48,305.35,1361.12,311.4Z"/><path class="cls-2" d="M1203.49,274.49c-8.32,3.11-19.26,4.73-28.07,5-4.91.17-10.47-1-14.35,2.87-3.44,3.45-3.38,9-3.1,13.81q1,16.91,2,33.8c.4,6.85,1.42,14.79,7.3,18.33,6.86,4.13,15.5-.44,22.08-5,7.91-5.49,16.09-11.57,19.8-20.44,2.31-5.51,2.77-11.86,6.3-16.68,2.85-3.89,7.3-6.21,11.24-9,4.77-3.35,9.1-7.77,10.81-13.34s.15-12.43-4.76-15.58C1223.5,262.41,1212,271.3,1203.49,274.49Z"/><path class="cls-2" d="M1086.74,543.23c0-6.38-6.52-12.31-12.35-13.86-10.92-2.9-21.49,8.43-32.66,6.67-5.76-.91-10.48-5.25-13.47-10.26s-4.56-10.7-6.47-16.21a32.79,32.79,0,0,0-1.58-3.85c-.2-.52-.39-1.05-.61-1.57-1.35-3.22-3.64-6.75-7.13-6.85-3.65-.1-6.11,3.56-7.82,6.78q-15.84,29.87-28.67,61.2c-.69,1.68-1.38,3.52-.88,5.26.87,3.06,7.28,3.74,9.77,3.27,5.83-1.11,11.73-3.78,17.48-2.3,4,1,7.2,3.92,10.47,6.45,5.74,4.45,12.52,10.13,19.8,13.71,4.62,2.28,9.44,3.72,14.32,3.47,16-.8,10.6-18.38,15.15-29.12a23.72,23.72,0,0,1,10.13-11.1C1078.26,551.72,1086.69,552.12,1086.74,543.23Z"/><path class="cls-2" d="M1195.62,834.48c6.7-4.35,15.64-6.55,17.36-14.35,1-4.42-2.78-8.88-7.18-9.93s-9,.54-12.91,2.9-7.2,5.49-11,7.93a37.77,37.77,0,0,1-23.53,5.78,52.75,52.75,0,0,1-16.46-4.52c-4.41-1.94-8.14-6.22-12.75-7.35-3-.75-6.8.52-7.74,3.49-.75,2.36.43,4.83,1.33,7.14,4.55,11.72,1.86,24.9-1.34,37.06-1.55,5.91-3.19,12.31-.88,18,2.86,7,10.73,10.41,18,12.58,8.46,2.53,15.08,2.23,23.17-1,7-2.82,16-4.08,21.88-8.94,2.88-2.4,4.92-6.08,4.49-9.81a24,24,0,0,0-2.07-6.06C1180.16,853,1182.27,843.16,1195.62,834.48Z"/><path class="cls-2" d="M1330.28,732a41.57,41.57,0,0,0,8.29,20.87c2.46,3.21,5.88,6.26,9.92,6.17a12.93,12.93,0,0,0,6.82-2.71c14.64-10,23.09-29.68,40.42-33.43,7-1.52,15.91-.89,19.36-7.15,3-5.45-.61-12-2.47-17.87-2.4-7.64,1.55-14.61.15-21.64-1.53-7.68-9.19-7.82-15.3-8.89-.8-.14-1.58-.31-2.33-.5-6.35-1.6-11-4.89-16.57-9.08s-12.38-8.38-19.4-7.3c-4.94.76-9.09,4-13.56,6.19a36.71,36.71,0,0,1-17.95,3.81c-3.81-.18-8-.87-11.17,1.19-7.11,4.54-3.13,15.06.85,20.23,2.71,3.52,6.34,6.28,8.85,10C1333.92,703.11,1328.88,718.37,1330.28,732Z"/><path class="cls-2" d="M1108.16,679.76a11.78,11.78,0,0,0-1.44-6.78c-4.27-6.67-20.41-5.08-25,.3-2.38,2.79-3.55,6.4-4.67,9.89-5.83,18.24-13.09,36.1-18.18,54.53-.58,2.09-1.12,4.33-.45,6.39.85,2.65,3.42,4.3,5.82,5.72,4.13,2.46,8.33,5,13,6.16s9.9,1,13.88-1.72c5.16-3.5,7-10.19,7.65-16.4a131,131,0,0,0,.37-14.15c-.08-7.82-1.31-16.18,1.5-23.52C1103.36,693.05,1108.16,688.19,1108.16,679.76Z"/><path class="cls-2" d="M969.36,225.75c4.18,8,9.94,15.12,15.74,22.07,3,3.67,6.42,7.5,11.12,8.7,24.25,6.15,49.73-15.75,51.94-38.2,1.14-11.57,7.43-28.22,5-39.19-2.9-13.32-22.44-24.53-33.52-30.58-9.25-5.06-20.29-8.93-30.6-5.46-9.15,3.09-15.72,11.37-20,20C959.43,182.91,959.51,206.81,969.36,225.75Z"/><path class="cls-2" d="M903.72,829.87c-1.17,2.07-2.4,4.33-2.11,6.69a7.42,7.42,0,0,0,4,5.33,19.64,19.64,0,0,0,6.63,1.87c17,2.46,33,7.39,46,19.28,5.28,4.81,11,9,16.15,13.89,3.58,3.42,13.05,11.37,18.31,7.21,2.21-1.74,3.1-4.65,3.62-7.41,1.47-7.85,1-16.27.76-24.21-.58-19.13-5.72-31.09-24.7-35.34-9.52-2.13-20.53-9.41-28-15.55-6.45-5.31-12.32-11.82-20.24-14.5s-18.73.66-20.18,8.89,5.32,16,3.85,24C907.21,823.56,905.47,826.76,903.72,829.87Z"/><path class="cls-2" d="M528.65,882.67c-.81-5.81-1.11-12.18,2.13-17.08a26.79,26.79,0,0,1,6.32-6.11c10.39-8,23.37-15.57,32.2-25.31,12.71-14,.37-10-7-18.9-2.52-3-1.78-7.51-2.54-11.39-2.07-10.43-15.5-5.26-21.24-2.43l-23.67,11.67c-11.19,5.52-23.49,12.32-26.91,24.32-.95,3.33-1.07,7.08.64,10.09,3,5.31,10.88,7.22,12.26,13.17,1.53,6.64-6,11.34-12,14.65a76.42,76.42,0,0,0-19,14.92,41.27,41.27,0,0,0-7,9.88h64.21C529,895.57,529.65,889.88,528.65,882.67Z"/><path class="cls-2" d="M1406.07,527.56c-5.65,1-11.11,2.79-13.92,8.22-3.92,7.57-3.63,15.58-1.46,23,1,1.8,1.69,3.08,2.5,4.24,7.49,10.65,17.89,17.22,30,21.24,5.55,1.83,11.22,2.71,17,1.6V533.32c-5.23-1.37-10.45-2.74-15.69-4.05C1418.51,527.75,1412.38,526.45,1406.07,527.56Z"/><path class="cls-2" d="M947.53,691.39c1.61-5.24,2.35-11.11,0-16-6.35-13.09-35.89-2.1-47.57-3.57-8-1-15.57-4.38-23.51-5.87a16.12,16.12,0,0,0-7.78,0c-3.26,1-5.73,3.73-7.53,6.63-4.42,7.13-5.62,15.76-6.18,24.13-.65,9.78-1.93,22.07.42,31.66,2.16,8.85,10.41,17.85,16.29,24.78s13,13.52,21.94,13.65c6.26.09,12.18-3.26,16.55-7.74s7.44-10,10.46-15.54L938.44,711C941.91,704.67,945.41,698.29,947.53,691.39Z"/><path class="cls-2" d="M396,878.15c-.15-3.81.18-8-2.14-11-5.12-6.7-15.27-1.84-20.09,2.57-3.27,3-5.72,6.84-9.16,9.66-10.59,8.66-26.22,4.93-39.66,7.48a41.49,41.49,0,0,0-20.09,10,22.44,22.44,0,0,0-3,3.29H404.25c-1-1.47-2.05-2.93-3-4.44A36.65,36.65,0,0,1,396,878.15Z"/><path class="cls-2" d="M1440.24,868.38l0,0V857a36.6,36.6,0,0,0-9.43-7.83q-11.28-6.84-22.57-13.67c-10.67-6.46-23-13.17-35-9.6-3.32,1-6.54,2.91-8.17,6-2.86,5.39-.23,13.06-4.5,17.42-4.77,4.87-12.81,1-18.8-2.22a76.23,76.23,0,0,0-22.78-8c-5.92-1-12.2-1.37-17.81.81s-10.37,7.37-10.55,13.38c-.2,6.61,4.81,12.12,9.68,16.59,18.15,16.67,34.17,33.85,56.7,14.64,4.47-3.81,9.67-7.49,15.54-7.4a27,27,0,0,1,8.56,2c12.36,4.44,25.7,11.32,38.66,13.52,18.65,3.17,8.65-5.08,12.17-16.06C1433.21,872.89,1437.38,871.11,1440.24,868.38Z"/><path class="cls-2" d="M266.29,179.43c-5-3.91-7.11-10.42-9.06-16.48s-4.39-12.53-9.75-16c-10.25-6.58-22.29,1.27-29.58,8.64-8.9,9-.86,16.14,6.26,23.25a36.66,36.66,0,0,1,10,32c-.32,1.73-.76,3.54-.17,5.2,1,2.67,4.26,3.77,7.1,3.51s5.49-1.49,8.3-1.91c5.34-.81,10.64,1.31,16,2.19s11.81,0,14.4-4.8c1.49-2.74,1.29-6.1,2.41-9,2-5.16,7.54-7.87,11.23-12s5.48-9.62,7.14-14.92c2.64-8.43,5.1-18.21.2-25.55-4-6-11.63-8.23-18.76-9-2-.21-4.15-.32-6,.59-3.56,1.79-4.27,6.79-2.84,10.51s4.35,6.62,6.65,9.86,4.06,7.42,2.69,11.16C280.28,182.72,271.31,183.35,266.29,179.43Z"/><path class="cls-2" d="M2.52,852.44c-.75,0-1.5.12-2.24.21v47.5h36.4c-1.06-11.57-4.83-23.42-8.71-32.27C23.12,856.79,14.88,851.77,2.52,852.44Z"/><path class="cls-2" d="M52.91,810.61c2.77,2.34,6.88,1.49,10.48,1.09,13.1-1.47,26,4.86,36.12,13.27s18.34,18.93,27.89,28c6.14,5.84,13.72,11.39,22.19,10.87A9.56,9.56,0,0,0,155.1,862c2-1.63,2.85-4.3,3.22-6.86,1.89-12.84-5.52-25-12.61-35.88C139,809,131.06,797.84,119,795.39c-6.24-1.28-13.26-.09-18.55-3.64-6.64-4.46-7.11-13.78-9.66-21.36-3.43-10.17-12.12-18.6-22.59-21-9.51-2.14-25.56,1.39-28.54,12.28C36.15,774.71,52.17,780,53,791.28,53.52,798,47.74,806.26,52.91,810.61Z"/><path class="cls-2" d="M578.69,808.39c10,12.21,23.28,4.75,33.17-2.87a75.57,75.57,0,0,1,6.42-4.44c13.8-8.54,27.89-11.37,42.93-19.32,4-2.09,7.86-5.31,8.15-9.77.94-14.5-19-11.68-27.49-12-10.28-.36-16.07-6.58-19.3-16.67-2.17-6.79-3.09-15.46-9.68-18.15-7.53-3.07-15.95,4.73-23.78,2.54-5.82-1.63-8.7-7.92-12.24-12.8s-10.87-8.87-15.24-4.7c-4.07,3.89-1.38,10.66,1.51,15.49L573,742.1c5,8.39,10.23,17.46,9.6,27.22C581.71,782.28,569,796.61,578.69,808.39Z"/><path class="cls-2" d="M300.15,7.47c.35,5,3.19,9.39,5.05,14a36.71,36.71,0,0,1,2.3,18.2c-.49,3.78-1.52,7.86.26,11.23,3.93,7.47,14.75,4.37,20.23.83,3.74-2.41,6.79-5.8,10.65-8C350.53,37,365.33,43.28,379,43a41.54,41.54,0,0,0,21.48-6.53c3.41-2.19,6.73-5.34,7-9.37a13,13,0,0,0-2.13-7c-4.21-7.4-10.76-13.57-16.69-19.93H301.37A16.77,16.77,0,0,0,300.15,7.47Z"/><path class="cls-2" d="M845.47,523.47c-.6-2.28-1.47-4.83-3.63-5.81-1.56-.71-3.38-.37-5.06,0-13.73,3-26.34,9.45-39.86,13.12-8.95,2.44-25.13,6.05-17.74,20.23a23.73,23.73,0,0,0,5.28,6.13c2.92,2.68,6.07,5.58,9.43,8.29,9.59,7.75,20.88,14,33.17,9.28,3.33-1.28,6.08-3.68,8.63-6.17a44.46,44.46,0,0,0,8.87-11.3C849.8,547,848.37,534.62,845.47,523.47Z"/><path class="cls-2" d="M1001.58,54.75c3.61-1,7.45-.31,11.19.06s7.86.24,10.78-2.13c14.19-11.5-6.51-32-16-37.19-14-7.62-31.86-10.42-47.31-5.85-16.49,4.87-11.73,16-5.75,28.8,4,8.55,3.32,19.23,4.54,29.05.73,5.92,2.15,11.52,5.69,16.15,9.45,12.37,26.76,10,30.2-5.54C996.52,70.92,992.59,57.33,1001.58,54.75Z"/><path class="cls-2" d="M701.1,45c-3.4-.81-7,.11-10.19,1.5-13.87,6-22.45,19.83-34,29.61-7.46,6.32-16.23,11-23.61,17.4s-13.49,15.44-12.95,25.2c.7,12.49,12.48,22.21,24.8,24.36s24.89-1.63,36.49-6.32a204.25,204.25,0,0,0,30.62-15.36c10.16-6.25,20.29-12.67,17.8-25.19C727.48,83.19,719,69,713,57.26,710.27,52,706.81,46.39,701.1,45Z"/><path class="cls-2" d="M599.31,85.25c12.88,12.75,23.6,2.85,29-10.86,2.81-7.12,5.59-16.75,5.08-24.48-.7-10.5-9-14.52-11.5-24.73-1.69-6.82.76-15.13,7.15-18,4.83-2.21,10.53-.91,15.7-2.11a16.6,16.6,0,0,0,8.3-4.87H553.48C539,32.93,578,64.14,599.31,85.25Z"/><path class="cls-2" d="M476.17,7.91c.71,3.39,2.36,6.76,5.27,8.63,5.14,3.3,13,1.32,17,5.94,4.45,5.15-.05,12.84-3.77,18.55a75.85,75.85,0,0,0-9.81,22c-1.55,5.82-2.38,12-.67,17.81s6.48,11,12.46,11.63c6.57.75,12.47-3.79,17.33-8.27,18.12-16.71,36.57-31.25,19.29-55.3-3.43-4.76-6.67-10.26-6.09-16.1a27,27,0,0,1,2.75-8.35c.65-1.44,1.34-2.88,2.06-4.34H475.83A24.18,24.18,0,0,0,476.17,7.91Z"/><path class="cls-2" d="M1380.18,112.55a29.11,29.11,0,0,0-2.5,4.06c-12.42,23.82-24.89,47.55-36.65,71.67-4.08,8.38-12.45,20.41-5.71,29.63,5,6.86,18.37,9.16,26,10.83,22.3,4.84,45.48,2.9,68,.92,3.61-.32,7.89-1.08,9.39-4.39.84-1.84.53-4,.09-6-2.58-11.83-8.81-23.67-5.86-35.42,1.45-5.8,5.09-11.27,7.3-16.8V152c-1.75-3.28-4.56-6.06-7.27-8.68C1424,134.57,1393.56,94.61,1380.18,112.55Z"/><path class="cls-2" d="M1396.78,644c6.94,4.35,15.44,5.43,23.63,5.37a57.52,57.52,0,0,0,19.87-3.24V603.25c-1.12-.2-2.23-.39-3.34-.56l-18.46-3c-4.17-.67-8.5-1.33-12.59-.23-6.6,1.77-11.14,7.69-14.81,13.45-2.06,3.22-4,6.6-4.73,10.35C1384.86,631.36,1389.84,639.61,1396.78,644Z"/><path class="cls-2" d="M1440.28,675.25l-3.74,4.26c-11.82,13.48-6.13,26.55,3.74,37.82Z"/><path class="cls-2" d="M1375.22,513.06a103.66,103.66,0,0,0,47.29-2.74c9.39-2.68,12.7-7.2,12-16.94a175.75,175.75,0,0,0-2.45-20.06c-2-11-10.25-16.91-21.35-15.38a36.15,36.15,0,0,0-11.35,3.74c-10.26,5.18-19.68,14.35-27.89,21.09a21.63,21.63,0,0,0-7.7,14.64C1362.88,505.77,1367,511.59,1375.22,513.06Z"/><path class="cls-2" d="M1341.88,255.18c-4.43-7.8-10-15.49-18.15-19.29-23.31-10.89-27.93,22.34-41.65,32.12-6.3,4.51-14.79,5.15-21,9.84-5.23,4-8,10.31-10.63,16.36-1.13,2.63-2.28,5.38-2.19,8.24.14,4.14,2.8,7.68,4.77,11.32,3.78,7,5.19,15,6.6,22.76s2.9,15.78,6.82,22.67,10.78,12.64,18.71,13.08,16.22-5.95,16-13.88c-.1-3.36-1.6-6.5-2.63-9.71-5.75-17.92,1.22-33.21,19.47-37.54,8.1-1.92,16.86-2.94,23.33-8.17,6.76-5.46,9.62-14.72,9-23.39S1346.17,262.74,1341.88,255.18Z"/><path class="cls-2" d="M1143.5,212.56c-2.48,4.22-5.35,8.21-7.9,12.39-2.15,3.55-4.52,7.06-6,10.88a11.91,11.91,0,0,0,5.18,15,43.51,43.51,0,0,0,11.47,4.72c5.7,1.39,11.6,1.93,17.4,2.94a34.92,34.92,0,0,0,26.45-6.3c10.88-8.29,16.86-18.59,18.06-29.62,1.14-10.52-2.69-15.5-13.09-16.84-2.8-.37-5.64-.36-8.43-.75-3-.42-6-1.16-9-1.68-4.8-.84-9.58-2-14.42-2.31C1154.18,200.43,1147.94,205,1143.5,212.56Z"/><path class="cls-2" d="M795.67,703.64c2.9,3.66,7,6.67,11.68,7,4.15.28,8.19-1.59,11.5-4.1,11-8.33,15-22.84,17.39-36.42A293.3,293.3,0,0,0,840.33,633c.46-9.82.21-20.36-5.39-28.43-8.7-12.55-26.83-8.46-37.53-.79-3.72,2.67-6.67,6.83-6.7,11.41,0,3,1.15,5.8,2,8.66,3.77,13.13.05,27.05-2.37,40.49S787.2,692.92,795.67,703.64Z"/><path class="cls-2" d="M1377.18,62.13c-7.7-2.13-16.12-2.39-24.06-2.82-19.11-1-31.47,3.06-37.31,21.62-2.93,9.31-11.12,19.65-17.86,26.55-5.84,6-12.82,11.28-16.17,18.93s-.93,18.72,7.14,20.87,16.41-3.95,24.28-1.8c3.44.93,6.48,2.94,9.43,5,2,1.34,4.11,2.75,6.49,2.67a7.43,7.43,0,0,0,5.65-3.54,19.52,19.52,0,0,0,2.42-6.44c3.9-16.73,10.16-32.21,23.12-44.21,5.24-4.86,9.89-10.23,15.21-14.92,3.71-3.27,12.43-12,8.73-17.63C1382.71,64,1379.89,62.87,1377.18,62.13Z"/><path class="cls-2" d="M1425.16,113a76.73,76.73,0,0,0,15.12,5.06V51.57a51.29,51.29,0,0,0-12.9,9.76C1415.63,73.55,1406,103.56,1425.16,113Z"/><path class="cls-2" d="M1435.11,273.81c-1.77,3-1.94,6.71-1.55,10.18.77,6.92,3.46,13.25,6.72,19.43V269.1A12.63,12.63,0,0,0,1435.11,273.81Z"/><path class="cls-2" d="M423.24,192c-6.63-1.85-23.37,15.12-28.39,20-22,21.24,16,32.93,30.43,36,5.34,1.16,33.9,10.15,37.79,4.17,5.11-7.83-21.91-38.84-25.91-44.77-3-4.47-6.06-9-9.92-12.75A9.75,9.75,0,0,0,423.24,192Z"/><path class="cls-2" d="M809.06,880.89c-6.24-7.09-15.34,2.78-20.37,6-6.26,4.05-14.22,4.87-21.55,3.52s-14.15-4.72-20.55-8.55c-2.79-1.68-6.15-3.5-9.12-2.15-2.61,1.19-3.66,4.47-3.35,7.33s1.64,5.48,2.56,8.2a30.59,30.59,0,0,1,1.2,4.89h65.93C805,893.87,814,886.51,809.06,880.89Z"/><path class="cls-2" d="M783.12,799.45c-5-5.91-6.38-14.31-11.58-20.06-4.42-4.87-11-7.13-17.2-9.2-2.72-.91-5.55-1.82-8.4-1.48-4.11.48-7.42,3.43-10.87,5.71-6.63,4.35-14.46,6.44-22.12,8.5s-15.48,4.23-22,8.73-11.68,11.81-11.45,19.74,7.3,15.66,15.18,14.75c3.35-.39,6.35-2.15,9.46-3.44,17.37-7.25,33.2-1.61,39.06,16.21,2.6,7.9,4.35,16.55,10.11,22.56,6,6.27,15.49,8.33,24.08,7s16.43-5.61,23.6-10.53c7.4-5.08,14.59-11.3,17.68-19.73C827.53,814.07,794,812.28,783.12,799.45Z"/><path class="cls-2" d="M678.77,849.85c2-4.18,3.66-9.23,1.05-13.13-3.67-5.51-13.34-4.91-17.31-10.24-3.55-4.77-.64-11.69-3.54-16.83-9.32-16.51-69.24,34.33-78.88,41.53-9.47,7.07-18.73,14.53-26.2,23.45-1.44,1.72-2.89,3.74-2.53,5.91s2.46,3.76,4.63,4.64c10.53,4.25,24-3.33,33.59,2.64,4.38,2.74,6.44,7.48,8.31,12.33H641.5A160.33,160.33,0,0,0,678.77,849.85Z"/><path class="cls-2" d="M1208.29,405.53c4-2.86,5-11.71,5.16-16.34.27-5.89-.43-12.18,2.46-17.31,5.41-9.6,17.18-7.49,24.55-13.76,9.06-7.7,1.93-20.26-4.27-28.57a5.24,5.24,0,0,0-2.11-1.89c-1.72-.65-3.54.59-4.76,1.93-3.69,4.08-5.3,9.58-8.2,14.25-5.09,8.17-13.93,13.36-23,16.73s-18.7,5.24-27.82,8.54c-4.84,1.76-10.27,5-10.24,10.1,0,2.5,1.41,4.8,3,6.75C1168.87,393.1,1199.39,411.9,1208.29,405.53Z"/><path class="cls-2" d="M872.62,825.07c36-8.1-11.19-56.37-20-67.38-3.11-3.87-6.26-7.79-10.29-10.7-4.49-3.23-9.84-5-15.16-6.58a193.19,193.19,0,0,0-22.81-5.11c-2-.33-4.44-.5-5.81,1a6.35,6.35,0,0,0-1.12,4l-.84,19.16c-.22,4.89-.41,9.93,1.32,14.51a30.66,30.66,0,0,0,5.8,9c12.37,14.44,28.49,25.13,44.75,35C855.81,822.45,864.21,827,872.62,825.07Z"/><path class="cls-2" d="M998.24,646.4a23.59,23.59,0,0,0,5.67-7.74c3-7.19.68-15.58-3.16-22.38a56.22,56.22,0,0,0-35.1-26.56c-15.27-3.88-18.78,6.56-26.2,17.8-4.84,7.33-14.07,10-21.73,14.33-7.3,4.1-16.67,5.35-22.38,11.92a8.13,8.13,0,0,0-2.35,5c-.09,4.62,5.66,6.75,10.25,7.25a104.22,104.22,0,0,0,21.41.11,55.8,55.8,0,0,1,9.65-.54c8.31.62,15.47,5.77,23,9.27C970.58,661,987.86,656.28,998.24,646.4Z"/><path class="cls-2" d="M1176.18,416.89c-3.77-5.64-9.39-12.54-15.29-16.07-8-4.79-15.1-.79-23.83-4.1-5.82-2.21-10.65-8.19-9.55-14.32.83-4.64,4.65-8.14,6.39-12.52a14.88,14.88,0,0,0-1.74-13.92c-11.91-16.51-44.84-9.87-58.78,0-11.34,8.06-12.79,22.08-8.78,34.39a220.23,220.23,0,0,0,19.28,43c16.31,27.94,59.21,15.1,85.56,10.17C1185.25,440.58,1183.44,427.76,1176.18,416.89Z"/><path class="cls-2" d="M1111.58,524.72c6.31,20.88,33.57,28.89,52.81,30.38,27.28,2.11,10.69-20.66,9.68-37.55a54.92,54.92,0,0,1,0-7.37c.68-9.4,3.2-19.28,4.14-28.83.46-4.72.82-9.87-1.8-13.83-2.83-4.26-8.52-5.88-13.6-5.27-15.58,1.88-30.87,19.17-41.17,29.89a51.72,51.72,0,0,0-6.88,8.4,30.11,30.11,0,0,0-3.64,22.45C1111.25,523.57,1111.41,524.15,1111.58,524.72Z"/><path class="cls-2" d="M217.21,884.74c.55-6,.33-12.27-2.32-17.67s-8.22-9.71-14.23-9.38c-6.6.35-11.66,5.81-15.71,11-8.34,10.8-16.89,21-19.29,31.42h48.49A76.21,76.21,0,0,0,217.21,884.74Z"/><path class="cls-2" d="M1115.6,470.06c-3.53-8.65-44.41-4.1-51.56-4.19-5.39-.06-10.83-.12-16.12.9a9.86,9.86,0,0,0-4.47,1.78c-5.3,4.39-.88,27.82.25,34.7,4.94,30.19,36.2,5.56,47-4.49C1094.65,495,1118.3,476.67,1115.6,470.06Z"/><path class="cls-2" d="M710.18,843.13c-6.76.88-15,17.7-18.3,22.75q-7.05,10.75-13.44,22-3.54,6.18-7,12.32h40.82c1.65-8.29,3.53-16.52,5.8-24.66.55-2,1.11-3.89,1.71-5.84,1.71-5.61,4.1-13.18,2.9-19C721.36,844.05,716.25,842.34,710.18,843.13Z"/><path class="cls-2" d="M146.8,50.57c-5.06-.49-10.14.22-15.22.34-9.35.22-19.65-2.15-25.14-9.73C101.64,34.56,93.73,9.6,82,24.38c-9.82,12.35,7,24.43,12.73,33.83a30.33,30.33,0,0,1,4.17,19.33c-.44,3.51-1.49,7-1.27,10.51s2.18,7.31,5.62,8.16c4.55,1.13,8.47-3.16,12.85-4.83,5.44-2.08,11.47,0,17.29.33a29.19,29.19,0,0,0,27.39-16.28c2.77-5.85,3.28-13.28-.63-18.43C157.06,53,151.86,51.06,146.8,50.57Z"/><path class="cls-2" d="M45.58,169.18c-4.49,6.58-8.56,13.73-9.6,21.61a9,9,0,0,0,.3,4.57c2.22,5.54,10.57,3.64,16,6.07,7.52,3.35,8.87,15,16.72,17.49,5.15,1.63,10.57-1.6,16-1.57,7.09.05,13.21,5.67,20.3,5.81,7.82.14,14.69-7.53,14.14-15.33-.9-12.59-16.19-18.76-21.81-30.05-5-10.07-1.59-21.42-1-32,.4-7.48.35-17.72-9.5-16.92C70.23,130.24,54,156.92,45.58,169.18Z"/><path class="cls-2" d="M129,893.91a18.07,18.07,0,0,0-3.12-6C113,869.18,98,845,73.75,841.3c-6.85-1.06-14.07-2-20.53.51-2.85,1.1-5.55,3-6.84,5.76-4.66,10,4.23,17.5,7.37,26.3,3,8.4,3.77,17.41,4,26.28H128c.05-.11.11-.21.16-.32A9.42,9.42,0,0,0,129,893.91Z"/><path class="cls-2" d="M424.06,3.68c5.51,2.05,12,2,17-1a19.39,19.39,0,0,0,3.27-2.5h-26.8A28.3,28.3,0,0,0,424.06,3.68Z"/><path class="cls-2" d="M197.81,16.24c-1.2,8.67-2.61,19.27,9.48,21.43,4.25.76,8.36-1.58,12.23-3.49,10-4.93,21-7.4,31.93-9.83a11,11,0,0,0,8.67-9c.64-4.49-.31-9-1.51-13.42-.17-.6-.34-1.19-.52-1.79h-61.7A36.7,36.7,0,0,1,197.81,16.24Z"/><path class="cls-2" d="M164.06,104.08c-5.62-.37-10.38,3.75-14.71,7.34s-9.91,7.08-15.24,5.28c-3-1-5.15-3.45-7.82-5-10.08-6-9.43,7.85-9.94,14a224.24,224.24,0,0,0-.44,30.56A48.74,48.74,0,0,0,118,169.38c2.42,7.08,7.62,12.82,12.69,18.33a14,14,0,0,0,5,4c2.61,1,5.57.33,8.15-.76,9.29-3.94,15.38-12.85,20.52-21.53q6.84-11.56,12.68-23.68c2.61-5.42,5.13-11.21,4.71-17.21-.29-4.07-1.91-7.91-3.68-11.58C175.16,111,170.7,104.51,164.06,104.08Z"/><path class="cls-2" d="M.52,74.12l-.24,0v64.34a8,8,0,0,0,4.25-1.16c7.72-4.95,7.55-33.64,7.9-41.94.2-4.56.19-9.28-1.59-13.49S5.08,74.1.52,74.12Z"/><path class="cls-2" d="M675.05,9.33c-1.88,2-4,3.92-5.27,6.36s-1.7,5.59-.14,7.87c1.94,2.84,6.08,3.22,9.38,2.26s6.26-2.92,9.58-3.83c6.08-1.69,13,.22,18.61-2.71,5.92-3.1,8.16-10.78,7.1-17.39-.09-.58-.21-1.16-.34-1.74H681.43A39,39,0,0,1,675.05,9.33Z"/><path class="cls-2" d="M18.49,217.28a44.67,44.67,0,0,0-13.91,3.59,28.42,28.42,0,0,0-4.3,2.54v38.87c10,3.29,20.25,5.86,29.77,10.11,7.41,3.32,19.6,13.64,24.22.78,3.78-10.54,3.59-20.36.19-29.17-3.16-8.2-9.09-15.52-17.15-21.71a25.93,25.93,0,0,0-8.22-4.66C25.67,216.62,22,216.85,18.49,217.28Z"/><path class="cls-2" d="M9.21,150a36,36,0,0,0-8.93-2.41v55.25A88.59,88.59,0,0,0,10.52,194c5.13-5.22,9.71-11.28,11.6-18.35s.63-15.3-4.58-20.43A26.5,26.5,0,0,0,9.21,150Z"/><path class="cls-2" d="M.28.15v6q1.5-3,3-6Z"/><path class="cls-2" d="M1059.59,673.68c3.06-12.17,4.74-26.08-2.4-36.41-2.57-3.73-6.6-6.87-11.12-6.78-7.41.15-11.82,8.29-13.72,15.45-2.61,9.83-3.53,20-6.17,29.87s-7.34,19.6-15.64,25.5a8.41,8.41,0,0,1-5,1.93c-10.46-.46-3.64-19.46-13.68-22.32-9.17-2.62-18.38,12.69-22.9,18.62a192,192,0,0,0-30.15,57.62c-1.12,3.51-2,7.71.24,10.61,3.18,4,9.49,2.33,14.54,3.23,11.94,2.12,15.81,18.74,27.09,23.19,6.58,2.58,14.27.24,19.81-4.15s9.33-10.54,13-16.59C1032.44,742,1050.61,709.35,1059.59,673.68Z"/><path class="cls-2" d="M1124.89,719.72c5.75,3.25,12.86,3.35,19.25,1.69,9.24-2.39,18.32-11.07,28.37-6.8,6.77,2.89,8.65,11.32,12.08,17.83a32,32,0,0,0,8.64,10.3c4.86,3.77,12.13,5.94,17,2.15,5.25-4.11,4.31-12.33,1.85-18.53s-6-12.7-4.29-19.14c2.43-9.19,6.48-16.76-7.08-16.59a39.5,39.5,0,0,1-26.54-10c-5.07-4.54-8-11.84-14.22-14.9-4.39-2.15-9.56-1.74-14.41-1.13a48.91,48.91,0,0,0-13,3,9.84,9.84,0,0,0-3.38,2.09c-3.43,3.54-1.48,9.37-2.28,14.23-1.2,7.23-8.59,12.11-10.22,19.25C1115.22,709.6,1119.15,716.47,1124.89,719.72Z"/><path class="cls-2" d="M1144.9,645.33l10.82-2.17c22.66-4.53,21.8-26.22,18.3-45.31-1.79-9.72-6.29-19.31-14.18-25.25-6.49-4.89-14.66-6.92-22.65-8.39-12.88-2.37-26.33-3.56-38.94,0-6.21,1.74-12.28,4.74-16.36,9.72-4.23,5.15-5.94,11.88-7.11,18.44-2.62,14.56-2.75,31,6.49,42.53,7.09,8.85,18.61,13.22,29.92,14.08S1133.78,647.56,1144.9,645.33Z"/><path class="cls-2" d="M1031.76,858.29c13.11,7,35.27-2.6,47-8.58,19-9.72,45.63-35.93,27.45-58.45-10.56-13.07-26.75-19.82-43.2-21.33-9-.83-18.8,2.2-27.29,7.62-10.5,6.7-19.08,17.07-22,28.34C1010.31,818.51,1019.19,851.56,1031.76,858.29Z"/><path class="cls-2" d="M221.25,733c4.94,4.47,11.59,6.49,18.08,8,14.42,3.31,30.81,4.22,42.79-4.47,9.18-6.65,14.09-18,15.48-29.21s-.3-22.64-2-33.85L294,662.52c-3.45-22.86-25.16-23-44.39-20.44-9.79,1.32-19.58,5.36-25.9,13-5.19,6.25-7.61,14.31-9.46,22.22-3,12.75-4.8,26.13-1.88,38.89C213.76,722.45,216.46,728.65,221.25,733Z"/><path class="cls-2" d="M1165.64,734.84c-3.38-.47-6.8.49-10,1.67a75.9,75.9,0,0,0-19,10.19,34.8,34.8,0,0,0-8.45,8.28,26.36,26.36,0,0,0-4,10.6c-2.16,13.77,5.68,28.24,17.93,34.89s28,5.65,39.91-1.56c20-12.1,6.45-30.18-.2-46.22C1178.59,744.91,1174,736,1165.64,734.84Z"/><path class="cls-2" d="M1331.15,822.92c4.5.8,9.18,1.42,13.58.21s8.49-4.67,9.07-9.2c.44-3.38-1.08-6.69-2.75-9.66a79.48,79.48,0,0,0-20.76-24c-2.85-2.2-6.06-4.27-9.66-4.45-3.84-.2-7.45,1.81-10.57,4.07-6.33,4.58-23.72,20.42-19.42,29.64C1294.51,817.82,1323,821.47,1331.15,822.92Z"/><path class="cls-2" d="M1104.27,893.68c-.34-27.35-21.53-8.78-38.26-6.26a55.87,55.87,0,0,1-7.34.65c-9.42.17-19.49-1.46-29.09-1.53-4.74,0-9.9.06-13.61,3-3.1,2.49-4.45,6.54-4.4,10.58h92.56C1104.25,897.92,1104.3,895.75,1104.27,893.68Z"/><path class="cls-2" d="M1308,750.73c12.32-8.22,10.26-35.23,4.14-46.84-3.12-5.92-8.64-10.55-13.47-15-9.45-8.77-14.94-12-26.49-4.4a124.41,124.41,0,0,1-25.26,12.8c-3.31,1.22-6.75,2.35-9.5,4.56s-4.69,5.85-3.82,9.27a12.93,12.93,0,0,0,3.09,5,112.92,112.92,0,0,0,57.14,35.32C1298.55,752.65,1303.94,753.44,1308,750.73Z"/><path class="cls-2" d="M1280.23,787.71c12.23-18-19.45-29.37-32-36-4.07-2.15-8.83-4.25-13.12-2.58-4.89,1.91-6.51,7.81-9.84,11.41-4.21,4.54-10.37,7.17-13.8,12.46-3.53,5.47-3,12.92.24,18.6s8.59,9.83,14.33,12.91a41.72,41.72,0,0,0,8,3.4C1251.36,813,1270.52,802,1280.23,787.71Z"/><path class="cls-2" d="M1223.36,888c5.16-.47,9.88-3,14.44-5.43l16.46-8.87c3.72-2,7.56-4.11,10.14-7.47,4.16-5.42,4.17-12.88,3.59-19.69-.33-3.8-.81-7.69-2.54-11.09-3.71-7.3-12.67-10.83-20.83-10.07s-15.57,5.07-22,10.1c-6.92,5.38-13.24,11.91-16.57,20C1200.36,869.24,1205.11,889.62,1223.36,888Z"/><path class="cls-2" d="M1306.29,637.12c2.94,2.5,7,3.09,10.87,3.19,7.81.22,31.25-1.8,33.44-11.73,2-9-18.42-29.14-24-35.26-3.09-3.37-6.43-6.7-10.66-8.42s-9.58-1.45-12.8,1.79c-2.4,2.42-3.2,6-3.68,9.34a79.51,79.51,0,0,0,1.89,31.69C1302.25,631.2,1303.54,634.79,1306.29,637.12Z"/><path class="cls-2" d="M1297.54,22.37c-2.16,9.47,1.73,15.16,11.24,17.47a77.94,77.94,0,0,0,16.11,2.36c25.47.75,50.95,1.2,76.42,1.7a30.08,30.08,0,0,0,18.13-5.71c4.74-3.31,7.07-7.73,6.68-13.54-.53-7.95-3-15.07-8.46-21.08-1.08-1.2-2.21-2.33-3.36-3.42H1304.1A148.62,148.62,0,0,0,1297.54,22.37Z"/><path class="cls-2" d="M1383.88,797.65c19,12.74,37.59,25.16,56.4,38.13V746c-17.15-9.73-45.54.67-57.77,12.89-4.16,4.16-7.71,9.1-9.29,14.76s-1,12.11,2.43,16.88C1377.78,793.47,1380.84,795.61,1383.88,797.65Z"/><path class="cls-2" d="M1305,565.55c5.55-2.54,8.12-10.23,14.16-11.09,6.75-1,10.79,7,13.59,13.18A76.18,76.18,0,0,0,1346,587.8c4.07,4.44,8.86,8.5,14.64,10.17s12.71.46,16.51-4.21c4.18-5.12,3.55-12.54,2.4-19-4.29-24.27-6.57-47.65-36.14-46.08-5.86.31-12.23.07-16.84-3.57a27,27,0,0,1-5.55-6.83c-7.12-11-13.53-24.6-22.49-34.22-12.88-13.85-10-1.23-19.42,5.35-3.24,2.25-7.63,1.13-11.56,1.56-10.57,1.18-6.56,15-4.22,21q4.8,12.29,9.62,24.58c4.54,11.61,10.28,24.45,21.94,28.87C1298.14,566.56,1301.86,567,1305,565.55Z"/><path class="cls-2" d="M946.34,884a28.81,28.81,0,0,0-4.26-2.15c-24.78-10.35-49.48-20.76-74.52-30.44-8.69-3.35-21.39-10.67-30-3.17-6.41,5.57-7.57,19.08-8.58,26.87a138.79,138.79,0,0,0-.8,25H950.27C952.73,893.56,952.31,887.7,946.34,884Z"/><path class="cls-2" d="M69.7.15H22.11L14.65,17.26c-5,11.43-10,24.57-4.86,35.94,1.42,3.15,3.75,6.1,7,7.3,5.72,2.12,13-1.51,17.86,2.15,5.46,4.08,2.71,12.55.3,18.93a76.15,76.15,0,0,0-4.85,23.63c-.26,6,.26,12.27,3.17,17.54s8.68,9.3,14.66,8.68c6.58-.68,11.37-6.37,15.16-11.79,14.1-20.21,29-38.37,7-58.15-4.37-3.92-8.71-8.59-9.4-14.42a27.34,27.34,0,0,1,.89-8.75C64.17,26.11,68.85,12.73,69.7.15Z"/><path class="cls-2" d="M114.9,17.75c1,20.4,48.81,3.19,61.15.85,2-.37,4.21-.89,5.34-2.58,1-1.48.84-3.43.49-5.18A36.8,36.8,0,0,0,177.76.15H120.87A25.51,25.51,0,0,0,114.9,17.75Z"/><path class="cls-2" d="M1105.89,4c.78,5.64,6.21,9.26,11,12.33,8.46,5.38,16.94,11.75,21,20.94,3.94,9,4,20.85,12.36,25.92,5,3,11.55,2.34,16.6-.54s8.75-7.62,11.71-12.61c6.39-10.82,13.61-27,13.17-39.79-.11-3.14-.3-6.58-.59-10.12h-85A9.88,9.88,0,0,0,1105.89,4Z"/><path class="cls-2" d="M1213.77,18.68a9.42,9.42,0,0,0,5.18,3,18,18,0,0,0,6.74-.66c18-4.09,39.9-8.12,54.16-20.86H1208.2c.43,3.81,1.1,7.75,2,12A14.32,14.32,0,0,0,1213.77,18.68Z"/><path class="cls-2" d="M1222,677.83c15,.91,29.5-5,43.19-11.12,5.94-2.67,12-5.49,16.74-9.89,9.43-8.67,9.91-20.64.86-29.73s-19.06-1.7-28.88,2.41c-13.48,5.65-28.93,1.92-42.77-2.78-5.87-2-13.2-3.84-17.56.56-1.94,2-2.75,4.72-3.4,7.39-1.43,5.82-2.45,11.89-1.38,17.78C1191.51,667.23,1207,676.93,1222,677.83Z"/><path class="cls-2" d="M815.85,332.62c8.85-.23,18-1.85,25.16-7.08,26.21-19.18-4-47.74-22.76-57.22-2.31-1.17-4.79-2.24-7.37-2.1-6.54.37-10,7.74-12,14q-3.23,9.88-6.44,19.77c-2.4,7.35-4.73,15.66-1.14,22.5C795.64,330.74,806.51,332.86,815.85,332.62Z"/><path class="cls-2" d="M423.12,39.31c-4.17,4.31-8.24,10.1-6.5,15.84,1.29,4.26,5.42,7,7.48,11,4.5,8.59-2,18.71-2.41,28.4-.51,11.63,9.42,22.73,21,23.51s22.95-8.87,24-20.47c.66-7.21-2.16-14.3-2.31-21.54-.14-6.7,2-13.21,4.1-19.56s4.27-12.85,4.19-19.55c-.15-12.12-9.5-22.19-22.22-18.66C440.73,21,429.93,32.28,423.12,39.31Z"/><path class="cls-2" d="M875.48,173.86c-13.4-9.24-28.14-17-42.77-24.07-5-2.42-10.33-4.78-15.86-4.36-7.8.6-14.05,6.52-19.1,12.48-9.41,11.08-20.51,21.46-16.41,36.64,5.15,19.07,17.76,38,30.3,52.92,2.41,2.86,5,5.73,8.46,7.21a17.81,17.81,0,0,0,10.55.7c12.37-2.53,25.48-14,32.48-24q8.05-11.51,15.19-23.63C885.6,195.35,888.29,182.71,875.48,173.86Z"/><path class="cls-2" d="M185.3,182.34c-15.65,2.52-22.15,19.92-28.56,32.17a242.86,242.86,0,0,0-20.59,54.37c-.58,2.35-1,5.09.47,7,1.36,1.71,3.79,2,6,2.2l17.4,1.47c3.87.33,7.95.62,11.46-1s5.75-4.86,7.93-8L215,219.8c2.43-3.46,4.94-7.11,5.46-11.3,1.09-8.83-6.75-16.1-14.42-20.59C199.74,184.22,192.52,181.17,185.3,182.34Z"/><path class="cls-2" d="M815.33,49c-9.49-8.07-21.92-13.23-33.56-12.76-13,.54-42,18.71-44.77,32.71-2.86,14.58,12.82,33,22,42.37,14.87,15.32,47.73,33.08,63.93,9.09,9.4-13.93,11.1-31.38,7.72-47.55C828.75,64,823,55.57,815.33,49Z"/><path class="cls-2" d="M682.92,161.84c-5,8.37-2.13,17.27,2.53,25,21.45,35.67,57.82-3.43,79-18,6-4.11,19.31-10.3,17.26-19.41-2.84-12.56-16.91-5.38-24.57-10.25s-5.25-19.75-17.53-19.34c-2.86.09-5.5,1.48-8,2.88C715.22,131.91,692.82,145.19,682.92,161.84Z"/><path class="cls-2" d="M114,427c-7.06-4.58-16.52-1-23.65,3.1a161.24,161.24,0,0,0-55.06,52.23c-2.49,3.88-4.84,8.66-2.78,12.87,2.92,5.95,12.58,6.63,15.82,12.44,2.89,5.2-.92,11.67,1.28,17.15,7,17.59,73.17-24.88,83.67-30.74,10.33-5.77,20.49-11.94,29.08-19.79,1.65-1.51,3.35-3.33,3.28-5.53s-1.94-4.05-4-5.21c-9.89-5.61-24.28.13-32.95-7.05C119.83,449.06,123.8,433.3,114,427Z"/><path class="cls-2" d="M37.51,360.86c-12.75,11.07-16.45,27.48-21.1,42.89C11.67,419.49,6.67,435.17.28,450.32v34.24a20.9,20.9,0,0,0,3,.24c6.81,0,17.2-15.57,21.14-20.13q8.41-9.75,16.22-20c9.84-12.87,19.17-25.55,28.16-39.11,4.07-6.13,7.71-10.05,14-13,.42-.2.86-.39,1.3-.58,6.43-2.69,15.09-2.13,20.51-7,6.46-5.82,1.69-21.28-4.5-25.77-2.29-1.67-5.24-2-8.06-2.25-10-.71-19.61.6-29.56-.72C54.08,355.13,44.38,354.9,37.51,360.86Z"/><path class="cls-2" d="M121.06,399a36.29,36.29,0,0,0,3.19,11.51c4.69,10.5,13.4,20.34,19.75,28.87a21.61,21.61,0,0,0,14.26,8.38c8.3,1.34,14.3-2.5,16.16-10.65a103.61,103.61,0,0,0-.48-47.35c-2.24-9.52-6.59-13-16.35-12.85a173.94,173.94,0,0,0-20.15,1.5C126.36,379.87,120.06,387.8,121.06,399Z"/><path class="cls-2" d="M121.18,328.68c-1,7.39,1.74,14,4.31,20.62,2.27,5.88,6.26,9.93,12.53,11.29,9.25,2,18.29.49,27.19-2.07,5.52-1.59,8.14-5.56,8.52-11.15a26.18,26.18,0,0,0,.13-4.76c-1.09-9-2.11-18-3.51-26.94-.62-4-2.1-7.78-3.18-11.66-2.81-5.44-6.65-9.54-13-9.54-4.06,0-8.57.34-12.11,2.1C128.93,303.07,123,314.61,121.18,328.68Z"/><path class="cls-2" d="M105.71,243.15c-6.73-3.58-14.42-6-20.23-7.67-7.58-2.21-12.37.67-14.72,8.27a63.85,63.85,0,0,0-2.69,12.95C66.22,277.33,64.62,298,63,318.62a24.41,24.41,0,0,0,3.75,15,11.7,11.7,0,0,0,10.66,6.08c6.48-.05,12.37-1.69,17.52-5.84,6.93-5.58,12-12.6,14.35-21,4.14-15.13,7.71-30.43,11.12-45.76C122.88,255.72,115.27,248.23,105.71,243.15Z"/><path class="cls-2" d="M462.23,592.1c5.87-17.05-4.17-36.71-18-47.09-17.4-13.07-30.25,18-37.47,30.25-2.35,4-4.67,8.62-3.2,13,1.66,5,7.49,6.87,10.92,10.37,4.34,4.42,6.67,10.7,11.79,14.37,5.3,3.8,12.77,3.56,18.6.65s10.22-8.11,13.57-13.7A41,41,0,0,0,462.23,592.1Z"/><path class="cls-2" d="M396.46,686.5a34.62,34.62,0,0,0,7.87,8.83,26.24,26.24,0,0,0,10.4,4.51c13.65,2.82,28.48-4.33,35.71-16.25s7-27.68.34-39.94c-11.14-20.57-29.84-7.87-46.18-2-7.93,2.86-17,7-18.6,15.31-.64,3.36.17,6.81,1.19,10.07A76.38,76.38,0,0,0,396.46,686.5Z"/><path class="cls-2" d="M595,572.74c3-2,4.63-7.49,3.6-10.29-2.74-7.5-5.44-15-8.26-22.5-2.21-5.86-4.63-11.65-9.13-16.2-4-4.08-8.63-7.54-14.68-6.77-8.46,1.09-14.88,5.89-19.78,11.92-.88,1.88-1.57,3.14-2.06,4.47-4.5,12.22-4,24.51-.36,36.8,1.72,5.84,4.36,11.22,8.92,15.46C564.65,596.28,585.74,578.74,595,572.74Z"/><path class="cls-2" d="M304.8,629.89c14.89-2,25.32-17,26.93-32s-3.56-29.69-9.06-43.67c-2.38-6.06-4.91-12.19-9.08-17.19-8.21-9.83-20.15-10.87-29.65-2.26s-2.61,19,1,29c5,13.73.54,29-4.81,42.59-2.26,5.76-4.46,13-.27,17.56,1.85,2,4.58,3,7.22,3.75C292.85,629.37,298.86,630.68,304.8,629.89Z"/><path class="cls-2" d="M678.28,591.07c3.23-2.47,6.6-5.48,8.35-9,6.46-13.14,4.17-25.92-2.94-38.19-3.74-6.45-9.88-10.05-16-13.76-5.38-3.28-11-4.08-16.81-1.35-8.57,4-14.82,10.72-20.34,18.17-3.41,4.62-3.08,9.37,0,14a25.7,25.7,0,0,0,2.8,3.86c6.32,6.48,12.6,13,19.15,19.26,2.9,2.77,6.39,4.91,9.62,7.33C667.69,594,673.23,594.93,678.28,591.07Z"/><path class="cls-2" d="M674.34,666.52c.63,18.48,19,8.41,25.09-1,2.11-3.28,3.6-7,6.4-9.75,7.82-7.56,21.87-3.81,30.92-1.11,12.6,3.76,29.18.52,33.78-13.93,2.19-6.84-.58-15.28-7-18.51-5.52-2.79-12.1-1.43-18.28-1a49.81,49.81,0,0,1-31.12-8.5,13.39,13.39,0,0,1-1.65-1.35c-5.48-5.19-10.05-15.67-18.46-13.2-18.94,5.56-21.33,19.72-20.73,37.47Z"/><path class="cls-2" d="M775.34,580.67a64.19,64.19,0,0,0-5.73-11.93c-11.07-17.5-22.35-34.87-33.58-52.27a24.47,24.47,0,0,0-12.09-9.61,11.68,11.68,0,0,0-12.16,1.65c-5.11,4-8.79,8.86-10.36,15.28-2.11,8.64-1.91,17.32,1.39,25.43,5.91,14.53,12.37,28.86,19,43.09,4.88,10.52,15.48,11.84,26.16,10.07,7.52-1.24,15.08-4,20.72-6.2C776,593.33,778.1,588.13,775.34,580.67Z"/><path class="cls-2" d="M789.12,519.78c15.27-2.93,30.39-12.33,41.14-21.46,4.08-3.47,8-7.4,10-12.36,2.91-7.17,1.41-15.29-.23-22.86C837.6,451.72,834.71,440,827.32,431a25.58,25.58,0,0,0-11.13-8.26c-5.87-2-12.37-1-18.29.81-25.93,8.11-38.68,32-53.11,53.08-4.63,6.75-4.84,14-1,21.28a46.14,46.14,0,0,0,14.29,16C767.49,520.68,778.34,521.84,789.12,519.78Z"/><path class="cls-2" d="M584.8,688.78c5.11,5.17,10.22,7.71,15.52,8.33,6.43.76,13.17-1.32,20.58-5,11-5.43,22.6-10.49,26.76-22.93.66-2,1.56-3.87,2.31-5.81,3.76-9.78,6.61-19.77,7.13-30.3,1-20.26-8.21-35.56-23.47-47.82-9.44-7.58-16.79-7.57-26.75-.71-8.77,6-17.77,11.76-26.74,17.52-10.4,6.68-21,10.09-24.31,22.31-3,11.32-.55,23.6,4.68,33.87C566.43,669.88,575.61,679.49,584.8,688.78Z"/><path class="cls-2" d="M871.43,618.66a26.36,26.36,0,0,0,9.74-1c16.77-4.3,52.93-27.88,37.67-48.76-5.93-8.12-17.62-13.06-25.8-18.48-12.52-8.3-22.48-12.21-30.65,3.88a88.8,88.8,0,0,0-8.95,29.27c-.91,7.26-.86,14.86,1.94,21.61S864.17,617.75,871.43,618.66Z"/><path class="cls-2" d="M962.31,546.44c6.2-11.11,13.34-21.81,20-32.63,8.6-13.91,8-27.8.18-41.79-1.94-3.46-4-6.6-7.34-9-15-11-30.15-21.84-44.87-33.22-5.82-4.49-11.83-5.69-18.85-5.12-10.67.87-21.35,1.58-32,2.28-5.41.36-10.8.42-14.77,3a12.19,12.19,0,0,0-5.07,7.05c-1.44,4.61-1.13,9.55-1.25,14.38-.38,14.76-4.93,30.18.61,43.86,4.3,10.6,13.87,18,23,24.85l34.18,25.6c7.24,5.43,14.86,11,23.79,12.53C950.48,560,957.52,555,962.31,546.44Z"/><path class="cls-2" d="M1002.38,465.89c1.9,2.86,4.62,6.09,8,5.49,2.07-.37,3.59-2.12,4.8-3.84,4.36-6.19,7.69-14,14.69-16.84,8.49-3.49,32.77,7.68,30.87-9.7a20.78,20.78,0,0,0-2.73-7.28q-8.19-15.63-16.4-31.26c-2.13-4.07-4.36-8.25-7.93-11.13-16-12.89-33.71,20.47-40.48,30.79-3,4.61-6,9.68-5.91,15.2.07,5.8,3.4,11,6.61,15.81Z"/><path class="cls-2" d="M1069.78,333.81c16.83-2.63,33.67-5.21,50.46-8.08,4.8-.82,9.44-2.53,14.14-3.88a3.74,3.74,0,0,0,2.91-3.75c.51-8.19,1.61-16.39,1.53-24.57,0-5.53-.68-11.49-2.84-16.47-5.75-13.23-16.64-21-30.43-24.35a174.81,174.81,0,0,0-18.32-3.55c-15.27-2-30.77-1.35-44.81,5.89-3.7,1.91-7.45,4.45-8.87,8.37-1.59,4.41.19,9.24,2,13.58,5.86,14.43,7.67,30.4,12.42,45.43,2.5,7.95,8,11.51,16.36,11.71A31.45,31.45,0,0,0,1069.78,333.81Z"/><path class="cls-2" d="M874.86,361.69C867,343.22,838,347.83,821.65,346.85c-6-.36-13.43.13-15.81,5.62a13.54,13.54,0,0,0-.71,6.14A90.25,90.25,0,0,0,818,400.71c3.24,5.35,7.28,10.57,12.95,13.2,9.75,4.53,21.17.29,30.84-4.42C879.75,400.74,882.47,379.56,874.86,361.69Z"/><path class="cls-2" d="M741.62,26.57c1.37,3.37,3.35,7.23,7,7.7,2,.26,4-.67,5.75-1.67,10.55-5.94,20-15.37,32.14-16,10-.52,21,5.13,29.6,0,4.36-2.59,6.88-7.34,9.18-11.86.62-1.21,1.51-2.77,2.58-4.59H731.47C734.56,9.09,738.1,17.89,741.62,26.57Z"/><path class="cls-2" d="M1092.9,236.74c12.11.75,20.66-2.26,28.19-12.63a50.47,50.47,0,0,0,4.32-7.2,95.64,95.64,0,0,0,6-16.09c1.82-6.26,3.91-9.6-.5-14.81-3.43-4-8.65-6.82-13.23-9.34-5.11-2.8-10.65-5.43-16.46-5.1-7,.4-13,5-17.69,10.1-10.07,10.94-22.83,33.22-13.51,48.39C1074.53,237.4,1085.33,236.28,1092.9,236.74Z"/><path class="cls-2" d="M739.39,736.25c4.12,2.51,6.81,6.74,9.91,10.44,3.75,4.47,8.51,8.41,14.22,9.64s12.39-.91,15.11-6.07c5.1-9.66-4.73-20.35-8.63-28.58-3.81-8-6.35-18.79-7.41-27.54-.58-4.87.13-10.52-4.08-14-3.72-3.13-9.2-2.61-14-1.92L711,683c-6.79,1-14.62,2.67-17.64,8.83-3.53,7.18,1.75,15.41,6.86,21.58,6.13,7.41,12.88,15,22,18C727.93,733.22,734.3,733.15,739.39,736.25Z"/><path class="cls-2" d="M1023.23,7.4Q1030,13,1037.17,18c3.91,2.71,8.35,5.39,13.07,4.82,3.09-.38,5.84-2.12,8.31-4,5.83-4.46,12.81-11.13,16.52-18.64h-56.49a8.83,8.83,0,0,0,.84,3.06A14.07,14.07,0,0,0,1023.23,7.4Z"/><path class="cls-2" d="M852.09,23.58a59.22,59.22,0,0,1-1.19,7.9c-2.21,10.58-6.36,22.79-4.81,31.7,2,11.56,16.15,17.46,24.21,24,2,1.61,3.88,3.53,4.31,5.9.94,5.24-5.59,9.12-11.42,9.86s-12.15-.06-17.27,2.56c-5.76,2.95-8.19,9.65-7.15,15.53s4.91,11.06,9.28,15.53c12.05,12.34,28.25,20.69,44.32,28.47,13.24,6.42,24.6,11.83,38.14,4.27a80.35,80.35,0,0,0,29-28.53c3.7-6.26,5.82-14.79.28-19.81-2.79-2.53-6.86-3.46-10.24-5.32-11.75-6.47-12.15-21.61-9.73-33.83S945.76,55.9,938,45.69c-2.51-3.27-6-5.89-8.09-9.4-4.22-7.24-1.25-16-1.77-24.2A38.93,38.93,0,0,0,925.35.15h-74C851.62,8,852.62,16,852.09,23.58Z"/><path class="cls-2" d="M1110.7,28.5c-2.53-1.88-5.78-2.4-8.9-2.87-13.52-2-29.4-3.28-38.76,6.69-13.84,14.73-1.7,30-3.18,46.73a12.37,12.37,0,0,1-1.75,6c-12.28,17.59-34.33-18.94-47.92-5.77-3.13,3-4.61,7.36-5.54,11.61-2.74,12.5-3.69,27.23,8.1,34.61,10.92,6.84,24.83,4.58,35.79,11,8.54,5,11.52,15.65,17.09,23.83a9.56,9.56,0,0,0,4.06,3.79c3,1.18,6.41-.58,8.59-2.94s3.62-5.35,5.84-7.68c4.92-5.18,12.77-6.29,19.92-5.36l1.35.2c7.49,1.26,14.61,4.29,22.13,5.4a15,15,0,0,0,7.91-.52c4.71-2,6.83-7.6,7-12.71,1.56-36.33-14-68.81-26.09-102.55C1115.13,34.45,1113.7,30.73,1110.7,28.5Z"/><path class="cls-2" d="M22.81,283.73A77.22,77.22,0,0,0,.28,276.91v78.23c10.59-2.74,21.08-6.76,31.5-10.18,7.78-2.55,12.37-8.21,13.75-16.27a46.09,46.09,0,0,0-1.61-21.43C40.54,296.16,32.63,288.64,22.81,283.73Z"/><path class="cls-2" d="M304.52,772.41c4.7,3.29,11.17,2.28,16.49.13,13.77-5.56,49.06-19.59,31-40.61-4.56-5.29-12.71-6.38-17.15-11.77-2.34-2.85-3.52-6.76-6.61-8.79-10.77-7.06-14.42,10-15.14,16.13-.64,5.48-3.51,10.43-6.41,15.13s-6,9.48-7,14.9S300,769.26,304.52,772.41Z"/><path class="cls-2" d="M280.43,880.94c-.14-3.86-2.45-7.28-5-10.2-5.1-5.92-22.36-21.89-31.18-16.83-7.95,4.56-9.16,33.23-9.91,41.5-.15,1.57-.26,3.16-.29,4.74h35.78a78.7,78.7,0,0,0,6.94-9.21C278.76,887.91,280.55,884.54,280.43,880.94Z"/><path class="cls-2" d="M287.55,784.62c-4.88-3.81-8-9.73-13.59-12.69-5.75-3.06-13.12-1.85-18.51,1.81s-9.06,9.39-11.65,15.37a41.69,41.69,0,0,0-2.71,8.27c-3.56,17.68,9,35.85,24,44.31,19,10.66,27.61-21.87,33.15-34.94,1.8-4.24,3.48-9.16,1.46-13.29C297.44,788.74,291.41,787.63,287.55,784.62Z"/><path class="cls-2" d="M185.57,832.57c5.75,3.69,13.19,3.07,19.92,1.91a34.62,34.62,0,0,0,7.46-1.83c4.12-1.73,7.24-3.49,9.49-7.38A35.36,35.36,0,0,0,226.62,815c1.92-9.32,1-20.1,1.5-29.62.58-12-6.41-22.18-14.38-31-9.91-10.93-21.58-22.68-36.33-22.89-6.54-.1-13,2.18-19.53,1.39-5.72-.71-10.87-3.74-15.66-6.95-5.1-3.43-10.87-7.34-16.85-6-4,.93-7.11,4.11-9.3,7.59-7.57,12-5.6,29.17,4.49,39.16,5.4,5.36,12.52,8.55,19,12.51a90,90,0,0,1,27,25.42C172.83,813.66,176,826.41,185.57,832.57Z"/><path class="cls-2" d="M429.66,898.3c9.09,1.21,27.47-20.82,33.1-26.93,3.09-3.36,6.13-7,7.49-11.34s.63-9.67-2.87-12.6c-2.62-2.18-6.23-2.68-9.63-2.88a79.75,79.75,0,0,0-31.41,4.58c-3.38,1.22-6.86,2.81-8.95,5.74-2.23,3.14-2.48,7.26-2.25,11.11C415.59,873.78,419.58,897,429.66,898.3Z"/><path class="cls-2" d="M551,778.42c2.93-1.26,6.06-2.69,7.69-5.44,2.28-3.84.83-8.74-.93-12.84a102.8,102.8,0,0,0-7.46-14.21c-4.38-6.95-10.16-13.76-18.1-15.86-7.65-2-15.21.78-22.45,3-8.3,2.6-13.88,1.21-22.44,1.3-7.1.06-14.22.22-21.3.8-24.41,2-33.9,38.76-29.57,58.38,1.26,5.74,3.52,11.4,7.44,15.78s9.66,7.37,15.53,7c3.65-.21,7.11-1.63,10.46-3.1,23.08-10.1,45.54-19.94,68.84-29.69Q544.83,781.07,551,778.42Z"/><path class="cls-2" d="M689.8,765.61c8.45,8.38,20.36.21,28.11-6.68a5.09,5.09,0,0,0,1.7-2.26c.5-1.76-.88-3.47-2.32-4.57-4.38-3.34-10-4.47-14.89-7-8.57-4.38-14.5-12.74-18.63-21.51s-6.81-18.2-10.87-27c-2.16-4.68-5.83-9.81-10.93-9.34-2.49.22-4.66,1.81-6.47,3.56-6.63,6.42-22.77,38.42-15.66,46.74,3.19,3.74,12.08,3.94,16.72,3.76,5.89-.24,12.1-1.46,17.45,1C684,746.9,682.94,758.81,689.8,765.61Z"/><path class="cls-2" d="M351.36,866.37c5.64-3.61,9.78-9.5,13.84-14.7,7.93-10.16,10.72-15.9,2.14-26.77a123.82,123.82,0,0,1-14.9-24.07c-1.5-3.2-2.91-6.53-5.36-9.08s-6.22-4.19-9.55-3a12.84,12.84,0,0,0-4.76,3.5,113.07,113.07,0,0,0-30.34,59.93c-.8,4.81-1.13,10.24,1.91,14.06C313.58,877.8,340.31,873.46,351.36,866.37Z"/><path class="cls-2" d="M395.7,832.3c9.44,8.66,21.41,8.12,29.7-1.67s.08-19.13-4.85-28.57c-13.13-25.12,3.54-44.76,4.95-69.54.12-2.12.07-4.44-1.23-6.12-1.16-1.5-3.06-2.18-4.87-2.73a91.47,91.47,0,0,0-24.58-4c-2.95-.08-6,0-8.69,1.26-5.73,2.65-7.94,9.49-9.56,15.59-3.57,13.46-8.13,27.78-6.65,41.73,1.45,13.76,7.88,26.28,14.51,38.2C387.59,822.15,390.91,827.9,395.7,832.3Z"/></g></svg>