<svg xmlns="http://www.w3.org/2000/svg" viewBox="0 0 1440 900"><defs><style>.cls-1{fill:#3d55cc;}.cls-2{fill:#fb0;}</style></defs><title>Wunderkind_Patterns_WEB-Cropped</title><g id="Backgrounds"><rect class="cls-1" width="1440" height="900"/></g><g id="Color"><path class="cls-2" d="M555.51,895.2A138.83,138.83,0,0,0,529,900.8h18.7a106,106,0,0,1,38,0h15.49C587.36,893.6,571.59,893.42,555.51,895.2Z"/><path class="cls-2" d="M1438.82,765.15a32.37,32.37,0,0,0,1.1,3.49V738.07c-.06.35-.12.72-.21,1.14C1437.93,747.75,1436.65,756.41,1438.82,765.15Z"/><path class="cls-2" d="M-.08,898.16v2.64H2.13a3.33,3.33,0,0,1-.25-.28C1.2,899.75.55,899-.08,898.16Z"/><path class="cls-2" d="M911.05,53.14c-2.85,2.59-4.47,2.44-7-.24a134.57,134.57,0,0,1-27.27-41.39c-2-4.88-.49-5.19,4-5.12A140.64,140.64,0,0,0,924,.8H902.47a138.19,138.19,0,0,1-24.73,1.07A6.16,6.16,0,0,1,874.16.8H848.6a102.4,102.4,0,0,0,16.34,3.83c3.38.5,5.37,1.83,6.62,5.32a125.82,125.82,0,0,0,28.56,45.56c2.93,3,3.28,4.64-.21,7.66-21.53,18.63-44,36.08-66.44,53.56-5.18,4-6.88-.14-9.45-2.57-4-3.73.94-4.42,2.46-5.62,24.2-19,32.22-47.13,22-77.65A117.55,117.55,0,0,0,832.79.8h-5.6c9.43,12.88,16.69,27.09,19.8,43.86.72,3.86.9,7.82,1.08,9.45.25,23.11-9.28,38.82-25.19,51.39-3.5,2.76-5.33,2.08-7.94-1.18C801.83,87.94,794.3,68.88,788.07,49.2,783,33.09,778.14,16.9,773,.8h-5a8.66,8.66,0,0,1,1,2.25c3.65,11.9,7.36,23.78,11,35.68a16.61,16.61,0,0,1,.26,3.62,17.27,17.27,0,0,1-3.07-1.71c-12.28-10.39-25.87-11.85-40.06-5-15.16,7.37-22.85,19.94-23.21,33.22C713.69,99,735.3,122,763.33,125.4a77,77,0,0,0,26-.84c4.27-.93,4.86.49,4.7,4.3-.88,20.69-.81,20.7-19.53,13.88-20.93-7.63-42.31-13.46-64.52-15.91-2.29-.26-4.32-.46-5.88-2.7-9-12.94-18.14-25.83-27.43-38.58-2.28-3.13-1.37-4.86,1-7.3,26.86-27.57,56.25-52.31,85.83-76.85.28-.23.53-.42.78-.6H757c-24.78,20.5-49.31,41.27-72.28,63.82-3.41,3.34-6.81,6.7-10.08,10.18-2,2.13-3.36,2-4.52-.68-.41-1-.93-1.85-1.39-2.78C663,59.61,663,59.61,674.48,55c20.76-8.4,33-31,31.53-54.16h-4.47c.52,20-9.3,40.13-26.37,48.88-12.14,6.22-14.06,5.15-14.68-8.19-.08-1.66,0-3.32,0-5,.29-13,2.87-24.94,8.09-35.72h-5.31c-6.66,14.25-8.75,30.27-6.5,47.92.59,4.7-.84,5.09-4.93,4.42-23-3.75-37.93-22.61-38.09-49.54,0-.94.09-1.87.16-2.8H609a81,81,0,0,0,.36,13.08,49.23,49.23,0,0,0,44.74,43.93c3.4.32,5.46,1.14,6.11,4.59a7.06,7.06,0,0,0,1.05,2.92c8.83,11.7,5.85,21.27-5.12,29.54a20.19,20.19,0,0,0-2.88,3.27c-10.05,11.66-18.92,24.23-28.3,36.4S599.36,150,587.53,159.48c-32.14,25.89-54.14,58.74-69.33,96.6A36.79,36.79,0,0,0,515.82,267c-.76,10.43,3.49,16.07,13.71,18.22,12.53,2.64,24.83.14,37-2.47,4.89-1.05,6.33-.41,5.93,5.1-.66,9.09-.18,18.27-.18,27.41,0,23.12,2.61,46,6.81,68.71,1.08,5.86-.11,6.9-5.65,5-44.5-15.48-74.83-44.24-84-91.64-4.84-24.91,2.49-48.22,14-70.19,17.36-33,41.32-61.23,66.1-88.77,7.23-8,14.68-15.87,20.47-25.08A58.68,58.68,0,0,0,597.93,95c4-17.31-3.08-29.35-20.09-34.43-2.16-.65-4.61-.56-4.53-3.91C573.74,38,571.92,19.23,575.78.8h-5a90.34,90.34,0,0,0-1.3,9.21,303.63,303.63,0,0,0-.44,43c.23,4.47-.54,6.33-5.53,6.21-13.34-.3-24.51,5.37-34.6,13.63-7.07,5.79-13.79,12-21.76,16.67-12.4,7.2-24.89,8.05-37-.3C458.27,81,456,68.81,458.22,55.43c3-18.12,12.5-32.31,26.71-43.59A164.44,164.44,0,0,1,500.82.8H492.3a109.11,109.11,0,0,0-23.78,21.49c-10.77,13.39-17.45,28.19-15.29,45.94,2.89,23.68,25.88,37.42,48.37,28.85,9.7-3.69,17.51-10.27,25.43-16.67,9.77-7.91,20-14.69,32.87-16.82,6.81-1.13,9.56-.35,8.93,7.8-2.18,27.77-10,53.21-29.89,73.43-22,22.31-48.48,30.27-79.25,22.6-4.21-1-5.74-2.59-5.11-7.66,4.92-39.63-9.59-70.63-42.58-93-1.52-1-3.57-1.62-3.9-3.76-2.74-17.4-13.61-30.57-23.43-44.13-4.56-6.28-2.72-7.52,3.74-7.88,12.44-.7,25-.76,37.26-2.68A84.89,84.89,0,0,0,450.06.8H437.57a110.3,110.3,0,0,1-26.95,4.44c-9.95.53-19.93.63-29.77,2.45a4.5,4.5,0,0,1-5.19-2.29c-1-1.52-1.93-3.06-2.86-4.6h-5.42c.9,1.54,1.81,3.06,2.76,4.57,1.07,1.73,3.26,3.23-.57,5.09C340,24.81,329.72,47.46,338,79.38a81.75,81.75,0,0,0,8,20.21c1.2,2.11,1.28,3.22-1.15,4.87-11.83,8-16.24,20.7-12.84,35.47,3.28,14.26,11.76,26,18.5,38.61,1,1.9,3.56,4.5,2.12,5.82s-3.89-1.37-5.76-2.45c-26-15-53.42-26.81-81.46-37.32-4.86-1.82-4.84-1.86-4.55-5.17,2-18.34,1.15-36.48-4.07-54.27-.82-2.8-.25-4.58,2.3-6.22,11-7.05,19.7-16.52,27.93-26.48A258.24,258.24,0,0,1,311.69,27c7.62-7,15.47-14.32,12.93-26.18H312.23c-1.69,1.59-4.89,2.81-6.84,4.2a485.07,485.07,0,0,0-56.64,46.67c-3.12,3-4.58,3.45-7-.75C234,37.49,223.17,26.55,211.69,16.26c-1-.92-2.45-2.1-2.54-3.24-.11-1.53,1.87-1.17,3-1.4C230.39,7.86,248.62,3.84,267,.8H241.69c-11,2.19-22,4.59-33,6.85-4,.82-7,.24-10.16-2.57C197,3.64,195.33,2.22,193.71.8H187c2.07,1.85,4.14,3.7,6.18,5.57,1,.92,2.91,1.57,2.36,3.22-.24.69-2,1-3.15,1.24-10.14,2-20.22,4.42-30.67,4.76-7.25-.27-15.58.17-18.89-7.67A9.45,9.45,0,0,1,142.5.8h-3.39c-3.5,8.28.1,14.29,10.51,17.53,4.46,1.39,9,1.33,13.58,1.42,11.07-.38,21.9-2.46,32.63-4.86,4.38-1,7.35-.08,10.62,2.85,12.14,10.88,23.22,22.58,31.87,36.51,2.06,3.33,2.32,5.48-.71,8.5a287.45,287.45,0,0,0-27,31c-1.93,2.57-4.38,3.5-7.29,4.23-20.81,5.23-42.16,7.76-63.32,10.11-11.9,1.32-24.47-3.64-36.77-5.56q-20.62-3.21-41.31-6c-2.7-.36-4.6-1-5.81-3.73C47.46,73.49,42.05,53.37,41.82,32c0-1.17.11-3.25.57-3.37,1.84-.48,2.08,1.57,2.8,2.63C55,45.86,66,59.36,80.4,69.69c13,9.29,27,15.36,43.43,14.7s25.7-9.6,26.51-26.11c.56-11.26-2.25-21.87-7.12-31.91A120.29,120.29,0,0,0,126.83.8h-6c13,13.21,21.34,30,24.88,50.35,3.41,19.61-8,30.36-27.89,28.44C100,77.86,85.64,69.27,72.9,57.43A143.43,143.43,0,0,1,44,20.23c-3.42-6.37-2.2-13,0-19.43H39.57c-.12.53-.24,1-.34,1.58-.4,1.94-1.14,3.81-1.71,5.71C35.3,7.22,34.93,5,34.06,3.19c-.38-.8-.77-1.59-1.15-2.39H27.53Q31.32,8,35.38,15c2.78,4.81.92,9.75,1.53,13.67A157.88,157.88,0,0,0,49.87,90c1.43,3.33,2.78,5.49-3,4.75-15.61-2-31.26-3.57-46.93-4.91v4.9q24.89,2.3,49.72,5.08a8.55,8.55,0,0,1,7.53,5.23,193.75,193.75,0,0,0,21.91,33.27c2.44,3,2.93,5.15.46,8.56-7,9.68-11.38,20.7-15.2,32q-3.5,10.32-7.29,20.54c-6.4,17.25-18,29.85-35.78,34.7A174.67,174.67,0,0,0-.08,241.43v4.68a116.21,116.21,0,0,1,13.82-4.67c27.5-7.43,44.4-24.48,52-51.69,3.81-13.6,8.8-26.83,16.57-38.84,2.31-3.56,3.72-4,6.68-.5,12.25,14.47,26,27.43,40.5,39.65,1.67,1.42,4.79,2.47,1.75,5.67-12.52,13.2-9.39,35.19,9.37,47.65,1.73,1.15,3.53,2.84,5.41,3,13.59,1.12,13.52,11,14.52,21a192.61,192.61,0,0,0,5.16,27.51c1.09,4.37-.1,5.8-4,7a70.92,70.92,0,0,0-23.14,12C124.6,325,120.77,342,129,356c8.54,14.46,26.24,20.12,42.4,13.29,4-1.68,8.11-3.73,11.18-6.65,5.11-4.88,7.43-4.39,10.87,2a191.16,191.16,0,0,0,35.74,46.95c3.21,3.11,3.61,5.6,2.19,9.7-12.12,35.17-15.92,70.79-.95,105.91,13.53,31.73,35.3,55.8,70,65,16.19,4.31,31.82,1.87,46.07-7.25,19.08-12.21,26.19-31.15,19.71-52.84-1.32-4.39-1-5.85,4-5.42,7.87.67,15.78,1,23.67,1,4.38,0,4.64,1.64,3.53,5.22-4.49,14.48-9.11,28.92-13.07,43.54-3.8,14-4.83,28.28,0,42.38,1.32,3.87-.12,4.22-3.42,3.6-17.14-3.23-34.29-3.74-51.28.84-2.9.78-4.25-.71-5.89-2.25-23.7-22.19-50.52-38.44-83.18-43.5a7.41,7.41,0,0,1-5-3.25c-22.35-29.15-59.24-39-92.44-22.83-40.74,19.81-61.2,54-64.81,98.59-.36,4.45-1.45,7-5.48,9.19-14.8,8-29.06,17-45,22.79-7.06,2.57-14.25,4.61-21.86,4.35-2-.07-4.6.7-5.56-1.47-.28-.66,2.14-2.68,3.52-3.86,25.88-22.11,46.23-48.23,58.3-80.35a115.64,115.64,0,0,0,7.61-33.91c.23-4,1.68-5.12,5.64-5.13,14.4-.05,28.06-3.33,40.35-11.07,14.83-9.33,23.57-22.53,24.48-40.36.12-2.16.34-3.86,2.45-5.23,35.46-23,33.24-74.42,11.76-102.78a46.07,46.07,0,0,0-11.8-11c-13.56-8.75-26.92-7.44-38.59,3.78-7.35,7.06-11.73,16-16.12,25-4.58,9.37-9.28,18.7-18.48,24.58-1.89,1.2-4.21,3.35-6.16,2.2-2.4-1.42-.11-4.07.29-6.06,1.59-8,2.5-16,.81-24.1-2.5-12-9-20.55-20.84-24.18-4.79-1.47-4.59-3.15-2.58-6.87,7.42-13.7,17.8-25,28.51-36.08,9.39-9.72,19-19.24,26.42-30.65,12.64-19.56,19-40.54,13.3-63.93a45.86,45.86,0,0,0-3.47-9.32c-6.27-12.72-19.49-20-32.06-17.8-13.47,2.34-23,12.91-24.32,27.84-.64,7.42-.11,14.94-.11,22.42.86,17.62-.63,34.89-7.59,51.35-2.78,6.59-6.38,12.65-12.22,17-7.57,5.66-15.76,5.8-24.2,2.26A16.34,16.34,0,0,1-.08,345v5.77c6.91,5.39,16.71,6.42,27.22,1.87,10.25-4.43,16.1-12.85,19.94-22.82a96.3,96.3,0,0,0,4.56-15.5,153,153,0,0,0,2.49-31.63c.07-9.13-1.21-18.24.22-27.38,1.94-12.41,9.2-20.87,19.89-22.72,11.32-2,22,3.59,27.44,15,8.23,17.14,5.88,34.42-.55,51.43-5.23,13.84-14.38,25.19-24.22,36C61.67,351.73,44.61,367,34.6,387.82c-.91,1.91-2.33,2.11-4.07,2-9.2-.54-18.27.66-27.25,2.44a6.34,6.34,0,0,1-3.36-.06v13.5c.13.36.27.72.4,1.11,3.74,11.05,7,22.16,8.56,33.73a29.29,29.29,0,0,1-.08,4.77c-1.51-.59-3.08-1.07-4.52-1.79s-2.91-1.42-4.36-2.08v4.72a73.08,73.08,0,0,1,7.25,4.51c5.66,4.06,1.94,10,2.88,13.72C9.41,480.11,6.4,494.09-.08,507.15V525.4c11.73,9.28,11.56,9.44,5,23.32-1.69,3.54-3.33,7.1-4.95,10.68v10.75q6.32-14,13.34-27.72c1.94-3.78,3.5-3.42,6.49-1.21,12.8,9.47,26.38,17.4,42.55,19.54,3.3.43,3.37,2.44,3,5.06-1.45,19-7.52,36.78-16.46,53.64-12.23,23.07-28.84,42.47-49,58.91v12.12a46.49,46.49,0,0,1,11.15-.35c15.69,1.38,29.7-8,43.3-15.72q10-5.67,19.93-11.58c2.7-1.61,4-1.45,4.24,2.08,1.61,21.6,6.71,42.63,10.57,63.85.81,4.46-.77,5.72-5,6.14-23.45,2.34-44.83,10.31-63.66,24.59-3.14,2.38-4.66,1.77-7-.89-3.92-4.4-8.31-7.69-13.54-8.29v5c4.14.75,7.55,3.79,10.81,7.08,2.07,2.09,2,3.56-.2,5.57A97.06,97.06,0,0,0-.08,779.5v7.39A121,121,0,0,1,8.44,776.7c8.94-9.82,7.13-8.42,13.17,1,5.7,8.93,10.83,18.25,19.35,25,17.79,14,37.31,9.93,47.76-10.22,6-11.67,7.4-24.3,7-39.5,0-.17,0-1,0-1.77-.35-12.84-.35-12.84,12.87-12.32,19.65.78,19.4.87,25.8,19,4.68,13.31,10.23,26.31,15.19,39.52A60,60,0,0,1,153.06,810c1.64,11.79-4.87,18.32-16.77,16.84-5.33-.66-10.54-2.25-15.85-3.2-20.56-3.66-36,8.53-37.56,29.45-1,13.63,2.81,26.3,7.33,38.85,1.06,3,2.1,5.91,3.07,8.87h4.79c-1.39-4.2-2.91-8.33-4.36-12.48-4.2-12-8.19-24-5.75-37.06,3.52-18.81,15.64-26.84,34.23-22.56,4.45,1,8.91,2.28,13.42,2.59,17.35,1.19,26.5-9.76,21.36-26.37-4.11-13.26-9.61-26.09-14.41-39.14q-3-8.17-5.66-16.48c-.54-1.68-1.3-4.19-.51-5.2,1.16-1.5,3.45-.08,5.16.43,29,8.63,54.72,23,76.27,44.3,21.22,21,34.94,45.73,36.31,76.31.22,4.71-.86,8.15-4.57,11.39a347.31,347.31,0,0,1-27.4,21.58c-3.25,2.31-4.95,2.12-7.35-1.27-6.54-9.24-15.09-15.86-26.39-18.59-20.26-4.9-36.78,4.08-42.63,22.55h5c3.65-10.9,10.59-16.85,21.54-18.7,14.91-2.53,33,6.1,39.79,18.7h14.49a233.61,233.61,0,0,0,23.91-18.28,12.45,12.45,0,0,1,2.62-1.35c.19.93.38,1.87.41,2a139.78,139.78,0,0,1-3.25,17.63h4.92a132.71,132.71,0,0,0,3.24-21.15c.25-3.54.83-7,4.15-8.4s4.17,2.57,6,4.2c23.47,21.25,50.63,23.07,79.33,14.5,6.67-2,7.83-.47,8.69,5.59q.38,2.64.73,5.26h4.71c-.52-3.35-1.1-6.69-1.75-10-.76-3.87.19-6,3.63-8a52.21,52.21,0,0,0,19.74-19.53c3.63-6.52,9.44-4.83,14.63-5.51,2.94-.39,1.7,2.26,1.37,3.58a76,76,0,0,0-2.53,17.22c-.13,9.05,2.27,16.64,6.56,22.27h6.65c-5.1-4.4-8.31-11-8.87-19.35-.5-7.57,1.53-14.79,3.5-22,1-3.56,3.88-3.38,6.34-3.94,31.59-7.22,57-23.37,74.28-51.27a103.74,103.74,0,0,0,15.24-48.84c.23-3.67,1.78-5.51,4.65-7.24a462.53,462.53,0,0,1,44.64-23.46c4.16-1.93,5.54-1.39,6.4,3.16a290.16,290.16,0,0,1,5.52,55c-.54,18.8-2.6,40.44-10,61.24-4.16,11.71-10.16,22.3-19.87,30.4-12.93,10.78-31,12.38-42.11,4-3.32-2.51-4.24-4.52-1.64-8.55a93.89,93.89,0,0,0,14.19-40.81c.69-6.17.69-12.9-6.48-15.15s-11.23,3.18-14.13,8.62c-8.42,15.75-11,32.08-3.55,49,.82,1.85,1.31,3.28-.13,5.08-8,10-16.92,18.64-27.84,24.11h8.78A93,93,0,0,0,479.05,883c2.64-3.11,4-4.48,8.05-1.25,13.12,10.41,33.62,8.56,48.34-3.79,12.11-10.17,18.52-23.83,22.86-38.59a205.81,205.81,0,0,0,8.24-55.06c-.07-23-2.16-41.11-6-59-.8-3.69.12-5.06,3.43-6.4,24.5-9.91,50.08-16.58,75-25.29.88-.31,2.5-.59,2.78-.19,1.07,1.55-.05,3.13-.57,4.65a192.18,192.18,0,0,1-41.73,69.48c-5.95,6.38-12.25,12.47-17.85,19.14-8.44,10.06-13.68,21.46-11.1,35,2.66,14,11,23.25,24.81,26.68s26-.36,35.15-11.68c10.51-13,13.13-28.9,15.3-44.82,2.38-17.48,3.77-35.12,8.85-52.15,2.66-8.91,6.59-17.06,13.88-23.18,9.49-8,19.07-6.59,25.88,3.8,4.36,6.64,5.74,14.17,6.21,21.93.77,12.71-.61,25.34-1.69,38a129.46,129.46,0,0,0,4.86,48.69c1.75,5.83-.12,6.3-5,5.42-10.63-1.9-21.28-3.68-32-5.18-18.47-2.57-30.2,4-32.84,18.54-2,10.79,3.28,18.93,10.75,25.84,19.19,17.76,52.13,19.37,74.52,3.07,5.29-3.85,8.1-3.76,11.44,1.47,1.52,2.39,5.46,5,5,6.51-.85,2.69-5,1.9-7.74,2.38-23,4-46,8.38-68.64,13.85h22.35c9.33-2,18.66-4,28-6.13,18.52-4.22,35.19-5.63,51,6.13h7.76a120.53,120.53,0,0,1-16.47-10.28c-2.16-1.61-2.46-2.83.78-3.26,1.43-.18,2.84-.62,4.26-.88,15.69-2.89,16.41-2.31,17.14,13.93,0,.18.06.34.08.49h4.68c-.32-1.65-.57-3.33-.85-5-.57-3.27-1.06-6.55-1.58-9.83-.3-2.34.71-3.32,3-3.84,14.35-3.3,28.66-6.74,43-10.13.93-.22,2.08-1,2.66.25.25.54-.27,1.57-.67,2.25a206.64,206.64,0,0,1-18.11,26.28h6c5.94-7.8,11.72-15.72,16.29-24.38a18.45,18.45,0,0,1,12.32-10c16.6-4.68,32.59-11.09,48.38-18a41.42,41.42,0,0,1,4.56-1.39,28.66,28.66,0,0,1-.34,4.84c-5.14,21.2-17.62,38.27-34.95,48.94h8.47c15.24-11.61,24.78-28.6,30.48-49.17.49-1.76,1.18-3.47,1.78-5.21,1.87,1.23,1.71,3.44,2.49,5.18,9.27,20.7,23.83,35.26,46.7,40.12,4.52,1,9.6,1.88,13.54,0,11.48-5.6,16.1,4.2,22.83,9.12H995.2c-.81-1.66-.2-3.63,1.32-6.4,7.85-14.24,17.38-27.34,26.41-40.79,11.42-17,21.69-34.61,23.88-55.52,1.72-16.54.06-32.49-11.65-45.64-2.53-2.84-.66-4.39.7-6.38,8.19-12.11,13.42-25.25,14-37,.08-23.91-15.4-34.86-35.39-27.94-11.35,3.94-19.83,11.9-27.84,20.46a23.56,23.56,0,0,1-2.74,2.2,15.24,15.24,0,0,1,0-3.51c1.9-7.94.34-14.43-7.42-18.48-2.61-1.36-1.34-2.41.3-3.4a40.88,40.88,0,0,0,15-15.49c1.24-2.26,2.58-2.59,5-1.86q40.38,12,73.08-14.66c.32-.26.66-.5,1-.74,22.88-16.12,44.49-6.93,49.15,20.91,1.77,10.5-2.63,18-13,20.78-5.57,1.49-11.44,2-17.22,2.55-28.23,2.82-42.7,26.2-32.62,52.86A65.57,65.57,0,0,0,1073,766.43c2.55,2.5,2.85,4.07.76,7.2-21.36,32-26.08,65.43-7.6,100.56a11.54,11.54,0,0,1,1,5.37,161.68,161.68,0,0,0,1,21.24h4.36c-.49-4.14-.78-8.32-1.15-12.48-.1-1.17-.14-3.1.48-3.44,1.79-1,2.32,1.13,3.13,2.1a97.33,97.33,0,0,0,14.2,13.82h7.59a98.09,98.09,0,0,1-23.2-23.59,7.85,7.85,0,0,1-1.74-5.77c3.84-31.55,17.33-57.33,44.54-75a13.37,13.37,0,0,1,10.54-2c15.21,2.79,30.26,1.83,44.76-3.74a10.19,10.19,0,0,1,9.87.83,67.4,67.4,0,0,1,21,20.06c2.33,3.39,2.09,5-1.8,6.9-15.37,7.52-29.73,16.63-42.37,28.26-5.39,5-10.13,10.47-12.48,17.6-3.36,10.2.11,18.69,9.94,24.08,8.93,4.89,18.83,6.29,28.71,7.72,1.33.19,3.45-.48,3.69,1.28.13.92-1.51,2.26-2.56,3.16l-.25.2h7.11l.45-.38c2.09-1.85,4-3.21,7-3.08,23.9,1,47.12-3.27,70.12-9.2,3.74-1,15.18,7.67,14.76,11.2a1.93,1.93,0,0,1-.93,1.46h15.74a6.12,6.12,0,0,1,3.09-1.34A121.58,121.58,0,0,1,1333.6,896a160.81,160.81,0,0,1,40,4.85h21.47a6.07,6.07,0,0,1,.19-1.38c1.5-6.24,2.5-12.62,4.4-18.73,3.07-9.91,11.33-15.47,20-14.11,10,1.56,16.4,9.47,16.43,20.26a91.69,91.69,0,0,1-2,14h4.66c.39-2.15.79-4.41,1.16-6.68V881.36c-2.56-13.36-13.36-21.92-26.81-19.14-10.62,2.19-15.89,9.69-18.8,19.53-1.79,6.08-.25,15.17-5.32,17.61-4.29,2.06-11.66-2.48-17.71-3.86-23.64-5.38-47.33-6.28-71-.22-8.49,2.17-6.42-5.45-8.55-9-2.49-4.18,1.11-4.66,3.9-5.53a873.53,873.53,0,0,0,124.52-49.1,11.22,11.22,0,0,1,5.93-1.55c4.62.36,9.24.74,13.84,1.19v-4.65l-1.7-.19c-1.34-.14-3.67-.45-3.77-1-.33-1.81,1.79-1.93,2.94-2.54l2.53-1.36v-5.42q-7.26,3.92-14.6,7.67c-2.61,1.34-5.18,1.23-7.87,1.09-29.49-2.25-59-4.9-85.85-18.69-15.76-8.08-13.51-6.14-1.95-15.73,15-12.45,31.67-23,44.78-37.68,1-1.15,2.8-1.75,4.34-2.26A556.89,556.89,0,0,1,1435.21,735c2.84-.64,4.3-.65,4.71.7v-6.26a13.25,13.25,0,0,1-2.3.64c-17.29,3.52-34.34,7.92-51.21,13.07-1.31.4-3.43,1-4,.34-1.14-1.2.55-2.54,1.19-3.71,5.42-9.93,8.36-20.34,6.08-31.69-.52-2.64.57-3.72,2.72-4.71A221.32,221.32,0,0,0,1439.92,674v-5.92a11.06,11.06,0,0,1-.83.76,220.29,220.29,0,0,1-47.81,30c-2.17,1-3.55,1.3-4.75-1.51-7.71-18-22.08-29.7-37.8-40.18-1.44-.95-3.93-1.24-3.68-3.46,0-.46,3.26-.56,3.49-.6,20.48,1.11,38.79,6,57.4,9a235.58,235.58,0,0,0,31.6,2.51,12.62,12.62,0,0,1,2.38,0V654c-13.92-18-31.94-31.78-48.82-46.74-4.67-4.13-9.56-8-14.23-12.14-1.09-1-3-1.44-2.9-3.47a41.87,41.87,0,0,1,4.2.73c16.68,4.68,33.46,6,50.5,2a79.18,79.18,0,0,0,11.25-3.57v-5.09a84.9,84.9,0,0,1-33.28,6.17c-27.28-.1-50.18-9.65-67.65-31.15-4.26-5.24-1.46-10.79-.83-16.06.33-2.78,3.08-.25,4.45.23,22.3,7.73,44.14,6.62,65.38-3.57,11.77-5.65,20.79-14.34,26.32-26.37.77-1.68,1.45-3.31,3.44-4.16.75-.32,1.45-.66,2.17-1v-5.42a1.48,1.48,0,0,1-.94,0c-2.13-1-.19-3.23,0-4.91,1.11-12.48-.49-24.16-9.94-33.42-11.53-11.29-30.17-11.54-39.72-.69s-7.12,28.42,5.53,38.69c8.61,7,18.66,9.71,29.63,9.48,1.38,0,3.41-.27,4,.49,1.27,1.55-.47,3.09-1.34,4.35-14.8,21.46-36.47,27.36-61,26.78l-.63-.06c-26.6-2.68-27.51-3.66-27.52-29.77V504.78c-.5-24.91.23-48.35,7.63-71,5.52-16.9,13.85-32,28.13-43.22a54.55,54.55,0,0,1,34.12-11.72c2.63,0,5.45-.25,7.08,2.76,7.27,13.44,15.93,25.94,25,38.19v-8c-5.84-8-11.53-16.09-16.66-24.57-1.08-1.79-3.86-3.9-2.2-5.78,1.5-1.71,4.27.31,6.35,1a65.44,65.44,0,0,1,12.51,5.77v-5.06a94,94,0,0,0-20-7.63c-3.32-.87-10.4-11.85-10-15.33.24-2,1.95-2.05,3.17-2.47,8.93-3.09,17.92-6,26.85-9.11v-8.9c-10-3.84-19.94-7.66-29.87-11.58-1.21-.48-3.32-.26-3.31-2.09,0-.72,1.64-1.61,2.69-2.14q15.22-7.77,30.49-15.5v-5.25q-18.8,9.48-37.54,19c-3.9,2-4-.51-4.44-3.15a191.43,191.43,0,0,1-3-31.62c.21-27.22,5.65-52.43,27.25-71.57a17.25,17.25,0,0,1,12.39-4.56c1.78,0,3.55.12,5.29.3v-5.26l-.73-.23a2.62,2.62,0,0,1,.73-1.14v-5.06a72,72,0,0,0-7.68,3.6,66.24,66.24,0,0,1-15,5.85c-18.42,4.92-34.26,14.75-48.63,27-8.37,7.14-16.36,14.74-24.38,22.28-2.49,2.33-3.76,3.39-5.31-.93-2-5.49-6.68-7.58-12.35-7.76-6.54-.19-12.76,1.56-19,3.06-6.48,1.56-13,2.92-19.7,2.3-15.4-1.43-23-9.64-20.66-24.86,3.08-20.11,8-39.9,17.09-58.33a41.25,41.25,0,0,1,9.08-12.55c3-2.73,6.37-4.66,8.78-4.53,8.24.23,12.61,4.07,16.62,8.38,6.21,6.69,11.91,13.92,18.51,20.2,10.42,9.91,22.83,14.4,37.19,10.15,20.27-6,26.57-26.32,13.46-42.83-5.36-6.75-12.37-11.67-18.94-17.08-12.39-10.22-24.3-20.87-32.1-35.25-.86-1.57-2.21-4.53-1.78-4.87,2-1.57,3.73.6,5.43,1.47,7.8,4,14.64,9.45,21.56,14.78,18.76,14.44,36.65,30.37,58.26,40.42q9.71,4.51,19.51,8.44v-9.44c-26.87-17.59-41.59-42.53-43.5-75.5-.27-4.58.85-6.59,5.73-7.25a120.4,120.4,0,0,0,34.47-10.35,11.73,11.73,0,0,1,3.3-1.09V43c-6.71-9.8-14.23-19-24.52-25.36-2.79-1.73-2.32-3.23-.7-5.43A134.23,134.23,0,0,1,1424.1.8h-6q-3.84,4.51-7.37,9.5c-1.62,2.29-2.9,2.79-5.57,1.64-34.46-14.86-61.42.59-74.37,34.06-2,5.14-3.51,5.64-8.06,2.94a123.27,123.27,0,0,1-42.59-41.21c-2.55-4.08-2.93-5.54,2.9-6.07,2.55-.24,5.07-.52,7.59-.86h-45.87a168.55,168.55,0,0,0,21.49,1.62c4,.05,6.28,1.21,8.31,4.82,11.36,20.26,27.55,35.78,47.9,46.87,3.41,1.86,5,3.69,4,7.71-1.54,6.11-1.09,12.37-.68,18.6.11,1.71,1.32,4.15-1.68,4.39-9.22.77-10.45,7.53-11.16,14.62-.79,7.82-2.86,14.7-11.05,18-9.8,3.93-19.2.54-23.16-9.23-2.72-6.7-4.28-13.86-6.47-20.79-2.35-7.46-6.07-13.85-14.49-15.54-8.7-1.75-14.73,2.94-19.87,9.08-9.26,11.07-12.76,24-12.18,37.61,0,9.14,1.92,17.59.2,26.12s-5.34,15.54-14.18,18c-8.39,2.38-14.21-2.67-19.53-8.23-7.43-7.78-9.71-17.62-11.11-27.84a92.86,92.86,0,0,0-2.27-11.6c-4.28-15.69-13.92-20.68-29.26-15-12.42,4.62-23.15,12.27-33.2,20.64-16.76,14-33.14,28.36-49.44,42.85-3.46,3.08-4.25,2.56-7-1.05-7.86-10.33-7.69-18.93,1.28-28.89,7-7.8,11.22-17.93,15.25-27.74,1.61-3.93,4.09-5.63,8-6.59,25.31-6.15,48.72-16.46,69.52-32.35,22.66-17.32,38.17-39.61,47.43-66.14h-5c-16.66,45.92-50.83,73.78-96.71,89.53-4.71,1.62-9.53,2.91-14.33,4.23a16.13,16.13,0,0,1-3.56.15,28.71,28.71,0,0,1,.76-3.48q8.53-24.06,17.12-48.09c.92-2.6,1.68-4.71,5.32-4.85,31.33-1.22,55.06-15,73.5-37.49h-5.38C1156.6,19.4,1131,32.85,1108,33.53c-4.36.88-4.09-1.22-2.74-4.44A264.51,264.51,0,0,1,1119.07.8h-5.55a239,239,0,0,0-12.89,27.59c-1.44,3.71-3.26,5.25-7.33,4.53a94,94,0,0,1-22-6.63c-4.23-1.89-3.46-3.23-.37-5.69A130.9,130.9,0,0,0,1091,.8h-6.11A165.27,165.27,0,0,1,1066.64,18c-3.27,2.77-5.45,2.4-8.43-.27a59,59,0,0,1-13.33-17h-5.32a59.33,59.33,0,0,0,15.14,19.67c3.48,3,3.09,4.16-.51,6.47-14.21,9.13-29.28,16.56-44.72,23.29-2.06.89-4.53,2.57-3.56-2.17,3.19-15.62,5.07-31.44,6.92-47.26h-4.23Q1005.44,25,1001,49.07c-.73,3.9-2.53,6-6.24,7.51C977.59,63.47,960.38,70.24,944,78.86a6.18,6.18,0,0,1-6.87-.24c-7.3-4.42-14.19-9.4-21-14.51-4.25-3.19-4.93-5-.44-9.1A555.92,555.92,0,0,0,968.18.8h-6.46A530.24,530.24,0,0,1,911.05,53.14ZM71.44,448.94c9-2.7,13.28-12.63,17.78-20.89,4.27-7.84,7.93-16.09,12.9-23.45,12.41-18.39,30.3-19.58,45.38-3.2,12.72,13.81,17.77,30.66,18.21,47.89-.13,20.06-6.13,36.24-20.86,48.66-3.43,2.89-4.8,3.23-6.28-1.87-4.28-14.74-14.56-22.51-27.93-22-10.86.4-19.16,8-20.08,18.44-.85,9.76,5.73,18.18,16.18,20.61,8.18,1.9,16.2.81,23.84-2.24,5.16-2.05,5.58-.05,4.82,4.2a44.23,44.23,0,0,1-15.82,26.8c-12.84,10.7-28,15-44.42,15.72-3.37.15-4.66-1.07-4.83-4.63a133.71,133.71,0,0,0-21.46-66.84c-1.68-2.62-2-4.7-.39-7.37a80.38,80.38,0,0,0,4.17-8.36C56.69,461.33,59.69,452.47,71.44,448.94Zm63.22,53.51c-1.91,6.88-12.14,5.56-17.92,6.67-14.95.07-23.34-7.64-21.14-18.33a15.58,15.58,0,0,1,18.72-12.09,28,28,0,0,1,8.49,3.63C130.23,487,136.88,494.47,134.66,502.45ZM33.66,405c2.4-10.3,4.23-11.06,13.57-5.56,10.06,5.92,13.46,15.23,13.43,26.3,0,5.44-1.48,10.66-2.29,16-1.17,7.62-4.92,7.22-10.28,4.34C35.65,439.34,29.62,422.33,33.66,405Zm-31-3.9c-1.63-3.67.17-4.34,2.95-4.73,5.33-.76,10.67-1.45,14.23-1.93,3.48,0,5.15.15,6.79,0,4.22-.46,4.9,1.2,3.74,5-3.55,11.68-3.49,23.32,1.56,34.63,3.86,8.65,9.49,15.64,19.08,18.29,3.07.85,3.4,2.21,2.18,4.85-2.7,5.83-5.25,11.73-7.8,17.62-1.23,2.86-2.44,2.69-4.23.37a119.3,119.3,0,0,0-24.46-23.77,5.9,5.9,0,0,1-2.41-4.73A148.2,148.2,0,0,0,2.64,401.07ZM16.05,527.21c-1.58,3-2.68,3.24-5.42,1.15C-.73,519.71-.75,519.83,5.26,506.9c6.66-14.34,9.46-29.51,9.42-45.27,0-4.48.08-4.48,1.71-4.41.45.29,1,.61,1.47,1,.67.5,1.31,1,1.95,1.55,23.42,19,23.58,19.94,8.51,45.84C24.15,512.74,20,519.9,16.05,527.21Zm43.17,28.45C44.87,552,32.41,544.78,20.6,536.16c-2.11-1.55-2.33-2.92-1.05-5.16Q31,511,42.15,490.89c2-3.54,3-2.13,4.46.25a131.53,131.53,0,0,1,19,60.18C66.83,556.28,64.43,557,59.22,555.66ZM483,868.75a12,12,0,0,1-1.81-3c-1-4.42-1.85-8.89-2.41-11.7.69-11.37,2.93-20.56,7.31-29.21,1.38-2.73,2.95-4.25,6.34-2.68,3,1.39,6.24,1.74,5.67,6.57a95.05,95.05,0,0,1-12.67,37.41A17.28,17.28,0,0,1,483,868.75Zm934.23-360.7c-10.07-.67-18.85-5-25-13.49-5.27-7.3-5.59-17.29-1.08-24.06s13.71-9.87,22.74-7.66c12.95,3.17,20.56,14.12,20.61,29.68C1433.3,509.71,1433.87,509.15,1417.22,508.05ZM798.7,89.13c.93,1.31,1.9,2.61,2.8,4,2.89,4.31,5.29,9.07,8.76,12.83,4.38,4.75,2.5,6.39-2.35,8.39-8.66,3.57-8.51,3.77-8.82-5.19-.16-5-.59-10-.94-15.62C798.35,92.52,796.84,90.61,798.7,89.13Zm-.8,47.5c1.32-14.95,2.93-17,17.33-21,4.78-1.33,6.39,3.29,8.6,5.72s-1.61,3.49-3.06,4.62c-5.86,4.62-11.93,9-18,13.39-1.47,1.07-3.84,3-4.53,2.6C796.29,140.74,798.27,138.33,797.9,136.63Zm-.11,11.86c9.67-7.16,19.39-14.24,29.11-21.33a17.66,17.66,0,0,1,2.31-1.18c1.27.84,2.49,1.58,3.64,2.42a111.28,111.28,0,0,0,30.66,16.23c3.91,1.32,4.8,2.45,2.61,6.4-3.7,6.69-6.78,13.75-9.8,20.78-1.26,2.93-2.46,3.62-5.54,2.3-17.15-7.33-34.39-14.44-51.58-21.69C797.53,151.71,794.35,151.05,797.79,148.49Zm226.4,30.43c9.67,15,7.48,27.31-3.32,41.51-13.07,17.2-20.63,37.82-26.91,58.59-1.11,3.66-2.73,5.5-6.62,6.11-32.33,5.06-61.09-1.13-84.15-26-3.69-4-4.3-6.38,1.57-9.28,10-4.92,18.73-11.69,24.36-21.61,4.92-8.66,6.58-17.49-.19-26.18-.58-.74-1.95-1.52-1-2.53.52-.56,1.88-.44,2.87-.45,3.94,0,7.88,0,11.83,0A141.2,141.2,0,0,0,1018.1,177C1021.47,174.87,1022.07,175.65,1024.19,178.92Zm-.36-20.69c.5-6.32,1.38-11.38,6.75-14.16,3.86-2,7.53-1.44,11.19.74,3,1.76,3.83,3.47.88,6.11-3.69,3.31-7.07,7-10.85,10.19-1.91,1.63-3.88,5.17-6.33,3.69C1023.91,163.86,1024.18,159.89,1023.83,158.23Zm9.52,50.9c1.8-2.52,2.77-1.82,3.52.62,1.85,6,3.21,12,3,18.32-.05,22-17.45,46.08-37.75,52.51-3,.94-3.95.5-2.95-2.63A248.13,248.13,0,0,1,1033.35,209.13Zm55.84,89.19c-5-19.36-9.71-38.76-5.65-59a37.73,37.73,0,0,1,1.78-5.18,45.39,45.39,0,0,1,2.23,5c10.57,33.6,18.64,67.66,18.92,103.15,0,17.35-2.07,34.38-7.35,51a13,13,0,0,1-5.79,7.67c-26.5,16.47-55.31,21.83-86.06,18.26a8.2,8.2,0,0,1-7.07-5.09C993.47,400.5,990.44,385.94,989,371c-.11-1.16-.13-3.15.41-3.39,1.68-.74,2.36,1.21,3.32,2.14,7.75,7.57,15.91,14.61,25.34,20.07,15.29,8.85,31.36,12.2,48.41,6,20.5-7.44,29.11-23.53,30.86-44.17C1098.86,333.24,1093.69,315.82,1089.19,298.32ZM1257,349.87a130.67,130.67,0,0,0-3.45-30.8c-.72-3.17-.45-4.91,3.48-5.4,28-3.49,51.68-16,72.48-34.64,1.25-1.12,2.69-3.79,4.15-2.62s-.62,3.4-1.54,4.91c-4.31,7.09-8.8,14.08-13.21,21.11-8.77,13.95-4.14,25,11.86,28.78,11.11,2.61,21.88.41,32.66-1.87,6.32-1.34,12.65-2.51,19.12-2.43a42.39,42.39,0,0,1,6,.89c-.63,2.41-3,2.54-4.7,3.41-14.43,7.4-28.61,15.24-41.74,24.8-24.3,17.7-44.58,38.63-54.19,68-.76,2.31-2.51,3.75-4.13,5.35C1228,484.24,1195.3,550.57,1185,628c-1,7.6-1.26,15.32-1.56,23-.14,3.39-.69,5.1-4.62,3.85-43.21-13.71-74.85-39.57-88.76-84.17-1.49-4.78-1.79-6.77,4.85-5.64,27.61,4.71,54.31,2,78.84-12.68,27.3-16.32,40.29-45,30.56-71.85-3.93-10.84-4.49-19.23,1.3-29,3.66-6.19,4.73-13.68,5.44-21,.23-2.28.35-4.46,3.11-5.51,25.63-9.81,36.22-30.85,41.25-55.84A78.16,78.16,0,0,0,1257,349.87Zm76.12,195.59c-.52,2,.89,5.5-1.08,6.17-2.56.88-3.77-2.61-5.22-4.4-4.82-6-9.4-12.12-14-18.27-.64-.86-2-1.73-1.08-3,.15-.21,1.84.45,2.63,1,5.65,3.87,11.19,7.88,16.88,11.68C1334,540.42,1333,543,1333.16,545.46Zm-4.43,11.12c1.81,2,4.46,4.19,2.35,6.88-1.85,2.35-4.1-.45-5.95-1.27-27.27-12-54.53-15.35-82-.51-3.81,2.06-4.44,1.13-4.08-5.8,1.1-21.26,12.27-37.1,29.43-41.65,10.8-2.87,20.94-.58,30.77,4.07a9,9,0,0,1,3.78,4A213.72,213.72,0,0,0,1328.73,556.58ZM1209.08,675.85c1.91,9.89,5.77,19.41,8.14,29.3,1.64,6.83-.39,8.57-6.72,7.39a24.16,24.16,0,0,0-4.34,0c-13.19-.64-13.24-.63-15.08-13.69a268.9,268.9,0,0,1-3-31.56c-.08-3.57-.17-5.17,4.83-4.9C1202.28,662.86,1207.2,666.14,1209.08,675.85Zm22.12-99.49c2.88-3,4.57-4.37,6.17,1.28,3.69,13.07,12.2,22.92,22.73,31.15a230,230,0,0,0,31.33,20.29c4.61,2.52,3.86,3.85.22,6.53-20.9,15.42-44.51,22.71-70.21,24.24-2.7,0-5.4-.07-8.09,0-3.22.1-4.66-1.21-5.31-4.56C1202.17,625,1209.55,598.6,1231.2,576.36Zm-26.6,140.4c15,.39,15.64,1.24,12.61,15.92a69,69,0,0,1-8.13,20.75c-.67,1.16-1.13,3.1-2.78,2.82-.71-.12-1.29-2-1.63-3.15-2.68-8.92-5.43-17.84-7.88-26.83C1194.12,716.52,1194.25,716.49,1204.6,716.76Zm5.62,43.55c7.75-11.39,12.41-23.9,13-37.73.15-3.46,1.52-4.43,5.85-3.34,12.79,1.34,26.82,2.88,40.86,4.21,3,.28,3.7,1.61,3.8,4.34a88.83,88.83,0,0,0,16.64,48.77c2.47,3.5.89,4.49-2.07,5.66q-28.66,11.29-57.25,22.75c-2.72,1.09-4,.53-5.31-2-6-12.08-11.56-24.35-16.46-36.93C1208.39,763.7,1209,762.14,1210.22,760.31Zm59.64-41.2c-15.58-1.91-29.37-3.66-43.19-5.23-2.56-.29-3.61-1.35-3.93-3.79-1.81-14.09-6.9-27.31-11.19-40.73-1.27-4-.34-5.11,3.75-5,30.8.54,58.52-8.26,82.62-27.72,1.84-1.48,3.33-2,5.53-.68,6.78,4,13.67,7.86,20.48,11.84a12.74,12.74,0,0,1,2.17,2.06,20.44,20.44,0,0,1-2.74,1.25c-30.87,9.36-43.72,32.93-48.74,62.36C1273.84,718,1272.68,719.9,1269.86,719.11Zm32.73-93.17c-1.61,1.63-3,2.46-5.39,1.12-16.67-9.42-34.39-18-45.66-34-17.31-24.59-15.37-26.43,11.49-34.19,22.45-6.48,44-.56,64.46,9.71,1.83.92,3.23,2,2.3,4.22C1325.75,593.19,1317.27,611.15,1302.59,625.94ZM1296,511c-.44.49-2.3,0-3.4-.43-28.88-10.19-56.39,10.75-57.82,43.39-.4,9.39-3.13,15.48-9.64,22.24-20.36,21.15-26.59,47.17-22.57,76,.31,2.23,3.32,7-1.55,6.46-4.46-.46-12.21,3.14-13-6-.24-2.67,0-5.39,0-8.09,7.31-79.11,37.44-147.84,92.59-205.31.92-1,1.78-2.92,3.32-2.06.64.36.43,2.64.24,4-3.26,23.16,1.39,45,11,66C1295.62,508.34,1297.12,509.69,1296,511Zm-213.86,40.71c.52,5-.76,5.49-5.24,4-18.44-6.27-33.93-18.22-51.37-26.43-4.13-2-2.48-7.44-3.2-10.45,0-10.45,3.44-15.67,12.57-17.43,8.34-1.62,12.95-6.67,16.15-13.89,2.52-5.67,4.57-11.62,8.69-16.42,4-4.65,8.34-5.34,12.61-.45,5.75,6.59,11.71,12.93,19.06,17.75,2.6,1.7,1.47,3.39.59,5.26A107.12,107.12,0,0,0,1082.13,551.68ZM693.24,650c.76-2.24-.56-6.8,1.58-6.18,3.08.89,6.86,4.45,7.44,7.43s-4.13,7.27-6.54,7C692.2,657.83,694.28,652.85,693.24,650Zm-53.56-11.2c-2-2.53-.73-4,.63-6a50.37,50.37,0,0,0,9.62-29.08c.42-27.55-13.38-41.12-40.69-39.81-20.6,1-26.42-3-34.6-23-1.77-4.31,1.36-4,3.33-4.7,15.9-5.53,32.2-5.6,48.6-3a160,160,0,0,1,52.78,17.92c3.59,2,4.88,3.55,3.23,8.09-9.08,24.89-7.87,49.3,5.19,72.66,3.17,5.66,0,11.57,1.43,17,3.62,13.27-3.49,19.63-14.28,24.24-7.06,3-14,6.34-20.91,9.64-3.34,1.6-5,1.4-4.32-2.94C652.08,664.87,649.09,651,639.68,638.84ZM494.56,572.1c-11.05-25.18-32.13-37.69-57.74-44a132.17,132.17,0,0,0-26.46-3.9c-4.17-.16-5.92-1-4.8-5.86a120.82,120.82,0,0,0,2.52-31.59c-.1-2.9.37-5.07,2.59-7.18a93.93,93.93,0,0,0,22.11-32.1c1.33-3.17,2.73-4.5,5.75-2a1.51,1.51,0,0,0,.55.28c14.61,5.06,24.12,14.2,30.9,28.92,9,19.62,27.22,31.52,45.85,41.69,5.27,2.88,6.56,4.88,4.21,11.11-10.94,29.06-8.4,58.5.46,87.45,5.77,18.83,13,37.23,20,55.67,2.09,5.53.32,6.84-4.72,7-4.78.1-9.55.53-14.32.82-17.28,1-17.15,1-19.31-15.81A108.59,108.59,0,0,0,490.5,626c-1.31-2.51-2.09-4.4,0-7.24C501.18,604.11,501.62,588.18,494.56,572.1ZM254.62,434.33c2.18-1.39,3.95,2,6.11,3,.37.17.66.5,1,.71,10.55,6.38,18.35,14.25,23.83,26.25,10.25,22.4,30,34.16,53.95,38.83,4.39.85,15.24,11.85,15.84,16.17.39,2.75-1.58,1.77-2.73,1.65-26.85-2.79-52.41-9.23-73.38-27.51-15.74-13.72-24.69-31-25.51-53.24C253.9,438.88,253.33,435.16,254.62,434.33Zm33.41,22c.7.44,1.4.88,2.08,1.35,15.74,10.88,30.94,22.43,44.51,36,1.07,1.08,2.79,1.89,2.55,3.88a28.55,28.55,0,0,1-4.16-.6c-20.17-5.83-35.37-17.85-45.1-36.54C286,456.77,286.21,456.13,288,456.29Zm56.69,40.78C328.35,479.15,309,464.81,289,451.34c-4.69-3.15-6.42-6.75-6.89-12.11-2.44-27.65,16.58-49.9,46.12-49.57,16.63.77,32.79,9.83,46.33,23.93C391.26,431,400.05,452.12,402.8,476c.36,3.1-.39,5-2.84,6.86-14.4,10.82-30.41,16.82-48.57,16.65C348.85,499.46,346.67,499.21,344.72,497.07Zm33.21-86.74a81.7,81.7,0,0,0-40.43-23.42c-32.95-7.91-59.84,13.23-59.83,47.14-.16,2.64.46,7.12-.61,7.57-2.8,1.18-4.94-2.11-7.23-3.67-17.07-11.66-17.07-11.72-10.6-31.79,5.58-17.33,14.45-33.07,23.85-48.54,12.3-20.24,25-40.29,32.95-62.78,1-2.78,2.11-3.42,5-2.59,9,2.59,18,4.87,27.05,7.31a17.69,17.69,0,0,1,2.63,1.19,18.3,18.3,0,0,1-1.9,2.2c-16.69,14.31-21.63,33.51-13,53.82,8.71,20.64,24.07,34,46,39.27a15.55,15.55,0,0,1,10.2,7,129.33,129.33,0,0,0,34,34.37c3.6,2.48,4.49,4.53,2.55,8.57-4.24,8.87-9.11,17.28-15.66,24.63-1.46,1.63-2.6,4.47-5,4-.86-.18-1.16-3.68-1.5-5.71C402.55,446.56,393.73,426.73,377.93,410.33ZM325.3,250c.25-4.31,3.51-4,6.09-4.77,19.22-5.62,32.48-22.48,32.22-41.28.45-1.54-1.44-4,.51-4.84,1.05-.45,3.26,1.26,4.69,2.33,11.61,8.74,23.14,17.59,34.76,26.32,2.55,1.91,3.65,3.38,1,6.32-16,17.51-29.69,36.4-33.5,60.67-.39,2.5-2.06,2.73-4.07,2.75-16.09.21-30.84-5.84-46-9.83-2.35-.62-1.8-2.26-1.36-4A176.7,176.7,0,0,0,325.3,250Zm-13.39-8.45C286,236.76,271,216.28,277.73,194.2c2.22-7.32,6-13.49,14.38-14.58,8.25-1.07,13.89,3.42,17.93,10,8.34,13.53,10,28.81,11.45,46.36C323.3,242.61,318.9,242.87,311.91,241.57Zm127.52-33.71c13.05,31.42,20.25,64,20.53,98.11.07,17.38-1.92,34.4-8.75,50.59a61.2,61.2,0,0,1-8.4,14.51c-1.21,1.51-2,4.33-4.33,3.7-1-.28-1.51-3.1-2-4.83-6.48-22.41-17.47-42.1-34.85-58a18.37,18.37,0,0,1-2.08-2.75,17.44,17.44,0,0,1,3.44-.63c7.92.17,15.8,0,23.53-1.94,16.09-4,22.64-14.53,19.06-30.72-3.77-17.07-14.69-29.55-27.06-40.89-3.69-3.39-4.28-5.37-.61-9.21a184.64,184.64,0,0,0,15.46-18.72C436.46,202.87,437.62,203.51,439.43,207.86Zm-12.71-29.81c-10.5-12.43-22.83-22.91-34.88-33.71s-23.68-21.47-33.45-34.22c-.84-1.1-2.15-2.74-1.83-3.64.68-2,2.87-.53,4.35-1,11.27,1.22,21.11,5.79,30,12.67,8.56,6.65,15.87,14.6,23.33,22.39,9.21,9.64,19,18.57,30.86,24.9,2.76,1.47,3.58,3.12,2.27,5.9-.35.75-.51,1.58-.8,2.35-2.41,6.38-3.83,14.3-9.47,17.46C435.08,192.3,430.52,182.55,426.72,178.05ZM381.88,386.4a37.22,37.22,0,0,1,1.53,4,13.87,13.87,0,0,1-3.5.19c-27.44-5.44-48.34-36.42-42.23-62.87,2.74-11.87,9.21-20.83,21.59-24.21,7.62-2.08,9.93-.18,9.46,7.32-.28,4.55-.53,9.11-.8,13.67C367.71,346.24,371.91,367,381.88,386.4Zm-8.32-77.14c.36-3.05.95-4,4.5-3.76,8.42.68,14.95,4.74,20.77,10.22,17.78,16.73,28.1,37.71,34.53,60.91.91,3.28-.64,4.94-3,6.65-8.36,6-20.73,9.88-33.07,10-4.51,1-7.4-1.5-9.86-6.19C374.56,362.53,370.35,336.6,373.56,309.26Zm25.66,88.63c11.64-.42,22.58-3.29,32.39-9.71,2.85-1.86,4.06-1.36,4.3,2,.38,5.17.8,10.34,1.07,13.79a127.24,127.24,0,0,1-3.67,28.21c-.76,3-1.82,3.66-4.57,1.67a142.43,142.43,0,0,1-32.06-32C393.91,398,396.31,398,399.22,397.89Zm41.94-119.44c2.5,12.77-2.45,20.21-15,23.71-6.27,1.74-12.7,1.93-19.14,1.83-9.59-.22-19-1-28.08-4.68-2.7-1.09-4-1.82-3.45-5.16,4.07-23.46,18.34-40.94,33.49-58,1.45-1.62,2.69-1.5,4.18-.1C425.79,248,437.65,260.57,441.16,278.45Zm77.93,309.33c-2.59-20.42-2-40.57,5.52-60.12,1.48-3.85,3-5.34,7.16-3.13,8.69,4.59,18.63,5.64,27.71,9.19,3.27,1.28,6.36,2.14,1.35,6.14-14.24,11.36-17,28.16-7.75,44,7.78,13.3,19.86,21.49,33.51,27.74,12.44,5.69,25.47,10.17,36.95,17.83,9.48,6.33,9.59,6.82.81,14.08-21.55,17.84-46.91,27-74,32-2.16.42-3.6-.16-4.32-2.43C537,644.64,522.9,617.82,519.09,587.78ZM700.34,215c6.72-3.09,12.65-7.93,18.83-12.15,2.62-1.79,4.42-2.37,6.55.84,5.17,7.81,10.17,15.72,13.81,24.36,2.27,5.39,1.84,9.9-4,13.73a103.69,103.69,0,0,1-51.06,17.17c-5.63,1.68-7.46-1.48-5.74-8a5.39,5.39,0,0,0,.31-1.84C677.36,232.25,685.48,221.83,700.34,215Zm-18.29,1.33h.56c.76-14.49,1.65-29,2.21-43.46.2-5.14,1.78-5.28,5.79-3,10.56,6.13,19.18,14.39,27.15,23.48,2.24,2.54,1.9,4-.91,5.75-10.38,6.46-20.63,13.13-31,19.66a14.89,14.89,0,0,1-3.38,1.11Zm48.89-21.15c2.43-1.59,2.75.5,3.17,2,1,3.8,2,7.62,3,11.65-.16.59-.34,1.29-.53,2a7.81,7.81,0,0,1-1.25-1.18c-2.19-3.27-4.28-6.61-6.52-9.85C726.84,197,729.33,196.23,730.94,195.17Zm-50.42-23.53c-.65,4.51-.52,9.12-.74,13.69h.15c-.86,11.39-1.81,22.78-2.54,34.18-.21,3.41-1.37,5.63-4.48,7.41-10.82,6.19-21.48,12.66-32.15,19.11-2.49,1.5-4.54,2-7.42.4-20.51-11.47-27.16-34-15.91-54.56,11.07-20.24,35.75-32.43,56.51-28.29C678.87,164.57,681.3,166.22,680.52,171.64Zm-34.29,77.08c7.84-4.7,15.68-9.4,23.58-14,1.72-1,3.5-3.45,5.34-2.4s.16,3.8.47,5.66c-.58,5.28-1.3,10.43-1.65,15.61-.3,4.45-2.25,5.41-6.49,4.58-7.14-1.41-14.25-2.82-21-5.52-.93-.37-2.3-.88-2.48-1.58C643.55,249.54,645.27,249.3,646.23,248.72ZM676.42,269c.63-4.2,2-5.37,6.14-5.43,19-.27,36.34-5.86,52.29-16.08,1.78-1.15,3.51-4.06,5.67-2.67,1.93,1.24.62,4.25.72,6.48a48.75,48.75,0,0,1-.23,5c-4.64,50-25.81,90.45-68.27,118.62-4.09,2.71-9.34,7.72-12.88,5.86-2.8-1.47.6-8.68,1.31-13.31C666.2,334.57,671.5,301.79,676.42,269ZM661,386.41c54.36-27.85,80.7-73.57,84.71-133.43.13-2,.42-3.94.63-5.9,2.49,1.15,2.17,3.77,2.8,5.77,7.5,23.74,10.61,48.16,11.12,73-.29,20.86-2.72,41.37-9.18,61.33-1.36,4.21-3.28,5.71-7.53,5-15.73-2.76-31.42-5.83-47.23-8-13.76-1.85-27-.4-37.49,10.43a11.2,11.2,0,0,1-2,1.32c-.07-.92-.22-1.84-.2-2.76C656.76,390,657.91,388,661,386.41Zm131.79-112c2.93,4.15,3.42,6.37-.91,10.41-20,18.68-24.81,42.83-22.72,68.93.67,8.37-4,13.65-8.91,19.1,8.67-45.15,4.89-89.33-10.43-132.59-.89-2.52-.54-4.18,1.41-6a136.24,136.24,0,0,0,22.21-27.56,22.28,22.28,0,0,1,1.46-1.9,5.48,5.48,0,0,1,.39,2.07C769,232.49,778.5,254.11,792.81,274.38Zm22.92,160.87c.55,8.82,6.39,15.64,16.55,18.92,12.67,4.08,25.9,3.11,38.92,4.05,1.75.13,4.52-.81,5,1.08s-2.41,2.32-3.86,3.25c-21,13.48-29.84,35.87-23.13,59.88,1.26,4.52.52,5.57-4.07,5.9-16.09,1.18-31.94-.41-47.74-3.18a10,10,0,0,1-6.31-3.56C768,493.76,755.39,462,754.7,422.65c.5-4.65,1.38-12.28,2.15-19.91.38-3.8,1.74-6.31,6.15-5.73a7.47,7.47,0,0,0,2.48-.21c11.31-2.6,21.44-3,32.56,3.93,12.7,7.87,27.33,2.78,35.22-8.62,8.38-12.1,7.52-28.6-2.53-39.09a12.62,12.62,0,0,1-4-10.29c.85-20.79-8.26-38.29-19.53-54.74-3.75-5.46-3.12-7.73,2.65-10.38,11.24-5.16,23-8.25,35.06-10.67,3.15-.63,4,.51,4.65,3.12,9.43,36.08,27.35,67.56,51.85,95.46,1.08,1.22,2.43,2.29,2,4.28-1.93,8.49-3.2,17.19-5.87,25.44-3.25,10.06-12.19,13.2-21.6,14.2-8.44.89-17,.79-25.5.95-6.9.13-13.72.58-20.11,3.47C821.28,417.93,815.21,426.88,815.73,435.25Zm38.45,88c-1.82-5.35-3-10.79-2.78-15.77.07-20.62,13.87-39.27,32.91-45.46,2.7-.88,4.79-.23,7.07.9,16.77,8.3,20.5,30,7.38,44.33-10.79,11.79-25.4,16-40.31,19.33C855.62,527.24,854.87,525.31,854.18,523.26Zm30,42.72c1.71,1.15,4.42,1.36,4.79,4.14l-6.08.63c-31.35-2.94-57.42-15.9-79.84-36.75-.84-.78-2.38-1.44-1.75-2.87.18-.42,1.87-.42,2.8-.25A152,152,0,0,0,850,532.2c2.74-.34,3.58,1.37,4.61,3.22C861.73,548.22,872.1,557.9,884.17,566ZM767.94,514.89c-13.17-26.16-33.31-44.21-62.2-51.58-1.37-.35-3.6-.83-3.79-1.65-.45-1.87,1.84-2.38,3.07-3.3,19.83-14.89,35.21-33.35,45.32-56.09a25.64,25.64,0,0,1,1.93-3.09,12.14,12.14,0,0,1,.17,2.67c-7.17,42.4,4.09,80.16,28.73,114.57,1,1.34,2,2.67,2.84,3.84.31,1.31-.3,1.88-1.23,1.54C777.66,520,771.34,521.66,767.94,514.89Zm5.32,27.45c2.84,8.93,3.86,18.25,4.61,27.58.29,3.6-.59,4.78-4.46,3.88-18.15-4.2-35-.88-50.61,9.2-2.67,1.73-4,1.92-5.62-1.21-5.48-10.51-13.48-18.95-23-25.88-3.34-2.44-3.32-4.22-1.36-7.5,11.21-18.74,28.21-27.86,52.29-27.71C770.85,522.65,765.91,519.22,773.26,542.34Zm20.65-153.13c13.91-6.8,24.52-16.91,30.13-31.63,1.17-3.06,2.27-3,4.13-.7a25.53,25.53,0,0,1,6.06,17.25c-.41,10-4.33,18.17-13.63,22.72-9.48,4.64-18.52,2.62-27.1-2.9C790.34,391.92,790.53,390.86,793.91,389.21Zm-3.84-3.39c-2.64,1.17-4.45,1.2-6.24-1.52a60.88,60.88,0,0,1-8.43-19.94,5.62,5.62,0,0,1,1.55-5.65c7.34-7.63,15.89-12.58,27.29-12.65,5.57.31,13.19.23,15.94,5.33,2.47,4.59-2.61,10.32-5.63,14.94C808.58,375.49,800,381.46,790.07,385.82Zm25.82-42.16C803.09,339,791,342,780,349.78c-1.84,1.29-4.45,4.05-5.37,3.57-2.37-1.24-1.17-4.44-1.44-6.83-.15-1.23,0-2.49,0-5.18.54-19.41,6.29-38.15,21.75-53.12,3.16-3.07,5-3.94,7.81.57,9.71,15.29,19.67,30.34,20.32,49.38C823.21,343.88,822.79,346.18,815.89,343.66Zm-39.46,37c4.38,8.89,4.46,8.85-5.41,10.41l-6.73,1.07c-4.61.92-5-1.23-3.48-4.74,2.6-5.84,5.22-11.66,7.94-17.44.4-.84,1.37-1.4,2.08-2.08a22.35,22.35,0,0,1,1.4,2.47C773.65,373.78,774.8,377.34,776.43,380.66Zm-16.79-5.85c.16-.44.31-.87.46-1.31.1.38.2.75.29,1.13ZM847.2,258.52c.61,3.44-1.16,3.69-3.62,4.18-14.06,2.81-28,6-40.5,13.51-1.77,1.06-2.91,1-4.08-.84-10.57-16.23-21-32.52-21.33-48.55-.08-41.51,38.68-64.89,72.36-48.07,2.4,1.2,2.92,2.3,2.15,4.76A158.13,158.13,0,0,0,847.2,258.52ZM682.88,388.57c2.88-.36,5.8-.35,6.7-.4,15.89,0,28.93,4.85,42.44,6.94.62.09,1.21.29,1.83.4,14,2.44,13.95,2.43,6.9,15.34-10.48,19.15-25.19,34.42-42.92,46.95-1.71,1.2-3.4,2.45-5.7,1.72-14.22-4.52-27-11-34-25.18C647.79,413.49,659.78,391.44,682.88,388.57ZM697.2,466c29,6,50.87,21.62,64.83,47.93,1,2,3,4.51-1.78,3.73a104.51,104.51,0,0,0-29.23-.45c-18.52,2.6-32.25,12.63-41.78,28.43-2.27,3.75-3.84,4-7.6,1.88-30.24-17.09-62.47-25.31-97-17.86-10,2.16-18.49,3.47-27.9-1.61-6.09-3.28-13.29-4.67-20.12-6.41-7.62-1.94-7.06-5-2.76-10.38,13.37-16.78,31.79-21.82,51.88-22.8,21.15-1,42.39-.46,63.28-5A144.4,144.4,0,0,0,690.29,468C692.44,466.79,694.37,465.36,697.2,466Zm-104,143.52c-8.73-3.91-17.29-8.09-24.77-14.18-8.36-6.8-13.8-15.35-15.63-26.08A24.52,24.52,0,0,1,557,550.3c8.1-11.52,11.89-11.36,17.44,1.15,5.17,11.64,14,17,26.48,16.88,3.11,0,6.22-.08,9.33-.18,23.35-.76,35.35,11,35.22,36.74a47,47,0,0,1-8.44,24.74c-1.27,1.84-2.32,3.49-4.76,1.25C621,620.55,606.78,615.57,593.18,609.47Zm96,14.47c-9.76-20.65-9.93-41.67-2.28-63,.45-1.25.55-2.94,2.51-3,.55.34,1.1.63,1.6,1,9.66,7.12,17.72,15.64,23.28,26.4,1.2,2.31.6,3.73-1.13,5.38a77.81,77.81,0,0,0-20.52,33c-.32,1-.15,2.79-1.74,2.65C690.26,626.27,689.62,624.85,689.19,623.94Zm8.62-1.49c4.23-9.6,9.09-18.57,16.28-26.26,2.73-2.91,4-2.2,4.5,1.34.59,4.09,1,8.2,1.28,10.06-.27,14.64-4,25.85-10.62,36.26-2.23,3.51-3.59,3.15-6.48.56C695.73,638.12,693.85,631.45,697.81,622.45ZM713,646.31c10.51-16.06,14.11-33.54,9-52.32-1-3.55.33-5.32,3.06-7.1a60.43,60.43,0,0,1,32.34-9.84c25.24,2.57,21.56-.06,19.14,21.53-1.72,15.24-6.25,29.7-16,42-12.05,15.19-30.39,20.26-45.39,13C711.43,651.72,710.41,650.34,713,646.31ZM774.1,528.69c-1.15-3.06-1.53-4.57,2.82-3.73,8.27,1.61,15.17,4.53,21.62,10.77,24.27,23.51,52.59,39.09,87.38,39.9,3.48.08,4.21,1.35,3.91,4.48s-.06,6.22-.06,9.33a100.07,100.07,0,0,0,11.53,47.31c10.84,20.41,29.19,31.19,49.75,39.23,2.46,1,4.75,2.33,7.12,3.5-2.4,1.87-5.32,1.66-8,1.74-22.75.69-42.76-6.93-60.9-20.23-15.67-11.49-28.78-25.75-42.64-39.2-18.25-17.72-37-34.79-61.11-44.39-2.52-1-2.61-2.72-2.72-4.88A145.53,145.53,0,0,0,774.1,528.69ZM886.54,562c-10.38-7.19-19.38-15.59-26.28-26.22-2-3.11-2.49-4.65,2.17-5.57,10.82-2.15,21.31-5.49,30.72-11.53,21.87-14.05,24.23-39,5.4-56.85-.83-.77-2.6-1.19-1.87-2.71.29-.6,1.76-.77,2.73-.89,3.5-.44,7-.78,9.21-1,15.14.36,28,3.69,39.35,11.93,16.79,12.21,22.38,30.77,15,50.14-5.35,14-15.12,24.62-26.64,33.85-2.21,1.77-3.88,1.72-5.94-.13a43.12,43.12,0,0,0-5.5-4.06c-14.93-9.68-25.39-6.3-31.32,10.45C892,563.83,890.87,565,886.54,562Zm21.14-13.53c4.62-1.46,17.17,3.81,20,8.18,1.08,1.66.17,2.19-.91,2.84a78.19,78.19,0,0,1-25.33,9.8c-2.19-.18-4.38-.22-4.71-3C896.15,561.08,903,550,907.68,548.5Zm4.21,23.27a102.56,102.56,0,0,0,19.12-9c1.32-.81,2.58-1.39,4-.24,4.33,3.56,8.71,7.06,12.91,10.76.75.67.74,2.2.88,2.7-.11.92-.15,1.12-.17,1.33-1.23,11.9-1.24,11.92-12.5,7.47Q924,580,911.85,575.09a12.49,12.49,0,0,1-2.39-1.71A11.64,11.64,0,0,1,911.89,571.77ZM938.65,559c-1.15-1.25,1.92-2.62,3.23-3.7,13.78-11.44,24.71-24.88,28-43,5.17-28.27-12.61-51.42-43.7-57.75-7.4-1.51-15-2.68-22.3-1.26-19.36,3.79-38.35-1.18-57.51-1.41A44.47,44.47,0,0,1,833,449.14c-6.63-2.23-12.14-6.25-12.46-13.94-.33-8.18,4.3-13.67,11.47-17,8.8-4.06,18.26-3.4,30.8-3.37,3.44-.06,10.08.21,16.67-1.16,14.7-3.06,21.38-9.78,24.5-24.56,1.1-5.23.18-13.4,4-14.81,3.67-1.35,7.83,6,11.84,9.39,22.07,18.82,46.91,32.11,75.43,38,3.4.7,5.38,2.34,7.35,5,24.36,32.41,63.44,32.57,85.6-1.32,10.83-16.55,22.19-32,36.33-45.75,8.45-8.2,7.79-8.82,13.86,1.59,8.82,15.14,20,28.05,35.11,37.29,8.84,5.41,18.31,9,28.85,8.6,3.51-.12,4.82.53,4.08,4.45a93.61,93.61,0,0,1-9.06,27.07c-1.13,2.1-1.85,4.32-4.71,1.41-15.69-16-42.92-17.76-64.89-5.36a81.36,81.36,0,0,0-29.23,27.48c-2.19,3.44-3.78,3.37-6.68,1A152.52,152.52,0,0,1,1076.31,468c-7.89-8.53-15.66-8-21.8,1.89-3,4.9-4.94,10.5-7.43,15.75-2.38,5-5.38,9.21-11.26,10.8-15.59,4.21-19.39,9.76-18.12,25.86.18,2.23,1.47,4.87-2.88,3.62-24.83-7.14-49.91,9.82-61.36,35.6-1,2.27-1.62,7.07-3.7,6.19C945.54,565.9,941.84,562.4,938.65,559Zm69-134.12c.66-2,2.45-.51,3.72-.48,4.14.09,8.28.37,12.43.58A131.63,131.63,0,0,0,1089,409.09c1-.57,2.86-1.58,3.24-1.23,1.39,1.3-.22,2.57-.79,3.73a75.26,75.26,0,0,1-14.81,20.63c-20.21,19.72-49.56,17.85-67.25-4.33C1008.67,427,1007.44,425.59,1007.69,424.83Zm143.5-105.54a159.71,159.71,0,0,1-15.06,36.09,17.42,17.42,0,0,1-2.33,2.63,13.46,13.46,0,0,1-1.52-2.6c-2.6-7.89-5-15.82-5.17-24.24-.06-14.63,9.05-22.05,21.21-17.37C1151.11,314.87,1152.14,316.05,1151.19,319.29Zm3.65,4.1c1.42-5.42,3.25-4.81,6.84-2,25.75,20.27,38.18,47.91,44,79.2.8,4.27,1.17,8.62,1.73,12.94,1.83,8-2.44,9.2-9,8.63-13.5-1.16-24.37-7.75-34.25-16.29-11.83-10.22-20.16-23-26.79-37.08-1.32-2.8-.93-4.88.67-7.42A136,136,0,0,0,1154.84,323.39Zm20.35,161.13c-11.82,8.9-25.36,12.9-40.06,13.21a72.72,72.72,0,0,1-31.21-7.31c-1.83-.9-4.09-1.61-2.27-4.49,12.65-20,37.63-39.65,65.5-33.89,9.85,2,21.33,5.56,23.58,14.73C1192.35,473.39,1181.76,479.57,1175.19,484.52Zm-219.84,85c6.5-20.5,26.06-42.76,50.52-40.34,8.4.83,15.1,2.45,18.24,12.3,3.62,11.35,10.94,21.38,13.47,33.31,3.56,16.84-2.51,23.24-26.21,23.16-18.5-.65-37.15-11-54.7-24.08A3.51,3.51,0,0,1,955.35,569.55Zm140.36-73.08c1.51-3.32,3-3.42,6.14-2,34.4,15.36,65.4,8.57,90.39-19.95,3.5-4,4.34-1.81,5.6,1.2,8.26,19.72,6,38.37-6.86,55.27-15.1,19.87-36.66,27.75-60.51,30.73-4.53.57-9.11.68-13.13,1-9.07-.5-17.54-1.09-25.91-3-2.92-.65-4.08-1.91-4.45-4.87A106.23,106.23,0,0,1,1095.71,496.47Zm143.91-99a58.76,58.76,0,0,1-13.57,15.31c-3.94,3-8.45,7.78-12.85,6.32-3.19-1-1.37-7.78-2-11.95-4.63-32.54-15.22-62.72-41.13-84.12-10.16-8.39-13-15.42-9.45-27.09,1.17-3.84,1.3-4.94,5.1-2.41,23.21,15.47,48.94,22.26,76.7,21.26,4.64-.16,6.08,1.57,6.88,5.63a171,171,0,0,1,3.3,29.43C1252.51,366.22,1249.13,382.69,1239.62,397.52Zm2.13-87.11c-27.58.49-52.91-6.47-75.75-22.18-2.93-2-4-4.16-3.72-7.7.61-7.23.76-14.5,1-18.49-.69-27.4-3.56-51.27-9-74.76-1.44-6.15.75-5.62,4.93-4.2,13.38,4.54,24.09,12.93,33.23,23.36,25.36,28.93,40.94,63.14,53,99.2C1246.61,309.26,1245.44,310.34,1241.75,310.41Zm-83.64-51.08c0,5.6,0,11.2,0,16.81,0,1.39.31,3.45-1.21,3.81-.94.22-2.47-1.19-3.47-2.15-23.24-22.27-36.51-49.45-40.2-81.41-.4-3.48.78-5.34,3.54-7.07a57.63,57.63,0,0,1,23.8-8.53c5-.64,7.41.6,8.64,5.85C1154.79,210.57,1158.34,234.72,1158.11,259.33Zm-16.31-83c-8.48.16-16.3,2.84-23.76,6.74-1.58.83-3.28,3.06-4.87,1.8-1-.8-.66-3.39-.84-4.66,1-7.55.87-14.73,3.92-21.29,4.12-8.83,11.28-10.31,18.54-3.88,5.14,4.55,7.85,10.58,10.16,16.9C1146.23,175.39,1145.17,176.22,1141.8,176.28Zm-10,83.58c5.87,8.62,12.51,16.66,20.56,23.27,3.92,3.22,5.44,6.45,3.85,11.22a23.55,23.55,0,0,0-.42,3.08c-.73,3.87-.49,8.4-2.5,11.44-2.74,4.15-6.82-.36-10.36-.53-12.89-.61-20.7,8-20.31,23.17a89.86,89.86,0,0,0,6,27.9c1.55,4.06,1,6.95-1.65,10.21-5.72,7.15-11.65,14.08-18.65,20a10,10,0,0,1-2.63,1.18,14.18,14.18,0,0,1,.15-2.36c12.18-52.42,1-102.71-14.66-152.38-2.9-9.21-2.3-16.35,3.33-23.59,3-3.93,6-8,9.13-11.82a26.05,26.05,0,0,1,4.2-3.41,34.11,34.11,0,0,1,1.51,5.13A134,134,0,0,0,1131.83,259.86ZM994.47,412.92c.52,1.1,1.42,2.89,1,3.38-1.07,1.25-2.68.16-4.05-.17-31.21-7.5-57.16-24-79.6-46.53-1.13-1.14-2.27-2.1-2-4.19,1.59-12.92,18.84-28,34.46-28,14.6,1.38,27.27,10.84,37.84,22.72,3.07,3.46,1.86,10.73,2.59,16.26C986.36,389,989.07,401.31,994.47,412.92Zm-11.71-66.45c-.06,1.57,0,4-.83,4.51-1.63.95-2.71-1.3-3.89-2.28-12-10-25.21-17.08-41.52-14.58-14.36,2.2-22.9,11.81-28.71,24.23-1.72,3.69-2.74,4.39-5.64.94-21.76-25.93-38.13-54.75-47.67-87.37-1.43-4.91-.63-6.91,4.77-7.67a147.69,147.69,0,0,0,32-7.92c.78-.29,1.57-.53,2.35-.79,1.59-.13,2,1.21,2.76,2.15,22.8,29.45,53.72,37,88.86,32.55,5.32-.67,5.4.94,4.33,5.1C985.24,312.1,983.33,329.2,982.76,346.47ZM927.47,220.79c-5.6,12.82-16.44,20.49-28.3,27-2.59,1.41-3.25-.23-4-2.09-4.1-10.53-5.52-21.31-2.19-32.28a19.7,19.7,0,0,1,19.5-14.51C924.47,199,932.21,209.92,927.47,220.79ZM899.66,196.9c-15.14,11.19-14.43,26.56-11.32,42.31,2.55,12.87,3,12.92-10,16.33-7,1.84-14.26,2.86-21.26,4.75-4.43,1.19-5.43-.52-5.71-4.42-.56-7.66-1.44-15.29-1.9-20,.38-18.58,2.37-34,6.74-49.05,1.18-4.08,2.62-4.74,6.52-3.26a273.26,273.26,0,0,0,35.14,10.69C898.71,194.42,903,194.4,899.66,196.9ZM781.35,121.31c-18,1.34-34.34-2.81-47.92-15.14-16.38-14.87-19.65-37.11-8.28-54.1,14.56-21.77,42.23-21.55,56.13.64,9,14.34,11.11,30.67,12.71,47.08.22,2.27.22,4.56.32,6.85C794.72,120.22,794.72,120.3,781.35,121.31Zm12,38.73c.78-3.3,1.91-4.53,5.48-2.85,6.94,3.27,14.1,6.09,21.15,9.13.9.38,1.72.94,3.63,2-2,.36-2.9.55-3.79.67-13.52,1.79-24.9,7.61-33.91,17.93-.53.6-1.6,1.62-1.77,1.5-1.21-.83,0-1.77.27-2.52A163.45,163.45,0,0,0,793.34,160Zm-4.47-4.26a15.21,15.21,0,0,1-.07,3.64c-7,26.36-18.9,50-38.34,69.55-2.32,2.34-4.44,3.93-5.27-.77-2.09-11.85-3.86-23.76-7.44-35.29-.56-2.46,1.36-3.27,2.85-4.32q22.49-15.69,45-31.35A18.58,18.58,0,0,1,788.87,155.78Zm-76.74-24c25,3.11,47.52,10.16,69.68,18.6,2.8,1.07,3.26,2,.51,3.92q-21.8,15-43.47,30.21c-2.32,1.63-3.43,1.36-4.37-1.39A234.39,234.39,0,0,0,711.4,135C709.51,131.92,709.86,131.64,712.13,131.78Zm-6.69,2.27a265.78,265.78,0,0,1,25,50.8c1.46,4-.22,5.43-3,7.41-3.23,2.28-4.33-.09-5.91-1.92-9.49-10.9-19.92-20.65-33.24-26.78-2.27-1.05-2.89-2.52-2.79-4.88.17-3.94,0-7.89,0-11.84,0-1.25,0-2.5,0-3.74,0-13.78,0-13.72,13.87-12.57A7.09,7.09,0,0,1,705.44,134.05Zm-73.52-1a416.08,416.08,0,0,1,37.34-45.81c1.25-1.34,2.12-1.52,3.32.19q12.55,17.81,25.23,35.53c.35.5.61,1.07.92,1.62C698.65,126.67,697,126,696,126c-21.35-.55-42.22,2.15-62.48,9.13a8,8,0,0,1-2.36.09A8.43,8.43,0,0,1,631.92,133.06Zm-9.24,13.66a12.59,12.59,0,0,1,6.78-5.07,181.72,181.72,0,0,1,44.76-10.49c5.42-.58,7.14.77,6.5,6a68.34,68.34,0,0,0-.05,8.1h-.27c0,4.56,1.74,10.44-.46,13.34-2.51,3.32-8.22-.33-12.57-.64-32.79-2.37-64.39,30.25-59.22,61.44,2.06,12.41,8.91,21.79,19.24,28.64,3.39,2.25,4,3.48-.1,5.64-14.33,7.6-28.88,14.67-44.25,20-4.14,1.43-5,.48-4.48-3.63C584.05,225.64,598.53,184.47,622.68,146.72Zm-57.85,132c-7.6,1-15.13,2.61-22.85,2.6-20.58.73-26.38-5.94-18.71-24.89,17.84-44,44.07-81.69,86.69-105.61,1.52-.85,3.53-3,4.85-1.6s-1.08,3.18-2,4.68c-20.87,35.56-33.93,73.77-38.42,114.75C573.71,275.25,571.11,277.85,564.83,278.68Zm12.4,31.75c0-8.52.09-17-.05-25.54,0-3.45,1.26-5.16,4.63-6.19,17.16-5.26,33.23-13.11,49-21.62,4.19-2.27,7.58-2.91,12.07-.78a69,69,0,0,0,24,6.27c4,.35,5.82,1.3,5.2,6-5,37.7-11.54,75.13-18.08,112.57-.49,2.79-2,4.16-4.64,5.11a125.48,125.48,0,0,1-59.55,6.25c-3.49-.47-4.78-1.78-5.43-5.28C579.6,361.82,576.67,336.26,577.23,310.43ZM651.61,394c-3.23,17.14-6.06,34.41-14.88,49.86-9.74,17.08-22.86,17.42-33.19.72-8.29-13.4-12.93-28.24-16.42-43.49-.83-3.62.44-4.57,3-3.9,20.21,2.83,39.21.48,57.84-5.55C650.33,390.87,652.29,390.42,651.61,394Zm-94.3-6.05A111.59,111.59,0,0,0,578,394.84c3.1.65,3.63,2.74,4.23,5.33,3.41,14.8,7.51,29.41,15.1,42.72a62.76,62.76,0,0,0,7.48,10.7c9.74,11,22.91,10.49,32.08-.93,5.56-6.94,8.5-15.17,11.33-23.44a12.53,12.53,0,0,1,1.57-2.47,19.76,19.76,0,0,1,1.32,2.54c5.52,15.51,16.79,25.36,31.4,31.93,1.68.76,3.26,1.7,4.89,2.55-1.68,1.12-3.29,2.38-5.06,3.34C660.52,479,636.72,482,612.46,483.05c-14.74.62-29.58.31-44.11,3.15a62.69,62.69,0,0,0-40.38,26c-1.38,1.94-2.24,4.52-5.73,2.59-22-12.14-41.79-26.55-53-50-.87-1.83-2.34-4.66-1.62-5.67,1.33-1.87,3.8.08,5.71.55,19.1,4.7,38.2,5.8,57.22-.22,21.25-6.72,34-22.63,33.81-42a50.5,50.5,0,0,0-8.53-27,19.15,19.15,0,0,1-1.39-3.09A14.48,14.48,0,0,1,557.31,387.93Zm1.15,38.92c-3.33,13.22-12.45,21.2-24.49,26.3a73.68,73.68,0,0,1-31.12,5.39,111.49,111.49,0,0,1-34.27-5.13c-2.28-.69-4.18-1.43-4.79-4.18-7.05-31.9,9.36-64.83,39.88-72.49C536.9,368.4,566.39,395.31,558.46,426.85ZM456.4,170.63c38,15.38,93.19-7.65,110.68-64.8,3.68-12,5.21-24.36,5.76-36.83.2-4.62,1.74-5,5.63-3.57,12.73,4.72,18.36,16.82,14,31.06S579.07,121.69,569,132a474.51,474.51,0,0,0-55.08,68.31c-14.21,21.25-25.73,43.74-29.14,69.47-5.19,39.1,10.74,69.93,38.34,96,1.89,1.8,4.66,2.79,5.48,5.65l-7.13-.53c-36.09-2.56-64.67,25.77-63.82,63.8a36,36,0,0,1,.37,4.44c-.08,3.37,2.53,8-.15,9.65-1.79,1.11-6.32-1.88-9.46-3.38-11.78-5.63-11.65-5.66-9-18.51a107.4,107.4,0,0,0,.83-38.42c-.67-4.25.24-7.24,3.12-10.6,16.85-19.59,20.87-43.54,21.2-68.15a246.46,246.46,0,0,0-22.63-107c-1.44-3.13-1.79-5.43.23-8.5a75.64,75.64,0,0,0,9.45-20.94C452.34,170.73,453.39,169.41,456.4,170.63ZM346.2,36.15C351.36,25.59,359.84,18.52,371,14.7c1.8-.61,3.94-2.06,5.59.43C385.25,28.24,396.1,40,401.71,55c.68,1.83,2.26,4,.76,5.7-.48.54-3.28-.89-5-1.54-9.91-3.83-19.81-7.68-30.78-5.34-7.76,1.66-13.47,5.94-15.09,13.89C350,75.88,354.88,81.18,361.28,85c10.48,6.24,21.64,8.46,33.35,3.74,6.08-2.46,10.58-7.06,12.15-13.39,1.41-5.73,3.43-4.38,6.85-2a90,90,0,0,1,37.48,73.43c-.22,4.53,1.49,12.75-2.43,14.72-4.3,2.15-9.45-4.4-13.76-7.79-10.81-8.52-19.56-19.18-29.32-28.79-14.12-13.91-29.53-25.06-50.8-23.51-2,.14-3.05-.81-3.95-2.36C339.21,78.85,335.54,58,346.2,36.15Zm57,34C403,77.67,397.92,83,390.48,85.24a57.44,57.44,0,0,1-7.31,1.4c-8.64-.38-15.53-2.32-21.49-6.86-3.6-2.74-6.29-6.15-5.41-11.08s4.24-8,8.83-9.49c9.27-3,18.1-.12,26.59,3C396,63.85,403.42,63.58,403.24,70.13Zm-61.46,83.56c-4.52-9.51-7.55-19.42-5.31-30.11,1.53-7.26,5.3-13,12-16,2.28-.57,2.94,1,3.74,2.08,12.15,17.13,28.21,30.38,43.7,44.21,13.18,11.78,26,23.85,35.62,38.95,2.2,3.45,2.62,6.07-.22,9.37-6.23,7.24-12.23,14.67-18.17,22.14-2,2.53-3.51,2.7-6,.55a408.31,408.31,0,0,0-43.32-32.52c-1.17-.77-2.55-1.78-3-3C356,176.63,347.57,165.87,341.78,153.69ZM263,148.38c31.75,12,62.64,25.75,91.54,43.7,2.23,1.38,2.81,3.3,3.29,5.62,3.83,18.68-8.09,37.72-26.68,42.91-4,1.13-5.09.19-5-3.86.24-11.28-.85-22.44-4.6-33.16a74.85,74.85,0,0,0-5.28-11.94c-6.95-12.38-16-18.11-24.87-16.14-10,2.22-19,14.26-20,26.81-.1,1.25-.11,2.5-.17,3.74.13,19.47,18.82,38,41.68,40.08,7.14.66,8.74,3,7.33,9.41-1.86,8.51-3.29,17.11-4.74,25.71-.61,3.62-2.25,4.24-5.6,3.14a538.06,538.06,0,0,1-68.74-27.67c-2.33-1.13-3.61-2.34-3.08-5.21,2.53-13.88-2.2-25.79-10.46-36.57-2-2.64-2.75-4.39-.35-7.43,13.61-17.23,25.24-35.6,31.34-57C259.34,147.8,260.51,147.44,263,148.38Zm-80.57,40.55c12.1,3.77,22.54,10.33,32.07,18.61,3.38,2.94,3,4.79.17,7.9-16.75,18.26-16.68,18.33-37.21,4.41-3.44-2.33-6.83-4.73-10.25-7.08-1.78-1.23-3.53-2.45-2.65-4.48.68-3.64,1.2-6.71,1.81-9.76C169.14,184.78,169.15,184.78,182.44,188.93Zm-10.76-12.08a261.91,261.91,0,0,1,20.23-46.75c1.68-3.06,3.49-3.23,6.52-2.38,17.58,4.9,35,10.21,52.26,16.25,2.42.85,4.62,1.28,3.56,5-6,21.2-17.86,39.12-31.08,56.3a17.44,17.44,0,0,1-2,1.84c-1-.9-2-1.64-2.87-2.45-12.44-11.56-26.68-19.68-43.6-22.48C171.1,181.59,170.62,180.17,171.68,176.85Zm32.39,54.93c5-4.35,9.75-9,14.31-13.8,2.19-2.31,3.45-3,5.59,0,5.79,8.09,9.92,16.73,10.14,28.4.66,5-1.16,6.9-7.33,3.09C219.56,245,212,241,204.55,237,201.48,235.34,201.32,234.17,204.07,231.78ZM252.54,54.09A560.17,560.17,0,0,1,315.17,3.81c1.28-.89,2.59-2.67,4.32-1.58.73.47.65,2.22.81,2.86-.44,4.91-2.17,8.93-5.24,11.66C296.7,33.06,282,52.87,263.89,69.42c-8.74,8-8.64,7.44-13.91-2.77C247.12,61.11,248.27,58.06,252.54,54.09ZM219.27,90.33c7.09-8.09,14.26-16.1,21.34-24.19,1.84-2.1,3.17-2.39,4.35.51,1.49,3.63,3.08,7.22,4.13,9.67.85,3.14-.59,3.76-1.83,4.48a153.48,153.48,0,0,1-26.53,12,10.91,10.91,0,0,1-2.82.21A12,12,0,0,1,219.27,90.33Zm-9.9,12.81a9.91,9.91,0,0,1,6-4,147.57,147.57,0,0,0,32.18-13.15c3.33-1.89,4.44-1.29,5.36,2.37a150.25,150.25,0,0,1,4.63,31.87c0,21.34,0,21.2-17.23,15.62-13-4.22-26.15-8.11-39.28-12-3.35-1-4.63-1.94-2.18-5.27C202.53,113.56,205.94,108.34,209.37,103.14Zm-54,7.17c15-2.22,30-3.81,45.13-7.39l2,.33a12.8,12.8,0,0,1-1,2.79c-2.67,4.19-5.57,8.24-8.11,12.51-1.38,2.33-3,2.28-5.23,1.74-10.87-2.65-21.76-5.2-32.62-7.84a7.85,7.85,0,0,1-2-1.21A6.36,6.36,0,0,1,155.37,110.31Zm-67.62,26.1c-1.94,2.13-3.09,1.88-4.79-.3a248.3,248.3,0,0,1-20.63-31c-2-3.54-.26-3.82,2.69-3.7q29.15,4.62,58.29,9.28c.76.12,2,.56,2.08,1.06.33,1.4-1.2,1.36-2,1.64C109.7,118.24,97.61,125.63,87.75,136.41Zm43.55,48.9A448.32,448.32,0,0,1,92,147.13c-3-3.37-3.06-5.42.14-8.69,12.93-13.21,28.61-21,47-25l47,11c2.51.58,2.72,1.84,1.5,4a222.25,222.25,0,0,0-21.17,49.72c-.8,2.85-2.66,3.13-5.11,3.33-6.26.51-12.61,1.69-17.77,5.2C138.54,190.07,135.44,188.92,131.3,185.31Zm26.95,56.14c.07,2.49-.34,3.79-3.41,3.44-19.71-2.3-32.29-27.72-21.68-43.76,2.56-3.86,4.85-5.24,8.48-1.36a38.22,38.22,0,0,0,4.87,3.83c12.65,9.63,12.65,9.62,11.7,27.68C158.21,233.18,158.13,237.32,158.25,241.45Zm-2-36.6c-2.59-2-5.31-3.94-7.87-6-2.2-1.81-6.28-4.28-6-5.63.75-3.26,4.91-3.93,8-5a93.27,93.27,0,0,1,9.6-2.33c3-.07,4.32.58,3.4,4a90.9,90.9,0,0,0-2.56,13.39C160.3,207.54,158.65,206.78,156.21,204.85Zm8.39,13.25c3-1.73,7.3,4.05,11.18,6.27,3,1.74,5.9,3.82,8.86,5.71,8.15,5.23,8.16,5.24-.24,9.66-1.64.87-3.33,1.68-5,2.39-15.59,6.52-16.77,5.76-16.55-11.43C163.52,226.85,161,220.19,164.6,218.1Zm-1.43,36c-.33-2.66.72-3.77,3.43-4,9.77-.78,18.37-4.82,26.41-10.1,2.52-1.65,4.38-2.08,7.23-.4C209.34,245,218.58,250.14,228,255c3.57,1.83,3.73,3.59,2,6.72-8.41,15.11-21.73,24.19-37.32,30.36-22,8.72-22.15,8.62-26.08-14.58C165.24,269.71,164.29,261.9,163.17,254.11Zm21.68,101c-8,6.9-16.73,12.3-29.4,12.25-9.54-.38-18.06-5.23-23.1-15.15s-3.68-19.38,2.79-28.13c7.55-10.21,18.65-14.82,30.19-18.71,2.58-.87,3.23.54,3.83,2.58a268.13,268.13,0,0,0,16.48,42.28C186.61,352.26,186.6,353.65,184.85,355.15Zm2.73-11.33c-5-11-9.21-22.24-13.24-33.59-1.86-5.23-1.23-7.61,4.66-9,13.06-2.95,25.35-7.95,36.15-16.12,7.88-6,14.78-12.82,19-21.89,1.48-3.15,2.86-3.71,6.1-2.12a481.94,481.94,0,0,0,68.19,27.23c3.87,1.22,4.23,2.69,2.94,6.17-6.39,17.24-15.48,33.07-25,48.7-12,19.69-24.58,39.06-31.68,61.26-1.08,3.36-1.69,6.9-3.08,10.11-1.09,2.51,1,7.94-3.59,7.17a9.45,9.45,0,0,1-7-12.86c4.94-10.76,10.34-21.31,14.91-32.21,5.18-12.35,9-25.13,5.59-38.76-3.07-12.29-14-20.91-28-21-6.27-.15-13.06,3.17-19.3,8-7.46,5.76-13.55,12.9-19.44,20.14C191.1,349.6,189.68,348.47,187.58,343.82Zm44.57,64.31a226.62,226.62,0,0,1-38-51.48c-.85-1.56-1.35-2.87.19-4.43,8.31-8.41,15.29-18.15,25.1-25,8-5.61,16.49-8,25.68-3.06,9.39,5.06,13.07,13.49,13.29,23.66-.38,10.87-3.75,20.89-8.13,30.59s-9.14,19.1-13.49,28.75C235.48,410.09,234.54,410.53,232.15,408.13Zm88.76,181.15c-25.35,2-45-9.88-61.76-27.08-22.69-23.22-33.66-51.44-33.84-83.33.23-19.22,4-37.21,9.84-54.87,1.52-4.59,2.72-3.89,6.1-1.57,6,4.13,7.83,9,7.95,16.45.52,35,19.94,57.82,49.75,73.06,17.09,8.74,35.71,12.16,54.66,13.57,4.58.34,6.41,2.18,7.8,6.2C370.92,559.17,351.57,586.88,320.91,589.28Zm75.35-66.06c-5-.18-10-.06-15-.06v-.35c-1.87-.1-3.83-.62-5.59-.23-13.19,3-17.23-7.23-22.67-15.49-1.61-2.44-.29-2.7,1.76-2.79A82.13,82.13,0,0,0,400,488.53c2.43-1.77,3.55-1.62,3.59,1.75A145.16,145.16,0,0,1,400.52,520C400,522.48,398.79,523.31,396.26,523.22Zm-10.08,76.14c.06-13.23,3.14-24.65,6.6-36,3.14-10.33,6.5-20.59,9.53-31,.81-2.76,1.65-4.38,5-4,18.26,1.87,36.33,4.62,52.77,13.46,18.61,10,31.07,24.71,34,46.3,1.14,8.52-.76,16.48-4.76,24-2.07,3.91-3.6,5.55-6.89.57a69.49,69.49,0,0,0-24.45-22.69,33.58,33.58,0,0,0-12.9-4.32c-7.91-.8-15,1.06-19.87,7.82s-3.85,13.75-.51,20.68c10.17,21.08,35.72,27.8,55.62,14.37,3.79-2.56,5.18-2.21,7.11,1.76a111,111,0,0,1,11,41.88c.29,4.42-.86,5.83-5.44,5.36-10.88-1.09-20-3.67-28.35-12.51-17.53-18.6-39.86-30.62-64.4-37.55-8.2-2.31-11-6.88-12.46-14A59.73,59.73,0,0,1,386.18,599.36Zm92.93,24.48c-6.18,4.6-13,7.23-19.66,7.51-13.21,0-26.91-9.21-31.43-20.52-4.41-11,1.22-19.72,13.07-20.27a26.34,26.34,0,0,1,14.3,3.58c10.44,5.81,18,14.49,24.79,24.1C482,620.76,481.31,622.2,479.11,623.84Zm15.5,79.42c-1,3-2,.93-2.57-.34a126.82,126.82,0,0,0-10.94-19.41,8.93,8.93,0,0,1-.79-2.23l2.11-.43c1.27.23,1.89.32,2.49.44,4.35.91,11.51-1,12.53,2.67C499.14,690,496.64,697,494.61,703.26Zm-30.18-31.47c-.17,1.37-1.58.37-2.8.27-24.12-6.51-46.87-16-63.16-36.61-1-1.27-2.7-3.67-2.35-4.06,1.52-1.78,3.36.06,4.9.6,23,8.14,43.77,19.88,61.37,36.93C463.25,669.75,464.54,670.93,464.43,671.79ZM336,626.46a80,80,0,0,1,21.63-2.11c2.91,0,5.83-.16,8.72,0,11.91.79,21.52,3.46,29.8,14.65,16.7,22.55,42.15,32.23,68.7,38.47,5.32,1.25,9.09,3.49,11.74,8,3.14,5.38,6.14,10.85,9.56,16,5.67,8.59,4.29,16.09-1.35,24.45a64.65,64.65,0,0,1-81.06,22.77c-4.66-2.13-3.05-3.27-.28-5.56,19-15.74,28.59-35.46,24-60.41a33.71,33.71,0,0,0-27.33-27.44c-14.48-2.51-24.47,4.19-31.44,16.21-2.17,3.73-3.1,2.54-4.75-.2a235.86,235.86,0,0,0-29.9-39.8C330.67,628,332.24,627.29,336,626.46Zm34.63,56.43a6,6,0,0,1-.25-5.33c6.79-18.53,28.8-23.81,43.25-10.3,7.8,7.29,10.34,16.75,10.81,27.59-.87,19.33-10.35,34.47-25.83,46.32-2.31,1.77-3.78,2.15-4.74-1.33A268.89,268.89,0,0,0,370.64,682.89Zm17.5,55.68a11.27,11.27,0,0,1-2.64-1.33c-13.52-12-20.26-26.94-19-45.19.07-1.12-.22-2.56,1.8-3.1.48.75,1.07,1.56,1.52,2.44a268.14,268.14,0,0,1,18.05,44.2A14.62,14.62,0,0,1,388.14,738.57ZM328.9,632.52a260.74,260.74,0,0,1,33.65,45.55,8.48,8.48,0,0,1,.94,6.53c-5.15,23.55,2.89,42.62,20.72,57.71,5.72,4.84,3.7,5.87-1.52,7.77a75.05,75.05,0,0,1-28,5c-42.41,0-77.32-47.24-64.09-90.14,5.08-16.46,16.59-26.89,31.81-33.9C325.25,629.72,327,630.42,328.9,632.52Zm-92.23-47c9.24,24.21,7.43,47.56-5.08,70.21-1.71,3.1-3.38,3.22-6.42,1.76a172.56,172.56,0,0,0-79-17.05c-4.37,0-8.81-.51-13.08.11-6.5,1-6.66-1.7-5.34-6.87,3.66-14.26,12.08-25,24.1-32.92,23.78-15.58,50.21-21.26,78.37-20C233.56,581,235.48,582.38,236.67,585.51Zm-14.83,82.41c-18.5,17.75-48.9,22.71-71.93,11.42-12.06-5.92-20.24-15-22.92-28.5-.76-3.82,0-5.84,4.43-5.87,5.18,0,10.36-.6,13.05-.77,28.2.37,52.74,5.72,76.23,16.21C225.89,662.73,225.5,664.4,221.84,667.92ZM83,648.87c1.56-43.29,38.21-96.64,89-100,21.31-1.39,39.58,5.88,54.49,21.25,1.49,1.54,4.37,3.18,3.34,5.41-.85,1.86-3.77.18-5.76.39a9.32,9.32,0,0,1-2.46-.09c-24.55.35-46.62,5.37-66.77,17.39-17.18,10.25-29.47,24.24-32.65,44.71-.44,2.82-1.62,3.9-4.24,4.25a96.07,96.07,0,0,0-30.83,9.46C83.58,653.46,82.89,652.37,83,648.87ZM82.83,792.8c-9.64,15.43-24.37,18.12-38.58,6.9C33.53,791.24,28,778.86,20.69,767.84c-1.38-2.08.23-3,1.53-4,19-14.51,40.62-22.15,64.21-24.73,2.86-.31,4.21.54,4.34,3.58.19,4.56.7,9.1.93,11.9C91.35,769.15,89.79,781.64,82.83,792.8Zm39.38-57.12c-7.72-1.37-15.69-1.38-23.57-1.77-2.44-.12-4.33,0-4.8-3.24-3.24-22.17-9-43.91-10.8-66.34-.36-4.71,1.11-7.06,5.41-8.9A131.12,131.12,0,0,1,116.39,647c2.56-.48,5.13-1.43,5.79,3,4.53,30.06,36.23,42.46,60.94,39.88,17.36-1.81,32.4-8.63,44.5-21.36,2-2.13,3.48-2.79,6.26-1.12,40.76,24.44,63.81,59.53,65.25,107.69a121,121,0,0,1-3.36,27.84c-.69,3.08-2,4.89-5.42,4.44a4.63,4.63,0,0,0-2.46.17c-10.81,5-17.55-1.62-24.73-8.08-21.68-19.48-42.1-40.11-60.28-62.92-6.6-8.29-13.33-16.49-21.79-23a47.42,47.42,0,0,0-18.34-8.94c-16.57-3.83-30.53,6.7-32.65,25.35C129.43,735.72,127.85,736.68,122.21,735.68Zm179.1,76.89c12.53,1.31,34.57,19,38,30.15.83,2.68-.52,2.47-2,2a166.55,166.55,0,0,1-41.05-20.46c-3.9-2.71.49-5.93.76-8.94C297.24,812.7,299.09,811.92,301.31,812.57Zm-9.09,1.58c-.79,1.81-.32,5.51-3.3,4.87-2.32-.5-6.11-3.39-5.89-4.62.55-3.1,4.46-1.37,6.39-2.34C291.43,811.82,293.12,812.11,292.22,814.15Zm-38.42,21.2a14,14,0,0,1-1.52-2.29c-20.91-50.92-61.79-78-112.12-93.68-4.29-1.34-6.8-2.69-5.83-6.89.59-19.45,18.5-30,35.62-21.46,10.5,5.25,18.1,13.91,25.12,23a500,500,0,0,0,49.85,55.7c7.37,7,15.11,13.65,22.85,20.27,2.44,2.09,3.14,3.26.07,5.46a34,34,0,0,0-12.6,17.38A14.78,14.78,0,0,1,253.8,835.35Zm5.91,30.39-.55-.6.43-.37c.1.16.2.32.31.48C259.83,865.41,259.77,865.58,259.71,865.74Zm2.19-6.91c-8.06-13.05-2.89-33.62,10.55-41.09.89-.5,1.8-.94,3-1.56,3.87,2.86,8.19,5.23,11.31,8.68,1.92,2.12-1.21,4.86-2.37,7.13a140.33,140.33,0,0,1-17.7,26.29C265.39,859.82,264.31,862.72,261.9,858.83Zm87.18,26.07a104.85,104.85,0,0,1-30.61,5c-18.71,0-35-5.81-48.32-19.4-2.66-2.72-3.12-4.58-.36-7.69a126.63,126.63,0,0,0,20.53-31.08c1.45-3.15,2.85-3.24,5.59-1.5a187.32,187.32,0,0,0,44.92,21.21,7,7,0,0,1,5.05,4.93c2.23,7.13,4.34,14.3,6.86,21.32C354.19,881.72,353.19,883.61,349.08,884.9Zm30.21-23.11a61,61,0,0,1-17.82,17c-2,1.22-3.2,1.45-4-1.34-1.86-6.55-4-13-6-19.53-.52-1.68-1.16-3.46,3.06-2.71,7.05,1.81,15.49,2.55,23.94,3.26C381.63,858.76,380.22,860.47,379.29,861.79Zm-.91-8.41c-3.67-.67-7.42-.93-11.15-1.24-12-1-21.32-4.59-27.65-16.84-7.22-14-20-23.15-35.87-26.84-3.3-.78-4.18-2-3.57-5.46,10.53-60.43-11-106.54-62.65-138.92-3.25-2-3.5-3.34-1.6-6.66,12.71-22.16,14.83-45.51,6.55-69.62-1.63-4.77-1.17-5.77,3.78-4.7,28.25,6.09,52,20.34,73,39.77,1.87,1.73,2.77,3-.37,4.39-42.19,18.56-50.05,72.84-11.36,111.09,22.36,22.1,50.89,27.2,79.8,14.68,4.05-1.76,5.26-1,6,3a219.8,219.8,0,0,1,3.95,38.37c-.25,18.42-2.58,36.42-9.91,53.56C385.47,852.27,383.12,854.26,378.38,853.38ZM496,758.27c-1.88,42.14-41.72,86-83.18,92.67-4.26.68-4.62-.46-3.09-4.12a152.52,152.52,0,0,1,25.87-41.65c16.4-18.75,35.79-34,56.24-48.08,1.12-.77,2.34-2.39,3.76-1.33C496.23,756.26,495.94,758,496,758.27Zm-5.7-5.86a338.89,338.89,0,0,0-50.71,41.22,144.88,144.88,0,0,0-35,54c-2.59,7-7.83,5.55-12.69,5.72-2.77.1-1.18-2-.75-3.1,12.73-30.7,12.74-62.29,6.54-94.28-.89-4.57.77-4.19,4-2.81,31.23,13.15,70.88,5.64,89.23-28.25a14.22,14.22,0,0,1,1.92-2.29,12.34,12.34,0,0,1,1.54,3.11c.8,4.7,1.42,9.43,2.44,16.48C498.41,746.05,495.15,749.21,490.27,752.41Zm59.67-32.95a316.06,316.06,0,0,0-44.14,22.9c-3.6,2.24-5.16,2-4.83-2.58a5,5,0,0,0-.12-1.85c-5.75-17.21-1.88-34.08,1.5-51,.63-3.19,1.76-4.15,4.81-4,3.93.22,7.88.05,11.83.05v.14c4.56-.22,9.33.33,13.63-.82,9-2.4,13.2.51,14.75,9.58,1.22,7.11,3.71,14,5.77,21C554.13,716.16,553.43,718,549.94,719.46Zm82.37-28.57c-23.16,8-46.87,14.24-69.65,23.28-3.74,1.49-4.58.2-5.42-3-2.18-8.43-4.28-16.92-7.15-25.13-1.7-4.88,0-6,4.29-6.72A168.73,168.73,0,0,0,608.68,660c8.36-4.7,16.34-10,22.92-17,3.18-3.4,4.72-2.43,6.84.89A46.37,46.37,0,0,1,646,670.16C645.76,686.24,645.78,686.27,632.31,690.89ZM703.54,780c.69-15.12,3.36-30.2.85-45.37-1.93-11.71-5.56-22.39-18.14-26.83-9.71-3.41-17.65-.07-23.91,7.4-10.39,12.4-14,27.55-16.73,43-3.06,17.58-4.19,35.48-8.61,52.84-1.85,7.29-4.42,14.29-8.77,20.5-9.08,12.94-25.25,17.05-38.53,9.87-13.09-7.07-19-24.06-13.21-38.29,3.6-8.9,10.06-15.67,16.71-22.28,25-24.86,44.57-53.05,54-87.49A5.88,5.88,0,0,1,651.1,689c13-5,25.77-10.56,37.33-18.47,2.84-1.95,3.38-.42,4,1.89,7.2,25.31,22.31,45.17,42.51,61.5,1.44,1.17,2.91,2.2,3.11,4.39,2.36,25.6,8.52,51,6.17,76.86-2.14,23.66-.07,18.87-20.43,19.83-14.07.66-14.06.29-17.08-13.47A162.92,162.92,0,0,1,703.54,780Zm15.2,90.89c-18.08,15.11-47.71,16.37-67,2.72a30.46,30.46,0,0,1-8.64-8.88c-4.28-7-7.2-14.41-2.71-22.28s12.24-9.27,22-9.18c13.2,1.56,27.52,5.6,42.32,6.13,2.68.09,3.23,2.22,4,4.12a104.81,104.81,0,0,0,11.2,20.81C722.08,867.35,721.22,868.84,718.74,870.91Zm8.24-8.26c-1.25,1.41-2.17.36-2.92-.7A102.14,102.14,0,0,1,713.6,843c-.82-1.93-.59-3.07,1.92-3.14,7-.21,14-.55,21-.83,1.55-.07,3,0,2.52,2.61A64.48,64.48,0,0,1,727,862.65Zm42.43,15.79c-7.5,3.86-16.88,6-25.2,4.67-6.37-1-10.28-8.47-14.45-13.85-1.16-1.5.63-2.64,1.48-3.69a73.54,73.54,0,0,0,12.55-23.41c.89-2.71,2.2-4.1,5.11-4.49,5.94-.79,11.91-1.65,17.74-3,3.76-.89,4.1.48,4,3.62-.21,6.21-.06,12.42-.06,18.64h-.42c0,2.28.13,4.56,0,6.83C769.78,868.81,773,876.59,769.41,878.44Zm2.67-54.66c-.48,4.11-2,5.73-5.94,6.28-5.54.78-11,2-16.52,3.1-2.52.45-3-.9-2.6-2.9,5.89-28.37-.39-56.22-3.6-84.19a28,28,0,0,1,.27-4.73,32.89,32.89,0,0,1,4.38,2,191.56,191.56,0,0,0,33.23,17c3.35,1.31,4.37,2.61,3.11,6.35A278,278,0,0,0,772.08,823.78Zm17.11-57c.73-2.22,1.72-2.93,4.1-2.13,9.25,3.09,18.72,5.71,26.89,11.28,14.59,9.95,14.64,23.76,0,33.63-12.19,8.23-26,12.7-40,16.86-3.61,1.08-4-.38-3.77-1.34C779.22,804,783.11,785.18,789.19,766.79Zm42.42,94.51a8.73,8.73,0,0,1-6.45,5.12Q803,871.6,781,877.13c-4.47,1.13-5.87-.35-5.87-4.76,0-6-.55-12-.86-18,.4-20.53.42-20.47,19.21-27.3,10.34-3.75,20.79-7.36,29.92-13.76,16.58-11.62,16.4-30-.42-41.42-7.84-5.31-16.71-8.38-25.73-10.84-4.66-1.27-5.24-3.17-3.35-7.4,3.23-7.23,6.28-14.51,11.66-20.47,10.87-12.06,25.84-11.36,35.68,1.72,7.75,10.3,9.27,22.55,10,34.83C853,802,845.67,832.36,831.61,861.3Zm43.31-12c-11,4.35-22.22,8.12-33.37,12.08-1.3.47-3.37,1.19-4,.6-1.56-1.39.32-2.93.93-4.25C852,828,858.17,797,855.35,764.39c-.89-10.42-2.82-20.6-8.5-29.65-11.33-18.06-31.3-19.7-45.37-3.76a61.45,61.45,0,0,0-12.13,21.6c-1.56,4.71-3.51,4.87-7.59,3.09a206.45,206.45,0,0,1-35.38-19.57c-2.25-1.56-4.28-3.06-4.33-6.3-.28-17.16,1-34.09,7.89-50.07,8.6-20,23.68-27.51,44.83-22.39,21.83,5.28,38.87,18.41,54,34.25,28.67,30.1,46.27,74.91,48.56,122.55C898.51,839.72,898.48,840,874.92,849.3Zm27.63-17.74c.74-13.68,5.56-24.36,12.13-34.37,11-16.75,25.4-30.64,38.57-45.55a11.18,11.18,0,0,1,1.94-1.43,9.63,9.63,0,0,1-.21,2.71,139.15,139.15,0,0,0-8.78,55.53c.12,3.22-1.27,4.91-3.84,6.35-11.21,6.29-22.41,12.61-33.52,19.07C904.09,836.63,901.44,836.7,902.55,831.56Zm62.54,54.8c-3.25.61-6.51,1.16-8.07,1.44-25.74.13-47.1-22.5-52.8-43.47-.77-2.85,1.24-3.49,3.07-4.49,11.64-6.37,23.27-12.73,34.84-19.22,2.62-1.48,4.1-2.44,4.51,1.91,2,21.5,6.8,42.15,19.94,60C968.16,884.66,967.6,885.89,965.09,886.36Zm4.88-7c-13.11-18.53-17.28-39.67-18.62-61.71-.13-2.23,1-3.37,2.67-4.47,7.6-5.06,15.13-10.23,22.76-15.25,1.29-.85,3.17-3.21,4.34.06,5.3,14.76,13.9,28.46,14.39,46.8-.36,13.19-6.47,25.58-18.13,35.34C974.45,882.59,972.51,883,970,879.37Zm12.62-98.13c.22-20.59,14.39-35.31,32.07-33.67a36.18,36.18,0,0,1,6.62,1.49c3.56,1.05,4.84,2.56,1.72,5.93a182.25,182.25,0,0,1-36.74,30.41C979.68,789.56,984.67,781.73,982.59,781.24Zm60.76,5.87c-.61,18.58-6.19,34.52-14.84,49.48-11.65,20.14-27.29,37.74-37.59,58.74-1.21,2.47-2.61,2.16-4.34.67a32.37,32.37,0,0,0-3-2.28c-6-4-7.42-6.44-.63-12.68,16.63-15.28,21-34.82,13.66-56.36-3.15-9.22-7.26-18.11-11-27.11-1.31-3.13-.89-5.24,2.16-7.32,14.27-9.73,28-20.22,39.42-33.29,2.58-3,4-1.54,5.82.61C1040.48,766.46,1043.1,776.94,1043.35,787.11Zm-41.06-93.53c6.62-5.51,14-9.77,23-9.75,10.4,0,18.06,6.31,19.37,16.53,2.19,16.95-4.66,31.23-13.83,44.74-1.44,2.12-3,1.62-4.81.71-22.85-11.32-50.78,8.28-47.67,37.67.59,5.59-.63,8.8-5.49,11.52-5.78,3.25-11.1,7.3-16.67,10.92-1.32.85-3.19,2.19-4.26,1.8-1.73-.61-.79-2.9-.88-4.46-.14-2.28,0-4.57,0-6.85C954.06,755.1,970.14,720.31,1002.29,693.58Zm-22.54,5.56c-1,7.11-4.27,13.42-7.76,19.58-8.59,15.15-20.37,27.77-32.06,40.47-13.65,14.83-27.6,29.45-36.19,48.11-.32.7-1.07,1.89-1.39,1.81-1.73-.39-.88-2-1-3-2.72-30.6-10.65-59.66-26.06-86.39-15.29-26.54-35.68-47.92-63.79-61.11-8.9-4.18-18.2-7.05-28.63-7.2-16,.3-27.32,8.74-34.92,22.67-8.07,14.79-10.65,30.87-10.49,47.54,0,2,1.08,4.93-.76,5.81-2.35,1.1-3.78-1.89-5.35-3.31-16.36-14.73-29-31.89-35-53.46-2.44-8.69,6.28-9.57,9.29-14.4,2.27-3.63,4.83,0,6.89,1,17.27,8.27,35.42,4.6,48.45-10.52,13.41-15.54,19-34.27,21-54.32,1.1-11.08,1.1-11.1,11.33-6.13,18,8.76,32.72,21.9,46.83,35.81,13.76,13.56,26.84,27.84,42.18,39.72,20.71,16,43.57,25.73,70.34,23.71a72.26,72.26,0,0,0,10.45-1.6C973.3,681.57,981.26,688.74,979.75,699.14Zm6.4-35.49a40.56,40.56,0,0,1-14.57,12.4,8,8,0,0,1-7.64.25q-8-3.59-16.11-6.69c-37.58-14.32-52.5-43.5-53.78-78.2,0-18.33.61-18.61,14.34-12.8,11.28,4.77,22.68,9.25,34.11,13.66,3.3,1.27,4.7,3,5,6.72,2.12,25.48,14,44.89,36.91,56.83C989.11,658.28,988.62,660.21,986.15,663.65Zm4.23-11c-3.41,1.85-8.06-3-11.7-5.65-15.74-11.3-24.15-26.89-26.34-46-.17-1.55-1.7-5.18,2.45-3.25,11.85,5.51,23.64,11.23,32,21.84,4.53,5.75,6.37,12.46,6.63,20.31C992.78,644,994.11,650.61,990.38,652.63ZM1058.82,727c.13-17.77,10.36-29.48,27.17-31.85,6.78-1,13.69-1.3,20.35-2.8,14.43-3.24,21-14,17.89-28.49a45.21,45.21,0,0,0-11.85-22.27c-9.68-10-21.79-12.33-34.11-5.86-6.21,3.26-11.91,7.57-17.67,11.63-18.4,13-38.47,15.61-60,10.15-3.91-1-5.29-2.45-4.21-6.8,4.47-18.11-1.31-32.68-16.08-43.85-7.67-5.81-16.24-10-24.93-14-3.14-1.45-4.85-12.27-2.13-14,2.06-1.3,3.39.95,4.79,1.93,15.13,10.64,31.27,18.77,49.83,21.65,29.54,4.57,42-10.2,31.42-38-3.15-8.33-7.37-16.25-11-24.4-.48-1.06-1.14-2.76-.68-3.38.94-1.25,2.24.15,3.19.66,16.68,8.84,32.53,19.38,50.87,24.81,2.29.68,2.25,2.84,2.7,4.55,12.8,48.87,45.81,77.54,92.58,92.21,4.68,1.47,6.61,3,6.62,8.27a202.87,202.87,0,0,0,4.18,39c.91,4.63.57,6.41-4.92,6.85-40.08,3.21-74,19.09-100.74,49.61-1.35,1.55-2.35,4.35-5.21,1.45C1066.43,753.46,1059.28,741.42,1058.82,727Zm52.36,67.29c-23.78,16.17-37.2,39-42.48,66.91-.23,1.22.61,3.38-1.41,3.41-.72,0-1.66-2.12-2.16-3.41-3.67-9.58-5.7-19.48-5.56-26.33,0-23.6,6.56-41.65,17.62-58.28,1.62-2.43,2.86-3.65,5.76-1.33a89.48,89.48,0,0,0,27.76,15C1114,791.39,1114.14,792.28,1111.18,794.29Zm51.15-5.64a80.31,80.31,0,0,1-20.88,2.51c-2.69-.66-6.38,1.08-9.32-1.63,2.7-2.19,6.09-2.39,9.26-3.19a61,61,0,0,1,20.38-1.21c1.77.16,3.78-.18,5,1.66A32,32,0,0,1,1162.33,788.65Zm15.12-5.63a13.1,13.1,0,0,1-2.65.74c-18.32-6.45-35.55-3.45-52.38,4.1-2,.89-3.69.09-5.42-.41a100.35,100.35,0,0,1-30.56-15.13c-3.09-2.2-3.47-3.82-.86-6.81,26.63-30.47,60.49-45.73,100.52-48.28,3-.19,4,1,4.59,3.67a302.88,302.88,0,0,0,11.15,38.23c.65,1.81,1,3.48-.52,5.21A73.86,73.86,0,0,1,1177.45,783Zm7.73,5.55c-1.23-.74-4.48-1.49-1-3.62A92.85,92.85,0,0,0,1203,769.68a11.74,11.74,0,0,1,2-1.24c.59,1.17,1.15,2.18,1.62,3.23,5,11,9.85,22,15,32.86,1.28,2.71.86,3.78-1.81,5.16-6.3,3.25-11.21,5.36-15.63-3.42C1200.17,798.48,1192.76,793.15,1185.18,788.57Zm12.25,100.23c-1.55,2-3,3.89-6,3.5-10.08-1.29-20.28-2.12-29.76-6.16-12.76-5.45-15.6-14.79-8.08-26.57,5.25-8.21,12.8-14.1,20.59-19.69a246.15,246.15,0,0,1,28.72-17.46c3.5-1.84,5.1-1.26,6.32,2.42a74.26,74.26,0,0,1,3.67,21.39A70.12,70.12,0,0,1,1197.43,888.8Zm69.17-4.44c-17.23,4-34.49,7.62-52.91,8.28-3.42-.19-9.13,2.09-11.12-.84-1.71-2.52,3.38-6.33,5.23-9.71,10.31-18.88,12.71-38.5,5.49-58.89-1.49-4.22-.74-6.38,3.37-7.15,3.68-.69,7.28-7,11.2.36a435.33,435.33,0,0,0,40.6,62C1271.05,881.74,1271.4,883.25,1266.6,884.36Zm7-6.64a521.9,521.9,0,0,1-41.28-62.27c-2.06-3.66-2.21-5.37,2.36-7.1,19.22-7.3,38.26-15,57.36-22.61,1.94-.77,3.67-1.69,5.63.33,4,4.18,8.32,8.12,12.47,12.18a15.44,15.44,0,0,1,1.43,1.9c-1.14,1.35-2,2.47-3,3.54-18.06,20-26.23,43.44-24.2,70.37.19,2.57,1.08,5.17-2.89,6.34C1277.83,881.48,1275.83,880.62,1273.61,877.72Zm15.58,18.41c-2.74-3.24-5.84-6.27-8.06-9.83-.91-1.48,2.25-2.18,3-1.94,5,1.71,2.8,7.46,5.93,10.44C1289.66,895.38,1289.43,895.76,1289.19,896.13Zm116.94-67.41c1.75.15,4.59-.79,5,1,.45,2-2.52,2.17-4.07,2.91-35.32,16.83-71.82,30.63-109,42.63-9,2.89-9,2.86-9.53-6.46-.06-1,0-2.08,0-3.12.61-23,8.58-43,24.21-59.83,1.49-1.61,2.7-3.55,5.61-1.59C1344.84,822.21,1375.34,826,1406.13,828.72Zm-45.29-69.24c-13.93,12.47-30.1,22.17-43.58,35.21a8.31,8.31,0,0,1-1.73,1.1c-1.9-.14-13.8-11.27-14-12.68-.28-2.21,1.72-2.13,2.84-2.6q27.52-11.6,55.14-23c1-.41,2.13-1.58,3.18-.29C1362.82,757.38,1361.59,758.81,1360.84,759.48ZM1385.69,713c.73,12.82-4.14,23.51-12,33.1a10.85,10.85,0,0,1-4.69,2.8c-22.47,8.09-44.45,17.39-66.21,27.18-4.22,1.89-6.49,1.45-9.07-2.53a95.63,95.63,0,0,1-15.08-45c-.3-3.59.72-4.85,4.35-4.62,4.34.27,8.71.06,13.07.06,28.68-.38,56.65-4.76,83.43-15.28C1384.53,706.77,1385.43,708.32,1385.69,713Zm-5.79-19.34c3.53,6.16,3.52,9.17-4.18,11.82a256.25,256.25,0,0,1-76.94,14h-10c-10.93,0-11.22-.08-8.93-10.48,5.91-26.79,19.47-47,47.74-54.23a14,14,0,0,1,11.77,1.91C1355.12,666.59,1370.31,676.93,1379.9,693.66Zm-11.82-100c20.32,18.39,42.34,34.89,61.21,54.9,3,3.22,8.62,7,7.11,10.61-1.19,2.87-7.93.54-12.19.26-20.16-1.33-39.61-7.18-59.61-9.56-5.36-.64-10.75-1-16.87-1.61-16.75,4.12-27.23-10.16-41-15.88-2.41-1-1.53-2.32-.21-3.72,14-14.88,22.8-32.55,27.25-52.4.77-3.43,2.13-3.26,4.63-1.82C1348.63,580.29,1359.12,585.51,1368.08,593.61Zm-30.93-27.8a23.6,23.6,0,0,1,3,2.78c-.8.22-1.35.55-1.59.4a8.25,8.25,0,0,1-2.69-2.16C1335.43,566.11,1336.19,565.21,1337.15,565.81Zm67.24-191.39c-18.55,1.24-33.2,9.89-44.87,23.86-17.14,20.48-23.43,44.94-25.22,70.92-1.35,19.5-.55,39-.51,58.53,0,1.8.82,4.26-1,5.2s-3.23-1.31-4.72-2.28c-7-4.51-13.81-9.2-20.84-13.61a12,12,0,0,1-4.49-5c-9.24-18-14.9-36.89-14.86-60.9-1.92-13.45,4.79-25.55,18.63-36.11a374,374,0,0,1,94.2-52.7c1.5-.57,3.52-2.55,4.82.12,1.71,3.51,3.82,7.11,4.24,10.85C1410,375.32,1406.28,374.29,1404.39,374.42Zm15-37.58c4.93,1.59,9.71,3.67,14.54,5.58a27.7,27.7,0,0,1,3,1.74c-1.39.62-2.29,1.11-3.24,1.44-7.45,2.6-15,5-22.34,7.81-3.17,1.19-4.46.31-5.32-2.74-1.84-6.55-4.63-12.84-5.19-19.73C1407.65,331.12,1413.26,334.86,1419.43,336.84Zm-22.66-1.77c1.59,7,6.94,15.22,4.8,20.52-1.9,4.66-11.87,6.1-18.32,8.86-30.18,12.91-58.23,29.33-83.41,50.51-.95.8-1.91,1.58-2.91,2.41-2-.71-.86-1.9-.42-2.71,2.45-4.57,4.76-9.24,7.56-13.6,14.55-22.56,35-38.73,57.71-52.26,9.63-5.73,19.72-10.69,29.54-16.11C1394.41,331,1395.88,331.13,1396.77,335.07Zm-34.86-86.45c14.57-13.45,30-25.74,48.85-32.78a23.45,23.45,0,0,1,4.14-.76,12.75,12.75,0,0,1-1.35,2.44c-21.7,24-24.54,53.12-22.62,83.49a101,101,0,0,0,1.91,14.82c1.11,5.2.47,8.05-5.74,6.44-1-.25-2.07,0-1.38,0-12.26-.5-22.25,2.78-32.47,4.43-7.84,1.27-15.72,2-23.41-.74-9.48-3.37-12.31-10.34-7.47-19.2,4.38-8,11.24-15.24,13.44-23.73C1339.85,267.41,1351.23,258.48,1361.91,248.62Zm68.43-99.23c-.1.15-.2.3-.29.45l-.68-.68ZM1407.92,23.15c1.6-3,3.07-3.11,5.74-1.28,9.92,6.83,16.93,16.32,24,25.75,2.22,2.94-.19,3.37-2,4.2a146.91,146.91,0,0,1-35,10.58c-4,.68-4.07.41-3.85-3.92A102.34,102.34,0,0,1,1407.92,23.15Zm-74.4,28c5.52-18.39,22.55-42.86,50.18-40.5a62.74,62.74,0,0,1,18.59,4.88c3.1,1.28,3.45,2.7,1.88,5.62a97.24,97.24,0,0,0-11.72,37.82c-.67,7.71-6.5,4.29-10.36,5.12a15.36,15.36,0,0,1-3.11,0,114.07,114.07,0,0,1-41.9-8.39C1335,54.85,1332.49,54.53,1333.52,51.1ZM1344,63.42a115.38,115.38,0,0,0,42.45,5.11c2.79-.19,5.16-.89,5.31,3.53,1,30.26,12.5,55.57,36.14,75a5.17,5.17,0,0,1,1,1.82c-6.43-1.21-11.55-5.14-16.92-8.41-20.12-12.23-37.78-27.88-57-41.38-4.93-3.46-9.68-7.76-15.2-9.64-8-2.72-9.25-8.16-9.35-15.21C1330.28,59.06,1330.17,59.09,1344,63.42ZM1067.68,169.51c21.86-20.45,43.66-41,68.79-57.5a65.12,65.12,0,0,1,18-8.48c10.1-2.86,16.17.48,18.76,10.65,2.76,10.85,4,22.08,8.45,32.5,3,7,6.82,13.34,13.58,17.36,13.69,8.13,28,2.87,33-12.14,3-9.06,2.88-18.41,2.38-30.15-.8-11.21.59-24.3,9.16-35.55,4.07-5.36,8.76-10.69,16.37-9.54s10.39,7.67,12.51,14.09,3.31,12.9,5.71,19.06c4,10.22,12.11,14.76,22.67,13.51,11-1.3,18.27-8.32,20-19a96.2,96.2,0,0,1,2.33-10.91c.69-2.47,2.89-3.42,5.32-3.65s3.57,1.42,4.43,3.51c7.48,18.25,20.38,32.12,35.81,43.89,6.28,4.79,12.71,9.43,18,15.35,6.12,6.85,10.33,14.32,5.88,23.74a24.93,24.93,0,0,1-24.94,14.24c-14.21-1.35-24.52-9.47-33.3-19.95-4.14-4.93-7.74-10.32-12.79-14.44-10.26-8.37-22.18-7.52-31.1,2.32-6.88,7.59-10.33,17-13.31,26.52a339.65,339.65,0,0,0-9.89,42.44c-4.08,23.26,11.53,37,36,32.06,8.32-1.68,16.31-5,25-4.68,5,.2,8.84,2,10.9,6.83,1.08,2.5,1,4.48-1.25,6.62-21.91,20.58-46,36.83-76.76,41-4.88.66-6.36-.64-7.71-5a318.25,318.25,0,0,0-40.09-84.06c-11.26-16.73-24.21-32.47-43.77-39.37-10.15-3.58-16.27-8.06-20.24-18.35-4.81-12.48-14.27-18-22.58-15.78-11.47,3-14.13,13.07-14,22.56.21,13.83-2.94,25.18-13.78,34.35-3.34,2.82-5.22,7.44-7.53,11.37-1.46,2.48-2.41,3.34-3.68,0a392.06,392.06,0,0,0-17.52-39.91C1065.31,172.62,1066,171.11,1067.68,169.51Zm-4.13,9.72a447,447,0,0,1,18.22,43A7.68,7.68,0,0,1,1082,227c-8,22.22-4.44,44.2,1,66.21,3.74,15.1,8.19,30,10,45.58,3.57,30.62-12.42,52.53-41.06,55.25-13.38,1.27-25.36-3.32-36.23-10.93-9.42-6.59-17.51-14.69-25.33-23-5.1-5.42-1.29-12.37-2.17-16.93a246.89,246.89,0,0,1,6.71-50.29c.86-3.68,2.66-5.42,6.12-6.83,23.58-9.6,39.14-26.1,43.13-52,1.43-9.26-.61-18.23-3.83-26.86-1.4-3.73-1.3-6.48,1.53-9.51,5.81-6.22,11.33-12.71,16.89-19.17C1060.85,176.18,1062.08,176.18,1063.55,179.23Zm-13.15,1c-2.62,2.93-5.17,5.92-7.69,8.94-6.31,7.55-6.29,7.56-10.28-1.82-6.2-14.59-6.18-14.57,5.21-25.14,2.73-2.53,5.27-5.25,7.92-7.87.84-.83,1.73-1.61,3-2.8,1.47,2.24,2.76,4.07,3.89,6C1059.72,169.8,1059.69,169.8,1050.4,180.18Zm19.71-71.47a170.42,170.42,0,0,1-18.92,32.14c-1.72,2.3-2.83,3.16-5.86,1.22-12.17-7.81-23.9-1.93-25.45,12.44-.16,1.45-.57,3.06-.13,4.34,3.58,10.24-3,14.09-10.52,18.15a144.2,144.2,0,0,1-68.12,17.87c-27.83-.34-53.22-7.05-78.15-16.07-2.78-1-3.61-2.4-2.33-5.07,3.69-7.66,7.45-15.29,11-23,1.69-3.69,4.32-2.23,6.83-1.7,21.24,4.5,42.15,3.58,62.52-4.13,19.67-7.45,35.46-19.79,46.09-38.16,1.75-3,3.38-3.76,6.88-3.16,24,4.09,48,3.59,71.92-.37,2-.33,5.05-1,5.89,0C1073.09,104.71,1070.94,106.88,1070.11,108.71ZM1002.9,61.93c.66-3.21,2.39-4.88,5.35-6.11,18-7.49,35.65-15.89,51.81-27,1.9-1.31,3.44-1.78,5.6-.49a71.5,71.5,0,0,0,26.9,9.29c3.83.55,3.55,2,2.5,4.93q-9,24.57-17.62,49.24c-1.29,3.69-3.13,5.62-7.3,6.31-13.77,2.27-27.56,3.82-41.52,3.6a198,198,0,0,1-32.89-2.34c-3.43-.51-4.2-1.53-2.84-4.72A171.48,171.48,0,0,0,1002.9,61.93ZM949.74,81.17q22.5-9.87,45.06-19.59c1.41-.61,3.22-1.73,3.15,1.15-2.55,11.37-5.6,22.33-10.33,32.78-1.12,2.47-2.88,1.69-4.71,1.28a163.79,163.79,0,0,1-33.39-11.71A20.62,20.62,0,0,1,947,83.43,13.32,13.32,0,0,1,949.74,81.17Zm-12,6.14c2.67-1.46,4.68-.55,7,.57a159.58,159.58,0,0,0,34.49,12.51c4.69,1.06,5.13,2.56,2.56,6.45C963,135.15,935.5,145.93,903,147.05a133.7,133.7,0,0,1-22.35-2.2c-3.44-.64-4.59-1.61-2.17-5.11C893.91,117.36,914,100.31,937.69,87.31Zm-4.89-5.79A20.67,20.67,0,0,1,935,83.31c-1.27.86-2.21,1.58-3.22,2.17-23.43,13.79-43.59,31.15-58.69,54-1.65,2.5-3.37,2.59-5.75,1.74A119.74,119.74,0,0,1,836.51,125c-2.5-1.83-2.77-3-.08-5,23.5-17.52,46.51-35.67,68.47-55.11,1.68-1.49,2.91-1.84,4.73-.21A153.28,153.28,0,0,0,932.8,81.52Z"/><path class="cls-2" d="M-.08,593v8.56C6.63,613.14,8,625.66,2.54,639.21a43.9,43.9,0,0,1-2.62,5.38V653C15.82,633,13,609.51-.08,593Z"/><path class="cls-2" d="M-.08,153.4v6.11c5,5.09,7.58,11.93,7.53,20.39A36.71,36.71,0,0,1-.08,200.63v7.24a55.48,55.48,0,0,0,7.36-10.73C16.28,180,13,163.37-.08,153.4Z"/></g></svg>