<?xml version="1.0" encoding="utf-8"?>
<!-- Generator: Adobe Illustrator 20.1.0, SVG Export Plug-In . SVG Version: 6.00 Build 0)  -->
<svg version="1.1" id="Layer_1" xmlns="http://www.w3.org/2000/svg" xmlns:xlink="http://www.w3.org/1999/xlink" x="0px" y="0px"
	 viewBox="0 0 1440 809.9" style="enable-background:new 0 0 1440 809.9;" xml:space="preserve">
<style type="text/css">
	.st0{fill:#303D78;}
	.st1{clip-path:url(#SVGID_2_);}
	.st2{fill:#3D55CC;}
</style>
<g>
	<g id="Mask_Group_13" transform="translate(9.869 125.423)">
		<g id="pattern_01" transform="translate(0 -278.801)">
			<rect id="Mask-3" x="-9.9" y="153.4" class="st0" width="1440" height="809.9"/>
			<g id="Group_8">
				<defs>
					<rect id="SVGID_1_" x="-9.9" y="153.4" width="1440" height="809.9"/>
				</defs>
				<clipPath id="SVGID_2_">
					<use xlink:href="#SVGID_1_"  style="overflow:visible;"/>
				</clipPath>
				<g id="Mask_Group_14" class="st1">
					<path id="Combined_Shape" class="st2" d="M547.8,1595.3c-10.8-9.7-21.8-8.5-33.7-7.7c-21.4,1.4-43.5-12.9-53.5-34.6
						c-7.7-16.8-5-35.1,13.6-50.2c22.9-18.7,48.4-34.4,73.4-50.5c9.6-6.2,18.2-11.2,20.6-24c2.2-12.1,12.3-18,23.9-16.6
						c45.1,5.2,72,44.2,68.6,85c-0.5,6.5-7.4,15.4-13.4,17.4c-4.3,1.5-14.3-5-17.4-10.5c-5.6-9.8-7.8-21.5-12.4-35
						c-15.8,0.4-29.3,6.9-40.3,19c-7.8,8.6-15.1,17.7-23.5,25.7c-3.7,3.6-9.3,7-14.2,7.4c-9,0.6-16.3,1-15.4,12.9
						c0.8,10.9,5.3,18.3,16.8,19.9c8,1.1,16,2.2,23.9,3.7c11.3,2.1,20.6,8,22.1,19.8c0.7,5.4-2.6,13.4-6.9,16.8
						c-5.5,4.4-12.2,7-18.6,6.9C556.5,1600.7,551.6,1598.8,547.8,1595.3z M748.8,1582.8c-10.4-3.6-19.5-10.1-26.2-18.8
						c-3.4-4.4-6-9.2-7.9-14.4c-3.8-10.5-4.5-19.7-2.4-28.2c2.1-8.3,7.2-16.1,15.5-23.6c2.6-2.4,4.6-7.2,4.7-11.2
						c0.1-5.1,0.8-10.2,2.1-15.2c1.1-4,3-7.7,5.6-10.9c2.6-3.1,5.8-5.5,9.5-7.1c4.4-1.9,9.1-3.2,13.8-3.7c1.9-0.3,3.9-0.4,5.9-0.3
						c8.8,0.2,17.3,3.1,24.5,8.2c3.5,2.4,6.5,5.4,9.1,8.8c2.5,3.3,4.3,7.1,5.4,11.1c3.5,12.8,5.1,26,4.8,39.2
						c-0.2,6.8-1,13.7-2.4,20.4c-1.5,7.3-3.6,14.4-6.3,21.4c-1.4,4.2-3.3,8.2-5.6,11.9c-2.1,3.3-4.8,6.1-7.9,8.5
						c-6.1,4.6-14,6.9-24,7.1c-0.7,0-1.4,0-2,0C759.5,1585.6,754,1584.6,748.8,1582.8L748.8,1582.8z M774.3,1491.5
						c-4.1,3.2-8.4,6.5-12.5,9.9c-0.7,0.7-1.4,1.5-1.9,2.4c-0.5,0.8-1.1,1.6-1.8,2.3c-7,6.1-10.3,11.3-10.7,16.9
						c-0.4,5.6,2.1,12,8.2,20.5l0.3-0.1c14.2-3.1,21.3-4.7,24.9-8.9c1.7-2,2.8-4.7,3.3-8.8c0.5-5.3,0.7-10.6,0.6-15.9
						c0-5-1.7-10.1-3.5-15.1c-0.8-2.3-1.6-4.6-2.2-6.9C777.5,1489,775.9,1490.3,774.3,1491.5L774.3,1491.5z M1083.7,1558.9
						c-9.9-9.3-10.8-19.2-8.1-29.9c3-12,12.7-18.7,24.8-18.6c13,0.1,25.9,2.5,38.9,4c4.7,0.6,9.4,1.7,14.1,2.5
						c1.3-1.1,2.7-2.1,4-3.2c-5.5-13.6-10.5-27.4-17.1-40.5c-1.3-2.5-8.8-2.9-13.3-2.6c-8.3,0.5-16.7,4-24.7,3
						c-15.5-1.9-25-14.5-25.6-30.9c-0.6-15.3,6.6-25.9,22.7-29.4c26.1-5.8,50.4,0.3,70.8,17.1c5.6,4.6,7.4,14.8,9.5,22.7
						c4.7,17.8,7.6,36.2,13,53.8c4.3,14.1,8.5,27.5-2.9,39.7c-3.9,4.1-8.6,7.3-13.9,9.3c-15.1,5.3-30.3,12-45.9,13.9
						c-4.9,0.6-9.8,0.9-14.8,0.9C1104.1,1570.6,1093.3,1567.9,1083.7,1558.9L1083.7,1558.9z M952.2,1556.4
						c-14.6-1.4-29.2-3.5-42.1-5.4c-4.6-0.7-9-1.3-13.2-1.9c-5.1-2-10-4.5-14.6-7.5c-4.8-3.1-9.3-6.5-13.5-10.3
						c-4.3-3.9-8.3-8-12-12.5c-3.7-4.5-7.2-9.2-10.3-14.1c-3.1-4.9-5.8-9.9-8.2-15.2c-2.3-5.1-4.3-10.3-5.9-15.7
						c-1.5-5.1-2.6-10.3-3.2-15.6c-0.6-5-0.7-10-0.2-14.9c0.5-5.4-1.2-11.1-2.9-16.6l-0.3-0.8c-1.7-5.6-2.1-11.5-1.2-17.2
						c0.9-5.4,3-10.5,6.1-14.9c6.8-9.4,17.7-15.2,29.3-15.5c8.1-0.4,15.8-3.1,22.3-7.8c2.7-2.2,5.7-4,8.9-5.4
						c5-2.3,10.8-2.4,15.9-0.3c2.8,1.1,5.4,2.6,7.8,4.3c11.7,8.3,23.8,16.5,35.5,24.4c15,10.1,30.4,20.5,45.1,31.4
						c7.3,5.4,13.1,12.6,17,20.8c3.9,8.4,6.2,17.4,6.7,26.6c0,0.5,0.1,1.1,0.1,1.6l0,0c0.4,2.4,0.3,4.9-0.2,7.4
						c-0.4,1.4-0.7,2.9-1.1,4.4c-0.5,2.5-1.1,4.9-2,7.3c-0.9,2.4-2,4-3.3,4.6c-11.2,5.6-16.3,16.4-21.2,26.8
						c-2.6,5.6-5.4,11.4-9,16.2c-1.8,2.5-3.9,4.7-6.3,6.6c-2.5,2-5.4,3.6-8.4,4.8c-0.9,0.3-1.9,0.7-2.8,1.1c-4,1.6-8.1,3.2-12,3.2
						C952.9,1556.5,952.5,1556.5,952.2,1556.4L952.2,1556.4z M882.4,1423.5c-3.8,1.3-8.2,2.8-12.9,4.1c2.2,1.8,4.3,3.7,6.1,5.8
						c1.6,1.8,3,3.7,4.3,5.8c1.1,1.8,1.9,3.8,2.6,5.8c0.6,1.9,1,3.8,1.1,5.7c0.3,3.8-0.2,7.6-1.3,11.2c-1.2,3.7-2.7,7.3-4.7,10.8
						c-5.2,9.1-5.2,20.4,0.1,29.5c5.7,9.9,16.4,15.7,29.2,16c1.8,0,3.6,0,5.4-0.2c27.3-2.7,42.5-22.2,55.7-41.9
						c1-1.5,0.7-4.9-0.1-7.5c-0.7-2.7-1.9-4.7-3-5.2c-2.2-0.9-4.1-2.2-5.9-3.8c-1.3-1.2-2.3-2.6-2.8-4.3c-0.5-1.8-0.5-3.8,0.1-5.6
						c0.7-2.3,1.8-4.6,3.1-6.6c2.5-4.1,3.2-7.8,1.9-10.7c-1.3-3-4.5-5-9.3-6c-1.7-0.3-3.5-0.7-5.2-1l0,0c-14.3-2.8-29-5.7-43.6-6.2
						c-0.1,0-0.3,0-0.4,0C896.4,1418.7,889.9,1420.9,882.4,1423.5L882.4,1423.5z M362.6,1474.5c-8.3-1.8-13.5-9.9-11.7-18.2
						c0.4-2,1.3-4,2.5-5.7c5.9-8.1,13.1-15.2,21.3-21c7-5,7.3-9.6,6.6-17.6c-1-12,1.6-24.3,2.5-36.5c0.4-6.1,0.5-12.2,0.7-18.3
						c-1.9-0.9-3.9-1.7-5.8-2.6c-6.6,7.2-13.5,14.2-19.7,21.7c-6.4,7.8-11.7,16.4-18.3,24.1c-14.1,16.5-32.4,20.8-52,11.9
						c-10.4-4.7-15-13-11.3-24.7c10.5-33,84-82.8,119.1-81.1c16.1,0.8,25.5,10.6,26.1,24.4c0.9,20.3-1.9,40.8-4.1,61.2
						c-1.6,14.8-5.3,29.3-6.8,44.1c-1.5,15-30.5,39-46.7,38.7C364.3,1474.8,363.4,1474.7,362.6,1474.5L362.6,1474.5z M686.8,1388.8
						c-9.7-8.8-18.3-20.5-22.9-32.7c-2.4-6.6,2.4-18.7,7.9-24.8c12.3-13.8,28.1-24.5,40.6-38.1c22.7-24.6,61.3-20.4,81.8-5.3
						c2,1.5,4.8,3.2,5.3,5.2c5.4,21.1,13.9,42.4,14.1,63.6c0.1,9.6-15.3,21.3-26.1,28.5c-8.4,5.6-16.9-1.1-18.1-11.4
						c-0.6-5.6,1.2-12.2,4-17.2c11.9-21.7,3.2-39-21.6-40.2c-20.8-1-39.9,5.8-56.6,18c-12.5,9.2-12.2,23.3-0.2,33.3
						c9.4,7.8,18.8,15.4,29.7,24.3c-6.6,4-12.7,5.5-18.1,5.4C698.8,1397.2,692.2,1393.6,686.8,1388.8L686.8,1388.8z M509.4,1370.4
						c-29-3.7-43.3-31.9-26.6-55.7c3.9-5.6,13.1-8.7,20.5-10.3c8.7-2,18.1-1.2,27.2-1.7c16.7-0.9,24.8-15.6,18.3-30.6
						c-2.3-5.3-1.7-12.6-0.6-18.6c6.4-33.7-5.7-48-40.9-46.6c-8,0.3-16,2.2-23.8,4.3c-19.1,5.4-24.2,14.5-19.8,33.7
						c1.9,8.3,4.3,16.5,5.8,24.9c2.2,12.4-3.6,19.4-15.8,16.2c-9.1-2.4-18.9-8-25-15c-12.9-14.9-15.3-33.5-12-52.6
						c2.4-13.6,11-23.3,23.9-26.8c29.2-8,58.5-17.1,88.4-21c53.1-7,90.6,43.4,70.5,93.8c-0.8,1.5-1.6,4.8-3.7,6.8
						c-8.9,8.5-7.4,17.5-4.4,28.3c6.6,23.6-2.6,38-23.4,52.3c-16.2,11.1-32,19.4-51.3,19.1C514.4,1370.9,511.9,1370.7,509.4,1370.4
						L509.4,1370.4z M1178.2,1377.5c-8.9-0.2-18.7-2.6-29.9-7.6c-2.2-1-4.5-1.9-6.8-2.7c-1-0.4-2.1-0.8-3.1-1.2
						c-0.2,0.4-0.5,0.8-0.7,1.2l0,0l-0.4,0.7c-6.3-3.8-12.9-7.6-19.1-11.2c-14.3-8.3-29.1-16.9-43-26.3c-2.7-1.8-5.1-4-7.3-6.4
						c-2.2-2.5-4.2-5.2-5.9-8.1c-1.8-3-3.3-6.1-4.5-9.3c-2.5-6.6-3.9-13.5-4.2-20.5c-0.1-3.5,0-6.9,0.5-10.4
						c0.4-3.3,1.2-6.6,2.3-9.8c1.1-3.1,2.5-6.1,4.2-8.9c5.6-8.9,5.6-16.3,3.8-25.3c-1.6-7.2-1.8-14.7-0.8-22
						c0.9-6.3,3.1-12.4,6.7-17.7c2.5-3.7,5.7-6.8,9.4-9.2c3.9-2.5,8.3-4.2,12.9-4.9c3-0.5,6.1-0.7,9.2-0.7c4.5,0.1,9.1,0.7,13.4,1.9
						c4.1,1,7.9,2.8,11.4,5.2c24,17.9,48.8,28.4,75.8,32.2c4.3,0.6,8.4,1.8,12.3,3.6c3.6,1.7,6.8,4,9.6,6.7c2.7,2.8,5,6,6.6,9.6
						c1.7,3.8,2.8,7.9,3.3,12.1c1.3,11.1,0.9,22.5,0.6,33.6c-0.2,5.6-0.4,11.4-0.3,17.1c0,4.2,0.2,8.2,1.8,11.3
						c3.5,6.8,4.7,13.6,3.5,20.2c-1.1,6.1-4.3,11.9-9.5,17.5c-9.8,10.5-17.5,17.3-25,21.8c-4,2.5-8.3,4.4-12.8,5.8
						C1187.6,1377,1182.9,1377.6,1178.2,1377.5L1178.2,1377.5z M1133.5,1220.3c-2.1,0.3-5,1.9-7.5,4.4c-2.5,2.4-4.1,5-4.1,6.7
						c0.3,6.4-1.1,12.7-4,18.3c-1.4,2.7-3.2,5.1-5.2,7.4c-2.1,2.4-4.4,4.6-6.9,6.7c-3.1,2.6-6,8.1-5.2,10.9
						c4.9,16,10.9,34.6,18.6,52.1c2.2,4.9,6.8,8.7,10.5,11.8c1.4,1.2,2.7,2.2,3.6,3.2c2.6,0.9,5.4,1.4,8.2,1.4
						c12.1,0.2,26.8-7.1,36.5-18.1c6.2-7,9.1-14.3,8.2-20.4c-0.4-3-0.9-6-1.3-8.9c-1.4-9.2-2.8-18.7-3.8-28.1
						c-1.5-12.3-6.8-23.8-15.1-33c-8.3-9.1-18.7-14.5-28.5-14.6C1136.2,1220.1,1134.8,1220.1,1133.5,1220.3z M899.8,1332.4
						c-3.2-2.9-7.8-4.8-12.1-6c-19.6-5.2-34.2-15.9-43.8-34.4c-5.4-10.5-15.7-18.5-21.3-29c-15.1-28.1-11.4-48.8,9.6-72.5
						c6.6-7.4,10.5-17.3,17.1-24.7c6-6.7,13.1-12.4,21.1-16.8c12-6.5,23.1-3.4,29.8,8.6c4.4,7.9,7.6,16.5,9.3,25.4
						c2.7,13.6-4.5,22.3-19.2,25.7c-6.5,1.5-13.1,2.7-24.5,5c22,11.7,29.9,25.7,32.5,46.3c1.1,8.8,17.9,18.7,29.4,22.6
						c16.6,5.6,34.6,5.5,50.7-5.9c8.4-5.9,9.8-12.5,3.2-18.5c-10.2-9.5-21.3-18.8-33.5-25.3c-22.2-11.9-27.9-35.1-11.6-54.8
						c1.9-2.3,4.2-5.4,6.7-5.9c9.9-1.9,20.4-4.9,29.7-2.9c3,0.7,3,15.4,4.9,26.6c14.7,3.4,29.7,13.7,39.4,30.9
						c10.1,17.9,8.6,29.9-5.2,44.8c-2,2.2-3.7,5.9-3.5,8.8c3.3,43.9-17.9,67.9-60.8,67.6c-0.5,0-1,0-1.6,0
						C929.3,1347.9,913,1344.7,899.8,1332.4L899.8,1332.4z M216,1283.8c-20.4-15.1-23.9-45.9-9.6-69.6
						c18.9-31.2,49.7-41.4,82.3-47.9c30.1-6,60.6-10.6,91.1-14.7c9.2-1.2,19.1,0.8,28.4,2.4c10.7,1.8,13.5,8.6,7.9,17.6
						c-15.5,25.1-28.8,51.3-57,66.6c-14.3,7.8-25.7,21.2-43.5,21c-6.3-0.1-12.6-3.5-18.9-5.4c2.8-6.1,4.1-14.6,8.8-17.8
						c13.2-9,28.1-15.6,42.1-23.6c8.3-4.7,16-10.4,24-15.6c-0.9-1.8-1.8-3.6-2.6-5.4c-10.4,0.7-20.8,1.1-31.2,2.3
						c-22.5,2.6-45,5.5-67.5,8.4c-36.6,4.8-42,15.2-25.6,48.9c9.6-2.1,19.2-5.5,28.9-5.8c5.4-0.1,13.6,3.7,15.7,8.1
						c2.1,4.4,0,13-3.2,17.5c-10.1,14.2-27.3,21.7-43.8,21.4C232.9,1292.2,223.7,1289.3,216,1283.8L216,1283.8z M684.8,1249.5
						c-2-9.9-0.9-22.6,4-31c3.9-6.8,15.2-10.4,23.9-12.9c8.5-2.4,18-1.1,26.9-2.3c18.8-2.6,20.4-7.2,14-24.8
						c-2.4-6.5-1.5-16.2,1.7-22.4c4.3-8.4,2.3-12.9-3.7-18.2c-13.8-12.2-36.1-11.6-52.8,1.3c-9.1,7-18.1,14.5-28,20.3
						c-9.3,5.4-16.6,1.6-15.5-9.5c0.8-8.5,2.9-19.6,8.6-24.4c30.3-25.4,66.7-33.2,105.4-32.4c2.9,0.1,5.7,1.8,8.1,2.6
						c21.4,8.7,32.1,25.3,32.9,47.2c0.7,21.8-8.7,39.7-29.5,48.6c-10,4.3-12.6,9.6-12.2,20.5c0.3,7.9-3.4,19.6-9.3,23.3
						c-15.7,10-33.2,17.7-50.8,24.1c-2.8,1-5.8,1.5-8.9,1.5C692.9,1260.6,686.4,1257.4,684.8,1249.5L684.8,1249.5z M-465.6,1192.8
						c-14.2-10.5-27.9-8.2-42.8-7.6c-29.6,1.1-58.4-39.5-45.2-71.6c5.3-5.5,13.2-16.4,23.6-23.7c22.6-15.9,46.7-29.7,69.8-44.9
						c4.2-2.8,8.6-7.1,10.2-11.7c8.2-23.1,14.5-26.7,38-20c34,9.7,56,37.3,57.1,72.5c0.2,6-0.9,11.9-3.1,17.5
						c-4.6,10.9-15.7,13.6-22.5,4.3c-6.6-8.9-11.2-20.1-13.5-31c-2.1-9.8-6.7-12.7-14.2-9c-11.1,5.4-22.5,11.3-31.6,19.4
						c-14.1,12.6-21.6,33.7-45.9,32.2c-1.6-0.1-6.1,7.7-5.1,10.5c2.4,7,6.1,14.1,11.2,19.3c2.8,2.9,9.6,1.9,14.5,2.7
						c4.5,0.7,9,1.4,13.4,2.3c11.1,2.2,20.7,7.4,22.7,19.2c0.9,5.3-2.2,15.4-5.8,16.5c-7,2.3-16.3,5.3-23.4,5.1
						C-460.9,1194.8-463.4,1194.2-465.6,1192.8z M-284,1173.8c-9.3-6.7-16.3-15.6-19.7-25.3c-3.6-10.2-4.2-19.8-2-28.8
						c1.1-4.4,3-8.6,5.5-12.5c2.6-4.1,5.9-7.7,9.6-10.8c3-2.8,4.8-6.6,5.1-10.7c0.2-12.1,2.5-20.4,7.2-26.3
						c4.8-5.9,12.2-9.4,23.3-11.1c11-1.6,22.2,1.2,31.1,7.8c3.4,2.5,6.5,5.6,8.9,9.1c2.5,3.5,4.4,7.5,5.5,11.7
						c3.6,12.6,5.1,25.7,4.5,38.7c-0.7,13.6-3.7,27.5-9.2,42.5c-1.3,4-3.2,7.8-5.5,11.3c-2.1,3.2-4.8,5.9-7.9,8.1
						c-6.2,4.4-14.4,6.6-24.9,6.7c-0.4,0-0.7,0-1.1,0C-263.9,1184.2-274.7,1180.4-284,1173.8L-284,1173.8z M-252.6,1093.7
						c-1.4,1.5-2.5,3.2-3.4,5c-0.8,1.8-2,3.5-3.3,4.9c-14.1,13.6-14.8,19.9-4,39.3c2.4-0.7,4.7-1.4,7-2c5.5-1.4,11-3.2,16.3-5.3
						c1.8-0.8,3.4-2,4.8-3.4c1.6-1.6,2.5-3.2,2.6-4.5c0.6-10.1,0.2-20.1-1.2-30.1c-0.5-2.5-1.4-4.8-2.7-6.9c-1.5-2.4-3.1-3.9-4.4-4
						c-0.1,0-0.2,0-0.3,0C-245,1086.5-249.7,1091-252.6,1093.7L-252.6,1093.7z M67.4,1156.6c-10.2-8.4-9.9-18.4-7.7-28.4
						c2.7-11.9,11.8-19.3,24.1-19.3c12.5,0.1,25,2.3,37.4,3.8c5.3,0.6,10.6,1.9,20.4,3.7c-3.7-12.9-5.5-22.3-9-30.9
						c-7.8-19.1-8.6-19.1-28-13.3c-19.7,5.9-38.9-5-43.1-24.5c-4.4-20.4,6.1-34.1,29.1-37c21.9-2.7,42.7,2.1,60,15.3
						c6.7,5.1,10.8,15.2,13.3,23.8c5.4,18.6,7.9,38.1,13.7,56.6c4.7,15.1,6.2,28.6-4.6,41.2c-2.2,2.6-4.9,5.3-7.9,6.4
						c-10.8,3.9-21.8,7.4-32.8,10.7c-10.2,3-20.2,5-30,4.8C89.5,1169.5,77.2,1164.9,67.4,1156.6L67.4,1156.6z M-65.4,1152.8l-0.3,0
						c-14-0.3-28.1-2.6-40.6-4.7l0,0c-5.3-0.9-10.2-1.7-15-2.3c-5.1-2-10-4.5-14.6-7.4c-4.8-3-9.2-6.4-13.4-10.2
						c-4.3-3.8-8.3-8-12-12.4c-7.4-8.9-13.7-18.7-18.5-29.3c-2.3-5.1-4.3-10.4-5.9-15.8c-1.5-5.2-2.6-10.4-3.3-15.8
						c-0.6-5.1-0.7-10.2-0.3-15.3c0.3-4.9-0.3-9.9-2-14.6c-2.2-5.9-3-12.2-2.4-18.5c0.3-2.8,0.9-5.6,1.9-8.3c1.9-5.2,5-9.9,9.1-13.6
						c2.1-1.9,4.5-3.6,7-4.9c5.6-2.9,11.7-4.6,18-4.8c8.1-0.7,15.9-3.6,22.5-8.4c6.3-4.7,11.8-6.8,17.2-6.7c2.6,0.1,5.1,0.6,7.5,1.5
						c2.9,1.1,5.6,2.6,8.1,4.5c10.6,7.5,21.8,14.4,32.6,21.1c9.9,6.1,20.1,12.4,29.9,19.2c4.9,3.4,9.7,7,14.1,11
						c4.4,3.9,8.4,8.1,12,12.7c3.6,4.6,6.7,9.6,9.1,14.9c2.6,5.6,4.4,11.5,5.5,17.6c0.8,4.3,1.1,8.6,0.8,12.9c-0.2,4-1,7.9-2.4,11.6
						c-1.4,3.7-3.3,7.2-5.8,10.4c-2.7,3.5-5.8,6.6-9.2,9.3c-5.4,4.5-9.5,10.4-11.8,17.1c-2.5,8.1-7.3,15.4-13.8,20.9
						c-3.2,2.7-6.9,4.8-10.8,6.2C-56.5,1152.2-60.9,1152.9-65.4,1152.8L-65.4,1152.8z M-138.5,1020.9c-2.8,1.3-5.9,2.8-9.5,4.2
						c2.2,1.8,4.2,3.7,6,5.8c1.5,1.8,2.9,3.7,4,5.7c1.9,3.4,3,7.3,3.1,11.2c0.2,7.4-2.8,14.7-6,21.5c-5,10.8-4.7,21.6,0.7,30.2
						c5.8,9.3,16.7,14.9,29.2,15.2l0,0c2.2,0,4.4-0.1,6.6-0.4c24.6-3.4,39.4-19.2,54-41.9c0.7-1.1,0.7-3.5,0-6.4
						c-0.7-2.8-2.3-6.1-4-7.1c-4.3-2.3-6.7-4.8-7.6-7.7c-0.5-1.9-0.4-3.8,0.2-5.7c0.7-2.3,1.7-4.4,2.9-6.4c2.5-4.4,3.1-8.3,1.6-11.3
						c-1.4-2.8-4.5-4.7-9.1-5.3c-18.4-2.6-38.2-5.2-58-6c-0.1,0-0.2,0-0.3,0C-128.8,1016.3-133.1,1018.3-138.5,1020.9L-138.5,1020.9
						z M550.1,1122.1c4.9-9.4-0.3-12.9-7.3-13c-8.8-0.2-17.9,1.8-26.6,3.9c-8.8,2.2-11.4-1.5-10.6-9.1c1.2-11.5,6.5-21,19-21.6
						c14.8-0.7,29.7,0.9,44.6,1.6c0,0.9,0,1.8,0,2.8c3.2,1.5,6.5,2.9,9.5,4.6c15.2,8.7,28.3,26.6,22.2,31.9
						c-10.7,9.2-23.4,15.7-37.1,19c-1.7,0.4-3.5,0.6-5.2,0.6C548.2,1142.4,544.3,1133.2,550.1,1122.1L550.1,1122.1z M937.3,1146.7
						c-4.4-0.1-8.8-0.7-13-1.9c-4-1.2-7.9-2.9-11.5-5.2c-3.6-2.3-7-5-10-8.1c-3.2-3.3-6.1-6.9-8.6-10.8c-5.3-8-8.3-16.3-8.9-24.6
						c-0.3-4.3,0-8.6,1-12.8c1-4.5,2.6-8.8,4.8-12.9c1.4-2.7,3.6-6.5,6.6-8c8.1-4.1,9.5-9.9,9.4-19.7c-0.1-4.2,0.5-8.4,1.9-12.3
						c1.3-3.6,3.4-6.8,6.1-9.5c2.8-2.8,6.2-5,9.8-6.6c4.2-1.8,8.7-3,13.2-3.6c2-0.3,4-0.4,5.9-0.4c4.2,0.1,8.4,0.8,12.4,2.1
						c4,1.3,7.7,3.2,11.1,5.6c3.4,2.4,6.3,5.2,8.8,8.5c2.5,3.2,4.4,6.9,5.6,10.8c4,12.6,5.8,25.9,5.4,39.1
						c-0.4,13.5-3.2,27.4-8.3,42.5c-0.8,3.3-2.1,6.4-3.9,9.3c-1.8,3-4,5.8-6.6,8.1c-2.8,2.5-6,4.6-9.5,6.2c-4,1.8-8.2,3-12.5,3.5
						C943.4,1146.6,940.4,1146.8,937.3,1146.7L937.3,1146.7z M944.9,1051.7c-2,1.3-3.9,2.8-5.7,4.4c-0.5,0.4-1,0.8-1.5,1.3l0,0
						c-4.7,4-9.6,8.1-12.1,13.2c-3.1,6.3-3.5,14.1-3.2,19.5c0.2,3.3,1.7,6.6,3.6,10.7c1,2.1,2.1,4.5,3.2,7.3
						c3.6-2.1,7.3-3.8,10.9-5.5c7.8-3.7,15.2-7.1,19.1-12.9c1.6-2.3,2.2-5.6,2-10.2c-0.3-4.2-0.9-8.5-1.8-12.6
						c-0.4-2.2-0.8-4.3-1.1-6.3c-0.5-2.5-1.4-4.8-2.7-6.9c-1.5-2.4-3.1-3.9-4.4-4.1c-0.2,0-0.4,0-0.5,0
						C949.2,1049.4,947.3,1050.2,944.9,1051.7L944.9,1051.7z M192.8,1084.7c-10.8-25-6.1-47.6,11.3-61.5
						c18.5-14.7,46.2-14.6,67.3,0.1c0.9,0.5,1.7,1.1,2.4,1.8c5.1,8.5,10.1,17.1,15.2,25.6c-8.6,2.5-17.2,5.1-25.8,7.5
						c-7.3,2-18,1.5-21.2,6.2c-6.1,9-1,18.8,6.5,26.9c3.9,4.3,7.8,9.8,8.7,15.3c1,6.3,0.8,14.7-2.8,19.2c-1.9,2.4-6.9,2.2-11,2.1
						c-1.4-0.1-2.8-0.1-4.3,0C218.3,1116.3,201.4,1104.4,192.8,1084.7z M1273.7,1129.4c-13.7-4-26.4-19.6-25.2-34.5
						c1.1-14.2,12.8-24.6,29.8-23.8c16.4,0.8,32.7,3.9,52.8,6.6c-3.6-12.4-5.7-22.2-9.2-31.3c-4.8-12.5-9.8-21.6-27.4-12.5
						c-18.4,9.4-37.9-3.2-42.9-23.3c-4.7-19.3,5.6-33.8,27.2-37c23.6-3.5,45.7,2.3,64.1,16.9c6.4,5.1,9,16,11.4,24.8
						c4.6,16.7,6.6,34.3,12.2,50.7c5.4,15.8,8.3,30.1-3.4,44c-1.6,1.9-2.9,5.2-4.8,5.6c-22.7,4.7-44.1,17-67.8,16.6
						C1284.8,1131.8,1279.1,1131,1273.7,1129.4z M387.9,1108.9c-17.5-6.6-26.2-20.9-31.8-36.8c-5.3-15.2-9.1-30.9-12.5-46.6
						c-4.6-21.3-18-33.4-38.3-37.7c-13.2-2.8-15.3-9.3-10.2-20.4c11.5-25.1,30.1-42.6,56.3-50.9c6.7-2.1,15.2-1.7,22,0.3
						c17.4,5.2,20.4,15.4,10.2,30c-23.3,33.4-23.5,33.6,4.6,63.2c10.8,11.3,9.8,24.5,9.2,38.2c-0.5,12.6,4.1,23.3,16.3,28.1
						c12.9,5.1,23.8-0.8,32.5-10.1c8.5-9.1,6.7-18-0.4-28.4c-9.2-13.5-17.7-28.1-22.7-43.5c-2.2-6.9,2.4-21,8.1-24.2
						c6.8-3.7,20.5-2.4,27.1,2.4c19.7,14.4,31.2,35.4,34,60c0.9,7.7-0.1,16.8-3.6,23.4c-17.4,32.8-45,52.1-82,56.5
						c-0.8,0.1-1.6,0.1-2.4,0.1C399.1,1112.1,393.4,1109.9,387.9,1108.9L387.9,1108.9z M1121.8,1117.5c-5.8-0.2-11.6-1.2-17.1-3
						c-8.7-2.8-18.1-3.1-25.7-3.3c-2.8-0.1-5.2-0.2-7.1-0.3c-10.7-4.6-20.5-10.9-29.2-18.7c-4.3-3.9-8.4-8.1-12.1-12.6
						c-3.7-4.5-7.1-9.2-10.2-14.1c-3-4.8-5.7-9.9-8-15.1c-2.3-5.1-4.2-10.3-5.6-15.7c-1.4-5.2-2.5-10.5-3-15.8
						c-0.6-5.1-0.6-10.3-0.2-15.5c0.4-4.6-1.2-9.6-2.4-13c-2.3-6-3.1-12.4-2.5-18.8c0.3-2.9,0.9-5.7,1.9-8.4
						c1.9-5.3,5.2-10,9.5-13.8c2.2-1.9,4.6-3.5,7.2-4.9c5.7-2.9,12.1-4.4,18.5-4.4c7.7-0.4,15-3.2,21-7.9c6.3-5.2,12-7.6,17.6-7.5
						c2.5,0.1,5,0.5,7.3,1.4c2.8,1.1,5.4,2.5,7.8,4.2c8.5,5.8,17.5,11.2,26.2,16.5c11.7,7.1,23.9,14.5,35,22.8
						c15.5,11.5,27,23.5,34.2,35.6c5.4,9.1,6.7,20.9,7.9,32.3c0.3,2.7,0.6,5.4,0.9,8.1c0.2,2.6-0.2,5.3-1.3,7.7
						c-1.1,2.9-2.6,4.9-4.2,5.7c-11.6,5.5-16.7,16.3-21.6,26.7c-2.4,5.1-4.9,10.5-8.2,15.1c-1.6,2.3-3.5,4.4-5.6,6.3
						c-2.2,2-4.7,3.6-7.3,4.9C1138.2,1115.7,1130,1117.6,1121.8,1117.5L1121.8,1117.5z M1055.6,985.1c-3.5,1.3-7.1,2.7-11.1,3.9
						c4,3.2,7.3,7.2,9.8,11.7c1.9,3.5,2.9,7.4,3,11.4c0.1,3.8-0.5,7.5-1.5,11.1c-1,3.7-2.4,7.4-3.8,11c-0.5,1.4-1.1,2.9-1.6,4.3
						c-3.4,9.3-2.5,19.1,2.4,26.7c4.9,7.7,13.5,12.5,23.5,13.3c0.9,0.1,1.9,0.1,2.8,0.1l0,0c25.7,0.4,56-19.6,63.6-42
						c0.6-1.8,0.4-4.7-0.6-7.6c-1-2.9-2.5-5.3-4-6c-1.9-0.9-3.6-2.1-5.2-3.6c-1.1-1.1-1.9-2.4-2.4-3.9c-0.4-1.7-0.3-3.4,0.2-5
						c0.7-2,1.6-4,2.8-5.7c3-4.7,3.8-8.7,2.4-11.9c-1.5-3.3-5.2-5.5-11-6.5c-17.3-3-34.1-5.7-50.9-6l-0.1,0
						C1068.2,980.4,1062.4,982.6,1055.6,985.1z M-664.1,1063.2c-3-4.2-2.6-14,0.4-18.6c5-7.7,14-12.7,20-20c3.5-4.2,6.8-11,5.9-15.8
						c-2.6-13.2-3.3-25.3,3-37.9c2.4-4.9,0.3-11.9,0.3-18c-1.6-0.7-3.2-1.4-4.8-2.2c-6.8,7.4-13.9,14.6-20.4,22.3
						c-6.7,8.1-12.3,17.2-19.4,24.9c-13.7,14.9-33.3,18.6-51.1,9.9c-10.3-5.1-14.1-13.5-10.2-25c10.7-32.2,83.4-81.7,117.7-79.9
						c16.1,0.9,24.8,9.9,28.2,27.9c5.3,27.9-4.9,53.4-11.3,79.6c-0.8,3.4-1.8,6.7-2.5,10.2c-1.8,8.3-0.8,19.1-5.7,24.5
						c-8.8,9.6-20.5,17.2-32.3,23.2c-1.2,0.5-2.6,0.8-4,0.7C-655.3,1068.8-661.9,1066.3-664.1,1063.2z M788.1,1033.4
						c-13.8-4.5-20.7-22.8-15.3-34.7c5.8-12.9,19.8-16.2,37.1-8.3c9.1,5.7,18.2,7.1,26.6-2.5c7.8-8.9,15.8-2.9,18,3.5
						c3.3,9.8,6.6,23.1,2.2,30.7c-5.2,8.8-18,17-28.5,18.4c-2.2,0.3-4.5,0.4-6.7,0.3C810.4,1040.5,798.7,1036.9,788.1,1033.4
						L788.1,1033.4z M635.6,1022.2c-15.8-8.1-26.7-19.3-33.1-35.2c-4.9-12.1-1.7-22.1,8.8-29.1c10.5-7,19.5-4,28.1,5
						c23.3,24.8,23.5,24.6,52.7,6.9c19-11.5,31-10.3,36.6,4.2c1.4,3.6,1.5,10.5-0.6,12.3c-20,16-38.9,34.4-65.9,37.4
						c-2,0.2-4.1,0.3-6.1,0.3C649.3,1023.9,642.4,1022.6,635.6,1022.2L635.6,1022.2z M-335.8,982.1c-12-10.5-21.1-23.4-18.6-40.4
						c0.7-4.7,5.5-9.2,9.3-12.8c11.9-11.3,24.8-21.6,36.3-33.3c21.9-22.5,50.7-27.8,78.2-13.2c15.7,8.3,21.2,19.7,19.6,37.8
						c-0.4,4.4,2,9.4,4.2,13.5c8.7,16.4-6.9,47.9-25.3,49.9c-9.4,1-15.8-3.5-16.5-13.2c-0.3-4.3,0.4-9.3,2.5-12.9
						c5.9-10,14-19.2,4.3-31.1c-9.3-11.4-22.5-14.2-35.3-10.9c-15.3,3.9-30.6,9.4-44.3,17c-13.4,7.5-12.9,22.5-1,32.4
						c9.3,7.8,18.9,15.2,31.6,25.4c-5.9,2.3-12.1,3.5-18.4,3.5C-320.1,993.5-328.3,988.7-335.8,982.1L-335.8,982.1z M-507.4,969
						c-27.9-4-41.8-32.3-26.7-55.9c2.2-3.5,6.6-6.8,10.5-7.7c10.8-2.3,21.9-4.3,32.9-4.5c9.9-0.2,16.2-2.8,23-10.8
						c7.8-9.1,3.7-14.1,0-22.3c-2.5-5.6-0.8-13.7,0.4-20.4c5.2-29.3-4.5-42.1-34.2-43.6c-7.1-0.4-14.2,0.2-21.1,1.7
						c-29.9,6.6-34.8,14.9-27.4,44.6c1,3.9,2.5,7.9,2.4,11.9c-0.2,6.7,0.4,17.7-2.7,19c-6.5,2.8-16.1,2.5-22.8-0.2
						c-18.6-7.6-29.4-33.6-26.9-59.9c1.8-19,11.7-30.1,33.9-35.7c26.5-6.7,53-13.3,79.9-18.1c11-2,22.8,1.1,34.3,1.8
						c38.6,18,53.4,69.5,30,104.7c-3.2,4.8-4.3,12.9-2.9,18.6c6.7,27.3-0.8,42.5-23.6,58.6c-16,11.2-31.6,19.1-50.5,18.8
						C-501.8,969.6-504.6,969.4-507.4,969L-507.4,969z M162,976.3c-8.6-0.1-18-2.5-28.8-7.2c-2.6-1.1-5.2-2.1-7.7-3.1
						c-1.2-0.5-2.4-0.9-3.6-1.4c-0.3,0.5-0.7,1.1-1,1.6l-0.1,0.1c-6.2-3.7-12.6-7.4-18.8-11l0,0c-14-8.1-28.6-16.5-42.1-25.7
						c-5.6-3.8-10.3-8.8-13.8-14.6c-3.6-5.9-6.1-12.3-7.4-19c-1.4-6.8-1.7-13.9-0.9-20.8c0.8-6.9,2.8-13.7,5.8-19.9
						c2.8-5.6,3.2-12.4,3.7-19c0.1-1.5,0.2-3,0.3-4.5c0.2-3.6,0.3-7.2,0.1-10.8c-0.1-5.3-0.2-10.8,0.9-16c1.1-4.6,2.9-9,5.3-13.1
						c2.3-3.8,5.2-7.1,8.6-9.9c3.3-2.7,7-4.8,10.9-6.3c7.3-2.7,15.3-2.8,22.7-0.2c3.6,1.2,7.1,3,10.2,5.3c26.9,19.5,54.3,31.3,84,36
						c14,2.2,23.7,11.8,25.4,25.1c1.6,12.5,1.9,25.4,2.1,37.8c0.1,5.6,0.2,11.3,0.5,17c0,1.1,0,2.3,0,3.4c-0.1,2.9-0.2,5.8,1,8
						c4.2,7.2,5.5,14.6,3.9,21.8c-1.4,6.3-5,12.5-10.7,18.3c-4.7,4.8-8.7,8.7-12.5,11.9c-3.8,3.3-7.8,6.3-12.1,8.9
						c-3.9,2.4-8.1,4.2-12.5,5.5C171.2,975.8,166.6,976.4,162,976.3L162,976.3L162,976.3z M121.6,818c-9.3-0.2-14.7,5.5-16.9,17.9
						c-1.1,6.2-5,12.1-8.7,17.8c-1.4,2.2-2.9,4.4-4.2,6.6c-1.1,1.6-2.3,3.2-3.6,4.6c-2.3,2.6-4.4,5-4.1,7.1
						c3.8,22.1,8,47.2,28.6,64.6c5.1,4.5,11.5,7.1,18.3,7.3c5.1,0.2,10-1.6,13.9-4.9c11-10.2,19.2-23.1,23.8-37.4
						c2.2-7.2,0.3-15.8-1.5-24.1c-0.8-3.7-1.7-7.5-2.1-11.1c-2.5-18.9-12.8-34.2-30.6-45.5C130.3,819.3,126,818.3,121.6,818
						L121.6,818L121.6,818z M525.1,957c-16-6.1-31.9-12.8-46.9-21c-17-9.3-21.7-22-15.1-34.6c6.6-12.5,16.9-14.8,35.1-8
						c0.8,0.3,1.9-0.2,4-0.4c-0.5-3.3-2.2-7-1.4-9.8c2.5-8.1,4.1-20.1,9.7-22.7c8.2-3.8,21.6-4.3,29.1,0.2
						c23.6,14.1,28.6,39.6,16.1,64.1c-2.9,5.7-3.5,12.6-5.3,18.8c-3.1,11-7.1,16-14.6,15.9C532.1,959.3,528.5,958.4,525.1,957
						L525.1,957z M-117.1,930.4c-1.6-1.2-3.2-3-5-3.2c-30.1-4.4-44.7-28.1-61.4-49.2c-12-15.1-18.7-32.4-18.8-51.5
						c0-8.2,1.7-17.7,6-24.3c9.8-15,20.9-29.2,33-42.5c9.6-10.4,21.4-19.4,37.2-13.2c10,4,21,29.8,18.9,42.2
						c-1.7,10-7.4,16.2-17.6,18.1c-7.1,1.3-14.3,2.8-26.2,5.1c22.1,11.6,29.4,26.1,32.9,46.2c1.7,9.5,18.4,19.6,30.2,23.4
						c15.4,4.9,32.4,4.7,47.7-5.7c10.6-7.2,10.9-14.4,2.6-21.7c-9.7-8.5-20.2-16.8-31.6-22.6c-10.7-5.4-21.5-8.5-20.3-23.8
						c1.2-15.5,2.6-31.5,18.5-38.4c8.1-3.5,19.4-3.5,27.9-0.7c3.2,1,2.4,14.4,3.3,22.1c-1.3,0.7-2.5,1.4-3.8,2.1
						c4.9,2,10,3.7,14.8,5.9c19.3,8.8,31.4,24.1,34.2,44.7c1,7.6-3.4,17.6-8.6,23.7c-4.7,5.6-7.1,9-5.1,16.5
						c5.9,22.3-3.9,44-25.2,53.8c-13.4,6.2-26.7,9.5-39.7,9.3C-88.3,946.6-103,941.5-117.1,930.4L-117.1,930.4z M1222.8,954.5
						c-10.8-9.7-21.8-8.5-33.7-7.7c-21.4,1.4-43.5-12.9-53.5-34.6c-7.7-16.8-5-35.1,13.6-50.2c22.9-18.7,48.4-34.4,73.4-50.5
						c9.6-6.2,18.2-11.2,20.6-24c2.2-12.1,12.3-18,23.9-16.6c45.1,5.2,72,44.2,68.6,85c-0.5,6.5-7.4,15.4-13.4,17.4
						c-4.3,1.5-14.3-5-17.4-10.5c-5.6-9.8-7.8-21.5-12.4-35c-15.8,0.4-29.3,6.9-40.3,19c-7.8,8.6-15.1,17.7-23.5,25.7
						c-3.7,3.6-9.3,7-14.2,7.4c-9,0.6-16.3,1-15.4,12.9c0.8,10.9,5.3,18.3,16.8,19.9c8,1.1,16,2.2,23.9,3.7
						c11.3,2.1,20.6,8,22.1,19.8c0.7,5.4-2.6,13.4-6.9,16.8c-5.5,4.4-12.2,7-18.6,6.9C1231.4,959.8,1226.5,957.9,1222.8,954.5
						L1222.8,954.5z M837.4,912.6c-0.4-6.5,3.5-14.8,8.1-19.6c13.2-13.7,28-25.8,41.7-38.9c22.2-21.2,57.2-23.5,81.4-4.7
						c10.1,7.9,15.7,17.6,13.2,31.5c-0.9,5.1,1.7,11.5,4.1,16.6c7.6,15.8-8.2,46.8-25.5,49.2c-9.7,1.4-17.6-5.9-17.1-16.2
						c0.1-4,1.3-8,3.3-11.4c6-9,12.5-17.5,4.8-28.8c-8.2-11.9-20.6-15.4-33.1-12.7c-15.4,3.3-31.1,8.1-45,15.5
						c-17.1,9.2-16.8,23.7-1.7,36.2c8.8,7.4,17.7,14.8,26.5,22.2c-4.8,1.6-9.9,2.3-15,2.2C859.4,953.4,838.6,934.8,837.4,912.6z
						 M1423.8,941.9c-10.4-3.6-19.5-10.1-26.2-18.8c-3.4-4.4-6-9.2-7.9-14.4c-3.8-10.5-4.5-19.7-2.4-28.2
						c2.1-8.3,7.2-16.1,15.5-23.6c2.6-2.4,4.6-7.2,4.7-11.2c0.1-5.1,0.8-10.2,2.1-15.2c1.1-4,3-7.7,5.6-10.9
						c2.6-3.1,5.8-5.5,9.5-7.1c4.4-1.9,9.1-3.2,13.8-3.7c1.9-0.3,3.9-0.4,5.9-0.3c8.8,0.2,17.3,3.1,24.5,8.2
						c3.5,2.4,6.5,5.4,9.1,8.8c2.5,3.3,4.3,7.1,5.4,11.1c3.5,12.8,5.1,26,4.8,39.2c-0.2,6.8-1,13.7-2.4,20.4
						c-1.5,7.3-3.6,14.4-6.3,21.4c-1.4,4.2-3.3,8.2-5.6,11.9c-2.1,3.3-4.8,6.1-7.9,8.5c-6.1,4.6-14,6.9-24,7.1c-0.7,0-1.4,0-2,0
						C1434.4,944.7,1429,943.7,1423.8,941.9L1423.8,941.9z M1449.2,850.6c-4.1,3.2-8.3,6.5-12.4,9.9c-0.7,0.7-1.4,1.5-1.9,2.4
						c-0.5,0.8-1.1,1.6-1.8,2.3c-7,6.1-10.3,11.3-10.7,16.9c-0.4,5.6,2.1,12,8.2,20.5l0.3-0.1c14.2-3.1,21.3-4.7,24.9-8.9
						c1.7-2,2.8-4.7,3.3-8.8c0.5-5.3,0.7-10.6,0.6-15.9c0-5-1.7-10.1-3.5-15.1c-0.8-2.3-1.6-4.6-2.2-6.9
						C1452.4,848.1,1450.7,849.4,1449.2,850.6L1449.2,850.6z M685.2,931.7c-22-2.2-36.4-17.6-34.8-37.6c1.5-18.6,9.3-27,28.1-29.2
						c8.5-1,17.2-0.6,25.8-1.2c16.9-1.1,24.2-15.2,18.8-30.7c-2.9-8.2-0.9-18.4,0.4-27.5c3.1-21.9-4.7-34.7-27.1-36.3
						c-14.7-1.1-30.1,1.8-44.6,5.2c-13.4,3.2-17.8,13.8-15.1,27c2.2,10.3,4.7,20.5,6.8,30.8c2.3,11.3-3.2,16-14.2,15.2
						c-2.5-0.1-5-0.4-7.5-1.1c-18.1-5.1-31.8-27.1-32.2-51.7c-0.5-24.1,7.7-37.7,28.9-43.6c26.3-7.4,52.9-14.2,79.8-19.1
						c12.9-2.3,26.8,0.5,40.3,1c38.4,17.9,52.9,69.5,29.1,104.5c-3.1,5-4.1,11-2.9,16.7c7.5,28.4,0.6,42.6-23.4,59.2
						c-15.9,11-31.5,18.9-50.4,18.6C689,932,687.1,931.9,685.2,931.7L685.2,931.7z M-802.1,881.8c-21.2-16.3-24-46.3-8.3-70.8
						c12.2-19,28.9-32.4,49.9-37.2c41.9-9.6,84.3-17.2,126.9-23.6c10.9-1.6,23,4.7,34.5,7.4c-3.7,9.5-6.6,19.4-11.1,28.4
						c-15.4,30.4-41.9,49.8-70.5,66.1c-8.2,4.7-19.2,5.7-29,6c-11.3,0.4-14.9-7.2-8.3-15.9c5.2-6.9,12.7-12.8,20.3-17.3
						c12.6-7.4,26.2-13.1,39.1-20.1c4.7-2.5,8.5-6.5,12.7-9.8c-0.5-1.7-1.1-3.4-1.6-5.1c-8.2,0.6-16.4,1-24.6,1.9
						c-26.2,2.9-52.5,5.4-78.5,9.1c-34.4,4.9-39.5,17.2-21.7,48.4c9.3-2.1,18.5-5.7,27.8-5.7c5.9,0,14.2,4,16.9,8.8
						c2.2,3.8-0.5,12.8-4,17.2c-10.4,13.4-26.5,21.2-43.4,21.1C-784.9,890.9-794.3,887.7-802.1,881.8z M1758.6,918
						c-9.9-9.3-10.8-19.2-8.1-29.9c3-12,12.7-18.7,24.8-18.6c13,0.1,25.9,2.5,38.9,4c4.7,0.6,9.4,1.7,14.1,2.5
						c1.4-1.1,2.7-2.1,4.1-3.2c-5.5-13.6-10.5-27.4-17.1-40.5c-1.3-2.5-8.8-2.9-13.3-2.6c-8.3,0.5-16.7,4-24.7,3
						c-15.5-1.9-25-14.5-25.6-30.9c-0.6-15.3,6.6-25.9,22.7-29.4c26.1-5.8,50.4,0.3,70.8,17.1c5.6,4.6,7.4,14.8,9.5,22.7
						c4.7,17.8,7.6,36.2,13,53.8c4.3,14.1,8.5,27.5-2.9,39.7c-3.9,4.1-8.6,7.3-13.9,9.3c-15.1,5.3-30.3,12-45.9,13.9
						c-4.9,0.6-9.8,0.9-14.8,0.9C1779,929.7,1768.2,927.1,1758.6,918L1758.6,918z M1628.2,913.3c-0.3,0-0.7,0-1-0.1
						c-14.6-1.4-29.2-3.5-42.1-5.4c-4.6-0.7-9-1.3-13.2-1.9c-5.1-2-10-4.5-14.6-7.5c-4.8-3-9.3-6.5-13.5-10.3
						c-4.3-3.9-8.3-8-12-12.5c-3.7-4.5-7.2-9.2-10.3-14.1c-3.1-4.9-5.8-9.9-8.2-15.2c-2.3-5.1-4.3-10.3-5.9-15.7
						c-1.5-5.1-2.6-10.3-3.2-15.6c-0.6-5-0.7-10-0.2-14.9c0.5-5.4-1.2-11.1-2.9-16.7l-0.2-0.8c-1.7-5.6-2.1-11.5-1.2-17.2
						c0.9-5.4,3-10.5,6.1-14.9c6.8-9.4,17.7-15.2,29.3-15.5c8.1-0.4,15.8-3.1,22.3-7.8c2.7-2.2,5.7-4,8.9-5.4
						c5-2.3,10.8-2.4,15.9-0.3c2.8,1.1,5.4,2.6,7.8,4.3c11.7,8.4,23.8,16.5,35.5,24.4c15,10.1,30.4,20.5,45.1,31.4
						c7.3,5.4,13.1,12.6,17,20.8c3.9,8.4,6.2,17.4,6.7,26.6c0,0.5,0.1,1.1,0.1,1.7c0.4,2.4,0.3,4.9-0.2,7.4
						c-0.4,1.4-0.7,2.9-1.1,4.4c-0.5,2.5-1.1,4.9-2,7.3c-0.9,2.4-2,4-3.3,4.6c-11.2,5.6-16.3,16.4-21.2,26.8
						c-2.6,5.6-5.4,11.4-9,16.2c-1.8,2.5-3.9,4.7-6.3,6.6c-2.5,2-5.4,3.6-8.4,4.8c-0.9,0.3-1.9,0.7-2.8,1.1
						C1636.2,911.7,1632.1,913.3,1628.2,913.3L1628.2,913.3z M1557.3,780.3c-3.8,1.3-8.2,2.8-12.9,4.1c2.2,1.8,4.3,3.7,6.1,5.8
						c1.6,1.8,3,3.7,4.3,5.8c1.1,1.8,1.9,3.8,2.6,5.8c0.6,1.9,1,3.8,1.1,5.7c0.3,3.8-0.2,7.6-1.3,11.2c-1.2,3.7-2.7,7.3-4.7,10.8
						c-5.2,9.1-5.2,20.4,0.1,29.5c5.7,9.9,16.4,15.7,29.2,16c1.8,0,3.6,0,5.4-0.2c27.3-2.7,42.5-22.2,55.7-41.9
						c1-1.5,0.7-4.9-0.1-7.6c-0.7-2.7-1.9-4.7-3-5.2c-2.2-0.9-4.1-2.2-5.9-3.8c-1.3-1.2-2.3-2.6-2.8-4.3c-1-3.2,0.1-7.1,3.2-12.2
						c2.5-4.1,3.2-7.8,1.9-10.7c-1.3-3-4.5-5-9.3-6c-1.8-0.3-3.6-0.7-5.3-1l0,0c-14.3-2.8-29-5.7-43.6-6.2c-0.1,0-0.3,0-0.4,0
						C1571.3,775.5,1564.9,777.7,1557.3,780.3L1557.3,780.3z M308,890.8c-12.9-0.6-25.6-3.2-37.8-7.5c-14.2-5.1-21.1-24-15.1-36.2
						c5.9-12,20.1-15.2,35.5-7.6c9.4,6.4,18.2,6.6,27.5-2.7c2.3-2.3,11.2-1.3,14.4,1.4c10.1,8.5,9.9,20.8,5.6,31.9
						c-5,12.7-15.4,21-29,20.8C308.7,890.8,308.3,890.8,308,890.8L308,890.8z M-334.7,843.1c-4.2-12.4,1.3-29.9,13.2-35.5
						c8.8-4.2,19.3-5.2,29.1-7c6.9-1.3,14.3-0.6,21.1-2.2c14-3.2,14.6-7.6,9.8-21.2c-2.7-7.5-2.7-17.9,0.6-25
						c3.6-7.8,2.6-11.8-2.9-16.9c-13.5-12.5-35.1-13.3-51.9-1.5c-9.5,6.7-18.3,14.6-28.2,20.5c-13,7.7-20.4,3.8-18.7-10.6
						c1.1-9,5.6-20.4,12.5-25.4c29.6-21.4,64.1-29.3,100.5-29c3.9,0,7.8,1.9,9.8,2.4c22.5,9.1,33.1,25.4,34.3,46.4
						c1.1,21-7.3,39.1-27.5,48.3c-11.3,5.1-16.5,10.5-14.4,23.7c1,6.2-2.8,16.5-7.8,19.6c-16,10-33,19-50.7,25.4
						c-3.4,1.3-7,1.9-10.6,1.9C-324.2,857-331.3,853.1-334.7,843.1L-334.7,843.1z M390.8,846.7c-20.8-12.9-27.5-45.1-14.8-67.7
						c17.1-30.5,45.6-43.4,77.5-50.1c30.5-6.4,61.4-11.6,92.3-16c10.7-1.5,22,0.1,32.9,1.6c12.3,1.7,15.3,9.4,8.6,19.5
						c-11.4,17.2-21,36.9-36,50.2c-18.5,16.4-37.4,35.7-65.1,36.4c-5.5,0.1-11-2.8-16.5-4.2c2.2-6.3,2.5-15.2,6.9-18.3
						c13.1-9.2,27.9-15.9,41.8-23.9c8.7-5.1,17-10.9,25.5-16.5c-0.8-1.9-1.6-3.7-2.4-5.6c-8.3,0.8-16.7,1.4-24.9,2.3
						c-25,2.8-50.1,5.2-75,8.8c-36.5,5.3-41.5,16-24.6,49.1c10.3-2.3,20.3-5.8,30.5-6.4c14.3-0.8,20.4,11.5,12.8,23.9
						c-9.1,15.1-27.8,23.7-45.7,23.4C406.2,853.3,398,851,390.8,846.7L390.8,846.7z M1037.5,831.3c-8.3-1.8-13.5-9.9-11.7-18.2
						c0.4-2,1.3-4,2.5-5.7c5.9-8.1,13.1-15.2,21.3-21c7-5,7.3-9.6,6.6-17.6c-1-12,1.6-24.3,2.5-36.5c0.4-6.1,0.5-12.2,0.7-18.3
						c-1.9-0.9-3.9-1.7-5.8-2.6c-6.6,7.2-13.5,14.2-19.7,21.7c-6.4,7.8-11.7,16.4-18.3,24.1c-14.1,16.5-32.4,20.8-52,11.9
						c-10.4-4.7-15-13-11.3-24.7c10.5-33,84-82.8,119.1-81.1c16.1,0.8,25.5,10.6,26.1,24.4c0.9,20.3-1.9,40.8-4.1,61.2
						c-1.6,14.8-5.3,29.3-6.8,44.1c-1.5,15-30.5,39-46.7,38.7C1039.3,831.6,1038.4,831.5,1037.5,831.3L1037.5,831.3z M202.8,780.3
						c-18.3-12.3-33.1-25.5-38.7-47.7c-7.1-28.3,14-52,42.3-45.3c6.6,1.6,12.9,9,17.1,15.2c5.1,7.4,7.7,16.4,11.5,24.7
						c7,15.2,23.6,17.3,35.2,5.7c4.1-4.1,11.1-6.3,17.1-7.4c33.7-6.5,42.7-23,28.5-55.2c-3.2-7.3-7.9-14.1-12.7-20.5
						c-11.9-15.8-22.3-17.2-38.7-6c-7.1,4.8-13.9,10.1-21.1,14.6c-10.8,6.6-19.4,3.8-20.9-8.7c-1.1-9.4,0.5-20.5,4.9-28.8
						c9.2-17.5,25.7-26.6,44.7-30.5c13.6-2.8,25.7,1.6,33.7,12.3c18.1,24.2,37.3,48,51.8,74.3c25.9,46.8-7.5,100.2-61.9,100.2
						c-0.5-0.1-1.1-0.1-1.8-0.1c-2,0.1-4-0.2-5.9-0.9c-11.1-5.1-19-0.4-28,6.4c-9.1,6.9-17.5,9.9-26.1,9.7
						C224,792.2,214,787.8,202.8,780.3L202.8,780.3z M877.6,798.4c-17.8-6.8-35.5-14.3-52.2-23.4c-18.9-10.3-24.1-24.5-16.8-38.5
						c7.3-13.9,18.8-16.5,39.1-8.9c0.9,0.3,2.1-0.2,4.4-0.5c-0.6-3.7-2.5-7.8-1.5-10.9c2.8-9,4.6-22.4,10.8-25.2
						c9.1-4.2,24.1-4.8,32.4,0.2c26.3,15.7,31.8,44.2,18,71.3c-3.2,6.3-3.9,14-5.9,21c-3.5,12.2-7.9,17.8-16.3,17.7
						C886.2,801.2,882.3,800.2,877.6,798.4L877.6,798.4z M-950,756.6c-10.9-9.5-11.1-20.2-7.9-31.2c3.3-11.6,13.3-18.1,25.5-17.8
						c12.5,0.3,24.9,2.6,37.4,4.2c4.8,0.6,9.5,1.6,17.7,3.1c-2.6-11.4-3.7-19.4-6.3-26.8c-7.4-21.2-9.8-22.3-31.5-16.7
						c-19.3,4.9-37.4-6.2-41.3-25.3c-3.8-18.6,6.6-33.5,26.9-36.4c23.4-3.3,45.7,1.6,64,16.5c6.4,5.2,9.4,15.9,11.8,24.7
						c4.8,17.3,6.8,35.4,12.5,52.3c5.3,15.9,7.7,30.3-4.2,43.9c-1.9,2.2-4,5.2-6.5,6c-17.2,5.2-34.3,12-51.9,14.2
						c-4.6,0.6-9.3,0.9-14,0.9C-929,768-940.1,765.2-950,756.6z M-110.1,734.5c-9.4-6.9-16.4-16.2-19.8-26.2
						c-1.6-4.7-2.7-9.7-3-14.7c-0.3-4.5,0.1-9,1.2-13.3c1.1-4.2,3-8.3,5.4-11.9c2.7-3.9,5.9-7.5,9.5-10.5c3-2.9,4.8-6.8,5-10.9
						c0.1-5.3,0.8-10.5,2.1-15.6c1-4,2.8-7.8,5.4-11c4.7-5.9,12-9.3,23-10.9c2.3-0.3,4.6-0.5,6.9-0.4c4.4,0.1,8.8,0.8,12.9,2.2
						c4,1.4,7.9,3.3,11.3,5.9c3.4,2.5,6.4,5.5,8.9,9c2.5,3.5,4.4,7.4,5.6,11.6c1.9,6.4,3.2,12.9,4,19.5c0.8,6.4,1,12.9,0.7,19.3
						c-0.3,6.4-1.1,12.9-2.4,19.2c-1.3,6.5-3.1,12.8-5.3,19.1c-1.7,4.9-4,9.5-6.7,13.8c-2.3,3.6-5.2,6.9-8.6,9.6
						c-3.2,2.5-6.9,4.4-10.9,5.6c-4.4,1.3-8.9,1.9-13.5,1.8c-0.3,0-0.6,0-0.9,0C-89.7,745.3-100.7,741.4-110.1,734.5L-110.1,734.5z
						 M-78.3,654.1c-4.3,4.2-8.3,8.7-12,13.4c-2,2.4-4.3,5.2-6.8,8.1l0.6,3.3c1.2,6.6,2.9,15.6,4.8,26.1c3.5-1.1,6.7-2.1,9.5-2.9
						c5.7-1.6,11.3-3.5,16.7-5.7c3.2-1.4,7.1-5.3,7.2-8c0.3-10-0.2-20-1.6-29.9c-0.5-3.9-4-10.3-6.1-10.3l0,0
						C-70.4,648.1-75.4,651.3-78.3,654.1L-78.3,654.1z M-467.9,719.6c6.6-12.7-1-15.1-9.8-14.7c-10.3,0.5-20.5,3.4-31.6,5.4
						c-3.4-21.4,2.2-30.7,20.1-33.1c23.5-3.2,44.9,2.9,62.6,19.2c16.3,15,14.4,27.9-5.5,37.1c-7.5,3.4-16.2,5.8-24.3,5.7l-0.2,0
						C-468.7,738.8-473.5,730.3-467.9,719.6L-467.9,719.6z M-776.7,724.9c-21-8.2-37.9-21.7-47.9-42.1c-10-20.4-8.9-40.5,6.5-58
						c14-16,38-19.7,62.7-13.1c8.7,8.7,18.4,16.6,25.8,26.3c6.2,8,1.8,14.7-7.7,16.5c-6.9,1.3-14.2,0.2-21.1,1.4
						c-5.9,1.1-15.7,3.1-16.4,6.3c-1.6,7,0.5,15.4,3.1,22.5c3.4,9.2,11,17.1,13,26.4c2.2,10.2-1.9,15.8-9.6,15.7
						C-771.3,726.7-774.1,726-776.7,724.9L-776.7,724.9z M1361.8,745.5c-9.7-8.8-18.3-20.5-22.9-32.7c-2.4-6.6,2.4-18.7,7.9-24.8
						c12.3-13.8,28.1-24.5,40.6-38.1c22.7-24.6,61.3-20.4,81.8-5.3c2,1.5,4.8,3.2,5.3,5.2c5.4,21.1,13.9,42.4,14.1,63.6
						c0.1,9.6-15.3,21.3-26.1,28.5c-8.4,5.6-16.9-1.1-18.1-11.4c-0.6-5.6,1.2-12.2,4-17.2c11.9-21.7,3.2-39-21.6-40.2
						c-20.8-1-39.9,5.8-56.6,18c-12.5,9.2-12.2,23.3-0.2,33.3c9.4,7.8,18.8,15.4,29.7,24.3c-6.6,4-12.7,5.5-18.1,5.4
						C1373.7,754,1367.1,750.4,1361.8,745.5L1361.8,745.5z M-627.8,705.5c-23.5-9.3-30.9-30.5-37.3-52.1c-3-10.2-4.8-20.7-7.1-31
						c-4.5-20.4-17-33.2-37.1-37.4c-14.7-3.1-16.7-10.5-10.9-22.7c11.4-24,29.6-40.7,54.6-49.3c6.3-2.2,14.2-2.1,20.8-0.7
						c19.9,4.3,23.9,16.2,11.6,32.4c-0.3,0.4-0.6,0.8-0.9,1.2c-23.7,30.6-24.1,31,3.7,57.6c12.7,12.1,13.1,26.5,12.2,41.9
						c-0.8,13.1,4.5,25.3,16.7,27.1c9.9,1.5,22.7-3,31-9.2c9.9-7.3,8.7-17.7,0.5-29.1c-9.8-13.6-17.4-29.3-23.1-45.2
						c-2.1-5.8,1.5-17.4,6.4-21.1c5.7-4.3,16.7-5.7,23.6-3.2c26.2,9.4,47.5,60.7,37.4,86.8c-12.3,31.8-53.6,57.6-85.7,57
						C-616.9,708.6-622.5,707.6-627.8,705.5L-627.8,705.5z M104.7,713.9c-2.4,0-4.7-0.2-7.1-0.6c-11.6-1.8-23.3-3.7-33.6-5.4l0,0
						c-4.4-0.7-8.6-1.4-12.5-2.1c-10.2-4.3-19.6-10.3-27.7-17.9c-4.2-3.8-8.1-8-11.7-12.3c-3.6-4.4-7-9.1-10-13.9
						c-3-4.8-5.6-9.8-7.9-15c-2.2-5.1-4.1-10.3-5.6-15.6c-1.4-5.1-2.5-10.4-3-15.7c-0.6-5.1-0.6-10.1-0.2-15.2
						c0.4-4.6-1.1-9.5-2.8-14.3c-2.1-5.5-2.8-11.4-2.1-17.3c0.6-5.4,2.5-10.6,5.6-15.1c1.6-2.3,3.4-4.5,5.4-6.4
						c2.1-1.9,4.4-3.6,6.9-5c2.6-1.4,5.3-2.6,8.2-3.4c3-0.8,6.1-1.4,9.3-1.5c4.9-0.2,9.8-2.5,14.6-4.6c3-1.5,6.1-2.7,9.3-3.7
						c1.9-0.6,4-1.3,6.2-2.1c5-1.8,10.1-3.6,14-3.5c1.3,0,2.7,0.3,3.8,1c18.1,11.2,32.6,20.5,45.5,29.2c16.3,11,30.6,21.4,43.6,31.8
						c2.6,2.1,5,4.6,7,7.4c2.1,2.9,4,6,5.6,9.2c3.2,6.6,5.9,13.5,8.1,20.5c2.9,9,2.8,17.5-0.3,25.5c-3,7.6-8.6,14.4-16.8,20.3
						c-4.9,3.6-8.5,8-9.6,11.9c-1.4,5.1-3.5,9.9-6.2,14.3c-2.5,4.1-5.7,7.7-9.4,10.7c-3.6,2.9-7.7,5.1-12.1,6.6
						C114.4,713.3,109.6,714,104.7,713.9L104.7,713.9z M47.8,578.8c-8.4,0.5-12.4,1.7-13.9,4.3c-0.9,1.5-1,3.5-0.3,6.3
						c1,3.5,2.4,6.9,4.1,10.2c1,2.2,1.5,4.6,1.6,7.1c0.1,2.5,0,5-0.5,7.4c-1.2,5.3-2.9,10.5-4.9,15.6c-0.7,1.9-1.4,3.9-2.1,5.8
						c-5.6,15.2,2.1,32.1,17.3,37.7c2.4,0.9,5,1.5,7.5,1.7c1.3,0.1,2.7,0.2,4,0.3c25.5,0.4,55.6-19.6,63.1-42.1
						c0.6-1.7,0.3-4.4-0.7-7.3c-1-2.8-2.5-5.1-4-6c-1.9-1.1-3.6-2.4-5.1-3.9c-1.2-1.2-2.1-2.6-2.5-4.3c-0.3-1.3-0.2-2.7,0.2-3.9
						c0.5-1.7,1.3-3.2,2.3-4.7c3.3-5.2,4.2-9.8,2.6-13.3c-1.5-3.3-5.4-5.5-11-6.2c-1.9-0.3-3.8-0.5-5.6-0.8
						c-13.6-1.9-27.7-3.8-41.5-4C54.8,578.5,51.2,578.6,47.8,578.8z M1184.4,729.5c-29-3.7-43.3-31.9-26.6-55.7
						c3.9-5.6,13.1-8.7,20.5-10.3c8.7-2,18.1-1.2,27.2-1.7c16.7-0.9,24.8-15.6,18.3-30.6c-2.3-5.3-1.7-12.6-0.6-18.6
						c6.4-33.7-5.7-48-40.9-46.6c-8,0.3-16,2.2-23.8,4.3c-19.1,5.4-24.2,14.5-19.8,33.7c1.9,8.3,4.3,16.5,5.8,24.9
						c2.2,12.4-3.6,19.4-15.8,16.2c-9.1-2.4-18.9-8-25-15c-12.9-14.9-15.3-33.5-12-52.6c2.4-13.6,11-23.3,23.9-26.8
						c29.2-8,58.5-17.1,88.4-21c53.1-7,90.6,43.4,70.5,93.8c-0.8,1.5-1.6,4.8-3.7,6.8c-8.9,8.5-7.4,17.5-4.4,28.3
						c6.6,23.6-2.6,38-23.4,52.3c-16.2,11.1-32,19.4-51.3,19.1C1189.3,730,1186.8,729.8,1184.4,729.5z M1853.1,736.7
						c-8.9-0.2-18.7-2.6-29.9-7.6c-2.2-1-4.5-1.9-6.8-2.7c-1-0.4-2.1-0.8-3.1-1.2c-0.2,0.4-0.5,0.8-0.7,1.2l0,0
						c-0.1,0.2-0.3,0.4-0.4,0.7c-6.3-3.8-12.8-7.6-19.1-11.2c-14.3-8.3-29.1-16.9-43-26.3c-2.7-1.8-5.1-4-7.3-6.4
						c-2.2-2.5-4.2-5.2-5.9-8.1c-1.8-3-3.3-6.1-4.5-9.3c-2.5-6.6-3.9-13.5-4.2-20.5c-0.1-3.5,0-6.9,0.5-10.4
						c0.4-3.3,1.2-6.6,2.3-9.8c1.1-3.1,2.5-6.1,4.2-8.9c5.6-8.9,5.6-16.3,3.8-25.3c-1.6-7.2-1.8-14.7-0.8-22
						c0.9-6.3,3.1-12.4,6.7-17.7c2.5-3.7,5.7-6.8,9.4-9.2c3.9-2.5,8.3-4.2,12.9-4.9c3.1-0.5,6.1-0.7,9.2-0.7
						c4.5,0.1,9.1,0.7,13.4,1.9c4.1,1,7.9,2.8,11.4,5.2c24,17.9,48.8,28.4,75.8,32.2c4.3,0.6,8.4,1.8,12.3,3.6
						c3.6,1.7,6.8,4,9.6,6.7c2.7,2.8,5,6,6.6,9.6c1.7,3.8,2.8,7.9,3.3,12.1c1.3,11.1,0.9,22.5,0.6,33.6c-0.2,5.6-0.4,11.4-0.3,17.1
						c0,4.2,0.2,8.2,1.8,11.3c3.5,6.8,4.7,13.6,3.5,20.2c-1.1,6.1-4.3,11.9-9.5,17.5c-9.8,10.5-17.5,17.3-25,21.8
						c-4,2.5-8.3,4.4-12.8,5.8C1862.5,736.1,1857.8,736.8,1853.1,736.7L1853.1,736.7z M1808.4,579.4c-2.1,0.3-5,1.9-7.5,4.4
						c-2.6,2.4-4.1,5-4.1,6.7c0.3,6.4-1.1,12.7-4,18.3c-1.4,2.7-3.2,5.1-5.2,7.4c-2.1,2.4-4.4,4.6-6.9,6.7c-1.7,1.5-3,3.3-4,5.3
						c-1.2,2.3-1.6,4.3-1.2,5.6c4.9,16,10.9,34.6,18.6,52.1c2.2,4.9,6.8,8.7,10.5,11.8c1.4,1.2,2.7,2.2,3.6,3.2
						c2.6,0.9,5.4,1.4,8.2,1.4c12.1,0.2,26.8-7.1,36.5-18.1c6.2-7,9.1-14.3,8.2-20.4c-0.4-3-0.9-6-1.3-8.9
						c-1.4-9.2-2.8-18.7-3.8-28.1c-1.5-12.3-6.8-23.8-15.1-33c-8.3-9.1-18.7-14.5-28.5-14.6C1811.1,579.2,1809.8,579.3,1808.4,579.4
						L1808.4,579.4z M427.1,703.2c-5.1-2.3-9.7-5.8-13.2-10.2c-10-12.6-21.2-24.8-28.1-39.1c-6.9-14.3-12.6-29.9-4.9-47.6
						c5.4-12.5,14.4-16.6,25.3-17.6c12.2-1.1,21.7,5.9,25.5,17.4c4.1,12.4,6.2,25.5,9,38.3c1,4.7,1.5,9.5,2.3,14.3l4.3,2.8
						c10.9-9.8,22.2-19.1,32.2-29.6c2-2.1-0.2-9.3-1.9-13.6c-3.2-7.7-9.2-14.6-10.9-22.5c-3.3-15.4,5.4-28.6,20.5-34.6
						c14.1-5.7,26.4-2.3,35,11.8c14,22.9,16.3,48,7.3,73.1c-2.5,6.9-11.4,11.9-18.1,16.5c-15.1,10.4-31.3,19.2-46,30.2
						c-8.9,6.6-17.4,13-27.5,12.8C434,705.6,430.4,704.7,427.1,703.2z M596.8,699.5c-18.6-20.2-27.6-44-25.1-71.4
						c0.6-7,4.3-14.6,8.8-20.2c11.5-14,22-12.9,31.4,2.1c21.7,34.3,21.8,34.5,59.8,19.9c14.5-5.6,26.2,0.4,38.6,6.2
						c11.4,5.3,23,5.1,32.1-4.3c9.7-9.9,8.4-22.2,3.3-33.7c-5.1-11.3-13.9-13.1-26.2-10.5c-15.9,3.3-32.6,5.5-48.7,4.2
						c-7.2-0.6-18.4-10.3-19.1-16.7c-0.8-7.7,5.7-19.8,12.6-24c20.9-12.6,44.6-15.2,68.2-8.3c7.4,2.1,15.4,6.5,20.1,12.3
						c23.4,28.6,30.5,61.3,20.3,97.1c-1.7,5.9-6.8,10.9-10.3,16.3c-12.8,13.6-29.3,16.1-46.1,15.1c-16-0.9-31.9-3.4-47.7-6.3
						c-21.3-3.9-37.6,3.8-49.4,20.8c-4,5.7-7.7,8.4-11.6,8.3C604.4,706.2,600.8,703.8,596.8,699.5L596.8,699.5z M1574.7,689.2
						c-3.2-2.9-7.8-4.8-12.1-6c-19.6-5.2-34.2-15.9-43.8-34.4c-5.4-10.5-15.7-18.5-21.3-29c-15.1-28.1-11.4-48.8,9.6-72.5
						c6.6-7.4,10.5-17.3,17.1-24.7c6-6.7,13.1-12.4,21.1-16.8c12-6.5,23.1-3.4,29.8,8.6c4.4,7.9,7.6,16.5,9.3,25.4
						c2.7,13.6-4.5,22.3-19.2,25.7c-6.5,1.5-13.1,2.7-24.5,5c22,11.7,29.9,25.7,32.5,46.3c1.1,8.8,17.9,18.7,29.4,22.6
						c16.6,5.6,34.6,5.5,50.7-5.9c8.4-5.9,9.8-12.5,3.3-18.5c-10.2-9.5-21.3-18.8-33.5-25.3c-22.2-11.9-27.9-35.1-11.6-54.8
						c1.9-2.3,4.2-5.4,6.7-5.9c9.9-1.9,20.4-4.9,29.7-2.9c3,0.7,3,15.4,4.9,26.6c14.7,3.4,29.7,13.7,39.4,30.9
						c10.1,17.9,8.6,29.9-5.2,44.8c-2,2.2-3.7,5.9-3.5,8.8c3.3,43.9-17.9,67.9-60.8,67.6c-0.5,0-1,0-1.6,0
						C1604.2,704.7,1588,701.5,1574.7,689.2L1574.7,689.2z M-169.7,649.5c-2-1.5-3.5-3.5-5.5-5.1c-8.9-7.1-16.1-19.6-29.7-4
						c-2.9,3.4-21.1-0.6-25.6-6.4c-7.2-9.3-8.8-23.1-14.1-38.9c12.7-4.1,22.6-11.1,30.1-9c21.3,5.8,41.7,15.1,62.1,23.7
						c2.5,1,4.7,6.5,4.5,9.7c-0.5,7.9-2.2,15.8-3.8,23.6c-1.5,7.3-4.2,10.8-8.4,10.7C-162.7,653.8-165.9,652.4-169.7,649.5
						L-169.7,649.5z M891,640.6c-20.4-15.1-23.9-45.9-9.6-69.6c18.9-31.2,49.7-41.4,82.2-47.9c30.1-6,60.6-10.6,91.1-14.7
						c9.2-1.2,19.1,0.8,28.4,2.4c10.7,1.8,13.5,8.6,7.9,17.6c-15.5,25.1-28.8,51.3-57,66.6c-14.3,7.8-25.7,21.2-43.5,21
						c-6.3-0.1-12.6-3.5-18.9-5.4c2.8-6.1,4.1-14.6,8.8-17.8c13.2-9,28.1-15.6,42.1-23.6c8.3-4.7,16-10.3,24-15.6
						c-0.9-1.8-1.8-3.6-2.6-5.4c-10.4,0.7-20.8,1.1-31.2,2.3c-22.5,2.6-45,5.5-67.5,8.4c-36.6,4.8-42,15.2-25.6,48.9
						c9.6-2.1,19.2-5.5,28.9-5.8c5.4-0.1,13.6,3.7,15.7,8.1c2.1,4.4,0,12.9-3.2,17.5c-10.1,14.2-27.3,21.7-43.8,21.4
						C907.8,649,898.7,646.1,891,640.6L891,640.6z M-382.1,621.6c-16.9-8.9-28.5-20.8-34.3-38.3c-4-11.9,0.5-21.2,10.5-27.4
						c9.3-5.7,17.9-3.6,25.8,4.3c24.8,24.8,25,24.7,56,7.1c19.1-10.8,30.8-8.3,35.2,7.7c0.8,3,0.8,8.1-1,9.5
						c-19.2,15.4-37.2,33.4-62.7,37.4c-3.3,0.5-6.7,0.7-10.1,0.6C-369.1,622.5-375.7,621.7-382.1,621.6z M1359.7,606.3
						c-2-9.9-0.9-22.6,4-31c3.9-6.8,15.2-10.4,23.9-12.9c8.5-2.4,18-1.1,26.9-2.3c18.8-2.6,20.4-7.2,14-24.8
						c-2.4-6.5-1.5-16.2,1.7-22.5c4.3-8.4,2.3-13-3.7-18.2c-13.9-12.2-36.1-11.6-52.8,1.3c-9.1,7-18.1,14.5-28,20.3
						c-9.3,5.4-16.6,1.6-15.5-9.5c0.8-8.5,2.9-19.6,8.6-24.4c30.3-25.4,66.8-33.2,105.4-32.4c2.9,0.1,5.7,1.8,8.1,2.6
						c21.4,8.7,32.1,25.3,32.9,47.2c0.7,21.8-8.7,39.7-29.5,48.6c-10,4.3-12.6,9.6-12.2,20.5c0.3,7.9-3.4,19.6-9.3,23.3
						c-15.7,10-33.2,17.7-50.8,24.1c-2.8,1-5.8,1.5-8.9,1.5C1367.8,617.4,1361.3,614.2,1359.7,606.3L1359.7,606.3z M-483.6,577
						c-21.4-8.7-38.5-22.4-48.1-44c-9.2-20.6-6.8-39.9,8.2-56.6c13.7-15.2,37.8-18.8,61.3-12.4c8.7,8.1,18.8,15.2,25.8,24.6
						c7.4,9.9,3.1,17.2-9.3,19c-2.5,0.3-5.1,0.4-7.7,0.2c-3-0.2-6.1,0-9,0.5c-6.8,1.5-18.4,4-18.7,7c-0.8,8,2.6,16.8,5.7,24.8
						c2.8,7.4,9,13.7,10.7,21.2c2.6,11.5-1.5,17.9-9.8,17.7C-477.6,579-480.7,578.2-483.6,577L-483.6,577z M-180.7,509.3
						c-0.3-5.9,3.9-13.4,8.4-17.9c13.4-13.5,28.1-25.6,41.9-38.7c20.9-19.9,53.4-23.4,77.6-7.1c12.4,8.3,20.3,18.9,16.1,35.6
						c-1.1,4.3,2.1,10.2,4.4,14.9c7.9,15.8-7.6,46.7-25.2,48.9c-10.2,1.2-17.3-3.8-16.8-14.2c0.3-6.5,3.8-13.2,7-19.2
						c7.6-14,4.2-25.5-10.2-32.1c-19.2-8.8-63.1,1.7-75,18.8c-6.8,9.7-6.8,19.6,3.7,27.8c9.8,7.7,19.3,15.8,30.8,25.4
						c-4.8,2.4-10.2,3.5-15.6,3.4C-156.8,554.4-179.4,531.7-180.7,509.3L-180.7,509.3z M209.4,551.9c-14.2-10.5-27.9-8.2-42.8-7.6
						c-29.6,1.1-58.4-39.5-45.2-71.6c5.3-5.5,13.2-16.4,23.6-23.7c22.6-15.9,46.7-29.7,69.8-44.9c4.2-2.8,8.6-7.1,10.2-11.7
						c8.2-23.1,14.5-26.7,38-20c34,9.7,56,37.3,57.1,72.5c0.2,6-0.9,11.9-3.1,17.5c-4.6,10.9-15.7,13.6-22.5,4.3
						c-6.6-8.9-11.2-20.1-13.5-31c-2.1-9.8-6.7-12.7-14.2-9c-11.1,5.4-22.5,11.3-31.6,19.4c-14.1,12.6-21.6,33.7-45.9,32.2
						c-1.6-0.1-6.1,7.7-5.1,10.5c2.4,7,6.1,14.1,11.2,19.3c2.8,2.9,9.6,1.9,14.5,2.7c4.5,0.7,9,1.4,13.4,2.2
						c11.1,2.2,20.7,7.5,22.7,19.2c0.9,5.3-2.2,15.4-5.8,16.5c-7,2.3-16.3,5.3-23.4,5.1C214.1,553.9,211.5,553.3,209.4,551.9
						L209.4,551.9z M-335.2,530.1c-20.8-2.8-33.3-17.2-32.2-37c1.1-19.6,7.7-27.2,27.2-29.9c7.5-1.2,15.1-1.6,22.7-1.2
						c9.6,0.6,15.2-3.1,21.5-10.5c7.4-8.7,4.1-14,0.4-22.4c-2.8-6.5-0.6-15.6,0.6-23.4c4.1-25.3-4.2-38.4-29.9-39.8
						c-14.2-0.8-29.1,2.4-42.9,6.4c-12.5,3.6-15.7,14.8-13.2,27.1c2,9.9,4.4,19.7,6.6,29.6c2.7,12.4-3.6,16.7-14.9,16.3
						c-1.5,0-3-0.1-4.5-0.4c-16.2-3.3-31.2-23-33.9-44.4c-3.1-24.8,2.8-43.2,21-48.6c33.2-9.9,67.3-17,101.4-24
						c7.8-1.6,16.8,1.9,25.2,3c39.2,17.1,53.7,69.1,29.1,104.9c-2.9,4.7-3.9,10.4-2.8,15.8c7.7,28.9,1,42.6-23.9,60.9
						c-15.5,11.3-31,18.5-49.2,18.2C-329.7,530.7-332.5,530.5-335.2,530.1L-335.2,530.1z M391,530.6c-9.3-6.7-16.3-15.6-19.7-25.3
						c-3.6-10.2-4.2-19.8-2-28.8c1.1-4.4,3-8.6,5.5-12.5c2.6-4.1,5.9-7.7,9.6-10.8c3-2.8,4.8-6.6,5.1-10.7
						c0.2-12.1,2.5-20.4,7.2-26.3c4.8-5.9,12.2-9.4,23.3-11.1c11-1.6,22.2,1.2,31.1,7.8c3.4,2.5,6.5,5.6,8.9,9.1
						c2.5,3.5,4.4,7.5,5.5,11.7c3.6,12.6,5.1,25.7,4.5,38.7c-0.7,13.6-3.7,27.5-9.2,42.5c-1.3,4-3.2,7.8-5.5,11.3
						c-2.1,3.2-4.8,5.9-7.9,8.1c-6.2,4.4-14.4,6.6-24.9,6.7c-0.4,0-0.7,0-1.1,0C411,541,400.3,537.2,391,530.6L391,530.6z
						 M427.9,445.7c-2,1.4-3.8,3-5.6,4.7c-1.4,1.5-2.5,3.2-3.4,5c-0.8,1.8-2,3.5-3.3,4.9c-14.1,13.6-14.8,19.9-4,39.3
						c2.4-0.7,4.7-1.4,7-2c5.5-1.4,11-3.2,16.3-5.3c1.8-0.8,3.4-2,4.8-3.4c1.6-1.6,2.5-3.2,2.6-4.5c0.6-10.1,0.2-20.1-1.2-30.1
						c-0.5-2.5-1.4-4.8-2.7-6.9c-1.5-2.4-3.1-3.9-4.4-4c-0.1,0-0.2,0-0.3,0C432.2,443.4,430.2,444.1,427.9,445.7L427.9,445.7z
						 M742.3,515.7c-10.2-8.4-9.9-18.4-7.7-28.4c2.7-11.9,11.8-19.3,24.1-19.3c12.5,0.1,25,2.3,37.4,3.8c5.3,0.6,10.6,1.9,20.4,3.7
						c-3.7-12.9-5.5-22.3-9-30.9c-7.8-19.1-8.6-19.1-28-13.3c-19.7,5.9-38.9-5-43.1-24.5c-4.4-20.4,6.1-34.1,29.1-37
						c21.9-2.7,42.7,2.1,60,15.3c6.7,5.1,10.8,15.2,13.3,23.8c5.4,18.6,7.9,38.1,13.7,56.6c4.7,15.1,6.2,28.6-4.6,41.2
						c-2.2,2.6-4.9,5.3-7.9,6.4c-10.8,3.9-21.8,7.4-32.8,10.7c-10.2,3-20.2,5-30,4.8C764.5,528.6,752.1,524,742.3,515.7L742.3,515.7
						z M609.5,511.9l-0.3,0c-14-0.3-28.1-2.6-40.6-4.7c-5.3-0.9-10.2-1.7-15-2.3c-5.1-2-10-4.5-14.6-7.4c-4.8-3-9.3-6.4-13.4-10.2
						c-4.3-3.8-8.3-8-12-12.4c-7.5-8.9-13.7-18.7-18.5-29.3c-2.3-5.1-4.3-10.4-5.9-15.8c-1.5-5.2-2.6-10.4-3.3-15.8
						c-0.6-5.1-0.7-10.2-0.3-15.3c0.3-4.9-0.3-9.9-2-14.6c-2.2-5.9-3-12.2-2.4-18.5c0.3-2.8,0.9-5.6,1.9-8.3c1.9-5.2,5-9.9,9.1-13.6
						c2.1-1.9,4.5-3.6,7-4.9c5.6-2.9,11.7-4.6,18-4.8c8.1-0.7,15.9-3.6,22.5-8.4c6.3-4.7,11.8-6.8,17.2-6.7c2.6,0.1,5.1,0.6,7.5,1.5
						c2.9,1.1,5.6,2.6,8.1,4.5c10.6,7.5,21.8,14.4,32.6,21.1c9.9,6.1,20.2,12.4,29.9,19.2c4.9,3.4,9.7,7,14.1,11
						c4.4,3.9,8.4,8.1,12,12.7c3.6,4.6,6.7,9.6,9.1,14.9c2.6,5.6,4.4,11.5,5.5,17.6c0.8,4.3,1.1,8.6,0.8,12.9c-0.2,4-1,7.9-2.4,11.6
						c-1.4,3.7-3.3,7.2-5.8,10.4c-2.7,3.5-5.8,6.6-9.2,9.3c-5.4,4.5-9.5,10.4-11.8,17.1c-2.5,8.1-7.3,15.4-13.8,20.9
						c-3.2,2.7-6.9,4.8-10.8,6.2C618.5,511.3,614,512,609.5,511.9L609.5,511.9z M536.5,380c-2.8,1.3-5.9,2.8-9.5,4.2
						c2.2,1.8,4.2,3.7,6,5.8c1.5,1.8,2.9,3.7,4,5.7c1.9,3.4,3,7.3,3.1,11.2c0.2,7.4-2.8,14.7-6,21.5c-5,10.8-4.7,21.6,0.7,30.2
						c5.8,9.3,16.7,14.9,29.2,15.2l0,0c2.2,0,4.4-0.1,6.6-0.4c24.6-3.4,39.4-19.2,54-41.9c0.7-1.1,0.7-3.5,0-6.4
						c-0.7-2.8-2.3-6.1-4-7.1c-4.3-2.3-6.7-4.8-7.6-7.7c-0.5-1.9-0.4-3.8,0.2-5.7c0.7-2.3,1.7-4.4,2.9-6.4c2.5-4.4,3.1-8.3,1.6-11.3
						c-1.4-2.8-4.5-4.7-9.1-5.3c-18.4-2.6-38.2-5.2-58-6c-0.1,0-0.2,0-0.3,0C546.1,375.4,541.9,377.4,536.5,380L536.5,380z
						 M-759.8,470.4c-6.1-9.6-8.3-20.5,0.3-30.3c7.9-9,18.3-11.1,28.4-5.2c12.1,7,22.5,10.1,33.1-2.3c1.4-1.7,9.4-0.3,12.2,2.1
						c10.4,9,9.7,20.9,5.9,34.4c-3.1,3.4-6.6,8.3-11.2,11.9c-5.5,4.4-14.9,6.2-25.1,6C-733.6,486.8-753.4,480.5-759.8,470.4z
						 M1612.2,505.9c-4.4-0.1-8.8-0.7-13-1.9c-4-1.2-7.9-2.9-11.5-5.2c-3.6-2.3-7-5-10-8.1c-3.2-3.3-6.1-6.9-8.6-10.8
						c-5.3-8-8.3-16.3-8.9-24.6c-0.3-4.3,0-8.6,1-12.8c1-4.5,2.6-8.8,4.8-12.9c1.4-2.7,3.6-6.6,6.6-8c8.1-4.1,9.5-9.9,9.4-19.7
						c-0.1-4.2,0.5-8.4,1.9-12.3c1.3-3.6,3.4-6.8,6.1-9.5c2.8-2.8,6.2-5,9.8-6.6c4.2-1.8,8.7-3,13.2-3.6c2-0.3,4-0.4,5.9-0.4
						c4.2,0.1,8.4,0.8,12.4,2.1c4,1.3,7.7,3.2,11.1,5.6c3.4,2.4,6.3,5.2,8.8,8.5c2.5,3.2,4.4,6.9,5.6,10.8c4,12.6,5.8,25.9,5.4,39.1
						c-0.4,13.5-3.2,27.4-8.3,42.5c-0.8,3.3-2.1,6.4-3.9,9.3c-1.8,3-4,5.8-6.6,8.1c-2.8,2.5-6,4.6-9.5,6.2c-4,1.8-8.2,3-12.5,3.5
						C1618.4,505.7,1615.3,505.9,1612.2,505.9L1612.2,505.9z M1619.9,410.8c-2,1.3-3.9,2.8-5.7,4.4c-0.5,0.4-1,0.8-1.5,1.3
						c-4.7,4-9.6,8.1-12.1,13.2c-3.1,6.3-3.5,14.1-3.2,19.5c0.2,3.3,1.7,6.6,3.6,10.7c1,2.1,2.1,4.5,3.2,7.3
						c3.6-2.1,7.3-3.8,10.9-5.5c7.8-3.7,15.2-7.1,19.1-12.9c1.6-2.3,2.2-5.6,2-10.2c-0.3-4.2-0.9-8.5-1.8-12.6
						c-0.4-2.2-0.8-4.3-1.1-6.3c-0.5-2.5-1.4-4.8-2.7-6.9c-1.5-2.4-3.1-3.9-4.4-4.1c-0.2,0-0.4,0-0.5,0
						C1624.1,408.5,1622.2,409.3,1619.9,410.8L1619.9,410.8z M1225.1,478.9c4.9-9.4-0.3-12.9-7.3-13c-8.8-0.2-17.9,1.8-26.6,3.9
						c-8.8,2.2-11.4-1.5-10.6-9.1c1.2-11.5,6.5-21,19-21.6c14.8-0.7,29.7,0.9,44.6,1.6c0,0.9,0,1.8,0,2.8c3.2,1.5,6.5,2.9,9.5,4.6
						c15.2,8.7,28.3,26.6,22.2,31.9c-10.7,9.2-23.4,15.7-37.1,19c-1.7,0.4-3.5,0.6-5.2,0.6C1223.2,499.2,1219.2,490,1225.1,478.9
						L1225.1,478.9z M867.8,443.8c-10.8-25-6.1-47.6,11.3-61.5c18.5-14.7,46.2-14.6,67.3,0.1c0.9,0.5,1.7,1.1,2.4,1.8
						c5.1,8.5,10.1,17.1,15.2,25.6c-8.6,2.5-17.2,5.1-25.8,7.5c-7.3,2-18,1.5-21.2,6.2c-6.1,9-1,18.8,6.5,26.9
						c3.9,4.3,7.8,9.8,8.7,15.3c1,6.3,0.8,14.7-2.8,19.2c-1.9,2.4-6.9,2.2-11,2.1c-1.4-0.1-2.8-0.1-4.2,0
						C893.2,475.4,876.3,463.6,867.8,443.8L867.8,443.8z M-628.1,440.3c-21.2-16.7-23.9-45.8-7.9-70.9c12.1-19,29.1-32.1,50.1-36.9
						c41.3-9.5,83.2-17.3,125.1-23.5c11.3-1.7,23.8,5,35.7,7.9c-3.8,9.5-7.1,19.3-11.6,28.5c-15.1,30.8-42.5,49-70.4,66.2
						c-5.6,3.5-13.4,4.8-20.2,4.8c-6.3,0-12.7-3.2-19-5c3.1-6.5,4.4-15.4,9.5-19c12.3-8.6,26.5-14.6,39.7-22
						c8.9-5,17.4-10.7,26.1-16.1c-0.6-1.8-1.2-3.5-1.9-5.3c-7.6,0.5-15.2,0.7-22.8,1.5c-26.2,2.8-52.4,5.3-78.5,8.9
						c-36.5,5.1-41.2,14.7-24.7,48.6c10.3-2.2,19.5-5.8,28.8-5.6c5.8,0.1,14,4.4,16.6,9.2c2.1,4-0.8,12.9-4.4,17.2
						c-11.3,14-27.7,21.1-43.3,20.9C-610.8,449.7-620.4,446.3-628.1,440.3z M1948.6,488.5c-13.7-4-26.4-19.6-25.2-34.5
						c1.1-14.2,12.8-24.6,29.8-23.8c16.4,0.8,32.7,3.9,52.8,6.6c-3.6-12.4-5.7-22.2-9.2-31.3c-4.8-12.5-9.8-21.6-27.4-12.5
						c-18.4,9.4-37.9-3.2-42.9-23.3c-4.7-19.3,5.6-33.8,27.2-37c23.6-3.5,45.7,2.3,64.1,16.9c6.4,5.1,9,16,11.4,24.8
						c4.6,16.7,6.6,34.3,12.2,50.7c5.4,15.8,8.3,30.1-3.4,44c-1.6,1.9-2.9,5.2-4.8,5.6c-22.7,4.7-44.1,17-67.8,16.6
						C1959.7,490.9,1954.1,490.1,1948.6,488.5L1948.6,488.5z M1062.9,465.7c-17.5-6.6-26.2-20.9-31.8-36.8
						c-5.3-15.2-9.1-30.9-12.5-46.6c-4.6-21.3-18-33.4-38.3-37.7c-13.2-2.8-15.3-9.3-10.2-20.4c11.5-25.1,30.1-42.6,56.3-50.9
						c6.7-2.1,15.2-1.7,22,0.3c17.4,5.2,20.4,15.4,10.2,30c-23.3,33.4-23.5,33.6,4.6,63.2c10.8,11.3,9.8,24.5,9.2,38.2
						c-0.5,12.6,4.1,23.3,16.3,28.1c12.9,5.1,23.8-0.8,32.5-10.1c8.5-9.1,6.7-18-0.4-28.4c-9.2-13.5-17.7-28.1-22.7-43.5
						c-2.2-6.9,2.4-21,8.1-24.2c6.8-3.7,20.5-2.4,27.1,2.4c19.7,14.4,31.2,35.4,34,60c0.9,7.7-0.1,16.8-3.6,23.4
						c-17.4,32.8-45,52.1-82,56.5c-0.8,0.1-1.6,0.1-2.4,0.1C1074,468.9,1068.4,466.7,1062.9,465.7L1062.9,465.7z M1796.7,474.3
						c-5.8-0.2-11.6-1.2-17.1-3c-8.7-2.8-18.1-3.1-25.7-3.3c-2.8-0.1-5.2-0.2-7.1-0.3c-10.7-4.6-20.5-10.9-29.2-18.7
						c-4.3-3.9-8.4-8.1-12.1-12.6c-3.7-4.5-7.1-9.2-10.2-14.1c-3-4.8-5.7-9.9-8-15.1c-2.3-5.1-4.2-10.3-5.6-15.7
						c-1.4-5.2-2.5-10.5-3-15.8c-0.6-5.1-0.6-10.3-0.2-15.5c0.4-4.6-1.2-9.6-2.4-13c-2.3-6-3.1-12.4-2.5-18.8
						c0.3-2.9,0.9-5.7,1.9-8.4c1.9-5.3,5.2-10,9.5-13.8c2.2-1.9,4.6-3.5,7.2-4.9c5.7-2.9,12.1-4.4,18.5-4.4c7.7-0.4,15-3.2,21-7.9
						c6.3-5.2,12-7.6,17.6-7.5c2.5,0.1,5,0.5,7.3,1.4c2.8,1.1,5.4,2.5,7.8,4.2c8.5,5.8,17.5,11.2,26.2,16.5
						c11.7,7.1,23.9,14.5,35,22.8c15.5,11.5,27,23.5,34.2,35.6c5.4,9.1,6.7,20.9,7.9,32.3c0.3,2.7,0.6,5.4,0.9,8.1
						c0.2,2.6-0.2,5.3-1.3,7.7c-1.1,2.9-2.6,4.9-4.2,5.7c-11.6,5.5-16.7,16.3-21.6,26.7c-2.4,5.1-4.9,10.5-8.2,15.1
						c-1.6,2.3-3.5,4.4-5.6,6.3c-2.2,2-4.7,3.6-7.3,4.9C1813.1,472.5,1805,474.4,1796.7,474.3L1796.7,474.3z M1730.6,341.9
						c-3.5,1.3-7.1,2.7-11.2,3.9c4,3.2,7.3,7.2,9.8,11.7c1.9,3.5,2.9,7.4,3,11.4c0.1,3.8-0.5,7.5-1.5,11.1c-1,3.7-2.4,7.4-3.8,11
						c-0.5,1.4-1.1,2.9-1.6,4.3c-3.4,9.3-2.5,19.1,2.4,26.7c4.9,7.7,13.5,12.5,23.5,13.3c0.9,0.1,1.9,0.1,2.8,0.1l0,0
						c25.7,0.4,56-19.6,63.6-42c0.6-1.8,0.4-4.7-0.6-7.6c-1-2.9-2.5-5.3-4-6c-1.9-0.9-3.6-2.1-5.2-3.6c-1.1-1.1-1.9-2.4-2.4-3.9
						c-0.4-1.7-0.3-3.4,0.2-5c0.7-2,1.6-4,2.8-5.7c3-4.7,3.8-8.7,2.4-11.9c-1.5-3.3-5.2-5.5-11-6.5c-17.3-3-34.1-5.7-50.9-6l-0.1,0
						C1743.2,337.2,1737.4,339.4,1730.6,341.9L1730.6,341.9z M10.8,422.3c-3-4.2-2.6-14,0.4-18.7c5-7.7,14-12.7,20-20
						c3.5-4.2,6.8-11,5.9-15.8c-2.6-13.2-3.3-25.3,3-37.9c2.4-4.8,0.3-11.9,0.3-18l-4.8-2.2c-6.8,7.4-13.9,14.6-20.4,22.3
						C8.4,340.1,2.9,349.3-4.3,357c-13.7,14.9-33.3,18.6-51,9.9c-10.3-5.1-14.1-13.5-10.2-25.1c10.7-32.2,83.4-81.7,117.7-79.9
						c16.1,0.9,24.8,9.9,28.2,27.9c5.3,27.9-4.9,53.4-11.3,79.6c-0.8,3.4-1.8,6.7-2.5,10.2c-1.8,8.3-0.8,19.1-5.7,24.5
						c-8.8,9.6-20.5,17.2-32.3,23.2c-1.2,0.5-2.6,0.8-4,0.7C19.6,427.9,13,425.4,10.8,422.3z M1463,392.5
						c-13.8-4.5-20.7-22.8-15.3-34.7c5.8-12.9,19.8-16.2,37.1-8.3c9.1,5.7,18.2,7.1,26.6-2.5c7.8-8.9,15.8-2.9,18,3.5
						c3.3,9.8,6.6,23.1,2.2,30.7c-5.2,8.8-18,17-28.5,18.4c-2.2,0.3-4.5,0.4-6.7,0.3C1485.3,399.6,1473.7,396,1463,392.5z
						 M1310.5,381.3c-15.8-8.1-26.7-19.3-33.1-35.2c-4.9-12.1-1.7-22.1,8.8-29.1c10.5-7,19.5-4,28.1,5c23.3,24.8,23.5,24.6,52.7,6.9
						c19-11.5,31-10.3,36.6,4.2c1.4,3.6,1.5,10.5-0.6,12.3c-20,16-38.9,34.4-65.9,37.4c-2,0.2-4.1,0.3-6.1,0.3
						C1324.2,383,1317.3,381.7,1310.5,381.3z M339.2,338.9c-12-10.6-21.1-23.4-18.6-40.4c0.7-4.7,5.5-9.2,9.3-12.8
						c11.9-11.3,24.8-21.6,36.3-33.3c21.9-22.5,50.7-27.8,78.2-13.2c15.7,8.3,21.2,19.7,19.6,37.8c-0.4,4.4,2,9.4,4.2,13.5
						c8.7,16.4-6.9,47.9-25.3,49.9c-9.4,1-15.8-3.5-16.5-13.2c-0.3-4.3,0.4-9.3,2.5-12.9c5.9-10,14-19.2,4.3-31.1
						c-9.3-11.4-22.5-14.1-35.3-10.9c-15.3,3.9-30.6,9.4-44.3,17c-13.4,7.5-12.9,22.5-1,32.4c9.3,7.8,19,15.2,31.6,25.4
						c-5.9,2.3-12.1,3.5-18.4,3.5C354.9,350.3,346.7,345.5,339.2,338.9L339.2,338.9z M-775.4,315c-11.2-8.6-12.1-20.2-8-29.3
						c3.7-8.1,14.1-16.6,22.8-18.2c12.3-2.2,25.7,1.6,38.6,3c5.2,0.6,10.4,1.7,16.7,2.7c0.9-18.3-4.9-32.5-14.4-45
						c-1.8-2.3-9.7-1.8-13.8-0.2c-24.7,10-48.4-3.8-49-29.1c-0.3-14.6,7.1-25.3,21.5-29c26.7-6.7,51.1,0.3,72.2,16.8
						c5.6,4.4,7.3,14.8,9.4,22.8c4.5,17.4,6.8,35.4,12.3,52.4c5.1,15.8,8,30.3-4.3,43.9c-2,2.2-3.8,5.1-6.3,6
						c-12.7,4.4-25.5,8.7-38.5,12c-8,2.2-16.3,3.3-24.7,3.3C-753.4,327-765.6,322.7-775.4,315z M167.5,328.1
						c-27.9-4-41.8-32.3-26.7-55.9c2.2-3.5,6.6-6.8,10.5-7.7c10.8-2.3,21.9-4.3,32.9-4.5c9.9-0.2,16.2-2.8,23-10.8
						c7.8-9.1,3.7-14.1,0-22.3c-2.5-5.6-0.8-13.7,0.4-20.4c5.2-29.3-4.5-42.1-34.2-43.6c-7.1-0.4-14.2,0.2-21.1,1.7
						c-29.9,6.6-34.8,14.9-27.4,44.6c1,3.9,2.5,7.9,2.4,11.9c-0.2,6.7,0.4,17.7-2.7,19c-6.5,2.8-16.1,2.5-22.8-0.2
						C83.2,232.3,72.4,206.4,75,180c1.8-19,11.7-30.1,33.9-35.7c26.5-6.7,53-13.3,79.9-18.1c11-2,22.8,1.1,34.3,1.8
						c38.6,18,53.4,69.5,30,104.7c-3.2,4.8-4.3,12.9-2.9,18.6c6.7,27.3-0.8,42.5-23.6,58.6c-16,11.3-31.6,19.1-50.5,18.8
						C173.2,328.7,170.3,328.5,167.5,328.1L167.5,328.1z M837,333.1c-8.6-0.1-18-2.5-28.8-7.2c-2.6-1.1-5.2-2.1-7.8-3.1
						c-1.2-0.4-2.4-0.9-3.6-1.4c-0.3,0.5-0.7,1.1-1,1.6l-0.1,0.1c-6.2-3.7-12.6-7.4-18.8-11c-14-8.1-28.6-16.5-42.1-25.7
						c-5.6-3.8-10.3-8.8-13.8-14.6c-3.6-5.9-6.1-12.3-7.4-19c-1.4-6.8-1.7-13.9-0.9-20.8c0.8-6.9,2.8-13.7,5.8-19.9
						c2.8-5.6,3.2-12.4,3.7-19c0.1-1.5,0.2-3,0.3-4.5c0.2-3.6,0.3-7.2,0.1-10.8c-0.1-5.3-0.2-10.8,0.9-16c1.1-4.6,2.9-9,5.3-13.1
						c2.3-3.8,5.2-7.1,8.6-9.9c3.3-2.7,6.9-4.8,10.9-6.3c7.3-2.7,15.3-2.8,22.7-0.2c3.6,1.2,7.1,3,10.2,5.3
						c26.9,19.5,54.3,31.3,84,36c14,2.2,23.7,11.8,25.4,25.1c1.6,12.5,1.9,25.4,2.1,37.8c0.1,5.6,0.2,11.3,0.5,17c0,1.1,0,2.3,0,3.4
						c-0.1,2.9-0.2,5.8,1,8c4.2,7.2,5.5,14.6,3.9,21.8c-1.4,6.3-5,12.5-10.7,18.3c-4.7,4.8-8.7,8.7-12.5,11.9
						c-3.8,3.3-7.8,6.3-12.1,8.9c-3.9,2.4-8.1,4.2-12.5,5.5C846.2,332.6,841.6,333.2,837,333.1L837,333.1z M796.5,174.8
						c-9.3-0.2-14.7,5.5-16.9,17.9c-1.1,6.2-5,12.1-8.7,17.8c-1.4,2.2-2.9,4.4-4.2,6.6c-1.1,1.6-2.3,3.2-3.6,4.6
						c-2.3,2.6-4.4,5-4.1,7.1c3.8,22.1,8.1,47.2,28.6,64.6c5.1,4.5,11.5,7.1,18.3,7.3c5.1,0.2,10-1.6,13.9-4.9
						c11-10.2,19.2-23.1,23.8-37.4c2.2-7.2,0.3-15.8-1.5-24.1c-0.8-3.7-1.7-7.5-2.1-11.1c-2.5-18.9-12.8-34.2-30.6-45.5
						C805.3,176,800.9,175.1,796.5,174.8L796.5,174.8L796.5,174.8z M1200,316.1c-16-6.1-31.9-12.8-46.9-21
						c-17-9.3-21.7-22-15.1-34.6c6.6-12.5,16.9-14.8,35.1-8c0.8,0.3,1.9-0.2,4-0.4c-0.5-3.3-2.2-7-1.4-9.8
						c2.5-8.1,4.1-20.1,9.7-22.7c8.2-3.8,21.6-4.3,29.1,0.2c23.6,14.1,28.6,39.7,16.1,64.1c-2.9,5.7-3.5,12.6-5.3,18.8
						c-3.1,11-7.1,16-14.6,15.9C1207,318.4,1203.4,317.5,1200,316.1L1200,316.1z M557.8,287.2c-1.6-1.2-3.2-3-5-3.2
						c-30.1-4.4-44.7-28.1-61.4-49.2c-12-15.1-18.7-32.4-18.8-51.5c0-8.2,1.7-17.7,6-24.3c9.8-15,20.9-29.2,33-42.5
						c9.5-10.4,21.4-19.4,37.2-13.2c10,4,21,29.8,18.9,42.2c-1.7,10-7.4,16.2-17.6,18.1c-7.1,1.3-14.3,2.8-26.2,5.1
						c22.1,11.6,29.4,26.1,32.9,46.2c1.7,9.5,18.4,19.6,30.2,23.4c15.4,4.9,32.4,4.7,47.7-5.7c10.6-7.2,10.9-14.4,2.6-21.7
						c-9.7-8.5-20.2-16.8-31.6-22.6c-10.7-5.4-21.5-8.5-20.3-23.8c1.2-15.5,2.6-31.5,18.5-38.4c8.1-3.5,19.4-3.5,27.9-0.7
						c3.2,1,2.4,14.4,3.4,22.1c-1.3,0.7-2.6,1.4-3.8,2.1c4.9,2,10,3.7,14.8,5.9c19.3,8.8,31.4,24.1,34.2,44.7
						c1,7.6-3.4,17.6-8.6,23.7c-4.7,5.6-7.1,9-5.1,16.5c5.9,22.3-3.9,44-25.2,53.8c-13.4,6.2-26.7,9.5-39.7,9.3
						C586.7,303.4,572,298.3,557.8,287.2L557.8,287.2z M1512.4,269.4c-0.4-6.5,3.5-14.8,8.1-19.6c13.2-13.7,28-25.8,41.7-38.9
						c22.2-21.2,57.2-23.5,81.4-4.7c10.1,7.9,15.7,17.6,13.2,31.5c-0.9,5.1,1.7,11.5,4.1,16.6c7.6,15.8-8.2,46.8-25.5,49.2
						c-9.7,1.4-17.6-5.9-17.1-16.2c0.1-4,1.3-8,3.3-11.4c6-9,12.5-17.5,4.8-28.8c-8.2-11.9-20.6-15.4-33.1-12.7
						c-15.4,3.3-31.1,8.1-45,15.5c-17.1,9.2-16.8,23.7-1.7,36.2c8.8,7.4,17.7,14.8,26.5,22.2c-4.8,1.6-9.9,2.3-15,2.2
						C1534.4,310.2,1513.6,291.6,1512.4,269.4L1512.4,269.4z M1360.2,288.5c-22-2.2-36.4-17.6-34.8-37.6c1.5-18.6,9.3-27,28.1-29.2
						c8.5-1,17.2-0.6,25.8-1.2c16.9-1.1,24.2-15.2,18.8-30.7c-2.9-8.2-0.9-18.4,0.4-27.5c3.1-21.9-4.7-34.7-27.1-36.3
						c-14.7-1.1-30.1,1.8-44.6,5.2c-13.4,3.2-17.8,13.8-15.1,27c2.2,10.3,4.7,20.5,6.8,30.8c2.3,11.3-3.2,16-14.2,15.2
						c-2.5-0.1-5-0.4-7.5-1.1c-18.1-5.1-31.8-27.1-32.2-51.7c-0.5-24.1,7.7-37.7,28.9-43.6c26.3-7.4,52.9-14.2,79.8-19.1
						c12.9-2.3,26.8,0.5,40.3,1c38.4,17.9,52.9,69.5,29.1,104.5c-3.1,5-4.1,11-2.9,16.7c7.5,28.4,0.6,42.6-23.4,59.2
						c-15.9,11-31.5,18.9-50.4,18.6C1363.9,288.8,1362.1,288.7,1360.2,288.5L1360.2,288.5z M-127.1,238.6
						c-21.2-16.3-24-46.3-8.3-70.8c12.2-19,28.9-32.4,49.9-37.2C-43.7,121-1.2,113.3,41.3,107c10.9-1.6,23,4.7,34.5,7.4
						c-3.7,9.5-6.6,19.4-11.1,28.4c-15.4,30.4-41.9,49.8-70.5,66.1c-8.2,4.7-19.2,5.7-29,6c-11.3,0.4-14.9-7.2-8.3-15.9
						c5.2-6.9,12.7-12.8,20.3-17.3c12.6-7.4,26.2-13.1,39.1-20.1c4.7-2.5,8.5-6.5,12.7-9.8c-0.5-1.7-1.1-3.4-1.6-5.1
						c-8.2,0.6-16.4,1-24.6,1.9c-26.2,2.9-52.5,5.4-78.5,9.1c-34.4,4.9-39.5,17.2-21.7,48.4c9.3-2.1,18.5-5.7,27.8-5.7
						c5.9,0,14.2,4,16.9,8.8c2.2,3.8-0.5,12.8-4,17.2c-10.4,13.4-26.5,21.2-43.4,21.1C-109.9,247.7-119.4,244.4-127.1,238.6z
						 M983,247.6c-12.9-0.6-25.6-3.2-37.8-7.5c-14.2-5.1-21.1-24-15.1-36.2c5.9-12,20.1-15.2,35.5-7.6c9.4,6.4,18.2,6.6,27.5-2.7
						c2.3-2.3,11.2-1.3,14.4,1.4c10.1,8.5,9.9,20.8,5.6,31.9c-5,12.7-15.4,21-29,20.8C983.7,247.6,983.3,247.6,983,247.6z
						 M340.2,202.2c-4.2-12.4,1.3-29.9,13.2-35.5c8.8-4.2,19.3-5.2,29.1-7c6.9-1.3,14.3-0.6,21.1-2.2c14-3.2,14.6-7.6,9.8-21.2
						c-2.7-7.5-2.7-17.9,0.6-25c3.6-7.8,2.6-11.8-2.9-16.9c-13.5-12.5-35.1-13.3-51.9-1.5c-9.5,6.7-18.3,14.6-28.2,20.5
						c-13,7.7-20.4,3.8-18.7-10.6c1.1-9,5.6-20.4,12.5-25.4c29.6-21.4,64.1-29.3,100.5-29c3.9,0,7.8,1.9,9.8,2.4
						c22.5,9.1,33.1,25.4,34.3,46.4c1.1,21-7.3,39.1-27.5,48.3c-11.3,5.1-16.5,10.5-14.4,23.7c1,6.2-2.8,16.5-7.8,19.6
						c-16,10-33,19-50.7,25.4c-3.4,1.3-7,1.9-10.6,1.9C350.7,216.1,343.6,212.3,340.2,202.2z M1065.7,203.5
						c-20.8-12.9-27.5-45.1-14.8-67.7c17.1-30.5,45.6-43.4,77.5-50.1c30.5-6.4,61.4-11.6,92.3-16c10.7-1.5,22,0.1,32.9,1.6
						c12.3,1.7,15.2,9.4,8.6,19.5c-11.4,17.2-21,36.9-36,50.2c-18.5,16.4-37.4,35.7-65.1,36.4c-5.5,0.1-11-2.8-16.5-4.2
						c2.2-6.3,2.5-15.2,6.9-18.3c13.1-9.2,27.9-15.9,41.8-23.9c8.7-5.1,17-10.9,25.5-16.5c-0.8-1.9-1.6-3.7-2.4-5.6
						c-8.3,0.8-16.7,1.4-25,2.3c-25,2.8-50.1,5.2-75,8.8c-36.5,5.3-41.5,16-24.6,49.1c10.2-2.3,20.3-5.8,30.5-6.4
						c14.3-0.8,20.4,11.5,12.8,23.9c-9.1,15.1-27.8,23.7-45.7,23.4C1081.1,210.1,1072.9,207.8,1065.7,203.5L1065.7,203.5z
						 M-275,113.4c-10.9-9.5-11.1-20.2-7.9-31.2c3.3-11.6,13.3-18.1,25.5-17.8c12.5,0.3,24.9,2.6,37.4,4.2c4.8,0.6,9.5,1.6,17.7,3.1
						c-2.6-11.4-3.7-19.4-6.3-26.8c-7.4-21.2-9.8-22.2-31.5-16.7c-19.3,4.9-37.4-6.2-41.3-25.3c-3.8-18.6,6.6-33.5,26.9-36.4
						c23.4-3.3,45.7,1.6,64,16.5c6.4,5.2,9.4,15.9,11.8,24.7c4.8,17.3,6.8,35.4,12.5,52.3c5.3,15.9,7.7,30.3-4.2,43.9
						c-1.9,2.2-4,5.2-6.5,6c-17.2,5.2-34.3,12-51.9,14.2c-4.6,0.6-9.3,0.9-14,0.9C-254.1,124.8-265.1,122-275,113.4z M207,78.7
						c6.6-12.7-1-15.1-9.8-14.7c-10.3,0.5-20.5,3.4-31.6,5.4c-3.4-21.4,2.2-30.7,20.1-33.1c23.5-3.2,44.9,2.9,62.6,19.2
						c16.3,15,14.4,27.9-5.5,37.1c-7.5,3.4-16.2,5.8-24.3,5.7l-0.2,0C206.2,97.9,201.4,89.4,207,78.7L207,78.7z M595.8,102.3
						c-10.6-0.2-21.5-4.1-30.9-10.9c-9.4-6.9-16.4-16.2-19.8-26.2c-1.6-4.7-2.7-9.7-3-14.7c-0.3-4.5,0.1-9,1.2-13.3
						c1.1-4.2,3-8.3,5.4-11.9c2.7-3.9,5.9-7.5,9.5-10.5c3-2.9,4.8-6.8,5-10.9c0.1-5.3,0.8-10.5,2.1-15.6c1-4,2.8-7.8,5.4-11
						c4.7-5.9,12-9.3,23-10.9c2.3-0.3,4.6-0.5,6.9-0.4c4.4,0.1,8.8,0.8,12.9,2.2c4,1.4,7.9,3.3,11.3,5.9c3.4,2.5,6.4,5.5,8.9,9
						c2.5,3.5,4.4,7.4,5.6,11.6c1.9,6.4,3.2,12.9,4,19.5c0.8,6.4,1,12.9,0.7,19.3c-0.3,6.4-1.1,12.8-2.3,19.2
						c-1.3,6.5-3.1,12.8-5.3,19c-1.7,4.9-4,9.5-6.7,13.8c-2.3,3.6-5.2,6.9-8.6,9.6c-3.2,2.5-6.9,4.4-10.9,5.6
						c-4.4,1.3-8.9,1.9-13.5,1.8C596.4,102.2,596.1,102.2,595.8,102.3L595.8,102.3z M596.7,10.9c-4.3,4.2-8.3,8.7-12,13.4
						c-2,2.4-4.3,5.2-6.8,8.1l0.8,4.3c1.2,6.4,2.8,15.1,4.6,25.1c3.5-1.1,6.7-2.1,9.5-2.9c5.7-1.6,11.3-3.5,16.8-5.7
						c3.2-1.4,7.1-5.3,7.2-8c0.3-10-0.2-20-1.6-29.9c-0.5-3.9-4-10.3-6.1-10.3l0,0C604.6,4.9,599.6,8.1,596.7,10.9L596.7,10.9z
						 M-101.8,84c-21-8.2-37.9-21.7-47.9-42.1c-10-20.4-8.9-40.5,6.5-58c14-16,38-19.7,62.7-13.1c8.7,8.7,18.4,16.6,25.8,26.3
						c6.2,8,1.8,14.7-7.7,16.5c-6.9,1.3-14.2,0.2-21.1,1.4c-5.9,1.1-15.7,3.1-16.4,6.3c-1.6,7,0.5,15.4,3.1,22.5
						c3.4,9.2,11,17.1,13,26.4c2.2,10.2-1.9,15.8-9.6,15.7C-96.3,85.8-99.2,85.1-101.8,84z M916,73.4c-5.5-6-9.5-17.4-7.8-24.8
						c1.7-7.7,10.5-18.2,17.6-19.4c14.5-2.4,29.8,0.5,44.8,1.5c5.3,0.4,10.5,1.7,19.4,3.2c-3.1-12.2-4.5-20.6-7.4-28.5
						c-7-19.2-10-20.4-29.7-15.3c-21.1,5.5-38.8-4.7-42.8-24.7c-4.1-20.5,6.4-33.7,29.6-36.7c22.7-2.9,43.8,2.9,61.4,16.6
						c6.8,5.3,9.6,16.8,12.2,26c4.8,16.7,7,34.2,12.3,50.7c4.7,14.6,8.7,28.4-2.2,41.4c-3.4,4.1-9.1,6.8-14.3,8.9
						c-11.2,4.5-22.5,9.2-34.2,11.9c-8.7,2-17.5,3.6-26,3.4C936.8,87.2,925.5,83.7,916,73.4z M47.1,64.6
						C23.6,55.3,16.2,34.1,9.8,12.6C6.8,2.4,5-8.1,2.7-18.5c-4.5-20.4-17-33.2-37.1-37.4C-49.1-59-51.1-66.4-45.3-78.6
						c11.4-24,29.6-40.7,54.6-49.3c6.3-2.2,14.2-2.1,20.8-0.7c19.9,4.3,23.9,16.2,11.7,32.4c-0.3,0.4-0.6,0.8-0.9,1.2
						c-23.7,30.6-24.1,31,3.7,57.6C57.3-25.2,57.7-10.8,56.8,4.6c-0.8,13.1,4.5,25.3,16.7,27.1c9.9,1.5,22.7-3,31-9.2
						c9.9-7.3,8.7-17.7,0.5-29.1c-9.8-13.6-17.4-29.3-23.1-45.2c-2.1-5.8,1.5-17.4,6.4-21.1c5.7-4.3,16.7-5.7,23.6-3.2
						c26.2,9.4,47.5,60.7,37.4,86.8c-12.3,31.8-53.6,57.6-85.7,57C58,67.7,52.4,66.7,47.1,64.6z M779.6,73c-2.4,0-4.7-0.2-7.1-0.6
						c-11.6-1.8-23.3-3.7-33.6-5.4l0,0c-4.4-0.7-8.6-1.4-12.5-2.1c-10.2-4.3-19.6-10.3-27.7-17.9c-4.2-3.8-8.1-8-11.7-12.3
						c-3.6-4.4-7-9.1-10-13.9c-3-4.8-5.6-9.8-7.9-15c-2.2-5.1-4.1-10.3-5.6-15.6c-1.4-5.1-2.5-10.4-3-15.7
						c-0.6-5.1-0.6-10.1-0.2-15.2c0.4-4.6-1.1-9.5-2.8-14.3c-2.1-5.5-2.8-11.4-2.1-17.3c0.6-5.4,2.5-10.6,5.6-15.1
						c1.6-2.3,3.4-4.5,5.4-6.4c2.1-1.9,4.4-3.6,6.9-5c2.6-1.4,5.3-2.6,8.2-3.4c3-0.8,6.1-1.4,9.3-1.5c4.9-0.2,9.8-2.5,14.6-4.6
						c3-1.5,6.1-2.7,9.3-3.7c1.9-0.6,4-1.3,6.2-2.1c5-1.8,10.1-3.6,14-3.5c1.3,0,2.7,0.3,3.8,1c18.1,11.2,32.6,20.5,45.5,29.2
						c16.3,11,30.6,21.4,43.6,31.8c2.6,2.1,5,4.6,7,7.4c2.1,2.9,4,6,5.6,9.2c3.2,6.6,5.9,13.5,8.1,20.5c2.9,9,2.8,17.6-0.3,25.5
						c-3,7.6-8.6,14.4-16.8,20.3c-4.9,3.6-8.5,8-9.6,11.9c-1.4,5.1-3.5,9.9-6.2,14.3c-2.5,4.1-5.7,7.7-9.4,10.7
						c-3.6,2.9-7.7,5.1-12.1,6.6C789.3,72.4,784.5,73.1,779.6,73L779.6,73z M722.7-62.1c-8.4,0.5-12.4,1.7-13.9,4.3
						c-0.9,1.5-1,3.5-0.3,6.3c1,3.5,2.4,6.9,4.1,10.2c1,2.2,1.5,4.6,1.6,7.1c0.1,2.5,0,5-0.5,7.4c-1.2,5.3-2.9,10.5-4.9,15.6
						c-0.7,1.9-1.4,3.8-2.1,5.8c-5.6,15.2,2.1,32.1,17.3,37.7c2.4,0.9,5,1.5,7.5,1.7c1.3,0.1,2.7,0.2,4,0.3
						c25.5,0.4,55.6-19.6,63.1-42.1c0.6-1.7,0.3-4.5-0.7-7.3c-1-2.8-2.5-5.1-4-6c-1.9-1.1-3.6-2.4-5.1-3.9c-1.2-1.2-2.1-2.6-2.5-4.3
						c-0.3-1.3-0.2-2.7,0.2-3.9c0.5-1.7,1.3-3.2,2.4-4.7c3.3-5.2,4.2-9.8,2.6-13.3c-1.5-3.3-5.4-5.5-11-6.2
						c-1.9-0.3-3.8-0.5-5.6-0.8l0,0c-13.6-1.9-27.7-3.8-41.5-4C729.7-62.4,726.1-62.3,722.7-62.1L722.7-62.1z M505.2,8.6
						c-2-1.5-3.5-3.5-5.5-5.1c-8.9-7.1-16.1-19.6-29.7-4c-2.9,3.4-21.1-0.6-25.6-6.4c-7.2-9.3-8.8-23.1-14.1-38.9
						c12.7-4.1,22.6-11.1,30.1-9c21.3,5.8,41.7,15.1,62.1,23.7c2.5,1,4.7,6.5,4.5,9.7c-0.5,7.9-2.2,15.8-3.8,23.6
						c-1.5,7.3-4.2,10.8-8.4,10.7C512.2,12.9,509,11.5,505.2,8.6L505.2,8.6z M292.9-21.6c-16.9-8.9-28.5-20.8-34.3-38.3
						c-4-11.9,0.5-21.2,10.5-27.4c9.3-5.7,17.9-3.6,25.8,4.3c24.8,24.8,25,24.7,56,7.1c19.1-10.8,30.8-8.4,35.2,7.7
						c0.8,2.9,0.8,8.1-1,9.5c-19.2,15.4-37.2,33.4-62.7,37.5c-3.3,0.5-6.7,0.7-10.1,0.6C305.8-20.7,299.3-21.5,292.9-21.6z
						 M191.4-63.9c-21.4-8.7-38.5-22.4-48.1-44c-9.2-20.6-6.8-39.9,8.2-56.6c13.7-15.2,37.8-18.8,61.3-12.4
						c8.7,8.1,18.8,15.2,25.8,24.6c7.4,9.9,3.1,17.2-9.3,19c-2.5,0.3-5.1,0.4-7.7,0.2c-3-0.2-6,0-9,0.5c-6.8,1.5-18.4,4-18.7,7
						c-0.8,8,2.6,16.8,5.7,24.8c2.8,7.4,9,13.7,10.7,21.2c2.6,11.5-1.5,17.9-9.8,17.7C197.3-61.9,194.2-62.7,191.4-63.9L191.4-63.9z
						 M494.2-133.9c-0.3-5.9,3.9-13.4,8.4-17.9c13.4-13.5,28.1-25.6,41.9-38.7c20.9-19.9,53.4-23.4,77.6-7.1
						c12.4,8.3,20.3,18.9,16.1,35.6c-1.1,4.3,2.1,10.2,4.4,14.9c7.9,15.8-7.6,46.7-25.2,48.9c-10.2,1.2-17.3-3.8-16.8-14.2
						c0.3-6.5,3.8-13.2,7-19.2c7.6-14,4.2-25.5-10.2-32.1c-19.2-8.8-63.1,1.7-75,18.8c-6.8,9.7-6.8,19.6,3.7,27.8
						c9.8,7.7,19.3,15.8,30.8,25.4c-4.8,2.4-10.2,3.5-15.6,3.4C518.1-88.8,495.5-111.5,494.2-133.9L494.2-133.9z M339.8-113.1
						c-20.8-2.8-33.3-17.2-32.2-37c1.1-19.6,7.7-27.2,27.2-29.9c7.5-1.2,15.1-1.6,22.7-1.2c9.6,0.6,15.2-3.1,21.5-10.5
						c7.4-8.7,4.1-14,0.4-22.4c-2.8-6.5-0.6-15.6,0.6-23.4c4.1-25.3-4.2-38.4-29.9-39.8c-14.2-0.8-29.1,2.4-42.9,6.4
						c-12.5,3.6-15.7,14.8-13.2,27.1c2,9.9,4.4,19.7,6.6,29.6c2.7,12.4-3.6,16.7-14.9,16.3c-1.5,0-3-0.1-4.5-0.4
						c-16.2-3.3-31.2-23-33.9-44.4c-3.1-24.8,2.8-43.2,21-48.6c33.2-9.9,67.4-17,101.4-24c7.8-1.6,16.8,1.9,25.2,3
						c39.2,17.1,53.7,69.1,29.1,104.9c-2.9,4.7-3.9,10.4-2.8,15.8c7.7,28.9,1,42.6-23.9,60.9c-15.5,11.3-31,18.5-49.2,18.2
						C345.2-112.5,342.5-112.7,339.8-113.1L339.8-113.1z M-84.8-172.8c-6.1-9.6-8.3-20.5,0.3-30.3c7.9-9,18.3-11.1,28.4-5.2
						c12.1,7,22.5,10.1,33.1-2.3c1.4-1.7,9.4-0.3,12.2,2.1c10.4,9,9.7,20.9,5.9,34.4c-3.1,3.4-6.6,8.3-11.2,11.9
						c-5.5,4.4-14.9,6.2-25.1,6C-58.6-156.4-78.4-162.7-84.8-172.8z M46.8-200.6c-21.2-16.7-23.9-45.8-7.9-70.9
						C51-290.4,68-303.5,89-308.4c41.3-9.5,83.2-17.3,125.1-23.5c11.3-1.7,23.8,5,35.7,7.9c-3.8,9.5-7.1,19.3-11.6,28.5
						c-15.1,30.8-42.5,49-70.4,66.2c-5.6,3.5-13.4,4.8-20.2,4.8c-6.3,0-12.7-3.2-19-5c3.1-6.5,4.4-15.4,9.5-19
						c12.3-8.6,26.5-14.6,39.7-22c8.9-5,17.4-10.7,26.1-16.1c-0.6-1.8-1.2-3.5-1.9-5.3c-7.6,0.5-15.2,0.7-22.8,1.5
						c-26.2,2.8-52.4,5.3-78.5,8.9c-36.5,5.1-41.2,14.7-24.7,48.6c10.3-2.2,19.5-5.8,28.8-5.6c5.8,0.1,14,4.4,16.6,9.2
						c2.1,4-0.8,12.9-4.4,17.2c-11.3,14-27.7,21.1-43.3,20.9C64.1-191.2,54.6-194.5,46.8-200.6L46.8-200.6z M-100.5-325.9
						c-11.2-8.6-12.1-20.2-8-29.3c3.7-8.1,14.1-16.6,22.8-18.2c12.3-2.2,25.7,1.6,38.6,3.1c5.2,0.6,10.4,1.7,16.7,2.7
						c0.9-18.3-4.9-32.5-14.4-45c-1.8-2.3-9.7-1.9-13.8-0.2c-24.7,10-48.4-3.8-49-29.1c-0.3-14.6,7.1-25.3,21.5-29
						c26.7-6.7,51.1,0.3,72.2,16.8c5.6,4.4,7.3,14.8,9.4,22.8C-0.1-414,2.3-396,7.7-379c5.1,15.8,8,30.3-4.3,43.9
						c-2,2.2-3.8,5.1-6.3,6c-12.7,4.4-25.5,8.7-38.5,12c-8,2.2-16.3,3.3-24.7,3.3C-78.5-313.9-90.7-318.2-100.5-325.9z"/>
				</g>
			</g>
		</g>
	</g>
</g>
</svg>
