<svg id="Group_12" data-name="Group 12" xmlns="http://www.w3.org/2000/svg" xmlns:xlink="http://www.w3.org/1999/xlink" width="115" height="87" viewBox="0 0 115 87">
  <defs>
    <clipPath id="clip-path">
      <path id="Clip_6" data-name="Clip 6" d="M0,0H112.5V8.364H0Z" transform="translate(0 0.636)" fill="none"/>
    </clipPath>
    <clipPath id="clip-path-2">
      <path id="Clip_9" data-name="Clip 9" d="M0,87H115V0H0Z" fill="none"/>
    </clipPath>
  </defs>
  <path id="Fill_1" data-name="Fill 1" d="M104,67.779c-.54-5.929-.15-31.871-.4-35.512-.726-10.585-.291-21.17-1.014-31.757C68.427-.649,34.174.388,0,1.428c.433,14.184.933,50.8,1.269,66.888a9.384,9.384,0,0,1,1.114.176c.492.077.928.3,1.432.384A14.878,14.878,0,0,0,6.349,69c1.111-.01,2.225.015,3.336-.012.836-.02,1.667-.092,2.505-.1.775,0,1.532,0,2.307-.047.729-.05,1.448-.035,2.174-.062.635-.025,1.251-.1,1.891-.1a46.018,46.018,0,0,0,4.715-.069,53.42,53.42,0,0,1,5.607-.342c1.919.015,3.816-.213,5.74-.208,2.765,0,5.531,0,8.3,0,1.98,0,4-.047,5.982-.129,2.187-.087,4.427-.2,6.619-.183,1.1.01,2.192-.1,3.29-.109.652,0,1.31.007,1.965.007q3.357,0,6.713,0H90.912c3.479,0,6.928.054,10.394.2.492.022.989.012,1.478.01.443,0,.785-.077,1.216-.082" transform="translate(2 12)" fill="#3d55cc"/>
  <path id="Stroke_3" data-name="Stroke 3" d="M84,32.416c-.437-2.835-.121-15.244-.322-16.984-.586-5.062-.234-10.125-.817-15.187C55.267-.311,27.6.185,0,.684c.349,6.783.752,24.294,1.023,31.99.231,0,.674.062.9.084.4.035.752.142,1.159.184A19.92,19.92,0,0,0,5.125,33c.9,0,1.8.01,2.7,0,.676-.007,1.347-.042,2.021-.045.628,0,1.239,0,1.865-.022.588-.025,1.169-.017,1.759-.032.513-.01,1.008-.045,1.523-.042,1.262,0,2.564.037,3.813-.035,1.5-.087,3-.169,4.527-.161,1.553,0,3.081-.1,4.635-.1,2.234,0,4.466,0,6.7,0,1.6,0,3.235-.025,4.833-.065,1.767-.04,3.577-.094,5.348-.087.885,0,1.767-.047,2.657-.05.525,0,1.056,0,1.583,0H73.429c2.812,0,5.6.022,8.4.094.395.01.8,0,1.191,0C83.377,32.456,83.651,32.419,84,32.416Z" transform="translate(12 37)" fill="none" stroke="#191919" strokeLinecap="round" strokeLinejoin="round" stroke-miterlimit="10" strokeWidth="2"/>
  <g id="Group_7" data-name="Group 7" transform="translate(0 78)">
    <path id="Clip_6-2" data-name="Clip 6" d="M0,0H112.5V8.364H0Z" transform="translate(0 0.636)" fill="none"/>
    <g id="Group_7-2" data-name="Group 7" clip-path="url(#clip-path)">
      <path id="Fill_5" data-name="Fill 5" d="M112.5,8.217c0-1.637-.114-3.79-.089-4.305.094-1.93-.051-2.54-.051-3.852C75.041-.078,37.337.049,0,.174a61.846,61.846,0,0,0,.613,8.1c.314,0,.907.017,1.214.023.54.01,1.016.038,1.569.047.9.017,1.845.015,2.765.015,1.214,0,2.431,0,3.645,0,.915,0,1.822-.01,2.737-.01.847,0,1.678,0,2.522-.008.793,0,1.582,0,2.375-.007.694,0,1.366-.012,2.066-.012,1.7,0,3.47.01,5.153-.007,2.028-.023,4.063-.045,6.126-.043,2.1,0,4.167-.025,6.268-.023h9.066c2.165,0,4.372-.005,6.534-.015,2.39-.013,4.839-.025,7.234-.025,1.2,0,2.393-.01,3.594-.012H98.55c3.8,0,7.571.007,11.36.025.535,0,1.075,0,1.612,0,.487,0,.507-.01.981-.01" transform="translate(-0.001 0.636)" fill="#191919"/>
    </g>
  </g>
  <path id="Clip_9-2" data-name="Clip 9" d="M0,87H115V0H0Z" fill="none"/>
  <g id="Mask_Group_1" data-name="Mask Group 1" clip-path="url(#clip-path-2)">
    <path id="Stroke_8" data-name="Stroke 8" d="M0,8H83V0H0Z" transform="translate(12 21)" fill="none" stroke="#191919" strokeLinecap="round" strokeLinejoin="round" stroke-miterlimit="10" strokeWidth="2"/>
    <path id="Fill_10" data-name="Fill 10" d="M19.655.268a18,18,0,0,0-9.358.813C4.041,3.541.361,10.093.021,16.55c-.429,8.143,5.75,14.374,13.331,16.621,7.129,2.116,16.418.305,19.7-6.872,2.446-5.357,2.809-12.575-.165-17.739-2.55-4.432-7.8-7.416-13.23-8.292" transform="translate(80)" fill="#191919"/>
    <path id="Fill_11" data-name="Fill 11" d="M8.178.008A11.407,11.407,0,0,0,4,.74,5.569,5.569,0,0,0,.417,3.809c-.731,1.93-.578,4.7,1.088,6.247a12.6,12.6,0,0,0,9.079,2.9c1.93-.176,4.251-1.1,4.965-2.7C17.314,6.29,13.7.259,8.178.008" transform="translate(89 12)" fill="#f5ebe0"/>
  </g>
</svg>
