<svg xmlns="http://www.w3.org/2000/svg" xmlns:xlink="http://www.w3.org/1999/xlink" width="185.802" height="136.761" viewBox="0 0 185.802 136.761">
  <defs>
    <style>
      .cls-1 {
        fill: none;
      }

      .cls-2 {
        fill: #cc9967;
      }

      .cls-3 {
        fill: #fbfcfd;
      }

      .cls-4 {
        fill: #27b89d;
      }

      .cls-5 {
        fill: #ff4133;
      }

      .cls-6 {
        fill: #0b0a0a;
      }

      .cls-7 {
        fill: #ba8bba;
      }

      .cls-8 {
        fill: #3d55cc;
      }

      .cls-9 {
        fill: #191919;
      }

      .cls-10 {
        clip-path: url(#clip-path);
      }
    </style>
    <clipPath id="clip-path">
      <path id="Clip_27" data-name="Clip 27" class="cls-1" d="M45.25,5.518A25.707,25.707,0,0,1,30.8,3.216h0c-3.809,2.79-7.446,5.763-10.181,9.68h0c-1.39,1.99-2.717,4.026-4.148,5.986h0c-5.852,8.01-11.33,16.2-13.756,26.033h0a9.937,9.937,0,0,1-1.705,4.07h0C1.126,50.2.193,51.075,0,52.187H0C3.555,55.5,7.9,57.5,12.247,59.475h0c2.207,1.005,4.516,1.785,6.779,2.666h0c4.03-2.942,8.268-5.611,11.882-9.1h0a69.155,69.155,0,0,0,11.37-12.816h0c1.971-2.933,3.79-5.972,5.59-9.016h0c.707-1.2,1.136-1.333,2.158-.235h0c2.85,3.061,6.666,4.993,9.587,8h0a18.728,18.728,0,0,1,3.617,4.614h0c3.559,5.158,7.583,9.985,10.869,15.336h0a22.641,22.641,0,0,0,3.5,4.692h0A99.8,99.8,0,0,0,95.123,54.73h0c.983-.62,2.41-.976,2.48-2.55h0c-.5-1.154-1.056-2.287-1.481-3.468h0c-2.922-8.126-5.2-16.466-9.93-23.9h0C80.33,15.595,74.254,6.649,65.38,0h0A71.661,71.661,0,0,1,45.25,5.518Z" transform="translate(0.142 0.167)"/>
    </clipPath>
  </defs>
  <g id="_2" data-name="2" transform="translate(0 -0.032)">
    <g id="Group_25" data-name="Group 25">
      <path id="Fill_1" data-name="Fill 1" class="cls-2" d="M72.177,67.841a52.023,52.023,0,0,0-9.366-2.265c-4.383-.639-7.782-3.322-11.183-5.765a21.453,21.453,0,0,0-12.934-4.273C33.11,55.548,28.464,53.7,25,49.1a24.5,24.5,0,0,0-10.664-7.84,45.231,45.231,0,0,1-8.642-4.751A15.341,15.341,0,0,1,.44,30.036c-.907-1.989-.441-3.3,1.663-4,3.275-1.094,6.539-2.222,9.823-3.288a62.466,62.466,0,0,0,14.732-6.7,37.906,37.906,0,0,1,21.685-6.015,81.224,81.224,0,0,0,10.829-.427A21.568,21.568,0,0,0,70.943,4.718,45.271,45.271,0,0,1,77.082,0a47.1,47.1,0,0,0,7.975,8.777c5.475,4.75,11.665,8.628,16.862,13.708-3.8,2.765-7.433,5.712-10.164,9.593-1.388,1.972-2.712,3.989-4.141,5.932C81.771,45.948,76.3,54.066,73.88,63.808a9.813,9.813,0,0,1-1.7,4.033" transform="translate(0 42.915)"/>
      <path id="Fill_3" data-name="Fill 3" class="cls-3" d="M22.312,15.985c.146,3.175.384,6.353-.5,9.478-.624,2.215-1.536,2.752-3.569,1.75a30.387,30.387,0,0,0-9-2.5A13.621,13.621,0,0,1,1.5,21.15c-2.125-2.075-2.023-2.894.533-4.382.468-.272.919-.572,1.378-.859,5.753-2.271,11.02-5.171,14.244-10.752a21.207,21.207,0,0,1,1.686-2.528C21.815-.51,23.279-.739,26.66,1.414c.628.4,1.076.994,2.038.339,4.707-3.2,8.846-1.9,11.1,3.424,1.032,2.436,1.968,4.911,2.979,7.356.263.637.533,1.334,1.395,1.423.24,1.4,1.394,2.194,2.187,3.228.994,1.3,2.068,2.547,2.948,3.918,1.335,2.082,1.052,2.668-1.414,2.983a29.108,29.108,0,0,0-6.507,1.907c-2.647.991-3.224.6-4.573-1.885-1.555-2.863-1.933-6.047-2.834-9.088a5.857,5.857,0,0,0-1.375-3.963c-.4-.8-.907-1.616-1.938-1.2-2.135.871-4.307.355-6.466.362-1.624-.991-2.44-.677-2.352,1.351a18.6,18.6,0,0,0,.462,4.412" transform="translate(91.518 20.229)"/>
      <path id="Fill_5" data-name="Fill 5" class="cls-4" d="M36.688,20.125a45.327,45.327,0,0,1-19.235.058c-2.158-1.678-2.409-4.318-3.354-6.636-.173,2.41.838,4.666.687,7.038-2.3,1.109-4.615,2.1-7.213.938q-.031-.416-.063-.831l-.372-.539A17.355,17.355,0,0,0,.72,12.434c-.389-.253-.76-.554-.716-1.1A99.911,99.911,0,0,0,17.5,2.527c.981-.615,2.406-.967,2.476-2.527a55.676,55.676,0,0,1,2.636,10.339c.858,4.457,2.532,5.882,7.183,6.034a15.97,15.97,0,0,1,5.976,1.058c1.34.582,1.861,1.377.914,2.694" transform="translate(148.632 113.921)"/>
      <path id="Fill_7" data-name="Fill 7" class="cls-4" d="M22.1,22.459a4.689,4.689,0,0,1-4.589-.482c-1.01-1.47-.068-2.849.228-4.245.334-1.573.761-3.126.95-4.789-1.693,2.139-2.9,4.542-5.18,6.224a10.4,10.4,0,0,1-12.477.273c-.577-.426-1.187-.874-.991-1.7A1.54,1.54,0,0,1,1.577,16.5c7.575.764,8.486-5.149,10.324-10.1.782-2.107,1.421-4.266,2.125-6.4,3.549,3.285,7.891,5.263,12.226,7.223,2.2,1,4.509,1.768,6.768,2.642-.072,1.19-1.1,1.505-1.919,1.827-4.994,1.972-7.383,6.043-9.005,10.767" transform="translate(57.144 113.927)"/>
      <path id="Fill_9" data-name="Fill 9" class="cls-5" d="M7.131,16.923C4.268,15.606,1.6,14.048,0,11.185,3.875,8.161,1.717,4.531.826.971,2.887,2.161,2.993,4.3,3.98,6.2,5.427,4.268,5.466,1.739,7.441,0c.414,2-.5,3.433-1.1,5.1,1.644-.322,1.9-1.884,2.893-2.632.532-.4.919-1.4,1.663-1,1.089.578-.127,1.316-.131,2l-.655.869-.356.427-.532.6c.379.258.655.127.871-.228l.48-.461.693-.567c.593-.025,1.084-1.052,1.645-.4.525.6-.288,1.087-.627,1.55a17.583,17.583,0,0,1-1.264,1.407c.9.686,1.316-.692,2.743-.156C10.807,9.64,8.241,12.881,7.131,16.923" transform="translate(158.051 0.544)"/>
      <path id="Fill_11" data-name="Fill 11" class="cls-5" d="M12.913,10.609a18.845,18.845,0,0,1-6.236,2.478C5.159,9.176,1.478,6.589,0,2.628,1.71,3.3,2.4,4.963,3.956,6.172c-.221-1.781-1.543-2.99-1.327-4.735C4.255,1.807,4,3.84,5.426,4.4c.424-1.416-.473-2.71.057-4.146,1.737.994.977,3.179,2.429,4.5.228-1.345.41-2.514.631-3.676.1-.5.132-1.231.886-1.062.5.113.508.749.449,1.214a11.015,11.015,0,0,0-.24,4.2c1.139-.613.5-2.149,1.888-2.954.3,2.826-1.187,5.914,1.387,8.122" transform="translate(61.226 0.032)"/>
      <path id="Fill_13" data-name="Fill 13" class="cls-2" d="M32.27,13.237c-2.4,4.713-4.5,9.6-8.143,13.581-3.174,3.469-5.448,3.91-9.767,2.079C9.546,26.858,5.251,23.655,0,22.609a68.677,68.677,0,0,0,11.352-12.7C13.32,7,15.136,3.99,16.933.974,17.638-.21,18.067-.347,19.088.741c2.846,3.034,6.655,4.948,9.571,7.924a18.574,18.574,0,0,1,3.611,4.573" transform="translate(102.026 92.17)"/>
      <path id="Fill_15" data-name="Fill 15" class="cls-5" d="M.468,6.307A18.6,18.6,0,0,1,.006,1.894C-.081-.133.735-.447,2.354.544A3.256,3.256,0,0,0,1,2.669,2.136,2.136,0,0,0,2.009,4.878,1.734,1.734,0,0,0,4,4.72c1.482-.9,1.51-.91,2.353.746.161.317.332.22.5.214,2.79-.094,3.892-1.311,3.914-4.3A5.857,5.857,0,0,1,12.138,5.34C8.9,9.947,6.214,10.169.468,6.307" transform="translate(113.361 29.907)"/>
      <path id="Fill_17" data-name="Fill 17" class="cls-6" d="M9.79,1.31C9.768,4.3,8.666,5.519,5.876,5.613c-.169.006-.339.1-.5-.214C4.532,3.742,4.5,3.753,3.022,4.653a1.733,1.733,0,0,1-1.986.158A2.136,2.136,0,0,1,.031,2.6,3.256,3.256,0,0,1,1.381.476C3.545.469,5.717.985,7.852.114c1.031-.42,1.539.4,1.938,1.2" transform="translate(114.334 29.974)"/>
      <path id="Fill_19" data-name="Fill 19" class="cls-7" d="M.372.539,0,0,.372.539" transform="translate(155.771 134.074)"/>
      <path id="Fill_21" data-name="Fill 21" class="cls-8" d="M68.561,51.573a71.946,71.946,0,0,1-20.1,5.468A25.832,25.832,0,0,1,34.039,54.76c-5.2-5.08-11.387-8.958-16.862-13.708A47.112,47.112,0,0,1,9.2,32.274a68.3,68.3,0,0,1-5.915-18.4A34.633,34.633,0,0,0,1.046,7.233,10.113,10.113,0,0,1,.024,2.478,18.838,18.838,0,0,0,6.259,0C10.354,6.849,17.385,11.58,20.22,19.385c1.109,3.051,4.119,4.539,6.826,6.112-.459.287-.91.587-1.378.859-2.556,1.488-2.658,2.306-.533,4.382A13.622,13.622,0,0,0,32.883,34.3a30.38,30.38,0,0,1,9,2.5c2.033,1,2.945.465,3.569-1.75.88-3.125.642-6.3.5-9.478,5.746,3.862,8.427,3.64,11.669-.967.9,3.041,1.279,6.225,2.834,9.088,1.348,2.482,1.926,2.876,4.573,1.886a29.085,29.085,0,0,1,6.507-1.907c2.466-.315,2.749-.9,1.414-2.983-.879-1.371-1.953-2.62-2.948-3.918-.793-1.034-1.947-1.825-2.187-3.227a55.064,55.064,0,0,0,11.133-6.377C82.063,15,83.035,11.4,84.777,8.323a24.8,24.8,0,0,1,5.4-7.234c1.6,2.862,4.268,4.421,7.131,5.738-1.8,6.26-4.992,11.868-8.332,17.392-1.576,2.607-3.354,5.137-4.116,8.089a15.259,15.259,0,0,1-7.1,9.2,31.4,31.4,0,0,0-8.218,8.236,13.73,13.73,0,0,0-.973,1.832" transform="translate(67.88 10.641)"/>
      <path id="Fill_23" data-name="Fill 23" class="cls-9" d="M1.007,48.542a9.813,9.813,0,0,0,1.7-4.033c2.422-9.742,7.891-17.86,13.733-25.8,1.429-1.942,2.754-3.959,4.141-5.932C23.316,8.9,26.946,5.952,30.749,3.187A25.833,25.833,0,0,0,45.174,5.468,71.954,71.954,0,0,0,65.271,0C74.13,6.588,80.2,15.454,86.049,24.586c4.722,7.368,7,15.633,9.913,23.686.424,1.17.983,2.292,1.479,3.437-.071,1.56-1.495,1.912-2.476,2.527a99.92,99.92,0,0,1-17.5,8.806,22.478,22.478,0,0,1-3.49-4.649c-3.279-5.3-7.3-10.086-10.85-15.2a18.57,18.57,0,0,0-3.611-4.573c-2.916-2.976-6.726-4.89-9.571-7.924-1.02-1.087-1.449-.951-2.155.233-1.8,3.016-3.613,6.027-5.581,8.934a68.676,68.676,0,0,1-11.351,12.7c-3.609,3.453-7.84,6.1-11.863,9.014-2.259-.873-4.565-1.646-6.768-2.642C7.891,56.977,3.549,55,0,51.715c.193-1.1,1.124-1.974,1.007-3.173" transform="translate(71.17 62.213)"/>
    </g>
    <g id="Group_28" data-name="Group 28" transform="translate(72 62)">
      <path id="Clip_27-2" data-name="Clip 27" class="cls-1" d="M45.25,5.518A25.707,25.707,0,0,1,30.8,3.216h0c-3.809,2.79-7.446,5.763-10.181,9.68h0c-1.39,1.99-2.717,4.026-4.148,5.986h0c-5.852,8.01-11.33,16.2-13.756,26.033h0a9.937,9.937,0,0,1-1.705,4.07h0C1.126,50.2.193,51.075,0,52.187H0C3.555,55.5,7.9,57.5,12.247,59.475h0c2.207,1.005,4.516,1.785,6.779,2.666h0c4.03-2.942,8.268-5.611,11.882-9.1h0a69.155,69.155,0,0,0,11.37-12.816h0c1.971-2.933,3.79-5.972,5.59-9.016h0c.707-1.2,1.136-1.333,2.158-.235h0c2.85,3.061,6.666,4.993,9.587,8h0a18.728,18.728,0,0,1,3.617,4.614h0c3.559,5.158,7.583,9.985,10.869,15.336h0a22.641,22.641,0,0,0,3.5,4.692h0A99.8,99.8,0,0,0,95.123,54.73h0c.983-.62,2.41-.976,2.48-2.55h0c-.5-1.154-1.056-2.287-1.481-3.468h0c-2.922-8.126-5.2-16.466-9.93-23.9h0C80.33,15.595,74.254,6.649,65.38,0h0A71.661,71.661,0,0,1,45.25,5.518Z" transform="translate(0.142 0.167)"/>
      <g id="Group_28-2" data-name="Group 28" class="cls-10">
        <path id="Fill_26" data-name="Fill 26" class="cls-8" d="M75.59,136.9h0c-1.21,0-1.836-.132-1.913-.4-.06-.212.225-.513.846-.894a9.445,9.445,0,0,1,2.964-.387c.371,0,.746.01,1.108.019h.019c.357.009.726.019,1.084.019a8.88,8.88,0,0,0,2.552-.3c.108.024.209.042.307.06.276.049.493.088.585.23a.492.492,0,0,1,.019.394.473.473,0,0,1,.044.495c-.257.452-1.488.681-3.658.681-.331,0-.627,0-.865-.009H78.67l-.231,0h-.087c-.2,0-.516.017-.884.036l-.281.015C76.7,136.874,76.124,136.9,75.59,136.9Zm-66.635-.18a18.212,18.212,0,0,1-5.41-.659.339.339,0,0,1-.08-.368c.341-.7,3.947-.7,5.305-.7h.751c.216,0,.348,0,.44,0,.329.033.67.05,1.015.05a13.507,13.507,0,0,0,3.053-.376.512.512,0,0,1,.341.56c-.1.61-1.208,1.395-1.651,1.458h-.355c-.562,0-1.1.009-1.7.02C10.1,136.709,9.52,136.72,8.955,136.72Zm119.5-.2a18.345,18.345,0,0,1-3.462-.592,22.855,22.855,0,0,0-2.627-.509c-1.356-.082-2.095-.577-2.1-1s.651-.745,1.757-.844c.077.041.593.152,1.308.3,2.133.456,6.1,1.305,6.193,1.957a.531.531,0,0,1-.124.423A1.268,1.268,0,0,1,128.459,136.521Zm-64.326-.087c-.227,0-.481-.021-.8-.047-.183-.015-.39-.032-.621-.047-.611-.045-1.236-.064-1.84-.083a15.623,15.623,0,0,1-4.564-.587c-.257-.352-.335-.633-.231-.837.141-.277.622-.418,1.43-.418a18.874,18.874,0,0,1,2.584.257c.169.025.329.049.448.065a9.486,9.486,0,0,0,1.24.045c1.484.011,3.726.029,4.076.488a.208.208,0,0,1,.038.188C65.206,136.225,64.828,136.434,64.132,136.434Zm-36.526-.661h0a31.931,31.931,0,0,1-4.268-.733c-1.1-.221-2.467-.5-4.132-.819-.928-.184-1.742-.678-1.707-1.035.023-.232.4-.359,1.05-.359a9.8,9.8,0,0,1,1.432.13c1.087.26,2.265.44,3.4.613a26.926,26.926,0,0,1,4.847,1.037c0,.131,0,.253,0,.359.007.313.012.539-.115.669A.694.694,0,0,1,27.606,135.774Zm65.345-1.588h0a18.35,18.35,0,0,1-3.461-.592,22.86,22.86,0,0,0-2.629-.509c-1.356-.082-2.094-.577-2.1-1s.651-.745,1.757-.844c.077.041.594.152,1.309.3,2.132.456,6.1,1.3,6.191,1.957a.53.53,0,0,1-.124.423A1.267,1.267,0,0,1,92.951,134.186ZM39.083,133.6h0c-2,0-4.175-.167-4.915-.248,0,0,0-.007,0-.01s0-.007,0-.011c-.707-.258-1.046-.5-1.008-.72.094-.532,2.408-.815,4.041-.815a4.426,4.426,0,0,1,1.2.106c.146.013.3.019.463.019.406,0,.823-.04,1.226-.078h.016c.4-.038.813-.078,1.209-.078a3.053,3.053,0,0,1,1.916.542.5.5,0,0,1,.1.531C43.075,133.341,41.607,133.6,39.083,133.6Zm19.466-1.843c-.227,0-.481-.021-.8-.047-.183-.015-.39-.032-.619-.047-.612-.045-1.237-.065-1.843-.083A15.654,15.654,0,0,1,50.721,131c-.257-.352-.334-.633-.231-.837.141-.278.623-.418,1.432-.418a18.879,18.879,0,0,1,2.584.257c.177.026.329.049.447.064a9.479,9.479,0,0,0,1.239.045c1.484.011,3.726.029,4.076.488a.208.208,0,0,1,.038.188C59.622,131.551,59.245,131.761,58.549,131.761Zm53.114-.213h0c-.717,0-1.106-.088-1.158-.262l.275-.763c.581-.578,5.3-1.238,6.953-1.238.095,0,.18,0,.255.006l.037-.006a15.127,15.127,0,0,1,2.165-.265c.425,0,.655.074.7.226.082.251-.356.727-1.3,1.415h-.03c-.219,0-.968.108-1.916.244-.427.061-.91.131-1.41.2A40.375,40.375,0,0,1,111.663,131.549ZM99.5,129.921h0c-.84,0-1.305-.1-1.383-.283-.036-.087.01-.2.138-.323a.591.591,0,0,1,.05-.561c.34-.477,1.505-.541,2.6-.541h.37l.322,0a4.513,4.513,0,0,0,.5-.018h.036c.125,0,.381-.021.7-.047l.516-.041c.5-.038,1.238-.088,1.94-.088,1.492,0,2.286.228,2.361.677-.129.856-1.62.876-2.937.895a10.967,10.967,0,0,0-1.444.077.366.366,0,0,0-.051,0c-.133,0-.46.031-.874.069h-.007l-.607.056C101.124,129.849,100.227,129.921,99.5,129.921ZM72.9,128.9h0c-2.678,0-8.015-1.106-8.115-2.05-.031-.3.442-.549,1.405-.755.728.135,1.465.248,2.178.358a28.926,28.926,0,0,1,4.812,1.016c.864.459,1.271.816,1.209,1.063S73.81,128.9,72.9,128.9Zm54.268-.352h0a1.242,1.242,0,0,1-1.245-.725c-.068-.317.165-.613.656-.834l.489-.064a55.234,55.234,0,0,1,7.043-.622c.736,0,1.412.031,2.064.1a3.156,3.156,0,0,0,.009.416c.053.76.053.76-5.217,1.32-.968.1-2.065.219-3.394.365A1.69,1.69,0,0,1,127.164,128.544Zm-115.991-.423a18.209,18.209,0,0,1-5.409-.659.339.339,0,0,1-.08-.368c.34-.7,3.947-.7,5.3-.7h.752c.217,0,.348,0,.44,0,.329.033.67.05,1.015.05a13.5,13.5,0,0,0,3.052-.376.513.513,0,0,1,.341.561c-.1.61-1.208,1.394-1.651,1.458h-.354c-.559,0-1.124.01-1.7.02h-.005C12.318,128.111,11.741,128.121,11.173,128.121Zm15.629-.246a1.173,1.173,0,0,1-1.315-.913c1.575-1.029,3.982-1.543,6.31-2.04,1.071-.229,2.178-.465,3.161-.746.475.306.691.6.642.87-.137.757-2.3,1.23-3.738,1.544-.518.113-.965.211-1.2.3a8.916,8.916,0,0,0-1.284.377A8.918,8.918,0,0,1,26.8,127.875Zm55.115-2.223h0a1.242,1.242,0,0,1-1.244-.725c-.068-.318.165-.614.656-.835l.51-.067a55.134,55.134,0,0,1,7.018-.619c.737,0,1.413.031,2.066.1a3.153,3.153,0,0,0,.009.416c.053.759.053.759-5.208,1.318-.969.1-2.067.22-3.4.366A1.689,1.689,0,0,1,81.917,125.652Zm-30.125-1.285h0a15.975,15.975,0,0,1-2.777-.391c-.494-.1-.961-.19-1.359-.246-.664-.152-1.36-.251-2.033-.346a10.525,10.525,0,0,1-4.227-1.208c-.165-.161-.226-.3-.181-.408.112-.275.846-.333,1.442-.333a10.556,10.556,0,0,1,3.554.53c.542.084,1.091.156,1.622.225a17.666,17.666,0,0,1,5.36,1.265.765.765,0,0,1-.2.578A1.65,1.65,0,0,1,51.792,124.367Zm57.4-1.113h0a3.79,3.79,0,0,1-.972-.173c-.241-.028-.476-.054-.708-.08H107.5a14.674,14.674,0,0,1-4.648-1.038c-.893-.149-1.451-.423-1.457-.715-.005-.259.421-.5,1.169-.653a33.454,33.454,0,0,1,4.9.756c.949.2,1.931.4,2.9.541C110.088,122.923,109.8,123.254,109.2,123.254ZM119.9,120.98a2.344,2.344,0,0,1-1.5-.372c-.092-.06-.132-.125-.118-.195.115-.616,4.291-1.492,7.34-2.132,1.088-.228,2.024-.425,2.592-.57.564.451.8.819.721,1.125-.151.585-1.476.814-2.54,1-.407.07-.792.136-1.071.214a9.739,9.739,0,0,0-1.4.277A19.7,19.7,0,0,1,119.9,120.98Zm-57.062-1.2c-2,0-4.176-.167-4.915-.248l0-.021c-.707-.258-1.047-.5-1.008-.72.094-.532,2.407-.815,4.04-.815a4.431,4.431,0,0,1,1.2.106c.146.013.3.019.463.019.406,0,.822-.04,1.225-.078h.017c.4-.038.814-.078,1.209-.078a3.053,3.053,0,0,1,1.916.542.5.5,0,0,1,.1.531C66.834,119.515,65.366,119.779,62.841,119.779Zm21.722-.7h0c-.052-.011-.264-.033-.583-.067-2.029-.215-8.2-.868-8.849-2.087a.433.433,0,0,1,0-.428c.114-.021.23-.042.27-.112a.141.141,0,0,0,0-.123.708.708,0,0,1,.3-.056c.151-.006.294-.012.371-.15a15.281,15.281,0,0,0,3.436.7c2.712.416,6.086.933,6.142,1.615.019.23-.348.469-1.091.709ZM29.6,119h0a36.814,36.814,0,0,1-6.377-1.245c-1.173-.3-2.386-.614-3.567-.844-.6-.322-.881-.589-.83-.793.095-.378,1.259-.407,1.613-.407a6.36,6.36,0,0,1,1.2.1,32.537,32.537,0,0,1,5.771,1.276c.51.146,1.038.3,1.557.438l-.008.023c.549.074,1.192.2,1.281.527.063.23-.147.532-.641.924Zm-27.271-.818h0a1.173,1.173,0,0,1-1.315-.913c1.576-1.03,3.983-1.544,6.311-2.042,1.07-.229,2.177-.465,3.159-.746.475.306.691.6.642.871-.137.758-2.3,1.231-3.739,1.544-.518.113-.965.211-1.2.3a8.916,8.916,0,0,0-1.283.377A8.919,8.919,0,0,1,2.327,118.182Zm88.636-1.288h0a1.242,1.242,0,0,1-1.245-.725c-.068-.317.165-.613.656-.834l.491-.064a55.2,55.2,0,0,1,7.036-.621c.738,0,1.415.031,2.069.1a3.156,3.156,0,0,0,.009.416c.053.759.053.759-5.206,1.318l-.023,0c-.968.1-2.064.219-3.382.364A1.692,1.692,0,0,1,90.962,116.893Zm14.923-2.341c-1.206,0-1.83-.132-1.906-.4-.06-.212.225-.513.846-.894a9.469,9.469,0,0,1,2.967-.387c.372,0,.745.01,1.106.019h.007c.357.009.727.019,1.088.019a8.907,8.907,0,0,0,2.559-.3c.109.025.21.043.308.06.275.05.492.089.584.23a.493.493,0,0,1,.019.394.473.473,0,0,1,.044.495c-.257.452-1.488.681-3.658.681-.332,0-.628,0-.865-.009h-.012l-.231,0-.1,0c-.2,0-.52.017-.889.036l-.27.014C106.995,114.526,106.42,114.552,105.885,114.552Zm-66.623-.18a18.225,18.225,0,0,1-5.415-.659.339.339,0,0,1-.08-.368c.34-.7,3.948-.7,5.306-.7h.754c.215,0,.346,0,.437,0,.327.033.668.049,1.011.049a13.552,13.552,0,0,0,3.055-.376.512.512,0,0,1,.341.56c-.1.61-1.208,1.395-1.651,1.458h-.356c-.561,0-1.127.01-1.7.02h-.014C40.393,114.362,39.822,114.372,39.263,114.372ZM130.419,114h0a36.794,36.794,0,0,1-6.376-1.245c-1.174-.3-2.387-.614-3.568-.844-.6-.322-.881-.589-.83-.793.095-.378,1.259-.407,1.613-.407a6.368,6.368,0,0,1,1.2.1,32.492,32.492,0,0,1,5.76,1.273c.514.147,1.045.3,1.569.441l-.008.023c.549.075,1.192.2,1.28.527.063.23-.147.532-.641.924Zm-72.511-.572h0a31.914,31.914,0,0,1-4.264-.732l-.008,0c-1.1-.221-2.466-.5-4.13-.818-.928-.184-1.742-.678-1.707-1.035.023-.232.4-.36,1.052-.36a9.806,9.806,0,0,1,1.431.13c1.087.26,2.264.44,3.4.613a26.965,26.965,0,0,1,4.848,1.038c0,.131,0,.252,0,.359.007.313.012.539-.115.669A.694.694,0,0,1,57.908,113.426Zm30.944-4.012c-.227,0-.482-.021-.805-.048-.184-.015-.391-.032-.618-.047-.61-.045-1.235-.064-1.839-.083a15.655,15.655,0,0,1-4.567-.586c-.257-.352-.334-.634-.231-.837.141-.278.623-.418,1.432-.418a18.877,18.877,0,0,1,2.583.257c.169.025.328.049.447.064a9.487,9.487,0,0,0,1.239.045c1.485.011,3.727.029,4.077.488a.208.208,0,0,1,.038.188C89.925,109.2,89.547,109.414,88.852,109.414Zm-19.3-.321h0c-2,0-4.175-.167-4.915-.248l0-.021c-.707-.258-1.047-.5-1.008-.72.094-.532,2.407-.815,4.04-.815a4.432,4.432,0,0,1,1.2.106c.146.013.3.019.463.019.406,0,.823-.04,1.226-.078h.016c.4-.038.814-.078,1.209-.078a3.052,3.052,0,0,1,1.916.542.5.5,0,0,1,.1.531C73.543,108.829,72.075,109.093,69.55,109.093ZM19.2,108.92h0c-.715,0-1.1-.088-1.156-.261l.275-.764c.582-.577,5.3-1.238,6.956-1.238.094,0,.179,0,.252.006l.038-.006a15.123,15.123,0,0,1,2.164-.265c.425,0,.655.074.7.226.082.251-.356.727-1.3,1.415H27.1c-.219,0-.967.108-1.914.244-.429.062-.914.132-1.413.2A40.414,40.414,0,0,1,19.2,108.92Zm82.862-.558a18.344,18.344,0,0,1-3.462-.592,22.862,22.862,0,0,0-2.627-.509c-1.356-.082-2.095-.577-2.1-1s.651-.745,1.758-.844c.077.041.6.152,1.314.306,2.132.457,6.095,1.305,6.187,1.956a.531.531,0,0,1-.124.423A1.268,1.268,0,0,1,102.062,108.362Zm-59.09-2.421a18.212,18.212,0,0,1-5.41-.659.339.339,0,0,1-.08-.368c.34-.7,3.947-.7,5.305-.7h.751c.217,0,.348,0,.44,0,.329.033.669.049,1.014.049a13.513,13.513,0,0,0,3.054-.376.512.512,0,0,1,.34.56c-.1.61-1.208,1.4-1.652,1.459h-.355c-.559,0-1.123.01-1.7.02h-.011C44.11,105.93,43.535,105.941,42.972,105.941Zm77.8-.216h0c-.716,0-1.105-.088-1.157-.262l.275-.763c.582-.578,5.3-1.238,6.953-1.238.095,0,.18,0,.254.006l.042-.007a15.121,15.121,0,0,1,2.162-.265c.424,0,.654.074.7.226.082.251-.356.727-1.3,1.414h-.03c-.219,0-.966.108-1.911.244h-.007c-.426.061-.91.131-1.407.2A40.252,40.252,0,0,1,120.773,105.725Zm-63-1.029h0a1.173,1.173,0,0,1-1.315-.913c1.576-1.029,3.983-1.544,6.311-2.041,1.07-.229,2.177-.465,3.159-.746.475.306.691.6.642.871-.137.758-2.3,1.231-3.738,1.544-.519.113-.965.211-1.2.3a8.917,8.917,0,0,0-1.283.377A8.919,8.919,0,0,1,57.769,104.7Zm-52-.1c-.84,0-1.305-.1-1.383-.283-.036-.087.01-.2.137-.323a.592.592,0,0,1,.05-.561c.341-.477,1.506-.542,2.6-.542h.371l.32,0a4.506,4.506,0,0,0,.5-.018H8.4c.125,0,.381-.021.7-.047l.516-.041c.5-.038,1.238-.088,1.94-.088,1.492,0,2.286.228,2.362.677-.129.857-1.622.877-2.939.9a10.979,10.979,0,0,0-1.442.077.36.36,0,0,0-.048,0c-.133,0-.465.031-.886.07H8.6l-.6.055C7.4,104.528,6.5,104.6,5.767,104.6Zm102.841-.5c-.84,0-1.3-.1-1.383-.283-.036-.087.01-.2.137-.323a.591.591,0,0,1,.05-.561c.34-.477,1.5-.541,2.587-.541l.364,0h.021l.32,0a4.509,4.509,0,0,0,.5-.018h.036c.125,0,.38-.021.7-.047h.016l.5-.04c.5-.038,1.239-.088,1.942-.088,1.49,0,2.283.228,2.359.677-.129.856-1.621.877-2.937.9a10.956,10.956,0,0,0-1.443.077.364.364,0,0,0-.051,0c-.132,0-.452.03-.857.068l-.631.057C110.237,104.025,109.341,104.1,108.608,104.1Zm-25.934-2.025h0c-2.678,0-8.016-1.107-8.115-2.049-.031-.3.442-.549,1.406-.755.728.136,1.465.248,2.177.358a28.928,28.928,0,0,1,4.811,1.016c.864.459,1.271.816,1.21,1.063S83.587,102.072,82.674,102.072ZM26.69,100.76h0a2.344,2.344,0,0,1-1.5-.372c-.092-.06-.132-.125-.118-.195.115-.617,4.3-1.494,7.351-2.135,1.081-.227,2.015-.423,2.581-.568.564.451.8.819.721,1.125-.151.586-1.477.814-2.543,1-.407.07-.791.136-1.07.214a9.747,9.747,0,0,0-1.392.277A19.693,19.693,0,0,1,26.69,100.76Zm64.338-.933h0a1.242,1.242,0,0,1-1.244-.725c-.068-.317.165-.614.656-.834l.491-.064a55.191,55.191,0,0,1,7.036-.621c.738,0,1.415.031,2.069.1a3.16,3.16,0,0,0,.009.415c.053.759.053.759-5.206,1.318-.97.1-2.07.22-3.4.366A1.692,1.692,0,0,1,91.028,99.827Zm32.3-1.939a1.172,1.172,0,0,1-1.315-.913c1.576-1.03,3.983-1.544,6.311-2.041,1.07-.229,2.176-.465,3.16-.746.475.306.691.6.642.87-.137.757-2.3,1.23-3.738,1.544-.518.113-.965.211-1.2.3a8.92,8.92,0,0,0-1.284.377A8.918,8.918,0,0,1,123.329,97.889Zm-65.584-.4a15.971,15.971,0,0,1-2.774-.39c-.495-.1-.962-.19-1.362-.247-.69-.159-1.39-.256-2.067-.35A10.905,10.905,0,0,1,47.5,95.4c-.273-.2-.389-.372-.346-.5.091-.275.842-.333,1.456-.333a10.242,10.242,0,0,1,3.556.525c.541.084,1.09.155,1.62.224a17.682,17.682,0,0,1,5.363,1.265.764.764,0,0,1-.2.578A1.65,1.65,0,0,1,57.744,97.489Zm57.855-.059a3.788,3.788,0,0,1-.972-.173l-.707-.08h-.009a14.712,14.712,0,0,1-4.652-1.039c-.893-.149-1.452-.423-1.457-.715-.005-.259.421-.5,1.169-.653a33.456,33.456,0,0,1,4.894.755c.952.2,1.935.4,2.906.541C116.491,97.1,116.206,97.431,115.6,97.431Zm-98.328-1a3.8,3.8,0,0,1-.972-.173l-.715-.081a14.722,14.722,0,0,1-4.654-1.039c-.893-.149-1.451-.423-1.457-.715-.005-.259.421-.5,1.169-.653a33.4,33.4,0,0,1,4.9.755c.949.2,1.93.4,2.9.541C18.164,96.1,17.879,96.428,17.272,96.428Zm54.681-2.473h0c-2,0-4.175-.167-4.915-.248,0,0,0-.007,0-.01s0-.007,0-.011c-.707-.258-1.046-.5-1.007-.72.094-.532,2.407-.815,4.04-.815a4.427,4.427,0,0,1,1.2.106c.146.013.3.019.463.019.407,0,.825-.04,1.228-.078h.014c.4-.038.813-.078,1.209-.078a3.052,3.052,0,0,1,1.916.542.5.5,0,0,1,.1.531C75.946,93.691,74.477,93.955,71.953,93.955Zm21.722-.7h0c-.052-.011-.263-.033-.583-.067-2.03-.215-8.2-.868-8.851-2.087a.432.432,0,0,1,0-.427c.114-.021.231-.042.271-.112a.142.142,0,0,0,0-.123.708.708,0,0,1,.3-.056c.152-.006.295-.012.371-.15a15.279,15.279,0,0,0,3.433.7c2.713.416,6.089.933,6.144,1.615.019.23-.348.469-1.09.709ZM38.71,93.176h0a36.8,36.8,0,0,1-6.376-1.245c-1.174-.3-2.388-.614-3.568-.844-.6-.322-.881-.589-.83-.793.095-.378,1.258-.407,1.612-.407a6.372,6.372,0,0,1,1.2.1,32.539,32.539,0,0,1,5.771,1.276c.51.146,1.036.3,1.557.438l-.008.023c.549.075,1.192.2,1.28.528.063.23-.147.532-.641.924Zm61.363-2.107a1.242,1.242,0,0,1-1.244-.725c-.068-.317.165-.614.656-.834l.489-.064a55.234,55.234,0,0,1,7.043-.622c.737,0,1.412.031,2.064.1a3.155,3.155,0,0,0,.009.416c.053.759.053.759-5.218,1.32l-.02,0c-.965.1-2.06.219-3.373.363A1.69,1.69,0,0,1,100.073,91.07Zm-98.328-1A1.242,1.242,0,0,1,.5,89.342c-.068-.317.165-.614.656-.834l.49-.064a55.217,55.217,0,0,1,7.041-.622c.736,0,1.412.031,2.064.1a3.16,3.16,0,0,0,.009.416c.053.759.053.759-5.208,1.318l-.019,0c-.968.1-2.066.22-3.384.364A1.691,1.691,0,0,1,1.745,90.067ZM115,88.728h0c-1.209,0-1.834-.132-1.911-.4-.06-.212.225-.512.846-.893a9.467,9.467,0,0,1,2.97-.388c.371,0,.744.01,1.1.019h.018c.356.009.724.019,1.084.019a8.876,8.876,0,0,0,2.551-.3c.108.024.209.043.306.06.277.05.495.089.586.231a.492.492,0,0,1,.019.393.473.473,0,0,1,.044.5c-.258.452-1.49.681-3.664.681-.324,0-.616,0-.851-.008l-.253,0-.1,0c-.2,0-.52.017-.89.036l-.268.014C116.107,88.7,115.534,88.728,115,88.728Zm-66.625-.179h0a18.238,18.238,0,0,1-5.417-.659.339.339,0,0,1-.08-.368c.3-.628,3.153-.7,5.268-.7h.79c.215,0,.346,0,.439,0,.328.033.668.049,1.011.049a13.564,13.564,0,0,0,3.056-.376.512.512,0,0,1,.341.56c-.1.61-1.208,1.395-1.651,1.458h-.356c-.563,0-1.127.01-1.7.02h-.02C49.5,88.539,48.933,88.549,48.376,88.549Zm-31.7-.823c-1.209,0-1.834-.132-1.911-.4-.06-.212.225-.513.846-.894a9.468,9.468,0,0,1,2.967-.387c.373,0,.747.01,1.108.019h.005c.358.009.727.019,1.088.019a8.912,8.912,0,0,0,2.56-.3c.109.025.211.043.309.061.275.05.492.089.583.23a.493.493,0,0,1,.019.394.473.473,0,0,1,.044.5c-.257.452-1.49.681-3.663.681-.324,0-.616,0-.851-.008l-.253,0-.1,0c-.2,0-.52.017-.89.036l-.268.014C17.779,87.7,17.206,87.725,16.673,87.725ZM67.019,87.6h0a31.871,31.871,0,0,1-4.26-.732c-1.1-.222-2.472-.5-4.141-.82-.928-.185-1.742-.678-1.706-1.036.023-.232.4-.359,1.051-.359a9.8,9.8,0,0,1,1.431.13c1.087.26,2.264.439,3.4.613a26.911,26.911,0,0,1,4.85,1.039c0,.132,0,.253,0,.36.007.313.012.539-.115.669A.694.694,0,0,1,67.019,87.6ZM78.5,85.433h0c-2.008,0-4.18-.167-4.917-.248a.155.155,0,0,0,0-.02c-.707-.258-1.046-.5-1.007-.72.094-.532,2.407-.815,4.04-.815a4.427,4.427,0,0,1,1.2.106c.146.013.3.019.463.019.407,0,.825-.04,1.228-.078h.014c.4-.038.813-.078,1.208-.078a3.052,3.052,0,0,1,1.915.542.5.5,0,0,1,.1.531C82.488,85.17,81.02,85.433,78.5,85.433ZM29.065,83.85h0c-.716,0-1.1-.088-1.157-.262l.274-.764c.582-.577,5.3-1.238,6.956-1.238.094,0,.179,0,.252.006l.038-.006a15.121,15.121,0,0,1,2.164-.265c.425,0,.655.074.7.226.082.251-.356.727-1.3,1.415h-.03c-.219,0-.967.108-1.915.244-.428.062-.913.131-1.412.2A40.248,40.248,0,0,1,29.065,83.85Zm104.413-.176c-.227,0-.48-.021-.8-.047-.184-.015-.391-.032-.621-.047-.61-.045-1.234-.064-1.838-.083a15.63,15.63,0,0,1-4.566-.587c-.257-.352-.335-.634-.231-.837.141-.278.623-.418,1.432-.418a18.878,18.878,0,0,1,2.584.257c.179.027.33.049.447.064a9.484,9.484,0,0,0,1.239.045c1.484.012,3.726.029,4.076.489a.208.208,0,0,1,.038.188C134.551,83.464,134.174,83.674,133.478,83.674ZM97.962,83.59c-.228,0-.483-.021-.806-.048H97.15c-.18-.015-.385-.032-.61-.046-.611-.045-1.236-.064-1.84-.083a15.623,15.623,0,0,1-4.564-.587c-.257-.352-.335-.634-.231-.837.141-.277.622-.418,1.431-.418a18.865,18.865,0,0,1,2.588.258c.167.025.325.049.443.064a9.5,9.5,0,0,0,1.235.045c1.486.011,3.73.029,4.08.489a.208.208,0,0,1,.038.188C99.036,83.38,98.658,83.59,97.962,83.59Zm15.649-.432c-2.678,0-8.015-1.106-8.115-2.05-.031-.3.442-.549,1.405-.755.731.136,1.47.25,2.185.359a28.965,28.965,0,0,1,4.8,1.014c.864.459,1.27.816,1.209,1.063S114.525,83.158,113.611,83.158ZM12.845,81.535a18.34,18.34,0,0,1-3.461-.592,22.853,22.853,0,0,0-2.628-.509c-1.356-.082-2.095-.577-2.1-1s.651-.745,1.758-.844c.076.041.592.151,1.306.3,2.134.457,6.1,1.306,6.194,1.958a.531.531,0,0,1-.124.423A1.268,1.268,0,0,1,12.845,81.535ZM50.592,79.95a18.226,18.226,0,0,1-5.415-.659.339.339,0,0,1-.08-.368c.34-.7,3.947-.7,5.3-.7h.754c.215,0,.346,0,.437,0,.328.033.669.05,1.013.05a13.55,13.55,0,0,0,3.054-.376.512.512,0,0,1,.341.56c-.1.61-1.208,1.395-1.651,1.458h-.356c-.562,0-1.1.009-1.705.02h-.017C51.719,79.94,51.149,79.95,50.592,79.95ZM66.214,79.7a1.173,1.173,0,0,1-1.315-.913c1.576-1.03,3.983-1.544,6.311-2.042,1.07-.229,2.177-.465,3.159-.746.475.306.691.6.642.871-.137.758-2.3,1.231-3.739,1.544-.518.113-.965.211-1.2.3a8.913,8.913,0,0,0-1.283.377A8.919,8.919,0,0,1,66.214,79.7Zm25.614-1.56h0a15.968,15.968,0,0,1-2.774-.39c-.5-.1-.962-.19-1.362-.246-.664-.153-1.361-.251-2.035-.347a10.533,10.533,0,0,1-4.224-1.207c-.165-.161-.226-.3-.181-.409.112-.275.846-.333,1.442-.333a10.56,10.56,0,0,1,3.554.53c.542.084,1.091.156,1.621.225a17.673,17.673,0,0,1,5.361,1.265.765.765,0,0,1-.2.578A1.651,1.651,0,0,1,91.828,78.144ZM19.392,77.27c-.84,0-1.305-.1-1.383-.283-.036-.087.01-.2.137-.323a.592.592,0,0,1,.05-.561c.34-.477,1.5-.541,2.586-.541l.364,0h.316a5.078,5.078,0,0,0,.53-.018h.036c.124,0,.379-.021.7-.047l.518-.041c.5-.038,1.238-.088,1.94-.088,1.492,0,2.287.228,2.362.677-.129.857-1.622.877-2.939.9a10.973,10.973,0,0,0-1.442.077.361.361,0,0,0-.048,0c-.133,0-.465.031-.886.07l-.6.055C21.021,77.2,20.122,77.27,19.392,77.27Zm105.57-.852a1.242,1.242,0,0,1-1.244-.725c-.068-.317.165-.614.657-.834l.511-.067a55.128,55.128,0,0,1,7.018-.619c.727,0,1.422.032,2.066.1a3.156,3.156,0,0,0,.009.416c.053.759.053.759-5.206,1.318h-.009c-.971.1-2.072.22-3.4.365A1.69,1.69,0,0,1,124.961,76.418ZM97.3,75.734c-1.209,0-1.835-.132-1.911-.4-.06-.212.225-.513.846-.894a9.438,9.438,0,0,1,2.963-.387c.371,0,.747.01,1.11.019h.018c.357.009.726.019,1.085.019a8.88,8.88,0,0,0,2.552-.3c.109.025.21.043.308.06.275.05.493.089.584.23a.491.491,0,0,1,.019.393.473.473,0,0,1,.044.5c-.257.452-1.49.681-3.663.681-.325,0-.617,0-.852-.008h-.014l-.237,0-.1,0c-.2,0-.519.017-.888.036l-.27.014C98.41,75.709,97.836,75.734,97.3,75.734Zm-60-2.454h0a2.343,2.343,0,0,1-1.5-.372c-.092-.06-.131-.125-.118-.195.115-.616,4.292-1.493,7.342-2.133,1.085-.228,2.022-.424,2.59-.57.564.451.8.819.721,1.125-.151.585-1.476.813-2.54,1-.408.07-.792.136-1.072.214a9.742,9.742,0,0,0-1.4.277A19.7,19.7,0,0,1,37.3,73.28ZM1.811,73a1.242,1.242,0,0,1-1.245-.725c-.068-.317.165-.613.656-.834l.492-.064a55.228,55.228,0,0,1,7.04-.622c.736,0,1.412.031,2.064.1a3.157,3.157,0,0,0,.009.416c.053.76.053.76-5.218,1.32-.968.1-2.064.219-3.394.365A1.688,1.688,0,0,1,1.811,73Zm59.35-.638h0c-2,0-4.178-.167-4.918-.248l0-.009,0-.012c-.708-.258-1.047-.5-1.008-.72.094-.532,2.408-.815,4.043-.815a4.428,4.428,0,0,1,1.2.106c.148.013.3.02.468.02.411,0,.828-.04,1.232-.078h.008c.4-.038.813-.078,1.208-.078a3.054,3.054,0,0,1,1.916.542.5.5,0,0,1,.1.53C65.152,72.1,63.684,72.363,61.161,72.363Zm52.247-.764h0c-2,0-4.176-.167-4.915-.248V71.33c-.707-.258-1.047-.5-1.008-.721.094-.532,2.407-.815,4.04-.815a4.432,4.432,0,0,1,1.2.106c.146.013.3.019.463.019.406,0,.823-.04,1.226-.078h.016c.4-.038.813-.078,1.209-.078a3.053,3.053,0,0,1,1.916.542.5.5,0,0,1,.1.531C117.4,71.335,115.932,71.6,113.407,71.6ZM75.588,70.423c-1.209,0-1.834-.132-1.911-.4-.06-.212.225-.513.846-.894a9.446,9.446,0,0,1,2.964-.387c.372,0,.748.01,1.111.019h.017c.356.009.725.019,1.084.019a8.879,8.879,0,0,0,2.552-.3c.108.025.209.043.307.06.276.05.494.089.585.23a.491.491,0,0,1,.019.393.473.473,0,0,1,.044.5c-.257.452-1.49.681-3.663.681-.323,0-.614,0-.848-.008l-.255,0-.1,0c-.2,0-.517.017-.886.036l-.272.014C76.695,70.4,76.121,70.423,75.588,70.423Zm20.37-1.058h0a18.352,18.352,0,0,1-3.464-.593,22.9,22.9,0,0,0-2.624-.509c-1.356-.082-2.095-.577-2.1-1s.651-.745,1.758-.844c.077.041.594.152,1.309.3,2.132.456,6.1,1.3,6.191,1.957a.531.531,0,0,1-.124.423A1.269,1.269,0,0,1,95.958,69.365ZM27.607,69.3h0a31.861,31.861,0,0,1-4.26-.732l-.013,0c-1.1-.221-2.466-.5-4.128-.818-.928-.184-1.742-.677-1.707-1.035.023-.232.4-.359,1.051-.359a9.8,9.8,0,0,1,1.431.13c1.087.26,2.263.439,3.4.613a26.9,26.9,0,0,1,4.85,1.039c0,.131,0,.253,0,.36.007.313.012.539-.115.669A.694.694,0,0,1,27.607,69.3Zm100.551-.006A18.342,18.342,0,0,1,124.7,68.7a22.858,22.858,0,0,0-2.627-.509c-1.356-.082-2.095-.577-2.1-1s.651-.745,1.757-.844c.076.041.593.151,1.307.3,2.134.456,6.1,1.305,6.193,1.957a.53.53,0,0,1-.124.423A1.267,1.267,0,0,1,128.158,69.292ZM39.083,65.773h0c-2,0-4.176-.167-4.915-.248,0,0,0-.007,0-.01s0-.007,0-.011c-.707-.258-1.046-.5-1.008-.72.094-.532,2.407-.815,4.041-.815a4.427,4.427,0,0,1,1.2.106c.146.013.3.019.463.019.406,0,.823-.04,1.226-.078h.016c.4-.038.813-.078,1.209-.078a3.053,3.053,0,0,1,1.916.542.5.5,0,0,1,.1.531C43.075,65.509,41.607,65.773,39.083,65.773Zm19.466-.488c-.227,0-.48-.021-.8-.047-.184-.015-.391-.032-.621-.047-.613-.046-1.239-.065-1.845-.083a15.647,15.647,0,0,1-4.56-.586c-.257-.352-.334-.633-.231-.837.141-.278.623-.418,1.432-.418a18.875,18.875,0,0,1,2.584.257c.177.026.329.049.447.064a9.48,9.48,0,0,0,1.239.045c1.484.012,3.726.029,4.076.489a.208.208,0,0,1,.038.188C59.623,65.075,59.245,65.285,58.549,65.285Zm53.112-.212h0c-.715,0-1.1-.088-1.156-.261l.275-.764c.581-.577,5.3-1.238,6.955-1.238.094,0,.179,0,.252.006l.037-.006a15.125,15.125,0,0,1,2.165-.265c.425,0,.655.074.7.226.082.251-.356.727-1.3,1.415h-.03c-.219,0-.967.108-1.915.244h-.007c-.426.061-.908.131-1.4.2A40.411,40.411,0,0,1,111.661,65.072ZM99.5,63.444h0c-.841,0-1.306-.1-1.384-.283-.036-.087.01-.2.138-.323a.591.591,0,0,1,.05-.561c.34-.477,1.5-.541,2.585-.541l.364,0h.315a5.077,5.077,0,0,0,.531-.018h.036c.125,0,.38-.021.7-.047l.518-.041c.5-.038,1.238-.088,1.94-.088,1.492,0,2.286.228,2.361.677-.129.857-1.622.877-2.939.9a10.98,10.98,0,0,0-1.441.077.361.361,0,0,0-.048,0c-.133,0-.464.031-.883.07h-.012l-.592.054C101.127,63.372,100.229,63.444,99.5,63.444ZM72.9,62.419h0c-2.678,0-8.016-1.107-8.115-2.049-.031-.3.442-.549,1.405-.754.729.136,1.467.249,2.18.358a28.97,28.97,0,0,1,4.809,1.015c.864.459,1.271.816,1.21,1.063S73.81,62.419,72.9,62.419Zm54.267-.352a1.242,1.242,0,0,1-1.245-.725c-.068-.317.165-.614.656-.835l.489-.064a55.237,55.237,0,0,1,7.042-.622c.736,0,1.412.031,2.064.1a3.156,3.156,0,0,0,.009.416c.053.76.053.76-5.217,1.32h-.01c-.968.1-2.066.22-3.384.364A1.692,1.692,0,0,1,127.164,62.067ZM26.8,60.8a1.173,1.173,0,0,1-1.315-.913c1.575-1.03,3.983-1.544,6.311-2.042,1.07-.229,2.177-.465,3.16-.746.475.306.691.6.642.871-.137.757-2.3,1.23-3.735,1.543-.519.113-.967.211-1.2.3a8.917,8.917,0,0,0-1.283.377A8.919,8.919,0,0,1,26.8,60.8Zm-15.623-.056h0a18.237,18.237,0,0,1-5.414-.658.339.339,0,0,1-.08-.368c.34-.7,3.946-.7,5.3-.7h.752c.217,0,.349,0,.44,0,.328.033.669.05,1.013.05a13.55,13.55,0,0,0,3.054-.376.512.512,0,0,1,.341.56c-.1.61-1.208,1.395-1.651,1.458H14.58c-.562,0-1.128.01-1.707.02h-.017C12.3,60.731,11.734,60.741,11.178,60.741Zm70.738-.813a1.242,1.242,0,0,1-1.244-.725c-.068-.317.165-.614.656-.834l.51-.067a55.129,55.129,0,0,1,7.018-.619c.738,0,1.414.031,2.066.1a3.149,3.149,0,0,0,.009.416c.053.759.053.759-5.216,1.319-.969.1-2.066.22-3.4.365A1.689,1.689,0,0,1,81.917,59.928ZM51.792,57.891a15.972,15.972,0,0,1-2.774-.39c-.495-.1-.962-.19-1.362-.247-.664-.153-1.362-.251-2.036-.347A10.53,10.53,0,0,1,41.4,55.7c-.165-.161-.226-.3-.181-.409.112-.275.846-.333,1.443-.333a10.553,10.553,0,0,1,3.553.53c.541.084,1.089.155,1.618.224a17.685,17.685,0,0,1,5.364,1.266.764.764,0,0,1-.2.578A1.65,1.65,0,0,1,51.792,57.891Zm54.7-1.113a3.792,3.792,0,0,1-.973-.173l-.709-.08a14.7,14.7,0,0,1-4.66-1.04c-.893-.148-1.451-.422-1.457-.715-.005-.259.421-.5,1.169-.653a33.406,33.406,0,0,1,4.9.755c.949.2,1.931.4,2.9.541C107.38,56.446,107.1,56.778,106.49,56.778Zm9.351-.618h0a2.344,2.344,0,0,1-1.5-.372c-.092-.06-.131-.125-.118-.195.115-.616,4.292-1.493,7.342-2.133,1.085-.228,2.022-.424,2.59-.57.564.451.8.819.721,1.125-.151.586-1.477.814-2.542,1-.406.07-.79.136-1.069.214a9.739,9.739,0,0,0-1.4.277A19.7,19.7,0,0,1,115.84,56.159Zm-53-2.857h0c-2,0-4.175-.167-4.913-.247l0-.021c-.707-.258-1.047-.5-1.008-.72.094-.532,2.409-.815,4.043-.815a4.43,4.43,0,0,1,1.2.106c.148.013.3.02.467.02.41,0,.828-.04,1.232-.078h.008c.4-.038.813-.077,1.207-.077a3.051,3.051,0,0,1,1.915.542.5.5,0,0,1,.1.53C66.834,53.039,65.365,53.3,62.839,53.3Zm21.724-.7h0c-.052-.011-.263-.033-.581-.067-2.031-.215-8.2-.868-8.851-2.087a.432.432,0,0,1,0-.428h.007c.11-.021.224-.042.263-.111a.141.141,0,0,0,0-.123.71.71,0,0,1,.3-.055c.152-.006.295-.012.371-.15a15.29,15.29,0,0,0,3.434.7c2.713.415,6.089.932,6.144,1.615.019.23-.348.469-1.091.709ZM29.6,52.523h0a36.746,36.746,0,0,1-6.377-1.245c-1.173-.3-2.386-.614-3.566-.844-.6-.322-.881-.589-.83-.793.095-.378,1.259-.407,1.614-.407a6.383,6.383,0,0,1,1.2.1,32.541,32.541,0,0,1,5.772,1.276c.51.146,1.037.3,1.557.438l-.008.023c.549.074,1.192.2,1.281.527.063.23-.147.532-.641.924ZM2.327,51.7h0a1.173,1.173,0,0,1-1.315-.913c1.575-1.029,3.98-1.543,6.307-2.04,1.072-.229,2.18-.466,3.164-.747.475.306.691.6.642.871-.137.758-2.3,1.231-3.739,1.544-.518.113-.964.21-1.2.295a8.915,8.915,0,0,0-1.283.377A8.918,8.918,0,0,1,2.327,51.7Zm88.635-1.288h0a1.242,1.242,0,0,1-1.244-.725c-.068-.317.165-.614.656-.835l.5-.066a55.235,55.235,0,0,1,7.028-.62c.726,0,1.421.032,2.065.1a3.157,3.157,0,0,0,.009.415c.053.759.053.759-5.207,1.318-.973.1-2.076.221-3.4.366A1.69,1.69,0,0,1,90.961,50.417Zm39.458-1.841h0a36.8,36.8,0,0,1-6.376-1.245c-1.174-.3-2.387-.614-3.569-.844-.6-.322-.881-.589-.83-.793.095-.378,1.259-.407,1.613-.407a6.368,6.368,0,0,1,1.2.1,32.49,32.49,0,0,1,5.767,1.276c.512.147,1.042.3,1.562.44l-.008.023c.549.075,1.192.2,1.28.527.063.23-.147.532-.641.924Zm-24.528-.5c-1.209,0-1.835-.132-1.911-.4-.06-.212.225-.513.846-.894a9.469,9.469,0,0,1,2.967-.387c.373,0,.747.01,1.108.019h.006c.358.009.728.019,1.088.019a8.906,8.906,0,0,0,2.559-.3c.109.025.211.043.309.061.274.05.491.089.582.23a.493.493,0,0,1,.019.394.473.473,0,0,1,.044.495c-.257.452-1.491.682-3.667.682-.324,0-.616,0-.85-.008l-.25,0-.1,0c-.2,0-.519.017-.889.036l-.271.014C107,48.05,106.423,48.076,105.891,48.076ZM39.26,47.9a18.234,18.234,0,0,1-5.413-.658.339.339,0,0,1-.08-.368c.34-.7,3.947-.7,5.305-.7h.752c.216,0,.348,0,.44,0,.328.033.669.049,1.013.049a13.5,13.5,0,0,0,3.053-.376.512.512,0,0,1,.341.56c-.1.61-1.208,1.395-1.651,1.458h-.356c-.562,0-1.106.009-1.707.02h-.011C40.39,47.885,39.819,47.9,39.26,47.9Zm18.648-.946h0a31.917,31.917,0,0,1-4.264-.732c-1.1-.221-2.469-.5-4.137-.82-.928-.184-1.741-.677-1.706-1.035.023-.232.4-.359,1.05-.359a9.8,9.8,0,0,1,1.432.13c1.087.26,2.265.44,3.4.613a26.939,26.939,0,0,1,4.847,1.037c0,.131,0,.252,0,.359.007.313.012.539-.115.669A.694.694,0,0,1,57.908,46.95Zm11.48-2.169h0c-2,0-4.178-.167-4.919-.248l0-.021c-.707-.258-1.047-.5-1.008-.72.094-.532,2.408-.815,4.042-.815a4.427,4.427,0,0,1,1.2.106c.147.013.3.02.467.02.41,0,.827-.04,1.231-.078h.009c.4-.038.813-.078,1.208-.078a3.051,3.051,0,0,1,1.915.542.5.5,0,0,1,.1.531C73.377,44.517,71.91,44.781,69.388,44.781ZM19.954,43.2c-.716,0-1.105-.088-1.157-.262l.275-.763c.582-.578,5.3-1.238,6.953-1.238.095,0,.18,0,.254.006l.038-.006a15.13,15.13,0,0,1,2.164-.265c.425,0,.655.074.7.226.082.251-.356.727-1.3,1.415h-.032c-.224,0-.985.11-1.948.249-.417.06-.889.128-1.378.2A40.389,40.389,0,0,1,19.954,43.2Zm-14.03-.244c-2,0-4.175-.167-4.915-.248l0-.021c-.707-.258-1.047-.5-1.008-.72.094-.532,2.407-.815,4.04-.815a4.432,4.432,0,0,1,1.2.106c.146.013.3.019.463.019.406,0,.823-.04,1.226-.078h.016c.4-.038.814-.078,1.209-.078a3.052,3.052,0,0,1,1.916.542.5.5,0,0,1,.1.531C9.916,42.689,8.448,42.953,5.923,42.953Zm82.927-.015c-.227,0-.481-.021-.8-.047-.182-.015-.389-.032-.619-.047-.613-.046-1.24-.065-1.845-.083a15.644,15.644,0,0,1-4.56-.586c-.257-.352-.334-.634-.231-.837.141-.278.623-.418,1.432-.418a18.876,18.876,0,0,1,2.583.257c.178.027.33.049.448.064a9.483,9.483,0,0,0,1.24.045c1.484.011,3.726.029,4.076.488a.208.208,0,0,1,.038.188C89.925,42.728,89.547,42.938,88.851,42.938Zm13.211-1.053a18.347,18.347,0,0,1-3.462-.592,22.858,22.858,0,0,0-2.627-.509c-1.356-.082-2.095-.577-2.1-1s.651-.745,1.758-.844c.077.041.594.152,1.309.3,2.132.456,6.1,1.3,6.191,1.957a.531.531,0,0,1-.124.423A1.268,1.268,0,0,1,102.062,41.885ZM41.474,39.3a18.216,18.216,0,0,1-5.41-.659.339.339,0,0,1-.08-.368c.341-.7,3.947-.7,5.305-.7h.752c.216,0,.348,0,.44,0,.329.033.67.05,1.014.05a13.509,13.509,0,0,0,3.053-.376.512.512,0,0,1,.341.561c-.1.61-1.209,1.394-1.652,1.458h-.355c-.56,0-1.124.01-1.7.02h-.011C42.615,39.287,42.039,39.3,41.474,39.3Zm79.3-.049h0c-.717,0-1.106-.088-1.158-.262l.275-.763c.582-.578,5.3-1.238,6.953-1.238.095,0,.181,0,.254.006l.038-.006a15.131,15.131,0,0,1,2.164-.265c.425,0,.655.074.7.226.082.251-.356.727-1.3,1.415h-.03c-.219,0-.967.108-1.913.244-.4.058-.905.131-1.412.2A40.385,40.385,0,0,1,120.774,39.248Zm-63.672-.2a1.172,1.172,0,0,1-1.315-.913c1.577-1.03,3.986-1.545,6.316-2.043,1.07-.229,2.175-.465,3.155-.744.475.306.691.6.642.871-.137.757-2.3,1.23-3.736,1.543-.519.113-.967.211-1.2.3a8.909,8.909,0,0,0-1.285.377A8.919,8.919,0,0,1,57.1,39.052Zm24.9-.792c-2.678,0-8.015-1.107-8.114-2.05-.031-.3.442-.549,1.406-.755.732.136,1.471.25,2.186.359a28.859,28.859,0,0,1,4.8,1.014c.864.459,1.271.816,1.209,1.063S82.92,38.26,82.006,38.26Zm26.6-.64h0c-.841,0-1.307-.1-1.385-.283-.036-.087.01-.2.138-.323a.591.591,0,0,1,.05-.561c.34-.477,1.506-.542,2.6-.542h.37l.321,0a4.5,4.5,0,0,0,.5-.018h.036c.125,0,.38-.021.7-.047l.518-.041c.5-.038,1.238-.088,1.94-.088,1.492,0,2.287.228,2.362.677-.129.857-1.622.877-2.939.9a10.976,10.976,0,0,0-1.441.077.361.361,0,0,0-.048,0c-.133,0-.466.031-.887.071l-.6.055C110.238,37.549,109.341,37.62,108.61,37.62Zm-98.33-1h0c-.84,0-1.305-.1-1.383-.283-.036-.087.01-.2.138-.323a.591.591,0,0,1,.05-.561c.34-.477,1.505-.541,2.6-.541h.37l.322,0a4.511,4.511,0,0,0,.5-.018h.036c.125,0,.38-.021.7-.047l.518-.041c.5-.038,1.238-.088,1.94-.088,1.491,0,2.286.228,2.361.676-.129.856-1.621.877-2.938.9a10.959,10.959,0,0,0-1.443.077.364.364,0,0,0-.051,0c-.133,0-.46.031-.873.069l-.614.056C11.907,36.546,11.01,36.618,10.28,36.618Zm80.747-3.267h0a1.241,1.241,0,0,1-1.243-.725c-.068-.317.165-.613.656-.834l.492-.064a55.223,55.223,0,0,1,7.04-.622c.736,0,1.412.031,2.064.1a3.16,3.16,0,0,0,.009.415c.053.759.053.759-5.206,1.318h-.01c-.971.1-2.071.22-3.395.365A1.689,1.689,0,0,1,91.027,33.351Zm-62.833-.723a2.344,2.344,0,0,1-1.5-.372c-.092-.06-.131-.125-.118-.194.115-.616,4.292-1.492,7.342-2.133,1.085-.228,2.022-.424,2.591-.57.564.451.8.819.721,1.125-.151.586-1.477.814-2.542,1-.408.07-.792.136-1.071.214a9.729,9.729,0,0,0-1.395.277A19.7,19.7,0,0,1,28.194,32.628Zm28.8-1.163h0a15.966,15.966,0,0,1-2.773-.39c-.5-.1-.963-.19-1.363-.247-.689-.158-1.388-.255-2.064-.349a10.91,10.91,0,0,1-4.046-1.1c-.273-.2-.39-.372-.346-.5.091-.275.841-.333,1.455-.333a10.264,10.264,0,0,1,3.557.525c.542.084,1.091.156,1.622.225a17.674,17.674,0,0,1,5.36,1.265.765.765,0,0,1-.2.578A1.649,1.649,0,0,1,56.993,31.465Zm66.336-.052a1.172,1.172,0,0,1-1.315-.913c1.576-1.03,3.983-1.544,6.311-2.042,1.071-.229,2.177-.465,3.159-.746.475.306.691.6.642.871-.137.757-2.3,1.23-3.736,1.543-.52.114-.967.211-1.2.3a8.9,8.9,0,0,0-1.285.377A8.917,8.917,0,0,1,123.329,31.412Zm-7.729-.458h0a3.79,3.79,0,0,1-.972-.173l-.713-.081a14.719,14.719,0,0,1-4.655-1.039c-.893-.149-1.452-.423-1.457-.715-.005-.259.421-.5,1.169-.653a33.455,33.455,0,0,1,4.9.756c.949.2,1.931.4,2.9.541C116.491,30.623,116.206,30.954,115.6,30.954Zm-98.328-1a3.788,3.788,0,0,1-.972-.173c-.243-.028-.481-.055-.715-.081a14.722,14.722,0,0,1-4.654-1.039c-.893-.149-1.451-.423-1.457-.715-.005-.259.421-.5,1.169-.653a33.453,33.453,0,0,1,4.893.754c.952.2,1.936.4,2.908.542C18.164,29.62,17.879,29.951,17.272,29.951Zm54.682-2.473h0c-2,0-4.177-.167-4.917-.248,0,0,0-.007,0-.01s0-.007,0-.011c-.707-.258-1.046-.5-1.008-.72.094-.532,2.408-.815,4.042-.815a4.423,4.423,0,0,1,1.2.106c.147.013.3.02.467.02.411,0,.828-.04,1.231-.078h.008c.4-.038.813-.077,1.208-.077a3.051,3.051,0,0,1,1.915.542.5.5,0,0,1,.1.53C75.946,27.215,74.478,27.478,71.955,27.478Zm21.72-.7h0c-.052-.011-.263-.033-.583-.067-2.029-.215-8.2-.868-8.85-2.087a.433.433,0,0,1,0-.428c.114-.021.231-.042.271-.112a.142.142,0,0,0,0-.123.708.708,0,0,1,.3-.056c.151-.006.294-.012.371-.15a15.28,15.28,0,0,0,3.433.7c2.713.416,6.089.933,6.145,1.616.019.23-.348.469-1.09.709ZM38.71,26.7h0a36.764,36.764,0,0,1-6.378-1.245c-1.173-.3-2.386-.614-3.566-.844-.6-.322-.881-.589-.83-.793.095-.378,1.258-.407,1.612-.407a6.368,6.368,0,0,1,1.2.1,32.537,32.537,0,0,1,5.771,1.276c.51.146,1.038.3,1.557.438l-.008.023c.549.074,1.191.2,1.28.527.063.23-.147.532-.641.924Zm61.363-2.107h0a1.242,1.242,0,0,1-1.244-.725c-.068-.317.165-.614.656-.834l.509-.066a55.152,55.152,0,0,1,7.021-.619c.737,0,1.413.031,2.066.1a3.151,3.151,0,0,0,.009.416c.053.759.053.759-5.217,1.319-.966.1-2.061.219-3.395.365A1.689,1.689,0,0,1,100.073,24.593Zm-98.328-1h0A1.242,1.242,0,0,1,.5,22.865c-.068-.317.165-.614.656-.834l.49-.064a55.177,55.177,0,0,1,7.036-.622c.738,0,1.415.031,2.069.1a3.156,3.156,0,0,0,.009.416c.053.759.053.759-5.216,1.319H5.532c-.968.1-2.064.219-3.382.364A1.69,1.69,0,0,1,1.745,23.59ZM115,22.252c-1.206,0-1.829-.132-1.906-.4-.06-.212.225-.513.845-.894a9.463,9.463,0,0,1,2.97-.388c.372,0,.745.01,1.106.019s.737.02,1.1.02a9.01,9.01,0,0,0,2.551-.3c.109.025.21.043.308.06.275.05.493.089.585.23a.493.493,0,0,1,.019.394.473.473,0,0,1,.044.495c-.257.452-1.489.681-3.659.681-.332,0-.627,0-.865-.009h-.012l-.231,0-.1,0c-.2,0-.519.017-.889.036l-.27.014C116.106,22.226,115.531,22.252,115,22.252Zm-66.628-.179a18.218,18.218,0,0,1-5.41-.659.339.339,0,0,1-.08-.368c.341-.7,3.949-.7,5.307-.7h.753c.214,0,.345,0,.436,0,.329.033.669.049,1.013.049a13.51,13.51,0,0,0,3.054-.376.512.512,0,0,1,.341.56c-.1.61-1.208,1.395-1.651,1.458h-.354c-.559,0-1.124.01-1.7.02C49.515,22.062,48.935,22.072,48.368,22.072Zm-31.7-.824c-1.209,0-1.833-.132-1.91-.4-.06-.212.225-.512.846-.893a9.464,9.464,0,0,1,2.97-.388c.372,0,.746.01,1.107.019H19.7c.356.009.725.019,1.084.019a8.88,8.88,0,0,0,2.552-.3c.109.025.21.043.308.06.275.049.493.089.584.23a.492.492,0,0,1,.019.393.473.473,0,0,1,.044.5c-.257.452-1.49.681-3.663.681-.325,0-.617,0-.852-.008h-.014l-.237,0-.1,0c-.2,0-.518.017-.887.036l-.271.014C17.779,21.223,17.205,21.248,16.672,21.248Zm50.347-.122h0a31.9,31.9,0,0,1-4.262-.732c-1.1-.221-2.47-.5-4.139-.82-.928-.184-1.742-.677-1.706-1.035.023-.232.4-.359,1.05-.359a9.8,9.8,0,0,1,1.432.13c1.086.259,2.262.439,3.4.612a26.969,26.969,0,0,1,4.852,1.038c0,.132,0,.253,0,.36.007.313.012.539-.115.669A.694.694,0,0,1,67.019,21.126ZM78.5,18.957c-2,0-4.175-.167-4.915-.248l0-.021c-.707-.258-1.046-.5-1.007-.72.094-.532,2.407-.815,4.04-.815a4.427,4.427,0,0,1,1.2.106c.146.013.3.019.463.019.407,0,.825-.04,1.229-.078h.014c.4-.038.813-.078,1.208-.078a3.052,3.052,0,0,1,1.915.542.5.5,0,0,1,.1.531C82.488,18.693,81.019,18.957,78.5,18.957Zm-49.43-1.584h0c-.716,0-1.105-.088-1.157-.262l.274-.763c.582-.578,5.3-1.238,6.954-1.238.095,0,.181,0,.254.006l.034-.006a15.123,15.123,0,0,1,2.169-.267c.424,0,.655.074.7.226.082.251-.356.727-1.3,1.415h-.03c-.219,0-.967.108-1.914.244-.428.062-.913.131-1.412.2A40.252,40.252,0,0,1,29.065,17.373ZM133.478,17.2c-.228,0-.483-.021-.806-.048-.182-.015-.389-.032-.617-.047-.612-.045-1.237-.064-1.842-.083a15.639,15.639,0,0,1-4.563-.586c-.257-.352-.335-.634-.231-.838.141-.278.623-.418,1.432-.418a18.861,18.861,0,0,1,2.588.258c.176.026.326.049.442.064a9.483,9.483,0,0,0,1.24.045c1.484.011,3.726.029,4.076.488a.208.208,0,0,1,.038.188C134.551,16.987,134.173,17.2,133.478,17.2Zm-35.515-.083c-.228,0-.483-.021-.805-.048-.183-.015-.389-.032-.618-.047-.611-.045-1.236-.064-1.841-.083a15.641,15.641,0,0,1-4.564-.586c-.257-.352-.335-.634-.231-.837.141-.277.623-.418,1.432-.418a18.88,18.88,0,0,1,2.583.257c.177.026.329.049.447.064a9.485,9.485,0,0,0,1.239.045c1.484.011,3.726.029,4.076.488a.208.208,0,0,1,.038.188C99.036,16.9,98.659,17.114,97.963,17.114ZM12.844,15.058h0a18.347,18.347,0,0,1-3.461-.592,22.867,22.867,0,0,0-2.627-.509c-1.356-.082-2.095-.577-2.1-1s.651-.745,1.758-.845c.077.041.593.152,1.308.3,2.133.456,6.1,1.305,6.193,1.957a.531.531,0,0,1-.124.423A1.269,1.269,0,0,1,12.844,15.058Zm37.747-1.585h0a18.237,18.237,0,0,1-5.414-.658.339.339,0,0,1-.08-.368c.34-.7,3.947-.7,5.305-.7h.751c.217,0,.348,0,.44,0,.328.033.669.05,1.013.05a13.548,13.548,0,0,0,3.054-.376.512.512,0,0,1,.341.56c-.1.61-1.208,1.395-1.651,1.458h-.356c-.562,0-1.128.01-1.707.02h-.017C51.716,13.463,51.147,13.473,50.591,13.473Zm15.623-.245h0a1.172,1.172,0,0,1-1.315-.913c1.577-1.03,3.986-1.545,6.316-2.043,1.07-.229,2.174-.465,3.155-.744.475.306.691.6.642.87-.137.757-2.3,1.23-3.738,1.543-.518.113-.965.211-1.2.3a8.915,8.915,0,0,0-1.284.377A8.919,8.919,0,0,1,66.214,13.228Zm49.727-.043h0c-2.678,0-8.015-1.107-8.115-2.05-.031-.3.442-.549,1.405-.755.731.136,1.471.25,2.186.359a28.875,28.875,0,0,1,4.8,1.014c.864.459,1.271.816,1.209,1.063S116.855,13.185,115.941,13.185ZM19.392,10.793c-.84,0-1.305-.1-1.383-.283-.036-.087.01-.2.137-.323a.591.591,0,0,1,.05-.561c.34-.477,1.5-.541,2.588-.541l.364,0h.021l.32,0a4.509,4.509,0,0,0,.5-.018h.032c.123,0,.382-.021.71-.047l.512-.04c.5-.038,1.236-.088,1.941-.088,1.493,0,2.288.228,2.363.677-.129.857-1.622.877-2.939.9a10.983,10.983,0,0,0-1.442.077.361.361,0,0,0-.048,0c-.133,0-.464.031-.883.07l-.6.056C21.021,10.722,20.122,10.793,19.392,10.793Zm105.57-.852a1.242,1.242,0,0,1-1.245-.725c-.068-.317.165-.613.657-.834l.49-.064A55.218,55.218,0,0,1,131.9,7.7c.736,0,1.412.031,2.064.1a3.156,3.156,0,0,0,.009.416c.053.76.053.76-5.217,1.32-.968.1-2.064.219-3.394.365A1.689,1.689,0,0,1,124.962,9.942ZM94.837,8.657h0a15.972,15.972,0,0,1-2.777-.391c-.5-.1-.961-.19-1.359-.246-.664-.152-1.36-.251-2.034-.346a10.531,10.531,0,0,1-4.226-1.207c-.165-.161-.226-.3-.181-.409.112-.275.846-.333,1.443-.333a10.553,10.553,0,0,1,3.553.53c.541.084,1.09.156,1.62.225a17.7,17.7,0,0,1,5.362,1.265.765.765,0,0,1-.2.578A1.65,1.65,0,0,1,94.837,8.657ZM59.654,7.543c-2,0-4.175-.167-4.915-.248l0-.021c-.707-.258-1.047-.5-1.008-.72.094-.532,2.407-.815,4.04-.815a4.432,4.432,0,0,1,1.2.106c.146.013.3.019.463.019.406,0,.823-.04,1.227-.078h.015c.4-.038.814-.077,1.208-.077A3.053,3.053,0,0,1,63.8,6.25a.5.5,0,0,1,.1.531C63.647,7.279,62.178,7.543,59.654,7.543ZM37.306,6.8h0a2.344,2.344,0,0,1-1.5-.372c-.092-.06-.131-.125-.118-.195.115-.617,4.3-1.494,7.349-2.134,1.082-.227,2.016-.423,2.583-.568.564.451.8.819.721,1.125-.151.586-1.477.814-2.542,1-.407.07-.791.136-1.07.214a9.75,9.75,0,0,0-1.393.277A19.7,19.7,0,0,1,37.306,6.8ZM1.811,6.524h0A1.242,1.242,0,0,1,.567,5.8c-.068-.317.165-.613.656-.834L1.713,4.9A55.2,55.2,0,0,1,8.749,4.28c.738,0,1.415.031,2.069.1a3.152,3.152,0,0,0,.009.415c.053.759.053.759-5.216,1.319l-.016,0c-.967.1-2.063.219-3.379.364A1.689,1.689,0,0,1,1.811,6.524Zm24.572-2.4a3.789,3.789,0,0,1-.972-.173l-.71-.08a14.729,14.729,0,0,1-4.659-1.039c-.893-.149-1.452-.423-1.457-.715-.005-.259.421-.5,1.169-.653a33.5,33.5,0,0,1,4.9.755c.95.2,1.931.4,2.9.541C27.275,3.8,26.99,4.128,26.384,4.128Zm79.5-.059h0c-2,0-4.178-.167-4.917-.248l0-.021c-.707-.258-1.047-.5-1.008-.72.094-.532,2.408-.815,4.042-.815a4.427,4.427,0,0,1,1.2.106c.147.013.3.02.467.02.41,0,.828-.04,1.232-.078h.008c.4-.038.813-.078,1.208-.078a3.051,3.051,0,0,1,1.915.542.5.5,0,0,1,.1.53C109.88,3.8,108.412,4.068,105.888,4.068Zm21.72-.7h0c-.052-.011-.263-.033-.583-.067-2.029-.215-8.2-.868-8.85-2.087a.432.432,0,0,1,0-.428h.007c.11-.021.224-.042.263-.111a.141.141,0,0,0,0-.123.706.706,0,0,1,.3-.055c.151-.006.294-.012.37-.15a15.3,15.3,0,0,0,3.431.7c2.714.416,6.092.933,6.147,1.616.019.23-.348.469-1.09.709ZM72.644,3.29h0a36.749,36.749,0,0,1-6.37-1.244C65.1,1.743,63.882,1.43,62.7,1.2c-.6-.322-.882-.589-.831-.793C61.964.029,63.128,0,63.482,0a6.363,6.363,0,0,1,1.2.1,32.514,32.514,0,0,1,5.771,1.276c.513.147,1.04.3,1.558.439L72,1.839c.549.074,1.191.2,1.28.527.063.23-.147.533-.641.925Z" transform="translate(-20.883 -34.389)"/>
      </g>
    </g>
  </g>
</svg>
