<svg xmlns="http://www.w3.org/2000/svg" xmlns:xlink="http://www.w3.org/1999/xlink" width="216" height="455.319" viewBox="0 0 216 455.319">
  <defs>
    <clipPath id="clip-path">
      <path id="Clip_6" data-name="Clip 6" d="M0,0H96.919V43.746H0Z" transform="translate(0.468 0.613)" fill="none"/>
    </clipPath>
    <clipPath id="clip-path-2">
      <path id="Clip_9" data-name="Clip 9" d="M0,0H65.509V45.451H0Z" transform="translate(0.021 0.481)" fill="none"/>
    </clipPath>
    <clipPath id="clip-path-3">
      <path id="Clip_20" data-name="Clip 20" d="M0,0H46.721V46.043H0Z" transform="translate(0 0.4)" fill="none"/>
    </clipPath>
  </defs>
  <g id="illo" transform="translate(0 -0.613)">
    <path id="Fill_1" data-name="Fill 1" d="M9.281,115.246a38.078,38.078,0,0,1-8.13-17.933C-.56,87.427-.09,77.474.8,67.533,1.538,59.364,2.68,51.22,2.126,42.976c-.1-1.552-.392-3.33,1.529-4.205,2.647,1.25,7.725.326,9.919-1.806,1.172.1,1.471.856,1.606,1.92.867,6.8,1.334,13.653,2.684,20.387q1.522,7.6,3.08,15.2c.664-.07.446-.676.545-1.079,1.811-7.38,1.551-14.952,2.042-22.455.127-1.943.279-3.886.5-5.82,1.293-11.3,11.183-19.014,20.818-20.923,5.555-1.1,11.164-1.943,16.632-3.474a21.841,21.841,0,0,0,8.464-4.809,3.643,3.643,0,0,0,1.131-4.366c-.511-1.238-.926-2.517-1.38-3.779a5.144,5.144,0,0,1,1.037-5.78c2.543,2.031,5.541,2.394,8.65,2.529A8.079,8.079,0,0,0,87.209.333c1.5.667,1.519,2.02,1.628,3.394.094,1.189-.418,2.37.131,3.571,1.219,2.667,4.043,3.854,7.288,2.667a54.94,54.94,0,0,0,11.59-5.442A28.821,28.821,0,0,1,120.612.147,15.05,15.05,0,0,1,129.6,1.535c7.6,4.037,15.515,7.618,22.168,13.2C159.4,21.145,167.323,27.275,174.2,34.52c4.672,4.925,9.274,10.112,9.749,17.583.364,5.718-1.154,11.035-2.688,16.423a54.653,54.653,0,0,1-11.342,20.461c-3.243,3.819-7.044,7.156-10.595,10.71a24.975,24.975,0,0,0-4.457,5.417,1.982,1.982,0,0,1-2.318,1.129c1.254-3.027.289-5.451-2.569-6.943a32.475,32.475,0,0,0-4.261-1.619c2.125-3.645,3.919-7.548,6.461-10.867a48.671,48.671,0,0,0,6.966-12.641c1.237-3.3,1.229-6.731-1.334-9.478a38.567,38.567,0,0,0-8.958-7.344c-2.926-1.681-6.066-3.292-8.349-5.844-2.7-3.02-6.447-4.04-9.916-6.3.152.836.2,1.3.323,1.739a109.658,109.658,0,0,1,3.852,26.267,70.8,70.8,0,0,0,2.847,16.872c.777,2.772,1.785,5.514,1.791,8.461-1.559.338-3.1.787-4.681,1a32.015,32.015,0,0,0-23.16,14.481,8.08,8.08,0,0,0-2.748.848l-1.977.735L92.777,117.7l-1.925.051c-3.392-.325-6.963.024-9.74-2.624-1.667-2.425-3.4-4.8-4.987-7.282-6.615-10.353-11.3-21.789-17.76-32.235-1.306-2.113-2.4-4.359-3.737-6.807-1.479,8.521-2.461,16.731-4.611,24.718a55.4,55.4,0,0,1-5.61,13.53c-1.705,2.937-4.111,5.224-6.2,7.807-2.371,2.015-5.218,3.227-7.877,4.756-2.774,1.426-5.751,1.493-8.761,1.329a37.159,37.159,0,0,1-7.247-1.348,36.832,36.832,0,0,1-5.043-4.343" transform="translate(32 57)" fill="#e33026"/>
    <path id="Fill_3" data-name="Fill 3" d="M8.817,0c2.455,5.76,5.083,11.451,7.321,17.3a75.532,75.532,0,0,1,4.3,21.1c.836,10.314,1.232,20.658,2.212,30.962.816,8.578,1.332,17.215,2.873,25.672a163.4,163.4,0,0,1,2.24,37.51c-.519,10.463-1.438,20.915-2,31.385-.443,8.218-.5,16.448-.252,24.659.351,11.63-1.054,23.047-3.015,34.45-.683,3.973-.931,8.023-1.414,12.033-.219,1.82-1.168,2.927-3.091,2.932l-1.044-.145a95.162,95.162,0,0,0,.936-13.574c.2-9.354.42-18.7.987-28.04.653-10.744.344-21.513.375-32.272.036-12.362.035-24.725-.131-37.089-.135-10.048-1.791-19.954-2.135-29.97a71.736,71.736,0,0,0-.833-9.574c-2.168-12.7-3.819-25.489-5.6-38.249A281.9,281.9,0,0,0,1.384,5.445,8.829,8.829,0,0,0,0,1.953,2.418,2.418,0,0,1,2.556.5,26.808,26.808,0,0,0,8.817,0" transform="translate(166 169)" fill="#c96"/>
    <g id="Group_7" data-name="Group 7" transform="translate(61)">
      <path id="Clip_6-2" data-name="Clip 6" d="M0,0H96.919V43.746H0Z" transform="translate(0.468 0.613)" fill="none"/>
      <g id="Group_7-2" data-name="Group 7" clip-path="url(#clip-path)">
        <path id="Fill_5" data-name="Fill 5" d="M38.832,43.047c-5.537-.206-11.019-.948-16.515-1.622-4.443-.544-8.934-.06-13.4-.054-1.856,0-3.71.292-5.561-.3C1.566,40.5.143,39.685.01,37.533-.127,35.34,1.2,34.058,2.89,33.265a18.451,18.451,0,0,1,6.8-1.529c5.414-.33,10.811.287,16.22.25,5.561-.038,5.636-.009,6.092-5.715A54.994,54.994,0,0,1,36.423,8.406c.192-.438.374-.881.581-1.31,2.7-5.6,6.1-7.243,11.915-5.432a5.843,5.843,0,0,0,5.369-.472c3.166-1.918,6.416-1.478,9.289,1a6.624,6.624,0,0,1,2.477,5.372A165.408,165.408,0,0,1,64.9,26.463c-.755,5.626-.5,6.117,5.049,6.552,5.451.428,10.932.45,16.4.675,1.933.08,3.864.21,5.794.358A5.575,5.575,0,0,1,96,35.993a3.665,3.665,0,0,1-.565,5.376,10.056,10.056,0,0,1-5.821,1.893c-11.613.318-23.225.807-34.842.185-5.315-.044-10.635.117-15.939-.4" transform="translate(0.468 0.613)" fill="#ffc300"/>
      </g>
    </g>
    <g id="Group_10" data-name="Group 10" transform="translate(122 410)">
      <path id="Clip_9-2" data-name="Clip 9" d="M0,0H65.509V45.451H0Z" transform="translate(0.021 0.481)" fill="none"/>
      <g id="Group_10-2" data-name="Group 10" clip-path="url(#clip-path-2)">
        <path id="Fill_8" data-name="Fill 8" d="M63.473,2.115c1.759.186,2.058,1.362,1.966,2.845A226.3,226.3,0,0,0,65.411,31.1a39.128,39.128,0,0,1-.8,11.619A2.619,2.619,0,0,1,62,44.963a94.912,94.912,0,0,1-10.084.449c-2.106-.105-2.619-.625-2.645-2.813-.02-1.7,0-3.391,0-5.289-2.327,1.769-3.831,4.082-6.31,5.3a13.1,13.1,0,0,1-6.24,1.659c-3.173-.085-6.348-.053-9.523-.063-3.3-.01-6.592.16-9.888.306-4.274.189-8.574-.146-12.861-.315C2.279,44.113.238,42.505.05,40.877c-.291-2.521.67-3.954,3.38-4.756A121,121,0,0,1,20.4,32.333C27.9,31.247,33.015,27.109,36.9,20.681c3.481-5.761,5.448-12,7.389-18.313A3,3,0,0,1,46.631,0c.5.32,1.126.14,1.649.539a15.874,15.874,0,0,0,6.972,2.978c2.857.5,5.706.383,8.221-1.4" transform="translate(0.021 0.481)" fill="#fbfcfd"/>
      </g>
    </g>
    <path id="Fill_11" data-name="Fill 11" d="M0,2.094,14.55,0c.031,4.848.3,9.708.043,14.541-.46,8.6,1.261,16.89,3.4,25.121a276.917,276.917,0,0,1,6.156,31.729c.887,6.421,1.848,12.776,4.061,18.928a152.464,152.464,0,0,1,4.768,17.763c2.524,11.052,3.469,22.358,5.634,33.467,1.636,8.4,3.731,16.7,4.917,25.187,1.083,7.756.97,15.607,2.066,23.333,2.159,15.236,1.158,30.523,1.287,45.794L45.55,236c-1.749-.524-2.456-1.541-2.839-3.438-1.207-5.972-.192-11.964-.626-17.92-1.064-14.617-1.6-29.278-4.717-43.705-1.2-5.576-1.539-11.326-2.41-16.977a67.7,67.7,0,0,0-1.74-7.681,59.7,59.7,0,0,1-1.9-17.4,48.619,48.619,0,0,0-1.628-14.806c-1.605-5.5-3.484-10.923-5-16.441-3.073-11.162-6.551-22.241-7.764-33.811-.134-1.271-.356-2.535-.44-3.809-.08-1.2-.629-1.713-1.858-1.478A60.282,60.282,0,0,1,10.73,51.9,73.57,73.57,0,0,1,5.083,29.238,160.979,160.979,0,0,0,0,2.094" transform="translate(123 171)" fill="#c96"/>
    <path id="Fill_13" data-name="Fill 13" d="M37.769.632c3.017-1.219,3.844-.826,6.168,2.513a170.27,170.27,0,0,1,13.92,24.373c.6,1.262,1.239,2.5,1.841,3.765a1.983,1.983,0,0,1-1.031,2.967c-2.581,1.207-5.191,2.353-7.79,3.522a1.932,1.932,0,0,1-2.559-.785c-1.041-1.265-1.33-2.987-2.6-4.349-.447,1.433-.767,2.633-1.194,3.793-1,2.715-3.51,4.122-5.469,5.917C33.43,47.5,26.72,51.015,19.922,54.327c-3.217,1.568-6.5,3-9.734,4.527a9.847,9.847,0,0,1-7.311.746,3.641,3.641,0,0,1-1.872-6.083,11.345,11.345,0,0,1,3.418-2.36c6.644-3.786,13.176-7.739,17.915-13.969a21.139,21.139,0,0,0,4.689-11.256c.261-3.542-1.194-6.764-2.43-9.989a9.417,9.417,0,0,0-1.07-2.138c-1.527-2.123-1.305-4.047.492-5.864.256.028.547.149.765.07a46.31,46.31,0,0,0,8.791-3.979c1.495-.935,3.34-1.6,4.193-3.4" transform="translate(45 302)" fill="#fbfcfd"/>
    <path id="Fill_15" data-name="Fill 15" d="M105.682,0a165.091,165.091,0,0,1,4.978,27.238,75.3,75.3,0,0,0,5.531,22.736A60.852,60.852,0,0,0,120,56.638c-.8.455-1.783-.078-2.569.465.316-.756-.148-1.32-.528-1.854a26.186,26.186,0,0,1-3.788-7.582c-.43-1.416-1.268-1.709-2.594-1.511-6.017.9-12.026.344-17.984-.453-5.409-.723-10.9-1.033-16.2-2.4-5.151-1.329-10.426-2.01-15.5-3.844a63.058,63.058,0,0,0-24.308-3.61c-5.672.241-7.841,3.267-5.9,8.541,2.113,5.754,4.97,11.22,6.408,17.241a54.75,54.75,0,0,0,3.238,9.576c2.4,5.38,5.717,10.265,8.1,15.643,1.7,3.843,2.613,7.949,4.016,11.891,2.488,6.99,5.407,13.848,6.535,21.258a32.675,32.675,0,0,0,1.872,6.615c-.523.462-.946,1.07-1.715,1.173a50.641,50.641,0,0,1-2.511-9.375,57.825,57.825,0,0,0-2.431-8.981c-1.721-4.906-3.676-9.729-5.145-14.727A53.273,53.273,0,0,0,44.35,83.286c-2.866-5.047-6.038-10.031-7.6-15.648a244.413,244.413,0,0,0-8.228-23.261c-1.944-4.974.135-8.882,5.316-10.187a13.079,13.079,0,0,1,3.219-.319c2.775.01,5.548.1,8.323.173,5.619.147,10.97,1.824,16.186,3.551,5.3,1.755,10.762,2.525,16.109,3.9,5,1.287,10.152,1.439,15.221,2.2a59.122,59.122,0,0,0,17.776.444c.928-.141,1.353-.323,1.01-1.353a77.118,77.118,0,0,1-2.246-10.075c-.315-1.648-.435-3.263-2.852-2.15a4.021,4.021,0,0,1-2.012.026C93.708,29.258,82.8,28.408,71.976,26.66c-14.309-2.31-28.822-2.537-43.3-2.59a18.48,18.48,0,0,0-7.564,1.193c-6.16,2.691-7.233,10.151-6.12,14.706,1.495,6.116,5.267,11.21,8.174,16.672,3.621,6.8,8.582,12.808,12.32,19.537a137.482,137.482,0,0,1,12.862,32.086c1.928,7.381,5.027,14.416,6.387,21.957a2.352,2.352,0,0,1-2.108.524,22.677,22.677,0,0,0-.477-2.783c-2.765-9.25-5.385-18.548-8.4-27.716-3.405-10.358-7.689-20.352-13.962-29.377A217.4,217.4,0,0,1,14.632,45.022a17.814,17.814,0,0,1-1.109-13.769,11.606,11.606,0,0,1,8.95-8.489,35.13,35.13,0,0,1,8.273-.77c9.809.167,19.611.507,29.388,1.334a116.064,116.064,0,0,1,15.107,1.8,66.752,66.752,0,0,0,10.2,1.593c3.993.237,7.962.551,11.915,1.146a46.823,46.823,0,0,0,9.709.627c.875-.052,1.718-.151,1.509-1.493-.8-5.129-.626-10.4-2.23-15.568a4.059,4.059,0,0,1-2.828.747,59.917,59.917,0,0,1-11.323-.791A144.288,144.288,0,0,1,77.919,8.4a182.389,182.389,0,0,0-23.59-3.915,186,186,0,0,0-22.907-.8A45.177,45.177,0,0,0,13.311,7.672C8.478,9.83,4.27,12.794,3.137,18.634A51.963,51.963,0,0,0,7.662,52.315C12,61.192,18.114,68.874,23.469,77.058a151.789,151.789,0,0,1,14.515,28.258c3.494,9,6.662,18.133,10.158,27.14l-.719.532L45.957,133a4.309,4.309,0,0,0-.58-2.119c-2.56-6.9-5.209-13.776-7.7-20.705a159.388,159.388,0,0,0-14.261-29.5C19,73.474,13.629,66.9,9.363,59.6,2.819,48.413-1.437,36.653.45,23.35c.76-5.357,1.414-10.633,6.358-14.086a29.37,29.37,0,0,1,8.531-4.608c3.57-1.027,7.2-1.846,10.8-2.755a37.963,37.963,0,0,0,7.348,1.353c3.052.165,6.07.1,8.882-1.334,7.759-.483,15.326,1.26,22.98,2A92.283,92.283,0,0,1,79.438,6.722a99.228,99.228,0,0,0,26.578,3.466c-.775-3.437-1.53-6.787-2.285-10.136L105.682,0" transform="translate(20 173)" fill="#fbfcfd"/>
    <path id="Fill_17" data-name="Fill 17" d="M30.3,90a32.611,32.611,0,0,1-1.838-6.555c-1.107-7.344-3.973-14.138-6.415-21.064C20.666,58.475,19.771,54.407,18.1,50.6c-2.337-5.329-5.6-10.17-7.949-15.5A54.621,54.621,0,0,1,6.972,25.61C5.561,19.644,2.756,14.227.681,8.526-1.221,3.3.909.3,6.477.062A61.381,61.381,0,0,1,30.34,3.64C35.321,5.458,40.5,6.133,45.556,7.449c5.205,1.355,10.593,1.662,15.9,2.378,5.849.79,11.748,1.339,17.654.449,1.3-.2,2.125.094,2.547,1.5a26.045,26.045,0,0,0,3.72,7.513c.372.529.828,1.088.518,1.837-5.048.039-10.1.026-15.143.13-6.649.138-13.236-.823-19.863-1.046-4.969-.167-9.926-.55-14.886-.888-9.134-.623-18.036-2-26.344-6.123-.4-.2-.854-.6-1.281-.286-.515.377-.081.84.106,1.244,3.74,8.088,5.887,16.748,8.869,25.107,5.272,14.778,8.986,30.1,15.357,44.493,1.348,3.045,1.046,4.066-1.413,5.728L30.3,90" transform="translate(50 208)" fill="#c96"/>
    <g id="Group_21" data-name="Group 21" transform="translate(0 50)">
      <path id="Clip_20-2" data-name="Clip 20" d="M0,0H46.721V46.043H0Z" transform="translate(0 0.4)" fill="none"/>
      <g id="Group_21-2" data-name="Group 21" clip-path="url(#clip-path-3)">
        <path id="Fill_19" data-name="Fill 19" d="M46.721,43.693c-2.287,2.113-7.583,3.03-10.344,1.79A29.443,29.443,0,0,0,20.3,27.756a29.8,29.8,0,0,0-9.89-2.211A15.86,15.86,0,0,1,3.94,23.52c-1.118-.647-2.107-1.463-1.791-2.875.343-1.533,1.783-1.452,3-1.616A7.156,7.156,0,0,0,6.919,18.7c-1.84-.7-2.986-2.157-4.413-3.291-.267-.212-.565-.39-.824-.61C.606,13.886-.539,12.781.277,11.388c.828-1.415,2.452-.9,3.762-.553a21.741,21.741,0,0,1,6.679,3.193c1.127.769,2.327,1.442,3.493,2.157l.5.254.765.482c.164.039.431.155.473.1.155-.191.007-.319-.2-.378l-.688-.572-.484-.309A42.832,42.832,0,0,1,8.422,8.014,10.724,10.724,0,0,1,6.83,1.907C6.856.221,8.333-.5,9.878.368a6.188,6.188,0,0,1,2.266,2.794c2.255,4.232,4.722,8.309,8.87,11.159.67.46,1.321.944,2.537,1.816-1.687-5.16-2.927-9.815-2.2-14.688.721.179.771.881,1.126,1.341,1.117,1.449,2.209,2.919,4.285,3.174.795,4.174,3.25,7.576,5.438,11.411a4.856,4.856,0,0,0,.573-4.526,49.527,49.527,0,0,0-2.881-7.025c-.139-3.157.36-3.538,3.621-2.76C36.78,5.985,37.726,10,39.152,13.823c3.622,9.707,5.32,19.85,7.569,29.87" transform="translate(0 0.4)" fill="#191919"/>
      </g>
    </g>
    <path id="Fill_22" data-name="Fill 22" d="M32.185,4.28c-3.6.893-7.226,1.7-10.793,2.705a29.515,29.515,0,0,0-8.522,4.524C7.93,14.9,7.276,20.078,6.517,25.337,4.632,38.4,8.884,49.943,15.422,60.929c4.262,7.161,9.625,13.617,14.04,20.684a155.287,155.287,0,0,1,14.247,28.965c2.489,6.8,5.136,13.549,7.694,20.327a4.175,4.175,0,0,1,.58,2.08c-1.594.153-2.222-.877-2.816-2.087-3.866-7.881-7.678-15.788-11.679-23.6C32.392,97.344,26.6,87.777,20.556,78.356,17.417,73.467,15.189,68.1,12.83,62.829c-1.47-3.283-3.067-6.487-4.771-9.648C3.557,44.832.43,36.108.024,26.553a43.246,43.246,0,0,1,1.443-11.6c.6-2.61,2.459-4.585,4.421-6.31C11.245,3.935,17.237.55,24.726.521A11.077,11.077,0,0,0,27.076,0a37.037,37.037,0,0,0,5.109,4.28" transform="translate(13 173)" fill="#c96"/>
    <path id="Fill_24" data-name="Fill 24" d="M33.506,17.057a25.162,25.162,0,0,1-6.205.521A2.379,2.379,0,0,0,24.767,19.1l-1.1,2.806c-1.152,1.5-1.45,3.4-2.048,5.161a18.067,18.067,0,0,1-2.368,5.262,1.481,1.481,0,0,1-1.72.671c-.807-.261-.85-.99-.8-1.7.08-1.044.3-2.082.323-3.126.041-1.856,1.093-3.535.74-5.5a30.158,30.158,0,0,0-4.01,8l-1.744,3.243c-.763.623-1.5,1.464-2.574.9-1.122-.591-.8-1.779-.793-2.772.018-3.28,1.258-6.186,2.5-9.087a15.166,15.166,0,0,0,2.309-5.076,7.853,7.853,0,0,0-2.614,3.21c-.245.323-.487.65-.734.971-1.829,2.368-3.143,5.159-5.21,7.326a2.094,2.094,0,0,1-2.841.538c-1.022-.688-.494-1.744-.244-2.659.8-2.941,2.591-5.308,4.018-7.885.29-.524.835-.984.714-1.467-1.175,1.13-2.38,2.3-3.6,3.455a1.775,1.775,0,0,1-2.5.275c-.771-.623-.448-1.524-.1-2.3.333-.754.72-1.479,1.083-2.216C6.927,8.53,14.411,3.434,24.066,2.063c1.54-.219,3.049-.686,4.571-1.037,2.108.114,4-1.481,6.168-.9a30.445,30.445,0,0,1,4.16,1.684c2.79,1.552,3.733,4.073,2.508,7.222-2,3.42-4.257,6.558-7.968,8.022" transform="translate(143 154)" fill="#191919"/>
    <path id="Fill_26" data-name="Fill 26" d="M63.823,18c-.17,0-.344,0-.519-.011-3.013-.123-6.181-.413-8.88-2.443a9.037,9.037,0,0,1-2.47-5.229C51.771,9.134,51.241,8.675,50,8.625,44.462,8.4,38.844,8,33.412,7.607c-3.633-.261-7.39-.53-11.09-.744a110.89,110.89,0,0,1-19.7-2.489l-.041-.01A7.357,7.357,0,0,1,1.073,3.88C.459,3.577-.146,3.163.031,2.387A1.657,1.657,0,0,1,1.409,1.105a14.2,14.2,0,0,1,3.185-.4A10.088,10.088,0,0,1,6.1.819c5.682.86,11.5,1.151,17.136,1.433,2.1.105,4.269.214,6.4.35,3.557.228,7.175.318,10.674.406,3.566.089,7.254.181,10.875.419.089.006.175.009.256.009a1.583,1.583,0,0,0,1.626-1.067A15.029,15.029,0,0,1,54.017.716c.148-.234.3-.475.444-.716C58.269.342,62.138.37,66.1.37H68.12c.745,0,1.725,0,2.7.009,3.5,4.6,2.1,9.415.518,13.566A8.318,8.318,0,0,1,63.823,18ZM63.637,2.494c-2.174,0-4.108.926-6.087,2.915a1.807,1.807,0,0,0-.588,1.737,2.17,2.17,0,0,0,1.622,1.428,10.583,10.583,0,0,0,1.627.294c.21.026.408.051.586.08a8.175,8.175,0,0,0,5.558-2.122A2.618,2.618,0,0,0,67.07,3.95C66.7,2.944,65.746,2.722,64.8,2.581A7.923,7.923,0,0,0,63.637,2.494Z" transform="translate(48 42)" fill="#191919"/>
    <path id="Fill_28" data-name="Fill 28" d="M34,0c.9,0,1.791,0,2.687,0,2.551-.011,4.238.907,4.994,3A4.388,4.388,0,0,1,40.2,8.228a74.783,74.783,0,0,1-8.925,6.086c-3.348,1.971-6.656,4.034-10.52,5a6.467,6.467,0,0,0-2.736,1.752C12.617,26.133,6.131,30.217,2.5,36.913c-.351.647-.83,1.369-1.759.976-.872-.37-.818-1.236-.62-1.927C1.981,29.441,3.536,22.893,9,17.88c3.345-3.07,5.994-6.85,8.673-10.581A17.94,17.94,0,0,1,30.9.053C31.922-.044,32.965.04,34,.04Z" transform="translate(21 3)" fill="#fbfcfd"/>
    <path id="Fill_30" data-name="Fill 30" d="M5.432,19.914c-2.022-.257-3.085-1.731-4.173-3.184-.346-.462-.394-1.167-1.1-1.346C.1,13.646,0,11.909,0,10.173A1.929,1.929,0,0,1,2.317,8.039a26.647,26.647,0,0,0,5.671-.131C9.84,7.624,9.54,9.326,9.93,10.542a14.005,14.005,0,0,0,3.338-3.707C17.847.745,23.961-.981,31.252.5,32.044.66,33.037.775,33,1.816c-.042,1.142-1.066.977-1.866,1a3.008,3.008,0,0,1-.407,0c-8.308-.906-13.17,3.574-16.6,10.323a18.109,18.109,0,0,1-2.123,3.869c-3.176-.781-3.663-.4-3.527,2.768a10.284,10.284,0,0,1-3.048.14" transform="translate(20 35)" fill="#c96"/>
    <path id="Fill_32" data-name="Fill 32" d="M.073.143,1.431,0a3.176,3.176,0,0,0,2.18.35L8.779,1a4.268,4.268,0,0,0,2.328.255,8.413,8.413,0,0,0,3.5.87,2.788,2.788,0,0,0,2.254.191l1.122.153Q17.993,4.35,18,6.236c-2.687,1.9-5.732,2.02-8.786,1.493A17,17,0,0,1,1.762,4.558C1.2,4.133.534,4.324,0,3.984Q.036,2.064.073.143" transform="translate(168 407)" fill="#191919"/>
    <path id="Fill_34" data-name="Fill 34" d="M14.727.481,15.853,0,18,3.066c-.959,1.682-3.032,2.307-4.712,3.183A57.6,57.6,0,0,1,3.411,9.975a2.557,2.557,0,0,1-.858-.065L0,6.362q.395-.247.792-.492A24.6,24.6,0,0,0,5.731,4.29a2.968,2.968,0,0,0,2.322-.484,18.459,18.459,0,0,0,4.787-2.244A3.814,3.814,0,0,0,14.727.481" transform="translate(67 297)" fill="#191919"/>
    <path id="Fill_36" data-name="Fill 36" d="M36.86,238l-4.967-.618c0-7.2-.01-14.395.017-21.592.025-6.59.124-13.181-.857-19.73a120.774,120.774,0,0,1-1.221-13.655,157.686,157.686,0,0,0-3.6-27.568c-1.965-9.146-3.783-18.307-5.011-27.575a216.614,216.614,0,0,0-7.106-33.714c-1.541-5.147-3.344-10.208-3.985-15.61A299.312,299.312,0,0,0,3.063,39.485c-1.956-7.7-3.4-15.473-2.994-23.513C.324,10.943.07,5.889.044.846A8.326,8.326,0,0,1,2.839,0c-.378.708-.781,1.4-1.128,2.128-.359.747-.694,1.612.109,2.21a1.958,1.958,0,0,0,2.6-.264C5.691,2.964,6.945,1.841,8.169.756c.126.464-.443.905-.744,1.408C5.938,4.638,4.077,6.911,3.239,9.735c-.26.878-.81,1.892.254,2.553a2.3,2.3,0,0,0,2.96-.517C8.606,9.689,9.976,7.01,11.88,4.736c.258-.308.51-.622.765-.932q.158.9.318,1.791c-1.288,2.785-2.581,5.575-2.6,8.725-.006.954-.344,2.094.825,2.662,1.121.544,1.888-.263,2.681-.86.591,3.237,1.312,6.455,1.75,9.71,1.72,12.782,2.838,25.684,6.066,38.2,5.566,21.572,8.2,43.56,10.3,65.64.657,6.888,1,13.8,1.526,20.7.371,4.89,1.582,9.69,1.7,14.608.352,14.381,2.213,28.666,2.7,43.045A290.268,290.268,0,0,1,36.86,238" transform="translate(141 169)" fill="#c96"/>
    <path id="Fill_38" data-name="Fill 38" d="M2.107,0c.027,5.03.289,10.072.026,15.088C1.712,23.107,3.2,30.857,5.222,38.541A289.75,289.75,0,0,1,12.515,76.9c.661,5.388,2.521,10.436,4.111,15.57A209.851,209.851,0,0,1,23.957,126.1c1.268,9.244,3.142,18.383,5.17,27.505a152.292,152.292,0,0,1,3.714,27.5A116.591,116.591,0,0,0,34.1,194.72c1.013,6.532.91,13.106.884,19.68-.027,7.178-.013,14.358-.016,21.537a3.263,3.263,0,0,1-2.162-.333c-.13-15.206.884-30.429-1.3-45.6-1.111-7.694-1-15.512-2.094-23.235-1.2-8.454-3.326-16.721-4.985-25.081-2.2-11.064-3.153-22.321-5.712-33.326a149.678,149.678,0,0,0-4.834-17.688c-2.243-6.125-3.218-12.454-4.117-18.848a271.4,271.4,0,0,0-6.241-31.6C1.355,32.031-.39,23.779.076,15.212.338,10.4.064,5.56.032.732Z" transform="translate(136 169)" fill="#fbfcfd"/>
    <path id="Fill_40" data-name="Fill 40" d="M7.656,0c7.086,1.554,14.42,1.321,21.461,3.216a18.026,18.026,0,0,0,5.211.411,16.443,16.443,0,0,1,6.079,1.057c2.476.893,5.072.947,7.639,1.219.81.086,1-.273.979-1.038a15.907,15.907,0,0,1,.319-4.6c2.7,2.647,6.168,2.3,9.465,2.623.724,3.336,1.448,6.672,2.19,10.1A91.742,91.742,0,0,1,35.527,9.536a85.589,85.589,0,0,0-13.5-2.794C14.689,6.009,7.437,4.272,0,4.754,2.585,3.225,5.351,2.014,7.656,0" transform="translate(62 171)" fill="#c96"/>
    <path id="Fill_42" data-name="Fill 42" d="M19.473,237.862a2.919,2.919,0,0,1-2.262-.183c.934-3.5.846-7.072.965-10.637.4-11.984.7-23.971,1.407-35.946.548-9.292.291-18.6.259-27.895-.067-19.393.8-38.813-1.766-58.146-.825-6.212-.391-12.545-1.537-18.728-2.349-12.675-4.068-25.439-5.985-38.17A289.286,289.286,0,0,0,1.969,8,19.614,19.614,0,0,0,0,2.7L1.2,0c.935,1,1.1,2.318,1.493,3.52a268.392,268.392,0,0,1,9.883,44c1.918,12.866,3.7,25.756,6.035,38.567a67.772,67.772,0,0,1,.9,9.653c.371,10.1,2.157,20.087,2.3,30.219.178,12.468.18,24.933.141,37.4-.033,10.848.3,21.706-.4,32.54-.612,9.419-.846,18.842-1.064,28.273a89.765,89.765,0,0,1-1.009,13.688" transform="translate(166 171)" fill="#fbfcfd"/>
    <path id="Fill_44" data-name="Fill 44" d="M49.806,126.3a19.477,19.477,0,0,1-4.421,1.7c-3.446-8.95-6.57-18.027-10.015-26.971A151.343,151.343,0,0,0,21.059,72.949C15.779,64.815,9.75,57.182,5.472,48.36a52,52,0,0,1-4.461-33.47C2.128,9.084,6.277,6.14,11.042,3.995A44.244,44.244,0,0,1,28.9.026a181.827,181.827,0,0,1,22.586.8,178.409,178.409,0,0,1,23.26,3.89A141.144,141.144,0,0,0,88.816,7.686a58.626,58.626,0,0,0,11.165.786,3.976,3.976,0,0,0,2.788-.742c1.581,5.141,1.412,10.375,2.2,15.471.206,1.334-.625,1.433-1.487,1.483a45.855,45.855,0,0,1-9.573-.623c-3.9-.591-7.811-.9-11.748-1.138A65.272,65.272,0,0,1,72.1,21.339,113.564,113.564,0,0,0,57.21,19.554c-9.64-.822-19.305-1.16-28.976-1.326a34.435,34.435,0,0,0-8.156.765,11.483,11.483,0,0,0-8.826,8.437,17.828,17.828,0,0,0,1.093,13.682A216.515,216.515,0,0,0,27.287,66.8C33.472,75.764,37.7,85.7,41.053,95.989c2.972,9.111,5.556,18.352,8.282,27.544a22.448,22.448,0,0,1,.47,2.766" transform="translate(23 176)" fill="#c96"/>
    <path id="Fill_46" data-name="Fill 46" d="M43.931,102.594A15.522,15.522,0,0,1,39.638,105c-1.345-7.46-4.406-14.419-6.31-21.72a136.1,136.1,0,0,0-12.7-31.738c-3.691-6.656-8.593-12.6-12.168-19.326-2.872-5.4-6.6-10.441-8.074-16.491C-.718,11.222.342,3.842,6.427,1.18A18.252,18.252,0,0,1,13.9,0C28.2.053,42.534.278,56.668,2.562c10.7,1.729,21.466,2.57,32.193,3.886a3.974,3.974,0,0,0,1.987-.025c2.386-1.1,2.506.5,2.816,2.127a76.5,76.5,0,0,0,2.219,9.965c.339,1.018-.081,1.2-1,1.338a58.293,58.293,0,0,1-17.558-.439c-5.007-.753-10.092-.9-15.035-2.177-5.281-1.361-10.676-2.122-15.911-3.859-5.152-1.709-10.438-3.367-15.988-3.513-2.74-.072-5.48-.161-8.221-.17a12.9,12.9,0,0,0-3.179.315c-5.117,1.292-7.171,5.157-5.25,10.077A242.122,242.122,0,0,1,21.87,43.1c1.547,5.555,4.679,10.485,7.51,15.478A52.723,52.723,0,0,1,33.968,69.87c1.451,4.944,3.381,9.714,5.081,14.567a57.191,57.191,0,0,1,2.4,8.883,50.15,50.15,0,0,0,2.48,9.273" transform="translate(35 198)" fill="#c96"/>
    <path id="Fill_48" data-name="Fill 48" d="M9.808,0a20.553,20.553,0,0,1,1.8,5.259A308.481,308.481,0,0,1,19.44,45.076C21.19,57.7,22.759,70.357,24.9,82.925c1.046,6.13.65,12.411,1.4,18.57,2.345,19.17,1.551,38.426,1.612,57.656.029,9.219.263,18.446-.237,27.659-.646,11.873-.918,23.76-1.285,35.643-.109,3.534-.028,7.081-.88,10.547a7.49,7.49,0,0,1-3.209-.825c.142-3.536.127-7.089.454-10.605a180.465,180.465,0,0,0-.27-30.823c-1.2-15.37-1.636-30.8-3.513-46.125-1.313-10.72-1.511-21.566-2.72-32.324-1.41-12.539-2.426-25.131-5.178-37.458-2.253-10.088-4.6-20.162-6.166-30.385C3.078,32.455,1.621,20.394,0,8.36A28.333,28.333,0,0,1,3.982.732C4.332,2.6,3.287,4.2,3.246,5.976c-.023,1-.241,1.986-.32,2.982-.054.682-.012,1.377.79,1.626a1.5,1.5,0,0,0,1.708-.64,16.918,16.918,0,0,0,2.351-5.02C8.368,3.248,8.664,1.435,9.808,0" transform="translate(156 176)" fill="#c96"/>
    <path id="Fill_50" data-name="Fill 50" d="M1.868,0c1.748,12.041,3.319,24.108,5.3,36.115,1.686,10.228,4.219,20.307,6.648,30.4,2.968,12.333,4.063,24.933,5.582,37.478,1.3,10.763,1.517,21.616,2.933,32.341,2.024,15.337,2.49,30.772,3.788,46.15.864,10.238,1.322,20.544.291,30.84-.352,3.519-.336,7.073-.489,10.611a4.379,4.379,0,0,1-2.3-.242c.717-9.921,1.428-19.827,1.083-29.8-.495-14.3-2.409-28.5-2.769-42.8-.124-4.889-1.367-9.662-1.749-14.523-.539-6.861-.892-13.736-1.567-20.584C16.453,94.036,13.749,72.175,8.03,50.728,4.713,38.288,3.565,25.46,1.8,12.751,1.348,9.515.606,6.316,0,3.1L1.868,0" transform="translate(154 185)" fill="#fbfcfd"/>
    <path id="Fill_52" data-name="Fill 52" d="M.35,5Q.176,4.082,0,3.162A8.12,8.12,0,0,1,3,0,14.031,14.031,0,0,1,.35,5" transform="translate(153 169)" fill="#fff"/>
    <path id="Fill_54" data-name="Fill 54" d="M3.008,7V7h0c-.14-.03-.295-.057-.458-.086A6.122,6.122,0,0,1,1.293,6.6,2.053,2.053,0,0,1,.087,5.26a2.443,2.443,0,0,1,.4-2.1C2.025,1,3.523,0,5.209,0a4.423,4.423,0,0,1,.9.095A1.933,1.933,0,0,1,7.868,1.579,3.651,3.651,0,0,1,7.313,4.7,5.514,5.514,0,0,1,3.008,7Zm-.22-4.6c-.477,0-.649.567-.709,1.042-.1.838.392,1.066.866,1.213A.861.861,0,0,0,3.2,4.7c.475,0,.644-.541.746-1.07.051-.818-.445-1.006-.882-1.173A.785.785,0,0,0,2.788,2.4Z" transform="translate(106 46)" fill="#dfe2e1"/>
    <path id="Fill_56" data-name="Fill 56" d="M2,1.068c-.15.636-.4,1.063-1.062.895C.412,1.83-.094,1.622.015.907.1.331.391-.158,1.059.048c.485.151.99.325.937,1.02" transform="translate(108 46)" fill="#040404"/>
  </g>
</svg>
