<svg xmlns="http://www.w3.org/2000/svg" xmlns:xlink="http://www.w3.org/1999/xlink" width="109" height="231.242" viewBox="0 0 109 231.242">
  <defs>
    <style>
      .cls-1 {
        fill: none;
      }

      .cls-2 {
        fill: #25b89d;
      }

      .cls-3 {
        fill: #c96;
      }

      .cls-4 {
        clip-path: url(#clip-path);
      }

      .cls-5 {
        fill: #ffc300;
      }

      .cls-6 {
        clip-path: url(#clip-path-2);
      }

      .cls-7 {
        fill: #303d78;
      }

      .cls-8 {
        fill: #fbfcfd;
      }

      .cls-9 {
        clip-path: url(#clip-path-3);
      }

      .cls-10 {
        fill: #191919;
      }

      .cls-11 {
        fill: #fff;
      }

      .cls-12 {
        fill: #dfe2e1;
      }

      .cls-13 {
        fill: #040404;
      }
    </style>
    <clipPath id="clip-path">
      <path id="Clip_6" data-name="Clip 6" class="cls-1" d="M0,0H49.079V21.613H0Z" transform="translate(0.237 0.303)"/>
    </clipPath>
    <clipPath id="clip-path-2">
      <path id="Clip_9" data-name="Clip 9" class="cls-1" d="M0,0H33.424V24.08H0Z" transform="translate(0.011 0.255)"/>
    </clipPath>
    <clipPath id="clip-path-3">
      <path id="Clip_20" data-name="Clip 20" class="cls-1" d="M0,0H22.9V24.394H0Z" transform="translate(0 0.212)"/>
    </clipPath>
  </defs>
  <g id="_6" data-name="6" transform="translate(0 -0.991)">
    <path id="Fill_1" data-name="Fill 1" class="cls-2" d="M4.738,58.445A19.251,19.251,0,0,1,.588,49.35a57.4,57.4,0,0,1-.178-15.1c.375-4.142.958-8.272.675-12.454-.053-.787-.2-1.689.781-2.132a5.429,5.429,0,0,0,5.064-.916c.6.051.751.434.82.974.443,3.448.681,6.924,1.37,10.339q.777,3.853,1.573,7.711c.339-.036.228-.343.278-.547.925-3.743.792-7.582,1.042-11.387.065-.985.142-1.971.255-2.952.66-5.732,5.709-9.643,10.628-10.611,2.836-.558,5.7-.985,8.491-1.762a11.169,11.169,0,0,0,4.321-2.439,1.84,1.84,0,0,0,.578-2.214c-.261-.628-.473-1.276-.7-1.916A2.6,2.6,0,0,1,36.11,1.01a7.209,7.209,0,0,0,4.416,1.282,4.131,4.131,0,0,0,4-2.123c.766.338.776,1.024.831,1.721.048.6-.213,1.2.067,1.811a2.79,2.79,0,0,0,3.721,1.353,28.133,28.133,0,0,0,5.917-2.76A14.779,14.779,0,0,1,61.575.075a7.729,7.729,0,0,1,4.589.7c3.881,2.047,7.921,3.863,11.317,6.7A134.259,134.259,0,0,1,88.93,17.506c2.385,2.5,4.735,5.128,4.977,8.917a24.327,24.327,0,0,1-1.372,8.329,27.665,27.665,0,0,1-5.79,10.376c-1.656,1.937-3.6,3.629-5.409,5.431a12.684,12.684,0,0,0-2.276,2.747,1.014,1.014,0,0,1-1.183.572,2.521,2.521,0,0,0-1.312-3.521,16.649,16.649,0,0,0-2.175-.821,51.386,51.386,0,0,1,3.3-5.511,24.634,24.634,0,0,0,3.556-6.411,4.374,4.374,0,0,0-.681-4.806,19.662,19.662,0,0,0-4.573-3.725,16.428,16.428,0,0,1-4.262-2.963c-1.38-1.532-3.291-2.049-5.062-3.2.078.424.1.658.165.882A55.268,55.268,0,0,1,68.8,37.126a35.685,35.685,0,0,0,1.453,8.556,15.983,15.983,0,0,1,.914,4.291c-.8.171-1.585.4-2.39.506a16.357,16.357,0,0,0-11.823,7.344,4.145,4.145,0,0,0-1.4.43l-1.009.373-7.175,1.061-.983.026c-1.732-.165-3.555.012-4.972-1.331-.851-1.23-1.738-2.436-2.546-3.693-3.377-5.251-5.771-11.05-9.067-16.347-.667-1.072-1.225-2.211-1.908-3.452-.755,4.321-1.257,8.485-2.354,12.535a27.99,27.99,0,0,1-2.864,6.861,32.471,32.471,0,0,1-3.164,3.959,25.6,25.6,0,0,1-4.021,2.412,8.515,8.515,0,0,1-4.473.674,19.084,19.084,0,0,1-3.7-.684,18.769,18.769,0,0,1-2.575-2.2" transform="translate(15.065 29.147)"/>
    <path id="Fill_3" data-name="Fill 3" class="cls-3" d="M4.465,0C5.708,2.927,7.039,5.819,8.172,8.789a38.5,38.5,0,0,1,2.18,10.723c.423,5.242.624,10.5,1.12,15.734.413,4.359.675,8.748,1.455,13.046a83.327,83.327,0,0,1,1.134,19.062c-.263,5.317-.728,10.629-1.014,15.949-.225,4.176-.253,8.359-.128,12.531a87.738,87.738,0,0,1-1.527,17.507c-.346,2.019-.472,4.077-.716,6.115a1.47,1.47,0,0,1-1.565,1.49l-.529-.074a48.527,48.527,0,0,0,.474-6.9c.1-4.753.212-9.5.5-14.25.33-5.46.174-10.933.19-16.4.018-6.282.018-12.565-.066-18.848-.068-5.106-.907-10.14-1.081-15.23a36.58,36.58,0,0,0-.422-4.865c-1.1-6.456-1.934-12.953-2.835-19.437A143.7,143.7,0,0,0,.7,2.767,4.5,4.5,0,0,0,0,.992,1.224,1.224,0,0,1,1.294.252,13.528,13.528,0,0,0,4.465,0" transform="translate(84.187 86.952)"/>
    <g id="Group_7" data-name="Group 7" transform="translate(31.016 0.689)">
      <path id="Clip_6-2" data-name="Clip 6" class="cls-1" d="M0,0H49.079V21.613H0Z" transform="translate(0.237 0.303)"/>
      <g id="Group_7-2" data-name="Group 7" class="cls-4">
        <path id="Fill_5" data-name="Fill 5" class="cls-5" d="M19.664,21.268c-2.8-.1-5.58-.469-8.363-.8a56.611,56.611,0,0,0-6.787-.027A9.089,9.089,0,0,1,1.7,20.292C.793,20.009.072,19.607,0,18.544a2.116,2.116,0,0,1,1.458-2.109,9.54,9.54,0,0,1,3.446-.756c2.742-.163,5.474.142,8.213.123,2.816-.019,2.854,0,3.085-2.824a26.634,26.634,0,0,1,2.237-8.826c.1-.216.189-.435.294-.647C20.107.737,21.827-.073,24.772.822A3.023,3.023,0,0,0,27.491.589a3.832,3.832,0,0,1,4.7.5,3.241,3.241,0,0,1,1.255,2.654,79.759,79.759,0,0,1-.586,9.335c-.382,2.779-.254,3.022,2.557,3.237,2.761.211,5.536.222,8.3.333.979.039,1.957.1,2.934.177a2.848,2.848,0,0,1,1.954.961,1.782,1.782,0,0,1-.286,2.656,5.179,5.179,0,0,1-2.948.935c-5.881.157-11.761.4-17.643.091-2.691-.022-5.385.058-8.071-.2" transform="translate(0.237 0.303)"/>
      </g>
    </g>
    <g id="Group_10" data-name="Group 10" transform="translate(62.033 207.898)">
      <path id="Clip_9-2" data-name="Clip 9" class="cls-1" d="M0,0H33.424V24.08H0Z" transform="translate(0.011 0.255)"/>
      <g id="Group_10-2" data-name="Group 10" class="cls-6">
        <path id="Fill_8" data-name="Fill 8" class="cls-7" d="M32.386,1.12c.9.1,1.05.721,1,1.507a124.484,124.484,0,0,0-.015,13.85,21.506,21.506,0,0,1-.41,6.156,1.352,1.352,0,0,1-1.329,1.189,46.651,46.651,0,0,1-5.145.238c-1.074-.056-1.336-.331-1.35-1.491-.01-.9,0-1.8,0-2.8-1.188.937-1.955,2.163-3.22,2.808a6.5,6.5,0,0,1-3.184.879c-1.619-.045-3.239-.028-4.859-.033-1.684-.005-3.363.085-5.045.162-2.181.1-4.375-.077-6.562-.167a2.367,2.367,0,0,1-2.243-1.76,2.081,2.081,0,0,1,1.724-2.52,59.794,59.794,0,0,1,8.661-2.007c3.823-.575,6.434-2.767,8.415-6.173a43.3,43.3,0,0,0,3.77-9.7A1.562,1.562,0,0,1,23.792,0c.255.17.574.074.842.286a7.947,7.947,0,0,0,3.557,1.578,5.186,5.186,0,0,0,4.194-.743" transform="translate(0.011 0.255)"/>
      </g>
    </g>
    <path id="Fill_11" data-name="Fill 11" class="cls-3" d="M0,1.057,7.133,0c.015,2.448.148,4.9.021,7.342A42.676,42.676,0,0,0,8.819,20.027a143.571,143.571,0,0,1,3.018,16.022,47.954,47.954,0,0,0,1.991,9.558,78.836,78.836,0,0,1,2.337,8.969c1.238,5.581,1.7,11.289,2.762,16.9.8,4.239,1.829,8.432,2.41,12.718.531,3.917.476,7.881,1.013,11.782,1.058,7.693.568,15.413.631,23.123l-.651.069a1.9,1.9,0,0,1-1.392-1.736c-.592-3.015-.094-6.041-.307-9.049C20.109,101,19.846,93.6,18.319,86.314c-.59-2.816-.755-5.719-1.181-8.573a35.064,35.064,0,0,0-.853-3.879,31.007,31.007,0,0,1-.934-8.784,25.253,25.253,0,0,0-.8-7.476c-.787-2.776-1.708-5.515-2.453-8.3-1.506-5.636-3.212-11.231-3.806-17.073-.066-.642-.174-1.28-.216-1.923-.039-.608-.308-.865-.911-.746A30.665,30.665,0,0,1,5.26,26.205,38.06,38.06,0,0,1,2.492,14.764,83.475,83.475,0,0,0,0,1.057" transform="translate(62.033 87.841)"/>
    <path id="Fill_13" data-name="Fill 13" class="cls-7" d="M18.966.319C20.481-.3,20.9-.1,22.063,1.585a85.886,85.886,0,0,1,6.99,12.283c.3.636.622,1.262.924,1.9a1,1,0,0,1-.518,1.5c-1.3.608-2.607,1.186-3.912,1.775a.968.968,0,0,1-1.285-.4c-.523-.637-.668-1.505-1.306-2.192-.224.722-.385,1.327-.6,1.911-.5,1.368-1.763,2.077-2.746,2.982A39.244,39.244,0,0,1,10,27.378c-1.615.79-3.262,1.514-4.888,2.282a4.929,4.929,0,0,1-3.671.376A1.837,1.837,0,0,1,.5,26.97,5.7,5.7,0,0,1,2.221,25.78c3.336-1.908,6.616-3.9,9-7.04a10.673,10.673,0,0,0,2.355-5.673,11.792,11.792,0,0,0-1.22-5.034,4.752,4.752,0,0,0-.537-1.077A2.063,2.063,0,0,1,12.062,4c.129.014.274.075.384.035A23.216,23.216,0,0,0,16.86,2.032c.751-.471,1.677-.808,2.106-1.713" transform="translate(22.154 152.761)"/>
    <path id="Fill_15" data-name="Fill 15" class="cls-8" d="M53.851,0a81.615,81.615,0,0,1,2.536,13.659,37.274,37.274,0,0,0,2.818,11.4A30.394,30.394,0,0,0,61.146,28.4c-.409.228-.908-.039-1.309.233.161-.379-.076-.662-.269-.93a13.051,13.051,0,0,1-1.93-3.8c-.219-.71-.646-.857-1.322-.758a33.077,33.077,0,0,1-9.164-.227,70.911,70.911,0,0,1-8.254-1.2c-2.625-.666-5.313-1.008-7.9-1.928a32.6,32.6,0,0,0-12.386-1.81c-2.89.121-4,1.638-3.008,4.283,1.077,2.886,2.533,5.627,3.265,8.646a27.159,27.159,0,0,0,1.65,4.8c1.221,2.7,2.913,5.148,4.126,7.845.867,1.927,1.332,3.986,2.046,5.963,1.268,3.506,2.755,6.944,3.33,10.661a16.187,16.187,0,0,0,.954,3.318c-.267.232-.482.537-.874.588a25.078,25.078,0,0,1-1.279-4.7,28.636,28.636,0,0,0-1.239-4.5c-.877-2.46-1.873-4.879-2.622-7.385A26.477,26.477,0,0,0,22.6,41.767c-1.461-2.531-3.077-5.031-3.874-7.847a121.287,121.287,0,0,0-4.193-11.665c-.99-2.494.069-4.454,2.709-5.109a6.767,6.767,0,0,1,1.64-.16c1.414,0,2.827.05,4.241.087a29.173,29.173,0,0,1,8.248,1.781c2.7.88,5.484,1.266,8.208,1.956a77.079,77.079,0,0,0,7.756,1.1,30.6,30.6,0,0,0,9.058.222c.473-.071.689-.162.515-.678a38.151,38.151,0,0,1-1.145-5.052c-.16-.826-.222-1.636-1.453-1.078a2.081,2.081,0,0,1-1.025.013c-5.534-.667-11.09-1.094-16.608-1.97a143.691,143.691,0,0,0-22.064-1.3,9.554,9.554,0,0,0-3.854.6c-3.139,1.35-3.686,5.091-3.118,7.375C8.4,23.111,10.322,25.665,11.8,28.4c1.845,3.411,4.373,6.423,6.278,9.8a68.319,68.319,0,0,1,6.554,16.091c.982,3.7,2.561,7.23,3.255,11.011a1.212,1.212,0,0,1-1.074.263,11.208,11.208,0,0,0-.243-1.4c-1.409-4.639-2.744-9.3-4.281-13.9a55.824,55.824,0,0,0-7.115-14.732A108.641,108.641,0,0,1,7.456,22.578a8.806,8.806,0,0,1-.565-6.9,5.875,5.875,0,0,1,4.561-4.257,18.179,18.179,0,0,1,4.215-.386c5,.084,9.993.254,14.975.669a60.05,60.05,0,0,1,7.7.9,34.52,34.52,0,0,0,5.2.8c2.035.119,4.057.276,6.071.575a24.235,24.235,0,0,0,4.947.315c.446-.026.875-.076.769-.749-.407-2.572-.319-5.213-1.137-7.807a2.093,2.093,0,0,1-1.441.375,31.012,31.012,0,0,1-5.77-.4c-2.453-.353-4.862-.9-7.272-1.5A94.308,94.308,0,0,0,27.684,2.247a96.29,96.29,0,0,0-11.672-.4,23.332,23.332,0,0,0-9.229,2C4.32,4.93,2.176,6.416,1.6,9.345A25.691,25.691,0,0,0,3.9,26.236c2.211,4.452,5.326,8.3,8.055,12.408a75.682,75.682,0,0,1,7.4,14.171c1.78,4.513,3.395,9.094,5.176,13.61l-.366.267-.747.006a2.135,2.135,0,0,0-.3-1.063c-1.3-3.462-2.654-6.909-3.924-10.384a79.4,79.4,0,0,0-7.267-14.8c-2.252-3.61-4.987-6.908-7.16-10.566C1.436,24.279-.732,18.381.229,11.71c.387-2.686.72-5.332,3.24-7.064A15.043,15.043,0,0,1,7.816,2.335c1.819-.515,3.668-.926,5.5-1.382a19.623,19.623,0,0,0,3.744.679A8.765,8.765,0,0,0,21.59.963c3.954-.242,7.809.632,11.709,1a47.691,47.691,0,0,1,7.178,1.407A51.327,51.327,0,0,0,54.021,5.109L52.856.026,53.851,0" transform="translate(10.634 87.841)"/>
    <path id="Fill_17" data-name="Fill 17" class="cls-3" d="M15.3,44.466a15.844,15.844,0,0,1-.928-3.239c-.559-3.628-2.006-6.985-3.239-10.407-.7-1.93-1.147-3.94-1.991-5.821-1.18-2.633-2.826-5.025-4.014-7.658A26.586,26.586,0,0,1,3.52,12.653C2.808,9.706,1.392,7.029.344,4.213-.617,1.631.459.149,3.27.031A31.616,31.616,0,0,1,15.319,1.8C17.834,2.7,20.449,3.03,23,3.68a68.685,68.685,0,0,0,8.03,1.175,32.076,32.076,0,0,0,8.914.222c.658-.1,1.073.046,1.286.74a12.759,12.759,0,0,0,1.878,3.712c.188.261.418.538.262.907-2.549.019-5.1.013-7.646.064-3.357.068-6.683-.407-10.029-.517-2.509-.083-5.012-.272-7.516-.439A35.239,35.239,0,0,1,4.878,6.52c-.2-.1-.431-.3-.647-.141-.26.186-.041.415.054.615,1.888,4,2.972,8.274,4.478,12.4,2.662,7.3,4.537,14.871,7.754,21.982.681,1.5.528,2.009-.713,2.83l-.507.255" transform="translate(24.813 106.517)"/>
    <g id="Group_21" data-name="Group 21" transform="translate(0 26.479)">
      <path id="Clip_20-2" data-name="Clip 20" class="cls-1" d="M0,0H22.9V24.394H0Z" transform="translate(0 0.212)"/>
      <g id="Group_21-2" data-name="Group 21" class="cls-9">
        <path id="Fill_19" data-name="Fill 19" class="cls-10" d="M22.9,23.149a5.294,5.294,0,0,1-5.071.948,15.231,15.231,0,0,0-7.882-9.392A13.694,13.694,0,0,0,5.1,13.534a7.368,7.368,0,0,1-3.172-1.073c-.548-.343-1.033-.775-.878-1.523.168-.812.874-.77,1.471-.856a3.274,3.274,0,0,0,.868-.173A8.51,8.51,0,0,1,1.229,8.166c-.131-.112-.277-.207-.4-.323C.3,7.357-.264,6.772.136,6.033s1.2-.477,1.844-.293A10.335,10.335,0,0,1,5.254,7.432c.553.407,1.141.764,1.712,1.143l.247.135.375.256c.08.02.211.082.232.055.076-.1,0-.169-.1-.2l-.337-.3-.237-.164A22.5,22.5,0,0,1,4.129,4.246a6.039,6.039,0,0,1-.781-3.235A.915.915,0,0,1,4.842.2a3.242,3.242,0,0,1,1.111,1.48A15.419,15.419,0,0,0,10.3,7.587c.328.244.647.5,1.244.962-.827-2.734-1.435-5.2-1.078-7.782.354.095.378.467.552.711.548.768,1.083,1.546,2.1,1.682.39,2.211,1.593,4.014,2.666,6.045a2.75,2.75,0,0,0,.281-2.4,27.477,27.477,0,0,0-1.412-3.722c-.068-1.673.177-1.874,1.775-1.462,1.6,1.547,2.065,3.674,2.764,5.7C20.969,12.466,21.8,17.84,22.9,23.149" transform="translate(0 0.212)"/>
      </g>
    </g>
    <path id="Fill_22" data-name="Fill 22" class="cls-3" d="M15.906,2.146C14.127,2.594,12.335,3,10.572,3.5A14.517,14.517,0,0,0,6.36,5.771c-2.441,1.7-2.764,4.3-3.139,6.935-.932,6.549,1.17,12.34,4.4,17.849,2.106,3.591,4.757,6.829,6.939,10.373A78.354,78.354,0,0,1,21.6,55.454c1.23,3.412,2.538,6.795,3.8,10.194a2.117,2.117,0,0,1,.286,1.043c-.788.077-1.1-.44-1.392-1.047-1.911-3.952-3.795-7.918-5.772-11.837-2.518-4.99-5.379-9.788-8.368-14.513a58.368,58.368,0,0,1-3.818-7.787c-.726-1.647-1.516-3.253-2.358-4.838A31.016,31.016,0,0,1,.012,13.316,21.99,21.99,0,0,1,.725,7.5,6.269,6.269,0,0,1,2.91,4.335C5.557,1.973,8.519.276,12.22.261A5.406,5.406,0,0,0,13.381,0a18.371,18.371,0,0,0,2.525,2.146" transform="translate(7.089 87.841)"/>
    <path id="Fill_24" data-name="Fill 24" class="cls-10" d="M16.967,8.668a12.7,12.7,0,0,1-3.142.265,1.2,1.2,0,0,0-1.283.776l-.558,1.426a8.66,8.66,0,0,0-1.037,2.623,9.2,9.2,0,0,1-1.2,2.674.749.749,0,0,1-.871.341c-.409-.133-.431-.5-.4-.866.041-.531.152-1.058.163-1.588.021-.943.554-1.8.375-2.793a15.347,15.347,0,0,0-2.031,4.063L6.1,17.235c-.386.317-.759.744-1.3.456-.568-.3-.4-.9-.4-1.409a11.946,11.946,0,0,1,1.264-4.618,7.72,7.72,0,0,0,1.169-2.58A3.988,3.988,0,0,0,5.5,10.716c-.124.164-.246.33-.372.494a44.161,44.161,0,0,1-2.638,3.723,1.058,1.058,0,0,1-1.439.274C.536,14.857.8,14.32.93,13.855A18.512,18.512,0,0,1,2.964,9.848c.147-.266.423-.5.362-.745-.6.574-1.205,1.169-1.822,1.756A.9.9,0,0,1,.24,11c-.39-.316-.227-.774-.053-1.17S.552,9.078.736,8.7A15.746,15.746,0,0,1,12.187,1.048C12.966.937,13.73.7,14.5.521c1.067.058,2.026-.753,3.123-.455a15.386,15.386,0,0,1,2.107.856A2.708,2.708,0,0,1,21,4.591c-1.015,1.738-2.156,3.333-4.035,4.076" transform="translate(72.667 78.059)"/>
    <path id="Fill_26" data-name="Fill 26" class="cls-10" d="M31.764,9.782h0c-.084,0-.169,0-.256-.006a7.042,7.042,0,0,1-4.42-1.327,5.1,5.1,0,0,1-1.229-2.842c-.092-.643-.356-.893-.974-.92-2.755-.122-5.55-.341-8.253-.553-1.81-.142-3.68-.289-5.522-.4A50.773,50.773,0,0,1,1.3,2.377a3.533,3.533,0,0,1-.771-.268C.228,1.944-.073,1.72.016,1.3A.861.861,0,0,1,.7.6,6.538,6.538,0,0,1,2.289.385a4.607,4.607,0,0,1,.748.06,78.812,78.812,0,0,0,8.529.78c1.044.057,2.124.116,3.185.191,1.772.124,3.574.173,5.317.22,1.774.048,3.608.1,5.409.227.045,0,.088,0,.128,0a.787.787,0,0,0,.808-.58,8.44,8.44,0,0,1,.472-.9c.073-.127.149-.258.221-.39,1.9.186,3.755.2,5.809.2h.99c.521,0,.948,0,1.343,0,1.742,2.5,1.046,5.118.257,7.373A4.067,4.067,0,0,1,31.764,9.782Zm-.09-8.428a4.046,4.046,0,0,0-3.031,1.585,1.029,1.029,0,0,0-.286.97,1.134,1.134,0,0,0,.8.751,4.883,4.883,0,0,0,.811.159c.1.014.2.027.29.043A3.888,3.888,0,0,0,33.025,3.71a1.512,1.512,0,0,0,.356-1.562c-.182-.547-.639-.664-1.131-.745A3.624,3.624,0,0,0,31.674,1.355Z" transform="translate(23.041 22.032)"/>
    <path id="Fill_28" data-name="Fill 28" class="cls-8" d="M17.216,0c.454,0,.907,0,1.361,0a2.35,2.35,0,0,1,2.529,1.547,2.282,2.282,0,0,1-.746,2.69A37.847,37.847,0,0,1,15.84,7.37a20.3,20.3,0,0,1-5.327,2.576,3.269,3.269,0,0,0-1.386.9c-2.738,2.607-6.022,4.71-7.861,8.157-.178.333-.42.7-.891.5-.442-.19-.414-.636-.314-.992.941-3.357,1.729-6.728,4.5-9.31A34.349,34.349,0,0,0,8.949,3.758a9.048,9.048,0,0,1,6.7-3.731c.519-.05,1.046-.007,1.569-.007Z" transform="translate(10.634 2.467)"/>
    <path id="Fill_30" data-name="Fill 30" class="cls-3" d="M2.917,10.626a3.4,3.4,0,0,1-2.241-1.7C.49,8.68.464,8.3.087,8.209.056,7.281,0,6.355,0,5.428A1.033,1.033,0,0,1,1.244,4.29,14.4,14.4,0,0,0,4.29,4.22c.995-.152.834.756,1.044,1.405A7.49,7.49,0,0,0,7.126,3.647C9.585.4,12.869-.523,16.785.266c.425.086.959.147.938.7-.022.609-.573.521-1,.535a1.626,1.626,0,0,1-.218,0C12.04,1.018,9.429,3.409,7.589,7.01a9.644,9.644,0,0,1-1.14,2.064c-1.706-.417-1.967-.213-1.894,1.477a5.559,5.559,0,0,1-1.637.075" transform="translate(10.634 18.475)"/>
    <path id="Fill_32" data-name="Fill 32" class="cls-10" d="M.04.064.775,0A2.049,2.049,0,0,0,1.956.156l2.8.287A2.781,2.781,0,0,0,6.015.556a5.373,5.373,0,0,0,1.9.387,1.807,1.807,0,0,0,1.221.085l.607.068q0,.838.006,1.677a7.219,7.219,0,0,1-4.758.664A10.344,10.344,0,0,1,.954,2.027c-.3-.189-.665-.1-.954-.255Q.02.918.04.064" transform="translate(85.073 207.898)"/>
    <path id="Fill_34" data-name="Fill 34" class="cls-10" d="M7.976.214,8.585,0,9.748,1.364C9.229,2.111,8.106,2.389,7.2,2.779A35.676,35.676,0,0,1,1.847,4.435a1.678,1.678,0,0,1-.465-.029L0,2.829.429,2.61a15.479,15.479,0,0,0,2.674-.7,1.892,1.892,0,0,0,1.257-.215,11.1,11.1,0,0,0,2.592-1A2.205,2.205,0,0,0,7.976.214" transform="translate(33.675 152.761)"/>
    <path id="Fill_36" data-name="Fill 36" class="cls-3" d="M18.911,120.057l-2.548-.312c0-3.631-.005-7.261.009-10.892a64.143,64.143,0,0,0-.44-9.953,59.927,59.927,0,0,1-.626-6.888,78.282,78.282,0,0,0-1.847-13.906c-1.008-4.614-1.941-9.235-2.571-13.91A107.677,107.677,0,0,0,7.242,47.19,46.1,46.1,0,0,1,5.2,39.316a148.708,148.708,0,0,0-3.626-19.4A39.162,39.162,0,0,1,.036,8.057C.166,5.52.036,2.971.023.427A4.325,4.325,0,0,1,1.457,0c-.194.357-.4.708-.579,1.073s-.356.813.056,1.115a1.017,1.017,0,0,0,1.335-.133C2.92,1.5,3.563.929,4.191.381c.065.234-.227.457-.382.71A17.087,17.087,0,0,0,1.662,4.911c-.133.443-.416.955.13,1.288a1.2,1.2,0,0,0,1.519-.261A42.26,42.26,0,0,0,6.1,2.389c.133-.156.262-.314.392-.47l.163.9a10.544,10.544,0,0,0-1.334,4.4c0,.481-.176,1.056.423,1.343.575.274.969-.133,1.376-.434.3,1.633.673,3.256.9,4.9C8.9,19.478,9.47,25.987,11.126,32.3c2.856,10.882,4.206,21.973,5.286,33.112.337,3.474.514,6.963.783,10.444.19,2.467.812,4.888.873,7.369.18,7.254,1.136,14.46,1.383,21.714a143.98,143.98,0,0,1-.54,15.121" transform="translate(70.894 86.952)"/>
    <path id="Fill_38" data-name="Fill 38" class="cls-8" d="M1.067,0c.014,2.54.147,5.086.013,7.619A38.394,38.394,0,0,0,2.644,19.461,145.938,145.938,0,0,1,6.337,38.829a45.306,45.306,0,0,0,2.082,7.862,105.7,105.7,0,0,1,3.713,16.981c.642,4.668,1.591,9.283,2.618,13.889A76.694,76.694,0,0,1,16.63,91.446a58.71,58.71,0,0,0,.638,6.878,62.761,62.761,0,0,1,.448,9.937c-.014,3.625-.007,7.25-.008,10.875a1.656,1.656,0,0,1-1.095-.168c-.066-7.678.448-15.365-.66-23.026-.562-3.885-.5-7.833-1.061-11.733-.609-4.269-1.684-8.443-2.524-12.665-1.112-5.587-1.6-11.271-2.893-16.828a75.41,75.41,0,0,0-2.448-8.932,45.718,45.718,0,0,1-2.085-9.517,136.7,136.7,0,0,0-3.16-15.954A40.541,40.541,0,0,1,.038,7.681C.171,5.251.033,2.808.016.37Z" transform="translate(68.236 86.952)"/>
    <path id="Fill_40" data-name="Fill 40" class="cls-3" d="M4,0c3.706.85,7.541.723,11.224,1.76a9.022,9.022,0,0,0,2.725.225,8.259,8.259,0,0,1,3.18.579,15.993,15.993,0,0,0,4,.667c.424.047.524-.149.512-.568A9.1,9.1,0,0,1,25.807.148c1.411,1.449,3.226,1.258,4.95,1.436L31.9,7.108A45.99,45.99,0,0,1,18.58,5.219,43.033,43.033,0,0,0,11.519,3.69C7.682,3.288,3.889,2.338,0,2.6A25.17,25.17,0,0,0,4,0" transform="translate(30.13 87.841)"/>
    <path id="Fill_42" data-name="Fill 42" class="cls-8" d="M10.2,119.988a1.581,1.581,0,0,1-1.184-.092,22.707,22.707,0,0,0,.505-5.366c.211-6.045.367-12.092.737-18.132.287-4.687.153-9.381.136-14.071-.035-9.783.421-19.579-.925-29.331-.432-3.133-.2-6.328-.805-9.447-1.23-6.394-2.13-12.832-3.134-19.255a141.3,141.3,0,0,0-4.5-20.256A9.669,9.669,0,0,0,0,1.362L.627,0a4.236,4.236,0,0,1,.782,1.776,131.168,131.168,0,0,1,5.175,22.2c1,6.49,1.937,12.993,3.16,19.455a32.969,32.969,0,0,1,.47,4.87c.194,5.095,1.13,10.133,1.205,15.244.093,6.289.094,12.577.074,18.865-.017,5.472.157,10.949-.212,16.415-.32,4.752-.443,9.5-.557,14.262a43.653,43.653,0,0,1-.528,6.9" transform="translate(84.187 87.841)"/>
    <path id="Fill_44" data-name="Fill 44" class="cls-3" d="M25.221,64.935a9.773,9.773,0,0,1-2.239.874c-1.745-4.6-3.327-9.268-5.071-13.866a78.267,78.267,0,0,0-7.247-14.437C7.99,33.324,4.937,29.4,2.771,24.863A27.1,27.1,0,0,1,.512,7.655c.565-2.984,2.667-4.5,5.08-5.6A22.122,22.122,0,0,1,14.634.013a90.7,90.7,0,0,1,11.437.41,89.1,89.1,0,0,1,11.778,2,70.537,70.537,0,0,0,7.126,1.528,29.249,29.249,0,0,0,5.654.4,1.991,1.991,0,0,0,1.412-.381c.8,2.643.715,5.334,1.114,7.954.1.686-.316.737-.753.763a22.877,22.877,0,0,1-4.847-.32c-1.974-.3-3.955-.464-5.949-.585a32.593,32.593,0,0,1-5.092-.814,56.68,56.68,0,0,0-7.543-.918c-4.882-.423-9.776-.6-14.673-.682a17.183,17.183,0,0,0-4.13.393A5.854,5.854,0,0,0,5.7,14.1a9.293,9.293,0,0,0,.554,7.035,111.739,111.739,0,0,0,7.566,13.205,57.882,57.882,0,0,1,6.971,15.009c1.505,4.684,2.814,9.435,4.194,14.161a11.7,11.7,0,0,1,.238,1.422" transform="translate(11.52 90.509)"/>
    <path id="Fill_46" data-name="Fill 46" class="cls-3" d="M21.9,52.136a7.7,7.7,0,0,1-2.14,1.223c-.67-3.791-2.2-7.327-3.145-11.037a69.951,69.951,0,0,0-6.333-16.128C8.441,22.81,6,19.791,4.215,16.372,2.783,13.627.927,11.066.19,7.992-.358,5.7.171,1.952,3.2.6A8.941,8.941,0,0,1,6.928,0a133.919,133.919,0,0,1,21.32,1.3c5.331.879,10.7,1.306,16.047,1.975a1.945,1.945,0,0,0,.991-.013c1.19-.56,1.249.252,1.4,1.081A39.524,39.524,0,0,0,47.8,9.409c.169.517-.04.609-.5.68a28.51,28.51,0,0,1-8.752-.223A71.875,71.875,0,0,1,31.051,8.76C28.419,8.068,25.73,7.681,23.12,6.8a27.322,27.322,0,0,0-7.97-1.785c-1.366-.037-2.732-.082-4.1-.086a6.312,6.312,0,0,0-1.585.16c-2.551.657-3.574,2.621-2.617,5.121C8.326,14.062,9.81,17.9,10.9,21.9a36.226,36.226,0,0,0,3.744,7.866,27.092,27.092,0,0,1,2.287,5.74c.723,2.513,1.685,4.937,2.533,7.4a29.513,29.513,0,0,1,1.2,4.514A25.881,25.881,0,0,0,21.9,52.136" transform="translate(17.724 102.07)"/>
    <path id="Fill_48" data-name="Fill 48" class="cls-3" d="M4.967,0a10.319,10.319,0,0,1,.91,2.65A154.719,154.719,0,0,1,9.844,22.71c.886,6.36,1.681,12.737,2.766,19.069.53,3.089.329,6.253.711,9.356,1.188,9.658.786,19.36.816,29.048.015,4.644.133,9.293-.12,13.935-.327,5.982-.465,11.971-.651,17.957a25.169,25.169,0,0,1-.446,5.314,3.808,3.808,0,0,1-1.625-.416c.072-1.782.064-3.571.23-5.343A90.462,90.462,0,0,0,11.389,96.1c-.609-7.744-.828-15.516-1.779-23.239C8.945,67.462,8.845,62,8.233,56.577,7.519,50.26,7,43.916,5.611,37.705,4.47,32.623,3.281,27.547,2.489,22.4,1.559,16.351.821,10.275,0,4.212A14.249,14.249,0,0,1,2.016.369c.177.943-.352,1.749-.372,2.642-.012.5-.122,1-.162,1.5-.027.343-.006.694.4.819a.76.76,0,0,0,.865-.322A8.5,8.5,0,0,0,3.937,2.481,7.961,7.961,0,0,1,4.967,0" transform="translate(78.87 90.509)"/>
    <path id="Fill_50" data-name="Fill 50" class="cls-8" d="M.981,0C1.9,6.119,2.724,12.251,3.763,18.353c.886,5.2,2.216,10.32,3.491,15.449,1.558,6.267,2.134,12.67,2.932,19.046.684,5.47.8,10.985,1.54,16.435,1.063,7.794,1.308,15.638,1.989,23.453a82.469,82.469,0,0,1,.153,15.672c-.185,1.788-.176,3.594-.257,5.392a2.372,2.372,0,0,1-1.207-.123,137.2,137.2,0,0,0,.569-15.145c-.26-7.265-1.265-14.482-1.454-21.748-.065-2.485-.718-4.91-.919-7.381-.283-3.487-.469-6.98-.823-10.46C8.64,47.787,7.22,36.678,4.217,25.779,2.475,19.457,1.872,12.938.944,6.48.708,4.835.318,3.209,0,1.574L.981,0" transform="translate(77.098 94.956)"/>
    <path id="Fill_52" data-name="Fill 52" class="cls-11" d="M.1,2.668q-.052-.49-.1-.981A4.266,4.266,0,0,1,.886,0,10.493,10.493,0,0,1,.1,2.668" transform="translate(77.098 86.952)"/>
    <path id="Fill_54" data-name="Fill 54" class="cls-12" d="M1.666,2.668h0c-.077-.012-.162-.022-.252-.033a4.661,4.661,0,0,1-.7-.121.914.914,0,0,1-.7-.6.734.734,0,0,1,.254-.711A3.66,3.66,0,0,1,2.886,0a3.528,3.528,0,0,1,.5.036c.408.059.819.15.976.566a1.056,1.056,0,0,1-.307,1.189A3.583,3.583,0,0,1,1.666,2.668ZM1.544.914c-.264,0-.359.216-.392.4-.059.318.216.405.479.462a.677.677,0,0,0,.14.016c.263,0,.357-.206.413-.408C2.213,1.071,1.938,1,1.7.935A.61.61,0,0,0,1.544.914Z" transform="translate(53.171 25.589)"/>
    <path id="Fill_56" data-name="Fill 56" class="cls-13" d="M.884.475C.818.758.707.948.414.873.183.814-.042.721.007.4.046.147.173-.07.469.021.684.088.908.166.884.475" transform="translate(54.057 24.7)"/>
  </g>
</svg>
