<svg xmlns="http://www.w3.org/2000/svg" xmlns:xlink="http://www.w3.org/1999/xlink" width="444.301" height="461.565" viewBox="0 0 444.301 461.565">
  <defs>
    <style>
      .cls-1 {
        fill: none;
      }

      .cls-2 {
        fill: #fff;
      }

      .cls-3 {
        fill: #f2ab02;
      }

      .cls-4 {
        fill: #f5f3f3;
      }

      .cls-5 {
        fill: #fb0;
      }

      .cls-6 {
        fill: #ffbe26;
      }

      .cls-7 {
        fill: #3d55cc;
      }

      .cls-8 {
        fill: #fbfcfd;
      }

      .cls-9 {
        fill: #1a1a1a;
      }

      .cls-10 {
        fill: #303c78;
      }

      .cls-11 {
        fill: #ff4133;
      }

      .cls-12 {
        fill: #cc9967;
      }

      .cls-13 {
        clip-path: url(#clip-path);
      }

      .cls-14 {
        fill: #26bfaa;
      }
    </style>
    <clipPath id="clip-path">
      <path id="Clip_59" data-name="Clip 59" class="cls-1" d="M34.912,8.822a22.684,22.684,0,0,1-9.645-.342h0l-4.247.594h0C10.842,20.216,10.068,32.967,14.788,46.591h0c1.759,5.081,5.126,9.567,5.628,15.122h0a22.309,22.309,0,0,1,.208,3.618h0c-1.106,14.951.065,29.765,1.937,44.616h0a63.245,63.245,0,0,1-5.047,34.876h0c-6.3,13.953-12.567,28.1-15.859,43.229h0C.927,191.395-.207,194.708.033,198.22h0c1.259.567,2.572,1.04,3.769,1.719h0c3.458,1.959,7.669,1.98,10.955,4.354h0a116.464,116.464,0,0,0,13.95-18.463h0c7.664-12.595,14.43-25.7,21.674-38.53h0c8.061-14.279,10.372-29.829,11.943-45.732h0a227.338,227.338,0,0,0-.528-48h0c-.165-1.46.132-2.964.042-4.437h0c-.091-1.486-.4-2.959-.72-5.234h0a54.07,54.07,0,0,0,5.009,3.469h0A102.192,102.192,0,0,0,100.479,58.25h0c9.661,1.3,19.027,3.458,28.479,5.6h0c7.386,1.671,11.9,6.4,15.781,12.283h0a6.88,6.88,0,0,1,1.1.822h0a89.525,89.525,0,0,0,18.283,16h0a5.831,5.831,0,0,1,2.739,2.663h0a5.5,5.5,0,0,1,3.076,2.341h0a164.484,164.484,0,0,1,14.981,10.951h0q7.164,5.051,14.328,10.107h0c14.608,10.367,30.823,16.95,48.241,20.7h0c1.147-1.078,2.257-2.2,3.446-3.221h0c2.105-1.816,4.183-3.638,5.209-6.344h0a12.545,12.545,0,0,0-4-6.548h0c-11.245-10.97-21.505-22.889-32.629-33.973h0a6.43,6.43,0,0,1-.586-.6h0a174.615,174.615,0,0,0-20.412-22.066h0c-.76-.654-1.531-1.293-2.277-1.96h0q-6.642-5.933-13.276-11.876h0a9.436,9.436,0,0,1-3.509-2.787h0q-9.566-6.866-19.126-13.732h0c-.8-.449-1.643-.836-2.4-1.357h0C137.672,21.225,115.6,11.473,91.3,7.267h0A263.108,263.108,0,0,1,60.7,0h0C52.9,5.295,43.939,7.235,34.912,8.822" transform="translate(0.744 0.052)"/>
    </clipPath>
  </defs>
  <g id="Group_29" data-name="Group 29" transform="translate(-833 -239)">
    <circle id="Oval" class="cls-2" cx="169" cy="169" r="169" transform="translate(833 239)"/>
    <g id="Group_149" data-name="Group 149" transform="translate(876 330)">
      <g id="Group_57" data-name="Group 57">
        <path id="Fill_1" data-name="Fill 1" class="cls-3" d="M1.1.906.21.418,1.1.906" transform="translate(175.566 155.58)"/>
        <path id="Fill_3" data-name="Fill 3" class="cls-4" d="M4.473,3.449c-.63-.267-.542-.85-.63-1.384C3.494-.057,2.429-.577.631.66c-.921,1.608-.921,1.606.575,1.649.4.012,1.24-.016.758.552C.724,4.321,4.836,4.123,2.7,5.6c-.469.324-1.13.462-.477,1.112a1.136,1.136,0,0,0,1.512.146,2.438,2.438,0,0,0,.737-3.407" transform="translate(136.512 24.04)"/>
        <path id="Fill_5" data-name="Fill 5" class="cls-5" d="M106.67,19.52a5.825,5.825,0,0,0-2.724-2.668A89.188,89.188,0,0,1,85.765.823,6.767,6.767,0,0,0,84.671,0,168.252,168.252,0,0,1,59.224,37.566a75.246,75.246,0,0,0-4.8,6.512,52.309,52.309,0,0,1-13.951,13.49C32.61,62.779,26.486,70.081,18.73,75.312c-5.219,3.521-9.983,7.639-15.2,11.129A21.985,21.985,0,0,1,0,88.013a28.784,28.784,0,0,1,3.638,7.541c.253.863.34,1.78,1.764,1.589,7.5-1,15.124-1.273,22.378-3.794a87.341,87.341,0,0,1,14.746-3.928c9.992-1.6,17.937-6.61,24.426-14.256,5.9-6.954,11.658-14.035,17.916-20.678a81.168,81.168,0,0,0,15.411-23.171,70.208,70.208,0,0,1,6.391-11.8" transform="translate(156.903 185.058)"/>
        <path id="Fill_7" data-name="Fill 7" class="cls-6" d="M86.645,22.746a7.207,7.207,0,0,1-3.55,2.087A11.6,11.6,0,0,0,77.256,28.9a7.732,7.732,0,0,1-4.249,2.975c-5.574,1.374-10.476,4.163-15.174,7.332-4.824,3.253-10.053,5.8-15.072,8.682a42.932,42.932,0,0,1-7.206,3.339,20,20,0,0,0-7.531,4.641c-4.641,4.618-10.346,7.475-16.016,10.4-4.372,2.252-8.108,5.117-10.7,9.43-2.551,4.24-1.313,8.456,3.234,10.54,6.817-2.381,13.739-4.493,20.425-7.2C35.512,74.766,45.735,69.7,56.542,66.065c5.265-1.769,10.927-2.373,15.9-4.913a110.653,110.653,0,0,0,34.483-27.687c6.153-7.319,10.87-15.847,18.368-22.044,3.859-3.189,7.854-6.247,11.146-10.086-2.081-2.668-4.126-.695-5.729.406-2.366,1.626-4.886,2.934-7.295,4.44-4.359,2.726-9.3,3.486-14.036,4.949-7.164,2.213-14.083,4.884-19.858,9.946a16.861,16.861,0,0,1-2.873,1.67" transform="translate(64.179 14.286)"/>
        <path id="Fill_9" data-name="Fill 9" class="cls-5" d="M119.315,10.969A163.7,163.7,0,0,0,104.417,0a104.952,104.952,0,0,0-6.365,12.136c-2.593,5.609-5.442,11.1-9.437,15.807C79.761,38.358,70.834,48.715,61.73,58.907c-4.848,5.427-10.791,9.623-17.954,11.085-13.921,2.841-27.213,8.7-41.676,8.936-1.575.025-2.052.746-1.7,2.348.49,2.193.788,4.438-.4,6.554,3.147,1.085,6.271,2.248,9.446,3.243a45.176,45.176,0,0,0,28.886-.1c6.653-2.289,13.388-4.385,19.9-7.024,13.186-5.336,24.229-13.842,33.78-24.388,9-9.938,14.837-21.824,20.366-33.906,2.254-4.923,4.617-9.792,6.932-14.686" transform="translate(162.214 206.923)"/>
        <path id="Fill_11" data-name="Fill 11" class="cls-6" d="M64.328,85.419c15.861-9.767,27.252-24.007,37.216-39.36,4.3-6.62,8.872-13.064,13.026-19.782.71-2.607,1.258-5.271,2.162-7.806C119,12.084,123.9,7.968,129.244,4.356c2.8-1.891,2.891-1.886.4-4.356-3.109,3.21-6.521,6.073-9.909,8.968-4.1,3.5-8.07,7.143-11.128,11.681-6.538,9.7-13.875,18.617-23.236,25.778C78.144,51.954,71.293,58.061,62.66,61.258c-5.111,1.892-10.527,2.924-15.677,4.724C31.09,71.539,16.2,79.7,0,84.483c7.993,2.553,15.835,5.678,24.388,5.939,1.88.058,3.927.128,5.417,1.711,2.437-3.6,4.984-7.123,6.018-11.494A2.258,2.258,0,0,1,38.458,78.7c1.419.222,1.954,1.33,2.089,2.6a9.274,9.274,0,0,1-.089,2.772c-.4,1.961-.941,3.892-1.511,6.178,2.644-1.023,5.1-.672,7.576-.57,4.955.2,9.745-.365,13.74-3.855a3.1,3.1,0,0,1,4.065-.4" transform="translate(73.95 18.855)"/>
        <path id="Fill_13" data-name="Fill 13" class="cls-5" d="M0,74.824,19.024,88.579a18.391,18.391,0,0,0,.436-1.9c1.447-11.428,3.49-22.716,7.549-33.544a8.575,8.575,0,0,0,.652-3.28c-.409-8.91,3.962-16.807,5.147-25.37-.043-.22-.085-.439-.127-.66-2.222.208-2.357-1.6-3.192-3.026-1.891-3.225-2.051-3.136.951-4.819-2.633-1.785-1.766-5.194-3.377-7.526-.6-.872.464-2.1,1.592-2.543,1.618-.639,3.275-1.182,4.916-1.765A3.151,3.151,0,0,0,30.6.563C27.955.134,25.233-.889,23.038,1.7a19.629,19.629,0,0,1,1.595,7.829c.11,3.807-.372,7.567-.482,11.345-.135,4.642.081,4.645-4.507,5.284a12.283,12.283,0,0,0-1.325.332,8.338,8.338,0,0,1-1.882,3.67A25.647,25.647,0,0,0,10.974,42.8,23.1,23.1,0,0,1,7.8,52.55,29.478,29.478,0,0,0,4.511,59.9C3.029,64.882,1.506,69.851,0,74.824" transform="translate(257.069 70.644)"/>
        <path id="Fill_15" data-name="Fill 15" class="cls-5" d="M0,60.614q6.6,5.949,13.2,11.9c.741.668,1.508,1.309,2.265,1.964a285.7,285.7,0,0,0,5.72-37.588c.4-4.546,1.112-9.073.525-13.684-.863-6.766-3.285-12.968-6.277-18.993-.7-1.417-1.464-2.805-2.2-4.208C10.9,6.491,9,13.07,8.958,20.076a15.985,15.985,0,0,1-1.325,5.407A95.942,95.942,0,0,0,3.079,42.451C2.011,48.5,1.023,54.56,0,60.614" transform="translate(279.583 101.402)"/>
        <path id="Fill_17" data-name="Fill 17" class="cls-6" d="M23.951,22.638c-3.91-7.125-3.3-14.321-.359-21.559A6.088,6.088,0,0,0,23.823,0c-3.608,1.9-7.2,3.857-10.8,5.738S5.84,10.4,1.309,10A21.2,21.2,0,0,1,.3,16.582c-.818,2.259.065,3.128,2.147,3.663a69.842,69.842,0,0,0,21.5,2.393" transform="translate(11.755 84.561)"/>
        <path id="Fill_19" data-name="Fill 19" class="cls-6" d="M29.422,2.534C20.443,3.9,11.644,2.71,3.009.274.69-.381,0,.08,0,2.295c4.294,3.52,9.534,4.854,14.678,6.243,9.267,2.5,18.592,4.842,28.3,4.687a8.127,8.127,0,0,0,1.343-.243c-5.526-2.665-10.025-6.83-14.9-10.447" transform="translate(9.927 108.532)"/>
        <path id="Fill_21" data-name="Fill 21" class="cls-7" d="M14.676,204.646a116.592,116.592,0,0,0,13.872-18.494c7.62-12.615,14.35-25.743,21.553-38.6,8.016-14.3,10.315-29.881,11.875-45.811a229.311,229.311,0,0,0-.524-48.086c-.164-1.461.131-2.969.042-4.445s-.394-2.964-.718-5.242a53.729,53.729,0,0,0,4.982,3.474A101.121,101.121,0,0,0,99.922,58.352c9.607,1.3,18.922,3.463,28.321,5.605,7.345,1.675,11.84,6.409,15.694,12.3a6.9,6.9,0,0,1,1.093.823,89.153,89.153,0,0,0,18.182,16.029,5.831,5.831,0,0,1,2.724,2.668,5.479,5.479,0,0,1,3.059,2.345,163.88,163.88,0,0,1,14.9,10.97c4.749,3.374,9.508,6.736,14.247,10.125,14.528,10.387,30.653,16.979,47.974,20.733,1.139-1.078,2.244-2.2,3.426-3.226,2.1-1.818,4.161-3.644,5.18-6.353a12.569,12.569,0,0,0-3.979-6.561c-11.181-10.987-21.385-22.927-32.447-34.03a6.432,6.432,0,0,1-.583-.6,174.515,174.515,0,0,0-20.3-22.1c-.756-.655-1.523-1.3-2.265-1.964q-6.606-5.945-13.2-11.9a9.4,9.4,0,0,1-3.49-2.793q-9.512-6.876-19.02-13.756c-.794-.45-1.634-.836-2.385-1.359C136.909,21.261,114.958,11.493,90.8,7.281A260.2,260.2,0,0,1,60.36,0C52.61,5.3,43.7,7.249,34.719,8.837a22.363,22.363,0,0,1-9.593-.343l-4.222.6c-10.123,11.162-10.893,23.935-6.2,37.582,1.751,5.089,5.1,9.583,5.6,15.149a22.635,22.635,0,0,1,.207,3.623c-1.1,14.977.064,29.817,1.926,44.694a63.781,63.781,0,0,1-5.019,34.935c-6.27,13.978-12.5,28.145-15.771,43.3C.923,191.725-.2,195.044.032,198.562c1.252.569,2.559,1.043,3.749,1.722,3.439,1.964,7.626,1.985,10.895,4.362" transform="translate(97.639 108.796)"/>
        <path id="Fill_23" data-name="Fill 23" class="cls-8" d="M42.437,6.083c-3.268-2.377-7.456-2.4-10.895-4.362C30.352,1.043,29.046.569,27.794,0c-.635.177-1.248.381-1.494,1.1-3.39,9.93-10.191,17.708-16.119,26.021A43.317,43.317,0,0,0,4.656,37.755c-1.387,3.867-2.8,7.729-4.326,11.539-.863,2.153.037,3.156,1.918,3.749,1.845.581,3.5.726,4.164-1.711,1.9-6.983,6.769-12.158,10.718-17.888a1.931,1.931,0,0,1,1.935-1.126c-1.075,5.175-1.1,10.422-1.133,15.677a20.127,20.127,0,0,0,2.082,8.363,7.669,7.669,0,0,0,5.124,4.355,93.443,93.443,0,0,0,9.414,2.218c6.581,1.2,12.327-1.817,18.341-3.415,2.1-.557,2.928-3.093,2.272-5.343-.766-2.629-2.866-2.6-4.7-2-5.42,1.763-9.923-.314-14.42-2.939a3.014,3.014,0,0,1-1.628-2.387,47.738,47.738,0,0,1,2.636-24.775c1.579-3.982,3.533-7.809,5.252-11.735.594-1.358,1.154-2.8.136-4.249" transform="translate(69.877 307.358)"/>
        <path id="Fill_25" data-name="Fill 25" class="cls-8" d="M8.606.324c-1.019,2.71-3.085,4.535-5.18,6.354C2.244,7.706,1.139,8.825,0,9.9,1.524,13.848,2.165,18.033,3.254,22.1A51.16,51.16,0,0,0,8.5,35.037,87.706,87.706,0,0,1,15.421,50.33c.572,1.6,1.117,3.442,3.632,2.952,3.055-.594,3.683-1.367,2.514-4.359-2.081-5.329-3.152-10.915-4.258-16.643,2.962,3.589,6.824,6.046,10.244,9.02,4.459,3.877,9.173,5.31,14.823,3.582,2.3-.7,4.639-1.282,6.978-1.845,3.268-.786,5.5-2.981,7.4-5.572a3.7,3.7,0,0,0,.384-3.983A3.106,3.106,0,0,0,53.8,31.968c-1.745.135-3.477.584-5.219.627-6.4.161-11.1-3.382-15.653-7.377C26.455,19.544,21.495,12.5,15.711,6.2c-1.7-1.846-3.475-3.619-5.26-5.381-.475-.47-.986-1.277-1.845-.5" transform="translate(343.751 238.846)"/>
        <path id="Fill_27" data-name="Fill 27" class="cls-9" d="M19.2,0C14.78,1.69,10.3,3.04,5.481,2.492,3.993,4.082,2.011,4.573,0,5,1.131,7.146,3.268,6.922,5.091,6.927A34.418,34.418,0,0,0,17.485,4.319c1.578-.6,2.632-1.691,2.263-3.617C19.563.468,19.381.234,19.2,0" transform="translate(122.749 33.192)"/>
        <path id="Fill_29" data-name="Fill 29" class="cls-9" d="M2.161,11.313c2.407.9,4.083-.074,5.243-2.179.664-1.2,1.389-2.2,2.958-1.931,1.8-1.237,2.861-.717,3.211,1.4.088.535,0,1.117.63,1.384l2.125-1.227a5.576,5.576,0,0,0,.3-6.553C15.34.124,13.5-.6,11.171.533A18.61,18.61,0,0,0,9.991,2.4c-1.32,2.741-1.539,2.812-3.584.687A7.069,7.069,0,0,0,3.782,1.64C-.567,2.981-1.244,7.016,2.161,11.313" transform="translate(126.783 17.498)"/>
        <path id="Fill_31" data-name="Fill 31" class="cls-9" d="M11.482,90.176c1.193-2.116.9-4.362.406-6.554-.357-1.6.119-2.322,1.694-2.348,14.463-.237,27.755-6.1,41.677-8.936,7.161-1.462,13.1-5.658,17.954-11.085,9.1-10.192,18.03-20.548,26.883-30.964,4-4.7,6.844-10.2,9.437-15.807A104.953,104.953,0,0,1,115.9,2.346,5.464,5.464,0,0,0,112.841,0a70.219,70.219,0,0,0-6.391,11.8A81.186,81.186,0,0,1,91.039,34.97c-6.257,6.642-12.014,13.723-17.916,20.678C66.633,63.293,58.689,68.3,48.7,69.9a87.345,87.345,0,0,0-14.746,3.929c-7.254,2.52-14.874,2.79-22.378,3.793-1.423.191-1.511-.725-1.763-1.589a28.821,28.821,0,0,0-3.639-7.54C1.445,69.235.535,70.369.845,75.036a51.3,51.3,0,0,1-.724,9.7c-.429,3.5.177,4.225,3.536,4.209,2.692-.013,5.18,1.068,7.825,1.227" transform="translate(150.732 204.577)"/>
        <path id="Fill_33" data-name="Fill 33" class="cls-9" d="M5.23,87.719c16.2-4.784,31.09-12.946,46.983-18.5,5.15-1.8,10.566-2.832,15.677-4.724,8.633-3.2,15.484-9.305,22.708-14.833,9.361-7.16,16.7-16.075,23.236-25.778,3.058-4.536,7.028-8.177,11.128-11.679,3.388-2.9,6.8-5.758,9.909-8.969C134.505,1.565,133.257.728,131.894,0c-3.292,3.839-7.287,6.9-11.146,10.086-7.5,6.2-12.215,14.724-18.368,22.044A110.634,110.634,0,0,1,67.9,59.817C62.928,62.358,57.266,62.963,52,64.73c-10.807,3.631-21.03,8.7-31.576,12.968C13.739,80.4,6.817,82.517,0,84.9a10.915,10.915,0,0,0,5.23,2.821" transform="translate(68.72 15.62)"/>
        <path id="Fill_35" data-name="Fill 35" class="cls-9" d="M3.49,66.89C4.512,60.836,5.5,54.775,6.568,48.728a95.942,95.942,0,0,1,4.554-16.969,15.985,15.985,0,0,0,1.325-5.407c.042-7.006,1.939-13.585,4.278-20.076,0-2.563-1.871-4.228-2.942-6.276C12.6,8.563,8.229,16.461,8.637,25.37a8.58,8.58,0,0,1-.652,3.28C3.926,39.479,1.882,50.766.436,62.2A18.986,18.986,0,0,1,0,64.1,9.388,9.388,0,0,0,3.49,66.89" transform="translate(276.094 95.126)"/>
        <path id="Fill_37" data-name="Fill 37" class="cls-9" d="M35.341,13.1a69.842,69.842,0,0,1-21.5-2.393c-2.082-.535-2.966-1.4-2.147-3.663A21.2,21.2,0,0,0,12.7.458C10.293-.293,7.819.112,5.382.086c-1.876-.019-2.742,1.475-3,3.1-.447,2.795-4.324,5.534-1.133,8.277a31.545,31.545,0,0,0,8.312,5.265c0-2.215.689-2.676,3.008-2.021C21.2,17.139,30,18.326,38.982,16.963L35.341,13.1" transform="translate(0.366 94.103)"/>
        <path id="Fill_39" data-name="Fill 39" class="cls-10" d="M117.866,3.136c-3.113-.128-5.6-1.952-8.327-3.136.369,1.925-.686,3.013-2.263,3.617a34.425,34.425,0,0,1-12.4,2.608c-1.821-.005-3.958.218-5.09-1.931l-2.045-.27c-1.8,4.326-5.061,5.906-9.634,6.693-6.911,1.188-13.9,1.11-20.789,2.181C49.576,14.1,42.816,17.6,36.306,21.787c-5.687,3.654-11.34,7.377-17.177,10.772C12.387,36.477,7.787,42.293,3.924,48.887a20.683,20.683,0,0,1-1.3,1.779,5.976,5.976,0,0,1-.232,1.078c-2.938,7.238-3.55,14.435.36,21.559q1.821,1.935,3.642,3.868c4.874,3.618,9.373,7.782,14.9,10.447l-.052-.04.581.319a73.692,73.692,0,0,0,27.667,4.231c7.51-.339,15-1.13,21.916-4.556-.244-3.491-1.333-6.931-.6-10.479-1.49-1.581-3.537-1.653-5.417-1.71-8.553-.262-16.4-3.388-24.388-5.939a10.924,10.924,0,0,1-5.23-2.82c-4.548-2.086-5.785-6.3-3.234-10.541,2.594-4.313,6.33-7.178,10.7-9.43,5.67-2.921,11.375-5.778,16.016-10.4a20,20,0,0,1,7.531-4.641,42.932,42.932,0,0,0,7.206-3.339C79,25.4,84.231,22.848,89.055,19.6c4.7-3.169,9.6-5.959,15.174-7.332a7.732,7.732,0,0,0,4.249-2.975,11.6,11.6,0,0,1,5.839-4.065,7.207,7.207,0,0,0,3.55-2.087" transform="translate(32.958 33.895)"/>
        <path id="Fill_41" data-name="Fill 41" class="cls-10" d="M0,72.158a22.4,22.4,0,0,0,9.592.343c8.978-1.588,17.891-3.533,25.64-8.837,7.787-8.216,10.534-18.52,11.462-29.818,4,2.676,7.472,5.13,11.073,7.376a44.484,44.484,0,0,1,10.689,9.235c6.291,7.5,14.564,11.9,23.668,14.825,8.955,2.877,17.9,1.18,26.834-.29,9.342-1.536,18.184-4.817,27.027-8.022,2.22-.8,5.073-1.666,5.451-4.915a34.116,34.116,0,0,1-4.605-9.587,1.8,1.8,0,0,1,1.367-2.348c-6.8-.757-13.305,1.395-19.953,2.125-5.128.562-10.244,1.528-15.393,1.408a19.34,19.34,0,0,1-14.864-7.514c-7.33-9-14.408-18.21-21.7-27.244A31.428,31.428,0,0,0,65.755,0C61.6,6.718,57.025,13.162,52.729,19.782c-9.965,15.353-21.354,29.593-37.216,39.36-.555,2.457-.227,4.878-2.721,7.019A27.941,27.941,0,0,1,0,72.158" transform="translate(122.766 45.132)"/>
        <path id="Fill_43" data-name="Fill 43" class="cls-11" d="M34.77,6.758a3.1,3.1,0,0,0-4.065.4c-4,3.49-8.785,4.059-13.74,3.855-2.476-.1-4.933-.453-7.576.57C9.959,9.3,10.5,7.369,10.9,5.408a9.274,9.274,0,0,0,.089-2.772C10.854,1.364,10.32.257,8.9.034A2.258,2.258,0,0,0,6.266,1.978C5.231,6.349,2.685,9.874.248,13.472c-.729,3.546.36,6.987.6,10.478a68.169,68.169,0,0,0,11.2-3.179,4.733,4.733,0,0,1,2.982-.4l4.222-.6a27.939,27.939,0,0,0,12.792-6c2.494-2.142,2.166-4.563,2.721-7.02" transform="translate(103.508 97.516)"/>
        <path id="Fill_45" data-name="Fill 45" class="cls-11" d="M6.682.057C5.041.64,3.385,1.184,1.766,1.822.638,2.268-.428,3.493.174,4.365c1.612,2.332.745,5.74,3.377,7.526C.55,13.574.71,13.485,2.6,16.71c.835,1.429.97,3.234,3.192,3.028,1.22-.438,2.455-.838,3.657-1.321a6.443,6.443,0,0,0,3.587-8.858c-.795-1.7.037-3.325-.3-5.058C12.047.979,11.623.164,8.066,0c-.46-.021-.922.032-1.384.052" transform="translate(283.957 74.728)"/>
        <path id="Fill_47" data-name="Fill 47" class="cls-11" d="M5.9,25.534A12.283,12.283,0,0,1,7.226,25.2c4.588-.638,4.372-.64,4.507-5.283.11-3.778.592-7.539.482-11.346A19.638,19.638,0,0,0,10.62.745C9.914.426,9.273-.487,8.418.333A3.555,3.555,0,0,0,7.28,3.619C7.5,5.072,8.2,6.44,7.835,8.01,6.9,12,5.661,13.145,1.478,13.651A1.8,1.8,0,0,0,.108,16a34.139,34.139,0,0,0,4.6,9.589L5.9,25.534" transform="translate(269.488 71.603)"/>
        <path id="Fill_49" data-name="Fill 49" class="cls-11" d="M14.956,6.833a9.529,9.529,0,0,0-.077-5.23L12.754,2.832a2.436,2.436,0,0,1-.737,3.407,1.136,1.136,0,0,1-1.511-.146c-.653-.65.007-.787.477-1.112,2.136-1.475-1.977-1.278-.737-2.738.483-.568-.359-.54-.758-.552C7.993,1.65,7.993,1.65,8.912.044,7.346-.222,6.619.769,5.955,1.973,4.8,4.08,3.119,5.048.712,4.154A7.967,7.967,0,0,1,0,11.027c4.817.548,9.3-.8,13.718-2.492q.619-.852,1.239-1.7" transform="translate(128.231 24.657)"/>
        <path id="Fill_51" data-name="Fill 51" class="cls-11" d="M0,4.429A7.066,7.066,0,0,1,2.625,5.878C4.669,8,4.888,7.932,6.209,5.191a18.526,18.526,0,0,1,1.18-1.87A16.555,16.555,0,0,1,3.2,0C2.272,1.667,1.489,3.331,0,4.429" transform="translate(130.565 14.709)"/>
        <path id="Fill_53" data-name="Fill 53" class="cls-12" d="M29.588,37.761l2.045.27c2.011-.425,3.991-.916,5.481-2.505a7.97,7.97,0,0,0,.712-6.875c-3.4-4.3-2.728-8.331,1.621-9.672,1.489-1.1,2.273-2.763,3.2-4.43a16.526,16.526,0,0,0,4.192,3.323c2.327-1.133,4.169-.408,5.46,1.678a5.574,5.574,0,0,1-.3,6.552,9.534,9.534,0,0,1,.077,5.231,11.389,11.389,0,0,0,9.387-3.209,6.052,6.052,0,0,1,4.4-1.857A10.354,10.354,0,0,0,74.9,21.2a5.379,5.379,0,0,0-.282-6.492,5.7,5.7,0,0,0-6.744-1.466c-.991.49-1.946,1.057-2.911,1.6-3.555,2.006-5.951.942-7.1-2.913C56.361,6.92,53.746,2.884,48.621.775,44.5-.919,40.82.522,37.063,1.7a5.337,5.337,0,0,1-2.9.48C26.342.453,20.148,3.727,14.5,8.722c-2.671,2.365-3.283,5.658-3.448,8.879a7.065,7.065,0,0,1-4.24,6.347c-3.33,1.694-5.159,4.583-6.369,7.809-2.072,5.521,3.384,11.507,9.5,10.578A29.794,29.794,0,0,0,20.864,38.53a9.088,9.088,0,0,1,8.724-.769" transform="translate(91.116 0.159)"/>
        <path id="Fill_55" data-name="Fill 55" class="cls-11" d="M14.676,204.646a116.592,116.592,0,0,0,13.872-18.494c7.62-12.615,14.35-25.743,21.553-38.6,8.016-14.3,10.315-29.881,11.875-45.811a229.311,229.311,0,0,0-.524-48.086c-.164-1.461.131-2.969.042-4.445s-.394-2.964-.718-5.242a53.729,53.729,0,0,0,4.982,3.474A101.121,101.121,0,0,0,99.922,58.352c9.607,1.3,18.922,3.463,28.321,5.605,7.345,1.675,11.84,6.409,15.694,12.3a6.9,6.9,0,0,1,1.093.823,89.153,89.153,0,0,0,18.182,16.029,5.831,5.831,0,0,1,2.724,2.668,5.479,5.479,0,0,1,3.059,2.345,163.88,163.88,0,0,1,14.9,10.97c4.749,3.374,9.508,6.736,14.247,10.125,14.528,10.387,30.653,16.979,47.974,20.733,1.139-1.078,2.244-2.2,3.426-3.226,2.1-1.818,4.161-3.644,5.18-6.353a12.569,12.569,0,0,0-3.979-6.561c-11.181-10.987-21.385-22.927-32.447-34.03a6.432,6.432,0,0,1-.583-.6,174.515,174.515,0,0,0-20.3-22.1c-.756-.655-1.523-1.3-2.265-1.964q-6.606-5.945-13.2-11.9a9.4,9.4,0,0,1-3.49-2.793q-9.512-6.876-19.02-13.756c-.794-.45-1.634-.836-2.385-1.359C136.909,21.261,114.958,11.493,90.8,7.281A260.2,260.2,0,0,1,60.36,0C52.61,5.3,43.7,7.249,34.719,8.837a22.363,22.363,0,0,1-9.593-.343l-4.222.6c-10.123,11.162-10.893,23.935-6.2,37.582,1.751,5.089,5.1,9.583,5.6,15.149a22.635,22.635,0,0,1,.207,3.623c-1.1,14.977.064,29.817,1.926,44.694a63.781,63.781,0,0,1-5.019,34.935c-6.27,13.978-12.5,28.145-15.771,43.3C.923,191.725-.2,195.044.032,198.562c1.252.569,2.559,1.043,3.749,1.722,3.439,1.964,7.626,1.985,10.895,4.362" transform="translate(97.639 108.796)"/>
      </g>
      <g id="Group_64" data-name="Group 64" transform="translate(97 110)">
        <g id="Group_60" data-name="Group 60">
          <path id="Clip_59-2" data-name="Clip 59" class="cls-1" d="M34.912,8.822a22.684,22.684,0,0,1-9.645-.342h0l-4.247.594h0C10.842,20.216,10.068,32.967,14.788,46.591h0c1.759,5.081,5.126,9.567,5.628,15.122h0a22.309,22.309,0,0,1,.208,3.618h0c-1.106,14.951.065,29.765,1.937,44.616h0a63.245,63.245,0,0,1-5.047,34.876h0c-6.3,13.953-12.567,28.1-15.859,43.229h0C.927,191.395-.207,194.708.033,198.22h0c1.259.567,2.572,1.04,3.769,1.719h0c3.458,1.959,7.669,1.98,10.955,4.354h0a116.464,116.464,0,0,0,13.95-18.463h0c7.664-12.595,14.43-25.7,21.674-38.53h0c8.061-14.279,10.372-29.829,11.943-45.732h0a227.338,227.338,0,0,0-.528-48h0c-.165-1.46.132-2.964.042-4.437h0c-.091-1.486-.4-2.959-.72-5.234h0a54.07,54.07,0,0,0,5.009,3.469h0A102.192,102.192,0,0,0,100.479,58.25h0c9.661,1.3,19.027,3.458,28.479,5.6h0c7.386,1.671,11.9,6.4,15.781,12.283h0a6.88,6.88,0,0,1,1.1.822h0a89.525,89.525,0,0,0,18.283,16h0a5.831,5.831,0,0,1,2.739,2.663h0a5.5,5.5,0,0,1,3.076,2.341h0a164.484,164.484,0,0,1,14.981,10.951h0q7.164,5.051,14.328,10.107h0c14.608,10.367,30.823,16.95,48.241,20.7h0c1.147-1.078,2.257-2.2,3.446-3.221h0c2.105-1.816,4.183-3.638,5.209-6.344h0a12.545,12.545,0,0,0-4-6.548h0c-11.245-10.97-21.505-22.889-32.629-33.973h0a6.43,6.43,0,0,1-.586-.6h0a174.615,174.615,0,0,0-20.412-22.066h0c-.76-.654-1.531-1.293-2.277-1.96h0q-6.642-5.933-13.276-11.876h0a9.436,9.436,0,0,1-3.509-2.787h0q-9.566-6.866-19.126-13.732h0c-.8-.449-1.643-.836-2.4-1.357h0C137.672,21.225,115.6,11.473,91.3,7.267h0A263.108,263.108,0,0,1,60.7,0h0C52.9,5.295,43.939,7.235,34.912,8.822" transform="translate(0.744 0.052)"/>
          <g id="Group_60-2" data-name="Group 60" class="cls-13">
            <path id="Fill_58" data-name="Fill 58" class="cls-14" d="M37.549,174.151a11.564,11.564,0,0,1-3.288-.483c-1.575-.467-2.448-1.412-2.395-2.591a6.317,6.317,0,0,1,.4-1.834,3.4,3.4,0,0,1,.923-1.439,5.732,5.732,0,0,1,3.33-1.036c.274-.025.563-.037.857-.037a12.952,12.952,0,0,1,1.828.139,6.728,6.728,0,0,1,3.712,1.471,3.038,3.038,0,0,1,.94,2.784,2.791,2.791,0,0,1-1.74,2.11A12.187,12.187,0,0,1,37.549,174.151Zm35.772-4.475h0A11.342,11.342,0,0,1,65.695,167a2.949,2.949,0,0,1-.863-2.526,2.587,2.587,0,0,1,1.378-1.932,12.157,12.157,0,0,1,1.5-.621c.159-.057.3-.106.406-.15a14.073,14.073,0,0,1,3.083-.336,20.161,20.161,0,0,1,6.057,1.036c1.321.414,2.622.967,2.759,2.734.115,1.477-.566,2.542-2.208,3.455A9.308,9.308,0,0,1,73.321,169.676Zm33.993-15.317a5.976,5.976,0,0,1-1.121-.118c-3.772-.726-6.721-3.063-9.017-7.144a1.776,1.776,0,0,1-.1-1.72,1.917,1.917,0,0,1,1.6-.946c.154-.013.316-.019.483-.019a11.78,11.78,0,0,1,1.835.183c.229.036.425.067.584.082q.476.164.937.319c2.715.918,5.06,1.71,6.688,3.779a3.658,3.658,0,0,1,.546,4.26A2.544,2.544,0,0,1,107.314,154.358Zm25.671-2.091a15.449,15.449,0,0,1-7.208-2.029c-1.06-.56-2.082-1.234-1.925-2.758.131-1.277.875-2.078,2.414-2.6a6.857,6.857,0,0,1,2.2-.331,11.1,11.1,0,0,1,4.461,1.006,8.365,8.365,0,0,1,3.4,2.625,2.551,2.551,0,0,1,.344,2.284A2.238,2.238,0,0,1,135.2,151.9a10.72,10.72,0,0,1-1.374.294c-.146.024-.27.045-.37.065C133.3,152.264,133.14,152.267,132.984,152.267Zm-105.714-7.09h0a8.281,8.281,0,0,1-3.545-.711,3.652,3.652,0,0,1-2.436-3.533c.041-1.316.894-2.2,2.61-2.711a11.756,11.756,0,0,1,3.34-.495,14.349,14.349,0,0,1,7.939,2.689,1.773,1.773,0,0,1,.873,1.482,1.921,1.921,0,0,1-.986,1.577,9.829,9.829,0,0,1-2.13.922c-.22.074-.41.137-.56.2-.333.049-.66.1-.982.149A27.8,27.8,0,0,1,27.271,145.177Zm47.613-1.445h0a17.49,17.49,0,0,1-5.245-.9c-1.144-.359-2.27-.838-2.389-2.368-.1-1.28.491-2.2,1.912-2.989a8.052,8.052,0,0,1,3.887-.877,9.817,9.817,0,0,1,6.6,2.312A2.551,2.551,0,0,1,80.4,141.1a2.242,2.242,0,0,1-1.192,1.676,10.718,10.718,0,0,1-1.3.538c-.138.049-.256.092-.351.129A12.19,12.19,0,0,1,74.883,143.732Zm127.124-9.681h0a14.919,14.919,0,0,1-7.439-2.77c-1-.661-1.951-1.432-1.644-2.936.255-1.256,1.074-1.979,2.657-2.345a6.318,6.318,0,0,1,1.417-.152c3.183,0,6.893,1.989,8.27,4.434a2.551,2.551,0,0,1,.116,2.308,2.237,2.237,0,0,1-1.606,1.279,10.632,10.632,0,0,1-1.4.156C202.236,134.033,202.109,134.041,202.007,134.051Zm-75.813-.148a8.507,8.507,0,0,1-4.4-1.13c-1.573-.916-2.217-1.987-2.026-3.37a3.141,3.141,0,0,1,2.985-2.8,8.648,8.648,0,0,1,1.392-.1,25.055,25.055,0,0,1,4,.441c.419.07.811.135,1.149.182,1.9.259,2.818,1.183,2.885,2.906a3.687,3.687,0,0,1-.554,2.227,2.875,2.875,0,0,1-1.852,1.2A16.8,16.8,0,0,1,126.194,133.9Zm36.278-3.029a7.235,7.235,0,0,1-2.673-.7,11.74,11.74,0,0,1-2.343-1.324,6.756,6.756,0,0,1-2.629-3.013,3.065,3.065,0,0,1,.356-2.8,2.782,2.782,0,0,1,2.3-1.2c.095,0,.192,0,.288.014a11.689,11.689,0,0,1,7.179,3.222c1.186,1.138,1.531,2.378.945,3.4a6.21,6.21,0,0,1-1.192,1.447,3.372,3.372,0,0,1-1.476.856A3.077,3.077,0,0,1,162.472,130.874ZM47.5,128.253h0c-.3,0-.618-.006-.936-.018-1.2-.048-2.407-.215-2.921-1.659-.429-1.209-.1-2.254,1.066-3.388a9.662,9.662,0,0,1,6.536-2.266,8.1,8.1,0,0,1,3.962.9,2.544,2.544,0,0,1,1.289,1.909,2.247,2.247,0,0,1-.716,1.934,10.521,10.521,0,0,1-1.114.858c-.123.085-.226.157-.308.218A14.388,14.388,0,0,1,47.5,128.253Zm178.969-.484a11.907,11.907,0,0,1-4.963-1.2,2.846,2.846,0,0,1-2.082-2.544,2.946,2.946,0,0,1,2.068-2.749,7.8,7.8,0,0,1,3.29-.75,9.545,9.545,0,0,1,5.191,1.735,2.552,2.552,0,0,1,1.251,1.9,2.768,2.768,0,0,1-1.026,2.24,6.861,6.861,0,0,1-1.52.965c-.185.095-.345.176-.476.255A10.457,10.457,0,0,1,226.466,127.769ZM81.188,126.011h0c-.273,0-.572-.016-.887-.046-2.72-.266-8.544-3.273-10.562-5.454-1.512-1.635-1.663-3.114-.521-5.106a4.092,4.092,0,0,1,3.406-2.227,3.083,3.083,0,0,1,1.349.314,78.829,78.829,0,0,1,9.481,5.455,3.432,3.432,0,0,1,1.457,2.315,4.752,4.752,0,0,1-.366,2.775A3.214,3.214,0,0,1,81.188,126.011Zm180.179-3.739a6.514,6.514,0,0,1-2.91-.966,11.7,11.7,0,0,1-2.206-1.541,6.763,6.763,0,0,1-2.332-3.25,3.046,3.046,0,0,1,.53-2.643,2.794,2.794,0,0,1,2.217-1.1,3,3,0,0,1,.563.054,11.715,11.715,0,0,1,6.842,3.892c1.073,1.247,1.3,2.514.62,3.477a6.252,6.252,0,0,1-1.325,1.329,3.384,3.384,0,0,1-1.55.711A2.943,2.943,0,0,1,261.367,122.273Zm-155.354-1.951h0a13.512,13.512,0,0,1-8.6-2.931,4.854,4.854,0,0,1-1.432-1.72,2.437,2.437,0,0,1-.022-2.092,7.27,7.27,0,0,1,1.217-1.794,3.922,3.922,0,0,1,1.606-1.145,3.721,3.721,0,0,1,1.267-.2,9.634,9.634,0,0,1,2.747.535,13.535,13.535,0,0,1,2.833,1.27,7.812,7.812,0,0,1,3.349,3.182,3.514,3.514,0,0,1-.191,3.392A3.219,3.219,0,0,1,106.013,120.322Zm133.229-7.539a2.6,2.6,0,0,1-.973-.21,25.528,25.528,0,0,1-5.681-3.125,13.579,13.579,0,0,1-4.2-4.864,4.851,4.851,0,0,1-.39-2.442,2.4,2.4,0,0,1,.6-1.474,2.3,2.3,0,0,1,1.48-.63c.116-.009.236-.014.356-.014a10.438,10.438,0,0,1,3.756.99c.306.122.594.238.885.346a16.86,16.86,0,0,1,3.392,1.648c2.652,1.738,3.678,3.989,3.134,6.88C241.445,110.758,240.886,112.783,239.241,112.783Zm-59-2.246h0a12.391,12.391,0,0,1-4.337-.734,4.847,4.847,0,0,1-1.965-1.493,2.389,2.389,0,0,1-.58-1.483,2.3,2.3,0,0,1,.635-1.482,9.431,9.431,0,0,1,3.636-2.144c.308-.125.6-.243.885-.367a16.928,16.928,0,0,1,3.586-1.163,9.351,9.351,0,0,1,1.71-.169,5.956,5.956,0,0,1,5.3,2.965,3.907,3.907,0,0,1,.754,2.987,2.072,2.072,0,0,1-1.316,1.27A22.78,22.78,0,0,1,180.246,110.537Zm-34.138-.2h0a10.44,10.44,0,0,1-6.814-2.86,2.951,2.951,0,0,1-1.143-2.374,3.193,3.193,0,0,1,1.518-2.4,7.961,7.961,0,0,1,1.9-.874c.224-.079.416-.147.576-.215.144,0,.288-.007.429-.007a12.993,12.993,0,0,1,7.078,2.243c1.034.638,2.195,1.583,2,3.232-.164,1.375-1.076,2.3-2.789,2.83A9.287,9.287,0,0,1,146.108,110.333ZM19.775,110c-1.6,0-2.761-1.042-3.887-2.05l-.351-.313c-1.122-.99-2.583-2.309-3.934-3.736-.959-1.011-1.829-2.547-.53-4.122a2.751,2.751,0,0,1,2.2-1.07,4.9,4.9,0,0,1,1.976.485,12.548,12.548,0,0,1,4.238,3,12.114,12.114,0,0,1,2.537,4.388,3.128,3.128,0,0,1-.272,2.546,2.074,2.074,0,0,1-1.576.853A3.9,3.9,0,0,1,19.775,110Zm29.4-1.794h0a6.93,6.93,0,0,1-2.776-.8,11.684,11.684,0,0,1-2.288-1.413,6.76,6.76,0,0,1-2.512-3.112,3.037,3.037,0,0,1,.43-2.739A2.786,2.786,0,0,1,44.3,98.987a3.041,3.041,0,0,1,.4.027,11.7,11.7,0,0,1,7.05,3.5,4.206,4.206,0,0,1,1.034,1.639,2.108,2.108,0,0,1-.219,1.8,6.26,6.26,0,0,1-1.247,1.4,3.361,3.361,0,0,1-1.508.8A3.007,3.007,0,0,1,49.18,108.211Zm161.042-.286c-.309,0-.613-.013-.874-.025a11.6,11.6,0,0,1-2.65-.461,6.726,6.726,0,0,1-3.484-1.955,3.041,3.041,0,0,1-.56-2.886,2.79,2.79,0,0,1,2.005-1.857,12.67,12.67,0,0,1,3.108-.4,11.471,11.471,0,0,1,4.732,1.022c1.5.673,2.238,1.726,2.029,2.887a6.281,6.281,0,0,1-.642,1.767,3.373,3.373,0,0,1-1.1,1.3A4.556,4.556,0,0,1,210.222,107.925Zm-127.9-8.647h0a5.181,5.181,0,0,1-1.209-.161c-3.241-.779-6.6-4.821-6.775-8.161a2.539,2.539,0,0,1,.686-1.9,2.233,2.233,0,0,1,2.239-.643,10.509,10.509,0,0,1,1.327.487c.133.056.247.1.343.141a14.972,14.972,0,0,1,5.432,5.8c.6,1.038,1.111,2.153.17,3.363A2.646,2.646,0,0,1,82.318,99.278Zm45.371-5.917a11.335,11.335,0,0,1-7.624-2.673,2.944,2.944,0,0,1-.863-2.522,2.589,2.589,0,0,1,1.378-1.935,12.161,12.161,0,0,1,1.512-.625c.157-.056.29-.1.4-.146a14.085,14.085,0,0,1,3.082-.335,20.181,20.181,0,0,1,6.058,1.036c1.321.414,2.622.966,2.76,2.734.114,1.478-.567,2.544-2.209,3.454A9.309,9.309,0,0,1,127.689,93.361Zm99.258-.665a11.833,11.833,0,0,1-1.2-.077c-.143-.015-.267-.027-.369-.034a14.935,14.935,0,0,1-6.889-3.95c-.88-.816-1.693-1.732-1.146-3.165.457-1.2,1.383-1.778,3-1.88.114-.007.231-.011.348-.011a9.453,9.453,0,0,1,5.071,1.773,9,9,0,0,1,3.444,4.049,2.552,2.552,0,0,1-.262,2.3,2.232,2.232,0,0,1-1.791,1C227.085,92.7,227.016,92.7,226.947,92.7Zm-35.963-1.859h0a17.478,17.478,0,0,1-5.245-.9c-1.143-.358-2.269-.836-2.389-2.368-.1-1.279.49-2.2,1.911-2.989a8.054,8.054,0,0,1,3.887-.877,9.817,9.817,0,0,1,6.6,2.314,2.547,2.547,0,0,1,.746,2.183A2.24,2.24,0,0,1,195.3,89.88a10.543,10.543,0,0,1-1.3.538c-.139.049-.257.092-.351.129A12.186,12.186,0,0,1,190.984,90.837ZM31.012,88.092h0a8.287,8.287,0,0,1-3.546-.711,3.651,3.651,0,0,1-2.435-3.533c.041-1.316.894-2.2,2.608-2.711a11.754,11.754,0,0,1,3.341-.495,14.354,14.354,0,0,1,7.94,2.689,1.774,1.774,0,0,1,.873,1.483,1.921,1.921,0,0,1-.986,1.576,9.85,9.85,0,0,1-2.132.922c-.219.073-.409.137-.559.2-.334.049-.661.1-.984.149A27.793,27.793,0,0,1,31.012,88.092Zm219.821-1.166c-.3,0-.621-.006-.941-.019-1.2-.046-2.408-.212-2.921-1.66-.43-1.207-.1-2.251,1.065-3.385a9.659,9.659,0,0,1,6.535-2.265,8.111,8.111,0,0,1,3.963.9,2.547,2.547,0,0,1,1.288,1.911,2.244,2.244,0,0,1-.714,1.93,10.645,10.645,0,0,1-1.128.868c-.118.082-.216.15-.295.209A14.364,14.364,0,0,1,250.833,86.926Zm-90.549-.189a12.051,12.051,0,0,1-4.959-1.2,2.851,2.851,0,0,1-2.082-2.544,2.951,2.951,0,0,1,2.069-2.748,7.81,7.81,0,0,1,3.291-.75,9.538,9.538,0,0,1,5.19,1.735,2.55,2.55,0,0,1,1.253,1.9,2.765,2.765,0,0,1-1.026,2.239,6.9,6.9,0,0,1-1.531.971c-.181.092-.336.172-.466.248A10.448,10.448,0,0,1,160.284,86.738Zm-53.448-3.725h0a10.789,10.789,0,0,1-3.666-.905c-.311-.116-.6-.225-.893-.326a16.811,16.811,0,0,1-3.427-1.568c-2.692-1.677-3.768-3.9-3.29-6.807.146-.887.665-2.95,2.345-2.95a2.636,2.636,0,0,1,.932.189,25.485,25.485,0,0,1,5.751,2.994,13.57,13.57,0,0,1,4.3,4.767,4.857,4.857,0,0,1,.446,2.432,2.388,2.388,0,0,1-.57,1.488,2.286,2.286,0,0,1-1.465.663A4.671,4.671,0,0,1,106.836,83.013ZM66.288,71.466h0a17.473,17.473,0,0,1-5.244-.9c-1.144-.359-2.27-.837-2.389-2.368-.1-1.278.489-2.2,1.911-2.991a8.055,8.055,0,0,1,3.885-.875,9.826,9.826,0,0,1,6.6,2.313,2.552,2.552,0,0,1,.746,2.185,2.242,2.242,0,0,1-1.192,1.675,10.686,10.686,0,0,1-1.3.537c-.138.049-.257.092-.352.13A12.2,12.2,0,0,1,66.288,71.466Zm116.238-1.117h0c-.053,0-.107,0-.158,0a5.621,5.621,0,0,1-3.092-1.612,11.732,11.732,0,0,1-1.84-1.966,6.8,6.8,0,0,1-1.609-3.667,3.053,3.053,0,0,1,.842-2.263,2.809,2.809,0,0,1,2.038-.884,2.879,2.879,0,0,1,1.123.232,11.728,11.728,0,0,1,5.886,5.233c.465.848,1.068,2.435-.113,3.532a6.235,6.235,0,0,1-1.571,1.022A3.447,3.447,0,0,1,182.526,70.348Zm30.553-1.419a8.367,8.367,0,0,1-2.376-.463,11.638,11.638,0,0,1-2.453-1.1,6.747,6.747,0,0,1-2.9-2.754,3.041,3.041,0,0,1,.166-2.936,2.787,2.787,0,0,1,2.4-1.3,11.7,11.7,0,0,1,7.447,2.538A4.2,4.2,0,0,1,216.6,64.4a2.11,2.11,0,0,1,.019,1.811,6.228,6.228,0,0,1-1.054,1.553,3.376,3.376,0,0,1-1.389.989A3.217,3.217,0,0,1,213.079,68.93ZM137.6,66.292h0a8.284,8.284,0,0,1-3.546-.711,3.65,3.65,0,0,1-2.436-3.533c.041-1.316.894-2.2,2.61-2.711a11.76,11.76,0,0,1,3.339-.494,14.36,14.36,0,0,1,7.941,2.688,1.775,1.775,0,0,1,.872,1.483,1.923,1.923,0,0,1-.986,1.577,9.889,9.889,0,0,1-2.129.921c-.22.074-.411.138-.561.2-.331.049-.656.1-.975.148l-.011,0A27.82,27.82,0,0,1,137.6,66.292Zm99.9-.9h0a2.8,2.8,0,0,1-.432-.034,67.927,67.927,0,0,1-9.218-2.131,3.507,3.507,0,0,1-2.178-3.94c.2-1.5,1.08-2.276,3.035-2.668a7.316,7.316,0,0,1,1.4-.113,21.666,21.666,0,0,1,8.711,1.973,3.267,3.267,0,0,1,1.71,4.1,4.063,4.063,0,0,1-1.08,1.987A2.759,2.759,0,0,1,237.5,65.388ZM34.291,62.378a8.506,8.506,0,0,1-4.4-1.13c-1.573-.917-2.217-1.988-2.025-3.369a3.14,3.14,0,0,1,2.985-2.8,8.642,8.642,0,0,1,1.392-.1,25.079,25.079,0,0,1,3.988.438c.422.07.819.136,1.161.183,1.9.261,2.818,1.185,2.884,2.908a3.686,3.686,0,0,1-.554,2.226,2.88,2.88,0,0,1-1.852,1.2A16.828,16.828,0,0,1,34.291,62.378Zm72.279-4.991a15.816,15.816,0,0,1-6.791-1.738c-1.083-.514-2.133-1.145-2.038-2.677.077-1.278.788-2.11,2.306-2.7a7.1,7.1,0,0,1,2.553-.429c2.955,0,6.166,1.392,7.634,3.311a2.552,2.552,0,0,1,.437,2.268,2.237,2.237,0,0,1-1.411,1.491,10.655,10.655,0,0,1-1.364.352c-.143.03-.266.055-.366.079C107.212,57.374,106.89,57.387,106.57,57.387Zm-97.215-.4c-1.6,0-2.761-1.042-3.887-2.05l-.008-.007-.345-.307c-1.121-.989-2.582-2.308-3.935-3.736C.222,49.879-.648,48.343.651,46.77a2.755,2.755,0,0,1,2.2-1.071,4.905,4.905,0,0,1,1.976.485,12.556,12.556,0,0,1,4.235,3A12.124,12.124,0,0,1,11.6,53.57a3.126,3.126,0,0,1-.27,2.545,2.078,2.078,0,0,1-1.577.855A3.875,3.875,0,0,1,9.355,56.991Zm158.482-7.564c-1.6,0-2.758-1.04-3.883-2.046-.119-.107-.238-.212-.357-.317-1.2-1.056-2.6-2.325-3.934-3.736-.958-1.012-1.827-2.548-.528-4.122a2.754,2.754,0,0,1,2.2-1.07,4.916,4.916,0,0,1,1.978.485,12.554,12.554,0,0,1,4.235,3,12.118,12.118,0,0,1,2.537,4.389,3.121,3.121,0,0,1-.268,2.544,2.074,2.074,0,0,1-1.577.854A3.9,3.9,0,0,1,167.837,49.426Zm26.3-.671h0a2.059,2.059,0,0,1-1.027-.279,6.209,6.209,0,0,1-1.453-1.189,3.4,3.4,0,0,1-.86-1.475,5.786,5.786,0,0,1,.585-3.447,11.772,11.772,0,0,1,1.306-2.356,6.754,6.754,0,0,1,2.99-2.656,3.12,3.12,0,0,1,1.08-.195,2.964,2.964,0,0,1,2.185.951,2.811,2.811,0,0,1,.72,2.175,11.764,11.764,0,0,1-3.168,7.221A3.424,3.424,0,0,1,194.135,48.755ZM67.22,47.125a10.771,10.771,0,0,1-3.657-.9c-.312-.116-.605-.226-.9-.328a16.784,16.784,0,0,1-3.427-1.569c-2.692-1.677-3.768-3.9-3.29-6.807.145-.887.665-2.949,2.344-2.949a2.637,2.637,0,0,1,.933.189c5.014,1.909,8.4,4.52,10.057,7.76a4.878,4.878,0,0,1,.446,2.432,2.394,2.394,0,0,1-.571,1.487,2.283,2.283,0,0,1-1.465.663A4.685,4.685,0,0,1,67.22,47.125Zm179.358-.154a8.5,8.5,0,0,1-4.4-1.13c-1.572-.917-2.215-1.987-2.025-3.369a3.142,3.142,0,0,1,2.985-2.8,8.643,8.643,0,0,1,1.392-.1,25.056,25.056,0,0,1,4,.441c.416.07.808.135,1.145.181,1.9.259,2.819,1.183,2.888,2.906a3.073,3.073,0,0,1-2.406,3.425A16.878,16.878,0,0,1,246.577,46.97Zm-112.59-4.639h0a2.616,2.616,0,0,1-.956-.2,25.491,25.491,0,0,1-5.711-3.07,13.57,13.57,0,0,1-4.24-4.825,4.858,4.858,0,0,1-.415-2.437,2.4,2.4,0,0,1,.59-1.48,2.3,2.3,0,0,1,1.473-.643c.132-.012.268-.017.4-.017a10.558,10.558,0,0,1,3.707.95c.311.121.606.235.9.341a16.826,16.826,0,0,1,3.4,1.615c2.67,1.713,3.716,3.954,3.2,6.851C136.188,40.291,135.647,42.331,133.987,42.331Zm89.4-2.53h0a9.9,9.9,0,0,1-7.734-4.018,4.175,4.175,0,0,1-.615-3.3,2.423,2.423,0,0,1,1.18-1.627,8.31,8.31,0,0,1,1.341-.513c.134-.042.25-.078.345-.112a9.14,9.14,0,0,1,1.3-.093,13.923,13.923,0,0,1,6.648,2.008,3.721,3.721,0,0,1,2.335,3.4,3.572,3.572,0,0,1-2.015,3.589A5.637,5.637,0,0,1,223.385,39.8ZM98.959,38.247c-.067,0-.136,0-.205-.008a9.83,9.83,0,0,1-2.265-.536c-.218-.072-.405-.134-.56-.175q-.446-.241-.88-.47c-2.53-1.343-4.715-2.5-5.989-4.806A3.658,3.658,0,0,1,89.2,27.96a2.445,2.445,0,0,1,2.01-.966,4.935,4.935,0,0,1,1.7.349c3.6,1.327,6.141,4.109,7.753,8.507a1.774,1.774,0,0,1-.147,1.667A1.847,1.847,0,0,1,98.959,38.247Zm57.6-17.289a6,6,0,0,1-1.118-.117c-3.771-.727-6.721-3.064-9.017-7.145a1.775,1.775,0,0,1-.1-1.721,1.915,1.915,0,0,1,1.6-.944c.154-.013.318-.02.486-.02a11.745,11.745,0,0,1,1.829.182c.229.036.426.067.586.083q.479.165.944.321c2.713.917,5.056,1.708,6.682,3.776a3.657,3.657,0,0,1,.546,4.26A2.547,2.547,0,0,1,156.561,20.958ZM184.8,17.651h0a8.282,8.282,0,0,1-3.549-.712,3.644,3.644,0,0,1-2.435-3.532c.041-1.315.894-2.2,2.608-2.711a11.76,11.76,0,0,1,3.339-.494,14.365,14.365,0,0,1,7.942,2.688,1.776,1.776,0,0,1,.872,1.484,1.922,1.922,0,0,1-.986,1.576,9.91,9.91,0,0,1-2.133.922c-.22.074-.409.137-.558.2-.33.049-.655.1-.974.148h-.008A27.784,27.784,0,0,1,184.8,17.651Zm47.612-1.445a17.5,17.5,0,0,1-5.247-.9c-1.143-.357-2.269-.834-2.389-2.367-.1-1.278.49-2.2,1.911-2.99a8.057,8.057,0,0,1,3.887-.876,9.815,9.815,0,0,1,6.6,2.314,2.549,2.549,0,0,1,.747,2.184,2.241,2.241,0,0,1-1.193,1.675,10.551,10.551,0,0,1-1.3.536c-.139.05-.259.093-.354.131A12.191,12.191,0,0,1,232.412,16.206Zm-20.895-7.97h0a11.349,11.349,0,0,1-7.628-2.672,2.944,2.944,0,0,1-.862-2.523,2.589,2.589,0,0,1,1.378-1.936,12.061,12.061,0,0,1,1.506-.622c.157-.056.293-.1.4-.148A14.093,14.093,0,0,1,209.395,0a20.21,20.21,0,0,1,6.06,1.035c1.32.414,2.621.966,2.758,2.735.115,1.477-.566,2.542-2.208,3.454A9.3,9.3,0,0,1,211.517,8.236Z" transform="translate(-36.127 -82.444)"/>
          </g>
        </g>
        <g id="Group_63" data-name="Group 63">
          <path id="Clip_62-2" data-name="Clip 62" class="cls-1" d="M34.912,8.822a22.684,22.684,0,0,1-9.645-.342h0l-4.247.594h0C10.842,20.216,10.068,32.967,14.788,46.591h0c1.759,5.081,5.126,9.567,5.628,15.122h0a22.309,22.309,0,0,1,.208,3.618h0c-1.106,14.951.065,29.765,1.937,44.616h0a63.245,63.245,0,0,1-5.047,34.876h0c-6.3,13.953-12.567,28.1-15.859,43.229h0C.927,191.395-.207,194.708.033,198.22h0c1.259.567,2.572,1.04,3.769,1.719h0c3.458,1.959,7.669,1.98,10.955,4.354h0a116.464,116.464,0,0,0,13.95-18.463h0c7.664-12.595,14.43-25.7,21.674-38.53h0c8.061-14.279,10.372-29.829,11.943-45.732h0a227.338,227.338,0,0,0-.528-48h0c-.165-1.46.132-2.964.042-4.437h0c-.091-1.486-.4-2.959-.72-5.234h0a54.07,54.07,0,0,0,5.009,3.469h0A102.192,102.192,0,0,0,100.479,58.25h0c9.661,1.3,19.027,3.458,28.479,5.6h0c7.386,1.671,11.9,6.4,15.781,12.283h0a6.88,6.88,0,0,1,1.1.822h0a89.525,89.525,0,0,0,18.283,16h0a5.831,5.831,0,0,1,2.739,2.663h0a5.5,5.5,0,0,1,3.076,2.341h0a164.484,164.484,0,0,1,14.981,10.951h0q7.164,5.051,14.328,10.107h0c14.608,10.367,30.823,16.95,48.241,20.7h0c1.147-1.078,2.257-2.2,3.446-3.221h0c2.105-1.816,4.183-3.638,5.209-6.344h0a12.545,12.545,0,0,0-4-6.548h0c-11.245-10.97-21.505-22.889-32.629-33.973h0a6.43,6.43,0,0,1-.586-.6h0a174.615,174.615,0,0,0-20.412-22.066h0c-.76-.654-1.531-1.293-2.277-1.96h0q-6.642-5.933-13.276-11.876h0a9.436,9.436,0,0,1-3.509-2.787h0q-9.566-6.866-19.126-13.732h0c-.8-.449-1.643-.836-2.4-1.357h0C137.672,21.225,115.6,11.473,91.3,7.267h0A263.108,263.108,0,0,1,60.7,0h0C52.9,5.295,43.939,7.235,34.912,8.822" transform="translate(0.744 0.052)"/>
          <g id="Group_63-2" data-name="Group 63" class="cls-13">
            <path id="Fill_61" data-name="Fill 61" class="cls-14" d="M37.549,174.152a11.564,11.564,0,0,1-3.288-.483c-1.575-.467-2.448-1.412-2.395-2.591a6.317,6.317,0,0,1,.4-1.834,3.4,3.4,0,0,1,.923-1.439,5.731,5.731,0,0,1,3.33-1.036c.277-.025.568-.038.864-.038a12.719,12.719,0,0,1,1.821.139,6.728,6.728,0,0,1,3.712,1.471,3.038,3.038,0,0,1,.94,2.784,2.791,2.791,0,0,1-1.74,2.11A12.187,12.187,0,0,1,37.549,174.152Zm35.772-4.475h0A11.342,11.342,0,0,1,65.695,167a2.949,2.949,0,0,1-.863-2.526,2.587,2.587,0,0,1,1.378-1.932,12.157,12.157,0,0,1,1.5-.621c.159-.057.3-.106.407-.15a14.077,14.077,0,0,1,3.083-.336,20.175,20.175,0,0,1,6.056,1.035c1.321.415,2.622.968,2.759,2.735.115,1.477-.566,2.542-2.208,3.455A9.308,9.308,0,0,1,73.321,169.676Zm33.993-15.317a5.976,5.976,0,0,1-1.121-.118c-3.772-.727-6.722-3.064-9.017-7.144a1.776,1.776,0,0,1-.1-1.72,1.917,1.917,0,0,1,1.6-.946c.153-.013.316-.019.483-.019a11.776,11.776,0,0,1,1.835.183c.228.036.424.067.582.082q.476.164.938.319c2.715.917,5.061,1.709,6.688,3.779a3.655,3.655,0,0,1,.546,4.26A2.544,2.544,0,0,1,107.314,154.359Zm25.667-2.092a15.437,15.437,0,0,1-7.2-2.028c-1.06-.559-2.082-1.233-1.926-2.758.131-1.276.876-2.078,2.415-2.6a6.857,6.857,0,0,1,2.2-.331,11.1,11.1,0,0,1,4.461,1.006,8.373,8.373,0,0,1,3.4,2.626,2.551,2.551,0,0,1,.344,2.284A2.238,2.238,0,0,1,135.2,151.9a10.7,10.7,0,0,1-1.382.3c-.142.023-.264.043-.362.063C133.3,152.264,133.137,152.267,132.981,152.267Zm39.2-6.567h0c-.3,0-.619-.006-.935-.018-1.2-.048-2.408-.215-2.92-1.66-.428-1.208-.1-2.253,1.066-3.386a9.659,9.659,0,0,1,6.535-2.266,8.1,8.1,0,0,1,3.962.9,2.547,2.547,0,0,1,1.288,1.91,2.248,2.248,0,0,1-.714,1.933,10.752,10.752,0,0,1-1.112.855c-.124.086-.228.159-.31.22A14.387,14.387,0,0,1,172.184,145.7Zm-144.914-.522h0a8.281,8.281,0,0,1-3.545-.711,3.652,3.652,0,0,1-2.436-3.533c.041-1.316.894-2.2,2.61-2.711a11.753,11.753,0,0,1,3.339-.495,14.349,14.349,0,0,1,7.939,2.689,1.773,1.773,0,0,1,.873,1.482,1.921,1.921,0,0,1-.986,1.577,9.829,9.829,0,0,1-2.13.922c-.22.073-.41.137-.56.2-.333.049-.66.1-.982.149A27.8,27.8,0,0,1,27.271,145.178Zm47.613-1.445a17.49,17.49,0,0,1-5.245-.9c-1.144-.359-2.27-.838-2.389-2.368-.1-1.28.491-2.2,1.912-2.989a8.052,8.052,0,0,1,3.887-.877,9.817,9.817,0,0,1,6.6,2.312A2.551,2.551,0,0,1,80.4,141.1a2.242,2.242,0,0,1-1.192,1.676,10.722,10.722,0,0,1-1.3.538c-.139.05-.257.092-.351.129A12.19,12.19,0,0,1,74.883,143.733Zm127.124-9.681h0a14.908,14.908,0,0,1-7.439-2.77c-1-.661-1.952-1.432-1.644-2.936.255-1.256,1.074-1.979,2.657-2.345a6.311,6.311,0,0,1,1.419-.153c3.181,0,6.891,1.989,8.268,4.434a2.551,2.551,0,0,1,.116,2.307,2.237,2.237,0,0,1-1.606,1.279,10.633,10.633,0,0,1-1.4.156C202.236,134.034,202.109,134.042,202.007,134.052Zm-75.813-.148a8.5,8.5,0,0,1-4.4-1.13c-1.573-.915-2.217-1.986-2.026-3.37a3.141,3.141,0,0,1,2.985-2.8,8.637,8.637,0,0,1,1.391-.1,25.084,25.084,0,0,1,3.995.439c.418.07.813.136,1.154.182,1.9.26,2.819,1.184,2.885,2.907a3.688,3.688,0,0,1-.554,2.227,2.876,2.876,0,0,1-1.852,1.2A16.8,16.8,0,0,1,126.194,133.9Zm36.278-3.029a7.234,7.234,0,0,1-2.673-.7,11.739,11.739,0,0,1-2.343-1.324,6.75,6.75,0,0,1-2.629-3.013,3.065,3.065,0,0,1,.356-2.8,2.782,2.782,0,0,1,2.3-1.2c.095,0,.191,0,.288.014a11.689,11.689,0,0,1,7.179,3.222c1.186,1.138,1.531,2.378.945,3.4a6.19,6.19,0,0,1-1.192,1.447,3.382,3.382,0,0,1-1.475.856A3.077,3.077,0,0,1,162.472,130.875ZM47.5,128.254h0c-.3,0-.619-.006-.935-.018-1.2-.048-2.407-.215-2.921-1.66-.429-1.207-.1-2.251,1.066-3.386a9.662,9.662,0,0,1,6.536-2.266,8.1,8.1,0,0,1,3.962.9,2.544,2.544,0,0,1,1.289,1.909,2.247,2.247,0,0,1-.716,1.934,10.507,10.507,0,0,1-1.119.861c-.12.083-.222.154-.3.215A14.38,14.38,0,0,1,47.5,128.254Zm178.97-.484a11.907,11.907,0,0,1-4.963-1.2,2.846,2.846,0,0,1-2.082-2.544,2.946,2.946,0,0,1,2.068-2.749,7.8,7.8,0,0,1,3.29-.75,9.545,9.545,0,0,1,5.191,1.735,2.549,2.549,0,0,1,1.251,1.9A2.768,2.768,0,0,1,230.2,126.4a6.861,6.861,0,0,1-1.52.965c-.185.095-.345.176-.476.255A10.457,10.457,0,0,1,226.466,127.77ZM81.188,126.012h0c-.274,0-.572-.016-.887-.046-2.72-.266-8.544-3.273-10.562-5.454-1.512-1.635-1.663-3.114-.521-5.106a4.093,4.093,0,0,1,3.405-2.228,3.079,3.079,0,0,1,1.35.315,78.817,78.817,0,0,1,9.481,5.455,3.43,3.43,0,0,1,1.458,2.314,4.751,4.751,0,0,1-.366,2.774A3.213,3.213,0,0,1,81.188,126.012Zm180.179-3.739a6.514,6.514,0,0,1-2.91-.966,11.693,11.693,0,0,1-2.206-1.541,6.761,6.761,0,0,1-2.332-3.251,3.044,3.044,0,0,1,.529-2.642,2.794,2.794,0,0,1,2.217-1.1,3,3,0,0,1,.563.054,11.715,11.715,0,0,1,6.842,3.892c1.073,1.247,1.3,2.514.62,3.477a6.243,6.243,0,0,1-1.325,1.328,3.376,3.376,0,0,1-1.55.712A2.943,2.943,0,0,1,261.367,122.274Zm-155.354-1.951h0a13.512,13.512,0,0,1-8.6-2.931,4.854,4.854,0,0,1-1.432-1.72,2.437,2.437,0,0,1-.022-2.092,7.271,7.271,0,0,1,1.217-1.794,3.911,3.911,0,0,1,1.606-1.144,3.713,3.713,0,0,1,1.269-.206,9.662,9.662,0,0,1,2.745.534,13.586,13.586,0,0,1,2.833,1.271,7.8,7.8,0,0,1,3.347,3.182,3.513,3.513,0,0,1-.19,3.392A3.217,3.217,0,0,1,106.013,120.323Zm133.229-7.539a2.6,2.6,0,0,1-.973-.21,25.526,25.526,0,0,1-5.681-3.125,13.578,13.578,0,0,1-4.2-4.864,4.85,4.85,0,0,1-.39-2.442,2.4,2.4,0,0,1,.6-1.474,2.3,2.3,0,0,1,1.48-.63c.116-.009.236-.014.356-.014a10.437,10.437,0,0,1,3.756.99c.306.122.594.237.885.346a16.857,16.857,0,0,1,3.392,1.648c2.652,1.738,3.678,3.989,3.134,6.88C241.445,110.759,240.886,112.784,239.241,112.784Zm-59-2.247h0a12.387,12.387,0,0,1-4.335-.733,4.847,4.847,0,0,1-1.965-1.493,2.389,2.389,0,0,1-.58-1.483,2.3,2.3,0,0,1,.635-1.482,9.433,9.433,0,0,1,3.638-2.144c.307-.125.6-.243.883-.367a16.926,16.926,0,0,1,3.586-1.163,9.34,9.34,0,0,1,1.711-.169,5.951,5.951,0,0,1,5.294,2.965,3.9,3.9,0,0,1,.756,2.987,2.071,2.071,0,0,1-1.316,1.27A22.812,22.812,0,0,1,180.244,110.537Zm-34.137-.2h0a10.44,10.44,0,0,1-6.813-2.86,2.951,2.951,0,0,1-1.143-2.374,3.193,3.193,0,0,1,1.518-2.4,7.962,7.962,0,0,1,1.895-.874c.224-.079.417-.147.577-.215.144,0,.288-.007.429-.007a12.993,12.993,0,0,1,7.078,2.243c1.034.638,2.195,1.583,2,3.232-.164,1.375-1.076,2.3-2.789,2.83A9.291,9.291,0,0,1,146.107,110.334Zm-126.332-.329c-1.594,0-2.757-1.04-3.882-2.045l-.014-.013q-.171-.153-.343-.3c-1.122-.99-2.582-2.309-3.934-3.736-.958-1.011-1.828-2.548-.53-4.122a2.751,2.751,0,0,1,2.2-1.07,4.9,4.9,0,0,1,1.976.485,12.547,12.547,0,0,1,4.238,3,12.114,12.114,0,0,1,2.537,4.388,3.128,3.128,0,0,1-.272,2.546,2.074,2.074,0,0,1-1.576.853A3.9,3.9,0,0,1,19.776,110.005Zm29.4-1.794h0a6.93,6.93,0,0,1-2.776-.8,11.684,11.684,0,0,1-2.288-1.413,6.749,6.749,0,0,1-2.512-3.112,3.037,3.037,0,0,1,.43-2.739A2.786,2.786,0,0,1,44.3,98.988a3.04,3.04,0,0,1,.4.027,11.7,11.7,0,0,1,7.05,3.5,4.206,4.206,0,0,1,1.034,1.639,2.108,2.108,0,0,1-.219,1.8,6.26,6.26,0,0,1-1.247,1.4,3.371,3.371,0,0,1-1.508.8A3.007,3.007,0,0,1,49.18,108.212Zm161.042-.286c-.309,0-.613-.013-.874-.025a11.647,11.647,0,0,1-2.65-.461,6.734,6.734,0,0,1-3.484-1.955,3.041,3.041,0,0,1-.56-2.886,2.79,2.79,0,0,1,2.005-1.857,12.671,12.671,0,0,1,3.108-.4,11.471,11.471,0,0,1,4.732,1.022c1.5.674,2.238,1.726,2.028,2.887a6.223,6.223,0,0,1-.64,1.767,3.373,3.373,0,0,1-1.1,1.3A4.558,4.558,0,0,1,210.222,107.926Zm-127.9-8.647h0a5.181,5.181,0,0,1-1.209-.161c-3.241-.779-6.6-4.821-6.775-8.161a2.539,2.539,0,0,1,.686-1.9,2.233,2.233,0,0,1,2.239-.643,10.533,10.533,0,0,1,1.316.482c.139.059.256.108.353.145a14.976,14.976,0,0,1,5.432,5.8c.6,1.038,1.111,2.153.17,3.363A2.646,2.646,0,0,1,82.318,99.279Zm45.371-5.917a11.335,11.335,0,0,1-7.624-2.673,2.944,2.944,0,0,1-.863-2.522,2.589,2.589,0,0,1,1.378-1.935,12.161,12.161,0,0,1,1.512-.625c.157-.056.29-.1.4-.146a14.085,14.085,0,0,1,3.082-.335,20.181,20.181,0,0,1,6.058,1.036c1.321.414,2.622.966,2.76,2.734.114,1.478-.567,2.543-2.209,3.454A9.309,9.309,0,0,1,127.689,93.362Zm99.258-.665a11.833,11.833,0,0,1-1.2-.077c-.143-.015-.267-.027-.369-.034a14.935,14.935,0,0,1-6.889-3.95c-.88-.814-1.694-1.73-1.146-3.165.456-1.2,1.382-1.778,3-1.88.114-.007.231-.011.348-.011a9.455,9.455,0,0,1,5.071,1.772,9,9,0,0,1,3.444,4.047,2.554,2.554,0,0,1-.263,2.3,2.232,2.232,0,0,1-1.79,1C227.085,92.7,227.016,92.7,226.947,92.7Zm-35.963-1.859h0a17.478,17.478,0,0,1-5.245-.9c-1.143-.359-2.269-.838-2.389-2.368-.1-1.279.49-2.2,1.911-2.989a8.054,8.054,0,0,1,3.887-.877,9.817,9.817,0,0,1,6.6,2.314,2.547,2.547,0,0,1,.746,2.183,2.24,2.24,0,0,1-1.193,1.675,10.546,10.546,0,0,1-1.3.538c-.139.05-.257.092-.351.129A12.186,12.186,0,0,1,190.984,90.838ZM31.013,88.093h0a8.286,8.286,0,0,1-3.548-.712,3.646,3.646,0,0,1-2.435-3.533c.041-1.316.894-2.2,2.608-2.711a11.754,11.754,0,0,1,3.341-.495,14.354,14.354,0,0,1,7.94,2.689,1.774,1.774,0,0,1,.873,1.483,1.921,1.921,0,0,1-.986,1.576,9.85,9.85,0,0,1-2.132.922c-.22.073-.409.137-.559.2-.334.049-.661.1-.984.149A27.776,27.776,0,0,1,31.013,88.093Zm219.825-1.166h0c-.307,0-.625-.006-.946-.019-1.2-.047-2.409-.213-2.921-1.66-.43-1.208-.1-2.251,1.065-3.385a9.66,9.66,0,0,1,6.536-2.266,8.1,8.1,0,0,1,3.963.905,2.546,2.546,0,0,1,1.288,1.911,2.244,2.244,0,0,1-.715,1.93,10.582,10.582,0,0,1-1.128.868c-.11.076-.214.148-.294.208A14.351,14.351,0,0,1,250.839,86.927Zm-90.555-.188a12.051,12.051,0,0,1-4.959-1.2,2.848,2.848,0,0,1-2.082-2.544,2.951,2.951,0,0,1,2.069-2.748,7.807,7.807,0,0,1,3.29-.75,9.538,9.538,0,0,1,5.19,1.735,2.55,2.55,0,0,1,1.253,1.9,2.765,2.765,0,0,1-1.026,2.239,6.9,6.9,0,0,1-1.531.971c-.181.092-.336.172-.466.248A10.449,10.449,0,0,1,160.284,86.739Zm-53.448-3.725h0a10.789,10.789,0,0,1-3.666-.905c-.311-.116-.6-.225-.893-.326a16.764,16.764,0,0,1-3.427-1.569c-2.692-1.676-3.768-3.9-3.29-6.806.145-.887.665-2.95,2.345-2.95a2.637,2.637,0,0,1,.932.189,25.485,25.485,0,0,1,5.751,2.994,13.571,13.571,0,0,1,4.3,4.767,4.857,4.857,0,0,1,.446,2.432,2.388,2.388,0,0,1-.57,1.488,2.285,2.285,0,0,1-1.465.663A4.672,4.672,0,0,1,106.836,83.014ZM66.286,71.467h0a17.471,17.471,0,0,1-5.242-.9c-1.143-.359-2.27-.837-2.389-2.368-.1-1.278.489-2.2,1.911-2.991a8.055,8.055,0,0,1,3.885-.875,9.826,9.826,0,0,1,6.6,2.313,2.552,2.552,0,0,1,.746,2.185,2.243,2.243,0,0,1-1.192,1.675,10.658,10.658,0,0,1-1.307.539c-.137.049-.252.09-.345.127A12.172,12.172,0,0,1,66.286,71.467Zm116.238-1.117c-.052,0-.105,0-.158,0a5.621,5.621,0,0,1-3.091-1.612,11.764,11.764,0,0,1-1.84-1.966,6.8,6.8,0,0,1-1.609-3.667,3.053,3.053,0,0,1,.842-2.263,2.809,2.809,0,0,1,2.038-.884,2.879,2.879,0,0,1,1.123.232,11.723,11.723,0,0,1,5.886,5.233c.465.848,1.068,2.435-.113,3.532a6.234,6.234,0,0,1-1.571,1.022A3.461,3.461,0,0,1,182.525,70.349Zm30.554-1.419a8.355,8.355,0,0,1-2.376-.462,11.639,11.639,0,0,1-2.453-1.1,6.747,6.747,0,0,1-2.9-2.754,3.042,3.042,0,0,1,.166-2.936,2.787,2.787,0,0,1,2.4-1.3,11.689,11.689,0,0,1,7.447,2.538A4.206,4.206,0,0,1,216.6,64.4a2.107,2.107,0,0,1,.019,1.81,6.26,6.26,0,0,1-1.054,1.555,3.391,3.391,0,0,1-1.389.989A3.229,3.229,0,0,1,213.079,68.93ZM137.6,66.293h0a8.28,8.28,0,0,1-3.547-.712,3.647,3.647,0,0,1-2.436-3.532c.041-1.316.894-2.2,2.61-2.711a11.746,11.746,0,0,1,3.339-.495,14.361,14.361,0,0,1,7.94,2.689,1.776,1.776,0,0,1,.872,1.483,1.922,1.922,0,0,1-.985,1.577,9.891,9.891,0,0,1-2.129.921c-.22.074-.41.137-.561.2-.334.049-.662.1-.985.149A27.812,27.812,0,0,1,137.6,66.293Zm99.9-.9h0a2.8,2.8,0,0,1-.432-.034,67.928,67.928,0,0,1-9.218-2.131,3.507,3.507,0,0,1-2.178-3.94c.2-1.5,1.08-2.276,3.035-2.668a7.316,7.316,0,0,1,1.4-.113,21.666,21.666,0,0,1,8.711,1.973,3.27,3.27,0,0,1,1.71,4.1,4.063,4.063,0,0,1-1.081,1.987A2.759,2.759,0,0,1,237.5,65.389ZM34.291,62.379a8.506,8.506,0,0,1-4.4-1.13c-1.573-.917-2.217-1.988-2.025-3.369a3.139,3.139,0,0,1,2.985-2.8,8.642,8.642,0,0,1,1.392-.1,25.08,25.08,0,0,1,3.988.438c.422.07.819.136,1.161.183,1.9.261,2.818,1.185,2.885,2.908a3.686,3.686,0,0,1-.554,2.226,2.88,2.88,0,0,1-1.852,1.2A16.828,16.828,0,0,1,34.291,62.379Zm72.281-4.991h0a15.809,15.809,0,0,1-6.792-1.739c-1.083-.514-2.133-1.143-2.038-2.676.077-1.281.788-2.112,2.306-2.7a7.1,7.1,0,0,1,2.553-.429c2.955,0,6.166,1.392,7.634,3.311a2.552,2.552,0,0,1,.437,2.268,2.237,2.237,0,0,1-1.411,1.491,10.653,10.653,0,0,1-1.364.352c-.143.03-.266.055-.366.079C107.212,57.375,106.89,57.388,106.571,57.388Zm-97.22-.4c-1.6,0-2.759-1.042-3.885-2.049-.118-.106-.235-.21-.353-.314-1.121-.989-2.582-2.308-3.935-3.736C.222,49.88-.648,48.344.651,46.771a2.755,2.755,0,0,1,2.2-1.071,4.905,4.905,0,0,1,1.976.485,12.556,12.556,0,0,1,4.235,3A12.124,12.124,0,0,1,11.6,53.571a3.125,3.125,0,0,1-.271,2.545,2.075,2.075,0,0,1-1.577.854A3.879,3.879,0,0,1,9.352,56.99Zm158.485-7.563c-1.593,0-2.755-1.038-3.879-2.041-.12-.107-.241-.215-.362-.321-1.2-1.056-2.6-2.325-3.934-3.736-.957-1.012-1.826-2.549-.528-4.122a2.753,2.753,0,0,1,2.2-1.07,4.915,4.915,0,0,1,1.978.485,12.536,12.536,0,0,1,4.235,3,12.122,12.122,0,0,1,2.537,4.389,3.121,3.121,0,0,1-.269,2.544,2.074,2.074,0,0,1-1.577.854A3.9,3.9,0,0,1,167.837,49.427Zm26.3-.671a2.063,2.063,0,0,1-1.029-.279,6.208,6.208,0,0,1-1.451-1.188,3.41,3.41,0,0,1-.861-1.475,5.793,5.793,0,0,1,.586-3.447,11.772,11.772,0,0,1,1.306-2.356,6.758,6.758,0,0,1,2.988-2.656,3.125,3.125,0,0,1,1.081-.195,2.965,2.965,0,0,1,2.186.951,2.812,2.812,0,0,1,.721,2.175,11.764,11.764,0,0,1-3.168,7.221A3.423,3.423,0,0,1,194.135,48.756ZM67.22,47.126a10.782,10.782,0,0,1-3.661-.9c-.31-.116-.6-.225-.895-.326a16.783,16.783,0,0,1-3.427-1.569c-2.693-1.678-3.77-3.9-3.29-6.807.145-.887.665-2.95,2.345-2.95a2.638,2.638,0,0,1,.931.188,25.48,25.48,0,0,1,5.751,2.994,13.565,13.565,0,0,1,4.3,4.768,4.86,4.86,0,0,1,.448,2.432,2.394,2.394,0,0,1-.571,1.487,2.283,2.283,0,0,1-1.465.663A4.686,4.686,0,0,1,67.22,47.126Zm179.358-.154a8.5,8.5,0,0,1-4.4-1.13c-1.572-.916-2.215-1.987-2.025-3.369a3.142,3.142,0,0,1,2.985-2.8,8.642,8.642,0,0,1,1.392-.1,25.07,25.07,0,0,1,3.99.438c.419.07.815.136,1.157.182,1.9.261,2.819,1.185,2.888,2.908a3.073,3.073,0,0,1-2.406,3.425A16.878,16.878,0,0,1,246.577,46.971Zm-112.59-4.639h0a2.616,2.616,0,0,1-.956-.2c-4.988-1.978-8.336-4.634-9.951-7.895a4.858,4.858,0,0,1-.415-2.437,2.4,2.4,0,0,1,.59-1.48,2.3,2.3,0,0,1,1.473-.644c.131-.011.266-.017.4-.017a10.562,10.562,0,0,1,3.709.95c.311.121.606.235.9.342a16.868,16.868,0,0,1,3.4,1.615c2.67,1.713,3.716,3.953,3.2,6.849C136.188,40.29,135.646,42.332,133.987,42.332Zm89.4-2.53h0a9.9,9.9,0,0,1-7.734-4.018,4.177,4.177,0,0,1-.615-3.3,2.422,2.422,0,0,1,1.179-1.627,8.385,8.385,0,0,1,1.33-.51c.14-.044.26-.082.357-.117a9.153,9.153,0,0,1,1.3-.093,13.932,13.932,0,0,1,6.653,2.009,3.716,3.716,0,0,1,2.335,3.4,3.571,3.571,0,0,1-2.015,3.589A5.637,5.637,0,0,1,223.385,39.8ZM98.959,38.248c-.067,0-.136,0-.205-.008a9.924,9.924,0,0,1-2.265-.537c-.217-.071-.405-.133-.559-.174q-.447-.241-.881-.47c-2.53-1.343-4.715-2.5-5.989-4.806a3.662,3.662,0,0,1,.145-4.294,2.445,2.445,0,0,1,2.009-.965,4.937,4.937,0,0,1,1.7.349c3.6,1.326,6.14,4.108,7.753,8.507a1.774,1.774,0,0,1-.147,1.667A1.847,1.847,0,0,1,98.959,38.248Zm57.6-17.289a6,6,0,0,1-1.118-.117c-3.77-.727-6.72-3.064-9.017-7.145a1.775,1.775,0,0,1-.1-1.721,1.914,1.914,0,0,1,1.6-.944c.154-.013.318-.02.486-.02a11.75,11.75,0,0,1,1.829.182c.228.036.426.067.586.083q.479.165.944.321c2.713.917,5.056,1.708,6.682,3.776a3.659,3.659,0,0,1,.546,4.26A2.547,2.547,0,0,1,156.561,20.959ZM184.8,17.652h0a8.282,8.282,0,0,1-3.549-.712,3.644,3.644,0,0,1-2.435-3.532c.041-1.315.894-2.2,2.608-2.711a11.76,11.76,0,0,1,3.339-.494,14.365,14.365,0,0,1,7.942,2.688,1.776,1.776,0,0,1,.872,1.484,1.922,1.922,0,0,1-.987,1.576,9.892,9.892,0,0,1-2.129.921c-.22.074-.41.137-.561.2-.331.049-.656.1-.976.148h-.006A27.787,27.787,0,0,1,184.8,17.652Zm47.612-1.445a17.5,17.5,0,0,1-5.247-.9c-1.143-.357-2.269-.834-2.389-2.367-.1-1.278.49-2.2,1.911-2.99a8.057,8.057,0,0,1,3.887-.876,9.815,9.815,0,0,1,6.6,2.314,2.549,2.549,0,0,1,.747,2.184,2.241,2.241,0,0,1-1.193,1.675,10.542,10.542,0,0,1-1.3.536c-.139.05-.258.092-.354.131A12.191,12.191,0,0,1,232.412,16.207Zm-20.895-7.97h0a11.344,11.344,0,0,1-7.627-2.672,2.947,2.947,0,0,1-.862-2.524,2.589,2.589,0,0,1,1.378-1.934,12.066,12.066,0,0,1,1.506-.622c.157-.056.293-.1.4-.148A14.065,14.065,0,0,1,209.4,0a20.17,20.17,0,0,1,6.057,1.036c1.32.414,2.621.966,2.758,2.735.115,1.477-.566,2.542-2.208,3.454A9.3,9.3,0,0,1,211.517,8.237Z" transform="translate(-5.238 52.171)"/>
          </g>
        </g>
      </g>
    </g>
  </g>
</svg>
