<svg id="Black" xmlns="http://www.w3.org/2000/svg" viewBox="0 0 570 645"><defs><style>.cls-1{fill:#3d55cc;}.cls-2{fill:#303c78;}.cls-3{fill:#f5ebe0;}.cls-4{fill:#25b89d;}.cls-5{fill:#fb0;}.cls-6{fill:#191919;}.cls-7{fill:#c96;}</style></defs><path class="cls-1" d="M348.83,460.31c-.66-10.05-5-19.1-10.75-27.35-4.77-9.16-9.57-18.31-14.78-27.18-8-13.6-21.18-27-38.3-26.15-16.6.85-28.34,13.73-33.68,28.56-2.77,7.67-3.71,15.91-4.67,24S245.08,448,244.78,456c-.25,6.29-.27,12.57-.1,18.84a10.73,10.73,0,0,0-.23,1.91,140,140,0,0,0,3.44,35.63,9.89,9.89,0,0,0,5.77,6.61,15.17,15.17,0,0,0,10.68,6.77c9.24,1.25,16.69-4.29,24.16-8.88l19.84-12.21,19.85-12.2c6-3.71,12.15-7.6,16-13.76a21.33,21.33,0,0,0,3-7.94A24.54,24.54,0,0,0,348.83,460.31Z"/><path class="cls-2" d="M259.73,393.13a49,49,0,0,0-5.53,8.47A21.21,21.21,0,0,0,259.73,393.13Z"/><path class="cls-2" d="M266.87,448.44c3.6-2.61,5.52-7,6.07-11.45s-.12-8.88-.79-13.27c-.21-1.43-.43-2.86-.64-4.28-1.36-9-9.87-9-17.41-8a19.51,19.51,0,0,0-4.12,1c-1.77,6.42-2.54,13.14-3.33,19.72-.65,5.44-1.13,10.91-1.48,16.38a20.52,20.52,0,0,0,4.92,1.66C255.74,451.49,262.17,451.85,266.87,448.44Z"/><path class="cls-2" d="M266.1,397.42c-.89,2.26-1.75,5.1-.11,6.89a6,6,0,0,0,2.83,1.46,16.78,16.78,0,0,0,6.94.87c5.84-.77,9.93-6.67,10.56-12.53.53-4.89-.8-9.73-2.51-14.39a32.62,32.62,0,0,0-15,5.19C269,389.09,267.67,393.44,266.1,397.42Z"/><path class="cls-2" d="M296,388.53a3.73,3.73,0,0,0,3.56,1.67,5,5,0,0,0,2-1.12,41.91,41.91,0,0,0,3.81-3.37,35.15,35.15,0,0,0-12.71-5.5,46.3,46.3,0,0,1,1.7,4.51A13.13,13.13,0,0,0,296,388.53Z"/><path class="cls-2" d="M280.64,429a3.92,3.92,0,0,0,.76,1.37c1.32,1.41,3.64.75,5.53,1.16,2.81.6,4.58,3.59,7.35,4.35a6.24,6.24,0,0,0,6.64-2.9,10.24,10.24,0,0,0,1-7.51c-.77-3.66-4-7.38-2.14-11.24,1.26-2.6,4.6-3.18,7.21-4.4a12.5,12.5,0,0,0,4.2-3.19c1.56-1.83,2.55-4.64,1.15-6.61-1.51-2.13-4.74-1.92-7.22-1.07s-5.08,2.11-7.58,1.32c-3.55-1.12-6.44-2.85-6.63,2.47a15.46,15.46,0,0,1-4.39,10.21c-1.87,1.9-4.79,2.9-6.1,5.29-.93,1.68-.86,3.71-.71,5.62A19.25,19.25,0,0,0,280.64,429Z"/><path class="cls-2" d="M307.6,417.26a8.23,8.23,0,0,0,.46,3.95,30.25,30.25,0,0,0,3.64,7.63,13.49,13.49,0,0,0,3.09,3.47,10.27,10.27,0,0,0,4.08,1.76,13.68,13.68,0,0,0,14-6.37,14.2,14.2,0,0,0,1.17-2.46c-3.1-5.87-6.27-11.7-9.58-17.43-3.11.57-6.45,2.33-9.57,3.45S308.21,414,307.6,417.26Z"/><path class="cls-2" d="M339.51,436.15a2.2,2.2,0,0,0,.76.12q-1-1.54-2-3.06A2.49,2.49,0,0,0,339.51,436.15Z"/><path class="cls-2" d="M327.36,470.84a13.7,13.7,0,0,0,2.92,6.19,7.83,7.83,0,0,0,6.09,2.76,12,12,0,0,0,4.1-1.22l4.94-2.16a21.52,21.52,0,0,0,1.74-5.66,24.54,24.54,0,0,0,1.68-10.44A44,44,0,0,0,346,447.65c-2.36,0-4.71.1-7.06.3C329.39,448.74,325.67,463.14,327.36,470.84Z"/><path class="cls-2" d="M319.91,494.87a5.76,5.76,0,0,0-.91,3.23l9.19-5.65c.8-.49,1.6-1,2.4-1.49a31.49,31.49,0,0,0-7.17,1.65A7,7,0,0,0,319.91,494.87Z"/><path class="cls-2" d="M264.78,509a7,7,0,0,0,1.42-3.93,6.76,6.76,0,0,0-1.94-4c-2-2.32-8.77-8.59-12.23-6.61-3.11,1.79-3.59,13-3.88,16.28a20.16,20.16,0,0,0-.12,2.06,10,10,0,0,0,5.63,6.15l.1.15a8.73,8.73,0,0,0,2.33-1.2A31.25,31.25,0,0,0,264.78,509Z"/><path class="cls-2" d="M245.69,467.62a12.23,12.23,0,0,0-1.07-5.51q-.1,6.36.06,12.71a10.73,10.73,0,0,0-.23,1.91c-.06,1.58-.08,3.16-.08,4.74a11,11,0,0,0,.73-2.23C245.86,475.58,245.51,471.35,245.69,467.62Z"/><path class="cls-2" d="M302.79,500.67c-1.28,1.18-2.24,2.69-3.59,3.79-4.15,3.4-10.28,1.94-15.55,2.94a16.27,16.27,0,0,0-7.88,3.93c-1.17,1.07-2.25,2.5-2.08,4.08A5,5,0,0,0,275,518a27.1,27.1,0,0,0,4.62,4.24c3-1.62,6-3.57,8.91-5.37l19.84-12.21,3.13-1.92a5.06,5.06,0,0,0-.8-3.06C308.66,497,304.68,499,302.79,500.67Z"/><path class="cls-2" d="M323.09,446.89a3.6,3.6,0,0,0-.49-2.4,3.54,3.54,0,0,0-1.9-1.07,35.85,35.85,0,0,0-9.64-1.57,7.56,7.56,0,0,0-3.41.5c-2.24,1-3.11,3.72-3.75,6.11-1.4,5.28-3.19,10.89-2.61,16.36s3.09,10.31,5.69,15A23.85,23.85,0,0,0,311.4,486c3.7,3.4,8.4,3.19,11.65-.65s0-7.5-1.9-11.2C316,464.31,322.53,456.6,323.09,446.89Z"/><path class="cls-2" d="M294.44,473.67a12.86,12.86,0,0,0-2.1-3.56,3.72,3.72,0,0,0-3.75-1.18,5,5,0,0,0-1.86,1.37,44.24,44.24,0,0,0-11.9,23.5c-.31,1.89-.44,4,.75,5.51,3.62,4.54,14.1,2.84,18.44.06,2.21-1.41,3.83-3.72,5.42-5.76,3.11-4,4.21-6.24.84-10.5A48.53,48.53,0,0,1,294.44,473.67Z"/><path class="cls-2" d="M269,467.32c-1.91-1.5-3.14-3.82-5.32-5a7.23,7.23,0,0,0-7.26.71,13.57,13.57,0,0,0-4.57,6,16,16,0,0,0-1.06,3.24c-1.4,6.93,3.52,14.06,9.43,17.37,7.44,4.18,10.82-8.57,13-13.69.7-1.67,1.36-3.6.57-5.22C272.87,468.93,270.51,468.5,269,467.32Z"/><path class="cls-2" d="M275.65,462.53c1.84,1.29,4.38.89,6.47.05,5.39-2.18,19.23-7.68,12.14-15.92-1.79-2.08-5-2.51-6.73-4.62-.92-1.12-1.38-2.65-2.59-3.44-4.23-2.77-5.66,3.93-5.94,6.32a15,15,0,0,1-2.51,5.93,17.91,17.91,0,0,0-2.75,5.85C273.32,458.82,273.87,461.29,275.65,462.53Z"/><path d="M480,518.76c-7.82-5.09-17.26-6.32-26.4-6.22-10.23.1-20.49,1.1-30.69,1.8-21.44,1.48-42.86,3.08-64.32,4.09s-43.22,1.41-64.82.46c-21.09-.93-42.07-3.36-63.1-5s-42.13-2.18-63.08.26c-.36-.1-8.83.53-9.11.61A246.79,246.79,0,0,0,130.84,516c-2.67.26-5.21,2.12-5.1,5.1.21,5.7,5.07,8.21,10.12,8.92a125.13,125.13,0,0,0,17,1.29c3,0,6-.1,8.93-.32A42.77,42.77,0,0,0,176,530c10-2,19.59-3.84,29.77-4.25,21.34-.86,42.6,2,63.85,3.45,21.92,1.51,43.9,1.39,65.86,1.09q33.44-.45,66.88-1l75.07-1.09C482.57,528.18,484.14,521.48,480,518.76Z"/><path class="cls-3" d="M460.23,512.75l-.79-.87,0,0c-10-8.31-17.49-19.38-25.82-29.25q-9.63-11.43-19.8-22.38a92.58,92.58,0,0,1-9.31-9.48,5.68,5.68,0,0,1-.85-.93l-.18-.19a5.76,5.76,0,0,1-.53-.57q-7.49,2.64-15.07,5c-2.75.86-5.5,1.68-8.27,2.48a3.1,3.1,0,0,0-2.13,3.77,3.65,3.65,0,0,0,.14.35,3.43,3.43,0,0,0-1.11,2.3c-.44,5,1,9.85,2.17,14.68l3.51,14.17a3.1,3.1,0,0,0,2.15,2.13,2.44,2.44,0,0,0,1.45.34c4-.29,7.44-2.2,10.92-4.07.8-.43,1.6-.84,2.42-1.22l.63-.28.11,0h0l1.3-.51a38.35,38.35,0,0,1,4-1.23Q416,497.7,427.53,507.62c4,3.39,8,7,13,8.73a22.4,22.4,0,0,0,15.86-1.09,25.11,25.11,0,0,0,4.15-2.31A1,1,0,0,1,460.23,512.75Z"/><path class="cls-4" d="M460.54,513a2.62,2.62,0,0,1,.6-.37,12.72,12.72,0,0,0,1.3-.73c1-.63,2-1.2,2.94-1.9s1.53-1.26,2.26-1.93c.48-.51.94-1,1.37-1.59a5.68,5.68,0,0,0,1.32-2.37,2.49,2.49,0,0,0,0-.66,2.66,2.66,0,0,0-.71-2.18l-5.51-5.62c-1.6-1.64-3.21-3.86-5.15-5.08s-3.43-.46-5.08.55c-.7.43-2.64,1.84-2.35.14.13-.71,2-1.63,2.55-2.13a5.22,5.22,0,0,0,1.36-1.89,2.47,2.47,0,0,0,.31-3,18,18,0,0,0-2.56-3,32.08,32.08,0,0,0-2.91-2.68,16.06,16.06,0,0,0-3.06-2.22,3.71,3.71,0,0,0-1.63-.54c-1.9-.12-4,1.43-5.64,2.22a2.55,2.55,0,0,0-.77.56h0v0a.9.9,0,0,1,0-.21,1.33,1.33,0,0,1,.15-.32l.23-.27,1.89-2.09a5.91,5.91,0,0,0,1.83-2.09,2.55,2.55,0,0,0,.29-.57,3,3,0,0,0,0-1.77c-.37-2-2.16-3.7-3.43-5.08-1.84-2-4.68-5.36-7.51-5.88-2.13-.39-4.51,1.14-6.55,2.54a3.48,3.48,0,0,1,1-1.25,9.34,9.34,0,0,0,1.85-1.87,3.87,3.87,0,0,0,1.19-3.37,4.64,4.64,0,0,0-.85-2c-.06-.15-.13-.3-.2-.45a15.91,15.91,0,0,0-4.19-4.52,1.29,1.29,0,0,1-.16-.17,46.31,46.31,0,0,0-3.51-3.06c-.44-.35-.89-.71-1.35-1.06a7.54,7.54,0,0,0-1.34-.88c-.31-.09-.62-.19-.94-.25a5.5,5.5,0,0,0-2.25,0,10.93,10.93,0,0,0-1.37.44c-1.5.72-3,1.42-4.52,2.08-1.23.52-2.47,1-3.71,1.51-1,.36-1.92.79-2.9,1.1a5.4,5.4,0,0,0,.56.61l.18.19a5.68,5.68,0,0,0,.85.93,92.58,92.58,0,0,0,9.31,9.48q10.14,11,19.8,22.38c8.33,9.87,15.83,20.94,25.82,29.25l0,0,.79.87A.9.9,0,0,0,460.54,513Z"/><path class="cls-4" d="M396.11,201.18a74.87,74.87,0,0,0-.09-9.11l0-.51a24.75,24.75,0,0,0-.23-4.78,11,11,0,0,0-.42-1.69,27,27,0,0,0-1-4.3c-.83-2.46-2.58-4.75-5.28-5.19a4.77,4.77,0,0,0-4.42,1.63,14.18,14.18,0,0,0-2.79-4.13c-3.41-3.43-7.83-2.67-10.9.36a8.89,8.89,0,0,0-5.15-4.63c-5-1.7-10.86.18-12.91,5.08a9.88,9.88,0,0,0-1.26,2.59.63.63,0,0,0,.44.78l.58.17c1.09.49,2.16,1.11,3.24,1.69a32,32,0,0,0,2.21,3.79,2.75,2.75,0,0,0,.36.76c3.75,5.55,3.37,11.64,4.73,17.92.58,5.23,3.9,9.3,7.86,12.72a63.28,63.28,0,0,1,3,6.85,2.62,2.62,0,0,0,3.14,1.78,2.66,2.66,0,0,0,1.37-1c1.05.66,2.81.25,3.14-.88a2,2,0,0,0,.73-.64,2.36,2.36,0,0,0,1.29,0,1.7,1.7,0,0,0,2.37-.07,5,5,0,0,0,.7.51,1.94,1.94,0,0,0,2.62-.69c.09-.18.16-.36.23-.54a2.32,2.32,0,0,0,1.67-.15,3,3,0,0,0,1.62-2.15,2.15,2.15,0,0,0,1.72-.9,3.8,3.8,0,0,0,.45-.84,1.79,1.79,0,0,0,1.62-1.83c0-.69,0-1.37,0-2.05a2.46,2.46,0,0,0,1.13-2C398,206.73,396.78,204,396.11,201.18Z"/><path class="cls-4" d="M360,193.44a2.81,2.81,0,0,1-2.3-.39,1.33,1.33,0,0,0-1-.68,3.81,3.81,0,0,0-.29-.57,1.41,1.41,0,0,0-1.55-.55,16.52,16.52,0,0,1-.63-3.64,1.35,1.35,0,0,0-.56-1.05l-.06-.89c-.08-1.63-2.63-1.64-2.54,0a61.4,61.4,0,0,0,.75,6.9c.31,1.81.57,3.86,1.61,5.42a5.22,5.22,0,0,0,5.09,2.2c2.43-.26,2.61-3.6,2.8-5.48A1.29,1.29,0,0,0,360,193.44Z"/><path class="cls-5" d="M212,237l2.95,1.93a6.48,6.48,0,0,1,.33-.57,9.36,9.36,0,0,1-1-3.83A11.08,11.08,0,0,1,212,237Z"/><path class="cls-5" d="M358.46,183.69a2.75,2.75,0,0,1-.36-.76,32,32,0,0,1-2.21-3.79c-1.08-.58-2.15-1.2-3.24-1.69l-.58-.17a.62.62,0,0,1-.4-.34L339,171.39,298.9,153.77a49.37,49.37,0,0,0-4.48-13c-9-17.68-30.13-28.94-49.85-26.75-22.22,2.46-40,19.81-44.16,41.34a23.92,23.92,0,0,0-14.21,1.83,53.09,53.09,0,0,0-31.85-26.76c-22.17-6.76-46.94,3.42-58.82,23.06C84.61,170.49,85,194,97.1,210.36c12.92,17.36,35.05,25.45,56,19.06a53.94,53.94,0,0,0,23.79-15.33l2.1,1.38,12.89,8.42.12-.73a32.42,32.42,0,0,1,4.18-11.4,13.09,13.09,0,0,1,1.15-2.56l-11.7-7.64a50.21,50.21,0,0,0,5.72-23,46.69,46.69,0,0,0-.47-6.4c.15-.15.31-.29.47-.43l.45-.31a5.93,5.93,0,0,0,1.08-.59c.7-.24,1.41-.41,2.13-.59h.08c.31,0,.62,0,.94-.05a13.5,13.5,0,0,0,1.61.06c.58.13,1.15.29,1.72.45a4.75,4.75,0,0,1,1.29.61c1.51,17.37,13.22,32.9,29.78,39.66,18.73,7.66,42.56,2.69,56.21-12.41a51.87,51.87,0,0,0,12.75-28l59.24,26c1.32.59,2.64,1.16,4,1.73C361.84,193.2,361.55,188.26,358.46,183.69Zm-205.37,29.5-.63.28-1.18.46c-1,.36-2,.68-3,1s-1.78.48-2.68.68l-1.55.31-1.08.18a41.7,41.7,0,0,1-5.91.27c-1.05,0-2.1-.1-3.15-.19l-.7-.09c-.52-.08-1-.17-1.55-.28a40.26,40.26,0,0,1-5.49-1.53l-1.17-.43-.46-.2c-1-.48-2-1-3-1.52s-1.72-1-2.56-1.54c-.42-.27-.83-.55-1.24-.83l-.8-.57-.34-.27q-.57-.46-1.14-1c-.94-.82-1.84-1.68-2.71-2.57s-1.53-1.64-2.25-2.5l-.45-.56c0-.07-.82-1.15-.83-1.17a56.89,56.89,0,0,1-3.36-5.81l-.3-.64c-.18-.44-.34-.88-.5-1.33-.41-1.13-.76-2.27-1.07-3.43s-.54-2.34-.76-3.53c0-.15,0-.26-.06-.32v0c-.08-.66-.14-1.33-.19-2a48.35,48.35,0,0,1,.11-7.22c0-.2,0-.36,0-.49.11-.75.25-1.5.4-2.25.24-1.18.54-2.35.87-3.51s.69-2.14,1.08-3.2a7.9,7.9,0,0,0,.78.58l57.64,37.66A39.87,39.87,0,0,1,153.09,213.19Zm22.47-28.88a36.12,36.12,0,0,1-2.91,8.77l-15.29-10L114,154.75l-.15-.09.78-.76c.64-.61,1.29-1.2,2-1.77.3-.26.61-.51.92-.76.15-.11.45-.34.52-.38a53.13,53.13,0,0,1,5.48-3.39,22.64,22.64,0,0,1,4.43-1.93,44.55,44.55,0,0,1,6.22-1.66q.69-.13,1.38-.24l.33,0c.88-.07,1.76-.14,2.65-.17a38.36,38.36,0,0,1,6.06.25c-.05,0,1.81.33,2.06.39,1,.21,2,.45,2.94.73s1.94.59,2.89.93l1.29.49.39.17a50.72,50.72,0,0,1,5.33,2.89c.86.54,1.69,1.11,2.52,1.69l.45.35c.42.34.84.7,1.26,1.06a35,35,0,0,1,11.83,20.26A34.59,34.59,0,0,1,175.56,184.31Zm108.81-15.92c0-.27-.24,1.55-.32,2-.24,1.2-.52,2.39-.85,3.56-.26,1-.56,1.88-.88,2.8-.13.38-.8,2-.72,1.86a43.07,43.07,0,0,1-2.79,5.18c-.52.82-1.07,1.62-1.65,2.41l0,0-.13.15c-.31.37-.62.75-.94,1.11a41.53,41.53,0,0,1-4.49,4.31c-1.16,1-.45.34-.18.15-.4.28-.79.57-1.2.84-.8.54-1.63,1.06-2.47,1.55s-1.7.94-2.58,1.37l-.9.43c.11-.07-1.24.51-1.3.53a43.9,43.9,0,0,1-5.6,1.67c-1,.22-1.92.4-2.88.57l-.35,0c-.54.05-1.08.11-1.62.15a47.58,47.58,0,0,1-5.85.06c-.49,0-1-.06-1.46-.11l-.74-.07-.86-.12c-.6-.1-1.19-.21-1.79-.34a42.57,42.57,0,0,1-6.63-2l-.19-.09c-.55-.26-1.1-.52-1.64-.8-1-.51-2-1.07-2.89-1.66l-1.24-.82-.83-.59c-.88-.7-1.73-1.45-2.54-2.23s-1.59-1.58-2.34-2.42l-1-1.14c-.13-.15-.17-.19-.17-.18l-.24-.34c-.33-.47-.65-1-1-1.43s-.57-1-.85-1.56a40.51,40.51,0,0,1-3.57-8.45,38.76,38.76,0,0,1-.8-17.69,37.62,37.62,0,0,1,2.84-8.85c.44-.84.92-1.66,1.42-2.47s1.06-1.6,1.61-2.4l.33-.45.93-1.12a44,44,0,0,1,4.05-4.14c.35-.32.72-.64,1.09-1l.64-.53.66-.49c.49-.34,1-.69,1.49-1a44.22,44.22,0,0,1,5-2.83l1.13-.51.36-.12c1-.34,2-.71,3.08-1s1.87-.49,2.81-.68c.48-.1,1-.18,1.43-.26h.11a44.65,44.65,0,0,1,6.12-.18c.82,0,1.64.11,2.46.19-.23,0,1.53.25,1.93.33a45,45,0,0,1,6.26,1.74c.4.14,2.13.88,1.8.71.78.37,1.56.74,2.32,1.14a45.81,45.81,0,0,1,5.22,3.23l.66.49c.22.19.57.47.64.54.74.62,1.45,1.26,2.14,1.93s1.36,1.36,2,2.08c.32.35.64.71.95,1.08l.59.75a39,39,0,0,1,2.86,4.55c.4.75.78,1.51,1.12,2.28.08.18.19.46.22.55.25.69.5,1.37.72,2.07a46.29,46.29,0,0,1,1.36,5.67c0,.09,0,.29.07.47,0,.37.08.75.11,1.12.09,1.1.13,2.2.14,3.29A45.89,45.89,0,0,1,284.37,168.39Z"/><path class="cls-5" d="M201.55,230.21l1.59,1c0-.14,0-.27.05-.4.2-1.52.47-3,.79-4.55-.14.25-.27.5-.42.74A34.2,34.2,0,0,1,201.55,230.21Z"/><path class="cls-5" d="M408.09,206.79c-2.16-5.59-6.86-8.09-11.89-10.31,0,1.57,0,3.13-.09,4.7h0v0c-.16,2.15-.41,4.3-.7,6.44l-.78,3.54L393.57,216a11.28,11.28,0,0,0-.47,2.34A62.71,62.71,0,0,1,387.25,233C381,245.18,374,256.89,367,268.59a7.65,7.65,0,1,0,13.2,7.72c6.61-11,13.22-22.06,19.19-33.45A102.32,102.32,0,0,0,407.16,225C408.84,219.37,410.27,212.44,408.09,206.79Z"/><path class="cls-4" d="M237.62,235.52a14.08,14.08,0,0,0-4.94-10l.24-.64c.83-2.39,2.41-6,.92-8.46s-5.5-3.5-8-2.8a7.18,7.18,0,0,0-2.05.94,2.42,2.42,0,0,0-1.24.72c-.4.43-.8.87-1.18,1.32.47-2.91.45-6.06-2.31-7.79s-6.51-.69-8.81,1.52c.14-2.59-.75-4.8-4.08-5.38a6.89,6.89,0,0,0-2.31,0,5.63,5.63,0,0,0-2,.29c-2.89,1-4.73,3.63-5.66,6.49a32.42,32.42,0,0,0-4.18,11.4c-.38,2.4-.93,5.35.31,7.61a4.94,4.94,0,0,0,.51.75c-.12.27-.24.54-.34.82-2.07,5.76-1.55,12.75,0,18.56.06.22.14.42.21.62a6.49,6.49,0,0,0-.91,2.77c-.06.54-.11,1.08-.17,1.62a58.63,58.63,0,0,0-.93,9.31l-1.71,16.95c-.28,2.75,2.54,5.1,5.09,5.1a4.72,4.72,0,0,0,4-2,5.21,5.21,0,0,0,2.7-.45,5.64,5.64,0,0,0,1.57.28,4.94,4.94,0,0,0,6.73,1.61,7.84,7.84,0,0,0,2.82-3,5.86,5.86,0,0,0,1.68-.35,4.69,4.69,0,0,0,2.84,2.12c2.45.68,5.81-.83,6.28-3.56q1.19-7,2-14c.29-2.51,1.12-6,.84-9.05a2.47,2.47,0,0,0,.32-.38C230.43,252,238,244.14,237.62,235.52Z"/><path class="cls-4" d="M347.12,232.66a23.7,23.7,0,0,0-6.66.64,40.79,40.79,0,0,1-4,1.07c-.05-3.26-.09-6.53,0-9.78s3.43-8.5-.67-10.76a3.81,3.81,0,0,0-4.63.79c-1.52,1.55-1.39,3.43-1.16,5.43a44,44,0,0,1-.44,11.41q-3.12,0-6.24,0L325.12,221a2.59,2.59,0,0,0,.49-1.13c.46-2.44,1.36-5.66-1-7.4-2.07-1.52-5-.36-6,1.85-1.2,2.58.05,6.22,0,8.94a30.92,30.92,0,0,1-.36,3.75,72.51,72.51,0,0,0-2.74-7.37,2.57,2.57,0,0,0-4.87.71A23.51,23.51,0,0,0,312,231.63c-1.58.05-3.16.12-4.74.2q-6.19.31-12.37.88c-3.67.34-7.8.32-11.34,1.41-2.65.81-4.47,3.08-3.94,5.95.66,3.55,4.05,4.89,7.07,5.92q11.21,3.82,22.42,7.62-.36,14.1-.71,28.19a2.66,2.66,0,0,0,.08.71,10,10,0,0,1,1.34-.15l1.78-.08.59,0c4.91-.29,9.81-.89,14.7-1.35,3-.28,5.95-.95,9-1.36.1-12.44.27-24.88.79-37.31,2.86-.09,5.72-.24,8.58-.49s10.19.25,10.63-4.08S350.06,232.77,347.12,232.66Z"/><path class="cls-3" d="M333.86,237.17a12.3,12.3,0,0,0-10.07-1.31,14.54,14.54,0,0,0-7.07,4.87c-.12.1-.24.18-.35.28-.75.69-.81,1.78.24,2.21a21.24,21.24,0,0,0,3.53.9,18.34,18.34,0,0,0,3.69.45,10.62,10.62,0,0,0,6.11-1.72,14.68,14.68,0,0,0,4.06-4.6A.79.79,0,0,0,333.86,237.17Z"/><path class="cls-6" d="M323,248.2a.77.77,0,0,0-1.07.14,5.38,5.38,0,0,1-3.57,2.19c-1.14.05-2.32-.79-2.1-2a.77.77,0,0,0-.67-.85.78.78,0,0,0-.85.67,3.34,3.34,0,0,0,3.29,3.7c2.13.07,3.78-1.27,5.11-2.78A.76.76,0,0,0,323,248.2Z"/><path class="cls-2" d="M316,256.91c-1.43-1.6-4.5-1.28-6.39-1.46h-.05l-.13,0a.55.55,0,0,0-.18,0h-.18a.09.09,0,0,0,0,.05h0c0,.86-.05,1.72-.05,2.57v.22c0,.32-.05.64-.06,1s0,.54,0,.81v0h0v.1h0c0,.66-.05,1.32-.08,2a9,9,0,0,0,0,1.37c0,.55,0,1.09-.05,1.63,0,.29,0,.58,0,.87a5,5,0,0,0,0,.55c-.07.81,0,1.63,0,2.45h0c0,.36-.05.72-.06,1.07,0,.69,0,1.37,0,2.05a0,0,0,0,0,.05.05h0l.17,0a.66.66,0,0,0,.28.05,6.92,6.92,0,0,0,4.94-2.16c1.57-1.92,1.75-5,2.25-7.35C316.75,260.89,317.43,258.52,316,256.91Z"/><path class="cls-2" d="M326.28,271.85c-.67-1.55-3.13-3.05-4.84-2.6a2.39,2.39,0,0,0-.48.19,2.35,2.35,0,0,0-.43.13c-1.86.77-2.7,2.71-3,4.89a11.36,11.36,0,0,0-.16,6.38,4.26,4.26,0,0,0,.84,2.36,3,3,0,0,0,3.09.91,10.83,10.83,0,0,0,1.19-.29,4,4,0,0,0,1.08-.11,3.08,3.08,0,0,0,2.15-1.82,3.74,3.74,0,0,0,.19-.94c.25-1.95.46-3.9.57-5.87A7.2,7.2,0,0,0,326.28,271.85Z"/><path class="cls-2" d="M336.42,251.75a.53.53,0,0,0-.28-.47l-.19-.09c-2.59-.73-4.52,1-5.44,3.31-1.3,3.29-2.37,7.07-1.51,10.56.67,2.7,1.41,5.53,4.58,5.59a4.18,4.18,0,0,0,1.95,0,.66.66,0,0,0,.53-.55A172,172,0,0,0,336.42,251.75Z"/><path class="cls-6" d="M318.7,222.66s0,0,0,0v-.33a.11.11,0,0,0-.22,0v.6c-.07,1.13-.14,2.27-.24,3.4a6.92,6.92,0,0,1-1.15,3.44,4.13,4.13,0,0,1-2.95,1.57,19,19,0,0,1-3.75.33.1.1,0,0,0-.05.19.11.11,0,0,0,.08.07,15.9,15.9,0,0,0,3.45-.1,8.22,8.22,0,0,0,2.57-.68,2.73,2.73,0,0,0,.75-.36,3.78,3.78,0,0,0,1.07-2.29,24,24,0,0,0,.44-5.55A2.09,2.09,0,0,0,318.7,222.66Z"/><path class="cls-5" d="M251.59,245.32c-4.28-3.79-9.24-6.86-14.1-9.93.13,5.17-2.57,10.06-5.74,14.55l1.68,1.09c2.23,1.46,5.34,3.39,6.71,4.56a23.65,23.65,0,0,1,2.79,2.69l.42.55a24,24,0,0,1,1.32,2.3c.05.16.23.58.26.68.28,1,.56,2,.79,3q.06.25.09.42a26.73,26.73,0,0,1,.15,3c0,.52,0,1-.05,1.56s-.06,1-.11,1.47c0,.11,0,.24-.07.4a42.87,42.87,0,0,1-1.2,4.75c-1.92,5.88-6.05,12.1-9.77,17.75-2.28,3.44-.69,8.45,2.74,10.46A7.79,7.79,0,0,0,248,301.81c7.37-11.17,14.7-23.6,13-37.53C260.12,257,257.16,250.25,251.59,245.32Z"/><path class="cls-6" d="M214.37,231.48c-.56,2.22-1,4.69.31,6.75.52.83,1.84.06,1.32-.78-1-1.69-.61-3.75-.16-5.56a.76.76,0,0,0-1.47-.41Z"/><path class="cls-3" d="M186.61,503.7l4.93.39,1.92.15.56,0c3.08,0,6.17.05,9.25.06q15.06,0,30.11-.34t30-1.08a1.2,1.2,0,0,1,.44.06,2.84,2.84,0,0,1,1.2.09l-.15-8.76c0-.94,0-1.87,0-2.8a23.44,23.44,0,0,0-.17-3.75,4.14,4.14,0,0,0-2.81-3.19,14.87,14.87,0,0,0-3.47-.45q-6-.54-12.08-.76c-4.53-.17-9.07-.2-13.61-.12a1.73,1.73,0,0,0-.32,0,2.69,2.69,0,0,0-1.22.09q-11.6,3.52-22.9,7.89-6,2.29-11.84,4.82-2.7,1.15-5.38,2.35a11.76,11.76,0,0,0-4.54,3.13,8.52,8.52,0,0,0-1.34,2.32A3.43,3.43,0,0,1,186.61,503.7Z"/><path class="cls-4" d="M265,503.07a2.84,2.84,0,0,0-1.2-.09,1.2,1.2,0,0,0-.44-.06q-15,.72-30,1.08t-30.11.34c-3.08,0-6.17,0-9.25-.06l-.56,0-1.92-.15-4.93-.39a3.43,3.43,0,0,0-1.5.17,1.05,1.05,0,0,0-.26.13,1,1,0,0,0-.17.1.69.69,0,0,0-.25.34.81.81,0,0,0-.15.31c-.07.22-.13.46-.19.69,0,0,0,.08,0,.12v0a19.66,19.66,0,0,0-.67,5.26,15,15,0,0,0,.39,3.66,4.22,4.22,0,0,0,1.36,2.67c1.88,1.49,4.71,1.81,7,1.84,1.44,0,2.89-.06,4.33-.17.36,0,.71-.07,1.06-.12l.69-.06a5.06,5.06,0,0,0,2.12-.3,4.39,4.39,0,0,0,1.69-3.24c.1-.67.16-1.34.24-2a4.47,4.47,0,0,1,.48-1.87.68.68,0,0,1,1.1-.15,4,4,0,0,1,.71,2.43c0,.3,0,.62,0,1,.08.79.11,1.6.16,2.39a3.38,3.38,0,0,0,.89,1.8,3.34,3.34,0,0,0,.79.56l.3,0a37.8,37.8,0,0,0,3.84.06c2,0,4.22.08,6.08-.9a4.54,4.54,0,0,0,2.14-2.48c.32-1.52-.11-3.31,1-4.55a.33.33,0,0,1,.43-.05c1.4,1.07,1,3.24,1.4,4.77a7,7,0,0,0,.68,1.77c1.35,1.05,3.41,1.15,5.11,1.37a36.36,36.36,0,0,0,7.58.42,3.36,3.36,0,0,0,1.65-.57,4.71,4.71,0,0,0,1.08-3.06c.06-.63.09-1.27.18-1.9a8.54,8.54,0,0,1,.26-1.67c.17-.47.64-.87,1.14-.54s.53,1,.57,1.45c.16,1.5-.1,3.26.83,4.54a4.86,4.86,0,0,0,2.2,1.58,40.44,40.44,0,0,0,9.19.58c3.28-.14,6.53-.57,9.76-1,1.29-.18,3-.15,3.4-1.67a7.6,7.6,0,0,0,.14-1.79,2.55,2.55,0,0,0,.55-1.45c.21-2.93.41-5.85.62-8.77A2.12,2.12,0,0,0,265,503.07Z"/><path class="cls-3" d="M441.28,278.91c-1.4-6.47-3.91-12.63-6.44-18.73-2.32-5.62-4.69-11.23-7.22-16.77a178,178,0,0,0-18-31.48l0,0c-1.16-1.93-2.39-4.4-4.63-5.26-2.5-1-5.06,1-7.14,2.17l-8,4.4a1.46,1.46,0,0,0-.24.17q-10.6,5.56-20.86,11.79a3.8,3.8,0,0,0-1.76,4.51,2.42,2.42,0,0,0,.13.46q10.76,27.8,22.49,55.21c-9.73,3.93-19.58,8-29.8,10a47.74,47.74,0,0,1-7.84,1,14.49,14.49,0,0,1-7.05-2.72,17.27,17.27,0,0,1-5.39-9.86c-.05-.38-.1-.76-.15-1.16,0-.15,0-.3,0-.45a5.75,5.75,0,0,0-.12-.76,6.91,6.91,0,0,0-1.6-3.82,5.17,5.17,0,0,0-3.33-1.53,5.65,5.65,0,0,0-2.13,0l-22.46,4.69a4.16,4.16,0,0,0-1.54.66,3.94,3.94,0,0,0-1.56,1.42,6.6,6.6,0,0,0-.63,4.35c.38,3.34.81,6.67,1.21,10a23.13,23.13,0,0,1,.38,5,4.54,4.54,0,0,1-.14.82,11.66,11.66,0,0,1-1.06,1.16A122.72,122.72,0,0,1,267.53,319c-9.26,1.81-20.84,2.84-29.86-1.05a14.47,14.47,0,0,1-5.51-5.33c-1.39-2.57-1.75-5.65-2-8.52a233.43,233.43,0,0,1-.48-24.67,5.17,5.17,0,0,0-5.1-5.1l-32.7-.23c-.82-.08-1.64-.17-2.47-.24-2.47-.2-5,.24-6.17,2.68-1.09,2.24-1,5-1.12,7.45-.09,2-.12,4.09-.11,6.13A98.67,98.67,0,0,0,196.6,351c6.87,10.89,15.53,20.31,27.94,24.65,12.1,4.24,25.37,3.45,37.58.13a139.88,139.88,0,0,0,21.49-8.11c2.52-1.16,5-2.37,7.4-3.68q10.39,16.2,20.91,32.32c4.14-.59,8.25-1.28,12.36-2,8.42-1.52,16.81-3.38,25.3-4.43A120.15,120.15,0,0,0,361.67,388c.86-.19,1.7-.43,2.54-.67q4.8-20.2,10.17-40.25c11.41-4.3,23-8.35,34-13.62,10.54-5.06,20.27-11.93,26.94-21.67S443.78,290.46,441.28,278.91Z"/><path class="cls-6" d="M306.63,335.47c-9.35,2.9-12.59,18-4,23.61,1,.63,1.87-.93.9-1.55-7.26-4.72-4.24-17.9,3.59-20.33,1.1-.34.63-2.08-.48-1.73Z"/><path class="cls-6" d="M342,331.83A17.58,17.58,0,0,0,334,344.46c-.59,4.85,1.08,10.57,5.75,12.85,1,.51,1.95-1,.91-1.55-4.13-2-5.44-7.1-4.85-11.36a15.77,15.77,0,0,1,7-11c1-.62.07-2.18-.9-1.55Z"/><path class="cls-6" d="M334.51,276.62l-13.65,91.61-3.81,25.61c-.17,1.13,1.56,1.61,1.73.47l13.65-91.6,3.81-25.62c.17-1.13-1.56-1.61-1.73-.47Z"/><path class="cls-6" d="M318.74,286.47c-3.85,0-3.86,6,0,6S322.6,286.47,318.74,286.47Z"/><path class="cls-6" d="M324.22,235.7a1.6,1.6,0,0,0-1-.73,2.46,2.46,0,0,0-2,.59,2.76,2.76,0,0,0-.23.27,5.74,5.74,0,0,0-.69.91,4.85,4.85,0,0,0-.71,3.25,1.86,1.86,0,0,0,.41.86,2.06,2.06,0,0,0,.37.48,1.66,1.66,0,0,0,1.55.4c.75-.2,1.07-.83,1.36-1.48s.48-1.11.68-1.68.35-1,.47-1.49A1.84,1.84,0,0,0,324.22,235.7Z"/><path class="cls-6" d="M207.52,218.07c-3.2,2.67-1.58,7.1.92,9.59a18.1,18.1,0,0,0,5.31,3.59,29,29,0,0,1,5.93,3l.16-1.2c-4.77,2.54-8.36,7.38-7.64,13,.13,1,1.66,1,1.53,0-.66-5.1,2.54-9.35,6.88-11.66a.77.77,0,0,0,.15-1.2c-2.76-2.16-6.27-2.89-9.14-4.88-2.64-1.83-6.56-6.21-3-9.16.76-.63-.33-1.7-1.08-1.08Z"/><path class="cls-6" d="M208.27,219.34c3.63-2.5,8.37-1.32,12.22,0A34.53,34.53,0,0,1,232,225.68c.74.63,1.83-.45,1.08-1.09a36.72,36.72,0,0,0-12.52-6.88c-4.15-1.34-9.16-2.35-13,.31-.8.55,0,1.88.77,1.32Z"/><path class="cls-6" d="M197.39,208.53A76.35,76.35,0,0,0,193,219.1c-1,3.21-2.23,7.35-1.13,10.68.91,2.75,3.56,4.48,6.4,3.44,3.23-1.19,4.49-4.55,5.68-7.49l5.29-13.16c.36-.89-1.08-1.28-1.43-.4l-4.87,12.09a25,25,0,0,1-2.57,5.49c-1.1,1.52-3.15,2.92-5.07,2.06-3.87-1.75-2.08-8.06-1.24-11.07a69.78,69.78,0,0,1,4.64-11.46c.42-.86-.86-1.61-1.28-.75Z"/><path class="cls-6" d="M205.67,219.37a66.23,66.23,0,0,0-2.89,9.66c-.61,2.8-1.19,6.25,1.11,8.49,1.83,1.79,4.74,1.65,6.88.48,2.49-1.37,3.87-4.08,5-6.56.42-.89-.9-1.66-1.32-.77-1,2.12-2.11,4.53-4.16,5.82-1.85,1.16-4.64,1.34-5.9-.75-1.41-2.32-.39-5.46.2-7.89a69.32,69.32,0,0,1,2.52-8.08c.36-.92-1.12-1.32-1.47-.4Z"/><path class="cls-7" d="M356.4,319.89c-.16-.35-.31-.7-.44-1.06a8.63,8.63,0,0,1-.72-2.72,5.86,5.86,0,0,1,.09-1,1.07,1.07,0,0,0,0-.64c-.15-.27-.53-.31-.84-.32l-3.16-.06a1.77,1.77,0,0,0-.72.09.58.58,0,0,0-.36.58c0,.23.27.38.46.53a8.18,8.18,0,0,1,2.13,3.93c.68,2.48,1.85,4.29,2.61,6.74.13.4.36.91.78.86s.46-.32.59-.57c.21-.4.38-.82.58-1.22a8.73,8.73,0,0,0,.45-.78,1.27,1.27,0,0,0-.06-.9c-.11-.42-.24-.84-.39-1.25C357.1,321.32,356.74,320.61,356.4,319.89Z"/><path class="cls-7" d="M349.79,316.9c0,.09.06.18.09.27a23.2,23.2,0,0,0,.89,2.71,21.44,21.44,0,0,1,.89,2.09,4.3,4.3,0,0,1,.51,2.11,2.72,2.72,0,0,1-.29.73l-.77,1.45a1.57,1.57,0,0,1-.29.42.49.49,0,0,1-.47.12.67.67,0,0,1-.31-.31,21.46,21.46,0,0,1-1-2.48c-.38-.87-.78-1.73-1.1-2.63a28.15,28.15,0,0,0-1.78-4.71,5.61,5.61,0,0,0-.81-1.12c-.26-.26-.78-.5-.76-.92a.64.64,0,0,1,.55-.52,6.45,6.45,0,0,1,1.7-.09l.89.05c.24,0,.53-.06.74.11a.83.83,0,0,1,.19.23A13.64,13.64,0,0,1,349.79,316.9Z"/><path class="cls-7" d="M356.75,316.24c.13,1.46,1.87,1.68,3,1.24,1.37-.52.79-2.13-.08-2.84A1.8,1.8,0,0,0,356.75,316.24Z"/><path class="cls-1" d="M389.65,469.09c-2.27-5.51-5.2-10.09-10.79-12.61a63.37,63.37,0,0,0,10-10c8.7-11.06,13-24.1,10.75-38.14A36.94,36.94,0,0,0,374.71,379c-13.85-4.56-28.75-.54-41.17,6.08-12.25,6.53-23.51,15.25-34.35,23.84-10.62,8.41-20.76,17.41-30.61,26.7C257.48,446.12,246.43,456.8,236,468c-4.71,5.05-9.17,10.86-11,17.6a12.14,12.14,0,0,0-.71,1.6c-3,8.18.08,17,5.44,23.39,4.77,5.66,12.05,8.92,19.22,10.21a129.27,129.27,0,0,0,17.26,1.64,103.52,103.52,0,0,0,14.26,1.29,207.31,207.31,0,0,0,22.42-1q19.63-.63,39.16-2.86,6.57-.75,13.11-1.66c4.6-.38,9.18-.84,13.7-1.54q4.32-.55,8.6-1.21a20.11,20.11,0,0,0,6.85-2.3,15.09,15.09,0,0,0,6.21-3.48c4.26-4.12,4.7-9.2,3.45-14.22C394.82,486.34,392.57,476.16,389.65,469.09Z"/><path class="cls-2" d="M346.6,418.42a3.1,3.1,0,0,0,2.23,1.19,2.71,2.71,0,0,0,2-1.66c2-4-.5-9.5,2.15-13s9-2.37,11.27-6.31c1.66-2.86.1-6.5-1.65-9.21A64.17,64.17,0,0,0,353.17,378a69.5,69.5,0,0,0-19.63,7.15c-2.23,1.19-4.44,2.45-6.61,3.78,4,7.78,10,16.33,11.38,18.53A60.14,60.14,0,0,0,346.6,418.42Z"/><path class="cls-2" d="M321.47,406.59c5.42-4.19,2.84-8.79.06-13.12-.18-.27-.34-.54-.5-.81-6.59,4.4-12.92,9.25-19.11,14.13C308.43,409.06,317,410.05,321.47,406.59Z"/><path class="cls-2" d="M348.9,428.55c-2.3.12-4.79,0-6.6-1.4a10.46,10.46,0,0,1-2.18-2.67c-2.79-4.33-5.3-9.65-8.81-13.42-5.06-5.43-3.91-.48-7.62,2.1-1.27.88-3,.44-4.53.61-4.15.46-2.57,5.88-1.66,8.22l3.77,9.63c1.79,4.55,4,9.59,8.61,11.32a5.14,5.14,0,0,0,4,.09c2.18-1,3.19-4,5.56-4.35,2.64-.38,4.23,2.73,5.32,5.17a29.72,29.72,0,0,0,5.2,7.9,12.93,12.93,0,0,0,5.74,4,6.19,6.19,0,0,0,6.47-1.65c1.64-2,1.39-4.92.94-7.47C361.39,437.11,360.5,427.94,348.9,428.55Z"/><path class="cls-2" d="M377.1,385.76c.08.16.16.33.25.5,1.17,2.46,1.11,5.87,3.12,7.9,2.4,2.42,8.37.27,10-2.24a4.56,4.56,0,0,0,.65-1.93,36.94,36.94,0,0,0-16.42-11,38.82,38.82,0,0,0-8.15-1.72c1.71,1.08,3.42,2.15,5.19,3.2A12.64,12.64,0,0,1,377.1,385.76Z"/><path class="cls-2" d="M392.34,434.62a4.09,4.09,0,0,0-2.51-3.46c-3-.79-6.06-1.59-9.1-2.36a17.5,17.5,0,0,0-7.26-.67c-2.21.39-4.36,1.1-5.46,3.23a11.89,11.89,0,0,0-.57,9c.41.7.66,1.21,1,1.66a22.37,22.37,0,0,0,11.78,8.33,14.76,14.76,0,0,0,4.48.82,61.17,61.17,0,0,0,4.2-4.75q1.78-2.28,3.32-4.67C392.41,439.05,392.29,436.33,392.34,434.62Z"/><path class="cls-2" d="M361.37,422.45a40.8,40.8,0,0,0,18.54-1.07c3.69-1.06,5-2.83,4.73-6.65a66.93,66.93,0,0,0-1-7.86c-.79-4.32-4-6.63-8.37-6a14.2,14.2,0,0,0-4.45,1.47c-4,2-7.72,5.63-10.94,8.27a8.5,8.5,0,0,0-3,5.74C356.53,419.59,358.15,421.87,361.37,422.45Z"/><path class="cls-2" d="M390.65,406.76A21.64,21.64,0,0,0,392,417.38a4.43,4.43,0,0,0,4.53,3.12,8.87,8.87,0,0,0,1.86,0l1.63-.27a45.3,45.3,0,0,0-.36-11.88,36.9,36.9,0,0,0-2.14-7.79c-.89.34-1.77.73-2.65,1.12A6.62,6.62,0,0,0,390.65,406.76Z"/><path class="cls-2" d="M289.6,439.78c-.21,2.78-.38,5.57-.39,8.35,0,9.61,14,14.54,21.83,13.5a13.6,13.6,0,0,0,6.41-2.39,7.84,7.84,0,0,0,3.27-5.83,12.21,12.21,0,0,0-.87-4.19c-3.18-9.35-6.27-18.45-9.31-27.88q-.8-2.49-1.62-5a6.05,6.05,0,0,0-1.87-3.18c-1.43-1-3.39-.62-5.05-.07a39.83,39.83,0,0,0-5.8,2.45c-2.86,1.48-5.72,3.51-6.8,6.54s-.2,6,.44,8.87C290.59,434.3,289.86,436.43,289.6,439.78Z"/><path class="cls-2" d="M282.5,424.21c0-.42,0-.83,0-1.24q-7.05,6.21-13.88,12.67l-.81.77a36.88,36.88,0,0,0,10.93,2.52C289.4,439.76,282.89,430.83,282.5,424.21Z"/><path class="cls-2" d="M257.84,475.73c4.44.33,8.86-.54,13.22-1.42l4.24-.85c8.89-1.78,8.55-10.28,7.18-17.76-.7-3.82-2.47-7.57-5.56-9.91-2.55-1.91-5.75-2.71-8.88-3.29a54.62,54.62,0,0,0-5.86-.78c-6.49,6.21-12.93,12.51-19.2,18.95a15.92,15.92,0,0,0,3.13,9.54C248.89,473.68,253.41,475.39,257.84,475.73Z"/><path class="cls-2" d="M338.12,450.62a4.68,4.68,0,0,0-5,.7,6.35,6.35,0,0,0-1.45,3.66,31.21,31.21,0,0,0,.75,12.43,7,7,0,0,0,1.94,3.69,6.91,6.91,0,0,0,4.27,1.25c3.06.08,12.25-.71,13.11-4.6.77-3.51-7.22-11.43-9.42-13.83A12.13,12.13,0,0,0,338.12,450.62Z"/><path class="cls-2" d="M373.4,456.34c-2.59.7-4.37,3-5.81,5.28a11.68,11.68,0,0,0-1.85,4.06c-.59,3.15,1.36,6.39,4.09,8.09s6.05,2.14,9.26,2.11A19.84,19.84,0,0,0,389,473.6a12.21,12.21,0,0,0,1.82-1.32c-.38-1.12-.77-2.19-1.19-3.19-2.26-5.47-5.16-10-10.68-12.56l-.63-.1A11.94,11.94,0,0,0,373.4,456.34Z"/><path class="cls-2" d="M366.51,516.94l2.37-.34q4.32-.55,8.6-1.21a20.11,20.11,0,0,0,6.85-2.3l.56-.19C379.15,511.05,371.38,513.49,366.51,516.94Z"/><path class="cls-2" d="M388.27,484.46l-2.85,3.25c-6,6.82-.54,13.37,5.1,18.48a19.83,19.83,0,0,0,1.74,1.41c2.63-3.7,2.79-8,1.73-12.21a54.21,54.21,0,0,0-1.16-15.89C391.24,481.08,389.75,482.78,388.27,484.46Z"/><path class="cls-2" d="M369.41,504.72c2.74-.59,6.24-.35,7.6-2.8,1.17-2.14-.24-4.69-1-7-.94-3,.61-5.73.06-8.49-.6-3-3.61-3.06-6-3.48-.32-.06-.62-.12-.92-.2a17.55,17.55,0,0,1-6.49-3.56c-2.22-1.68-4.86-3.28-7.61-2.86-1.94.3-3.57,1.55-5.32,2.43a14.42,14.42,0,0,1-7,1.49c-1.49-.07-3.12-.34-4.38.47-2.79,1.78-1.22,5.9.34,7.93,1.06,1.38,2.48,2.46,3.47,3.9,3,4.43,1.05,10.41,1.6,15.75a16.29,16.29,0,0,0,3.25,8.18,5.88,5.88,0,0,0,3.14,2.34l2.27-.3a9,9,0,0,0,1.16-.68C359.31,513.91,362.62,506.19,369.41,504.72Z"/><path class="cls-2" d="M324.8,478.82c3.7-3.4,3.89-8.1.34-11.66s-7.47-.67-11.33.95c-5.28,2.21-11.34.75-16.77-1.09-2.3-.78-5.17-1.51-6.88.21a6.1,6.1,0,0,0-1.34,2.9,16.82,16.82,0,0,0-.54,7c1.06,5.8,7.14,9.6,13,10s11.57-1.95,16.94-4.37A23.65,23.65,0,0,0,324.8,478.82Z"/><path class="cls-2" d="M331.36,491.38c-3.71-3.44-5.86-4.72-10.39-1.73a48.25,48.25,0,0,1-9.9,5,13.11,13.11,0,0,0-3.73,1.79,3.74,3.74,0,0,0-1.5,3.64,5.07,5.07,0,0,0,1.21,2,44.26,44.26,0,0,0,22.41,13.85c1.85.47,4,.78,5.55-.28,4.84-3.22,4-13.81,1.63-18.36C335.41,495,333.25,493.14,331.36,491.38Z"/><path class="cls-2" d="M295.71,498.58c1-3.6,2.55-6.57-2.77-6.51a15.46,15.46,0,0,1-10.41-3.9c-2-1.78-3.13-4.64-5.58-5.84-1.72-.85-3.74-.68-5.65-.45a19.63,19.63,0,0,0-5.08,1.16,3.91,3.91,0,0,0-1.32.82c-1.35,1.39-.59,3.68-.9,5.58-.47,2.84-3.37,4.75-4,7.55a6.22,6.22,0,0,0,3.22,6.49,10.24,10.24,0,0,0,7.54.67c3.63-.94,7.19-4.35,11.13-2.67,2.65,1.13,3.39,4.44,4.74,7a12.43,12.43,0,0,0,3.38,4c1.91,1.48,4.76,2.33,6.66.84,2.06-1.61,1.69-4.83.73-7.26S295,501.11,295.71,498.58Z"/><path class="cls-2" d="M306.43,515c-1.92.74-2.55,3.06-3.86,4.47s-2.95,2.27-4.28,3.55l4.62-.38q9.48-.3,18.93-1c-3.14-2.45-7.71-4.3-10.26-5.65C310,515.18,308.12,514.36,306.43,515Z"/><path class="cls-2" d="M279.19,509.41a8.33,8.33,0,0,0-3.92.65,29.75,29.75,0,0,0-7.45,4,13.45,13.45,0,0,0-3.31,3.25,10.35,10.35,0,0,0-1.58,4.15c0,.26-.06.52-.08.78l3.38.16a103.52,103.52,0,0,0,14.26,1.29c2.75.06,5.51,0,8.27-.08-.91-2.4-2.25-4.86-3.23-7.2C284.27,513.36,282.47,509.87,279.19,509.41Z"/><path class="cls-2" d="M236.67,471.15a7,7,0,0,0-1.86-1.86c-4.25,4.73-8.12,10.11-9.79,16.27a12.14,12.14,0,0,0-.71,1.6c-2.71,7.47-.4,15.48,4.11,21.67a110.27,110.27,0,0,0,9.19-23.4C238.81,480.66,239.47,475.2,236.67,471.15Z"/><path class="cls-2" d="M246.29,485.27a10.94,10.94,0,0,0-1.84,3.88c-2.28,7.15-5.13,14.15-7.12,21.38a4.42,4.42,0,0,0-.18,2.51,4.57,4.57,0,0,0,2.28,2.24,20,20,0,0,0,5.1,2.42A6.75,6.75,0,0,0,250,517c2-1.37,2.76-4,3-6.43a51.36,51.36,0,0,0,.14-5.55c0-3.06-.51-6.34.59-9.22s3-4.7,3-8a4.69,4.69,0,0,0-.57-2.66C254.42,482.54,248.09,483.16,246.29,485.27Z"/></svg>