<svg id="clients_uniqlo" data-name="clients/uniqlo" xmlns="http://www.w3.org/2000/svg" width="100" height="75.676" viewBox="0 0 100 75.676">
  <path id="uniqlo" d="M69.553,34.918H36.174V0h33.38V34.916h0ZM44.559,30.06h0l.718,2.263h2.165l-1.076-3.28A3.785,3.785,0,0,0,47.4,26.417V22.8a3.528,3.528,0,1,0-7.046,0v3.621a3.626,3.626,0,0,0,3.525,3.712,3.326,3.326,0,0,0,.674-.069ZM58.252,22.8v3.621a3.558,3.558,0,1,0,7.11,0V22.8a3.558,3.558,0,1,0-7.11,0Zm-8.081,7.3h7.039V27.933H52.278V19.074H50.171ZM52.314,9.62l2.824,6.18h2.077V4.809H55.14v6.25l-2.828-6.25H50.176V15.8h2.136V9.62ZM40.372,12.188A3.542,3.542,0,0,0,43.83,15.8h.122a3.541,3.541,0,0,0,3.459-3.612V4.809H45.274v7.35a1.385,1.385,0,1,1-2.767,0V4.809H40.372ZM60.734,15.8h2.105V4.779H60.734ZM33.379,34.918H0V0H33.38V34.916h0ZM4.2,30.111H12.28l2.093-10.629H6.294L5.066,25.718H7.183l.809-3.978h3.86L10.61,27.856H4.645Zm14.761-.006h9.147V19.47H18.962ZM5.254,15.456h9.1V13.241H12.281V4.811H6.328V7h3.88v6.239H5.254ZM19,15.436h9.084v-2.2H19Zm1.02-8.454H27.03V4.777H20.024Zm1.045,20.953V21.671h4.907v6.265ZM60.4,26.4V22.78a1.4,1.4,0,1,1,2.792,0V26.4a1.4,1.4,0,1,1-2.792,0Zm-17.912,0V22.78a1.385,1.385,0,1,1,2.767,0V26.4a1.385,1.385,0,1,1-2.767,0Z" transform="translate(14.865 20.27)" fill="#fbfcfd"/>
</svg>
