<svg id="clients_uniqlo" data-name="clients uniqlo" xmlns="http://www.w3.org/2000/svg" viewBox="0 0 100 75.68"><defs><style>.cls-1{fill:#fbfcfd;}</style></defs><path class="cls-1" d="M94.63,30.1h-2.2v2.37h2.2V45.58h2.2V30.1ZM89.7,33.86c0-2.06-1-3.89-3.26-3.89a3.34,3.34,0,0,0-3.3,3.37v1.22h2.2V33.3a1,1,0,0,1,1.08-1.11c1.08,0,1.08.93,1.08,1.71a3.67,3.67,0,0,1-.39,2l-4,7.55v2.08H89.7V43.36h-4L89,37.07A5.2,5.2,0,0,0,89.7,33.86ZM69,37H67.75V32.19h1.14c1.62,0,1.88.85,1.88,2.41S70.54,37,69,37Zm4-2.36c0-3-1.27-4.55-3.88-4.55H65.55V45.58h2.2V39h1.31l2,6.61h2.33l-2.37-7.06C72.47,37.73,73,36.43,73,34.65ZM55.6,45.58h6.56V43.36H57.8V38.82h3.8V36.73H57.8V32.19h4.36V30.1H55.6Zm-7.39-4.67h0L46.42,30.1H44.09l3.13,15.48h1.94L52.31,30.1H50ZM34.7,45.58h6.56V43.36H36.9V38.82h3.8V36.73H36.9V32.19h4.36V30.1H34.7ZM27.18,37H25.93V32.19h1.14c1.62,0,1.88.85,1.88,2.41S28.71,37,27.18,37Zm4-2.36c0-3-1.27-4.55-3.88-4.55H23.73V45.58h2.2V39h1.31l2.05,6.61h2.33l-2.37-7.06C30.65,37.73,31.15,36.43,31.15,34.65ZM18,41.93a1.49,1.49,0,1,1-3,0V33.75a1.49,1.49,0,1,1,3,0ZM16.5,30a3.62,3.62,0,0,0-3.69,3.78v8.17A3.61,3.61,0,0,0,16.5,45.7a3.61,3.61,0,0,0,3.69-3.78V33.75A3.62,3.62,0,0,0,16.5,30ZM3.17,45.58h2.2V39h3.8V36.88H5.37V32.19H9.73V30.1H3.17Z"/></svg>