<svg id="clients_clarins" data-name="clients/clarins" xmlns="http://www.w3.org/2000/svg" width="100" height="75.676" viewBox="0 0 100 75.676">
  <path id="clarins" d="M83.764,11.4c-.147,0-.276-.13-.658-.516-.24-.243-.569-.578-1.059-1.039-3.6-3.4-6.619-6.013-8.989-7.909V8.387c0,1.646.558,2.108.977,2.311a2.575,2.575,0,0,0,.261.118c.113.044.195.077.195.171,0,.134-.173.134-.229.134-.09,0-.229-.006-.41-.015-.308-.015-.729-.034-1.181-.034-.236,0-.687.015-1.084.029-.3.011-.562.019-.665.019-.14,0-.214-.016-.255-.056a.114.114,0,0,1-.034-.078c0-.1.122-.136.32-.2a2.022,2.022,0,0,0,.506-.227c.618-.444.827-1.078.827-2.511V2.435c-.023-.918-.186-1.429-1.025-1.67-.086-.028-.229-.089-.229-.179a.153.153,0,0,1,.044-.113A.4.4,0,0,1,71.36.4c.08,0,.247.01.459.022.324.019.724.043,1.012.043.585,0,1.236-.022,1.489-.032a.068.068,0,0,1,.055.024,19.535,19.535,0,0,0,2.418,2.3S82.419,7.632,83.3,8.4V3.154c0-1.582-.749-2.12-1.074-2.278a1.87,1.87,0,0,0-.269-.092c-.126-.038-.227-.066-.227-.164A.167.167,0,0,1,81.777.5a.515.515,0,0,1,.358-.1c.14,0,.4.013.676.029.326.017.663.035.874.035s.449-.016.681-.032S84.846.4,85.057.4a.522.522,0,0,1,.36.094.154.154,0,0,1,.047.1c0,.1-.117.152-.364.243-.441.147-1.029.544-1.029,2.308V9.777c0,1.621-.189,1.621-.268,1.621Zm3.746-1.171c-.208-.074-.242-.108-.242-.162a.3.3,0,0,1,.046-.125l.654-1.649a.227.227,0,0,1,.223-.158.223.223,0,0,1,.207.184c.244,1.737,3.165,2.514,5.162,2.514a5.834,5.834,0,0,0,3.8-1.131,1.664,1.664,0,0,0,.524-1.22c0-1.4-1.391-1.749-2.943-2.01l-2.5-.409c-2.7-.434-4.074-1.321-4.074-2.636a2.474,2.474,0,0,1,.781-1.811A7.154,7.154,0,0,1,94.077.119a14.1,14.1,0,0,1,5.237,1.019.066.066,0,0,1,.034.089l-.556,1.34c-.118.269-.186.386-.282.386s-.135-.1-.2-.268c-.016-.038-.028-.077-.046-.118-.553-1.4-3.167-1.9-4.787-1.9-1.508,0-3.27.542-3.27,2.074,0,1.408,2.1,1.742,3.491,1.963l.289.046,2.344.36c2.223.349,3.4,1.289,3.4,2.717,0,2.587-3.933,3.551-6.412,3.551A17.766,17.766,0,0,1,87.51,10.227ZM1.38,8.981A4.381,4.381,0,0,1,0,5.776,4.9,4.9,0,0,1,1.495,2.217,9.1,9.1,0,0,1,7.882,0a10.544,10.544,0,0,1,5.661,1.467.068.068,0,0,1,.029.083s-.378.947-.378.949c-.191.449-.28.648-.422.648a.263.263,0,0,1-.205-.194C11.9,1.356,10.312.545,7.863.545c-3.4,0-5.6,1.957-5.6,4.986A5.1,5.1,0,0,0,3.709,9.216a5.721,5.721,0,0,0,4.133,1.5c2.31,0,4.168-.788,4.971-2.109l.033-.064c.064-.124.119-.231.244-.231s.163.137.265.439c0,0,.319,1.016.319,1.016a.069.069,0,0,1-.032.079,11.344,11.344,0,0,1-5.7,1.416A9.479,9.479,0,0,1,1.38,8.981ZM12.57,2.957Zm54.238,8.16c-.3-.015-.8-.039-1.467-.039-.793,0-1.284.026-1.579.04-.114,0-.2.009-.251.009-.158,0-.234-.013-.276-.056a.106.106,0,0,1-.032-.075c0-.062.058-.092.165-.145.044-.023.1-.049.146-.078.794-.416.9-1.693.9-2.886V2.13c0-.563-.052-1.181-.686-1.374L63.7.743c-.069-.028-.157-.063-.157-.168a.146.146,0,0,1,.039-.112c.054-.055.14-.055.345-.055.09,0,.2.01.349.021.253.019.6.045,1.064.045.226,0,.462-.016.69-.032s.471-.034.7-.034c.21,0,.322.022.373.073a.1.1,0,0,1,.034.078c0,.05-.021.168-.2.2-.625.152-.679.761-.679,1.373V7.886c0,1.455,0,2.6.851,2.913.119.036.263.1.263.21,0,.081-.089.117-.288.117C67.034,11.126,66.941,11.122,66.808,11.116Zm-17.241,0-.074,0c-.251-.015-.668-.039-1.517-.039-1.22,0-1.738.032-1.934.044-.049,0-.075,0-.094,0a.343.343,0,0,1-.215-.058.106.106,0,0,1-.033-.075c0-.067.069-.1.236-.17l.018-.009c.035-.015.072-.03.1-.046.684-.281.975-1.236.975-3.193V2.143c0-.733-.246-1.185-.729-1.341C46.069.73,45.96.652,45.96.557a.1.1,0,0,1,.032-.074c.039-.04.119-.075.435-.075h5.845c3.244,0,5.253.426,6.142,1.3a1.785,1.785,0,0,1,.546,1.332c0,1.732-2.359,2.477-4.381,2.591,2.012.564,2.632.9,3.645,2.64a4.029,4.029,0,0,1,.248.517,3.055,3.055,0,0,0,1.469,1.929l.083.039a.729.729,0,0,0,.165.067l.027.006c.08.018.19.045.19.128,0,.117-.187.117-.268.117H57.972c-.46,0-.587-.045-.78-.483l-.1-.224a12.883,12.883,0,0,0-1.369-2.943c-.946-1.311-1.643-1.665-4.746-1.665h-2.1V8.081c0,1.659.309,2.547.943,2.715.276.064.37.113.37.2,0,.036,0,.134-.466.134C49.681,11.125,49.63,11.121,49.567,11.119Zm-.687-5.9h3.61c1.181,0,2.846-.1,3.678-.916A1.823,1.823,0,0,0,56.7,2.944a1.536,1.536,0,0,0-.471-1.13,4.189,4.189,0,0,0-2.88-.861H48.88ZM15.9,11.064a.155.155,0,0,1-.04-.111c0-.129.184-.168.332-.2.956-.235,1.217-.825,1.217-2.745V2.269c0-1.114-.268-1.389-.761-1.5-.192-.052-.212-.145-.212-.181a.132.132,0,0,1,.04-.095A.578.578,0,0,1,16.862.4c.088,0,.2.01.348.019.252.019.6.046,1.063.046.5,0,.9-.022,1.228-.041.229-.012.427-.024.6-.024a.354.354,0,0,1,.246.062.149.149,0,0,1,.041.1c0,.1-.094.136-.162.162a.372.372,0,0,0-.039.016l-.011,0c-.78.176-.9.793-.921,1.374V6.75c0,1.98.078,3,.518,3.433.321.317.857.342,1.639.342,2.289,0,5.153-.263,6.4-1.514.1-.137.218-.268.37-.268a.164.164,0,0,1,.12.043.188.188,0,0,1,.047.139,1.006,1.006,0,0,1-.043.216c0,.006-.756,1.886-.756,1.886a.071.071,0,0,1-.064.043H17.517c-.591,0-.957.024-1.177.04-.088,0-.152.009-.195.009C16.022,11.119,15.947,11.11,15.9,11.064Zm27.15.028-.158,0-.091,0c-.289-.009-.59-.016-.873-.016s-.614.007-.935.015l-.117,0-.187,0c-.281.006-.545.012-.769.012a.286.286,0,0,1-.2-.05.1.1,0,0,1-.028-.067c0-.122.131-.163.258-.2l.022-.009c.044-.015.092-.03.14-.05a.51.51,0,0,0,.315-.525,5.588,5.588,0,0,0-.944-2.108c-.035-.054-.843-1.281-1-1.54H32.924l-.98,1.361a4.323,4.323,0,0,0-.864,2.057.834.834,0,0,0,.465.662,1.644,1.644,0,0,0,.319.139c.151.054.27.095.27.2,0,.123-.181.134-.366.134-.234,0-.461-.009-.713-.017l-.157-.006c-.179-.006-.348-.011-.522-.011-.195,0-.4.006-.59.012l-.134,0c-.226.007-.482.017-.729.017a.635.635,0,0,1-.392-.066.12.12,0,0,1-.035-.085c0-.1.129-.175.277-.259a1.389,1.389,0,0,0,.164-.1,11.305,11.305,0,0,0,2.014-2.375l.022-.03,5.083-7.7L36.2.27a.225.225,0,0,1,.2-.13h.04A.253.253,0,0,1,36.6.215a.137.137,0,0,1,.038.058L42.5,9.561a3.625,3.625,0,0,0,1.228,1.153q.075.042.135.073l.007,0c.135.071.191.1.191.163,0,.1-.09.151-.268.151C43.558,11.1,43.309,11.1,43.048,11.092Zm-9.7-5.083H38.13L35.8,2.083Z" transform="translate(0 32.432)" fill="#fbfcfd"/>
</svg>
