<svg xmlns="http://www.w3.org/2000/svg" width="101" height="35" viewBox="0 0 101 35">
  <path id="logo_nike" data-name="logo/nike" d="M11.142,34.986a12.571,12.571,0,0,1-7.4-2.4,14.533,14.533,0,0,1-1.537-1.5A9.27,9.27,0,0,1,.543,28.172C-.547,25,.013,20.836,2.145,16.267,3.971,12.355,6.788,8.476,11.7,3.1,12.426,2.312,14.582,0,14.6,0s-.112.2-.26.439a27.758,27.758,0,0,0-2.966,6.655c-.957,3.406-.841,6.328.339,8.595a8.524,8.524,0,0,0,3.778,3.661c2.746,1.309,6.767,1.417,11.676.318.338-.076,17.089-4.4,37.223-9.605S101,.6,101,.6,54.221,20.068,29.935,30.165c-3.846,1.6-4.875,2-6.683,2.619a34.745,34.745,0,0,1-12.11,2.2" fill="#fbfcfd"/>
</svg>
