<?xml version="1.0" encoding="utf-8"?>
<!-- Generator: Adobe Illustrator 20.1.0, SVG Export Plug-In . SVG Version: 6.00 Build 0)  -->
<svg version="1.1" id="Layer_1" xmlns="http://www.w3.org/2000/svg" xmlns:xlink="http://www.w3.org/1999/xlink" x="0px" y="0px"
	 viewBox="0 0 1440 809.9" style="enable-background:new 0 0 1440 809.9;" xml:space="preserve">
<style type="text/css">
	.st0{fill:#3D55CC;}
	.st1{clip-path:url(#SVGID_2_);}
	.st2{fill:#CC9966;}
</style>
<g>
	<g id="Mask_Group_13" transform="translate(9.869 125.423)">
		<g id="pattern_01" transform="translate(0 -278.801)">
			<rect id="Mask-3" x="-9.9" y="153.4" class="st0" width="1440" height="809.9"/>
			<g id="Group_10">
				<defs>
					<rect id="SVGID_1_" x="-9.9" y="153.4" width="1440" height="809.9"/>
				</defs>
				<clipPath id="SVGID_2_">
					<use xlink:href="#SVGID_1_"  style="overflow:visible;"/>
				</clipPath>
				<g id="Mask_Group_16" class="st1">
					<path id="Combined_Shape" class="st2" d="M857.7,1800.9c-2.3-0.1-4.6-0.3-6.9-0.7c-6.6-1-13.5-2.5-20.2-3.9h0
						c-12.8-2.7-26-5.5-38.3-5.5h-0.4c-37,0.2-74,1.7-109.8,3.2h0c-13.7,0.6-27.9,1.2-42.2,1.7l-231-230.9
						c-3.6-5-7.2-10.2-10.6-15.3l0,0l-0.1-0.1c-7.8-11.5-15.8-23.4-25.6-33.4c-1.4-1.5-2.8-2.8-4.1-4.2
						c-24.5-24.4-50.4-46.7-70.2-63.3c-5.4-4.5-10.6-9.3-15.6-14.3c-21.9-21.9-39.9-48.1-58.3-84.8c-1.5-3-3-6.1-4.5-9.1l0-0.1
						l-0.3-0.7l0-0.1c-9.5-19.5-19.4-39.7-34.2-54.7c-28.8-29.2-48-59.5-60.4-95.2c-12.6-36.5-27.3-75.3-55.6-112.5
						c-19.8-25.9-41.3-50.3-64.4-73.2c-39.9-39.9-84-76.1-125.7-109.3c-16.4-13.1-33.3-25.8-49.7-38.1l0,0l0,0
						c-37.7-28.5-76.8-57.9-111-92.1c-15.2-15.1-29.3-31.3-42.2-48.4c-14.3-19.1-30.2-37.8-45.5-55.9l0,0l0,0l0,0
						c-30.9-36.4-62.8-74-83.5-116.9c-3.1-6.3-8.4-12.2-13.6-17.9l0,0l0,0l-0.1-0.1l0,0c-2.4-2.6-4.9-5.4-7.1-8.1
						c-4.9-6.1-10-12.2-15-18.2l0,0l0,0l0,0l0,0c-12-14.4-24.4-29.4-35.1-44.7c-6.9-9.9-11.9-21.1-16.8-31.8l-0.1-0.1
						c-2-4.4-4-8.9-6.2-13.3l17.1-17.1c0.9,1.4,1.9,2.8,2.6,4l0.1,0.1c2.9,4.5,5.9,9.1,9.2,13.5c6.3,8.4,12.5,17.1,18.4,25.6l0,0
						l0.2,0.2v0c13.9,19.8,28.3,40.2,45.5,57.4l3.1,3.1c46.1,46.1,83,95.9,112.7,152.1c18.8,35.6,41.3,66.2,68.6,93.5
						c10.9,10.9,22.4,21.1,34.5,30.6c34.8,27.3,67.4,56.2,94.7,80.8l3.2,2.9l0,0c60.9,55,124,111.9,192.8,158.4
						c9.8,6.7,18.9,14.3,27.3,22.7c9.1,9,17.2,19,24,29.9c31.3,51.7,71.6,94.5,103.1,126.1c7.1,7.1,14.9,14.7,23.7,23.2l4.6,4.4
						c5.9,5.6,11.2,10.7,16.3,15.9c10.7,10.7,24.2,25,33.8,40.4c17.8,28.8,39,55.2,64.7,80.9c27.9,27.9,61,54.7,104.3,84.4
						c33.3,22.9,71.9,50.5,106.7,82.4c46.8,42.9,95.8,56.2,141.7,64.3c3.5,0.7,7.1,1,10.6,1.1c6.2,0,10.3-1.5,12.6-4.7
						c3.8-5.3,1.8-14.3-6.5-29.3c-46.9-85.4-111.7-158.6-162.9-212.8c-11.5-12.2-22.3-23.3-32.9-33.9
						c-77.8-77.8-147.7-128.8-220.1-160.5c-24.3-10.7-46.2-25.9-66.7-46.4c-9-9-17.4-18.5-25.2-28.5c-9.7-12.4-20.2-24.2-31.3-35.4
						c-22-22-45.2-39.5-70.8-53.3c-11.9-6.4-24.8-16.4-37.3-28.9c-4.6-4.6-9.1-9.5-13.3-14.5C52.3,929.8,43,917.2,33.9,905
						c-14-18.9-28.5-38.4-45.5-55.5c-8.5-8.6-17.7-16.4-27.5-23.3c-12.1-8.5-23.5-18-34-28.5c-25.1-25-46.1-56.4-66.1-98.7
						c-30.2-63.8-69.2-120.5-119-173.6l-2-2.1l0,0c-36.3-38.7-73.9-78.6-105.5-122.5c-16.5-23-36.4-44.7-55.6-65.8l0,0l0,0l0,0l0,0
						c-8.1-8.8-16.4-17.9-24.4-27.1l41.6-41.6c7.6,8.9,15.8,17.8,23.7,26.4c18.7,20.2,38,41.1,50.3,63.3
						c17.1,30.6,38.5,58.6,63.4,83.3c22.7,22.5,47.7,42.7,74.5,60.2c78.1,51.5,169.5,106.7,264.8,109.5
						c48.4,1.5,95.2,24.5,139.1,68.4c5.9,5.9,11.9,12.3,17.7,18.9c13.7,15.7,25.3,28.8,37.9,41.4c29.8,29.8,56.3,47.2,85.9,56.3
						c6.3,2,13.5,8.6,19.9,14.5l0,0l0.1,0.1c1.1,1,2.2,2,3.2,3c6.7,6.1,13.5,12.8,19.5,18.6l0.1,0.1c7.2,7,14.6,14.3,22.2,21.1
						c9,8,18.3,15.8,27.3,23.4l0,0l0.2,0.2l0.2,0.1l0,0c13.2,11.1,26.9,22.6,39.6,34.7c2.1,2,4.3,4.1,6.4,6.3
						c10.1,10.1,19.8,20.9,29.1,31.4l0.1,0.1c4.5,5,10.1,11.3,15.5,17.2l1.1,1.2l7.4-3.4l-1.4-2.2c-3.7-5.6-7.6-11.6-10.6-16.4l0,0
						v0c-7.5-11.8-15.3-24-24.2-35.3L490,884.8l0-0.1c-52.9-67.9-107.5-138-163-206.3c-26.5-32.6-55.2-67-86.3-98.1
						c-5.2-5.2-10.3-10.2-15.3-14.8c-59.9-56.3-127.6-75.8-193-94.8l-0.2-0.1c-12.5-3.6-25.5-7.4-38.1-11.3c-2.4-0.8-5-1.2-7.6-1.3
						c-2.1,0-4.1,0.4-6,1.1c-1.4,0.6-2.8,1.4-3.9,2.5c-4.8,4.4-6.4,12.4-4.4,22.1c1.6,8.6,5.8,16.5,11.9,22.8
						c7.4,7.4,17.8,12.4,31.6,15.1c14.1,2.8,28.5,5.9,42.4,8.9l0.4,0.1h0c19.3,4.2,39.3,8.6,58.9,12.1c45.6,8.2,87.1,31.5,127,71.4
						c7.1,7.1,14.2,14.8,21.2,23c5.7,6.6,12.3,14.4,18.6,22.2c5.6,7,11.3,14.1,16.9,20.9l1.4,1.7l0,0c17.9,22.1,36.4,44.9,53.6,67.8
						c5,6.6,8.2,14.6,11.3,22.3l0,0.1c1.3,3.2,2.5,6.1,3.7,8.9l-2.2,1c-2.8-2.4-5.7-4.8-8.9-7.4c-7.1-5.9-14.4-12-21.1-18.5
						c-2.3-2.2-4.5-4.4-6.5-6.5c-8.9-8.9-17.9-18.2-26.6-27.1l0,0l0,0l-0.3-0.3c-8.6-8.9-17.5-18-26.3-26.9
						c-13.4-13.4-24.7-24.1-35.6-33.6C161,589.4,88.1,550.7,14.5,539.9c-36.9-5.4-70.9-23.3-103.9-54.6
						c-25.9-24.6-47.5-41.7-67.9-53.6c-17.4-10.2-31.2-20.5-42.3-31.6c-21.6-21.6-32.6-46.3-33.9-75.5c-0.8-19.6-9.5-38.6-24.4-53.5
						c-2.8-2.8-5.8-5.4-8.9-7.9c-18.2-14.2-37.4-27.6-55.9-40.5l0,0l-0.1,0l0,0l0,0c-7.3-5.1-14.8-10.3-22.1-15.5l34.8-34.8
						c21,15.9,37.4,29.9,51.5,44c29.4,29.4,48.7,59.7,59,92.8c4.4,14.1,11.9,28.5,18.7,40.7c9.7,17.4,19.7,31.2,30.6,42.1
						c20.7,20.7,45.2,31.6,77,34.2c7.8,0.6,16,0.9,25.1,0.9c12.6,0,25.2-0.6,37.3-1.2h0l0.8,0h0c6.7-0.3,13.7-0.7,20.5-0.9
						c8.1-0.3,16.2-0.8,24-1.4l0.3,0c10.1-0.7,20.5-1.5,31.1-1.6c0.5,0,0.9,0,1.3,0c57.5,0,109.4,22.7,154.3,67.6
						c14,14.1,26.7,29.4,38,45.7c14.2,20.3,25.3,38.4,33.9,55.4c25.4,49.7,57.6,94.2,95.5,132.1c15.9,15.9,32.8,30.7,50.7,44.4
						c8.3,6.4,16.2,13.3,23.6,20.7c18,17.9,32.9,38.8,43.8,61.8l2.5,5.3l0,0.1c7.6,16,15.4,32.5,25.1,48c5.6,9.1,12.8,17.7,19.6,26
						l0,0c4.2,5.1,8.6,10.4,12.5,15.7c13.3,17.8,26.2,35.3,38.2,53.4c4.8,7.5,8.3,15.7,10.5,24.3c17.6,66.1,56,128.1,117.4,189.5
						c20.7,20.7,44.5,41.9,72.6,64.8c27.9,22.7,56.8,44.9,84.8,66.4c25.7,19.8,52.3,40.2,78.1,61c17.2,13.9,33.7,28.8,49.4,44.5
						c30.4,30.4,59.3,65.1,88.1,106l-22.8,22.8c-0.6-0.8-1.1-1.6-1.6-2.2c-2.1-2.8-4-5.8-5.7-8.9c-15.1-30.9-36.2-59.6-64.4-87.8
						c-16.3-16.3-35.6-33-58.8-50.9c-17-13.1-33.4-27.9-49.2-42.3l-0.6-0.6l-0.1-0.1c-6-5.5-12.3-11.1-18.5-16.6
						c-8.2-7.2-16.4-14.5-23.6-20.9l0,0c-58.6-52.1-119.1-105.9-185.2-149.6c-6.8-4.5-13.1-9.7-18.8-15.5
						c-6.1-6-11.4-12.6-15.9-19.8c-30.7-51.5-71.5-102.3-124.5-155.3c-20.5-20.5-43.8-42.3-71.3-66.7c-7.9-7-15.9-14.2-23.7-21.1
						l-0.6-0.5L414,912l0,0c-49.5-44.1-100.8-89.8-152.2-133.2c-53.2-45-111.5-90.4-176.8-117.8c-14.3-6-29-9.7-43.1-13.3l0,0l0,0
						l0,0c-6.3-1.6-12.8-3.3-19-5.1l-2.6-0.7l-0.2,2.7c-0.2,2.1-0.4,3.5-0.6,4.5v0v0c-0.3,1.8-0.4,3,0.3,4.2
						c6.2,10.7,12.4,22,17.9,32c21.6,39.1,43.9,79.6,78,113.7l0.3,0.3c14.4,14.3,30.8,26.8,46.8,38.9l0,0
						c10.2,7.7,20.7,15.7,30.6,24.1c3,2.6,6.1,5.1,9.3,7.7l0,0l0,0c7.5,6.2,15.4,12.6,22,19.3c6.1,6.1,10.5,11.7,13.4,17.1
						c11.5,21.2,26.7,41,46.4,60.7c19.7,19.7,41.7,37,64.3,54.5c21.1,16.3,43.8,33.1,67.4,45.9c39.8,21.7,76.2,49.3,111.4,84.4
						c6.3,6.3,12.7,13,18.9,19.8c2.9,3.2,6,6.4,9.1,9.6c21,21.2,45.4,38.7,72.2,51.8c14,6.9,26.8,16.2,37.8,27.3
						c8,8,15.2,16.8,21.6,26.2c24,34.8,46.4,62.3,70.5,86.4c14.8,14.8,30.6,28.6,47.3,41.1c4.6,3.5,8.9,7.2,12.9,11.3
						c12.7,12.7,23.9,28.4,34.7,43.6l1,1.3l0.1,0.1c1.6,2.3,3.3,4.7,5,7c10.2,14.1,18.2,29.7,26.1,44.8l0,0.1l0,0.1l0.1,0.1
						c1.9,3.6,3.8,7.4,5.8,11.1c19.6,37.1,39.1,74.4,57.9,110.4c9.6,18.4,17,32.6,24.1,46c-2.1,2.1-4.3,4.3-6.6,6.6l0,0l-0.5,0.5
						l-0.1,0.1l0,0c-9.7,9.8-20.7,21-32.5,31.7c-0.6,0.4-1.4,0.5-2.1,0.4c-1.5,0-3-0.2-4.5-0.6c-2-0.5-4-1.1-6-1.9
						c-50.1-20-98.6-48.8-144.2-85.6c-20.3-16.4-41-24.8-63.2-25.6c-16-0.6-32.9-3-49.2-5.3h0c-2.7-0.4-6-0.8-9.1-1.3
						c-43.7-6.1-84.5-27.7-121-64.3c-4-4-7.9-8.1-11.8-12.4c-6-6.6-12.3-13.4-17.8-19.4l0,0l-0.1-0.1c-8.1-8.7-16.5-17.7-24.4-26.8
						c-3.4-3.9-6.9-7.7-10.5-11.2c-19.2-19.2-41.5-33.8-68-44.7c-10.7-4.4-21.5-13.4-31.9-22.1l0,0l0,0c-2.4-2-4.9-4.1-7.4-6.1
						c-5-4-9.7-8.7-14.4-13.2l0,0l-0.1,0c-5.9-5.8-12-11.7-18.6-16.5c-24.6-17.8-47.8-37.5-69.3-59c-13.1-13.1-25.7-27-37.4-41.4
						c-1.8-2.2-3.5-4-5.2-5.8c-3.9-3.9-8.4-7.3-13.3-9.9l-7.3-3.9l4.4,7c2.3,3.7,4.5,7.5,6.6,11.1l0,0l0.1,0.1v0
						c4.7,8.1,9.6,16.5,15.6,24.1l25.8,33.2c51.1,65.6,103.9,133.4,157.1,199.4c35.3,43.7,68.1,81,100.3,114c0.9,1,1.9,1.9,2.8,2.8
						c36.6,36.6,78.8,62.9,125.6,78.1c9.8,3.2,19.7,6.5,29.2,9.7h0c25.4,8.5,51.7,17.3,77.5,24.3c3.6,1,7.4,1.6,11.1,1.6
						c3,0.1,6-0.5,8.8-1.6c2.4-1,4.5-2.7,6-4.9c5.2-7.4,2.7-19.7-6.6-32.8c-1-1.4-2.2-2.8-3.4-4c-6-6-15.5-11.6-23.3-13.7
						c-26.3-7.2-54.3-14.3-81.1-18.1c-60.3-8.5-113.5-36.5-162.7-85.6c-14.2-14.3-27.4-29.4-39.6-45.4
						c-9.1-11.9-18.6-23.7-27.7-35.1l0-0.1l-0.2-0.3l0,0c-12.2-15.2-24.7-30.9-36.4-46.6c-4.8-6.5-8-14.3-11-21.7
						c-1.1-2.7-2.4-5.8-3.7-8.8l2.4-1.5c3,2.6,6.1,5.1,9,7.5l0.2,0.2c7.2,6,14.7,12.2,21.6,18.7c13.4,12.8,27.1,26.5,39.3,38.6l0,0
						l0.1,0.1l0,0c25.2,25.1,51.2,51,78.6,74.1c69.5,58.9,143.2,94,218.9,104.5c25.7,3.6,53.1,18.8,83.8,46.6
						c12.9,11.7,25.6,23.2,39.1,35.5l0.5,0.5l0.4,0.4l17.4,15.8c-1.2,1.2-2.3,2.4-3.5,3.6l0,0l-0.4,0.4c-5.2,5.6-10.8,11-16.7,15.9
						C861.2,1800.5,859.8,1800.9,857.7,1800.9L857.7,1800.9z M-119.6,596.6c6.7,15.2,13.4,30.6,20,45.5l0.2,0.5l3,6.9l0.1,0.3
						c18.5,42.3,37.7,86,56.7,128.8c9.4,21,20.1,37.2,33.7,50.8c5.5,5.5,11.4,10.5,17.8,15.1c12.3,8.9,23.9,18.7,34.6,29.5
						c4,4,7.8,8,11.4,12.1C68.1,897.5,79,909,91.1,921.1c28.5,28.5,59.2,55.4,88.9,81.4l0.1,0c11.8,10.4,24,21.1,36.1,31.9
						c66.8,59.8,122,97.4,179,122c16.1,6.9,33.2,17.4,49.5,30.2c48.2,37.9,89.3,73.9,125.5,110.1c64.2,64.2,113.2,129,149.9,198.4
						c26.5,50,57.3,92.3,94.3,129.2c5.5,5.5,11.2,10.9,16.9,16.1c15.9,14.5,32.8,27.8,50.6,39.8c2.3,1.5,4.8,2.6,7.4,3.2
						c2.8,0.8,5.6,1.2,8.5,1.2c1.7,0,3.5-0.2,5.1-0.6c1.4-0.3,2.7-1,3.8-1.9c4.9-4.4,2.9-17.6-0.6-24.4c-9-17.6-18.3-32.1-28.3-44.5
						c-40-49.3-64.1-93.4-76-138.9c-7.2-27.6-24.4-55.5-49.8-80.9c-2.8-2.8-5.7-5.6-8.7-8.3c-51.7-47.3-105.9-96-153.7-138.9l0,0
						c-30-27-63.9-57.5-97.1-87.5c-27.4-24.8-64.4-55.8-108.2-75.7c-51.3-23.3-101.1-56.8-148-99.5c-24.7-22.5-44.8-41.6-63.4-60.2
						c-67.3-67.3-113.8-128.3-146.3-192c-12.9-25.3-28.2-50.2-41.5-71.3c-8.2-13-16.5-23.6-25.3-32.4l0,0
						c-20.9-20.9-45.5-31.8-77.3-34.3l-3.7-0.3L-119.6,596.6z M976.3,1579.6c-2-2-4-4-6.1-6c-2-2-4-4-6-6
						c-5.5-5.5-11.9-12.1-17.8-19c-26.4-31.5-51.3-64.9-75.4-97.2c-11.9-16-24.3-32.6-36.7-48.7c-17.7-22.8-36.9-44.4-57.4-64.8
						c-17.2-17.2-36.1-34.7-61.3-56.9c-16.1-14.1-31.4-28.5-45.6-42.7c-17.5-17.5-33.6-35.1-47.9-52.4
						c-13.7-16.5-28.6-32.8-44.2-48.5c-38.3-38.3-83.3-74.9-137.6-111.7c-42.7-29-84.6-57.8-124.7-85.6c-3.2-2.3-6.3-4.8-9-7.6
						c-2.3-2.3-4.5-4.8-6.4-7.4c-13.3-17.9-27.9-34.8-43.8-50.5c-23.5-23.5-49-44.9-73.7-65.6c-6-5.1-12.1-10.7-18.5-17.1
						c-12.5-12.5-24.5-26.4-36.1-39.8c-6.4-7.3-12.9-14.9-19.5-22.2c-7-7.7-13.5-16-19.8-24.1c-2.6-3.3-5.2-6.7-7.9-10l0.5-0.9
						c2,1.1,4.1,2.1,6.1,3c5.8,2.8,11.3,5.5,16.1,9.3c55.8,44.9,112.2,90.9,166.8,135.4l26.6,21.7c2,1.6,4,3.5,5.9,5.4
						c2.9,3,6,5.6,9.4,8c51.3,33.1,97.5,75.5,142.2,116.5c25.5,23.4,51.9,47.7,79,70c8.4,6.9,16.8,14.6,25.7,23.4
						c20.8,20.8,40.1,44.3,58.8,67.1c3,3.6,6,7.3,8.9,10.9c25.8,31.3,49.6,57.7,72.6,80.7c32,32,63.6,58.6,96.5,81.2
						c29.9,20.6,57.8,43.8,83.4,69.5c21,21.1,40.5,43.6,58.5,67.3c25.7,33.9,51.3,66.7,78.4,101.5c11.4,14.6,22.8,29.2,34.3,44
						l-32.3,32.3C1011.1,1616,993.6,1596.9,976.3,1579.6L976.3,1579.6z M1113.8,1521.3c-9-11.3-18.2-23-27.5-34.3
						c-8.5-10.4-17.7-20.5-28-30.8c-26.1-26.1-55.3-49.2-83.5-71.6c-11-8.7-22.4-17.8-33.5-26.8l-3.4-2.8
						c-59.3-48.7-120.6-99-178.6-151.3c-2.9-2.6-5.8-5.4-8.7-8.2c-26.4-26.4-46-58.5-65.3-91.8c-24.6-42.2-51.9-84.4-78.3-125.2
						c-14.6-22.5-29.7-45.7-44.1-68.7c-15.4-24.6-26.5-44.7-34.9-63.2c-14.1-31.2-34.8-60.2-63.2-88.6c-7.9-7.9-16.6-15.9-25.8-23.8
						c-7.1-6.1-14-12.5-20.6-19.1c-25-25-47.1-54-69.5-91.3c-33.7-56.1-63.5-99.2-93.8-135.6c-6.3-7.5-12.9-14.8-19.6-21.5
						C192.8,424,143,399.1,87.3,392.5l-10.7-1.2c-26.2-3-53.3-6.2-80.2-12.1c-42.8-9.2-81.9-30.7-112.8-61.7
						c-4.4-4.4-8.7-9-12.8-13.8c-34-39.5-68.1-78.9-102.2-118.3l-42.5-49.2l24-24c11.5,9.4,23.2,18.9,34.5,28.1
						c26.8,21.7,54.5,44.1,80.9,67.1C-92.2,244.2-48.2,268.7,5,297c71.2,37.9,142.9,79.7,212.2,120.2c11.9,6.9,23.8,13.9,35.7,20.8
						c16.4,9.6,31.5,21.4,44.9,34.9c15.7,15.7,30.8,35,46.2,58.9c15.5,24.2,33.1,46.4,50.9,64.1l1.7,1.7c1.4,1.3,2.7,2.7,4,4
						c62.9,62.9,107.1,131.1,135.2,208.5l1.3,3.6c5.6,15.6,11.5,31.8,20.2,46.8c11.4,19.8,24.2,40.3,40.1,57.1
						c60.6,63.9,104.3,125.1,133.6,187c24.7,52.2,58,98.9,102,142.8c23.4,23.2,48.5,44.8,75,64.4c32.8,24.5,67.4,47,100.9,68.8
						c11.3,7.4,22.7,14.8,34,22.3c20.4,13.5,37.6,27.4,52.6,42.3c11.7,11.7,22.2,24.4,31.5,38.1c12.6,18.6,17.9,27.5,16.6,34.1
						c-1,5.2-6.5,9.8-18.4,17.8C1121.3,1530.7,1117.6,1526,1113.8,1521.3L1113.8,1521.3z M643.3,1503.2c-4.1-0.6-6.5-1-8.4-2.2
						c-16.6-11-33.9-20.9-50.7-30.5c-32.3-18.5-65.8-37.7-94.9-65.4c-2.8-2.7-5.5-5.4-8.3-8.1c-3.7-3.7-7.3-7.4-10.9-11.1
						c-3.7-3.7-7.3-7.5-11-11.1c-11.1-11.1-24.5-23.8-39-33.2c-44.6-29-82.3-65.4-123.4-106.5l-12-12c-4.1-4.1-8.3-8.3-12.5-12.4
						c-10.7-10.6-22.8-20.1-34.5-29.2c-11.8-9.2-23.9-18.7-34.5-29.3c-1.2-1.2-2.4-2.4-3.6-3.7c-21.5-22.9-42.5-47-62.7-70.4
						c-20.5-23.7-41.7-48.3-63.7-71.5c-12.2-12.9-24.8-26.2-37.7-39.2C11.2,942.9-9.5,925-29.5,911c-37.8-26.5-73.2-56.3-105.7-89
						c-33.7-33.7-65.6-71-97.6-114.3c-37.1-50.4-77.8-98-121.9-142.4c-22.1-22.2-40.6-48.8-58.4-74.6c-6.9-10-14.1-20.4-21.4-30.3
						c-16.3-22.2-32.4-45-48.1-67c-6.7-9.4-13.3-18.7-20-28.1l26-26c9,11.9,18.1,23.8,27.1,35.7c24.4,32.2,49.5,65.4,75.2,97.6
						c2.8,3.5,5.9,6.9,9.1,10.1c7.5,7.5,16.1,14.5,24.4,21.2c2.1,1.7,4.1,3.3,6.1,5c7.6,6.2,14.1,12.1,19.9,17.9
						c17.5,17.5,29,34.9,36.1,54.8c6,16.9,16,33.4,26.8,44.2c0.6,0.6,1.2,1.2,1.8,1.7c4.2,4,8.5,8.1,12.7,12.3
						c38.9,38.8,71.3,82.9,102.6,125.6c5.2,7.1,10.5,14.3,15.8,21.4c24,32.3,51.2,63.6,83.2,95.6c23.5,23.4,49.6,47.3,79.8,73
						c6.4,5.5,12.9,11.4,19.6,18.2c15.7,15.7,30.7,33.3,45.1,50.3c7.3,8.6,14.9,17.5,22.5,26.1c10.8,12.1,22,24.1,33.5,35.6
						c42.9,42.8,92,82.1,146.1,116.7c8.1,5.2,16.4,10.3,24.5,15.3c20.6,12.7,41.8,25.8,61.3,40.9c9.6,7.6,18.8,15.9,27.4,24.7
						c4.6,4.5,9.1,9.3,13.6,13.8c4.5,4.6,9.1,9.3,13.6,13.9c3.2,3.2,6.2,6.1,9,8.8c30.6,28.9,61.2,57.3,97.8,91.1
						c8.2,7.6,16.7,15.2,25,22.5c14.2,12.6,28.9,25.7,42.6,39.3l0.3,0.3c5.8,5.8,10.4,13.1,15.8,21.5c2,3.2,4.1,6.4,6.3,9.8
						C646.2,1503.6,644.7,1503.4,643.3,1503.2z M1174.3,1485.7c-0.5-0.4-1-0.9-1.4-1.3c-0.4-0.4-0.7-0.8-1-1.2
						c-11.1-18.3-24.4-35.2-39.6-50.3c-16.1-15.9-33.8-30.2-52.7-42.6c-27.2-18.1-55.1-36-82.1-53.3c-34-21.8-69.1-44.3-103.2-67.4
						c-18.2-12.1-35.2-26-50.7-41.3c-27.6-27.6-46.7-57.9-58.2-92.6c-15.1-45.5-37.7-82.9-69.1-114.3c-4.4-4.4-9-8.7-13.7-12.8
						c-1.1-1-2.3-2.1-3.4-3.2c-7.5-7.5-13.8-17-19.9-26.1c-1.6-2.3-3.1-4.7-4.7-6.9c-10.9-15.9-21.8-32.2-32.3-48
						c-17-25.5-34.6-51.9-52.8-77.4c-32.3-45.4-52-92.5-58.5-139.9c-7.7-56.2-36.1-108.3-86.8-159c-1-1-2.1-2.1-3.2-3.1
						c-0.9-0.8-1.7-1.7-2.5-2.5c-27.8-27.8-49.9-58.3-74-102.1c-22.9-41.7-47.2-75-74.1-101.9c-31.1-31.2-66.4-53.7-104.7-66.9
						c-34.9-12.1-70.3-21.7-104.6-31c-7.6-2.1-15.2-4.1-22.8-6.2c-5.6-1.5-10.8-0.8-15.9,0c-2.3,0.3-4.5,0.6-6.7,0.8l-1.9,0.1
						L33,245.1l1.1,0.7c3.7,2.5,7.5,5.3,11.1,8c8.1,6,16.5,12.2,25.2,16.1c6,2.7,12,5.4,18,8.1c29.6,13.4,60.2,27.3,90.2,36.1
						c41.5,12.2,78.7,34.6,110.5,66.4c8.9,9,17.3,18.5,25.2,28.4c31.1,39.6,60,82.6,85.4,120.5c3.9,5.8,4.9,12.8,5.9,20.3
						c0.2,1.6,0.5,3.3,0.7,4.9c-1.6-1.1-3.2-2.2-4.8-3.3c-5.5-3.7-11.2-7.6-15.7-12.1c-0.9-0.9-1.8-1.9-2.6-2.8
						c-20.9-25.2-40.5-50.6-58.1-75.5c-11.5-16.2-24.4-31.5-38.5-45.6c-36.8-36.8-81.1-65.5-139.5-90.5c-15.1-6.5-30.5-12.8-45.4-19
						c-14.8-6.1-30.2-12.5-45.2-18.9c-76-32.5-142.2-88.8-206.2-143.3c-7.9-6.7-15.8-13.4-23.7-20.1c-11.2-9.5-22.3-19.7-33-29.5
						c-4.4-4.1-8.9-8.2-13.4-12.3l37.2-37.2c88,75.1,169.3,123,248.4,146.4c24,7.1,48,9.5,71.3,11.9c12.7,1.3,25.9,2.6,38.9,4.7
						c49.8,8,93.1,30,128.6,65.6c19.1,19.1,36,42.2,50.3,68.7c13.6,25.3,24.6,51,33.6,72.8c12.5,30.3,32.4,58.2,64.6,90.4
						c2.3,2.3,4.6,4.6,7,6.9c2.8,2.7,5.5,5.4,8.2,8.1c18.7,18.6,36.2,38.4,52.4,59.2c6,7.8,9.3,16.9,12.8,26.6
						c1.9,5.4,4,11.1,6.5,16.4c2.2,4.6,4.3,9.3,6.4,13.9c6.5,14.4,13.2,29.3,22.6,42.7c27.1,38.8,43.3,76.9,47.9,113.4
						c6.3,49.2,30.3,94.3,55.8,141.9l2.3,4.2c16.6,31.1,40,58.5,62.7,85c7.7,9,15.7,18.3,23.2,27.7c40.3,49.7,64,90.1,76.8,130.9
						c4.5,14.2,12.3,27,22.9,37.5c7,6.9,14.9,12.9,23.5,17.8c13.1,7.6,26.5,15.6,39.4,23.3c33.1,19.8,67.4,40.3,101.8,56.5
						c29.5,13.9,56.4,32.9,79.3,56.1c15.7,15.7,30.3,33.6,44.7,54.8c7.8,11.5,15.2,23,23,35.2c3.2,5.1,6.5,10.2,9.9,15.4l-7.3,7.3
						C1174.5,1485.8,1174.4,1485.8,1174.3,1485.7L1174.3,1485.7z M1175,1430.3c-12.1-11.8-24.6-24-36.7-36
						c-12.3-12.3-23-23.3-32.7-33.7c-3.7-4-7.2-7.6-10.7-11.1c-14.5-14.7-30.6-27.8-48-38.9c-29.9-18.8-57.6-40.8-82.7-65.7
						c-23-22.9-43.2-48.4-60.3-76c-8.1-13.2-19.3-25.4-30-37.3c-1.6-1.8-3.3-3.6-4.9-5.4c-1.2-1.4-2.6-2.8-4-4.2
						c-3.2-3.2-6.7-6.4-10.1-9.4c-3.3-3-6.7-6.1-9.8-9.2c-3.2-3.2-6.2-6.6-8.9-10.3c-36.6-52.1-79.6-114-121.3-177.4
						c-35.4-53.8-54.5-113.3-58.2-181.9c-1.1-19.8-9.1-39.9-25.3-63.5c-38.5-56.2-81.1-107.7-126.5-153c-8.4-8.4-17-16.7-25.7-24.7
						c-1.4-1.3-2.8-2.7-4.2-4.1c-6.3-6.3-12-12.9-18.4-20.3c-2.4-2.9-4.5-6.1-6.3-9.4c-0.7-1.2-1.4-2.3-2.1-3.5l1.5-2.8
						c4.1,2.7,8.3,5.3,12.3,7.9c10.3,6.5,21,13.3,30.8,21c16.6,13,33.2,26.7,49.3,39.9c17.8,14.6,36.1,29.6,54.5,44
						c11.1,8.6,21.6,17.8,31.6,27.7c36.9,36.9,57.7,76.9,63.5,122.1c1.5,11.9,3.4,24,5.2,35.7c1.9,12,3.8,24.4,5.3,36.5
						c3.4,26.8,14.6,49.6,34.3,69.7c22.8,23.3,38.5,51.1,45.4,80.2c11.5,48.7,38.7,93.3,85.9,140.4c12.3,12.3,26.5,25.3,43.3,39.7
						c15.8,13.5,31,28.5,45.8,43c7.1,7,14.4,14.2,21.8,21.1c0.7,0.6,1.3,1.3,2,2c1.3,1.3,2.6,2.6,3.9,4c1.3,1.4,2.6,2.7,3.9,4
						c3.3,3.3,7.3,7.1,11.8,9.6c35.4,19.9,67.4,37.6,100.1,53.6c35.3,17.2,67.8,40.3,99.3,70.6c16.1,15.5,32.5,30,49.9,45.4
						c7.3,6.5,14.7,13,22.1,19.7c-1.6,3.4-3.7,5.5-6.4,6.6c-5.5,2.1-14.2,0.2-27.2-6c-27.8-13.3-52.4-30.9-75.2-53.7
						c-4.3-4.3-8.5-8.8-12.7-13.4c-2.5-2.7-5-5.4-7.5-8c-18.2-18.4-40.3-32.4-64.7-40.9c-10.3-3.6-20.8-9.9-30.9-16
						c-4.5-2.7-9.2-5.5-13.8-8l-0.9-0.5c-8.1-4.5-16.5-9.1-26.5-11.1l-6.6-1.3l4.6,4.9c12.4,13.4,25.8,27.3,39.7,41.2
						c49.6,49.5,103.1,96.4,154.8,141.7c6.5,5.7,12.9,11.3,19.4,17c-0.1,0.2-0.3,0.4-0.4,0.6c-0.7,1.1-1.5,2.2-2.3,3.2
						c-2.1,2.3-4.3,4.5-7.6,7.7c-1.2,1.2-2.5,2.5-4,4C1194,1448.8,1184.4,1439.4,1175,1430.3L1175,1430.3z M1309,1347.9
						c-2.8,0-5.6-0.5-8.4-1.2c-3.5-1-7-2.2-10.3-3.6c-54.2-22.7-106.4-55.2-159.5-99.4c-2.6-2.1-5.2-4.6-8.4-7.7
						c-2.3-2.3-4.6-4.7-6.6-6.8c-2.1-2.2-4.4-4.6-6.7-6.9c-1.9-1.9-3.7-3.6-5.4-5.2c-3.1-2.8-6.2-5.8-9.2-8.6l-0.7-0.6l0,0
						c-9.6-9.2-19.5-18.7-30.3-24.6c-24.6-13.4-44.9-28.3-62.1-45.5c-16.9-16.8-30.9-36.3-41.3-57.7c-8.4-17.1-20.3-33.2-36.5-49.4
						c-13.2-13.2-27.6-24.8-39.9-34.4c-8.9-6.9-17.4-14.4-25.4-22.3c-35.4-35.4-51.4-73.8-49-117.4c0.4-6.6,0.1-13.5-0.2-20.2v-0.1
						v-0.1c-0.2-6-0.5-12.3-0.3-18.2c2.1-52.6-20.5-102.9-71.1-158.3c-8.6-9.4-17.5-18.7-26.6-27.8c-47.1-47.1-102-91.5-172.9-139.8
						c-27.6-18.7-53.3-39.9-76.9-63.3c-23.5-23.5-44.4-49.3-62.5-77.2c-25.1-38.7-54.2-74.7-86.8-107.4
						c-35.8-35.6-75.4-67.3-118-94.5c-47.7-30.6-87.4-62-121.4-96C61.2,42,50.1,29.8,39.7,17.5c-4-4.8-8.4-9.6-13.5-14.7
						C15.7-7.6,4.3-17.5-6.8-27c-7.4-6.4-15.1-13-22.4-19.7c-7.2-6.7-14.5-13.4-21.5-20l-0.9-0.8l-8.5-7.9l77-77
						c13,19.1,27.7,36.9,44,53.3c25,25.1,53.9,46,85.5,62c9,4.5,17.9,10.2,26.5,15.7l0,0h0c5.2,3.3,10.6,6.7,16.1,9.9
						c3.1,1.8,6.2,3.7,9.4,5.7l0,0c9,5.6,18.3,11.3,27.7,14.8c71.1,26.2,129.5,62.9,178.5,111.9c17.1,17.1,32.8,35.6,47.1,55.1
						c8.2,11.3,17.3,21.9,27.2,31.7c9.6,9.5,19.7,18.4,30.3,26.6c14.3,11.1,27.8,23,40.7,35.8c22.1,22.1,39.2,44.7,52.4,69.1
						c11.5,21.3,25.8,40.8,42.7,58.1l1.2,1.2c17.1,17.1,36,33,54.3,48.4l0.1,0.1c7.9,6.7,16.1,13.5,24.2,20.5l2.2,1.9l1.2-2.7
						c17.1-36.9,11.4-57.4-26.3-95.4l-0.5-0.5c-4.7-4.7-9.5-9.2-14.3-13.6l0,0l-0.1-0.1c-4.2-3.9-8.5-7.9-12.7-12
						c-4.8-4.7-9.9-9.5-14.4-13.8l0,0c-5.4-5.1-11-10.4-16.4-15.7c-6.3-6.2-12.2-12.7-17.7-19.6c-7.1-9-14.7-17.6-22.7-25.7
						c-16.2-16.2-33-28.6-51.2-38c-27.8-14.3-53.2-32.8-75.2-54.9c-18.8-19-35.4-40-49.5-62.7c-7.9-12.6-17.2-24.3-27.6-34.9
						c-17.6-17.6-37.9-31-62.3-41.1c-10.7-4.4-21.6-8.7-32.2-12.7l0,0l-0.2-0.1l-0.2-0.1c-17.8-6.9-36.3-14.1-54.2-22.4
						c-11.8-5.5-23.4-14.5-34.6-23.3l-0.8-0.6l0,0c-2.2-1.7-4.4-3.4-6.6-5.1c-6.7-5.1-13.3-11-19.8-16.6l-0.1-0.1
						c-12-10.5-24.3-21.4-37.5-28.1c-23-11.5-44.1-26.7-62.3-44.9c-17.6-17.6-32.8-38.2-46.4-62.7l28-28c0.8,1.4,1.4,2.8,1.8,4.4
						c5.5,29.3,20.1,54.9,45.8,80.6c9.8,9.7,20.3,18.8,31.2,27.3c60.5,47.2,123,84.7,191.1,114.8c54.8,24.1,104.7,58.2,147.1,100.6
						c8.3,8.3,16.5,17.1,24.2,26.1c1.5,1.7,3.1,3.5,4.9,5.2c8.8,8.8,20.9,17.6,33.8,24.6c21.8,11.9,40.1,25.2,55.7,40.9
						c15.5,15.6,28.5,33.6,38.4,53.2c9.5,18.8,22.6,36.5,40.2,54.1c11.2,11.2,24.1,22.3,40.4,34.8c8.6,6.6,16.8,13.7,24.5,21.3
						c29.5,29.5,44.8,61.8,46.9,98.8c0.3,4.9,0.6,9.8,0.9,14.6v0.1l0,0.1c1,14.7,2,29.9,1.4,44.1c-2.3,50.2,19.6,98.4,71,156.3
						c8.5,9.6,17.6,19.2,27,28.6c53,53,113.4,96.3,171.9,138.3l0,0l0.2,0.2c6.8,4.8,14.4,10.3,21.8,15.7
						c20.9,15.1,38.6,29.9,54,45.3c16.2,16.1,30.6,34,42.9,53.2c8.7,13.8,18.2,27.5,27.3,40.8l0.1,0.1c3,4.4,5.7,8.3,8.2,12
						c13,19.1,27.7,36.9,44,53.2c21.7,21.6,45.9,40.5,72.2,56.3c32.5,19.7,55.8,37.3,75.6,57.1c8.7,8.7,16.8,18,24.2,27.7
						c-4.8,4.8-10,10-17,17.1l-0.2,0.2c-23.8,23.9-48.5,48.6-73.1,72.6c-0.8,0.8-2.6,1.2-5,1.2c-1.9,0-3.8-0.3-5.7-0.8
						c-52.8-15.2-100.9-43.6-139.6-82.5c-21.4-21.7-40.3-45.8-56.1-71.9c-2.4-3.7-5.2-7.2-8.4-10.2c-2.6-2.6-5.4-5.1-8.1-7.5l0,0
						c-1.2-1-2.4-2.2-3.6-3.3c-9.7-8.9-19.5-17.7-29-26.3l-0.1,0c-18.7-16.8-38-34.2-56.3-52.1l-1.1-1.1
						c-11.9-11.9-21.5-25.4-26.5-37.3c-8.8-21-22-40-40.2-58.2c-7.9-7.8-16.2-15.2-24.9-22.1c-13.9-11.1-27.4-23.4-40.4-35.4l0,0
						l0,0l0,0c-5.8-5.3-11.8-10.8-17.9-16.2l-1.8-1.6l-1.4,1.9c-19.2,24.7-14.7,52.4,13.5,82.4c2.6,2.8,5.3,5.6,8.3,8.6
						c8.3,8.3,17,16.3,25.3,24.1l0,0l0,0c8.3,7.7,17,15.7,25,23.8c7.1,7.1,13.9,14.5,20.3,22.2c7.3,8.9,15,17.4,22.8,25.2
						c22.8,23,49.3,42,78.3,56.3c19.3,9.7,36.9,22.4,52.1,37.8c15.2,15.4,28.4,32.7,39.2,51.5c9.8,17,21.8,32.8,35.6,46.7
						c23.7,23.7,52.5,41,88,52.6c8.1,2.7,16.2,6,24.7,9.5h0l0.1,0c3.6,1.5,6.7,2.7,9.9,4C1321.8,1344.2,1316.6,1347.9,1309,1347.9
						L1309,1347.9z M877.5,760.8c-1.1,7.9,1.4,14.5,3.7,20.2c14.3,34.1,38.6,62.3,62.7,87.8c11.2,11.8,20.9,25.4,30.3,38.5l0,0l0,0
						l0.7,1c2.1,2.9,4.2,5.8,6.3,8.7c4.4,6,8.4,12.3,12.3,18.4c6.9,10.8,14,22,23,31.5c3.2,3.3,6.3,6.7,9.4,9.9l0.8,0.8
						c18.9,19.6,36.8,38.1,48.1,62.3c5.2,10.8,12.2,20.7,20.6,29.2c1.1,1.1,2.3,2.2,3.4,3.2c24.9,22.4,50.6,44.6,75.5,66.1l0,0
						l0.5,0.4c13,11.3,26.5,22.9,39.8,34.5c2.7,2.4,5.6,4.8,8.4,7l0,0c5.1,4.2,10.5,8.6,15.1,13.3c3,2.9,5.7,6.1,8.1,9.5
						c5.1,7.6,10.9,14.6,17.3,21.1c21.2,21.2,47.1,32.3,81.3,34.8l6.5,0.5l-4.9-4.3c-6.7-5.9-13.4-11.7-19.8-17.3l0,0
						c-14.5-12.5-29.4-25.5-43.6-38.9l-9.8-9.3l-0.2-0.2c-21.9-20.8-44.6-42.2-66.3-63.9c-9.3-9.3-17.7-17.9-25.7-26.4
						c-18.5-19.5-35.7-40.8-52.3-61.4l0,0c-6.3-7.7-12.7-15.8-19.2-23.6c-3.9-4.7-7.4-9.6-11.8-15.8v0l-0.1-0.1l0,0
						c-1.1-1.6-2.3-3.2-3.5-4.9c16.9,7.1,28.6,17.6,36.9,25.9c5,5,9.7,10.2,14.3,15.3l0.1,0.1l0,0c3.5,3.9,7.4,8.3,11.3,12.3
						c8.2,8.6,16.6,17.3,24.7,25.7l0.1,0.2l2.3,2.5c19.7,20.6,40.1,41.9,60.5,62.4c14.1,14.1,27,26.6,39.5,38.2
						c31.4,29.1,68.3,51.7,108.5,66.5l2.3-3.7c-8.5-8-17.6-15.4-27.2-22.2c-42.4-30.7-74.9-57.8-102.3-85.2
						c-30.5-30.5-55-61.7-74.7-95.3c-9.8-16.4-21.6-31.6-35.2-45.1c-4-4-8.2-7.9-12.3-11.4c-39.8-33.9-83.6-66.5-118.7-92.7
						l-0.1-0.1c-5.9-4.4-11.9-8.8-17.6-13l-0.1-0.1l-0.5-0.4c-28.7-21-58.3-42.8-84-68.5c-11.5-11.4-22.1-23.7-31.6-36.8
						c-0.6-0.8-1.3-1.6-2-2.3c-1.4-1.3-2.9-2.6-4.4-3.8l-0.1-0.1l0,0c-0.9-0.8-1.9-1.5-2.8-2.3l-3.1-2.8L877.5,760.8z M246.8,133.3
						c22.2,16.4,43.2,34.5,62.7,54.1c33.5,33.5,64.7,72.2,101.2,125.4c10.3,15.1,23.4,30.3,41.2,48.1c11.1,11.1,22.6,21.7,33.4,31.7
						c28.7,26.4,60.6,49.5,91.3,71.8l0,0l0.1,0c36.3,26.3,73.9,53.5,106.9,86.6c9.3,9.3,18,18.8,25.9,28.4l2,2.4l1.6-2.7
						c7.6-12.7,5.5-27.3-6.2-42.5c-7.2-9.4-15.4-18.4-23.4-27.2l0,0l-0.1-0.1c-5.8-6.4-11.8-13-17.5-19.8
						c-3.2-3.8-6.4-7.6-10.1-11.8c-11-12.7-22.4-25.9-29.8-39.6c-11.8-22-26.8-42.2-44.5-59.7c-1.5-1.6-3.2-3.2-5.1-5
						c-0.7-0.7-1.4-1.4-2-2c-8.7-8.7-16.3-18.9-23.7-28.9l0,0l-0.2-0.2c-3.6-4.8-7.3-9.8-11-14.5c-6.2-7.8-12.5-16-18-23.2l0,0
						c-13.1-17-26.6-34.7-41.5-50.7c-2.5-2.7-5.2-5.5-7.9-8.2c-18.5-18.5-39.2-34.7-59.3-50.4l0,0c-20.2-15.8-41.1-32.1-59.8-50.9
						c-7.1-7-13.8-14.4-20.1-22.2c-1.6-2-3.3-3.9-5.1-5.7c-18.9-18.9-43.8-22.9-67.9-26.8c-6.2-1-12.5-2-18.6-3.3l-8.2-1.7l6.3,5.5
						c30.5,26.6,61.7,52.7,91.9,78l0,0c31.7,26.5,64.5,54,96.2,81.7c7.9,7,15.9,14.5,24.4,23c18.2,18.2,35.6,37.9,52.4,56.9l7.4,8.3
						c4.5,5,6.4,12.2,8.5,19.7c0.8,2.8,1.5,5.4,2.3,7.9l-2.6,0.4L507,353.4c-15.9-15.9-32.1-32.2-47.7-47.9l0,0l-1.6-1.6l-0.2-0.2
						c-18.8-19-38.3-38.6-57.6-57.8c-24.2-24.2-44.5-44.4-64-63.4c-26.1-25.6-55.4-43.4-87.1-53L246.8,133.3z M1483.5,1148.6
						c-9.7-2.6-19.3-2.8-28.5-2.9c-3.7-0.1-7.5-0.1-11.2-0.3c-54.3-3.2-101.8-24.8-141.1-64.1c-16.2-16.2-31.1-35.6-44.4-57.6
						c-14.5-24.2-26.9-49.6-36.9-75.9c-12.9-33.9-34.2-64.9-66.9-97.6c-3.9-3.9-8.2-8-12.5-12.1c-2.8-2.7-5.7-5.5-8.6-8.3
						c-15-15-29.9-32.3-48.5-56.1c-5.6-7.2-8.9-15.7-12.5-24.6c-1.7-4.2-3.4-8.6-5.4-12.8c-2.7-5.6-5.2-11.5-7.6-17.1
						c-5.7-13.2-11.6-26.9-20-39.4c-27.3-40.9-44.4-81.2-52.5-123.2c-13.8-72.4-51.6-144.9-112.2-215.6
						c-43.4-50.5-87.7-105.1-110.9-167.7c-5.6-14.9-14.3-28.5-25.6-39.7c-8.4-8.3-17.8-15.4-28-21.2c-14.5-8.3-29.3-17-43.5-25.4
						c-32.4-19-65.9-38.7-99.4-55.8c-25.4-12.9-48.7-29.8-68.8-50c-14.9-15.1-28.4-31.5-40.3-49.1c-6.3-9.2-12.5-18.6-18.5-27.7
						c-9-13.7-18.4-27.9-28.1-41.6c-9.6-13.5-20.1-27.6-32.5-40c-0.5-0.5-1-1-1.5-1.5c-1.8-1.7-3.5-3.4-5.2-5.1
						c-41-40.9-75.8-87.5-103.4-138.4c-6.8-12.5-14.3-25.1-21.4-37.2c-3-5.1-6.1-10.3-9.1-15.4l17.4-17.4
						c7.6,7.6,15.2,15.3,22.8,22.9c17.9,18,36.5,36.7,54.6,55.1c41.7,42.3,66.1,83.2,74.6,124.9c8.4,41.2,28.5,77.3,61.4,110.2
						c14.6,14.6,31.4,28.3,51.4,41.9c25,17,50.6,33.8,75.3,50c35.3,23.2,71.9,47.2,107.2,72.1c18.3,12.9,37.4,29.4,58.4,50.3
						c4.6,4.6,9.2,9.3,14.1,14.5c11.7,12.2,19.9,28.2,27.8,43.7l2.6,5c5.9,11.3,11.2,22.9,16.4,34.2c7.3,15.9,14.9,32.2,23.9,47.9
						c7.7,13.3,18.3,25.9,28.6,38c4,4.7,8.1,9.6,11.9,14.4c4.8,6,9.9,12,14.8,17.8c8.7,10.3,17.7,20.9,25.5,31.9
						c11.2,15.8,22,32.1,32.5,47.8c14.6,21.9,29.8,44.6,45.9,66.3c36.7,49.2,59.4,99.9,67.6,150.7c9.1,57.1,39.6,110.9,93.2,164.5
						c3.4,3.4,7.1,6.9,10.7,10.4c2.4,2.3,4.8,4.7,7.2,7c23.3,23.3,37.9,44.9,46.1,68c9.8,27.6,29.5,51,48.5,73.7
						c5,6,10.3,12.2,15.2,18.4c7.5,9.3,15.4,18.3,23.9,26.7c64.1,64.1,138.8,81.9,211,99c3.7,0.8,7.5,1.4,11.3,1.8
						c1.4,0.2,3,0.4,4.7,0.6c-4.1,3.8-7.7,7.9-11.2,11.9c-10,11.4-18.9,21.6-35.7,21.6C1493.1,1150.7,1488.2,1149.9,1483.5,1148.6
						L1483.5,1148.6z M1591.5,1057.8c-9.8-5.2-19.6-10.3-29.5-15.4c-74.4-38.9-151.4-79.2-222.3-132.5c-11.8-8.9-23-18.6-33.5-29.1
						c-11.9-11.7-22.5-24.5-31.6-38.4c-24.3-37.7-54.6-70.9-83.9-103c-5.6-6.1-11.2-12.3-16.8-18.5c-48-53.3-83.5-112-105.5-174.3
						c-18.2-51.7-44.9-94-84-133.1c-46-46-84.5-100.2-111.5-156.7c-24.9-52.2-59.7-100.2-106.3-146.8
						c-26.7-26.7-57.5-53.2-94.3-81.1C645.4,8.6,617-10.4,589.6-28.7c-18.7-12.5-38-25.4-56.7-38.7c-12.7-8.9-24.5-18.9-35.5-29.8
						c-22.5-22.5-38.4-46.8-47.1-72.2c-25-72.5-70.7-141.3-139.7-210.3c-4.4-4.4-9-9-13.7-13.4c-1.2-1.2-2.4-2.4-3.6-3.6
						c-3.8-3.8-7.6-7.8-11.3-11.7c-1.8-1.9-3.6-3.8-5.4-5.7l14.5-14.5c2.2,3,4.3,6,6.5,9.1c5.8,8.1,11.8,16.6,18.2,24.5
						c10.7,13.1,21.7,26.3,32.4,39c9.4,11.2,19.1,22.8,28.5,34.2c3,3.7,6.3,7.5,9.4,11.1c9.3,10.9,18.9,22.1,25.2,33.8
						c35.8,66.5,82.2,128.5,138,184.3c30,29.8,61.9,57.7,95.6,83.3C695,29,745.7,70.6,799.8,117.9c7.8,6.9,15.7,14.2,23.2,21.7
						c32.3,32.3,62.6,71.5,95.3,123.5c27.2,43.1,56.2,86.5,84.3,128.4c14,20.9,28.5,42.5,42.5,63.8c1.7,2.6,3.5,5.2,5.3,7.8
						c6.5,9.5,13.2,19.2,16.7,28.8c13.7,37,36.9,72,69,104.1c5.1,5.1,10.6,10.3,16.2,15.3c8,7.2,15.8,14.5,23.2,21.9
						c35,34.9,64.7,74.8,88.1,118.4c24.9,46.4,56.5,88.9,93.6,126.1c9,9,18.5,17.8,28,26.1c36.9,31.8,79.1,51,129,58.7
						c35.1,5.4,69.7,12.2,103,20.1c9.2,2.2,19.1,7.1,29.5,12.4c4.3,2.2,8.8,4.4,13.5,6.6c-4.4,4.4-8.7,8.7-12.9,12.9
						c-15.2,15.3-29.6,29.7-44.3,43.6c-0.9,0.8-3,1.3-5.3,1.3C1595.7,1059.3,1593.5,1058.8,1591.5,1057.8L1591.5,1057.8z
						 M1712.6,940.9c-10.3-4.2-21.1-7.3-32.1-9.1c-10-1.6-20.1-2.4-30.2-2.3c-10.8,0-21.5,0.7-31.9,1.4h0c-9,0.6-18.1,1.4-27,2.1
						l-0.8,0.1l-0.1,0c-14.1,1.2-28.6,2.4-43.1,3.1c-3.8,0.2-7.5,0.3-11.2,0.3c-7.3,0-14.7-0.3-21.7-1c-7-0.7-14-1.7-20.9-3.1
						c-6.8-1.3-13.6-3.1-20.2-5.1c-6.6-2-13.1-4.4-19.5-7.2c-6.4-2.8-12.7-5.8-18.8-9.2c-6.1-3.4-12.2-7.2-18.1-11.3
						s-11.8-8.6-17.5-13.4s-11.4-10-16.9-15.5c-16.2-16.2-31.9-35.8-46.6-58.3c-11-16.7-21.8-35.1-35.1-59.6
						c-24.7-45.6-52.4-83.4-84.6-115.6c-12.8-12.8-26.4-24.8-40.8-35.8c-10.7-8.2-20.9-17.1-30.5-26.7
						c-23.4-23.4-42.2-49.9-57.5-80.9c-14.3-29-33-62.8-63.4-94c-15.2-15.5-29.1-38.3-36.5-59.5c-23.6-68.3-65.4-131.7-127.7-194.1
						c-23.4-23.2-47.9-45.2-73.4-65.8c-22.9-18.7-46.5-37.4-69.2-55.5l-0.3-0.2C686.4,0.1,654.5-25.2,623.7-51
						c-13.3-11.1-26.5-23.2-39.5-36.2c-9.8-9.8-19.6-20.2-28.9-30.8c-35-39.7-69.2-81.2-102.3-121.3l0,0l-0.2-0.3l-15.1-18.2
						c-7.9-9.5-14.3-20.4-20.2-30.8c-13.1-22.9-29.2-44-48-62.5c-15.2-15.3-27-34.8-38.3-53.6l0,0l0,0l0,0
						c-4.6-7.6-9.3-15.5-14.3-23c-2.5-4-4.7-8.1-6.6-12.4c-0.7-1.4-1.4-3-2.2-4.6l19.4-19.4c6.9,9.7,13.5,19.8,19.8,29.5l0,0
						c15.4,23.5,31.3,47.9,51.2,67.8c9.3,9.3,18.3,18.8,26.8,28.1c8.5,9.3,16.6,18.8,24.2,28.1s14.9,18.8,21.7,28.2
						c6.8,9.4,13.3,18.9,19.3,28.4c6.6,10.4,12.9,21.1,18.6,31.7c22.4,41.4,47.7,76,77.4,105.8c9.9,9.9,20.3,19.2,31.1,28
						c8,6.5,16.4,12.9,23.9,18.6c15.8,12.1,32.1,24.5,46.6,38.4c27.5,26.3,56,53.5,86.5,80.5c16.5,14.6,31.9,27.7,47,40
						c16.9,13.7,33.6,26.4,49.6,37.9c10.7,7.6,21.4,14.9,31.9,21.7c13.8,8.7,26.6,19,38.2,30.5c12.3,12.2,22.7,26.1,31.1,41.2
						c3.8,7,8.2,14,12.9,20.8c6.6,9.7,13.8,19,21.4,27.9c8.1,9.5,17,19.1,27.3,29.4c6.8,6.8,14.1,13.8,23,22.2
						c7.6,7.1,15.4,14.2,22.9,21.2l0,0l0.2,0.2l0,0l0,0c16.9,15.5,34.3,31.5,50.7,47.8c27.3,27.3,47.4,51.5,63.2,76.2
						c10,15.5,21.6,30,34.6,43c12.3,12.3,25.7,23.4,40.1,33.2c13.8,9.5,27.9,19,41.5,28.2l0,0l0.1,0.1
						c46.5,31.3,94.5,63.7,138.9,101.9c30.7,26.4,67.6,43.5,116.3,53.8c3.8,0.9,7.7,1.4,11.6,1.5c1.9,0.1,3.9-0.2,5.7-0.8
						c1.4-0.5,2.7-1.4,3.6-2.6c3.1-4.1,1.7-10.9-4.8-23.5c-8.2-15.8-16.7-32.2-27.8-46.9c-5.7-7.5-11.5-15.2-17.4-23l0-0.1
						c-28-37.2-56.9-75.6-88.1-111.4c-22.3-25.6-43.5-48.5-64.9-69.9c-76.2-76.2-152.2-130.9-232.4-166.9
						c-20.4-9.3-38.9-22.3-54.6-38.2c-6.3-6.3-12.2-13-17.7-20c-13.1-16.5-27.3-34-42.9-49.6c-19.8-19.8-39.5-34.3-60.3-44.3
						c-15.4-7.4-29.1-17.5-43.4-31.8c-8.3-8.4-16.1-17.2-23.5-26.5c-6-7.5-12.1-15.2-18-22.8l0,0l-0.7-0.9
						c-16.2-20.7-32.9-42.1-51.4-60.6c-6.2-6.2-12.6-12.1-19.4-17.6c-10.2-8.3-20-17.2-29.3-26.5c-28.7-28.7-52.2-61.2-74-102.3
						c-20.3-38.3-42.3-78.5-67.1-122.8c-10-17.9-22.5-34.3-37-48.8c-8.3-8.3-17.2-15.9-26.7-22.9c-12.3-9.1-23.9-19.1-34.7-30
						c-19.1-19.1-35.5-39.9-50.4-59.5c-19.5-25.7-41.3-50.6-62.4-74.7l-0.1-0.1l0,0c-8.2-9.4-17.6-20.1-26.5-30.5l41.8-41.8
						c6.7,5.7,13.2,11.7,19.3,17.8c19.1,19.1,36,40.8,51.5,66.1c14.4,23.6,30.8,50.3,51.3,70.8c0.7,0.7,1.4,1.4,2.1,2
						c56.3,54.5,104.3,90.1,155.5,115.4c71.2,35.3,135.6,64.6,203.4,66.5c41.2,1.2,82.6,21.4,119.5,58.4c2.3,2.3,4.7,4.8,7,7.2
						c7.6,8.2,15.6,16.4,22.6,23.6l0,0l0.2,0.2c10.9,11.2,22.2,22.9,32.7,34.7c3.3,3.7,6.6,7.2,10,10.6
						c19.3,19.3,40.4,33.4,64.6,43.2c13.4,5.4,26.7,16.1,39.6,26.5l0.5,0.4c11.7,9.4,23.1,19.7,34.1,29.6l0,0l0.1,0.1l1.2,1.1l0.1,0
						c5.8,5.2,11.7,10.5,17.7,15.7c4.8,4.2,9.8,8.2,14.7,12.1l0,0l0,0c8.3,6.8,17,13.7,24.6,21.4l1.2,1.2
						c16,16.3,31.6,33.6,46.6,50.3l0,0l0.6,0.6c6.1,6.8,12.4,13.8,18.7,20.6l3.6-2.4c-11.5-23.8-23.9-44.1-38-62.2
						c-25.1-32.3-50.6-64.4-75.3-95.5l0,0l-0.5-0.6l0,0c-40.3-50.8-82-103.3-121.4-155.8c-13.5-18-28.3-35.1-44.2-51.1
						C1034.7-343,938.7-376,855.5-397.4c-4.4-1.2-8.9-1.9-13.5-2.1c-2,0-3.9,0.2-5.9,0.7c-1.8,0.5-3.5,1.3-5,2.5
						c-3.6,3-5.3,8.1-4.8,15.1c0.6,9.6,5.1,19,12.7,26.6c5.5,5.5,12.3,9.7,19.8,12.1c4.5,1.4,9.2,2.5,13.8,3.3h0l0.5,0.1h0
						c2.3,0.5,4.7,1,7,1.5c11.7,2.8,23.2,5.5,36,8.4l0.4,0.1c31,7.2,63,14.6,94.6,23.4c14.4,4,30.9,12.7,43.9,23.2
						c17.1,13.8,33.4,28.5,48.9,44.1c44.2,44.2,81.4,93.6,111.9,136.1c3.1,4.4,4.4,9.8,5.7,15.5v0l0,0c0.4,1.8,0.9,3.9,1.4,6
						l-2.7,0.8l-40.3-40.3l0,0l-5.3-5.4l-0.1-0.1c-6.2-6.3-12.7-12.7-19.1-19.1l-1.1-1.1c-106.5-106.6-197.6-160.8-295.4-176
						c-25.1-3.9-50.5-16.5-77.6-38.7l-1.9-1.5l-0.1-0.1c-32.6-26.7-66.4-54.2-100.8-78.9c-9.3-6.6-18.1-13.9-26.2-21.9
						c-20.5-20.5-30.8-42.5-31.6-67.3c-0.8-23.2-11-44.7-30.3-64.1c-3.9-3.8-7.9-7.5-12.2-10.9c-14.7-11.8-30.4-22.7-45.5-33.1h0
						l-0.1-0.1l-0.3-0.2c-5.9-4.1-12-8.3-18-12.5l34.7-34.7c0.1,0.1,17.2,16.2,22.9,21.5c6,5.6,11.3,10.7,16.1,15.6
						c23,23,51.1,54.7,64.3,95.9c6,18.8,17.8,38.5,28.4,55.4c6.3,10.2,13.7,19.6,22.1,28.1c20.9,20.9,46.5,32.8,74.1,34.4
						c7.2,0.4,14.7,0.6,22.9,0.6c14.4,0,28.7-0.6,42.5-1.2h0h0.1c8.3-0.4,16.8-0.7,25.2-1c7.9-0.2,16.4-0.8,26.8-2
						c8.2-0.9,16.4-1.3,24.6-1.3c7.3,0,14.5,0.4,21.6,1.1c7.1,0.7,14.1,1.8,21,3.2c6.9,1.4,13.7,3.2,20.4,5.4
						c6.7,2.2,13.4,4.7,19.9,7.5c6.6,2.9,13,6.1,19.3,9.6c6.3,3.5,12.6,7.5,18.6,11.8s12.1,8.9,18,13.9s11.7,10.3,17.4,16
						c23.4,23.4,45,53,64.4,87.9c25.7,46.3,58.2,100,105.3,147c4.7,4.7,9.5,9.3,14.4,13.8c1.4,1.3,2.8,2.6,4,3.7
						c3.5,3.5,7.3,6.8,11.4,9.7c13.8,9.3,26.8,20,38.6,31.8c25.7,25.7,45.8,56.5,61.6,94.3c10.3,24.7,24,45.4,42,63.4
						c2.2,2.3,4.6,4.5,7,6.7c1.6,1.5,3.3,3,4.8,4.6c23.9,23.9,34.7,52.1,43.8,79c13.4,39.8,30.7,85.5,66.8,124.4
						c16.9,18.2,33.8,35.8,50.4,52.4c24.3,24.3,48.7,47.2,72.5,68.3c30.8,27.1,64,52.2,96.2,76.5l0.1,0.1l1.6,1.2h0
						c9.8,7.4,19.9,15,29.7,22.6c32.9,25.2,58.5,47.4,82.9,71.8c28.9,28.9,57.2,62.2,91.6,107.7l-24.1,24.1c-0.6-1-1.3-2-2-3.1
						l-0.3-0.5l0,0l0,0c-2.6-3.8-4.9-7.8-7.1-11.9c-14.9-30.5-35.8-59-63.9-87.1c-16.8-16.8-36.2-33.6-61-52.8
						c-19.1-14.8-37.5-31.6-55.2-47.9l-0.1-0.1l-0.1-0.1c-4.7-4.3-9.6-8.8-14.4-13.2c-56.8-51.5-125.2-111.3-202.1-164.2
						c-6.8-4.8-13.2-10.1-19-16.1c-10-10.1-18.9-21.2-26.6-33.2c-24.6-38.6-53.3-74.3-85.6-106.7c-5.5-5.5-11.1-10.9-16.8-16.3
						c-10.2-9.5-19.4-18.4-28-26.9c-37.4-37.4-64.5-71.2-85.3-106.1c-5.7-9.5-12.6-18.3-20.5-26.2c-10.9-10.9-23.9-20.6-39.9-29.7
						c-60-34.1-111.4-79.7-158-123.9c-12.7-12.1-27.7-21.7-40.1-25.8c-35.1-11.6-69.9-21.8-103.5-31.7l-0.4-0.1
						c-12.3-3.6-24.3-7.1-36.2-10.7l-5.5-1.6l2.9,4.9c67.1,111.3,130.2,195,198.7,263.5c41.6,41.9,87.4,79.4,136.6,112
						c23.8,15.6,49.1,28.7,73.6,41.2l2,1c6.2,3.2,12.6,6.5,18.8,9.8c20,10.3,38.2,23.7,54.1,39.5c5.2,5.2,10.2,10.7,15,16.5
						c11.4,13.8,26.5,31.8,42.9,48.3c25.8,25.8,50.4,43.6,77.2,56c10.2,4.7,19.7,11.5,29,20.9c10.4,10.4,19.3,22.5,28.3,35.1
						c17.3,24.3,38.6,52.7,64.6,78.7c13.9,14,28.9,26.8,44.9,38.2c4.2,3.1,8.2,6.5,11.9,10.2c8.9,8.9,17,19.7,24.9,30.2l0,0
						c2.2,2.9,4.4,5.8,6.6,8.8c10.1,13.2,18.2,27.5,26.3,42.2c25.3,46.2,49.7,91.1,75.6,138.7l0,0.1l0.5,0.9v0
						c9,16.6,18.3,33.7,27.6,50.9c-2.3,2.3-4.8,4.9-7.3,7.4l-0.1,0.1c-9.1,9.3-19.4,19.9-30.6,29.6c-1,0.6-2.2,0.9-3.4,0.8
						c-4.4-0.2-8.8-1.2-12.8-3c-52.3-22.4-101.4-51.6-146-87c-18.1-14.3-36.9-22.1-57.6-23.8c-24.7-2-50.3-5.7-75.1-9.3l-0.4-0.1
						c-36.1-5.2-69.6-23.1-99.5-53c-1.1-1.1-2.3-2.3-3.7-3.7l-8.8-9.1l-0.1-0.1c-20-20.8-40.6-42.3-60.4-63.9c-2-2.2-4-4.3-6-6.2
						c-16.5-16.5-33.4-27.4-51.8-33.3c-17.5-5.6-32-14.3-44.3-26.6c-4.3-4.3-8.2-9-11.8-13.9c-2-2.7-4.2-5.3-6.6-7.6
						c-3.6-3.5-7.4-6.8-11.5-9.7c-26-18.6-50.3-39.4-72.8-62c-15-15-30.1-31.6-44.9-49.4c-0.8-0.9-1.5-1.7-2.2-2.4
						c-3.5-3.5-7.9-6-12.7-7.1l-5.8-1.5l3.5,4.9c4.6,6.4,9.1,13.1,13.5,19.5l0.1,0.1l0,0c9.6,14,19.6,28.5,30.5,42.2
						c10.1,12.7,20.9,26.1,33.8,42.3l0,0c61.8,77.3,125.6,157.2,190,234.8c9,10.9,18.6,21.4,28.4,31.2
						c46.5,46.5,101.1,80.1,162.3,100c8.5,2.7,17,5.6,25.2,8.4l0.1,0c17.1,5.8,34.8,11.7,52.3,16.7c5.2,1.6,10.5,2.5,16,2.7
						c4.8,0,8.5-1.1,11.2-3.4c3.8-3.2,5.3-8.4,4.5-16c-1.1-11-5.5-20.6-12.6-27.7c-6.4-6.4-14.8-10.8-24.9-13
						c-18.2-4-36.6-7.9-54.5-11.6h0l-0.5-0.1l-0.5-0.1c-20.9-4.3-42.4-8.8-63.7-13.7c-38.1-8.6-72.5-28.1-102.4-58
						c-5-5-10-10.4-14.7-16c-33.5-39.5-69.2-81.7-104-125c-6.2-7.7-10.5-16.9-14.8-25.8v0c-1.8-3.8-3.4-7.2-5.1-10.5l3.3-1.5
						c5.8,5.8,11.9,11.8,18,17.9l2.3,2.3c5.5,5.4,11.1,11,16.8,16.7c8.7,8.7,15.7,15.8,22.2,22.6c5.5,5.7,11.2,11.5,16.7,17.1
						c78.8,78.9,150.4,127.5,225.3,153.2c16.3,5.6,33.2,9.6,50.3,11.9c36.2,4.9,67.9,20.6,97,48.2c13.7,12.9,27.8,25,42.7,37.8l0,0
						l0.1,0.1l0.3,0.2c6,5.1,12.2,10.5,18.5,15.9c-1.3,1.3-2.5,2.6-4,4.1l0,0c-5.1,5.2-10.3,10.6-16,15.4c-1.6,1.1-3.5,1.6-5.4,1.6
						C1714.9,941.5,1713.7,941.3,1712.6,940.9z M679.5-300.9c7,10.8,13.8,21.3,19.3,29.9l0.1,0.1c12.4,19.3,25.2,39.2,38,58.2
						c4,5.9,8,11.9,11.9,17.7l0.4,0.5l0,0c25.7,38,52.2,77.2,69.2,118.9c6.6,15.8,16.2,30.1,28.4,42.1c5.9,5.9,12.2,11.2,18.9,16.1
						c8.8,6.5,18,14.6,28.9,25.5c2.2,2.2,4.5,4.6,7.2,7.3c11.8,12.2,23.2,23.9,34,34.6c50.2,50.2,96.5,92.1,141.6,128.2
						c11,8.8,21.9,18.1,32.4,27.2l0,0l0.2,0.2c30.8,26.5,62.7,53.9,100.5,70.2c53.7,23.1,106.1,59,164.9,112.8
						c17.4,15.9,33.3,31.1,48.4,46.2c70.5,70.6,122.3,139.3,158.3,210.2c13.5,26.5,28.8,52.1,45.7,76.5c6.5,9.4,13.9,18.2,22,26.3
						c27.8,27.8,62.8,45.2,93.3,58.5l6.7,2.9l-3.9-6.1c-49.8-77.4-81.8-153.5-107.9-218.8c-9.1-22.8-21.2-41.5-37-57.3
						c-7.4-7.3-15.4-14-24.1-19.8c-9.6-6.6-18.5-14.2-26.7-22.5c-2.6-2.6-5.3-5.4-7.9-8.2c-10.3-11.1-21.3-22.5-32.8-34
						c-45.5-45.5-94.2-87.7-144.2-130.5c-46.5-39.8-96.9-80.7-155.8-105c-17.1-7.1-33.3-16.3-48.1-27.5
						c-53.6-40.8-98.7-79.7-137.9-118.9C956.2-6.7,905.9-75.5,869.9-149.6c-14.6-30.1-31.9-54.9-52.9-75.9
						c-23.4-23.4-50.6-41.3-83.2-54.8c-10.1-4.2-20.2-9-31.9-14.5l-0.1,0l0,0c-6.1-2.9-12.4-5.9-19.4-9.1l-6.9-3.2L679.5-300.9z
						 M1152.3,897.3c-3.5-0.7-6.9-1.3-9.6-3.1c-11-7.2-22.6-15.7-35.4-25.9c-12.5-9.9-25.2-20.2-37.4-30.1
						c-18.9-15.3-38.5-31.2-58-46.2c-12.4-9.5-24.1-19.7-35.2-30.7c-34.2-34.2-54.3-70.4-61.4-110.6L915,650
						c-5.1-28.6-10.3-58.1-14.3-86.9c-2.9-21.2-12-40.5-27.9-58.9c-27.8-32.3-46.5-66.7-57.2-105.1c-11.4-41.1-35.8-79.3-76.9-120.4
						c-12.3-12.3-26.4-25.2-44.4-40.6c-17.4-14.9-34.6-30.9-51.1-47.4c-4.9-4.9-9.8-9.9-14.6-14.9c-1.2-1.2-2.4-2.5-3.6-3.6
						c-31.8-31.8-68.8-50.2-103.9-66.3c-49.3-22.6-84.4-45.8-114-75.3c-4.5-4.5-8.9-9.2-13.1-14c-3.5-4-7.1-7.8-10.8-11.5
						C349.8-28.4,308.7-50.1,254.1-63c-18.6-4.4-33.8-12.9-47.5-26.7c-2.7-2.7-5.4-5.6-7.9-8.7c-2.7-3.2-5.4-6.2-8-8.8
						c-4.6-4.8-9.9-8.9-15.6-12.2c-15-7.8-28.7-17.8-40.7-29.7C114-169.3,99.5-195,89.9-227.4l44.2-44.2c0.6,0.8,1.2,1.6,1.8,2.3
						c2.4,2.8,4.5,5.8,6.2,9.1c3.6,7.7,6.9,15.6,10.1,23.3c5.9,13.9,11.9,28.4,19.8,42.1c14.4,25,29.1,44.9,45.1,60.8
						c19.1,19,39.9,32.7,63.8,41.8c9.6,3.6,19.3,10.3,28.8,16.7c3.2,2.2,6.3,4.3,9.5,6.4c5.2,3.4,10.5,7.3,15.6,11
						c9.6,7.1,19.6,14.4,29.9,18.9c25,10.9,44.8,23.9,60.4,39.5c3.8,3.8,7.4,7.9,10.8,12.1c4.6,5.7,9.5,11.2,14.7,16.3
						c26.8,26.8,58.3,43.1,88.8,58.8c20.1,10.4,40.9,21.1,60,34.7c1.3,0.9,2.7,0.5,4.4,0c0.8-0.3,2-0.6,3.4-0.9l3.6-0.8l-2.4-2.8
						c-2.5-2.9-4.9-5.7-7.2-8.5c-4.4-5.2-8.5-10.2-13.1-14.7c-0.7-0.7-1.3-1.3-2-1.9c-26.7-25.2-50.8-47.9-75.7-69.9
						C497.5,11.2,484.5-0.6,472-12c-33.7-30.7-68.6-62.4-105.3-89.2c-19.3-14-37.5-29.4-54.4-46.2c-44.2-44.2-71.4-92.8-83.2-148.5
						c-2.4-11.5-8.2-23.6-13.8-35.2c-2.3-4.8-4.7-9.8-6.8-14.7l12.9-12.9c2.5,3,5.2,5.9,7.8,8.7c6.8,7.5,13.8,15.2,18.2,23.3
						c2.4,4.4,4.8,8.8,7.3,13.2c11.6,20.8,23.7,42.2,27.7,62c7.2,35.1,25.6,66.4,57.9,98.7c11.1,11.1,24.2,22.7,41.3,36.5
						c23.6,19,47.7,41,73.9,67.2c13.7,13.7,28.1,28.6,46.6,48.3c1.7,1.8,3.4,3.6,5.2,5.3c15,14.7,31.4,27.8,49.1,39.1
						c28,18.1,54,39.1,77.6,62.7c21.7,21.9,41.5,45.6,59.2,70.9c16.5,23.6,30.9,41.3,45.3,55.7l1.8,1.8c19.4,19.4,36,40.2,52.2,65.6
						c13,20.2,27.8,40.1,42.2,59.4c9.5,12.7,19.3,25.9,28.5,39c33.4,47.7,56.2,92,69.9,135.5c7,22.3,11.2,47,13,75.5
						c1.7,27.5,12.7,53.7,37,87.5c38.6,53.7,82.1,104.6,133,155.5c4.4,4.4,8.8,8.7,13.2,13c0.4,0.4,0.9,0.9,1.3,1.3
						c6.4,6.4,12.4,13.5,18.1,20.3c2.6,3.1,5.2,6.2,7.9,9.3l-0.8,1.6C1154.5,897.8,1153.4,897.5,1152.3,897.3L1152.3,897.3z"/>
				</g>
			</g>
		</g>
	</g>
</g>
</svg>
