<?xml version="1.0" encoding="utf-8"?>
<!-- Generator: Adobe Illustrator 20.1.0, SVG Export Plug-In . SVG Version: 6.00 Build 0)  -->
<svg version="1.1" id="Layer_1" xmlns="http://www.w3.org/2000/svg" xmlns:xlink="http://www.w3.org/1999/xlink" x="0px" y="0px"
	 viewBox="0 0 1440 809.9" style="enable-background:new 0 0 1440 809.9;" xml:space="preserve">
<style type="text/css">
	.st0{fill:#25B89D;}
	.st1{clip-path:url(#SVGID_2_);}
	.st2{fill:#3D55CC;}
</style>
<g>
	<g id="Mask_Group_13" transform="translate(9.869 125.423)">
		<g id="pattern_01" transform="translate(0 -278.801)">
			<rect id="Mask-3" x="-9.9" y="153.4" class="st0" width="1440" height="809.9"/>
			<g id="Group_18">
				<defs>
					<rect id="SVGID_1_" x="-9.9" y="153.4" width="1440" height="809.9"/>
				</defs>
				<clipPath id="SVGID_2_">
					<use xlink:href="#SVGID_1_"  style="overflow:visible;"/>
				</clipPath>
				<g id="Mask_Group_24" class="st1">
					<path id="Combined_Shape" class="st2" d="M1240.2,1070.4c-138.1-9.8-262.1-67.4-374.9-144.7c-38.3-26.2-71.1-63.7-115.6-79.9
						c-47.2-17.2-87.6,2.7-126.9,30.7c-55.4,39.5-99,84.9-162.8,111.5c-62.8,26.2-132.8,39.9-199.6,26.6
						c-69.9-14-118.8-59-171.7-102.5c-30.2-24.8-67.5-44.8-106.5-41.9c-3.8,0.3-8.1,0.6-11-1.9s-0.7-13.9,3-13.3
						c41.8-3.7,82.5,15.8,116.3,40.6c89.8,66,178.2,126.7,294.6,93.8C489.7,959.8,558.9,868.3,640.7,803
						c16.8-13.4,33.6-27.8,53-37.2c66.6-32.4,138.9,33.4,195,62.4c66.9,34.6,136.8,64.1,209.7,83.6c111.3,29.7,231,35.2,340.9,0.8
						c7-2.2,16.2-3.9,20.4,2.2c2.4,3.5,1.9,8.2,1.3,12.4c-0.3,2-0.6,3.9-0.9,5.9c-4.1,27.2-8,54-6,81.7
						c3.2,45.6-46.8,46.5-80.5,51.2c-29,4-58.3,6.1-87.6,6.1C1270.7,1072,1255.5,1071.4,1240.2,1070.4z M119.5,879.8
						c-26.7-14.1-53.2-29.7-82.8-35.9s-63.5-1.2-84.1,20.8c2.2-16.8,17.2-29.9,33.6-34.3s33.8-1.9,50.3,2.1
						c56.1,13.7,103.9,47.3,158.2,63.4c54.3,16.1,114.1,9.7,165.6-12.8c63.1-27.5,114.6-77.3,153.3-134.2
						c40.1-59,69-131.6,128.1-175.1C673,551,705.3,539.6,744,550.5c50.9,14.2,93.3,47.4,141.3,68.9c184.2,82.5,430.2,96.7,612.1-4.2
						l33.1,130.3c-136.2,64-296.1,83.7-442.9,50.9c-113-25.3-217.7-78.8-316.9-138.5c-18.1-10.9-37.3-22.3-58.4-22.1
						c-50.8,0.6-95.8,67-126,101c-42.5,47.9-81.6,108.3-136.5,143.2c-52.2,33.2-104.8,48-157.5,48
						C234.9,928,177.2,910.4,119.5,879.8z M-74.3,836.5c10.5-8.3,22-15.1,34.4-20.2c-0.2-1.2-0.7-2.3-1.5-3.2
						c30.1-36.1,77-46.3,121.9-48.2c45.4-2,89.9-1.1,132.7-18.6c36.3-14.8,67.6-39.1,92-69.7c54.7-68.5,47.9-163.6,94.6-235.7
						c27.7-42.9,64.6-86.1,110-111c37.2-20.5,79-33,120.7-40.2c58.6-10.1,119.4-3.8,178.5-18.4c61.6-15.2,121.3-39.6,173-76.8
						c88.8-64,162.4-136.7,203.5-240.6l241.6,72.4c-60,140.3-220.8,258.4-363,301.4c-66.7,20.2-135.8,31.3-205.4,33
						c-31,0.7-61.9-2.5-92.8-5.7c-43.5-4.5-87-9.1-130.5-2.7c-72.1,10.6-149.9,53.7-189,116.5c-42.2,67.7-59,148.3-104.7,214.1
						c-36.8,52.9-95.4,82.4-159.2,88.8c-38.4,3.9-77.3,0.8-115.8,4.4c-36.2,3.4-73.4,13.6-100.3,37.7c13.7-5,27.8-8.6,42.2-10.6
						c38.4-5.7,78-4.1,116.3,0.7c39.5,5,79.7,9.4,119.3,3c52-8.4,98.9-34.7,135.6-72.8c44.7-46.4,63.1-107,89.8-164.3
						c37-79.4,103.9-158.4,196.3-165.8c73-5.9,146.8,18.7,218,30.5c81.7,13.7,165.3,10.8,245.8-8.4
						c127.2-30.7,244.1-103.2,328-203.7c-0.6,3.6-9.8,22.6-10.4,26.3c-0.3,2.1-0.6,4.1-0.9,6.2l13.6,236.7
						c-137.1,64.7-293,87.3-443,67.4c-73.2-9.7-145.5-28.6-210.9-62c-60-30.6-137.2-39.5-197-2.9
						c-72.5,44.4-101.9,124.4-138.5,197.2c-28.8,57.4-76.9,99.3-136.9,122.5c-76.8,29.7-149,14.5-227.2,2.6
						c-32.4-4.9-65.8-7.3-98.4-2.7c-17.4,2.5-33.6,7.3-49.9,13.8c-1.6,0.6-22.2,11.9-29.9,11.9C-73.6,839.5-74.8,838.7-74.3,836.5z
						 M-42.1,789.4c8.6-18.5,27.8-29.8,47-36.8c57.9-21.1,124.1-13.1,180.1-38.8c42.2-19.3,74.3-58.2,87.5-102.4
						c14.1-47,8.2-94,16.7-141.5c10.1-56.2,30.1-112.9,67.4-157c70-82.6,196.3-122.6,295.7-156.1c22.3-7.5,43.6-12,62.9-25.8
						c21.4-15.3,41.7-32.2,60.8-50.3c24.8,26.3,60.8,16.6,91,36.3C810,179.7,729,215.9,648.6,237.6c-77.9,21-164.1,38.9-228.8,90
						c-37.8,29.9-63.1,73.3-78.9,118.8c-21.2,61-21,126.4-48.2,185.1C269.7,680.8,231,718,178.3,733.8
						c-33.5,10-68.9,10.6-103.7,14.4S4,760-23.2,782c-5.7,4.6-9.4,10.2-13.7,10.2C-38.5,792.3-40.2,791.5-42.1,789.4z M-65.4,788.9
						c5.1-19.8,21.8-34.4,39.4-44.9c53-31.4,119.5-35.8,169.7-71.3c37.9-26.8,62.2-70.9,67-116.8c5.1-48.8-9.3-93.9-9.8-142.2
						c-0.5-57.1,8.7-116.6,37.3-166.8c53.5-94.1,170.2-156.7,261.6-208c20.5-11.5,40.6-19.9,57-37c18.2-19,35-39.3,50.4-60.7
						c29.2,21.3,62.8,5.1,96.1,18.9C659.2,32.3,586.2,82.8,511.2,118.9c-72.7,35-154,68.5-208.2,130.7
						c-31.6,36.3-48.5,83.7-55.6,131.3c-9.5,63.9,2.7,128.1-13.2,190.9c-13.4,52.8-44.5,96.5-93.4,121.7
						c-31,16.1-65.8,23.1-99.2,33.3s-67.2,24.6-89.8,51.3c-5,6-7.7,12.7-12.4,12.7C-62.3,790.7-64,790-65.4,788.9L-65.4,788.9z
						 M-84.1,781.2c2.4-20.3,17-37.1,33-49.8C-2.9,693.2,62.3,680,107.4,638c33.9-31.6,52.1-78.6,50.7-124.8
						c-1.5-49.1-21.8-91.9-28.7-139.7c-10.1-71.3,3-144,37.4-207.3c35.9-66,102.3-95.9,157.7-140.9c59.2-48.1,108.1-107.5,144-174.9
						c17.8,9.6,35.3,7.4,53.4,5.2c14.3-1.7,28.9-3.4,44.3,0.6C532-66.2,466.5-6.3,397.1,39.6c-67.3,44.5-143.4,88.6-188.6,157.5
						c-26.5,40.3-36.8,89.5-37.5,137.7c-0.9,64.6,19.8,126.7,12.5,191c-6.2,54.1-31.2,101.6-76.2,133.2
						c-28.6,20.1-62,31.7-93.8,46.3s-63.2,33.4-82,62.9c-4.4,6.9-6.1,14.3-11.3,14.3C-81.3,782.5-82.8,782-84.1,781.2z M-26.9,680.4
						c36.8-10.5,66.6-37.7,91-67.2c27.1-33,36.6-71.8,37.7-114c1.3-45.5-16.6-89.3-28.9-132.8c-17.4-61.2-28-129.5-9.8-192.7
						c6.9-24,24-73.6,47.7-86.1c19.4-10.3,53.7,6.5,73.6,9.8c-53,50.2-89,108.9-91.2,182.8c-2,66.4,24.4,127.6,31.6,192.7
						c5,44.6-11,97.7-36.5,134.1c-26.4,37.6-63.7,66.4-106.8,82.5c-3.7,4.7,1.4,3.3-3.6,6.7C-26,692-27.8,686.2-26.9,680.4z
						 M-37.1,646.8c8.9-3.9,17.5-8.4,25.7-13.6c36.7-24.3,57.9-73.5,57.8-116.9c-0.1-70.8-54.2-133.5-69-202
						c-14.6-68-13.2-143.8,17.4-207.3C14.7,65.8,47.2,32.6,79.2,0.7c28.1-28.1,56.7-56.4,77.1-90.5s31.8-75.4,22.7-114.1
						c15-2.1,30.1-3.3,45.3-3.5c5.2-0.1,30.7-3,34.2,0c9.5,8.5,10.6,22.9,9.6,35.6c-4.9,61-41.8,114.7-83.7,159.2
						S94.1,70.5,57.3,119.3c-16.1,21.3-30,44.8-36,70.8c-10.6,45.4-0.7,95.4,12.5,139.3c20.9,69.2,44.4,151.5,22.8,223
						c-6.8,22.4-18,43.3-32.8,61.4c-14.9,18.3-33.4,29-55.5,36.8c-2.5,0.9-5,1.8-7.4,2.6c-1.3,0.5-2.6,0.8-4,0.9
						C-46.9,654.3-41.2,648.6-37.1,646.8z M-6.5,603.2c12.9-22.6,17.6-57.3,12.9-82.9C1.7,494.4-11.9,471-32,454.1
						c-3.1-2.6-6.4-5-8.4-8.5c-1.8-3.1-2.6-6.6-3.2-10.1c-2.7-13.6,0.5-27-2.2-40.6c17.5,29.5,42.4,54.6,56,86.1
						C30.6,528.2,21.2,587-13,625.5l-4.4,1.1C-16.1,618-10.8,610.7-6.5,603.2L-6.5,603.2z"/>
				</g>
			</g>
		</g>
	</g>
</g>
</svg>
