<?xml version="1.0" encoding="utf-8"?>
<!-- Generator: Adobe Illustrator 20.1.0, SVG Export Plug-In . SVG Version: 6.00 Build 0)  -->
<svg version="1.1" id="Layer_1" xmlns="http://www.w3.org/2000/svg" xmlns:xlink="http://www.w3.org/1999/xlink" x="0px" y="0px"
	 viewBox="0 0 1440 809.9" style="enable-background:new 0 0 1440 809.9;" xml:space="preserve">
<style type="text/css">
	.st0{fill:#CC9966;}
	.st1{clip-path:url(#SVGID_2_);}
	.st2{fill:#303D78;}
</style>
<g>
	<g id="Mask_Group_13" transform="translate(9.869 125.423)">
		<g id="pattern_01" transform="translate(0 -278.801)">
			<rect id="Mask-3" x="-9.9" y="153.4" class="st0" width="1440" height="809.9"/>
			<g id="Group_14">
				<defs>
					<rect id="SVGID_1_" x="-9.9" y="153.4" width="1440" height="809.9"/>
				</defs>
				<clipPath id="SVGID_2_">
					<use xlink:href="#SVGID_1_"  style="overflow:visible;"/>
				</clipPath>
				<g id="Mask_Group_20" class="st1">
					<path id="Combined_Shape" class="st2" d="M317.5,1098.6c-37.4-39.2-73.6-79.5-109.9-119.7c-2.2-2.4-4.2-4.9-5.9-7.6
						c-24.6-37.9,72.5-67.4,95.4-78.4c9.2-4.4,19.1-9,29.3-7.8c20.2,2.4,30.7,24.8,47.5,36.3c20.2,13.8,47,10.4,71.2,13.8
						c4.1,0.6,8.3,1.5,11.3,4.4c5.2,5.2,3.6,13.8,1.7,20.9c-12.1,44-24.7,89.3-49.5,128.1c-8.6,13.4-22.3,37-38.8,41.7
						c-2.3,0.7-4.8,1-7.2,1C343.7,1131.3,329.1,1110.7,317.5,1098.6z M1171.6,1085.9c-2-2.6-2.7-5.9-3.2-9.2
						c-1.6-10.8-0.9-21.7-0.3-32.6c0.9-14.4-4.4-97.3,13.4-103.6c13.6-4.8,48.4,44.6,55.5,53.1c19.2,22.7,65.9,88.1,4.6,95.2
						c-7.9,0.9-26.7,3.5-43,3.5C1186.3,1092.1,1175.3,1090.7,1171.6,1085.9L1171.6,1085.9z M-76.7,1084.1
						c-33.5-2.4-61.4-31.2-69.3-63.9c-6-24.7-4.4-66.2,13.5-86.6c15.2-17.5,47.7-12.7,67.7-7.8c17.8,4.4,35.1,14.7,43.5,31
						c7.6,14.6,7.2,31.8,6.7,48.2c-0.3,10.7-0.7,21.4-1,32.2c-0.2,5.9-0.4,11.9-2.6,17.4c-2.3,5.7-6.6,10.5-11.3,14.4
						c-12,9.9-27.1,15.3-42.6,15.3C-73.6,1084.3-75.1,1084.2-76.7,1084.1L-76.7,1084.1z M830.3,1065.2
						c-54.4-14.5-19.6-69.3-2.7-99.5c2.2-3.9,4.6-7.9,7.9-10.9c4.5-4,10.5-5.9,16.3-7.7c13.4-4.1,26.9-8.2,40.9-8.5
						c2.1,0,4.3,0.1,6,1.2c1.8,1.2,2.7,3.4,3.4,5.5c10,27.6,12.8,57.3,8.2,86.3c-1,6-2.4,12.2-6.2,16.9c-4.4,5.4-11.2,8-17.7,10.2
						c-13,4.5-26.8,8.4-40.4,8.4C840.8,1067.2,835.5,1066.5,830.3,1065.2z M1424.3,1034.5c-13.1-3-26.5-7.1-36.5-16.1
						c-9.7-8.7-15.1-21.2-18-33.9c-5.9-25.8-2.2-52.8,3.8-78.5c3.7-16,8.6-32.3,19.1-44.9c12.7-15.3,32.5-23.5,52.3-26.2
						c38.8-5.2,82.7-4.9,89.7,41.3c1.1,7.3,2.2,14.7,3.3,22c3.4,22.6,6.9,45.6,4,68.3s-12.7,45.6-31.3,59
						c-14,10.1-30.9,13.8-48.4,13.8C1449.6,1039.2,1436.8,1037.6,1424.3,1034.5L1424.3,1034.5z M947.4,1014.7
						c-18.6-29.1-28.8-96.1,5.6-118.6c8.5-5.4,19.1-6.2,28.2-2.2c8.7,3.9,15.4,12,24.6,14.1c12.3,2.8,24.8-6.4,29.8-17.9
						c7.5-17.3,0.1-32,10.6-47.7c7.7-11.6,22.1-22.2,33.9-29.3c22.6-13.6,48.7-16,53.1,16.1c7.4,53.6,29.2,141.4-28.7,171.6
						c-28.2,14.7-57.9,26.4-88.6,34.8c-7,1.9-14.2,2.9-21.5,3C976,1038.7,958.3,1031.7,947.4,1014.7z M111.3,1033.7
						c-28.7-6-56.3-16.4-81.9-30.9c-6.9-3.9-14.1-8.6-17.1-16.1c-3.5-9,0.2-19,3.9-27.9c10.1-24.2,20.5-48.3,31-72.3
						c6.1-13.9,14-46.9,32.9-49.4c26-3.5,51.7,89.8,60.4,111.1c3.9,9.5,7.8,19.3,8.3,29.5c0.7,16.1-7.1,31.3-14.7,45.5
						c-2,3.8-4.2,7.7-8,9.8c-2.1,1.1-4.5,1.7-6.9,1.6C116.6,1034.6,113.9,1034.3,111.3,1033.7z M563.8,990.7
						c-6.8-1.7-13.7-4.6-18.2-10.1c-7.5-9.2-6.1-22.5-4-34.2c4.7-26.2,8.5-59.4,20.4-83.5c11.4-23.1,35.5-21,59.5-18.6
						c23,2.4,45.7,6.7,68,12.9c24.3,6.7,49.1,16.1,66.3,34.6s24.1,48.6,9.9,69.5c-11.1,16.3-32,23.3-51.7,24.5
						c-10.2,0.6-20.4,0.1-30.6-0.5c-9.5-0.7-19.1-0.9-28.7-0.6c-23.3,1.2-46.7,8.2-69.6,8.2C577.9,993.2,570.7,992.4,563.8,990.7
						L563.8,990.7z M1243,945.1c-6-4.2-11.3-9.4-16.3-14.7c-20.6-21.8-54-54.3-56.3-85.9c-0.7-10.3,3.1-21.6,11.9-26.9
						c8.2-4.9,18.6-3.7,28.1-2.3c19.2,2.8,38.9,8.8,57.8,11.1c4.9,0.6,9.9,0.8,14.9,0.7c34.2-0.4,81.7-31.7,74.8,23.1
						c-4.9,38.7-23.6,92.9-66.3,103.6c-1.2,0.3-2.4,0.6-3.5,0.8c-3.5,0.7-7.2,1-10.8,1C1265,955.6,1253.1,951.9,1243,945.1
						L1243,945.1z M832.6,912.2c-14.1-3.2-25.8-12.6-36.9-22c-8.9-7.5-17.7-15.2-26.3-23c-4.3-3.8-8.6-7.9-10.7-13.2
						c-2.3-5.9-1.5-12.4-0.6-18.7c5.2-36.3,8-92.8,39.9-117.7c16-12.5,38.9-8,58.5-2.6c23.2,6.4,47.4,14,64.4,31.2
						c28.2,28.4,13.6,70.9-1.7,102.2c-8.5,17.4-18.3,34.7-32.9,47.6c-11.8,10.4-27.3,17.5-42.8,17.5
						C839.8,913.4,836.2,913,832.6,912.2z M405.5,895.7c-19.3-13.5-32.9-37.1-38.2-61.6c-4.3-19.9-3.2-40.5,4.8-57
						c14.4-30.1,38.6-56,70.7-66.8c55.4-18.6,86.3,50.2,91.4,93c3.1,26.3,5.7,75-16.8,94.9C508,906.5,489.6,910,470,910
						C444.8,910,417.6,904.2,405.5,895.7L405.5,895.7z M-62.3,899.1c-25.8-2.1-53.3-8-71-26.9c-15.6-16.7-20.8-41-18.5-63.7
						c6.3-62.3,45.7-74.8,98.4-96.4c9.6-4,19.7-7.8,30-7.3c19,0.8,34.3,15.5,52.3,21.7c8,2.8,17,4.2,23.3,9.9
						c9.7,8.8,9.3,23.9,7.1,36.8C54,803.6,43,832.9,26.8,859.2c-6.4,10.4-13.7,20.4-23.6,27.5c-14.1,10.1-31.8,13-49.4,13
						C-51.6,899.8-57,899.5-62.3,899.1z M137.9,846c-14.5-30.1-14-65.3,3.3-91c9.2-13.7,24.8-24.2,26.9-41c1-8.2-1.4-16.7-1.4-25
						c0-26,22.5-43.7,41.4-60.3s36.8-41.4,25.9-66.2c-3.1-7.1-8.5-13.6-9.9-21.1c-2.7-14.9,11.1-25.9,24.8-31.4
						c25-10.1,54.8-14,81.5-10.2c31,4.5,42.6,27.1,55.9,53.6c16.2,32.2,31.9,65.5,36.1,100c1.5,12.5,1.4,25.6-4.2,36.3
						s-17.7,18.5-30.5,16.1c-11.4-2.1-20.6-11.1-30.8-17.1s-25.5-7.8-30.4,1.8c-2.2,4.3-1.5,9.7-0.3,14.8
						c4.8,20.4,20.3,47.2,9.3,68.3c-8.4,16.2-30.1,30.7-46.6,44.9c-4.1,3.5-8,7.2-11.6,11.2c-15.4,17.4-26.4,40.8-43.1,56.7
						c-7,6.8-16.4,10.6-26.1,10.5C180,896.9,149,869.1,137.9,846L137.9,846z M1002.6,842.1c-10.3-0.4-16.3-11.7-19.4-21.6
						c-5.8-18.7-8.6-38.3-14.6-56.9s-15.6-37-31.6-48c-9.1-6.3-20.1-10.1-28-17.9c-2.6-2.6-4.9-6.4-3.4-9.8c0.9-1.7,2.3-3.1,4-4.1
						c17.3-11.7,43.4-24.9,58-5.9c11.9,15.5,6.6,39,25.4,50.8c10.1,6.3,22.8,5.5,34.7,6.6c9.3,0.9,27.1,3.6,32.5,12
						c12,18.6-28.8,78.3-43.8,89.4c-3.9,2.9-8.5,5.4-13.3,5.4C1003,842.1,1002.8,842.1,1002.6,842.1L1002.6,842.1z M591.9,818.6
						c-5.7-0.8-11.7-1.8-16.4-5.2c-20.2-14.4,1.9-35.4-4.4-52.5c-6.3-17.2-37.7-23-26.8-46.6c7.9-17.1,36.9-10.7,51.5-9.9
						c8.8,0.4,19.1,0.3,30.2,0.1c54.4-0.7,126.5-1.5,118.7,67.9c-2,18.1-8.4,35.9-26.6,43.2c-16.8,6.7-36.9,9-57.5,9
						C636.7,824.6,612.2,821.5,591.9,818.6z M1407.7,798.4c-14.3-0.7-28.6-2.3-42.8-4.1c-17.2-2.1-28-6.4-45.3-3.4
						c-15.1,2.6-31,6.2-45.8,0.1c-15.3-6.3-25.1-21.5-32-36.6c-4.5-9.8-8.2-20-11.2-30.4c-2.4-8.7-4-18.9,1.6-25.9
						c4-5.1,10.6-7.1,16.9-8.8c8.7-2.4,17.3-4.8,26-7.2c49.2-13.3,96.8-27,145.7-41.1c7.1-2,14.4-4,21.8-3.4
						c11.8,0.9,22.5,8.4,29.2,18.2s9.7,21.7,10.7,33.6c3.4,39.7-24.4,109-72.3,109C1409.4,798.5,1408.6,798.5,1407.7,798.4z
						 M1129.2,747.9c-23.9-31.4-41.9-39.6-81.7-46.3c-8.8-1.5-18-3.3-25.5-8.3s-13.2-14.1-11.5-22.6c1.8-8.8,10.4-14.3,18.9-17.4
						c32.2-11.9,61.2-13.8,91.1-27.2c4.8-2.1,9.5-4.5,14-7.2c22.9-13.2,47.2-25.4,67.5,3.5c23,32.9,0.7,103.6-20.4,131.6
						c-9.1,12.1-16.6,17.2-23.6,17.2C1148.4,771.2,1139.8,761.8,1129.2,747.9L1129.2,747.9z M86.5,719.4
						c-30.4-11.6-55.5-38-68.7-67.4C9,632.1,1,573.7,37.9,572.7c7.6-0.2,14.3,4.6,19.9,9.8s10.8,11.1,17.9,13.8
						c17.6,6.9,28-19.7,39.3-29.3c24.6-20.7,55.3-3.3,55.2,28.2c0,11.8-4.6,22.5-10.7,32.9c-10.1,17.2-24.3,33.5-28.4,52.2
						c-4.9,22.6-9.9,42.5-28.9,42.5C97.8,722.7,92.6,721.7,86.5,719.4z M713.7,692c-5.7-3.9-4.3-11.9-2-17.7
						c6.2-15.5,14.3-30.2,24.1-43.6c3.6-5,7.6-9.9,9-16s-0.5-13.6-6.2-17.3c-6.8-4.4-15.9-1.3-20.5,4.4s-6,13.3-8,20.3
						c-7.5,26.1-29.3,49.8-58.2,49.1c-7.9-0.2-17.1-3.1-20.8-10.1c-2.7-5.3-1.5-11.2-0.2-16.6c12.9-54.8,37-150,119.2-135.5
						c32.2,5.7,45.8,42.3,74.5,44.5c4.4,0.3,9.7-1.8,15.3-3.9c10.1-3.8,21.1-7.7,28.5,3.2c9.4,13.7-20.3,35.3-26.7,45.1
						c-7.1,10.9-10.8,25.2-4.7,37.7c3.3,6.6,8.9,12.1,13,18.4s6.3,14.6,2.2,20.1c-3.9,5.3-11.8,5.9-18.8,5.9c-5.3,0.1-10.7,0-16,0
						c-30.3,0-61-0.1-87.7,11c-3.2,1.3-6.9,2.8-10.4,2.8C717.3,693.7,715.4,693.2,713.7,692z M483.2,677.6
						c-9.4-6.1-15-16.4-20.1-26.5c-14.8-29.3-28.9-59.8-39-91.1c-9.7-29.9,10.1-46.9,37-57.8c17.5-7.1,35.3-13.5,53.4-19.2
						c23.5-7.4,58.6-9.8,81.6,1.3c6.5,3.2,12.5,7.8,16.1,14.1c3.7,6.6,4.4,14.4,4.7,22c1.8,39.3-1.2,85.1-16.3,122
						c-12.1,29.4-42.6,32.4-71.3,38.6c-7.3,1.7-14.7,2.6-22.2,2.8C498.5,683.8,490.3,682.2,483.2,677.6z M-112.3,677.3
						c-8.2-5.8-11.9-16.1-14.1-26c-2.7-12.4-3.5-25.6,0.8-37.6c9.5-26.6,46.7-32.4,71.3-32.4c6.3,0,12.8,0.6,18.3,3.8
						c8.3,4.9,12.1,14.6,15,23.8c3.6,11.2,6.7,22.6,9.4,34.1c0.9,3.7,1.7,7.6,1,11.4c-0.9,4.6-3.8,8.5-7.2,11.7
						c-16.8,15.8-42.2,16.9-65.2,17.2c-1,0-2,0-3,0C-95.3,683.2-104.9,682.6-112.3,677.3L-112.3,677.3z M1238.3,636
						c-0.5-8,2.2-16.7-2-23.5c-12.4-19.7-38.1-15-8.9-39.7c20.3-17.1,48.3-28.8,71.2-42.1c5.1-3,10.4-6,14.3-10.5
						c7.8-8.9,8.9-21.8,8.8-33.6c-0.3-59.8,47.1-62.1,96.4-68.5c13.2-1.7,28.3-2.3,38.2,6.7c9,8.1,10.8,22.2,6.9,33.7
						s-12.6,20.8-21.9,28.5c-12.6,10.4-26.7,18.8-41.9,24.8c-12.8,5-29.2,12.4-27.9,26.1c1.2,12.3,16.4,18.2,21,29.6
						c2.6,6.5,1.4,14-1.4,20.4c-10,23.1-36.5,33.4-60.4,41.5l-50.5,17c-5.7,1.9-14.7,4.4-23,4.4C1247.6,650.9,1239,647.5,1238.3,636
						L1238.3,636z M885.4,641.2c-3.8-2.8-5.8-7.5-6.7-12.2c-3.6-17.5,4.8-35.7,17.3-48.3c16-16.1,57.4-49.6,77.4-26.3
						c5,5.8,9.9,11.6,14.9,17.4c7.5,8.8,15.5,19.3,13.3,30.6c-2.1,11.1-13.3,18-23.6,22.6c-24,10.7-49.8,17.2-76,19.1
						c-1.5,0.1-3.1,0.2-4.6,0.2C893.1,644.3,888.8,643.7,885.4,641.2L885.4,641.2z M1041.3,598c-4.4-11.1,3.2-24.1-2.6-34.6
						c-6.5-11.7-26-13.1-31.9-25.1c-4.2-8.5,0.6-18.1,5.6-26c27.4-42.8,65.8-79.2,111.2-105.5c14.4-8.3,33.5-15.5,47.8-6.2
						c19.7,12.8,11.7,44.6,29.7,59.5c17.5,14.5,46.6,2.9,66.5,14.2c4.1,2.3,7.9,6.1,8,10.5s-3.3,8.1-6.6,11.2
						c-17.3,15.9-37.9,28.3-58.7,40c-17.6,9.8-112.7,70.6-152.6,70.6C1049.5,606.6,1043.7,604,1041.3,598L1041.3,598z M1453.4,581.8
						c-6.8-1.3-13.8-3.3-18.5-8.3c-6.2-6.8-6.3-17.6-2.4-26s10.9-14.8,18-20.7c12.9-10.7,55.6-49.9,73.4-45.1
						c19.8,5.4,21.6,52.8,20.4,68.6c-0.6,7.8-2.2,15.9-7.5,21.6c-5,5.3-12.3,7.6-19.5,9.1C1496.4,585.6,1474.6,585.9,1453.4,581.8
						L1453.4,581.8z M-120.8,520c-4.4-4.6-9-9.4-10.7-15.5c-2.1-7.3,0.2-15,2.5-22.2c22-69,36.9-140.1,84-196.5
						c6.6-7.9,16.9-14.3,26.9-11.7c5.2,1.4,9.6,5,13.3,8.9c10.7,11,18.4,24.6,28.9,35.8c0.6,0.7,1.3,1.3,1.9,2
						c10.3,10.3,24.3,18.1,38.5,15.9c6.4-1,12.4-4,18.8-5.1s14,0.3,17.4,5.8c2,3.2,2.1,7.3,1.9,11.1c-1.1,19.9-9.4,40.7-1.8,59.2
						c9.7,23.7,34.8,37.2,43.9,61.6c9.8,26.3-9.8,48.8-29.5,65.4c-6.7,5.7-14.4,10.8-23.1,11.8c-18.1,2.1-25.4-16.3-32.6-34.6
						c-7.9-20.1-15.6-40.3-37.2-33.4c-4.1,1.3-7.3,4.3-10.2,7.5c-22.9,25-22.2,64.4-62.5,71c-2.4,0.4-4.9,0.6-7.3,0.6
						C-82,557.5-103.4,538.1-120.8,520z M947.7,517.3c-12.4,0-22.2-4.8-23.1-18.3c-0.9-12,6-26.5,10.9-37.3c1.7-3.7,3.4-7.5,5-11.2
						c13.5-31.4,23.9-64.1,33.7-96.8c9.4-31.1,16.9-64.3,42.6-86.6c13.9-12,33.5-11.6,50.6-9.3c11.3,1.5,22.5,1.3,33.7,1.1
						c8.6-0.1,17.3-0.3,26,0.3c5.7,0.4,11.7,1.2,16.3,4.5c12.5,9.1,22.1,40.3,9.1,52c-10.9,9.8-28.4,8.7-41.4,14.1
						c-0.9,0.4-1.8,0.8-2.6,1.2c-12.8,5.9-20.1,13.9-28.3,26.2c-18.2,27.4-37,53-56.9,79c-10.5,13.8-21.4,27.2-32.8,40.4
						C982.4,485.9,961.5,517.3,947.7,517.3L947.7,517.3z M801.7,505.9c-10.8-1.9-23.3-6-26.7-16.4c-1.7-5.1-0.7-10.7,0.4-16
						c9-46,19.4-91.7,31.4-137c8-30.4,27.3-39.1,57.1-42.3c19.1-2.1,46.6-3.5,59.9,13.8c14.3,18.7,2.8,51.1-1.6,71.6
						c-6,27.9-13.9,55.3-23.6,82.1c-3,8.3-6.3,16.6-11.6,23.7c-13.1,17.3-35,23.1-57.4,23.1C820.1,508.5,810.8,507.6,801.7,505.9z
						 M641,491.2c-4.3-2.9-7-7.7-9.2-12.4c-18.4-38.2-31.8-121.1,33.7-119.7c17.9,0.4,34.6,9,49,19.5c15.3,11.1,30.1,27.8,26.9,46.4
						c-2.6,15.4-16.6,25.8-29.4,34.7c-11.5,7.9-23.1,15.9-34.6,23.8c-7.7,5.3-17.3,10.7-26.2,10.7C647.6,494.3,644,493.3,641,491.2z
						 M396.1,493.9c-10.8-0.7-21.5-2.2-32.1-4.6c-8.8-2-18.5-5.4-22.1-13.7c-2.6-5.9-1.2-12.7,0.2-19c2-8.8,4-17.5,6-26.3
						c12.3-52.8,26.2-105.1,39.9-157.6c0.8-3.1,1.8-6.2,3.1-9.1c6.7-15.1,20.1-19.8,34.1-10.9c9.1,5.8,17.4,13.1,25.5,20.3
						c17,15.2,33.6,30.8,50.3,46.3c3.2,3.1,6.1,6.5,8.9,10c10.3,12.3,11.6,25.6,3.4,39.2c-7.4,12.3-15.6,24.1-23.9,35.8
						c-10,14.1-18.9,21.6-24.4,38.3c-4.8,14.5-9.2,30.2-21.5,40.4c-10.6,8.7-24.7,11.2-38.7,11.2C401.9,494.2,399,494.1,396.1,493.9
						L396.1,493.9z M204.1,470c-20.8-7.1-33.7-26.8-42.4-46.3c-10.3-23.3-27.9-65.3-16.2-90.2c9.6-20.5,40.2-39.5,56.2-56.6
						c31.1-33.3,98.9-37.1,130.2,2.5c6.1,7.7,6.8,18,7.2,27.6c0.8,18.3,1.3,36.7-1.8,54.7c-7.4,42.5-36.7,80.9-76.5,100.7
						c-12.1,6-25.7,10.4-39.1,10.4C215.6,472.8,209.7,471.9,204.1,470z M517.5,450.5c-2.7-0.3-5.5-0.7-7.7-2.4
						c-5-3.9-3.3-11.7-0.9-17.5c7.2-17.4,26.5-58.4,46.9-63.6c29.4-7.5,32.4,40.5,32.3,60.3c0,7-1.2,15-7,18.8
						c-2.5,1.6-5.5,2.2-8.5,2.8C554.4,452,535.8,452.5,517.5,450.5L517.5,450.5z M1260.6,442.5c-11.8-1.9-21.8-7.5-28.8-16.9
						c-12.8-17.2-30.4-37.1-39.9-58.3c-3.4-7.3-5.6-15.2-6.4-23.2c-2-22.5,10.7-38.6,33.1-41.6c13.5-1.8,27.1-2.8,40.7-3
						c19.7-0.4,28.5,6.7,33,25.9c7.5,31.8,8.3,63.7,1,95.6c-3.3,14.3-12.9,22-26.3,22C1264.8,443,1262.7,442.8,1260.6,442.5
						L1260.6,442.5z M1516.7,409.1c-7.5-1.8-14.1-6.1-20.4-10.5c-11.3-8-22.8-17.7-25.7-31.2c-1.8-8.3-0.1-17,1.7-25.4
						c2.6-12.3,5.2-24.6,7.7-36.9c2.1-10.2,4.4-20.8,10.4-29.4c21.2-30.3,58.9-11.1,72.8,15.5c8.2,15.7,10,34,9.3,51.6
						c-0.7,16.5-3.7,33.6-13.1,47.2c-8,11.5-21.5,19.9-35.2,19.9C1521.6,410,1519.2,409.7,1516.7,409.1z M1340.7,389
						c-10.7-6.2-13.8-17.4-15.2-28.9c-1.6-12.8,1.6-25.1,5.2-37.2c4.7-15.4,9.6-30.8,14.4-46.2c1.8-5.8,11.1-12.6,18.4-12.1
						c22.1,1.7,77.5-0.6,82.8,30.5c2.1,12.4-0.3,24.3-4.7,35.7c-9.3,24.1-23.5,44.5-45.7,58.6c-2.4,1.5-5.1,2.7-8.8,4.7
						c-5.9,1.5-11.9,2.2-18,2.3C1359.1,396.5,1349.3,394,1340.7,389z M722.7,348.7c-25.1-21.7-77.2-49.8-67.1-89.1
						c9.7-38,40.1-68.6,79.7-60.6c21.3,4.3,44.8,11.5,54.9,30.8c5.9,11.2,5.9,24.5,4.6,37.1c-3.3,29.9-14,58.5-31,83.3
						c-2.4,3.5-5,6.9-8.7,9c-2.4,1.3-5,2-7.7,2C738.7,361.1,729.7,354.8,722.7,348.7z M588.2,342.2c-14-1-26.3-8.9-37.9-16.7
						c-41.1-27.7-47.7-84.7-55.2-130c-0.7-4.5-1.5-9.2-0.5-13.7c0.8-3.8,3.4-7.3,6.7-10.1c3.9-3.3,8.6-5.5,13.6-6.4
						c32.3-4.8,56.1-4.1,87.6,7.4c27.9,10.2,41.5,28.3,29.4,55.2c-7.9,17.6-15.1,36-17,55.3c-1.8,18.8,8,40.2-9.2,54.4
						c-4.1,3.4-9.6,4.7-15,4.7C589.8,342.3,589,342.3,588.2,342.2L588.2,342.2z M59.2,286.7c-9.7-6.6-15.4-17.6-20.1-28.4
						c-6.7-15.3-15.2-36.5-6-52.4c8.1-14,25.9-21.3,39.6-28.4c10.9-5.6,22.4-10,34.9-10.8c17.3-1.1,33,15.3,44.9,25.6
						c11.6,10,30.3,21.5,28.5,38.8c-3.7,35.8-51.5,55.8-81,61c-5,0.9-10,1.4-15,1.4C75.8,293.7,66.7,291.8,59.2,286.7L59.2,286.7z
						 M1219.8,266.5c-12.7-2.8-20.7-10.9-25.3-22.8c-5.2-13.4-10.6-26.7-8.7-41.6c3.7-28.4,15.7-51.7,42.2-64.8
						c7.1-3.5,16.3-4.2,24.5-4.2c12.8,0,20.6,8.3,26.3,19.3c2.2,7.8,5.2,15.6,6.4,23.5c2.8,18.1,4.9,36.2,7.1,54.4
						c0.2,3.2,0.1,6.4-0.2,9.6c-0.8,11.3-6.1,19.3-17.2,22.5c-12.2,3.5-24.5,6.1-37,6.1C1231.6,268.4,1225.6,267.8,1219.8,266.5
						L1219.8,266.5z M854.9,254.9c-11.8-4.3-23.4-10.7-30.3-21.1c-5.2-7.9-7.4-17.5-7.7-26.9c-0.8-23.5,9-45.9,19-67.2
						c6.7-14.1,14.2-29,27.7-36.9c9.3-5.5,20.4-7,31.3-7.5c28.4-1.5,64.2,2,92.3,16.1c19.8,9.9,35.8,25.1,42.6,47.5
						c4.3,14.2,5.7,28.6,3.2,43.3c-2.8,16.3-12.1,27.7-27.8,32.9C969.3,246.8,933.1,262,896,262C882,262.1,868.1,259.7,854.9,254.9
						L854.9,254.9z M1423.2,235.8c-21.4-1.8-42.9-3.6-64.4-4.7c-24.4-1.2-36.2-10.2-42-34c-9.4-38.4-5.4-74.2,21.1-105.5
						c13.7-16.2,30.6-28.8,48.6-39.8c3.6-2.2,7.4-4.1,10.8-6.5c21.9-14.8,46.7-8.7,71-3.9c16.4,3.2,29.7,8.1,39.1,17.2
						c7.7,7.5,12.8,17.8,14.7,32.4c3.3,26.2,6.3,52.8,1.5,78.8c-4.2,22.9-15.3,45.6-34.1,60c-9.7,7.4-19.6,9.6-30,9.6
						C1448.2,239.5,1436.2,236.9,1423.2,235.8z M255.9,225c-31.4-5.6-57.1-23.5-79.1-45.5c-8.8-8.9-17.2-18.4-25-28.2
						c-18-22.3-25.9-48.1-18.9-76.4c2.6-10.6,9-21,15.7-29.9c9.9-13.2,21.7-25,32.6-37.5c2.7-3.1,5.7-3.8,9.3-2.4
						c9.2,3.6,18.7,6.5,27.4,11.1c30.5,16,60.6,32.5,90.8,49c3.2,1.8,6.3,3.9,9.2,6.2c13.2,10.6,17.6,23,11.9,38.9
						C319,140.1,302.3,168,294,198.3c-2.5,9.1-5.6,19.1-13.5,24.2c-4.2,2.7-9.1,3.6-14.1,3.6C262.9,226,259.4,225.7,255.9,225z
						 M1075.8,212c-5.7-9.3-8.5-19.4-7.6-30.3c3.3-41.7,6.6-83.4,10.3-125c0.9-8.9,2.7-17.6,5.4-26.1c4.7-15.4,14.4-21.2,29.7-16.7
						c11.7,3.4,27.3,8.2,40.8,15.5c19.3,10.3,34.7,25.4,29.6,48.3c-6.9,30.9-14.1,61.8-22.4,92.4c-4.7,17-15,31.2-29,42.5
						c-10.4,8.4-22.3,11.7-35.4,11.8h-0.2C1087.6,224.3,1080.7,220.1,1075.8,212L1075.8,212z M348,156c4.5-18.3,5.8-40.8,15.2-57.5
						c25.4-45.1,95.7-41.8,89.8,18.9c-2.5,26-5.2,52.1-8.1,78.1c-0.5,4.1-1.4,8.9-5.2,10.6c-1.9,0.7-3.9,0.7-5.8,0.2
						c-13.3-3.1-21.9-18.7-35.5-19.2c-10.3-0.4-18.5,7.9-26.7,14.2c-7.5,5.7-13.2,8-17.3,8C337.6,209.2,344.3,171.1,348,156L348,156
						z M-4,163.5c-7.4-6.4-13.6-14.2-20.3-21.4c-4.2-4.5-8.1-9.4-12.4-13.8c-4-4.1-8.6-7.5-12.6-11.5c-15-14.9-15.1-27.6-0.3-43.1
						c15.4-16.2,37.7-25.4,65.3-25.3c17,0.7,35.6,6.6,50.2,22.4c8.1,8.7,16.9,16.8,24.3,26.1c5.2,6.6,9.5,13.9,12.6,21.6
						c4.9,11.2,0.5,24.4-10.1,30.5c-7.1,4.3-15.2,7-23,10c-9.2,3.6-18.7,6.5-27.9,10.2c-6.3,2.7-13.2,4.2-20.1,4.4
						C12.6,173.5,4,170.5-4,163.5L-4,163.5z M755.7,162.7c-9.5-0.8-18.2-7.3-27.3-13.4c-18-12-36-23.9-54.2-35.7
						c-12-7.7-20.1-17-23.9-31.3C640.6,46.1,629.7,10.1,619-26c-2.3-7.9-1.9-15.5-0.7-23.4c4.6-32,20.7-55,51.6-66.8
						c24-9.1,48.6-17.5,72.2-27.8c18.2-7.9,35.6-7.2,50.3,8.6c12.5,13.4,17.8,31.7,22.8,49.3c7.8,27.7,15.6,55.3,23.4,83
						c6.3,22.2,12.6,45.8,6.4,68.1c-7.9,28.7-34.1,47.9-52.8,71.1c-6.1,7.6-11.7,15.9-19.7,21.5c-5.2,3.7-10.2,5.2-14.9,5.2
						C757,162.8,756.3,162.8,755.7,162.7L755.7,162.7z M487.1,106.6c4.1-46.3,66.6-63.5,103.2-56c2.4,0.4,4.7,1.2,6.8,2.3
						c3.1,1.9,5.1,5.2,6.9,8.4c8.9,15.6,18,31.9,19.1,49.9c0.2,3.6,0,7.5-2.4,10.2c-2.7,3.1-7.3,3.5-11.4,3.7
						c-13.1,0.6-46,6.6-74.4,6.6C508,131.8,485.3,126.5,487.1,106.6z M1001.7,88.4c-28-12.5-59.3-17.8-87.5-31
						c-3.1-1.5-6.5-3.2-8.1-6.2c-2.3-4.2-0.5-9.4,1.3-13.8c9-21.4,21.9-43,42.9-53c8.8-4.2,18.4-6.1,28.1-7.2
						c7.1-0.9,14.5-1.3,21.4,0.7c6.1,1.8,11.5,5.5,16.6,9.4c16.3,12.5,28.3,27.3,34.6,43.8c6.9,17.8,7.2,37.6-0.4,58.9
						c-3.4,9.4-8.8,12.7-15,12.7C1024.7,102.7,1011.2,92.7,1001.7,88.4z M563.1-21.9c-26.3-6.9-52.6-13.7-78.9-20.9
						c-4-1.2-7.6-3.4-10.6-6.3c-10.6-10.4-4.9-19.9,6.9-24.2c15.3-5.5,31.1-10,46.8-14.5c17.3-5,34.9-9.4,52.2-14.3
						c7.1-2,13.2,0.8,19.1,3.7c1.5,0.7,2.2,3.2,3.7,5.7c-3.3,16.7-6,33.5-10,50c-3,12.5-15,16.2-25,21.3c-0.3,0.1-0.6,0.2-0.9,0.2
						C565.3-21.2,564.2-21.5,563.1-21.9L563.1-21.9z M858.1-65.4c-6.5-18.7-19.1-41-18.7-61.3c1.2-52.2,88.1-45.6,120.3-32
						c6.1,2.6,12.1,5.7,16.8,10.4c10.5,10.4,13,27,9.2,41.3s-13.1,26.5-23.4,37c-14.6,14.8-31.6,27-50.3,36
						c-8.3,4-15.2,5.8-21.1,5.8C873.6-28.2,865.5-43.9,858.1-65.4L858.1-65.4z"/>
				</g>
			</g>
		</g>
	</g>
</g>
</svg>
