<svg id="pattern_01" data-name="pattern/01" xmlns="http://www.w3.org/2000/svg" xmlns:xlink="http://www.w3.org/1999/xlink" width="1440" height="810" viewBox="0 0 1440 810">
  <defs>
    <clipPath id="clip-path">
      <rect id="Mask" width="1440" height="810" fill="#303d78"/>
    </clipPath>
  </defs>
  <g id="Group_16" data-name="Group 16">
    <rect id="Mask-2" data-name="Mask" width="1440" height="810" fill="#ff4133"/>
    <g id="Mask_Group_22" data-name="Mask Group 22" clip-path="url(#clip-path)">
      <path id="Fill_1" data-name="Fill 1" d="M832.54,1506.629a85.058,85.058,0,0,1-14.152-.9,18.123,18.123,0,0,1-4.688-1.365,3.811,3.811,0,0,1-2.209-2.183c-.317-1.123.242-2.481,1.663-4.037a36.842,36.842,0,0,1,7.648-5.8,82.689,82.689,0,0,1,16.294-3.446,141.819,141.819,0,0,1,16.374-.815c4.1,0,8.224.107,12.207.211h.023l.071,0h.049c3.941.1,8.017.208,11.979.208a135.728,135.728,0,0,0,14.28-.645,75.343,75.343,0,0,0,13.844-2.674c1.2.272,2.316.472,3.394.665,3.032.544,5.426.974,6.432,2.533.638.989.7,2.365.207,4.332,1.216,2.048,1.381,3.881.489,5.448-.881,1.548-2.814,2.875-5.747,3.945a50.3,50.3,0,0,1-10.133,2.27,186.218,186.218,0,0,1-24.468,1.284c-3.592,0-6.81-.051-9.4-.092q-1.548-.025-2.757-.04c-.286-.01-.618-.016-.988-.016-2.183,0-5.7.185-9.781.4h-.014c-1.062.056-2.024.107-3.039.158C844.721,1506.347,838.407,1506.629,832.54,1506.629Zm-733.908-1.976a282.007,282.007,0,0,1-29.946-1.344,154.345,154.345,0,0,1-29.639-5.908c-1.168-1.482-1.465-2.844-.882-4.046.823-1.7,3.42-3.13,7.72-4.263a94.707,94.707,0,0,1,15.086-2.313c11.441-1.011,24.966-1.141,35.47-1.141q2.295,0,4.307.005h.207c1.239,0,2.443,0,3.544,0,2.6,0,4.167-.015,5.224-.05,3.614.361,7.365.544,11.151.544a134.508,134.508,0,0,0,17.21-1.155c5.254-.682,10.782-1.686,16.43-2.985,2.919,1.457,4.183,3.532,3.756,6.166a12.133,12.133,0,0,1-2.638,5.3,31.992,31.992,0,0,1-5.08,5.036c-3.746,3.019-8.052,5.368-10.471,5.712-1.2-.009-2.451-.014-3.705-.014-6.353,0-12.74.114-18.917.224h-.029l-.08,0C111.2,1504.539,104.847,1504.653,98.632,1504.653Zm1316.223-2.188h0c-9.757,0-24.181-3.315-38.13-6.519-10.93-2.511-21.251-4.883-28.936-5.6a55.688,55.688,0,0,1-9.666-1.39,33.433,33.433,0,0,1-7.263-2.581,15.229,15.229,0,0,1-4.583-3.348,5.757,5.757,0,0,1-1.625-3.689c-.031-2.161,1.553-4.144,4.583-5.734a27.1,27.1,0,0,1,6.034-2.172,58.687,58.687,0,0,1,8.74-1.385c.844.452,6.537,1.67,14.416,3.354l.026.006c23.471,5.019,67.16,14.36,68.171,21.534a5.837,5.837,0,0,1-1.362,4.653,8.269,8.269,0,0,1-4.093,2.208A25.457,25.457,0,0,1,1414.855,1502.464Zm-708.508-.952h0c-2.5,0-5.293-.229-8.833-.518l-.018,0-.026,0c-2.007-.164-4.281-.35-6.792-.515-6.733-.5-13.621-.71-20.282-.914h-.012c-8.5-.261-17.285-.531-25.711-1.4-4.534-.469-8.615-1.072-12.475-1.841a92.813,92.813,0,0,1-12.058-3.211,16.6,16.6,0,0,1-2.8-5.358,5.36,5.36,0,0,1,.258-3.852c.829-1.633,2.737-2.847,5.671-3.607a41.7,41.7,0,0,1,10.1-1c9.471,0,20.9,1.7,28.468,2.83l.05.007c1.921.286,3.579.533,4.862.7,1.432.4,6.823.443,13.648.5,8.174.063,18.346.142,27.068.837a80.787,80.787,0,0,1,11.462,1.582c3.322.777,5.464,1.772,6.367,2.957a2.288,2.288,0,0,1,.422,2.065c-4.014,4.5-6.956,7.082-9.84,8.645a16.353,16.353,0,0,1-4.487,1.651A24.153,24.153,0,0,1,706.347,1501.513Zm-402.284-7.274h0c-6.86,0-20.263-2.694-46.965-8.06-12.113-2.434-27.187-5.464-45.571-9.024a47,47,0,0,1-7.522-2.143,35.362,35.362,0,0,1-6.047-2.926c-3.506-2.17-5.414-4.474-5.233-6.322.25-2.552,4.361-3.957,11.573-3.957a108.016,108.016,0,0,1,15.767,1.429c11.971,2.861,24.942,4.838,37.485,6.75h.013c9.194,1.4,18.7,2.85,27.706,4.633a180.883,180.883,0,0,1,25.679,6.786c-.026,1.438,0,2.771.029,3.946v.008c.076,3.447.13,5.937-1.268,7.367C308.687,1493.772,306.946,1494.239,304.063,1494.239Zm719.7-17.48h0c-9.758,0-24.181-3.314-38.129-6.518-10.93-2.511-21.252-4.882-28.939-5.6a55.724,55.724,0,0,1-9.666-1.391,33.457,33.457,0,0,1-7.263-2.582,15.246,15.246,0,0,1-4.583-3.348,5.758,5.758,0,0,1-1.625-3.689c-.031-2.161,1.554-4.144,4.583-5.734a27.1,27.1,0,0,1,6.034-2.172,58.708,58.708,0,0,1,8.74-1.385c.845.452,6.539,1.67,14.421,3.356l.022,0c23.472,5.02,67.16,14.364,68.173,21.536a5.837,5.837,0,0,1-1.362,4.652,8.269,8.269,0,0,1-4.093,2.208A25.455,25.455,0,0,1,1023.767,1476.758Zm-593.294-6.39h-.008c-22.047,0-46-1.838-54.143-2.728,0-.038.008-.076.014-.114v-.005c0-.036.01-.073.013-.109-7.792-2.842-11.527-5.51-11.1-7.927.25-1.415,1.933-2.737,5-3.928a59.9,59.9,0,0,1,11.25-2.8,183.606,183.606,0,0,1,28.246-2.239c6.409,0,11.222.427,13.2,1.171,1.623.144,3.3.214,5.13.214,4.524,0,9.122-.439,13.57-.863l.085-.008c4.4-.42,8.959-.855,13.314-.855A44.011,44.011,0,0,1,466,1451.392a28.994,28.994,0,0,1,10.137,4.739,7.84,7.84,0,0,1,1.481,3.158,4.182,4.182,0,0,1-.383,2.683c-.8,1.57-2.677,2.941-5.582,4.076a51.428,51.428,0,0,1-10.7,2.579C453.3,1469.782,443.041,1470.368,430.473,1470.368Zm214.4-20.288h0c-2.505,0-5.306-.229-8.852-.52l-.078-.006c-1.992-.163-4.251-.347-6.74-.51-6.749-.5-13.628-.71-20.28-.914h-.011c-8.5-.261-17.287-.531-25.713-1.4-4.536-.47-8.617-1.072-12.477-1.842a92.876,92.876,0,0,1-12.06-3.211,16.6,16.6,0,0,1-2.8-5.358,5.362,5.362,0,0,1,.258-3.852c.829-1.633,2.737-2.846,5.671-3.607a41.716,41.716,0,0,1,10.1-1c9.468,0,20.9,1.7,28.462,2.829h.007c1.939.289,3.614.539,4.915.707,1.432.4,6.82.443,13.643.5,8.171.063,18.34.141,27.068.838a80.736,80.736,0,0,1,11.462,1.582c3.322.778,5.464,1.772,6.366,2.957a2.289,2.289,0,0,1,.421,2.067c-4.011,4.5-6.952,7.08-9.835,8.642a16.347,16.347,0,0,1-4.485,1.651A24.143,24.143,0,0,1,644.868,1450.08Zm585-2.335h0a45.952,45.952,0,0,1-8.87-.663c-2.277-.477-3.583-1.225-3.88-2.221l3.027-8.4c1.487-1.475,5.517-3.081,11.981-4.772,5.668-1.484,13.143-3,21.616-4.392,7.885-1.293,16.173-2.406,23.967-3.218,7.847-.817,14.428-1.249,19.032-1.249,1.042,0,1.98.023,2.788.068l.434-.073c8.144-1.366,17.376-2.914,23.817-2.914a19.422,19.422,0,0,1,5.233.56,3.376,3.376,0,0,1,2.529,1.927,3.275,3.275,0,0,1-.29,2.333,13.6,13.6,0,0,1-2.294,3.29,77.836,77.836,0,0,1-11.751,9.946c-.1-.007-.21-.01-.337-.01-2.416,0-10.652,1.187-21.079,2.689l-.012,0c-4.7.677-10.022,1.444-15.536,2.207C1265.038,1444.95,1243.275,1447.745,1229.867,1447.745Zm-133.973-17.914h0a60.951,60.951,0,0,1-10.27-.679c-2.846-.515-4.521-1.336-4.979-2.44-.4-.959.112-2.155,1.513-3.557a8.1,8.1,0,0,1-.483-3.44,5.619,5.619,0,0,1,1.029-2.724,10.089,10.089,0,0,1,4.537-3.215,31.932,31.932,0,0,1,7.043-1.794,117.828,117.828,0,0,1,16.942-.948c1.347,0,2.6.008,3.988.017h.231c1.282.008,2.343.015,3.355.015a54.7,54.7,0,0,0,5.705-.2c.112.005.245.008.394.008,1.4,0,4.291-.235,7.949-.533,1.642-.134,3.5-.285,5.494-.436,5.467-.416,13.631-.969,21.373-.969,7.414,0,13.319.51,17.55,1.514a18.213,18.213,0,0,1,5.822,2.285,5.53,5.53,0,0,1,2.636,3.651,7.573,7.573,0,0,1-1.2,3.122,9.024,9.024,0,0,1-2.4,2.367,20.813,20.813,0,0,1-7.628,2.9c-6.084,1.26-13.736,1.366-21.135,1.469h-.008a120.752,120.752,0,0,0-15.876.848,3.951,3.951,0,0,0-.533-.027c-1.444,0-5.024.334-9.556.758-1.943.182-4.36.408-6.832.626C1113.826,1429.041,1103.949,1429.831,1095.893,1429.831ZM802.881,1418.54h0a205.863,205.863,0,0,1-26.243-2.053c-9.833-1.319-19.889-3.152-29.082-5.3a152.7,152.7,0,0,1-23.763-7.263,35.88,35.88,0,0,1-7.337-3.965c-1.823-1.371-2.815-2.708-2.948-3.973-.342-3.249,4.867-6.044,15.483-8.307,8.042,1.5,16.176,2.743,24.042,3.947h.007c8.829,1.352,17.959,2.751,26.8,4.487a213.334,213.334,0,0,1,26.13,6.678,55.494,55.494,0,0,1,10.7,6.922c2.064,1.867,2.947,3.474,2.623,4.774C818.622,1417.138,812.951,1418.54,802.881,1418.54Zm597.706-3.872a18.024,18.024,0,0,1-9.049-2.367,11.829,11.829,0,0,1-3.075-2.539,7.123,7.123,0,0,1-1.577-3.071,5.773,5.773,0,0,1,1.122-4.736,14.929,14.929,0,0,1,6.107-4.445l5.447-.713c25.648-3.361,52.169-6.836,77.478-6.836,8.008,0,15.664.355,22.756,1.057a34.66,34.66,0,0,0,.1,4.576c.588,8.352.588,8.352-57.431,14.513l-.076.008c-10.681,1.134-22.787,2.42-37.337,4.014A18.634,18.634,0,0,1,1400.588,1414.668ZM123.06,1410.023a282.1,282.1,0,0,1-29.945-1.344,154.391,154.391,0,0,1-29.639-5.907c-1.168-1.482-1.465-2.844-.881-4.046.824-1.7,3.427-3.134,7.739-4.268a95.085,95.085,0,0,1,15.122-2.313c11.441-1.008,24.988-1.137,35.511-1.137,1.5,0,2.9,0,4.2,0h.491c1.137,0,2.212,0,3.2,0,1.866,0,3.954-.006,5.3-.051,3.619.362,7.375.545,11.166.545a134.434,134.434,0,0,0,17.205-1.154c5.251-.682,10.777-1.686,16.424-2.985,2.918,1.458,4.181,3.533,3.754,6.168a12.141,12.141,0,0,1-2.639,5.3,31.985,31.985,0,0,1-5.081,5.035c-3.746,3.018-8.053,5.366-10.472,5.711-1.206-.009-2.453-.014-3.707-.014-6.357,0-12.738.114-18.908.224h-.078C135.661,1409.909,129.3,1410.023,123.06,1410.023Zm172.127-2.7a22.535,22.535,0,0,1-5-.515,13.642,13.642,0,0,1-4.218-1.694,10.982,10.982,0,0,1-3.229-3.1,14.278,14.278,0,0,1-2.035-4.738,88.429,88.429,0,0,1,14.561-7.519,166.067,166.067,0,0,1,17.044-5.9c11.989-3.513,25.177-6.329,37.93-9.052,11.782-2.515,23.964-5.116,34.776-8.2a21.171,21.171,0,0,1,5.823,5.086,5.882,5.882,0,0,1,1.248,4.492,6.318,6.318,0,0,1-1.536,2.978,14.981,14.981,0,0,1-3.252,2.7,48.337,48.337,0,0,1-10.284,4.621c-8.081,2.764-18.068,4.943-26.093,6.693l-.013,0c-5.7,1.244-10.626,2.319-13.226,3.25-3.554.551-8.455,2.217-14.13,4.147l-.01,0c-4.469,1.52-9.534,3.243-14.418,4.543a55.506,55.506,0,0,1-13.938,2.21h0Zm607.051-24.479h0a18.027,18.027,0,0,1-9.051-2.368,11.841,11.841,0,0,1-3.076-2.54,7.127,7.127,0,0,1-1.578-3.073,5.773,5.773,0,0,1,1.121-4.736,14.924,14.924,0,0,1,6.1-4.445l5.539-.724h0c25.62-3.354,52.112-6.823,77.392-6.823,8.117,0,15.559.346,22.75,1.057a34.77,34.77,0,0,0,.1,4.572c.585,8.358.585,8.358-57.467,14.522-10.688,1.135-22.8,2.421-37.381,4.019A18.6,18.6,0,0,1,902.238,1382.843Zm-331.8-14.139h0c-8.83,0-20.374-2.282-30.559-4.294-5.447-1.077-10.591-2.093-14.992-2.714-7.313-1.677-14.986-2.761-22.406-3.81a243.8,243.8,0,0,1-24.32-4.276,89.852,89.852,0,0,1-11.494-3.618,63.422,63.422,0,0,1-10.718-5.4c-1.818-1.768-2.489-3.28-2-4.5,1.23-3.03,9.316-3.666,15.882-3.666a170.772,170.772,0,0,1,24.231,2.005c3.777.579,7.146,1.234,9.743,1.892,2.7.683,4.482,1.354,5.161,1.938,5.963.925,12,1.71,17.841,2.469h.007c10.036,1.3,20.413,2.653,30.308,4.719,5.32,1.111,10.106,2.339,14.631,3.756a111.178,111.178,0,0,1,14.122,5.447,10.016,10.016,0,0,1-.519,3.642,7.472,7.472,0,0,1-1.691,2.72,11.374,11.374,0,0,1-5.4,2.849A31.769,31.769,0,0,1,570.441,1368.7Zm632.269-12.246a41.761,41.761,0,0,1-10.712-1.9c-2.69-.315-5.315-.605-7.853-.887-9-1-17.5-1.938-25.9-3.588a116.673,116.673,0,0,1-25.377-7.845,43.441,43.441,0,0,1-11.885-3.428c-2.693-1.359-4.133-2.9-4.164-4.447a3.107,3.107,0,0,1,.749-1.99,8.265,8.265,0,0,1,2.362-1.915,33.959,33.959,0,0,1,9.768-3.285c18.6,1.036,36.582,4.737,53.972,8.316h0c10.452,2.151,21.26,4.376,31.943,5.954a56.635,56.635,0,0,1-2.277,6.911,18.425,18.425,0,0,1-2.663,4.656C1208.705,1355.393,1206.247,1356.458,1202.709,1356.458Zm117.907-25.031h0a42.843,42.843,0,0,1-9.556-.932,16.35,16.35,0,0,1-6.913-3.163c-1.009-.656-1.448-1.376-1.3-2.142,1.268-6.783,47.3-16.438,80.916-23.487,11.928-2.5,22.227-4.661,28.477-6.26a29.545,29.545,0,0,1,6.755,7.021,6.933,6.933,0,0,1,1.185,5.358c-.739,2.871-4.045,5.2-10.108,7.128a143.205,143.205,0,0,1-17.878,3.844h-.006c-4.482.771-8.715,1.5-11.792,2.356-2.489.021-8.179,1.358-15.383,3.05C1352.027,1327.251,1334.249,1331.427,1320.617,1331.427Zm-628.455-13.219h0c-22.049,0-46.009-1.839-54.157-2.73l0-.021v-.006c.009-.066.017-.129.023-.2-7.792-2.842-11.527-5.509-11.1-7.926.25-1.416,1.934-2.738,5-3.929a59.941,59.941,0,0,1,11.255-2.8,183.685,183.685,0,0,1,28.254-2.24c6.4,0,11.208.426,13.189,1.169,1.625.144,3.308.215,5.143.215,4.517,0,9.115-.437,13.562-.861l.085-.008c4.4-.419,8.953-.853,13.308-.853a44.029,44.029,0,0,1,10.953,1.218,29,29,0,0,1,10.138,4.738,7.841,7.841,0,0,1,1.481,3.158,4.179,4.179,0,0,1-.383,2.683c-.8,1.57-2.677,2.941-5.581,4.076a51.415,51.415,0,0,1-10.7,2.579C714.983,1317.623,704.727,1318.208,692.162,1318.208Zm239.231-7.754h0c-.571-.116-2.9-.363-6.438-.737h-.012c-10.862-1.149-33.463-3.539-54.216-7.317-25.657-4.67-40.2-9.936-43.237-15.65a4.757,4.757,0,0,1,.053-4.7l.059-.011c1.222-.225,2.485-.458,2.919-1.223a1.552,1.552,0,0,0,0-1.353,7.792,7.792,0,0,1,3.311-.615c1.668-.068,3.243-.132,4.086-1.653,2.471,2.269,18.853,4.776,37.821,7.679l.014,0c14.9,2.281,31.792,4.866,44.87,7.8,15.062,3.374,22.515,6.638,22.785,9.98.1,1.232-.8,2.495-2.681,3.751A39.631,39.631,0,0,1,931.393,1310.454Zm-605.386-.814h0a267.348,267.348,0,0,1-35.383-5.287c-11.707-2.466-23.479-5.494-34.863-8.421-12.922-3.323-26.285-6.76-39.288-9.289-6.63-3.541-9.706-6.477-9.143-8.725a3.565,3.565,0,0,1,1.951-2.094,15.626,15.626,0,0,1,4.113-1.386,59.783,59.783,0,0,1,11.709-1,70.333,70.333,0,0,1,13.233,1.106c22.309,2.222,43.274,8.233,63.548,14.046,5.632,1.615,11.452,3.283,17.169,4.83l-.089.249a46.3,46.3,0,0,1,9.465,2.049c2.7.993,4.219,2.222,4.639,3.757.332,1.213-.045,2.642-1.12,4.248a28.564,28.564,0,0,1-5.941,5.921Zm-300.382-9.008a22.554,22.554,0,0,1-5-.515,13.647,13.647,0,0,1-4.218-1.694,10.981,10.981,0,0,1-3.229-3.1,14.279,14.279,0,0,1-2.035-4.738,88.458,88.458,0,0,1,14.561-7.519,166.109,166.109,0,0,1,17.044-5.9c11.99-3.513,25.178-6.329,37.932-9.052,11.78-2.515,23.961-5.116,34.775-8.2a21.165,21.165,0,0,1,5.822,5.086,5.883,5.883,0,0,1,1.248,4.492,6.318,6.318,0,0,1-1.536,2.978,14.987,14.987,0,0,1-3.252,2.7,48.324,48.324,0,0,1-10.283,4.62c-8.076,2.763-18.062,4.942-26.086,6.693h0l-.011,0c-5.7,1.244-10.629,2.319-13.229,3.251-3.559.551-8.467,2.22-14.149,4.153-4.468,1.52-9.532,3.242-14.415,4.542a55.5,55.5,0,0,1-13.933,2.209h0Zm976.244-14.178a18.037,18.037,0,0,1-9.054-2.368,11.844,11.844,0,0,1-3.077-2.541,7.122,7.122,0,0,1-1.578-3.073,5.769,5.769,0,0,1,1.122-4.734,14.92,14.92,0,0,1,6.106-4.442l4.728-.619.689-.09c25.658-3.364,52.19-6.842,77.512-6.842,8.123,0,15.567.346,22.757,1.057a34.734,34.734,0,0,0,.1,4.572v0c.585,8.355.585,8.355-57.437,14.515-10.63,1.128-22.678,2.407-37.411,4.022A18.619,18.619,0,0,1,1001.869,1286.453Zm164.425-25.765h0a85.049,85.049,0,0,1-14.155-.9,18.112,18.112,0,0,1-4.688-1.364,3.81,3.81,0,0,1-2.208-2.183c-.317-1.123.242-2.481,1.663-4.036a36.833,36.833,0,0,1,7.648-5.8,82.694,82.694,0,0,1,16.3-3.448,141.9,141.9,0,0,1,16.38-.815c4.115,0,8.236.107,12.221.211l.067,0h.049c3.94.1,8.015.208,11.976.208a135.761,135.761,0,0,0,14.28-.645,75.332,75.332,0,0,0,13.843-2.674c1.2.271,2.312.472,3.39.666h.007c3.03.545,5.424.976,6.43,2.535.638.988.7,2.364.209,4.331,1.216,2.048,1.38,3.881.487,5.448-.88,1.547-2.812,2.873-5.74,3.942a50.183,50.183,0,0,1-10.12,2.27,185.724,185.724,0,0,1-24.447,1.286c-3.626,0-6.865-.052-9.467-.094l-.158,0c-.975-.016-1.817-.029-2.568-.038-.275-.01-.6-.016-.978-.016-2.178,0-5.693.185-9.762.4l-.6.031-2.475.129C1178.475,1260.406,1172.159,1260.688,1166.293,1260.688Zm-733.915-1.977a282.013,282.013,0,0,1-29.946-1.344,154.4,154.4,0,0,1-29.639-5.907c-1.168-1.482-1.464-2.844-.881-4.046.823-1.7,3.42-3.13,7.72-4.263a94.725,94.725,0,0,1,15.086-2.313c11.441-1.011,24.966-1.141,35.47-1.141q2.295,0,4.307.005h.206c1.239,0,2.442,0,3.544,0,2.6,0,4.167-.015,5.224-.05,3.617.361,7.372.545,11.161.545a134.462,134.462,0,0,0,17.2-1.154c5.254-.681,10.78-1.685,16.425-2.984,2.919,1.457,4.181,3.532,3.754,6.167a12.14,12.14,0,0,1-2.639,5.3,32.008,32.008,0,0,1-5.08,5.035c-3.746,3.018-8.051,5.366-10.469,5.71-1.2-.009-2.451-.014-3.7-.014-6.364,0-12.76.114-18.946.225l-.082,0C444.949,1258.6,438.593,1258.711,432.378,1258.711Zm1004.071-4.122h0a267.152,267.152,0,0,1-35.376-5.284c-11.7-2.465-23.474-5.492-34.856-8.418l-.013,0c-12.924-3.323-26.287-6.76-39.289-9.288-6.63-3.543-9.706-6.48-9.143-8.73a3.565,3.565,0,0,1,1.951-2.095,15.619,15.619,0,0,1,4.112-1.386,59.761,59.761,0,0,1,11.707-1,70.335,70.335,0,0,1,13.235,1.106c22.309,2.223,43.275,8.234,63.551,14.046,5.626,1.613,11.443,3.281,17.17,4.83l-.089.252a46.33,46.33,0,0,1,9.465,2.048c2.7.992,4.219,2.221,4.639,3.756.332,1.212-.045,2.641-1.121,4.247a28.571,28.571,0,0,1-5.942,5.92ZM637.808,1248.3h0c-6.859,0-20.26-2.693-46.959-8.058-12.114-2.434-27.191-5.464-45.575-9.023a47.042,47.042,0,0,1-7.52-2.143,35.343,35.343,0,0,1-6.046-2.925c-3.506-2.17-5.413-4.474-5.232-6.32.25-2.551,4.359-3.955,11.569-3.955a108.073,108.073,0,0,1,15.769,1.429c11.963,2.857,24.925,4.831,37.459,6.741,9.2,1.4,18.713,2.851,27.727,4.635a180.929,180.929,0,0,1,25.693,6.79c-.026,1.439,0,2.773.029,3.95v.007c.076,3.445.131,5.934-1.267,7.362C642.432,1247.831,640.69,1248.3,637.808,1248.3Zm340.8-44.157h0c-2.5,0-5.3-.229-8.849-.519-2.013-.165-4.294-.351-6.819-.517-6.735-.5-13.625-.711-20.287-.916h-.015c-8.5-.261-17.286-.53-25.714-1.4-4.534-.469-8.613-1.072-12.472-1.841a92.78,92.78,0,0,1-12.055-3.21,16.6,16.6,0,0,1-2.8-5.358,5.362,5.362,0,0,1,.258-3.852c.83-1.632,2.737-2.846,5.669-3.606a41.7,41.7,0,0,1,10.094-1c9.47,0,20.9,1.7,28.468,2.831l.067.01c1.916.285,3.571.532,4.852.7,1.432.4,6.817.441,13.634.494h.012c8.173.063,18.345.142,27.065.837a80.787,80.787,0,0,1,11.466,1.581c3.323.777,5.465,1.772,6.368,2.957a2.286,2.286,0,0,1,.421,2.064c-4.013,4.5-6.956,7.081-9.839,8.644a16.337,16.337,0,0,1-4.486,1.651A24.127,24.127,0,0,1,978.613,1204.141ZM766.05,1200.6h0c-22.052,0-46-1.838-54.147-2.728.006-.041.011-.084.016-.126v-.006c0-.031.007-.062.011-.092-7.793-2.843-11.528-5.51-11.1-7.928.25-1.415,1.933-2.737,5-3.929a59.924,59.924,0,0,1,11.253-2.8,183.66,183.66,0,0,1,28.249-2.239c6.4,0,11.213.426,13.194,1.17,1.627.144,3.31.215,5.143.215,4.526,0,9.12-.438,13.563-.862l.085-.008c4.4-.42,8.956-.854,13.309-.854a44.007,44.007,0,0,1,10.952,1.219,29,29,0,0,1,10.137,4.74,7.836,7.836,0,0,1,1.481,3.157,4.179,4.179,0,0,1-.383,2.682c-.8,1.57-2.677,2.941-5.581,4.076a51.437,51.437,0,0,1-10.7,2.579C788.874,1200.018,778.617,1200.6,766.05,1200.6Zm-554.564-1.894a45.936,45.936,0,0,1-8.868-.663c-2.277-.477-3.582-1.224-3.88-2.22l3.027-8.4c1.487-1.475,5.519-3.081,11.984-4.773,5.671-1.484,13.148-3,21.622-4.392,7.89-1.294,16.179-2.406,23.971-3.217,7.844-.817,14.424-1.249,19.031-1.249,1.034,0,1.968.022,2.776.067l.411-.069c8.154-1.368,17.394-2.919,23.84-2.919a19.431,19.431,0,0,1,5.234.56,3.377,3.377,0,0,1,2.53,1.927,3.277,3.277,0,0,1-.29,2.333,13.6,13.6,0,0,1-2.293,3.29,77.767,77.767,0,0,1-11.749,9.944c-.1-.006-.208-.01-.335-.01-2.412,0-10.641,1.186-21.059,2.687l-.059.008c-4.7.677-10.025,1.444-15.509,2.2C246.666,1195.914,224.9,1198.71,211.486,1198.71Zm912.629-6.153c-9.759,0-24.187-3.315-38.14-6.521-10.924-2.51-21.24-4.88-28.923-5.6a55.738,55.738,0,0,1-9.667-1.391,33.423,33.423,0,0,1-7.263-2.582,15.239,15.239,0,0,1-4.583-3.348,5.755,5.755,0,0,1-1.625-3.689c-.031-2.161,1.554-4.143,4.583-5.733a27.122,27.122,0,0,1,6.034-2.171,58.692,58.692,0,0,1,8.74-1.384c.845.453,6.548,1.672,14.441,3.36h.005c23.471,5.018,67.156,14.358,68.169,21.533a5.835,5.835,0,0,1-1.362,4.651,8.271,8.271,0,0,1-4.1,2.21A25.472,25.472,0,0,1,1124.115,1192.557ZM473.3,1177.241a282.078,282.078,0,0,1-29.946-1.344,154.337,154.337,0,0,1-29.638-5.908c-1.168-1.482-1.464-2.844-.881-4.046.823-1.7,3.42-3.13,7.719-4.263a94.713,94.713,0,0,1,15.083-2.313c11.439-1.011,24.963-1.141,35.467-1.141q2.3,0,4.315.005h.206c1.2,0,2.442.005,3.544.005,2.6,0,4.163-.015,5.224-.05,3.611.361,7.362.544,11.149.544a134.481,134.481,0,0,0,17.212-1.155c5.255-.682,10.784-1.686,16.432-2.985,2.918,1.457,4.18,3.531,3.754,6.165a12.14,12.14,0,0,1-2.638,5.3,32,32,0,0,1-5.081,5.036c-3.746,3.019-8.051,5.368-10.469,5.713-1.181-.009-2.429-.014-3.708-.014-6.377,0-12.765.115-18.943.225h-.144C485.829,1177.128,479.494,1177.241,473.3,1177.241Zm856.928-13.7h0a45.955,45.955,0,0,1-8.874-.663c-2.278-.478-3.584-1.225-3.881-2.222l3.021-8.4c1.486-1.475,5.516-3.08,11.978-4.771,5.669-1.484,13.142-3,21.611-4.391,7.885-1.293,16.171-2.406,23.964-3.217,7.846-.817,14.428-1.249,19.034-1.249,1.043,0,1.984.023,2.8.068l.4-.067c8.162-1.371,17.409-2.924,23.858-2.924a19.43,19.43,0,0,1,5.234.56,3.376,3.376,0,0,1,2.529,1.927,3.274,3.274,0,0,1-.29,2.333,13.606,13.606,0,0,1-2.294,3.29,77.819,77.819,0,0,1-11.751,9.946c-.1-.007-.21-.01-.337-.01-2.414,0-10.641,1.185-21.058,2.686l-.015,0c-4.711.678-10.05,1.448-15.551,2.208C1365.4,1160.746,1343.639,1163.541,1330.228,1163.541ZM63.546,1151.16h0a60.983,60.983,0,0,1-10.272-.678c-2.846-.515-4.522-1.336-4.979-2.441-.4-.958.112-2.154,1.512-3.555a8.1,8.1,0,0,1-.482-3.44,5.618,5.618,0,0,1,1.03-2.723,10.092,10.092,0,0,1,4.539-3.216,31.956,31.956,0,0,1,7.046-1.794,117.97,117.97,0,0,1,16.947-.948c1.32,0,2.58.008,3.973.017h.177c1.148.008,2.335.016,3.414.016a54.476,54.476,0,0,0,5.708-.2c.109.005.241.008.394.008,1.4,0,4.277-.234,7.924-.531l.023,0c1.641-.134,3.5-.285,5.493-.437,5.467-.416,13.63-.969,21.372-.969,7.413,0,13.318.509,17.551,1.514a18.226,18.226,0,0,1,5.822,2.285,5.531,5.531,0,0,1,2.637,3.651,7.571,7.571,0,0,1-1.2,3.121,9.022,9.022,0,0,1-2.4,2.367,20.811,20.811,0,0,1-7.625,2.9c-6.081,1.26-13.731,1.366-21.129,1.468h-.005a120.741,120.741,0,0,0-15.889.85,3.976,3.976,0,0,0-.534-.027c-1.44,0-5,.333-9.514.754l-.026,0c-2.061.192-4.4.411-6.848.627C81.479,1150.37,71.6,1151.16,63.546,1151.16Zm1132.7-5.532h-.006a60.948,60.948,0,0,1-10.267-.678c-2.845-.515-4.52-1.336-4.977-2.44-.4-.958.112-2.153,1.512-3.554a8.1,8.1,0,0,1-.482-3.44,5.617,5.617,0,0,1,1.03-2.724,10.1,10.1,0,0,1,4.544-3.218,32,32,0,0,1,7.054-1.794,118.222,118.222,0,0,1,16.961-.947c1.36,0,2.643.008,3.947.016h.205c1.128.007,2.3.015,3.363.015a54.84,54.84,0,0,0,5.729-.2c.116.005.249.008.394.008,1.4,0,4.283-.235,7.936-.532h.006c1.543-.126,3.465-.282,5.5-.437,5.465-.416,13.627-.969,21.368-.969,7.416,0,13.322.51,17.556,1.515a18.231,18.231,0,0,1,5.824,2.286,5.535,5.535,0,0,1,2.638,3.652,7.572,7.572,0,0,1-1.2,3.12,9.021,9.021,0,0,1-2.4,2.366,20.815,20.815,0,0,1-7.625,2.9c-6.081,1.259-13.731,1.365-21.129,1.468h-.01a120.775,120.775,0,0,0-15.89.85,3.944,3.944,0,0,0-.534-.027c-1.439,0-5,.333-9.51.754l-.031,0-.187.017c-2.009.188-4.285.4-6.658.609C1214.176,1144.838,1204.3,1145.628,1196.248,1145.628Zm-285.686-22.284h0a205.782,205.782,0,0,1-26.243-2.053c-9.831-1.318-19.888-3.151-29.083-5.3a152.74,152.74,0,0,1-23.764-7.263,35.889,35.889,0,0,1-7.337-3.965c-1.823-1.371-2.815-2.708-2.948-3.973-.342-3.249,4.867-6.044,15.483-8.307,8.033,1.494,16.155,2.738,24.009,3.94,8.835,1.353,17.971,2.752,26.821,4.49a213.488,213.488,0,0,1,26.147,6.682,55.494,55.494,0,0,1,10.7,6.921c2.064,1.867,2.947,3.474,2.623,4.775C926.3,1121.942,920.632,1123.344,910.562,1123.344ZM679.6,1119h0a22.527,22.527,0,0,1-5-.514,13.656,13.656,0,0,1-4.219-1.695,10.982,10.982,0,0,1-3.23-3.1,14.273,14.273,0,0,1-2.035-4.738,88.432,88.432,0,0,1,14.555-7.517,166.007,166.007,0,0,1,17.036-5.9c11.986-3.513,25.168-6.328,37.916-9.05,11.787-2.517,23.975-5.119,34.8-8.21a21.174,21.174,0,0,1,5.823,5.089,5.886,5.886,0,0,1,1.248,4.495,6.324,6.324,0,0,1-1.537,2.979,14.982,14.982,0,0,1-3.254,2.7,48.372,48.372,0,0,1-10.288,4.622c-8.086,2.765-18.073,4.943-26.1,6.693h-.005c-5.7,1.243-10.622,2.317-13.222,3.247-3.555.552-8.457,2.219-14.134,4.15-4.471,1.521-9.536,3.245-14.42,4.544A55.512,55.512,0,0,1,679.6,1119Zm-349.983-10.1a42.828,42.828,0,0,1-9.555-.932,16.345,16.345,0,0,1-6.913-3.163c-1.009-.656-1.448-1.377-1.3-2.142,1.269-6.782,47.282-16.434,80.88-23.482,11.944-2.505,22.258-4.668,28.517-6.271a29.533,29.533,0,0,1,6.754,7.022,6.937,6.937,0,0,1,1.184,5.36c-.74,2.873-4.048,5.206-10.115,7.132a143.261,143.261,0,0,1-17.884,3.846l-.012,0c-4.476.77-8.7,1.5-11.778,2.352-2.487.022-8.171,1.357-15.366,3.047l-.007,0C361.031,1104.725,343.251,1108.9,329.616,1108.9Zm672.974-10.261a18.031,18.031,0,0,1-9.053-2.368,11.832,11.832,0,0,1-3.077-2.541,7.124,7.124,0,0,1-1.578-3.072,5.772,5.772,0,0,1,1.122-4.734,14.924,14.924,0,0,1,6.106-4.443l5.38-.7c25.668-3.365,52.209-6.844,77.535-6.844,8.123,0,15.57.346,22.769,1.058a34.717,34.717,0,0,0,.1,4.575c.586,8.352.586,8.352-57.432,14.513-10.682,1.134-22.789,2.42-37.412,4.022A18.611,18.611,0,0,1,1002.59,1098.641Zm355.769-21.34h0a22.489,22.489,0,0,1-5-.514,13.634,13.634,0,0,1-4.217-1.694,10.979,10.979,0,0,1-3.228-3.1,14.278,14.278,0,0,1-2.033-4.738,88.4,88.4,0,0,1,14.557-7.517,165.96,165.96,0,0,1,17.039-5.9c11.985-3.512,25.169-6.327,37.919-9.049h.01c11.784-2.516,23.969-5.118,34.784-8.2a21.181,21.181,0,0,1,5.823,5.089,5.886,5.886,0,0,1,1.248,4.494,6.32,6.32,0,0,1-1.536,2.978,14.963,14.963,0,0,1-3.252,2.7,48.292,48.292,0,0,1-10.282,4.62c-8.078,2.762-18.064,4.941-26.089,6.692h-.007c-5.7,1.244-10.631,2.319-13.233,3.25-3.558.551-8.464,2.219-14.144,4.151h-.006c-4.468,1.52-9.533,3.242-14.414,4.541A55.488,55.488,0,0,1,1358.36,1077.3ZM627.3,1073.043h0c-8.827,0-20.368-2.28-30.551-4.291l0,0h0c-5.448-1.076-10.594-2.092-15-2.712-7.6-1.746-15.308-2.818-22.76-3.854-7.563-1.052-15.382-2.139-22.84-3.92a95.352,95.352,0,0,1-11.032-3.3,72.661,72.661,0,0,1-10.669-4.922c-3.008-2.228-4.29-4.094-3.81-5.546.416-1.261,2.157-2.214,5.174-2.833a56.608,56.608,0,0,1,10.85-.83,175.7,175.7,0,0,1,24.452,1.964c3.81.573,7.176,1.219,9.734,1.87,2.674.681,4.4,1.353,4.986,1.943,5.931.92,11.941,1.7,17.754,2.456l.057.007c10.041,1.3,20.423,2.653,30.332,4.722,5.326,1.112,10.114,2.341,14.64,3.758a111.215,111.215,0,0,1,14.13,5.451,10.013,10.013,0,0,1-.519,3.639,7.478,7.478,0,0,1-1.691,2.719,11.377,11.377,0,0,1-5.4,2.849A31.782,31.782,0,0,1,627.3,1073.043Zm645.933-.787a41.856,41.856,0,0,1-10.712-1.9c-2.686-.315-5.321-.607-7.869-.89-8.994-1-17.488-1.939-25.887-3.59a116.647,116.647,0,0,1-25.368-7.844,43.44,43.44,0,0,1-11.885-3.427c-2.693-1.358-4.133-2.9-4.165-4.446a3.108,3.108,0,0,1,.749-1.99,8.256,8.256,0,0,1,2.362-1.915,33.943,33.943,0,0,1,9.768-3.286c18.591,1.033,36.565,4.734,53.948,8.312l.008,0c10.458,2.153,21.272,4.379,31.96,5.957a56.687,56.687,0,0,1-2.277,6.912,18.419,18.419,0,0,1-2.663,4.656C1279.233,1071.192,1276.775,1072.256,1273.236,1072.256ZM229.2,1061.22h0a41.833,41.833,0,0,1-10.709-1.9c-2.662-.312-5.292-.6-7.835-.886l-.041,0H210.6c-8.99-1-17.481-1.94-25.87-3.589A116.646,116.646,0,0,1,159.367,1047a43.463,43.463,0,0,1-11.885-3.429c-2.693-1.359-4.133-2.9-4.165-4.446a3.106,3.106,0,0,1,.749-1.989,8.256,8.256,0,0,1,2.362-1.915,33.943,33.943,0,0,1,9.766-3.286c18.589,1.035,36.562,4.733,53.942,8.31l.012,0c10.46,2.152,21.276,4.378,31.965,5.955a56.663,56.663,0,0,1-2.277,6.913,18.418,18.418,0,0,1-2.663,4.656C235.2,1060.156,232.74,1061.22,229.2,1061.22Zm563.3-27.212h0c-22.05,0-46-1.838-54.143-2.728l.028-.228c-7.793-2.842-11.527-5.51-11.1-7.928.25-1.415,1.933-2.737,5-3.928a59.881,59.881,0,0,1,11.249-2.8,183.559,183.559,0,0,1,28.244-2.239c6.409,0,11.222.427,13.2,1.171,1.625.144,3.306.214,5.139.214,4.52,0,9.117-.438,13.563-.862h.005l.081-.008c4.405-.421,8.96-.856,13.319-.856a43.993,43.993,0,0,1,10.95,1.219,28.978,28.978,0,0,1,10.134,4.738,7.839,7.839,0,0,1,1.481,3.157,4.181,4.181,0,0,1-.383,2.683c-.8,1.57-2.677,2.941-5.582,4.077a51.466,51.466,0,0,1-10.7,2.579C815.328,1033.422,805.07,1034.008,792.5,1034.008Zm239.242-7.753h0c-.57-.116-2.9-.362-6.418-.735l-.031,0c-10.859-1.148-33.454-3.538-54.217-7.318-25.658-4.671-40.206-9.937-43.239-15.652a4.756,4.756,0,0,1,.053-4.7l.05-.009c1.226-.226,2.494-.46,2.928-1.227a1.549,1.549,0,0,0,0-1.352,7.827,7.827,0,0,1,3.311-.612c1.668-.068,3.243-.133,4.087-1.655,2.473,2.27,18.856,4.778,37.827,7.681,14.9,2.281,31.8,4.867,44.881,7.8,15.06,3.373,22.513,6.637,22.783,9.98.1,1.233-.8,2.5-2.68,3.752A39.624,39.624,0,0,1,1031.743,1026.255Zm-605.387-.818h0a267.338,267.338,0,0,1-35.38-5.287c-11.7-2.464-23.464-5.49-34.843-8.416l-.017,0h0c-12.923-3.324-26.287-6.76-39.29-9.29-6.629-3.541-9.705-6.476-9.142-8.724a3.566,3.566,0,0,1,1.952-2.095,15.623,15.623,0,0,1,4.114-1.386,59.789,59.789,0,0,1,11.711-1,70.308,70.308,0,0,1,13.232,1.106c22.3,2.22,43.265,8.229,63.536,14.041,5.627,1.614,11.446,3.282,17.184,4.834l-.092.252a46.273,46.273,0,0,1,9.465,2.047c2.7.992,4.218,2.221,4.639,3.756.332,1.213-.045,2.642-1.121,4.248a28.566,28.566,0,0,1-5.943,5.921Zm675.861-23.188a18.027,18.027,0,0,1-9.051-2.367,11.837,11.837,0,0,1-3.076-2.539,7.122,7.122,0,0,1-1.577-3.072,5.774,5.774,0,0,1,1.122-4.736,14.934,14.934,0,0,1,6.107-4.445q2.717-.354,5.442-.712h.008c25.65-3.36,52.172-6.834,77.482-6.834,8,0,15.659.355,22.752,1.056a34.72,34.72,0,0,0,.1,4.575c.585,8.356.585,8.356-57.427,14.514-10.68,1.134-22.785,2.419-37.417,4.021A18.646,18.646,0,0,1,1102.217,1002.25Zm-1083-11.035a18.023,18.023,0,0,1-9.049-2.367,11.841,11.841,0,0,1-3.075-2.539,7.124,7.124,0,0,1-1.577-3.072A5.775,5.775,0,0,1,6.637,978.5a14.926,14.926,0,0,1,6.105-4.445l5.462-.714c25.644-3.36,52.16-6.834,77.466-6.834,8.121,0,15.565.346,22.758,1.057a34.7,34.7,0,0,0,.1,4.574c.585,8.354.585,8.354-57.427,14.514l-.2.022c-10.649,1.131-22.719,2.413-37.214,4A18.635,18.635,0,0,1,19.218,991.215Zm1247.426-14.726h0a85.063,85.063,0,0,1-14.155-.9,18.115,18.115,0,0,1-4.688-1.364,3.811,3.811,0,0,1-2.208-2.183c-.317-1.123.242-2.481,1.663-4.036a36.838,36.838,0,0,1,7.648-5.8,82.712,82.712,0,0,1,16.3-3.448,141.912,141.912,0,0,1,16.381-.815c4.109,0,8.232.108,12.218.211l.07,0h.006c3.955.1,8.044.21,12.02.21a135.809,135.809,0,0,0,14.281-.645,75.322,75.322,0,0,0,13.844-2.674c1.2.272,2.317.472,3.4.665,3.03.543,5.424.973,6.43,2.532.638.988.7,2.365.207,4.334,1.216,2.048,1.381,3.881.489,5.449-.88,1.547-2.813,2.874-5.743,3.944a50.247,50.247,0,0,1-10.128,2.27,185.89,185.89,0,0,1-24.459,1.286c-3.6,0-6.836-.052-9.436-.094h-.012c-1.108-.018-1.952-.031-2.723-.04-.285-.01-.615-.016-.98-.016-2.173,0-5.678.184-9.736.4l-.032,0-3.066.16C1278.827,976.207,1272.513,976.489,1266.644,976.489Zm-733.911-1.978a282.241,282.241,0,0,1-29.946-1.343,154.355,154.355,0,0,1-29.64-5.906c-1.168-1.483-1.465-2.844-.882-4.046.824-1.7,3.428-3.134,7.739-4.268a95.039,95.039,0,0,1,15.121-2.313c11.442-1.008,24.988-1.138,35.511-1.138,1.412,0,2.737,0,4.2.005h.717c1.05,0,2.042,0,2.956,0,1.87,0,3.964-.006,5.313-.051,3.618.361,7.372.544,11.158.544a134.451,134.451,0,0,0,17.208-1.154c5.255-.682,10.783-1.686,16.429-2.986,2.918,1.458,4.181,3.533,3.754,6.168a12.143,12.143,0,0,1-2.639,5.3,32,32,0,0,1-5.081,5.036c-3.746,3.019-8.052,5.368-10.472,5.713-1.216-.009-2.474-.014-3.74-.014-6.344,0-12.713.113-18.872.223H551.5l-.087,0C545.281,974.4,538.937,974.511,532.733,974.511Zm-349.1-9.059a85.063,85.063,0,0,1-14.15-.9,18.11,18.11,0,0,1-4.687-1.365A3.812,3.812,0,0,1,162.591,961c-.317-1.123.242-2.481,1.663-4.037a36.846,36.846,0,0,1,7.648-5.8,82.748,82.748,0,0,1,16.3-3.447,141.9,141.9,0,0,1,16.379-.815c4.1,0,8.219.107,12.2.211h.025l.068,0c3.954.1,8.044.21,12.027.21a135.656,135.656,0,0,0,14.279-.645,75.329,75.329,0,0,0,13.843-2.672c1.194.271,2.306.47,3.383.663l.014,0c3.03.543,5.423.973,6.43,2.532.638.988.7,2.365.21,4.334,1.216,2.047,1.38,3.88.488,5.447-.881,1.547-2.813,2.874-5.743,3.944a50.285,50.285,0,0,1-10.128,2.27,185.958,185.958,0,0,1-24.459,1.285c-3.574,0-6.792-.052-9.378-.093h-.068l-.161,0c-.973-.015-1.813-.029-2.564-.038-.289-.011-.619-.016-.98-.016-2.179,0-5.7.185-9.767.4h-.025l-.166.009-2.88.15C195.822,965.17,189.5,965.452,183.636,965.452ZM738.16,964.1h0c-6.857,0-20.26-2.694-46.962-8.06-12.113-2.434-27.187-5.464-45.574-9.024a47.026,47.026,0,0,1-7.52-2.143,35.4,35.4,0,0,1-6.045-2.925c-3.505-2.17-5.412-4.474-5.231-6.321.25-2.552,4.361-3.957,11.573-3.957a108.036,108.036,0,0,1,15.763,1.428c11.969,2.86,24.935,4.836,37.475,6.747h.006c9.2,1.4,18.707,2.851,27.715,4.634a180.611,180.611,0,0,1,25.687,6.792c-.026,1.436,0,2.768.029,3.943v.006c.076,3.448.13,5.938-1.268,7.368C742.784,963.632,741.042,964.1,738.16,964.1Zm126.41-23.875h0c-22.047,0-46-1.838-54.147-2.728.005-.055.012-.107.019-.162v0l.008-.059c-7.792-2.841-11.527-5.508-11.1-7.926.25-1.415,1.933-2.737,5-3.929a59.926,59.926,0,0,1,11.255-2.8,183.623,183.623,0,0,1,28.254-2.24c6.4,0,11.208.426,13.19,1.169,1.627.144,3.309.215,5.143.215,4.52,0,9.117-.438,13.562-.861l.084-.008h.006c4.4-.419,8.953-.853,13.3-.853a44.033,44.033,0,0,1,10.953,1.218,28.993,28.993,0,0,1,10.138,4.738,7.839,7.839,0,0,1,1.481,3.156,4.179,4.179,0,0,1-.383,2.682c-.8,1.57-2.677,2.941-5.582,4.077a51.456,51.456,0,0,1-10.7,2.579C887.394,939.638,877.137,940.224,864.57,940.224ZM320.129,922.792h0a45.926,45.926,0,0,1-8.869-.663c-2.277-.477-3.582-1.225-3.879-2.221L310.4,911.5c1.488-1.474,5.518-3.079,11.98-4.77,5.67-1.483,13.143-3,21.612-4.391,7.884-1.293,16.171-2.405,23.963-3.217,7.846-.817,14.428-1.249,19.035-1.249,1.045,0,1.986.023,2.8.068l.4-.067c8.158-1.371,17.405-2.924,23.855-2.924a19.429,19.429,0,0,1,5.233.56,3.377,3.377,0,0,1,2.529,1.927,3.274,3.274,0,0,1-.29,2.332,13.6,13.6,0,0,1-2.293,3.29,77.8,77.8,0,0,1-11.75,9.946c-.093-.006-.206-.01-.337-.01-2.419,0-10.666,1.188-21.107,2.692l-.075.011c-4.682.674-9.988,1.439-15.449,2.194C355.3,920,333.534,922.792,320.129,922.792Zm1150.011-1.933h0c-2.5,0-5.293-.229-8.832-.518h-.018l-.021,0c-2.008-.164-4.284-.35-6.8-.515-6.739-.5-13.632-.712-20.3-.916h-.005c-8.5-.261-17.285-.531-25.71-1.4-4.534-.469-8.613-1.072-12.472-1.841a92.816,92.816,0,0,1-12.055-3.21,16.589,16.589,0,0,1-2.8-5.359,5.36,5.36,0,0,1,.258-3.852c.83-1.633,2.737-2.846,5.67-3.607a41.694,41.694,0,0,1,10.1-1c9.47,0,20.9,1.7,28.467,2.83,1.942.289,3.616.539,4.917.708,1.431.4,6.814.442,13.629.5h.027c8.171.063,18.342.142,27.058.837a80.783,80.783,0,0,1,11.462,1.581c3.322.777,5.464,1.772,6.366,2.956a2.287,2.287,0,0,1,.422,2.065c-4.012,4.5-6.955,7.082-9.839,8.644a16.346,16.346,0,0,1-4.486,1.651A24.126,24.126,0,0,1,1470.139,920.859Zm-391.172-.922c-2.5,0-5.3-.23-8.85-.52h-.009c-1.9-.156-4.264-.35-6.811-.517-6.726-.5-13.608-.709-20.262-.913h-.027c-8.5-.26-17.288-.529-25.721-1.4-4.535-.469-8.616-1.071-12.474-1.841a92.824,92.824,0,0,1-12.057-3.211,16.6,16.6,0,0,1-2.8-5.359,5.358,5.358,0,0,1,.258-3.852c.829-1.632,2.736-2.845,5.669-3.606a41.711,41.711,0,0,1,10.1-1c9.477,0,20.916,1.705,28.486,2.834h.005c1.846.275,3.591.536,4.894.705,1.43.4,6.8.441,13.606.494h.027c8.177.063,18.352.141,27.075.837a80.785,80.785,0,0,1,11.466,1.582c3.323.777,5.466,1.772,6.368,2.957a2.287,2.287,0,0,1,.421,2.066c-4.011,4.494-6.952,7.078-9.836,8.64a16.342,16.342,0,0,1-4.485,1.651A24.143,24.143,0,0,1,1078.967,919.937Zm178.956-6.787h0a205.826,205.826,0,0,1-26.245-2.054c-9.834-1.319-19.891-3.152-29.084-5.3a152.741,152.741,0,0,1-23.765-7.263,35.907,35.907,0,0,1-7.338-3.965c-1.823-1.371-2.815-2.708-2.948-3.973-.342-3.249,4.867-6.044,15.482-8.306,8.045,1.5,16.171,2.741,24.031,3.944h.006c8.832,1.352,17.964,2.751,26.8,4.487A213.1,213.1,0,0,1,1261,897.4a55.513,55.513,0,0,1,10.7,6.921c2.065,1.867,2.947,3.473,2.624,4.774C1273.659,911.749,1267.99,913.15,1257.924,913.15ZM141.473,897.319h0c-9.757,0-24.178-3.313-38.124-6.516l-.01,0c-10.926-2.509-21.246-4.88-28.931-5.6a55.76,55.76,0,0,1-9.667-1.392,33.447,33.447,0,0,1-7.264-2.582,15.244,15.244,0,0,1-4.583-3.348,5.758,5.758,0,0,1-1.625-3.69c-.031-2.161,1.554-4.143,4.583-5.733a27.093,27.093,0,0,1,6.034-2.172,58.759,58.759,0,0,1,8.74-1.384c.845.452,6.538,1.669,14.418,3.354,23.479,5.02,67.181,14.365,68.2,21.54a5.836,5.836,0,0,1-1.362,4.651,8.273,8.273,0,0,1-4.094,2.209A25.471,25.471,0,0,1,141.473,897.319Zm415.684-17.437a282.224,282.224,0,0,1-29.945-1.343,154.326,154.326,0,0,1-29.637-5.907c-1.168-1.483-1.465-2.844-.882-4.046.824-1.7,3.427-3.134,7.739-4.268A95.112,95.112,0,0,1,519.554,862c11.443-1.008,24.988-1.137,35.51-1.137,1.428,0,2.745,0,4.138,0h.369c1.076,0,2.3,0,3.36,0,1.877,0,3.977-.006,5.318-.051,3.615.362,7.369.545,11.157.545a134.471,134.471,0,0,0,17.209-1.155c5.249-.681,10.777-1.684,16.43-2.983,2.918,1.457,4.181,3.532,3.753,6.167a12.14,12.14,0,0,1-2.639,5.3,31.983,31.983,0,0,1-5.081,5.036c-3.746,3.019-8.052,5.367-10.471,5.711-1.218-.009-2.478-.014-3.746-.014-6.369,0-12.754.114-18.929.224h-.089C569.712,879.768,563.372,879.881,557.157,879.881Zm172.132-2.7h0a22.512,22.512,0,0,1-5-.514,13.659,13.659,0,0,1-4.219-1.694,10.984,10.984,0,0,1-3.23-3.1,14.272,14.272,0,0,1-2.035-4.738,88.433,88.433,0,0,1,14.558-7.517,166.13,166.13,0,0,1,17.039-5.9c11.988-3.513,25.172-6.328,37.922-9.05l.01,0c11.784-2.516,23.969-5.117,34.783-8.2a21.171,21.171,0,0,1,5.822,5.087,5.883,5.883,0,0,1,1.248,4.493,6.322,6.322,0,0,1-1.536,2.977,14.973,14.973,0,0,1-3.251,2.7,48.327,48.327,0,0,1-10.279,4.62c-8.076,2.763-18.062,4.942-26.086,6.694-5.712,1.247-10.645,2.323-13.25,3.257-3.556.55-8.461,2.218-14.14,4.149l-.005,0c-4.468,1.519-9.532,3.241-14.415,4.541A55.513,55.513,0,0,1,729.289,877.177Zm282.124-17.172h0c-8.828,0-20.372-2.281-30.558-4.293h0c-5.449-1.077-10.593-2.093-14.995-2.713-7.314-1.679-14.99-2.764-22.413-3.814h0a243.536,243.536,0,0,1-24.315-4.276,89.686,89.686,0,0,1-11.492-3.617,63.325,63.325,0,0,1-10.715-5.4c-1.817-1.768-2.488-3.28-1.995-4.495,1.23-3.028,9.311-3.664,15.873-3.664a170.875,170.875,0,0,1,24.237,2.006c3.78.58,7.151,1.235,9.747,1.892,2.7.684,4.485,1.354,5.164,1.938,5.955.923,11.985,1.706,17.817,2.464,10.042,1.3,20.425,2.653,30.327,4.721,5.325,1.112,10.113,2.342,14.637,3.758a111.14,111.14,0,0,1,14.127,5.452,10.008,10.008,0,0,1-.519,3.64,7.469,7.469,0,0,1-1.69,2.719,11.375,11.375,0,0,1-5.4,2.848A31.789,31.789,0,0,1,1011.412,860.005ZM213.587,850.39h0a60.888,60.888,0,0,1-10.262-.678c-2.843-.514-4.517-1.335-4.974-2.438-.4-.958.113-2.154,1.513-3.555a8.1,8.1,0,0,1-.482-3.442,5.623,5.623,0,0,1,1.03-2.724,10.1,10.1,0,0,1,4.545-3.219,32,32,0,0,1,7.054-1.795,118.244,118.244,0,0,1,16.96-.947c1.294,0,2.5.007,3.946.016h.218c1.269.008,2.319.015,3.326.015a55.059,55.059,0,0,0,5.749-.2c.111.005.242.008.4.008,1.4,0,4.294-.235,7.954-.532h.01c1.64-.133,3.5-.284,5.478-.435,5.462-.415,13.619-.967,21.36-.967,7.417,0,13.323.509,17.554,1.514a18.237,18.237,0,0,1,5.823,2.285,5.534,5.534,0,0,1,2.637,3.652,7.566,7.566,0,0,1-1.2,3.122,9.02,9.02,0,0,1-2.4,2.367,20.827,20.827,0,0,1-7.63,2.9c-6.085,1.26-13.738,1.366-21.139,1.468a121.021,121.021,0,0,0-15.878.846,4,4,0,0,0-.533-.026c-1.449,0-5.028.335-9.559.759h-.008c-2.057.192-4.388.41-6.827.626C231.525,849.6,221.645,850.39,213.587,850.39Zm1162.757-9.383a18.036,18.036,0,0,1-9.054-2.368,11.836,11.836,0,0,1-3.077-2.541,7.123,7.123,0,0,1-1.578-3.073,5.772,5.772,0,0,1,1.122-4.735,14.927,14.927,0,0,1,6.106-4.444l5.454-.713c25.651-3.361,52.174-6.836,77.489-6.836,8.114,0,15.552.345,22.742,1.055a34.782,34.782,0,0,0,.1,4.574c.585,8.36.585,8.36-57.436,14.521-10.633,1.129-22.684,2.408-37.411,4.022A18.61,18.61,0,0,1,1376.344,841.008Zm-304.635-7.518a85.01,85.01,0,0,1-14.15-.9,18.111,18.111,0,0,1-4.687-1.364,3.811,3.811,0,0,1-2.208-2.183c-.317-1.124.242-2.482,1.663-4.037a36.847,36.847,0,0,1,7.648-5.8,82.726,82.726,0,0,1,16.293-3.444,141.872,141.872,0,0,1,16.372-.814c4.121,0,8.245.108,12.234.212h.064c3.956.1,8.047.21,12.032.21a135.747,135.747,0,0,0,14.281-.645,75.39,75.39,0,0,0,13.845-2.673c1.207.273,2.32.473,3.4.666,3.03.543,5.423.973,6.43,2.532.638.988.7,2.365.209,4.334,1.216,2.048,1.38,3.88.488,5.447-.88,1.547-2.813,2.874-5.743,3.944a50.249,50.249,0,0,1-10.127,2.27,185.916,185.916,0,0,1-24.458,1.285c-3.625,0-6.853-.052-9.446-.094l-.146,0c-.979-.016-1.824-.029-2.579-.038-.279-.01-.609-.016-.981-.016-2.183,0-5.71.186-9.793.4h-.012l-.172.009c-.923.049-1.878.1-2.859.149C1083.9,833.207,1077.588,833.49,1071.708,833.49ZM410.876,806.474a42.87,42.87,0,0,1-9.555-.931,16.348,16.348,0,0,1-6.913-3.163c-1.009-.656-1.448-1.377-1.305-2.142,1.268-6.781,47.273-16.43,80.864-23.476h0c11.948-2.506,22.266-4.669,28.528-6.273a29.536,29.536,0,0,1,6.755,7.022,6.935,6.935,0,0,1,1.185,5.359c-.739,2.872-4.048,5.2-10.113,7.131a143.264,143.264,0,0,1-17.885,3.845l-.016,0c-4.475.77-8.7,1.5-11.776,2.352-2.487.022-8.168,1.356-15.36,3.045l-.012,0C442.293,802.3,424.512,806.474,410.876,806.474ZM19.944,803.4h0a18.027,18.027,0,0,1-9.051-2.368,11.831,11.831,0,0,1-3.075-2.54,7.122,7.122,0,0,1-1.577-3.072,5.772,5.772,0,0,1,1.122-4.736,14.927,14.927,0,0,1,6.107-4.444l4.94-.646.523-.069c25.64-3.359,52.153-6.833,77.46-6.833,8.007,0,15.664.356,22.758,1.057a34.715,34.715,0,0,0,.1,4.577c.586,8.354.586,8.354-57.431,14.513l-.272.029C50.915,800,38.867,801.276,24.4,802.861A18.611,18.611,0,0,1,19.944,803.4Zm653.672-7.017h0c-22.055,0-46-1.837-54.142-2.727.008-.083.02-.168.028-.225-7.793-2.843-11.528-5.51-11.1-7.928.25-1.416,1.934-2.738,5-3.93a59.964,59.964,0,0,1,11.256-2.8,183.728,183.728,0,0,1,28.254-2.24c6.4,0,11.2.426,13.184,1.168,1.628.145,3.313.216,5.151.216,4.514,0,9.105-.437,13.545-.86h.013l.085-.008h.005c4.4-.419,8.949-.852,13.3-.852a44.029,44.029,0,0,1,10.955,1.219,28.985,28.985,0,0,1,10.139,4.74,7.833,7.833,0,0,1,1.481,3.156,4.176,4.176,0,0,1-.383,2.681c-.8,1.57-2.677,2.941-5.582,4.076a51.427,51.427,0,0,1-10.7,2.579C696.442,795.8,686.184,796.383,673.616,796.383Zm575.482-8.412h0c-22.055,0-46.006-1.839-54.15-2.729.007-.056.015-.113.023-.168l.008-.056c-7.793-2.843-11.528-5.51-11.1-7.928.25-1.416,1.933-2.737,5-3.929a59.9,59.9,0,0,1,11.252-2.8,183.558,183.558,0,0,1,28.248-2.24c6.4,0,11.215.427,13.2,1.171,1.624.144,3.3.215,5.138.215,4.525,0,9.121-.439,13.567-.863l.086-.008h.005c4.4-.419,8.953-.853,13.3-.853A44.01,44.01,0,0,1,1284.628,769a28.99,28.99,0,0,1,10.137,4.74,7.834,7.834,0,0,1,1.481,3.157,4.18,4.18,0,0,1-.383,2.682c-.8,1.569-2.677,2.941-5.581,4.076a51.452,51.452,0,0,1-10.7,2.578C1271.922,787.385,1261.665,787.971,1249.1,787.971ZM832.545,775.033a85.088,85.088,0,0,1-14.155-.9,18.125,18.125,0,0,1-4.689-1.365,3.813,3.813,0,0,1-2.209-2.184c-.317-1.123.242-2.481,1.663-4.036a36.828,36.828,0,0,1,7.648-5.8,82.7,82.7,0,0,1,16.3-3.447,141.85,141.85,0,0,1,16.379-.815c4.115,0,8.239.107,12.226.211l.064,0h.028c3.949.1,8.034.209,12,.209a135.69,135.69,0,0,0,14.28-.645,75.359,75.359,0,0,0,13.843-2.672c1.2.271,2.311.471,3.39.665,3.034.545,5.43.975,6.436,2.536.637.988.7,2.364.207,4.33,1.216,2.048,1.381,3.881.489,5.448-.88,1.547-2.813,2.874-5.744,3.944a50.247,50.247,0,0,1-10.128,2.271,185.929,185.929,0,0,1-24.46,1.286c-3.574,0-6.792-.051-9.377-.093h-.067c-1.11-.018-1.955-.031-2.725-.04-.289-.01-.619-.016-.982-.016-2.185,0-5.715.186-9.8.4h-.014l-.648.034-2.366.123C844.729,774.75,838.415,775.033,832.545,775.033ZM1056.9,763.386h0c-9.755,0-24.175-3.312-38.121-6.515h-.005c-10.932-2.511-21.255-4.882-28.941-5.6a55.749,55.749,0,0,1-9.667-1.392,33.445,33.445,0,0,1-7.263-2.582,15.242,15.242,0,0,1-4.583-3.348,5.758,5.758,0,0,1-1.625-3.689c-.031-2.161,1.554-4.144,4.583-5.735a27.119,27.119,0,0,1,6.034-2.172,58.764,58.764,0,0,1,8.74-1.385c.844.452,6.534,1.669,14.41,3.354l.038.008c23.471,5.02,67.155,14.363,68.168,21.534a5.836,5.836,0,0,1-1.361,4.652,8.27,8.27,0,0,1-4.094,2.209A25.467,25.467,0,0,1,1056.9,763.386Zm-752.839-.744h0c-6.86,0-20.26-2.693-46.956-8.057l-.01,0c-12.116-2.434-27.194-5.464-45.571-9.022a47.011,47.011,0,0,1-7.521-2.144,35.364,35.364,0,0,1-6.046-2.926c-3.506-2.17-5.413-4.474-5.231-6.321.251-2.551,4.36-3.956,11.57-3.956a108.058,108.058,0,0,1,15.768,1.429c11.971,2.86,24.937,4.836,37.477,6.747,9.195,1.4,18.7,2.85,27.719,4.635a180.937,180.937,0,0,1,25.687,6.788c-.026,1.437,0,2.77.029,3.946v.008c.076,3.446.13,5.936-1.268,7.365C308.688,762.176,306.946,762.642,304.064,762.642Zm1107.474-.058c-9.758,0-24.185-3.315-38.137-6.521h-.005c-10.922-2.51-21.239-4.88-28.921-5.6a55.729,55.729,0,0,1-9.667-1.391,33.442,33.442,0,0,1-7.263-2.582,15.233,15.233,0,0,1-4.583-3.348,5.754,5.754,0,0,1-1.625-3.688c-.031-2.161,1.554-4.143,4.583-5.733a27.129,27.129,0,0,1,6.034-2.172,58.785,58.785,0,0,1,8.74-1.384c.847.453,6.55,1.672,14.443,3.36,23.472,5.019,67.157,14.361,68.173,21.533a5.837,5.837,0,0,1-1.363,4.652,8.268,8.268,0,0,1-4.1,2.21A25.461,25.461,0,0,1,1411.539,762.583ZM430.471,723.859h0c-22.049,0-46-1.838-54.148-2.728,0-.041.009-.081.014-.119s.01-.072.013-.109c-7.792-2.842-11.527-5.509-11.1-7.926.25-1.415,1.933-2.737,5-3.929a59.938,59.938,0,0,1,11.255-2.8A183.663,183.663,0,0,1,409.762,704c6.4,0,11.208.426,13.189,1.169,1.628.145,3.313.216,5.152.216,4.517,0,9.109-.437,13.551-.86h.006l.084-.008c4.4-.419,8.952-.853,13.3-.853A44.023,44.023,0,0,1,466,704.886a28.992,28.992,0,0,1,10.138,4.74,7.838,7.838,0,0,1,1.481,3.157,4.18,4.18,0,0,1-.383,2.682c-.8,1.57-2.677,2.941-5.582,4.076a51.444,51.444,0,0,1-10.7,2.579C453.3,723.274,443.039,723.859,430.471,723.859Zm214.395-5.376c-2.5,0-5.307-.23-8.857-.521l-.05,0c-2-.164-4.263-.349-6.761-.513-6.737-.5-13.63-.711-20.3-.916h-.014c-8.494-.26-17.276-.529-25.709-1.4-4.531-.469-8.61-1.071-12.47-1.841a92.783,92.783,0,0,1-12.053-3.209,16.592,16.592,0,0,1-2.8-5.358,5.362,5.362,0,0,1,.258-3.852c.829-1.633,2.737-2.846,5.671-3.607a41.723,41.723,0,0,1,10.1-1c9.47,0,20.9,1.7,28.467,2.83,1.942.289,3.617.539,4.917.708,1.432.4,6.822.443,13.646.5h.012c8.171.063,18.34.142,27.055.838a80.758,80.758,0,0,1,11.461,1.581c3.322.777,5.463,1.772,6.365,2.956a2.287,2.287,0,0,1,.421,2.065c-4.011,4.5-6.952,7.08-9.836,8.643a16.347,16.347,0,0,1-4.486,1.651A24.129,24.129,0,0,1,644.866,718.484Zm585-2.337h0a45.938,45.938,0,0,1-8.87-.663c-2.277-.478-3.583-1.225-3.88-2.221l3.027-8.4c1.487-1.475,5.518-3.081,11.981-4.772,5.667-1.483,13.142-3,21.617-4.391,7.886-1.293,16.174-2.405,23.967-3.217,7.846-.817,14.427-1.249,19.032-1.249,1.039,0,1.976.023,2.787.067l.391-.066c8.161-1.371,17.41-2.926,23.862-2.926a19.43,19.43,0,0,1,5.233.56,3.376,3.376,0,0,1,2.529,1.927,3.275,3.275,0,0,1-.29,2.333,13.6,13.6,0,0,1-2.294,3.29,77.839,77.839,0,0,1-11.752,9.946c-.094-.007-.208-.01-.337-.01-2.419,0-10.656,1.187-21.086,2.69l-.013,0c-4.7.678-10.037,1.446-15.529,2.205C1265.038,713.352,1243.276,716.147,1229.867,716.147Zm-133.987-22.629h0a60.91,60.91,0,0,1-10.262-.678c-2.843-.514-4.516-1.335-4.974-2.438-.4-.958.112-2.154,1.513-3.555a8.1,8.1,0,0,1-.483-3.441,5.617,5.617,0,0,1,1.03-2.724,10.093,10.093,0,0,1,4.542-3.217,31.974,31.974,0,0,1,7.05-1.794,118.065,118.065,0,0,1,16.954-.947c1.32,0,2.574.008,3.96.017h.2c1.13.008,2.3.015,3.366.015a54.878,54.878,0,0,0,5.732-.2c.112.005.245.008.393.008,1.4,0,4.289-.235,7.944-.533l.059,0c1.633-.133,3.483-.283,5.436-.432,5.466-.416,13.629-.969,21.37-.969,7.416,0,13.322.51,17.554,1.515a18.223,18.223,0,0,1,5.823,2.285,5.533,5.533,0,0,1,2.637,3.653,7.56,7.56,0,0,1-1.2,3.12,9.019,9.019,0,0,1-2.4,2.366,20.823,20.823,0,0,1-7.627,2.9c-6.083,1.259-13.734,1.365-21.134,1.467a120.87,120.87,0,0,0-15.887.848,3.956,3.956,0,0,0-.533-.027c-1.442,0-5.016.334-9.541.757l-.02,0c-1.942.182-4.358.408-6.834.626C1113.818,692.727,1103.938,693.518,1095.879,693.518Zm-292.995-6.576h0a205.855,205.855,0,0,1-26.244-2.054c-9.835-1.319-19.892-3.153-29.083-5.3a152.8,152.8,0,0,1-23.764-7.263,35.886,35.886,0,0,1-7.337-3.965c-1.823-1.371-2.815-2.708-2.948-3.973-.342-3.249,4.867-6.043,15.483-8.305,8.034,1.494,16.157,2.738,24.013,3.941h.008c8.834,1.353,17.969,2.751,26.809,4.488a213.216,213.216,0,0,1,26.144,6.683,55.493,55.493,0,0,1,10.7,6.922c2.064,1.867,2.947,3.474,2.623,4.775C818.622,685.54,812.952,686.942,802.884,686.942Zm597.706-3.872a18.033,18.033,0,0,1-9.051-2.367,11.829,11.829,0,0,1-3.076-2.539,7.12,7.12,0,0,1-1.577-3.072,5.772,5.772,0,0,1,1.122-4.735,14.931,14.931,0,0,1,6.107-4.445l4.811-.629.6-.079c25.661-3.362,52.2-6.839,77.517-6.839,8.117,0,15.559.345,22.749,1.055a34.7,34.7,0,0,0,.1,4.577c.588,8.354.588,8.354-57.432,14.513-10.655,1.131-22.731,2.413-37.413,4.021A18.627,18.627,0,0,1,1400.59,683.07ZM295.189,669.1h0a22.515,22.515,0,0,1-5-.514,13.648,13.648,0,0,1-4.218-1.694,10.982,10.982,0,0,1-3.229-3.1,14.274,14.274,0,0,1-2.035-4.737,88.446,88.446,0,0,1,14.561-7.519,166.113,166.113,0,0,1,17.044-5.9c11.989-3.513,25.177-6.329,37.93-9.052,11.782-2.516,23.964-5.116,34.776-8.2a21.173,21.173,0,0,1,5.823,5.086,5.882,5.882,0,0,1,1.248,4.493,6.315,6.315,0,0,1-1.536,2.978,14.978,14.978,0,0,1-3.252,2.7,48.334,48.334,0,0,1-10.284,4.621c-8.081,2.764-18.068,4.943-26.093,6.694l-.013,0c-5.7,1.244-10.626,2.319-13.226,3.25-3.554.551-8.456,2.218-14.131,4.147l-.007,0c-4.467,1.52-9.529,3.242-14.418,4.543A55.517,55.517,0,0,1,295.189,669.1Zm-172.115-.612h-.016a282.141,282.141,0,0,1-29.944-1.343,154.333,154.333,0,0,1-29.638-5.907c-1.168-1.482-1.465-2.843-.882-4.045.825-1.7,3.434-3.137,7.756-4.272A95.351,95.351,0,0,1,85.505,650.6c11.441-1,25.008-1.134,35.549-1.134,1.474,0,2.888,0,4.1,0h.151c1.1,0,2.357,0,3.449,0,1.907,0,4.04-.006,5.4-.052,3.619.363,7.376.547,11.165.547a134.31,134.31,0,0,0,17.205-1.156c5.247-.681,10.773-1.685,16.424-2.984,2.919,1.457,4.182,3.533,3.754,6.168a12.143,12.143,0,0,1-2.639,5.3,31.993,31.993,0,0,1-5.081,5.036c-3.747,3.019-8.053,5.367-10.471,5.711-1.21-.009-2.472-.014-3.749-.014-6.371,0-12.753.114-18.925.224l-.088,0h0C135.611,668.37,129.273,668.483,123.074,668.483Zm779.163-8.957h0a18.025,18.025,0,0,1-9.051-2.367,11.831,11.831,0,0,1-3.076-2.539,7.127,7.127,0,0,1-1.578-3.072,5.771,5.771,0,0,1,1.121-4.735,14.922,14.922,0,0,1,6.1-4.445l5.462-.714c25.644-3.36,52.161-6.834,77.465-6.834,8.008,0,15.665.356,22.759,1.057a34.769,34.769,0,0,0,.1,4.572c.585,8.358.585,8.358-57.461,14.52-10.686,1.134-22.8,2.42-37.386,4.018A18.6,18.6,0,0,1,902.237,659.526Zm279.4-20.021h0a41.833,41.833,0,0,1-10.715-1.9c-2.694-.316-5.337-.609-7.892-.892-8.99-1-17.481-1.938-25.873-3.588a116.551,116.551,0,0,1-25.358-7.843,43.463,43.463,0,0,1-11.885-3.427c-2.692-1.358-4.132-2.9-4.164-4.445a3.106,3.106,0,0,1,.749-1.99,8.263,8.263,0,0,1,2.362-1.915,33.965,33.965,0,0,1,9.767-3.286c18.6,1.033,36.574,4.733,53.96,8.312l.011,0c10.454,2.151,21.263,4.376,31.947,5.953a56.669,56.669,0,0,1-2.276,6.912,18.42,18.42,0,0,1-2.662,4.656C1187.638,638.44,1185.179,639.5,1181.641,639.5Zm94.245-21.45h0a42.865,42.865,0,0,1-9.558-.932,16.352,16.352,0,0,1-6.914-3.163c-1.009-.656-1.448-1.377-1.3-2.142,1.269-6.784,47.292-16.436,80.9-23.484l.014,0c11.929-2.5,22.232-4.663,28.484-6.263a29.539,29.539,0,0,1,6.755,7.022,6.934,6.934,0,0,1,1.185,5.359c-.739,2.871-4.046,5.2-10.109,7.128a143.19,143.19,0,0,1-17.867,3.843l-.012,0c-4.483.771-8.717,1.5-11.8,2.357-2.488.021-8.172,1.357-15.37,3.047l-.01,0C1307.3,613.878,1289.52,618.055,1275.886,618.055Zm-714.69-1.86h0c-8.826,0-20.368-2.28-30.551-4.291-5.448-1.076-10.593-2.092-15-2.713-7.317-1.68-14.994-2.766-22.418-3.816h-.005a243.711,243.711,0,0,1-24.31-4.277,89.744,89.744,0,0,1-11.49-3.617,63.4,63.4,0,0,1-10.715-5.4c-1.818-1.767-2.489-3.279-2-4.494,1.229-3.028,9.31-3.663,15.872-3.663a170.811,170.811,0,0,1,24.238,2.006c3.78.581,7.151,1.235,9.747,1.893,2.7.684,4.484,1.354,5.163,1.939,5.948.922,11.969,1.7,17.791,2.459h.007c10.043,1.3,20.429,2.653,30.332,4.721,5.325,1.112,10.115,2.341,14.643,3.758a111.26,111.26,0,0,1,14.133,5.451,10.012,10.012,0,0,1-.519,3.64,7.471,7.471,0,0,1-1.69,2.719,11.374,11.374,0,0,1-5.4,2.849A31.8,31.8,0,0,1,561.2,616.195Zm130.943-29.583c-22.051,0-45.994-1.837-54.135-2.727l0-.029c.009-.067.017-.132.023-.2-7.792-2.842-11.527-5.51-11.1-7.928.25-1.416,1.934-2.738,5-3.93A59.935,59.935,0,0,1,643.19,569a183.662,183.662,0,0,1,28.254-2.24c6.4,0,11.207.426,13.188,1.169,1.629.145,3.314.216,5.152.216,4.518,0,9.108-.437,13.548-.86h.012l.08-.008c4.4-.42,8.958-.854,13.312-.854a44.008,44.008,0,0,1,10.951,1.219,28.984,28.984,0,0,1,10.135,4.738,7.838,7.838,0,0,1,1.481,3.157,4.179,4.179,0,0,1-.383,2.682c-.8,1.57-2.678,2.942-5.583,4.077a51.467,51.467,0,0,1-10.7,2.579C714.971,586.026,704.711,586.612,692.138,586.612Zm-360.2-2.089h0a267.152,267.152,0,0,1-35.385-5.286c-11.7-2.465-23.476-5.493-34.86-8.421h0c-12.924-3.324-26.285-6.76-39.285-9.29-6.629-3.541-9.7-6.476-9.142-8.725a3.565,3.565,0,0,1,1.95-2.094,15.613,15.613,0,0,1,4.111-1.386,59.743,59.743,0,0,1,11.705-1,70.264,70.264,0,0,1,13.241,1.108c22.307,2.22,43.271,8.23,63.545,14.042,5.632,1.615,11.456,3.284,17.175,4.831l-.1.252a46.285,46.285,0,0,1,9.466,2.047c2.7.992,4.219,2.221,4.639,3.756.332,1.213-.045,2.642-1.12,4.248a28.549,28.549,0,0,1-5.941,5.921Zm599.457-5.666h0c-.569-.115-2.893-.361-6.41-.733-10.858-1.148-33.45-3.535-54.219-7.314-25.68-4.672-40.239-9.94-43.274-15.658a4.756,4.756,0,0,1,.053-4.7l.052-.01c1.225-.226,2.493-.46,2.927-1.226a1.548,1.548,0,0,0,0-1.351,7.789,7.789,0,0,1,3.312-.614c1.668-.068,3.242-.132,4.085-1.653,2.471,2.269,18.853,4.776,37.821,7.679h.005c14.905,2.282,31.8,4.867,44.879,7.8,15.062,3.373,22.515,6.638,22.785,9.98.1,1.233-.8,2.495-2.681,3.751A39.618,39.618,0,0,1,931.393,578.856ZM25.629,569.031h0a22.511,22.511,0,0,1-5-.515,13.65,13.65,0,0,1-4.218-1.695,10.986,10.986,0,0,1-3.23-3.1,14.277,14.277,0,0,1-2.035-4.737,88.445,88.445,0,0,1,14.56-7.518,166.029,166.029,0,0,1,17.042-5.9c11.991-3.513,25.177-6.328,37.929-9.05h.005c11.78-2.515,23.961-5.115,34.774-8.2a21.167,21.167,0,0,1,5.822,5.087,5.883,5.883,0,0,1,1.248,4.493,6.32,6.32,0,0,1-1.536,2.978,14.976,14.976,0,0,1-3.252,2.695,48.3,48.3,0,0,1-10.281,4.619c-8.075,2.762-18.061,4.94-26.084,6.69h0c-5.709,1.245-10.64,2.321-13.244,3.253-3.557.552-8.462,2.22-14.14,4.152l-.019.007c-4.463,1.518-9.522,3.239-14.4,4.536A55.516,55.516,0,0,1,25.629,569.031Zm989.843-1.823a18.031,18.031,0,0,1-9.051-2.367,11.834,11.834,0,0,1-3.076-2.54,7.122,7.122,0,0,1-1.577-3.072,5.772,5.772,0,0,1,1.122-4.735,14.927,14.927,0,0,1,6.105-4.445l4.854-.635.61-.08c25.644-3.359,52.16-6.833,77.464-6.833,8.121,0,15.565.346,22.756,1.057a34.679,34.679,0,0,0,.1,4.576c.586,8.352.586,8.352-57.428,14.512l-.071.008c-10.683,1.134-22.791,2.42-37.345,4.015A18.633,18.633,0,0,1,1015.472,567.208Zm420.977-32.618h0a267.176,267.176,0,0,1-35.378-5.284c-11.7-2.464-23.468-5.49-34.849-8.417l-.009,0c-12.926-3.324-26.291-6.761-39.3-9.291-6.63-3.543-9.707-6.479-9.144-8.728a3.567,3.567,0,0,1,1.951-2.094,15.625,15.625,0,0,1,4.112-1.386,59.748,59.748,0,0,1,11.706-1,70.25,70.25,0,0,1,13.238,1.108c22.3,2.219,43.251,8.225,63.516,14.034l.017.005c5.638,1.616,11.467,3.287,17.187,4.834l-.089.253a46.267,46.267,0,0,1,9.464,2.047c2.7.992,4.218,2.22,4.639,3.756.332,1.213-.045,2.642-1.121,4.248a28.56,28.56,0,0,1-5.943,5.921ZM637.806,516.7h0c-6.86,0-20.265-2.694-46.972-8.061h-.006l-.022,0c-12.113-2.434-27.188-5.463-45.532-9.016a47,47,0,0,1-7.521-2.143,35.358,35.358,0,0,1-6.046-2.926c-3.507-2.17-5.414-4.474-5.232-6.322.25-2.552,4.36-3.957,11.573-3.957a108.015,108.015,0,0,1,15.767,1.429c11.968,2.859,24.935,4.836,37.475,6.747,9.2,1.4,18.7,2.85,27.719,4.635a180.925,180.925,0,0,1,25.685,6.788c-.026,1.447,0,2.778.029,3.952.075,3.447.13,5.937-1.269,7.367C642.43,516.235,640.688,516.7,637.806,516.7Zm-215.832-.913a282.029,282.029,0,0,1-29.945-1.344,154.344,154.344,0,0,1-29.639-5.908c-1.168-1.482-1.464-2.842-.881-4.044.824-1.7,3.427-3.133,7.737-4.267a95.032,95.032,0,0,1,15.118-2.313c11.443-1.008,24.987-1.137,35.508-1.137,1.5,0,2.9,0,4.208,0h.308c1.076,0,2.3,0,3.361,0,1.878,0,3.978-.006,5.319-.051,3.617.362,7.374.546,11.166.546a134.385,134.385,0,0,0,17.2-1.155c5.251-.681,10.777-1.685,16.423-2.984,2.92,1.458,4.183,3.533,3.756,6.168a12.137,12.137,0,0,1-2.639,5.3,31.992,31.992,0,0,1-5.08,5.035c-3.746,3.018-8.052,5.365-10.471,5.709-1.187-.009-2.431-.013-3.7-.013-6.384,0-12.773.114-18.952.225l-.081,0C434.545,515.675,428.188,515.789,421.974,515.789Zm755.354-.6h-.006a85.067,85.067,0,0,1-14.15-.9,18.116,18.116,0,0,1-4.687-1.364,3.811,3.811,0,0,1-2.208-2.183c-.317-1.123.242-2.481,1.663-4.036a36.84,36.84,0,0,1,7.648-5.8,82.715,82.715,0,0,1,16.3-3.448,141.9,141.9,0,0,1,16.381-.815c4.115,0,8.235.107,12.22.211l.063,0h.006c3.956.1,8.047.21,12.025.21a135.752,135.752,0,0,0,14.281-.645,75.336,75.336,0,0,0,13.844-2.674c1.2.272,2.317.473,3.4.668,3.03.544,5.422.974,6.427,2.532.638.988.7,2.364.208,4.331,1.216,2.048,1.381,3.881.489,5.448-.881,1.547-2.813,2.874-5.742,3.944a50.241,50.241,0,0,1-10.126,2.27,185.871,185.871,0,0,1-24.456,1.286c-3.593,0-6.824-.052-9.42-.094h-.037q-1.526-.025-2.719-.04c-.283-.01-.613-.016-.98-.016-2.172,0-5.675.184-9.731.4l-.031,0-.115.006-2.957.154C1189.511,514.906,1183.194,515.189,1177.327,515.189ZM764.213,492.829h0c-22.028,0-45.99-1.836-54.143-2.725l.016-.114.016-.114c-7.793-2.843-11.529-5.51-11.1-7.928.25-1.415,1.933-2.737,5-3.929a59.919,59.919,0,0,1,11.253-2.8,183.647,183.647,0,0,1,28.249-2.239c6.4,0,11.212.426,13.192,1.17,1.628.145,3.313.216,5.151.216,4.517,0,9.115-.438,13.562-.862l.084-.008c4.4-.42,8.955-.854,13.31-.854a44.015,44.015,0,0,1,10.951,1.218,28.977,28.977,0,0,1,10.135,4.738,7.838,7.838,0,0,1,1.481,3.157,4.178,4.178,0,0,1-.383,2.682c-.8,1.57-2.677,2.941-5.582,4.076a51.439,51.439,0,0,1-10.7,2.579C787.041,492.244,776.783,492.829,764.213,492.829ZM219.779,475.395h0a45.936,45.936,0,0,1-8.872-.663c-2.278-.478-3.584-1.225-3.88-2.221l3.024-8.4c1.486-1.475,5.516-3.08,11.978-4.772,5.665-1.483,13.138-3,21.611-4.392,7.883-1.293,16.169-2.405,23.964-3.217,7.845-.817,14.427-1.249,19.035-1.249,1.042,0,1.982.023,2.8.068l.394-.066c8.159-1.371,17.407-2.924,23.859-2.924a19.432,19.432,0,0,1,5.233.56,3.377,3.377,0,0,1,2.529,1.927,3.275,3.275,0,0,1-.29,2.333,13.589,13.589,0,0,1-2.293,3.29,77.788,77.788,0,0,1-11.75,9.945c-.095-.007-.208-.01-.337-.01-2.416,0-10.657,1.187-21.09,2.689h-.007c-4.686.675-10,1.44-15.532,2.205C254.948,472.6,233.186,475.395,219.779,475.395ZM65.256,472.712h0c-22.051,0-46-1.838-54.148-2.728.005-.039.01-.077.013-.113l0-.019c0-.031.007-.062.011-.093-7.792-2.843-11.527-5.51-11.1-7.928.25-1.415,1.933-2.737,5-3.929a59.88,59.88,0,0,1,11.251-2.8,183.574,183.574,0,0,1,28.247-2.24c6.407,0,11.218.427,13.2,1.171,1.629.145,3.313.215,5.149.215,4.516,0,9.116-.438,13.564-.862l.083-.008c4.4-.42,8.955-.854,13.31-.854a44.014,44.014,0,0,1,10.951,1.218,28.988,28.988,0,0,1,10.135,4.738,7.841,7.841,0,0,1,1.481,3.157,4.18,4.18,0,0,1-.383,2.682c-.8,1.57-2.677,2.941-5.582,4.076a51.444,51.444,0,0,1-10.7,2.579C88.081,472.126,77.823,472.712,65.256,472.712Zm913.357-.168h0c-2.5,0-5.3-.229-8.851-.519l-.023,0c-2.007-.164-4.282-.35-6.794-.515-6.741-.5-13.636-.712-20.3-.917-8.5-.261-17.287-.53-25.714-1.4-4.533-.469-8.612-1.071-12.471-1.841a92.778,92.778,0,0,1-12.054-3.209,16.6,16.6,0,0,1-2.8-5.359,5.363,5.363,0,0,1,.259-3.852c.83-1.633,2.738-2.847,5.671-3.608a41.7,41.7,0,0,1,10.1-1c9.471,0,20.9,1.7,28.467,2.83,1.939.289,3.613.538,4.915.707,1.433.4,6.823.443,13.646.5h.005c8.175.064,18.348.143,27.068.839a80.756,80.756,0,0,1,11.461,1.582c3.322.777,5.463,1.772,6.365,2.956a2.286,2.286,0,0,1,.421,2.064c-4.013,4.5-6.955,7.081-9.84,8.644a16.35,16.35,0,0,1-4.486,1.651A24.128,24.128,0,0,1,978.612,472.544Zm145.507-11.585h0c-9.759,0-24.183-3.314-38.133-6.519-10.929-2.511-21.249-4.881-28.934-5.6a55.727,55.727,0,0,1-9.667-1.391,33.443,33.443,0,0,1-7.263-2.581,15.232,15.232,0,0,1-4.583-3.347,5.755,5.755,0,0,1-1.625-3.689c-.031-2.161,1.554-4.143,4.583-5.733a27.118,27.118,0,0,1,6.034-2.172,58.728,58.728,0,0,1,8.74-1.384c.844.452,6.538,1.669,14.419,3.353,23.479,5.019,67.183,14.363,68.2,21.54a5.836,5.836,0,0,1-1.362,4.651,8.27,8.27,0,0,1-4.094,2.209A25.462,25.462,0,0,1,1124.12,460.959Zm-667.3-28.473a282.089,282.089,0,0,1-29.95-1.344,154.3,154.3,0,0,1-29.642-5.909c-1.168-1.482-1.464-2.842-.881-4.045.824-1.7,3.427-3.133,7.738-4.267a95.062,95.062,0,0,1,15.12-2.312c11.44-1.008,24.987-1.137,35.51-1.137,1.5,0,2.9,0,4.2,0h.251c1.095,0,2.336,0,3.418,0,1.877,0,3.976-.006,5.32-.051,3.616.362,7.37.545,11.158.545a134.461,134.461,0,0,0,17.207-1.155c5.25-.681,10.777-1.685,16.427-2.983,2.919,1.457,4.182,3.531,3.755,6.165a12.136,12.136,0,0,1-2.638,5.3,32,32,0,0,1-5.081,5.036c-3.746,3.019-8.052,5.368-10.47,5.713-1.209-.009-2.469-.014-3.745-.014-6.368,0-12.753.114-18.928.224h-.051C469.386,432.372,463.03,432.486,456.816,432.486Zm873.406-.541h0a45.934,45.934,0,0,1-8.87-.663c-2.277-.477-3.582-1.225-3.879-2.221l3.021-8.4c1.487-1.474,5.518-3.079,11.982-4.771,5.669-1.483,13.145-3,21.619-4.391,7.886-1.293,16.174-2.406,23.969-3.218,7.846-.817,14.427-1.249,19.031-1.249,1.036,0,1.973.023,2.783.067l.413-.069c8.153-1.368,17.394-2.919,23.84-2.919a19.429,19.429,0,0,1,5.234.56,3.377,3.377,0,0,1,2.529,1.927,3.276,3.276,0,0,1-.29,2.333,13.6,13.6,0,0,1-2.293,3.29,77.833,77.833,0,0,1-11.75,9.944c-.094-.007-.208-.01-.337-.01-2.415,0-10.653,1.187-21.082,2.689h-.008c-4.695.676-10.016,1.443-15.538,2.207C1365.391,429.151,1343.629,431.945,1330.222,431.945Zm-701.285-2.162h0a22.509,22.509,0,0,1-5-.514,13.636,13.636,0,0,1-4.218-1.695,10.979,10.979,0,0,1-3.229-3.1,14.273,14.273,0,0,1-2.033-4.738,88.422,88.422,0,0,1,14.558-7.517,166.055,166.055,0,0,1,17.039-5.9c11.988-3.513,25.173-6.328,37.923-9.05,11.784-2.516,23.97-5.117,34.791-8.206a21.176,21.176,0,0,1,5.823,5.089,5.885,5.885,0,0,1,1.248,4.494,6.32,6.32,0,0,1-1.536,2.978,14.983,14.983,0,0,1-3.252,2.7,48.3,48.3,0,0,1-10.283,4.62c-8.08,2.764-18.066,4.941-26.091,6.691l-.013,0c-5.7,1.244-10.627,2.318-13.227,3.249-3.557.552-8.461,2.22-14.139,4.151l-.01,0c-4.467,1.519-9.529,3.241-14.409,4.54A55.5,55.5,0,0,1,628.937,429.783Zm274.3-8.717h0a205.833,205.833,0,0,1-26.244-2.053c-9.832-1.318-19.889-3.152-29.083-5.3a152.728,152.728,0,0,1-23.764-7.263,35.9,35.9,0,0,1-7.338-3.966c-1.823-1.371-2.815-2.708-2.948-3.974-.342-3.25,4.866-6.045,15.482-8.308,8.039,1.5,16.167,2.741,24.028,3.945,8.833,1.353,17.968,2.752,26.81,4.489a213.315,213.315,0,0,1,26.136,6.682,55.525,55.525,0,0,1,10.7,6.921c2.064,1.867,2.947,3.474,2.623,4.774C918.972,419.664,913.3,421.066,903.235,421.066Zm293-7.034a60.92,60.92,0,0,1-10.265-.678c-2.845-.515-4.519-1.335-4.976-2.439-.4-.958.112-2.154,1.513-3.555a8.1,8.1,0,0,1-.482-3.441,5.615,5.615,0,0,1,1.03-2.724,10.093,10.093,0,0,1,4.541-3.217,31.958,31.958,0,0,1,7.048-1.794,118.027,118.027,0,0,1,16.95-.947c1.342,0,2.589.007,3.965.017h.205c1.129.008,2.3.015,3.363.015a54.885,54.885,0,0,0,5.731-.2c.113.005.245.008.394.008,1.4,0,4.284-.235,7.938-.532h.006c1.642-.134,3.5-.285,5.5-.437,5.465-.416,13.626-.969,21.373-.969,7.414,0,13.32.509,17.552,1.514a18.22,18.22,0,0,1,5.823,2.285,5.532,5.532,0,0,1,2.637,3.651,7.574,7.574,0,0,1-1.2,3.122,9.025,9.025,0,0,1-2.4,2.367,20.825,20.825,0,0,1-7.631,2.9c-6.085,1.26-13.738,1.365-21.139,1.467h-.005a120.934,120.934,0,0,0-15.876.846,3.929,3.929,0,0,0-.529-.026c-1.44,0-5.018.335-9.549.758h-.007l-.092.009c-2.031.19-4.334.405-6.738.618C1214.183,413.241,1204.3,414.031,1196.238,414.031Zm-1083-11.038a60.954,60.954,0,0,1-10.266-.678c-2.845-.514-4.519-1.335-4.977-2.439-.4-.958.112-2.154,1.513-3.555a8.1,8.1,0,0,1-.482-3.44,5.619,5.619,0,0,1,1.03-2.723,10.092,10.092,0,0,1,4.54-3.216,31.96,31.96,0,0,1,7.046-1.794,117.955,117.955,0,0,1,16.947-.948c1.32,0,2.58.008,3.972.017h.177c1.148.008,2.335.016,3.413.016a54.516,54.516,0,0,0,5.708-.2c.112.005.245.008.394.008,1.4,0,4.284-.235,7.939-.532h.009c1.641-.134,3.5-.285,5.493-.436,5.467-.416,13.63-.969,21.374-.969,7.414,0,13.319.509,17.55,1.514a18.219,18.219,0,0,1,5.822,2.285,5.534,5.534,0,0,1,2.637,3.651,7.571,7.571,0,0,1-1.2,3.122,9.025,9.025,0,0,1-2.4,2.367,20.81,20.81,0,0,1-7.628,2.9c-6.085,1.26-13.736,1.365-21.135,1.467h0a120.761,120.761,0,0,0-15.881.847,3.953,3.953,0,0,0-.534-.026c-1.445,0-5.026.334-9.559.758-1.941.181-4.356.407-6.832.626C131.18,402.2,121.3,402.993,113.24,402.993Zm889.353-35.95h0a18.035,18.035,0,0,1-9.055-2.368,11.839,11.839,0,0,1-3.077-2.54,7.127,7.127,0,0,1-1.578-3.072,5.771,5.771,0,0,1,1.122-4.735,14.927,14.927,0,0,1,6.106-4.443l5.436-.712c25.654-3.363,52.179-6.84,77.491-6.84,8.007,0,15.664.356,22.758,1.057a34.74,34.74,0,0,0,.1,4.577c.586,8.355.586,8.355-57.436,14.515l-.168.018c-10.656,1.132-22.733,2.414-37.239,4A18.6,18.6,0,0,1,1002.593,367.043Zm-692.071-7.964h0a42.851,42.851,0,0,1-9.555-.931,16.353,16.353,0,0,1-6.913-3.162c-1.009-.656-1.448-1.377-1.3-2.142,1.269-6.784,47.3-16.437,80.9-23.485h0l.023,0c11.921-2.5,22.217-4.659,28.466-6.259a29.532,29.532,0,0,1,6.755,7.021,6.933,6.933,0,0,1,1.185,5.358c-.739,2.872-4.047,5.2-10.114,7.131a143.277,143.277,0,0,1-17.885,3.846c-4.481.771-8.713,1.5-11.789,2.355-2.49.021-8.18,1.358-15.384,3.05C341.933,354.9,324.155,359.079,310.522,359.079Zm317.2-12.8h0c-8.826,0-20.366-2.28-30.548-4.291h-.005c-5.448-1.076-10.594-2.093-15-2.713-7.606-1.747-15.313-2.819-22.766-3.855h-.005c-7.559-1.051-15.376-2.138-22.832-3.918a95.292,95.292,0,0,1-11.031-3.3,72.673,72.673,0,0,1-10.668-4.92c-3.009-2.229-4.291-4.1-3.811-5.548.416-1.262,2.157-2.215,5.174-2.833a56.59,56.59,0,0,1,10.85-.831,175.747,175.747,0,0,1,24.452,1.964c3.813.573,7.178,1.22,9.734,1.87,2.674.681,4.4,1.352,4.986,1.942,5.961.925,12,1.709,17.836,2.468,10.037,1.3,20.416,2.653,30.317,4.721,5.323,1.112,10.109,2.341,14.633,3.757a111.136,111.136,0,0,1,14.123,5.449,10.012,10.012,0,0,1-.52,3.64,7.466,7.466,0,0,1-1.691,2.72,11.372,11.372,0,0,1-5.4,2.848A31.779,31.779,0,0,1,627.718,346.278Zm730.641-.573a22.536,22.536,0,0,1-5-.515,13.646,13.646,0,0,1-4.218-1.694,10.979,10.979,0,0,1-3.228-3.1,14.279,14.279,0,0,1-2.033-4.738,88.424,88.424,0,0,1,14.557-7.517,166.013,166.013,0,0,1,17.039-5.9c11.985-3.512,25.169-6.327,37.919-9.049h.01c11.784-2.516,23.969-5.118,34.784-8.2a21.171,21.171,0,0,1,5.823,5.088,5.884,5.884,0,0,1,1.248,4.493,6.319,6.319,0,0,1-1.536,2.978,14.97,14.97,0,0,1-3.252,2.7,48.321,48.321,0,0,1-10.282,4.62c-8.075,2.762-18.06,4.941-26.082,6.691l-.007,0c-5.708,1.245-10.637,2.32-13.24,3.253-3.559.551-8.466,2.22-14.148,4.152-4.468,1.52-9.531,3.242-14.417,4.542a55.508,55.508,0,0,1-13.934,2.21h0Zm-85.124-5.045a41.8,41.8,0,0,1-10.71-1.9c-2.666-.313-5.3-.6-7.846-.887l-.039,0c-8.993-1-17.486-1.939-25.878-3.588a116.557,116.557,0,0,1-25.36-7.844,43.45,43.45,0,0,1-11.885-3.428c-2.693-1.359-4.133-2.9-4.165-4.446a3.107,3.107,0,0,1,.749-1.99,8.265,8.265,0,0,1,2.362-1.915,33.957,33.957,0,0,1,9.768-3.286c18.587,1.036,36.556,4.733,53.935,8.31h0c10.464,2.153,21.283,4.38,31.976,5.957a56.732,56.732,0,0,1-2.277,6.913,18.415,18.415,0,0,1-2.663,4.657C1279.232,339.595,1276.773,340.66,1273.234,340.66ZM190.243,329.624h0a41.772,41.772,0,0,1-10.711-1.9c-2.669-.313-5.306-.605-7.856-.888l-.039,0c-8.992-1-17.485-1.939-25.876-3.588A116.628,116.628,0,0,1,120.4,315.4a43.433,43.433,0,0,1-11.883-3.427c-2.692-1.359-4.132-2.9-4.164-4.446a3.106,3.106,0,0,1,.749-1.99,8.256,8.256,0,0,1,2.362-1.915,33.954,33.954,0,0,1,9.766-3.286c18.6,1.034,36.58,4.735,53.97,8.314,10.454,2.151,21.264,4.376,31.949,5.953a56.633,56.633,0,0,1-2.275,6.913,18.423,18.423,0,0,1-2.662,4.657C196.239,328.559,193.781,329.624,190.243,329.624ZM792.5,302.41h0c-22.059,0-46-1.838-54.139-2.727.005-.038.01-.077.014-.114l0-.021c0-.031.007-.063.011-.093-7.792-2.842-11.527-5.509-11.1-7.926.25-1.415,1.933-2.737,5-3.928a59.907,59.907,0,0,1,11.251-2.8,183.62,183.62,0,0,1,28.248-2.24c6.406,0,11.216.427,13.2,1.171,1.625.144,3.307.215,5.142.215,4.526,0,9.121-.438,13.564-.862l.088-.008h0c4.4-.419,8.951-.853,13.3-.853a44.024,44.024,0,0,1,10.954,1.219,28.99,28.99,0,0,1,10.138,4.739,7.834,7.834,0,0,1,1.481,3.156,4.178,4.178,0,0,1-.383,2.682c-.8,1.57-2.677,2.941-5.583,4.076a51.458,51.458,0,0,1-10.7,2.579C815.327,301.824,805.067,302.41,792.5,302.41Zm239.247-7.752h0c-.572-.116-2.92-.364-6.473-.74h-.008c-10.865-1.15-33.471-3.543-54.216-7.321-25.638-4.669-40.176-9.933-43.207-15.645a4.756,4.756,0,0,1,.053-4.7l.059-.011c1.222-.225,2.486-.458,2.919-1.223a1.552,1.552,0,0,0,0-1.353,7.814,7.814,0,0,1,3.315-.614c1.666-.068,3.24-.132,4.083-1.653,2.472,2.27,18.857,4.778,37.828,7.682,14.905,2.281,31.8,4.867,44.881,7.8,15.06,3.373,22.512,6.637,22.782,9.979.1,1.233-.8,2.495-2.68,3.752A39.632,39.632,0,0,1,1031.743,294.658Zm-605.387-.818h0a267.333,267.333,0,0,1-35.373-5.285c-11.707-2.466-23.474-5.491-34.853-8.418l-.011,0c-12.926-3.323-26.291-6.76-39.3-9.289-6.63-3.542-9.706-6.478-9.143-8.727a3.566,3.566,0,0,1,1.952-2.095,15.623,15.623,0,0,1,4.114-1.386,59.806,59.806,0,0,1,11.712-1,70.283,70.283,0,0,1,13.231,1.106c22.3,2.219,43.264,8.229,63.536,14.041,5.633,1.615,11.458,3.285,17.184,4.834l-.092.253a46.265,46.265,0,0,1,9.465,2.047c2.7.992,4.219,2.221,4.639,3.756.332,1.213-.045,2.642-1.121,4.248a28.565,28.565,0,0,1-5.943,5.921Zm675.867-23.185h0a18.038,18.038,0,0,1-9.055-2.368,11.842,11.842,0,0,1-3.077-2.54,7.119,7.119,0,0,1-1.577-3.072,5.771,5.771,0,0,1,1.122-4.735,14.928,14.928,0,0,1,6.106-4.443l4.875-.638.517-.068c25.67-3.365,52.214-6.844,77.543-6.844,8.118,0,15.559.345,22.75,1.055a34.72,34.72,0,0,0,.1,4.575c.585,8.356.585,8.356-57.434,14.517l-.028,0c-10.692,1.135-22.811,2.422-37.382,4.019A18.621,18.621,0,0,1,1102.223,270.655Zm-1083-11.036a18.038,18.038,0,0,1-9.054-2.368,11.831,11.831,0,0,1-3.077-2.54,7.122,7.122,0,0,1-1.578-3.073A5.77,5.77,0,0,1,6.638,246.9a14.922,14.922,0,0,1,6.1-4.442l4.891-.64.53-.069c25.66-3.364,52.191-6.842,77.509-6.842,8.119,0,15.562.346,22.756,1.057a34.7,34.7,0,0,0,.1,4.575c.585,8.354.585,8.354-57.4,14.512l-.026,0c-10.7,1.137-22.832,2.425-37.421,4.024A18.64,18.64,0,0,1,19.224,259.619Zm1247.423-14.727h-.006a85.063,85.063,0,0,1-14.152-.9,18.127,18.127,0,0,1-4.689-1.365,3.812,3.812,0,0,1-2.209-2.184c-.317-1.123.242-2.481,1.663-4.036a36.841,36.841,0,0,1,7.647-5.8,82.7,82.7,0,0,1,16.3-3.447,141.906,141.906,0,0,1,16.378-.815c4.1,0,8.22.107,12.2.211h.024l.065,0h.006c3.956.1,8.047.21,12.024.21a135.761,135.761,0,0,0,14.28-.645,75.349,75.349,0,0,0,13.844-2.673c1.2.272,2.317.473,3.4.667h0c3.029.545,5.42.974,6.425,2.532.637.988.7,2.364.206,4.33,1.216,2.048,1.381,3.881.489,5.449-.881,1.547-2.813,2.874-5.743,3.944a50.26,50.26,0,0,1-10.127,2.27,185.864,185.864,0,0,1-24.457,1.286c-3.6,0-6.841-.052-9.443-.094h-.033c-1.026-.016-1.913-.031-2.7-.04-.284-.011-.613-.016-.98-.016-2.172,0-5.675.184-9.731.4l-.03,0-.115.006-2.956.154C1278.83,244.61,1272.518,244.892,1266.648,244.892Zm-733.9-1.98a282.432,282.432,0,0,1-29.954-1.343,154.44,154.44,0,0,1-29.648-5.906c-1.168-1.482-1.465-2.844-.882-4.046.824-1.7,3.428-3.134,7.739-4.268a95.049,95.049,0,0,1,15.121-2.313c11.443-1.008,24.989-1.137,35.511-1.137,1.5,0,2.9,0,4.2,0h.492c1.137,0,2.211,0,3.195,0,1.866,0,3.954-.006,5.3-.051,3.618.362,7.375.546,11.165.546a134.4,134.4,0,0,0,17.2-1.155c5.25-.681,10.776-1.685,16.426-2.984,2.918,1.457,4.181,3.531,3.754,6.165a12.136,12.136,0,0,1-2.638,5.3,31.993,31.993,0,0,1-5.081,5.036c-3.746,3.019-8.053,5.368-10.472,5.713-1.211-.009-2.472-.014-3.75-.014-6.382,0-12.754.114-18.917.224l-.12,0h-.006C545.266,242.8,538.938,242.912,532.749,242.912Zm-349.108-9.059a85.066,85.066,0,0,1-14.152-.9,18.119,18.119,0,0,1-4.688-1.364,3.811,3.811,0,0,1-2.209-2.183c-.317-1.123.242-2.481,1.663-4.036a36.837,36.837,0,0,1,7.647-5.8,82.726,82.726,0,0,1,16.3-3.448,141.915,141.915,0,0,1,16.382-.815c4.115,0,8.235.107,12.22.211l.063,0h.006c3.956.1,8.047.21,12.024.21a135.741,135.741,0,0,0,14.28-.645,75.343,75.343,0,0,0,13.844-2.674c1.194.271,2.307.471,3.383.665l.014,0c3.031.545,5.424.976,6.431,2.535.638.988.7,2.365.209,4.332,1.216,2.047,1.38,3.88.488,5.447-.881,1.547-2.813,2.874-5.743,3.944a50.27,50.27,0,0,1-10.128,2.27,185.944,185.944,0,0,1-24.459,1.285c-3.611,0-6.846-.052-9.446-.094l-.153,0c-.976-.016-1.819-.029-2.572-.038-.284-.01-.613-.016-.98-.016-2.173,0-5.676.184-9.733.4h-.03l-.1.005c-.958.05-1.952.1-2.973.155C195.828,233.571,189.512,233.854,183.641,233.854Zm554.52-1.353h0c-6.86,0-20.262-2.694-46.963-8.059l-.01,0-.047-.01c-12.11-2.433-27.181-5.462-45.516-9.013a47,47,0,0,1-7.52-2.143,35.372,35.372,0,0,1-6.045-2.925c-3.505-2.17-5.412-4.474-5.231-6.321.25-2.552,4.361-3.957,11.573-3.957a108.028,108.028,0,0,1,15.763,1.427c11.969,2.859,24.934,4.835,37.472,6.745h.007c9.2,1.4,18.708,2.851,27.716,4.635a180.885,180.885,0,0,1,25.688,6.789c-.026,1.443,0,2.777.03,3.954.076,3.447.131,5.937-1.267,7.366C742.785,232.034,741.044,232.5,738.161,232.5Zm126.4-23.873h0c-22.028,0-45.988-1.836-54.141-2.725.006-.069.015-.135.024-.209l0-.019c-7.793-2.842-11.527-5.51-11.1-7.928.25-1.416,1.933-2.737,5-3.929a59.924,59.924,0,0,1,11.253-2.8,183.638,183.638,0,0,1,28.251-2.239c6.4,0,11.214.426,13.2,1.17,1.629.145,3.313.215,5.149.215,4.519,0,9.116-.438,13.562-.861l.083-.008c4.4-.42,8.954-.854,13.309-.854a44.012,44.012,0,0,1,10.95,1.218,28.987,28.987,0,0,1,10.135,4.738,7.837,7.837,0,0,1,1.48,3.156,4.179,4.179,0,0,1-.383,2.682c-.8,1.57-2.678,2.941-5.583,4.076a51.458,51.458,0,0,1-10.7,2.579C887.392,208.042,877.134,208.628,864.564,208.628ZM320.129,191.2h0a45.928,45.928,0,0,1-8.869-.663c-2.277-.477-3.582-1.225-3.879-2.221l3.021-8.4c1.488-1.475,5.52-3.081,11.984-4.772,5.668-1.483,13.143-3,21.617-4.391,7.886-1.293,16.174-2.405,23.967-3.217,7.845-.817,14.427-1.249,19.033-1.249,1.039,0,1.976.023,2.787.067l.422-.071c8.15-1.368,17.388-2.918,23.831-2.918a19.434,19.434,0,0,1,5.233.56,3.376,3.376,0,0,1,2.529,1.926,3.274,3.274,0,0,1-.29,2.332,13.6,13.6,0,0,1-2.293,3.29,77.83,77.83,0,0,1-11.75,9.945c-.095-.007-.208-.01-.337-.01-2.419,0-10.663,1.187-21.1,2.691l-.049.007c-4.691.676-10.009,1.442-15.484,2.2C355.3,188.4,333.538,191.2,320.129,191.2Zm1150.01-1.935c-2.5,0-5.307-.23-8.857-.521l-.05,0c-2-.163-4.263-.349-6.761-.513-6.735-.5-13.625-.71-20.288-.914h-.011c-8.5-.26-17.284-.529-25.71-1.4-4.536-.47-8.617-1.072-12.475-1.841a92.81,92.81,0,0,1-12.058-3.21,16.608,16.608,0,0,1-2.8-5.359,5.362,5.362,0,0,1,.258-3.852c.829-1.633,2.737-2.846,5.67-3.606a41.7,41.7,0,0,1,10.1-1c9.477,0,20.916,1.705,28.485,2.834,1.939.289,3.61.538,4.9.706,1.432.4,6.815.441,13.63.493h0c8.175.063,18.348.141,27.071.836a80.822,80.822,0,0,1,11.467,1.581c3.323.777,5.467,1.772,6.37,2.957a2.288,2.288,0,0,1,.422,2.065c-4.012,4.5-6.955,7.08-9.839,8.643a16.354,16.354,0,0,1-4.487,1.651A24.129,24.129,0,0,1,1470.139,189.26Zm-391.174-.919h0c-2.5,0-5.3-.229-8.846-.519l-.022,0c-2.009-.164-4.285-.35-6.8-.515-6.749-.5-13.641-.712-20.306-.917-8.5-.261-17.288-.531-25.712-1.4-4.534-.469-8.613-1.072-12.47-1.841a92.781,92.781,0,0,1-12.053-3.21,16.6,16.6,0,0,1-2.8-5.359,5.359,5.359,0,0,1,.257-3.852c.829-1.632,2.736-2.845,5.668-3.606a41.691,41.691,0,0,1,10.093-1c9.468,0,20.9,1.7,28.465,2.83l.038.006c1.93.287,3.6.536,4.885.7,1.432.4,6.813.441,13.627.494h.009c8.177.063,18.352.141,27.075.837a80.778,80.778,0,0,1,11.465,1.581c3.323.777,5.465,1.772,6.367,2.956a2.286,2.286,0,0,1,.421,2.065c-4.011,4.5-6.953,7.081-9.837,8.644a16.344,16.344,0,0,1-4.486,1.651A24.149,24.149,0,0,1,1078.965,188.342Zm-937.492-22.62h0c-9.758,0-24.183-3.314-38.132-6.519-10.929-2.511-21.25-4.881-28.934-5.6a55.738,55.738,0,0,1-9.667-1.391,33.449,33.449,0,0,1-7.264-2.582,15.239,15.239,0,0,1-4.583-3.348,5.757,5.757,0,0,1-1.625-3.689c-.031-2.161,1.554-4.143,4.583-5.733a27.117,27.117,0,0,1,6.034-2.171,58.715,58.715,0,0,1,8.74-1.384c.844.451,6.532,1.667,14.405,3.35h0c23.483,5.02,67.189,14.364,68.205,21.542a5.836,5.836,0,0,1-1.362,4.652,8.27,8.27,0,0,1-4.094,2.209A25.461,25.461,0,0,1,141.473,165.721Zm415.684-17.437a282.181,282.181,0,0,1-29.945-1.343,154.3,154.3,0,0,1-29.637-5.907c-1.168-1.482-1.465-2.844-.881-4.046.823-1.7,3.42-3.13,7.72-4.263a94.707,94.707,0,0,1,15.086-2.313c11.441-1.011,24.965-1.141,35.469-1.141q2.295,0,4.307.005h.207c1.2,0,2.441.005,3.544.005,2.6,0,4.162-.015,5.223-.05,3.611.361,7.36.543,11.143.543a134.512,134.512,0,0,0,17.216-1.155c5.253-.681,10.783-1.685,16.437-2.984,2.918,1.457,4.181,3.531,3.754,6.165a12.137,12.137,0,0,1-2.638,5.3,31.992,31.992,0,0,1-5.081,5.036c-3.746,3.019-8.052,5.368-10.472,5.713-1.209-.009-2.469-.014-3.746-.014-6.369,0-12.754.114-18.929.224h-.089C569.706,148.171,563.361,148.284,557.157,148.284Zm172.134-2.7h0a22.513,22.513,0,0,1-5-.514,13.654,13.654,0,0,1-4.219-1.695,10.984,10.984,0,0,1-3.23-3.1,14.277,14.277,0,0,1-2.035-4.738,88.463,88.463,0,0,1,14.558-7.517,166.06,166.06,0,0,1,17.039-5.9c11.986-3.512,25.17-6.327,37.92-9.049,11.79-2.517,23.978-5.119,34.795-8.207a21.17,21.17,0,0,1,5.822,5.087,5.885,5.885,0,0,1,1.248,4.493,6.321,6.321,0,0,1-1.536,2.978,14.978,14.978,0,0,1-3.252,2.7,48.31,48.31,0,0,1-10.282,4.62c-8.077,2.763-18.063,4.942-26.088,6.692h-.006c-5.707,1.245-10.636,2.32-13.237,3.252-3.554.551-8.456,2.219-14.131,4.15-4.47,1.521-9.536,3.244-14.42,4.544A55.506,55.506,0,0,1,729.291,145.581Zm547.7-.475h0a205.829,205.829,0,0,1-26.245-2.054c-9.834-1.319-19.891-3.152-29.083-5.3a152.773,152.773,0,0,1-23.765-7.263,35.891,35.891,0,0,1-7.338-3.965c-1.823-1.371-2.815-2.708-2.948-3.973-.342-3.249,4.866-6.043,15.481-8.3,8.028,1.493,16.15,2.737,24.005,3.939h.006l.01,0c8.833,1.353,17.968,2.752,26.808,4.488a213.312,213.312,0,0,1,26.145,6.683,55.53,55.53,0,0,1,10.7,6.921c2.065,1.867,2.947,3.473,2.624,4.774C1292.726,143.7,1287.056,145.106,1276.99,145.106ZM213.59,118.794a60.908,60.908,0,0,1-10.264-.678c-2.844-.515-4.518-1.335-4.976-2.439-.4-.958.112-2.154,1.514-3.555a8.1,8.1,0,0,1-.482-3.442,5.624,5.624,0,0,1,1.03-2.725,10.1,10.1,0,0,1,4.541-3.217A31.96,31.96,0,0,1,212,100.944,117.956,117.956,0,0,1,228.948,100c1.319,0,2.581.008,3.976.017h.2c1.145.008,2.328.016,3.4.016a54.379,54.379,0,0,0,5.681-.2c.113.005.245.008.394.008,1.4,0,4.289-.235,7.948-.533,1.543-.126,3.462-.282,5.493-.436,5.467-.416,13.63-.969,21.375-.969,7.413,0,13.317.509,17.549,1.514a18.217,18.217,0,0,1,5.822,2.284,5.532,5.532,0,0,1,2.636,3.651,7.574,7.574,0,0,1-1.2,3.122,9.019,9.019,0,0,1-2.4,2.367,20.806,20.806,0,0,1-7.627,2.9c-6.083,1.26-13.735,1.365-21.135,1.467a120.818,120.818,0,0,0-15.887.847,3.936,3.936,0,0,0-.529-.026c-1.439,0-5.018.335-9.55.759l-.085.008c-2.036.191-4.343.406-6.754.619C231.534,118,221.652,118.794,213.59,118.794Zm1162.753-9.385h0a18.034,18.034,0,0,1-9.052-2.367,11.842,11.842,0,0,1-3.076-2.54,7.125,7.125,0,0,1-1.578-3.072,5.772,5.772,0,0,1,1.122-4.735,14.93,14.93,0,0,1,6.106-4.445l5.459-.714c25.645-3.36,52.162-6.834,77.468-6.834,8.122,0,15.566.346,22.758,1.057a34.768,34.768,0,0,0,.1,4.572c.585,8.356.585,8.356-57.424,14.516-10.694,1.136-22.816,2.423-37.422,4.023A18.622,18.622,0,0,1,1376.342,109.409Zm-331.8-14.138h0c-8.828,0-20.373-2.281-30.559-4.294h-.006c-5.443-1.075-10.585-2.091-14.984-2.712C991.678,86.585,984,85.5,976.578,84.451a243.736,243.736,0,0,1-24.316-4.276,89.78,89.78,0,0,1-11.493-3.618,63.389,63.389,0,0,1-10.717-5.4c-1.817-1.767-2.489-3.279-2-4.494C929.287,63.639,937.37,63,943.934,63a170.847,170.847,0,0,1,24.235,2.005c3.779.58,7.149,1.234,9.746,1.892,2.7.684,4.483,1.354,5.163,1.939,5.962.924,11.99,1.707,17.818,2.464,10.041,1.3,20.424,2.653,30.326,4.721,5.323,1.112,10.111,2.34,14.636,3.757a111.116,111.116,0,0,1,14.125,5.448,10.012,10.012,0,0,1-.518,3.641,7.468,7.468,0,0,1-1.69,2.72,11.372,11.372,0,0,1-5.4,2.849A31.774,31.774,0,0,1,1044.545,95.271ZM657.052,83.012h0c-22.051,0-46-1.838-54.147-2.728,0-.034.008-.068.012-.1v-.01c0-.037.008-.075.013-.112-7.792-2.843-11.527-5.51-11.1-7.928.25-1.415,1.933-2.738,5-3.929a59.91,59.91,0,0,1,11.251-2.8,183.583,183.583,0,0,1,28.248-2.24c6.407,0,11.219.427,13.2,1.171,1.625.144,3.307.215,5.142.215,4.526,0,9.12-.438,13.562-.862l.084-.008c4.4-.42,8.957-.854,13.31-.854a44.009,44.009,0,0,1,10.953,1.219,28.994,28.994,0,0,1,10.137,4.739,7.835,7.835,0,0,1,1.481,3.156,4.18,4.18,0,0,1-.383,2.682c-.8,1.57-2.677,2.941-5.582,4.076a51.445,51.445,0,0,1-10.7,2.579C679.877,82.427,669.62,83.012,657.052,83.012ZM410.876,74.877a42.836,42.836,0,0,1-9.555-.931,16.351,16.351,0,0,1-6.913-3.163c-1.009-.656-1.448-1.377-1.305-2.143,1.269-6.784,47.3-16.437,80.9-23.485l.02,0c11.924-2.5,22.222-4.66,28.472-6.26a29.536,29.536,0,0,1,6.755,7.022,6.934,6.934,0,0,1,1.185,5.359c-.739,2.871-4.046,5.2-10.11,7.129a143.308,143.308,0,0,1-17.88,3.845h-.007c-4.483.771-8.716,1.5-11.794,2.356-2.487.022-8.171,1.357-15.366,3.047l-.007,0C442.293,70.7,424.512,74.877,410.876,74.877ZM19.946,71.806a18.031,18.031,0,0,1-9.053-2.368A11.842,11.842,0,0,1,7.816,66.9a7.124,7.124,0,0,1-1.577-3.073A5.772,5.772,0,0,1,7.362,59.09a14.926,14.926,0,0,1,6.107-4.442l5.426-.71H18.9C44.554,50.574,71.08,47.1,96.393,47.1c8.119,0,15.563.346,22.757,1.057a34.711,34.711,0,0,0,.1,4.576c.586,8.355.586,8.355-57.437,14.516l-.064.007c-10.682,1.134-22.789,2.42-37.342,4.015A18.638,18.638,0,0,1,19.946,71.806ZM290.592,45.422a41.784,41.784,0,0,1-10.71-1.9c-2.691-.315-5.327-.608-7.875-.89-9-1-17.492-1.94-25.885-3.59A116.61,116.61,0,0,1,220.758,31.2a43.468,43.468,0,0,1-11.887-3.427c-2.693-1.359-4.133-2.9-4.165-4.446a3.105,3.105,0,0,1,.749-1.99,8.261,8.261,0,0,1,2.362-1.915,33.953,33.953,0,0,1,9.767-3.286c18.6,1.036,36.576,4.735,53.963,8.313l.01,0C282.011,26.6,292.821,28.822,303.5,30.4a56.64,56.64,0,0,1-2.277,6.913,18.426,18.426,0,0,1-2.663,4.657C296.589,44.357,294.131,45.422,290.592,45.422Zm875.661-.646c-22.047,0-46-1.838-54.148-2.728l0-.023c.009-.067.018-.135.028-.2-7.793-2.842-11.528-5.51-11.1-7.928.25-1.415,1.933-2.737,5-3.929a59.917,59.917,0,0,1,11.253-2.8,183.667,183.667,0,0,1,28.25-2.239c6.4,0,11.212.426,13.194,1.169,1.627.144,3.309.215,5.142.215,4.523,0,9.116-.438,13.558-.862h.006l.089-.008c4.4-.419,8.952-.853,13.306-.853a44.03,44.03,0,0,1,10.954,1.219,29,29,0,0,1,10.138,4.739,7.838,7.838,0,0,1,1.481,3.157,4.18,4.18,0,0,1-.383,2.682c-.8,1.57-2.677,2.941-5.582,4.076a51.448,51.448,0,0,1-10.7,2.579C1189.081,44.19,1178.823,44.776,1166.253,44.776Zm239.242-7.753h0c-.573-.115-2.908-.362-6.443-.736h0c-10.86-1.149-33.459-3.54-54.212-7.317-25.661-4.671-40.21-9.937-43.244-15.653a4.757,4.757,0,0,1,.053-4.7l.04-.007c1.23-.224,2.5-.455,2.938-1.224a1.553,1.553,0,0,0,0-1.356,7.824,7.824,0,0,1,3.311-.612c1.669-.068,3.245-.132,4.087-1.656,2.471,2.27,18.857,4.778,37.829,7.682,14.9,2.281,31.8,4.867,44.88,7.8,15.06,3.373,22.512,6.637,22.782,9.979.1,1.233-.8,2.5-2.681,3.752A39.645,39.645,0,0,1,1405.495,37.023Zm-605.386-.814h0a267.407,267.407,0,0,1-35.383-5.287c-11.7-2.465-23.469-5.491-34.849-8.418l-.014,0c-12.922-3.323-26.285-6.76-39.287-9.29-6.629-3.542-9.7-6.478-9.142-8.728a3.566,3.566,0,0,1,1.951-2.094A15.6,15.6,0,0,1,687.495,1a59.727,59.727,0,0,1,11.7-1,70.225,70.225,0,0,1,13.238,1.108c22.313,2.22,43.28,8.231,63.557,14.045l.035.01c5.619,1.611,11.428,3.276,17.129,4.819l-.089.252a46.236,46.236,0,0,1,9.463,2.047c2.7.992,4.218,2.22,4.638,3.756.332,1.213-.044,2.643-1.12,4.249a28.566,28.566,0,0,1-5.942,5.923Z" transform="translate(-30 -273)" fill="#3d55cc"/>
    </g>
  </g>
</svg>
