<svg width="375" height="134" viewBox="0 0 375 134" fill="none" xmlns="http://www.w3.org/2000/svg">
<rect width="375" height="211" fill="#303D78"/>
<mask id="mask0_555_265" style="mask-type:alpha" maskUnits="userSpaceOnUse" x="0" y="0" width="375" height="211">
<rect width="375" height="211" fill="white"/>
</mask>
<g mask="url(#mask0_555_265)">
<path fillRule="evenodd" clipRule="evenodd" d="M88.8054 -145.411L88.8058 -145.41L88.8121 -145.4L88.8141 -145.396C91.7726 -140.487 94.8323 -135.409 98.8016 -131.425C103.926 -126.283 107.895 -121.109 111.294 -115.143C112.835 -112.44 114.51 -109.593 116.557 -107.116L120.477 -102.368L120.533 -102.299C129.154 -91.8544 138.067 -81.0562 147.175 -70.7027C149.611 -67.9332 152.144 -65.23 154.705 -62.6676C158.076 -59.2932 161.535 -56.1212 164.986 -53.2402C173.005 -46.5444 181.306 -39.9442 189.332 -33.5623L189.439 -33.4771C195.354 -28.7732 201.468 -23.911 207.427 -19.044C214.69 -13.1119 220.945 -7.50087 226.552 -1.88899C242.774 14.3473 253.65 30.8848 259.801 48.6684C261.708 54.1807 265.345 60.1175 269.294 64.1615C277.224 72.282 282.097 81.0944 285.817 88.6441C289.799 96.7251 294.699 103.62 300.797 109.723C303.242 112.171 305.913 114.509 308.736 116.675C312.441 119.518 316.016 122.657 319.361 126.006C327.736 134.388 334.939 144.237 341.381 156.116C344.845 162.503 347.664 167.296 350.522 171.656C354.365 177.522 358.449 182.633 362.66 186.846C374.898 199.095 388.933 204.686 405.564 203.937C409.333 203.767 413.117 203.447 416.777 203.137L416.779 203.137L416.819 203.134L417.019 203.117L417.021 203.117L417.023 203.117L417.025 203.116L417.031 203.116C419.331 202.922 421.703 202.723 424.053 202.563L424.055 202.563C431.714 202.041 439.633 201.502 448.568 205.177C449.327 205.49 450.427 205.299 450.865 204.926C452.352 203.663 453.715 202.258 455.034 200.9L455.039 200.895C455.389 200.533 455.735 200.178 456.079 199.829C454.486 198.442 452.908 197.092 451.351 195.76L451.2 195.631L451.18 195.614L451.179 195.613L451.174 195.608L451.173 195.608L451.173 195.607L451.172 195.607L451.171 195.606L451.171 195.606L451.17 195.605L451.17 195.605C447.284 192.28 443.614 189.14 440.056 185.769C432.483 178.591 424.219 174.486 414.79 173.221C410.357 172.625 405.951 171.583 401.692 170.123C382.192 163.437 363.55 150.754 343.023 130.21C341.601 128.787 340.134 127.291 338.665 125.765C336.954 123.988 335.117 122.12 332.882 119.882C331.434 118.434 329.979 116.991 328.525 115.549L328.517 115.541L327.913 114.942C326.346 113.389 324.779 111.836 323.22 110.278L322.356 110.671C322.826 111.579 323.267 112.509 323.695 113.414C324.794 115.733 325.931 118.132 327.54 120.136C336.612 131.436 345.899 142.424 354.633 152.711C355.872 154.17 357.162 155.572 358.467 156.879C366.251 164.668 375.224 169.756 385.14 172C390.673 173.252 396.289 174.423 401.724 175.555L401.865 175.585L401.952 175.603L401.966 175.605C406.619 176.575 411.43 177.577 416.171 178.627C418.806 179.21 420.986 180.35 422.65 182.016C424.512 183.881 425.651 186.377 425.941 189.235C426.141 191.212 425.756 192.577 424.764 193.412C423.444 194.519 421.199 194.574 417.701 193.582C413.169 192.298 408.554 190.744 404.089 189.239L404.088 189.239L404.087 189.239L404.086 189.238L404.085 189.238L404.084 189.238L404.083 189.237L404.082 189.237L404.081 189.236L404.08 189.236C401.924 188.51 399.693 187.758 397.502 187.048C381.564 181.878 367.346 173.114 355.242 161C352.695 158.45 350.207 155.715 347.851 152.872C331.094 132.65 314.454 111.821 298.361 91.6777C295.424 88.0005 292.487 84.3241 289.547 80.6492C286.707 77.0993 284.108 73.3194 281.594 69.6635L281.551 69.6005L281.55 69.5987L281.54 69.5844L281.533 69.5742L281.53 69.5693C280.395 67.9209 279.225 66.2196 278.048 64.5632L277.143 63.2895L278.656 63.6753C279.994 64.0168 281.045 64.6035 281.964 65.5222C282.153 65.7112 282.339 65.9175 282.533 66.1507C286.379 70.7696 290.313 75.0967 294.224 79.011C300.312 85.1052 306.694 90.5432 313.191 95.1747C314.268 95.9431 315.303 96.8144 316.181 97.6943C316.843 98.3561 317.421 99.0258 317.9 99.6844C318.853 100.996 319.889 102.214 320.978 103.304C324.17 106.498 327.94 108.766 332.503 110.237C337.298 111.782 341.715 114.621 346.005 118.916C346.521 119.432 347.044 119.978 347.56 120.54C352.719 126.163 358.098 131.773 363.3 137.199L363.322 137.221L365.604 139.602C365.921 139.932 366.238 140.257 366.558 140.576C374.347 148.372 383.064 153.018 392.465 154.382L392.574 154.398C399.021 155.334 405.688 156.302 412.122 156.821C417.513 157.256 422.424 159.282 427.134 163.013C438.834 172.282 451.628 179.908 465.163 185.682C466.875 186.412 468.885 186.69 469.379 186.265C472.312 183.743 474.993 180.992 477.361 178.562L477.384 178.538C478.049 177.856 478.683 177.205 479.286 176.598C476.835 172.086 474.421 167.637 472.033 163.234L471.967 163.113C465.205 150.647 458.818 138.873 452.28 126.952C450.174 123.113 448.066 119.384 445.427 115.946C444.855 115.199 444.281 114.434 443.702 113.663L443.697 113.656C441.653 110.931 439.539 108.114 437.219 105.792C436.161 104.733 435.149 103.863 434.128 103.132C430.053 100.224 426.231 96.9662 422.442 93.1736C415.657 86.3829 410.126 78.9937 405.611 72.66C403.284 69.3979 400.971 66.2433 398.253 63.5235C395.806 61.0741 393.331 59.2913 390.689 58.0745C383.699 54.8551 377.311 50.2212 370.585 43.4898C366.323 39.2236 362.375 34.5296 359.412 30.9165C358.168 29.4008 356.856 27.9501 355.512 26.6052C351.413 22.5026 346.806 19.1346 341.424 16.3096C339.794 15.4528 338.156 14.6102 336.516 13.7667L335.993 13.4974C329.618 10.2202 323.027 6.83162 316.838 2.75594C304.364 -5.46025 292.395 -15.2751 281.262 -26.4182C263.432 -44.2634 246.993 -66.0776 229.529 -95.0683L228.763 -96.338L230.183 -95.9134C233.252 -94.9971 236.398 -94.0744 239.604 -93.136L239.696 -93.1089C248.463 -90.5383 257.529 -87.8803 266.663 -84.8455C269.887 -83.7742 273.79 -81.2576 277.101 -78.1156C289.24 -66.597 302.624 -54.7147 318.238 -45.8328C322.394 -43.4688 325.795 -40.9388 328.632 -38.0989C330.73 -35.999 332.526 -33.7038 333.969 -31.2774C339.385 -22.1717 346.447 -13.3871 356.193 -3.63232C358.43 -1.39328 360.813 0.901917 363.475 3.38448C364.964 4.77281 366.439 6.19754 367.86 7.61987C376.367 16.1341 383.662 25.2232 390.162 35.4064C392.122 38.4756 394.579 41.5457 397.08 44.0496C398.735 45.7051 400.399 47.1133 402.025 48.2336C422.03 62.0166 439.851 77.5927 454.644 91.0112C455.903 92.1531 457.157 93.3045 458.412 94.4559L458.419 94.4623L458.441 94.4826C463.069 98.7291 467.852 103.119 472.819 106.968C479.288 111.983 484.339 116.357 488.711 120.733C496.03 128.058 501.471 135.483 505.347 143.433C505.847 144.46 506.498 145.463 507.186 146.524L507.193 146.535C507.394 146.845 507.596 147.158 507.798 147.474L514.063 141.204C505.114 129.351 497.748 120.683 490.217 113.147C483.849 106.773 477.188 101.001 468.622 94.4291C466.045 92.4524 463.409 90.462 460.85 88.5296L460.845 88.5264L460.458 88.2337L460.44 88.2202L460.438 88.2192C452.069 81.9026 443.414 75.3711 435.393 68.2989C429.182 62.8238 422.828 56.8395 416.507 50.5121C412.189 46.1906 407.778 41.6002 403.394 36.8683C394.014 26.7404 389.502 14.8304 386.008 4.46211C383.647 -2.54758 380.821 -9.91228 374.609 -16.1298C374.201 -16.5377 373.776 -16.9425 373.348 -17.3315C372.724 -17.8992 372.11 -18.485 371.522 -19.0733C366.846 -23.7545 363.268 -29.1529 360.588 -35.5784C356.486 -45.4106 351.24 -53.4442 344.55 -60.1408C341.512 -63.1815 338.129 -65.9693 334.497 -68.4265C333.438 -69.1428 332.474 -70.0655 331.541 -70.9589C331.198 -71.2886 330.854 -71.6175 330.506 -71.9353C329.242 -73.092 327.982 -74.2977 326.762 -75.52C314.511 -87.7819 306.029 -101.766 299.349 -113.826C294.307 -122.932 288.663 -130.639 282.574 -136.731C269.101 -150.216 253.259 -156.094 235.49 -154.202C232.775 -153.913 230.556 -153.752 228.507 -153.694C226.308 -153.632 224.079 -153.534 221.924 -153.439L221.912 -153.439C216.39 -153.196 210.681 -152.946 204.887 -153.277C197.698 -153.689 191.023 -156.785 185.585 -162.227C183.488 -164.326 181.552 -166.789 179.83 -169.549C177.075 -173.964 174.007 -179.084 172.441 -183.988C169.021 -194.701 161.699 -202.965 155.702 -208.967C154.437 -210.233 153.065 -211.558 151.509 -213.019C150.052 -214.387 145.556 -218.619 145.556 -218.619L136.536 -209.591C138.095 -208.486 139.682 -207.387 141.225 -206.318L141.227 -206.317L141.294 -206.271L141.322 -206.251C145.269 -203.518 149.349 -200.693 153.182 -197.615C154.318 -196.702 155.385 -195.748 156.355 -194.778C161.395 -189.733 164.051 -184.115 164.248 -178.08C164.459 -171.615 167.152 -165.878 172.484 -160.542C174.39 -158.635 176.62 -156.772 179.302 -154.848C188.274 -148.411 197.061 -141.226 205.56 -134.277L205.562 -134.276L205.579 -134.261L206.072 -133.858C213.127 -128.09 219.733 -124.793 226.268 -123.781C251.743 -119.834 275.471 -105.694 303.208 -77.9338L303.487 -77.6539C305.138 -75.9971 306.79 -74.3428 308.442 -72.6882L309.858 -71.2704L320.361 -60.763L321.069 -60.9828C320.926 -61.5046 320.807 -62.0335 320.69 -62.5506L320.69 -62.5541C320.353 -64.0479 320.036 -65.4594 319.218 -66.5986C311.275 -77.6618 301.602 -90.5261 290.084 -102.054C285.925 -106.218 281.642 -110.082 277.358 -113.54C273.953 -116.286 269.676 -118.55 265.916 -119.593C257.69 -121.877 249.345 -123.815 241.274 -125.689L241.19 -125.708C238.064 -126.433 234.939 -127.159 231.812 -127.905C231.204 -128.051 230.597 -128.174 229.99 -128.297L229.989 -128.297L229.989 -128.297L229.988 -128.298L229.988 -128.298L229.987 -128.298L229.987 -128.298L229.986 -128.298L229.986 -128.298L229.986 -128.298L229.86 -128.324L229.858 -128.324C228.684 -128.561 227.471 -128.806 226.259 -129.194C224.321 -129.815 222.539 -130.901 221.105 -132.337C219.139 -134.304 217.966 -136.765 217.801 -139.267C217.681 -141.084 218.101 -142.405 219.049 -143.191C220.623 -144.497 223.254 -144.038 225.372 -143.492C247.023 -137.907 272.027 -129.325 293.314 -108.019C297.366 -103.964 301.239 -99.4855 304.825 -94.7093C315.099 -81.0286 325.957 -67.3456 336.461 -54.1099L336.576 -53.9644C343.041 -45.8194 349.724 -37.3976 356.207 -29.0597C359.874 -24.342 363.109 -19.0385 366.095 -12.8455L365.157 -12.2098C363.522 -13.9932 361.9 -15.7884 360.277 -17.5833L360.272 -17.5892L360.134 -17.7418L360.125 -17.7522L360.123 -17.7546C356.195 -22.0999 352.134 -26.5916 347.976 -30.8457L347.674 -31.1516C345.689 -33.1371 343.444 -34.9574 341.272 -36.7176L341.27 -36.7192C340.007 -37.7423 338.701 -38.8002 337.453 -39.8849C335.896 -41.2372 334.335 -42.6361 332.818 -43.996L332.524 -44.2594L332.504 -44.278L332.501 -44.2803C329.623 -46.8639 326.647 -49.5348 323.613 -51.9831L323.476 -52.0938C320.118 -54.804 316.646 -57.6052 313.162 -59.0086C306.861 -61.5457 301.354 -65.2237 296.327 -70.2552C295.458 -71.1265 294.585 -72.0547 293.735 -73.0137C290.999 -76.1063 288.061 -79.1347 285.219 -82.0646L285.177 -82.1083C283.232 -84.111 281.224 -86.1824 279.291 -88.2586C278.693 -88.9022 278.081 -89.5362 277.473 -90.1442C267.845 -99.7804 257.081 -105.037 246.344 -105.346C228.691 -105.854 211.912 -113.498 193.375 -122.682C180.042 -129.289 167.556 -138.564 152.888 -152.756C152.706 -152.931 152.527 -153.108 152.349 -153.287C147.014 -158.626 142.757 -165.584 139.001 -171.725C134.96 -178.332 130.574 -183.968 125.592 -188.954C123.984 -190.563 122.292 -192.122 120.556 -193.597L109.663 -182.695C111.943 -180.024 114.292 -177.337 116.569 -174.734L116.584 -174.717C122.077 -168.433 127.757 -161.935 132.839 -155.245C136.72 -150.136 140.998 -144.723 145.968 -139.748C148.94 -136.773 151.892 -134.22 154.992 -131.944C157.462 -130.13 159.798 -128.126 161.936 -125.985C165.723 -122.195 168.96 -117.918 171.559 -113.272C178.027 -101.71 183.746 -91.2416 189.045 -81.2687C194.733 -70.562 200.86 -62.0952 208.326 -54.6214C210.71 -52.2353 213.277 -49.9164 215.953 -47.7295C217.629 -46.3594 219.279 -44.8595 220.994 -43.1423C225.787 -38.3448 230.154 -32.7614 234.375 -27.3614L234.548 -27.1399C236.092 -25.1683 237.682 -23.1368 239.259 -21.1898C241.547 -18.368 243.487 -16.1764 245.367 -14.2955C249.082 -10.5772 252.674 -7.94598 256.672 -6.01291C262.071 -3.40384 267.204 0.376144 272.364 5.54051C276.436 9.6154 280.145 14.1591 283.548 18.4633C285.024 20.3284 286.577 22.0812 288.167 23.672C292.456 27.9643 297.24 31.3157 302.391 33.6354C323.272 43.0392 343.069 57.2665 362.916 77.1302C368.495 82.7136 374.021 88.6702 379.811 95.3375C387.917 104.677 395.455 114.688 402.745 124.371L402.754 124.383C404.262 126.387 405.77 128.39 407.282 130.386C410.171 134.199 412.377 138.453 414.525 142.595L414.526 142.597C416.224 145.872 416.586 147.643 415.775 148.712C415.02 149.708 413.394 149.859 410.341 149.216C397.653 146.549 388.024 142.097 380.042 135.206C368.498 125.241 355.984 116.809 343.881 108.654C340.323 106.256 336.645 103.777 333.042 101.294C329.142 98.6052 325.728 95.7787 322.603 92.6517C319.213 89.2584 316.18 85.4879 313.588 81.4438C309.471 75.0208 304.239 68.7124 297.125 61.592C292.866 57.3284 288.327 53.1633 283.937 49.1353L283.936 49.1345L283.932 49.1303L283.928 49.1266L283.927 49.1262L283.922 49.1214L283.91 49.1103C281.898 47.2639 279.887 45.4183 277.895 43.5578C275.565 41.382 273.659 39.5469 271.895 37.7807C266.596 32.4772 262.459 27.6156 259.197 22.8339C257.96 21.0194 256.849 19.216 255.849 17.4039C253.665 13.4515 251.016 9.94035 247.749 6.67032C244.876 3.79639 241.619 1.20076 237.789 -1.2652C234.972 -3.07907 232.2 -4.96661 229.472 -6.91302C211.779 -19.5396 195.963 -34.6437 181.786 -48.1826C178.004 -51.7941 173.755 -55.046 169.647 -58.1903C167.596 -59.7597 165.478 -61.3828 163.435 -63.0329C160.619 -65.3107 157.89 -67.7672 155.325 -70.3343C147.581 -78.0856 140.987 -87.098 135.164 -97.8869C133.667 -100.66 132.055 -103.408 130.322 -106.137C124.019 -116.064 116.117 -125.748 106.357 -135.527C101.183 -140.711 97.0354 -147.048 93.0241 -153.178L93.0193 -153.186C91.3533 -155.732 89.6336 -158.36 87.8602 -160.873L82.8125 -155.822C83.006 -155.428 83.194 -155.03 83.3805 -154.634C83.8923 -153.546 84.4224 -152.422 85.093 -151.4C86.3743 -149.446 87.6099 -147.395 88.8054 -145.411ZM414.619 128.111C405.247 109.638 391.76 91.7196 373.389 73.3336C369.451 69.3915 365.326 65.4534 360.78 61.2955C345.454 47.2753 331.807 37.9388 317.833 31.9126C307.996 27.6702 299.688 20.5324 291.653 13.6286L291.582 13.5674L291.579 13.5646C288.835 11.2086 286.001 8.77405 283.146 6.49164C271.394 -2.90416 259.331 -13.8267 246.268 -26.9012C243.432 -29.7404 240.454 -32.7756 237.415 -35.9231C236.803 -36.558 236.183 -37.1928 235.554 -37.8222C232.718 -40.6613 230.325 -42.7683 228.023 -44.4532C226.228 -45.7688 224.57 -47.1832 223.097 -48.6577C219.823 -51.9356 217.333 -55.6279 215.699 -59.634C211.27 -70.4857 204.354 -80.7157 197.666 -90.6099L197.658 -90.6218L197.598 -90.7107C196.548 -92.2639 195.497 -93.8179 194.455 -95.3758C191.18 -100.271 187.969 -105.254 184.571 -110.531C182.956 -113.038 181.285 -115.63 179.523 -118.346L178.44 -120.014L180.244 -119.178C182.084 -118.325 183.754 -117.533 185.311 -116.794L185.328 -116.785C188.373 -115.341 191.005 -114.092 193.632 -113.002C202.136 -109.476 209.227 -104.802 215.31 -98.713C220.778 -93.2403 225.288 -86.773 229.097 -78.9411C238.484 -59.6403 251.588 -41.7113 269.157 -24.1269C279.359 -13.9152 291.107 -3.77859 305.073 6.86244C308.792 9.69604 313.123 12.1699 317.597 14.0184C332.933 20.3529 346.05 31.0066 358.168 41.3757C371.2 52.5259 383.877 63.5156 395.719 75.3679C398.693 78.3446 401.563 81.3252 404.248 84.2292C404.942 84.9795 405.635 85.7006 406.307 86.3726C408.721 88.7895 411.059 90.7629 413.255 92.2351C415.532 93.7642 417.644 95.4964 419.529 97.3828C423.636 101.493 426.785 106.375 429.154 112.309C435.947 129.322 444.28 149.161 457.245 169.323L458.269 170.916L456.535 170.158C448.578 166.685 439.468 162.158 432.232 154.915C430.129 152.81 428.206 150.501 426.513 148.05C422.067 141.61 418.066 134.902 414.619 128.111ZM-124.699 90.0077L-124.699 90.0082L-124.697 90.0109L-124.668 90.0454L-124.666 90.0482C-123.386 91.586 -122.062 93.1762 -120.787 94.7532C-120.216 95.4602 -119.565 96.1719 -118.934 96.8616L-118.906 96.8918L-118.9 96.8985C-117.547 98.3762 -116.147 99.9045 -115.35 101.557C-109.967 112.723 -101.65 122.527 -93.6068 132.007C-89.6072 136.722 -85.4708 141.599 -81.7384 146.589C-78.5121 150.902 -74.9166 155.027 -70.7453 159.198C-61.8354 168.111 -51.6744 175.777 -41.848 183.19L-41.8394 183.197C-37.5709 186.417 -33.1577 189.746 -28.9003 193.137C-18.0321 201.792 -6.54645 211.232 3.82666 221.607C10.2231 228.004 15.7117 234.246 20.6049 240.688C27.966 250.379 31.7964 260.476 35.0883 269.988C38.3059 279.286 43.3003 287.165 50.8069 294.78C54.6665 298.696 57.2361 303.952 59.7219 309.037L59.7282 309.05L59.7829 309.162L59.7885 309.173C60.1919 309.999 60.5928 310.818 60.9957 311.623C65.7798 321.181 70.4627 327.993 76.1774 333.709C77.4695 335.001 78.8328 336.25 80.23 337.423C85.4071 341.765 92.1633 347.565 98.5233 353.926C98.8839 354.286 99.2429 354.648 99.6011 355.012C102.157 357.613 104.248 360.713 106.269 363.709L106.285 363.733L106.298 363.753C107.187 365.071 108.105 366.434 109.047 367.729L169.203 427.897C172.873 427.765 176.536 427.613 180.198 427.461C189.531 427.073 199.182 426.673 208.797 426.625C212.014 426.61 215.503 427.34 218.877 428.047C220.612 428.41 222.407 428.785 224.132 429.051L224.133 429.051L224.134 429.052C224.846 429.162 226.509 429.419 227.033 428.989C228.616 427.695 230.016 426.241 231.371 424.834C231.719 424.473 232.058 424.121 232.392 423.78L227.864 419.662L227.614 419.434C224.15 416.282 220.802 413.237 217.445 410.201C209.447 402.967 202.309 399 195.625 398.073C175.907 395.337 156.727 386.174 138.618 370.84C131.498 364.81 124.717 358.057 118.159 351.527L118.127 351.494C114.791 348.172 111.341 344.736 107.891 341.439C106.104 339.731 104.159 338.12 102.275 336.561L102.219 336.514C101.432 335.864 100.644 335.213 99.8652 334.551L99.2358 334.932C99.5774 335.693 99.8937 336.472 100.201 337.227C100.994 339.177 101.814 341.193 103.074 342.892C106.126 347.006 109.403 351.098 112.575 355.059L112.632 355.131C115.022 358.115 117.493 361.2 119.855 364.277C123.189 368.621 126.655 372.6 130.159 376.104C142.964 388.913 156.826 396.21 172.532 398.413C179.516 399.391 186.814 401.253 193.658 403.119C195.675 403.669 198.168 405.138 199.72 406.69C200.07 407.04 200.372 407.394 200.617 407.739C203.035 411.158 203.674 414.35 202.326 416.279C201.149 417.962 198.747 418.412 195.565 417.547C188.853 415.723 182.005 413.426 175.382 411.203L175.365 411.198C172.833 410.349 170.302 409.5 167.772 408.674C155.586 404.695 144.578 397.847 135.052 388.319C134.813 388.08 134.573 387.838 134.335 387.596C125.943 379.012 117.398 369.299 108.212 357.902C94.3647 340.724 80.6096 323.052 67.3075 305.962L60.583 297.324C59.0315 295.332 57.76 293.146 56.5319 291.033L56.5181 291.009C55.9594 290.049 55.382 289.056 54.7891 288.1L53.6504 286.268L55.5482 287.294C56.8285 287.986 57.9608 288.831 59.011 289.881C59.4538 290.325 59.8966 290.817 60.3624 291.386C63.4321 295.132 66.7137 298.757 70.1147 302.16C75.6444 307.69 81.7174 312.857 88.1684 317.519C89.9002 318.771 91.4888 320.324 93.0244 321.827L93.0394 321.842C94.2422 323.018 95.4851 324.234 96.7781 325.283C97.4163 325.8 98.0576 326.337 98.7044 326.879L98.7096 326.883L98.7109 326.884L98.7113 326.885C101.417 329.147 104.214 331.486 107.007 332.632C113.912 335.468 119.704 339.28 124.71 344.288C125.637 345.215 126.555 346.201 127.435 347.218C129.482 349.58 131.661 351.915 133.77 354.175L133.815 354.223C135.351 355.867 136.938 357.568 138.467 359.269C139.471 360.388 140.501 361.476 141.528 362.503C151.054 372.031 161.659 377.664 173.049 379.246C173.839 379.355 174.63 379.467 175.422 379.58L175.423 379.581C179.671 380.185 184.063 380.81 188.227 380.966C194.018 381.182 199.402 383.363 204.685 387.633C216.565 397.234 229.196 404.739 242.229 409.94C243.884 410.601 245.252 410.69 245.503 410.462C248.581 407.681 251.443 404.777 253.97 402.213L253.975 402.207L253.987 402.195L254.106 402.075C254.707 401.465 255.281 400.883 255.824 400.338C253.688 396.252 251.606 392.263 249.56 388.341C244.371 378.397 239.469 369.004 234.482 359.571C233.97 358.601 233.465 357.626 232.959 356.648L232.95 356.629C230.917 352.7 228.816 348.637 226.167 344.964C225.644 344.238 225.118 343.498 224.588 342.755C221.77 338.795 218.855 334.701 215.546 331.391C214.42 330.265 213.288 329.274 212.182 328.445C207.852 325.201 203.82 321.697 199.857 317.732C193.574 311.45 187.743 304.298 181.506 295.229C179.753 292.681 177.864 290.388 175.889 288.414C172.904 285.428 169.588 283.034 166.035 281.3C159.167 277.947 152.843 273.406 147.241 267.802C146.437 266.999 145.636 266.161 144.861 265.313C143.236 263.535 141.577 261.799 139.931 260.153C130.777 250.997 121.289 243.802 110.925 238.157C104.775 234.807 98.8499 230.425 93.3637 226.189C87.4718 221.64 81.757 217.13 76.6179 211.991C71.5025 206.874 67.5535 201.702 64.5462 196.179C63.7839 194.781 62.6405 193.327 61.0495 191.736C59.3122 190 57.2776 188.328 55.3094 186.713L55.2831 186.691L55.2829 186.691L55.2827 186.691L55.2825 186.69C54.4614 186.016 53.6507 185.35 52.8747 184.69C50.3063 182.507 47.5664 180.423 44.9174 178.409L44.9162 178.408C40.7667 175.252 36.4757 171.988 32.735 168.26L32.6465 168.17C23.7695 159.292 17.959 148.746 12.3407 138.547C10.8304 135.804 9.26703 132.967 7.67209 130.214C7.48836 129.898 7.53423 129.589 7.60349 129.122L7.60408 129.118L7.60495 129.112C7.64523 128.842 7.7009 128.469 7.748 127.931L7.80968 127.237L8.47945 127.431C10.1136 127.906 11.8068 128.338 13.4443 128.757L13.4549 128.759L13.4607 128.761L13.4615 128.761L13.4634 128.761C17.1464 129.703 20.9541 130.676 24.6867 132.238C41.6919 139.357 56.8696 151.193 70.7362 162.923C84.1194 174.245 97.4552 186.131 110.354 197.627L110.357 197.63L110.373 197.645C113.076 200.053 115.778 202.462 118.482 204.867C125.615 211.212 131.687 216.899 137.041 222.255C150.851 236.067 161.455 249.302 169.46 262.715C170.465 264.399 171.894 266.187 173.594 267.886C175.143 269.435 176.836 270.833 178.493 271.929C195.69 283.305 211.467 297.33 226.723 310.894C228.771 312.715 230.819 314.535 232.87 316.35C234.486 317.78 236.114 319.256 237.693 320.687L237.707 320.699L237.878 320.854C242.005 324.598 246.272 328.469 250.691 331.875C256.738 336.538 261.747 340.875 266.005 345.133C273.353 352.484 278.841 359.969 282.785 368.016C283.161 368.786 283.695 369.535 284.262 370.328L284.342 370.44L284.396 370.515L284.475 370.627C284.542 370.722 284.61 370.817 284.676 370.913L290.625 364.963C283.122 354.317 275.616 345.284 267.692 337.358C263.543 333.21 259.212 329.31 254.819 325.769C248.109 320.363 241.179 315.032 234.475 309.875C227.195 304.274 219.666 298.483 212.396 292.575C205.058 286.615 198.871 281.095 193.477 275.701C177.486 259.706 167.486 243.559 162.906 226.34C162.462 224.668 161.626 222.213 160.168 220.01C157.054 215.303 153.69 210.749 150.231 206.109C149.199 204.725 148.062 203.349 146.962 202.017C145.17 199.85 143.318 197.608 141.85 195.251C139.324 191.194 137.282 186.894 135.307 182.735L135.296 182.711L134.639 181.327C131.812 175.393 127.972 169.975 123.223 165.226C121.327 163.33 119.263 161.519 117.086 159.841C112.414 156.242 107.976 152.347 103.894 148.266C94.0192 138.388 85.6538 126.81 79.0289 113.853C76.7705 109.436 73.8795 104.716 70.1883 99.422C67.0893 94.9763 63.7634 90.9663 60.3015 87.5053C48.5264 75.7271 34.8898 69.8023 19.7722 69.8949C17.0386 69.9115 14.312 70.11 11.6741 70.303L11.5859 70.3094L11.5851 70.3095C9.54259 70.4577 7.43344 70.6108 5.32275 70.6786C3.52744 70.7361 1.70766 70.8232 -0.0568542 70.9077L-0.228333 70.9159C-5.4908 71.1698 -10.9335 71.4324 -16.4894 70.9784C-24.7694 70.3006 -31.1381 67.4723 -36.5326 62.0775C-39.3722 59.2365 -41.9833 55.6466 -44.5137 51.1028C-46.285 47.9249 -48.2492 44.1799 -49.3918 40.5061C-52.0693 31.8994 -57.0922 23.9943 -64.7459 16.339C-68.4103 12.6747 -72.6803 9.02628 -78.1571 4.88426L-87.2286 13.9568C-85.3089 15.322 -83.357 16.6856 -81.4645 18.0077L-81.445 18.0213L-81.4268 18.034C-76.6002 21.4065 -71.6108 24.8927 -66.8627 28.6013C-66.0427 29.2436 -65.2631 29.9324 -64.5466 30.6482C-60.6735 34.5221 -58.4207 39.4716 -58.2048 44.5841C-57.8829 52.2021 -54.9967 58.637 -49.38 64.2541C-46.4945 67.1401 -42.8958 69.8308 -38.3774 72.4803C-33.0652 75.5958 -27.4476 80.0367 -20.6994 86.455C-12.1197 94.6156 -3.27353 99.2717 6.3452 100.691C25.517 103.52 44.4832 113.609 66.0344 132.439C68.8732 134.92 71.8188 137.699 75.306 141.187C77.6166 143.498 79.9325 145.888 82.1741 148.201L82.1752 148.202L82.2409 148.27C84.5025 150.604 86.8407 153.017 89.1711 155.348C89.7357 155.913 90.3026 156.475 90.8704 157.034C92.5982 158.733 94.5103 160.318 96.3598 161.851C97.134 162.492 97.9089 163.135 98.6736 163.787L99.254 163.533C98.9108 162.764 98.5929 161.978 98.2853 161.214L98.2791 161.198C97.4674 159.19 96.6293 157.117 95.3247 155.387C90.823 149.415 86.0089 143.469 81.3529 137.72L81.0068 137.292L81.0048 137.289L81.0029 137.287C79.5315 135.469 78.0596 133.65 76.5957 131.828C74.9533 129.782 73.2287 127.755 71.7579 126.04C69.9305 123.911 68.0698 121.897 66.2266 120.053C55.8298 109.654 45.0075 103.567 33.1423 101.442C28.0498 100.531 22.8435 99.3967 17.8088 98.2997L17.7154 98.2794L17.7135 98.2789C14.0772 97.4873 10.3206 96.6696 6.64015 95.9435C3.03273 95.2325 0.337051 93.9441 -1.60187 92.0048C-3.15965 90.4467 -4.20265 88.4481 -4.7032 86.0666C-5.23064 83.5547 -4.81154 81.4588 -3.55582 80.3167C-2.79907 79.6294 -1.39627 78.9682 1.00287 79.7156C4.30167 80.7445 7.67972 81.7232 10.9463 82.6696L10.9846 82.6807C28.03 87.6176 45.6543 92.7222 61.2551 107.377C62.567 108.608 63.9073 109.909 65.2405 111.243C73.3307 119.334 80.8239 128.305 87.7169 136.794C102.129 154.546 116.385 172.851 130.171 190.554L135.066 196.839C137.37 199.795 139.4 202.972 141.362 206.044C142.261 207.451 143.191 208.906 144.132 210.316L144.506 210.878L142.579 211.751L142.298 211.448C140.933 209.969 139.57 208.443 138.252 206.966L138.221 206.932C135.776 204.197 133.249 201.37 130.629 198.75C130.078 198.199 129.52 197.653 128.955 197.116C125.641 193.971 122.084 190.972 118.642 188.07L118.64 188.068L118.603 188.037L118.566 188.006C116.213 186.023 113.78 183.972 111.44 181.888C109.458 180.121 107.525 178.231 105.655 176.402L105.635 176.382C103.987 174.77 102.283 173.103 100.557 171.533C100.294 171.294 100.027 171.046 99.7547 170.793L99.7494 170.788L99.6905 170.734L99.6859 170.73C98.0273 169.191 96.1488 167.448 94.5023 166.939C86.787 164.552 79.8868 160.026 72.1264 152.265C68.844 148.982 65.8462 145.584 62.2689 141.484C60.7538 139.748 59.2063 138.089 57.6691 136.551C46.2284 125.109 34.0382 119.116 21.4352 118.737C-3.39214 117.991 -27.182 103.619 -47.5328 90.2047C-54.769 85.4339 -61.2958 80.1577 -66.9308 74.5217C-73.5944 67.8575 -79.1463 60.5518 -83.4354 52.8096C-86.6387 47.0264 -91.6663 41.5802 -96.5294 36.3143C-98.5973 34.0744 -100.731 31.7634 -102.711 29.4421L-113.541 40.2752C-111.459 42.6494 -109.287 45.0259 -107.183 47.329L-107.18 47.333L-107.179 47.3341L-107.174 47.3389C-102.167 52.8185 -96.9884 58.4854 -92.6808 64.4739C-84.4483 75.9168 -74.6636 86.3291 -65.2007 96.3989L-65.2006 96.3991L-64.685 96.9464C-51.6977 110.768 -41.5586 125.56 -33.6867 142.169C-28.4677 153.183 -22.9981 161.351 -16.4744 167.876C-13.7502 170.602 -10.7691 173.103 -7.61555 175.308C-5.14445 177.037 -2.79907 179.021 -0.446579 181.375C3.98688 185.808 7.75778 190.9 11.4045 195.824L11.4052 195.825C13.7609 199.005 16.1964 202.293 18.7806 205.362C19.8734 206.661 21.0382 207.93 22.2417 209.133C25.5004 212.393 28.8619 214.999 31.9617 216.669C38.6253 220.26 44.6572 224.797 50.4012 230.543C53.1942 233.336 55.8598 236.351 58.55 239.76C60.7554 242.553 62.9023 244.986 65.1132 247.198C70.4682 252.553 76.1521 256.51 82.4916 259.293C101.33 267.564 119.539 280.854 139.798 301.117C142.568 303.889 145.375 306.781 148.376 309.958C161.716 324.082 178.593 343.148 190.803 365.404C192.949 369.315 193.468 371.672 192.485 373.046C191.62 374.255 189.7 374.553 186.446 373.984C174.493 371.894 161.75 368.417 149.552 357.241C140.498 348.948 130.422 341.738 121.759 335.781C110.487 328.03 101.86 321.039 94.6036 313.783C87.9138 307.092 82.407 300.196 77.7676 292.701C75.2799 288.682 71.7611 284.965 68.9729 282.177C67.5724 280.777 66.1269 279.386 64.7273 278.042L63.5317 276.892C61.2472 274.688 59.23 272.711 57.367 270.848C49.1566 262.635 38.6831 251.48 30.5154 238.005C28.971 235.455 26.8091 232.763 24.2645 230.217C22.0235 227.976 19.5698 225.933 17.1659 224.309C-0.775467 212.19 -17.1861 197.365 -33.0558 183.029L-33.058 183.027L-33.8883 182.276C-41.0027 175.85 -49.4954 168.323 -58.5401 161.217C-61.7118 158.726 -64.7396 156.044 -67.5365 153.246C-74.643 146.138 -80.4835 138.17 -85.3893 128.884C-93.1347 114.228 -102.738 101.262 -114.751 89.2493L-115.568 88.4346C-120.043 83.9595 -123.792 78.6296 -127.418 73.4752L-127.418 73.4747L-127.419 73.4729L-127.465 73.4085L-127.466 73.4068L-127.468 73.4033L-127.469 73.4023C-129.025 71.1923 -130.632 68.9091 -132.271 66.7312C-133.136 65.582 -133.923 64.3729 -134.683 63.2027L-134.701 63.1761C-134.928 62.8249 -135.156 62.4745 -135.386 62.1249L-139.844 66.5825C-139.281 67.7326 -138.75 68.9084 -138.235 70.0494L-138.235 70.0506L-138.234 70.0515L-138.226 70.0704C-136.96 72.875 -135.65 75.7761 -133.85 78.36C-131.066 82.3585 -127.829 86.2471 -124.699 90.0077ZM190.087 349.567C180.521 331.503 167.747 314.598 151.038 297.886C141.611 288.456 130.922 279.075 118.363 269.207C114.114 265.868 109.656 263.149 105.471 261.342C90.6387 254.94 76.2652 245.136 58.8671 229.555C55.7499 226.764 52.5553 223.963 49.4658 221.254L49.4515 221.241L49.4508 221.241C41.7195 214.461 33.7242 207.45 26.2983 200.024C23.1416 196.865 20.3115 193.862 17.6443 190.842C16.7065 189.78 15.7085 188.719 14.6758 187.686C11.8923 184.901 8.77362 182.247 5.65962 180.01C4.00221 178.82 2.446 177.501 1.03529 176.089C-2.50491 172.548 -5.29073 168.344 -7.72942 162.86C-12.6829 151.721 -17.6749 140.329 -22.5036 129.309L-22.5041 129.308L-22.512 129.29L-22.5379 129.231L-23.5075 127.018L-23.5271 126.973C-25.2019 123.152 -26.8828 119.316 -28.5753 115.462L-28.9604 114.585L-28.0059 114.66C-19.7101 115.307 -13.3113 118.144 -7.86859 123.589L-7.867 123.591C-5.57066 125.886 -3.41902 128.65 -1.28477 132.04C2.16844 137.528 6.15384 144.027 9.51929 150.625C17.9788 167.206 30.0868 183.1 47.6257 200.642C52.462 205.478 57.7078 210.459 64.1366 216.317C76.3427 227.44 89.3063 236.16 102.667 242.234C114.071 247.419 123.718 255.495 130.845 261.95C139.261 269.57 147.839 277.289 156.137 284.754C169.286 296.582 182.88 308.814 196.159 320.957C196.933 321.666 197.693 322.393 198.419 323.12C205.034 329.735 209.52 337.025 211.396 344.203C214.489 356.04 220.779 367.536 231.193 380.382C233.802 383.601 236.211 387.391 238.558 391.968C239.466 393.738 239.989 397.175 238.71 398.32C237.438 399.458 233.983 399.004 232.231 397.823C227.684 394.752 223.253 391.261 219.059 387.443C217.563 386.08 216.082 384.666 214.654 383.238C205.019 373.601 196.983 362.587 190.087 349.567ZM0.770828 -47.0155L0.768951 -47.0171L0.765701 -47.0199L0.764557 -47.0209L0.763733 -47.0216L0.761215 -47.0237L0.760757 -47.0241C-1.16788 -48.6832 -3.16095 -50.3977 -5.04662 -52.1341C-6.94205 -53.8788 -8.82555 -55.6361 -10.7094 -57.3938L-10.7106 -57.3949L-10.7118 -57.396L-10.713 -57.3971L-10.7142 -57.3982L-10.7154 -57.3993L-10.7166 -57.4004L-10.7178 -57.4015L-10.7189 -57.4026L-10.8785 -57.5515L-13.0859 -59.6094L6.96417 -79.6719C10.4488 -74.5796 14.3001 -69.9119 18.4201 -65.7899C24.9704 -59.2353 32.4637 -53.7973 40.6911 -49.6271C43.0217 -48.4448 45.3483 -46.9692 47.5986 -45.542L47.5991 -45.5417L47.6081 -45.536C48.9738 -44.6692 50.3854 -43.7739 51.7914 -42.9467C52.6039 -42.469 53.4179 -41.9668 54.2327 -41.4623L54.2345 -41.4612L54.2347 -41.4611L54.235 -41.4609L54.2351 -41.4608C56.5841 -40.0084 59.012 -38.5073 61.4485 -37.6076C79.9575 -30.7698 95.1636 -21.2336 107.936 -8.45248C112.323 -4.0632 116.449 0.766586 120.201 5.90245C122.369 8.87134 124.684 11.5769 127.277 14.1717C129.596 16.4921 132.178 18.7611 135.167 21.1075C139.164 24.2449 142.629 27.2921 145.757 30.4223C151.499 36.1687 155.959 42.0551 159.39 48.4184C162.387 53.9742 166.334 59.3536 170.508 63.5641L170.825 63.8829C175.285 68.3453 180.203 72.4852 184.96 76.4901L184.997 76.5208C187.069 78.2647 189.212 80.0687 191.286 81.8718L191.862 82.3724L192.182 81.6812C196.633 72.0746 195.157 66.7331 185.321 56.8331L185.179 56.6916C183.969 55.4803 182.697 54.2966 181.467 53.1522L181.457 53.1422L181.434 53.1208C180.341 52.104 179.21 51.0524 178.133 49.989C176.908 48.7798 175.626 47.5721 174.386 46.4041C172.969 45.0691 171.505 43.689 170.118 42.3011C168.23 40.4125 166.766 38.7904 165.508 37.196C163.57 34.7396 161.577 32.4841 159.587 30.4919C155.361 26.2624 150.999 23.0285 146.255 20.603C139.08 16.935 132.487 12.1194 126.66 6.28839C121.966 1.59146 117.63 -3.90346 113.771 -10.0437C111.646 -13.4223 109.225 -16.4797 106.574 -19.1331C102.002 -23.7074 96.6969 -27.2109 90.3536 -29.8437C87.5717 -30.9981 84.7386 -32.0951 81.9962 -33.1571L81.9096 -33.1906L81.8751 -33.204C77.226 -35.0046 72.4187 -36.8664 67.7531 -39.047C64.6866 -40.4792 61.6651 -42.8352 58.744 -45.1137L58.5188 -45.2892L58.5169 -45.2907C57.9499 -45.7328 57.3851 -46.1731 56.8203 -46.6037C55.0773 -47.936 53.3438 -49.4596 51.6659 -50.9342L51.6531 -50.9455C48.536 -53.6858 45.3122 -56.5195 41.8821 -58.257C35.7222 -61.3769 30.4159 -65.2055 25.6612 -69.9633C21.0685 -74.559 17.1137 -79.9044 13.5801 -86.293L20.8646 -93.5824C21.0717 -93.1862 21.278 -92.7813 21.3412 -92.4467C22.7796 -84.8197 26.5669 -78.1487 33.2595 -71.4517C35.5562 -69.1543 38.2165 -66.8315 41.3953 -64.3522C57.1546 -52.059 73.4364 -42.276 91.1676 -34.4449C105.553 -28.0927 118.441 -19.2762 129.47 -8.24052C131.65 -6.05934 133.773 -3.7682 135.785 -1.43042C136.176 -0.975677 136.603 -0.516983 137.053 -0.0653992C139.356 2.23839 142.484 4.51843 145.858 6.35324C151.549 9.44551 156.295 12.9308 160.367 17.0054C164.393 21.034 167.755 25.7001 170.356 30.8747C172.827 35.7852 176.248 40.3943 180.815 44.9639C183.739 47.8909 187.086 50.7696 191.344 54.0232C193.69 55.8161 195.841 57.6865 197.735 59.5829C205.413 67.2662 209.41 75.6857 209.951 85.3232C210.024 86.6028 210.111 87.8887 210.199 89.1754C210.461 93.0056 210.73 96.9654 210.559 100.677C209.953 113.761 215.654 126.321 229.042 141.403C231.258 143.901 233.625 146.41 236.076 148.863C249.88 162.676 265.621 173.966 280.843 184.884L280.845 184.885L280.864 184.899C282.775 186.27 284.686 187.641 286.595 189.017C292.046 192.948 296.647 196.812 300.66 200.827C305.055 205.226 308.712 209.763 311.838 214.698C314.107 218.279 316.562 221.859 318.937 225.322L318.96 225.355C319.677 226.401 320.394 227.447 321.107 228.494C324.507 233.485 328.363 238.149 332.57 242.359C338.09 247.882 344.414 252.821 351.366 257.04C359.835 262.178 365.905 266.764 371.048 271.911C373.33 274.194 375.446 276.623 377.344 279.136C375.864 280.618 374.385 282.1 372.907 283.583L372.855 283.635L372.855 283.635L372.854 283.635L372.854 283.636L372.854 283.636L372.853 283.636L372.853 283.637L372.852 283.637L372.852 283.637C366.64 289.863 360.219 296.3 353.815 302.544C353.428 302.921 352.13 302.971 351.036 302.653C337.115 298.597 324.883 291.363 314.679 281.153C309.325 275.795 304.407 269.497 300.064 262.433C299.546 261.591 298.849 260.743 297.87 259.763C297.195 259.088 296.469 258.434 295.766 257.8L295.763 257.797C295.445 257.511 295.13 257.226 294.821 256.942C292.318 254.636 289.748 252.321 287.263 250.082L287.259 250.078L287.259 250.077C282.39 245.69 277.356 241.154 272.603 236.496L272.325 236.22C269.234 233.127 266.72 229.59 265.428 226.515C263.132 221.056 259.711 216.094 254.969 211.349C253.067 209.447 250.944 207.56 248.478 205.583C244.867 202.688 241.354 199.476 237.956 196.369L237.945 196.36C236.425 194.969 234.852 193.53 233.289 192.138L232.832 191.731L232.456 192.214C227.453 198.645 228.635 205.865 235.971 213.674C236.652 214.4 237.362 215.131 238.14 215.909C240.282 218.053 242.548 220.153 244.74 222.185L244.747 222.192C246.92 224.206 249.165 226.288 251.271 228.396C253.343 230.468 255.074 232.361 256.562 234.181C258.469 236.515 260.462 238.724 262.487 240.75C268.552 246.819 275.225 251.617 282.886 255.417C287.792 257.85 292.359 261.163 296.457 265.265C300.262 269.07 303.696 273.585 306.668 278.683C309.359 283.299 312.478 287.396 315.941 290.862C322.123 297.048 329.621 301.534 338.865 304.575C340.98 305.272 343.077 306.135 345.296 307.048L345.3 307.049L345.303 307.051C346.15 307.4 347.006 307.753 347.875 308.101C346.11 311.594 343.609 312.068 338.6 309.971C324.479 304.061 310.891 295.588 297.061 284.069C296.387 283.508 295.694 282.865 294.879 282.051C294.302 281.473 293.735 280.881 293.169 280.288C292.596 279.687 292.021 279.087 291.436 278.501C290.93 277.994 290.47 277.555 290.031 277.157C289.237 276.436 288.431 275.663 287.646 274.911L287.646 274.91L287.47 274.742L287.464 274.736C284.967 272.337 282.386 269.858 279.577 268.323C273.174 264.823 267.885 260.943 263.407 256.462C258.947 252 255.428 247.084 252.648 241.433C250.458 236.983 247.35 232.774 243.144 228.566C239.697 225.116 235.958 222.1 232.756 219.606C230.326 217.713 228.099 215.758 226.139 213.795C216.928 204.58 212.757 194.57 213.387 183.196C213.482 181.476 213.409 179.676 213.339 177.935L213.338 177.933L213.337 177.909L213.337 177.905C213.272 176.329 213.205 174.698 213.267 173.154C213.805 159.446 207.923 146.339 194.753 131.908C192.533 129.475 190.2 127.034 187.821 124.653C175.564 112.389 161.261 100.815 142.806 88.228C135.421 83.191 128.68 77.6391 122.772 71.7259C116.635 65.5856 111.157 58.8182 106.489 51.6119C99.9396 41.4991 92.3358 32.0871 83.8886 23.6344C74.8566 14.5956 64.5166 6.31369 53.1547 -0.980423C40.733 -8.95706 30.3914 -17.1401 21.5396 -25.9985C18.5118 -29.0283 15.6049 -32.1957 12.9004 -35.4106C11.85 -36.6609 10.6977 -37.9097 9.37944 -39.2289C6.67094 -41.9384 3.67873 -44.5134 0.785294 -47.003L0.770828 -47.0155ZM232.784 158.502L232.783 158.502C232.532 158.301 232.28 158.101 232.043 157.891L231.239 157.175L231.096 158.244C230.82 160.299 231.452 162.034 232.067 163.498C235.79 172.37 242.119 179.733 248.405 186.368C251.315 189.44 253.845 192.978 256.293 196.399L256.293 196.4L256.296 196.403C256.901 197.248 257.504 198.092 258.113 198.93C259.237 200.474 260.291 202.123 261.309 203.718C263.107 206.535 264.969 209.448 267.296 211.912C268.115 212.78 268.941 213.637 269.765 214.491L269.965 214.699C274.898 219.808 279.558 224.636 282.488 230.923C283.722 233.574 285.68 236.343 287.856 238.521C288.146 238.811 288.44 239.091 288.737 239.358C295.216 245.191 301.918 250.977 308.399 256.572L308.518 256.675L308.519 256.676C311.921 259.613 315.436 262.648 318.877 265.654C319.584 266.272 320.334 266.892 321.061 267.493C322.403 268.602 323.792 269.75 324.989 270.947C325.858 271.817 326.544 272.63 327.089 273.434C328.478 275.483 329.99 277.332 331.584 278.927C337.108 284.455 343.838 287.339 352.763 288.001L354.46 288.127L353.185 286.999C351.471 285.485 349.744 283.985 348.017 282.486C344.248 279.215 340.352 275.833 336.673 272.346L334.12 269.928L334.046 269.858C328.338 264.454 322.438 258.867 316.799 253.225C314.385 250.809 312.192 248.559 310.095 246.346C305.286 241.268 300.807 235.72 296.476 230.355L296.446 230.318L296.437 230.308C294.818 228.303 293.145 226.231 291.477 224.211C290.468 222.991 289.562 221.714 288.418 220.103L288.417 220.101L288.415 220.099L288.415 220.098L288.394 220.069L288.325 219.972L288.311 219.953L288.01 219.529C287.838 219.286 287.66 219.036 287.476 218.779C291.834 220.61 294.877 223.301 297.097 225.522C298.391 226.818 299.623 228.188 300.814 229.513L300.837 229.54C301.795 230.607 302.786 231.71 303.794 232.756C305.943 234.984 308.082 237.223 310.222 239.464L310.868 240.14C315.996 245.51 321.299 251.063 326.63 256.398C330.311 260.081 333.678 263.334 336.922 266.343C345.1 273.928 354.874 279.917 365.185 283.663L365.776 282.709C363.812 280.842 361.629 279.061 358.697 276.936C347.671 268.945 339.203 261.888 332.049 254.727C324.092 246.767 317.733 238.647 312.606 229.906C310.231 225.858 306.978 221.682 303.445 218.146C302.394 217.095 301.319 216.099 300.247 215.187C289.873 206.347 278.487 197.864 269.335 191.045L269.312 191.028C267.765 189.875 266.211 188.733 264.658 187.592L264.563 187.523C257.101 182.039 249.386 176.369 242.7 169.68C239.554 166.531 236.861 163.398 234.466 160.1C234.321 159.901 234.153 159.705 233.95 159.504C233.596 159.149 233.195 158.829 232.806 158.52L232.784 158.502ZM70.2351 -16.5633L70.233 -16.5636C68.6265 -16.822 66.9656 -17.0891 65.3884 -17.4185L63.2434 -17.8653L64.8952 -16.4244C72.8152 -9.51935 80.9628 -2.69896 88.8433 3.89682C97.107 10.8137 105.652 17.9662 113.899 25.1884C115.965 26.9987 118.046 28.9553 120.258 31.1689C124.987 35.9006 129.525 41.0325 133.912 45.9952L135.834 48.1669C137 49.4813 137.504 51.3422 138.036 53.3122C138.22 53.9948 138.411 54.6955 138.631 55.3748L137.944 55.48L134.59 52.1236C130.465 47.989 126.35 43.8456 122.234 39.7018L122.233 39.7003L122.232 39.6987L122.23 39.6972L122.229 39.6956L121.751 39.2143L121.73 39.1935C116.727 34.1547 111.724 29.116 106.704 24.0939C100.377 17.7614 95.0806 12.5125 90.0383 7.57512C83.2374 0.916855 75.6043 -3.72946 67.3492 -6.23491L66.8426 -5.22418C72.5314 -1.03578 77.8678 3.57336 83.1584 8.86661C91.8853 17.5993 100.014 27.6733 109.514 41.5308C112.202 45.4519 115.608 49.4346 120.237 54.0659C123.119 56.9494 126.116 59.7269 128.94 62.3249C136.427 69.2125 144.717 75.2262 152.735 81.0421L152.746 81.0501C162.202 87.9085 171.98 95.0009 180.595 103.62C183.006 106.033 185.276 108.518 187.342 111.006L187.857 111.627L188.273 110.935C190.256 107.639 189.698 103.811 186.66 99.8663C184.772 97.4136 182.635 95.0613 180.568 92.786L180.568 92.7853L180.541 92.7557C179.022 91.0846 177.451 89.355 175.995 87.6048C175.142 86.5798 174.26 85.558 173.374 84.5331C170.508 81.2162 167.544 77.7855 165.622 74.2084C162.482 68.3592 158.798 63.4139 154.03 58.6442C153.596 58.2077 153.152 57.7751 152.699 57.3425C152.518 57.1708 152.341 56.9977 152.165 56.8221C149.905 54.5591 147.915 51.8853 145.992 49.2997L145.992 49.2994L145.989 49.2954L145.934 49.2225L145.934 49.222L145.934 49.2214C145.006 47.9752 144.049 46.6881 143.067 45.4582C141.479 43.4668 139.898 41.4082 138.371 39.4168C134.964 34.9785 131.442 30.3891 127.568 26.211C126.909 25.5008 126.214 24.7787 125.502 24.067C120.692 19.2538 115.288 15.0242 110.062 10.9347C104.799 6.81511 99.3571 2.55553 94.4768 -2.32805C92.5452 -4.26012 90.8357 -6.14949 89.2495 -8.10608C88.8282 -8.62331 88.3817 -9.11996 87.9186 -9.58342C82.994 -14.5113 76.5092 -15.5544 70.2387 -16.5628L70.2351 -16.5633ZM-42.6166 -7.75635C-40.5536 -6.01501 -38.4954 -4.26341 -36.4372 -2.51021L-36.4346 -2.50797C-19.7691 11.6783 -2.53529 26.3483 17.2678 34.8156C21.1898 36.4913 25.1828 38.1456 29.0455 39.7445L29.1245 39.7772C32.9777 41.3723 36.9604 43.021 40.8738 44.6947C56.0921 51.202 67.6382 58.6958 77.2107 68.2766C80.8457 71.9159 84.2152 75.9097 87.2242 80.1463C91.8322 86.6322 96.9263 93.2478 102.367 99.8128C102.57 100.057 102.797 100.306 103.04 100.549C104.195 101.706 105.67 102.708 107.099 103.678L107.123 103.695C107.535 103.973 107.953 104.258 108.368 104.548C108.328 104.299 108.291 104.051 108.255 103.804C108.231 103.638 108.207 103.473 108.184 103.309L108.178 103.273C107.903 101.323 107.642 99.4813 106.632 97.9781C100.007 88.1013 92.4962 76.9065 84.3899 66.5836C82.3064 63.9316 80.1028 61.4387 77.8398 59.1736C69.5565 50.8824 59.8765 45.0626 49.0678 41.8759C41.2684 39.5769 33.2999 35.9682 25.5919 32.4775L25.582 32.473C24.0186 31.7641 22.456 31.0568 20.8965 30.3606C18.6415 29.3527 16.4569 27.7348 14.3457 26.1699L14.3314 26.1593C13.3874 25.46 12.4123 24.7378 11.4497 24.0852L11.1747 23.8985L11.3794 21.2481L11.8821 21.2212C12.4575 21.1919 13.025 21.1113 13.6257 21.025L13.6311 21.0242C14.9588 20.8346 16.3308 20.6387 17.7745 21.0361C19.7552 21.5804 21.7367 22.1184 23.719 22.6556C32.645 25.0773 41.8744 27.5821 50.9561 30.723C60.9435 34.1763 70.1208 40.0451 78.2327 48.1655C85.2395 55.1783 91.5485 63.8628 97.5191 74.7143C103.796 86.1219 109.559 94.0769 116.788 101.312C116.874 101.398 116.959 101.484 117.046 101.569C117.179 101.702 117.313 101.835 117.448 101.967C117.725 102.238 117.999 102.511 118.272 102.784C131.482 116.005 138.878 129.557 140.886 144.211C142.578 156.563 147.704 168.829 156.121 180.668C160.848 187.315 165.424 194.182 169.849 200.823L169.864 200.845L169.964 200.996L169.969 201.002C172.673 205.06 175.467 209.252 178.266 213.349C178.671 213.941 179.073 214.546 179.479 215.155L179.48 215.157C181.068 217.543 182.711 220.012 184.66 221.961C184.953 222.255 185.25 222.534 185.544 222.791C186.773 223.865 187.975 224.989 189.117 226.133C197.281 234.303 203.165 244.04 207.108 255.899C210.11 264.927 215.068 272.817 222.263 280.019C226.043 283.803 230.363 287.326 235.466 290.791C244.311 296.794 253.424 302.635 262.239 308.285L262.244 308.288L262.344 308.352L262.474 308.435L262.48 308.439L262.492 308.447C269.474 312.923 276.689 317.547 283.733 322.228C288.923 325.677 293.541 329.415 297.46 333.337C301.509 337.391 304.975 341.801 307.763 346.449C307.819 346.545 307.905 346.647 308.03 346.773C308.129 346.872 308.239 346.972 308.355 347.076L308.391 347.109C308.414 347.13 308.438 347.151 308.463 347.173L310.352 345.281C309.926 344.624 309.505 343.97 309.088 343.319C308.767 342.819 308.448 342.321 308.13 341.825L307.783 341.282C305.754 338.111 303.836 335.117 301.793 332.114C298.042 326.601 294.234 321.933 290.15 317.846C283.952 311.643 277.193 306.859 269.489 303.222C260.544 299 251.63 293.666 243.009 288.507L243.007 288.506L243.005 288.505L242.983 288.492C239.625 286.481 236.152 284.404 232.73 282.423C230.411 281.08 228.353 279.516 226.614 277.776C223.808 274.967 221.804 271.683 220.657 268.014C217.327 257.365 211.16 246.845 200.659 233.903C198.684 231.471 196.61 229.041 194.604 226.69L194.604 226.69C188.709 219.784 182.613 212.644 178.286 204.535L177.698 203.434L177.697 203.433C171.065 191.014 164.799 179.283 163.165 166.458C161.953 156.962 157.754 147.026 150.685 136.925C148.241 133.435 146.499 129.56 144.812 125.811L144.812 125.81L144.805 125.795C144.269 124.601 143.713 123.367 143.147 122.171C142.487 120.778 141.962 119.313 141.454 117.897L141.453 117.895C140.545 115.366 139.689 112.979 138.133 110.958C134.192 105.84 129.603 100.651 124.492 95.5358C123.784 94.8269 123.069 94.1236 122.353 93.4282C121.74 92.8348 121.136 92.2399 120.539 91.6418C112.156 83.2524 106.971 75.9848 103.723 68.0789C101.389 62.3976 98.5253 55.7021 94.982 49.1205C91.2639 42.2129 86.8599 36.1898 81.8922 31.2174C72.6375 21.9538 61.3688 16.2021 48.4 14.1246C45.0233 13.5824 41.5987 13.2363 38.2877 12.9016L38.2872 12.9016L38.2623 12.8991L38.2451 12.8973C32.1913 12.2855 25.931 11.6528 19.6904 9.80725C-0.912079 3.71458 -22.0789 -8.76111 -45.0075 -28.3287L-54.6875 -18.6395C-53.5232 -17.5817 -52.3653 -16.5144 -51.2074 -15.4471C-48.422 -12.8799 -45.5418 -10.2255 -42.6166 -7.75635ZM-27.7404 42.7362C-28.8792 41.5971 -30.0029 40.3868 -31.0792 39.1378C-39.6081 29.2449 -48.1464 19.3593 -56.6852 9.47327L-57.6922 8.30739L-68.75 -4.49702L-62.5034 -10.7454C-59.6379 -8.39313 -56.72 -6.02925 -53.8849 -3.73251L-53.8803 -3.72871L-53.5183 -3.43547C-46.545 2.21249 -39.3336 8.05347 -32.4434 14.0558C-21.4306 23.6502 -9.97185 30.0481 3.86487 37.4165C22.3949 47.2828 41.0362 58.167 59.0656 68.6938L59.1144 68.7223L61.0223 69.8361C63.4869 71.2748 65.951 72.7133 68.4151 74.1488C72.6016 76.5868 76.4299 79.565 80.1174 83.2544C84.213 87.3511 88.1465 92.3718 92.1424 98.6035C96.1905 104.915 100.77 110.693 105.387 115.311L105.841 115.762C106.193 116.107 106.543 116.456 106.89 116.803C123.277 133.194 134.793 150.962 142.094 171.12L142.434 172.063C143.903 176.132 145.421 180.339 147.694 184.268C150.672 189.415 153.998 194.779 158.135 199.146C173.91 215.799 185.287 231.737 192.916 247.871C199.342 261.459 208.031 273.632 219.48 285.084C225.237 290.844 231.807 296.49 239.004 301.869C247.522 308.234 256.509 314.093 265.202 319.759L265.271 319.804L265.95 320.247C268.679 322.027 271.408 323.807 274.125 325.606C279.45 329.132 283.928 332.736 287.815 336.624C290.907 339.717 293.666 343.054 296.017 346.542C299.287 351.397 300.683 353.705 300.34 355.438C300.07 356.805 298.637 358.003 295.558 360.068C294.581 358.841 293.606 357.613 292.634 356.385C290.3 353.441 287.887 350.398 285.464 347.436C283.249 344.729 280.862 342.102 278.165 339.403C271.363 332.601 263.76 326.575 256.408 320.749C253.537 318.474 250.57 316.123 247.691 313.757L246.802 313.027L246.791 313.018L246.788 313.016L246.783 313.011L246.778 313.007C231.35 300.332 215.398 287.225 200.294 273.62C199.536 272.938 198.778 272.217 198.04 271.478C191.164 264.601 186.067 256.242 181.023 247.562C174.629 236.562 167.507 225.574 160.62 214.95C156.823 209.092 152.898 203.035 149.14 197.047C145.12 190.644 142.23 185.413 140.048 180.585C136.371 172.456 130.985 164.905 123.583 157.501C121.53 155.448 119.271 153.359 116.869 151.296C115.03 149.714 113.224 148.039 111.501 146.315C104.993 139.806 99.2415 132.248 93.4006 122.531C84.6155 107.915 76.8546 96.6892 68.9781 87.2024C67.3451 85.2359 65.6299 83.3517 63.8798 81.6003C52.7896 70.5069 39.8069 64.0141 25.2933 62.3031L22.5176 61.9796L22.5164 61.9795L22.5136 61.9791C15.6934 61.1882 8.64078 60.3703 1.62531 58.817C-9.69981 56.3103 -19.5801 50.8996 -27.7404 42.7362ZM48.1256 -71.0682C49.3979 -70.3943 50.7682 -69.3276 52.1969 -67.8983C52.8837 -67.2125 53.5862 -66.4398 54.2856 -65.6022C54.9604 -64.7924 55.6566 -64.0291 56.3544 -63.3315C59.9453 -59.7412 63.8807 -57.5321 68.736 -56.3801C82.9604 -53.0063 93.6532 -47.3673 102.387 -38.635C103.346 -37.6774 104.293 -36.666 105.204 -35.6326C106.3 -34.3882 107.449 -33.1643 108.617 -31.9965C116.312 -24.3024 125.465 -18.2486 138.295 -12.3686C147.442 -8.17465 157.068 -3.38737 165.362 4.90404C165.673 5.21613 165.984 5.53297 166.291 5.85455C167.536 7.15744 168.817 8.46585 170.093 9.74268C174.397 14.0456 178.878 18.2 183.412 22.0905C188.087 26.1035 191.761 29.4678 194.971 32.6788C205.665 43.3706 212.027 53.3347 214.996 64.0367C217.772 74.049 222.644 83.0073 229.892 91.4219C234.019 96.2148 236.394 101.234 237.15 106.767C238.175 114.262 239.541 121.957 240.863 129.398L240.895 129.574C242.758 140.069 247.991 149.498 256.895 158.4C259.58 161.085 262.663 163.772 266.056 166.386C271.151 170.31 276.244 174.44 281.169 178.434L281.498 178.701C284.58 181.199 287.757 183.774 290.904 186.272C294.244 188.924 297.263 191.131 300.132 193.018C300.844 193.487 301.716 193.652 302.637 193.827L302.643 193.828C302.778 193.854 302.916 193.879 303.053 193.906C303.206 193.937 303.36 193.968 303.514 194.003L303.711 193.59C303.019 192.792 302.337 191.982 301.658 191.172C300.155 189.382 298.6 187.532 296.938 185.87C296.908 185.84 296.878 185.811 296.849 185.781C296.763 185.696 296.677 185.611 296.59 185.526C295.438 184.403 294.294 183.275 293.159 182.139C279.893 168.876 268.563 155.622 258.523 141.622C252.198 132.803 249.315 125.983 248.883 118.819C248.434 111.387 247.33 104.956 245.508 99.154C241.952 87.8317 235.999 76.2842 227.309 63.8518C224.918 60.4306 222.357 57.0023 219.88 53.687C216.137 48.6769 212.268 43.497 208.895 38.2222C204.661 31.6035 200.339 26.1699 195.291 21.1226L194.832 20.666C191.087 16.9216 187.338 12.3137 183.032 6.16269C178.289 -0.609344 173.107 -6.82198 167.627 -12.3014C161.471 -18.4548 154.677 -23.9492 147.431 -28.6322C142.641 -31.7278 138.224 -35.2494 134.657 -38.8151C134.199 -39.2726 133.75 -39.7372 133.311 -40.2049C128.506 -45.3336 124.766 -49.2169 121.187 -52.7961C114.372 -59.6093 108.078 -65.3336 101.945 -70.2955C97.5009 -73.8897 94.0831 -76.9127 91.1877 -79.8084C82.7794 -88.2144 77.9898 -96.3842 76.1129 -105.518C75.0544 -110.671 71.9225 -116.258 68.8931 -121.662L68.8893 -121.668L68.8455 -121.747C68.2138 -122.873 67.5856 -123.993 66.9801 -125.102C65.8336 -127.206 64.0117 -129.215 62.2492 -131.159L62.2491 -131.159L62.2489 -131.16L62.2449 -131.164L62.2285 -131.182L62.2272 -131.184C61.5595 -131.919 60.8736 -132.675 60.2235 -133.438L56.8641 -130.08C57.4149 -128.807 58.0384 -127.507 58.6438 -126.246L58.6534 -126.225C60.1037 -123.198 61.6031 -120.067 62.2346 -117.067C65.2953 -102.546 72.3782 -89.8918 83.8929 -78.3791C87.9785 -74.2943 92.7445 -70.2465 98.0589 -66.3481C107.597 -59.351 116.678 -51.0961 125.46 -43.1133L125.46 -43.1129L125.478 -43.0967C128.749 -40.1228 132.133 -37.0477 135.485 -34.0855C141.967 -28.3612 148.246 -22.4512 155.195 -15.8735C155.371 -15.7076 155.544 -15.5393 155.714 -15.3686C156.901 -14.1819 157.98 -12.894 159.12 -11.5303L159.177 -11.4632L159.18 -11.4593L159.181 -11.4579C159.769 -10.7563 160.37 -10.0381 161.007 -9.31241L161.64 -8.59105L160.705 -8.37614C160.317 -8.28685 160.028 -8.19757 159.809 -8.12962C159.365 -7.99294 159.013 -7.88469 158.672 -8.12804C153.703 -11.6718 148.29 -14.4669 143.056 -17.1694L143.053 -17.1709L143.041 -17.1772L143.04 -17.1774C135.102 -21.2776 126.894 -25.5173 119.918 -32.4935C118.571 -33.8398 117.287 -35.2731 116.101 -36.7529C115.228 -37.8425 114.278 -38.9013 113.278 -39.9008C109.206 -43.973 104.056 -47.3381 97.5373 -50.1904C94.8647 -51.3597 92.2672 -53.2678 89.7565 -55.1135L89.7068 -55.1501C88.3907 -56.1161 87.0322 -57.1133 85.6828 -57.9864C84.8618 -58.5189 84.0375 -59.0791 83.2117 -59.6417C80.7541 -61.3143 78.2134 -63.0431 75.7162 -63.992C69.5073 -66.3521 64.0759 -69.9107 59.1124 -74.8718C54.9541 -79.031 51.1135 -84.2149 47.3717 -90.7214C45.321 -94.2872 43.7437 -98.045 42.2193 -101.678C41.3816 -103.674 40.5155 -105.737 39.5822 -107.74C39.2148 -108.531 38.611 -109.294 37.9701 -110.104C37.8097 -110.306 37.6493 -110.509 37.4928 -110.712L25.9766 -99.1977C28.4753 -90.7515 32.2551 -84.0782 37.526 -78.8082C40.5258 -75.8089 44.0922 -73.2047 48.1256 -71.0682ZM99.5103 -87.9452C88.8118 -98.6424 80.006 -110.433 72.5901 -123.991C70.8108 -127.243 68.8809 -130.515 67.0146 -133.679L67.0145 -133.679L67.0143 -133.679L67.0142 -133.679L67.014 -133.679L67.0084 -133.689C66.2186 -135.027 65.4288 -136.366 64.6484 -137.708L69.1707 -142.23C70.5782 -140.811 71.9868 -139.393 73.3955 -137.976L75.0995 -136.26L75.1655 -136.194C79.8159 -131.515 84.6225 -126.679 89.3289 -121.901C100.193 -110.868 106.548 -100.227 108.756 -89.3666C110.94 -78.6235 116.17 -69.233 124.745 -60.6599C128.553 -56.852 132.934 -53.2813 138.137 -49.7446C144.614 -45.3413 151.249 -40.9805 157.668 -36.7619L157.67 -36.7605L157.743 -36.7122L157.811 -36.6675L157.812 -36.6669C166.993 -30.6328 176.483 -24.3949 185.659 -17.9375C190.431 -14.5795 195.409 -10.2894 200.876 -4.82297C202.072 -3.62613 203.278 -2.38977 204.56 -1.04274C207.593 2.14345 209.735 6.30281 211.807 10.3251L211.807 10.3255L211.809 10.3296L212.478 11.6252C214.003 14.563 215.401 17.5955 216.754 20.5287L216.755 20.532L216.757 20.5351L216.771 20.5665L216.772 20.568C218.672 24.6874 220.636 28.9467 222.989 33.0251C224.988 36.4868 227.751 39.7627 230.424 42.931L230.56 43.0922C231.549 44.2664 232.569 45.476 233.527 46.6741C234.765 48.2189 236.068 49.7614 237.33 51.2548L237.331 51.2555L237.331 51.2561L237.332 51.2567L237.332 51.2574L237.373 51.3049C239.639 53.9855 241.983 56.7579 244.001 59.6116C246.905 63.7191 249.737 67.9618 252.476 72.0653L252.481 72.0731L252.482 72.0741C256.294 77.7844 260.235 83.6887 264.438 89.3285C273.998 102.159 279.917 115.366 282.029 128.583C284.408 143.461 292.348 157.478 306.304 171.432C307.202 172.329 308.14 173.242 309.092 174.145C309.729 174.75 310.355 175.357 310.968 175.969C317.026 182.027 320.844 187.658 322.983 193.689C325.527 200.864 330.654 206.975 335.613 212.886L335.613 212.886L335.62 212.894L335.658 212.94L335.661 212.943L335.666 212.949C336.966 214.499 338.31 216.099 339.584 217.695C341.556 220.164 343.648 222.507 345.798 224.658C362.499 241.357 381.936 245.985 400.733 250.462L400.735 250.462C401.599 250.668 402.45 250.779 403.619 250.93L403.62 250.931L403.621 250.931L403.667 250.937C404.034 250.984 404.436 251.036 404.883 251.097C403.826 252.092 402.892 253.16 401.983 254.201L401.977 254.209L401.976 254.209C398.709 257.95 395.888 261.18 388.899 259.282C386.374 258.596 383.883 258.555 381.474 258.515C380.519 258.499 379.53 258.483 378.563 258.425C364.429 257.586 352.064 251.964 341.813 241.714C337.593 237.495 333.703 232.443 330.245 226.699C326.465 220.414 323.228 213.758 320.623 206.915C317.262 198.084 311.727 190.002 303.203 181.479C302.176 180.452 301.077 179.39 299.937 178.323C299.197 177.631 298.443 176.901 297.696 176.154C293.799 172.258 289.902 167.749 285.06 161.535C283.597 159.658 282.73 157.458 281.811 155.128L281.801 155.101C281.368 154.003 280.92 152.867 280.405 151.78C279.712 150.313 279.055 148.795 278.42 147.327C276.929 143.876 275.387 140.307 273.213 137.05C266.109 126.402 261.64 115.906 259.552 104.965C255.953 86.1088 246.118 67.2116 230.326 48.7982C219.031 35.6299 207.5 21.4094 201.452 5.09163C200.019 1.22287 197.772 -2.25934 194.775 -5.25537C192.696 -7.33443 190.243 -9.18896 187.483 -10.7684C183.724 -12.9207 179.911 -15.1618 176.222 -17.3308L176.147 -17.3747C167.707 -22.3375 158.978 -27.4688 150.257 -31.9027C143.598 -35.2869 137.741 -39.5525 132.351 -44.9414C128.624 -48.6671 125.192 -52.856 121.858 -57.7461C120.271 -60.0747 118.698 -62.4625 117.173 -64.7768L117.048 -64.9659L117.036 -64.9845L117.035 -64.9868L117.032 -64.9913C114.682 -68.5573 112.254 -72.2439 109.721 -75.8053C107.227 -79.3128 104.474 -83.0022 101.255 -86.2211C101.167 -86.3095 101.078 -86.3971 100.99 -86.4847L100.867 -86.6053C100.411 -87.0496 99.9586 -87.4962 99.5103 -87.9452ZM78.9414 -143.299C79.2535 -142.987 79.5672 -142.679 79.8841 -142.374C81.0979 -141.207 82.299 -140.03 83.4535 -138.875C101.412 -120.905 113.307 -102.981 119.821 -84.0824C122.098 -77.4764 126.226 -71.1519 132.089 -65.2837C134.847 -62.5247 137.96 -59.9089 141.34 -57.5106C146.21 -54.0557 151.242 -50.6903 156.109 -47.4363C163.249 -42.6617 170.63 -37.725 177.643 -32.4104C187.223 -25.1488 195.259 -18.2384 202.209 -11.2837C214.341 0.85675 223.395 13.3649 229.886 26.9541C236.919 41.6764 246.965 55.793 258.935 67.7753C269.115 77.965 276.063 88.9818 280.804 102.447C286.523 118.693 295.766 133.973 308.273 147.863C309.692 149.439 311.117 151.004 312.539 152.565L312.558 152.586L312.639 152.675C320.27 161.05 328.161 169.71 334.48 179.523C336.604 182.821 339.377 186.189 342.721 189.536C345.392 192.208 348.408 194.827 351.447 197.111C369.908 210.988 389.95 221.474 409.332 231.614L409.344 231.62L409.671 231.791C412.121 233.074 414.571 234.356 417.017 235.644C417.996 236.16 419.622 236.09 420.076 235.663C423.901 232.066 427.629 228.312 431.574 224.34L431.578 224.335L431.58 224.334L431.606 224.307C432.702 223.205 433.817 222.081 434.961 220.935C433.776 220.381 432.645 219.814 431.543 219.262L431.451 219.215L431.438 219.209C428.725 217.848 426.162 216.563 423.757 215.991C415.103 213.932 406.082 212.175 396.943 210.765C383.938 208.762 372.95 203.763 363.348 195.485C360.85 193.331 358.392 191.047 356.045 188.698C346.471 179.118 338.269 168.061 331.666 155.833C325.435 144.294 317.927 134.204 308.711 124.982C306.79 123.059 304.757 121.138 302.667 119.272C301.209 117.969 299.791 116.63 298.453 115.291C290.11 106.941 284.066 97.8193 280.491 88.1784C279.566 85.6852 277.825 83.1365 276.141 80.6717C275.676 79.9917 275.213 79.314 274.768 78.6403C271.227 73.2761 267.586 67.8409 264.055 62.5692L263.692 62.0281L263.685 62.0176C256.373 51.1053 248.812 39.8209 241.732 28.5854C233.205 15.0532 225.317 4.83267 216.912 -3.5778C214.94 -5.55154 212.904 -7.45726 210.862 -9.24359C196.756 -21.5762 183.562 -32.4135 170.523 -42.3755C161.518 -49.2543 153.142 -56.5553 145.628 -64.0746C131.109 -78.604 119.019 -94.7584 109.694 -112.089C108.058 -115.13 105.553 -118.054 103.13 -120.882L103.005 -121.028L103.005 -121.028L103.003 -121.03C102.232 -121.932 101.439 -122.859 100.688 -123.778C98.241 -126.767 95.7107 -129.782 93.2626 -132.696L93.2059 -132.764C90.4411 -136.059 87.5842 -139.465 84.8293 -142.855C83.1563 -144.912 81.6089 -147.092 80.1113 -149.202L80.084 -149.24C79.523 -150.031 78.9619 -150.821 78.3945 -151.607L74.6094 -147.82C75.0149 -147.395 75.4187 -146.969 75.8227 -146.542L75.8297 -146.534L76.0089 -146.345L76.0368 -146.315L76.0379 -146.314L76.0395 -146.313L76.0401 -146.312C76.9841 -145.313 77.9589 -144.282 78.9414 -143.299ZM-105.016 87.9008C-106.824 85.2898 -108.695 82.591 -110.593 79.9981C-114.83 74.2131 -119.041 68.2787 -123.113 62.5396C-124.846 60.0969 -126.58 57.6542 -128.32 55.2155L-121.553 48.4518C-119.198 51.5435 -116.853 54.6416 -114.508 57.7404L-114.501 57.7492L-114.5 57.7507C-108.159 66.1285 -101.602 74.7913 -94.9291 83.1752C-94.2386 84.0424 -93.4644 84.9024 -92.562 85.8044C-90.5967 87.7688 -88.3664 89.5799 -86.209 91.3309C-85.6735 91.7657 -85.1405 92.1989 -84.6146 92.6313C-82.6382 94.2574 -80.9418 95.7831 -79.4265 97.2969C-74.8592 101.861 -71.8768 106.395 -70.0381 111.562C-68.4714 115.966 -65.8591 120.272 -63.0492 123.081C-62.8957 123.234 -62.7423 123.383 -62.5865 123.529C-61.4848 124.559 -60.3705 125.637 -59.2759 126.732C-49.1497 136.853 -40.7166 148.336 -32.5628 159.442L-32.3891 159.678C-31.0811 161.459 -29.7729 163.241 -28.4566 165.019C-22.2158 173.443 -15.132 181.586 -6.80182 189.913C-0.689194 196.023 6.10989 202.242 13.9854 208.927C15.6636 210.351 17.3363 211.899 19.0983 213.661C23.1944 217.756 27.0771 222.326 30.8326 226.746L30.8331 226.746L30.8388 226.753C32.7448 228.996 34.7164 231.317 36.6896 233.544C39.4909 236.706 42.4297 239.828 45.4255 242.823C56.5942 253.986 69.396 264.215 83.4758 273.227C85.5669 274.565 87.7122 275.889 89.7891 277.172L89.7961 277.176L89.8549 277.212C95.2099 280.517 100.747 283.933 105.826 287.877C107.99 289.556 110.187 291.538 112.953 294.302C114.139 295.487 115.332 296.718 116.486 297.909L116.582 298.009C117.711 299.174 118.876 300.376 120.04 301.539C120.884 302.382 121.65 303.129 122.384 303.823C130.347 311.359 138.33 318.759 147.866 327.551C150.012 329.529 152.224 331.503 154.365 333.413C158.058 336.709 161.878 340.119 165.46 343.642L165.538 343.72C167.046 345.227 168.251 347.123 169.646 349.318C170.168 350.14 170.702 350.979 171.289 351.862C170.845 351.786 170.452 351.728 170.104 351.676C169.043 351.519 168.402 351.423 167.922 351.103C163.609 348.233 159.095 345.649 154.73 343.15L154.71 343.138C146.293 338.318 137.591 333.335 130.026 326.107C129.303 325.416 128.585 324.71 127.87 323.995C126.917 323.042 125.97 322.076 125.022 321.107C124.069 320.134 123.117 319.162 122.158 318.203C119.255 315.301 115.777 312.003 112.002 309.544C100.391 301.984 90.5809 292.507 79.871 281.801L76.7526 278.682C75.6731 277.604 74.592 276.525 73.5053 275.449C70.7207 272.688 67.5667 270.218 64.5163 267.83C61.4533 265.431 58.2866 262.951 55.5384 260.204C55.2228 259.889 54.912 259.569 54.6051 259.244C49.0051 253.302 43.5729 247.022 38.3194 240.948L38.2856 240.909L38.2599 240.879L38.2596 240.879C32.9222 234.708 27.4043 228.328 21.7003 222.291C18.5265 218.931 15.2436 215.457 11.8706 212.085C5.48352 205.702 0.0858459 201.031 -5.11806 197.39C-14.8742 190.562 -23.8806 182.981 -32.6521 174.214C-41.4237 165.446 -49.7349 155.706 -58.0612 144.435C-68.0688 130.887 -78.4513 118.755 -89.8027 107.342C-95.5502 101.563 -100.36 94.6214 -105.011 87.9083L-105.016 87.9008ZM328.039 317.109C323.517 313.097 319.246 309.307 315.047 305.273C306.827 297.379 298.365 291.365 289.177 286.884C280.666 282.736 272.337 278.11 263.113 272.93C261.938 272.271 260.895 271.297 260.029 270.432C259.943 270.345 259.857 270.259 259.771 270.172C259.646 270.044 259.521 269.916 259.397 269.788C259.264 269.652 259.132 269.515 259 269.378L258.998 269.376C258.664 269.029 258.329 268.682 257.993 268.346C257.913 268.266 257.833 268.187 257.753 268.108C257.659 268.016 257.565 267.925 257.47 267.835C255.651 266.105 253.827 264.317 252.057 262.581L252.053 262.578L251.8 262.33C247.962 258.563 243.991 254.669 239.878 251.139C235.508 247.39 231.823 244.007 228.611 240.797C216.341 228.531 209.237 216.91 206.252 204.225C204.465 196.629 200.38 189.401 194.434 183.32C189.314 178.081 186.393 172.138 185.506 165.154C185.106 162.003 184.605 158.776 184.121 155.655L184.121 155.655L184.12 155.653C183.647 152.599 183.158 149.442 182.761 146.351C181.248 134.56 175.835 124.154 166.215 114.537C163.762 112.086 160.994 109.657 157.985 107.316C153.204 103.596 148.431 99.6769 143.812 95.8857L143.806 95.88L143.787 95.8647L143.76 95.8422L143.756 95.8394C139.577 92.4091 135.256 88.8621 130.947 85.4764C128.396 83.4737 125.616 81.7126 122.928 80.0109L122.846 79.9592L122.842 79.9563C121.813 79.3043 120.756 78.6346 119.715 77.9528L119.336 78.6718C119.383 78.7471 119.43 78.8227 119.476 78.8985C119.503 78.9424 119.53 78.9864 119.557 79.0304C119.64 79.1676 119.722 79.3055 119.805 79.4434L119.887 79.5795C120.411 80.4565 120.906 81.2845 121.535 82.0208C123.187 83.9532 124.687 85.6858 126.323 87.322C126.685 87.683 127.052 88.0385 127.426 88.3854C129.677 90.4798 131.925 92.6484 134.109 94.8314C145.928 106.646 157.011 120.059 167.048 134.697C171.254 140.831 173.345 146.084 173.626 151.232C174.606 169.096 179.567 184.599 188.79 198.626C199.65 215.143 210.854 231.257 220.382 244.841C220.98 245.693 221.713 246.545 222.688 247.519C223.492 248.324 224.373 249.121 225.225 249.892L225.237 249.904C226.112 250.695 227.015 251.512 227.858 252.355C228.244 252.741 228.588 253.102 228.909 253.46C229.33 253.925 229.755 254.394 230.181 254.862L230.183 254.864L230.184 254.866C232.989 257.955 235.889 261.148 238.002 264.577C242.381 271.682 247.661 278.342 253.695 284.373C259.948 290.624 267.192 296.381 275.228 301.483C279.618 304.272 283.588 307.493 287.718 311.622C288.624 312.527 289.536 313.473 290.509 314.516C293.016 317.201 295.798 320.069 299.013 323.283C302.143 326.412 305.387 329.573 308.526 332.631L308.57 332.674L308.952 333.046L308.96 333.054C311.271 335.307 313.647 337.624 315.995 339.944C316.184 339.756 316.362 339.579 316.531 339.412L317.048 338.899C317.911 338.044 318.48 337.479 319.037 336.885C319.241 336.666 319.416 336.399 319.636 336.062L319.638 336.059L319.742 335.899C318.82 335.09 317.898 334.282 316.976 333.474C316.215 332.807 315.453 332.14 314.692 331.474L314.652 331.439L314.649 331.436C301.186 319.644 287.266 307.451 274.371 294.561C270.741 290.932 267.263 287.318 264.033 283.816L262.842 282.528L264.565 282.866C267.174 283.38 269.358 284.588 271.471 285.756L271.471 285.756L271.472 285.757L271.704 285.886C272.897 286.544 274.108 287.271 275.278 287.972L275.278 287.973L275.286 287.978C277.931 289.566 280.666 291.206 283.337 292.15C289.778 294.425 295.293 297.914 300.197 302.816C300.86 303.479 301.521 304.178 302.162 304.894C303.249 306.108 304.362 307.286 305.472 308.396C311.409 314.33 317.811 318.906 325.043 322.383C328.426 324.009 330.673 324.505 332.114 323.945C332.822 323.671 333.372 323.11 333.789 322.236C331.955 320.586 330.132 318.967 328.324 317.362L328.319 317.358L328.039 317.109ZM231.591 323.949C236.94 329.304 242.065 335.202 246.826 341.482C253.519 350.311 260.187 358.867 267.247 367.925C270.207 371.722 273.183 375.541 276.172 379.394L267.763 387.81C265.87 381.054 261.33 376.087 256.82 371.572C256.351 371.103 255.879 370.635 255.408 370.168L255.244 370.006C254.719 369.485 254.195 368.966 253.673 368.444C252.238 367.007 250.563 365.293 249.048 363.482C242.173 355.281 235.685 346.582 229.411 338.17L229.356 338.097C226.262 333.95 223.065 329.664 219.858 325.486C215.596 319.935 210.707 314.416 204.913 308.617C200.447 304.146 195.525 299.573 188.955 293.786C184.771 290.102 180.78 286.361 177.091 282.669C172.541 278.116 168.341 273.523 164.607 269.018C161.036 264.709 157.162 260.462 153.098 256.392C143.128 246.412 131.406 236.891 117.262 227.285C106.147 219.736 95.2205 212.233 84.7852 204.982C83.9887 204.428 83.174 203.742 82.432 202.999C81.8046 202.37 81.2435 201.721 80.7655 201.066C77.5478 196.67 73.8196 192.366 69.3669 187.909C63.254 181.79 56.6021 176.206 50.1683 170.806C48.5935 169.485 47.0139 168.027 45.3387 166.35C42.0934 163.102 38.9865 159.513 35.98 156.039L35.9338 155.986C34.2783 154.072 32.566 152.092 30.8504 150.193C29.037 148.184 27.3357 146.011 25.6913 143.909L25.6185 143.816C24.96 142.974 24.3012 142.132 23.6328 141.298L23.7695 141.057C24.3021 141.333 24.8426 141.595 25.3697 141.85C26.8853 142.583 28.3179 143.277 29.5648 144.282C44.0786 155.973 58.7788 167.949 72.9952 179.531L73.0129 179.546L79.9444 185.193C80.4609 185.613 80.9688 186.102 81.4604 186.575L81.4727 186.587L81.4742 186.588C82.2457 187.331 83.0434 188.098 83.9326 188.671C97.3011 197.287 109.325 208.34 120.952 219.029C127.595 225.137 134.466 231.452 141.52 237.255C143.719 239.062 145.904 241.06 148.202 243.361C153.614 248.778 158.646 254.904 163.514 260.83L163.522 260.839C164.299 261.787 165.076 262.731 165.85 263.671C172.574 271.817 178.755 278.691 184.746 284.689C193.085 293.036 201.306 299.956 209.879 305.844C217.542 311.107 224.847 317.198 231.591 323.949Z" fill="#FF4133"/>
</g>
</svg>
