<?xml version="1.0" encoding="utf-8"?>
<!-- Generator: Adobe Illustrator 20.1.0, SVG Export Plug-In . SVG Version: 6.00 Build 0)  -->
<svg version="1.1" id="Layer_1" xmlns="http://www.w3.org/2000/svg" xmlns:xlink="http://www.w3.org/1999/xlink" x="0px" y="0px"
	 viewBox="0 0 1440 809.9" style="enable-background:new 0 0 1440 809.9;" xml:space="preserve">
<style type="text/css">
	.st0{fill:#303D78;}
	.st1{clip-path:url(#SVGID_2_);}
	.st2{fill:#FF4133;}
</style>
<g>
	<g id="Mask_Group_13" transform="translate(9.869 125.423)">
		<g id="pattern_01" transform="translate(0 -278.801)">
			<rect id="Mask-3" x="-9.9" y="153.4" class="st0" width="1440" height="809.9"/>
			<g id="Group_17">
				<defs>
					<rect id="SVGID_1_" x="-9.9" y="153.4" width="1440" height="809.9"/>
				</defs>
				<clipPath id="SVGID_2_">
					<use xlink:href="#SVGID_1_"  style="overflow:visible;"/>
				</clipPath>
				<g id="Mask_Group_23" class="st1">
					<path id="Combined_Shape" class="st2" d="M762.7,1459c0.3-2.5,0.6-4.5,0.8-6.3c0.4-3.3,0.7-5.7,1.2-8.1
						c3.2-15.9,0.3-30.3-8.1-40.5c-7.7-9.4-19.6-14.6-33.4-14.6c-4.5,0-9,0.5-13.4,1.5c-14.4,3.2-29.1,4.8-43.8,4.8
						c-29.5,0-59.7-6.7-89.6-19.9c-23.9-10.5-32.8-25.9-30.7-53.1c1-13.4,2.1-28.5,1.5-43.3c-1.2-26.8-20.3-46.2-45.4-46.2
						c-5.4,0-10.7,0.9-15.8,2.5c-29.5,9.1-52.9,27.2-71.3,55.5c-6.8,10.4-17.4,20.2-30,27.7c-16.7,10-34.4,18.1-52.9,24.1
						c-44.5,14.3-59.2,50.4-68.5,87.2c-1.2,5.3-1.9,10.6-2.3,16c-0.3,2.9-0.5,5.8-0.9,8.6c-0.1,1.1-0.9,1.5-2.4,2.4
						c-0.8,0.5-2,1.2-3.7,2.3l-3.3,2.1l0.7-3.8c0.9-5.3,1.7-10.4,2.4-15.3c1.5-10.1,2.9-19.7,5.5-28.8
						c12.1-42.9,34.6-67.9,70.7-78.7c10.6-3.2,20.9-8.2,30.9-13.1c2.9-1.4,5.8-2.8,8.7-4.2c17.5-8.3,31.2-20.3,43.1-37.6
						c23.8-34.8,53.7-53.2,88.9-54.7c0.8,0,1.6-0.1,2.4-0.1c28.6,0,50.4,22.9,51.9,54.5c0.6,13.5-0.4,27.1-1.7,41
						c-2.3,25.6,3.9,37,25.6,47.1c27.8,12.9,56.7,19.4,85.8,19.4c14.9,0,29.7-1.7,44.2-4.8c4.9-1.1,9.9-1.6,14.9-1.7
						c15.5,0,28.4,5.9,38.4,17.5c12.3,14.3,14.9,32.3,8.2,55.1c-0.4,1.2-1.1,2.1-2.4,3.5c-0.7,0.8-1.7,1.8-2.8,3.3l-3.8,4.6
						L762.7,1459z M299.1,1456.4c-5.5-19.8-4-35.7,4.6-48.6c8.3-12.5,16.3-20.4,24.5-24.3l10.9-5.2c36.2-17.3,73.7-35.2,112.1-48.8
						c10.5-3.7,20.5-5.6,29.6-5.6c26.4,0,46.9,15.9,59.2,46.1c9.6,23.6,26.3,35.6,56,40.1c7.8,1.2,15.6,2.3,23.4,3.3
						c16.3,2.2,33.2,4.6,49.5,7.9c15.3,3.2,36.6,10.1,45,33.8l0.6,1.6l-1.6,0.6c-0.5,0.2-0.9,0.3-1.2,0.5c-0.4,0.2-0.9,0.4-1.4,0.4
						h-0.9l-0.5-0.8c-18.2-26.5-45.1-29.9-73.5-33.5c-5.5-0.7-11.3-1.4-16.9-2.3c-16.9-2.6-33.7-6.2-50.3-10.6
						c-15.6-4.3-26.7-15.1-32.1-31c-1.3-3.5-2.9-6.9-4.8-10.1c-0.5-0.9-1-1.8-1.5-2.7c-12.6-23.2-28.7-34.5-49.4-34.5
						c-7.2,0.1-14.4,1.3-21.2,3.6c-23,7.3-45.7,17.1-67.6,26.6c-7.5,3.2-14.9,6.5-22.4,9.6c-10.4,4.4-24,10.3-36.6,17.5
						c-20.5,11.7-30.1,30.1-28.6,54.6c0.4,4.1-0.2,8.3-1.8,12.2l-1.9,4.3L299.1,1456.4z M472.9,1453.8l1.6-0.5
						c3.4-1.1,6.9-2.1,10.3-3.1c7.6-2.3,15.4-4.7,23-7.4c5.9-2.2,9.3-4.8,10.2-7.9c0.9-3-0.5-6.8-4.1-11.4
						c-4.2-5.2-9.6-9.4-15.7-12.2c-11.2-5.1-24.5-7.9-38.4-7.9c-31.6,0-62.2,13.3-80.1,34.7c-3.1,3.7-5.2,8.2-7.5,12.9
						c-1.1,2.2-2.1,4.4-3.3,6.5l-0.8,1.4l-6.8-3.4l0.8-1.5c1.2-2.2,2.2-4.6,3.3-6.9c2.3-5.1,4.7-10.4,8.4-14.6
						c20.7-23.4,52.7-37.4,85.7-37.4c14.2-0.1,28.4,2.7,41.5,8.1l0.8,0.3c4.9,2,10.4,4.3,13.2,8.5c4.5,6.7,10.6,15.8,9.9,24.1
						c-0.5,6.6-11.6,13-17.4,15.4c-7,2.9-14.6,4.6-21.9,6.3c-3.1,0.7-6.3,1.4-9.3,2.2l-1.6,0.4L472.9,1453.8z M1188,1458.6
						c-1.4-2.6-3-5.2-4.5-7.8c-3.5-5.7-7-11.7-8.7-18.1c-3.7-13.9-6.5-28.3-9.2-42.2c-1.4-7-2.7-13.9-4.2-20.8
						c-6.4-30.4-25.9-47.5-54.7-48.2c-30.5-0.8-52.6-14.2-67.6-41.2c-1.2-2.1-2.6-4.2-3.9-6.3c-0.6-0.8-1.1-1.7-1.7-2.6
						c-8.5-13.2-17.4-19.4-27.9-19.4c-6.6,0-14.2,2.4-23.2,7.4c-4.7,2.6-7.5,5.7-8.4,9.1c-0.8,3.1,0,6.6,2.4,10.3
						c4.6,7.2,10.3,15.3,17.6,20.2c26,17.4,34.8,41.7,26.9,74.2c-7.1,29.3-20.7,56.7-40.4,81.4c-1.4,1.7-3.5,2.6-6.4,2.6
						c-0.8,0-1.5-0.1-2.3-0.2l-2.8-0.4l5.2-7.3c2.6-3.6,5.1-7.2,7.7-10.8c20.6-29.5,31.1-56.6,33-85.3c1.1-17.2-5.3-30.9-20.2-43.1
						c-10.8-8.9-19.3-18-25.1-27.2c-4-6.3-5.2-12.6-3.3-18.2c2-6,7.1-10.8,14.8-13.8c8.7-3.3,17.8-5.6,27.1-6.9
						c1.3-0.2,2.6-0.3,3.9-0.3c9.1,0,16.8,4.8,23,14.4l4.7,7.2c4.8,7.4,9.8,15.1,14.8,22.5c10.4,15.3,25.8,23.5,45.6,24.4
						c42.8,1.9,65.3,22.4,71,64.4c3.9,29,8.4,54.8,24.3,77.5l1.1,1.5l-7.7,4.3L1188,1458.6z M83.7,1457.8c-1.3-3.4-2.6-6.7-3.8-10.1
						c-2.7-7.2-5.5-14.7-8.7-21.8c-2.7-5.9-5.3-11.8-7.9-17.8c-8-18.1-16.4-36.8-26.4-54.1c-16.8-28.7-44.4-48.6-84.5-61.1
						c-3.8-1.2-7.4-2.4-12-4c-2.3-0.8-4.9-1.7-7.8-2.7l0.3-3.3c3.2-0.6,6.5-0.9,9.8-0.8c57,0,127.2,82.5,147.3,173.1l0.3,1.3l-5.9,3
						L83.7,1457.8z M8.1,1458.3c-3.9-4.5-7-9.8-10-15c-7.1-12-13.7-23.4-29.5-27.2l16.2,40.1l-6.8,2.8l-0.7-1.5
						c-1.6-3.7-3.3-7.4-5-11.1c-4-8.6-8.1-17.6-11.5-26.6c-1.8-4.6-0.8-7.5,0.3-9.1c1.4-2.1,3.9-3.2,7-3.2c1.2,0,2.4,0.2,3.5,0.4
						c7.5,1.8,12.8,4.5,15.8,8c7.2,8.5,13.8,17.7,20.1,26.6c2.5,3.5,5,7,7.6,10.5l1,1.4l-6.9,5L8.1,1458.3z M323.9,1455.9
						c2.4-14.6,9.3-27.7,20.3-38.8c26.5-26.7,60.8-36,87.7-41.1c12.2-2.2,24.5-3.7,36.8-4.4c1.8-0.1,3.5-0.2,5.3-0.2
						c40.4,0,76.6,30.5,82.6,69.5c0.4,3.5,0.5,7,0.2,10.5c-0.1,1.6-0.1,3.1-0.1,4.7v1.7h-6.5l-0.1-1.6c-3.4-47-34.2-76.2-80.2-76.2
						c-4.9,0-9.8,0.3-14.7,1c-22.9,2.9-52.7,8.1-79.6,22.9c-21.1,11.6-35.2,26.8-43,46.5c-1.1,3-3.3,5.6-6.1,7.2l-3.1,1.8
						L323.9,1455.9z M1013.6,1457.1c9-13.1,21.5-20,36.2-20c14.2,0,29.4,6.5,44.1,18.8l-1.9,2.8c-12.7-6.9-27.6-13.9-42.3-13.9
						c-12.2,0-23.2,4.7-33.6,14.5L1013.6,1457.1z M35.2,1457.2c-0.6-1.8-1.2-3.7-1.7-5.5c-1.2-4-2.5-8.1-3.9-12
						c-2-5.5-3.9-11-5.7-16.5c-4.6-13.3-9.3-27.1-15.1-40c-14-30.8-36.8-49-67.7-54c-1.4-0.3-2.8-0.8-4.2-1.4
						c-0.9-0.4-1.9-0.8-3.2-1.3l-5.6-2.1l5.9-1.2c2.5-0.5,5.1-0.7,7.7-0.7c18.6,0,41.7,11.7,56.1,28.5
						c20.1,23.5,30.1,51.4,37.9,78.2c1.7,5.9,3.1,12,4.5,17.9c0.6,2.7,1.3,5.5,1.9,8.2l0.4,1.6l-6.5,1.9L35.2,1457.2z
						 M1282.4,1458.5c-0.7-0.1-1.5-0.1-2.3-0.2c-2,0-3.9-0.4-5.7-1.2c-59.9-33.4-84-78.3-73.7-137.3c1.7-9.9,0.6-17.7-3.3-23.1
						c-3.7-5.1-10.2-8.4-19.1-9.6c-8.8-1.2-17.7-1.9-26.6-1.9c-5.9,0-11.8,0.3-17.5,0.9c-3.5,0.4-7.1,0.5-10.6,0.6
						c-22.3,0-39.7-8-53.2-24.5c-1.7-2.1-3.5-4.2-5.3-6.2c-3.1-3.6-6.3-7.2-9.1-11.1c-11.5-16.2-26.6-24.3-45.1-24.3
						c-5.7,0-11.4,0.7-17,2c-14.9,3.4-26.2,7.2-35.6,12.1c-12.9,6.7-25.7,9.9-39.1,9.9c-12.7,0-25.6-2.9-39.6-9
						c-2.4-1-4.8-2.1-7.2-3.1c-16.3-7.2-33.1-14.5-50.2-17.3c-3.7-0.6-7.4-0.9-11.1-0.9c-20.8,0-39.7,10.1-56.2,29.9
						c2.3,1.1,4.4,2.3,6.5,3.5c5.5,3,10.2,5.6,15.3,6.5c31.9,5.8,62.9,10.5,100,16c41.9,6.3,71.3,20.7,92.3,45.3
						c19.5,22.9,21.3,47.7,4.9,69.8c-10.6,14.3-24.9,27.5-41.4,38.2c-4.6,3-8.8,4.5-12.7,4.5c-3.5,0.1-6.8-1.4-9.1-3.9
						c-3.7-3.9-5.2-10.4-4.6-18.6c0.3-3.2,0.9-6.4,1.8-9.6l0.5-2.3c5.3-22.6,2.8-42.7-7.2-58.1c-9.8-15.1-26.6-25.4-48.6-29.7
						c-13.4-2.6-27.3-4.1-40.8-5.5c-14.1-1.5-28.7-3-42.8-5.8c-21.4-4.4-42.2-12.6-62.4-20.5l-1.1-0.4c-7.6-3-14-10.6-18.2-16.1
						c-7.7-10.2-11.1-20.8-9.7-30.7c1.4-9.9,7.5-19.2,17.6-26.8c7-5.3,14.5-10,21.9-14.5c3.1-1.9,6.1-3.8,9.1-5.7l-0.2-1.8
						c-3.4-0.1-6.8-0.3-10.3-0.5c-7.6-0.4-15.6-0.8-23.3-0.8l-2.6,0c-12.9,0.2-26.1,0.6-38.9,1c-9.9,0.3-19.8,0.6-29.7,0.8l-0.6,0
						c-10.7,0.2-18.3,1-18.9,8.9c-0.4,5.4,5.8,13.6,12.1,19c5.2,4.4,11.1,8.1,16.9,11.7c5.8,3.4,11.3,7.2,16.5,11.3
						c12.9,10.6,18.8,25.3,16.7,41.4c-3,23,11.3,33.6,23.8,38.5c14.1,5.5,29.5,8.2,46.6,10.8c10.2,1.6,20.6,2.6,30.8,3.6
						c17,1.7,34.6,3.4,51.3,7.8c40.5,10.5,62.1,43.1,60.7,91.6c-0.2,7.9-1.8,15.7-3.3,23.4c-0.7,3.5-1.4,7-2,10.5l-0.3,1.6l-7.6-1.1
						l1.1-6.8c0.5-3.5,1.1-7.1,1.7-10.6c5.1-30.6,0.2-56.6-14.2-75.4s-38.4-30.1-69.2-32.9c-8.5-0.8-17.2-1.3-25.6-1.8
						c-14.1-0.8-28.7-1.7-42.8-3.8c-11.7-1.8-24.3-6.3-38.5-13.8c-15-8-22.6-20.7-20.8-34.8c4.2-32.4-16.6-48.1-37.5-59.1
						c-1.1-0.6-2.2-1.1-3.3-1.7c-3.3-1.5-6.5-3.4-9.5-5.5c-8.1-6.3-15.9-14.3-12.3-26.3c3.9-13,16-14.9,26.1-15
						c19.9-0.3,40.1-0.4,60.7-0.5c3.1,0,6.2,0,9.3-0.1c4.2,0,8.4-0.1,12.6-0.1c8,0,14.4,0.2,20.3,0.5c3.2,0.2,6.1,2.2,9,4.2
						c1.2,0.8,2.3,1.6,3.5,2.3l1.6,0.9l-1.1,1.5c-0.7,1-1.4,2.2-2,3.3c-1.6,2.7-3.2,5.4-5.6,7.2c-4.1,3-8.5,5.6-12.7,8.2
						c-3.5,2.1-7.2,4.3-10.6,6.7c-11.3,7.9-17.6,17.2-18.1,27c-0.5,9.9,4.9,20.1,15.6,29.4c19.1,16.5,43.3,22.1,64.3,25.4
						c13.6,2.1,27.5,3.7,40.9,5.2c14.4,1.6,29.4,3.3,44,5.7c38.7,6.3,64.9,31.5,68.4,65.7c0.8,7.8-0.5,15.7-1.8,23.5
						c-0.9,4.8-1.5,9.6-1.9,14.5c-0.3,4,0.5,8.1,1.2,12.4c0.2,1.4,0.5,2.8,0.7,4.2c1.5-0.2,3-0.3,4.5-0.4c4.5-0.3,8.7-0.6,11.9-2.5
						c18.2-10.4,31.4-25.1,39.1-43.5c9.4-22.6-1.7-49-28.4-67.2c-26.9-18.4-57.9-24.1-84.7-27.4c-22.2-2.7-44.7-6.6-66.4-10.4
						c-5.2-0.9-10.3-1.8-15.5-2.7c-5.8-1.1-11.3-3-16.6-5.6c-7.7-3.6-11.7-7.3-12.6-11.8c-0.8-4.5,1.6-9.5,7.6-15.8
						c14.3-14.9,37-23.8,60.7-23.8c12.7-0.1,25.2,2.6,36.7,7.7l7.8,3.6c10.8,4.9,21.9,10,33,14.4c7.7,3.1,15.9,4.7,24.2,4.8
						c10.4,0,20.8-2.5,31.8-7.7c15.9-7.5,35.8-16.9,56.3-16.9c6.1,0,12.2,0.8,18.1,2.5c11.4,3.2,21.5,11.1,31.3,18.7l1.1,0.9
						c4.8,3.7,8.4,8.8,11.9,13.7c1.4,2,2.8,3.9,4.3,5.8c13.3,16.9,30.1,24.8,52.8,24.8c3.6,0,7.4-0.2,11.3-0.6
						c4.2-0.4,8.4-0.6,12.6-0.6c12.5,0.1,25,1.6,37.3,4.4c7.7,1.5,14.4,6,18.8,12.5c4.1,6.4,5.4,14.1,3.6,21.5
						c-12.6,56.9,8.9,100.4,66,133.1c1.8,1,3.6,2.2,5.4,3.3l3.3,2.1l-0.4,4.8L1282.4,1458.5z M1386.7,1456.8c-2-1.3-3.8-2.9-5.5-4.6
						c-16.8-17.9-37.5-29.8-63.1-36.5c-17.5-4.6-34.3-11.4-50.1-20c-22.9-12.5-33.4-34.7-30.3-64.2c1.2-11.7,0.3-25.1-3.1-42.1
						c-3.4-17.5,0.3-25.4,15.3-32.5c9.4-4.4,19.7-6.7,30.1-6.7c27.8,0,53.6,15.3,65.5,39c10.4,20.6,26.5,30.7,49,30.8
						c7.3,0,14.5,0.2,21.8,0.3l11.5,0.2v8.7l-1.8-0.1c-3.4-0.1-6.9-0.3-10.3-0.5c-6.9-0.4-14-0.7-20.9-0.7l-2.3,0
						c-24.1,0-41.7-11-53.7-33.6c-11.9-22.2-33.4-35.5-57.6-35.5c-8.1,0-16.2,1.4-23.9,4.1c-15.8,5.5-17.3,10.9-14,26.7
						c3,14.8,3.9,29.3,2.6,41.8c-3,27.4,5.7,46.2,26.6,57.5c13.2,7.2,28.6,13.1,48.4,18.8c34.5,9.8,57,25.3,70.8,48.7l-2.5,2.2
						C1388.5,1458,1387.6,1457.4,1386.7,1456.8L1386.7,1456.8z M221.8,1457.1c-0.2-0.7-0.5-1.4-0.7-2.1c-0.7-1.7-1.2-3.6-1.2-5.4
						c0.2-6.1,0.3-12.3,0.4-18.4c0.3-17.8,0.7-36.1,2-54.2c2.7-36.8,21.6-56.5,59.3-61.9c7.5-1.1,15.1-2.4,22.4-3.8l7.4-1.3
						c17.4-3.1,27.4-13.1,30.6-30.5c4.3-23.3,17.5-37.8,40.4-44.4c14.3-4.1,25.2-12.8,30.7-24.5c5.6-11.9,5.4-26.2-0.7-40.3
						c-3.5-8.2-10-15.4-15.8-21.5c-9.5-10-19.4-20-29.1-29.6c-7.2-7.3-14.5-14.5-21.6-21.9c-6.2-6.4-12.4-13-18.4-19.4
						c-7.9-8.4-16-17.2-24.3-25.4c-13.7-13.7-30.4-20.4-50.9-20.4c-10,0-21.1,1.5-35.1,4.7l-3.2,0.7c-6.2,1.6-12.6,2.8-19,3.5
						c-1.1,0.1-2.1,0.1-3.2,0.1c-8.7,0-15.3-3.1-18.6-8.6c-3.4-5.7-2.9-13.3,1.5-21.5c6.7-12.5,15.3-22.6,24.1-28.3
						c19.2-12.5,39.8-22.5,59.2-31.4c5.1-2.3,10.6-3.5,16.1-3.5c7,0,14.2,1.8,22.1,5.4c8.9,4.2,19.1,6.3,29,8.3
						c2.9,0.6,5.8,1.2,8.6,1.9c20.4,4.6,36.2,13.9,49.7,29.3c26.5,30.1,55.5,44.7,88.7,44.7c7,0,13.9-0.6,20.8-1.9
						c4.7-0.8,9.4-1.2,14.1-1.2c15.1,0,30.9,4.1,47,12.3c15.8,8,28.2,15.3,38.7,22.9c29.2,20.9,60.6,31.1,96,31.1
						c23.6,0,48.5-4.5,76-13.8c34.3-11.6,63-50.5,44.9-108.7c-4.7-15-12.2-29.3-20.3-43.7c-7.4-13.5-9.1-25.9-5.2-39.2
						c1.2-4,2.2-8,3.3-12c1.5-5.6,3.1-11.5,4.9-17.2c6.8-21.1,1.5-39.3-15.6-54c-14.2-12.2-30.8-26.1-48.5-38.2
						c-26.8-18.3-44.4-44-53.9-78.6c-5.6-20.5-16.5-34.7-33.3-43.4c-29.4-15.2-45.9-38.4-50.4-71.1c-4.2-30.7-22.3-51.4-51.1-58.3
						c-49.6-11.8-81.1-41.7-99.2-93.9c-13.8-39.7-45.5-65.4-89.2-72.4c-3.1-0.5-6.3-0.7-9.4-0.7c-7,0-14,1.2-20.7,3.6
						c-47.2,18-96.9,22.6-145,27.1c-19.3,1.8-42,4.2-63.9,8.3c-37.6,7.1-55.2,28.6-55.3,67.9C57.1,499.7,43.7,513,6.1,513
						c-0.8,0-1.6,0-2.4,0c-15.7-0.2-31.6-1.1-46.9-1.9c-4.9-0.3-9.8-0.5-14.7-0.8c-1.6-0.2-3.1-0.6-4.5-1.3
						c-0.6-0.2-1.1-0.5-1.7-0.7l-1.2-0.4l0.6-6.5l1.8,0.3c1.9,0.3,3.7,0.6,5.6,1c3.9,0.9,7.8,1.4,11.7,1.5c4.8,0,9.5,0.1,14.3,0.1
						c6.9,0.1,13.8,0.2,20.6,0.2c13.1,0,23.7-0.3,33.4-1c16.4-1.2,24.5-10.7,25.4-29.8c0.4-10.2,1.4-20.3,3.2-30.3
						c5.8-31.2,24.3-50.3,53.6-55.3c17.9-3,36.3-5.2,54.1-7.3c15.7-1.8,31.9-3.8,47.8-6.3c4.3-0.7,8.6-1.4,13-2
						c27.8-4.3,56.5-8.8,83.5-16.8c12.6-3.8,25.7-5.8,38.9-5.9c44.1,0,81.4,23.6,102.2,64.8c5.8,11.4,10.4,23.5,14.9,35.3l0.5,1.3
						c10.6,27.6,30,45.7,59.4,55.3c2.9,0.9,5.8,1.9,8.6,2.9c4.5,1.6,9.1,3.2,13.7,4.5c33.7,10,53.6,33.9,59,70.9
						c3.7,25.3,16.7,44.1,38.8,55.8c24.3,13,38.5,30.6,44.6,55.5c7.7,31.6,27,57.1,59,78c14.6,9.6,28,21.4,41,32.9
						c18.7,16.6,24.3,37.3,16.8,61.8c-0.7,2.4-1.4,4.8-2.1,7.2c-1.1,3.9-2.3,7.9-3.6,11.8c-6,17.4-4.2,32.9,5.5,48.7
						c22.2,36,28.2,69.8,18.6,103.3c-10.1,35-35.5,55.3-80.1,64c-15.3,3-30.8,4.6-46.3,4.7c-17.3,0.1-34.6-2.2-51.2-6.9
						c-16.9-4.9-33-12.3-47.7-22l-3.3-2.1c-25.6-16.8-52.2-34.2-83.2-34.2c-4.7,0-9.5,0.4-14.1,1.2c-6.2,1-12.4,1.5-18.6,1.6
						c-22.3,0-44-6.8-66.4-20.9c-8.9-5.6-20.1-13.3-27.5-23.2c-12.5-16.8-29.6-26.7-55.6-32.1c-7.6-1.6-15.1-3.9-22.4-6.2
						c-5.1-1.6-10.3-3.2-15.5-4.6l-0.4-0.1c-4-1.1-8.2-2.1-12.1-2.1c-1.1,0-2.3,0.1-3.4,0.3c-36.1,7.8-63.8,24.1-84.7,49.9
						c-2.3,2.9-4.1,6.2-5.1,9.8c-1.6,5.5-1.4,9.8,0.6,12.6c1.7,2.3,4.7,3.5,8.9,3.5c0.9,0,1.9-0.1,2.8-0.2
						c7.8-0.8,15.7-2.5,23.3-4.1c4.6-1,9.4-2,14.1-2.8c7-1.3,14.1-1.9,21.2-2c23.9,0,43.3,8.1,59.2,24.8
						c7.3,7.6,14.5,15.6,21.5,23.3c7.6,8.3,15.4,16.9,23.3,25.1l4.4,4.6c12.9,13.4,26.2,27.2,40.4,39.5
						c21.8,18.8,29.7,48.3,19.7,73.3c-6.1,15.2-16.2,24.4-30.2,27.4c-24.2,5.2-37.3,18.7-41,42.6c-2.8,17.9-15,29.6-35.2,33.9
						c-8.6,1.8-17.4,3.2-26,4.4c-3.1,0.5-6.1,0.9-9.2,1.4c-29.3,4.6-44.9,20.4-47.8,48.4c-1.7,16.2-2,32.9-2.3,49
						c-0.1,6.9-0.3,13.8-0.5,20.7c-0.1,3.2-0.1,6.4,0,9.6c0,1.5,0,5.9,0,5.9l-6.1,0.9L221.8,1457.1z M813.5,1456.3
						c-0.2-3.6-0.3-7.2-0.4-10.8c-0.2-7.6-0.4-15.5-1.6-23c-8.1-47.6-28.8-67-71.4-67c-1.4,0-2.8,0-4.2,0.1
						c-9.4,0.3-18.9,0.7-28.1,1.1c-13.7,0.6-27.9,1.3-41.8,1.3c-21.7,0-42.8-6.6-63-19.6c-13.1-8.5-17-20.1-10.9-32.7
						c13.4-27.7,6.8-51-21.2-75.6c-4-3.5-8-7-11.9-10.4c-20.2-17.6-41.1-35.9-60.4-55.2c-8.9-8.9-16.2-22-19.9-35.7
						c-3.1-11.3-1.3-22.6,5-30.8c5.9-7.6,15.1-12,24.7-11.9c3.8,0,7.5,0.6,11.2,1.7c17.5,5.3,34.4,13.5,50.8,21.5
						c3.2,1.6,6.4,3.1,9.6,4.6c10.2,4.9,20.3,10.4,30,15.7c6.5,3.6,13.3,7.3,20,10.7c13.9,7.4,29.5,11.3,45.2,11.4
						c14,0,28.7-3.2,43.6-9.5c22.2-9.4,45-18.5,69.7-28c12-4.8,24.7-7.3,37.6-7.4c18.5,0,36.3,5.8,53,17.3
						c16.8,11.6,34.1,17.5,51.3,17.5c24.7,0,48.6-12,69-34.8l1.2-1.4c8.8-9.8,18-20,25.4-31c26-38.5,63.5-57.1,114.8-57.1
						c5.3,0,10.9,0.2,16.6,0.6c12.4,0.9,24.6,2.8,36.7,5.7c29.2,6.9,43.4,23.6,46,54.1c0.5,5.9,1,11.8,1.4,17.8
						c0.5,5.9,0.9,11.8,1.4,17.8c1.6,18.1,10.9,26.9,28.6,26.9h0.6c6.2-0.1,12.6-0.7,18.7-1.3c4.6-0.5,9.4-1,14.1-1.2
						c1-0.1,2-0.1,2.9-0.1c28.8,0,51.3,21.4,52.4,49.9c1.7,45.1,23.4,74.8,66.4,90.8l1.1,0.4v8.8l-2.3-0.8
						c-47.2-16.7-70.4-47.8-73.1-97.8c-1.4-25-20.7-43.1-46.1-43.1c-1.6,0-3.2,0.1-4.8,0.2c-9.3,0.9-18.4,1.3-27.2,1.3
						c-3.8,0-7.5-0.1-11.2-0.2c-13.9-0.6-23.4-9.1-26.1-23.2c-1.5-8.1-2.4-16.5-3.2-24.6c-0.5-4.8-1-9.8-1.6-14.7
						c-5.3-40.2-12.5-48-51.6-55.4c-12.9-2.6-26-3.9-39.2-3.9c-21.5,0-40.9,3.9-59.5,11.8c-19.9,8.5-34.2,23.6-46.6,38.5l-4,4.8
						c-15.4,18.6-31.3,37.8-50.3,52.6c-15.2,11.9-31.9,17.9-49.5,17.9c-14.4,0-29.2-4.1-43.9-12.1l-1-0.5c-3.9-2.1-7.9-4.3-11.7-6.8
						c-15.9-10.6-32.5-15.9-49.3-15.9c-11.4,0.1-22.7,2.4-33.3,6.6c-4.9,1.9-9.9,3.9-14.9,5.8c-17.3,6.7-35.1,13.6-52.3,21.1
						c-17.1,7.5-33.9,11.3-50,11.3c-17.5,0-34.9-4.5-51.6-13.4c-30.5-16.1-62.2-32.1-90.2-46.2c-4.8-2.4-10.2-3.8-15.8-5.2
						c-2.4-0.6-4.9-0.9-7.4-0.9c-8.5,0-16.3,3.8-20.8,10.1c-4.4,6.1-5.4,13.9-2.8,21.8c4.6,13.8,12.2,26.5,22.1,37.2
						c10.9,11.6,23.3,22.2,35.3,32.4c6.4,5.5,13,11.2,19.4,16.9l2.6,2.4c9.5,8.6,19.2,17.4,27.6,27.2c13.9,16.3,17.1,35.5,9.5,57.2
						c-8.2,23.1-6.5,27.1,16.5,38.7c20.2,10.1,41.2,11.5,59,11.5c6.8,0,13.8-0.2,20.6-0.4c2.9-0.1,5.8-0.2,8.7-0.3
						c2.9-0.1,5.7-0.2,8.6-0.3c7.3-0.2,14.9-0.5,22.4-0.5c5.5,0,10.5,0.1,15.2,0.4c32.2,1.8,53.3,21.2,62.6,57.5
						c2.8,11.1,3.5,22.8,4.1,34.1c0.3,5.1,0.6,10.3,1,15.4l0.2,1.7l-8.4,0.6L813.5,1456.3z M442.3,1442.1c-1.8-2.3-2.1-5.7-0.9-10.3
						c3.4-13.3,17.4-20.5,28.9-20.5c6.6,0,12.4,2.2,16.6,6.3c3.5,3.4,5.7,10.2,5,15.3c-0.6,4.3-10.5,6.7-12.5,7.1
						c-6.3,1.4-12.8,2.3-19.1,3.2l-0.2,0c-2.5,0.4-5.2,0.7-7.9,1.2c-1.1,0.2-2.3,0.3-3.4,0.4
						C445.9,1444.8,443.7,1443.9,442.3,1442.1L442.3,1442.1z M450.7,1436.1l33.4-5.6c-0.2-4-1.6-6.7-4.4-8.4
						c-2.3-1.5-5.6-2.3-10.7-2.6c-0.3,0-0.7,0-1,0C459.6,1419.4,452.5,1426.2,450.7,1436.1L450.7,1436.1z M153.6,1437.5
						c-10.9-8.4-21.1-19.9-31.3-35.2c-6.4-9.7-10.8-20.8-14.9-31.6c-0.9-2.3-1.8-4.6-2.7-6.9c-12.1-30.3-32.4-55-60.3-73.4
						c-1.8-1.2-3.5-2.5-5.2-3.7c-2.4-1.9-5-3.7-7.7-5.2c-21.4-11.9-32.5-31.7-33.9-60.6l-0.1-2c-0.1-1.1-0.1-2.2-0.2-3.3
						c-1.1-38.9-18.1-63.3-52-74.6c-2.5-0.9-5-2.2-7.2-3.6l-1.2-0.7c-0.8-0.6-1.4-1.4-1.6-2.4c-0.1-0.2-0.1-0.4-0.2-0.6l-1.1-2.4
						l2.6,0c31.6,0.3,62.3,31.2,66.9,67.4c0.5,3.9,0.9,7.9,1.2,11.9c0.9,9.4,1.7,19.2,4.6,28.1c3.5,10.8,10,21.4,17.6,28.4
						c7.1,6.6,15.2,12.6,23.1,18.4c12.2,9,24.8,18.3,34,30.2c11.2,14.5,19.6,31.5,27.7,48c4.9,10,10,20.3,15.6,29.9
						c9.1,15.5,18.2,27,27.7,35.1c4.8,4,9.4,6.2,13.5,6.2c6.6,0,11.6-5.6,13.9-15.8c2.4-10.8,2.1-22.5,1.8-33.9l-0.1-2.3
						c-0.9-31.3,5.2-53.9,19.5-73.4c9.3-12.7,21.8-21.2,38.1-26.1c2.7-0.8,5.3-1.6,8-2.3c9.8-2.8,20-5.6,28.7-10.5
						c8.9-4.9,16.9-12.9,20.8-21c8-16.4,18.9-29.2,34.1-40.2c22.1-16.1,26.7-38.3,12.8-62.5c-6.1-10.7-14.5-16.7-25.5-18.6
						c-5-0.8-10-1.9-14.9-2.9c-2.4-0.5-4.8-1-7.2-1.5c-13.7-2.7-22.8-10.5-27.8-23.8c-5.3-14.2-11.9-20.5-21.4-20.5
						c-5,0-11,1.8-18.2,5.5c-8.1,4.2-15.6,9.4-22.2,15.5c-28.5,26.2-59.9,39-96.2,39c-21.8,0-44.8-4.6-70.3-14
						c-7.4-2.7-14.4-6.7-21.2-10.5c-4.6-2.6-9.3-5.2-14.1-7.4c-14.8-6.9-29.9-13.7-44.5-20.3c-7.4-3.3-14.8-6.7-22.1-10
						c-1.3-0.6-2.6-1.3-3.8-2.1c-0.5-0.3-1.1-0.6-1.6-1l-1.3-0.7l2.6-6.7l1.5,0.5c3.9,1.3,7.8,2.5,11.7,3.7c8.7,2.7,17.8,5.4,26,9.5
						c9.2,4.5,18.1,9.8,26.8,15c8.4,5,17.2,10.2,26.1,14.6c29.1,14.4,55.7,21.4,81.3,21.4c19.1,0,38.1-4.1,55.5-12
						c9.6-4.3,18.3-11.1,26.8-17.7c5.9-4.8,12-9.2,18.4-13.3c12.5-7.7,24.5-13.2,35.7-16.2c2.2-0.6,4.5-0.9,6.8-1
						c10.5,0,19,6.8,22,17.9c5.7,20.4,19.8,26.7,39.4,30c17.1,2.8,31,11.2,39.1,23.6c7.9,12.1,10,27,6,43
						c-2.5,9.8-10.4,21-21.2,29.8c-11.6,9.5-24.6,21.7-32.4,39.5c-10.5,23.9-34.1,29.4-55,34.3c-28.8,6.7-46.9,24-53.6,51.2
						c-2.6,10.7-3.3,22.1-3.9,33.2c-0.3,4.8-0.5,9.8-1,14.7c-0.3,3.9-0.5,7.8-0.7,11.7c-0.3,8.3-0.6,16.9-2.9,24.9
						c-3.2,11.4-11.1,18.4-20.5,18.4C163.7,1443.2,158.5,1441.3,153.6,1437.5L153.6,1437.5z M1055.5,1405.8
						c-5.3-5.9-8.9-13.3-12.4-20.5l-0.2-0.4c-1.5-3-3-6.2-4.6-9.1l-0.3-0.5l0.1-0.6c3.3-20.4,23.8-39.4,45.7-42.3
						c0.9-0.1,1.8-0.2,2.7-0.2c14.8,0,32.3,14.3,36,29.5c0.7,2.7,0.6,7-1.3,9.9l-3.7,5.9l0,0.1c-6.3,10.1-12.9,20.6-20.4,30.1
						c-4.5,5.8-11.5,9.2-18.8,9.2C1070.1,1416.9,1062,1413,1055.5,1405.8L1055.5,1405.8z M1084.4,1340.8c-9,1.7-17.4,5.8-24.2,12.1
						c-7,6.3-11.3,13.8-12.3,21c0.8,2.1,1.6,4.4,2.3,6.5l0,0.1c1.7,5.1,3.3,9.9,6.1,14c6.1,8.8,13.2,13.4,20.5,13.4
						c7.7,0,15.2-5.3,21.1-15c1.9-3.2,4.1-6.3,6.1-9.3l0.1-0.2l0.1-0.1c2.5-3.6,5.1-7.4,7.3-11.2c2.2-3.8,3.2-7.3,2.7-9.3
						c-3.3-11.9-17.9-22.1-27.6-22.1C1085.8,1340.6,1085.1,1340.7,1084.4,1340.8L1084.4,1340.8z M1288,1344.7
						c-1.9-10.5,2.8-17.9,13.1-20.9c1.8-0.5,3.6-0.7,5.5-0.7c19.9,0,47.6,23.8,47.7,41.1c0.2,15-13.3,16.5-19.1,17.2
						c-1.1,0.1-2.1,0.2-3.2,0.2C1312.7,1381.4,1291.3,1363.6,1288,1344.7L1288,1344.7z M1297.7,1335.2c-1.7,2.1-2.2,5.4-1.4,9.3
						c3,14,21.4,28.7,35.7,28.7c5.8,0,10.2-1.6,12.3-4.5c1.7-2.3,2-5.4,0.8-9.1c-3.7-11.8-25.2-27.8-37.7-27.9h-0.4
						C1302.8,1331.7,1299.5,1332.9,1297.7,1335.2L1297.7,1335.2z M149.9,1313.5l-0.3,0c-21.9,0-38.5-9-49.2-26.9
						c-9.5-15.6-20.8-25.6-36.7-32.3c-9.2-3.9-16.3-14.2-20.9-21.6c-4.1-6.7-7-14.2-9.7-21.4l0,0l-0.1-0.3c-1.2-3.2-2.5-6.5-3.9-9.7
						c-6.4-15-4.6-28.8,5.4-41.2c5.8-7.1,13.2-10.4,23.4-10.4c3.6,0,7.2,0.4,10.7,1l1.4,0.2c4.8,0.7,9.8,1.5,14.4,3.4
						c12.1,5.2,25.2,7.9,38.4,7.9c21.4,0,43.4-7,69.1-21.9c1.6-0.9,3.2-1.9,4.7-2.8l0.5-0.3c8.2-4.9,16.6-10,25.7-12
						c1.6-0.3,3.3-0.5,4.9-0.5c6.4,0,14.3,2.3,21.6,6.2c6.5,3.5,12.6,8,18.5,12.3l0,0l0,0c5.1,3.9,10.5,7.6,16,10.9
						c13.5,7.8,20.9,16.5,22.1,25.8c1.2,9.3-3.9,19.5-15,30.2c-3.4,3.1-6.9,6-10.7,8.7c-6.6,4.9-12.8,9.5-16,15.7
						c-10.8,21-27.8,28.8-50.5,37.5c-6.8,2.6-12.5,9.1-18,15.4c-2,2.2-4.2,4.8-6.4,7c-9.8,10-21,19.2-36.2,19.2
						C152.2,1313.7,151.1,1313.6,149.9,1313.5z M38.6,1168c-4.9,6.7-6.1,15.7-3.3,24.8c4.7,15.3,9.3,26.4,14.7,36.1
						c4.9,8.7,11.5,15.5,17.7,18.1c17.6,7.4,29.9,18.1,38.7,33.6c9.4,16.5,24.3,24.6,45.6,24.8c0.8,0,1.4,0.1,2.1,0.1
						c11.1,0,21.6-6.5,32.2-19.8c11.3-14.2,25.3-23.5,43.8-29.2c5.4-1.7,10.2-6.8,14.8-11.8c1.5-1.7,2.9-3.2,4.4-4.6
						c3.3-3.2,6.4-6.9,9.2-10.1l0,0c2.9-3.4,6-6.9,9.2-10.1c2.8-2.7,5.6-5.2,8.7-7.5c2.9-2.2,5.6-4.6,8.3-7.1
						c9.8-9.8,14-17.4,13.2-24.1c-0.9-6.7-7-13.2-19.4-20.4c-5.9-3.6-11.6-7.5-17.1-11.6c-5.6-4.2-11.4-8.1-17.4-11.7
						c-4.9-2.8-10.4-4.3-16-4.5c-1.1,0-2.3,0.1-3.4,0.3c-7,1.2-13.7,5.4-20.3,9.5l0,0l-1.4,0.9c-21.7,13.4-47.9,27.2-77.4,27.2
						c-3,0-6-0.1-8.9-0.4c-10.3-1-20.5-3.8-30.4-6.6l-0.1,0c-6.4-1.8-13-3.7-19.6-4.9c-2.2-0.4-4.4-0.7-6.7-0.7
						C51,1157.9,43.3,1161.6,38.6,1168z M150.3,1260.8l-0.2,0c-22.5-1.6-44.1-4.2-60.9-18.9c-6.8-5.9-12.1-13.3-15.4-21.6
						c-3.7-9.9-2.7-20.1,2.7-28c5.4-7.8,14.5-12.3,24.9-12.3c1.3,0,2.6,0.1,3.9,0.2c7.5,0.9,14.9,2.3,22.2,4.1
						c6,1.5,12.1,2.2,18.3,2.2c15.3,0,30.1-5,43.9-14.9c0.8-0.6,1.6-1.2,2.4-1.8h0l0.5-0.3h0c3.9-2.9,7.8-5.9,12.4-6.8l0.9-0.2
						l0.1,0c4.9-1.1,9.8-1.7,14.8-1.9c4.5,0,7.8,0.9,10,2.7c6.3,5.1,9.6,17.3,8.8,25.6c-3.4,32.7-30.7,61.5-65,68.5
						c-6.1,1.2-12.2,1.9-17.7,2.6l-0.1,0c-2.5,0.3-4.5,0.5-6.4,0.8L150.3,1260.8L150.3,1260.8z M82.8,1199c-5.2,12-3.1,22.7,6.3,32
						c13.1,13.1,31,20,53,20.6c43.5,0,73.9-17.3,85.7-48.7l0.8-2.2c4.1-10.9,8.4-22.1-1.5-30.1c-2.7-2.4-6.2-3.7-9.8-3.7
						c-7.2,0-14.5,5.4-20.9,10.1l-0.4,0.3c-15.7,11.5-32.5,17.4-50.1,17.4c-7.1,0-14.2-0.9-21-2.6c-5.4-1.3-10.9-2.3-16.2-3.3h0
						c-1.9-0.3-3.8-0.7-5.7-1.1c-1.4-0.3-2.9-0.4-4.4-0.4C91.5,1187.4,86.2,1191.3,82.8,1199L82.8,1199z M127.1,1227.3l-0.1-0.1
						c-1.6-1.1-3.2-2.1-4.9-3l-1.9-1l1.4-1.6c1.2-1.6,2.4-3.2,3.5-4.9l0.1-0.1l0,0c2.7-4.1,5.6-8.3,9.6-9.7
						c8.2-2.7,16.9-3.9,26.1-5.1l0.4-0.1c3.8-0.5,7.7-1.1,11.8-1.7l0.6-0.1l13.5,7l-1.1,1.6c-0.9,1.3-1.7,2.7-2.4,4v0
						c-1.9,3.4-3.8,6.9-6.9,8.2c-14.5,5.8-26.5,9.4-37.6,11.2c-0.4,0.1-0.8,0.1-1.2,0.1C134.4,1232.2,130.7,1229.7,127.1,1227.3z
						 M130.5,1220.6c3,1.9,7.3,2.9,12.3,2.9c11.7,0,24.5-5.1,32-12.7c-3.4-0.4-6.9-0.6-10.3-0.6
						C149.4,1210.1,136.8,1214.1,130.5,1220.6L130.5,1220.6z M1314.5,1228.4c-5.4-1.1-10.8-2.5-16-4.2l0,0
						c-5.5-1.8-11.2-3.3-16.9-4.3c-12.3-1.9-24.8-2.9-37-3.8l-1.7-0.1c-2.5-0.2-5.1-0.4-7.6-0.6c-6.1-0.5-12.5-0.7-18.2-0.8
						c-13.1-0.4-26.7-0.8-39.2-4.3c-11.7-3.3-24.7-12.8-34.8-25.4c-20.1-25.1-44.6-38.4-74.9-40.7c-4.9-0.3-9.8-1.1-14.6-2.6
						c-9.6-3.1-15.5-7.6-17.9-13.6s-1.2-13.3,3.7-22.2c4.4-7.9,8.9-13.9,13.7-18.2c26.5-23.4,57.7-35.2,92.7-35.2
						c5.1,0,10.4,0.3,15.7,0.8c24.4,2.4,32.1,14.9,37.2,35.8l0.9,3.9l0,0c3,12.5,6.1,25.5,12,36.6c12.9,24.4,34.4,37.3,62.3,37.3
						c0.3,0,1.1,0,1.9,0c0.7,0,1.5,0,1.7,0c20.2,0,35.9,7.5,46.7,22.3c3.2,4.4,5.3,9.5,7.3,14.5c1,2.5,1.9,4.6,2.8,6.6l0.2,0.4
						l-0.1,0.5c-1.7,14.6-9.6,17.7-15.8,17.7C1317.4,1228.8,1316,1228.7,1314.5,1228.4L1314.5,1228.4z M1289.8,1213.3
						c1.3,0.5,2.7,1,4,1.5l0,0l0.2,0.1h0c4.6,1.8,9.4,3.6,14.2,4.3c2.1,0.3,4.2,0.5,6.4,0.5c4.8,0,7.1-0.9,7.6-1.6
						c2.2-3.5,2.2-10.7,0-15.5c-8.1-18.1-22.8-27-44.9-27.2c-45.9-0.3-80.2-31.7-85.4-77.9c-2.9-25.9-17-37.5-45.6-37.6
						c-0.9,0.1-2.2,0.3-3.8,0.5h0c-4.2,0.5-9.4,1.1-14.6,2.1c-26.6,5.4-54.1,12.7-72.9,36c-6.1,7.6-11.7,18.6-10.4,26.1
						c1.7,9.7,13.3,10.5,23.6,11.2l1.2,0.1c33.6,2.5,58.6,15.1,74.3,37.6c16.4,23.5,38.4,35,67.4,35c6.2,0,12.5-0.5,18.6-1.4
						c6-0.8,12-1.3,18.1-1.3C1261.9,1205.8,1276.3,1208.3,1289.8,1213.3L1289.8,1213.3z M1143.8,1136.4c-5.5-0.7-11.2-1.3-16.6-1.9
						l-0.2,0l-0.5-0.1c-8.7-0.9-17.7-1.9-26.5-3.3c-4.2-0.7-11.9-3-14-7.5c-1.9-4.1,0.3-11.7,3.5-15.6
						c12.9-15.7,27.2-23.3,43.6-23.3c0.5,0,1,0,1.5,0c11.2,0.3,20.6,4.3,26.6,11.2c5.2,6.1,7.4,14,6.2,22.7
						c-1.7,12.5-7.3,18.1-18.2,18.1C1147.4,1136.8,1145.6,1136.7,1143.8,1136.4L1143.8,1136.4z M1092.9,1120.6
						c0.2,0.1,0.4,0.2,0.6,0.4h0l0.3,0.2l0,0c0.8,0.5,1.6,0.9,2.6,1.2l8.7,1.1l0.2,0c14,1.8,28.4,3.6,42.7,5
						c0.6,0.1,1.2,0.1,1.7,0.1c2.5,0.1,5-0.7,6.8-2.5c2.7-2.8,3.2-7.6,3.1-11.1c-0.2-9.8-5.5-17.1-14.7-20.4
						c-3.4-1.2-6.9-1.8-10.5-1.8C1117,1092.8,1099.2,1104.7,1092.9,1120.6L1092.9,1120.6z M1413.3,1134.3
						c-9.1-1.3-18.5-2.7-27.7-4.2c-35-5.8-63.1-25.3-88.3-61.5c-9.5-13.8-18.1-28.2-25.8-43.1c-11.5-22-26.5-33-47.1-34.8
						c-2.7-0.3-5.3-0.9-7.8-1.7c-0.9-0.3-1.8-0.5-2.7-0.8c-16.3-4.4-26.3-10.9-30.6-20.1c-4.3-9.1-3-21,4.1-36.2
						c6.7-14.5,7.6-28.3,2.7-43.5c-3.9-12.2-6.6-24.9-8.8-35.9c-3.9-19.4,2.7-35.7,20.7-51.4c10.4-9.1,20.5-18.9,30.3-28.3l6.1-5.9
						c2.4-2.4,4.4-5.1,6-8c6.7-11.6,12.1-23.1,4-35.2c-8.2-12.2-19.9-14.8-28.3-14.8c-2.4,0-4.8,0.2-7.1,0.6
						c-11,1.8-21.6,5.7-31.1,11.6c-56.9,35.9-78.8,81.4-67.1,139.1c10.5,51.7-5.1,93.1-49,130.5c-10.1,8.6-20.2,17.2-30.3,25.9
						c-21.9,18.8-44.5,38.2-67.1,56.8c-22,18.1-43.9,26.9-66.9,26.9c-2.7,0-5.5-0.1-8.2-0.4c-20-1.8-35-9.2-43.2-21.4
						c-8-11.9-9.4-27.9-3.8-46.4c3.7-12.4,9.2-24.4,14.6-36c1.8-3.8,3.5-7.7,5.2-11.5c4.7-10.6,6.7-20.2,1.3-32.3
						c-8.8-19.7-7-40.7-5.2-61.1c0.3-3.3,0.6-6.7,0.8-10c0.3-4.2,0.8-8.5,1.3-12.6c1.1-9.2,2.2-18.6,1.2-27.6
						c-3.5-30.7-26-49.9-46.9-65.5c-7.7-5.8-15.9-11.3-23.9-16.6c-8.2-5.5-16.7-11.2-24.8-17.3c-14.5-10.9-21.1-23.9-19-37.6
						c6.7-45-19.8-75.1-46.7-98.5c-18-15.7-23.9-31.9-20.4-55.8c8.4-56.4-3.1-114.7-36-183.6c-1.7-3.5-3.5-6.9-5.3-10.4
						c-2-3.9-4.1-7.9-6-12c-13.6-29.2-12.4-58.6,3.5-87.4c20.6-37.3,24.4-71.1,11.8-106.1c-7.8-21.7-3.8-44.3,0-66.1l1.4-7.9h8.8
						l-0.4,2c-4.9,25.4-8,52.9,1.8,82.2c9.9,29.6,5.8,61.3-12,91.6c-20.3,34.8-19.8,68.6,1.6,106.5c24.3,43,38.4,92.7,41.9,147.7
						c1.1,16.6-1.1,33.4-3.2,46.3c-3.1,19.4,1.4,32.6,15.1,44.1c11.5,9.7,21.3,21.7,30.7,33.2c1.9,2.3,3.8,4.6,5.7,6.9
						c13.3,15.9,18.6,35.9,16,59.5c-2,17.5,4.6,31.4,20.2,42.4c6.4,4.5,12.9,9,19.5,13.4c11.5,7.8,23.3,15.9,34.5,24.5
						c33.9,25.9,46.7,59.1,39,101.4c-6,33-4.3,57.9,5.6,80.7c3.2,7.5-0.7,18.4-3.8,27.1c-2.6,7.4-5.8,14.4-8.9,21.1
						c-3.9,8.5-7.9,17.4-10.6,26.4c-5,16.7-3.3,32,4.8,42.9c7.9,10.6,21.3,16.4,37.7,16.4h0c3.1,0,6.1-0.2,9.2-0.6
						c29.1-3.5,51.4-20.1,69.3-35.8c14.5-12.7,29.4-25.5,43.7-37.8c6.7-5.7,13.4-11.5,20.1-17.2c3.7-3.2,7.4-6.3,11.2-9.5
						c8.2-6.9,16.8-14,24.6-21.6c29.9-28.8,40.2-63.7,31.3-106.7c-16.1-78.1,33.2-132,80.3-154.5c8.8-4.2,20.4-6.5,32.6-6.5
						c3,0,6,0.1,9,0.4c12.8,1.2,23.3,7.7,28.6,17.8c5.1,9.6,4.8,21.3-1,31.9c-6.6,12.1-16.2,22.6-25.6,32.8c-3.6,3.9-7.3,8-10.8,12
						c-2.6,2.8-5.5,5.3-8.6,7.4l-1.8,1.3c-19.6,14.4-25.4,33.7-17.7,58.9c1,3.2,1.9,6.3,2.8,9.5c1.1,4,2.3,8,3.5,11.9
						c5.4,17.2,4.4,33.5-3.3,49.9c-6.2,13.4-7.5,23.7-3.7,30.7c3.5,6.4,11.4,10.4,23.6,12.1c41,5.6,59.5,31.5,73.3,58.7
						c21.1,41.5,44.2,65.1,74.9,76.6c13.8,5.2,28.9,7.6,43.5,10c6.7,1.1,13.5,2.2,20.2,3.5l1.4,0.3v8.6
						C1427.9,1136.5,1417.5,1134.9,1413.3,1134.3L1413.3,1134.3z M108.2,1090.4L108.2,1090.4l-0.5-0.4c-0.7-0.5-1.6-1-2.7-1.7
						l-0.3-0.2c-3.4-2.1-8.2-4.9-11.4-9c-2.9-3.8-2.8-7-2.1-9.1c1.1-3.4,4.2-6.2,8.7-7.6c9.6-3.1,18.3-5.8,27.4-7.9
						c1.9-0.4,3.9-0.7,5.9-0.7c3.4,0,5.7,0.7,6.7,2.2c2.4,3.5,2.4,9.5,1.1,13.4c-4.4,13.3-14.6,20-32.2,21L108.2,1090.4
						L108.2,1090.4z M99.1,1072.9l-0.6,2.3c1.6,0.7,3.2,1.4,4.7,2.2l0.2,0.1c3.9,1.9,7.9,3.9,11.4,3.9c0.3,0,0.7,0,1-0.1
						c9.9-1.2,16.3-7.9,18.4-19.5L99.1,1072.9z M1425.5,1075.3c-35-14.4-56.4-39.8-63.8-75.5c-4.3-20.7-15.5-32.5-38.8-41
						c-19.4-7.1-38.2-16.9-56.3-26.4l-3.3-1.7c-12.4-6.5-17.2-17.7-14.1-33.1c2.6-13.1,4.2-26.7,5.8-39.9c0.4-3.5,0.8-7,1.3-10.5
						c3.6-28.9,18.4-53.3,47.9-79.2c4-3.6,9.1-5.7,14.5-5.8c6.7,0,13,3.4,17.4,9.4c10.3,14.2,15.4,25.6,16.3,35.8
						c3.3,37.9,24.4,58.3,66.4,64.1c1.9,0.3,3.7,0.9,5.5,1.6c0.8,0.3,1.5,0.6,2.3,0.8l1.2,0.4v6.2l-2.2-0.7
						c-5.5-1.7-11.1-3.2-16.5-4.7c-12.7-3.5-25.8-7.1-37.8-12.6c-15.5-7-20.6-23.1-23.5-38c-0.4-2.2-0.8-4.3-1.2-6.5
						c-1.7-8.9-3.4-18-6.6-26.4c-4.8-12.9-11.8-19.7-20-19.7c-6.3,0-13.5,4.1-20.7,11.8c-19.1,20.5-38.2,46.4-35.3,83.3
						c0.5,6.8-1.5,13.7-3.4,20.4c-0.7,2.3-1.3,4.7-1.9,7c-4.1,16.9-3.1,22.7,12,31c16.6,9.2,34.6,18.5,53.1,24.8
						c27.1,9.3,40.9,23.4,46.1,47.2c6.7,30.9,21.5,51.3,45.1,62.6c2.6,1.1,5.2,2.1,7.9,2.9c1.3,0.4,2.6,0.8,3.9,1.3l1.1,0.4v11.6
						L1425.5,1075.3z M571.4,1033.7c-5.7-3.6-11.2-7.1-16.6-10.9c-9-6.3-17.8-9.2-27.8-9.2c-4.8,0-9.5,0.6-14.2,1.8
						c-7,1.7-14.2,2.6-21.5,2.7c-27.1,0-47.2-14.9-59.8-44.3c-6.7-15.7-17.5-26.1-33.9-32.6c-15.2-6-31.1-14.7-48.6-26.6
						c-12.1-8.2-23.3-12.2-34.4-12.2c-7.3,0.1-14.5,1.8-21,5c-20.8,10-41.3,14.9-62.6,14.9c-12.5-0.1-25-1.7-37.1-4.9
						c-6.5-1.7-13.2-2.5-19.9-2.5c-17.9,0-36,5.6-51.6,10.9c-15.7,5.5-32.2,8.4-48.9,8.5c-28.5,0-55.1-9.1-81.2-27.8
						c-11.5-8.2-24.9-14.3-37.9-20.2c-5.9-2.7-12.1-5.5-18-8.4l-0.7-0.4l-1-4.6l2.6,0.6c2.1,0.5,4.2,0.8,6.3,1.2
						c4.8,0.8,9.7,1.7,14.1,3.8l4.5,2.1c12.7,6,25.9,12.1,37.4,20.3c24.1,17.1,48.1,25.4,73.5,25.4c14-0.1,27.9-2.5,41-7.2
						c22.8-7.8,43.6-11.6,63.4-11.6c13.9,0,27.7,1.9,41,5.8c3.4,0.9,6.9,1.4,10.4,1.4c3.3,0,6.5-0.3,9.7-1l6.1-1.2
						c12.8-2.5,26-5.1,37.7-10.2c11.4-5,22-7.5,32.4-7.5c14.9,0,29.1,5.1,43.5,15.5c14.4,10.4,31.8,18,47.2,24.6
						c16.2,7,27.4,18.5,33,34c9.9,27.2,26.6,40.4,51.2,40.4c6.2-0.1,12.5-0.8,18.6-2.2c4.8-1.1,9.6-1.6,14.5-1.6
						c18,0,32.6,8.1,46.8,15.9c21.7,12,43,23.4,65,29.7c11.5,3.3,23.4,5.1,35.3,5.1c28.6,0,56.2-10.3,82-30.7
						c13.5-10.7,19-24.6,16.1-41.6c-1.9-11.6-4.7-23-8.3-34.2c-8.1-24.9-7.7-50.4-6.6-72.3c1.5-31.9-12-50.8-41.2-57.7
						c-16.2-3.8-33.5-4.3-50.3-4.8c-6.5-0.2-13.3-0.4-19.9-0.7c-8.3-0.5-16.7-0.7-24.9-1c-14.3-0.4-29-0.8-43.4-2.5
						c-27.9-3.2-51-16.8-68.5-40.3c-20.6-27.6-41.5-46.9-65.9-60.8c-16.9-9.6-28.5-23-34.6-39.9c-5.3-14.8-16.8-25.8-33.1-31.8
						c-3.7-1.4-7.7-2.2-11.6-2.3c-10.6,0-18.3,6.5-22.2,18.8c-1.2,3.7-2.1,7.5-2.8,11.3c-3.9,21-15.3,32.4-34.9,34.6
						c-7,0.8-14.2,2.3-21.1,3.7c-10.4,2.2-21.1,4.4-31.7,4.4h-0.5c-30.5-0.2-54.8-18.1-76.5-37.4c-24-21.4-51.9-47.2-76.5-76.4
						c-28-33.3-65.1-53.6-116.5-63.9c-9.2-1.8-18.7-3.1-27.9-4.3c-4.3-0.6-8.6-1.1-12.9-1.8l-1.6-0.2l0.8-7.5l1.7,0.2
						c4.7,0.6,9.3,1.1,14,1.6c10.2,1.1,20.8,2.2,31,4.3c32,6.4,58.5,16.9,80.9,32.1c8.4,5.7,15.8,13.2,22.9,20.5
						c2.4,2.4,4.8,4.8,7.2,7.2c10.1,9.8,20.2,19.9,30,29.7c19.9,19.8,40.4,40.3,61.5,59.4c20.8,18.8,44.7,28.4,70.8,28.4
						c13.3-0.2,26.5-2.3,39.3-6.3c20.8-6.3,30.2-16.3,33.5-35.5c3.4-20.1,14.2-31.2,30.4-31.2c6.2,0,13,1.7,20.4,4.9
						c16.2,7.3,27.9,19.5,33.9,35.3c5.4,14.5,14.6,25.5,27.3,32.8c27.7,15.9,51,37.1,71.2,64.8c17.8,24.4,43.7,37.7,76.9,39.4
						c8.3,0.4,17.4,0.7,28.4,0.7c6.8,0,13.6-0.1,20.4-0.2s13.6-0.2,20.5-0.2c5.4,0,10.9,0,16.3,0.2c12.4,0.3,24.7,2,36.7,5.1
						c37.7,10,54.3,33.4,50.8,71.6c-2.1,22.9,0.5,46.1,8.1,70.8c3.2,10.6,5.4,21.4,6.8,32.4c2.6,20-4.8,36.7-21.9,49.6
						c-26,19.6-55,29.6-86,29.6C636.7,1064.5,603.2,1053.9,571.4,1033.7L571.4,1033.7z M907.7,1056c-5.8-3.5-9.7-9.4-13.6-15.1
						l-0.2-0.3c-1.4-2.1-2.8-4.1-4.2-5.9l-0.6-0.8l0.4-0.9c1.1-2.5,2-4.7,2.7-6.6l0.1-0.1c1.4-3.6,2.5-6.5,4.4-8.8
						c15.4-18.2,32.6-28.8,52.6-32.4c1.4-0.3,2.9-0.4,4.3-0.4c3.8,0,6.6,1.1,8.4,3.3c2,2.4,2.6,5.8,1.7,10.3
						c-4.4,24-15.5,42.5-33.1,54.9c-3.9,2.7-10.3,4.6-15.8,4.6C912.4,1057.8,909.9,1057.2,907.7,1056z M901.3,1027.8
						c-1,6,3.5,15,8.3,19.7c0.7,0.7,2.6,1.4,6,1.4c3.9,0,8.1-1,10.1-2.5c15.9-11.8,26.2-29,30.6-51.3c-1.2-0.1-2.3-0.2-3.5-0.2
						C934.2,994.9,903.8,1012.2,901.3,1027.8z M-63.5,1019.1c-0.9-1.5-1.6-3.1-2-4.8c-0.4-1.2-0.9-2.7-1.6-4.7l-2.2-6l4.9,4.2
						c3.7,3.1,7,6.1,10.1,9c6.4,5.8,11.9,10.8,18.1,14.9c13,8.5,26.4,12.9,39.7,12.9c14.4,0,28.9-5,43.4-14.8
						c5.3-3.7,10.4-7.8,15.2-12.1c5.3-4.7,11-9.1,16.8-13.2c5.2-3.4,11-5.8,16.7-8.2c4.6-1.8,9-3.9,13.4-6.2
						c6.9-3.9,11.3-8.2,11.8-11.5c0.7-4.4-3.2-12.7-6.6-14.1c-6.7-2.6-13.8-4-21-4c-2,0-3.9,0.1-5.9,0.3c-8.8,1-17.6,2.9-26.2,4.7
						c-7.4,1.6-15.2,3.2-22.8,4.3c-1.4,0.2-2.7,0.3-4.1,0.3c-5.6,0-11.1-1.3-16-4c-26-15.2-52.7-31.8-81.4-50.9l1.6-3
						c3,1.2,6,2.3,9,3.4c6.7,2.5,13.6,5,19.9,8.6c12.8,7.2,29.4,17,44.5,28.4c7.6,5.9,17,9.1,26.7,9c4.8,0,9.6-0.6,14.3-1.8
						c3.1-0.7,6.3-1.5,9.4-2.2c9.1-2.2,18.6-4.4,28-5.8c2.2-0.3,4.4-0.5,6.7-0.5c5,0,9.9,0.7,14.7,2c12.9,3.5,19.7,12.9,18.4,25.1
						c-1.6,14.5-13.1,18.7-22.9,20.7c-8.2,1.7-16,7.1-23.6,12.3l-1.9,1.3c-5.4,3.7-10.7,8-15.9,12.1c-8.1,6.5-16.5,13.2-25.7,18.1
						c-11.5,6.2-24.3,9.4-37.3,9.4C-23.3,1052.5-47.8,1040.1-63.5,1019.1z M-48.4,982.7c-1.1-6.6,2.1-17.4,7.4-20.5
						c1.5-0.8,3.1-1.1,4.7-1.1c5.1,0,12.8,2.6,16.1,6.5c10.6,12.5,24.7,18.5,44.3,18.9h0c8.7,0.2,20.6,0.4,21.8,14.9
						c1,11.6-5.3,19.8-18.1,23.6c-3.8,1-7.6,1.7-11.5,2.1l-0.1,0l-0.2,0c-1.1,0.1-2.1,0.3-2.9,0.4l-1.3,0
						C-20.9,1027.6-43.9,1010.4-48.4,982.7L-48.4,982.7z M-38.2,972.6l-0.1,0.3c-1.3,3.5-2.5,6.8-2,9.6
						c4.2,22.5,24.5,36.6,53.2,36.7l1.1-0.3l0.4-0.1c2.2-0.4,5.6-1.1,9.1-1.8c10.2-2.1,14.5-6.7,13.7-14.8c-0.7-7-5-7.6-11.5-7.6H24
						c-1.1,0-1.9,0-2.7,0c-21.4-1-35.8-7.3-46.7-20.6c-1.6-1.9-5-2.8-8.4-3.7l-0.1,0c-1.1-0.3-2.2-0.6-3.3-0.9
						C-37.4,970.6-37.8,971.6-38.2,972.6L-38.2,972.6z M637.7,1023c-23.5-7.2-45.6-19.4-64.2-30.4l-1-0.6
						c-24.1-14.3-46.8-27.8-75.9-28.2c-10.6-0.1-21.8-8.2-30.8-14.6c-8.1-5.8-15.6-13.5-22.5-23.2c-10-13.9-23.7-21.8-43.2-24.8
						c-1.5-0.2-2.9-0.4-4.4-0.6c-7.5-1-15.2-2.1-21.6-5.5c-10.4-5.6-20.7-11.9-25.2-20.7c-6.5-12.6-16-19.1-28.3-19.1
						c-5.1,0.1-10.2,1-15.1,2.6c-9.5,3.1-18.5,8.4-27.7,14.1c-15.8,9.8-31.6,14.8-46.8,14.8c-13,0-25.9-3.6-38.5-10.7
						c-7.9-4.5-15.2-6.6-22.4-6.6c-8.8,0-17.6,3.3-27,10c-13.9,10-31.2,15.4-49.9,15.4c-35.9,0-69.9-19.5-84.5-48.5
						c-6-11.9-11.3-23.9-17.1-37.2c-11.5-26.5-28.5-44.6-52-55.4c-1.3-0.7-2.5-1.6-3.6-2.6c-0.4-0.4-0.9-0.8-1.3-1.2l1.4-3
						c22.9,5.4,40.5,18.6,52.4,39.2c8.9,15.2,16.6,31.2,22.9,47.6c18.3,48.3,67.5,52,82.2,52c10.3,0.1,20.5-1.5,30.3-4.6
						c5.5-1.8,10.9-5.9,15.2-9.2c9.9-7.6,20.1-11.4,30.4-11.4c8.2,0,16.8,2.5,25.5,7.3c12.9,7.2,24.6,10.7,35.8,10.7
						c5.4,0,10.8-0.9,16-2.5c5.8-2,11.4-4.5,16.8-7.4c4.2-2.1,8.4-4.3,12.8-6c2.6-1,5.3-2.1,7.9-3.2c11.3-4.6,23.1-9.4,35.1-12
						c2.1-0.5,4.3-0.7,6.4-0.7c11.7,0,22,7.4,27.5,19.7c5.7,12.8,15.4,19.7,32.4,23.2c5,1,10.2,2.1,15.4,2.9
						c22.3,3.5,37.7,12.4,48.6,28.2c4.9,7.1,11.3,13.3,18.5,20c11.2,10.4,22.9,15.3,36.7,15.5c27.7,0.2,50.5,14.3,69.7,27.5
						c22.8,15.7,53.8,33.9,91.1,36.1c1.5,0.1,3.1,0.1,4.6,0.1c7.4,0.1,14.7-1.1,21.7-3.6c9-3.4,15-9.9,16.5-17.8s-1.6-16.1-8.7-22.6
						c-7.8-7.2-17-13.2-25.9-19l-0.4-0.3c-25.1-16.4-43.2-33.3-57-53.1c-17.5-25.2-45.5-39.2-70.2-50.4l-2.6-1.2
						c-11.7-5.3-23.9-10.8-36.3-14.2c-28.4-7.8-48.8-26.7-62.5-58l-1.1-2.6c-5.7-13-11.6-26.4-18-39.3c-9.9-20-23.2-30.9-40.9-33.4
						c-0.7-0.1-1.3-0.1-2-0.1c-5.6,0-12.4,2.7-15.9,6.2c-15.3,15.5-30.9,22.7-49.1,22.7c-3.4,0-6.9-0.3-10.3-0.8
						c-0.7-0.1-1.3-0.1-2-0.1c-4.6,0-10.4,1.9-17.8,6c-4.3,2.4-8.1,5.6-12.2,8.9c-2.4,2-4.9,4.2-7.6,6.1c-10.9,7.9-22.5,12-33.5,12
						c-13.1,0-24.9-5.8-34.1-16.9c-21.9-26.3-48.8-42.2-74.8-55.6C105,682.7,87.6,666,72.7,642.3c-27.9-44.1-57-68.1-94.3-77.7
						c-9.3-2.4-19.1-3.6-28.5-4.8c-4.4-0.5-8.9-1.1-13.3-1.8l-1.6-0.2l0.7-7.4l1.7,0.2c4.1,0.5,8.3,0.9,12.5,1.2
						c9,0.8,18.4,1.6,27.4,3.7c39.2,8.9,71.6,33.6,96.1,73.3c18.4,29.8,43.4,51.8,81.1,71.3c10.8,5.6,20.3,13.9,29.5,21.9
						c3.3,2.8,6.5,5.7,9.8,8.4c2.6,2.3,5,4.7,7.2,7.4c1.8,2.1,3.6,4.1,5.6,6c9.9,9,19.4,13.4,29.2,13.4c8.6,0,17.4-3.3,27-10.2
						c2.4-1.7,4.7-3.7,7-5.6c4.2-3.5,8.4-7.2,13.4-9.4c10-4.5,18.4-6.7,25.6-6.7c0.8,0,1.6,0,2.4,0.1c1.7,0.1,3.5,0.2,5.1,0.2
						c16,0,29.4-5.7,41.2-17.3c9.4-9.3,17.3-13.4,25.5-13.4c6.2,0,12.5,2.4,19.5,7.3c11,7.8,21.7,19.4,31,33.7
						c6.2,9.5,10.7,20.4,15,30.8c1.7,4.1,3.4,8.2,5.2,12.2c11.3,25.3,29.3,42,55.1,51c30.1,10.5,53,20.9,72,32.8
						c12.4,7.8,23,18.6,33.3,29.2c4.9,5,9.9,10.2,15.1,14.9l5.2,4.8c12.5,11.5,25.5,23.5,38.7,34.6c4.7,3.8,9.5,7.3,14.5,10.5
						c5.9,4,12,8.1,17.3,13c10.4,9.5,14.7,22.1,11.5,33.8c-3,11.1-12.1,19-24.9,21.7c-7.2,1.5-14.6,2.2-22,2.2
						C658.7,1027.6,648,1026,637.7,1023L637.7,1023z M1424.7,1013.9c-1.8-2.9-3.7-5.8-5.6-8.6c-4.3-6.4-8.8-13-11.3-20.3
						c-5.2-14.8-13.7-25.8-26.2-33.6c-5.8-3.6-11.5-7.1-17.3-10.7c-10.9-6.7-22.1-13.5-32.9-20.8c-8.2-5.4-15.6-11.9-22.1-19.2
						c-3.5-4-7.1-13.1-4.6-17c3.6-5.6,11.3-11.7,17.5-11.8h0.3c8.4,0,19.3,2.6,24.7,8.5c20.6,22,46.4,28.1,79,30.4l1.6,0.1v8.7
						l-1.8-0.2c-29.5-2.5-60.3-7-83.7-32.6c-2.9-3.1-8.1-6.5-12.1-6.5c-4.3,0.1-8.5,1.8-12.9,3.6c-1.4,0.6-2.7,1.1-4.1,1.6
						c0.4,1.3,0.8,2.6,1.2,3.9c1.1,3.7,2.1,7.6,4.4,9.2c16.2,12.3,33.9,25.2,52.9,36.4c18.9,11.2,39.7,25.4,46,52.9
						c0.9,3.7,3.4,7.1,6.2,10.7c1.3,1.7,2.6,3.4,3.7,5.2l0.3,0.4v14.5L1424.7,1013.9z M606,972.2c-0.9-1.6-0.1-4.2,0.4-5.5
						c0.4-1,1.8-4.2,3.9-5c1.6-0.5,3.3-0.8,4.9-0.8c10.5,0,25.1,8.5,30.8,17.9l1,1.6l-1.7,0.8c-3.8,1.7-8,2.5-12.2,2.4
						C622.9,983.6,610,979.6,606,972.2z M979.5,963.9c-43.6-7.4-60.7-25.9-65.2-70.6l-0.2-2.3c-2.2-22-4.5-44.8-7.6-67
						c-3-22.1-14.2-38.4-34.2-49.8c-35-20-56.3-53.2-63.4-98.5c-3.1-19.8,1.1-38.4,12.3-55.3c5.6-8.4,11.2-16.7,16.9-24.9
						c10-14.6,20.4-29.8,30-45.1c21.2-33.9,18.5-54.1-10.6-80.2c-19.3-17.3-40.9-34.2-68.3-53.4c-9.5-6.7-22.2-9.5-31.2-10.7
						c-32.3-4.2-57.2-22.1-70.1-50.5c-14-30.8-11.4-68.4,6.8-95.9c8.7-13.2,17-23.7,25.5-32.2c11.6-11.7,14.9-24.1,10.3-39.1
						c-2.5-8.3-5.4-16.7-8.1-24.8c-1.7-5-3.4-10.1-5.1-15.1c-7-21.3-8.1-44.5-3.6-71.2l0.2-1.4h8.8l-0.4,2
						c-5.8,29.7-2.6,58.4,9.4,85.2c1.9,4.6,3.4,9.4,4.5,14.3c0.7,2.8,1.5,5.8,2.4,8.5c5.5,17,1.5,31.9-12.9,48.4
						c-14.2,16.3-24.5,31.3-31.4,45.9c-10.6,22.4-9.1,53.3,3.8,77c11.8,21.8,31.9,35.6,56.5,38.9c22.2,3,41.3,11.9,58.4,27.3
						c8,7.2,16.7,14,25,20.6c11,8.6,22.4,17.6,32.5,27.6c23.3,23,26.2,46.1,9.2,74.9c-14.5,24.6-27.6,44.1-41.2,61.4
						c-45.3,57.5-8,114.2,10.1,135.9c8.2,9.9,16.4,16.8,24.4,20.7c34.3,16.8,41.9,47.7,44.9,75.7c0.6,6,1.2,11.9,1.8,17.9
						c1.6,16.9,3.3,34.3,6.3,51.3c4.6,26,20.6,41.2,46.2,43.9l3,0.3c8.3,1,16.7,1.6,25,1.8c4.9,0,9.8-0.4,14.7-1.2
						c26.3-4.8,46.3-30.4,47.6-60.9c1.4-32.4,2.8-61.6,5-90.9c2.3-30.2,17.6-56.1,45.6-76.9c32.3-24,50-50,55.6-81.6
						c1.8-10,7-19.3,12.1-28.4c0.8-1.5,1.6-2.9,2.4-4.4c9.6-17.6,12.3-31.9,8.3-43.8c-4-11.6-14.3-20.8-31.7-28.4
						c-20.7-9-38.9-14.9-55.7-18.1c-20.8-4-40.2-20.3-50.6-42.4c-9.7-20.8-9.6-43,0.3-61.1c11-20,19.2-43.9,24.3-71.1
						c2.8-14.8,0.4-27.2-6.8-36c-6.5-7.9-16.5-12.1-28.8-12.1c-5.4,0-10.8,0.8-16,2.2c-9.8,2.5-19.6,6.2-29,9.7
						c-10.8,4.1-22,8.3-33.4,10.8c-12.4,2.8-28.7,5.9-44.3,5.9c-5.3,0-10.6-0.4-15.9-1.2c-35.7-5.8-56-38.9-49.4-80.5
						c2.6-16.6,1.1-32.3-4.9-49.4c-8.3-23.7-16.8-55.3-8.7-88.8c1.9-7,4.2-13.9,6.9-20.6c1.2-3.1,2.4-6.1,3.5-9.2l0.4-1.1h9.2
						l-1.2,2.4c-22,44.4-12,88.1,0.7,125c3.5,10,4.4,23.1,2.6,36.8c-3.1,23.7-2.8,50.5,22.9,69.3c10,7.3,21.6,10.9,35.4,10.9
						c8.5-0.1,17-1.2,25.4-3.1c8-1.7,15.9-4.7,23.6-7.7c5.6-2.2,11.4-4.4,17.2-6.1c3.7-1.1,7.4-2.3,11.1-3.4
						c13.4-4.2,27.3-8.5,41.2-9.6c1.5-0.1,3-0.2,4.4-0.2c12.8,0,23.7,4.4,31.6,12.6c8.5,9,12.8,22.2,12,37.1
						c-1.4,26.9-10.2,53.9-26.1,80.3c-9.2,15.2-9.8,33.8-1.6,52.3c9,20.5,27,36.3,45.7,40.1c22.3,4.6,45.9,13.3,70.3,26.1
						c24.7,12.9,31.9,36.8,19.7,65.6c-7.6,17.9-14.5,36.4-21.2,54.4l-3.4,9c-8.7,23.6-24.6,44-45.4,58.2
						c-35.4,24.5-52.5,57.3-52.5,100.1c0,12.1-0.6,24.5-1.1,36.4c-0.4,8.4-0.8,17.1-1,25.7c-1.1,46-31,77-74.6,77
						C990.9,965.4,985.2,964.9,979.5,963.9L979.5,963.9z M984.5,923.2c-22-7-36.3-23.1-40.3-45.4c-3.8-21.5-5.3-43.7-6.7-65.2
						c-0.3-5.3-0.7-10.7-1.1-16c-0.4-7.7-0.3-15.5,0.3-23.2c0.2-2.9,0.3-5.7,0.4-8.6c0.5-14.6-6-25.6-19.4-32.6
						c-5.6-2.9-11.4-5.6-17-8.2c-6.1-2.9-12.4-5.8-18.5-9c-17.3-9.1-28.2-21.3-31.6-35.2c-3.3-13.6,0.3-28.3,10.9-43.7
						c9.2-13.4,20-26,30.5-38.1c5.9-6.9,12.1-14,17.8-21.2l3.4-4.2c7.8-9.7,15.9-19.8,22-30.6c12.7-22.7,8.9-46-10.3-62.3
						c-8.6-7.3-18.8-13.1-28.7-18.7c-5.4-3.1-11.1-6.2-16.4-9.7c-3.1-2-6.5-4-9.7-5.9c-9.3-5.4-18.9-11-25.7-19
						c-20-23.2-44.6-43-75.2-60.4c-11.1-6.3-21.1-14.9-29.7-22.4C723,329.2,719.1,310.3,728,289c3.9-9.4,8.8-18.5,13.6-27.3
						c2.5-4.6,5-9.2,7.3-13.9c12.3-24.3,14.6-44.9,7.2-64.7c-11.5-31.1-9.7-62.8,5.8-99.7c0.6-1.3,1-2.7,1.4-4.1
						c0.2-0.7,0.4-1.3,0.7-2l0.4-1.1h8.8l-0.8,2.2c-1.1,3.3-2.3,6.6-3.4,10c-2.5,7.3-5.1,14.8-7.4,22.3c-6.7,21.7-6.6,42.7,0.4,62.4
						c10.1,28.4,7.2,56.2-9,84.9c-6.6,11.8-12.6,23.9-17.8,36.4c-6.9,16.5-3.4,31.5,10.1,43.6c9.7,8.7,20.3,16.4,31.6,22.9
						c28.1,16.2,51.6,35.2,71.9,58c7,7.9,16.8,13.8,26.3,19.5c3.1,1.9,6.3,3.8,9.3,5.7c5.2,3.4,10.8,6.4,16.3,9.4
						c9.8,5.4,20,11,28.3,18.4c26.2,23.4,29.3,53.5,8.4,82.6c-8,11.2-17.2,21.9-26.1,32.3c-5.5,6.4-11.2,13.1-16.6,19.8
						c-1.8,2.2-3.6,4.5-5.4,6.7c-8.5,10.6-17.4,21.5-24.3,33.2c-13.7,23.2-8.6,43,14.9,57.2c9.8,5.9,20.3,10.9,30.6,15.7
						c2.7,1.3,5.3,2.5,8,3.8c18.2,8.8,26.8,23,27,44.7v0.4c0.2,33.6,0.5,68.3,5,101.9c3.6,26.9,19.3,42.9,45.4,46.5
						c2.3,0.3,4.7,0.5,7,0.5c13.7,0,21-6.7,22.4-20.4c1.9-19.8,1.5-41.3-1.4-67.7c-4.7-43.8,3.7-78.9,25.8-107.4
						c8.6-11.1,20.4-19.8,31.7-28.3c5.1-3.8,10.4-7.8,15.4-11.9c19.3-16.1,40.4-35.7,46-65.6c0.9-5.1,1.4-10.2,1.5-15.4
						c0.3-19.5-3.1-24.6-21.6-32.1l-7.5-3.1c-17.9-7.3-36.5-14.8-54.2-23.5c-38.9-18.9-57.1-49.3-54.2-90.2
						c1.2-16.1,0.4-32.2-2.3-48.1c-4-22.6-21.1-37.2-45.7-38.9l-3.3-0.2c-3.4-0.3-6.9-0.5-10.4-0.5c-1.5,0-3,0.1-4.5,0.2
						c-3.3,0.3-6.6,0.4-9.9,0.4c-44.3,0-75.7-26.5-100.6-52.5c-16.3-17-21.6-37.4-15.3-58.9c7.4-25.7,5.9-52.4-4.5-81.6
						c-12.2-34.1-14.4-64.9-6.6-94.2l0.3-1.3h8.9l-0.7,2.2c-8.3,27.8-6.2,56.5,6.8,93.1c10.7,30.1,12.1,57,4.2,82.5
						c-6.3,20.5-1.3,39,14.9,54.9c25.4,24.9,54.4,47.9,94,47.9c3.3,0,6.7-0.2,10-0.5c2-0.2,4.2-0.3,6.3-0.3c9.9,0.1,19.8,1.8,29.2,5
						c23,7.4,37.2,28.8,37.9,57.1c0.4,17.7,0.4,32,0,45c-0.9,26.6,10.2,47.5,32.2,60.4c20.6,12.1,43.8,23.4,72.9,35.6
						c29.5,12.3,35.9,23.5,31.3,54.2c-5.2,34.4-28.4,56.8-49.7,75c-5,4.4-10.3,8.5-16,12.1c-54.2,33.5-57.2,87.1-53.7,130.1
						c0.3,3.2,0.5,6.5,0.8,9.7c1.5,17.6,3.1,35.8,1.2,53.5c-2.2,20.7-14.2,32.6-32.9,32.6C995.8,926,990,925.1,984.5,923.2
						L984.5,923.2z M685.1,911.3c-7.8-5.7-15.8-11-24.2-15.8l-0.2-0.1c-6.5-3.9-13.1-7.9-19.5-12.4c-4.6-3.2-8.3-7.5-12-11.7
						l-0.2-0.2c-1.6-1.8-3.2-3.6-4.8-5.3l-1.4-1.4l1.6-1.1c2-1.4,4-2.9,5.8-4.3c4.4-3.4,8.9-6.9,14.1-8.8c7.7-2.8,15.8-4.3,21.7-5.4
						l0.2,0c1.9-0.3,3.6-0.6,4.9-0.9l0.2,0l0.2,0c28.6,0.8,50.9,17.7,55.5,42.2c2.7,14.1-1.7,24.6-13.1,31c-3.1,1.9-6.6,2.9-10.3,3
						C696.9,919.9,691,915.8,685.1,911.3L685.1,911.3z M632,866c1.1,0.9,2.1,1.7,3.3,2.6l0,0c3.5,2.8,6.8,5.4,10.2,7.7
						c7.2,4.7,14.5,9.5,21.7,14l0.1,0.1c8.6,5.5,18.3,11.8,27.7,18.1c2.6,1.7,5.6,2.7,8.7,2.7c6.9,0,14.4-4.9,14.8-13.9
						c0.1-8-1.7-15.8-5.3-22.9c-7.4-14.4-21-22.3-38.3-22.3C661.4,852.1,646.2,857,632,866z M500.1,898c-6.9-3-13.6-6.3-20.1-9.9
						l-0.1,0c-6.5-3.6-13.1-6.9-19.9-9.8c-7.1-2.9-14.7-4.5-22.3-4.6c-1.2,0-2.3,0-3.5,0.1c-2.1,0.2-4.1,0.2-6.1,0.2
						c-23.2,0-40.6-10.9-50.3-31.4c-6.6-14.1-14.3-21.2-24.7-23c-1.7-0.3-3.5-0.4-5.3-0.4c-5.9,0-12.1,1.4-18.1,2.7l-2,0.4
						c-2.4,0.5-4.6,2-7,3.7l0,0c-1.6,1.2-3.4,2.2-5.2,3.2c-7.7,3.6-14,5.4-19.3,5.4c-4.4,0.2-8.6-1.4-11.7-4.5
						c-4.7-4.7-6.9-12.8-6.9-24.9c0-25.9,17.7-44,42.9-44c7,0.1,13.9,1.3,20.4,3.8c6.9,2.5,14.2,4.4,21.3,6.2l0.1,0
						c8.7,2.2,17.6,4.5,26,8c14.9,6.3,25.3,13.5,31,21.6c13.9,19.7,32.1,32.8,51.2,45.7c14.7,9.9,29.1,19.8,42.7,31
						c3.2,2.6,4.4,7.2,5.6,11.7c0.5,1.9,1,3.7,1.7,5.5l0.8,2.1l-2.2,0.2c-1.8,0.2-3.7,0.5-5.6,0.9l-0.1,0c-2.6,0.6-5.3,0.9-8,1
						C503.4,898.9,501.7,898.6,500.1,898z M468.7,872.8c6.3,2.2,12.1,5.6,17.8,9l0.1,0.1c3.7,2.2,7.5,4.4,11.4,6.3
						c3.5,1.5,7.1,2.7,10.8,3.5c1.3,0.3,2.6,0.7,3.9,1l1.2-2c-1.1-1.1-2.1-2.3-3.1-3.4l-0.2-0.3c-2.9-3.4-6.1-6.5-9.6-9.3
						c-8.7-6.5-17.8-12.6-26.7-18.5l-6.9-4.6c-21.1-14.2-41.3-28.7-56-50.3c-5.4-7.9-16.4-12.8-28.1-17.6
						c-9.6-3.9-19.7-6.7-29.6-9.4c-5.3-1.5-10.9-3-16.3-4.7c-5.1-1.6-10.5-2.5-15.9-2.6c-7.8,0-15.5,2-22.3,5.8
						c-11.8,6.5-18.5,32.2-11.7,45.1c1.8,3.5,4.8,5.2,9,5.2c5.5,0,13.1-2.9,22.7-8.5c0.2-0.1,0.3-0.2,0.5-0.3
						c0.2-0.1,0.4-0.3,0.6-0.4c7.5-4.6,16-7.2,24.8-7.3c16.4,0,30.9,10,38.7,26.7c9.6,20.5,24.3,29.7,47.5,29.7c0.9,0,1.7,0,2.5,0
						c0.5,0,1,0,1.5,0C447.7,865.9,460.3,869.8,468.7,872.8z M89.9,862.9l-0.4-0.1c-15.4-3.1-24.7-7.5-29.8-22.4
						c-1.9-5.7-6.4-10.5-11-15.5c-2.6-2.8-5.1-5.6-7.4-8.7c-0.5-0.7-1-1.3-1.5-2.1l-0.1-0.1l0,0c-3.6-4.7-7.6-10.1-6.3-14
						c2-5.9,12.3-9.3,15.4-10.2c5.7-1.7,11.6-2.6,17.5-2.7c11.9,0,22.9,3.8,33.6,11.7c6.1,4.5,13.1,8.1,19.9,11.5
						c4.7,2.4,9.6,4.9,14.3,7.7c8.4,5.1,12.5,10.4,12.3,15.8c-0.2,5.2-4.5,9.9-12.7,14c-9.4,4.7-19.7,7.8-29.7,10.8l0,0
						c-4.1,1.2-8.8,2.6-13.3,4.1L89.9,862.9L89.9,862.9z M40.4,803.7c0.5,0.5,1.1,1,1.6,1.5l0,0l0.5,0.4c2.8,2.3,5.3,4.9,7.6,7.6
						c1.4,1.7,2.8,3.5,4.2,5.1l0,0c5,6.1,10.2,12.4,13.1,19.6c3.8,9.4,10,14.3,18,14.3c1.2,0,2.3-0.1,3.5-0.3
						c14-2.2,27.7-6.3,40.7-12c6.4-2.9,7.9-5.2,8-6.5c0.1-1.4-1.1-3.9-7.4-7.8c-16.6-10.3-31.4-18.9-45.4-26.4
						c-5.5-2.8-11.6-4.2-17.8-4.1C57.1,795.2,47.4,798.3,40.4,803.7L40.4,803.7z M1425.5,842.8c-1.5-0.7-3.2-1.3-4.8-2
						c-3.7-1.5-7.6-3-10.7-5.5c-6.8-5.4-15.9-12.7-10.1-23.8c3.6-7,9.6-10.6,17.2-10.6c3.3,0,6.6,0.6,9.7,1.8l1.1,0.4v5l-1,0.4
						c-2.3,1-5.1,1.9-7.8,2.8c-3.8,1.2-10.9,3.5-11.1,5.1c-1.3,10.1,7.3,13.5,16.4,17.1l3.5,1.4v9.1L1425.5,842.8z M-63.2,841.2
						l-4.6-0.2l3.7-2.8c1.6-1.2,3.2-2.3,4.6-3.3c4.2-3,7-4.9,7.3-7.5c0.4-3.5-3.3-9.3-12.7-20.2l-3.3-3.8l4.9,1.1
						C-51.4,807-43,817-44.2,827.2c-1,9.3-6.8,14-17.1,14C-61.9,841.3-62.5,841.3-63.2,841.2z M156.6,800.4c-3.7-3.2-7.3-6.5-11-9.7
						c-8.6-7.8-17.5-15.8-27.2-22.1c-8.8-5.7-20.2-8.1-31.2-9.9C51.9,753,29,738.8,14.8,713.9c-8.4-14.8-18.2-29.3-37.1-29.3
						c-6.9,0-14.5,1.8-23.4,5.5c-3.9,1.5-7.8,2.8-11.9,3.7c-1.1,0.3-3.6,1-3.6,1l-0.4,0c-0.9-0.1-1.7-0.4-2.3-1
						c-0.2-0.1-0.4-0.3-0.6-0.4l-2.7-1.5l2.7-1.5c18.6-10.4,32-15,43.4-15c15.5,0,27.5,8.6,38.9,28c17.1,29,41.5,43.8,76.7,46.5
						c22,1.7,38.9,16.2,52.9,29.7l3,2.9c14.5,14,28.1,27.2,47.3,32.9c6.6,1.8,13.4,2.7,20.2,2.6c2.4,0,6.2-2.4,6.5-3.7
						c0.7-2.8-0.7-7.6-2-8.4l-4.3-2.5c-10.4-6-21.2-12.3-32.6-15.9c-15.7-5-25.7-11.9-32.5-22.6c-8.3-13.1-19.9-22.4-35.4-28.4
						c-24.9-9.6-40.3-30-54.1-50.1c-3.4-5-6.8-10.1-10.1-15.2c-5.4-8.4-11.1-17-17.1-25.1c-21.7-28.8-51.3-43.4-88-43.4
						c-1,0-2.1,0-3.1,0l-0.5,0c-1.8,0-3.6-0.2-5.3-0.4c-0.9-0.1-1.7-0.2-2.6-0.3l-0.5-3.2c6.6-2.7,13.6-4.1,20.7-4
						c10.4,0,20.4,2.6,29.8,5.4c25.4,7.6,46,24.4,65,52.7c11.8,17.6,25.2,37.5,40.3,55c8.8,10.2,21.3,17.2,30.2,21.3
						c16.9,7.7,28.6,17.3,36.8,30c6.5,10.1,15.5,16.4,29.4,20.5c11.6,3.4,23.6,9.3,37.7,18.6c4.9,3.2,7.6,13.4,6,18.7
						c-1.4,4.8-10.1,9.4-16.1,9.6c-0.7,0-1.4,0-2.1,0C190.7,826.9,172.6,814.1,156.6,800.4L156.6,800.4z M607.8,775.8
						c-59-9.4-97-33-119.4-74.2c-5.9-10.3-14.4-18.9-24.6-24.9c-22.3-12.6-38-26.5-49.2-43.8c-12-18.4-28.8-27.7-49.9-27.7
						c-3.3,0-6.6,0.2-9.8,0.7c-27.6,3.6-45,17.3-53.3,41.8c-7.3,21.5-22.4,31.9-46.4,31.9c-4.2,0-8.5-0.3-12.7-0.9
						c-36.1-4.6-66.6-20.2-90.5-46.6c-15.4-17-23.2-36.3-23-57.3c0.1-10.6-0.3-21.4-0.8-31.9l0-0.3c-0.2-5.4-0.5-11-0.6-16.5
						c-0.4-15.9-7.4-27.9-22-37.9c-7.4-5.1-13.6-11.8-18.2-19.5c-5.8-9.9-7.3-20-4.3-28.4c2.8-7.9,9.3-13.9,18.8-17.5
						c17.4-6.5,36.3-9.7,54.5-12.9h0l4.4-0.8c36.7-6.3,74.1-12.3,110.3-18.1h0l0.6-0.1l1.2-0.2l0.1,0c13-2.1,26.5-4.2,39.7-6.4
						c3.9-0.6,7.8-1.2,11.5-1.7l5.4-0.8c9.9,0.1,19.7,1.6,29.1,4.5c8.7,2.7,16.9,6.9,24.2,12.3c7.2,5.4,13.5,12,18.6,19.6
						c5.4,8.1,9.5,16.9,12.2,26.3l1.2,4c2,6.6,4.1,13.4,5.5,20.2c5.4,26,20.6,42.1,46.5,49.4c9.7,2.7,19.3,6,28.5,9.1h0l1,0.3
						c2.6,0.9,5.4,1.8,8.1,2.7c26.5,8.8,40.6,27.2,40.6,53.2c0,39.1,16.3,68.4,49.7,89.5c16,10.1,30.4,23.5,43.7,36.4
						c13.3,12.8,17.1,29.4,10.5,45.5c-5.6,13.7-17.9,21.5-33.7,21.5C612.9,776.5,610.4,776.2,607.8,775.8z M422.7,629.8
						c10.1,16.3,24.7,29.3,42,37.4c15,7.2,25.8,18.4,34,35c6.2,12.7,13,21.3,20.2,25.8c22.1,13.9,45.4,25.9,69.5,35.9
						c4.9,2,10.9,3,17.9,3c6.2-0.1,12.4-0.7,18.5-1.8c7.2-1.3,12.9-5,16.1-10.4s3.8-12.3,1.5-19.2c-3.6-10.9-9.8-20.9-17.1-27.5
						c-12.7-11.5-26.5-22.2-40-32.5l0,0c-5.1-3.9-10.9-8.4-16.5-12.8c-17-13.4-26.9-32.1-29.4-55.5c-0.5-4.6-1-9.3-1.4-13.9
						l-0.1-0.9c-0.5-4.8-0.9-9.4-1.4-14.1c-1.8-17.2-10.6-29.4-26.1-36.3l-1-0.5l-0.1,0c-7.5-3.4-15.3-6.9-23.2-8.3
						c-46-8.4-71.3-34.8-79.6-82.9c-7.6-43.7-46.4-59.3-77.2-59.3c-7.6,0-15.2,0.9-22.5,2.8c-23.1,6.1-47.3,9.9-70.6,13.6l-0.1,0
						c-4.8,0.8-9.1,1.4-13.4,2.1c-17.1,2.8-34.3,5.2-50.9,7.6c-17.4,2.5-35.5,5.1-53.3,8c-15.4,2.5-24.6,9.5-27.2,20.7
						c-3.5,14.8,6,25.2,15.8,33.3c1.7,1.4,3.6,2.8,5.4,4.1l0.2,0.2h0c1.3,0.9,2.6,1.8,3.8,2.8c11.8,9.1,18.3,21.3,19.2,36.1
						c0.4,5.8,0.6,11.5,1,18.2l0.5,9.7l-2.8,0.4c0.8,5.2,1.5,10.6,2.1,15.8l0,0l0,0.1c1.4,12.6,2.9,25.6,7.6,37.1
						c14.9,36.4,64.2,67.1,107.8,67.1c3.6,0,7.2-0.2,10.8-0.7c17-2.2,27.1-10,30.8-23.7c7.9-29.1,28.4-45.1,62.5-49
						c3.1-0.3,6.2-0.5,9.3-0.5C389.2,597,409.1,608.3,422.7,629.8z M1425.8,750.5c-28.6-7.1-58.6-16.5-84.5-36.3
						c-23-17.6-48.4-27.4-75.5-29c-19.1-1.2-33.4-8.8-41.4-21.9c-11.3-18.5-7.4-42.7-0.8-57.8c14.9-33.6,52.6-56.3,93.9-56.3
						c5.8,0,11.6,0.5,17.4,1.4c10,1.7,20.9,2.4,35.3,2.4c5.8,0,11.6-0.1,17.4-0.2c5.8-0.1,11.7-0.2,17.5-0.2c1.8,0,3.6,0,5.3,0h0.8
						c3.2,0,6.6-0.3,9.8-0.5c1.7-0.1,3.3-0.3,5-0.4l1.8-0.1v8.7l-1.6,0.1c-6.3,0.3-12.5,0.6-18.7,1c-15,0.8-30.4,1.6-45.7,1.7
						c-10.8,0-21.5-2.3-31.5-4.8c-4.8-1.1-9.6-1.7-14.5-1.7c-36,0-77,26.8-86,56.2c-3.1,10.2-3.3,23.1-0.7,39.4
						c2.8,17.1,18,22.2,30.3,23.5c35.4,3.7,65.5,15.3,91.9,35.2c22.2,16.7,48.3,24.3,75.4,31.2l1.3,0.3v8.8L1425.8,750.5z
						 M963.4,734.6c-15.9-14.1-31.9-27.1-47.5-38.7c-10.2-7.6-16.4-17.8-17.4-28.8c-1-10.8,3-21.6,11.4-30.6
						c9.6-10.4,21.6-23.3,32.7-36c18.2-20.9,25.3-41,22.3-63.5c-1.5-10.9-1.2-22.9,12.1-28.7c3.4-1.5,7.1-2.2,10.9-2.2
						c10,0,19.5,4.8,25.5,12.8c14.6,19.8,34,34.9,60.9,47.5c18.2,8.5,24,24,27.5,46.3l0.1,0.5l-0.2,0.5c-1.4,3-2.7,6.3-4,9.4v0
						c-2.9,7.1-5.8,14.5-10.5,20.6c-5.7,7.3-12.5,14-19,20.5c-5.2,5.1-10.5,10.4-15.3,16c-6.9,8.1-13.3,16.9-19.4,25.4l-0.1,0.1
						c-2.8,3.9-5.7,7.9-8.7,11.9c-1.2,1.6-2.4,3.3-3.5,4.9l-0.1,0.1c-2.8,4.2-5.9,8.1-9.4,11.8c-8.2,8-16,11.9-23.8,11.9
						C980.2,746.2,972.2,742.4,963.4,734.6z M978.5,518.1c-2,0.5-5.6,10.6-4.9,17.1c2.8,25-4.8,47.5-23.3,69
						c-10.6,12.3-21.9,24.8-33.6,37.2c-7.3,7.7-10.6,16.5-9.7,25.3c1,9,6.5,17.4,15.5,23.6c15.2,10.4,29.5,22,43,34.6
						c9.1,8.6,16.5,12.6,23.2,12.6c7.2,0,14.3-4.6,22.5-14.6c2.2-2.8,4.1-5.9,5.8-9.1l0,0l0.1-0.2c0.9-1.7,1.9-3.4,2.9-5
						c1.3-2,2.5-4.1,3.7-6.1l0.1-0.2l0-0.1c2.9-5,5.9-10.3,9.9-14.6c6.8-7.5,14.1-14.9,20.6-21.5c9.2-9.3,18.6-19,27.3-29.1
						c3.8-4.4,6-10.3,8.3-16.5l0,0l0-0.1c1-2.6,2-5.3,3.1-7.9c-3.1-22.1-11.2-34.5-27.1-41.3c-23.7-10.2-42.8-25.3-56.9-44.8l0,0
						c-1.5-2-3.7-5.1-5.6-5.5c-1.5-0.3-3.1-0.7-4.4-1l0,0c-5.1-1.2-10.4-2.4-15.3-2.4C982,517.5,980.2,517.7,978.5,518.1
						L978.5,518.1z M1399.9,699.7c-8.3-1.3-19.7-4.2-27.1-10.7c-18.7-16.3-40.9-27.8-70.1-36.1c-1-0.3-2-0.6-3-0.8
						c-9.3-2.5-19.9-5.4-21.1-18.7c-1.3-15.1,5.2-27.2,18-33.2c7.5-3.5,18.8-7.7,30.2-7.7l0.6,0c23.8,0.3,48,1.6,71.4,2.8
						c9.1,0.5,18.3,1,27.4,1.4l1.6,0.1v8.7l-1.8-0.1c-10.1-0.5-20.1-1-30.2-1.6c-23.7-1.3-48.3-2.6-72.5-3.3c-0.4,0-0.8,0-1.2,0
						c-16.5,0-30.8,9.9-34.8,24c-2.4,8.6,0,14.1,7.7,17.2c2.4,1,4.9,1.7,7.4,2.5c3,0.8,6,1.8,8.8,3.1c4.9,2.2,10,4.2,15,6.2
						c12.6,4.9,25.5,10.1,35.9,18.3c17.3,13.8,31.7,20,46.8,20c5.7,0,11.3-0.9,16.8-2.5l2.2-0.6v9.1l-1.5,0.1
						c-2.6,0.3-5.3,0.7-7.9,1.1c-4.3,0.8-8.7,1.2-13.2,1.4C1403.5,700.1,1401.7,700,1399.9,699.7z M950.9,683.2
						c-13.9-12.6-15.5-30.3-4-46.1c12.5-17.2,27.4-37.4,43.5-56.1c4-4.6,10-7.5,15.2-10.1h0c2.2-1,4.4-2.1,6.3-3.2l0.6-0.4l0.7,0.2
						c3.9,1.1,7.5,1.9,10.9,2.8l0.1,0l0,0c6.3,1.4,12.5,3.2,18.6,5.4c11.5,4.4,19.5,12.3,22.5,22c3,9.7,0.9,20.6-5.9,30.7
						c-3.2,4.7-7.4,8.6-11.5,12.4c-1.7,1.5-3.4,3.1-5,4.8c-3.3,3.3-6.7,6.5-10.1,9.7l0,0c-7.1,6.5-13.9,13.4-20.3,20.6
						c-9.5,11.1-22.4,17.5-35.3,17.5C967.5,693.5,958.1,689.8,950.9,683.2L950.9,683.2z M997.3,585.6c-15.6,18.2-30.3,37.2-43.9,57
						c-5.9,8.6-7.2,18.3-3.5,26.6c3.8,8.6,12.2,14.4,22.9,15.9c1.5,0.2,3.1,0.3,4.7,0.3h0c9.5,0,18.6-4.3,27-12.8
						c14.2-14.3,26-25.9,37.2-36.8l0.7-0.7c8.3-8,16.1-15.5,14.9-27.2c0.7-12.4-5.2-20.1-19.2-24.9l-2.1-0.7l0,0
						c-7.1-2.5-14.5-5-21.4-5C1007.7,577.4,1002.2,580,997.3,585.6L997.3,585.6z M198.5,621.2c-17.8-11.8-37-26.5-38.2-52.4
						c-0.5-11.3,1.8-23,4.2-32.9c4.9-20.3,1.7-36.4-10-50.7c-1.9-2.5-3.6-5.3-4.9-8.1c-5.6-11-6.2-21.6-1.7-29.9
						c4.5-8.1,13.5-13.2,25.4-14.2c4.3-0.4,8.9-0.6,14.6-0.6c4.1,0,8.3,0.1,12,0.2c3.9,0.1,7.9,0.2,11.9,0.2c2.6,0.1,5,0.1,7.4,0.1
						c31.8,0,57.9-4.6,82.2-14.5c7.7-3.3,16-5,24.4-5.1c25.6,0,44.9,18.3,50.3,47.8c1.6,8.3,2.5,16.7,2.8,25.1
						c0.6,20.8,10.1,35.3,28.2,43.2c9.9,4.3,20.2,8.1,30.2,11.7l0.2,0.1l0,0c7.4,2.7,15,5.5,22.4,8.5h0c9.5,3.8,20.3,8.2,29.7,14.3
						c12.1,7.8,14.7,19,7.9,33.2c-5.1,10.7-12.6,16.3-21.6,16.3c-3.2,0-6.4-0.7-9.5-1.9c-13.2-4.9-26-10.7-38.5-16.3
						c-7.2-3.2-15.3-6.8-23.2-10.2l-2.6-1.1c-17.2-7.2-34.9-14.7-53.4-14.7c-4.7,0-9.4,0.5-14,1.5c-9.8,2.1-20.3,7.1-29.7,13.9
						c-7.5,5.5-14.6,12-21.4,18.2l0,0c-5.6,5.1-11.4,10.4-17.5,15.3c-12.1,9.6-23.5,14.3-34.9,14.3
						C220.7,632.6,210.1,628.8,198.5,621.2L198.5,621.2z M178,441.1c-12.1,0.8-20.5,5-23.7,11.7c-3,6.4-1.1,14.9,5.4,24.1
						c15.1,21.3,18.7,43.1,11.4,68.6c-3.8,13.4-6.8,30.3,4.5,42.4c11.9,12.5,25.3,23.4,40,32.5c4.5,2.9,9.8,4.4,15.2,4.4
						c7.4,0,15.3-2.8,22.7-8.1c12.1-8.5,23.5-18.1,34-28.6c17.9-18.1,36.8-26.9,58-26.9c4.5,0,9.1,0.4,13.5,1.2
						c11.8,1.9,23.3,5.1,34.5,9.5c11.8,4.8,23.7,10.1,35.1,15.3l0.2,0.1c8.8,4,18.9,8.5,28.6,12.6c7.8,3.3,13.5,4.8,18.1,4.8
						c6.9,0,11.2-3.6,14.8-12.3c4.8-11.5,3.4-19.9-18-28.9c-13.7-5.8-27.7-10.8-41.9-15c-41.5-12.2-60.5-35.7-61.7-76.2
						c-0.9-30.8-17.6-50.7-42.6-50.7c-7.9,0.1-15.7,1.8-22.9,4.9c-24.3,10.1-50.5,14.5-84.9,14.5c-2.4,0-4.9,0-7.3-0.1h0
						c-3.5,0-7.2-0.1-10.3-0.1l-1,0h0c-3-0.1-6.2-0.1-9.3-0.1C185.5,440.7,181.6,440.8,178,441.1z M741.1,603
						c-20.3-11.1-27.4-29.5-21-54.7c2.3-9.2,4.1-18.4,5.9-28.2l0-0.1c0.8-4.2,1.6-8.6,2.5-13l-0.1-0.5c-2-8.9-6.8-30.3-8.5-37.5
						c-3.3-14.9-2.1-26.6,3.7-33.8c4.1-5.2,10.3-7.8,18.2-7.8c6.1,0.2,12.1,1.3,17.8,3.5c44.3,15.5,72.9,44.2,85.2,85.2
						c2,6.6,3,16.9-0.5,24.3c-8.9,18.9-18.7,38.8-31.4,56.3c-7.7,10.7-20.2,16.6-35.1,16.6C766.2,613.3,753.4,609.8,741.1,603z
						 M731.3,441.1c-4.7,7.1-4.6,19.8-2.1,28.1c7.8,26.1,7.5,52.7-0.8,81.3c-6.5,22.2,0.2,37.5,20.3,46.8c10.7,5,20.6,7.5,29.5,7.5
						h0c13.7,0,24.5-5.9,32.1-17.5c8.6-13.2,16-27.4,23.2-41.2l0,0l2.4-4.6c1.4-2.7,1.9-6.1,2.2-8.6v0c0.1-0.9,0.2-1.7,0.3-2.3
						c-0.1-1.8-0.1-3.3-0.2-4.8c0-2.2-0.2-4.4-0.5-6.5c-0.5-2.9-1.4-5.7-2.6-8.5c-13.2-31.9-37.8-55.4-75.3-71.6
						c-6-2.6-11.6-4-16.2-4C738,435.2,733.9,437.2,731.3,441.1L731.3,441.1z M231.1,599.9c-9.2,0-18-4-24-11.1
						c-5.7-6.7-8.1-15.5-6.5-24.1c3-17.5,1.2-34-5.6-51.8c-4.2-10.9-2.2-23.6,5.6-34.8c8.2-11.9,21-19.2,33.5-19.2
						c1.9,0,3.7,0.2,5.6,0.5c2.2,0.4,4.5,0.6,6.8,0.6c10.8,0,22.5-3.8,31.5-7.1c8-3,17.1-6.3,25.9-6.3c7.5,0,14.7,2.6,20.4,7.4
						c15.8,12.8,22.7,30.8,20.1,52.1c-2.2,18-16.7,28.7-38.8,28.7c-1.9,0-3.8-0.1-5.8-0.2l-0.2,0c-4.6-0.3-8.2-0.6-11-0.6
						c-8.6,0-8.9,1.6-9.9,18.8c-1.2,21.4-23.6,45.3-44.5,47.2C233.1,599.8,232.1,599.9,231.1,599.9L231.1,599.9z M208.2,481
						c-6.3,8.1-7.7,20.5-4,34.8c2.3,8.8,2.7,18.2,3.2,27.2c0.2,6.4,0.7,12.8,1.5,19.2c1.2,7.8,3.2,17.6,8.3,23.5
						c3.4,3.9,8.3,6.1,13.5,6c4.4-0.1,8.6-1.2,12.4-3.3c18.1-9.7,26.9-23.1,26.8-41.2c0-9.4,1.3-14.8,4.6-18.2
						c2.8-2.8,6.8-4.1,13.1-4.1c1.9,0,3.9,0.1,6.3,0.3c1.6,0.2,3.2,0.5,4.8,0.7l0.1,0c1.4,0.3,2.8,0.5,4.3,0.7
						c1.3,0.1,2.6,0.2,3.9,0.2c12.4,0,22.8-6.2,27.2-16.1c5.6-12.8,0.3-35.1-11.2-46.8c-6.2-6.3-12.2-9.1-19.5-9.1
						c-5.3,0-11.6,1.5-19.7,4.6c-9.2,3.5-18.8,6.1-28.2,8.5l-0.2,0c-3.9,1-8.3,2.2-12.7,3.4l-0.4,0.1l-0.4-0.1
						c-3.2-0.6-6.4-0.8-9.6-0.9C221.8,470.7,213.4,474.3,208.2,481z M781.1,555.3c-11.9-0.3-21.4-12.8-21.5-28.6
						c-0.2-18,7-30.7,17.5-31c3.5,0.1,6.9,1.1,9.9,2.8c3.6,1.9,6.8,4.3,9.7,7.1c2.9,2.8,5.4,5.9,7.4,9.4c1.8,2.9,2.8,6.2,3,9.5
						c0.1,7.1-4.2,16.1-10.8,22.9c-5,5-10.2,7.8-14.8,7.8L781.1,555.3z M778.9,503.7c-4.3,3.1-7.1,8.5-10.1,14.3v0
						c-1.2,2.3-2.4,4.6-3.7,6.8c1.3,6.3,3.6,11.8,6.5,15.6s6.4,5.9,9.9,5.9l0.5,0c6.3-0.3,16.5-13.8,16.5-21.7
						c0-6.3-13.2-21.2-18.9-21.2C779.4,503.5,779.1,503.6,778.9,503.7z M1283.9,500.8c-26.2-17.8-54-27.7-85-30.1l-0.5,0
						c-2.1-0.1-4.3-0.4-6.4-0.9c-20.9-5.4-39.9-12.4-43.6-38.4c-3-21.6,10.6-54.6,33.2-66.6c11.3-6,25.7-9.8,40.7-10.8
						c21.4-1.5,39-4,53.8-21.5c8.6-10.2,20.2-15.2,35.3-15.2c9.8,0,19.5,2.1,26.9,3.9c16.6,4,32.9,10.3,48.7,16.3
						c7.2,2.8,14.7,5.6,22.1,8.2c3.9,1.4,8,2.6,11.9,3.7c1.8,0.5,3.7,1.1,5.5,1.7l1.2,0.4v9l-21.2-8c-14.1-5.3-28.2-10.6-42.4-15.9
						c-12.3-4.6-28.6-9.9-45.3-9.9c-4.8,0-9.6,0.4-14.3,1.3c-5,0.9-17.2,3.9-23,10.9c-13,15.6-29.5,22.8-51.9,22.8l-3.7,0
						c-23,0-38.6,5.7-50.8,18.5c-11.1,11.7-17.3,26-19,44c-1.4,14.8,7.3,27.5,22.3,32.3c12.7,4.1,27.3,7.2,44.5,9.4
						c19.6,2.6,38.4,10.2,57.4,23.3c28,19.3,57,28.6,88.6,28.6c2.7,0,5.5-0.1,8.2-0.2c5.5-0.3,11.3-0.4,18.4-0.4
						c5.1,0,10.2,0.1,15.2,0.1c5.1,0.1,10.1,0.1,15.2,0.1h1.7l0,1.7v7h-1.7c-5.5,0-11,0-16.4-0.1s-11-0.1-16.4-0.1
						c-7.6,0-13.9,0.1-19.9,0.3c-1.9,0.1-3.8,0.1-5.7,0.1C1336.8,526.2,1308.7,517.6,1283.9,500.8L1283.9,500.8z M1206.9,511.7
						c-1.1-0.9-1.5-2.9-1.1-6.1c0.3-2.3,1-5.2,2.7-6c2-0.8,4.1-1.2,6.3-1.2c10,0,25.3,7.4,31.2,18l1,1.8l-1.9,0.6
						c-4.2,1.5-8.7,2.2-13.2,2.3C1223.1,521.1,1214.9,518.1,1206.9,511.7L1206.9,511.7z M286.3,517c-5.9-0.2-11.4-2.8-15.3-7.2
						c-4.4-4.8-6.7-11.2-6.3-17.8c0.6-12.9,7.8-20.8,18.8-20.8c0.4,0,0.9,0,1.4,0c13.3,0.8,23.1,11,22.9,23.8
						c-0.2,11.9-9.7,22-20.8,22L286.3,517z M273.2,492.8c0,4.8,1.8,9.4,5.1,13c1.5,1.8,3.7,2.8,6.1,3c0.6,0,1.3-0.1,1.9-0.3
						c4.2-1.4,7.8-5,10.8-7.9l0,0c0.9-0.9,1.9-1.8,2.7-2.6c-1.1-11.9-6.3-18-15.8-18.6c-0.3,0-0.6,0-0.9,0
						C275.1,479.3,273.4,486.6,273.2,492.8L273.2,492.8z M627.4,509.7l-9-1.5c-24.8-4.2-50.5-8.5-74.7-16.4
						c-34.1-11.1-58.8-36.6-75.5-78c-2.1-5.1-4-10.3-6-15.5c-3.4-9-7-18.3-11-27.2c-17-37.4-51-58.9-93.5-58.9
						c-6.8,0-13.6,0.5-20.3,1.6c-22.8,3.5-42.5,9.2-58.5,17c-32.4,15.8-69.4,24.7-116.3,28.1s-91.9,14.5-144.9,30.3
						c-16.1,4.8-33.1,7.3-49.6,9.7c-6.4,0.9-12.7,1.9-19,2.9c-0.9,0.1-1.7,0.2-2.6,0.2c-3.8-0.1-7.5-1.3-10.6-3.6l-3.5-2.5l4.3-0.6
						c5-0.7,10.1-1.2,15.2-1.8c10.9-1.2,22.2-2.4,32.9-5c13.9-3.3,27.9-7.3,41.5-11.2c19.7-5.6,40-11.3,60.4-15.3
						c20.8-4,42.2-6.7,62.9-9.2c17.9-2.2,36.4-4.5,54.5-7.6c13.7-2.4,27.3-7,40.5-11.5c6.4-2.2,12.9-4.4,19.5-6.4
						c7.5-2.3,15-4.8,22.4-7.3c16.9-5.7,34.3-11.6,52-14.3c7.2-1.1,14.5-1.7,21.8-1.7c48.5,0,84.7,26.4,104.9,76.4
						c1.3,3.3,2.7,6.7,4,10.1c6.6,16.8,13.5,34.1,23,49.3c18,29,44.3,45.7,78.2,49.9c11.9,1.5,23.8,4.3,35.4,7.1
						c5,1.2,10,2.4,15,3.5c3.8,0.9,7.7,1.4,11.5,1.4c12.4,0,18.1-6.7,19.8-23.1c2.5-24.6-4.1-48.3-19.2-68.5
						c-49.2-65.9-45.7-139.4-37.1-196.1c4.3-28.4,5.9-57.7,7.4-86.1c0.6-10.9,1.2-22.2,1.9-33.3c0.1-3.7-0.3-7.5-1.1-11.1
						c-0.3-1.8-0.6-3.6-0.9-5.5l-0.2-1.9h9l-0.1,1.7c-0.4,11.4-0.7,22.8-1,34.2c-0.7,25.5-1.4,51.8-3.3,77.6
						c-0.9,12.2-2.4,24.6-3.9,36.5c-3.5,29.1-7.2,59.1-2.8,89.1c3.8,26,14,50.8,33.1,80.2c13,20.1,25.2,42.4,26.3,68.9
						c0.4,7.1,0.2,14.2-0.8,21.3c-2.5,15.8-11.5,24.5-25.3,24.5C631.6,510.2,629.5,510,627.4,509.7z M1425.4,507.3
						c-23.9-12.2-50.2-16.1-75.7-19.9c-6.5-1-13-1.9-19.5-3c-11.2-1.9-23.5-9-37.6-21.8c-11.3-10.5-25.8-17.1-41.2-18.7
						c-7.4-0.8-15.9-2.2-23.4-5.4c-7.6-3.3-12.5-10.1-12.7-17.6c-0.2-7,3.8-13.2,10.5-16.5l6.9-3.5c26-13,52.8-26.5,82.4-26.5
						c12.5,0,24.9,2.4,36.6,6.9c15.7,6,33.5,7.6,50.8,9.2c7.9,0.7,16,1.5,23.9,2.6l1.4,0.2v8.7l-2-0.3c-8.7-1.4-17.4-2.8-26.1-4.1
						c-19.6-3-39.8-6.1-59.4-10.4c-12.7-2.8-23.1-4.1-32.6-4.1c-16.7,0-31.3,4.3-44.5,13c-4.4,2.9-9.6,4.8-14.5,6.6
						c-4.5,1.5-8.9,3.4-13,5.7c-4.9,3-10.3,9-10.4,13.5c-0.1,1.6,1.9,4.7,11.7,11c2.6,1.6,6.4,1.9,10.1,2.2l1.9,0.1
						c22,1.8,38.2,9.3,51,23.5c12.3,13.7,29.8,21.4,48.2,21.2c0.8,0,1.7,0,2.5,0c1.7-0.1,3.5-0.1,5.2-0.1c21.5,0,40.7,5.1,58.6,15.6
						c2.2,1.3,5,1.8,7.9,2.4c1.4,0.3,2.8,0.5,4.2,0.9l1.3,0.3v9.3L1425.4,507.3z M-64,473.3l-3.7-3.2l4.9,0.3
						c3.7,0.2,7.5,0.5,11.3,0.8c6.6,0.5,13.5,1.1,20.2,1.1c1.7,0,3.5,0,5.2-0.1c18.6-0.9,32.6-11.6,37.4-28.5c2.3-8,2-14.1-0.9-17.9
						c-2.5-3.4-7.1-5.1-13.7-5.1c-1.2,0-2.5,0.1-3.8,0.2c-5.9,0.5-11.9,1.5-17.7,2.5c-5.2,0.9-10.7,1.8-16.1,2.4
						c-2.9,0.3-5.7,0.4-8.6,0.4c-2.3,0-4.6-0.1-6.9-0.1s-4.7-0.1-7-0.1h-2.1l0.5-2.1c0.2-0.7,0.3-1.3,0.4-1.8
						c0.3-1.5,0.5-2.7,1.9-2.9c5.1-0.6,10.3-1.3,15.4-1.9c13.7-1.8,28-3.6,42-4.6c1.1-0.1,2.1-0.1,3.2-0.1c8.5,0,14.8,2.5,18.8,7.3
						c4.3,5.2,5.5,13.2,3.5,22.9C17.3,457,9.3,467.6-3.6,474.2c-10,4.9-20.9,7.5-32.1,7.4C-47.7,481.6-58.1,478.6-64,473.3z
						 M1400.9,466.8c-22.6-8.1-45.9-16.5-68.8-25c-6.7-2.5-14.4-5.6-20.1-10.7c-4.2-3.8-8-11.5-7-17c0.9-5.2,7.5-12.6,13-13.1
						c3-0.3,6.2-0.4,9.5-0.4c8.2,0.1,16.3,0.8,24.4,2.3c17.7,3,35.7,6.5,53,10c7.2,1.4,14.3,2.8,21.5,4.2l1.4,0.3v8.7l-24.6-4.8
						c-20.8-4.1-42.2-8.3-63.4-12.3c-3.9-0.9-7.9-1.3-12-1.5c-1.8,0-3.6,0.2-5.4,0.6c-3.9,0.9-8.6,5-9.7,8.3
						c-0.6,1.7,2.7,7.4,5.8,9.2c8.6,4.9,17.6,9.1,27,12.4c19.4,7.2,39.1,14.3,58.3,21.2c7.6,2.7,23.9,8.6,23.9,8.6v8.9
						C1427.9,476.5,1409.1,469.7,1400.9,466.8L1400.9,466.8z M947.3,461.2l-0.5-0.4c-0.9-0.6-1.7-1.2-2.7-1.7L944,459
						c-3.7-2.2-8.8-5.2-10.6-9.9c-7.3-19.1-22-28.6-42-36.9c-7.8-3.2-15.2-7.4-22.1-12.3c-3.7-2.7-8.4-9.3-7.1-13.2
						c1.5-4.4,7.5-10.1,12.4-10.4c1-0.1,2.1-0.1,3.2-0.1c7.3,0,14.6,1.3,21.4,4c7.8,3.2,15.6,7.3,22.6,10.8l0,0
						c6.5,3.3,13.2,6.8,19.9,9.7c17.8,7.7,27.2,19.6,29.7,37.3c1.1,7.7,1.1,13.6-2.3,17.5c-3.3,3.8-9.4,5.4-21.2,5.6L947.3,461.2
						L947.3,461.2z M868.3,388.9c2.3,1.4,4.5,2.9,6.5,4.2c5,3.4,10.2,6.5,15.6,9.2l0.8,0.3c20.5,9.4,41.6,19.1,49.9,43.7
						c0.7,2.1,3.4,4.8,4.9,4.9c2,0.2,4,0.3,5.8,0.3c3.7,0.1,7.4-0.5,10.9-1.6c0.5-0.6,1-5.5,0.6-9.9c-1.4-15.2-9.2-25.2-24.7-31.7
						c-9.9-4.1-19.5-9.1-28.9-13.9l-0.9-0.5c-4.1-2.1-8.4-4.3-12.6-6.4c-4.9-2.4-9.2-4-13.8-4C877.8,383.6,873.2,385.3,868.3,388.9
						L868.3,388.9z M540.9,435.2c-14.8-13.2-27.2-29.3-38.2-43.5c-7.4-9.6-14.5-19.6-21.4-29.3c-9.8-13.9-19.9-28.2-31.1-41.3
						c-27-31.7-60.1-47.8-98.4-47.8c-16.5,0-34.3,3-52.8,8.9c-13.3,4.1-26.3,9.4-38.7,15.8c-31.9,16.8-64.7,25.3-97.3,25.3
						c-6.9,0-13.9-0.4-20.8-1.1c-6.2-0.7-12.3-1-18.5-1c-30.3,0-60.8,7.6-99.1,24.5c-17.3,7.6-35.4,13.4-53.9,17.3
						c-3,0.6-6.1,0.9-9.2,0.9c-4.9-0.1-9.8-0.5-14.7-1.2c-3.5-0.4-7.1-0.8-10.6-1l-1.7-0.1l0.6-7.7l1.7,0.1c3.3,0.2,6.6,0.5,9.9,0.9
						c4.2,0.6,8.5,0.9,12.7,1c2.7,0,5.4-0.2,8-0.8c20.5-4.6,37.9-10.1,53.3-17c38.8-17.2,71.4-25.3,102.7-25.3
						c6,0,12.1,0.3,18.1,0.9c6.4,0.6,12.8,1,19.2,1c32.8,0,65.3-8.5,99.2-25.9c31.4-16.2,60.5-24,88.9-24c15.2,0,30.4,2.4,44.9,7
						c36.9,11.7,62,39.3,83.7,67.4c9,11.7,17,24.4,24.7,36.7c2.9,4.7,5.9,9.4,8.8,14c15,23.3,35,47.9,69.3,54.5
						c2.4,0.5,4.9,0.7,7.3,0.8c1.3,0,2.5-0.1,3.8-0.3c10-1.7,15.5-4.3,17.3-8.2c1.8-3.9,0.2-9.8-5.1-18.7
						c-3.8-6.4-7.9-12.9-11.9-19.1c-9.3-14.6-18.9-29.7-25.8-45.7c-16.6-38.6-14.7-79.9-12.8-119.9c0.3-5.9,0.5-11.7,0.8-17.5
						c1.7-45.2,3-85.2,4-122.4c-0.1-3.4-0.6-6.8-1.5-10.1c-0.4-1.7-0.8-3.3-1.1-5l-0.3-2h8.7l0.3,1.3c6.3,28.7,4.2,57.8,2.2,86
						c-0.3,3.9-0.6,7.8-0.8,11.7c-0.4,5.9-0.8,11.9-1.3,17.8c-3.2,44.5-6.5,90.5,2.6,135.5c5.6,27.7,20.6,51,36.7,74.4
						c0.8,1.2,1.7,2.4,2.5,3.6c2.4,3.5,5,7,7.1,10.8c5.2,8.9,6.5,16.5,4,22.3c-2.6,6-9.2,10.2-19.7,12.6c-4.2,1-8.5,1.5-12.9,1.5
						C569.1,453.6,554.5,447.4,540.9,435.2L540.9,435.2z M1162.5,323.1c-17.3-6.2-28.4-16.8-34.9-33.4
						c-9.1-23.3-34.5-39.5-61.7-39.5c-11.4-0.1-22.6,3-32.3,9.1c-25.1,16-47.3,26.6-74,26.6c-1.8,0-3.6,0-5.4-0.1
						c-42.6-2.3-64.8-21.2-71.8-61c-5-28.4-10.4-61.5-10.9-94.4c-0.2-12.3,4.2-24.7,8.5-36.8c1.9-5.3,3.9-10.8,5.4-16.2l0.3-1.2h9.1
						l-1,2.3c-0.5,1.1-0.9,2.2-1.4,3.3c-1,2.4-2,5-3.2,7.4c-9.1,17.9-12.1,35.4-9.2,53.6c2,12.4,3.5,25.2,4.9,37.5
						c1.8,15.5,3.6,31.6,6.6,47.2c5.8,30.8,25.2,47.1,59.4,49.8c2.8,0.2,5.6,0.3,8.3,0.3c23.1,0,44.9-7.8,66.7-23.8
						c10.4-7.6,23.6-11.6,38.2-11.6c22.2,0,44.9,9.4,57.9,24c4.2,4.7,8.8,9.8,10.7,15.7c10.2,31.3,36.8,37.6,61.5,39.7
						c3.6,0.3,7.1,0.5,10.5,0.5c29.1,0,49.8-11.3,63.3-34.4c2-3.2,4.3-6.3,6.9-9.1l0.4-0.5c8.4-10,15.5-14.2,23.6-14.2
						c5.3,0,11.3,1.9,18.8,6c4.3,2.3,8.5,4.8,12.5,7.6c34.5,23.8,65.1,37.2,96.1,42l1.4,0.2v8.7l-2-0.3c-41-6.4-75.8-27.3-108-48.1
						c-8.5-5.5-14.1-7.8-18.8-7.8c-6.2,0-11.6,4-20.1,14.8c-23.5,30.1-48,44.1-76.9,44.1C1189.9,330.8,1176.9,328.3,1162.5,323.1
						L1162.5,323.1z M-57.4,327.6c-3-0.2-5.3-1.7-7.5-4.9l-1.6-2.4l2.9-0.3c1-0.1,2.1-0.2,3.1-0.4c2.2-0.3,4.3-0.5,6.5-0.5
						c0,0,2.1,0,2.9,0c19.5,0,38.8-4.9,62.7-15.8c26.9-12.3,52.6-18.3,78.7-18.3c9.2,0,18.3,0.8,27.4,2.3
						c12.8,2.1,25.7,3.2,38.7,3.2c45.2,0,88.4-13.6,128.3-40.3c17.1-11.5,34.3-17.3,51.1-17.3c8.1,0,16.1,1.3,23.8,3.8
						c22,7.1,43.7,16.4,64.7,25.4c9.9,4.3,20.2,8.7,30.4,12.8c2.6,1,5.2,2.1,7.7,3.2c10.5,4.3,21.4,8.8,32.4,11.9
						c1.9,0.5,3.8,0.8,5.7,0.8c8.3,0,14.1-5.7,14.9-14.9c2.2-22.3,2.8-40.6,1.9-57.4c-1.8-33.5-4.3-67.5-6.7-100.4
						c-1-13.4-2-26.8-2.9-40.2l-0.1-1.8h8.7l0.1,1.6c0.9,13.5,1.9,27,2.8,40.5c2.4,33.3,4.8,67.7,6.6,101.5
						c0.9,16.4,1.4,35.7-1.5,54.1c-3.4,21.6-15.3,26.1-24.6,26.1c-5.5-0.2-11-1.3-16.1-3.5c-11.6-4.5-23-10.1-34-15.4
						c-10.7-5.2-21.8-10.6-33-15c-23.1-9.2-46.7-16.9-70.7-23.2c-4.4-1.1-8.9-1.7-13.4-1.7c-12.6,0-25.7,4.6-39.9,14.1
						c-43.2,28.9-89.9,43.5-138.7,43.5c-14.4,0-28.9-1.2-43.1-3.6c-7.5-1.2-15.1-1.9-22.7-1.9c-23.8,0-47.9,5.9-73.6,18.1
						c-23.7,11.3-44.6,16.5-65.6,16.5C-53.2,327.8-55.3,327.7-57.4,327.6z M-65.5,286.8l1.5-0.3c0.8-0.2,1.6-0.4,2.3-0.6
						c1.8-0.6,3.7-0.9,5.5-1.1c27.7-1.6,52.5-10.6,75.9-27.5c21.1-15.3,44.4-29.6,71.2-30.9c2.4-0.1,4.8-0.2,7.2-0.2
						c18.3,0,36.6,3.2,55.3,6.8c12.1,2.3,24.4,3.6,36.7,3.6c39.5,0,74.3-13.9,103.5-41.3c14.9-14,29.7-20.8,45.3-20.8
						c9.9,0,20.4,2.9,31,8.5c11,5.8,21.8,8.8,32.1,8.8c27.2,0,57.2-24.4,60.3-65.2c0.9-11.1,1.5-22.4,2-33.3
						c0.3-5.1,0.5-10.2,0.8-15.4l0.1-1.6h8.7L474,78c-0.5,6.3-1,12.7-1.4,19.1c-1,14-1.9,28.6-4.2,42.7
						c-5.1,31.8-29.7,56.2-59.8,59.4c-1.9,0.2-3.7,0.3-5.6,0.3c-11.1-0.2-22-2.8-31.9-7.7c-11.1-5.5-21.1-8.1-30.7-8.1
						c-15.2,0-29.5,6.6-44.8,20.8c-29.3,27.1-64,40.9-103.1,40.9c-16.9-0.1-33.6-2.5-49.9-7c-11.3-3.1-22.9-4.7-34.6-4.8
						c-25.6,0-50.2,8.2-75,25c-17.3,11.7-38.9,26.3-64.1,31c-7.2,1.3-14.6,2.1-21.8,2.9c-3.3,0.4-6.6,0.7-9.8,1.1l-1.7,0.2
						L-65.5,286.8z M1426.1,293.5c-53-3.6-98.4-25.7-138.7-67.5c-19.8-20.6-26.7-46.9-19.9-76.1l1.1-4.5
						c5.3-22.7,10.4-44.2,5.4-67.2l-0.5-2h8.8l0.3,1.4c5.1,24.9-0.6,48-6.5,72.4l-0.1,0.5c-7,28.4-0.1,53,20.5,73.1
						c39.6,38.7,82.1,58.8,129.9,61.3l1.6,0.1v8.7L1426.1,293.5z M1150.1,259.2c-17.6-13.7-32.4-30.4-47.3-47.7
						c-11.4-13.3-20.9-18.9-31.7-18.9c-5.8,0-12.1,1.7-19.3,5.1c-9.9,4.7-19.1,11.6-28,18.2c-3.5,2.6-7.1,5.3-10.7,7.8
						c-3.3,2.3-6.6,4.9-9.8,7.5c-6,4.8-12.2,9.7-19.1,13.1c-5.8,3-12.1,4.6-18.6,4.7c-14,0-25.6-8.3-31.9-22.8
						c-23.8-54.4-20.1-96.5,11.4-132.3c3-3.6,5.8-7.4,8.4-11.4c1.2-1.9,2.5-3.7,3.8-5.5l0.5-0.7h9.4l-1.9,2.7
						c-2.2,3.1-4.3,6.3-6.5,9.5c-4.6,7.1-9.5,13.9-14.9,20.4c-27.7,32.1-17.2,94,1.9,120.9c5,7.1,12,11,19.7,11
						c3.4,0,6.8-0.7,9.9-2.1c8.2-3.4,15.8-8.8,23.2-14c2.1-1.5,4.2-3,6.3-4.4c5-3.4,9.9-7.2,14.7-10.8c9.3-7.2,19-14.6,29.6-19.6
						c8.3-4,15.7-5.9,22.5-5.9c12.6,0,23.5,6.3,36.4,20.9c12.2,13.8,28.5,31.8,46.7,47.6c9.4,8.2,21.1,12.3,34.8,12.3
						c5.4,0,10.9-0.6,16.2-1.8c28.4-6,40.6-22.9,40.8-56.4c0.1-11.7-0.7-23.6-1.5-35.1c-0.4-5.8-0.8-11.7-1.1-17.5
						c-0.1-2.7-0.3-5.4-0.5-8c-0.5-7-1-14.1-0.4-21.2c1.6-17.7-1.2-32.7-8.4-46l-1.4-2.5h9.4l0.3,1.2c0.9,3.1,1.9,6.2,3,9.3
						c2.3,6.8,4.7,13.9,5.2,21c1.3,20.2,1.8,40.7,2.3,60.6c0.2,7.9,0.4,15.9,0.6,23.8l0.1,3.8c0.1,3.1,0.2,6.3,0.2,9.4
						c0.2,23.3-3.1,46.5-27.8,58.8c-12.4,6.2-24.6,9.3-36.4,9.3C1175.7,273.4,1162.2,268.6,1150.1,259.2L1150.1,259.2z M-65.4,227.3
						l1.5-0.4c0.9-0.2,1.7-0.5,2.6-0.8c2-0.7,4.1-1.2,6.2-1.4c26.5-2,49.3-10,67.9-23.8c36.4-26.9,76.1-39.9,121.4-39.9
						c13.7,0,27.4,1.2,40.9,3.4c7.6,1.2,15.3,1.9,23,1.9c21,0,39.8-5.2,56-15.6c24.2-15.5,39.7-39.4,47.4-73.1l0.3-1.3h8.8l-0.5,2.1
						c-12.9,53.5-40.3,83.6-83.9,91.9c-11.8,2.2-23.9,3.2-35.9,3.1c-13.2-0.1-26.3-0.9-39.4-2.5c-8-0.9-16-1.4-24.1-1.4
						c-31.9,0-60,8-85.9,24.5c-25.3,16.1-51.6,32.8-82.8,37.5c-4.7,0.7-9.6,1.1-14.3,1.5c-2.2,0.2-4.3,0.4-6.5,0.6l-1.5,0.2
						L-65.4,227.3z M1320.6,202.8c-15.5-9.8-24.7-21-27.4-33.6c-2.6-12.2,0.9-25.7,10.4-40.2c12.3-18.6,8.3-35.3,2.1-50.6l-0.9-2.3
						h8.9l0.4,1c9.4,21.6,7.6,40.6-5.6,59.9c-13.7,20.1-10.4,38.4,9.4,53.1c30.6,22.7,63.4,34.2,97.6,34.2c3.5,0,7-0.1,10.5-0.4
						l1.8-0.1v8.7l-1.6,0.1c-3.5,0.2-7,0.4-10.4,0.4C1384.2,233.1,1353,223.2,1320.6,202.8L1320.6,202.8z M1163.4,218.9
						c-12.5-5.6-23.7-14.3-34.6-22.8l-3.8-2.9c-2.2-1.7-4.5-3.5-6.7-5.2c-15.2-12-29.5-23.3-48.8-27.3c-5.3-1.1-10.8-1.7-16.2-1.7
						c-17.2,0-32.1,6.2-45.4,18.8c-7.2,6.9-14.6,10.5-21.4,10.5c-9.8,0-17.2-7.3-20.7-20.7c-3.8-15.1-4.7-30.8-2.5-46.2
						c2.9-21,21.4-28.4,35.1-32.2c9-2.5,18.1-5.7,26.8-8.8c4-1.4,7.9-2.8,11.9-4.2l0.3-0.1h8.2l0.7,3.2c-3.2,1.5-6.4,3.1-9.7,4.7
						c-7.6,3.8-15.6,7.7-23.6,11c-3.3,1.2-6.8,2-10.3,2.4c-3,0.4-6,1-8.9,2c-15.8,5.9-23.7,16.1-23.6,30.5c0.2,13.7,0.6,25.9,4,37.2
						c2.5,8.2,7,12.7,12.7,12.7l0,0c4.4,0,9.3-2.5,14.2-7.3c14.3-14.2,33.6-22.2,53.7-22.3c15.6,0,31.3,4.8,45.3,14
						c7.8,5.1,15.2,11.1,22.3,17c6.3,5.1,12.8,10.5,19.5,15.1c10.8,7.4,21.5,14.3,32.8,16.9c3.3,0.8,6.8,1.2,10.2,1.2
						c7.3,0,13-2.2,17.2-6.5c5-5.2,7.5-13.6,7.1-24.3l-0.2-6.3c-0.7-19.5-1.5-39.7-4.7-59.1c-1.6-9.4-9.7-18.7-16.1-26.1
						c-3.2-3.7-7.8-6.3-12.7-9c-2.2-1.2-4.4-2.4-6.5-3.8l-4.8-3.1h16.7l0.4,0.2c24,13.2,34.8,33.2,32.9,61.3
						c-0.6,8.7,0.4,17.6,1.3,26.3c0.7,6.4,1.4,13,1.5,19.5c0.2,13.1-3.5,23.9-10.6,31.1c-5.8,5.9-13.7,9-22.6,9
						C1176.7,223.5,1169.7,221.9,1163.4,218.9L1163.4,218.9z M1384,184.2c-13.9-4.1-15-16-14.4-25.9c0.4-5.3,1.2-10.6,2.4-15.8
						c1.1-5.8,2.3-11.9,2.4-17.8c0.2-10.8-0.7-21.9-1.6-32.6c-0.4-4.7-0.8-9.4-1.1-14.1l-0.1-1.8h8.8l0,1.7c-0.1,7.1,0,14.1,0,21.2
						c0.1,16.3,0.2,33.1-1.3,49.5c-1.7,19,0.7,26.6,9,27.9c0.9,0.1,1.8,0.2,2.8,0.2c9.4,0,16.2-8.2,18.3-21.8
						c0.5-3.5,0.7-7,0.8-10.4c0-4.9,0.6-9.7,1.6-14.5c2.5-10,5.8-20,9.1-29.7c1.3-4.1,2.7-8.2,4-12.2l3.3,0.5v10.8l-0.1,0.2
						c-0.8,2.8-1.7,5.6-2.6,8.3c-2.1,6.1-3.8,12.4-5.1,18.7c-0.9,6.1-1.6,12.3-1.8,18.5c-0.3,4.2-0.5,8.5-1,12.7
						c-0.4,4.5-1.6,9-3.5,13.1c-4.1,8.2-14.1,14.2-23.8,14.2C1388,185,1385.9,184.7,1384,184.2L1384,184.2z M1169.3,163.5
						c-10.6-2.9-20.5-8-28.9-15.1c-0.8-0.7-1.6-1.4-2.3-2l-0.2-0.2c-6.9-6.1-12.9-11.3-23.1-11.3c-0.4,0-1.1,0-1.2,0
						c-3.1,0-6.9-1.7-10.5-4.5c-1.6-1.3-3.1-2.7-4.3-4.3c-1.1-1.3-2-2.9-2.6-4.5c-1.8-5.3,4.6-15.9,9.9-18.4
						c7.3-3.4,15.4-5,23.3-6.5l0.3-0.1c3.1-0.6,6.3-1.2,9.4-2l1.5-0.4l0.6,1.9c0.8,0.1,1.6,0.1,2.2,0.2l0.1,0
						c1.9,0.2,3.8,0.3,5.6,0.3c0.4,0,0.8,0,1.2,0c0.9,0,1.9-0.1,2.8-0.1c11.5,0,20.4,3.4,26.7,10c8,8.4,11.5,22.1,10.5,40.6
						c-0.6,10.4-6.7,17.1-15.5,17.1C1172.8,164.3,1171,164,1169.3,163.5z M1143.8,140.1l0.6,0.5c7.2,6.7,15.5,11.8,23.4,14.3
						c1.7,0.6,3.5,0.9,5.3,0.9c5.8,0,9-4.4,9.4-13.1c0.6-12.4-2-21.5-7.9-27.7c-7.1-7.4-19.1-11-36.7-11h-0.8
						c-0.9,0.2-2.3,0.4-3.9,0.6l-0.6,0.1c-5.4,0.7-12.8,1.6-19.6,4.1c-2.6,0.9-4.7,4.4-6.8,7.7l0,0l-0.1,0.2
						c-0.7,1.1-1.3,2.2-2.1,3.2c1.1,0.8,2.1,1.6,3.2,2.5l0.1,0.1c2.9,2.4,6,4.8,8.4,4.8c1.4-0.1,2.4-0.2,3.4-0.2
						C1130,127.1,1136.7,133.4,1143.8,140.1L1143.8,140.1z M-20.2,137.8c-6.5-4.4-10.4-10.2-11.5-16.7c-1.1-6.9,1.1-14.1,6.4-20.9
						c3.6-4.7,6.3-10.3,8.9-15.7c1.2-2.5,2.4-5.1,3.7-7.5l0.5-0.9h9.1l-1.2,2.4c-1.4,2.7-2.6,5.4-3.9,8.2c-2.8,6.2-5.7,12.5-9.8,18
						c-4.5,6.1-6.4,11.1-5.6,15.4c0.7,4.1,3.9,7.8,9.6,11.5c5.3,3.4,11.4,5.3,17.7,5.3c15,0,27.6-10.6,30.6-25.7
						c1.5-7.5,1.9-15.3,2.3-22.9c0.2-3.5,0.4-7.1,0.7-10.6l0.1-1.6h5.9l0,1.7c0,3.1,0.1,6.3,0.2,9.5c0.4,7,0.3,14-0.3,20.9
						c-2.1,21.5-18.9,37-39.9,37C-5.1,145.2-13.3,142.6-20.2,137.8z M158.1,136.2c-25.9-9.5-48.1-28.3-67.7-57.4l-1.8-2.6h9.3
						l0.5,0.7c17.9,23.4,35.7,39.1,56.1,49.3c9.3,4.7,17.6,6.9,25.2,6.9c12,0,22.6-5.8,32.5-17.8c6.5-7.8,11.6-17,16.5-26
						c2.2-4.1,4.6-8.3,7-12.3l0.5-0.8h8.5l-0.6,2.1c-7.4,26.5-23.2,46.5-45.7,58c-4.8,2.4-11.1,3.7-18.3,3.7
						C172.6,140,165.2,138.7,158.1,136.2z M360.7,124.6c-6.3,0-11.6-2.2-15.3-6.3c-4.9-5.3-6.9-13.5-6-23.7c0.4-4,0.8-7.9,1.2-11.9
						l0.7-6.7h8.7l-0.2,1.9c-0.2,2.2-0.5,4.4-0.8,6.5c-0.7,4.7-1.2,9.4-1.4,14.2c-0.1,6.1,1.2,10.4,4,13.2c2.8,2.9,7.2,4.3,13.5,4.3
						c25.3-0.1,55.8-19.7,60.6-38.8l0.3-1.3h9.5l-1.4,2.5c-1.3,2.4-2.4,4.9-3.4,7.5c-2.5,6-5.1,12.2-9.9,14.9
						c-15.3,8.8-33.6,18.4-52.7,22.7C365.7,124.3,363.2,124.6,360.7,124.6L360.7,124.6z"/>
				</g>
			</g>
		</g>
	</g>
</g>
</svg>
