<svg xmlns="http://www.w3.org/2000/svg" xmlns:xlink="http://www.w3.org/1999/xlink" width="187.502" height="173.326" viewBox="0 0 187.502 173.326">
  <defs>
    <style>
      .cls-1 {
        fill: none;
      }

      .cls-2 {
        fill: #f2ab02;
      }

      .cls-3 {
        fill: #f5f3f3;
      }

      .cls-4 {
        fill: #ffbe26;
      }

      .cls-5 {
        fill: #3d55cc;
      }

      .cls-6 {
        fill: #27b89d;
      }

      .cls-7 {
        fill: #1a1a1a;
      }

      .cls-8 {
        fill: #303c78;
      }

      .cls-9 {
        fill: #ff4133;
      }

      .cls-10 {
        fill: #c96;
      }

      .cls-11 {
        clip-path: url(#clip-path);
      }

      .cls-12 {
        fill: #26bfaa;
      }
    </style>
    <clipPath id="clip-path">
      <path id="Clip_59" data-name="Clip 59" class="cls-1" d="M-16.315,4.1a10.646,10.646,0,0,0,4.507-.159h0l1.984.277h0C-5.066,9.405-4.7,15.338-6.911,21.676h0c-.822,2.364-2.4,4.451-2.63,7.035h0a10.334,10.334,0,0,0-.1,1.683h0a103.593,103.593,0,0,1-.905,20.757h0A29.308,29.308,0,0,0-8.184,67.379h0C-5.238,73.87-2.312,80.45-.773,87.491h0a16.751,16.751,0,0,1,.758,4.731h0c-.588.264-1.2.484-1.761.8h0c-1.616.911-3.584.921-5.12,2.026h0a54.208,54.208,0,0,1-6.519-8.59h0C-17,80.6-20.158,74.5-23.543,68.531h0c-3.767-6.643-4.847-13.878-5.581-21.277h0a105.306,105.306,0,0,1,.247-22.333h0c.077-.679-.062-1.379-.02-2.064h0c.042-.691.185-1.377.337-2.435h0A25.271,25.271,0,0,1-30.9,22.036h0A47.906,47.906,0,0,1-46.954,27.1h0c-4.515.607-8.891,1.609-13.308,2.6h0c-3.451.777-5.563,2.977-7.375,5.715h0a3.214,3.214,0,0,0-.514.382h0a41.78,41.78,0,0,1-8.544,7.445h0a2.72,2.72,0,0,0-1.28,1.239h0a2.568,2.568,0,0,0-1.437,1.089h0a76.85,76.85,0,0,0-7,5.1h0q-3.348,2.35-6.7,4.7h0A60.456,60.456,0,0,1-115.651,65h0c-.536-.5-1.055-1.021-1.61-1.5h0a7.6,7.6,0,0,1-2.434-2.951h0a5.833,5.833,0,0,1,1.87-3.047h0c5.255-5.1,10.049-10.649,15.248-15.806h0a3,3,0,0,0,.274-.278h0a81.379,81.379,0,0,1,9.539-10.266h0c.355-.3.716-.6,1.064-.912h0q3.1-2.76,6.2-5.525h0a4.406,4.406,0,0,0,1.64-1.3h0l8.938-6.389h0c.373-.209.768-.389,1.121-.631h0A77.709,77.709,0,0,1-42.667,3.381h0A123.407,123.407,0,0,0-28.363,0h0c3.641,2.463,7.831,3.366,12.049,4.1" transform="translate(0.348 -0.526) rotate(-180)"/>
    </clipPath>
  </defs>
  <g id="_4" data-name="4" transform="translate(187.673 -0.471) rotate(180)">
    <g id="Group_57" data-name="Group 57">
      <path id="Fill_1" data-name="Fill 1" class="cls-2" d="M-.514.424-.1.2-.514.424" transform="translate(82.105 -73.198) rotate(-180)"/>
      <path id="Fill_3" data-name="Fill 3" class="cls-3" d="M-2.092,1.614c.295-.125.254-.4.295-.648C-1.634-.027-1.136-.27-.3.309c.431.752.431.752-.269.772-.187.006-.58-.007-.355.258.58.683-1.343.591-.344,1.281.219.152.528.216.223.52a.531.531,0,0,1-.707.068,1.141,1.141,0,0,1-.345-1.594" transform="translate(63.841 -11.645) rotate(-180)"/>
      <path id="Fill_5" data-name="Fill 5" class="cls-4" d="M-49.886,9.134a2.725,2.725,0,0,1,1.274-1.248,41.718,41.718,0,0,0,8.5-7.5A3.165,3.165,0,0,1-39.6,0,78.733,78.733,0,0,0-27.7,17.578a35.209,35.209,0,0,1,2.245,3.047,24.469,24.469,0,0,0,6.524,6.312c3.677,2.438,6.541,5.855,10.168,8.3,2.441,1.648,4.669,3.575,7.11,5.208A10.278,10.278,0,0,0,0,41.184a13.472,13.472,0,0,0-1.7,3.529c-.118.4-.159.833-.825.744-3.51-.47-7.073-.6-10.466-1.775a40.827,40.827,0,0,0-6.9-1.838,18.464,18.464,0,0,1-11.423-6.671c-2.76-3.254-5.452-6.567-8.379-9.676A37.983,37.983,0,0,1-46.9,14.654a32.858,32.858,0,0,0-2.989-5.52" transform="translate(73.378 -86.991) rotate(-180)"/>
      <path id="Fill_7" data-name="Fill 7" class="cls-4" d="M-40.521,10.643a3.37,3.37,0,0,0,1.66.977,5.423,5.423,0,0,1,2.731,1.9,3.616,3.616,0,0,0,1.987,1.392,22.329,22.329,0,0,1,7.1,3.431c2.256,1.522,4.7,2.715,7.048,4.063a20.072,20.072,0,0,0,3.37,1.562,9.353,9.353,0,0,1,3.522,2.172,28.811,28.811,0,0,0,7.49,4.865,11.9,11.9,0,0,1,5,4.413,3.207,3.207,0,0,1-1.513,4.932c-3.188-1.114-6.425-2.1-9.552-3.369-4.932-2-9.713-4.369-14.767-6.068-2.462-.828-5.11-1.11-7.434-2.3A51.754,51.754,0,0,1-50,15.659c-2.878-3.425-5.083-7.415-8.59-10.315A40.938,40.938,0,0,1-63.806.624c.973-1.248,1.93-.325,2.679.19,1.107.761,2.285,1.373,3.412,2.077,2.039,1.276,4.349,1.631,6.564,2.316a24.532,24.532,0,0,1,9.287,4.654,7.884,7.884,0,0,0,1.344.781" transform="translate(30.014 -7.081) rotate(-180)"/>
      <path id="Fill_9" data-name="Fill 9" class="cls-4" d="M-55.8,5.133A76.56,76.56,0,0,1-48.832,0a49.121,49.121,0,0,1,2.977,5.679,31.84,31.84,0,0,0,4.413,7.4c4.14,4.874,8.315,9.72,12.573,14.489a15.523,15.523,0,0,0,8.4,5.187c6.51,1.329,12.726,4.071,19.49,4.182.737.012.96.349.793,1.1A4.144,4.144,0,0,0,0,41.1c-1.472.508-2.933,1.052-4.418,1.518a21.116,21.116,0,0,1-13.509-.047c-3.111-1.071-6.261-2.052-9.309-3.287a43.153,43.153,0,0,1-15.8-11.412C-47.241,23.22-49.972,17.658-52.557,12c-1.054-2.3-2.159-4.582-3.242-6.872" transform="translate(75.861 -97.223) rotate(-180)"/>
      <path id="Fill_11" data-name="Fill 11" class="cls-4" d="M-30.084,39.97c-7.418-4.57-12.745-11.234-17.4-18.418-2.009-3.1-4.149-6.113-6.092-9.257-.332-1.22-.588-2.466-1.011-3.653-1.062-2.988-3.352-4.915-5.851-6.6-1.309-.885-1.352-.882-.186-2.038,1.454,1.5,3.05,2.842,4.634,4.2a27.767,27.767,0,0,1,5.2,5.466A49.785,49.785,0,0,0-39.923,21.725c3.378,2.586,6.582,5.444,10.62,6.94,2.39.885,4.923,1.368,7.331,2.211,7.432,2.6,14.4,6.419,21.972,8.657-3.738,1.194-7.405,2.657-11.406,2.779a3.338,3.338,0,0,0-2.533.8,16.545,16.545,0,0,1-2.814-5.379,1.056,1.056,0,0,0-1.232-.91,1.192,1.192,0,0,0-.977,1.217,4.342,4.342,0,0,0,.042,1.3c.187.918.44,1.821.707,2.891a8.2,8.2,0,0,0-3.543-.267c-2.317.1-4.557-.171-6.426-1.8a1.45,1.45,0,0,0-1.9-.189" transform="translate(34.584 -9.219) rotate(-180)"/>
      <path id="Fill_13" data-name="Fill 13" class="cls-4" d="M0,35.013l-8.9,6.437a8.61,8.61,0,0,1-.2-.89,69.069,69.069,0,0,0-3.53-15.7,4.015,4.015,0,0,1-.3-1.535c.191-4.169-1.853-7.865-2.407-11.872.02-.1.04-.206.059-.309,1.039.1,1.1-.748,1.493-1.416.884-1.509.959-1.468-.445-2.255,1.231-.835.826-2.43,1.579-3.521.282-.408-.217-.981-.745-1.19-.757-.3-1.532-.553-2.3-.826A1.474,1.474,0,0,1-14.311.263c1.238-.2,2.511-.679,3.537.534a9.19,9.19,0,0,0-.746,3.663c-.051,1.781.174,3.541.225,5.309.063,2.172-.038,2.173,2.108,2.473a5.742,5.742,0,0,1,.62.155,3.9,3.9,0,0,0,.88,1.717,12,12,0,0,1,2.555,5.914A10.813,10.813,0,0,0-3.647,24.59,13.8,13.8,0,0,1-2.11,28.03C-1.416,30.36-.7,32.686,0,35.013" transform="translate(120.222 -33.453) rotate(-180)"/>
      <path id="Fill_15" data-name="Fill 15" class="cls-4" d="M0,28.363q-3.086,2.784-6.173,5.567c-.347.313-.705.612-1.059.919A133.763,133.763,0,0,1-9.908,17.26a29.56,29.56,0,0,1-.246-6.4A27.9,27.9,0,0,1-7.217,1.969C-6.888,1.306-6.533.656-6.19,0a28.143,28.143,0,0,1,2,9.394,7.484,7.484,0,0,0,.62,2.53,44.915,44.915,0,0,1,2.13,7.94c.5,2.83.961,5.666,1.44,8.5" transform="translate(130.75 -47.846) rotate(-180)"/>
      <path id="Fill_17" data-name="Fill 17" class="cls-4" d="M-11.2,10.593c1.829-3.334,1.543-6.7.168-10.088a2.85,2.85,0,0,1-.108-.5c1.687.89,3.369,1.805,5.049,2.685s3.361,2.182,5.48,1.994a9.923,9.923,0,0,0,.471,3.08c.383,1.057-.031,1.464-1,1.714A32.644,32.644,0,0,1-11.2,10.593" transform="translate(5.498 -39.965) rotate(-180)"/>
      <path id="Fill_19" data-name="Fill 19" class="cls-4" d="M-13.76,1.186A29.036,29.036,0,0,0-1.407.128C-.323-.178,0,.037,0,1.074-2.008,2.721-4.459,3.345-6.864,4-11.2,5.167-15.559,6.261-20.1,6.189a3.8,3.8,0,0,1-.628-.114c2.584-1.247,4.688-3.2,6.968-4.889" transform="translate(4.642 -51.182) rotate(-180)"/>
      <path id="Fill_21" data-name="Fill 21" class="cls-5" d="M-6.863,95.761a54.554,54.554,0,0,1-6.488-8.654c-3.563-5.9-6.711-12.046-10.08-18.06-3.749-6.694-4.824-13.983-5.554-21.437a107.365,107.365,0,0,1,.245-22.5c.077-.684-.061-1.39-.02-2.08s.184-1.387.336-2.453a25.126,25.126,0,0,1-2.33,1.625A47.271,47.271,0,0,1-46.73,27.3c-4.493.611-8.849,1.62-13.245,2.623-3.435.784-5.537,3-7.339,5.757a3.229,3.229,0,0,0-.511.385,41.7,41.7,0,0,1-8.5,7.5A2.727,2.727,0,0,0-77.6,44.82a2.563,2.563,0,0,0-1.431,1.1A76.642,76.642,0,0,0-86,51.05c-2.221,1.579-4.446,3.152-6.663,4.738a59.782,59.782,0,0,1-22.436,9.7c-.533-.5-1.05-1.029-1.6-1.51a7.624,7.624,0,0,1-2.423-2.973,5.882,5.882,0,0,1,1.861-3.07c5.229-5.141,10-10.729,15.174-15.924a3.01,3.01,0,0,0,.273-.281,81.643,81.643,0,0,1,9.493-10.343c.353-.307.712-.607,1.059-.919q3.089-2.782,6.173-5.567A4.4,4.4,0,0,0-83.456,23.6q4.449-3.217,8.895-6.437c.371-.211.764-.391,1.115-.636A76.823,76.823,0,0,1-42.463,3.407,121.626,121.626,0,0,0-28.228,0c3.624,2.482,7.793,3.392,11.991,4.135a10.452,10.452,0,0,0,4.486-.16l1.974.279c4.734,5.223,5.094,11.2,2.9,17.586C-7.7,24.221-9.262,26.324-9.5,28.928a10.6,10.6,0,0,0-.1,1.7,105.609,105.609,0,0,1-.9,20.914A29.861,29.861,0,0,0-8.146,67.885C-5.214,74.426-2.3,81.055-.77,88.148a17.091,17.091,0,0,1,.755,4.766c-.585.266-1.2.488-1.753.806-1.608.919-3.566.929-5.095,2.041" transform="translate(45.662 -51.306) rotate(-180)"/>
      <path id="Fill_23" data-name="Fill 23" class="cls-6" d="M-19.846,2.847c1.528-1.112,3.487-1.122,5.095-2.041C-14.195.488-13.583.266-13,0c.3.083.584.178.7.515C-10.714,5.162-7.533,8.8-4.761,12.691a20.274,20.274,0,0,1,2.584,4.975c.649,1.809,1.308,3.617,2.023,5.4.4,1.007-.017,1.477-.9,1.754-.863.272-1.637.34-1.947-.8-.889-3.268-3.165-5.689-5.012-8.371a.9.9,0,0,0-.905-.527,36.977,36.977,0,0,1,.53,7.336,9.423,9.423,0,0,1-.974,3.913,3.587,3.587,0,0,1-2.4,2.038,43.678,43.678,0,0,1-4.4,1.038c-3.078.563-5.765-.85-8.578-1.6a1.921,1.921,0,0,1-1.062-2.5c.358-1.23,1.34-1.217,2.2-.937,2.535.825,4.641-.147,6.744-1.375a1.41,1.41,0,0,0,.761-1.117,22.351,22.351,0,0,0-1.233-11.593c-.739-1.863-1.652-3.654-2.456-5.491a1.889,1.889,0,0,1-.064-1.988" transform="translate(32.679 -144.22) rotate(-180)"/>
      <path id="Fill_25" data-name="Fill 25" class="cls-6" d="M-4.025.152A7.626,7.626,0,0,0-1.6,3.125c.552.481,1.069,1,1.6,1.509a55.205,55.205,0,0,0-1.522,5.7,23.948,23.948,0,0,1-2.451,6.056,41.052,41.052,0,0,0-3.239,7.156c-.268.75-.522,1.611-1.7,1.381-1.429-.278-1.723-.64-1.176-2.04A44.251,44.251,0,0,0-8.1,15.105a38.05,38.05,0,0,1-4.791,4.221A6.827,6.827,0,0,1-19.818,21c-1.076-.329-2.17-.6-3.263-.863a6.1,6.1,0,0,1-3.461-2.608,1.734,1.734,0,0,1-.179-1.864,1.452,1.452,0,0,1,1.562-.708c.816.063,1.626.273,2.441.294,2.993.076,5.19-1.583,7.32-3.452,3.026-2.655,5.346-5.952,8.051-8.9.794-.864,1.625-1.694,2.46-2.518.222-.22.461-.6.863-.233" transform="translate(160.759 -112.161) rotate(-180)"/>
      <path id="Fill_27" data-name="Fill 27" class="cls-7" d="M-8.979,0A13.525,13.525,0,0,0-2.563,1.166,4.539,4.539,0,0,0,0,2.338c-.529,1.006-1.528.9-2.381.9a16.088,16.088,0,0,1-5.8-1.22A1.413,1.413,0,0,1-9.235.329c.086-.11.171-.219.257-.329" transform="translate(57.405 -15.928) rotate(-180)"/>
      <path id="Fill_29" data-name="Fill 29" class="cls-7" d="M-1.01,5.294a1.831,1.831,0,0,1-2.452-1.02c-.31-.563-.65-1.028-1.383-.9-.841-.579-1.338-.336-1.5.657-.041.25,0,.523-.295.648L-7.636,4.1a2.61,2.61,0,0,1-.142-3.066A1.8,1.8,0,0,1-5.224.25a8.709,8.709,0,0,1,.552.875c.617,1.282.72,1.316,1.676.321A3.305,3.305,0,0,1-1.769.767C.265,1.4.582,3.283-1.01,5.294" transform="translate(59.291 -8.584) rotate(-180)"/>
      <path id="Fill_31" data-name="Fill 31" class="cls-7" d="M-5.37,42.2a4.144,4.144,0,0,1-.19-3.067c.167-.749-.056-1.087-.792-1.1-6.764-.111-12.98-2.852-19.491-4.182a15.527,15.527,0,0,1-8.4-5.187c-4.257-4.769-8.432-9.615-12.572-14.489a31.819,31.819,0,0,1-4.413-7.4A49.121,49.121,0,0,0-54.2,1.1,2.556,2.556,0,0,1-52.771,0a32.864,32.864,0,0,1,2.989,5.521,37.991,37.991,0,0,0,7.207,10.842c2.926,3.108,5.619,6.421,8.379,9.676a18.46,18.46,0,0,0,11.423,6.67,40.829,40.829,0,0,1,6.9,1.838c3.393,1.179,6.956,1.305,10.466,1.775.666.089.707-.339.824-.744a13.49,13.49,0,0,1,1.7-3.528c2.21.347,2.636.877,2.491,3.061a24.017,24.017,0,0,0,.339,4.541c.2,1.638-.083,1.977-1.653,1.97-1.259-.006-2.423.5-3.66.574" transform="translate(70.492 -96.125) rotate(-180)"/>
      <path id="Fill_33" data-name="Fill 33" class="cls-7" d="M-2.446,41.047c-7.575-2.238-14.54-6.058-21.972-8.657-2.408-.843-4.941-1.325-7.331-2.211-4.037-1.5-7.241-4.354-10.62-6.941A49.774,49.774,0,0,1-53.236,11.176a27.781,27.781,0,0,0-5.2-5.465c-1.584-1.355-3.18-2.694-4.634-4.2A2.317,2.317,0,0,1-61.682,0a40.938,40.938,0,0,0,5.213,4.72c3.506,2.9,5.712,6.89,8.59,10.315A51.745,51.745,0,0,0-31.753,27.99c2.324,1.189,4.972,1.472,7.434,2.3,5.054,1.7,9.835,4.071,14.767,6.068C-6.425,37.624-3.188,38.613,0,39.726a5.1,5.1,0,0,1-2.446,1.32" transform="translate(32.138 -7.706) rotate(-180)"/>
      <path id="Fill_35" data-name="Fill 35" class="cls-7" d="M-1.632,31.3c-.478-2.833-.941-5.669-1.44-8.5a44.915,44.915,0,0,0-2.13-7.94,7.484,7.484,0,0,1-.62-2.53,28.143,28.143,0,0,0-2-9.394c0-1.2.875-1.978,1.376-2.937.554,4.007,2.6,7.7,2.407,11.872a4.017,4.017,0,0,0,.3,1.535A69.029,69.029,0,0,1-.2,29.1a8.889,8.889,0,0,0,.2.89A4.391,4.391,0,0,1-1.632,31.3" transform="translate(129.118 -44.909) rotate(-180)"/>
      <path id="Fill_37" data-name="Fill 37" class="cls-7" d="M-16.527,6.128A32.644,32.644,0,0,0-6.472,5.008c.974-.25,1.387-.657,1-1.714A9.923,9.923,0,0,1-5.939.214,11.607,11.607,0,0,1-2.517.04c.878-.009,1.282.69,1.4,1.448C-.905,2.8.908,4.078-.584,5.362A14.751,14.751,0,0,1-4.472,7.825c0-1.037-.322-1.252-1.407-.946A29.036,29.036,0,0,1-18.23,7.938l1.7-1.81" transform="translate(0.171 -44.431) rotate(-180)"/>
      <path id="Fill_39" data-name="Fill 39" class="cls-8" d="M-55.122,1.468C-53.666,1.407-52.5.554-51.227,0a1.414,1.414,0,0,0,1.058,1.692,16.091,16.091,0,0,0,5.8,1.22c.852,0,1.851.1,2.38-.9l.957-.126c.843,2.024,2.367,2.764,4.505,3.132,3.232.556,6.5.52,9.722,1.02a25.449,25.449,0,0,1,9.829,4.159c2.66,1.71,5.3,3.452,8.033,5.04a20.094,20.094,0,0,1,7.111,7.641,9.678,9.678,0,0,0,.609.832,2.8,2.8,0,0,0,.108.5C.257,27.6.543,30.967-1.286,34.3l-1.7,1.81C-5.268,37.8-7.372,39.752-9.956,41l.024-.019-.272.149a34.445,34.445,0,0,1-12.939,1.98c-3.512-.159-7.015-.529-10.249-2.132.114-1.633.623-3.243.282-4.9a3.338,3.338,0,0,1,2.533-.8c4-.123,7.668-1.585,11.406-2.779a5.108,5.108,0,0,0,2.446-1.32,3.208,3.208,0,0,0,1.513-4.933,11.9,11.9,0,0,0-5-4.413,28.811,28.811,0,0,1-7.49-4.865,9.353,9.353,0,0,0-3.522-2.172,20.072,20.072,0,0,1-3.37-1.562c-2.347-1.347-4.792-2.541-7.048-4.063a22.329,22.329,0,0,0-7.1-3.431,3.616,3.616,0,0,1-1.987-1.392,5.423,5.423,0,0,0-2.731-1.9,3.37,3.37,0,0,1-1.66-.977" transform="translate(15.413 -16.257) rotate(-180)"/>
      <path id="Fill_41" data-name="Fill 41" class="cls-8" d="M0,33.765a10.469,10.469,0,0,1-4.486.16c-4.2-.743-8.367-1.653-11.991-4.135-3.642-3.845-4.927-8.666-5.36-13.953-1.87,1.252-3.494,2.4-5.178,3.452a20.807,20.807,0,0,0-5,4.322,23.108,23.108,0,0,1-11.069,6.937c-4.188,1.346-8.369.552-12.549-.136a71.261,71.261,0,0,1-12.639-3.754c-1.038-.376-2.372-.78-2.549-2.3a15.968,15.968,0,0,0,2.154-4.486.842.842,0,0,0-.639-1.1c3.18-.354,6.222.653,9.331.994a54.646,54.646,0,0,0,7.2.659,9.043,9.043,0,0,0,6.951-3.516C-42.4,12.7-39.087,8.39-35.677,4.163A14.7,14.7,0,0,1-30.751,0c1.943,3.144,4.083,6.159,6.092,9.257C-20,16.441-14.673,23.1-7.255,27.675c.26,1.15.106,2.282,1.273,3.284A13.064,13.064,0,0,0,0,33.765" transform="translate(57.413 -21.515) rotate(-180)"/>
      <path id="Fill_43" data-name="Fill 43" class="cls-9" d="M-16.261,3.162a1.45,1.45,0,0,1,1.9.189c1.868,1.633,4.108,1.9,6.426,1.8a8.2,8.2,0,0,1,3.543.267c-.266-1.07-.52-1.973-.707-2.891a4.342,4.342,0,0,1-.042-1.3A1.192,1.192,0,0,1-4.162.016,1.056,1.056,0,0,1-2.93.926,16.545,16.545,0,0,0-.116,6.3c.341,1.66-.168,3.269-.282,4.9A31.865,31.865,0,0,1-5.637,9.72a2.212,2.212,0,0,0-1.394-.188l-1.974-.279a13.063,13.063,0,0,1-5.982-2.806c-1.167-1-1.013-2.135-1.273-3.285" transform="translate(48.407 -46.027) rotate(-180)"/>
      <path id="Fill_45" data-name="Fill 45" class="cls-9" d="M-3.125.026c.767.273,1.542.528,2.3.826.528.209,1.026.782.745,1.19C-.835,3.134-.43,4.729-1.661,5.564c1.4.788,1.329.746.445,2.255-.391.669-.454,1.513-1.493,1.417-.571-.2-1.148-.392-1.71-.618A3.015,3.015,0,0,1-6.1,4.473c.372-.8-.017-1.556.141-2.367C-5.634.458-5.435.077-3.772,0c.215-.01.431.015.647.024" transform="translate(132.796 -35.364) rotate(-180)"/>
      <path id="Fill_47" data-name="Fill 47" class="cls-9" d="M-2.76,11.948a5.742,5.742,0,0,0-.62-.155c-2.146-.3-2.045-.3-2.108-2.472-.051-1.768-.277-3.528-.225-5.309A9.194,9.194,0,0,1-4.967.349c.33-.149.63-.576,1.03-.193A1.664,1.664,0,0,1-3.4,1.693a5.132,5.132,0,0,0-.26,2.055c.438,1.868,1.017,2.4,2.973,2.64a.842.842,0,0,1,.641,1.1A15.979,15.979,0,0,1-2.2,11.972l-.556-.024" transform="translate(126.029 -33.902) rotate(-180)"/>
      <path id="Fill_49" data-name="Fill 49" class="cls-9" d="M-6.995,3.2A4.462,4.462,0,0,1-6.958.75l.994.575A1.14,1.14,0,0,0-5.62,2.92a.531.531,0,0,0,.707-.068c.306-.3,0-.368-.223-.52-1-.69.925-.6.345-1.281C-5.017.784-4.623.8-4.437.792c.7-.02.7-.02.269-.772C-3.435-.1-3.1.36-2.785.923A1.831,1.831,0,0,0-.333,1.944,3.73,3.73,0,0,0,0,5.16,13.525,13.525,0,0,1-6.415,3.994l-.579-.8" transform="translate(59.969 -11.934) rotate(-180)"/>
      <path id="Fill_51" data-name="Fill 51" class="cls-9" d="M0,2.073a3.3,3.3,0,0,0-1.228.678c-.956.994-1.058.961-1.676-.321a8.669,8.669,0,0,0-.552-.875A7.743,7.743,0,0,0-1.495,0,5.953,5.953,0,0,0,0,2.073" transform="translate(61.06 -7.279) rotate(-180)"/>
      <path id="Fill_53" data-name="Fill 53" class="cls-10" d="M-13.837,17.67l-.957.126a4.549,4.549,0,0,1-2.563-1.172,3.731,3.731,0,0,1-.333-3.217c1.592-2.011,1.276-3.9-.758-4.526a5.957,5.957,0,0,1-1.5-2.073A7.729,7.729,0,0,1-21.9,8.363a1.8,1.8,0,0,0-2.554.785,2.609,2.609,0,0,0,.142,3.066,4.464,4.464,0,0,0-.036,2.448,5.324,5.324,0,0,1-4.39-1.5,2.829,2.829,0,0,0-2.058-.869,4.842,4.842,0,0,1-4.226-2.372,2.518,2.518,0,0,1,.132-3.038,2.665,2.665,0,0,1,3.154-.686c.464.229.91.495,1.361.749,1.663.939,2.783.441,3.322-1.363A7.451,7.451,0,0,1-22.738.363c1.925-.793,3.648-.118,5.4.434a2.494,2.494,0,0,0,1.358.225c3.656-.809,6.552.723,9.192,3.06A5.582,5.582,0,0,1-5.171,8.236a3.306,3.306,0,0,0,1.983,2.97A6.293,6.293,0,0,1-.209,14.86c.969,2.583-1.582,5.385-4.441,4.95a13.928,13.928,0,0,1-5.107-1.781,4.248,4.248,0,0,0-4.08-.36" transform="translate(42.612 -0.471) rotate(-180)"/>
      <path id="Fill_55" data-name="Fill 55" class="cls-9" d="M-6.863,95.761a54.554,54.554,0,0,1-6.488-8.654c-3.563-5.9-6.711-12.046-10.08-18.06-3.749-6.694-4.824-13.983-5.554-21.437a107.365,107.365,0,0,1,.245-22.5c.077-.684-.061-1.39-.02-2.08s.184-1.387.336-2.453a25.126,25.126,0,0,1-2.33,1.625A47.271,47.271,0,0,1-46.73,27.3c-4.493.611-8.849,1.62-13.245,2.623-3.435.784-5.537,3-7.339,5.757a3.229,3.229,0,0,0-.511.385,41.7,41.7,0,0,1-8.5,7.5A2.727,2.727,0,0,0-77.6,44.82a2.563,2.563,0,0,0-1.431,1.1A76.642,76.642,0,0,0-86,51.05c-2.221,1.579-4.446,3.152-6.663,4.738a59.782,59.782,0,0,1-22.436,9.7c-.533-.5-1.05-1.029-1.6-1.51a7.624,7.624,0,0,1-2.423-2.973,5.882,5.882,0,0,1,1.861-3.07c5.229-5.141,10-10.729,15.174-15.924a3.01,3.01,0,0,0,.273-.281,81.643,81.643,0,0,1,9.493-10.343c.353-.307.712-.607,1.059-.919q3.089-2.782,6.173-5.567A4.4,4.4,0,0,0-83.456,23.6q4.449-3.217,8.895-6.437c.371-.211.764-.391,1.115-.636A76.823,76.823,0,0,1-42.463,3.407,121.626,121.626,0,0,0-28.228,0c3.624,2.482,7.793,3.392,11.991,4.135a10.452,10.452,0,0,0,4.486-.16l1.974.279c4.734,5.223,5.094,11.2,2.9,17.586C-7.7,24.221-9.262,26.324-9.5,28.928a10.6,10.6,0,0,0-.1,1.7,105.609,105.609,0,0,1-.9,20.914A29.861,29.861,0,0,0-8.146,67.885C-5.214,74.426-2.3,81.055-.77,88.148a17.091,17.091,0,0,1,.755,4.766c-.585.266-1.2.488-1.753.806-1.608.919-3.566.929-5.095,2.041" transform="translate(45.662 -51.306) rotate(-180)"/>
    </g>
    <g id="Group_64" data-name="Group 64" transform="translate(43.453 -51.49)">
      <g id="Group_60" data-name="Group 60">
        <path id="Clip_59-2" data-name="Clip 59" class="cls-1" d="M-16.315,4.1a10.646,10.646,0,0,0,4.507-.159h0l1.984.277h0C-5.066,9.405-4.7,15.338-6.911,21.676h0c-.822,2.364-2.4,4.451-2.63,7.035h0a10.334,10.334,0,0,0-.1,1.683h0a103.593,103.593,0,0,1-.905,20.757h0A29.308,29.308,0,0,0-8.184,67.379h0C-5.238,73.87-2.312,80.45-.773,87.491h0a16.751,16.751,0,0,1,.758,4.731h0c-.588.264-1.2.484-1.761.8h0c-1.616.911-3.584.921-5.12,2.026h0a54.208,54.208,0,0,1-6.519-8.59h0C-17,80.6-20.158,74.5-23.543,68.531h0c-3.767-6.643-4.847-13.878-5.581-21.277h0a105.306,105.306,0,0,1,.247-22.333h0c.077-.679-.062-1.379-.02-2.064h0c.042-.691.185-1.377.337-2.435h0A25.271,25.271,0,0,1-30.9,22.036h0A47.906,47.906,0,0,1-46.954,27.1h0c-4.515.607-8.891,1.609-13.308,2.6h0c-3.451.777-5.563,2.977-7.375,5.715h0a3.214,3.214,0,0,0-.514.382h0a41.78,41.78,0,0,1-8.544,7.445h0a2.72,2.72,0,0,0-1.28,1.239h0a2.568,2.568,0,0,0-1.437,1.089h0a76.85,76.85,0,0,0-7,5.1h0q-3.348,2.35-6.7,4.7h0A60.456,60.456,0,0,1-115.651,65h0c-.536-.5-1.055-1.021-1.61-1.5h0a7.6,7.6,0,0,1-2.434-2.951h0a5.833,5.833,0,0,1,1.87-3.047h0c5.255-5.1,10.049-10.649,15.248-15.806h0a3,3,0,0,0,.274-.278h0a81.379,81.379,0,0,1,9.539-10.266h0c.355-.3.716-.6,1.064-.912h0q3.1-2.76,6.2-5.525h0a4.406,4.406,0,0,0,1.64-1.3h0l8.938-6.389h0c.373-.209.768-.389,1.121-.631h0A77.709,77.709,0,0,1-42.667,3.381h0A123.407,123.407,0,0,0-28.363,0h0c3.641,2.463,7.831,3.366,12.049,4.1" transform="translate(0.348 -0.526) rotate(-180)"/>
        <g id="Group_60-2" data-name="Group 60" class="cls-11">
          <path id="Fill_58" data-name="Fill 58" class="cls-12" d="M-17.547,81.023A5.436,5.436,0,0,0-16.01,80.8c.735-.218,1.143-.657,1.119-1.205a2.919,2.919,0,0,0-.187-.854,1.58,1.58,0,0,0-.43-.67,2.7,2.7,0,0,0-1.556-.482c-.128-.012-.262-.017-.4-.017a6.042,6.042,0,0,0-.854.065,3.154,3.154,0,0,0-1.735.684,1.411,1.411,0,0,0-.439,1.294,1.3,1.3,0,0,0,.813.983A5.722,5.722,0,0,0-17.547,81.023Zm-16.716-2.082h0A5.318,5.318,0,0,0-30.7,77.7a1.37,1.37,0,0,0,.4-1.175,1.2,1.2,0,0,0-.644-.9,5.651,5.651,0,0,0-.708-.291c-.072-.025-.134-.048-.184-.067a6.6,6.6,0,0,0-1.441-.157,9.456,9.456,0,0,0-2.83.482c-.617.192-1.225.449-1.29,1.272a1.608,1.608,0,0,0,1.032,1.607A4.362,4.362,0,0,0-34.263,78.941Zm-15.885-7.126a2.8,2.8,0,0,0,.524-.055,6.1,6.1,0,0,0,4.214-3.324.824.824,0,0,0,.046-.8.9.9,0,0,0-.748-.441c-.072-.006-.148-.009-.226-.009a5.515,5.515,0,0,0-.855.085c-.107.017-.2.031-.275.039l-.428.145-.009,0a6.117,6.117,0,0,0-3.126,1.758,1.7,1.7,0,0,0-.256,1.982A1.191,1.191,0,0,0-50.148,71.815Zm-12-.973a7.244,7.244,0,0,0,3.368-.944c.5-.26.973-.573.9-1.283-.061-.595-.409-.967-1.128-1.208a3.219,3.219,0,0,0-1.028-.154,4.819,4.819,0,0,0-3.673,1.689A1.183,1.183,0,0,0-63.867,70a1.043,1.043,0,0,0,.689.668,5,5,0,0,0,.644.138c.067.011.125.02.171.03C-62.29,70.84-62.217,70.842-62.144,70.842Zm49.4-3.3h0a3.885,3.885,0,0,0,1.658-.331,1.7,1.7,0,0,0,1.138-1.643c-.019-.613-.418-1.025-1.219-1.262a5.516,5.516,0,0,0-1.56-.23,6.73,6.73,0,0,0-3.711,1.251.825.825,0,0,0-.408.69.893.893,0,0,0,.461.733,4.589,4.589,0,0,0,.994.429c.1.034.192.064.262.092l.451.068.01,0A13.042,13.042,0,0,0-12.745,67.543Zm-22.25-.673h0a8.221,8.221,0,0,0,2.452-.416c.534-.167,1.061-.39,1.116-1.1a1.389,1.389,0,0,0-.894-1.391,3.773,3.773,0,0,0-1.816-.408A4.6,4.6,0,0,0-37.22,64.63a1.183,1.183,0,0,0-.349,1.015,1.043,1.043,0,0,0,.558.78,5.072,5.072,0,0,0,.615.253c.061.022.115.041.158.058A5.719,5.719,0,0,0-34.994,66.871Zm-59.4-4.5h0a7,7,0,0,0,3.476-1.289c.467-.308.911-.668.769-1.366-.119-.584-.5-.921-1.242-1.092a2.96,2.96,0,0,0-.662-.071,4.827,4.827,0,0,0-3.865,2.063,1.182,1.182,0,0,0-.055,1.07,1.046,1.046,0,0,0,.752.6,4.9,4.9,0,0,0,.644.072C-94.511,62.358-94.448,62.362-94.4,62.367ZM-58.97,62.3a3.987,3.987,0,0,0,2.057-.525,1.51,1.51,0,0,0,.946-1.568,1.464,1.464,0,0,0-1.395-1.3,4.047,4.047,0,0,0-.651-.048,11.746,11.746,0,0,0-1.865.2c-.2.033-.381.063-.54.085-.888.121-1.316.551-1.348,1.353a1.43,1.43,0,0,0,1.125,1.593A7.9,7.9,0,0,0-58.97,62.3Zm-16.953-1.409a3.389,3.389,0,0,0,1.249-.326,5.484,5.484,0,0,0,1.094-.616,3.158,3.158,0,0,0,1.228-1.4,1.421,1.421,0,0,0-.165-1.3,1.3,1.3,0,0,0-1.079-.561c-.044,0-.089,0-.133.006a5.481,5.481,0,0,0-3.354,1.5c-.555.53-.716,1.107-.442,1.583a2.906,2.906,0,0,0,.556.674,1.592,1.592,0,0,0,.69.4A1.444,1.444,0,0,0-75.923,60.889ZM-22.2,59.67c.141,0,.288,0,.437-.009.559-.023,1.125-.1,1.365-.772a1.389,1.389,0,0,0-.5-1.576,4.526,4.526,0,0,0-3.054-1.054,3.8,3.8,0,0,0-1.852.421,1.183,1.183,0,0,0-.6.889,1.042,1.042,0,0,0,.334.9,4.917,4.917,0,0,0,.522.4c.056.039.1.073.143.1A6.743,6.743,0,0,0-22.2,59.67Zm-83.632-.226h0a5.651,5.651,0,0,0,2.318-.559,1.343,1.343,0,0,0,.973-1.184,1.371,1.371,0,0,0-.967-1.279,3.66,3.66,0,0,0-1.538-.349,4.476,4.476,0,0,0-2.426.806,1.188,1.188,0,0,0-.585.887,1.285,1.285,0,0,0,.48,1.041,3.207,3.207,0,0,0,.711.449c.087.044.161.082.222.118A4.917,4.917,0,0,0-105.827,59.444Zm67.89-.817c.127,0,.266-.007.413-.021a11.082,11.082,0,0,0,4.936-2.538,1.754,1.754,0,0,0,.244-2.375,1.914,1.914,0,0,0-1.592-1.036,1.445,1.445,0,0,0-.63.146A36.873,36.873,0,0,0-39,55.339a1.885,1.885,0,0,0-.51,2.369A1.505,1.505,0,0,0-37.937,58.627Zm-84.2-1.74a3.052,3.052,0,0,0,1.36-.45,5.473,5.473,0,0,0,1.031-.716,3.153,3.153,0,0,0,1.09-1.512,1.415,1.415,0,0,0-.246-1.228,1.306,1.306,0,0,0-1.036-.512,1.405,1.405,0,0,0-.264.025,5.479,5.479,0,0,0-3.2,1.81,1.284,1.284,0,0,0-.29,1.618,2.93,2.93,0,0,0,.619.618,1.579,1.579,0,0,0,.725.33A1.383,1.383,0,0,0-122.137,56.887Zm72.6-.908h0a6.328,6.328,0,0,0,4.02-1.363c.7-.55.943-1.2.679-1.774a3.365,3.365,0,0,0-.569-.834,1.837,1.837,0,0,0-.751-.533,1.747,1.747,0,0,0-.592-.1,4.508,4.508,0,0,0-1.283.249,6.321,6.321,0,0,0-1.324.59A3.644,3.644,0,0,0-50.923,53.7a1.629,1.629,0,0,0,.086,1.574A1.5,1.5,0,0,0-49.541,55.979ZM-111.8,52.472a1.218,1.218,0,0,0,.455-.1,8.274,8.274,0,0,0,4.616-3.717,2.247,2.247,0,0,0,.182-1.136,1.11,1.11,0,0,0-.282-.686,1.076,1.076,0,0,0-.691-.292c-.054,0-.111-.006-.167-.006a4.891,4.891,0,0,0-1.753.459c-.145.058-.281.111-.416.162a7.923,7.923,0,0,0-1.585.767,2.9,2.9,0,0,0-1.464,3.2C-112.828,51.53-112.566,52.472-111.8,52.472Zm27.569-1.045h0a5.812,5.812,0,0,0,2.028-.342,2.267,2.267,0,0,0,.918-.694,1.107,1.107,0,0,0,.27-.69,1.063,1.063,0,0,0-.3-.689,4.42,4.42,0,0,0-1.7-1c-.143-.058-.279-.113-.412-.17A7.914,7.914,0,0,0-85.1,47.3a4.389,4.389,0,0,0-.8-.079A2.785,2.785,0,0,0-88.374,48.6a1.814,1.814,0,0,0-.352,1.389.965.965,0,0,0,.615.592A10.694,10.694,0,0,0-84.23,51.427Zm15.954-.095h0A4.892,4.892,0,0,0-65.093,50a1.37,1.37,0,0,0,.534-1.1,1.485,1.485,0,0,0-.71-1.12,3.741,3.741,0,0,0-.886-.407c-.1-.037-.194-.068-.269-.1-.067,0-.134,0-.2,0a6.09,6.09,0,0,0-3.308,1.044,1.549,1.549,0,0,0-.932,1.5c.076.639.5,1.07,1.3,1.316A4.353,4.353,0,0,0-68.276,51.332Zm59.035-.153a2.81,2.81,0,0,0,1.817-.955l.164-.145c.523-.459,1.205-1.072,1.839-1.738a1.355,1.355,0,0,0,.248-1.918,1.288,1.288,0,0,0-1.027-.5,2.3,2.3,0,0,0-.924.226,5.555,5.555,0,0,0-3.165,3.436,1.451,1.451,0,0,0,.125,1.182.97.97,0,0,0,.738.4A1.821,1.821,0,0,0-9.241,51.179Zm-13.741-.835a3.265,3.265,0,0,0,1.3-.374,5.48,5.48,0,0,0,1.069-.658,3.143,3.143,0,0,0,1.174-1.448,1.408,1.408,0,0,0-.2-1.271,1.3,1.3,0,0,0-1.061-.54,1.426,1.426,0,0,0-.187.013,5.476,5.476,0,0,0-3.294,1.627,1.28,1.28,0,0,0-.381,1.6,2.917,2.917,0,0,0,.582.652,1.571,1.571,0,0,0,.7.371A1.412,1.412,0,0,0-22.982,50.345Zm-75.255-.133c.13,0,.258,0,.408-.011a5.447,5.447,0,0,0,1.238-.214,3.148,3.148,0,0,0,1.628-.91,1.41,1.41,0,0,0,.262-1.34,1.3,1.3,0,0,0-.938-.866,5.932,5.932,0,0,0-1.454-.187,5.379,5.379,0,0,0-2.21.475c-.7.314-1.045.8-.948,1.344a2.914,2.914,0,0,0,.3.822,1.575,1.575,0,0,0,.516.606A2.141,2.141,0,0,0-98.237,50.212Zm59.77-4.023a2.445,2.445,0,0,0,.565-.075,4.723,4.723,0,0,0,3.166-3.8,1.178,1.178,0,0,0-.319-.883,1.056,1.056,0,0,0-.771-.339,1.064,1.064,0,0,0-.278.037,5.012,5.012,0,0,0-.622.227c-.061.026-.114.048-.158.065a6.987,6.987,0,0,0-2.538,2.7,1.266,1.266,0,0,0-.079,1.565A1.238,1.238,0,0,0-38.468,46.189Zm-21.2-2.753h0a5.311,5.311,0,0,0,3.563-1.243,1.367,1.367,0,0,0,.4-1.172,1.206,1.206,0,0,0-.644-.9,5.7,5.7,0,0,0-.711-.292c-.07-.025-.132-.047-.181-.066a6.6,6.6,0,0,0-1.439-.156,9.476,9.476,0,0,0-2.831.482c-.617.193-1.225.45-1.29,1.272a1.606,1.606,0,0,0,1.031,1.607A4.368,4.368,0,0,0-59.67,43.436Zm-46.385-.309a5.566,5.566,0,0,0,.563-.036c.067-.007.126-.013.173-.016a6.986,6.986,0,0,0,3.218-1.838c.412-.379.792-.8.536-1.472a1.393,1.393,0,0,0-1.4-.875c-.053,0-.108-.005-.163-.005a4.8,4.8,0,0,0-3.978,2.708,1.185,1.185,0,0,0,.121,1.067,1.044,1.044,0,0,0,.838.466Zm16.805-.865a8.2,8.2,0,0,0,2.452-.417c.534-.166,1.061-.388,1.116-1.1a1.39,1.39,0,0,0-.893-1.391,3.776,3.776,0,0,0-1.816-.408,4.6,4.6,0,0,0-3.084,1.077,1.183,1.183,0,0,0-.349,1.015,1.043,1.043,0,0,0,.557.78,5.024,5.024,0,0,0,.605.249c.065.023.122.044.167.061A5.719,5.719,0,0,0-89.249,42.262Zm74.757-1.278h0a3.887,3.887,0,0,0,1.657-.331A1.7,1.7,0,0,0-11.7,39.01c-.019-.612-.417-1.024-1.219-1.261a5.513,5.513,0,0,0-1.561-.23,6.728,6.728,0,0,0-3.71,1.251.825.825,0,0,0-.408.691.893.893,0,0,0,.461.733,4.629,4.629,0,0,0,1,.428c.1.034.192.064.262.092l.46.069A13.052,13.052,0,0,0-14.492,40.984Zm-102.721-.542c.141,0,.289,0,.437-.009.559-.022,1.125-.1,1.364-.772a1.387,1.387,0,0,0-.5-1.575,4.527,4.527,0,0,0-3.055-1.054,3.8,3.8,0,0,0-1.851.421,1.185,1.185,0,0,0-.6.891,1.041,1.041,0,0,0,.334.9,4.962,4.962,0,0,0,.529.405c.054.037.1.069.136.1A6.749,6.749,0,0,0-117.212,40.442Zm42.311-.088a5.576,5.576,0,0,0,2.317-.559,1.329,1.329,0,0,0,.973-1.183,1.372,1.372,0,0,0-.967-1.279,3.663,3.663,0,0,0-1.538-.349,4.469,4.469,0,0,0-2.425.807,1.185,1.185,0,0,0-.585.885,1.285,1.285,0,0,0,.479,1.042,3.225,3.225,0,0,0,.717.452c.084.043.157.08.216.115A4.9,4.9,0,0,0-74.9,40.354Zm24.976-1.733a5.065,5.065,0,0,0,1.713-.421c.144-.054.281-.1.417-.151a7.929,7.929,0,0,0,1.6-.73,2.906,2.906,0,0,0,1.537-3.167c-.068-.413-.31-1.372-1.1-1.372a1.236,1.236,0,0,0-.435.088,8.276,8.276,0,0,0-4.7,3.611,2.262,2.262,0,0,0-.209,1.131,1.117,1.117,0,0,0,.267.692,1.066,1.066,0,0,0,.684.309C-50.073,38.618-50,38.622-49.925,38.622Zm18.947-5.372a8.2,8.2,0,0,0,2.452-.417c.534-.167,1.061-.39,1.117-1.1A1.392,1.392,0,0,0-28.3,30.34a3.779,3.779,0,0,0-1.817-.408A4.6,4.6,0,0,0-33.2,31.009a1.184,1.184,0,0,0-.349,1.016,1.042,1.042,0,0,0,.557.779,4.963,4.963,0,0,0,.605.249c.066.023.122.044.167.061A5.718,5.718,0,0,0-30.978,33.249Zm-54.316-.52.073,0a2.686,2.686,0,0,0,1.444-.751,5.5,5.5,0,0,0,.86-.914,3.16,3.16,0,0,0,.752-1.706,1.417,1.417,0,0,0-.391-1.05,1.333,1.333,0,0,0-.955-.414,1.35,1.35,0,0,0-.524.108,5.476,5.476,0,0,0-2.75,2.434,1.316,1.316,0,0,0,.053,1.643,2.874,2.874,0,0,0,.734.476A1.613,1.613,0,0,0-85.294,32.73Zm-14.279-.66a3.923,3.923,0,0,0,1.111-.216,5.424,5.424,0,0,0,1.146-.512,3.149,3.149,0,0,0,1.355-1.281,1.411,1.411,0,0,0-.076-1.363,1.3,1.3,0,0,0-1.123-.61,5.483,5.483,0,0,0-3.479,1.181c-.6.476-.815,1.036-.588,1.535a2.864,2.864,0,0,0,.492.723,1.571,1.571,0,0,0,.649.461A1.51,1.51,0,0,0-99.573,32.07ZM-64.3,30.842h0a3.887,3.887,0,0,0,1.657-.331A1.7,1.7,0,0,0-61.5,28.868c-.019-.612-.418-1.024-1.219-1.261a5.519,5.519,0,0,0-1.561-.23,6.727,6.727,0,0,0-3.71,1.251.825.825,0,0,0-.408.691.893.893,0,0,0,.461.733,4.609,4.609,0,0,0,.993.428c.1.035.193.064.264.092l.461.07A13.048,13.048,0,0,0-64.3,30.842Zm-46.688-.421a1.315,1.315,0,0,0,.2-.016,31.843,31.843,0,0,0,4.308-.991,1.631,1.631,0,0,0,1.018-1.833c-.094-.7-.505-1.059-1.418-1.241a3.435,3.435,0,0,0-.655-.053,10.154,10.154,0,0,0-4.07.918,1.517,1.517,0,0,0-.8,1.906A1.553,1.553,0,0,0-110.987,30.422Zm94.962-1.4a3.985,3.985,0,0,0,2.057-.526,1.509,1.509,0,0,0,.947-1.567,1.466,1.466,0,0,0-1.395-1.3,4.066,4.066,0,0,0-.65-.048,11.779,11.779,0,0,0-1.868.2c-.2.032-.379.063-.538.085-.889.122-1.317.551-1.348,1.353A1.43,1.43,0,0,0-17.7,28.814,7.9,7.9,0,0,0-16.024,29.021ZM-49.8,26.7a7.416,7.416,0,0,0,3.172-.809c.506-.24,1-.533.952-1.245-.036-.595-.368-.982-1.077-1.255a3.33,3.33,0,0,0-1.194-.2,4.787,4.787,0,0,0-3.566,1.54,1.183,1.183,0,0,0-.205,1.053,1.044,1.044,0,0,0,.66.7,5.018,5.018,0,0,0,.646.165c.063.013.118.024.163.035C-50.1,26.693-49.949,26.7-49.8,26.7Zm45.428-.184a2.807,2.807,0,0,0,1.816-.954l.165-.146c.525-.462,1.209-1.077,1.839-1.739A1.355,1.355,0,0,0-.3,21.759a1.289,1.289,0,0,0-1.028-.5,2.3,2.3,0,0,0-.923.225,5.559,5.559,0,0,0-3.165,3.436A1.451,1.451,0,0,0-5.3,26.105a.971.971,0,0,0,.738.4A1.828,1.828,0,0,0-4.371,26.515ZM-78.431,23a2.808,2.808,0,0,0,1.815-.952l.007-.006.16-.141c.56-.493,1.217-1.085,1.839-1.738a1.355,1.355,0,0,0,.247-1.918,1.288,1.288,0,0,0-1.027-.5,2.3,2.3,0,0,0-.924.226A5.56,5.56,0,0,0-79.48,21.4a1.449,1.449,0,0,0,.124,1.182.97.97,0,0,0,.738.4A1.827,1.827,0,0,0-78.431,23Zm-12.289-.313a.967.967,0,0,0,.479-.129A2.905,2.905,0,0,0-89.562,22a1.576,1.576,0,0,0,.4-.687,2.674,2.674,0,0,0-.274-1.6,5.5,5.5,0,0,0-.61-1.1,3.145,3.145,0,0,0-1.4-1.235,1.465,1.465,0,0,0-.5-.091,1.388,1.388,0,0,0-1.023.445,1.305,1.305,0,0,0-.335,1.009,5.476,5.476,0,0,0,1.481,3.36A1.605,1.605,0,0,0-90.72,22.683Zm59.307-.758A5.058,5.058,0,0,0-29.7,21.5c.145-.054.282-.1.418-.152a7.89,7.89,0,0,0,1.6-.73,2.908,2.908,0,0,0,1.538-3.167c-.068-.412-.312-1.372-1.1-1.372a1.236,1.236,0,0,0-.436.088,8.274,8.274,0,0,0-4.7,3.61,2.249,2.249,0,0,0-.209,1.131,1.109,1.109,0,0,0,.266.692,1.068,1.068,0,0,0,.685.309C-31.561,21.921-31.487,21.925-31.413,21.925Zm-83.813-.072a3.987,3.987,0,0,0,2.057-.525,1.509,1.509,0,0,0,.946-1.568,1.465,1.465,0,0,0-1.394-1.3,4.066,4.066,0,0,0-.65-.048,11.782,11.782,0,0,0-1.87.2c-.195.032-.378.063-.536.084-.888.121-1.317.551-1.349,1.353a1.429,1.429,0,0,0,1.124,1.593A7.908,7.908,0,0,0-115.226,21.853Zm52.613-2.159h0a1.227,1.227,0,0,0,.447-.094,8.269,8.269,0,0,0,4.65-3.672,2.246,2.246,0,0,0,.194-1.134,1.112,1.112,0,0,0-.275-.689,1.078,1.078,0,0,0-.689-.3c-.062-.005-.125-.008-.189-.008a4.946,4.946,0,0,0-1.731.441c-.146.056-.283.109-.422.159a7.911,7.911,0,0,0-1.591.751,2.907,2.907,0,0,0-1.495,3.187C-63.641,18.745-63.389,19.694-62.613,19.694Zm-41.776-1.177a4.633,4.633,0,0,0,3.614-1.869,1.935,1.935,0,0,0,.289-1.53,1.13,1.13,0,0,0-.552-.76,3.883,3.883,0,0,0-.619-.236c-.066-.02-.123-.038-.168-.055a4.286,4.286,0,0,0-.609-.043,6.529,6.529,0,0,0-3.108.935,1.729,1.729,0,0,0-1.091,1.581,1.663,1.663,0,0,0,.941,1.67A2.683,2.683,0,0,0-104.389,18.517Zm58.144-.723h0c.032,0,.064,0,.1,0a4.58,4.58,0,0,0,1.056-.248c.1-.034.191-.063.264-.082l.41-.218A6.107,6.107,0,0,0-41.618,15a1.694,1.694,0,0,0-.067-2,1.144,1.144,0,0,0-.939-.45,2.318,2.318,0,0,0-.793.162,6.1,6.1,0,0,0-3.623,3.957.823.823,0,0,0,.068.774A.863.863,0,0,0-46.244,17.794ZM-73.161,9.751a2.774,2.774,0,0,0,.522-.054,6.107,6.107,0,0,0,4.214-3.325.824.824,0,0,0,.045-.8.894.894,0,0,0-.747-.44c-.073-.006-.15-.009-.23-.009a5.5,5.5,0,0,0-.853.085c-.106.017-.2.031-.272.038l-.439.149a6.114,6.114,0,0,0-3.125,1.757A1.7,1.7,0,0,0-74.3,9.135,1.193,1.193,0,0,0-73.161,9.751Zm-13.2-1.539h0A3.887,3.887,0,0,0-84.7,7.88a1.7,1.7,0,0,0,1.138-1.643c-.019-.612-.417-1.024-1.219-1.261a5.52,5.52,0,0,0-1.561-.23A6.733,6.733,0,0,0-90.052,6a.826.826,0,0,0-.407.691A.893.893,0,0,0-90,7.421a4.661,4.661,0,0,0,1,.43c.1.034.188.063.257.09l.454.069A13.044,13.044,0,0,0-86.358,8.212Zm-22.249-.672a8.206,8.206,0,0,0,2.452-.417c.534-.166,1.061-.388,1.116-1.1a1.391,1.391,0,0,0-.893-1.391,3.779,3.779,0,0,0-1.817-.408A4.6,4.6,0,0,0-110.832,5.3a1.184,1.184,0,0,0-.349,1.015,1.043,1.043,0,0,0,.557.78,4.886,4.886,0,0,0,.605.249c.065.023.122.043.167.061A5.718,5.718,0,0,0-108.607,7.54Zm9.765-3.708h0a5.315,5.315,0,0,0,3.564-1.243,1.367,1.367,0,0,0,.4-1.173,1.2,1.2,0,0,0-.644-.9,5.747,5.747,0,0,0-.7-.289C-96.3.2-96.36.176-96.412.156A6.62,6.62,0,0,0-97.851,0a9.483,9.483,0,0,0-2.832.481c-.617.193-1.224.45-1.289,1.273a1.605,1.605,0,0,0,1.031,1.607A4.361,4.361,0,0,0-98.842,3.832Z" transform="translate(-16.882 37.855) rotate(-180)"/>
        </g>
      </g>
      <g id="Group_63" data-name="Group 63">
        <path id="Clip_62-2" data-name="Clip 62" class="cls-1" d="M-16.315,4.1a10.646,10.646,0,0,0,4.507-.159h0l1.984.277h0C-5.066,9.405-4.7,15.338-6.911,21.676h0c-.822,2.364-2.4,4.451-2.63,7.035h0a10.334,10.334,0,0,0-.1,1.683h0a103.593,103.593,0,0,1-.905,20.757h0A29.308,29.308,0,0,0-8.184,67.379h0C-5.238,73.87-2.312,80.45-.773,87.491h0a16.751,16.751,0,0,1,.758,4.731h0c-.588.264-1.2.484-1.761.8h0c-1.616.911-3.584.921-5.12,2.026h0a54.208,54.208,0,0,1-6.519-8.59h0C-17,80.6-20.158,74.5-23.543,68.531h0c-3.767-6.643-4.847-13.878-5.581-21.277h0a105.306,105.306,0,0,1,.247-22.333h0c.077-.679-.062-1.379-.02-2.064h0c.042-.691.185-1.377.337-2.435h0A25.271,25.271,0,0,1-30.9,22.036h0A47.906,47.906,0,0,1-46.954,27.1h0c-4.515.607-8.891,1.609-13.308,2.6h0c-3.451.777-5.563,2.977-7.375,5.715h0a3.214,3.214,0,0,0-.514.382h0a41.78,41.78,0,0,1-8.544,7.445h0a2.72,2.72,0,0,0-1.28,1.239h0a2.568,2.568,0,0,0-1.437,1.089h0a76.85,76.85,0,0,0-7,5.1h0q-3.348,2.35-6.7,4.7h0A60.456,60.456,0,0,1-115.651,65h0c-.536-.5-1.055-1.021-1.61-1.5h0a7.6,7.6,0,0,1-2.434-2.951h0a5.833,5.833,0,0,1,1.87-3.047h0c5.255-5.1,10.049-10.649,15.248-15.806h0a3,3,0,0,0,.274-.278h0a81.379,81.379,0,0,1,9.539-10.266h0c.355-.3.716-.6,1.064-.912h0q3.1-2.76,6.2-5.525h0a4.406,4.406,0,0,0,1.64-1.3h0l8.938-6.389h0c.373-.209.768-.389,1.121-.631h0A77.709,77.709,0,0,1-42.667,3.381h0A123.407,123.407,0,0,0-28.363,0h0c3.641,2.463,7.831,3.366,12.049,4.1" transform="translate(0.348 -0.526) rotate(-180)"/>
        <g id="Group_63-2" data-name="Group 63" class="cls-11">
          <path id="Fill_61" data-name="Fill 61" class="cls-12" d="M-17.547,81.023h0A5.423,5.423,0,0,0-16.01,80.8c.735-.217,1.143-.656,1.119-1.205a2.919,2.919,0,0,0-.187-.854,1.571,1.571,0,0,0-.43-.669,2.692,2.692,0,0,0-1.556-.482c-.129-.011-.265-.017-.4-.017a5.922,5.922,0,0,0-.851.065,3.153,3.153,0,0,0-1.735.685,1.41,1.41,0,0,0-.439,1.294,1.3,1.3,0,0,0,.813.982A5.724,5.724,0,0,0-17.547,81.023Zm-16.716-2.082h0A5.315,5.315,0,0,0-30.7,77.7a1.368,1.368,0,0,0,.4-1.175,1.2,1.2,0,0,0-.644-.9,5.735,5.735,0,0,0-.7-.288c-.076-.027-.141-.05-.193-.071a6.617,6.617,0,0,0-1.442-.156,9.469,9.469,0,0,0-2.83.481c-.617.194-1.225.452-1.29,1.273a1.607,1.607,0,0,0,1.032,1.606A4.364,4.364,0,0,0-34.263,78.941Zm-15.884-7.126h0a2.808,2.808,0,0,0,.522-.054,6.105,6.105,0,0,0,4.214-3.324.825.825,0,0,0,.045-.8.9.9,0,0,0-.747-.442c-.072-.006-.148-.009-.226-.009a5.514,5.514,0,0,0-.856.085c-.107.017-.2.031-.273.038l-.442.15a6.106,6.106,0,0,0-3.122,1.757,1.693,1.693,0,0,0-.256,1.981A1.193,1.193,0,0,0-50.146,71.815Zm-12-.973a7.232,7.232,0,0,0,3.368-.944c.5-.259.973-.572.9-1.282-.061-.594-.409-.967-1.128-1.21a3.22,3.22,0,0,0-1.026-.154,4.825,4.825,0,0,0-3.676,1.69A1.182,1.182,0,0,0-63.867,70a1.043,1.043,0,0,0,.689.668,4.928,4.928,0,0,0,.643.137c.068.011.126.021.173.03C-62.29,70.84-62.216,70.842-62.144,70.842Zm-18.323-3.056c.143,0,.292,0,.441-.009.559-.022,1.125-.1,1.365-.772a1.39,1.39,0,0,0-.5-1.575,4.527,4.527,0,0,0-3.055-1.054,3.8,3.8,0,0,0-1.851.421,1.185,1.185,0,0,0-.6.889,1.044,1.044,0,0,0,.334.9,5.084,5.084,0,0,0,.523.4c.055.038.1.072.142.1A6.739,6.739,0,0,0-80.467,67.786Zm67.723-.243h0a3.888,3.888,0,0,0,1.657-.331,1.7,1.7,0,0,0,1.138-1.644c-.019-.612-.418-1.024-1.219-1.261a5.515,5.515,0,0,0-1.56-.23,6.728,6.728,0,0,0-3.71,1.251.825.825,0,0,0-.408.691.893.893,0,0,0,.461.733,4.609,4.609,0,0,0,.993.428c.1.035.193.064.263.092l.457.069A13.073,13.073,0,0,0-12.743,67.543Zm-22.252-.672h0a8.206,8.206,0,0,0,2.452-.417c.534-.167,1.061-.39,1.116-1.1a1.391,1.391,0,0,0-.894-1.391,3.773,3.773,0,0,0-1.816-.408A4.6,4.6,0,0,0-37.22,64.63a1.185,1.185,0,0,0-.349,1.016,1.044,1.044,0,0,0,.558.781,5.022,5.022,0,0,0,.605.249c.066.024.122.044.167.061A5.716,5.716,0,0,0-34.995,66.872Zm-59.4-4.5a6.985,6.985,0,0,0,3.476-1.289c.468-.307.913-.666.769-1.365-.12-.585-.5-.922-1.242-1.092a2.959,2.959,0,0,0-.663-.071,4.825,4.825,0,0,0-3.864,2.063,1.183,1.183,0,0,0-.055,1.071,1.044,1.044,0,0,0,.752.6,4.96,4.96,0,0,0,.653.073c.068,0,.127.008.175.013h0Zm35.427-.069h0a3.994,3.994,0,0,0,2.058-.525,1.509,1.509,0,0,0,.946-1.568,1.464,1.464,0,0,0-1.4-1.3,4.054,4.054,0,0,0-.649-.048,11.787,11.787,0,0,0-1.868.2c-.2.033-.38.063-.539.085-.888.122-1.316.551-1.348,1.353a1.432,1.432,0,0,0,1.125,1.594A7.891,7.891,0,0,0-58.971,62.3Zm-16.954-1.409a3.411,3.411,0,0,0,1.251-.326,5.533,5.533,0,0,0,1.094-.616,3.144,3.144,0,0,0,1.228-1.4,1.423,1.423,0,0,0-.165-1.3,1.3,1.3,0,0,0-1.078-.56c-.044,0-.09,0-.134.006a5.474,5.474,0,0,0-3.354,1.5,1.316,1.316,0,0,0-.442,1.584,2.886,2.886,0,0,0,.557.673,1.6,1.6,0,0,0,.689.4A1.446,1.446,0,0,0-75.925,60.889ZM-22.2,59.67c.141,0,.288,0,.437-.009.559-.022,1.125-.1,1.365-.772a1.388,1.388,0,0,0-.5-1.575,4.527,4.527,0,0,0-3.055-1.055,3.8,3.8,0,0,0-1.851.421,1.183,1.183,0,0,0-.6.889,1.044,1.044,0,0,0,.334.9,5.018,5.018,0,0,0,.527.4c.054.037.1.07.138.1A6.744,6.744,0,0,0-22.2,59.67Zm-83.633-.225a5.657,5.657,0,0,0,2.319-.56,1.325,1.325,0,0,0,.973-1.184,1.371,1.371,0,0,0-.967-1.279,3.659,3.659,0,0,0-1.538-.349,4.473,4.473,0,0,0-2.426.807,1.185,1.185,0,0,0-.585.885,1.285,1.285,0,0,0,.479,1.042,3.194,3.194,0,0,0,.712.45c.086.044.16.082.222.118A4.908,4.908,0,0,0-105.828,59.445Zm67.888-.818h0c.128,0,.267-.007.415-.022a11.063,11.063,0,0,0,4.936-2.538,1.755,1.755,0,0,0,.244-2.375,1.914,1.914,0,0,0-1.591-1.037,1.443,1.443,0,0,0-.631.147A36.879,36.879,0,0,0-39,55.34a1.881,1.881,0,0,0-.51,2.367A1.5,1.5,0,0,0-37.94,58.627Zm-84.2-1.739a3.13,3.13,0,0,0,1.36-.45,5.517,5.517,0,0,0,1.031-.717,3.152,3.152,0,0,0,1.09-1.512,1.414,1.414,0,0,0-.246-1.227,1.307,1.307,0,0,0-1.037-.512,1.407,1.407,0,0,0-.263.025,5.475,5.475,0,0,0-3.2,1.811,1.281,1.281,0,0,0-.29,1.617,2.907,2.907,0,0,0,.619.618,1.59,1.59,0,0,0,.725.331A1.377,1.377,0,0,0-122.138,56.888Zm72.6-.908a6.33,6.33,0,0,0,4.02-1.364c.7-.549.943-1.2.679-1.773a3.334,3.334,0,0,0-.569-.835,1.826,1.826,0,0,0-.751-.532,1.742,1.742,0,0,0-.593-.1,4.542,4.542,0,0,0-1.283.249,6.37,6.37,0,0,0-1.324.591,3.629,3.629,0,0,0-1.564,1.48,1.63,1.63,0,0,0,.087,1.575A1.505,1.505,0,0,0-49.54,55.98ZM-111.8,52.472a1.219,1.219,0,0,0,.454-.1,8.282,8.282,0,0,0,4.616-3.717,2.247,2.247,0,0,0,.182-1.136,1.11,1.11,0,0,0-.282-.686,1.082,1.082,0,0,0-.691-.293c-.054,0-.111-.006-.167-.006a4.892,4.892,0,0,0-1.756.461c-.143.057-.278.111-.413.161a7.864,7.864,0,0,0-1.585.766,2.907,2.907,0,0,0-1.464,3.2C-112.828,51.53-112.566,52.472-111.8,52.472Zm27.57-1.045h0a5.816,5.816,0,0,0,2.026-.341,2.27,2.27,0,0,0,.918-.695,1.107,1.107,0,0,0,.27-.69,1.067,1.067,0,0,0-.3-.689,4.423,4.423,0,0,0-1.7-1c-.143-.058-.277-.112-.41-.169A7.913,7.913,0,0,0-85.1,47.3a4.383,4.383,0,0,0-.8-.079,2.785,2.785,0,0,0-2.474,1.38,1.812,1.812,0,0,0-.353,1.388.965.965,0,0,0,.615.592A10.7,10.7,0,0,0-84.229,51.427Zm15.953-.094A4.889,4.889,0,0,0-65.092,50a1.37,1.37,0,0,0,.534-1.1,1.485,1.485,0,0,0-.71-1.12,3.723,3.723,0,0,0-.885-.406c-.105-.037-.2-.069-.27-.1-.069,0-.138,0-.2,0a6.084,6.084,0,0,0-3.3,1.043,1.549,1.549,0,0,0-.932,1.5c.076.64.5,1.071,1.3,1.317A4.362,4.362,0,0,0-68.276,51.333Zm59.035-.154a2.81,2.81,0,0,0,1.816-.953l.165-.146c.525-.461,1.208-1.076,1.839-1.738a1.356,1.356,0,0,0,.248-1.918,1.289,1.289,0,0,0-1.028-.5,2.3,2.3,0,0,0-.923.225,5.557,5.557,0,0,0-3.165,3.436,1.451,1.451,0,0,0,.125,1.183.969.969,0,0,0,.738.4A1.82,1.82,0,0,0-9.241,51.179Zm-13.741-.834a3.249,3.249,0,0,0,1.3-.375,5.433,5.433,0,0,0,1.069-.658,3.14,3.14,0,0,0,1.174-1.447,1.409,1.409,0,0,0-.2-1.271,1.3,1.3,0,0,0-1.061-.54,1.428,1.428,0,0,0-.187.013,5.475,5.475,0,0,0-3.294,1.626,1.282,1.282,0,0,0-.381,1.6,2.917,2.917,0,0,0,.582.652,1.583,1.583,0,0,0,.7.372A1.411,1.411,0,0,0-22.983,50.346Zm-75.253-.133h0c.142,0,.284-.006.406-.011a5.541,5.541,0,0,0,1.238-.215,3.142,3.142,0,0,0,1.628-.909,1.411,1.411,0,0,0,.262-1.341,1.3,1.3,0,0,0-.938-.866,5.942,5.942,0,0,0-1.452-.186,5.382,5.382,0,0,0-2.212.476c-.7.313-1.046.8-.948,1.343a2.892,2.892,0,0,0,.3.822,1.569,1.569,0,0,0,.516.606A2.144,2.144,0,0,0-98.235,50.212Zm59.767-4.023a2.431,2.431,0,0,0,.565-.075,4.723,4.723,0,0,0,3.166-3.8,1.178,1.178,0,0,0-.319-.883,1.056,1.056,0,0,0-.771-.339,1.064,1.064,0,0,0-.278.037,4.955,4.955,0,0,0-.616.225c-.063.027-.118.05-.163.067a6.977,6.977,0,0,0-2.539,2.7,1.264,1.264,0,0,0-.079,1.564A1.238,1.238,0,0,0-38.468,46.189Zm-21.2-2.753h0a5.313,5.313,0,0,0,3.564-1.244,1.366,1.366,0,0,0,.4-1.171,1.206,1.206,0,0,0-.644-.9,5.788,5.788,0,0,0-.7-.289c-.074-.026-.138-.049-.19-.07a6.62,6.62,0,0,0-1.439-.156,9.474,9.474,0,0,0-2.831.481c-.617.193-1.225.45-1.29,1.273a1.609,1.609,0,0,0,1.031,1.607A4.37,4.37,0,0,0-59.671,43.437Zm-46.384-.31a5.566,5.566,0,0,0,.563-.036c.067-.007.126-.013.173-.016a6.977,6.977,0,0,0,3.218-1.838c.411-.379.792-.8.536-1.472a1.392,1.392,0,0,0-1.4-.875c-.053,0-.107,0-.162,0a4.8,4.8,0,0,0-3.98,2.708,1.186,1.186,0,0,0,.122,1.068,1.043,1.043,0,0,0,.838.465Zm16.806-.865a8.214,8.214,0,0,0,2.452-.417c.534-.167,1.061-.39,1.116-1.1a1.388,1.388,0,0,0-.893-1.39,3.776,3.776,0,0,0-1.816-.408,4.6,4.6,0,0,0-3.084,1.077,1.182,1.182,0,0,0-.349,1.015,1.041,1.041,0,0,0,.557.78,4.887,4.887,0,0,0,.6.249c.065.023.122.043.167.061A5.722,5.722,0,0,0-89.248,42.262Zm74.756-1.277h0a3.89,3.89,0,0,0,1.658-.331A1.7,1.7,0,0,0-11.7,39.01c-.019-.612-.417-1.025-1.219-1.262a5.519,5.519,0,0,0-1.561-.23,6.724,6.724,0,0,0-3.711,1.251.824.824,0,0,0-.408.689.893.893,0,0,0,.461.734,4.6,4.6,0,0,0,1,.431c.1.034.188.062.257.09l.454.069A13.056,13.056,0,0,0-14.493,40.985Zm-102.725-.542h0c.144,0,.293,0,.443-.009.559-.022,1.125-.1,1.364-.772a1.388,1.388,0,0,0-.5-1.575,4.526,4.526,0,0,0-3.054-1.054,3.8,3.8,0,0,0-1.852.421,1.186,1.186,0,0,0-.6.891,1.041,1.041,0,0,0,.334.9,4.9,4.9,0,0,0,.527.4c.054.037.1.069.138.1A6.727,6.727,0,0,0-117.218,40.442Zm42.315-.087a5.648,5.648,0,0,0,2.318-.56,1.344,1.344,0,0,0,.973-1.183,1.371,1.371,0,0,0-.967-1.278,3.663,3.663,0,0,0-1.539-.349,4.472,4.472,0,0,0-2.425.806,1.187,1.187,0,0,0-.585.886,1.284,1.284,0,0,0,.48,1.04,3.2,3.2,0,0,0,.714.451c.085.043.159.081.22.117A4.911,4.911,0,0,0-74.9,40.355Zm24.979-1.733a5.051,5.051,0,0,0,1.71-.42c.145-.054.282-.1.419-.152a7.83,7.83,0,0,0,1.6-.73,2.9,2.9,0,0,0,1.537-3.166c-.068-.413-.31-1.373-1.1-1.373a1.238,1.238,0,0,0-.435.087,8.284,8.284,0,0,0-4.7,3.611,2.264,2.264,0,0,0-.209,1.132,1.116,1.116,0,0,0,.267.692,1.069,1.069,0,0,0,.684.308A2.191,2.191,0,0,0-49.923,38.622Zm18.947-5.372h0a8.189,8.189,0,0,0,2.449-.417c.534-.167,1.061-.39,1.117-1.1A1.392,1.392,0,0,0-28.3,30.34a3.781,3.781,0,0,0-1.816-.407A4.6,4.6,0,0,0-33.2,31.009a1.184,1.184,0,0,0-.348,1.016,1.043,1.043,0,0,0,.557.78,5.015,5.015,0,0,0,.614.253c.062.022.115.041.158.058A5.726,5.726,0,0,0-30.976,33.25Zm-54.318-.52.073,0a2.678,2.678,0,0,0,1.444-.75,5.5,5.5,0,0,0,.86-.915,3.153,3.153,0,0,0,.751-1.706,1.417,1.417,0,0,0-.391-1.05,1.315,1.315,0,0,0-.954-.413,1.35,1.35,0,0,0-.525.108,5.468,5.468,0,0,0-2.75,2.435,1.283,1.283,0,0,0,.053,1.642,2.893,2.893,0,0,0,.734.475A1.613,1.613,0,0,0-85.294,32.73Zm-14.278-.66h0a3.944,3.944,0,0,0,1.111-.215,5.519,5.519,0,0,0,1.146-.512,3.156,3.156,0,0,0,1.355-1.282,1.411,1.411,0,0,0-.075-1.363,1.3,1.3,0,0,0-1.122-.61,5.474,5.474,0,0,0-3.481,1.181c-.6.476-.815,1.035-.588,1.535a2.875,2.875,0,0,0,.492.724,1.575,1.575,0,0,0,.649.46A1.516,1.516,0,0,0-99.573,32.069ZM-64.3,30.843h0a3.89,3.89,0,0,0,1.658-.331A1.7,1.7,0,0,0-61.5,28.868c-.019-.613-.418-1.025-1.219-1.262a5.519,5.519,0,0,0-1.561-.23,6.727,6.727,0,0,0-3.71,1.251.825.825,0,0,0-.408.691.893.893,0,0,0,.461.733,4.581,4.581,0,0,0,1,.43c.1.034.189.063.258.09l.448.068h.006A13.059,13.059,0,0,0-64.3,30.843Zm-46.685-.42a1.314,1.314,0,0,0,.2-.016,31.838,31.838,0,0,0,4.308-.992,1.631,1.631,0,0,0,1.018-1.833c-.094-.7-.5-1.058-1.418-1.241a3.442,3.442,0,0,0-.654-.052,10.159,10.159,0,0,0-4.071.917,1.519,1.519,0,0,0-.8,1.907A1.553,1.553,0,0,0-110.985,30.422Zm94.961-1.4a3.989,3.989,0,0,0,2.057-.526,1.51,1.51,0,0,0,.947-1.568,1.465,1.465,0,0,0-1.395-1.3,4.066,4.066,0,0,0-.65-.048,11.778,11.778,0,0,0-1.869.2c-.2.033-.379.063-.538.084-.889.121-1.317.551-1.348,1.353A1.43,1.43,0,0,0-17.7,28.813,7.866,7.866,0,0,0-16.024,29.022ZM-49.8,26.7h0a7.41,7.41,0,0,0,3.175-.809c.506-.239,1-.532.952-1.245-.036-.595-.368-.982-1.077-1.255a3.328,3.328,0,0,0-1.193-.2,4.788,4.788,0,0,0-3.567,1.541,1.182,1.182,0,0,0-.205,1.052,1.043,1.043,0,0,0,.66.7,5.038,5.038,0,0,0,.638.164c.066.014.124.026.171.037C-50.1,26.693-49.951,26.7-49.8,26.7Zm45.431-.185a2.807,2.807,0,0,0,1.816-.954l.165-.146c.56-.493,1.217-1.085,1.839-1.738A1.355,1.355,0,0,0-.3,21.76a1.288,1.288,0,0,0-1.028-.5,2.293,2.293,0,0,0-.923.226,5.559,5.559,0,0,0-3.165,3.436A1.451,1.451,0,0,0-5.3,26.106a.97.97,0,0,0,.738.4A1.828,1.828,0,0,0-4.371,26.515ZM-78.431,23a2.807,2.807,0,0,0,1.814-.951l.167-.148c.525-.462,1.209-1.077,1.839-1.739a1.355,1.355,0,0,0,.247-1.917,1.289,1.289,0,0,0-1.028-.5,2.3,2.3,0,0,0-.924.225A5.56,5.56,0,0,0-79.48,21.4a1.449,1.449,0,0,0,.124,1.182.97.97,0,0,0,.738.4A1.827,1.827,0,0,0-78.431,23Zm-12.288-.312h0a.967.967,0,0,0,.48-.13A2.916,2.916,0,0,0-89.562,22a1.576,1.576,0,0,0,.4-.687,2.676,2.676,0,0,0-.274-1.6,5.481,5.481,0,0,0-.61-1.1,3.155,3.155,0,0,0-1.4-1.236,1.466,1.466,0,0,0-.5-.091,1.388,1.388,0,0,0-1.023.445,1.307,1.307,0,0,0-.336,1.011A5.471,5.471,0,0,0-91.823,22.1,1.606,1.606,0,0,0-90.72,22.684Zm59.308-.759A5.049,5.049,0,0,0-29.7,21.5c.145-.054.281-.1.417-.152a7.872,7.872,0,0,0,1.6-.729,2.907,2.907,0,0,0,1.538-3.167c-.068-.413-.312-1.373-1.1-1.373a1.238,1.238,0,0,0-.435.087,8.282,8.282,0,0,0-4.7,3.611,2.252,2.252,0,0,0-.209,1.132,1.1,1.1,0,0,0,.266.691,1.068,1.068,0,0,0,.685.309A2.191,2.191,0,0,0-31.411,21.925Zm-83.816-.072a3.99,3.99,0,0,0,2.058-.526,1.509,1.509,0,0,0,.946-1.567,1.465,1.465,0,0,0-1.394-1.3,4.065,4.065,0,0,0-.65-.048,11.776,11.776,0,0,0-1.868.2c-.2.032-.379.063-.538.085-.888.122-1.317.551-1.349,1.353a1.431,1.431,0,0,0,1.124,1.594A7.927,7.927,0,0,0-115.227,21.853Zm52.615-2.158a1.227,1.227,0,0,0,.447-.094,8.282,8.282,0,0,0,4.65-3.673,2.247,2.247,0,0,0,.194-1.134,1.112,1.112,0,0,0-.275-.689,1.078,1.078,0,0,0-.689-.3c-.061-.005-.124-.008-.187-.008a4.95,4.95,0,0,0-1.732.442c-.146.056-.284.11-.423.159a7.914,7.914,0,0,0-1.591.751,2.907,2.907,0,0,0-1.495,3.187C-63.641,18.745-63.387,19.695-62.613,19.695Zm-41.776-1.177h0a4.632,4.632,0,0,0,3.613-1.869,1.936,1.936,0,0,0,.289-1.531,1.128,1.128,0,0,0-.551-.759,3.954,3.954,0,0,0-.621-.237c-.066-.021-.122-.038-.167-.055a4.3,4.3,0,0,0-.608-.043,6.53,6.53,0,0,0-3.109.935,1.729,1.729,0,0,0-1.091,1.582,1.66,1.66,0,0,0,.941,1.67A2.681,2.681,0,0,0-104.388,18.518Zm58.146-.723h0c.031,0,.063,0,.1,0a4.669,4.669,0,0,0,1.06-.25c.1-.033.188-.061.259-.081l.413-.22a6.1,6.1,0,0,0,2.8-2.235,1.7,1.7,0,0,0-.067-2,1.144,1.144,0,0,0-.939-.45,2.318,2.318,0,0,0-.793.162,6.1,6.1,0,0,0-3.623,3.957.824.824,0,0,0,.068.775A.865.865,0,0,0-46.243,17.795ZM-73.161,9.751a2.774,2.774,0,0,0,.522-.054,6.1,6.1,0,0,0,4.214-3.325.824.824,0,0,0,.045-.8.893.893,0,0,0-.746-.44c-.072-.006-.148-.009-.226-.009a5.535,5.535,0,0,0-.852.084c-.109.017-.2.031-.278.039l-.44.149a6.109,6.109,0,0,0-3.124,1.758A1.7,1.7,0,0,0-74.3,9.135,1.193,1.193,0,0,0-73.161,9.751Zm-13.2-1.538h0A3.884,3.884,0,0,0-84.7,7.881a1.7,1.7,0,0,0,1.138-1.643c-.019-.613-.417-1.025-1.219-1.261a5.519,5.519,0,0,0-1.561-.23A6.733,6.733,0,0,0-90.052,6a.825.825,0,0,0-.407.69A.893.893,0,0,0-90,7.42a4.608,4.608,0,0,0,1,.429c.1.034.192.064.261.092l.461.07A13.036,13.036,0,0,0-86.357,8.213Zm-22.248-.672h0a8.2,8.2,0,0,0,2.45-.417c.534-.166,1.061-.388,1.116-1.1a1.388,1.388,0,0,0-.893-1.39,3.779,3.779,0,0,0-1.817-.408A4.6,4.6,0,0,0-110.832,5.3a1.182,1.182,0,0,0-.349,1.015,1.041,1.041,0,0,0,.557.779,4.936,4.936,0,0,0,.614.253c.061.022.115.041.158.058A5.727,5.727,0,0,0-108.605,7.54Zm9.762-3.708h0a5.316,5.316,0,0,0,3.564-1.243,1.368,1.368,0,0,0,.4-1.174,1.2,1.2,0,0,0-.644-.9,5.664,5.664,0,0,0-.711-.292C-96.3.2-96.362.176-96.412.157A6.587,6.587,0,0,0-97.852,0a9.464,9.464,0,0,0-2.831.482c-.617.192-1.224.448-1.289,1.272a1.606,1.606,0,0,0,1.031,1.607A4.36,4.36,0,0,0-98.843,3.832Z" transform="translate(-2.448 -24.774) rotate(-180)"/>
        </g>
      </g>
    </g>
  </g>
</svg>
