<svg xmlns="http://www.w3.org/2000/svg" xmlns:xlink="http://www.w3.org/1999/xlink" width="155.808" height="178.949" viewBox="0 0 155.808 178.949">
  <defs>
    <style>
      .cls-1 {
        fill: none;
      }

      .cls-2 {
        fill: #ffc300;
      }

      .cls-3 {
        fill: #ff4133;
      }

      .cls-4 {
        fill: #fdfdfd;
      }

      .cls-5 {
        clip-path: url(#clip-path);
      }

      .cls-6 {
        fill: #3d55cc;
      }

      .cls-7 {
        fill: #223d73;
      }

      .cls-8 {
        fill: #c96;
      }

      .cls-9 {
        fill: #191919;
      }

      .cls-10 {
        fill: #fbd904;
      }

      .cls-11 {
        fill: #0f0101;
      }

      .cls-12 {
        fill: #fbfcfb;
      }

      .cls-13 {
        fill: #f9fcfa;
      }

      .cls-14 {
        fill: #fd5901;
      }

      .cls-15 {
        fill: #080b0b;
      }
    </style>
    <clipPath id="clip-path">
      <path id="Clip_8" data-name="Clip 8" class="cls-1" d="M0,0H39.686V63.855H0Z" transform="translate(0.009 0.051)"/>
    </clipPath>
  </defs>
  <g id="_5" data-name="5" transform="translate(0 -0.051)">
    <path id="Fill_1" data-name="Fill 1" class="cls-2" d="M34.3,56.1h0c-.125-.011-.251-.02-.374-.029-.26-.018-.528-.037-.789-.079a30.393,30.393,0,0,1-7.294-2.467l-.257-.112A46.58,46.58,0,0,1,13.71,46.124c-.245-.21-.493-.427-.732-.637a19.046,19.046,0,0,0-3.023-2.316c.008-.165.022-.334.036-.5a6.645,6.645,0,0,0,.032-1.075,28.027,28.027,0,0,1,.105-6.117,1.408,1.408,0,0,0,0-.236c-.008-.226-.017-.459.246-.54a.3.3,0,0,1,.088-.014c.158,0,.281.136.4.267a1.769,1.769,0,0,0,.145.148,6.186,6.186,0,0,0,4.129,1.637,6.622,6.622,0,0,0,.945-.07c.593-.086.955-.272,1.106-.568a1.349,1.349,0,0,0-.184-1.22,5.164,5.164,0,0,0-1.354-1.542,23.743,23.743,0,0,0-3.686-2.426c-.616-.34-.619-.688-.4-1.25a29.066,29.066,0,0,1,4.691-7.943c.466-.573.717-.843,1-.843s.588.256,1.075.679a24.682,24.682,0,0,0,2.671,1.927c.225.148.457.3.683.451a1.69,1.69,0,0,0,.943.308,1.578,1.578,0,0,0,1.05-.426c.535-.475.561-1.089.078-1.876a8.788,8.788,0,0,0-3.253-3.056l-.105-.06c-.415-.235-.623-.354-.634-.491s.2-.308.619-.638l.027-.021a19.874,19.874,0,0,1,5.5-2.969c.06-.022.123-.043.189-.064.389-.126.83-.269.687-.78-.073-.262-.205-.39-.4-.39a1.384,1.384,0,0,0-.516.158c-.078.035-.151.068-.22.092-5.705,2.021-10.2,6.181-13.728,12.72a27.249,27.249,0,0,0-3.1,13.026,7.716,7.716,0,0,1-2.967.605,8.236,8.236,0,0,1-2.546-.42A23.06,23.06,0,0,1,1.793,34.5c-.081-.382-.163-.776-.249-1.162a8.994,8.994,0,0,1,1.377.49,1.634,1.634,0,0,0,.639.136,1.551,1.551,0,0,0,1.272-.7,1.4,1.4,0,0,0-.083-1.9c-1.132-1.149-2.3-2.3-3.425-3.416L.084,26.717a21.091,21.091,0,0,1,1.069-8.841c.333.194.668.4.992.593.749.452,1.521.919,2.312,1.312l.292.146a8.256,8.256,0,0,0,3.28,1.1l.114,0a1.021,1.021,0,0,0,.894-.35,1.2,1.2,0,0,0,0-1.1A3.308,3.308,0,0,0,7.944,18.1,29.281,29.281,0,0,0,2.5,14.644a2.4,2.4,0,0,1,.106-.267.958.958,0,0,0,.114-.707q.4-.291.792-.584c.538-.4,1.094-.809,1.648-1.2A5.831,5.831,0,0,0,7.419,9.494,46.445,46.445,0,0,0,13.9,7.166c.228.154.458.314.68.468A13.306,13.306,0,0,0,18.046,9.56l.039.013a3.1,3.1,0,0,0,.891.193.8.8,0,0,0,.7-.355c.382-.549,0-1.069-.335-1.527-.038-.052-.076-.1-.112-.155a3.882,3.882,0,0,0-.613-.63l-.077-.068c-.341-.3-.693-.6-1.034-.889l-.455-.387a23.522,23.522,0,0,0,3.457-2.365c.243-.189.495-.384.745-.574a6.314,6.314,0,0,0,1.593-.329A8.838,8.838,0,0,1,23.98,2.2a10.788,10.788,0,0,0,4.844,4l.113.048a1.9,1.9,0,0,0,.713.206.646.646,0,0,0,.526-.263c.347-.43.12-.917-.177-1.38A16.465,16.465,0,0,0,26.509.858L27.17.429,27.831,0a1.9,1.9,0,0,1,.629.682l.023.035a18.894,18.894,0,0,0,6.161,5.947,29.366,29.366,0,0,0,15.035,4.288c.162,0,.326,0,.489,0l-.218.979,0,.009-.009.041-.211.947a21.051,21.051,0,0,0-3-.229,14.834,14.834,0,0,0-2.852.262c-1.01.2-1.554.614-1.616,1.24-.071.729.655,1.046,1.239,1.3l.136.06a29.035,29.035,0,0,0,6.072,1.863c.076.65.161,1.308.242,1.944a34.479,34.479,0,0,1,.271,10.386c-.121.686-.3,1.375-.468,2.041-.078.3-.158.615-.231.921-.142-.091-.284-.187-.421-.279a10.862,10.862,0,0,0-.976-.608c-.185-.1-.371-.2-.551-.308a4.538,4.538,0,0,0-2.25-.805c-.054,0-.108,0-.162,0a1.334,1.334,0,0,0-1.061.562,1.25,1.25,0,0,0-.094,1.138,3.235,3.235,0,0,0,.761,1.234,18.7,18.7,0,0,0,3.622,2.632,41.017,41.017,0,0,1-6.845,11.69A16.727,16.727,0,0,0,40.3,49.73c-.178.275-.361.56-.549.834-.072.091-.145.181-.219.271-.149.183-.3.37-.442.564a25.544,25.544,0,0,1-4.008,4.518.609.609,0,0,0-.229-.046.993.993,0,0,0-.557.234Zm-5-11.473a1.468,1.468,0,0,0-1.456.808,1.188,1.188,0,0,0,.1,1.468,12.887,12.887,0,0,0,6.386,4.183,2.394,2.394,0,0,0,.642.1,1.266,1.266,0,0,0,1.2-.777,1.546,1.546,0,0,0-.523-2.085l-.571-.448-.008-.006c-.772-.608-1.57-1.236-2.391-1.8a7.009,7.009,0,0,0-3.274-1.436ZM28.081,29.292a.8.8,0,0,0-.655.262.983.983,0,0,0-.115.844,4.719,4.719,0,0,0,1.076,2.075A13.438,13.438,0,0,0,32,35.3a7.953,7.953,0,0,0,3.181,1.207q.072,0,.14,0a1.08,1.08,0,0,0,.9-.321,1.244,1.244,0,0,0,.09-1.084,4.07,4.07,0,0,0-.949-1.7,12.023,12.023,0,0,0-4.185-2.842c-.278-.131-.554-.283-.82-.43a6.148,6.148,0,0,0-2.036-.823A1.7,1.7,0,0,0,28.081,29.292Zm2.383-13.308h0a.789.789,0,0,0-.7.364,1.759,1.759,0,0,0,.331,2.015,2.154,2.154,0,0,0,.474.5A16.014,16.014,0,0,0,37.1,21.6h.152c.682,0,1.119-.088,1.333-.536s-.075-.84-.359-1.206l-.03-.039a3.538,3.538,0,0,0-.949-.845,30.838,30.838,0,0,0-4.383-2.115c-.453-.19-.922-.386-1.38-.586a2.763,2.763,0,0,0-1.023-.291Z" transform="translate(74.455 68.572)"/>
    <path id="Fill_3" data-name="Fill 3" class="cls-3" d="M35.156,0a25.363,25.363,0,0,1,3.738,2.95,46.524,46.524,0,0,0,11.82,7.283,31.1,31.1,0,0,0,7.515,2.577c.382.061.772.073,1.158.108a24.446,24.446,0,0,1-6.177,6.646c-3.04,2.475-6.307,4.656-9.247,7.259-.439.389-1.255.608-.952,1.507l-1.6,1.194-.447.315.056.016-.051-.026-5.255,3c-1.949,1-3.844,2.094-5.7,3.257a39.647,39.647,0,0,0-5.8,3.139,17.2,17.2,0,0,0-4.452,3.18,14.066,14.066,0,0,0-4.536,7.929,17.645,17.645,0,0,0,.034,8.775,15.194,15.194,0,0,0,1.451,3c.527.934,1.076,1.979.45,2.96-.667,1.046-1.879.876-2.947.711-2.57-.4-4.221-2.164-5.766-4.066C7.87,61,7.318,60.268,6.756,59.545a32.657,32.657,0,0,1,2.883-7.931c.18-.352.405-.761-.077-1.015-.423-.223-.643.133-.817.469a33.792,33.792,0,0,0-2.908,7.815.861.861,0,0,0,.223.979,29.049,29.049,0,0,0-1.366,3.693c-.168.593-.431.888-1.13.635-.882-.32-1.811-.509-2.72-.754a1.084,1.084,0,0,1-.815-1.327A13.518,13.518,0,0,0,0,60.449c.025-.36.057-.72.074-1.08A39.734,39.734,0,0,1,2.693,46a135.93,135.93,0,0,1,8.783-18.3A47.5,47.5,0,0,1,15,23.083l4.175-4.769c2-2.07,4.365-3.756,6.246-5.959,1.62-1.542,3.236-3.089,4.734-4.757A8.488,8.488,0,0,0,32.1,5.433c.462.069.681-.248.928-.564A13.8,13.8,0,0,0,35.156,0" transform="translate(49.636 113.1)"/>
    <path id="Fill_5" data-name="Fill 5" class="cls-4" d="M9.142,22.215l.336,0a4.218,4.218,0,0,0,5.669-1.236c1.636-2.1,1.213-3.931-1.155-4.982l.179-.6c.392-1.118.814-2.226,1.166-3.357.238-.763-.038-1.2-.9-1.135-.586.044-1.176.065-1.763.051a.691.691,0,0,0-.774.567c-.109-.473-.477-.479-.849-.49a4.179,4.179,0,0,1-.684-.055c-1.2-.237-1.259-.288-.73-1.375.673-1.382.725-2.942,1.33-4.344a6.509,6.509,0,0,1,1.3-2.186,2.627,2.627,0,0,1,3.708-.245c.65.548.784.356,1.158-.293a4.926,4.926,0,0,1,6.292-2.1A15.277,15.277,0,0,1,29.2,5.2c1.32,1.675,2.492,3.521,4.316,4.72,1.885,1.24,3.865,2.1,6.169,1.2a2.452,2.452,0,0,0,1.137-.888c.327.06.554-.178.813-.3a2.964,2.964,0,0,1,4.441,3.046,7.219,7.219,0,0,1-1.9,4.375c-1.634,1.759-3.541,3.3-4.647,5.507a5.383,5.383,0,0,1-2.908,2.7,6.794,6.794,0,0,0-3.2,2.536A8.318,8.318,0,0,1,29.812,31.2a10.854,10.854,0,0,1-5.155.412c-1.206-.26-2.408-.544-3.62-.775-2.265-.433-4.487-1.186-6.842-.975a7.23,7.23,0,0,0-5.169,1.769,7.967,7.967,0,0,0-1.8,1.274c-.535.259-1.119.458-1.332,1.113.032-.3,0-.45-.354-.247a9,9,0,0,1-2.4.832A2.142,2.142,0,0,1,.646,33.94,2.883,2.883,0,0,1,.3,30.848a4.5,4.5,0,0,1,2.616-2.413A4.105,4.105,0,0,0,5.12,26.725a13.949,13.949,0,0,1,2.947-3.307c.4-.337,1.011-.538,1.075-1.2" transform="translate(100.159 28.498)"/>
    <g id="Group_9" data-name="Group 9" transform="translate(116.114)">
      <path id="Clip_8-2" data-name="Clip 8" class="cls-1" d="M0,0H39.686V63.855H0Z" transform="translate(0.009 0.051)"/>
      <g id="Group_9-2" data-name="Group 9" class="cls-5">
        <path id="Fill_7" data-name="Fill 7" class="cls-6" d="M13.694,58.814a8.3,8.3,0,0,0,3.6-3.1,6.779,6.779,0,0,1,3.19-2.528,5.368,5.368,0,0,0,2.9-2.69c1.1-2.2,3.006-3.736,4.635-5.489a7.2,7.2,0,0,0,1.9-4.361,2.956,2.956,0,0,0-4.429-3.036c-.258.121-.484.358-.81.3a11.067,11.067,0,0,0-4.482-7.414c-1.953-1.57-4.161-2.763-6.154-4.262a30.443,30.443,0,0,1-6.5-6.145,4.015,4.015,0,0,1-.616-1.01c-1.14-3.323-3.572-5.738-5.69-8.376A13.283,13.283,0,0,1,.133,9.173.727.727,0,0,1,.2,8.251c.273-.277.535-.094.809,0,.763.256,1.224.96,2.023,1.24C2.371,8.577,1.69,7.678,1.055,6.747.7,6.223.039,5.566.641,5c.65-.608,1.163.241,1.632.624A18.587,18.587,0,0,1,3.731,7.094l.734.85.128-.124-.664-.906c-.639-1.08-1.289-2.153-1.911-3.243-.21-.369-.451-.812-.043-1.18s.8-.007,1.141.206A12.562,12.562,0,0,1,5.964,5.69,14.476,14.476,0,0,0,7.081,6.955,23.931,23.931,0,0,0,5.415,3.49C5.1,2.836,4.8,2.176,4.5,1.516A.728.728,0,0,1,4.6.6C4.927.3,5.27.425,5.6.62A7.778,7.778,0,0,1,7.872,3.06c.573.82,1.067,1.7,1.753,2.8-.176-1.7-.322-3.1-.465-4.5C9.108.831,9,.179,9.638.024c.605-.147.964.407,1.091.934.354,1.475.632,2.968.956,4.451a25.268,25.268,0,0,0,2.245,7.155c1.92,3.433,4.885,5.63,8.257,7.4,2.3,1.208,4.793,1.972,7.078,3.183,4.464,2.367,8.279,5.5,9.752,10.6A16.529,16.529,0,0,1,37.827,46.02c-2.17,4.319-5.567,7.608-9.319,10.481a81.5,81.5,0,0,0-7.763,6.694,8.679,8.679,0,0,1-.854.66,15.39,15.39,0,0,0-2.4-.477,17.765,17.765,0,0,1-4.121-.843.665.665,0,0,1-.49-.969c.287-.912.543-1.834.812-2.752" transform="translate(0.009 0.051)"/>
      </g>
    </g>
    <path id="Fill_10" data-name="Fill 10" class="cls-3" d="M24.071,40.965c-3.617,0-6.083-1.655-7.76-5.21a46.949,46.949,0,0,1-3.254-10.494,1.094,1.094,0,0,0,.349-.882,26.261,26.261,0,0,0-.152-3.806c-.053-.4-.146-.834-.591-.834a.84.84,0,0,0-.147.014c-.5.089-.445.534-.393.927l0,.032a18.12,18.12,0,0,1,.108,4.093,41.156,41.156,0,0,0-4.07,1.057c-.423.125-.86.255-1.292.378-.343.1-.69.2-1.025.305a15.64,15.64,0,0,1-4.283.872A38.225,38.225,0,0,1,.1,14.284,7.953,7.953,0,0,1,3.858,8.1,13.31,13.31,0,0,1,8.848,5.99a17.237,17.237,0,0,0,2.205-.6c.431-.138.877-.282,1.323-.4a1.242,1.242,0,0,0,.595-.324A13.267,13.267,0,0,0,15.505.059.351.351,0,0,1,15.656,0c.028.079.05.166.072.25a1.1,1.1,0,0,0,.2.483A19.383,19.383,0,0,1,18.167,3.89c.415.679.844,1.38,1.32,2.035.386.531.755,1.088,1.111,1.626.251.379.51.77.772,1.148a1.061,1.061,0,0,0,.865.565.952.952,0,0,0,.216-.026c.37-.086.4-.37.438-.644a2.28,2.28,0,0,1,.037-.233A14.4,14.4,0,0,0,23.2,6.245c.027-.331.054-.674.092-1.009.018-.154.029-.313.04-.466a3.745,3.745,0,0,1,.4-1.677,14.434,14.434,0,0,0,1.992,3.944,21.962,21.962,0,0,1,4.325,13.25c.017,2.422.037,5.166-.158,7.872a41.13,41.13,0,0,0,.473,8.022c.077.618.157,1.254.228,1.88.023.206.035.418.046.624a3.772,3.772,0,0,0,.387,1.759c-.56.043-1.125.082-1.672.12-1.234.085-2.511.173-3.76.314A13.693,13.693,0,0,1,24.071,40.965Zm4.115-6.429-.057,0a.5.5,0,0,0-.383.185.521.521,0,0,0-.074.432c.079.365.231.783.706.783H28.4c.3-.009.451-.233.465-.683-.024-.051-.045-.105-.068-.162C28.689,34.82,28.576,34.536,28.186,34.536Zm-2.618-8.722h-.036a.523.523,0,0,0-.518.6.66.66,0,0,0,.606.676.652.652,0,0,0,.084.006c.338,0,.436-.3.484-.568l-.022-.079C26.077,26.137,25.986,25.815,25.568,25.815Zm-.179-7.039h-.02a.514.514,0,0,0-.382.157.554.554,0,0,0-.116.428.5.5,0,0,0,.538.481.531.531,0,0,0,.491-.595A.5.5,0,0,0,25.39,18.775Zm-1.934-5.829h-.036a.54.54,0,0,0-.4.174.67.67,0,0,0-.136.5.493.493,0,0,0,.525.483.8.8,0,0,0,.084,0c.313-.033.477-.235.486-.6C23.953,13.249,23.838,12.947,23.455,12.946Z" transform="translate(15.955 46.308)"/>
    <path id="Fill_12" data-name="Fill 12" class="cls-3" d="M16.272,5.449a26.1,26.1,0,0,0,3.915-4.6c.2-.293.43-.567.645-.849.67,2.439.068,4.784-.459,7.14-.673,3.008-1.763,5.881-2.6,8.838a70.232,70.232,0,0,0-2.232,19.416c.008,3.357.212,6.71.529,10.05a17.14,17.14,0,0,0,1.752,5.712,2.292,2.292,0,0,0,2.909,1.464,6.266,6.266,0,0,1,1.8-.245,1.421,1.421,0,0,1,1.291,2.042A3.672,3.672,0,0,1,21.48,57c-3.238,1.123-6.434,1.371-9.556-.4a6.853,6.853,0,0,1-3.27-3.656,1.067,1.067,0,0,0,.155-1.037,40.306,40.306,0,0,1-.946-4.917c-.053-.419-.113-.87-.644-.781-.49.083-.382.541-.35.895a41.7,41.7,0,0,0,.993,5.311.81.81,0,0,0,.477.58c-.112.9-.231,1.8-.334,2.7-.057.5-.259.83-.788.782-.985-.088-1.969-.177-2.952-.288-.479-.054-.61-.422-.607-.869C3.7,48.927,2.839,42.6,2.473,36.232A60.788,60.788,0,0,0,0,21.506c1.109-.953,2.21-1.916,3.33-2.855,2.987-2.5,6.21-4.691,9.018-7.435a21.3,21.3,0,0,0,3.894-4.787c.213-.381.274-.642.03-.979" transform="translate(93.955 120.224)"/>
    <path id="Fill_14" data-name="Fill 14" class="cls-7" d="M30.143,21.963a76.9,76.9,0,0,0-13.8.4,80.8,80.8,0,0,1-12.213.786,18.359,18.359,0,0,1-2.911-.279C-.057,22.651-.41,20.928.538,19.754a3.939,3.939,0,0,1,2.183-1.246,27.851,27.851,0,0,1,7.16-.979c4.776.012,9.536-.428,14.3-.774,2.442-.177,4.905-.067,7.359-.088,1.784-.016,1.753-.087,2.315-1.818,1.084-3.341,1.54-6.866,3.027-10.09A19.074,19.074,0,0,1,39.2.773c.948-1.187,2.3-.971,2.987.405a9.363,9.363,0,0,1,.683,4.943c.583-.617,1.027-1.127,1.513-1.592a2.334,2.334,0,0,1,2.676-.687c.964.424.988,1.381,1.057,2.275a16.955,16.955,0,0,1-1.253,6.443c-.349,1.1-.774,2.167-1.154,3.252-.2.559-.058.761.59.681,6.325-.781,12.646-1.583,18.912-2.772a33.183,33.183,0,0,1,5.877-.256,80.482,80.482,0,0,1,10.783.165,4.745,4.745,0,0,1,2.456,1.148,1.69,1.69,0,0,1-.54,3.062c-2.72.838-5.532,1.317-8.292,1.991-6.387,1.559-12.907.691-19.346,1.246-2.867.248-5.736.465-8.6.7a13.641,13.641,0,0,1-3.013.171q-7.2.012-14.392.018" transform="translate(0 6.234)"/>
    <path id="Fill_16" data-name="Fill 16" class="cls-6" d="M58.5,0c-.065.665-.683.866-1.084,1.2a13.993,13.993,0,0,0-2.97,3.31,4.133,4.133,0,0,1-2.223,1.712,4.524,4.524,0,0,0-2.636,2.415,2.87,2.87,0,0,0,.351,3.1,2.168,2.168,0,0,0,2.506.667,9.114,9.114,0,0,0,2.423-.833c.356-.2.388-.054.356.247l-.005-.019a138.425,138.425,0,0,1-9.25,11.209,30.412,30.412,0,0,1-4.258,2.968c-.183-.062-.389-.256-.556-.113-.79.674-1.852.869-2.64,1.539a46.479,46.479,0,0,1-6.571,2.352c-.289-.541-.686-.447-1.17-.266A22.68,22.68,0,0,1,26.305,31c1.15-.792,2.339-1.5,3.489-2.262a6.346,6.346,0,0,0,1.148-1.09.84.84,0,0,0,.1-1.1c-.235-.3-.606-.147-.917-.021a15.524,15.524,0,0,0-1.645.676c-1.976,1.073-3.933,2.181-5.9,3.276a11.59,11.59,0,0,1-3.115,1.306,2.243,2.243,0,0,1,.782-.838,18.7,18.7,0,0,0,2.528-2.529c.348-.47.779-1.089.257-1.617-.453-.46-1,.021-1.423.278a35.114,35.114,0,0,0-4.841,3.8A23.769,23.769,0,0,0,10.13,41.433c-.587,1.256-.824,2.669-1.683,3.8a1.353,1.353,0,0,1-1.566.019c-.667-.657-1.153-.4-1.734.036a7.278,7.278,0,0,1-.924.515c-.544.274-1.143-.355-1.657.074a1.95,1.95,0,0,1-1.825.346,2.256,2.256,0,0,1-.462-2.8,21.188,21.188,0,0,1,4.054-7H4.312l.245-.109a3.3,3.3,0,0,0,.93-.908l.007-.007c.175-.026.211-.14.181-.294a2.928,2.928,0,0,0,.984-.635c2.288-1.813,4.169-4.1,6.571-5.77,2.017-1.4,3.852-3.025,5.8-4.508,2.427-1.571,5.172-2.472,7.752-3.717a23.572,23.572,0,0,0,8.432-6.645,37.155,37.155,0,0,1,10.4-9.072A32.853,32.853,0,0,1,55.39.559C56.419.335,57.463.184,58.5,0" transform="translate(50.523 49.871)"/>
    <path id="Fill_18" data-name="Fill 18" class="cls-3" d="M26.567,1.347c-.27.9-.527,1.812-.816,2.71-.162.505-.021.775.493.954a18.183,18.183,0,0,0,4.143.831,15.755,15.755,0,0,1,2.409.47,20.6,20.6,0,0,1-1.923,6.625A38.807,38.807,0,0,1,22.529,23.15,29.781,29.781,0,0,1,6.872,18.9,18.831,18.831,0,0,1,.659,13.013,2,2,0,0,0,0,12.3C1.43,9.743,1.826,6.865,2.575,4.1l.005.018c.214-.643.8-.838,1.336-1.092,1.428.257,1.438.25,1.807-1.252A7.35,7.35,0,0,1,10.906.033c-.25,1.107-.472,2.222-.762,3.319-.193.728,0,1.019.775,1.171a57.828,57.828,0,0,0,8.7.73.835.835,0,0,0,.988-.7c.251-.939.526-1.871.791-2.807a11.1,11.1,0,0,0,5.169-.4" transform="translate(104.591 57.886)"/>
    <path id="Fill_20" data-name="Fill 20" class="cls-2" d="M38.114,14.718a20.957,20.957,0,0,0-4.086,6.944,2.214,2.214,0,0,0,.466,2.78c-.395.4-.991.407-1.429.724a2.055,2.055,0,0,0-1.208.473l-2.966.955-5.424.95a33.448,33.448,0,0,1-5.351-.113c-.125-.045-.248-.1-.376-.134A24.722,24.722,0,0,1,3.237,16.67,34.293,34.293,0,0,1,.506,8.433,38.439,38.439,0,0,1,0,2.631,20.73,20.73,0,0,0,5.344,1.446C7.134.934,8.9.346,10.74,0a.6.6,0,0,0,.826.459,47.008,47.008,0,0,0,3.276,10.566c1.911,4.051,4.848,5.661,9.34,5.156,1.816-.2,3.645-.294,5.469-.436l.705-.041a17.608,17.608,0,0,0,6.508-.821c.421-.021.807-.3,1.249-.163" transform="translate(17.727 70.353)"/>
    <path id="Fill_22" data-name="Fill 22" class="cls-8" d="M30.143,18.393a12.5,12.5,0,0,1,.031,1.623,1.059,1.059,0,0,0,.849,1.3,2.245,2.245,0,0,1-1.84,1.837A21.912,21.912,0,0,1,15.8,22.843c-4.091-1.487-6.652-4.439-6.992-8.787C8.734,13.131,8.8,12.2,8.8,11.218c-.51.11-.461.513-.541.767-.761,2.434-1.521,4.868-2.2,7.321a1.415,1.415,0,0,1-1.23,1.1c-1.224.25-2.456.466-3.674.74C.28,21.34-.007,21.069,0,20.227A61.273,61.273,0,0,1,1.522,7.689C2.07,5.17,2.631,2.654,3.186.138A1.268,1.268,0,0,1,4.153.054C5.278.239,6.412.382,7.542.541a20.271,20.271,0,0,0,5.289.5c2.236.026,4.429.587,6.675.48a2.923,2.923,0,0,0,1.5.088A35,35,0,0,0,25.264.764a10.958,10.958,0,0,1-1.524,2.6,14.3,14.3,0,0,0-2.848,8.12,4.521,4.521,0,0,0,2.916,4.927,16.035,16.035,0,0,0,2.623.747,11.223,11.223,0,0,1,3.711,1.231" transform="translate(19.5 154.955)"/>
    <path id="Fill_24" data-name="Fill 24" class="cls-7" d="M8.157,59.667c-1.092-.161-2.187-.307-3.275-.495a1.17,1.17,0,0,0-.934.085c-.41-.316-.886-.125-1.329-.163C1.572,59,.557,58.826.12,57.709a2.774,2.774,0,0,1,1.11-2.938,26.453,26.453,0,0,0,7.344-9.444,74.6,74.6,0,0,1,3.3-7.319c1.1-1.926,2.379-3.753,3.554-5.639.448-.719.829-1.481,1.24-2.223a3.366,3.366,0,0,0,1.711-1.529c1.993-2.7,4.017-5.393,5.775-8.256a57.573,57.573,0,0,0,4.679-8.59c1.356-3.387,1.548-6.979,1.773-10.561.429-.314,1.015-.323,1.4-.718A1.937,1.937,0,0,0,33.816.152c.508-.421,1.1.2,1.639-.072q-.036,2.5-.308,4.992a43.265,43.265,0,0,1-4.125,14.645c-1.754,3.552-4.152,6.719-6.237,10.074-1.827,2.94-4.168,5.537-5.765,8.639a98.861,98.861,0,0,1-7.675,12.524,16.4,16.4,0,0,0-3.187,8.713" transform="translate(20.386 95.289)"/>
    <path id="Fill_26" data-name="Fill 26" class="cls-3" d="M11.893,39.22a17.239,17.239,0,0,1-6.4.811A3.857,3.857,0,0,0,5.477,38.1a68.468,68.468,0,0,1-.62-12.388,37.7,37.7,0,0,0-.827-12.151A27.252,27.252,0,0,0,0,5.567l.225-.236c.475.5.957.984,1.424,1.487.328.354.591.883,1.191.628.551-.233.389-.793.36-1.217A25.85,25.85,0,0,0,2,0,17.5,17.5,0,0,1,4.148,1.989,10.172,10.172,0,0,0,7.255,3.814a1.982,1.982,0,0,0,1.152.031c3.444-.578,5.531.4,7.31,3.377a37.906,37.906,0,0,1,2.9,6.6,20.931,20.931,0,0,1-4.348,2.516c-.273-.549-.539-1.1-.819-1.646a.551.551,0,0,0-.631-.346.456.456,0,0,0-.361.6c.387.933.5,2.017,1.419,2.671.078.282.161.561.23.844a42.487,42.487,0,0,1,.9,6.449,7.823,7.823,0,0,0,1.071,5.052,41.885,41.885,0,0,1-7.837,1.768c-.533.052-1.467-.05-1.41.681.058.75.961.745,1.613.71,1.121-.061,2.238-.18,3.357-.274a6.954,6.954,0,0,1-1.484.9,9.388,9.388,0,0,0-2.395,1.509c-.2.2-.447.444-.286.768.152.306.472.317.774.308a3.86,3.86,0,0,0,1.509-.4c.29-.134.574-.336.937-.161-.09.387-.466.522-.7.773-.38.405-1.195.734-.713,1.372.4.527,1.1.094,1.627-.14.295-.13.54-.367.824-.526.174-.1.371-.323.579-.037-.013.622-1.146.85-.58,1.666q0,.166.008.333" transform="translate(41.659 46.308)"/>
    <path id="Fill_28" data-name="Fill 28" class="cls-8" d="M24.069,0a44.185,44.185,0,0,1,1.5,15.726.994.994,0,0,1-.908,1.075,17.338,17.338,0,0,0-4.524,1.294c-.743.347-1.03-.057-1.078-.751a50.413,50.413,0,0,0-.8-5.521c-.037-.205.014-.467-.285-.561-1.009,6.193-7.2,10.832-12.163,11.728a6.651,6.651,0,0,1-4.95-.738c-1.139-.723-1.144-1.7-.044-2.471a5.3,5.3,0,0,1,2.8-.675A3.993,3.993,0,0,0,6.8,17.2,14.14,14.14,0,0,0,8.931,9.785a45.7,45.7,0,0,0,.009-4.617c.59-.524,1.42-.648,2.044-1.114a22.806,22.806,0,0,0,5.031-2.477c2.048-.49,4.053-1.147,6.151-1.439L24.069,0" transform="translate(66.477 152.284)"/>
    <path id="Fill_30" data-name="Fill 30" class="cls-2" d="M6.954,2.592A19.222,19.222,0,0,0,11.017,0c1.195,1.869,2.44,3.7,3.572,5.616,1.6,2.7,3.537,5.154,4.912,8.02-1.8,1.5-3.5,3.142-5.373,4.556-2.226,1.685-3.967,4-6.086,5.831a2.711,2.711,0,0,1-.912.642c-.1.068-.226.121-.168.3l-.007.007c-.407-.169-.7.111-.984.336a1.72,1.72,0,0,1-1.24.514c-.529-.84.53-1.075.542-1.716-.194-.3-.378-.062-.541.038-.265.164-.495.408-.77.542-.494.24-1.148.687-1.519.144-.45-.658.311-1,.666-1.415.22-.259.572-.4.656-.8-.34-.179-.6.028-.876.166a3.344,3.344,0,0,1-1.41.408c-.282.01-.582,0-.723-.317-.15-.334.076-.59.267-.792A8.68,8.68,0,0,1,3.26,20.527a6.411,6.411,0,0,0,1.387-.93c-1.045.1-2.09.22-3.137.283C.9,19.917.057,19.921,0,19.149c-.053-.753.819-.648,1.317-.7a36.087,36.087,0,0,0,7.323-1.822l1.481-.371c-.041.282-.009.455.324.361a13.653,13.653,0,0,0,4.4-1.979c.23-.167.655-.31.412-.744s-.541-.077-.781.078a9.321,9.321,0,0,1-3.28,1.513C10.084,14.053,8.7,12.9,7.642,11.42A48.022,48.022,0,0,0,6.8,4.776c-.065-.292-.143-.58-.215-.869.664-.256.444-.809.366-1.314" transform="translate(49.636 59.667)"/>
    <path id="Fill_32" data-name="Fill 32" class="cls-9" d="M4.4,15.139a.665.665,0,0,1-.136-.015.8.8,0,0,1-.618-.769,4.006,4.006,0,0,1,.209-2.584,4.159,4.159,0,0,1,2.055-1.623,6.525,6.525,0,0,1,1.747-.527c1.46-.249,1.46-.249,1.378-1.676a.237.237,0,0,0-.051-.1c-.016-.024-.034-.051-.053-.083a2.019,2.019,0,0,1-1.385.7A1.626,1.626,0,0,1,6.858,8.3,2.153,2.153,0,0,1,5.733,6.313,4.992,4.992,0,0,1,6.882,2.387a1.028,1.028,0,0,0-.372-.067,2.171,2.171,0,0,0-.581.105l-.013,0a2.025,2.025,0,0,1-.543.1.8.8,0,0,1-.359-.081.907.907,0,0,0-.381-.112c-.3,0-.353.328-.369.648-.03.645-.073,1.3-.113,1.935S4.07,6.188,4.04,6.82c-.018.365-.026.736-.034,1.095A18,18,0,0,1,3.83,10.46c-.081.491-.308.751-.656.751a1.208,1.208,0,0,1-.52-.144,1.475,1.475,0,0,1-1-1.56A12.429,12.429,0,0,0,1.6,6.919c-.013-.1-.025-.2-.037-.306C1.458,5.683,1.345,4.72.089,4.489a6.515,6.515,0,0,1,.16-2.716C.3,1.5.363,1.21.408.928.435.754.472.579.509.409.525.334.541.259.556.185l2.839,0h.048c3.7,0,7.532-.008,11.3-.015h.506l.454,0A9.265,9.265,0,0,0,17.71,0a11.92,11.92,0,0,1-.124,2.263c-.062.521-.126,1.06-.138,1.591-.01.214-.021.429-.032.645-.023.446-.047.906-.06,1.36a6.955,6.955,0,0,1-.4,2.067.737.737,0,0,1-.7.581.947.947,0,0,1-.18-.018c-.376-.074-.556-.341-.536-.795,0-.1.008-.205.012-.308a10.958,10.958,0,0,1,.081-1.129,19.19,19.19,0,0,0,.154-4.209c-.032-.4-.217-.808-.51-.808a.333.333,0,0,0-.091.013,1.519,1.519,0,0,1-.419.051c-.127,0-.259-.01-.375-.019s-.252-.019-.376-.019a1.177,1.177,0,0,0-.923.36A.656.656,0,0,1,12.6,1.8a1.794,1.794,0,0,1-.616-.128,2.084,2.084,0,0,0-.733-.138H11.16a6.892,6.892,0,0,0-1.58.246,8.388,8.388,0,0,1-1.351.242A2.41,2.41,0,0,1,9.794,4.162c.029.354.162.413.448.413l.114,0c.644-.02.741-.438.835-.844a2.339,2.339,0,0,1,.116-.4c.346-.8.74-1.337,1.537-1.337.041,0,.084,0,.127,0A1.921,1.921,0,0,1,14.5,3.85a13.816,13.816,0,0,1-.079,2.2A2.774,2.774,0,0,1,12.033,8.3h-.019a.73.73,0,0,1-.206-.048.757.757,0,0,0-.223-.051c-.105,0-.175.058-.218.184a.969.969,0,0,0,.013.739.23.23,0,0,0,.207.116.886.886,0,0,0,.262-.061,1.055,1.055,0,0,1,.236-.06c.227-.018.43-.027.62-.027,1.6,0,2.276.7,2.319,2.414,0,.127.013.256.022.381,0,.066.01.129.013.193,0,.183,0,.366,0,.549,0,.411,0,.835.024,1.252a1.145,1.145,0,0,1-.216.871.95.95,0,0,1-.715.257,2.166,2.166,0,0,1-1.035-2c-.008-.174,0-.352.007-.524a2.586,2.586,0,0,0-.155-1.248c-.3.033-.608.059-.905.084a8.318,8.318,0,0,0-4.273,1.165c-.183-.018-.349-.026-.507-.026a1.732,1.732,0,0,0-1.965,1.6,1.468,1.468,0,0,1-.212.48c-.025.043-.05.085-.073.127A.751.751,0,0,1,4.4,15.139ZM10.367,6.1h-.015a.64.64,0,0,0-.443.167.359.359,0,0,0-.1.267c.007.228,0,.464-.012.692a3.57,3.57,0,0,0,.5,2.395,4.748,4.748,0,0,0,.286-2.189c-.009-.274-.018-.558-.005-.833,0-.033.008-.072.014-.112.018-.114.038-.243-.028-.32A.245.245,0,0,0,10.367,6.1Z" transform="translate(31.023 27.607)"/>
    <path id="Fill_34" data-name="Fill 34" class="cls-7" d="M13.209,25.826c-5.2-4.5-8.522-10.26-10.723-16.79A46.392,46.392,0,0,1,.074.687C.043.459.024.228,0,0,.132.426.447.545.843.659A18.242,18.242,0,0,0,4.337.99C4.758,2.384,5.363,3.7,5.9,5.046c2.05,5.092,5.24,9.407,8.687,13.548A13.261,13.261,0,0,0,16.841,20.9a33.765,33.765,0,0,1-3.632,4.924" transform="translate(23.045 97.96)"/>
    <path id="Fill_36" data-name="Fill 36" class="cls-10" d="M1.162,2.241c1.38.265,1.365,1.475,1.5,2.51A13.5,13.5,0,0,1,2.7,7.425,1.546,1.546,0,0,0,3.7,9.037c.634.326,1.046.113,1.163-.628a34.011,34.011,0,0,0,.208-3.76c.061-1.321.163-2.64.222-3.96.025-.548.164-.848.742-.554C6.632.44,7.191-.2,7.879.07A5.357,5.357,0,0,0,6.743,4.126,2.237,2.237,0,0,0,7.856,6.173,1.663,1.663,0,0,0,9.9,5.62c.052.094.1.143.1.194.081,1.475.08,1.474-1.362,1.731a6.3,6.3,0,0,0-1.728.544C4.83,9.122,4.329,10.076,4.677,12.434a.83.83,0,0,0,.612.794c.359.079.6-.161.763-.469a2.119,2.119,0,0,0,.281-.626c.232-1.5,1.218-1.753,2.445-1.631,1.893.365,3.719.449,5.119-1.29a4.691,4.691,0,0,1,.146,1.83,2.3,2.3,0,0,0,1.024,2.068L14.6,14.378c-.489-.173-.734.078-.859.534-.728.8-1.777,1-2.656,1.521a.645.645,0,0,0-1.047.278,9.9,9.9,0,0,1-5.051-.256c-.258-.271-.466-.612-.85-.715-.291-.078-.568-.678-.887-.037a.332.332,0,0,0-.146.058,2.44,2.44,0,0,1-.152-1.823c.1-.693.081-1.386.135-2.076A3.352,3.352,0,0,0,2.006,9.172,7.4,7.4,0,0,1,.025,4.986,2.771,2.771,0,0,1,1.162,2.241" transform="translate(27.477 30.279)"/>
    <path id="Fill_38" data-name="Fill 38" class="cls-11" d="M10.154.586c.121-.453.358-.7.831-.531l.677,1.488a27.62,27.62,0,0,1,1.13,6.267c.027.427.18.989-.338,1.224-.564.256-.811-.276-1.12-.632-.439-.506-.891-1-1.339-1.5-.19-.335-.32-.74-.9-.857l.688,1.093a28.215,28.215,0,0,1,3.789,8.043,40.549,40.549,0,0,1,.777,12.224,73.62,73.62,0,0,0,.583,12.463,4.142,4.142,0,0,1,.017,1.942l-.653.042a6.1,6.1,0,0,1-.4-2.385,57.583,57.583,0,0,1-.652-9.912c.176-2.629.165-5.254.147-7.88A23.037,23.037,0,0,0,9.365,8.415,15.031,15.031,0,0,1,7.512,4.467a5.427,5.427,0,0,0-.406,2.145,29.519,29.519,0,0,1-.343,3.128c-.073.34,0,.768-.441.879-.463.116-.771-.176-1.006-.54C4.723,9.16,4.175,8.207,3.564,7.3,2.416,5.6,1.6,3.663.256,2.1A2.221,2.221,0,0,1,0,1.372c.308-.637.577-.041.858.036.372.1.573.441.823.71a70.27,70.27,0,0,0,4.2,6.837c.241-2.323.462-4.453.684-6.583A.617.617,0,0,1,7.583,2.1C9.27,3.4,10,5.609,11.719,7.157A19.169,19.169,0,0,0,10.154.586" transform="translate(32.795 45.418)"/>
    <path id="Fill_40" data-name="Fill 40" class="cls-3" d="M6.363,11.577A20.486,20.486,0,0,1,2.7,11.254c-.415-.111-.745-.227-.883-.642C1.2,7.076.446,3.563,0,0A24.994,24.994,0,0,0,14.687,10.4c.13.033.254.087.381.131l-1.771.4a58.057,58.057,0,0,1-6.935.648" transform="translate(20.386 88.164)"/>
    <path id="Fill_42" data-name="Fill 42" class="cls-12" d="M4.967,9.65,3.021,9.8a6.691,6.691,0,0,0-.306-1.065C1.824,6.839.908,4.958,0,3.073L5.567,0c-.456,1.253.454,2.206.805,3.264a23,23,0,0,0,1.289,2.49c.792,1.658.057,3.122-1.8,3.662-.295.085-.593.156-.89.235" transform="translate(86.864 142.488)"/>
    <path id="Fill_44" data-name="Fill 44" class="cls-10" d="M6.246,11.577c-.011-.2-.029-.408-.033-.612-.047-2.239-.965-2.712-2.687-2.549-.222.021-.5.277-.645,0a1.2,1.2,0,0,1-.012-.789c.113-.379.4-.093.593-.09a2.741,2.741,0,0,0,2.2-2.4,17.337,17.337,0,0,0,.072-2.355c-.028-.971-.7-1.919-1.4-1.975-.855-.069-1.227.623-1.522,1.424-.189.513-.081,1.3-.869,1.323-.317.011-.482,0-.514-.439A2.563,2.563,0,0,0,0,.837,26.238,26.238,0,0,1,2.759.318,1.664,1.664,0,0,1,3.43.465c.343.154.784.229,1.016-.053.573-.7,1.286-.189,1.914-.4.3-.1.516.348.549.849a23.959,23.959,0,0,1-.141,4.495c-.061.507-.066,1.023-.085,1.536-.016.416.1.76.49.848.415.095.679-.161.807-.6a8.54,8.54,0,0,0,.368-2.208c.017-.717.056-1.433.084-2.141A3.414,3.414,0,0,1,9.669,6.434a9.734,9.734,0,0,1-.747,2.385c-.2.461-.456.961-.942.97-1.05.021-1.455.8-1.733,1.787" transform="translate(38.114 29.388)"/>
    <path id="Fill_46" data-name="Fill 46" class="cls-9" d="M.217,28.216a33.812,33.812,0,0,0,3.649-4.929c.661-.931,1.378-1.826,1.966-2.8a7.357,7.357,0,0,0,1.424-2.638,20.009,20.009,0,0,0,2.682-4.576A15.845,15.845,0,0,0,12.33,6.655,31.891,31.891,0,0,0,13.008.475,1.955,1.955,0,0,1,14.182,0c-.223,3.638-.413,7.285-1.756,10.726a58.919,58.919,0,0,1-4.634,8.724c-1.741,2.909-3.746,5.639-5.72,8.386A3.366,3.366,0,0,1,.376,29.388a.737.737,0,0,1-.159-1.172" transform="translate(36.341 96.179)"/>
    <path id="Fill_48" data-name="Fill 48" class="cls-7" d="M8.864,4.5c-.651.515-1.516.651-2.13,1.23-.986.064-1.69.78-2.552,1.134A17.128,17.128,0,0,1,1.665,7.907C.345,8.219-.072,7.885.01,6.49c.06-1.024.142-2.046.214-3.069A18.561,18.561,0,0,1,5.028,0,21.394,21.394,0,0,0,8.864,4.5" transform="translate(70.023 152.284)"/>
    <path id="Fill_50" data-name="Fill 50" class="cls-10" d="M3.059,6.234A5.137,5.137,0,0,1,.712,5.67c-1.46-1.651-.376-3.077.58-4.334A5.6,5.6,0,0,1,5.019,0c.2,0,.413.009.623.027C6.949.509,7.74,1.19,7.931,2A2.879,2.879,0,0,1,6.9,4.548,5.293,5.293,0,0,1,3.059,6.234ZM4.945,1.553a2.315,2.315,0,0,0-.52.064,1.883,1.883,0,0,0-1.4.648A2.2,2.2,0,0,0,2.02,3.6a.869.869,0,0,0,.029.808.9.9,0,0,0,.78.309,2.356,2.356,0,0,0,.354-.029A3.8,3.8,0,0,0,5.619,3.338c.345-.419.655-.866.324-1.329A1.165,1.165,0,0,0,4.945,1.553Z" transform="translate(109.023 43.637)"/>
    <path id="Fill_52" data-name="Fill 52" class="cls-7" d="M7.959,5.343A29.823,29.823,0,0,1,1.473,3.236C.833,2.936-.077,2.589.005,1.7S.974.452,1.731.3A17.676,17.676,0,0,1,7.977.259L7.959,5.343" transform="translate(117.886 81.93)"/>
    <path id="Fill_54" data-name="Fill 54" class="cls-11" d="M17.563.044c.254.317.19.562-.031.921a20.572,20.572,0,0,1-4.046,4.5c-2.917,2.58-6.265,4.636-9.368,6.99-1.163.882-2.307,1.789-3.459,2.684l-.592-.147c-.309-.861.523-1.072.971-1.444,3-2.494,6.329-4.584,9.428-6.956a24.071,24.071,0,0,0,6.3-6.369.833.833,0,0,1,.8-.18" transform="translate(93.068 124.677)"/>
    <path id="Fill_56" data-name="Fill 56" class="cls-7" d="M4.244,5.343A17.77,17.77,0,0,1,.809,2.818,3.12,3.12,0,0,1,.088,1.635,1.168,1.168,0,0,1,1.183,0a5.309,5.309,0,0,1,2.81,1.064c.461.246.885.564,1.325.85A10.173,10.173,0,0,1,4.244,5.343" transform="translate(118.773 100.632)"/>
    <path id="Fill_58" data-name="Fill 58" class="cls-9" d="M.391.71C.489.259.7.052,1.084.065A12.338,12.338,0,0,0,2.663.007c.775-.074,1.022.422.809,1.29-.315,1.285-.693,2.545-1.045,3.816C1.069,5.7.225,5.145.071,3.547.043,3.255.023,2.961,0,2.668L.391.71" transform="translate(111.682 37.403)"/>
    <path id="Fill_60" data-name="Fill 60" class="cls-11" d="M.242,8.905a.875.875,0,0,1-.194-.934A34.253,34.253,0,0,1,2.581.514c.152-.32.343-.66.712-.448.42.242.224.633.067.968A33.129,33.129,0,0,0,.849,8.6a.862.862,0,0,1-.606.3" transform="translate(55.841 163.861)"/>
    <path id="Fill_62" data-name="Fill 62" class="cls-6" d="M1.33.157c.021.209.039.419.065.628.141,1.14.911,1.54,2.151,1.118L3.4,2.392A3.82,3.82,0,0,0,.143,3.562C.1,3.469,0,3.369.012,3.284A5.754,5.754,0,0,0,.035.586C-.148.019.407-.163,1.33.157" transform="translate(110.795 40.965)"/>
    <path id="Fill_64" data-name="Fill 64" class="cls-11" d="M.654,6.234A.843.843,0,0,1,.446,5.7C.277,4.089.084,2.487.014.83,0,.507-.047.086.167.01.4-.071.424.343.447.726Q.586,3.01.859,5.236a1.91,1.91,0,0,1-.068.951l-.137.047" transform="translate(101.045 164.751)"/>
    <path id="Fill_66" data-name="Fill 66" class="cls-12" d="M.031.706.856.13C.813.659.551.869.031.706" transform="translate(90.409 140.706)"/>
    <path id="Fill_68" data-name="Fill 68" class="cls-10" d="M17.322,7.638a10.889,10.889,0,0,0-2.57,1.319,34.781,34.781,0,0,1-8.386,3.236,10.857,10.857,0,0,0-4.078,1.7C1.46,14.189,1,15.153,0,15.139A23.863,23.863,0,0,1,6.745,4.529,35.671,35.671,0,0,1,11.663.709c.427-.257.985-.741,1.446-.279.529.531.092,1.153-.262,1.626A18.849,18.849,0,0,1,10.279,4.6a2.267,2.267,0,0,0-.794.842,11.824,11.824,0,0,0,3.164-1.313c2-1.1,3.984-2.214,5.991-3.293A16.014,16.014,0,0,1,20.311.154c.317-.126.693-.282.932.022a.838.838,0,0,1-.1,1.106,6.416,6.416,0,0,1-1.166,1.1c-1.168.77-2.376,1.479-3.544,2.275A23.163,23.163,0,0,0,20.97,3.13c.492-.182.895-.277,1.189.268a6.05,6.05,0,0,1-2.326,2.424c-.846.594-1.675,1.21-2.512,1.816" transform="translate(60.273 75.697)"/>
    <path id="Fill_70" data-name="Fill 70" class="cls-7" d="M.239,35.612C-.292,35.09.2,34.69.384,34.253a3.075,3.075,0,0,0,.6-.882,10.569,10.569,0,0,0,1.128-7.02,28.914,28.914,0,0,1,3-13.2C8.14,7.262,12.212,2.542,18.372.254c.376-.14.914-.563,1.1.141.161.605-.447.7-.847.856a18.988,18.988,0,0,0-5.314,3.01c-.859.708-.835.674.089,1.226a8.736,8.736,0,0,1,3.143,3.1,1.4,1.4,0,0,1-.075,1.9,1.44,1.44,0,0,1-1.926.12,31.589,31.589,0,0,1-3.24-2.41c-1.042-.949-1.15-.938-2.007.167a29.974,29.974,0,0,0-4.531,8.052c-.22.6-.19.933.388,1.267a23.11,23.11,0,0,1,3.56,2.458A5.1,5.1,0,0,1,10.021,21.7c.531,1.068.232,1.641-.891,1.812a5.708,5.708,0,0,1-4.9-1.588c-.185-.17-.348-.492-.611-.407-.348.112-.205.51-.242.786a29.762,29.762,0,0,0-.1,6.2A13.066,13.066,0,0,1,3.206,30.1a14.327,14.327,0,0,1-2.067,4.94c-.239.322-.452.643-.9.573" transform="translate(82.432 82.821)"/>
    <path id="Fill_72" data-name="Fill 72" class="cls-7" d="M7.691,6.231A8.313,8.313,0,0,1,4.6,5.189,13.1,13.1,0,0,1,1.084,2.748,3.91,3.91,0,0,1,.039.955C-.131.281.26-.085,1.027.017A10.925,10.925,0,0,1,3.8,1.1,11.825,11.825,0,0,1,7.871,3.553a3.466,3.466,0,0,1,.921,1.468c.239.861-.12,1.252-1.1,1.21" transform="translate(102.818 99.741)"/>
    <path id="Fill_74" data-name="Fill 74" class="cls-7" d="M1.792,0A7.357,7.357,0,0,1,5.113,1.367c1.037.67,2.018,1.418,3.012,2.145a1.418,1.418,0,0,1,.53,1.982,1.461,1.461,0,0,1-1.871.646A13.124,13.124,0,0,1,.307,2.164a1.081,1.081,0,0,1-.1-1.4A1.548,1.548,0,0,1,1.792,0" transform="translate(102.818 113.99)"/>
    <path id="Fill_76" data-name="Fill 76" class="cls-7" d="M0,3.154A5.564,5.564,0,0,1,1.341,0,29.454,29.454,0,0,1,6.758,3.371,3.24,3.24,0,0,1,7.847,4.818c.347.92-.005,1.458-1,1.413A9.17,9.17,0,0,1,3.289,5.012C2.158,4.462,1.093,3.779,0,3.154" transform="translate(77.114 84.602)"/>
    <path id="Fill_78" data-name="Fill 78" class="cls-7" d="M7.343,5.342A15.869,15.869,0,0,1,.988,2.735a2.084,2.084,0,0,1-.462-.472C.112,1.675-.236.979.2.347.619-.248,1.356.056,1.877.277a43.533,43.533,0,0,1,5.61,2.569,3.423,3.423,0,0,1,.923.8c.282.355.6.73.379,1.184-.235.481-.751.517-1.446.509" transform="translate(105.477 85.493)"/>
    <path id="Fill_80" data-name="Fill 80" class="cls-3" d="M6.018,0A9.773,9.773,0,0,1,4.744,7.119a3.123,3.123,0,0,1-.679.9A60.5,60.5,0,0,1,0,.191,8.915,8.915,0,0,0,6.018,0" transform="translate(78 108.647)"/>
    <path id="Fill_82" data-name="Fill 82" class="cls-7" d="M1.528,7.323A23.418,23.418,0,0,1,0,0C1.631,1.709,3.273,3.406,4.886,5.134a1.619,1.619,0,0,1,.086,2.1,1.551,1.551,0,0,1-2,.628,9.119,9.119,0,0,0-1.442-.542" transform="translate(74.455 96.179)"/>
    <path id="Fill_84" data-name="Fill 84" class="cls-7" d="M0,1.283,2.464,0a15.934,15.934,0,0,1,3.4,3.777c.251.382.529.882.172,1.315-.376.458-.889.184-1.316.009A10.43,10.43,0,0,1,0,1.283" transform="translate(100.159 69.463)"/>
    <path id="Fill_86" data-name="Fill 86" class="cls-7" d="M0,1.344C.812.778,1.906.613,2.721.043c.173-.121.384.044.573.1.519.362,1.043.72,1.555,1.09a4.255,4.255,0,0,1,.72.6c.372.428.912.914.468,1.436-.409.481-1.118.282-1.708.127A18.725,18.725,0,0,1,0,1.344" transform="translate(89.523 74.806)"/>
    <path id="Fill_88" data-name="Fill 88" class="cls-12" d="M1.78,0A13.636,13.636,0,0,1,6.323,3.438a44.285,44.285,0,0,1,4.314,5.069c-1.382,1.7-2.873,3.279-4.369,4.851A43.5,43.5,0,0,0,0,6.064,44.844,44.844,0,0,0,1.78,0" transform="translate(69.136 112.209)"/>
    <path id="Fill_90" data-name="Fill 90" class="cls-7" d="M3.473,0A43.465,43.465,0,0,1,9.75,7.287C8.012,9.532,5.83,11.25,3.978,13.358A49.845,49.845,0,0,0,0,8.6C.437,7.59.9,6.587,1.306,5.559,2.044,3.714,2.752,1.854,3.473,0" transform="translate(64.705 117.552)"/>
    <path id="Fill_92" data-name="Fill 92" class="cls-7" d="M5.908,0C6.8,1.834,7.692,3.665,8.564,5.506a6.441,6.441,0,0,1,.3,1.037c-2.1.3-4.107.972-6.157,1.472A36.842,36.842,0,0,1,0,3.249C1.925,2.089,3.888,1,5.908,0" transform="translate(79.773 146.05)"/>
    <path id="Fill_94" data-name="Fill 94" class="cls-13" d="M3.254,0A53.5,53.5,0,0,1,7.977,4.845L3.4,9.8.013,6.149a1.106,1.106,0,0,1,.222-.767Q1.745,2.691,3.254,0" transform="translate(60.273 124.677)"/>
    <path id="Fill_96" data-name="Fill 96" class="cls-13" d="M6.111,0A41.5,41.5,0,0,0,8.864,5.231,22.36,22.36,0,0,1,3.745,8.015,21.576,21.576,0,0,1,0,3.437,41.359,41.359,0,0,1,6.111,0" transform="translate(73.568 147.831)"/>
    <path id="Fill_98" data-name="Fill 98" class="cls-7" d="M3.286,0,6.2,3.466A46.784,46.784,0,0,0,2.871,8.015,18.42,18.42,0,0,0,0,5.719a30.652,30.652,0,0,0,2.567-4.65C2.747.678,2.834.2,3.286,0" transform="translate(58.5 132.692)"/>
    <path id="Fill_100" data-name="Fill 100" class="cls-6" d="M10.636,1.783c-.249.95-.506,1.9-.742,2.852a.793.793,0,0,1-.929.706A50.248,50.248,0,0,1,.794,4.6c-.732-.155-.909-.451-.728-1.19C.338,2.294.546,1.161.781.036,3-.174,5.093.578,7.227,1.01c1.141.231,2.273.514,3.41.774" transform="translate(113.455 57.886)"/>
    <path id="Fill_102" data-name="Fill 102" class="cls-6" d="M.886,0C.705.97.7.975,0,.809A4.093,4.093,0,0,1,.886,0" transform="translate(106.364 58.776)"/>
    <path id="Fill_104" data-name="Fill 104" class="cls-11" d="M.647,5.31c-.281.1-.47-.03-.55-.438A25.07,25.07,0,0,0,.025.936C-.01.553-.061.1.285.013c.386-.1.456.37.494.788a36.044,36.044,0,0,1,.1,3.661,1.309,1.309,0,0,1-.234.848" transform="translate(27.477 66.791)"/>
    <path id="Fill_106" data-name="Fill 106" class="cls-11" d="M.886.457C.878.686.807.884.546.89.187.9.072.635.012.394-.04.188.082.017.347,0,.73-.021.781.259.886.457" transform="translate(43.432 81.04)"/>
    <path id="Fill_108" data-name="Fill 108" class="cls-11" d="M.886.5C.841.727.743.921.458.887A.474.474,0,0,1,0,.417.374.374,0,0,1,.392,0c.368-.014.42.26.495.5" transform="translate(40.773 72.134)"/>
    <path id="Fill_110" data-name="Fill 110" class="cls-11" d="M.886.426A.413.413,0,0,1,.494.887.4.4,0,0,1,0,.519.432.432,0,0,1,.432,0c.28-.013.422.161.454.425" transform="translate(39.886 58.776)"/>
    <path id="Fill_112" data-name="Fill 112" class="cls-11" d="M.463.891A.427.427,0,0,1,0,.489.408.408,0,0,1,.428,0,.428.428,0,0,1,.883.394c.032.279-.155.441-.42.5" transform="translate(40.773 65.01)"/>
    <path id="Fill_114" data-name="Fill 114" class="cls-7" d="M28.565,1.213c.99.013,1.448-.925,2.27-1.213a36.544,36.544,0,0,1,.738,13.6c-.474,3.291-.484,6.647-1.408,9.873a57.556,57.556,0,0,1-5.915,13.638C20.8,42.91,17.712,48.926,13.361,54.177,11.269,56.7,10.179,59.824,8.332,62.5a10.272,10.272,0,0,0-1.756,3.384C4.363,66,2.2,65.426,0,65.4c.365-.908.723-1.819,1.1-2.724a81.651,81.651,0,0,1,5.33-10.918c1.5-2.5,2.874-5.075,4.5-7.5,3.218-4.791,6.6-9.476,9.63-14.391a60.76,60.76,0,0,0,4.7-8.723c2.147-5.238,2.119-10.7,1.612-16.205.866-1.111,1.105-2.495,1.7-3.725" transform="translate(32.795 89.945)"/>
    <path id="Fill_116" data-name="Fill 116" class="cls-13" d="M31.628.371c.5,5.476.528,10.917-1.589,16.131a60.665,60.665,0,0,1-4.631,8.683c-2.986,4.892-6.322,9.555-9.5,14.325-1.607,2.416-2.962,4.978-4.44,7.468A81.613,81.613,0,0,0,6.218,57.846c-.368.9-.721,1.808-1.081,2.712A19,19,0,0,1,0,60.049,16.139,16.139,0,0,1,3.2,51.4a97.819,97.819,0,0,0,7.712-12.426c1.606-3.078,3.958-5.655,5.794-8.572,2.095-3.328,4.5-6.471,6.268-9.995A42.524,42.524,0,0,0,27.121,5.88q.27-2.47.309-4.954a7.28,7.28,0,0,0,.918-.5c.577-.427,1.06-.676,1.723-.035A1.366,1.366,0,0,0,31.628.371" transform="translate(27.477 94.398)"/>
    <path id="Fill_118" data-name="Fill 118" class="cls-14" d="M0,.645A2.894,2.894,0,0,0,1.483.278,1.629,1.629,0,0,1,2.659.037a3.413,3.413,0,0,1-1.03.657C1.494.654,1.353.6,1.358.772h.023A5.354,5.354,0,0,0,.009.891C.006.809,0,.727,0,.645" transform="translate(54.955 85.493)"/>
    <path id="Fill_120" data-name="Fill 120" class="cls-2" d="M.221.592C.214.172.445.3.665.4l-.444.2" transform="translate(55.841 85.493)"/>
    <path id="Fill_122" data-name="Fill 122" class="cls-14" d="M.285.712C.171.4.413.3.614.179.667.458.6.663.285.712" transform="translate(56.727 83.711)"/>
    <path id="Fill_124" data-name="Fill 124" class="cls-7" d="M13.3,10.69a19.063,19.063,0,0,1-2.976,4.449c-.131-.107-.272-.206-.39-.324C7.558,12.451,6,9.575,3.9,7.044A27.587,27.587,0,0,1,0,.4L1.885,0a39.828,39.828,0,0,0,5.77.111c1.831,3.547,3.182,7.3,5.64,10.579" transform="translate(33.682 98.851)"/>
    <path id="Fill_126" data-name="Fill 126" class="cls-13" d="M5.425,11.577C3.061,8.28,1.761,4.5,0,.935L5.625,0,7.977,5.105a14.71,14.71,0,0,1-2.553,6.472" transform="translate(40.773 97.07)"/>
    <path id="Fill_128" data-name="Fill 128" class="cls-7" d="M2.033,6.234,0,.969,2.659,0a35.066,35.066,0,0,1-.626,6.234" transform="translate(46.977 96.179)"/>
    <path id="Fill_130" data-name="Fill 130" class="cls-12" d="M0,68.426A10.427,10.427,0,0,1,1.774,65c1.865-2.715,2.965-5.876,5.079-8.435,4.394-5.32,7.513-11.415,11-17.285a58.419,58.419,0,0,0,5.973-13.816c.934-3.269.943-6.669,1.423-10A37.149,37.149,0,0,0,24.5,1.68,10.958,10.958,0,0,1,28.588,0a8.454,8.454,0,0,0,1.148,2.612A13.737,13.737,0,0,1,31.059,7.73c.243,1.951.621,3.894.731,5.852a55.557,55.557,0,0,1-.036,7.808c-.056.655-.07,1.314-.1,1.971-.612-.053-.8.314-.921.822A54.282,54.282,0,0,1,26,36.156c-2.261,4.53-4.6,9.034-7.3,13.343a.961.961,0,0,0-.082,1.186,1.154,1.154,0,0,0-.672.562,54.253,54.253,0,0,1-4.237,6.024,1.9,1.9,0,0,0-.472.96,69.5,69.5,0,0,1-6.9,8.983l.022-.02-.181.2a.458.458,0,0,0-.451.253,33.951,33.951,0,0,1-4.24.872A2.821,2.821,0,0,1,0,68.426" transform="translate(39.886 87.274)"/>
    <path id="Fill_132" data-name="Fill 132" class="cls-11" d="M.839,2.178C.877,2.71.984,3.292.66,3.562A9.755,9.755,0,0,1,.013.664C-.031.41.038.093.178.017S.407.124.465.392c.128.591.249,1.19.373,1.786" transform="translate(54.955 60.557)"/>
    <path id="Fill_134" data-name="Fill 134" class="cls-15" d="M.015,2.323c.145-.558.745-.438,1.092-.7A10.1,10.1,0,0,0,4.449.261c.244-.14.543-.47.8-.071s-.184.521-.419.671A14.844,14.844,0,0,1,.344,2.648C0,2.734-.028,2.577.015,2.323" transform="translate(60.273 73.025)"/>
    <path id="Fill_136" data-name="Fill 136" class="cls-3" d="M5.318,0C3.864,1.03,1.966.98,0,.764A16.747,16.747,0,0,1,5.318,0" transform="translate(37.227 40.075)"/>
    <path id="Fill_138" data-name="Fill 138" class="cls-10" d="M.551,3.562C-.235,2.493.061,1.441.029.439.019.128.342.006.611,0c.4-.009.252.321.242.5a7.251,7.251,0,0,1-.3,3.057" transform="translate(39.886 33.841)"/>
    <path id="Fill_140" data-name="Fill 140" class="cls-13" d="M7.024,0a27.206,27.206,0,0,0,3.711,6.5c2,2.475,3.479,5.288,5.735,7.6.112.115.247.211.371.316a6.811,6.811,0,0,1-1.5,2.509c-.621.928-1.377,1.78-2.075,2.665a13.4,13.4,0,0,1-2.385-2.2C7.22,13.452,3.837,9.343,1.663,4.5,1.088,3.215.446,1.96,0,.633A60.794,60.794,0,0,0,7.024,0" transform="translate(26.591 98.851)"/>
    <path id="Fill_142" data-name="Fill 142" class="cls-3" d="M5.318.231c-.241,1.942-.481,3.884-.744,6A63.245,63.245,0,0,1,0,0,12.064,12.064,0,0,0,5.318.231" transform="translate(34.568 48.09)"/>
    <path id="Fill_144" data-name="Fill 144" class="cls-3" d="M2.2,0A19.8,19.8,0,0,1,3.545,6.234C2.074,4.765,1.446,2.672,0,1.433.73.945,1.6.758,2.2,0" transform="translate(40.773 46.308)"/>
    <path id="Fill_146" data-name="Fill 146" class="cls-3" d="M.678.891,0,0A1.181,1.181,0,0,1,.886.7L.678.891" transform="translate(41.659 50.761)"/>
    <path id="Fill_148" data-name="Fill 148" class="cls-13" d="M2.127.072a1.01,1.01,0,0,1,1.3.442,1.45,1.45,0,0,1-.276,1.5A3.171,3.171,0,0,1,1.065,3.53C.228,3.7-.173,3.2.071,2.3A2.521,2.521,0,0,1,.933.8c.05.261-.089.575.172.884A6.573,6.573,0,0,0,2.127.072" transform="translate(110.795 45.418)"/>
    <path id="Fill_150" data-name="Fill 150" class="cls-6" d="M.886,0C.752.349.4.567.128.891-.066.72.037.547,0,.4A1.21,1.21,0,0,1,.886,0" transform="translate(111.682 45.418)"/>
    <path id="Fill_152" data-name="Fill 152" class="cls-15" d="M.169,27.566a.988.988,0,0,1,.081-1.2c2.66-4.347,4.971-8.89,7.2-13.459A55.509,55.509,0,0,0,12.121.835c.115-.513.3-.883.908-.829a1.039,1.039,0,0,1,.24.974A41.059,41.059,0,0,1,11.3,7c-.8,1.842-1.582,3.691-2.4,5.525-.454,1.021-.962,2.018-1.445,3.025Q6.045,18.172,4.637,20.8a1.114,1.114,0,0,0-.207.748c-.489.2-.583.7-.778,1.1A31,31,0,0,1,.878,27.413c-.193.249-.45.206-.709.153" transform="translate(56.727 110.428)"/>
    <path id="Fill_154" data-name="Fill 154" class="cls-7" d="M0,8.876C3.011,6.2,5.288,3.041,7.742,0c.232.058.284.188.194.371A23.482,23.482,0,0,1,.621,8.728.65.65,0,0,1,0,8.876" transform="translate(46.091 146.05)"/>
    <path id="Fill_156" data-name="Fill 156" class="cls-7" d="M.278.627.6.264C.655.531.458.571.278.627" transform="translate(45.205 154.065)"/>
  </g>
</svg>
