<svg width="40" height="43" viewBox="0 0 40 43" fill="none" xmlns="http://www.w3.org/2000/svg">
<circle cx="20" cy="21" r="20" fill="#25B89D"/>
<path d="M22.2677 21.5H19.3277L18.6477 24.4H21.2877V25.66H18.3477L17.2677 30.28H15.8677L16.9477 25.66H13.6277L12.5477 30.28H11.1477L12.2277 25.66H9.60773V24.4H12.5277L13.2077 21.5H10.5877V20.24H13.4877L14.4877 16H15.8877L14.8877 20.24H18.2077L19.2077 16H20.6077L19.6077 20.24H22.2677V21.5ZM17.2477 24.4L17.9277 21.5H14.6077L13.9277 24.4H17.2477ZM27.8959 28.42C27.8959 29.24 28.4359 29.42 29.5159 29.46V30H23.7959V29.46C24.8759 29.42 25.4159 29.24 25.4159 28.42V19.76H23.4759V19.22C25.0959 18.76 26.3559 17.54 26.8959 15.9H27.8959V28.42Z" fill="white"/>
</svg>
