<svg width="40" height="43" viewBox="0 0 40 43" fill="none" xmlns="http://www.w3.org/2000/svg">
<circle cx="20" cy="23" r="20" fill="#25B89D"/>
<path d="M18.2267 21.5H15.2867L14.6067 24.4H17.2467V25.66H14.3067L13.2267 30.28H11.8267L12.9067 25.66H9.58672L8.50672 30.28H7.10672L8.18672 25.66H5.56672V24.4H8.48672L9.16672 21.5H6.54672V20.24H9.44672L10.4467 16H11.8467L10.8467 20.24H14.1667L15.1667 16H16.5667L15.5667 20.24H18.2267V21.5ZM13.2067 24.4L13.8867 21.5H10.5667L9.88672 24.4H13.2067ZM28.7148 26.16H29.2948L28.2748 30H19.8348C19.8348 24.26 25.5948 23.16 25.5948 19.28C25.5948 17.84 24.7548 16.88 23.4748 16.88C22.2748 16.88 21.4748 17.64 21.4748 18.8C21.4748 19.14 21.5948 19.5 21.7548 19.66L21.7948 19.64C21.6348 19.06 22.1348 18.38 22.9548 18.38C23.6948 18.38 24.1948 18.92 24.1948 19.6C24.1948 20.52 23.4748 21.12 22.3948 21.12C21.0348 21.12 20.1148 20.18 20.1148 18.76C20.1148 16.94 21.6348 15.72 23.9148 15.72C26.5348 15.72 28.2948 17.12 28.2948 19.24C28.2948 23.7 22.8948 24.44 21.6548 27.74H26.5148C27.6748 27.74 28.1948 27.32 28.7148 26.16Z" fill="white"/>
</svg>
