<svg width="150" height="34" viewBox="0 0 150 34" fill="none" xmlns="http://www.w3.org/2000/svg">
<path d="M94.9117 33.5235C94.9117 28.476 94.9117 23.5502 94.9117 18.5201C96.3912 18.5201 97.8359 18.5027 99.2631 18.5201C100.795 18.5549 102.326 18.5201 103.841 18.6941C105.32 18.8682 106.33 19.7558 106.591 21.2875C106.852 22.8018 106.556 24.1072 105.164 24.9949C105.059 25.0645 104.989 25.1341 104.868 25.2212C104.92 25.2908 104.937 25.3952 105.007 25.43C106.974 26.1785 107.618 27.9712 107.391 29.7814C107.165 31.5915 105.929 32.9144 103.928 33.2799C102.849 33.4713 101.735 33.4713 100.638 33.4887C98.7583 33.541 96.8786 33.5235 94.9117 33.5235ZM98.2188 30.7561C99.7679 30.7561 101.247 30.8431 102.709 30.7213C103.649 30.6517 104.154 29.8336 104.154 28.8415C104.154 27.7798 103.719 26.9965 102.796 26.8921C101.3 26.718 99.7679 26.718 98.2188 26.6484C98.2188 28.1627 98.2188 29.4507 98.2188 30.7561ZM98.3232 21.0264C98.3232 22.2448 98.3232 23.3762 98.3232 24.6468C99.5764 24.5946 100.76 24.5946 101.926 24.4553C103.092 24.3161 103.614 23.6721 103.58 22.6277C103.545 21.7401 102.97 21.1309 101.857 21.0613C100.708 20.9568 99.5416 21.0264 98.3232 21.0264Z" fill="white"/>
<path d="M35.2982 0.331453C36.2903 0.331453 37.178 0.279237 38.0657 0.366264C38.3616 0.401075 38.7097 0.696968 38.8837 0.975454C40.6591 3.79513 42.3996 6.63222 44.1576 9.46931C44.2968 9.69558 44.4535 9.92185 44.7842 10.1133C44.7842 6.8933 44.7842 3.6733 44.7842 0.401075C45.8459 0.401075 46.7858 0.401075 47.7953 0.401075C47.7953 5.39643 47.7953 10.357 47.7953 15.4046C46.8206 15.4046 45.8633 15.4394 44.9234 15.3872C44.7146 15.3697 44.4361 15.1261 44.3142 14.9172C42.5737 12.1497 40.868 9.36487 39.1448 6.58C38.936 6.2493 38.7271 5.9186 38.3268 5.65752C38.3268 8.87752 38.3268 12.0975 38.3268 15.3697C37.2824 15.3697 36.3425 15.3697 35.3156 15.3697C35.2982 10.3744 35.2982 5.41384 35.2982 0.331453Z" fill="white"/>
<path d="M83.5113 33.4712C82.3451 33.4712 81.3878 33.4712 80.3783 33.4712C80.3783 28.4759 80.3783 23.5153 80.3783 18.4504C81.3878 18.4504 82.3799 18.4155 83.3372 18.4852C83.5635 18.5026 83.8246 18.8333 83.9812 19.0944C85.687 21.8096 87.3927 24.5423 89.081 27.2749C89.3073 27.623 89.5336 27.9711 89.9165 28.2844C89.9165 25.047 89.9165 21.827 89.9165 18.5374C90.926 18.5374 91.8659 18.5374 92.8754 18.5374C92.8754 23.4979 92.8754 28.4759 92.8754 33.5235C91.9181 33.5235 90.9608 33.5757 90.0209 33.4886C89.7598 33.4712 89.4639 33.1405 89.2899 32.8795C87.4797 29.9902 85.687 27.0834 83.8768 24.1767C83.8072 24.0549 83.7201 23.9331 83.4765 23.585C83.5113 26.979 83.5113 30.199 83.5113 33.4712Z" fill="white"/>
<path d="M37.1257 26.457C38.4659 26.9791 38.9881 28.0409 39.1274 29.3115C39.284 30.6865 39.4058 32.0615 39.5451 33.4888C38.727 33.4888 37.8045 33.5236 36.8821 33.4714C36.6906 33.454 36.3947 33.1755 36.3599 32.984C36.151 31.8701 36.0466 30.7561 35.8377 29.6422C35.5592 28.1453 34.9675 27.6754 33.4706 27.6579C32.4089 27.6405 31.3471 27.6579 30.181 27.6579C30.181 29.6248 30.181 31.5045 30.181 33.4365C29.067 33.4365 28.0227 33.4365 26.9261 33.4365C26.9261 28.4934 26.9261 23.5329 26.9261 18.5027C28.9278 18.5027 30.8946 18.5027 32.8614 18.5027C33.6969 18.5027 34.5497 18.4331 35.3852 18.4679C37.352 18.5723 38.8837 19.8255 39.2492 21.7401C39.5625 23.4284 39.2666 25.4301 37.265 26.2829C37.2302 26.3003 37.2128 26.3525 37.1257 26.457ZM30.2332 25.3778C31.7823 25.2908 33.2791 25.256 34.7412 25.0993C35.6463 24.9949 36.0814 24.2465 36.1162 23.1673C36.151 22.1578 35.6637 21.2527 34.8108 21.1831C33.2965 21.0613 31.7823 21.1483 30.2332 21.1483C30.2332 22.5233 30.2332 23.881 30.2332 25.3778Z" fill="white"/>
<path d="M140.497 15.3523C139.417 15.3523 138.495 15.3523 137.52 15.3523C137.52 10.357 137.52 5.39643 137.52 0.331453C138.495 0.331453 139.452 0.279237 140.392 0.366264C140.653 0.38367 140.949 0.731778 141.106 0.99286C142.916 3.88216 144.709 6.80627 146.501 9.71298C146.606 9.88704 146.71 10.0437 146.971 10.1829C146.971 6.94552 146.971 3.70811 146.971 0.401075C148.051 0.401075 149.008 0.401075 150 0.401075C150 5.39643 150 10.3396 150 15.3872C148.99 15.3872 148.016 15.422 147.041 15.3523C146.815 15.3349 146.554 15.0042 146.397 14.7606C144.569 11.8364 142.759 8.91233 140.949 5.97081C140.845 5.81417 140.723 5.65752 140.479 5.30941C140.497 8.79049 140.497 12.0279 140.497 15.3523Z" fill="white"/>
<path d="M0 15.3174C0 10.3743 0 5.44852 0 0.418349C2.00162 0.418349 3.95103 0.383538 5.91785 0.435755C6.85774 0.45316 7.83245 0.487971 8.73753 0.731647C11.035 1.39305 12.323 3.08138 12.8974 5.32668C13.4022 7.27609 13.3326 9.2255 12.6538 11.1401C11.8183 13.4898 10.13 15.0389 7.65839 15.2652C5.1346 15.5089 2.59341 15.3174 0 15.3174ZM3.25482 12.6544C5.37828 12.4629 7.6758 13.2462 9.20747 11.0705C10.2692 9.5562 10.2518 6.19695 9.13785 4.66527C7.60617 2.55922 5.36087 3.30765 3.27222 3.16841C3.25482 6.37101 3.25482 9.45177 3.25482 12.6544Z" fill="white"/>
<path d="M132.595 26.4569C134.266 27.1357 134.527 28.6326 134.666 30.1991C134.753 31.2608 134.857 32.3226 134.962 33.4191C134.057 33.4191 133.047 33.4191 131.898 33.4191C131.794 32.8447 131.69 32.2355 131.585 31.6263C131.55 31.4349 131.568 31.226 131.55 31.0172C131.307 28.1104 130.819 27.6579 127.913 27.6579C127.182 27.6579 126.468 27.6579 125.65 27.6579C125.65 29.6073 125.65 31.5045 125.65 33.4365C124.519 33.4365 123.492 33.4365 122.412 33.4365C122.412 28.4586 122.412 23.5154 122.412 18.4852C122.882 18.4852 123.3 18.4852 123.735 18.4852C126.015 18.4678 128.313 18.4156 130.593 18.4504C132.212 18.4678 133.552 19.1292 134.283 20.6261C135.031 22.1752 135.049 23.7765 134.004 25.2385C133.674 25.7259 133.082 26.0566 132.595 26.4569ZM125.685 21.0961C125.685 22.5233 125.685 23.8983 125.685 25.3604C127.147 25.2908 128.522 25.2908 129.897 25.1515C131.028 25.0297 131.55 24.3161 131.55 23.0977C131.533 21.8967 130.976 21.1657 129.845 21.1135C128.487 21.0438 127.129 21.0961 125.685 21.0961Z" fill="white"/>
<path d="M149.756 22.5407C148.642 22.8017 147.685 23.028 146.658 23.2543C146.066 21.5311 144.848 20.7653 143.055 20.922C141.471 21.0612 140.497 21.9837 139.974 23.3761C139.313 25.1167 139.313 26.892 139.974 28.65C140.845 30.9127 143.612 31.8178 145.683 30.5297C146.501 30.025 146.971 29.0677 146.989 27.8493C145.927 27.8493 144.865 27.8493 143.786 27.8493C143.786 26.9964 143.786 26.248 143.786 25.3603C144.83 25.3603 145.857 25.3603 146.884 25.3603C147.894 25.3603 148.903 25.3603 149.965 25.3603C149.965 28.093 149.965 30.7386 149.965 33.4539C149.304 33.4539 148.66 33.4539 147.963 33.4539C147.842 32.9665 147.737 32.4618 147.598 31.87C145.44 34.2545 142.864 34.2197 140.305 33.0709C137.52 31.8178 136.337 29.4158 136.25 26.4221C136.18 24.0549 136.685 21.8967 138.39 20.1213C141.297 17.1102 146.919 17.5279 149.043 20.9394C149.304 21.3745 149.478 21.9141 149.756 22.5407Z" fill="white"/>
<path d="M128.348 0.000668544C132.525 -0.0515478 135.501 2.95959 135.658 7.41538C135.762 10.4439 134.927 13.0547 132.159 14.6909C128.591 16.8143 122.064 15.8048 121.124 9.3996C120.881 7.76349 120.985 6.16219 121.559 4.61311C122.656 1.67159 125.075 0.0354794 128.348 0.000668544ZM132.438 7.67646C132.194 6.78879 132.038 5.74446 131.637 4.80457C131.028 3.41213 129.879 2.69851 128.33 2.69851C126.764 2.69851 125.598 3.35992 124.936 4.78716C124.118 6.5103 124.066 8.30306 124.623 10.1132C125.145 11.8538 126.433 12.8111 128.208 12.8459C130.053 12.8807 131.289 12.0452 131.881 10.2699C132.142 9.50403 132.246 8.66857 132.438 7.67646Z" fill="white"/>
<path d="M67.3765 33.4539C67.3765 28.4063 67.3765 23.4632 67.3765 18.433C71.0838 18.433 74.7738 18.433 78.5159 18.433C78.5159 19.3381 78.5159 20.2257 78.5159 21.183C75.8877 21.183 73.3291 21.183 70.6835 21.183C70.6835 22.2796 70.6835 23.3065 70.6835 24.4205C73.0506 24.4205 75.4178 24.4205 77.8197 24.4205C77.8197 25.3081 77.8197 26.1088 77.8197 26.9791C75.4352 26.9791 73.1029 26.9791 70.6835 26.9791C70.6835 28.2148 70.6835 29.381 70.6835 30.6516C73.3465 30.6516 75.9922 30.6516 78.69 30.6516C78.69 31.6437 78.69 32.5314 78.69 33.4365C74.913 33.4539 71.1708 33.4539 67.3765 33.4539Z" fill="white"/>
<path d="M53.2954 12.6022C55.9236 12.6022 58.4997 12.6022 61.1453 12.6022C61.1453 13.5246 61.1453 14.3949 61.1453 15.3348C57.4205 15.3348 53.6958 15.3348 49.9014 15.3348C49.9014 10.3743 49.9014 5.41371 49.9014 0.383545C53.6087 0.383545 57.2813 0.383545 61.006 0.383545C61.006 1.25382 61.006 2.08928 61.006 3.04658C58.43 3.04658 55.8714 3.04658 53.2606 3.04658C53.2606 4.16052 53.2606 5.18744 53.2606 6.30139C55.6452 6.30139 57.9775 6.30139 60.362 6.30139C60.362 7.17166 60.362 7.9375 60.362 8.80777C58.0297 8.80777 55.6974 8.80777 53.2954 8.80777C53.2954 10.1132 53.2954 11.2968 53.2954 12.6022Z" fill="white"/>
<path d="M112.631 27.0312C112.631 28.3192 112.631 29.4853 112.631 30.7211C115.276 30.7211 117.904 30.7211 120.585 30.7211C120.585 31.6784 120.585 32.5313 120.585 33.4364C116.843 33.4364 113.118 33.4364 109.323 33.4364C109.323 28.4584 109.323 23.4979 109.323 18.4851C113.013 18.4851 116.686 18.4851 120.411 18.4851C120.411 19.3902 120.411 20.2431 120.411 21.2004C117.835 21.2004 115.259 21.2004 112.648 21.2004C112.648 22.3317 112.648 23.3586 112.648 24.4726C115.032 24.4726 117.4 24.4726 119.819 24.4726C119.819 25.3603 119.819 26.1609 119.819 27.0312C117.434 27.0312 115.067 27.0312 112.631 27.0312Z" fill="white"/>
<path d="M12.2011 18.52C13.2803 18.52 14.2898 18.52 15.4385 18.52C15.4385 18.8507 15.4385 19.1466 15.4385 19.4599C15.4385 22.2796 15.456 25.0819 15.4385 27.9015C15.4385 29.0677 15.63 30.1294 16.7788 30.6864C18.0145 31.2782 19.2677 31.2086 20.4339 30.5646C21.339 30.0598 21.5304 29.0851 21.5478 28.1452C21.5827 25.2733 21.5827 22.4014 21.6001 19.5469C21.6001 19.2336 21.6001 18.9203 21.6001 18.5722C22.714 18.5722 23.7409 18.5722 24.8723 18.5722C24.8723 18.9029 24.8723 19.2162 24.8723 19.5295C24.8723 22.3144 24.8723 25.0993 24.8723 27.8841C24.8723 31.4523 23.4102 33.2972 19.8595 33.7672C18.4845 33.9412 17.005 33.8194 15.6648 33.4713C13.5414 32.9317 12.3056 31.3304 12.2359 29.1547C12.1141 25.6214 12.2011 22.1055 12.2011 18.52Z" fill="white"/>
<path d="M43.5484 28.5108C44.0705 30.9127 46.8554 32.0963 48.8918 30.8779C49.4662 30.5472 50.0232 30.0425 49.8317 29.3636C49.6925 28.8415 49.2748 28.2149 48.8222 28.006C47.8997 27.5535 46.8554 27.362 45.8633 27.0487C45.1497 26.8224 44.4186 26.6136 43.7224 26.3525C42.1037 25.7259 41.042 24.6642 40.955 22.8366C40.8679 21.0264 41.7034 19.6514 43.2873 18.903C45.7589 17.7194 48.2826 17.8064 50.6846 19.2163C51.7985 19.8777 52.3555 20.922 52.5122 22.297C51.4852 22.5233 50.4931 22.7496 49.501 22.9584C48.7352 20.9916 47.5516 20.3476 45.55 20.8176C44.8016 20.9916 44.2446 21.4268 44.1402 22.2622C44.0357 23.0977 44.5579 23.498 45.2367 23.7069C46.5595 24.1072 47.9171 24.4553 49.2399 24.8382C51.6071 25.517 52.9125 26.8573 52.9473 28.65C52.9995 31.1738 51.7985 32.8099 49.2573 33.5235C46.9076 34.1849 44.6101 34.0109 42.504 32.6707C41.4945 32.0441 40.8853 31.1042 40.5546 30.0076C40.4154 29.5551 40.485 29.2418 41.0594 29.1548C41.8948 28.9807 42.6955 28.737 43.5484 28.5108Z" fill="white"/>
<path d="M34.0103 15.387C32.9833 15.387 32.026 15.4218 31.0687 15.3696C30.8425 15.3522 30.5466 15.0737 30.4596 14.8474C30.1463 14.099 29.9548 13.2983 29.6589 12.5673C29.5719 12.3411 29.2412 12.0974 28.9975 12.0974C27.4832 12.0626 25.9864 12.0452 24.4721 12.0974C24.211 12.1148 23.8281 12.4107 23.7062 12.6718C23.3929 13.3854 23.2015 14.1512 22.9056 14.8648C22.8186 15.0737 22.5575 15.3696 22.3486 15.3696C21.4087 15.4218 20.4514 15.387 19.4071 15.387C20.1381 13.4202 20.8518 11.5578 21.548 9.69543C22.6445 6.80612 23.7585 3.91682 24.8202 1.01011C25.0117 0.487951 25.2379 0.26168 25.8123 0.313897C26.6826 0.366113 27.7269 0.0702207 28.3535 0.470546C28.9279 0.83606 29.0497 1.9326 29.3456 2.69844C30.8251 6.64947 32.2871 10.6005 33.7492 14.5515C33.8362 14.8126 33.9058 15.0563 34.0103 15.387ZM26.7348 3.96904C26.0386 5.97066 25.4294 7.72861 24.7854 9.57359C26.1778 9.57359 27.3962 9.57359 28.7016 9.57359C28.0576 7.74602 27.431 5.97066 26.7348 3.96904Z" fill="white"/>
<path d="M114.214 10.7225C115.311 7.25882 116.39 3.81254 117.487 0.383669C118.635 0.383669 119.697 0.383669 120.863 0.383669C120.707 0.888427 120.585 1.32356 120.446 1.74129C119.018 6.05784 117.556 10.357 116.146 14.6735C115.955 15.2479 115.711 15.4742 115.102 15.4046C114.667 15.3523 114.232 15.3872 113.797 15.3872C112.213 15.3872 112.213 15.3872 111.743 13.9251C110.35 9.60855 108.975 5.292 107.583 0.958049C107.531 0.8014 107.513 0.627346 107.444 0.331453C108.488 0.331453 109.463 0.279237 110.42 0.366264C110.629 0.38367 110.89 0.8014 110.977 1.09729C112.004 4.28249 112.996 7.48509 114.006 10.6877C114.093 10.7051 114.162 10.7051 114.214 10.7225Z" fill="white"/>
<path d="M3.28961 33.4364C2.14085 33.4364 1.11393 33.4364 0.03479 33.4364C0.03479 28.4585 0.03479 23.4805 0.03479 18.4678C3.51588 18.4678 6.94475 18.4678 10.4432 18.4678C10.4432 19.3555 10.4432 20.2083 10.4432 21.183C8.0935 21.183 5.72637 21.183 3.30701 21.183C3.30701 22.384 3.30701 23.4631 3.30701 24.6815C5.34345 24.6815 7.37988 24.6815 9.46853 24.6815C9.46853 25.604 9.46853 26.4046 9.46853 27.2923C7.4321 27.2923 5.41307 27.2923 3.2722 27.2923C3.28961 29.381 3.28961 31.3826 3.28961 33.4364Z" fill="white"/>
<path d="M65.6011 18.4851C65.6011 19.3902 65.6011 20.2257 65.6011 21.1829C64.1564 21.1829 62.7292 21.1829 61.1801 21.1829C61.1801 25.3428 61.1801 29.3809 61.1801 33.4538C60.0488 33.4538 59.0392 33.4538 57.9427 33.4538C57.9427 29.4157 57.9427 25.4125 57.9427 21.2526C56.3936 21.2526 54.9316 21.2526 53.4347 21.2526C53.4347 20.2605 53.4347 19.4076 53.4347 18.4851C57.4728 18.4851 61.476 18.4851 65.6011 18.4851Z" fill="white"/>
<path d="M15.0557 0.383545C16.0826 0.383545 17.1095 0.383545 18.2235 0.383545C18.2235 5.34409 18.2235 10.3046 18.2235 15.3348C17.1965 15.3348 16.1696 15.3348 15.0557 15.3348C15.0557 10.3743 15.0557 5.41371 15.0557 0.383545Z" fill="white"/>
</svg>
