<svg width="181" height="184" viewBox="0 0 181 184" fill="none" xmlns="http://www.w3.org/2000/svg">
<g clip-path="url(#clip0_264_14091)">
<path d="M50.6391 30.0784C47.5019 32.4092 44.6048 35.0601 42 37.9884L84 77V19C71.5295 19 60.0037 23.1124 50.6339 30.0784H50.6391Z" fill="#FF4133"/>
<path d="M176.711 69.2611C170.929 51.4908 159.603 36.2087 144.774 25.442C130.276 14.9135 112.428 8.70081 93.1177 8.70081V96.3465L28.0954 37.3913C19.8107 46.4761 13.4202 57.3041 9.5319 69.2611C6.75238 77.793 5.25098 86.8931 5.25098 96.3542C5.25098 105.815 6.76008 114.915 9.5319 123.447C15.3142 141.218 26.6402 156.5 41.4695 167.266C55.9676 177.795 73.8151 184.008 93.1254 184.008C112.436 184.008 130.276 177.795 144.781 167.266C149.64 163.742 154.121 159.733 158.155 155.317C166.44 146.232 172.831 135.404 176.719 123.447C179.499 114.915 181 105.815 181 96.3542C181 86.8931 179.491 77.793 176.719 69.2611H176.711Z" fill="#FFBB00"/>
<path d="M87.8749 96.8846V96.8535C87.8749 96.8535 87.8515 96.8535 87.8359 96.8535L87.8749 96.8846Z" fill="#191919"/>
<path d="M86.9297 90.5868C89.2473 90.5561 91.5648 90.5254 93.8824 90.4946V89.481C91.2106 89.5194 88.5389 89.5731 85.8672 89.6269L86.9297 90.5945V90.5868Z" fill="#191919"/>
<path d="M93.8745 33.7359V34.5653C94.5829 34.55 95.3066 34.5269 96.0535 34.4732C99.9032 34.2044 103.753 34.4271 107.61 34.4885C112.061 34.5576 116.511 34.6114 120.961 34.6191C125.581 34.6191 130.208 34.5653 134.828 34.404C141.581 34.166 148.264 34.0047 154.924 33.8895C154.624 33.6054 154.331 33.3136 154.031 33.0294C148.78 33.1293 143.529 33.2521 138.27 33.4057C123.464 33.8358 108.65 33.4057 93.8745 33.7436V33.7359Z" fill="#191919"/>
<path d="M93.8745 26.4173V27.3619C97.4086 27.3619 100.943 27.3619 104.469 27.3389C118.628 27.2544 132.78 27.1853 146.94 27.0394C146.47 26.6861 146.016 26.3252 145.538 25.9796C130.247 26.1486 114.963 26.2714 99.6722 26.4097C97.7397 26.425 95.8071 26.425 93.8745 26.4097V26.4173Z" fill="#191919"/>
<path d="M93.8744 47.2978V48.2501C102.09 48.2578 110.313 48.2731 118.528 48.2347C132.364 48.1579 146.2 47.989 160.036 47.8815C162.261 47.8661 164.487 47.8584 166.712 47.8661C166.519 47.582 166.319 47.3132 166.127 47.0367C145.877 47.175 125.627 47.3362 105.37 47.4361C101.535 47.4514 97.7011 47.3823 93.8667 47.3132L93.8744 47.2978Z" fill="#191919"/>
<path d="M40.2322 48.2501L39.2543 47.3669C36.7597 47.4053 34.2727 47.436 31.7781 47.4284C28.3133 47.413 24.8408 47.3823 21.3761 47.3593C21.1759 47.6511 20.9834 47.9429 20.7832 48.2347C27.2662 48.2654 33.7492 48.2578 40.2322 48.2501Z" fill="#191919"/>
<path d="M105.901 12.1335C101.89 12.1489 97.886 12.0951 93.8745 12.0414V13.055C95.3451 13.0781 96.8157 13.0934 98.2863 13.0934C105.239 13.0934 112.184 13.032 119.137 12.9322C118.059 12.6096 116.981 12.3101 115.887 12.026C112.561 12.0798 109.235 12.1182 105.901 12.1335Z" fill="#191919"/>
<path d="M93.8745 19.0527V20.1048C95.5068 20.1355 97.1391 20.1663 98.7714 20.1893C111.375 20.3198 123.98 20.5118 136.584 20.389C136.638 20.389 136.699 20.389 136.753 20.389C136.06 19.9973 135.352 19.621 134.643 19.2524C124.534 19.3215 114.424 19.3676 104.315 19.383C100.835 19.383 97.3547 19.214 93.8745 19.0604V19.0527Z" fill="#191919"/>
<path d="M48.2703 55.5379L47.1847 54.5549C41.8721 54.6317 36.5594 54.7238 31.2544 54.7008C26.4807 54.6778 21.707 54.6086 16.9333 54.5242C16.7563 54.839 16.5869 55.1539 16.4175 55.4687C23.9014 55.5839 31.3853 55.6607 38.8692 55.6607C42.0029 55.6607 45.1366 55.5993 48.2703 55.5379Z" fill="#191919"/>
<path d="M105.901 54.7085C101.89 54.7238 97.886 54.6701 93.8745 54.6163V55.63C94.2287 55.63 94.5829 55.6454 94.937 55.6454C96.0535 55.6607 97.1699 55.6684 98.294 55.6684C110.906 55.6837 123.51 55.461 136.114 55.2076C147.694 54.9772 159.266 54.7392 170.846 54.6086C170.669 54.2938 170.5 53.9712 170.315 53.6564C158.997 53.7869 147.679 54.0711 136.353 54.24C126.197 54.4013 116.049 54.6624 105.893 54.7085H105.901Z" fill="#191919"/>
<path d="M104.315 61.9426C100.835 61.9426 97.3547 61.7736 93.8745 61.62V62.6721C95.5068 62.7028 97.1391 62.7335 98.7714 62.7566C111.375 62.8871 123.98 63.0791 136.584 62.9563C149.257 62.8334 161.93 62.5185 174.604 62.2651C174.465 61.9426 174.319 61.62 174.173 61.2975C168.067 61.428 161.954 61.5432 155.848 61.62C138.67 61.835 121.493 61.9195 104.315 61.9502V61.9426Z" fill="#191919"/>
<path d="M55.8078 62.3726L54.7837 61.4434C53.1514 61.4281 51.5191 61.4204 49.8868 61.4357C44.2046 61.4665 38.5224 61.9503 32.8401 61.9426C26.3263 61.9349 19.8203 61.9119 13.3065 61.8811C13.1448 62.2498 12.9831 62.6107 12.8291 62.9793C21.3448 62.9563 29.8681 62.8488 38.3838 62.7566C44.1892 62.6952 50.0023 62.5032 55.8078 62.3726Z" fill="#191919"/>
<path d="M52.4281 69.9523C55.6465 69.9676 58.8649 69.9907 62.0833 70.0214C62.7993 70.0214 63.5231 70.0214 64.2391 70.0214L63.0688 68.9616C61.3441 68.9232 59.6194 68.9002 57.8947 68.9002C51.0961 68.8848 44.2897 69.0615 37.491 69C28.5442 68.9156 19.5974 68.8388 10.6506 68.762C10.5351 69.1075 10.4119 69.4454 10.2964 69.791C17.7649 69.8371 25.2257 69.8832 32.6943 69.9292C39.2773 69.9676 45.8604 69.9369 52.4358 69.9676L52.4281 69.9523Z" fill="#191919"/>
<path d="M99.6722 68.9846C97.7397 68.9999 95.8071 68.9999 93.8745 68.9846V69.9292C97.4086 69.9292 100.943 69.9292 104.469 69.9061C118.975 69.8216 133.481 69.7449 147.987 69.5989C157.75 69.4991 167.513 69.3609 177.268 69.2303C177.145 68.854 177.006 68.4777 176.875 68.1091C176.575 68.1091 176.275 68.1168 175.974 68.1245C150.543 68.5853 125.104 68.7465 99.6645 68.9846H99.6722Z" fill="#191919"/>
<path d="M93.8745 40.3633V41.2541C106.101 41.2311 118.328 41.1927 130.555 41.1619C140.903 41.1389 151.244 41.0851 161.592 41.0468C161.284 40.6781 160.983 40.2942 160.668 39.9332C145.723 39.9563 130.778 40.0868 115.834 40.1867C108.511 40.2404 101.197 40.2942 93.8745 40.3556V40.3633Z" fill="#191919"/>
<path d="M31.4316 40.2711C29.8994 40.2557 28.3595 40.248 26.8273 40.2327C26.5501 40.5552 26.2729 40.8777 26.0034 41.208C28.167 41.208 30.3228 41.2156 32.4864 41.2233L31.4316 40.2634V40.2711Z" fill="#191919"/>
<path d="M160.036 139.797C146.2 139.689 132.364 139.52 118.528 139.444C108.149 139.382 97.7705 139.436 87.3992 139.428C82.5023 139.428 77.6131 139.428 72.7163 139.413C71.8616 139.413 71.0147 139.413 70.16 139.413C69.6288 139.413 69.1052 139.413 68.5739 139.413C68.0427 139.413 67.5191 139.413 66.9878 139.413C66.1332 139.413 65.2862 139.413 64.4316 139.413C59.5347 139.413 54.6455 139.413 49.7486 139.421C39.3697 139.421 28.9908 139.375 18.6195 139.436C18.096 139.436 17.5724 139.444 17.0488 139.451C17.2105 139.743 17.3799 140.043 17.5493 140.334C22.2922 140.304 27.0274 140.265 31.7703 140.242C39.131 140.204 46.4917 140.503 53.8525 140.503C58.7571 140.503 63.6616 140.365 68.5662 140.242C73.4708 140.365 78.3754 140.503 83.28 140.503C90.6407 140.503 98.0014 140.204 105.362 140.242C126.905 140.35 148.449 140.519 169.992 140.665C170.161 140.365 170.331 140.066 170.5 139.766C167.004 139.828 163.509 139.82 160.013 139.789L160.036 139.797Z" fill="#191919"/>
<path d="M134.828 110.707C121.139 110.339 107.395 110.661 93.6745 110.845C89.5244 110.899 85.3744 111.099 81.2398 111.229C76.8126 111.368 72.2621 110.999 67.8349 110.907C63.4462 110.799 59.0575 110.73 54.6688 110.661C52.4282 110.623 50.1877 110.592 47.9548 110.561C45.6065 110.531 43.4814 110.469 41.1022 110.638C37.2525 110.907 33.4027 110.684 29.5453 110.623C25.095 110.554 20.6447 110.5 16.1943 110.492C13.153 110.492 10.1117 110.531 7.07812 110.592C7.13202 110.915 7.18592 111.229 7.23981 111.552C20.2751 111.414 33.3026 111.698 46.3071 111.299C48.3783 111.237 50.4494 111.168 52.5206 111.222C54.484 111.268 56.4474 111.414 58.403 111.537C67.4346 112.12 76.4276 112.09 85.4745 112.105C89.7785 112.105 94.1595 111.706 98.479 111.575C102.929 111.437 107.38 111.368 111.83 111.345C120.646 111.299 129.462 111.46 138.27 111.713C152.306 112.12 166.319 112.366 180.363 112.381C180.433 111.997 180.51 111.613 180.571 111.229C165.557 111.291 150.366 111.137 134.828 110.723V110.707Z" fill="#191919"/>
<path d="M104.469 117.757C97.8859 117.719 91.3029 117.749 84.7275 117.719C80.077 117.696 75.4342 117.649 70.7837 117.611C70.6836 117.596 70.5835 117.58 70.4834 117.58C69.852 117.58 69.213 117.588 68.5816 117.596C67.9503 117.596 67.3112 117.588 66.6798 117.58C66.5797 117.58 66.4797 117.588 66.3796 117.611C61.7291 117.649 57.0863 117.696 52.4358 117.719C45.8527 117.749 39.2696 117.719 32.6942 117.757C24.6482 117.803 16.6099 117.849 8.56396 117.903C8.64866 118.248 8.74875 118.594 8.83345 118.94C18.3885 118.855 27.9359 118.771 37.491 118.686C44.2897 118.625 51.096 118.801 57.8947 118.786C61.4596 118.778 65.0167 118.678 68.5816 118.594C72.1465 118.678 75.7037 118.778 79.2685 118.786C86.0672 118.801 92.8736 118.625 99.6722 118.686C125.111 118.924 150.551 119.078 175.982 119.546C176.906 119.562 177.83 119.577 178.754 119.592C178.854 119.216 178.954 118.84 179.054 118.463C168.698 118.325 158.342 118.179 147.994 118.072C133.488 117.926 118.983 117.849 104.477 117.765L104.469 117.757Z" fill="#191919"/>
<path d="M91.3874 146.409C87.0372 146.401 82.6793 146.401 78.329 146.409C75.5187 146.409 72.7007 146.493 69.9058 146.286C67.6652 146.125 65.5325 146.417 63.2765 146.417C57.4403 146.401 51.6041 146.401 45.7678 146.417C37.6525 146.432 29.5373 146.455 21.4297 146.478C21.6607 146.816 21.8994 147.146 22.1303 147.484C37.6141 147.377 53.0978 147.238 68.5815 147.108C84.3347 147.238 100.088 147.384 115.841 147.492C132.241 147.607 148.649 147.753 165.049 147.761C165.179 147.761 165.318 147.761 165.449 147.761C165.711 147.392 165.98 147.023 166.234 146.655C154.339 146.616 142.451 146.555 130.555 146.524C117.496 146.493 104.446 146.447 91.3874 146.424V146.409Z" fill="#191919"/>
<path d="M160.036 97.2297C146.2 97.1222 132.364 96.9532 118.528 96.8764C110.313 96.8303 102.097 96.8457 93.8742 96.8534V96.8841L93.8357 96.8534C91.6876 96.8534 89.5394 96.8534 87.3913 96.8534C82.4944 96.8534 77.6052 96.8534 72.7083 96.838C71.8537 96.838 71.0067 96.838 70.1521 96.838C69.6208 96.838 69.0972 96.838 68.566 96.838C68.0347 96.838 67.5111 96.838 66.9799 96.838C66.1252 96.838 65.2783 96.838 64.4236 96.838C59.5267 96.838 54.6376 96.838 49.7407 96.8457C39.3617 96.8457 28.9828 96.7996 18.6116 96.861C14.3999 96.8841 10.196 96.9225 5.98438 96.9609C5.98438 97.2527 5.99977 97.5368 5.99977 97.8287C14.5847 97.7672 23.1697 97.7058 31.7623 97.6674C39.1231 97.629 46.4838 97.9285 53.8445 97.9285C58.7491 97.9285 63.6537 97.7903 68.5583 97.6674C73.4629 97.7903 78.3674 97.9285 83.272 97.9285C90.6328 97.9285 97.9935 97.629 105.354 97.6674C130.686 97.7903 156.017 98.013 181.348 98.1666C181.464 98.1666 181.587 98.1666 181.703 98.1666C181.703 97.7442 181.726 97.3295 181.726 96.9148C178.284 97.0146 174.835 97.1068 171.393 97.1836C167.605 97.2681 163.801 97.2527 160.013 97.222L160.036 97.2297Z" fill="#191919"/>
<path d="M98.2865 132.01C92.2655 132.01 86.2445 132.225 80.2158 132.248C77.0436 132.256 73.8329 132.079 70.6838 131.849C65.6637 131.48 60.4896 132.286 55.4388 132.248C49.9105 132.21 44.39 132.018 38.8694 132.018C30.4 132.01 21.9382 132.11 13.4688 132.256C13.6073 132.571 13.7459 132.893 13.8922 133.216C19.6823 133.108 25.4723 133.008 31.2623 132.985C39.9628 132.947 48.6709 133.239 57.3713 133.223C61.1133 133.223 64.8476 132.985 68.5895 132.786C72.3238 132.985 76.0657 133.216 79.8077 133.223C88.5081 133.239 97.2163 132.947 105.917 132.985C116.072 133.031 126.22 133.3 136.376 133.454C148.749 133.646 161.115 133.961 173.488 134.076C173.634 133.761 173.788 133.438 173.934 133.116C161.33 132.993 148.734 132.74 136.13 132.486C123.525 132.233 110.914 132.01 98.3096 132.025L98.2865 132.01Z" fill="#191919"/>
<path d="M98.7713 124.922C91.4105 124.999 84.0575 125.29 76.6968 125.39C74.3253 125.421 71.9539 125.26 69.5824 125.168C69.4285 125.137 69.2822 125.114 69.1436 125.114C68.9511 125.114 68.7663 125.122 68.5738 125.129C68.3813 125.129 68.1965 125.114 68.004 125.114C67.8655 125.114 67.7192 125.129 67.5652 125.168C65.1937 125.26 62.8223 125.421 60.4508 125.39C53.0901 125.29 45.7371 124.999 38.3763 124.922C29.0907 124.822 19.8051 124.699 10.5195 124.684C10.6427 125.06 10.7813 125.436 10.9122 125.805C18.219 125.767 25.5259 125.744 32.8327 125.728C38.5149 125.721 44.1972 126.197 49.8794 126.235C56.1083 126.273 62.3372 126.097 68.5661 125.982C74.795 126.097 81.0239 126.273 87.2528 126.235C92.935 126.204 98.6173 125.721 104.3 125.728C121.477 125.751 138.655 125.843 155.832 126.058C162.754 126.143 169.684 126.289 176.606 126.435C176.721 126.112 176.837 125.782 176.944 125.452C163.486 125.198 150.027 124.853 136.56 124.722C123.956 124.599 111.352 124.784 98.7482 124.922H98.7713Z" fill="#191919"/>
<path d="M57.3638 90.633C61.1057 90.633 64.84 90.3949 68.5819 90.1953C72.3162 90.3949 76.0582 90.6253 79.8001 90.633C82.1793 90.633 84.5584 90.6176 86.9299 90.5869L85.8673 89.6193C81.2707 89.7038 76.6741 89.7575 72.0929 89.604C70.9457 89.5656 69.8062 89.4427 68.6512 89.435C66.5493 89.412 64.4473 89.5809 62.3453 89.627C60.1125 89.6731 57.8796 89.6808 55.6391 89.6654C51.1657 89.6347 46.6999 89.5118 42.2265 89.458C41.1101 89.4427 39.9937 89.435 38.8695 89.435C28.0055 89.4273 17.1492 89.5886 6.28523 89.7959C6.26213 90.1185 6.24673 90.441 6.22363 90.7636C14.5699 90.61 22.9085 90.4257 31.2547 90.3873C39.9552 90.3489 48.6633 90.6407 57.3638 90.6253V90.633Z" fill="#191919"/>
<path d="M98.2863 89.4351C96.8157 89.4351 95.3451 89.4504 93.8745 89.4735V90.4871C97.886 90.4257 101.89 90.372 105.901 90.395C116.057 90.4411 126.205 90.7099 136.36 90.8634C151.428 91.1015 166.504 91.5162 181.572 91.5239C181.556 91.209 181.541 90.9018 181.518 90.587C166.381 90.5025 151.251 90.203 136.114 89.9035C123.51 89.6501 110.898 89.4274 98.294 89.4427L98.2863 89.4351Z" fill="#191919"/>
<path d="M49.8869 83.6677C56.1158 83.7061 62.3447 83.5295 68.5736 83.4143C72.1231 83.4757 75.6803 83.5602 79.2298 83.6139L78.3135 82.7846C77.7745 82.7922 77.2279 82.8076 76.6889 82.8153C75.1028 82.8383 73.509 82.7692 71.9229 82.7001C70.0673 82.6156 68.3426 82.5542 66.4871 82.6386C64.4775 82.7308 62.4602 82.846 60.443 82.8153C53.0822 82.7154 45.7292 82.4236 38.3685 82.3468C27.9972 82.2393 17.6183 82.1011 7.23936 82.1241C7.17777 82.5004 7.10847 82.8767 7.04688 83.253C15.6395 83.1993 24.2322 83.1685 32.8248 83.1609C38.5071 83.1532 44.1893 83.6293 49.8715 83.6677H49.8869Z" fill="#191919"/>
<path d="M98.7714 82.3471C97.1391 82.3624 95.5068 82.3931 93.8745 82.4315V83.4836C97.3547 83.3377 100.835 83.1611 104.315 83.1611C121.493 83.1841 138.67 83.2763 155.848 83.4913C164.163 83.5911 172.471 83.7754 180.779 83.9521C180.733 83.6219 180.686 83.284 180.64 82.9461C165.957 82.685 151.267 82.2933 136.584 82.1551C123.98 82.0322 111.375 82.2165 98.7714 82.3547V82.3471Z" fill="#191919"/>
<path d="M57.8947 76.2111C61.4596 76.2034 65.0168 76.1035 68.5816 76.0191C69.3593 76.0344 70.1446 76.0575 70.9223 76.0728L69.8752 75.1206C69.7135 75.1206 69.5518 75.1206 69.3978 75.1206C67.6269 75.1513 65.9099 75.0361 64.1621 75.0515C60.2508 75.0822 56.3471 75.1206 52.4358 75.1359C45.8527 75.1667 39.2696 75.1359 32.6943 75.1743C24.6945 75.2204 16.7024 75.2665 8.70259 75.3202C8.61789 75.6658 8.5178 76.0114 8.43311 76.357C18.1191 76.2648 27.8051 76.188 37.491 76.0959C44.2897 76.0344 51.0961 76.2111 57.8947 76.1957V76.2111Z" fill="#191919"/>
<path d="M104.469 75.1895C100.935 75.1665 97.4086 75.1665 93.8745 75.1665V76.1111C95.8071 76.1034 97.7397 76.0957 99.6722 76.1111C125.111 76.3491 150.551 76.5027 175.982 76.9712C177.145 76.9942 178.307 77.0096 179.47 77.0249C179.385 76.641 179.293 76.2647 179.2 75.8807C168.798 75.7425 158.389 75.5966 147.987 75.489C133.481 75.3431 118.975 75.2663 104.469 75.1819V75.1895Z" fill="#191919"/>
<path d="M130.555 103.934C117.497 103.903 104.446 103.857 91.3876 103.834C84.2501 103.819 77.105 103.826 69.9675 103.85C69.5056 103.85 69.0359 103.873 68.5739 103.903C68.112 103.873 67.6423 103.85 67.1803 103.85C60.0429 103.826 52.8977 103.826 45.7603 103.834C32.7019 103.857 19.6513 103.896 6.59291 103.934C6.48512 103.934 6.37732 103.934 6.26953 103.934C6.30033 104.295 6.34653 104.656 6.37732 105.009C11.3512 104.971 16.3328 104.932 21.3067 104.902C37.0599 104.794 52.813 104.648 68.5662 104.518C84.3194 104.648 100.073 104.794 115.826 104.902C132.226 105.017 148.633 105.163 165.033 105.17C170.469 105.17 175.905 105.155 181.341 105.124C181.372 104.779 181.418 104.441 181.441 104.095C164.471 104.08 147.509 103.972 130.54 103.934H130.555Z" fill="#191919"/>
<path d="M83.2954 160.247C78.3909 160.247 73.4863 160.386 68.5817 160.508C63.6771 160.386 58.7725 160.247 53.8679 160.247C47.0616 160.247 40.2629 160.493 33.4565 160.501C33.7491 160.777 34.0417 161.061 34.3343 161.338C39.4776 161.338 44.6208 161.322 49.7564 161.322C54.6533 161.322 59.5425 161.322 64.4394 161.338C65.294 161.338 66.1409 161.338 66.9956 161.338C67.5269 161.338 68.0504 161.338 68.5817 161.338C69.113 161.338 69.6365 161.338 70.1678 161.338C71.0224 161.338 71.8694 161.338 72.724 161.338C77.6209 161.338 82.5101 161.338 87.407 161.33C97.7859 161.33 108.165 161.376 118.536 161.315C130.286 161.246 142.027 161.123 153.777 161.015C154.069 160.739 154.362 160.47 154.654 160.194C138.231 160.309 121.816 160.432 105.393 160.508C98.0323 160.547 90.6716 160.247 83.3108 160.247H83.2954Z" fill="#191919"/>
<path d="M79.2609 181.973C77.1975 181.973 75.1417 182.011 73.0859 182.057C74.7028 182.449 76.3428 182.787 77.9905 183.086C80.2388 183.071 82.4793 183.048 84.7276 183.032C91.3107 183.002 97.8937 183.032 104.469 182.994C106.456 182.979 108.45 182.971 110.436 182.956C112.03 182.656 113.608 182.318 115.164 181.927C109.997 181.973 104.831 182.019 99.6646 182.065C92.866 182.126 86.0596 181.95 79.2609 181.965V181.973Z" fill="#191919"/>
<path d="M68.5816 153.666C54.607 153.551 40.6324 153.428 26.6655 153.32C26.9427 153.651 27.2199 153.981 27.5048 154.303C33.5951 154.319 39.6777 154.334 45.768 154.349C50.1182 154.357 54.4761 154.357 58.8264 154.349C61.6367 154.349 64.4547 154.265 67.2496 154.472C69.4902 154.634 71.623 154.342 73.8789 154.342C79.7151 154.357 85.5514 154.357 91.3876 154.342C104.446 154.319 117.497 154.28 130.555 154.242C140.51 154.219 150.458 154.173 160.414 154.134C160.737 153.766 161.045 153.389 161.361 153.013C146.185 153.036 131.017 153.167 115.841 153.274C100.088 153.382 84.3348 153.528 68.5816 153.658V153.666Z" fill="#191919"/>
<path d="M105.901 167.796C97.2003 167.835 88.4922 167.543 79.7917 167.558C76.0498 167.558 72.3155 167.796 68.5736 167.996C64.8393 167.796 61.0973 167.566 57.3554 167.558C52.2737 167.55 47.192 167.643 42.1104 167.712C42.1488 167.742 42.1796 167.765 42.2181 167.796C42.6493 168.111 43.0959 168.411 43.5348 168.71C48.0005 168.649 52.4662 168.526 56.9319 168.51C60.1041 168.503 63.3148 168.679 66.4639 168.91C71.484 169.278 76.658 168.472 81.7089 168.51C87.2372 168.549 92.7577 168.741 98.2859 168.741C110.898 168.756 123.502 168.533 136.106 168.28C139.093 168.219 142.081 168.157 145.076 168.103C145.222 167.996 145.376 167.896 145.522 167.789C145.815 167.573 146.108 167.351 146.4 167.136C143.051 167.197 139.702 167.259 136.36 167.312C126.204 167.474 116.056 167.735 105.901 167.781V167.796Z" fill="#191919"/>
<path d="M87.268 174.523C81.0391 174.485 74.8102 174.662 68.5812 174.777C63.4149 174.685 58.2562 174.554 53.0898 174.531C53.7135 174.854 54.3372 175.169 54.9685 175.476C56.801 175.43 58.6258 175.399 60.4583 175.376C62.8297 175.345 65.2012 175.506 67.5726 175.599C67.7266 175.629 67.8729 175.652 68.0115 175.652C68.204 175.652 68.3888 175.645 68.5812 175.637C68.7737 175.637 68.9585 175.652 69.151 175.652C69.2896 175.652 69.4359 175.637 69.5899 175.599C71.9613 175.506 74.3328 175.345 76.7042 175.376C84.065 175.476 91.418 175.767 98.7787 175.844C109.72 175.959 120.661 176.105 131.602 176.059C132.395 175.683 133.18 175.307 133.958 174.907C124.079 174.977 114.201 175.015 104.322 175.03C98.6401 175.038 92.9579 174.562 87.2757 174.523H87.268Z" fill="#191919"/>
</g>
<defs>
<clipPath id="clip0_264_14091">
<rect width="181" height="184" fill="white"/>
</clipPath>
</defs>
</svg>
