<svg width="150" height="50" viewBox="0 0 150 50" fill="none" xmlns="http://www.w3.org/2000/svg">
<g clip-path="url(#clip0_506_13959)">
<path d="M10.8009 0.131274C10.8009 4.0694 10.8609 8.00753 10.8009 11.9457C10.8009 13.1988 11.2208 13.4969 12.3596 13.4376C14.2183 13.3182 16.1367 13.4376 18.0554 13.4376C18.0554 14.7506 18.0554 15.8844 18.0554 17.1967C16.0767 17.1967 14.0983 17.2565 12.1796 17.1967C11.1003 17.137 10.7405 17.4356 10.7405 18.5696C10.8005 28.1765 10.7405 37.8428 10.7405 47.45C10.7405 47.9277 10.7405 48.4646 10.7405 49.0012C9.24119 49.0012 7.92251 49.0012 6.36324 49.0012C6.36324 48.4646 6.30324 47.9869 6.30324 47.45C6.30324 37.8428 6.30324 28.2362 6.30324 18.6887C6.30324 17.4953 6.00336 17.0778 4.74456 17.1375C3.18589 17.2569 1.62673 17.1375 0.00805664 17.1375C0.00805664 15.8844 0.00805664 14.7506 0.00805664 13.3785C1.62673 13.3785 3.24589 13.3188 4.86456 13.3785C5.94384 13.4382 6.30372 13.0801 6.30372 11.9461C6.18384 7.9483 6.18384 4.01017 6.18384 0.0123291C7.74324 0.131274 9.24239 0.131274 10.8009 0.131274Z" fill="white"/>
<path d="M103.796 0.131226C103.796 4.12907 103.856 8.18674 103.796 12.1845C103.796 13.1987 104.156 13.4973 105.116 13.4376C107.094 13.3779 109.073 13.4376 111.111 13.4376C111.111 14.7505 111.111 15.8843 111.111 17.1967C108.713 17.1967 106.375 17.1967 103.916 17.1967C103.916 27.8782 103.916 38.4394 103.916 49.0608C102.417 49.0608 101.038 49.0608 99.4793 49.0608C99.4793 48.6429 99.4193 48.1656 99.4193 47.6883C99.4193 39.0954 99.4193 30.5034 99.4193 21.9105C99.4193 20.4185 99.2993 18.927 99.2993 17.4351C97.8001 17.3753 96.3014 17.3156 94.8023 17.2559C94.3223 17.2559 93.7831 17.2559 93.1836 17.2559C93.1836 16.0625 93.1836 14.8689 93.1836 13.4968C94.8023 13.4968 96.4214 13.4371 98.0401 13.4968C99.1193 13.5565 99.4793 13.258 99.4793 12.1243C99.3593 8.12643 99.4193 4.18818 99.3593 0.190338C100.798 0.131226 102.297 0.131226 103.796 0.131226Z" fill="white"/>
<path d="M149.964 31.5177C139.291 31.5177 128.619 31.5177 117.946 31.5177C117.227 36.2315 120.405 41.96 124.841 44.3466C128.558 46.3157 132.396 46.3755 136.353 45.1223C140.37 43.8692 143.009 41.0645 145.047 37.4252C146.367 38.0812 147.506 38.7377 148.705 39.3343C145.227 47.8675 134.675 52.1035 125.141 48.9415C116.328 46.0178 111.171 35.6949 113.809 26.0873C116.507 16.1825 125.74 10.7521 136.173 13.0199C144.688 14.9292 150.443 23.0445 149.964 31.5177ZM145.047 27.6988C144.028 20.5385 137.612 16.6003 131.256 16.7198C124.781 16.8392 118.545 22.0903 118.366 27.6988C127.18 27.6988 136.053 27.6988 145.047 27.6988Z" fill="white"/>
<path d="M56.2494 13.4974C57.868 13.4974 59.2472 13.4974 60.7463 13.4974C60.7463 25.3716 60.7463 37.1267 60.7463 49.0012C59.3072 49.0012 57.9285 49.0012 56.3094 49.0012C56.3094 47.0921 56.3094 45.1822 56.3094 43.2733C56.2494 43.2135 56.1294 43.1538 56.0694 43.0941C51.1529 48.7623 45.0973 50.9704 37.7821 49.4784C33.0456 48.5235 29.448 45.7789 26.6902 41.9595C21.2938 34.5006 22.6731 23.6409 29.508 17.1963C35.6238 11.4085 49.1742 9.73728 56.2494 19.8217C56.2494 17.6147 56.2494 15.6456 56.2494 13.4974ZM56.6094 31.4579C56.6094 23.1639 50.4337 16.8385 42.3395 16.8385C34.3651 16.8385 27.9494 23.2833 27.9494 31.3388C27.9494 39.394 34.4251 46.0177 42.3395 46.0177C50.4337 45.8983 56.6094 39.6926 56.6094 31.4579Z" fill="white"/>
<path d="M74.237 49.0608C72.6184 49.0608 71.2392 49.0608 69.7998 49.0608C69.7998 37.1869 69.7998 25.4313 69.7998 13.557C71.2392 13.557 72.6179 13.557 74.237 13.557C74.237 15.1082 74.237 16.6599 74.237 18.2112C74.297 18.2705 74.417 18.3306 74.477 18.39C77.8347 14.034 81.672 10.9908 87.7276 13.6763C86.8884 14.9892 86.169 16.1828 85.4492 17.3159C81.072 16.3611 77.894 18.0316 76.0357 22.0894C74.5962 25.252 74.417 28.5937 74.357 31.9348C74.237 37.1259 74.297 42.3174 74.297 47.5089C74.237 47.9869 74.237 48.464 74.237 49.0608Z" fill="white"/>
</g>
<defs>
<clipPath id="clip0_506_13959">
<rect width="150" height="50" fill="white"/>
</clipPath>
</defs>
</svg>
