<svg width="1440" height="62" viewBox="0 0 1440 62" fill="none" xmlns="http://www.w3.org/2000/svg">
<rect width="1440" height="62" fill="#FFBB00"/>
<mask id="mask0_1_3151" style="mask-type:alpha" maskUnits="userSpaceOnUse" x="0" y="0" width="1440" height="62">
<rect width="1440" height="62" fill="#FFBB00"/>
</mask>
<g mask="url(#mask0_1_3151)">
<mask id="mask1_1_3151" style="mask-type:alpha" maskUnits="userSpaceOnUse" x="0" y="8" width="1441" height="810">
<g clip-path="url(#clip0_1_3151)">
<path d="M166.158 23.2247C170.924 24.2147 175.749 24.8972 180.538 25.7597C184.223 26.4272 187.878 27.3871 191.646 27.3871C193.094 27.3871 195.053 27.2446 195.256 25.3247C195.436 23.5472 193.492 23.5922 192.366 23.2697C183.675 20.7873 174.684 19.8498 165.783 18.4998C163.801 18.1998 161.527 17.8773 159.366 19.7073C161.227 22.0997 163.741 22.7222 166.165 23.2247H166.158Z" fill="#191919"/>
<path d="M42.6371 38.8394C43.4401 40.1594 44.5134 40.1369 45.4665 40.3694C53.6547 42.4019 61.9855 41.4719 70.2638 41.5019C71.8624 41.5019 73.0557 40.3994 74.1364 39.3194C74.9995 38.4569 75.9377 37.5045 75.1421 36.162C74.4517 34.9995 73.3559 35.6295 72.4027 35.772C71.6072 35.892 70.8041 36.0045 70.0011 36.102C62.9462 36.927 55.8387 35.907 48.7914 36.6945C46.6374 36.9345 44.3483 36.837 42.6446 38.8394H42.6371Z" fill="#191919"/>
<path d="M66.226 61.264C63.1338 61.879 60.0267 62.314 56.867 62.0815C51.6884 61.7065 46.5248 62.044 41.3687 62.389C39.4849 62.5165 37.3084 62.5315 36.0025 64.729C36.8431 65.5839 37.6461 65.7114 38.4267 65.9064C46.825 68.0064 55.3659 67.1289 63.8618 67.0689C65.6706 67.0539 66.9315 65.6139 68.0422 64.294C68.5976 63.634 69.2881 62.8915 68.6426 61.864C68.0197 60.8665 67.1341 61.0765 66.2185 61.2565L66.226 61.264Z" fill="#191919"/>
<path d="M19.446 21.8447C27.9494 21.2148 36.1601 18.9648 44.4383 17.1273C45.7517 16.8348 47.0501 16.0324 46.4422 14.3299C45.9094 12.8374 45.0312 11.7574 43.0274 12.2074C34.7416 14.0749 26.3583 15.5224 18.2226 18.0348C16.9468 18.4323 15.4232 18.6498 14.7177 20.3673C16.0461 21.6947 17.8099 21.9722 19.4385 21.8522L19.446 21.8447Z" fill="#191919"/>
<path d="M108.15 40.7069C114.319 39.1244 120.474 37.467 126.628 35.7945C127.799 35.4795 128.962 35.052 130.028 34.4895C131.154 33.897 132.625 33.282 131.942 31.5571C131.296 29.9371 129.968 29.8021 128.384 30.1771C123.949 31.2346 119.468 32.1196 115.04 33.222C110.544 34.3395 106.004 35.412 101.876 38.1569C103.519 40.9469 104.923 41.5319 108.15 40.7069Z" fill="#191919"/>
<path d="M128.211 57.3341C135.792 57.9791 143.387 58.5791 150.975 57.4616C152.663 57.2141 155.305 57.3941 155.11 54.9791C154.93 52.7292 152.363 52.7742 150.487 52.4892C150.389 52.4742 150.284 52.4667 150.187 52.4667C144.31 52.4967 138.426 52.3317 132.564 52.6617C129.893 52.8117 126.891 52.7517 124.677 54.9866C126.042 56.4791 127.003 57.2291 128.211 57.3341Z" fill="#191919"/>
<path d="M22.8308 46.4218C21.3073 45.4243 20.0914 45.6793 18.8981 45.7318C15.9711 45.8593 13.0816 46.3843 10.1395 46.5493C6.73968 46.7368 3.35483 47.1718 0 47.8168V53.0292C5.69645 52.5717 11.3254 51.5667 16.9918 50.8542C19.8363 50.4942 21.3673 48.7843 22.8308 46.4368V46.4218Z" fill="#191919"/>
<path d="M277.408 28.7746C277.543 30.7171 279.419 31.3021 281.093 31.1221C289.236 30.2671 297.364 29.2696 305.492 28.3321C307.638 28.0846 308.592 27.0046 307.886 24.5972C298.67 23.8772 289.739 24.8897 280.815 26.1722C279.126 26.4122 277.265 26.7047 277.4 28.7671L277.408 28.7746Z" fill="#191919"/>
<path d="M71.9449 23.2622C79.4126 24.1622 86.9103 24.2897 94.393 23.5547C96.1267 23.3822 99.0012 23.5247 98.8586 21.0348C98.7235 18.6198 95.879 18.3573 93.9952 18.5073C87.0379 19.0548 80.0355 17.8023 73.1082 19.0698C71.4646 19.3698 69.6558 19.4073 68.5375 21.0123C69.9335 22.6172 70.4814 23.0972 71.9449 23.2697V23.2622Z" fill="#191919"/>
<path d="M230.185 34.4745C229.997 36.072 231.528 36.372 232.586 36.7845C239.851 39.5819 247.432 40.7594 255.192 40.8719C256.408 40.8869 257.601 40.6694 258.825 39.5894C258.517 39.1094 258.352 38.7344 258.089 38.4569C257.744 38.0894 257.376 37.692 256.926 37.482C249.338 33.9945 241.18 33.1695 232.999 32.637C231.986 32.5695 230.365 32.952 230.192 34.4745H230.185Z" fill="#191919"/>
<path d="M108.045 60.1765C99.8118 58.0466 91.3534 57.0866 82.9851 55.6616C81.424 55.3991 79.5552 55.0166 78.1442 56.5166C78.4444 58.4666 79.983 58.9991 81.394 59.3441C90.0325 61.444 98.7535 63.139 107.542 64.504C109.471 64.8039 110.349 63.8065 110.236 61.8565C110.154 60.4015 108.938 60.4165 108.045 60.184V60.1765Z" fill="#191919"/>
<path d="M292.35 47.1118C289.791 46.6243 287.142 46.0843 284.5 46.7668C283.487 47.0293 282.436 47.4493 282.383 48.6193C282.323 49.8642 283.074 50.6742 284.38 50.8992C284.98 51.0042 285.551 51.2217 286.151 51.3267C292.973 52.5642 299.901 52.3617 306.783 52.7292C309.004 52.8492 310.581 51.5667 311.871 49.5717C310.626 48.3193 309.215 48.2293 307.834 48.0193C302.708 47.2468 297.499 48.0793 292.358 47.1118H292.35Z" fill="#191919"/>
<path d="M176.522 48.3043C176.252 51.1692 179.202 50.9142 181.011 51.2142C187.518 52.2717 194.122 52.0992 200.682 52.5117C203.068 52.6617 204.577 51.2892 205.89 49.3092C204.802 47.9818 203.496 47.7943 202.363 47.7718C195.293 47.6668 188.276 47.0218 181.236 46.4443C179.51 46.3018 176.763 45.6268 176.515 48.2968L176.522 48.3043Z" fill="#191919"/>
<path d="M252.055 62.9365C249.556 63.244 247.064 63.7165 245.548 66.3339C246.756 67.8639 248.22 67.7739 249.616 67.7739C254.674 67.7739 259.74 67.8339 264.791 67.6839C267.208 67.6089 269.625 67.2114 272.004 66.7839C273.482 66.5214 274.488 65.8464 274.218 63.8665C273.948 61.894 272.319 61.6765 271.403 61.9165C265.001 63.5515 258.472 62.149 252.055 62.9365Z" fill="#191919"/>
<path d="M573.368 23.2247C578.134 24.2147 582.96 24.8972 587.748 25.7597C591.433 26.4272 595.088 27.3871 598.856 27.3871C600.304 27.3871 602.263 27.2446 602.466 25.3247C602.646 23.5472 600.702 23.5922 599.576 23.2697C590.885 20.7873 581.894 19.8498 572.993 18.4998C571.011 18.1998 568.737 17.8773 566.583 19.7073C568.444 22.0997 570.959 22.7222 573.383 23.2247H573.368Z" fill="#191919"/>
<path d="M449.84 38.8394C450.643 40.1594 451.716 40.1369 452.669 40.3694C460.857 42.4019 469.188 41.4719 477.466 41.5019C479.065 41.5019 480.258 40.3994 481.339 39.3194C482.202 38.4569 483.14 37.5045 482.345 36.162C481.654 34.9995 480.558 35.6295 479.605 35.772C478.81 35.892 478.007 36.0045 477.204 36.102C470.149 36.927 463.041 35.907 455.994 36.6945C453.84 36.9345 451.551 36.837 449.847 38.8394H449.84Z" fill="#191919"/>
<path d="M473.429 61.264C470.336 61.879 467.229 62.314 464.07 62.0815C458.891 61.7065 453.727 62.044 448.571 62.389C446.687 62.5165 444.511 62.5315 443.205 64.729C444.046 65.5839 444.849 65.7114 445.629 65.9064C454.028 68.0064 462.569 67.1289 471.064 67.0689C472.873 67.0539 474.134 65.6139 475.245 64.294C475.8 63.634 476.491 62.8915 475.845 61.864C475.222 60.8665 474.337 61.0765 473.421 61.2565L473.429 61.264Z" fill="#191919"/>
<path d="M426.649 21.8447C435.152 21.2148 443.363 18.9648 451.641 17.1273C452.954 16.8348 454.253 16.0324 453.645 14.3299C453.112 12.8374 452.234 11.7574 450.23 12.2074C441.944 14.0749 433.561 15.5224 425.425 18.0348C424.149 18.4323 422.626 18.6498 421.92 20.3673C423.249 21.6947 425.012 21.9722 426.641 21.8522L426.649 21.8447Z" fill="#191919"/>
<path d="M515.36 40.7069C521.529 39.1244 527.684 37.467 533.838 35.7945C535.009 35.4795 536.172 35.052 537.238 34.4895C538.364 33.897 539.835 33.282 539.152 31.5571C538.506 29.9371 537.178 29.8021 535.594 30.1771C531.159 31.2346 526.678 32.1196 522.25 33.222C517.754 34.3395 513.214 35.412 509.086 38.1569C510.729 40.9469 512.133 41.5319 515.36 40.7069Z" fill="#191919"/>
<path d="M320.097 20.8773C320.698 20.9523 321.313 20.8923 322.611 20.8923C329.584 20.0898 337.239 19.2498 344.879 18.2823C346.305 18.1023 348.174 17.8773 347.904 15.6799C347.671 13.7374 346.005 14.2324 344.774 14.1799C336.421 13.8049 328.188 15.0424 319.932 16.0324C318.551 16.1973 317.193 16.8573 317.178 18.3798C317.155 20.0748 318.574 20.6898 320.09 20.8773H320.097Z" fill="#191919"/>
<path d="M535.422 57.3341C543.002 57.9791 550.597 58.5791 558.185 57.4616C559.874 57.2141 562.515 57.3941 562.32 54.9791C562.14 52.7292 559.573 52.7742 557.697 52.4892C557.599 52.4742 557.494 52.4667 557.397 52.4667C551.52 52.4967 545.629 52.3317 539.775 52.6617C537.103 52.8117 534.101 52.7517 531.887 54.9866C533.253 56.4791 534.213 57.2291 535.422 57.3341Z" fill="#191919"/>
<path d="M403.69 53.2242C410.587 52.9917 417.365 51.7017 424.194 50.8392C427.039 50.4792 428.57 48.7693 430.033 46.4218C428.51 45.4243 427.294 45.6793 426.101 45.7318C423.174 45.8593 420.284 46.3843 417.342 46.5493C412.194 46.8343 407.082 47.6668 402.077 48.9718C400.208 49.4592 398.699 50.3142 398.902 52.6767C400.47 53.5617 402.107 53.2917 403.683 53.2392L403.69 53.2242Z" fill="#191919"/>
<path d="M684.618 28.7746C684.745 30.7171 686.629 31.3021 688.303 31.1221C696.446 30.2671 704.574 29.2696 712.702 28.3321C714.849 28.0846 715.802 27.0046 715.096 24.5972C705.88 23.8772 696.949 24.8897 688.025 26.1722C686.336 26.4122 684.475 26.7047 684.61 28.7671L684.618 28.7746Z" fill="#191919"/>
<path d="M479.155 23.2622C486.623 24.1622 494.12 24.2897 501.603 23.5547C503.337 23.3822 506.211 23.5247 506.069 21.0348C505.934 18.6198 503.089 18.3573 501.205 18.5073C494.248 19.0548 487.246 17.8023 480.318 19.0698C478.675 19.3698 476.866 19.4073 475.748 21.0123C477.144 22.6172 477.691 23.0972 479.155 23.2697V23.2622Z" fill="#191919"/>
<path d="M637.387 34.4745C637.2 36.072 638.731 36.372 639.789 36.7845C647.054 39.5819 654.634 40.7594 662.395 40.8719C663.611 40.8869 664.804 40.6694 666.027 39.5894C665.719 39.1094 665.554 38.7344 665.292 38.4569C664.946 38.0894 664.579 37.692 664.128 37.482C656.541 33.9945 648.382 33.1695 640.202 32.637C639.189 32.5695 637.567 32.952 637.395 34.4745H637.387Z" fill="#191919"/>
<path d="M515.248 60.1765C507.014 58.0466 498.556 57.0866 490.188 55.6616C488.627 55.3991 486.758 55.0166 485.347 56.5166C485.647 58.4666 487.186 58.9991 488.597 59.3441C497.235 61.444 505.956 63.139 514.745 64.504C516.674 64.8039 517.552 63.8065 517.439 61.8565C517.357 60.4015 516.141 60.4165 515.248 60.184V60.1765Z" fill="#191919"/>
<path d="M699.56 47.1118C697.001 46.6243 694.352 46.0843 691.71 46.7668C690.697 47.0293 689.646 47.4493 689.594 48.6193C689.534 49.8642 690.284 50.6742 691.59 50.8992C692.19 51.0042 692.761 51.2217 693.361 51.3267C700.183 52.5642 707.111 52.3617 713.993 52.7292C716.215 52.8492 717.791 51.5667 719.081 49.5717C717.836 48.3193 716.425 48.2293 715.044 48.0193C709.918 47.2468 704.709 48.0793 699.568 47.1118H699.56Z" fill="#191919"/>
<path d="M583.733 48.3043C583.462 51.1692 586.412 50.9142 588.221 51.2142C594.728 52.2717 601.332 52.0992 607.892 52.5117C610.279 52.6617 611.787 51.2892 613.1 49.3092C612.012 47.9818 610.706 47.7943 609.573 47.7718C602.503 47.6668 595.486 47.0218 588.446 46.4443C586.72 46.3018 583.973 45.6268 583.725 48.2968L583.733 48.3043Z" fill="#191919"/>
<path d="M328.728 40.6919C328.248 43.0469 331.002 43.3093 332.826 43.6843C336.879 44.5318 340.954 45.2818 345.022 46.0393C347.701 46.5343 350.328 47.3443 353.105 47.2543C354.614 47.2018 355.942 46.9768 356.407 45.0643C354.246 43.2718 351.829 42.5819 349.405 41.9519C344.331 40.6319 339.258 39.2969 334.034 38.6219C331.82 38.3369 329.186 38.4644 328.736 40.6994L328.728 40.6919Z" fill="#191919"/>
<path d="M370.877 33.5745C378.893 33.8445 386.848 32.8095 394.826 32.2846C396.08 32.2021 397.693 31.6621 397.543 29.9971C397.393 28.3771 395.787 28.2271 394.481 28.1371C387.081 27.6571 379.704 28.3546 372.333 28.8121C369.909 28.9621 369.181 30.6121 369.331 33.0945C369.947 33.2895 370.412 33.552 370.885 33.567L370.877 33.5745Z" fill="#191919"/>
<path d="M659.265 62.9365C656.766 63.244 654.274 63.7165 652.758 66.3339C653.966 67.8639 655.43 67.7739 656.826 67.7739C661.884 67.7739 666.95 67.8339 672.001 67.6839C674.418 67.6089 676.835 67.2114 679.214 66.7839C680.692 66.5214 681.698 65.8464 681.428 63.8665C681.158 61.894 679.529 61.6765 678.613 61.9165C672.211 63.5515 665.682 62.149 659.265 62.9365Z" fill="#191919"/>
<path d="M363.252 64.7665C368.934 64.7665 374.615 64.7814 380.296 64.639C382.203 64.594 384.124 64.189 385.993 63.7615C387.299 63.4615 388.395 62.899 388.109 61.039C387.832 59.1941 386.458 58.7591 385.295 59.0141C378.855 60.4165 372.326 59.224 365.886 59.9515C363.432 60.229 360.843 60.649 359.432 63.349C360.588 64.8415 361.954 64.759 363.252 64.759V64.7665Z" fill="#191919"/>
<path d="M977.471 23.2247C982.237 24.2147 987.063 24.8972 991.851 25.7597C995.536 26.4272 999.191 27.3871 1002.96 27.3871C1004.41 27.3871 1006.37 27.2446 1006.57 25.3247C1006.75 23.5472 1004.8 23.5922 1003.68 23.2697C994.988 20.7873 985.997 19.8498 977.096 18.4998C975.114 18.1998 972.84 17.8773 970.679 19.7073C972.54 22.0997 975.054 22.7222 977.478 23.2247H977.471Z" fill="#191919"/>
<path d="M853.95 38.8394C854.753 40.1594 855.826 40.1369 856.78 40.3694C864.968 42.4019 873.299 41.4719 881.577 41.5019C883.175 41.5019 884.369 40.3994 885.449 39.3194C886.313 38.4569 887.251 37.5045 886.455 36.162C885.765 34.9995 884.669 35.6295 883.716 35.772C882.92 35.892 882.117 36.0045 881.314 36.102C874.259 36.927 867.152 35.907 860.104 36.6945C857.95 36.9345 855.661 36.837 853.958 38.8394H853.95Z" fill="#191919"/>
<path d="M877.539 61.264C874.447 61.879 871.34 62.314 868.18 62.0815C863.001 61.7065 857.838 62.044 852.682 62.389C850.798 62.5165 848.621 62.5315 847.315 64.729C848.156 65.5839 848.959 65.7114 849.74 65.9064C858.138 68.0064 866.679 67.1289 875.175 67.0689C876.984 67.0539 878.244 65.6139 879.355 64.294C879.911 63.634 880.601 62.8915 879.956 61.864C879.333 60.8665 878.447 61.0765 877.531 61.2565L877.539 61.264Z" fill="#191919"/>
<path d="M830.759 21.8447C839.262 21.2148 847.473 18.9648 855.751 17.1273C857.065 16.8348 858.363 16.0324 857.755 14.3299C857.222 12.8374 856.344 11.7574 854.34 12.2074C846.055 14.0749 837.671 15.5224 829.536 18.0348C828.26 18.4323 826.736 18.6498 826.031 20.3673C827.359 21.6947 829.123 21.9722 830.752 21.8522L830.759 21.8447Z" fill="#191919"/>
<path d="M919.463 40.7069C925.632 39.1244 931.787 37.467 937.941 35.7945C939.112 35.4795 940.275 35.052 941.341 34.4895C942.467 33.897 943.938 33.282 943.255 31.5571C942.609 29.9371 941.281 29.8021 939.697 30.1771C935.262 31.2346 930.781 32.1196 926.353 33.222C921.857 34.3395 917.317 35.412 913.189 38.1569C914.832 40.9469 916.236 41.5319 919.463 40.7069Z" fill="#191919"/>
<path d="M724.208 20.8773C724.808 20.9523 725.423 20.8923 726.722 20.8923C733.694 20.0898 741.349 19.2498 748.99 18.2823C750.416 18.1023 752.285 17.8773 752.014 15.6799C751.782 13.7374 750.116 14.2324 748.885 14.1799C740.531 13.8049 732.298 15.0424 724.042 16.0324C722.661 16.1973 721.303 16.8573 721.288 18.3798C721.266 20.0748 722.684 20.6898 724.2 20.8773H724.208Z" fill="#191919"/>
<path d="M939.524 57.3341C947.105 57.9791 954.7 58.5791 962.288 57.4616C963.976 57.2141 966.618 57.3941 966.423 54.9791C966.243 52.7292 963.676 52.7742 961.8 52.4892C961.702 52.4742 961.597 52.4667 961.5 52.4667C955.623 52.4967 949.739 52.3317 943.878 52.6617C941.206 52.8117 938.204 52.7517 935.99 54.9866C937.356 56.4791 938.316 57.2291 939.524 57.3341Z" fill="#191919"/>
<path d="M807.801 53.2242C814.698 52.9917 821.475 51.7017 828.305 50.8392C831.149 50.4792 832.68 48.7693 834.144 46.4218C832.62 45.4243 831.404 45.6793 830.211 45.7318C827.284 45.8593 824.395 46.3843 821.453 46.5493C816.304 46.8343 811.193 47.6668 806.187 48.9718C804.318 49.4592 802.81 50.3142 803.012 52.6767C804.581 53.5617 806.217 53.2917 807.793 53.2392L807.801 53.2242Z" fill="#191919"/>
<path d="M1088.72 28.7746C1088.86 30.7171 1090.73 31.3021 1092.41 31.1221C1100.55 30.2671 1108.68 29.2696 1116.81 28.3321C1118.95 28.0846 1119.9 27.0046 1119.2 24.5972C1109.98 23.8772 1101.05 24.8897 1092.13 26.1722C1090.44 26.4122 1088.58 26.7047 1088.71 28.7671L1088.72 28.7746Z" fill="#191919"/>
<path d="M883.258 23.2622C890.726 24.1622 898.223 24.2897 905.706 23.5547C907.44 23.3822 910.314 23.5247 910.172 21.0348C910.036 18.6198 907.192 18.3573 905.308 18.5073C898.351 19.0548 891.349 17.8023 884.421 19.0698C882.778 19.3698 880.969 19.4073 879.851 21.0123C881.246 22.6172 881.794 23.0972 883.258 23.2697V23.2622Z" fill="#191919"/>
<path d="M1041.5 34.4745C1041.31 36.072 1042.84 36.372 1043.9 36.7845C1051.16 39.5819 1058.74 40.7594 1066.51 40.8719C1067.72 40.8869 1068.91 40.6694 1070.14 39.5894C1069.83 39.1094 1069.66 38.7344 1069.4 38.4569C1069.06 38.0894 1068.69 37.692 1068.24 37.482C1060.65 33.9945 1052.49 33.1695 1044.31 32.637C1043.3 32.5695 1041.68 32.952 1041.51 34.4745H1041.5Z" fill="#191919"/>
<path d="M919.358 60.1765C911.125 58.0466 902.666 57.0866 894.298 55.6616C892.737 55.3991 890.868 55.0166 889.457 56.5166C889.757 58.4666 891.296 58.9991 892.707 59.3441C901.345 61.444 910.067 63.139 918.855 64.504C920.784 64.8039 921.662 63.8065 921.549 61.8565C921.467 60.4015 920.251 60.4165 919.358 60.184V60.1765Z" fill="#191919"/>
<path d="M1103.66 47.1118C1101.1 46.6243 1098.45 46.0843 1095.81 46.7668C1094.8 47.0293 1093.75 47.4493 1093.7 48.6193C1093.64 49.8642 1094.39 50.6742 1095.69 50.8992C1096.29 51.0042 1096.86 51.2217 1097.46 51.3267C1104.29 52.5642 1111.21 52.3617 1118.1 52.7292C1120.32 52.8492 1121.89 51.5667 1123.18 49.5717C1121.94 48.3193 1120.53 48.2293 1119.15 48.0193C1114.02 47.2468 1108.81 48.0793 1103.67 47.1118H1103.66Z" fill="#191919"/>
<path d="M987.836 48.3043C987.565 51.1692 990.515 50.9142 992.324 51.2142C998.831 52.2717 1005.44 52.0992 1011.99 52.5117C1014.38 52.6617 1015.89 51.2892 1017.2 49.3092C1016.12 47.9818 1014.81 47.7943 1013.68 47.7718C1006.61 47.6668 999.589 47.0218 992.549 46.4443C990.823 46.3018 988.076 45.6268 987.828 48.2968L987.836 48.3043Z" fill="#191919"/>
<path d="M733.672 39.8519C733.191 42.2069 735.946 42.4694 737.769 42.8444C741.822 43.6918 745.898 44.4418 749.965 45.1993C752.645 45.6943 755.272 46.5043 758.049 46.4143C759.557 46.3618 760.886 46.1368 761.351 44.2243C759.189 42.4319 756.773 41.7419 754.348 41.1119C749.267 39.7919 744.201 38.4569 738.978 37.7819C736.764 37.497 734.129 37.6244 733.679 39.8594L733.672 39.8519Z" fill="#191919"/>
<path d="M774.98 33.5745C782.996 33.8445 790.951 32.8095 798.929 32.2846C800.183 32.2021 801.796 31.6621 801.646 29.9971C801.496 28.3771 799.89 28.2271 798.584 28.1371C791.184 27.6571 783.806 28.3546 776.436 28.8121C774.012 28.9621 773.284 30.6121 773.434 33.0945C774.05 33.2895 774.515 33.552 774.988 33.567L774.98 33.5745Z" fill="#191919"/>
<path d="M1063.37 62.9365C1060.87 63.244 1058.38 63.7165 1056.86 66.3339C1058.07 67.8639 1059.53 67.7739 1060.93 67.7739C1065.99 67.7739 1071.05 67.8339 1076.1 67.6839C1078.52 67.6089 1080.94 67.2114 1083.32 66.7839C1084.8 66.5214 1085.8 65.8464 1085.53 63.8665C1085.26 61.894 1083.63 61.6765 1082.72 61.9165C1076.31 63.5515 1069.78 62.149 1063.37 62.9365Z" fill="#191919"/>
<path d="M767.363 64.7665C773.044 64.7665 778.725 64.7814 784.407 64.639C786.313 64.594 788.235 64.189 790.103 63.7615C791.409 63.4615 792.505 62.899 792.22 61.039C791.942 59.1941 790.569 58.7591 789.405 59.0141C782.966 60.4165 776.436 59.224 769.997 59.9515C767.543 60.229 764.953 60.649 763.542 63.349C764.698 64.8415 766.064 64.759 767.363 64.759V64.7665Z" fill="#191919"/>
<path d="M1384.68 23.2247C1389.45 24.2147 1394.27 24.8972 1399.06 25.7597C1402.75 26.4272 1406.4 27.3871 1410.17 27.3871C1411.62 27.3871 1413.58 27.2446 1413.78 25.3247C1413.96 23.5472 1412.01 23.5922 1410.89 23.2697C1402.2 20.7873 1393.21 19.8498 1384.31 18.4998C1382.32 18.1998 1380.05 17.8773 1377.9 19.7073C1379.76 22.0997 1382.27 22.7222 1384.7 23.2247H1384.68Z" fill="#191919"/>
<path d="M1261.15 38.8394C1261.96 40.1594 1263.03 40.1369 1263.98 40.3694C1272.17 42.4019 1280.5 41.4719 1288.78 41.5019C1290.38 41.5019 1291.57 40.3994 1292.65 39.3194C1293.52 38.4569 1294.45 37.5045 1293.66 36.162C1292.97 34.9995 1291.87 35.6295 1290.92 35.772C1290.12 35.892 1289.32 36.0045 1288.52 36.102C1281.46 36.927 1274.35 35.907 1267.31 36.6945C1265.15 36.9345 1262.86 36.837 1261.16 38.8394H1261.15Z" fill="#191919"/>
<path d="M1284.74 61.264C1281.65 61.879 1278.54 62.314 1275.38 62.0815C1270.2 61.7065 1265.04 62.044 1259.88 62.389C1258 62.5165 1255.82 62.5315 1254.52 64.729C1255.36 65.5839 1256.16 65.7114 1256.94 65.9064C1265.34 68.0064 1273.88 67.1289 1282.38 67.0689C1284.19 67.0539 1285.45 65.6139 1286.56 64.294C1287.11 63.634 1287.8 62.8915 1287.16 61.864C1286.54 60.8665 1285.65 61.0765 1284.73 61.2565L1284.74 61.264Z" fill="#191919"/>
<path d="M1237.96 21.8447C1246.47 21.2148 1254.68 18.9648 1262.95 17.1273C1264.27 16.8348 1265.57 16.0324 1264.96 14.3299C1264.42 12.8374 1263.55 11.7574 1261.54 12.2074C1253.26 14.0749 1244.87 15.5224 1236.74 18.0348C1235.46 18.4323 1233.94 18.6498 1233.23 20.3673C1234.56 21.6947 1236.33 21.9722 1237.95 21.8522L1237.96 21.8447Z" fill="#191919"/>
<path d="M1326.67 40.7069C1332.84 39.1244 1339 37.467 1345.15 35.7945C1346.32 35.4795 1347.49 35.052 1348.55 34.4895C1349.68 33.897 1351.15 33.282 1350.46 31.5571C1349.82 29.9371 1348.49 29.8021 1346.91 30.1771C1342.47 31.2346 1337.99 32.1196 1333.56 33.222C1329.07 34.3395 1324.53 35.412 1320.4 38.1569C1322.04 40.9469 1323.45 41.5319 1326.67 40.7069Z" fill="#191919"/>
<path d="M1131.41 20.8773C1132.01 20.9523 1132.63 20.8923 1133.92 20.8923C1140.9 20.0898 1148.55 19.2498 1156.19 18.2823C1157.62 18.1023 1159.49 17.8773 1159.22 15.6799C1158.98 13.7374 1157.32 14.2324 1156.09 14.1799C1147.73 13.8049 1139.5 15.0424 1131.25 16.0324C1129.86 16.1973 1128.51 16.8573 1128.49 18.3798C1128.47 20.0748 1129.89 20.6898 1131.4 20.8773H1131.41Z" fill="#191919"/>
<path d="M1346.73 57.3341C1354.31 57.9791 1361.91 58.5791 1369.5 57.4616C1371.19 57.2141 1373.83 57.3941 1373.63 54.9791C1373.45 52.7292 1370.89 52.7742 1369.01 52.4892C1368.91 52.4742 1368.81 52.4667 1368.71 52.4667C1362.83 52.4967 1356.94 52.3317 1351.09 52.6617C1348.42 52.8117 1345.41 52.7517 1343.2 54.9866C1344.57 56.4791 1345.53 57.2291 1346.73 57.3341Z" fill="#191919"/>
<path d="M1215 53.2242C1221.9 52.9917 1228.68 51.7017 1235.51 50.8392C1238.35 50.4792 1239.88 48.7693 1241.35 46.4218C1239.82 45.4243 1238.61 45.6793 1237.41 45.7318C1234.49 45.8593 1231.6 46.3843 1228.66 46.5493C1223.51 46.8343 1218.4 47.6668 1213.39 48.9718C1211.52 49.4592 1210.01 50.3142 1210.21 52.6767C1211.78 53.5617 1213.42 53.2917 1215 53.2392L1215 53.2242Z" fill="#191919"/>
<path d="M1290.47 23.2622C1297.94 24.1622 1305.43 24.2897 1312.92 23.5547C1314.65 23.3822 1317.52 23.5247 1317.38 21.0348C1317.25 18.6198 1314.4 18.3573 1312.52 18.5073C1305.56 19.0548 1298.56 17.8023 1291.63 19.0698C1289.99 19.3698 1288.18 19.4073 1287.06 21.0123C1288.46 22.6172 1289 23.0972 1290.47 23.2697V23.2622Z" fill="#191919"/>
<path d="M1326.56 60.1765C1318.33 58.0466 1309.87 57.0866 1301.5 55.6616C1299.94 55.3991 1298.07 55.0166 1296.66 56.5166C1296.96 58.4666 1298.5 58.9991 1299.91 59.3441C1308.55 61.444 1317.27 63.139 1326.06 64.504C1327.99 64.8039 1328.86 63.8065 1328.75 61.8565C1328.67 60.4015 1327.45 60.4165 1326.56 60.184V60.1765Z" fill="#191919"/>
<path d="M1395.05 48.3043C1394.78 51.1692 1397.73 50.9142 1399.53 51.2142C1406.04 52.2717 1412.65 52.0992 1419.2 52.5117C1421.59 52.6617 1423.1 51.2892 1424.41 49.3092C1423.33 47.9818 1422.02 47.7943 1420.89 47.7718C1413.82 47.6668 1406.8 47.0218 1399.76 46.4443C1398.03 46.3018 1395.29 45.6268 1395.04 48.2968L1395.05 48.3043Z" fill="#191919"/>
<path d="M1140.04 40.6919C1139.56 43.0469 1142.32 43.3093 1144.14 43.6843C1148.19 44.5318 1152.27 45.2818 1156.33 46.0393C1159.01 46.5343 1161.64 47.3443 1164.42 47.2543C1165.93 47.2018 1167.26 46.9768 1167.72 45.0643C1165.56 43.2718 1163.14 42.5819 1160.72 41.9519C1155.64 40.6319 1150.57 39.2969 1145.35 38.6219C1143.13 38.3369 1140.5 38.4644 1140.05 40.6994L1140.04 40.6919Z" fill="#191919"/>
<path d="M1182.19 33.5745C1190.21 33.8445 1198.16 32.8095 1206.14 32.2846C1207.39 32.2021 1209.01 31.6621 1208.86 29.9971C1208.71 28.3771 1207.1 28.2271 1205.79 28.1371C1198.39 27.6571 1191.02 28.3546 1183.65 28.8121C1181.22 28.9621 1180.49 30.6121 1180.64 33.0945C1181.26 33.2895 1181.73 33.552 1182.2 33.567L1182.19 33.5745Z" fill="#191919"/>
<path d="M1174.57 64.7665C1180.25 64.7665 1185.93 64.7814 1191.61 64.639C1193.52 64.594 1195.44 64.189 1197.31 63.7615C1198.61 63.4615 1199.71 62.899 1199.42 61.039C1199.14 59.1941 1197.77 58.7591 1196.61 59.0141C1190.17 60.4165 1183.64 59.224 1177.2 59.9515C1174.75 60.229 1172.16 60.649 1170.74 63.349C1171.9 64.8415 1173.27 64.759 1174.57 64.759V64.7665Z" fill="#191919"/>
</g>
</mask>
<g mask="url(#mask1_1_3151)">
<rect x="1" y="-3" width="1440" height="64" fill="#191919"/>
</g>
</g>
<defs>
<clipPath id="clip0_1_3151">
<rect width="1441" height="810" fill="white" transform="translate(0 8)"/>
</clipPath>
</defs>
</svg>
