<svg id="Group_20" data-name="Group 20" xmlns="http://www.w3.org/2000/svg" xmlns:xlink="http://www.w3.org/1999/xlink" width="99.723" height="108" viewBox="0 0 99.723 108">
  <defs>
    <clipPath id="clip-path">
      <path id="Clip_8" data-name="Clip 8" d="M0,0H99.439V64.686H0Z" transform="translate(0.001 0.114)" fill="none"/>
    </clipPath>
  </defs>
  <path id="Fill_1" data-name="Fill 1" d="M6.482,17.108C8.234,19.026,10.2,20.929,12.7,21.6q.248-6.078.505-12.157A58.254,58.254,0,0,0,13.082,0c-1.37.139-2.407,1.252-3.466,2.143a26.949,26.949,0,0,1-2.681,1.9L2.645,6.823c-.679.44-1.4.85-2.053,1.33-.834.607-.708.662-.114,1.51a73.776,73.776,0,0,0,6,7.445" transform="translate(0 33.231)" fill="#191919"/>
  <path id="Fill_3" data-name="Fill 3" d="M6.85,17.108C5.1,19.026,3.131,20.929.638,21.6Q.386,15.522.13,9.443A58.254,58.254,0,0,1,.253,0C1.623.139,2.66,1.252,3.716,2.143A26.807,26.807,0,0,0,6.4,4.041q2.145,1.393,4.291,2.782c.679.44,1.4.853,2.053,1.33.834.61.711.662.117,1.513A74.094,74.094,0,0,1,6.85,17.108" transform="translate(85 36.554)" fill="#191919"/>
  <path id="Fill_5" data-name="Fill 5" d="M.935,81.415C.688,62.24.32,18.607,0,1.7,25.192.463,50.441-.772,75.626.606c.534,12.618.211,25.233.748,37.85.181,4.337-.106,35.257.293,42.319" transform="translate(13.333)" fill="#f5ebe1"/>
  <g id="Group_9" data-name="Group 9" transform="translate(0 43.2)">
    <path id="Clip_8-2" data-name="Clip 8" d="M0,0H99.439V64.686H0Z" transform="translate(0.001 0.114)" fill="none"/>
    <g id="Group_9-2" data-name="Group 9" clip-path="url(#clip-path)">
      <path id="Fill_7" data-name="Fill 7" d="M.2,0C6.271,2.4,10.38,7.823,15.825,11.4c3.717,2.442,7.956,5.646,11.863,7.779,4.673,2.551,8.838,6.362,13.476,8.984S51.191,30.96,56.443,30c4.6-.839,8.556-4.15,12.023-7.278a69.688,69.688,0,0,1,10.674-8.191A100.735,100.735,0,0,1,89.726,8.854c3.538-1.6,7.023-3.679,9.183-6.884-2.588,17.776.184,35.7.523,53.66.039,2-.045,4.239-1.482,5.643-1.367,1.34-3.491,1.467-5.416,1.514L14.179,64.656c-3.461.08-7.1.124-10.152-1.505a6.632,6.632,0,0,1-2.522-2.2,9.692,9.692,0,0,1-1.04-4.963Q-.31,28,.2,0" transform="translate(0.001 0.114)" fill="#ff4133"/>
    </g>
  </g>
  <path id="Stroke_10" data-name="Stroke 10" d="M0,2.287l15.8-.658c10.842-.452,21.7-.9,32.538-.306" transform="translate(28.333 14.954)" fill="none" stroke="#191919" strokeLinecap="round" strokeLinejoin="round" stroke-miterlimit="10" strokeWidth="2"/>
  <path id="Stroke_12" data-name="Stroke 12" d="M0,2.426C15.007,2.167,30.016,1.907,45,.9" transform="translate(26.667 28.246)" fill="none" stroke="#191919" strokeLinecap="round" strokeLinejoin="round" stroke-miterlimit="10" strokeWidth="2"/>
  <path id="Stroke_14" data-name="Stroke 14" d="M0,2.245,51.667,1.078" transform="translate(25 41.538)" fill="none" stroke="#191919" strokeLinecap="round" strokeLinejoin="round" stroke-miterlimit="10" strokeWidth="2"/>
  <path id="Stroke_16" data-name="Stroke 16" d="M0,39.877c7.062-8.5,14.564-17.007,21.629-25.515A81.262,81.262,0,0,0,31.667,0" transform="translate(1.667 64.8)" fill="none" stroke="#191919" strokeLinecap="round" strokeLinejoin="round" stroke-miterlimit="10" strokeWidth="2"/>
  <path id="Stroke_18" data-name="Stroke 18" d="M0,0A85.678,85.678,0,0,1,9.446,11.916c4.233,6.476,10.412,11.523,15.371,17.5,2.32,2.8,4.806,5.806,6.85,8.8" transform="translate(66.667 64.8)" fill="none" stroke="#191919" strokeLinecap="round" strokeLinejoin="round" stroke-miterlimit="10" strokeWidth="2"/>
</svg>
