<svg xmlns="http://www.w3.org/2000/svg" xmlns:xlink="http://www.w3.org/1999/xlink" width="117.414" height="110.818" viewBox="0 0 117.414 110.818">
  <defs>
    <clipPath id="clip-path">
      <path id="Clip_2" data-name="Clip 2" d="M0,0H96.375V69.4H0Z" transform="translate(0 0.527)" fill="none"/>
    </clipPath>
    <clipPath id="clip-path-2">
      <path id="Clip_7" data-name="Clip 7" d="M0,0H101.564V73.918H0Z" transform="translate(0.045 0.082)" fill="none"/>
    </clipPath>
  </defs>
  <g id="Group_13" data-name="Group 13" transform="translate(0 -0.527)">
    <g id="Group_3" data-name="Group 3">
      <path id="Clip_2-2" data-name="Clip 2" d="M0,0H96.375V69.4H0Z" transform="translate(0 0.527)" fill="none"/>
      <g id="Group_3-2" data-name="Group 3" clip-path="url(#clip-path)">
        <path id="Fill_1" data-name="Fill 1" d="M96.2,11.655c-3.809,16.8-2.624,34.179-3.714,51.388-.121,1.918-.376,4.046-1.823,5.283-1.384,1.177-3.38,1.127-5.177,1.021l-73.309-4.4c-3.236-.2-6.639-.442-9.359-2.241A6.217,6.217,0,0,1,.639,60.4a9.493,9.493,0,0,1-.586-4.834Q1.521,28.733,4.2,1.98C4.467-.714,13.927.1,15.469.158c6.649.219,13.145,1.5,19.752,1.972C53.97,3.472,73.182,4.536,91.69,7.848c3.367.605,5.3.323,4.509,3.807" transform="translate(0 0.527)" fill="#191919"/>
      </g>
    </g>
    <path id="Fill_4" data-name="Fill 4" d="M0,37.363c7.991-9.444,17.3-17.074,27-24.635a105.722,105.722,0,0,0,10.08-8.842C38.32,2.645,39.7.8,41.346.242c2.654-.905,5.8.948,8.216,1.883C56.29,4.732,63.2,7.725,69.8,10.954q5.171,2.538,10.221,5.329c3.215,1.781,6.607,3,9.777,4.766.656.369,1.159.691,1.2,1.517-.5,1.494-1.655,5.313-2.151,6.8-1.877,5.6-4.57,11.376-8.474,15.817-3.277,3.733-6.45,7.732-10.4,10.764a87.542,87.542,0,0,1-16.015,9.934c-7.185,3.341-15.666,2.433-22.752-.665a50.81,50.81,0,0,1-5.905-3.351c-2.03-1.228-4.231-2.271-6.153-3.631a34.873,34.873,0,0,1-3.95-3.348c-1.4-1.346-2.971-2.38-4.381-3.664-1.462-1.33-4.361-3.032-5.324-4.8-.486-.9-.2-1.514-.881-2.3-.477-.546-1.133-1.017-1.639-1.557A13.4,13.4,0,0,1,0,37.363" transform="translate(14 15)" fill="#f5ebe0"/>
    <g id="Group_8" data-name="Group 8" transform="translate(14 36)">
      <path id="Clip_7-2" data-name="Clip 7" d="M0,0H101.564V73.918H0Z" transform="translate(0.045 0.082)" fill="none"/>
      <g id="Group_8-2" data-name="Group 8" clip-path="url(#clip-path-2)">
        <path id="Fill_6" data-name="Fill 6" d="M0,14.752c6.018,1.235,10.738,5.632,16.378,8.073,3.853,1.665,8.32,3.964,12.3,5.308,4.756,1.609,9.25,4.486,13.984,6.167s9.756.938,14.453-.842c4.126-1.566,7.22-5.338,9.9-8.856a65.9,65.9,0,0,1,8.5-9.487,94.725,94.725,0,0,1,8.836-7.109C87.353,5.913,90.224,3.373,91.683,0c.6,17.121,6.2,33.485,9.539,50.285.374,1.87.673,3.984-.417,5.546-1.041,1.49-2.986,1.965-4.76,2.332q-36.1,7.462-72.2,14.931c-3.19.661-6.55,1.315-9.648.3a6.242,6.242,0,0,1-2.7-1.642,9.331,9.331,0,0,1-1.8-4.486Q4.247,41.127,0,14.752" transform="translate(0.045 0.082)" fill="#c96"/>
      </g>
    </g>
    <path id="Stroke_9" data-name="Stroke 9" d="M0,44c4.7-9.253,9.772-18.576,14.462-27.829A89.556,89.556,0,0,0,21,0" transform="translate(27 66)" fill="none" stroke="#191919" strokeLinecap="round" strokeLinejoin="round" stroke-miterlimit="10" strokeWidth="2"/>
    <path id="Stroke_11" data-name="Stroke 11" d="M0,0A66.528,66.528,0,0,1,9.709,8.8c5.071,5.422,11.711,9.174,17.369,14.01,2.657,2.268,5.494,4.7,7.922,7.19" transform="translate(81 61)" fill="none" stroke="#191919" strokeLinecap="round" strokeLinejoin="round" stroke-miterlimit="10" strokeWidth="2"/>
  </g>
</svg>
