<svg width="40" height="41" viewBox="0 0 40 41" fill="none" xmlns="http://www.w3.org/2000/svg">
<circle cx="20" cy="20.3179" r="20" transform="rotate(90 20 20.3179)" fill="white"/>
<path d="M10.4149 19.7453C10.8617 19.2985 11.5664 19.2665 12.0501 19.6496L12.1576 19.7453L20 27.5877L27.8424 19.7453C28.2893 19.2985 28.9939 19.2665 29.4777 19.6496L29.5851 19.7453C30.032 20.1922 30.0639 20.8969 29.6809 21.3806L29.5851 21.4881L20.8714 30.2018C20.4245 30.6487 19.7198 30.6806 19.2361 30.2976L19.1286 30.2018L10.4149 21.4881C9.93361 21.0068 9.93361 20.2266 10.4149 19.7453Z" fill="#191919"/>
<path d="M20.0001 9.56201C20.6321 9.56201 21.1529 9.99493 21.2241 10.5527L21.2324 10.6835L21.2324 27.5052C21.2324 28.1246 20.6807 28.6267 20.0001 28.6267C19.3681 28.6267 18.8473 28.1937 18.7761 27.636L18.7678 27.5052L18.7678 10.6835C18.7678 10.0641 19.3195 9.56201 20.0001 9.56201Z" fill="#191919"/>
</svg>
