<svg width="402" height="389" viewBox="0 0 402 389" fill="none" xmlns="http://www.w3.org/2000/svg">
<circle cx="198.838" cy="197.718" r="136.685" stroke="#3D55CC" strokeWidth="3"/>
<circle cx="198.835" cy="59.5335" r="58.8856" fill="#3D55CC"/>
<circle cx="66.9367" cy="270.737" r="58.8856" fill="#3D55CC"/>
<circle cx="198.046" cy="329.621" r="58.8856" fill="#3D55CC"/>
<circle cx="336.234" cy="270.737" r="58.8856" fill="#3D55CC"/>
<circle cx="335.452" cy="124.7" r="58.8856" fill="#3D55CC"/>
<circle cx="66.9367" cy="124.7" r="58.8856" fill="#3D55CC"/>
<path d="M177.771 53.0479H173.235V65.6479H177.771C179.715 65.6479 181.263 65.0719 182.415 63.9199C183.567 62.7679 184.161 61.2559 184.161 59.3479C184.161 57.4579 183.567 55.9279 182.415 54.7759C181.263 53.6239 179.715 53.0479 177.771 53.0479ZM177.771 54.5779C179.229 54.5779 180.381 55.0099 181.227 55.8559C182.055 56.7019 182.487 57.8719 182.487 59.3479C182.487 60.8419 182.055 62.0119 181.209 62.8579C180.363 63.7039 179.211 64.1179 177.771 64.1179H174.873V54.5779H177.771ZM189.948 56.3779C188.634 56.3779 187.572 56.8279 186.78 57.7279C185.97 58.6279 185.574 59.7619 185.574 61.1299C185.574 62.5519 185.97 63.6859 186.798 64.5499C187.608 65.4139 188.652 65.8459 189.948 65.8459C190.974 65.8459 191.838 65.5939 192.522 65.0719C193.206 64.5679 193.692 63.8479 193.98 62.9299H192.432C192.054 63.9199 191.244 64.4059 189.984 64.4059C189.192 64.4059 188.544 64.1719 188.04 63.6859C187.518 63.2179 187.23 62.5519 187.176 61.7239H194.07V60.9859C194.07 59.5099 193.692 58.3579 192.936 57.5659C192.18 56.7739 191.172 56.3779 189.948 56.3779ZM189.948 57.8179C190.704 57.8179 191.316 58.0519 191.784 58.5019C192.252 58.9699 192.486 59.5819 192.504 60.3379H187.194C187.284 59.5999 187.572 58.9879 188.058 58.5199C188.544 58.0519 189.174 57.8179 189.948 57.8179ZM198.836 56.3779C197.9 56.3779 197.162 56.6479 196.622 57.1879C196.082 57.7279 195.83 58.3759 195.83 59.1319C195.83 59.8519 196.046 60.4099 196.496 60.8059C196.928 61.2019 197.648 61.5079 198.62 61.7239C199.34 61.9039 199.844 62.0839 200.114 62.2999C200.366 62.5159 200.51 62.8039 200.51 63.1819C200.51 63.5419 200.366 63.8479 200.096 64.0639C199.826 64.2979 199.448 64.4059 198.944 64.4059C197.792 64.4059 197.198 63.9019 197.18 62.8939H195.596C195.614 63.7939 195.92 64.5139 196.496 65.0539C197.072 65.5939 197.864 65.8459 198.908 65.8459C199.844 65.8459 200.6 65.6119 201.194 65.1079C201.788 64.6219 202.094 63.9379 202.094 63.0739C202.094 62.3539 201.86 61.7779 201.41 61.3639C200.96 60.9499 200.204 60.6079 199.124 60.3559C198.44 60.2119 197.99 60.0319 197.756 59.8519C197.522 59.6719 197.414 59.4019 197.414 59.0419C197.414 58.6819 197.522 58.3939 197.756 58.1599C197.99 57.9439 198.332 57.8179 198.8 57.8179C199.736 57.8179 200.222 58.3039 200.24 59.2399H201.824C201.788 58.3939 201.5 57.7099 200.96 57.1699C200.42 56.6479 199.7 56.3779 198.836 56.3779ZM205.809 56.5759H204.261V65.6479H205.809V56.5759ZM205.035 52.7239C204.729 52.7239 204.477 52.8319 204.279 53.0299C204.063 53.2459 203.973 53.4979 203.973 53.7859C203.973 54.0739 204.063 54.3259 204.279 54.5239C204.477 54.7399 204.729 54.8299 205.035 54.8299C205.323 54.8299 205.575 54.7399 205.791 54.5239C206.007 54.3259 206.115 54.0739 206.115 53.7859C206.115 53.4979 206.007 53.2459 205.791 53.0299C205.575 52.8319 205.323 52.7239 205.035 52.7239ZM216.341 56.5759H213.047C212.615 56.4499 212.183 56.3779 211.751 56.3779C210.707 56.3779 209.861 56.6839 209.213 57.2959C208.565 57.9079 208.259 58.6999 208.259 59.6359C208.259 60.3559 208.439 60.9859 208.835 61.5079C208.205 61.9759 207.899 62.5879 207.899 63.3619C207.899 63.7939 208.007 64.1899 208.241 64.5139C208.475 64.8379 208.763 65.0899 209.105 65.2519C208.439 65.6119 208.115 66.1699 208.115 66.8899C208.115 67.7899 208.457 68.4919 209.141 68.9779C209.825 69.4819 210.797 69.7159 212.075 69.7159C213.227 69.7159 214.145 69.4459 214.829 68.9059C215.513 68.3659 215.855 67.6279 215.855 66.6559C215.855 65.8819 215.603 65.2699 215.135 64.8379C214.649 64.4059 213.929 64.1899 212.993 64.1899H210.581C210.221 64.1899 209.951 64.1179 209.735 63.9559C209.519 63.7939 209.429 63.5599 209.429 63.2719C209.429 62.9119 209.537 62.6239 209.789 62.3719C210.365 62.6959 211.013 62.8579 211.751 62.8579C212.777 62.8579 213.605 62.5519 214.253 61.9399C214.883 61.3279 215.207 60.5719 215.207 59.6359C215.207 59.0239 215.045 58.4479 214.757 57.9439H216.341V56.5759ZM211.733 57.7459C212.309 57.7459 212.777 57.9259 213.137 58.2859C213.497 58.6459 213.677 59.0959 213.677 59.6359C213.677 60.1759 213.497 60.6259 213.137 60.9679C212.777 61.3279 212.309 61.4899 211.733 61.4899C211.139 61.4899 210.671 61.3279 210.311 60.9679C209.951 60.6079 209.789 60.1759 209.789 59.6359C209.789 59.0959 209.951 58.6459 210.311 58.2859C210.671 57.9259 211.139 57.7459 211.733 57.7459ZM212.687 65.5579C213.767 65.5579 214.325 65.9539 214.325 66.7279C214.325 67.2679 214.127 67.6639 213.731 67.9339C213.335 68.2219 212.777 68.3479 212.075 68.3479C211.301 68.3479 210.707 68.2219 210.275 67.9699C209.843 67.7179 209.645 67.3399 209.645 66.8359C209.645 66.4399 209.753 66.1339 210.005 65.9179C210.257 65.7019 210.563 65.5939 210.959 65.5579H212.687ZM221.651 56.3779C220.445 56.3779 219.599 56.8639 219.095 57.8179L219.005 56.5759H217.619V65.6479H219.167V60.7879C219.167 59.8879 219.365 59.1859 219.761 58.6639C220.157 58.1599 220.661 57.8899 221.273 57.8899C221.813 57.8899 222.245 58.0879 222.569 58.4479C222.875 58.8079 223.037 59.3479 223.037 60.0319V65.6479H224.603V59.7799C224.603 58.7539 224.333 57.9259 223.829 57.3139C223.325 56.7019 222.587 56.3779 221.651 56.3779Z" fill="white"/>
<path d="M320.158 107.214H315.622V119.814H320.158C322.102 119.814 323.65 119.238 324.802 118.086C325.954 116.934 326.548 115.422 326.548 113.514C326.548 111.624 325.954 110.094 324.802 108.942C323.65 107.79 322.102 107.214 320.158 107.214ZM320.158 108.744C321.616 108.744 322.768 109.176 323.614 110.022C324.442 110.868 324.874 112.038 324.874 113.514C324.874 115.008 324.442 116.178 323.596 117.024C322.75 117.87 321.598 118.284 320.158 118.284H317.26V108.744H320.158ZM332.335 110.544C331.021 110.544 329.959 110.994 329.167 111.894C328.357 112.794 327.961 113.928 327.961 115.296C327.961 116.718 328.357 117.852 329.185 118.716C329.995 119.58 331.039 120.012 332.335 120.012C333.361 120.012 334.225 119.76 334.909 119.238C335.593 118.734 336.079 118.014 336.367 117.096H334.819C334.441 118.086 333.631 118.572 332.371 118.572C331.579 118.572 330.931 118.338 330.427 117.852C329.905 117.384 329.617 116.718 329.563 115.89H336.457V115.152C336.457 113.676 336.079 112.524 335.323 111.732C334.567 110.94 333.559 110.544 332.335 110.544ZM332.335 111.984C333.091 111.984 333.703 112.218 334.171 112.668C334.639 113.136 334.873 113.748 334.891 114.504H329.581C329.671 113.766 329.959 113.154 330.445 112.686C330.931 112.218 331.561 111.984 332.335 111.984ZM345.976 110.742H344.302L341.908 117.258L341.728 117.942L341.548 117.258L339.154 110.742H337.498L340.954 119.814H342.502L345.976 110.742ZM354.886 106.98C353.896 106.98 353.122 107.268 352.546 107.808C351.97 108.366 351.682 109.068 351.682 109.914C351.682 110.85 352.078 111.75 352.888 112.614L353.194 112.956L353.032 113.046C352.258 113.514 351.664 114 351.232 114.522C350.8 115.044 350.602 115.71 350.602 116.502C350.602 117.618 350.98 118.482 351.754 119.112C352.51 119.742 353.554 120.048 354.868 120.048C356.272 120.048 357.46 119.598 358.396 118.68L359.422 119.814H361.528L359.314 117.384C359.602 116.79 359.782 116.16 359.854 115.494C359.926 114.702 359.89 113.91 359.71 113.136L358.198 113.262C358.342 113.91 358.378 114.594 358.306 115.314C358.27 115.53 358.234 115.8 358.162 116.124L355.516 113.208L355.552 113.19C355.966 112.938 356.272 112.74 356.488 112.596C356.704 112.452 356.938 112.236 357.226 111.948C357.514 111.678 357.712 111.372 357.838 111.03C357.964 110.706 358.036 110.31 358.036 109.878C358.036 108.996 357.73 108.294 357.154 107.772C356.56 107.25 355.804 106.98 354.886 106.98ZM354.922 118.644C354.094 118.644 353.428 118.464 352.96 118.086C352.492 117.726 352.258 117.186 352.258 116.466C352.258 115.944 352.402 115.494 352.708 115.134C353.014 114.774 353.482 114.414 354.094 114.054L354.166 114.018L357.406 117.6C356.794 118.302 355.966 118.644 354.922 118.644ZM353.302 109.914C353.302 109.464 353.446 109.104 353.752 108.816C354.058 108.528 354.436 108.384 354.904 108.384C355.354 108.384 355.714 108.528 356.002 108.816C356.272 109.104 356.416 109.482 356.416 109.95C356.416 110.418 356.254 110.832 355.966 111.156C355.75 111.372 355.3 111.696 354.616 112.11L354.544 112.146L354.274 111.84C353.626 111.12 353.302 110.49 353.302 109.914ZM298.557 129.214H296.919V141.814H298.557V129.214ZM305.362 132.544C304.156 132.544 303.31 133.03 302.806 133.984L302.716 132.742H301.33V141.814H302.878V136.954C302.878 136.054 303.076 135.352 303.472 134.83C303.868 134.326 304.372 134.056 304.984 134.056C305.524 134.056 305.956 134.254 306.28 134.614C306.586 134.974 306.748 135.514 306.748 136.198V141.814H308.314V135.946C308.314 134.92 308.044 134.092 307.54 133.48C307.036 132.868 306.298 132.544 305.362 132.544ZM312.98 130.474H311.414L311.396 132.742H309.704V134.182H311.396L311.36 139.33C311.342 140.248 311.54 140.914 311.972 141.328C312.404 141.742 313.052 141.94 313.934 141.94C314.51 141.94 314.96 141.886 315.284 141.742V140.356C314.96 140.464 314.6 140.518 314.204 140.518C313.7 140.518 313.358 140.41 313.178 140.176C312.998 139.96 312.908 139.582 312.908 139.042L312.944 134.182H315.284V132.742H312.962L312.98 130.474ZM320.839 132.544C319.525 132.544 318.463 132.994 317.671 133.894C316.861 134.794 316.465 135.928 316.465 137.296C316.465 138.718 316.861 139.852 317.689 140.716C318.499 141.58 319.543 142.012 320.839 142.012C321.865 142.012 322.729 141.76 323.413 141.238C324.097 140.734 324.583 140.014 324.871 139.096H323.323C322.945 140.086 322.135 140.572 320.875 140.572C320.083 140.572 319.435 140.338 318.931 139.852C318.409 139.384 318.121 138.718 318.067 137.89H324.961V137.152C324.961 135.676 324.583 134.524 323.827 133.732C323.071 132.94 322.063 132.544 320.839 132.544ZM320.839 133.984C321.595 133.984 322.207 134.218 322.675 134.668C323.143 135.136 323.377 135.748 323.395 136.504H318.085C318.175 135.766 318.463 135.154 318.949 134.686C319.435 134.218 320.065 133.984 320.839 133.984ZM334.893 132.742H331.599C331.167 132.616 330.735 132.544 330.303 132.544C329.259 132.544 328.413 132.85 327.765 133.462C327.117 134.074 326.811 134.866 326.811 135.802C326.811 136.522 326.991 137.152 327.387 137.674C326.757 138.142 326.451 138.754 326.451 139.528C326.451 139.96 326.559 140.356 326.793 140.68C327.027 141.004 327.315 141.256 327.657 141.418C326.991 141.778 326.667 142.336 326.667 143.056C326.667 143.956 327.009 144.658 327.693 145.144C328.377 145.648 329.349 145.882 330.627 145.882C331.779 145.882 332.697 145.612 333.381 145.072C334.065 144.532 334.407 143.794 334.407 142.822C334.407 142.048 334.155 141.436 333.687 141.004C333.201 140.572 332.481 140.356 331.545 140.356H329.133C328.773 140.356 328.503 140.284 328.287 140.122C328.071 139.96 327.981 139.726 327.981 139.438C327.981 139.078 328.089 138.79 328.341 138.538C328.917 138.862 329.565 139.024 330.303 139.024C331.329 139.024 332.157 138.718 332.805 138.106C333.435 137.494 333.759 136.738 333.759 135.802C333.759 135.19 333.597 134.614 333.309 134.11H334.893V132.742ZM330.285 133.912C330.861 133.912 331.329 134.092 331.689 134.452C332.049 134.812 332.229 135.262 332.229 135.802C332.229 136.342 332.049 136.792 331.689 137.134C331.329 137.494 330.861 137.656 330.285 137.656C329.691 137.656 329.223 137.494 328.863 137.134C328.503 136.774 328.341 136.342 328.341 135.802C328.341 135.262 328.503 134.812 328.863 134.452C329.223 134.092 329.691 133.912 330.285 133.912ZM331.239 141.724C332.319 141.724 332.877 142.12 332.877 142.894C332.877 143.434 332.679 143.83 332.283 144.1C331.887 144.388 331.329 144.514 330.627 144.514C329.853 144.514 329.259 144.388 328.827 144.136C328.395 143.884 328.197 143.506 328.197 143.002C328.197 142.606 328.305 142.3 328.557 142.084C328.809 141.868 329.115 141.76 329.511 141.724H331.239ZM340.49 132.652C339.77 132.652 339.176 132.814 338.708 133.138C338.24 133.462 337.934 133.858 337.772 134.326L337.664 132.742H336.278V141.814H337.826V137.008C337.826 136.072 338.114 135.37 338.654 134.866C339.122 134.434 339.734 134.2 340.49 134.2V132.652ZM344.926 132.544C343.936 132.544 343.126 132.85 342.514 133.426C341.884 134.02 341.56 134.758 341.542 135.64H343.072C343.072 135.118 343.234 134.704 343.594 134.416C343.954 134.128 344.386 133.984 344.926 133.984C346.042 133.984 346.6 134.614 346.6 135.856V136.306L343.828 136.828C342.136 137.152 341.29 138.034 341.29 139.456C341.29 140.248 341.524 140.86 342.01 141.328C342.478 141.796 343.126 142.012 343.936 142.012C344.566 142.012 345.124 141.886 345.61 141.616C346.078 141.364 346.438 141.004 346.69 140.572L346.762 141.814H348.166V135.802C348.166 134.758 347.878 133.966 347.302 133.39C346.726 132.832 345.934 132.544 344.926 132.544ZM346.6 137.656V137.998C346.6 138.646 346.42 139.204 346.078 139.672C345.646 140.284 345.034 140.572 344.242 140.572C343.792 140.572 343.45 140.482 343.216 140.284C342.964 140.086 342.856 139.798 342.856 139.438C342.856 139.078 342.964 138.79 343.18 138.61C343.396 138.43 343.72 138.304 344.116 138.196L346.6 137.656ZM352.795 130.474H351.229L351.211 132.742H349.519V134.182H351.211L351.175 139.33C351.157 140.248 351.355 140.914 351.787 141.328C352.219 141.742 352.867 141.94 353.749 141.94C354.325 141.94 354.775 141.886 355.099 141.742V140.356C354.775 140.464 354.415 140.518 354.019 140.518C353.515 140.518 353.173 140.41 352.993 140.176C352.813 139.96 352.723 139.582 352.723 139.042L352.759 134.182H355.099V132.742H352.777L352.795 130.474ZM358.62 132.742H357.072V141.814H358.62V132.742ZM357.846 128.89C357.54 128.89 357.288 128.998 357.09 129.196C356.874 129.412 356.784 129.664 356.784 129.952C356.784 130.24 356.874 130.492 357.09 130.69C357.288 130.906 357.54 130.996 357.846 130.996C358.134 130.996 358.386 130.906 358.602 130.69C358.818 130.492 358.926 130.24 358.926 129.952C358.926 129.664 358.818 129.412 358.602 129.196C358.386 128.998 358.134 128.89 357.846 128.89ZM365.282 132.544C363.914 132.544 362.816 132.994 361.952 133.876C361.088 134.776 360.674 135.91 360.674 137.278C360.674 138.664 361.088 139.798 361.952 140.68C362.816 141.58 363.914 142.012 365.282 142.012C366.614 142.012 367.712 141.58 368.576 140.68C369.44 139.798 369.872 138.664 369.872 137.278C369.872 135.91 369.44 134.776 368.576 133.876C367.712 132.994 366.614 132.544 365.282 132.544ZM365.3 133.984C366.182 133.984 366.902 134.308 367.442 134.92C367.982 135.532 368.27 136.324 368.27 137.278C368.27 138.232 367.982 139.024 367.442 139.636C366.902 140.266 366.182 140.572 365.3 140.572C364.4 140.572 363.662 140.266 363.104 139.636C362.546 139.024 362.276 138.232 362.276 137.278C362.276 136.324 362.546 135.532 363.104 134.92C363.662 134.308 364.4 133.984 365.3 133.984ZM375.921 132.544C374.715 132.544 373.869 133.03 373.365 133.984L373.275 132.742H371.889V141.814H373.437V136.954C373.437 136.054 373.635 135.352 374.031 134.83C374.427 134.326 374.931 134.056 375.543 134.056C376.083 134.056 376.515 134.254 376.839 134.614C377.145 134.974 377.307 135.514 377.307 136.198V141.814H378.873V135.946C378.873 134.92 378.603 134.092 378.099 133.48C377.595 132.868 376.857 132.544 375.921 132.544Z" fill="white"/>
<path d="M329.261 264.017C327.389 264.017 325.841 264.647 324.635 265.871C323.411 267.113 322.817 268.661 322.817 270.533C322.817 272.423 323.411 273.989 324.635 275.231C325.841 276.473 327.389 277.085 329.261 277.085C330.215 277.085 331.133 276.905 332.033 276.509L334.265 278.723H336.551L333.455 275.609C334.931 274.349 335.687 272.657 335.687 270.533C335.687 268.661 335.075 267.113 333.869 265.871C332.645 264.647 331.115 264.017 329.261 264.017ZM329.261 265.547C330.629 265.547 331.763 266.033 332.645 266.969C333.527 267.905 333.977 269.093 333.977 270.533C333.977 272.207 333.419 273.521 332.303 274.475L330.755 272.981H328.451L330.827 275.321C330.359 275.483 329.837 275.555 329.261 275.555C327.857 275.555 326.723 275.087 325.841 274.133C324.959 273.197 324.527 271.991 324.527 270.533C324.527 269.093 324.959 267.905 325.841 266.969C326.723 266.033 327.857 265.547 329.261 265.547ZM342.563 266.357L342.797 267.041L344.795 271.991H340.349L342.329 267.041L342.563 266.357ZM343.427 264.251H341.735L336.677 276.851H338.477L339.791 273.521H345.353L346.685 276.851H348.485L343.427 264.251Z" fill="white"/>
<path d="M170.208 322.902C169.056 322.902 168.174 323.244 167.526 323.892C166.878 324.558 166.572 325.404 166.572 326.412C166.572 327.384 166.842 328.122 167.4 328.662C167.94 329.202 168.804 329.67 169.992 330.102C170.964 330.444 171.648 330.786 172.044 331.128C172.44 331.47 172.638 331.902 172.638 332.424C172.638 333.054 172.44 333.558 172.062 333.936C171.666 334.332 171.126 334.512 170.406 334.512C169.614 334.512 168.984 334.314 168.552 333.882C168.102 333.45 167.868 332.838 167.868 332.028H166.212C166.23 333.234 166.608 334.188 167.328 334.908C168.048 335.628 169.074 335.97 170.388 335.97C171.54 335.97 172.494 335.646 173.214 334.998C173.934 334.35 174.294 333.45 174.294 332.316C174.294 331.416 174.024 330.678 173.484 330.138C172.944 329.598 172.026 329.094 170.73 328.608C169.758 328.23 169.11 327.888 168.75 327.6C168.39 327.312 168.228 326.862 168.228 326.286C168.228 325.692 168.39 325.224 168.75 324.882C169.092 324.558 169.56 324.378 170.172 324.378C170.784 324.378 171.27 324.576 171.648 324.936C172.026 325.296 172.224 325.818 172.242 326.466H173.898C173.862 325.314 173.52 324.432 172.872 323.82C172.206 323.208 171.324 322.902 170.208 322.902ZM178.421 324.396H176.855L176.837 326.664H175.145V328.104H176.837L176.801 333.252C176.783 334.17 176.981 334.836 177.413 335.25C177.845 335.664 178.493 335.862 179.375 335.862C179.951 335.862 180.401 335.808 180.725 335.664V334.278C180.401 334.386 180.041 334.44 179.645 334.44C179.141 334.44 178.799 334.332 178.619 334.098C178.439 333.882 178.349 333.504 178.349 332.964L178.385 328.104H180.725V326.664H178.403L178.421 324.396ZM186.964 326.574C186.244 326.574 185.65 326.736 185.182 327.06C184.714 327.384 184.408 327.78 184.246 328.248L184.138 326.664H182.752V335.736H184.3V330.93C184.3 329.994 184.588 329.292 185.128 328.788C185.596 328.356 186.208 328.122 186.964 328.122V326.574ZM191.401 326.466C190.411 326.466 189.601 326.772 188.989 327.348C188.359 327.942 188.035 328.68 188.017 329.562H189.547C189.547 329.04 189.709 328.626 190.069 328.338C190.429 328.05 190.861 327.906 191.401 327.906C192.517 327.906 193.075 328.536 193.075 329.778V330.228L190.303 330.75C188.611 331.074 187.765 331.956 187.765 333.378C187.765 334.17 187.999 334.782 188.485 335.25C188.953 335.718 189.601 335.934 190.411 335.934C191.041 335.934 191.599 335.808 192.085 335.538C192.553 335.286 192.913 334.926 193.165 334.494L193.237 335.736H194.641V329.724C194.641 328.68 194.353 327.888 193.777 327.312C193.201 326.754 192.409 326.466 191.401 326.466ZM193.075 331.578V331.92C193.075 332.568 192.895 333.126 192.553 333.594C192.121 334.206 191.509 334.494 190.717 334.494C190.267 334.494 189.925 334.404 189.691 334.206C189.439 334.008 189.331 333.72 189.331 333.36C189.331 333 189.439 332.712 189.655 332.532C189.871 332.352 190.195 332.226 190.591 332.118L193.075 331.578ZM199.269 324.396H197.703L197.685 326.664H195.993V328.104H197.685L197.649 333.252C197.631 334.17 197.829 334.836 198.261 335.25C198.693 335.664 199.341 335.862 200.223 335.862C200.799 335.862 201.249 335.808 201.573 335.664V334.278C201.249 334.386 200.889 334.44 200.493 334.44C199.989 334.44 199.647 334.332 199.467 334.098C199.287 333.882 199.197 333.504 199.197 332.964L199.233 328.104H201.573V326.664H199.251L199.269 324.396ZM207.128 326.466C205.814 326.466 204.752 326.916 203.96 327.816C203.15 328.716 202.754 329.85 202.754 331.218C202.754 332.64 203.15 333.774 203.978 334.638C204.788 335.502 205.832 335.934 207.128 335.934C208.154 335.934 209.018 335.682 209.702 335.16C210.386 334.656 210.872 333.936 211.16 333.018H209.612C209.234 334.008 208.424 334.494 207.164 334.494C206.372 334.494 205.724 334.26 205.22 333.774C204.698 333.306 204.41 332.64 204.356 331.812H211.25V331.074C211.25 329.598 210.872 328.446 210.116 327.654C209.36 326.862 208.352 326.466 207.128 326.466ZM207.128 327.906C207.884 327.906 208.496 328.14 208.964 328.59C209.432 329.058 209.666 329.67 209.684 330.426H204.374C204.464 329.688 204.752 329.076 205.238 328.608C205.724 328.14 206.354 327.906 207.128 327.906ZM221.181 326.664H217.887C217.455 326.538 217.023 326.466 216.591 326.466C215.547 326.466 214.701 326.772 214.053 327.384C213.405 327.996 213.099 328.788 213.099 329.724C213.099 330.444 213.279 331.074 213.675 331.596C213.045 332.064 212.739 332.676 212.739 333.45C212.739 333.882 212.847 334.278 213.081 334.602C213.315 334.926 213.603 335.178 213.945 335.34C213.279 335.7 212.955 336.258 212.955 336.978C212.955 337.878 213.297 338.58 213.981 339.066C214.665 339.57 215.637 339.804 216.915 339.804C218.067 339.804 218.985 339.534 219.669 338.994C220.353 338.454 220.695 337.716 220.695 336.744C220.695 335.97 220.443 335.358 219.975 334.926C219.489 334.494 218.769 334.278 217.833 334.278H215.421C215.061 334.278 214.791 334.206 214.575 334.044C214.359 333.882 214.269 333.648 214.269 333.36C214.269 333 214.377 332.712 214.629 332.46C215.205 332.784 215.853 332.946 216.591 332.946C217.617 332.946 218.445 332.64 219.093 332.028C219.723 331.416 220.047 330.66 220.047 329.724C220.047 329.112 219.885 328.536 219.597 328.032H221.181V326.664ZM216.573 327.834C217.149 327.834 217.617 328.014 217.977 328.374C218.337 328.734 218.517 329.184 218.517 329.724C218.517 330.264 218.337 330.714 217.977 331.056C217.617 331.416 217.149 331.578 216.573 331.578C215.979 331.578 215.511 331.416 215.151 331.056C214.791 330.696 214.629 330.264 214.629 329.724C214.629 329.184 214.791 328.734 215.151 328.374C215.511 328.014 215.979 327.834 216.573 327.834ZM217.527 335.646C218.607 335.646 219.165 336.042 219.165 336.816C219.165 337.356 218.967 337.752 218.571 338.022C218.175 338.31 217.617 338.436 216.915 338.436C216.141 338.436 215.547 338.31 215.115 338.058C214.683 337.806 214.485 337.428 214.485 336.924C214.485 336.528 214.593 336.222 214.845 336.006C215.097 335.79 215.403 335.682 215.799 335.646H217.527ZM230.314 326.664H228.64L226.246 333.18L226.066 333.864L225.886 333.18L223.492 326.664H221.836L225.238 335.61L223.726 339.606H225.364L230.314 326.664Z" fill="white"/>
<path d="M40.7989 266.357L41.0329 267.041L43.0309 271.991H38.5849L40.5649 267.041L40.7989 266.357ZM41.6629 264.251H39.9709L34.9129 276.851H36.7129L38.0269 273.521H43.5889L44.9209 276.851H46.7209L41.6629 264.251ZM52.4518 267.581C51.2458 267.581 50.3998 268.067 49.8958 269.021L49.8058 267.779H48.4198V276.851H49.9678V271.991C49.9678 271.091 50.1658 270.389 50.5618 269.867C50.9578 269.363 51.4618 269.093 52.0738 269.093C52.6138 269.093 53.0458 269.291 53.3698 269.651C53.6758 270.011 53.8378 270.551 53.8378 271.235V276.851H55.4038V270.983C55.4038 269.957 55.1338 269.129 54.6298 268.517C54.1258 267.905 53.3878 267.581 52.4518 267.581ZM61.0959 267.581C60.1059 267.581 59.2959 267.887 58.6839 268.463C58.0539 269.057 57.7299 269.795 57.7119 270.677H59.2419C59.2419 270.155 59.4039 269.741 59.7639 269.453C60.1239 269.165 60.5559 269.021 61.0959 269.021C62.2119 269.021 62.7699 269.651 62.7699 270.893V271.343L59.9979 271.865C58.3059 272.189 57.4599 273.071 57.4599 274.493C57.4599 275.285 57.6939 275.897 58.1799 276.365C58.6479 276.833 59.2959 277.049 60.1059 277.049C60.7359 277.049 61.2939 276.923 61.7799 276.653C62.2479 276.401 62.6079 276.041 62.8599 275.609L62.9319 276.851H64.3359V270.839C64.3359 269.795 64.0479 269.003 63.4719 268.427C62.8959 267.869 62.1039 267.581 61.0959 267.581ZM62.7699 272.693V273.035C62.7699 273.683 62.5899 274.241 62.2479 274.709C61.8159 275.321 61.2039 275.609 60.4119 275.609C59.9619 275.609 59.6199 275.519 59.3859 275.321C59.1339 275.123 59.0259 274.835 59.0259 274.475C59.0259 274.115 59.1339 273.827 59.3499 273.647C59.5659 273.467 59.8899 273.341 60.2859 273.233L62.7699 272.693ZM68.4964 263.711H66.9484V276.851H68.4964V263.711ZM78.687 267.779H77.013L74.619 274.295L74.439 274.979L74.259 274.295L71.865 267.779H70.209L73.611 276.725L72.099 280.721H73.737L78.687 267.779ZM82.9333 267.581C81.9973 267.581 81.2593 267.851 80.7193 268.391C80.1793 268.931 79.9273 269.579 79.9273 270.335C79.9273 271.055 80.1433 271.613 80.5933 272.009C81.0253 272.405 81.7453 272.711 82.7173 272.927C83.4373 273.107 83.9413 273.287 84.2113 273.503C84.4633 273.719 84.6073 274.007 84.6073 274.385C84.6073 274.745 84.4633 275.051 84.1933 275.267C83.9233 275.501 83.5453 275.609 83.0413 275.609C81.8893 275.609 81.2953 275.105 81.2773 274.097H79.6933C79.7113 274.997 80.0173 275.717 80.5933 276.257C81.1693 276.797 81.9613 277.049 83.0053 277.049C83.9413 277.049 84.6973 276.815 85.2913 276.311C85.8853 275.825 86.1913 275.141 86.1913 274.277C86.1913 273.557 85.9573 272.981 85.5073 272.567C85.0573 272.153 84.3013 271.811 83.2213 271.559C82.5373 271.415 82.0873 271.235 81.8533 271.055C81.6193 270.875 81.5113 270.605 81.5113 270.245C81.5113 269.885 81.6193 269.597 81.8533 269.363C82.0873 269.147 82.4293 269.021 82.8973 269.021C83.8333 269.021 84.3193 269.507 84.3373 270.443H85.9213C85.8853 269.597 85.5973 268.913 85.0573 268.373C84.5173 267.851 83.7973 267.581 82.9333 267.581ZM89.9066 267.779H88.3586V276.851H89.9066V267.779ZM89.1326 263.927C88.8266 263.927 88.5746 264.035 88.3766 264.233C88.1606 264.449 88.0706 264.701 88.0706 264.989C88.0706 265.277 88.1606 265.529 88.3766 265.727C88.5746 265.943 88.8266 266.033 89.1326 266.033C89.4206 266.033 89.6726 265.943 89.8886 265.727C90.1046 265.529 90.2126 265.277 90.2126 264.989C90.2126 264.701 90.1046 264.449 89.8886 264.233C89.6726 264.035 89.4206 263.927 89.1326 263.927ZM95.2731 267.581C94.3371 267.581 93.5991 267.851 93.0591 268.391C92.5191 268.931 92.2671 269.579 92.2671 270.335C92.2671 271.055 92.4831 271.613 92.9331 272.009C93.3651 272.405 94.0851 272.711 95.0571 272.927C95.7771 273.107 96.2811 273.287 96.5511 273.503C96.8031 273.719 96.9471 274.007 96.9471 274.385C96.9471 274.745 96.8031 275.051 96.5331 275.267C96.2631 275.501 95.8851 275.609 95.3811 275.609C94.2291 275.609 93.6351 275.105 93.6171 274.097H92.0331C92.0511 274.997 92.3571 275.717 92.9331 276.257C93.5091 276.797 94.3011 277.049 95.3451 277.049C96.2811 277.049 97.0371 276.815 97.6311 276.311C98.2251 275.825 98.5311 275.141 98.5311 274.277C98.5311 273.557 98.2971 272.981 97.8471 272.567C97.3971 272.153 96.6411 271.811 95.5611 271.559C94.8771 271.415 94.4271 271.235 94.1931 271.055C93.9591 270.875 93.8511 270.605 93.8511 270.245C93.8511 269.885 93.9591 269.597 94.1931 269.363C94.4271 269.147 94.7691 269.021 95.2371 269.021C96.1731 269.021 96.6591 269.507 96.6771 270.443H98.2611C98.2251 269.597 97.9371 268.913 97.3971 268.373C96.8571 267.851 96.1371 267.581 95.2731 267.581Z" fill="white"/>
<path d="M49.5185 118.214H38.9525V119.744H43.4165V130.814H45.0545V119.744H49.5185V118.214ZM52.9171 121.544C51.6031 121.544 50.5411 121.994 49.7491 122.894C48.9391 123.794 48.5431 124.928 48.5431 126.296C48.5431 127.718 48.9391 128.852 49.7671 129.716C50.5771 130.58 51.6211 131.012 52.9171 131.012C53.9431 131.012 54.8071 130.76 55.4911 130.238C56.1751 129.734 56.6611 129.014 56.9491 128.096H55.4011C55.0231 129.086 54.2131 129.572 52.9531 129.572C52.1611 129.572 51.5131 129.338 51.0091 128.852C50.4871 128.384 50.1991 127.718 50.1451 126.89H57.0391V126.152C57.0391 124.676 56.6611 123.524 55.9051 122.732C55.1491 121.94 54.1411 121.544 52.9171 121.544ZM52.9171 122.984C53.6731 122.984 54.2851 123.218 54.7531 123.668C55.2211 124.136 55.4551 124.748 55.4731 125.504H50.1631C50.2531 124.766 50.5411 124.154 51.0271 123.686C51.5131 123.218 52.1431 122.984 52.9171 122.984ZM61.8044 121.544C60.8684 121.544 60.1304 121.814 59.5904 122.354C59.0504 122.894 58.7984 123.542 58.7984 124.298C58.7984 125.018 59.0144 125.576 59.4644 125.972C59.8964 126.368 60.6164 126.674 61.5884 126.89C62.3084 127.07 62.8124 127.25 63.0824 127.466C63.3344 127.682 63.4784 127.97 63.4784 128.348C63.4784 128.708 63.3344 129.014 63.0644 129.23C62.7944 129.464 62.4164 129.572 61.9124 129.572C60.7604 129.572 60.1664 129.068 60.1484 128.06H58.5644C58.5824 128.96 58.8884 129.68 59.4644 130.22C60.0404 130.76 60.8324 131.012 61.8764 131.012C62.8124 131.012 63.5684 130.778 64.1624 130.274C64.7564 129.788 65.0624 129.104 65.0624 128.24C65.0624 127.52 64.8284 126.944 64.3784 126.53C63.9284 126.116 63.1724 125.774 62.0924 125.522C61.4084 125.378 60.9584 125.198 60.7244 125.018C60.4904 124.838 60.3824 124.568 60.3824 124.208C60.3824 123.848 60.4904 123.56 60.7244 123.326C60.9584 123.11 61.3004 122.984 61.7684 122.984C62.7044 122.984 63.1904 123.47 63.2084 124.406H64.7924C64.7564 123.56 64.4684 122.876 63.9284 122.336C63.3884 121.814 62.6684 121.544 61.8044 121.544ZM69.2457 119.474H67.6797L67.6617 121.742H65.9697V123.182H67.6617L67.6257 128.33C67.6077 129.248 67.8057 129.914 68.2377 130.328C68.6697 130.742 69.3177 130.94 70.1997 130.94C70.7757 130.94 71.2257 130.886 71.5497 130.742V129.356C71.2257 129.464 70.8657 129.518 70.4697 129.518C69.9657 129.518 69.6237 129.41 69.4437 129.176C69.2637 128.96 69.1737 128.582 69.1737 128.042L69.2097 123.182H71.5497V121.742H69.2277L69.2457 119.474ZM75.0706 121.742H73.5226V130.814H75.0706V121.742ZM74.2966 117.89C73.9906 117.89 73.7386 117.998 73.5406 118.196C73.3246 118.412 73.2346 118.664 73.2346 118.952C73.2346 119.24 73.3246 119.492 73.5406 119.69C73.7386 119.906 73.9906 119.996 74.2966 119.996C74.5846 119.996 74.8366 119.906 75.0526 119.69C75.2686 119.492 75.3766 119.24 75.3766 118.952C75.3766 118.664 75.2686 118.412 75.0526 118.196C74.8366 117.998 74.5846 117.89 74.2966 117.89ZM81.8952 121.544C80.6892 121.544 79.8432 122.03 79.3392 122.984L79.2492 121.742H77.8632V130.814H79.4112V125.954C79.4112 125.054 79.6092 124.352 80.0052 123.83C80.4012 123.326 80.9052 123.056 81.5172 123.056C82.0572 123.056 82.4892 123.254 82.8132 123.614C83.1192 123.974 83.2812 124.514 83.2812 125.198V130.814H84.8472V124.946C84.8472 123.92 84.5772 123.092 84.0732 122.48C83.5692 121.868 82.8312 121.544 81.8952 121.544ZM95.1832 121.742H91.8892C91.4572 121.616 91.0252 121.544 90.5932 121.544C89.5492 121.544 88.7032 121.85 88.0552 122.462C87.4072 123.074 87.1012 123.866 87.1012 124.802C87.1012 125.522 87.2812 126.152 87.6772 126.674C87.0472 127.142 86.7412 127.754 86.7412 128.528C86.7412 128.96 86.8492 129.356 87.0832 129.68C87.3172 130.004 87.6052 130.256 87.9472 130.418C87.2812 130.778 86.9572 131.336 86.9572 132.056C86.9572 132.956 87.2992 133.658 87.9832 134.144C88.6672 134.648 89.6392 134.882 90.9172 134.882C92.0692 134.882 92.9872 134.612 93.6712 134.072C94.3552 133.532 94.6972 132.794 94.6972 131.822C94.6972 131.048 94.4452 130.436 93.9772 130.004C93.4912 129.572 92.7712 129.356 91.8352 129.356H89.4232C89.0632 129.356 88.7932 129.284 88.5772 129.122C88.3612 128.96 88.2712 128.726 88.2712 128.438C88.2712 128.078 88.3792 127.79 88.6312 127.538C89.2072 127.862 89.8552 128.024 90.5932 128.024C91.6192 128.024 92.4472 127.718 93.0952 127.106C93.7252 126.494 94.0492 125.738 94.0492 124.802C94.0492 124.19 93.8872 123.614 93.5992 123.11H95.1832V121.742ZM90.5752 122.912C91.1512 122.912 91.6192 123.092 91.9792 123.452C92.3392 123.812 92.5192 124.262 92.5192 124.802C92.5192 125.342 92.3392 125.792 91.9792 126.134C91.6192 126.494 91.1512 126.656 90.5752 126.656C89.9812 126.656 89.5132 126.494 89.1532 126.134C88.7932 125.774 88.6312 125.342 88.6312 124.802C88.6312 124.262 88.7932 123.812 89.1532 123.452C89.5132 123.092 89.9812 122.912 90.5752 122.912ZM91.5292 130.724C92.6092 130.724 93.1672 131.12 93.1672 131.894C93.1672 132.434 92.9692 132.83 92.5732 133.1C92.1772 133.388 91.6192 133.514 90.9172 133.514C90.1432 133.514 89.5492 133.388 89.1172 133.136C88.6852 132.884 88.4872 132.506 88.4872 132.002C88.4872 131.606 88.5952 131.3 88.8472 131.084C89.0992 130.868 89.4052 130.76 89.8012 130.724H91.5292Z" fill="white"/>
</svg>
