<svg width="413" height="262" viewBox="0 0 413 262" fill="none" xmlns="http://www.w3.org/2000/svg">
<path d="M412.688 0.46875L1.13477 0.46875L1.13477 261.001H412.688V0.46875Z" fill="#303C78" fill-opacity="0.8"/>
<path d="M412.688 0.46875L1.13477 0.46875L1.13477 261.001H412.688V0.46875Z" stroke="#191919"/>
<path d="M389.727 57.6992H24.0977V235.215H389.727V57.6992Z" fill="#F5EBE0" fill-opacity="0.9"/>
<path d="M389.727 57.6992H24.0977V235.215H389.727V57.6992Z" stroke="#191919"/>
<path d="M389.727 57.6992H24.0977V130.118H389.727V57.6992Z" fill="#FFBB00" fill-opacity="0.9"/>
<path d="M389.727 57.6992H24.0977V130.118H389.727V57.6992Z" stroke="#191919"/>
<path d="M282.863 96.5564C282.863 100.46 281.267 103.99 278.692 106.55C276.118 109.109 272.554 110.687 268.618 110.687H144.321C136.456 110.687 130.076 104.364 130.076 96.5564C130.076 88.7483 136.456 82.4258 144.321 82.4258H268.618C276.489 82.4258 282.863 88.7545 282.863 96.5564Z" fill="#F5EBE1"/>
<path d="M225.457 96.5525C225.457 99.2364 224.378 101.662 222.628 103.427C220.884 105.187 218.47 106.273 215.802 106.273H145.03C139.7 106.273 135.375 101.926 135.375 96.5585C135.375 91.1908 139.7 86.8438 145.03 86.8438H215.802C221.139 86.8438 225.457 91.1968 225.457 96.5585V96.5525Z" fill="#25B89D"/>
<path d="M412.688 0.292969H1.13477V32.9699H412.688V0.292969Z" fill="#5E5E5E" stroke="#5E5E5E" stroke-width="0.518585" stroke-miterlimit="10"/>
<path d="M21.2334 23.541C24.8917 23.541 27.8574 20.5753 27.8574 16.917C27.8574 13.2586 24.8917 10.293 21.2334 10.293C17.575 10.293 14.6094 13.2586 14.6094 16.917C14.6094 20.5753 17.575 23.541 21.2334 23.541Z" fill="#FF4133"/>
<path d="M47.7295 23.541C51.3878 23.541 54.3535 20.5753 54.3535 16.917C54.3535 13.2586 51.3878 10.293 47.7295 10.293C44.0711 10.293 41.1055 13.2586 41.1055 16.917C41.1055 20.5753 44.0711 23.541 47.7295 23.541Z" fill="#E6D0B8"/>
<path d="M74.2217 23.541C77.88 23.541 80.8457 20.5753 80.8457 16.917C80.8457 13.2586 77.88 10.293 74.2217 10.293C70.5633 10.293 67.5977 13.2586 67.5977 16.917C67.5977 20.5753 70.5633 23.541 74.2217 23.541Z" fill="#E6D0B8"/>
<path d="M366.373 97.5421C374.448 97.5421 380.995 90.9954 380.995 82.9195C380.995 74.8437 374.448 68.2969 366.373 68.2969C358.297 68.2969 351.75 74.8437 351.75 82.9195C351.75 90.9954 358.297 97.5421 366.373 97.5421Z" fill="#FF4133"/>
<path d="M372.811 76.7578L361.191 88.3822" stroke="#191919" stroke-width="3.83852" stroke-miterlimit="10" stroke-linecap="round"/>
<path d="M361.191 77.1133L372.811 88.7377" stroke="#191919" stroke-width="3.83852" stroke-miterlimit="10" stroke-linecap="round"/>
<path d="M118.965 149.472L294.388 148.328" stroke="#191919" stroke-width="8" stroke-miterlimit="10" stroke-linecap="square"/>
<path d="M104.855 165.93L309.359 164.652" stroke="#191919" stroke-width="8" stroke-miterlimit="10" stroke-linecap="square"/>
<path d="M104.855 182.454L309.359 181.176" stroke="#191919" stroke-width="8" stroke-miterlimit="10" stroke-linecap="square"/>
<path d="M104.855 198.973L309.359 197.695" stroke="#191919" stroke-width="8" stroke-miterlimit="10" stroke-linecap="square"/>
<path d="M117.396 215.327L293.974 214.184" stroke="#191919" stroke-width="8" stroke-miterlimit="10" stroke-linecap="square"/>
</svg>
