<svg width="206" height="131" viewBox="0 0 206 131" fill="none" xmlns="http://www.w3.org/2000/svg">
<path d="M205.112 1.08594L0.857422 1.08594L0.857422 130.119H205.112V1.08594Z" fill="#3D55CC" fill-opacity="0.6"/>
<path d="M205.112 1.08594L0.857422 1.08594L0.857422 130.119H205.112V1.08594Z" stroke="#191919"/>
<circle cx="103.462" cy="65.3351" r="19.1788" stroke="#FF4133" stroke-width="5"/>
<path d="M89.6934 78.6096L116.74 51.5625" stroke="#FF4133" stroke-width="5"/>
<path d="M205.112 0.894531H0.857422V21.9913H205.112V0.894531Z" fill="#5E5E5E" stroke="#5E5E5E" stroke-width="0.297362" stroke-miterlimit="10"/>
<path d="M13.4796 15.4749C15.7574 15.4749 17.6038 13.6285 17.6038 11.3507C17.6038 9.07302 15.7574 7.22656 13.4796 7.22656C11.2019 7.22656 9.35547 9.07302 9.35547 11.3507C9.35547 13.6285 11.2019 15.4749 13.4796 15.4749Z" fill="#FF4133"/>
<path d="M29.9738 15.4749C32.2515 15.4749 34.098 13.6285 34.098 11.3507C34.098 9.07302 32.2515 7.22656 29.9738 7.22656C27.6961 7.22656 25.8496 9.07302 25.8496 11.3507C25.8496 13.6285 27.6961 15.4749 29.9738 15.4749Z" fill="#E6D0B8"/>
<path d="M46.4699 15.4749C48.7476 15.4749 50.5941 13.6285 50.5941 11.3507C50.5941 9.07302 48.7476 7.22656 46.4699 7.22656C44.1922 7.22656 42.3457 9.07302 42.3457 11.3507C42.3457 13.6285 44.1922 15.4749 46.4699 15.4749Z" fill="#E6D0B8"/>
</svg>
