<svg width="315" height="213" viewBox="0 0 315 213" fill="none" xmlns="http://www.w3.org/2000/svg">
<g clip-path="url(#clip0_4177_48948)">
<path d="M42.6266 97.4283C46.0491 101.467 49.3472 105.63 52.7076 109.731C56.0679 113.832 59.5527 117.809 63.3486 121.537C67.0201 125.141 71.0027 128.496 75.3587 131.23C79.7147 133.964 84.3818 135.828 88.9867 138.003C91.2892 139.121 93.5916 140.302 95.6451 141.793C97.2008 140.426 98.7566 138.997 100.312 137.63C99.0677 134.585 97.9476 131.479 96.703 128.434C94.7117 123.525 92.2848 118.927 89.4223 114.516C84.0707 106.189 78.0967 98.2361 71.7494 90.5313C71.6872 90.4692 71.6872 90.4692 71.625 90.407C69.447 88.2944 67.269 86.1818 65.091 84.0071C64.9043 83.8207 64.8421 83.6343 64.8421 83.3857C63.5975 83.6964 62.2907 84.0692 61.0462 84.5042C60.9839 84.5042 60.9217 84.5663 60.8595 84.5663C55.1345 87.4867 49.4717 90.5313 43.9334 93.7002C43.1244 94.5701 42.4399 95.5021 41.7554 96.4342C42.0665 96.7448 42.3154 97.1177 42.6266 97.4283Z" fill="#3D55CC"/>
<path d="M99.1297 138.624C98.6319 138.127 97.7607 137.754 97.1384 137.816C96.6406 137.878 96.205 138.748 95.8938 139.37C95.7071 139.743 95.7694 140.302 95.6449 140.737C95.5827 141.047 95.4582 141.296 95.396 141.607C95.4582 141.669 95.5827 141.731 95.6449 141.793C96.8272 140.737 98.0096 139.68 99.1297 138.624Z" fill="#FF4133"/>
<path d="M68.7624 120.046C69.198 118.181 69.4469 116.255 70.3803 114.515C72.9939 116.504 75.6075 118.554 78.3456 120.667C81.2703 118.244 79.7768 114.267 82.1415 111.719C84.7551 113.708 87.3065 115.634 89.7956 117.498C90.2312 117.249 90.6046 117.063 90.8535 116.939C90.3556 116.131 89.8578 115.323 89.36 114.515C88.8622 113.77 88.4266 113.086 87.9287 112.341C85.8752 111.16 84.3195 109.731 83.0127 107.991C82.3282 107.059 81.5814 106.314 79.7768 106.686C79.0923 109.607 78.3456 112.714 77.4744 116.317C74.9852 114.453 72.9317 112.9 70.8782 111.347C70.007 110.663 69.1358 109.793 68.1401 110.849C67.7045 112.589 67.2689 114.391 66.7711 116.131C66.5222 117.001 66.211 117.933 66.0866 118.803C66.0244 119.424 66.0866 120.046 65.8999 120.729C65.8377 120.853 65.8377 120.978 65.7132 121.04C65.5265 121.164 65.3398 121.102 65.1532 120.978C64.282 120.543 63.3485 119.921 62.6018 119.3C60.9216 117.871 59.3037 116.317 57.6235 114.95C57.3746 114.702 56.939 114.515 56.5034 114.391C58.6192 116.814 60.8594 119.238 63.1619 121.537C64.282 122.655 65.4021 123.712 66.5844 124.768C66.9578 124.209 67.7045 123.09 67.7668 122.842C68.389 121.91 68.5757 120.978 68.7624 120.046Z" fill="#FF4133"/>
<path d="M56.9388 86.9896C56.9388 86.8654 56.9388 86.7411 57.001 86.5547C55.3831 87.4246 53.7651 88.2945 52.085 89.1644C52.7072 89.5372 53.2673 89.91 53.8896 90.2828C56.5032 89.5372 56.6899 89.3508 56.9388 86.9896Z" fill="#FF4133"/>
<path d="M67.1446 85.9954C66.46 85.3119 65.8378 84.6906 65.1533 84.0071C64.9666 83.8207 64.9043 83.6343 64.9043 83.3857C64.2198 83.5721 63.4731 83.7586 62.7886 84.0071C63.4731 84.442 64.1576 84.877 64.7799 85.3741C65.7133 85.9954 66.5223 86.1818 67.1446 85.9954Z" fill="#FF4133"/>
<path d="M55.0099 105.692C56.0678 106.811 56.6901 108.364 58.6814 108.799C61.9172 106.5 61.2327 102.213 63.1618 99.0437C65.8998 100.286 67.2066 103.393 69.8825 104.263C71.8738 103.642 72.1227 102.15 72.4338 100.659C72.8072 98.7951 73.305 96.9932 73.8651 94.5699C75.1719 95.6884 76.3542 96.6825 77.4743 97.6146C75.6075 95.1913 73.7406 92.8301 71.8115 90.469C71.7493 90.4069 71.7493 90.4069 71.6871 90.3447C70.8781 91.5253 71.1893 93.0787 70.8781 94.3835C70.5047 96.0612 70.0069 97.6767 69.5091 99.6029C68.4512 98.9194 67.7045 98.5466 67.1444 98.0495C66.0243 97.1175 65.0909 95.9369 63.9085 95.067C63.2863 94.5699 62.1661 93.9486 61.6061 94.1971C60.9838 94.4457 60.7349 95.6262 60.3615 96.3719C60.2371 96.6825 60.4238 97.1175 60.2993 97.4903C59.7392 99.7893 59.117 102.026 58.5569 104.325L57.8102 104.512C56.2545 102.648 54.6365 100.783 53.2053 98.7951C52.4585 97.7388 51.8362 96.8689 50.3428 97.1175C48.4759 98.2359 49.4093 100.286 48.7871 101.902C48.5381 102.648 48.2892 103.393 48.1025 104.139C48.9115 105.071 49.6582 106.065 50.4672 106.997C50.7784 105.381 51.0273 103.704 52.1474 102.337C53.143 103.517 54.0142 104.636 55.0099 105.692Z" fill="#FF4133"/>
<path d="M85.1284 128.62C87.6176 130.733 89.6089 132.473 91.6002 134.088C93.5915 134.15 93.9649 132.846 94.2138 131.416C94.5872 129.49 94.6494 127.502 95.4584 125.576C94.8361 124.271 94.2138 122.966 93.5915 121.661C92.907 124.147 92.2225 126.632 91.538 129.117C88.0532 128.434 86.9331 124.333 83.0749 123.463C82.3282 126.881 81.5814 130.112 80.7102 133.964C77.8477 131.541 75.5453 129.552 73.3673 127.75C72.6205 128.061 72.1849 128.496 71.936 128.931C72.9939 129.739 74.114 130.484 75.2964 131.23C77.91 132.845 80.648 134.212 83.4483 135.517C83.5105 135.02 83.5727 134.523 83.6972 134.026C84.1328 132.348 84.5684 130.733 85.1284 128.62Z" fill="#FF4133"/>
<path d="M314.129 205.544C313.569 205.171 312.884 204.985 312.2 204.798C311.889 204.736 311.578 204.674 311.266 204.612C304.421 203.183 297.452 202.872 290.482 202.686L276.17 202.313C258.559 200.387 245.429 202.748 222.031 201.381C199.069 200.076 177.6 197.653 154.762 197.964C148.041 198.088 141.321 198.212 134.6 198.336C134.351 198.336 134.102 198.399 133.916 198.523C130.244 198.461 126.573 198.274 122.901 198.088C119.105 197.591 115.309 196.969 111.513 196.286C107.344 195.727 103.113 195.105 98.881 194.795C92.5337 194.298 86.1864 194.235 79.8391 194.173C74.0519 193.303 68.2646 192.434 62.4152 191.812C51.2763 190.57 40.1374 190.88 29.123 192.558C27.5673 192.496 25.9494 192.434 24.3936 192.434C19.2287 193.303 14.6238 195.54 9.52106 196.534C7.59198 196.907 5.60067 197.094 3.73382 197.839C1.86697 198.585 -0.808847 200.511 0.124578 202.872C0.249035 203.183 0.43572 203.432 0.497948 203.742C0.560177 203.991 0.622405 204.239 0.746862 204.426C0.933547 204.798 1.24469 205.047 1.61806 205.233C3.04931 206.041 4.79171 206.041 6.40964 206.29C25.9494 209.21 46.4847 208.34 66.2111 209.086C86.4353 209.894 106.784 211.261 127.008 210.515C135.16 210.204 143.25 209.334 151.402 208.713C159.927 208.03 168.515 209.148 176.978 210.08C190.73 211.633 204.545 212.938 218.359 212.814C227.694 212.69 236.966 212.006 246.238 211.509C247.358 211.447 248.54 211.385 249.66 211.323C252.523 211.509 255.385 211.385 258.248 211.012C266.711 210.763 275.236 210.701 283.699 210.701C287.433 210.701 291.104 210.266 294.838 210.018C300.75 209.645 306.537 209.769 312.387 208.775C313.444 208.589 314.751 208.154 314.938 207.097C315.125 206.663 314.689 205.979 314.129 205.544Z" fill="black"/>
<path d="M256.568 112.9C251.714 111.595 246.798 110.539 241.82 109.731C241.197 108.737 239.517 108.426 238.957 109.731L235.472 117.374C234.415 119.673 233.294 121.972 232.797 124.519C232.797 124.644 232.734 124.768 232.797 124.892C232.423 125.762 232.672 126.881 233.855 127.191C239.331 128.558 244.869 129.739 250.407 130.609C251.403 130.795 252.087 130.36 252.461 129.428C254.328 124.644 256.07 119.859 257.75 114.951C258.061 114.143 257.439 113.149 256.568 112.9Z" fill="#FF4133"/>
<path d="M301.559 98.3603C300.438 97.2419 299.007 96.8069 297.576 96.8691C295.834 96.1856 293.718 97.1797 291.975 98.3603C288.926 100.287 285.815 102.151 282.641 103.828C277.227 106.686 271.627 109.048 265.839 111.036C263.164 111.347 260.488 111.409 257.75 111.16C257.501 111.16 257.314 111.16 257.128 111.222C256.443 111.16 255.758 111.471 255.447 112.217L248.167 129.428C247.793 130.298 248.664 131.478 249.598 131.416C250.718 131.292 251.838 131.292 252.958 131.354C253.394 131.541 253.767 131.603 254.203 131.727C255.136 132.286 255.945 132.97 256.692 133.777C257.314 134.585 257.999 135.269 258.745 136.014C259.866 137.568 261.048 138.935 262.541 140.177C263.226 140.737 264.035 140.861 264.719 140.24C270.756 134.958 275.547 128.31 281.21 122.655C286.997 116.815 292.784 111.036 298.572 105.257C298.758 105.071 298.883 104.822 298.945 104.636C299.256 104.387 299.629 104.077 299.941 103.828C300.812 103.145 302.056 102.275 302.616 101.281C303.488 99.8516 302.741 98.7953 301.559 98.3603Z" fill="#CC9966"/>
<path d="M299.568 96.6202C295.585 95.9368 292.038 97.9872 288.802 100.1C287.993 100.659 287.682 101.715 288.429 102.523C289.922 104.076 291.416 105.63 292.847 107.245C293.034 107.432 293.22 107.556 293.407 107.618C290.856 109.979 288.304 112.34 285.815 114.764C281.832 118.554 278.223 122.655 274.49 126.694C273.743 127.502 272.996 128.309 272.187 129.055C270.507 127.999 267.707 128.123 266.089 128.371C263.226 128.931 260.862 130.67 259.119 132.907C258.808 133.218 258.497 133.529 258.248 133.839C257.439 135.02 257.999 135.952 258.808 136.946C259.804 138.127 260.986 139.556 262.293 140.301C262.479 140.364 262.604 140.488 262.728 140.488C263.226 140.736 263.911 140.798 264.471 140.301L264.533 140.239C264.844 140.053 265.093 139.804 265.404 139.556C265.591 139.369 265.715 139.245 265.902 139.059C269.449 136.076 272.809 132.845 275.983 129.49C279.468 125.762 282.704 121.847 286.437 118.305C290.233 114.639 294.154 111.036 298.074 107.432C298.945 106.624 299.879 105.816 300.75 105.009C301.683 104.201 302.866 103.455 303.55 102.461C304.11 101.715 304.172 100.908 303.861 100.162C303.924 99.7891 303.861 99.4163 303.675 98.9814C303.115 97.6144 300.999 96.8688 299.568 96.6202Z" fill="#FFBB00"/>
<path d="M266.587 117.995C266.462 117.809 266.4 117.622 266.275 117.374C266.4 117.312 266.587 117.312 266.711 117.25C266.711 117.498 266.649 117.747 266.587 117.995Z" fill="#191919"/>
<path d="M218.359 188.643C217.861 187.96 217.364 187.338 216.804 186.655C216.119 185.288 215.435 183.983 214.688 182.678C213.008 179.695 211.203 176.775 209.274 173.979C208.34 172.612 206.411 173.296 206.1 174.476C205.976 174.538 205.789 174.663 205.665 174.725C204.669 174.538 203.549 175.097 203.611 176.154C203.176 176.402 202.864 176.775 202.74 177.21C201.993 177.334 201.309 177.894 201.371 178.701C200.624 178.826 200.002 179.385 200.002 180.193C199.317 179.447 198.073 179.571 197.388 180.193C196.579 180.068 195.708 180.503 195.397 181.249C194.339 179.82 191.85 181.435 192.659 183.299C195.21 188.829 198.26 194.111 201.682 199.144C202.18 199.889 203.113 200.2 203.985 199.765C207.532 197.901 210.954 195.851 214.314 193.676C215.123 193.365 215.932 192.93 216.43 192.309C216.928 191.998 217.426 191.688 217.861 191.315C218.982 190.631 219.044 189.575 218.359 188.643Z" fill="#FF4133"/>
<path d="M260.177 204.239C260.114 202.499 259.305 201.132 258.123 200.138C257.252 198.274 254.825 197.528 252.585 197.094C248.727 196.41 244.931 195.478 241.135 194.422C234.725 192.62 228.502 190.321 222.466 187.587C220.102 185.847 217.924 183.859 215.994 181.622C215.808 181.435 215.621 181.311 215.434 181.187C214.937 180.69 214.19 180.379 213.381 180.752C207.158 183.486 200.935 186.22 194.712 188.954C193.779 189.389 193.592 190.942 194.401 191.626C195.397 192.371 196.268 193.241 197.077 194.111C197.264 194.546 197.513 194.981 197.824 195.354C198.135 196.472 198.259 197.653 198.259 198.833C198.197 199.952 198.197 201.008 198.197 202.126C197.886 204.177 197.824 206.165 198.135 208.278C198.259 209.21 198.819 209.893 199.815 209.956C208.589 210.328 217.301 208.651 226.075 208.34C234.974 208.029 243.935 207.843 252.834 207.594C253.145 207.594 253.394 207.532 253.58 207.408C254.016 207.408 254.514 207.47 254.949 207.47C256.194 207.532 257.812 207.843 258.994 207.47C260.674 206.849 260.799 205.42 260.177 204.239Z" fill="#CC9966"/>
<path d="M259.928 201.381C257.315 197.839 252.959 196.845 248.852 196.1C247.794 195.913 246.736 196.535 246.736 197.715C246.736 200.076 246.736 202.437 246.736 204.736C246.736 205.047 246.798 205.296 246.922 205.482C243.127 205.42 239.331 205.42 235.535 205.42C229.499 205.42 223.649 206.041 217.613 206.414C216.431 206.476 215.248 206.538 214.004 206.6C213.444 204.55 211.203 202.499 209.71 201.567C207.034 199.828 203.86 199.455 200.749 199.952C200.251 199.952 199.816 199.952 199.38 200.076C197.824 200.387 197.575 201.567 197.513 202.934C197.389 204.55 197.264 206.6 197.762 208.154C197.824 208.34 197.887 208.527 197.949 208.651C198.135 209.272 198.633 209.769 199.442 209.831H199.504C199.878 209.894 200.251 209.956 200.687 209.956C200.936 209.956 201.185 209.956 201.434 209.956C206.474 210.204 211.515 210.204 216.555 209.894C222.093 209.583 227.632 208.899 233.17 208.837C238.957 208.775 244.745 208.837 250.47 208.899C251.776 208.899 253.083 208.962 254.39 209.024C255.759 209.086 257.252 209.334 258.559 209.086C259.555 208.899 260.239 208.278 260.551 207.532C260.862 207.284 261.111 206.973 261.297 206.476C261.982 204.798 260.862 202.624 259.928 201.381Z" fill="#FFBB00"/>
<path d="M185.129 10.936C184.756 10.1283 184.196 9.69331 183.511 9.44477C184.072 8.63701 184.383 7.76712 184.196 6.71082C183.76 4.16327 181.458 3.79045 178.844 4.28754C179.716 2.98269 179.902 1.67785 178.658 0.683685C176.729 -0.931834 173.555 0.683685 171.75 1.61572C168.888 3.04483 165.963 4.47394 163.038 5.84092C159.491 7.51857 155.882 9.13409 152.273 10.6875C153.953 9.00982 156.193 6.83509 157.064 4.53608C157.936 2.2992 156.193 0.124467 153.766 0.870091C152.708 1.2429 151.899 2.05066 151.028 2.73415C149.784 3.79045 148.539 4.78462 147.295 5.77878C144.868 7.70498 142.316 9.44477 139.703 11.1224C137.462 12.5515 134.911 13.7942 133.48 16.0933C131.924 18.4544 131.613 21.6233 131.177 24.3573C130.617 27.7747 130.306 31.1921 130.182 34.6096C130.12 35.4795 130.057 36.3494 129.933 37.2193C129.871 38.0892 130.742 38.9591 131.613 38.8969C136.405 38.7105 141.196 38.8969 145.926 39.6426C147.046 39.829 147.979 39.2076 148.041 38.027C148.041 37.6542 148.104 37.2814 148.166 36.9086C149.41 33.9261 152.522 32.3106 155.446 31.13C159.305 29.5766 163.163 28.2096 167.021 26.7184C170.63 25.3514 174.426 24.233 177.849 22.5553C179.902 21.5612 181.396 19.3243 180.773 17.2738C181.209 16.9631 181.582 16.6525 182.018 16.3418C183.698 15.2234 186.187 13.3593 185.129 10.936Z" fill="#FF4133"/>
<path d="M66.2111 90.8419C65.7755 90.1584 65.2776 89.4749 64.7798 88.7914C63.7841 87.3623 62.8507 85.9332 61.8551 84.5041C61.4817 84.007 60.735 83.7585 60.2371 84.3177C59.117 85.4982 58.6192 87.1138 57.4369 88.2943C56.8768 88.9157 56.1923 89.4749 55.6322 90.0963C55.3833 90.3448 55.1344 90.6555 54.8855 90.9662C54.761 90.9662 54.6988 90.9662 54.5743 90.9662C53.7654 91.0283 53.0186 91.5254 52.6453 92.271C49.845 92.7059 47.1069 93.0788 44.3067 93.4516C43.8088 93.5137 43.4355 94.2593 43.6222 94.6943C44.68 97.3661 45.8001 99.9758 47.0447 102.585C47.1692 102.834 47.3559 103.02 47.6048 103.02C47.667 103.145 47.7915 103.207 47.9159 103.269C48.6627 103.704 49.3472 103.269 49.845 102.648C50.2806 102.088 50.7162 101.529 51.1518 100.97C51.9608 99.9136 52.6453 98.8573 53.3298 97.7389C53.7032 97.0554 54.0765 96.3719 54.4499 95.6884C54.761 95.6884 55.0722 95.6884 55.3833 95.5642C55.7567 95.4399 56.1301 95.2535 56.379 94.9428C56.6901 94.6321 56.8146 94.2593 56.939 93.8865C59.6771 93.5758 62.3529 93.2652 65.0287 92.9545C65.5265 92.8924 65.9621 92.7681 66.2111 92.3331C66.7089 91.8361 66.5222 91.2768 66.2111 90.8419Z" fill="#FFBB00"/>
<path d="M242.94 107.121C241.633 104.139 238.335 103.828 235.472 103.145C232.672 102.461 229.809 101.84 227.009 101.156C224.396 100.535 221.844 99.9758 219.231 99.3545C207.407 95.7506 195.522 92.5196 183.263 90.5313C174.302 89.1022 164.968 87.8595 155.882 89.2264C152.833 89.6614 149.846 90.5934 147.17 91.9604C149.286 86.9274 149.784 81.1488 150.468 75.8052C151.215 70.213 151.651 64.6208 151.9 58.9665C152.149 52.4423 151.962 45.9802 151.526 39.456C151.464 38.7104 151.277 38.0269 151.028 37.4677C150.904 35.9143 149.162 34.4852 147.668 34.5473H147.481C147.17 34.4852 146.859 34.423 146.486 34.3609C139.516 33.7396 132.484 33.8017 125.515 34.4231C123.399 34.6095 121.097 35.8522 120.661 38.1512C120.35 39.5182 120.288 40.8851 120.661 42.19C120.848 47.0987 120.91 51.9452 120.848 56.8539C120.785 58.7801 120.661 60.7063 120.536 62.6325C120.35 65.8014 120.288 69.2188 119.79 72.512C119.043 75.1217 118.11 77.8557 117.114 80.0304C116.616 81.0867 116.118 82.143 115.496 83.1372C114.749 83.9449 113.878 84.5041 113.007 85.0012C112.26 85.0012 111.576 84.9391 110.829 84.877C109.273 84.7527 107.717 84.6284 106.162 84.5041C102.801 84.1935 99.5033 83.9449 96.143 83.6343C94.3383 83.4479 92.5337 83.2614 90.7291 83.1372C89.3601 82.8265 87.991 82.5779 86.622 82.4537C84.444 82.2051 82.3283 82.0809 80.1503 82.0809C78.7812 81.9566 77.4745 81.7702 76.1054 81.6459C75.9187 81.6459 75.7321 81.6459 75.5454 81.6459C73.1807 81.3974 70.7538 81.3352 68.3269 81.2731C67.7046 81.211 67.1445 81.211 66.5223 81.2731C65.8377 81.3352 65.1532 81.5217 64.6554 82.0187C64.1576 82.3294 64.0331 83.075 64.4687 83.5721C66.6467 85.6847 68.7625 87.8595 71.0027 89.9721C71.0649 90.0342 71.0649 90.0342 71.1272 90.0963C77.4122 97.739 83.3861 105.754 88.8 114.081C91.6625 118.492 94.0894 123.152 96.0807 127.999C97.3253 131.044 98.5076 134.15 99.69 137.195C98.1343 138.624 96.5786 139.991 95.0228 141.358C92.9071 139.867 90.6669 138.686 88.3644 137.568C83.7595 135.393 79.0302 133.529 74.7364 130.795C70.3804 128.061 66.3978 124.706 62.7263 121.102C58.9304 117.374 55.5078 113.397 52.0853 109.296C48.7249 105.195 45.4268 101.094 42.0043 96.9934C41.5687 96.4963 41.1331 95.9992 40.7597 95.5021C40.5108 95.1914 39.8885 95.1293 39.5151 95.3157C39.204 95.5021 38.8929 95.7506 38.6439 95.937C38.2706 96.0613 37.9594 96.3099 37.7728 96.6205C37.6483 96.8069 37.5861 96.9934 37.4616 97.1176C37.2749 97.3662 37.0882 97.6147 36.9016 97.8632C36.7149 97.9875 36.5282 98.1739 36.3415 98.3603C29.932 106.686 23.4602 115.075 20.3488 125.265C17.1129 135.704 16.7396 147.137 16.5529 157.948C16.4906 163.602 16.6151 169.319 16.9885 174.973C17.2996 179.944 17.6108 185.35 20.7222 189.513C26.5094 197.342 38.0217 197.404 46.7959 198.274C59.6149 199.517 72.434 200.076 85.253 200.014C85.5641 200.014 85.8753 199.952 86.1864 199.89C86.4976 199.89 86.8709 199.89 87.1821 199.765C87.9288 199.827 88.6756 199.517 88.9245 198.647C89.3601 198.274 89.6712 197.777 89.9201 197.156C89.9824 197.031 90.0446 196.845 90.0446 196.721C90.3557 196.224 90.5424 195.664 90.6046 194.919C90.6046 194.173 90.6669 193.427 90.6669 192.682C90.7291 192.682 90.7913 192.744 90.8535 192.744C95.0851 194.732 99.8767 195.291 104.606 195.354C110.642 195.416 117.052 195.354 122.901 193.49C133.853 189.948 142.254 180.69 149.535 172.177C150.655 170.81 151.775 169.505 152.895 168.076C159.367 161.987 165.652 155.711 171.564 149.125C177.538 160.744 184.009 172.115 191.041 183.175C191.788 184.356 193.406 185.226 194.837 184.728C205.789 180.628 216.617 176.092 227.196 171.121C229.685 169.94 233.481 168.946 233.668 165.653C233.792 163.602 232.423 161.676 231.054 159.936C228.067 154.158 224.52 148.628 220.351 143.595C219.604 142.601 218.92 141.544 218.173 140.55C221.035 141.482 223.836 142.352 226.698 143.222C227.071 143.346 227.507 143.408 227.818 143.408C228.689 143.595 229.498 143.036 230.121 142.414C230.743 141.669 231.241 140.799 231.614 139.929C231.863 139.308 232.05 138.624 232.236 138.003C234.352 132.845 236.468 127.626 238.521 122.469C239.642 119.735 240.699 117.063 241.82 114.329C242.94 112.154 244.06 109.669 242.94 107.121ZM52.832 167.082C52.2097 166.896 51.5252 166.771 50.9029 166.585C52.0853 161.49 53.1432 156.333 53.9521 151.113C58.6193 153.412 63.2864 155.711 67.9535 158.01C68.3269 158.197 68.7003 158.383 69.0736 158.569C69.2603 158.694 69.3848 158.694 69.3225 158.632C69.6959 159.191 69.8204 160.247 69.9448 160.868L71.625 166.274C72.1228 167.952 72.6206 169.567 73.1185 171.245C66.3978 169.63 59.6149 168.263 52.832 167.082ZM121.47 124.395C121.47 124.457 121.47 124.519 121.408 124.519C119.479 127.005 117.487 129.49 115.372 131.913C114.563 132.473 113.754 133.032 112.945 133.653C112.198 133.094 111.451 132.535 110.704 131.913L103.797 113.335C112.882 113.024 122.217 112.03 130.306 108.178C126.573 113.149 123.461 118.492 121.47 124.395Z" fill="#F5EBE0"/>
<path d="M53.4543 113.522C52.3342 115.448 51.2141 117.374 50.1562 119.3C49.5962 120.294 49.0361 121.226 48.4761 122.221C47.9783 123.091 47.356 124.023 46.9826 124.955C46.7337 125.576 46.6715 126.259 47.1071 126.819C47.6049 127.44 48.6005 127.626 49.3473 127.937C51.463 128.745 53.5788 129.553 55.6946 130.422C64.1576 133.716 72.5585 137.009 81.0215 140.24C85.502 141.918 90.1069 143.471 94.8984 143.719C95.5207 143.782 95.5207 142.725 94.8984 142.725C90.8536 142.539 86.9954 141.358 83.1995 139.991C79.2791 138.562 75.421 137.009 71.5628 135.518C67.5802 133.964 63.6598 132.473 59.6772 130.92C57.7481 130.174 55.819 129.428 53.8899 128.683C52.9565 128.31 51.9609 127.937 51.0274 127.564C50.5296 127.378 50.094 127.191 49.5962 127.005C49.1606 126.819 48.3516 126.694 47.9782 126.322C47.2937 125.638 48.6628 123.898 49.0361 123.277C49.6584 122.221 50.2185 121.164 50.8408 120.108C52.0231 118.12 53.1432 116.069 54.3255 114.081C54.6367 113.46 53.7655 112.962 53.4543 113.522Z" fill="#191919"/>
<path d="M38.893 96.372C38.5819 98.9817 38.333 101.591 38.2085 104.263C38.1463 105.568 38.1463 106.873 38.1463 108.24C38.1463 109.296 37.9596 110.787 38.333 111.782C38.7063 112.714 39.6398 112.962 40.511 113.211C41.7555 113.583 43.0001 113.894 44.2447 114.205C46.796 114.826 49.4096 115.323 52.0232 115.696C52.6455 115.758 52.9566 114.826 52.2721 114.702C49.9074 114.391 47.5428 113.956 45.1781 113.397C44.058 113.149 42.9379 112.838 41.8178 112.527C41.2577 112.341 40.6976 112.217 40.1376 112.03C39.4531 111.782 39.1419 111.533 39.0797 110.787C38.7686 106.003 39.2042 101.094 39.8264 96.372C40.0131 95.6885 39.0175 95.6885 38.893 96.372Z" fill="#191919"/>
<path d="M78.47 98.112C82.6393 98.1741 86.8086 98.2984 90.9779 98.3605C90.8534 98.2362 90.6667 98.112 90.5423 97.9877C92.9692 108.054 95.2094 118.244 97.2629 128.372C97.823 131.292 98.4453 134.15 98.9431 137.071C99.0675 137.692 100.001 137.444 99.8765 136.822C97.9474 126.632 95.7694 116.442 93.467 106.314C92.7825 103.456 92.1602 100.597 91.4757 97.677C91.4135 97.4906 91.2268 97.3042 91.0401 97.3042C86.8708 97.2421 82.7015 97.1178 78.5322 97.0557C77.8477 97.1178 77.8477 98.0498 78.47 98.112Z" fill="#191919"/>
<path d="M65.7133 84.3179C68.8247 85.0014 71.9361 85.6228 74.9853 86.5548C75.6698 86.7412 76.7899 86.9276 77.1011 87.6732C77.4122 88.6053 77.4744 89.7237 77.5989 90.6557C77.8478 92.7062 77.9722 94.7567 78.0345 96.8693C78.0345 97.4906 79.0301 97.4906 78.9679 96.8693C78.9057 94.5703 78.719 92.3334 78.4701 90.0344C78.3456 89.1023 78.3456 87.9839 77.9722 87.114C77.6611 86.3684 76.8521 86.1198 76.1676 85.8713C72.8695 84.7529 69.447 84.0694 66.0866 83.3859C65.4021 83.2616 65.091 84.1936 65.7133 84.3179Z" fill="#191919"/>
<path d="M106.1 146.205C117.798 138.003 129.809 130.174 142.005 122.78C145.428 120.667 148.913 118.617 152.397 116.628C152.957 116.318 152.46 115.448 151.9 115.758C139.516 122.966 127.444 130.547 115.558 138.5C112.198 140.737 108.9 143.036 105.602 145.335C105.104 145.708 105.602 146.578 106.1 146.205Z" fill="#191919"/>
<path d="M149.099 115.634C158.371 118.803 167.706 121.91 176.915 125.265C186.063 128.558 195.086 132.224 204.047 135.952C209.025 138.003 214.066 139.929 219.293 141.172C219.915 141.296 220.164 140.364 219.542 140.24C210.27 138.003 201.558 133.777 192.721 130.236C183.636 126.57 174.364 123.277 165.092 120.046C159.803 118.244 154.575 116.442 149.286 114.64C148.788 114.516 148.539 115.448 149.099 115.634Z" fill="#191919"/>
<path d="M94.0274 143.098C98.7567 148.441 103.486 153.723 108.215 159.067C112.198 163.54 116.367 168.014 119.354 173.295C121.034 176.216 122.279 179.323 122.839 182.616C122.964 183.237 123.897 182.989 123.835 182.367C122.839 176.527 119.728 171.369 116.118 166.709C112.011 161.49 107.406 156.643 102.988 151.672C100.25 148.566 97.5122 145.521 94.7741 142.414C94.3385 141.917 93.5918 142.663 94.0274 143.098Z" fill="#191919"/>
<path d="M95.4583 141.358C95.0849 141.607 94.7738 141.855 94.4004 142.104C94.5871 142.352 94.836 142.663 95.0227 142.912C96.5784 141.42 98.1341 139.991 99.7521 138.5C100.25 138.065 99.5031 137.319 99.0675 137.817C97.5118 139.308 95.9561 140.737 94.3382 142.228C93.9026 142.601 94.4627 143.347 94.9605 143.036C95.3339 142.787 95.645 142.539 96.0184 142.29C96.2673 142.104 96.3295 141.855 96.2051 141.607C96.0184 141.296 95.7072 141.172 95.4583 141.358Z" fill="#191919"/>
<path d="M99.6901 136.822C101.246 138.065 103.175 137.506 104.917 137.009C107.282 136.325 109.647 135.704 112.011 135.02C112.634 134.834 112.385 133.84 111.762 134.026C109.647 134.647 107.469 135.207 105.353 135.828C103.922 136.263 101.806 137.195 100.437 136.077C99.939 135.704 99.1922 136.387 99.6901 136.822Z" fill="#191919"/>
<path d="M95.2096 143.036C96.2675 141.917 97.3876 140.861 98.4455 139.743C98.9433 139.245 99.5034 138.748 99.939 138.189C100.375 137.692 100.623 137.009 100.375 136.387C100.126 135.766 99.1922 136.014 99.3789 136.636C99.5656 137.133 99.13 137.568 98.8189 137.879C98.321 138.376 97.8232 138.873 97.3254 139.37C96.3297 140.364 95.3963 141.358 94.4006 142.29C94.0273 142.787 94.774 143.533 95.2096 143.036Z" fill="#191919"/>
<path d="M98.3833 133.032C98.7567 134.585 99.7524 136.015 101.121 136.884C101.184 136.76 101.246 136.574 101.308 136.449C100.561 136.263 99.939 135.704 99.7524 134.958C99.5657 135.02 99.4412 135.02 99.2545 135.082C99.4412 135.58 99.6901 136.015 100.063 136.449C100.25 136.636 100.624 136.387 100.437 136.139C100.25 135.89 100.126 135.704 99.939 135.455C99.8146 135.269 99.5034 135.331 99.4412 135.58C99.4412 135.89 99.5034 136.201 99.6901 136.512C99.8146 136.76 100.25 136.574 100.126 136.325C100.063 136.139 99.939 135.89 99.8768 135.704C99.8146 135.58 99.6901 135.517 99.5657 135.517C99.4412 135.58 99.3168 135.704 99.379 135.828C99.4412 136.015 99.5657 136.263 99.6279 136.449C99.7524 136.387 99.939 136.325 100.063 136.263C99.939 136.077 99.8768 135.828 99.8768 135.642C99.6901 135.704 99.5657 135.704 99.379 135.766C99.5657 136.015 99.6901 136.201 99.8768 136.449C100.001 136.325 100.126 136.263 100.25 136.139C99.939 135.828 99.7524 135.393 99.5657 135.02C99.4412 134.71 99.0056 134.834 99.0678 135.145C99.3168 136.077 100.063 136.76 100.997 137.009C101.308 137.071 101.433 136.698 101.184 136.574C99.939 135.766 99.0678 134.461 98.6945 133.032C98.8189 132.597 98.3211 132.721 98.3833 133.032Z" fill="#191919"/>
<path d="M148.29 14.975C151.837 17.3361 154.886 20.3808 157.189 23.9225C157.562 24.4817 158.433 23.9846 158.06 23.4254C155.633 19.6973 152.521 16.5284 148.788 14.1051C148.228 13.7323 147.73 14.6022 148.29 14.975Z" fill="#191919"/>
<path d="M178.782 16.5283C172.871 17.8953 167.083 19.6351 161.421 21.7477C160.798 21.9962 161.047 22.9282 161.669 22.7418C167.332 20.6292 173.119 18.8894 179.031 17.5225C179.716 17.3982 179.405 16.404 178.782 16.5283Z" fill="#191919"/>
<path d="M182.205 9.13404C178.098 10.4389 173.991 11.7437 169.884 13.0486C165.963 14.2913 162.292 16.0932 158.558 17.8951C157.998 18.1437 158.496 19.0136 159.056 18.765C160.923 17.8951 162.79 16.9631 164.656 16.0932C166.523 15.2233 168.452 14.5398 170.444 13.9185C174.426 12.6136 178.471 11.3709 182.454 10.0661C183.138 9.9418 182.827 8.94764 182.205 9.13404Z" fill="#191919"/>
<path d="M177.662 4.16309C170.07 7.20772 162.603 10.563 155.322 14.3533C154.762 14.664 155.26 15.5339 155.82 15.2232C162.976 11.4951 170.381 8.13975 177.911 5.15726C178.533 4.90871 178.284 3.91455 177.662 4.16309Z" fill="#191919"/>
<path d="M62.0418 75.06C60.2372 76.427 59.2415 73.9416 58.6815 72.6367C58.1214 71.394 57.6858 69.9649 57.4991 68.5358C57.6858 71.9533 57.9347 75.3707 58.0592 78.8503C58.0592 79.0988 58.0592 79.4095 58.0592 79.658C58.2459 82.4541 57.8725 85.4366 56.7524 87.922C55.4456 90.7181 52.0853 92.023 49.285 92.7065C46.6714 93.3278 43.3111 93.6385 40.8219 92.5201C38.1461 91.3395 37.026 87.7356 35.9681 85.1881C35.4081 83.8832 34.9725 82.5163 34.5991 81.0871C33.2923 81.1493 31.8611 79.4095 31.0521 78.5396C29.8697 77.1726 28.6252 75.495 28.314 73.6309C28.2518 73.4445 28.2518 73.196 28.2518 72.9474C28.1274 72.6367 28.1273 72.3261 28.0651 72.0154C28.0029 70.6484 28.7496 69.4678 30.1809 69.4057C31.4877 69.4057 32.2967 70.2756 32.8567 71.3319C32.7322 69.5921 32.7945 67.8523 33.2923 66.2368C34.9102 60.5203 42.3154 58.3456 47.5426 58.1592C50.2184 58.0349 53.0187 58.7806 55.01 60.7067C56.5657 62.198 57.0635 63.9999 57.3125 65.9261C57.3747 65.8018 57.3747 65.6776 57.4369 65.5533C57.4369 65.4912 57.4369 65.3669 57.4991 65.3048C57.6858 64.0621 58.8059 62.4465 60.2372 63.3164C60.6106 63.565 60.9217 63.8757 61.1706 64.3727C62.353 65.6154 62.7263 68.163 62.9752 69.4678C63.2241 71.2076 63.5975 73.8794 62.0418 75.06Z" fill="#FF4133"/>
<path d="M41.0088 71.456C41.0088 71.3939 41.0088 71.3317 41.0088 71.3317C41.0088 71.2075 40.9466 71.0832 40.8843 70.9589C40.8843 70.8968 40.8221 70.8346 40.7599 70.8346C40.7599 70.8346 40.7599 70.8346 40.7599 70.7725C40.6977 70.6482 40.5732 70.524 40.511 70.4618C40.3865 70.3376 40.1998 70.3376 40.0754 70.3997C40.0131 70.3997 39.8887 70.3997 39.8265 70.3997C39.5775 70.4618 39.3286 70.7104 39.2664 70.9589C39.2042 71.1453 39.2042 71.3939 39.2664 71.5803C39.2664 71.6424 39.2664 71.7045 39.3286 71.7667C39.3286 71.8909 39.3909 72.0773 39.5153 72.1395C39.6398 72.2638 39.702 72.388 39.8265 72.4502C39.9509 72.5744 40.1998 72.5744 40.3865 72.5123C40.6354 72.4502 40.8221 72.2016 40.8843 71.9531L40.9466 71.8909C40.9466 71.7045 41.0088 71.5803 41.0088 71.456Z" fill="#191919"/>
<path d="M51.4628 68.4734C51.4628 68.4113 51.4006 68.287 51.4006 68.2249C51.4006 68.2249 51.4006 68.1627 51.3384 68.1627C51.2761 68.1006 51.2761 68.0385 51.2139 68.0385C51.2139 68.0385 51.1517 67.9763 51.0895 67.9763C51.0272 67.9763 51.0272 67.9142 50.965 67.9142C50.9028 67.9142 50.8405 67.8521 50.7783 67.8521H50.7161C50.6539 67.8521 50.5916 67.8521 50.5294 67.8521H50.4672C50.4049 67.8521 50.2805 67.8521 50.2183 67.9142C50.156 67.9142 50.0316 67.9763 49.9693 68.0385C49.8449 68.1006 49.7827 68.1627 49.7204 68.287V68.3491C49.7204 68.4113 49.6582 68.4734 49.6582 68.5355C49.6582 68.5977 49.6582 68.6598 49.6582 68.7219V68.7841C49.6582 68.8462 49.6582 68.9084 49.6582 68.9705V69.0326C49.6582 69.1569 49.7204 69.2812 49.7827 69.3433C49.8449 69.4054 49.8449 69.4054 49.9071 69.4054C49.9071 69.4054 49.9071 69.4054 49.9693 69.4676L50.0316 69.5297C50.156 69.5918 50.2183 69.654 50.3427 69.7161H50.4049C50.4672 69.7161 50.5294 69.7161 50.5916 69.7161C50.6539 69.7161 50.7161 69.7161 50.7783 69.7161C50.8405 69.7161 50.9028 69.654 50.965 69.654C51.0895 69.5918 51.1517 69.5297 51.2139 69.4054C51.2139 69.3433 51.2761 69.3433 51.2761 69.2812C51.3384 69.219 51.3384 69.1569 51.3384 69.0948C51.4006 69.0326 51.4006 68.9084 51.4006 68.8462C51.4628 68.6598 51.4628 68.5977 51.4628 68.4734Z" fill="#191919"/>
<path d="M48.2892 81.1488C48.2892 80.8382 48.1025 80.5896 47.8536 80.4032C47.6047 80.2168 47.2313 80.2168 46.9202 80.2168C46.2356 80.2168 45.5511 80.1547 44.8666 80.1547C44.6177 80.1547 44.431 80.1547 44.1821 80.1547C43.4976 79.9683 42.8131 79.7819 42.3153 80.3411C41.7552 80.9624 42.0663 82.143 42.7508 82.5779C43.4354 82.9508 44.3066 82.8886 45.0533 82.9508C45.9245 83.0129 46.8579 83.0129 47.6669 82.6401C48.0403 82.4537 48.3514 82.143 48.4136 81.708C48.4136 81.4595 48.4136 81.3352 48.2892 81.1488Z" fill="#191919"/>
<path d="M60.8593 72.2016C60.237 69.7162 59.3036 67.2929 58.1212 64.9939C57.1878 63.2541 56.1299 61.4522 54.7609 60.023C55.5699 59.2153 56.2544 58.2833 56.6277 57.1648C57.1256 55.7978 57.1878 54.3066 56.8144 52.8775C56.69 52.3804 56.5033 51.9454 56.1921 51.5726C55.1343 49.1494 50.4049 49.8328 48.0402 50.1435C44.4932 50.5785 40.0128 51.0756 36.7769 53.0017C35.2212 53.561 33.7899 54.4309 32.4831 55.3629C30.0562 57.1027 31.0519 60.2716 31.8609 62.6949C31.7364 65.8016 31.7364 68.9705 32.4209 72.0152C32.9187 75.8054 33.8522 79.5335 34.91 83.1995C35.0345 83.8209 35.2212 84.3801 35.4079 85.0015C36.3413 88.2325 37.5236 91.7742 40.1995 93.8247C40.2617 93.8868 40.3239 93.8868 40.3239 93.8868C40.7595 94.2596 41.2573 94.5703 41.7552 94.7567C43.5598 95.5645 45.6133 95.6887 47.5424 95.5023C49.5337 95.3159 51.525 94.9431 53.4541 94.1975C55.3832 93.4519 57.1878 92.3956 58.5568 90.8422C59.9881 89.2267 60.8593 87.3005 61.2949 85.25C62.2905 81.0248 61.9172 76.3646 60.8593 72.2016ZM45.9867 84.5665C44.5554 84.7529 42.9997 84.3801 41.8796 83.5102C41.7552 83.2617 41.6929 83.0753 41.5685 82.8267C41.5685 82.4539 41.6307 82.1432 41.6307 81.7704C41.8796 81.1491 42.1908 80.5898 42.6886 80.0928C43.6842 79.1607 45.1777 79.2229 46.4223 79.4714C47.6669 79.6578 49.1603 80.0306 49.9693 81.0869C50.156 81.3355 50.2805 81.5219 50.4049 81.7704C49.347 83.1995 47.7291 84.318 45.9867 84.5665ZM55.6943 76.054C55.5699 76.7375 55.4454 77.4831 55.1965 78.1044C55.0098 78.8501 54.6987 79.5335 54.3875 80.2792C54.2631 80.7141 54.1386 81.0869 53.9519 81.5219C53.3296 80.4656 52.4584 79.5957 51.4006 78.9743C49.9693 78.1666 48.2891 77.918 46.6712 78.1666C45.6133 78.1044 44.5554 78.1044 43.5598 78.353C42.3152 78.6637 41.3196 79.5335 40.7595 80.7141C40.4484 81.3355 40.2617 81.9568 40.075 82.6403L39.8261 82.4539V82.3918C39.5772 82.1432 39.3905 81.8947 39.2038 81.6461C38.9549 81.1491 38.6437 80.5898 38.3948 80.0306C37.2125 77.5452 36.4035 75.1841 36.0924 72.4501C35.7812 69.9647 35.5323 67.4793 35.2212 64.9939C35.2212 64.8075 35.0967 64.6211 35.0345 64.4968C35.0345 64.4347 35.0345 64.3104 35.0345 64.2482C35.9057 64.5589 36.8391 64.6211 37.8348 64.6832C39.4527 64.8075 41.0707 64.9317 42.7508 64.8696C44.2443 64.8075 45.7378 64.6211 47.169 64.2482C48.2269 64.0618 49.2226 63.7512 50.2182 63.3784C50.9027 63.0677 51.5872 62.757 52.2095 62.3221C52.3962 62.8191 52.5829 63.2541 52.7696 63.7512C53.8897 66.423 55.1343 69.0327 55.5699 71.8909C55.8188 73.2579 55.881 74.687 55.6943 76.054Z" fill="#CC9966"/>
<path d="M41.4444 65.0562C41.1332 64.9941 40.8221 65.1183 40.5732 65.3047C40.262 65.4912 39.9509 65.6776 39.6398 65.864C39.0797 66.1746 38.4574 66.4853 37.8351 66.7339C37.2129 66.9824 36.5283 67.2309 35.8438 67.3552C35.2838 67.4795 34.537 67.6038 34.4748 68.2872C34.4126 68.6601 34.5993 68.9707 34.9104 69.095C35.2838 69.2814 35.6572 69.2193 35.9683 69.0329C36.3417 68.8465 36.715 68.6601 37.0884 68.4736C37.9596 68.163 38.8308 67.8523 39.702 67.4795C40.3243 67.1688 40.8843 66.8581 41.4444 66.4853C41.6933 66.2989 41.9422 66.1125 41.9422 65.8018C42.0667 65.4912 41.8178 65.1805 41.4444 65.0562Z" fill="#191919"/>
<path d="M54.0765 63.254C53.5165 63.3161 52.9564 63.4404 52.3963 63.5025C51.8363 63.6268 51.214 63.6889 50.6539 63.6889C50.0317 63.6889 49.4716 63.6889 48.8493 63.8132C48.7249 63.8132 48.6626 63.8753 48.6004 63.9375C48.476 63.9996 48.4137 64.0617 48.3515 64.2481C48.2893 64.4967 48.4137 64.8073 48.7249 64.8695C49.9694 65.0559 51.214 65.118 52.4586 64.9938C53.0186 64.9316 53.6409 64.8695 54.201 64.7452C54.6988 64.6209 55.4455 64.4967 55.4455 63.8753C55.4455 63.1918 54.5743 63.1918 54.0765 63.254Z" fill="#191919"/>
<path d="M49.6584 75.9295C49.4717 74.9353 48.9117 74.0033 48.3516 73.1955C47.7916 72.3256 47.1071 71.5179 46.3603 70.7101C45.9247 70.213 45.2402 70.9587 45.6758 71.3936C46.7959 72.6985 47.9782 74.0033 48.5383 75.681C48.6628 75.9916 48.7872 76.3644 48.6628 76.6751C48.5383 76.9858 48.1027 77.0479 47.7916 77.1101C46.7959 77.2965 45.8003 77.4207 44.8046 77.4207C44.1823 77.4207 44.1823 78.4149 44.8046 78.4149C45.9869 78.4149 47.1693 78.2906 48.2894 78.0421C48.7872 77.9178 49.2228 77.7314 49.4717 77.2965C49.7829 76.9237 49.7829 76.4266 49.6584 75.9295Z" fill="#191919"/>
<path d="M54.6368 53.8093C54.4501 52.1317 53.0188 50.5162 51.2142 51.0133C50.5919 51.1997 50.8408 52.1938 51.4631 52.0074C52.0854 51.821 52.6455 52.0696 53.0811 52.5045C53.5789 53.0016 53.7033 53.7472 53.6411 54.3686C53.5789 55.7355 52.8944 57.0404 52.0854 58.1588C50.4675 60.3957 47.9161 61.8248 45.2403 62.3219C43.5601 62.6947 41.7555 62.6947 40.0131 62.4462C39.3908 62.384 39.3908 63.3782 40.0131 63.4403C43.4357 63.8753 47.0449 63.3782 49.9074 61.452C51.152 60.6442 52.2721 59.5258 53.1433 58.2831C54.0767 57.1025 54.7612 55.4249 54.6368 53.8093Z" fill="#191919"/>
<path d="M50.5919 54.431C50.343 52.8776 48.8495 51.7592 47.2938 51.8834C46.6715 51.9456 46.6715 52.9397 47.2938 52.8776C48.6006 52.8155 49.6585 53.7475 49.5963 55.0523C49.534 56.3572 48.2895 57.165 47.2938 57.8484C46.1737 58.5941 44.9291 59.2776 43.5601 59.464C42.0666 59.6504 40.5732 59.2776 39.1419 59.6504C37.9596 59.961 36.7772 60.7688 36.5283 62.0115C36.4039 62.6329 37.3995 62.9435 37.524 62.2601C37.7729 61.0173 39.2041 60.5203 40.3243 60.4581C41.1954 60.396 42.0666 60.5203 42.9378 60.4581C43.6846 60.4581 44.4935 60.2717 45.1781 60.0232C46.5471 59.5261 47.8539 58.7183 48.974 57.7863C50.0941 57.0407 50.8408 55.8601 50.5919 54.431Z" fill="#191919"/>
<path d="M54.5123 65.6775C53.7033 65.1805 52.7077 65.1183 51.7742 65.2426C50.7164 65.3669 49.5962 65.6154 48.6006 65.9882C47.6049 66.2989 46.6093 66.8581 46.1115 67.7901C45.8003 68.3494 45.6759 68.9086 45.7381 69.4678C45.5514 69.4057 45.3025 69.4057 45.1158 69.4678C44.8669 69.5299 44.618 69.7163 44.4313 69.9027V69.8406C44.2446 69.4678 43.9957 69.1571 43.6845 68.9086C42.9378 68.2872 42.0044 68.1008 41.0087 68.1008C39.5152 68.163 37.7106 68.4115 36.4038 69.4057C35.7815 69.7163 35.2215 70.1513 34.8481 70.7726C34.3503 71.5804 34.3503 72.5746 34.7237 73.4445C34.8481 74.0658 35.2837 74.5629 35.8438 74.8736C36.3416 75.1842 36.9639 75.3085 37.5239 75.3085C38.5196 75.4328 39.5152 75.2464 40.4487 74.9357C41.3199 74.6872 42.2533 74.3765 43.0623 73.8794C43.3734 73.693 43.6845 73.5066 43.9335 73.2581C44.5557 72.6367 44.8669 71.8911 44.8047 71.1454C44.8669 70.959 44.9291 70.7726 45.0536 70.5862C45.178 70.462 45.3647 70.3998 45.6136 70.462C45.8003 70.5241 45.987 70.6484 46.1115 70.7726C46.2981 71.2076 46.6715 71.5183 47.1071 71.8289C47.9783 72.3882 49.0984 72.2639 50.0941 72.0775C51.0897 71.8911 52.0854 71.6425 53.0188 71.3319C53.8278 71.0833 54.5745 70.7726 55.1968 70.2134C56.6903 68.9086 56.1925 66.6096 54.5123 65.6775ZM43.3112 72.2639C42.5022 73.2581 41.0087 73.4445 39.8264 73.7551C39.5152 73.8173 39.2041 73.9415 38.893 74.0037C38.7063 74.0037 38.4574 74.0037 38.2707 74.0037C37.4617 73.9415 36.4661 73.8173 36.0305 73.0095C36.0305 72.8852 35.9682 72.8231 35.9682 72.761C35.8438 72.0775 35.9682 71.3319 36.4038 70.7726C36.4661 70.7105 36.4661 70.7105 36.5283 70.6484C36.7772 70.462 37.1506 70.3377 37.3995 70.2134C38.1462 69.9649 38.9552 69.7163 39.7019 69.5921C40.4487 69.4678 41.2576 69.2814 42.0044 69.4678C43.2489 69.7785 44.2446 71.1455 43.3112 72.2639ZM54.5745 69.2193C53.7655 70.2134 52.2721 70.3998 51.0897 70.7105C50.4052 70.8969 49.6585 71.1454 48.9117 71.1454C48.4761 71.0833 48.0405 70.959 47.7294 70.6484C47.356 70.2756 47.1693 69.8406 47.1071 69.3435V69.2814C47.1071 68.7222 47.2938 68.163 47.6049 67.728C47.9161 67.4795 48.2894 67.2931 48.6628 67.1688C49.4096 66.9202 50.2185 66.6717 50.9653 66.5474C51.712 66.4232 52.521 66.2368 53.2677 66.4232C54.5123 66.6717 55.5079 68.1008 54.5745 69.2193Z" fill="#FFBB00"/>
<path d="M287.184 103.331C287.122 103.207 287.06 103.145 286.935 103.083H286.873C286.748 103.021 286.562 103.021 286.437 103.145C285.753 103.953 285.068 104.698 284.322 105.444C283.45 106.127 282.579 106.811 281.646 107.494C280.588 108.302 279.53 109.048 278.41 109.855C277.103 109.172 275.672 108.551 274.241 108.178C273.929 108.116 273.68 108.302 273.68 108.613C273.494 110.228 273.307 111.844 273.369 113.459C273.183 113.584 272.934 113.708 272.747 113.894L270.009 110.353C269.885 110.228 269.636 110.166 269.449 110.29C268.702 110.787 268.516 111.595 268.329 112.403C268.08 113.273 267.893 114.143 267.644 115.013C267.52 115.448 267.458 115.883 267.333 116.318C266.96 116.38 266.649 116.504 266.275 116.566C265.529 115.013 264.782 113.397 264.035 111.844C264.72 111.471 265.342 110.912 265.902 110.353C266.711 109.545 267.458 108.675 268.204 107.805C268.951 106.935 269.698 106.065 270.445 105.195C271.129 104.325 271.938 103.518 272.623 102.648C272.871 102.337 272.996 101.902 272.809 101.529C272.623 101.094 272.125 101.032 271.689 101.032C270.818 101.032 269.947 101.591 269.2 102.026C267.644 103.021 266.337 104.325 265.28 105.879C264.782 106.624 264.346 107.37 264.035 108.24C264.035 107.929 264.035 107.556 263.973 107.246C263.848 106.003 263.599 104.512 262.666 103.58C262.293 103.207 261.733 102.896 261.173 103.021C260.55 103.145 260.177 103.828 259.928 104.325C259.492 105.444 259.679 106.749 260.115 107.867C260.737 109.421 261.982 110.601 262.79 112.092C261.982 113.77 261.297 115.448 260.612 117.187C258.683 117.187 256.692 117.063 254.763 116.939C254.203 116.877 254.141 117.809 254.763 117.871C256.568 117.995 258.434 118.119 260.301 118.119C260.052 118.741 259.866 119.362 259.679 120.046C259.368 120.108 259.119 120.232 258.932 120.481C258.808 120.667 258.746 120.916 258.808 121.164C258.808 121.226 258.808 121.288 258.808 121.35C258.808 121.785 259.057 122.22 259.43 122.469C259.804 122.717 260.301 122.717 260.675 122.469C261.048 122.22 261.297 121.785 261.297 121.35C261.297 121.164 261.235 120.978 261.173 120.853C261.173 120.853 261.173 120.791 261.11 120.791C261.048 120.667 260.986 120.605 260.924 120.543C260.861 120.481 260.737 120.356 260.612 120.294C260.799 119.611 261.048 118.865 261.297 118.182C262.853 118.119 264.346 118.057 265.84 117.747C266.151 118.368 266.462 119.051 266.773 119.673C266.773 119.735 266.773 119.797 266.773 119.859C266.711 119.859 266.649 119.921 266.586 119.921C266.338 120.046 266.151 120.356 266.089 120.667C266.089 120.791 266.089 120.978 266.151 121.102C266.151 121.35 266.275 121.599 266.524 121.723C266.649 121.785 266.773 121.848 266.898 121.848C266.96 121.91 267.084 121.972 267.146 121.972C267.582 122.096 268.08 121.972 268.329 121.599C268.578 121.164 268.515 120.667 268.204 120.294C268.142 120.232 268.08 120.17 267.955 120.108C267.893 119.921 267.769 119.797 267.707 119.611C267.831 118.865 268.018 118.057 268.142 117.312C268.329 117.25 268.516 117.187 268.64 117.125C270.009 116.69 271.254 116.069 272.498 115.323C272.809 115.696 273.12 116.131 273.432 116.504C273.432 116.504 273.369 116.504 273.369 116.566C273.245 116.69 273.12 116.877 273.058 117.063C272.934 117.498 273.058 117.933 273.432 118.182C273.432 118.182 273.494 118.182 273.494 118.244C273.618 118.306 273.743 118.306 273.867 118.368C273.929 118.368 273.992 118.368 274.054 118.306C274.241 118.306 274.427 118.182 274.614 118.057C274.676 117.995 274.738 117.933 274.801 117.809L274.863 117.747C274.987 117.56 274.987 117.312 274.925 117.063C274.863 116.939 274.801 116.815 274.738 116.69C274.676 116.628 274.614 116.566 274.489 116.504H274.427C274.303 115.758 274.241 115.013 274.178 114.267C274.552 114.019 274.925 113.77 275.298 113.521C276.356 112.776 277.352 112.03 278.41 111.285C278.783 111.471 279.157 111.72 279.468 111.968C279.405 112.03 279.405 112.092 279.405 112.154C279.405 112.279 279.343 112.341 279.343 112.465C279.343 112.589 279.405 112.714 279.405 112.838C279.468 112.962 279.53 113.024 279.592 113.086C279.717 113.211 279.779 113.273 279.903 113.335H279.966H280.028C280.214 113.397 280.463 113.335 280.65 113.273C280.712 113.211 280.837 113.149 280.899 113.086C280.961 113.024 281.023 112.962 281.086 112.838C281.21 112.652 281.21 112.403 281.21 112.217V112.154C281.21 112.092 281.148 112.03 281.148 111.968C281.086 111.906 281.023 111.782 280.961 111.72C280.837 111.595 280.774 111.595 280.65 111.533C280.588 111.471 280.526 111.471 280.401 111.471C280.028 111.222 279.592 110.974 279.219 110.725C280.152 110.042 281.023 109.42 281.957 108.737C283.201 107.805 284.446 106.873 285.628 105.879C285.939 105.63 286.251 105.32 286.499 105.009C286.997 104.263 287.371 103.828 287.184 103.331ZM268.64 103.518C269.262 103.021 269.947 102.586 270.631 102.213C270.942 102.026 271.316 101.902 271.689 101.84C271.751 101.84 272.063 101.84 272.063 101.84C272.063 101.964 271.751 102.275 271.689 102.337C270.382 103.828 269.138 105.382 267.831 106.873C267.146 107.681 266.4 108.551 265.653 109.358C265.217 109.855 264.72 110.353 264.222 110.725C264.782 107.867 266.4 105.32 268.64 103.518ZM260.612 105.444C260.612 104.947 260.737 104.512 261.048 104.139C261.173 103.953 261.359 103.766 261.608 103.766C261.857 103.828 262.044 104.015 262.168 104.139C262.915 105.009 263.039 106.189 263.164 107.308C263.226 108.426 263.226 109.545 263.226 110.663C262.044 109.048 260.55 107.494 260.612 105.444ZM262.417 117.001C262.168 117.001 261.919 117.001 261.67 117.001C262.23 115.51 262.853 114.019 263.537 112.589C264.16 113.956 264.844 115.323 265.466 116.69C264.471 116.815 263.475 116.939 262.417 117.001ZM267.084 117.933C266.96 117.747 266.898 117.56 266.773 117.312C266.898 117.25 267.084 117.25 267.209 117.187C267.209 117.436 267.146 117.685 267.084 117.933ZM268.951 115.758C268.764 115.82 268.64 115.883 268.453 115.945C268.453 115.82 268.515 115.758 268.515 115.634C268.702 114.826 268.889 114.081 269.076 113.273C269.2 112.9 269.262 112.465 269.387 112.092C269.449 111.844 269.511 111.533 269.698 111.285C270.445 112.279 271.254 113.273 272 114.267C271.067 114.888 270.009 115.385 268.951 115.758ZM275.361 112.154C275.049 112.403 274.738 112.589 274.427 112.838C274.427 111.657 274.552 110.415 274.676 109.234C275.734 109.545 276.73 109.98 277.725 110.477C276.916 110.974 276.107 111.533 275.361 112.154Z" fill="#191919"/>
<path d="M242.939 196.596C242.753 196.472 242.566 196.472 242.317 196.472C242.13 196.472 241.881 196.472 241.695 196.41C241.508 196.41 241.259 196.41 241.072 196.41C239.952 196.286 238.832 196.223 237.712 196.099C236.281 195.913 234.85 195.726 233.418 195.54C232.921 193.987 232.236 192.495 231.365 191.128C231.178 190.818 230.805 190.818 230.556 191.004C229.187 192.122 227.88 193.303 226.698 194.546C226.449 194.484 226.138 194.421 225.889 194.421L226.387 189.575C226.387 189.389 226.2 189.14 226.013 189.078C225.08 188.891 224.333 189.451 223.524 189.886C222.653 190.383 221.844 190.942 221.035 191.439C220.662 191.688 220.226 191.936 219.853 192.247C219.479 192.06 219.168 191.874 218.857 191.688C219.417 189.886 220.039 188.084 220.599 186.282C221.408 186.468 222.28 186.53 223.151 186.468C224.395 186.406 225.64 186.282 226.884 186.157C228.129 186.033 229.374 185.909 230.618 185.723C231.8 185.598 233.045 185.536 234.227 185.35C234.663 185.288 235.099 185.039 235.223 184.604C235.347 184.107 235.036 183.672 234.725 183.361C233.978 182.678 232.921 182.491 231.987 182.305C229.996 181.932 228.005 181.994 226.013 182.367C225.08 182.554 224.146 182.864 223.275 183.299C223.524 183.051 223.773 182.74 224.022 182.429C224.893 181.373 225.764 180.006 225.764 178.577C225.764 177.956 225.515 177.334 224.955 177.024C224.333 176.713 223.586 176.899 222.964 177.148C221.782 177.707 220.973 178.888 220.475 180.068C219.853 181.746 219.915 183.672 219.417 185.412C217.55 186.157 215.683 186.965 213.879 187.835C212.323 186.406 210.892 184.853 209.398 183.299C208.963 182.802 208.278 183.548 208.714 183.983C210.083 185.412 211.452 186.903 212.945 188.332C212.323 188.643 211.638 189.016 211.016 189.389C210.767 189.202 210.394 189.14 210.083 189.202C209.834 189.264 209.585 189.451 209.46 189.637C209.398 189.699 209.336 189.699 209.336 189.761C209.025 190.134 208.9 190.631 209.025 191.128C209.149 191.563 209.523 191.998 210.021 192.06C210.518 192.122 211.016 191.998 211.327 191.625C211.452 191.501 211.576 191.315 211.638 191.128V191.066C211.638 190.942 211.701 190.818 211.701 190.693C211.701 190.569 211.701 190.445 211.638 190.258C212.323 189.886 213.007 189.513 213.754 189.14C214.999 190.258 216.306 191.315 217.675 192.185C217.426 192.93 217.239 193.676 216.99 194.421C216.928 194.484 216.866 194.484 216.803 194.546C216.741 194.484 216.679 194.484 216.617 194.484C216.306 194.421 215.932 194.484 215.683 194.67C215.559 194.794 215.497 194.919 215.434 195.043C215.248 195.229 215.185 195.54 215.248 195.788C215.31 195.913 215.372 196.099 215.497 196.161C215.497 196.286 215.559 196.348 215.621 196.472C215.87 196.907 216.368 197.155 216.866 197.031C217.363 196.907 217.675 196.41 217.737 195.913C217.737 195.788 217.737 195.664 217.737 195.54C217.799 195.354 217.861 195.167 217.924 194.981C218.608 194.484 219.293 193.987 220.039 193.489C220.226 193.552 220.413 193.676 220.537 193.738C221.968 194.421 223.4 194.856 224.893 195.167C224.831 195.726 224.769 196.286 224.706 196.845H224.644C224.458 196.845 224.209 196.907 224.022 196.969C223.586 197.155 223.4 197.653 223.524 198.15C223.524 198.212 223.524 198.212 223.586 198.274C223.586 198.274 223.586 198.274 223.586 198.336C223.649 198.46 223.711 198.585 223.773 198.709C223.835 198.771 223.897 198.771 223.96 198.833C224.146 198.957 224.333 199.019 224.582 199.019C224.706 199.019 224.769 199.02 224.893 198.957C224.955 198.957 224.955 198.957 225.018 198.957C225.266 198.895 225.453 198.709 225.578 198.46C225.64 198.336 225.702 198.212 225.702 198.025C225.702 197.901 225.702 197.777 225.702 197.715V197.653C226.138 196.969 226.698 196.348 227.196 195.726C227.693 195.788 228.129 195.851 228.627 195.975C229.996 196.161 231.365 196.348 232.734 196.534C232.858 196.969 232.983 197.404 233.107 197.839C233.045 197.839 232.921 197.901 232.858 197.963C232.796 198.025 232.672 198.087 232.609 198.15C232.485 198.274 232.423 198.398 232.361 198.522C232.298 198.647 232.298 198.771 232.298 198.833C232.298 199.02 232.361 199.144 232.423 199.268C232.423 199.268 232.423 199.33 232.485 199.33C232.485 199.33 232.485 199.392 232.547 199.392C232.672 199.579 232.858 199.765 233.107 199.827C233.232 199.827 233.294 199.889 233.418 199.889C233.543 199.889 233.605 199.889 233.73 199.827C233.978 199.765 234.165 199.579 234.29 199.392L234.352 199.33C234.352 199.268 234.414 199.206 234.414 199.144C234.414 199.02 234.476 198.957 234.414 198.833C234.414 198.647 234.352 198.585 234.29 198.398C234.227 198.336 234.227 198.274 234.165 198.15C234.165 198.15 234.165 198.15 234.165 198.087C234.041 197.59 233.916 197.093 233.792 196.596C235.036 196.783 236.219 196.907 237.463 197.031C238.832 197.218 240.201 197.342 241.57 197.466C241.757 197.528 241.944 197.528 242.13 197.528C242.317 197.528 242.566 197.59 242.753 197.59C242.939 197.59 243.126 197.466 243.25 197.28C243.313 197.093 243.188 196.783 242.939 196.596ZM230.245 183.175C231.116 183.237 231.987 183.424 232.796 183.61C233.169 183.734 233.543 183.858 233.916 184.107C233.978 184.169 234.165 184.418 234.227 184.356C234.165 184.418 233.667 184.48 233.605 184.48C231.489 184.728 229.311 184.977 227.196 185.163C226.013 185.288 224.831 185.412 223.649 185.474C222.964 185.536 222.217 185.536 221.471 185.474C223.96 183.734 227.133 182.926 230.245 183.175ZM222.528 178.701C222.902 178.328 223.337 178.08 223.835 177.956C224.084 177.893 224.395 177.831 224.52 178.08C224.644 178.266 224.644 178.577 224.644 178.826C224.582 180.006 223.773 181.125 223.026 182.057C222.217 182.989 221.408 183.858 220.537 184.728C220.91 182.616 220.91 180.255 222.528 178.701ZM215.31 189.202C215.123 189.016 214.874 188.829 214.688 188.643C216.243 187.897 217.861 187.152 219.479 186.53C218.981 188.084 218.421 189.637 217.986 191.19C216.99 190.631 216.119 189.948 215.31 189.202ZM218.297 193.427C218.359 193.179 218.421 192.992 218.484 192.744C218.608 192.806 218.795 192.93 218.919 192.992C218.67 193.117 218.484 193.303 218.297 193.427ZM224.893 194.235C223.711 193.924 222.466 193.614 221.346 193.117C221.159 193.054 220.973 192.93 220.848 192.868C220.973 192.806 221.035 192.744 221.159 192.682C221.906 192.185 222.653 191.688 223.4 191.253C223.773 191.004 224.146 190.818 224.52 190.569C224.769 190.445 225.08 190.258 225.329 190.134C225.142 191.501 225.018 192.868 224.893 194.235ZM229.125 194.981C228.689 194.919 228.316 194.856 227.88 194.794C228.813 193.862 229.809 192.992 230.805 192.122C231.365 193.179 231.863 194.235 232.298 195.416C231.24 195.291 230.183 195.167 229.125 194.981Z" fill="#191919"/>
<path d="M134.911 193.241C130.493 188.208 124.395 184.045 118.607 180.69C118.358 180.565 118.11 180.441 117.861 180.441C116.616 179.633 115.309 179.074 113.816 178.826C110.269 178.266 106.784 179.447 103.424 180.379C99.5033 181.497 95.5207 182.554 91.6003 183.672C91.4758 183.734 91.3514 183.734 91.2269 183.796C90.8535 183.859 90.5424 183.921 90.2313 184.045C89.1734 184.169 88.1155 184.356 87.5554 185.226C86.622 186.53 86.9954 188.954 87.0576 190.445C87.1198 192.371 87.0576 194.608 87.5554 196.534C87.8044 197.528 88.4889 198.025 89.3601 198.274C89.4845 198.336 89.5468 198.46 89.6712 198.523C96.2052 202.313 102.615 197.839 108.9 195.789C111.389 199.89 114.998 202.996 118.856 205.73C120.599 206.973 122.714 207.408 124.457 205.73C124.581 205.606 124.706 205.482 124.83 205.357C126.386 206.103 127.942 206.165 129 204.612C129.435 203.99 129.56 203.245 129.435 202.561C130.555 202.996 131.738 202.996 132.795 202.189C134.289 201.008 134.102 199.517 133.293 198.025C135.72 198.212 136.654 195.229 134.911 193.241Z" fill="#FF4133"/>
<path d="M104.544 190.818C108.278 188.892 112.073 191.936 114.5 194.546C117.176 197.528 119.79 200.449 122.839 203.059C123.337 203.493 124.021 202.748 123.524 202.375C121.781 200.884 120.163 199.33 118.607 197.653C117.114 196.099 115.807 194.422 114.314 192.868C111.7 190.197 107.718 188.084 104.046 189.948C103.424 190.197 103.984 191.129 104.544 190.818Z" fill="#191919"/>
<path d="M105.913 186.966C108.028 186.468 110.206 186.531 112.198 187.214C114.251 187.898 115.994 189.14 117.549 190.569C120.91 193.614 124.021 197.031 127.195 200.2C127.63 200.635 128.377 199.952 127.879 199.517C126.075 197.715 124.27 195.913 122.465 194.111C120.785 192.433 119.167 190.694 117.425 189.202C114.065 186.344 109.895 185.039 105.539 186.034C105.041 186.158 105.29 187.152 105.913 186.966Z" fill="#191919"/>
<path d="M107.531 182.989C112.011 181.56 116.367 183.983 119.852 186.593C123.586 189.389 127.07 192.495 130.431 195.664C130.929 196.099 131.613 195.416 131.115 194.981C127.568 191.626 123.835 188.332 119.852 185.412C116.243 182.74 111.7 180.565 107.157 182.057C106.66 182.243 106.908 183.237 107.531 182.989Z" fill="#191919"/>
</g>
<defs>
<clipPath id="clip0_4177_48948">
<rect width="315" height="213" fill="white"/>
</clipPath>
</defs>
</svg>
