<svg width="1183" height="801" viewBox="0 0 1183 801" fill="none" xmlns="http://www.w3.org/2000/svg">
<path d="M245.726 811.001C236.3 813.74 226.591 815.31 217.065 817.657C215.001 818.167 212.857 818.753 211.317 820.218C207.922 823.45 208.866 825.199 211.405 826.123C215.032 827.453 221.869 827.108 223.866 826.991C230.72 826.61 237.555 825.56 244.187 823.804C257.383 820.317 269.897 814.016 280.171 804.962C298.759 788.552 309.289 762.648 304.974 738.239C304.712 736.757 304.848 735.356 304.253 733.967C303.657 732.579 302.18 731.458 300.704 731.779C298.619 732.236 298.074 734.925 297.937 737.063C297.112 749.353 294.874 761.681 289.942 772.959C281.491 792.272 265.789 805.194 245.739 810.996L245.726 811.001Z" fill="#FFBB00"/>
<path d="M205.328 801.392C197.649 806.547 189.229 810.459 180.87 814.41C179.331 815.138 177.744 815.9 176.662 817.194C175.581 818.488 175.121 820.501 176.071 821.895C179.009 826.228 198.607 815.931 202.176 813.984C216.374 806.195 228.564 794.139 236.112 779.598C243.125 766.085 246.068 749.444 246.357 734.362C246.637 719.421 244.263 704.029 236.467 691.046C233.086 685.405 224.308 684.496 228.037 692.63C237.02 712.243 240.23 738.046 234.711 759.087C230.283 775.945 219.878 791.63 205.328 801.392Z" fill="#FFBB00"/>
<path d="M266.572 741.522C265.454 748.429 261.671 754.691 260.419 761.648C260.077 763.525 259.872 765.565 260.787 767.234C265.075 774.976 270.676 759.244 271.74 756.714C273.963 751.45 275.659 745.968 276.818 740.364C279.075 729.441 279.251 718.083 277.194 707.114C273.569 687.756 262.349 665.236 244.559 654.743C241.586 652.985 238.415 651.561 235.058 650.544C231.702 649.528 228.15 648.89 224.674 649.36C223.696 649.495 222.708 649.726 221.939 650.336C220.016 651.883 220.546 655.152 222.287 656.895C224.032 658.652 226.531 659.345 228.845 660.199C243.063 665.444 253.266 675.916 259.735 689.333C264.76 699.746 267.748 711.195 268.152 722.751C268.376 729.142 267.552 735.234 266.553 741.514L266.572 741.522Z" fill="#FFBB00"/>
<path d="M187.2 784.736C185.961 787.746 183.791 790.52 183.362 793.81C182.781 798.292 186.322 802.186 190.231 798.808C193.263 796.203 194.92 791.932 196.484 788.356C199.332 781.892 200.747 774.919 200.955 767.876C201.338 755.551 198.729 743.147 194.133 731.746C189.077 719.197 182.215 708.918 170.673 701.432C164.299 697.307 156.766 694.061 149.623 691.574C147.435 690.811 144.089 689.575 141.723 690.306C139.33 691.046 139.112 693.874 140.489 695.753C142.656 698.718 147.819 699.766 151.065 701.146C155.042 702.837 159.084 704.457 162.635 706.981C169.519 711.897 175.535 718.103 180.411 724.996C186.079 733.021 188.952 744.329 190.284 753.973C191.706 764.228 191.16 775.048 187.195 784.723L187.2 784.736Z" fill="#FFBB00"/>
<path d="M190.635 676.698C189.26 675.523 187.416 674.079 185.361 672.807C180.975 670.103 175.595 668.185 171.657 671.405C170.672 672.218 170.853 673.853 171.666 674.838C172.488 675.805 173.729 676.293 174.897 676.792C192.386 684.221 202.791 703.287 207.671 720.826C208.617 724.262 209.833 727.23 210.368 730.758C210.85 733.938 211.309 738.001 214.077 740.112C216.85 742.237 219.639 739.477 219.343 736.013C218.236 722.863 214.261 710.003 207.944 698.432C203.5 690.272 197.704 682.725 190.616 676.689L190.635 676.698Z" fill="#FFBB00"/>
<path d="M363.992 789.15C361.294 794.085 361.65 801.777 362.148 807.175C362.195 807.71 362.259 808.254 362.319 808.784C365.432 833.381 381.231 858.426 398.076 875.96C415.45 894.049 437.626 906.509 461.573 914.302C467.127 916.109 474.397 917.95 480.263 916.526C484.443 915.517 487.468 911.334 481.555 910.168C456.757 905.27 431.385 893.989 413.234 876.082C401.689 864.684 392.809 851.508 384.178 837.932C375.325 824.009 372.709 809.736 371.687 793.609C371.308 787.583 368.381 781.143 363.987 789.136L363.992 789.15Z" fill="#FFBB00"/>
<path d="M421.37 771.552C415.896 772.507 412.57 778.306 410.58 783.084C404.753 797.059 404.751 814.674 407.304 829.354C410.705 848.934 421.088 867.241 436.151 880.21C440.627 884.061 449.338 885.487 445.053 877.467C442.855 873.348 438.549 870.569 435.549 867.179C426.563 857.049 421.046 844.166 418.289 830.912C415.554 817.757 415.43 803.872 419.751 791.288C421.168 787.154 423.072 783.174 425.511 779.394C428.476 774.804 428.285 770.349 421.37 771.552Z" fill="#FFBB00"/>
<path d="M319.675 792.171C319.126 798.836 319.289 805.556 320.076 812.182C321.676 825.5 325.851 838.485 332.097 850.359C342.694 870.473 359.027 887.294 377.934 899.916C388.073 906.684 399.002 912.283 410.486 916.37C416.346 918.462 422.346 920.148 428.444 921.399C430.854 921.895 444.844 925.829 442.455 919.679C440.952 915.822 434.465 915.253 431.088 914.06C417.613 909.243 404.249 903.986 391.559 897.327C375.888 889.097 359.512 874.01 349.237 859.606C336.841 842.235 329.34 821.333 328.227 799.993C328.122 798.068 328.076 796.137 328.075 794.204C328.083 791.516 328.149 788.653 326.753 786.352C321.831 778.187 319.977 788.545 319.666 792.19L319.675 792.171Z" fill="#FFBB00"/>
<path d="M358.172 693.389C355.938 697.061 356.753 702.158 361.772 698.795C382.757 684.696 408.66 674.683 434.144 674.476C450.358 674.342 465.97 677.363 481.676 680.84C497.781 684.398 509.736 692.62 521.883 703.287C526.423 707.268 533.056 709.746 530.479 700.997C528.894 695.605 523.188 690.434 519.007 686.963C518.585 686.614 518.169 686.279 517.738 685.949C498.113 670.788 469.219 664.29 444.921 663.853C419.845 663.386 395.373 670.287 372.937 681.736C367.729 684.388 361.299 688.247 358.164 693.407L358.172 693.389Z" fill="#FFBB00"/>
<path d="M471.434 703.282C455.158 691.871 434.879 686.298 415.048 687.798C409.156 688.25 402 693.409 410.699 696.036C415.164 697.39 420.187 696.297 424.69 696.563C438.207 697.344 451.222 702.531 462.566 709.939C473.813 717.291 483.734 727.01 489.591 738.952C491.514 742.868 492.995 747.04 493.944 751.426C495.094 756.765 498.381 759.772 502.432 754.024C505.631 749.485 503.863 743.026 501.877 738.245C496.083 724.253 483.627 711.814 471.423 703.255L471.434 703.282Z" fill="#FFBB00"/>
<path d="M509.657 635.194C487.928 628.49 464.495 628.191 442.201 632.668C430.258 635.073 418.568 638.857 407.563 644.103C401.951 646.782 396.507 649.829 391.331 653.265C389.279 654.63 376.607 661.742 382.66 664.391C386.458 666.056 391.424 661.853 394.671 660.318C407.595 654.171 420.761 648.424 434.43 644.147C451.314 638.868 473.575 637.917 491.024 640.804C512.088 644.289 532.174 653.74 548.074 668.007C549.508 669.297 550.911 670.63 552.278 671.991C554.183 673.887 556.167 675.954 558.774 676.606C568.028 678.872 562.004 670.26 559.644 667.475C555.319 662.386 550.441 657.748 545.178 653.639C534.617 645.371 522.474 639.152 509.662 635.208L509.657 635.194Z" fill="#FFBB00"/>
<path d="M434.636 720.23C433.48 719.971 432.246 719.911 431.152 720.35C430.057 720.79 429.139 721.823 429.104 723.002C429.075 724.363 430.134 725.471 431.127 726.405C436.013 730.901 441.615 734.439 445.676 739.764C449.665 744.979 452.512 750.958 456.345 756.292C457.341 757.685 458.527 759.052 460.141 759.676C464.61 761.413 466.7 757.272 465.978 753.614C465.125 749.361 462.317 744.718 458.78 740.301C453.144 733.262 443.942 722.308 434.641 720.244L434.636 720.23Z" fill="#FFBB00"/>
<path d="M387.583 744.281C385.28 746.66 381.18 745.952 378.452 744.071C375.724 742.19 373.728 739.392 371.022 737.488C365.885 733.883 358.347 734.198 353.529 738.222C349.612 741.496 346.546 747.213 341.454 746.768C340.634 739.602 340.641 732.143 337.677 725.564C334.713 718.985 327.523 713.539 320.58 715.488C318.553 716.061 316.501 717.548 316.362 719.641C316.233 721.76 318.202 723.541 320.291 723.957C326.233 725.159 329.888 720.526 332.582 729.094C334.101 733.942 333.339 739.213 334.123 744.229C334.899 749.263 338.24 754.673 343.321 754.846C351.581 755.106 355.825 741.906 364.025 742.909C368.812 743.484 371.406 748.621 374.983 751.872C378.702 755.255 384.211 756.695 388.985 755.141C402.419 750.768 396.42 734.874 388.846 727.577C388.488 727.235 388.112 726.885 387.629 726.743C386.328 726.339 385.017 727.718 384.929 729.086C384.855 730.448 385.592 731.723 386.307 732.898C388.453 736.423 390.452 741.322 387.583 744.281Z" fill="#FFBB00"/>
<path d="M561.054 894.495C532.554 868.104 512.036 831.904 509.166 792.717C508.933 789.505 508.788 786.2 507.437 783.283C506.1 780.361 503.196 777.886 499.985 778.119C496.74 787.094 499.051 793.856 500.614 803.092C501.907 810.786 503.753 818.397 506.121 825.844C510.847 840.756 517.623 854.994 526.142 868.106C534.647 881.222 544.908 893.208 556.617 903.563C559.322 905.958 579.177 921.939 587.532 923.851C589.646 924.334 591.022 923.912 591.21 922.155C591.77 916.836 582.325 912.417 578.833 909.64C572.743 904.796 566.752 899.808 561.046 894.513L561.054 894.495Z" fill="#FFBB00"/>
<path d="M568.348 724.872C558.104 743.121 552.571 763.921 550.598 784.68C548.483 806.949 550.585 829.5 556.756 848.69C559.626 857.606 563.094 866.437 567.219 874.853C569.614 879.743 572.173 884.786 575.59 889.048C577.542 891.479 586.352 898.882 583.322 890.195C576.207 869.792 564.756 850.842 560.392 829.672C554.71 802.138 560.607 769.909 571.992 744.484C575.648 736.322 585.412 723.193 584.655 713.978C583.496 699.744 570.289 721.401 568.335 724.877L568.348 724.872Z" fill="#FFBB00"/>
<path d="M581.606 845.224C583.463 859.397 594.49 856.797 592.765 843.019C591.366 831.881 591.553 820.55 593.184 809.431C596.204 788.848 604.19 768.988 616.297 752.069C619.442 747.673 622.863 743.48 626.542 739.528C629.095 736.794 636.21 732.388 637.432 729.047C639.737 722.77 636.36 722.973 631.977 725.162C627.504 727.401 621.973 731.692 620.391 733.249C591.32 762.013 576.302 804.614 581.606 845.224Z" fill="#FFBB00"/>
<path d="M443.85 839.868C445.105 841.256 447.555 841.737 448.797 840.337C449.487 839.557 449.63 838.461 449.72 837.43C451.049 823.325 453.036 810.324 463.708 799.955C468.107 795.672 473.532 792.204 476.449 786.788C478.803 782.41 476.687 782.127 473.468 783.283C469.521 784.711 463.901 788.314 462.859 789.179C458.241 793.083 453.244 797.573 449.757 802.573C444.106 810.652 435.681 830.814 443.85 839.868Z" fill="#FFBB00"/>
<path d="M671.403 519.649C668.506 515.959 665.904 511.991 662.469 508.794C661.058 507.48 658.873 506.271 657.337 507.459C649.106 513.847 667.27 533.559 671.038 536.908C706.017 567.951 770.34 595.199 811.119 559.208C812.252 558.217 813.527 557.603 814.383 556.362C815.257 555.13 815.441 553.282 814.393 552.201C812.91 550.653 810.346 551.595 808.449 552.595C783.724 565.513 757.969 571.774 731.601 560.374C714.292 552.893 696.807 544.281 682.64 531.576C678.599 527.946 674.819 523.988 671.393 519.622L671.403 519.649Z" fill="#FFBB00"/>
<path d="M829.308 495.157C823.037 504.863 814.819 513.38 805.173 519.76C799.846 523.284 794.204 525.76 788.323 528.171C781.841 530.823 774.534 530.852 767.926 533.412C766.159 534.103 764.294 534.984 763.361 536.636C758.993 544.329 775.33 540.911 778.049 540.509C783.704 539.67 789.265 538.252 794.636 536.323C805.135 532.555 814.916 526.784 823.222 519.324C839.018 505.092 848.853 485.171 851.336 464.175C851.483 462.924 851.808 461.329 850.732 460.381C849.793 459.55 848.037 459.654 846.938 460.08C845.197 460.761 843.843 462.187 842.803 463.757C839.45 468.83 839.028 475.094 836.715 480.607C834.58 485.654 832.308 490.538 829.318 495.183L829.308 495.157Z" fill="#FFBB00"/>
<path d="M993.397 449.83C993.329 451.743 994.455 453.854 996.332 454.196C998.36 454.574 1000.12 452.906 1001.51 451.387C1013.06 438.881 1025.93 427.337 1040.88 419.208C1052.93 412.65 1063.6 409.522 1077.48 409.662C1090.69 409.79 1104.04 412.059 1116.34 416.995C1130.05 422.503 1141.36 431.704 1153.03 440.569C1155.58 442.502 1158.19 442.618 1158.63 440.874C1158.82 440.125 1158.6 439.028 1157.81 437.587C1154.01 430.615 1145.94 423.95 1139.46 419.465C1123.59 408.486 1106.38 400.706 1087.08 399.541C1068.02 398.39 1047.91 401.574 1031.29 411.36C1023.21 416.11 1015.36 421.389 1008.5 427.774C1003.01 432.878 993.694 441.711 993.397 449.83Z" fill="#FFBB00"/>
<path d="M1116.64 494.827C1119.35 499.905 1121.78 505.426 1126.35 508.919C1126.85 509.302 1127.4 509.664 1128.01 509.742C1129.15 509.883 1130.21 508.949 1130.62 507.861C1131.01 506.779 1130.88 505.569 1130.7 504.425C1127.97 487.509 1115.83 471.702 1102.57 461.525C1092.89 454.094 1082.11 448.117 1070.71 443.786C1064.75 441.516 1058.61 439.712 1052.38 438.357C1047.9 437.394 1038.66 434.063 1034.35 435.536C1032.84 436.054 1031.58 437.672 1032.04 439.189C1032.52 440.759 1034.39 441.365 1035.99 441.736C1069.83 449.821 1099.65 462.953 1116.65 494.808L1116.64 494.827Z" fill="#FFBB00"/>
<path d="M1150.68 508.006C1150.95 510.271 1151.29 512.673 1152.78 514.403C1154.27 516.132 1157.31 516.701 1158.77 514.944C1162.81 510.074 1159.38 492.378 1157.88 486.924C1154.95 476.386 1149.72 466.727 1143.14 458.03C1133.45 445.247 1120.26 435.063 1105.25 429.333C1101.17 427.773 1096.1 426.154 1091.66 426.399C1090.28 426.471 1088.76 426.057 1087.72 427.258C1083.3 432.392 1096.8 435.097 1099.28 436.118C1105.75 438.779 1111.91 442.188 1117.61 446.241C1130.76 455.599 1143.98 470.02 1147.71 486.028C1149.38 493.226 1149.85 500.645 1150.69 507.988L1150.68 508.006Z" fill="#FFBB00"/>
<path d="M1127.31 385.021C1124.67 384.597 1103.31 381.882 1108.51 389.391C1109.68 391.087 1111.84 391.705 1113.85 392.229C1127.6 395.776 1141.42 399.543 1154.1 405.962C1175.38 416.716 1192.53 434.549 1205.19 454.753C1208.84 460.571 1212.24 466.712 1217.43 471.202C1218.74 472.337 1220.3 473.396 1222.03 473.302C1228.26 472.925 1217.19 454.028 1215.76 451.451C1210.99 442.889 1205.32 434.837 1198.85 427.465C1186.07 412.877 1170.22 400.937 1152.54 392.919C1144.51 389.277 1136.04 386.41 1127.31 385.04L1127.31 385.021Z" fill="#FFBB00"/>
<path d="M830.504 598.776C831.906 624.013 827.282 651.393 814.443 673.418C806.266 687.427 795.698 699.307 784.688 711.03C775.851 720.437 765.525 726.105 754.273 731.965C750.666 733.849 747.412 739.637 753.538 740.923C755.802 741.397 758.099 740.524 760.208 739.598C784.719 728.938 804.105 710.681 818.066 688.129C831.276 666.809 837.843 642.247 839.469 617.107C839.838 611.277 839.815 603.783 836.983 598.458C834.969 594.669 830.162 592.767 830.509 598.79L830.504 598.776Z" fill="#FFBB00"/>
<path d="M733.866 701.154C746.363 698.588 758.986 695.99 770.624 690.753C788.752 682.6 803.903 667.996 812.731 650.185C815.357 644.892 814.574 636.102 807.863 642.245C804.418 645.388 802.787 650.263 800.255 654.001C792.679 665.223 781.569 673.761 769.402 679.718C757.235 685.674 744.022 689.198 730.709 691.717C727.271 692.372 720.167 693.399 721.724 698.264C723.22 702.968 730.371 701.861 733.847 701.146L733.866 701.154Z" fill="#FFBB00"/>
<path d="M849.406 634.307C846.04 636.715 847.107 643.144 846.779 646.703C845.46 660.958 843.677 675.202 840.369 689.142C836.291 706.361 825.726 725.972 814.33 739.495C800.574 755.819 782.194 768.269 761.806 774.642C759.966 775.222 758.107 775.748 756.227 776.22C753.622 776.886 750.826 777.532 748.947 779.445C742.264 786.238 752.76 785.462 756.354 784.856C762.95 783.743 769.415 781.91 775.646 779.491C788.148 774.637 799.704 767.374 809.643 758.369C826.498 743.112 838.732 723.123 846.274 701.665C850.311 690.169 853.03 678.183 854.143 666.046C854.712 659.85 854.872 653.622 854.559 647.403C854.439 644.947 854.798 630.421 849.418 634.257L849.406 634.307Z" fill="#FFBB00"/>
<path d="M873.094 691.769C872.956 690.21 872.422 688.369 870.915 687.95C868.485 687.277 867.51 689.391 867.003 691.851C863.67 707.779 859.98 723.778 853.163 738.553C849.9 745.632 845.747 752.339 840.519 758.143C837.842 761.122 834.902 763.847 831.728 766.275C828.806 768.517 824.428 770.106 822.91 773.681C820.24 779.925 826.413 779.322 829.911 777.555C834.46 775.273 838.082 771.373 841.71 767.901C859.26 751.096 868.408 726.706 872.332 703.162C872.966 699.396 873.434 695.555 873.089 691.756L873.094 691.769Z" fill="#FFBB00"/>
<path d="M887.445 735.397C887.85 735.415 888.308 735.366 888.836 735.261C893.768 734.293 895.795 723.824 896.752 719.815C898.271 713.448 898.958 706.825 898.86 700.279C898.723 690.956 897.287 682.103 895.935 672.896C893.147 653.931 882.065 634.657 868.997 620.867C867.91 619.724 865.248 617.895 863.552 618.283C861.3 618.787 861.126 621.813 861.977 623.597C862.92 625.546 864.725 626.559 866.104 628.115C867.725 629.949 869.156 632.177 870.613 634.148C873.876 638.53 876.951 643.104 879.212 648.09C881.404 652.932 883.785 657.704 885.664 662.694C889.422 672.629 890.444 683.416 890.588 693.949C890.712 703.768 890.915 714.294 887.329 723.75C886.485 725.967 882.173 735.249 887.436 735.416L887.445 735.397Z" fill="#FFBB00"/>
<path d="M899.455 483.436C895.674 477.914 889.07 479.828 891.487 486.75C893.002 491.094 895.89 495.538 898.157 499.555C902.988 508.091 908.63 516.171 914.969 523.653C927.481 538.419 942.726 550.89 959.777 560.062C977.073 569.358 996.352 575.336 1015.98 575.83C1028.14 576.137 1040.4 574.256 1051.84 570.045C1057.53 567.95 1063.02 565.27 1068.13 562.027C1070.06 560.798 1073.76 559.078 1073.72 556.346C1073.69 553.66 1070.43 552.13 1068.08 552.287C1065.51 552.465 1063.24 553.942 1061.02 555.245C1046.26 563.918 1028.57 566.92 1011.51 565.484C974.431 562.367 939.57 541.988 918.568 511.354C912.196 502.059 905.819 492.75 899.446 483.454L899.455 483.436Z" fill="#FFBB00"/>
<path d="M1008.67 523.252C1013 521.128 1016.18 518.377 1013.63 515.48C1012.02 513.641 1009.01 515.395 1007.29 515.898C1002.03 517.432 996.902 518.766 991.412 519.267C980.614 520.263 969.581 518.738 959.503 514.678C949.023 510.446 939.679 503.503 932.465 494.829C929.005 490.66 926.292 486.027 923.739 481.288C919.077 472.627 913.724 478.586 916.288 485.943C927.194 517.111 965.761 531.595 996.294 527.324C997.986 527.091 1003.99 525.539 1008.66 523.257L1008.67 523.252Z" fill="#FFBB00"/>
<path d="M991.89 613.213C1009.4 619.881 1028.36 622.405 1047.08 621.717C1050 621.608 1053.08 621.38 1055.53 619.787C1058.67 617.755 1059.69 613.216 1056.66 611.756C1056.29 611.573 1055.84 611.448 1055.34 611.375C1053.21 611.065 1050.08 612.205 1047.91 612.432C1042.53 613.016 1037.08 613.193 1031.67 612.991C1020.83 612.592 1010.04 610.654 999.712 607.33C985.427 602.77 972.014 591.916 960.513 582.527C957.205 579.834 951.568 572.259 946.568 573.497C942.02 574.629 944.261 578.41 946.491 581.136C958.317 595.667 974.365 606.549 991.877 613.218L991.89 613.213Z" fill="#FFBB00"/>
<path d="M908.392 563.717C914.544 586.842 927.084 608.623 943.539 625.936C960.571 643.846 984.719 654.725 1009.11 658.319C1012.38 658.797 1016.07 659.047 1018.68 656.998C1027.44 650.104 1010.85 648.046 1007.69 647.372C998.448 645.392 989.257 643.011 980.563 639.247C961.748 631.101 946.011 616.697 934.476 599.741C927.894 590.048 922.61 579.518 918.403 568.585C916.192 562.829 914.282 556.976 912.601 551.037C911.783 548.151 911.829 538.622 907.293 539.089C901.802 539.667 907.424 560.182 908.36 563.714L908.392 563.717Z" fill="#FFBB00"/>
<path d="M1011.94 539.061C1011.94 539.061 1011.82 539.107 1011.74 539.118C1010.61 539.45 1009.45 539.823 1008.63 540.68C1004.26 545.257 1015.41 545.159 1017.69 544.69C1020.88 544.035 1024.36 543.197 1027.4 542.047C1036.15 538.732 1044.43 534.197 1051.96 528.639C1055.75 525.843 1059.16 522.696 1062.65 519.552C1065.49 516.985 1069.98 513.991 1069.6 509.588C1068.79 500.135 1056.36 512.404 1053.86 514.795C1042.1 526.076 1027.58 534.49 1011.94 539.075L1011.94 539.061Z" fill="#FFBB00"/>
<path d="M978.748 475.097C975.145 474.571 946.13 475.513 952.314 484.757C953.14 485.982 954.922 485.946 956.379 485.739C962.475 484.889 968.521 483.536 974.669 483.402C980.818 483.269 987.238 484.476 992.125 488.235C994.042 489.713 995.719 491.572 997.95 492.534C1001.32 493.992 1004.49 492.591 1004.16 489.001C1003.92 486.467 999.53 484.196 997.718 482.878C992.147 478.807 985.596 476.098 978.761 475.092L978.748 475.097Z" fill="#FFBB00"/>
<path d="M724.449 641.447C725.114 639.573 727.37 633.084 727.114 629.236C726.936 626.541 725.522 625.137 721.463 627.497C719.623 628.567 718.458 630.46 717.396 632.299C712.478 640.779 708.234 649.668 702.976 657.938C691.777 675.561 674.966 686.996 654.059 689.681C641.836 691.255 629.391 689.935 617.353 687.282C615.262 686.821 612.534 686.582 611.514 688.451C610.792 689.764 611.46 691.509 612.617 692.473C613.775 693.436 615.163 693.701 616.514 694.362C638.743 705.36 666.557 702.518 687.515 689.289C699.088 681.99 708.636 671.734 715.699 660.043C719.255 654.158 722.183 647.909 724.463 641.442L724.449 641.447Z" fill="#FFBB00"/>
<path d="M728.287 593.399C726.734 594.087 725.548 595.389 724.424 596.653C718.29 603.562 712.173 610.557 705.071 616.478C691.619 627.702 673.636 633.284 656.213 632.811C634.48 632.215 610.597 621.881 594.306 607.76C587.542 601.894 585.957 610.587 590.413 615.413C600.689 626.533 614.801 633.137 629.213 637.051C643.781 641.014 660.579 642.856 675.514 639.916C691.592 636.748 706.577 628.435 718.042 616.988C720.914 614.12 736.29 598.189 732.958 594.156C731.87 592.844 729.827 592.717 728.274 593.404L728.287 593.399Z" fill="#FFBB00"/>
<path d="M626.43 667.965C632.127 668.43 637.864 668.343 643.539 667.68C646.274 667.364 662.945 666.4 656.717 660.119C655.381 658.761 653.358 658.397 651.459 658.201C644.428 657.452 637.35 659.329 630.411 658.454C624.102 657.665 618.015 656.732 611.944 654.735C600.962 651.089 590.808 645.017 582.222 637.269C578.124 633.568 574.647 629.436 571.273 625.127C567.593 620.41 565.562 614.48 561.001 610.445C559.602 609.204 557.914 608.177 556.06 607.979C554.891 607.848 553.158 608.22 552.472 609.258C551.678 610.46 552.408 611.921 552.873 613.083C560.756 632.707 575.437 649.378 594.392 659.005C604.346 664.048 615.296 667.076 626.416 667.97L626.43 667.965Z" fill="#FFBB00"/>
<path d="M636.23 564.395C630.968 557.784 626.702 550.264 623.919 542.282C622.49 538.167 622.066 533.83 621.567 529.536C621.146 526.027 621.609 520.776 619.358 517.873C617.933 516.027 615.159 515.421 613.784 517.531C612.425 519.603 612.661 523.151 612.79 525.466C613.168 533.011 614.174 541.166 616.353 548.438C620.289 561.604 628.238 571.093 638.865 579.459C648.52 587.068 659.704 593.062 671.625 596.142C678.451 597.904 685.536 598.51 692.544 597.595C696.419 597.084 700.971 596.703 704.327 594.513C708.66 591.698 705.912 587.216 701.449 586.521C698.161 586.016 694.892 587.329 691.657 587.663C681.276 588.748 670.716 586.233 661.278 581.996C652.407 578.006 642.354 572.08 636.244 564.39L636.23 564.395Z" fill="#FFBB00"/>
<path d="M627.088 596.117C611.614 586.524 596.248 571.184 594.018 552.317C593.868 551.053 593.752 549.716 593.05 548.658C592.349 547.601 590.807 546.965 589.754 547.68C585.564 550.55 585.881 556.246 587.251 561.227C587.894 563.564 588.762 565.725 589.504 567.382C593.305 575.873 598.937 583.558 605.511 590.108C614.849 599.416 626.075 606.837 638.393 611.594C641.621 612.843 645.064 610.928 643.806 607.685C642.549 604.442 638.781 602.858 635.867 601.507C632.634 599.999 630.112 598.01 627.093 596.131L627.088 596.117Z" fill="#FFBB00"/>
<path d="M809.017 616.177C811.244 612.199 806.965 607.891 804.563 604.952C798.741 597.829 790.847 592.754 781.511 591.915C779.161 591.703 776.685 591.769 774.586 592.845C773.943 593.177 773.322 593.608 772.981 594.257C772.241 595.685 773.275 597.508 774.693 598.266C776.126 599.02 777.813 599.019 779.419 599.171C788.507 599.965 796.97 605.902 800.8 614.183C802.539 617.936 806.187 621.253 809.017 616.177Z" fill="#FFBB00"/>
<path d="M778.414 622.808C770.519 619.62 761.676 619.195 753.282 619.768C752.729 619.806 750.894 619.863 748.572 620.055C744.645 620.387 739.149 622.102 741.812 627.137C744.621 632.44 754.65 629.261 759.074 629.48C763.543 629.698 768.017 630.175 772.383 631.183C776.565 632.152 779.834 634.536 783.934 635.613C786.914 636.403 790.746 635.57 791.088 633.324C791.212 632.465 790.828 631.396 789.691 630.118C786.84 626.964 782.359 624.373 778.428 622.803L778.414 622.808Z" fill="#FFBB00"/>
<path d="M1092.02 766.95C1088.57 762.498 1081.37 759.772 1076.22 758.06C1075.71 757.883 1075.19 757.724 1074.67 757.579C1050.87 750.621 1021.6 755.111 998.809 763.548C975.288 772.258 955.016 787.609 938.302 806.448C934.424 810.812 929.834 816.761 928.795 822.688C928.059 826.921 930.675 831.375 934.113 826.409C948.506 805.629 968.979 786.873 992.635 777.377C1007.69 771.34 1023.32 768.461 1039.22 765.96C1055.52 763.398 1069.64 766.7 1084.85 772.205C1090.53 774.258 1097.6 774.145 1092.02 766.932L1092.02 766.95Z" fill="#FFBB00"/>
<path d="M1076.41 827.263C1079.43 831.812 1083.59 833.418 1085.26 826.596C1086.57 821.209 1082.57 815.831 1078.98 812.108C1068.49 801.19 1052.35 794.15 1037.87 790.629C1018.55 785.94 997.627 788.139 979.726 796.775C974.41 799.343 969.613 806.751 978.688 806.03C983.336 805.66 987.614 802.819 991.913 801.428C1004.78 797.234 1018.81 797.319 1032.06 800.088C1045.22 802.828 1058 808.256 1067.8 817.251C1071.02 820.206 1073.92 823.527 1076.41 827.276L1076.41 827.263Z" fill="#FFBB00"/>
<path d="M945.046 773.242C943.635 775.258 934.427 786.507 941.031 786.771C945.176 786.941 948.269 781.213 950.727 778.592C960.514 768.155 970.684 758.004 981.847 749.032C995.646 737.955 1016.02 728.963 1033.32 725.293C1054.2 720.853 1076.36 722.334 1096.37 729.819C1098.17 730.495 1099.96 731.223 1101.74 732C1104.2 733.077 1106.81 734.28 1109.48 733.93C1118.92 732.673 1110.17 726.842 1106.95 725.102C1101.05 721.933 1094.83 719.409 1088.44 717.486C1075.58 713.635 1062 712.279 1048.64 713.266C1025.96 714.955 1004.02 723.212 984.911 735.506C974.668 742.094 965.164 749.879 956.827 758.777C952.568 763.314 948.62 768.148 945.059 773.237L945.046 773.242Z" fill="#FFBB00"/>
<path d="M957.636 726.886C956.792 728.198 956.078 729.984 957.005 731.233C958.509 733.249 960.568 732.188 962.493 730.564C974.907 720.051 987.648 709.676 1002.1 702.205C1009.03 698.619 1016.42 695.89 1024.12 694.519C1028.06 693.814 1032.06 693.471 1036.06 693.51C1039.76 693.541 1044.17 694.961 1047.58 693.075C1053.52 689.779 1048.27 686.478 1044.43 685.72C1039.44 684.729 1034.19 685.586 1029.19 686.087C1005.02 688.567 982.814 702.2 965.268 718.358C962.458 720.942 959.736 723.677 957.655 726.894L957.636 726.886Z" fill="#FFBB00"/>
<path d="M920.004 790.728C922.091 791.713 924.092 789.431 924.51 787.511C924.962 785.394 924.157 783.485 924.029 781.416C923.869 778.975 924.111 776.337 924.173 773.875C924.296 768.413 924.668 762.919 925.947 757.593C927.19 752.419 928.245 747.192 929.827 742.105C932.958 731.961 938.78 722.82 945.151 714.411C951.08 706.581 957.395 698.146 966.035 692.893C968.061 691.661 977.163 686.988 973.113 683.622C972.804 683.369 972.417 683.114 971.926 682.868C967.448 680.613 959.402 687.623 956.188 690.189C951.072 694.279 946.468 699.082 942.512 704.304C936.897 711.741 932.58 719.613 927.994 727.708C918.543 744.387 915.447 766.41 917.291 785.313C917.447 786.881 918.426 789.952 919.994 790.701L920.004 790.728Z" fill="#FFBB00"/>
<path d="M903.582 623.582C902.223 623.844 900.84 624.99 901.03 626.361C901.215 627.719 902.691 628.426 904.006 628.824C911.874 631.24 921.101 631.214 926.94 637.027C927.425 637.505 927.885 638.039 928.108 638.677C928.651 640.254 927.572 642.007 926.153 642.89C924.734 643.773 923.029 644.057 921.442 644.573C915.53 646.49 909.136 653.113 912.181 659.662C913.32 662.137 915.398 664.045 917.624 665.608C919.284 666.767 921.071 667.772 922.531 669.175C923.991 670.578 925.133 672.484 925.032 674.516C924.954 676.279 923.951 677.865 922.92 679.294C920.653 682.427 918.002 685.35 916.312 688.835C914.627 692.334 914.068 696.67 916.074 699.986C917.02 701.535 919.143 703.274 921.027 702.156C923.16 700.883 921.78 699.941 921.624 698.25C921.188 693.181 923.398 688.336 926.361 684.192C929.467 679.856 933.825 675.175 932.44 670.03C931.065 664.913 924.849 662.893 921.722 658.63C921.106 657.802 920.612 656.85 920.503 655.817C920.189 652.759 923.29 650.465 926.202 649.469C929.113 648.474 932.442 647.936 934.413 645.574C936.376 643.23 936.316 639.662 934.945 636.936C933.575 634.211 931.114 632.184 928.544 630.521C922.021 626.283 914.321 623.866 906.54 623.613C905.155 623.562 904.91 623.316 903.55 623.579L903.582 623.582Z" fill="#FFBB00"/>
<path d="M1071.07 669.339C1081.04 672.903 1092.54 674.465 1101.87 679.557C1105.67 681.636 1109.12 684.291 1111.95 687.915C1115.46 692.433 1117.78 697.78 1121.32 702.288C1122.67 704.009 1124.62 705.749 1126.75 705.277C1130.14 704.514 1129.98 699.558 1128.56 696.376C1123.75 685.546 1114.27 677.367 1103.83 671.769C1093.39 666.171 1081.9 662.853 1070.61 659.322C1067.99 658.507 1065.22 657.591 1063.39 655.528C1058.51 650.05 1063.97 646.03 1069.05 645.853C1073.56 645.687 1078.06 648.041 1082.54 647.672C1084.17 647.536 1085.95 647.149 1086.91 645.837C1087.9 644.533 1087.03 643.477 1085.53 642.839C1080.14 640.513 1074.58 638.155 1068.7 637.988C1062.82 637.821 1056.49 640.372 1053.87 645.645C1047.34 658.795 1060.58 665.584 1071.07 669.339Z" fill="#FFBB00"/>
<path d="M867.613 504C865.801 505.721 865.008 508.241 864.358 510.648C858.575 532.216 858.678 555.329 864.686 576.835C867.186 585.828 871.038 594.991 878.493 600.614C879.26 601.187 880.093 601.735 881.032 601.906C884.542 602.512 884.339 599.504 884.964 596.003C870.773 569.882 867.126 538.227 875.016 509.566C875.064 507.477 874.321 505.529 874.374 503.454C872.575 501.717 869.425 502.28 867.613 504Z" fill="#FFBB00"/>
<path d="M842.442 570.645C842.835 570.053 842.913 569.318 842.956 568.612C843.311 562.25 841.805 555.755 843.243 549.541C843.984 546.349 847.89 540.334 846.74 537.05C843.673 528.346 836.949 541.644 835.999 544.484C833.622 551.509 833.368 560.809 836.267 567.751C836.814 569.05 837.502 570.358 838.675 571.116C839.862 571.87 841.665 571.81 842.442 570.645Z" fill="#FFBB00"/>
<path d="M1019.35 457.525C1012.69 459.873 1019.66 465.418 1023.07 466.551C1032.7 469.768 1038.98 475.706 1043.55 484.784C1044.26 486.191 1044.97 487.675 1046.23 488.631C1048.56 490.385 1050.43 489.013 1051.58 486.511C1051.92 485.772 1052.08 485.052 1052.11 484.332C1052.23 482.004 1050.99 479.733 1049.83 477.469C1046.6 471.249 1041.52 465.905 1035.66 462.094C1031.71 459.521 1024.26 455.78 1019.35 457.525Z" fill="#FFBB00"/>
<path d="M1181.39 621.422C1173.43 635.874 1162.16 645.023 1148.51 653.652C1143.41 656.877 1139.16 662.545 1148.28 662.542C1153.9 662.546 1160.47 658.54 1164.99 655.505C1165.44 655.197 1165.88 654.895 1166.31 654.579C1186.4 640.035 1200.78 614.148 1208.08 590.97C1215.61 567.047 1215.9 541.623 1211.26 516.862C1210.17 511.129 1208.3 503.851 1204.24 499.398C1201.35 496.227 1196.23 495.564 1198.04 501.316C1205.65 525.43 1207.93 553.1 1200.93 577.609C1196.47 593.204 1189.17 607.319 1181.41 621.417L1181.39 621.422Z" fill="#FFBB00"/>
<path d="M1090.66 614.95C1089.6 615.36 1088.77 616.623 1089.23 617.661C1089.49 618.212 1090 618.57 1090.52 618.884C1113.61 633.225 1143.69 620.457 1162.76 605.262C1178.31 592.873 1189.38 574.99 1193.53 555.549C1194.77 549.779 1191.84 541.452 1186.86 549.052C1184.29 552.955 1183.92 558.08 1182.4 562.333C1177.83 575.071 1169.17 586.1 1158.87 594.887C1147.83 604.286 1136.34 610.773 1123.69 613.841C1114.51 616.075 1104.72 616.493 1094.07 614.905C1092.93 614.746 1091.74 614.561 1090.68 614.971L1090.66 614.95Z" fill="#FFBB00"/>
<path d="M1172.2 699.992C1178.3 697.282 1184.12 693.913 1189.56 690.026C1200.47 682.236 1209.87 672.326 1217.27 661.156C1229.83 642.21 1236.74 619.805 1238.75 597.162C1239.81 585.026 1239.49 572.749 1237.56 560.707C1236.58 554.566 1235.19 548.49 1233.35 542.548C1232.63 540.195 1229.38 526.035 1225.13 531.09C1222.46 534.264 1225.09 540.219 1225.64 543.756C1227.88 557.893 1229.68 572.15 1229.92 586.467C1230.22 604.152 1224.84 625.77 1217.15 641.699C1207.86 660.91 1193.12 677.523 1174.95 688.747C1173.3 689.761 1171.64 690.735 1169.94 691.659C1167.58 692.94 1165.04 694.272 1163.68 696.59C1158.89 704.825 1168.86 701.485 1172.2 700.006L1172.2 699.992Z" fill="#FFBB00"/>
<path d="M1137.47 553.249C1132.61 553.837 1127.62 553.642 1122.9 554.93C1118.18 556.218 1113.56 559.48 1112.54 564.265C1111.96 566.982 1114.65 569.183 1117.28 567.879C1118.12 567.458 1118.76 566.744 1119.4 566.075C1119.44 566.028 1119.47 565.986 1119.52 565.952C1123.07 562.264 1127.93 559.88 1132.99 559.185C1137.61 558.552 1143.01 560.123 1147.03 557.055C1150.51 554.406 1151.05 549.248 1149.82 545.044C1147.88 538.451 1142.12 533.131 1135.39 531.716C1130.3 530.657 1125.35 532.308 1120.32 531.76C1116.07 531.293 1111.5 530.315 1107.92 527.846C1104.46 525.441 1101.9 521.567 1101.65 517.365C1101.48 514.619 1102.12 511.404 1100.15 509.487C1098.68 508.07 1096.02 508.006 1095.11 509.804C1094.2 511.569 1094.53 514.822 1094.67 516.732C1095.03 521.231 1096.61 525.645 1099.29 529.292C1103.52 535.062 1110.4 538.795 1117.53 539.2C1122.44 539.483 1127.34 538.267 1132.27 538.514C1137.19 538.76 1142.57 541.065 1144.12 545.73C1144.55 546.984 1144.65 548.372 1144.14 549.591C1143.12 552.042 1140.11 552.905 1137.47 553.231L1137.47 553.249Z" fill="#FFBB00"/>
<path d="M1091.14 576.219C1089.75 575.832 1087.98 576.354 1087.49 577.704C1086.99 579.086 1087.97 580.548 1088.96 581.636C1099.01 592.623 1121.97 598.424 1131.67 583.737C1132.85 581.949 1133.51 578.678 1130.96 577.96C1128.72 577.321 1126.41 580.533 1125.24 581.889C1122.65 584.897 1118.9 586.882 1114.96 587.328C1107.42 588.193 1100.34 583.689 1094.7 578.615C1093.63 577.648 1092.51 576.624 1091.13 576.237L1091.14 576.219Z" fill="#FFBB00"/>
<path d="M1133.28 760.679C1137.32 757.037 1140.89 752.912 1144.89 749.208C1149.66 744.803 1155.27 740.941 1161.68 740.021C1165.34 739.499 1179.43 741.569 1177.83 734.217C1176.93 730.029 1167.92 730.588 1164.76 731.001C1160.16 731.598 1155.55 733 1151.34 734.937C1143.37 738.593 1136.62 744.596 1130.95 751.316C1129 753.623 1126.94 756.344 1126.51 759.434C1126.32 760.746 1126.51 762.763 1128 763.465C1130.1 764.458 1131.91 761.929 1133.29 760.674L1133.28 760.679Z" fill="#FFBB00"/>
<path d="M1124.05 797.742C1125.73 797.313 1127.13 796.176 1128.48 795.059C1143.48 782.766 1160.09 771.007 1179.04 765.863C1193.47 761.945 1208.56 760.541 1223.46 761.682C1239.21 762.902 1252.13 767.911 1266.25 774.696C1267.77 775.433 1269.33 776.168 1271.03 776.24C1272.73 776.311 1274.55 775.522 1275.18 773.954C1275.95 772.039 1274.67 769.924 1273.23 768.452C1271.5 766.672 1269.48 765.144 1267.27 763.835C1259.36 759.134 1249 757.112 1240.68 755.263C1230.86 753.072 1220.78 752.095 1210.71 752.283C1193.45 752.609 1176.21 756.364 1160.41 763.355C1150.57 767.705 1140.75 772.554 1132.33 779.322C1128.31 782.54 1124.33 786.266 1121.46 790.562C1119.5 793.488 1118.08 799.251 1124.04 797.728L1124.05 797.742Z" fill="#FFBB00"/>
<path d="M1120.46 820.346C1137.29 813.736 1153.52 806.571 1171.59 804.164C1191.13 801.56 1210.98 801.891 1230.46 804.91C1242.12 806.708 1253.75 808.821 1265.1 812.098C1276.64 815.429 1287.61 820.599 1299.14 824.147C1301.1 824.751 1303.25 825.342 1305.16 824.582C1311.55 822.057 1302.96 817.521 1300.79 816.166C1296.17 813.275 1290.99 811.527 1285.79 810.003C1282.39 809.015 1278.93 808.07 1275.41 806.868C1264.11 803.002 1252.86 799.566 1241.1 797.362C1219.38 793.309 1197.01 792.659 1175.08 795.403C1153.11 798.149 1136.02 803.258 1116.2 813.822C1113.13 815.46 1109.57 818.307 1110.64 821.621C1113.8 822.836 1117.32 821.595 1120.48 820.355L1120.46 820.346Z" fill="#FFBB00"/>
<path d="M917.305 858.139C914.617 853.819 910.412 850.573 906.615 847.266C888.289 831.312 863.174 824.415 839.374 822.642C835.557 822.365 831.705 822.239 827.941 822.924C826.405 823.206 824.619 823.888 824.338 825.436C823.881 827.908 826.078 828.698 828.576 828.977C844.743 830.855 861.004 833.065 876.344 838.52C883.687 841.132 890.74 844.65 897.002 849.338C900.198 851.734 903.196 854.419 905.907 857.365C908.41 860.081 910.393 864.281 914.092 865.476C920.566 867.569 919.38 861.476 917.323 858.148L917.305 858.139Z" fill="#FFBB00"/>
<path d="M858.494 805.85C860.773 806.487 870.406 809.931 870.105 804.689C870.077 804.285 869.997 803.824 869.851 803.311C868.437 798.5 857.829 797.415 853.742 796.824C847.255 795.888 840.612 795.807 834.101 796.49C824.83 797.467 816.137 799.702 807.087 801.886C788.456 806.391 770.261 819.171 757.713 833.432C756.669 834.62 755.095 837.432 755.623 839.091C756.32 841.286 759.369 841.19 761.047 840.18C762.904 839.072 763.746 837.177 765.174 835.662C766.857 833.882 768.937 832.261 770.779 830.622C774.847 826.97 779.121 823.502 783.881 820.803C788.499 818.173 793.057 815.381 797.835 813.059C807.38 808.42 818.033 806.42 828.518 805.326C838.291 804.299 848.756 803.151 858.491 805.882L858.494 805.85Z" fill="#FFBB00"/>
<path d="M688.012 808.745C690.944 786.033 687.147 765.189 677.13 744.658C675.746 741.815 674.08 738.832 671.242 737.438C668.404 736.043 664.153 737.232 663.582 740.345C663.328 741.759 663.861 743.186 664.377 744.528C667.315 752.022 672.911 758.953 674.464 766.889C676.824 778.956 677.585 791.345 676.782 803.612C675.27 826.838 667.962 850.034 655.741 869.482C654.02 872.227 649.548 879.19 650.723 882.541C653.257 889.818 664.851 874.441 666.245 871.849C676.889 852.162 685.154 830.955 688.017 808.759L688.012 808.745Z" fill="#FFBB00"/>
<path d="M716.212 849.087C718.577 843.34 719.249 836.967 720.963 830.957C724.951 816.948 725.858 802.125 724.173 787.673C722.065 769.666 715.998 752.233 707.449 736.248C704.641 730.991 701.514 725.822 697.354 721.546C696.259 720.421 695.042 719.341 693.551 718.84C692.059 718.338 690.236 718.59 689.228 719.795C688.168 721.065 688.332 722.983 689.081 724.452C689.829 725.922 691.079 727.051 692.169 728.285C697.278 734.033 701.059 742.47 703.764 749.591C707.951 760.593 711.073 771.992 713.089 783.59C714.423 791.269 715.263 799.103 714.718 806.885C714.178 814.559 712.299 822.057 710.18 829.446C705.66 845.235 699.942 860.734 692.516 875.398C688.76 882.8 684.569 889.981 679.884 896.825C677.165 900.802 673.181 903.855 670.929 908.179C666.661 916.386 676.844 912.551 680.345 909.233C691.748 898.438 699.453 883.7 706.439 869.706C709.834 862.9 713.33 856.116 716.226 849.082L716.212 849.087Z" fill="#FFBB00"/>
</svg>
